<svg xmlns="http://www.w3.org/2000/svg" width="60" height="60" fill="none"><rect width="60" height="60" fill="#7B68EE" fill-opacity=".1" rx="30"/><path fill="#7B68EE" d="M41.258 25.194c1.256-1.256.683-2.724 0-3.437l-3.015-3.015c-1.266-1.256-2.723-.683-3.437 0l-3.708 3.719h-2.603c-1.91 0-3.015 1.005-3.577 2.16l-3.252 4.191a1 1 0 0 0-.21.613v1.262a1 1 0 0 1-.294.708l-2.42 2.41c-1.256 1.267-.683 2.724 0 3.437l3.015 3.014c.543.543 1.126.744 1.678.744.714 0 1.367-.352 1.759-.744l2.713-2.723h4.608c1.708 0 2.572-1.065 2.884-2.11 1.135-.301 1.758-1.166 2.01-2.01 1.557-.401 2.14-1.879 2.14-2.914v-3.602l-.593.588 2.301-2.291Zm-3.719 5.305c0 .453-.19 1.005-1.005 1.005H35.53v1.005c0 .452-.19 1.005-1.005 1.005H33.52v1.005c0 .452-.191 1.005-1.005 1.005h-5.432l-3.296 3.295c-.311.292-.492.121-.603.01l-3.005-2.994c-.29-.311-.12-.492-.01-.603l3.005-3.013a1 1 0 0 0 .292-.706v-1.278a1 1 0 0 1 .194-.593l.84-1.142-.024.995c0 1.215.803 3.014 3.014 3.014s3.015-1.799 3.015-3.014h7.034v1.004Zm2.291-6.732-3.708 3.718h-7.627v2.01c0 .452-.19 1.004-1.005 1.004-.814 0-1.005-.552-1.005-1.004V26.48c0-.462.171-2.01 2.01-2.01h3.427l4.29-4.29c.313-.292.493-.121.604-.01l3.005 2.994c.29.311.12.492.01.603Z"/></svg>