<svg xmlns="http://www.w3.org/2000/svg" width="96" height="96" viewBox="0 0 96 96" fill="none">
    <mask id="path-1-inside-1_14650_96640" fill="white">
        <path d="M77.1014 32.2659V20.3206C77.1014 19.4736 76.4153 18.7955 75.5572 18.7955H63.3759C62.5183 18.7955 61.8317 19.4731 61.8317 20.3206C61.8317 21.1676 62.5178 21.8458 63.3759 21.8458H71.9545L58.7435 34.9773C58.1429 35.5705 58.1429 36.5869 58.7435 37.1801C59.0866 37.5189 59.4297 37.6039 59.8587 37.6039C60.2878 37.6039 60.6309 37.4345 60.9739 37.1801L73.9273 24.3873V32.3514C73.9273 33.1984 74.6134 33.8765 75.4716 33.8765C76.4153 33.876 77.1014 33.1134 77.1014 32.2659Z"/>
        <path fill-rule="evenodd" clip-rule="evenodd" d="M60.9739 37.1801C60.6309 37.4345 60.2878 37.6039 59.8587 37.6039C59.4297 37.6039 59.0866 37.5189 58.7435 37.1801C58.1429 36.5869 58.1429 35.5705 58.7435 34.9773L71.9545 21.8458H63.3759C62.5178 21.8458 61.8317 21.1676 61.8317 20.3206C61.8317 19.4731 62.5183 18.7955 63.3759 18.7955H75.5572C76.4153 18.7955 77.1014 19.4736 77.1014 20.3206V32.2659C77.1014 33.1134 76.4153 33.876 75.4716 33.8765C74.6134 33.8765 73.9273 33.1984 73.9273 32.3514V24.3873L60.9739 37.1801ZM73.6143 25.1365L61.1782 37.4184L61.1604 37.4316C60.7896 37.7065 60.3815 37.9169 59.8587 37.9169C59.3732 37.9169 58.9414 37.8155 58.5236 37.4028C57.799 36.6871 57.7988 35.4707 58.5233 34.7549L71.1955 22.1588H63.3759C62.3485 22.1588 61.5186 21.3441 61.5186 20.3206C61.5186 19.2965 62.3492 18.4824 63.3759 18.4824H75.5572C76.5846 18.4824 77.4145 19.2971 77.4145 20.3206V32.2659C77.4145 33.2792 76.5952 34.1889 75.4718 34.1896C74.4443 34.1896 73.6143 33.3749 73.6143 32.3514V25.1365Z"/>
        <path fill-rule="evenodd" clip-rule="evenodd" d="M9 9H20.125C21.2296 9 22.125 9.89543 22.125 11C22.125 12.1046 21.2296 13 20.125 13H13V20.125C13 21.2296 12.1046 22.125 11 22.125C9.89543 22.125 9 21.2296 9 20.125V9ZM36.375 11C36.375 9.89543 37.2704 9 38.375 9H56.625C57.7296 9 58.625 9.89543 58.625 11C58.625 12.1046 57.7296 13 56.625 13H38.375C37.2704 13 36.375 12.1046 36.375 11ZM72.875 11C72.875 9.89543 73.7704 9 74.875 9H86V20.125C86 21.2296 85.1046 22.125 84 22.125C82.8954 22.125 82 21.2296 82 20.125V13H74.875C73.7704 13 72.875 12.1046 72.875 11ZM84 36.375C85.1046 36.375 86 37.2704 86 38.375V56.625C86 57.7296 85.1046 58.625 84 58.625C82.8954 58.625 82 57.7296 82 56.625V38.375C82 37.2704 82.8954 36.375 84 36.375ZM84 72.875C85.1046 72.875 86 73.7704 86 74.875V86H74.875C73.7704 86 72.875 85.1046 72.875 84C72.875 82.8954 73.7704 82 74.875 82H82V74.875C82 73.7704 82.8954 72.875 84 72.875Z"/>
        <path d="M9 38.375C9 37.2704 9.89543 36.375 11 36.375C12.1046 36.375 13 37.2704 13 38.375V56.625C13 57.7296 12.1046 58.625 11 58.625C9.89543 58.625 9 57.7296 9 56.625V38.375Z"/>
        <path d="M9 74.875C9 73.7704 9.89543 72.875 11 72.875C12.1046 72.875 13 73.7704 13 74.875V82H20.125C21.2296 82 22.125 82.8954 22.125 84C22.125 85.1046 21.2296 86 20.125 86H9V74.875Z"/>
        <path d="M38.375 82C37.2704 82 36.375 82.8954 36.375 84C36.375 85.1046 37.2704 86 38.375 86H56.625C57.7296 86 58.625 85.1046 58.625 84C58.625 82.8954 57.7296 82 56.625 82H38.375Z"/>
        <path d="M38.3509 35.9842C39.4791 33.8615 42.5209 33.8615 43.6491 35.9842L48.5066 45.1235C48.9601 45.9768 49.7968 46.5594 50.7545 46.6886L61.2296 48.102C63.7591 48.4433 64.734 51.5865 62.8417 53.2993L55.5557 59.894C54.7844 60.5922 54.4298 61.6401 54.6188 62.6631L56.3773 72.1834C56.8246 74.6053 54.3243 76.5046 52.1111 75.4242L42.3161 70.6425C41.4855 70.237 40.5145 70.237 39.6839 70.6425L29.8889 75.4242C27.6757 76.5046 25.1754 74.6053 25.6227 72.1834L27.3812 62.6631C27.5702 61.6401 27.2156 60.5922 26.4443 59.894L19.1583 53.2993C17.266 51.5865 18.2409 48.4433 20.7704 48.102L31.2455 46.6886C32.2032 46.5594 33.0399 45.9768 33.4934 45.1235L38.3509 35.9842Z"/>
    </mask>
    <path d="M77.1014 32.2659V20.3206C77.1014 19.4736 76.4153 18.7955 75.5572 18.7955H63.3759C62.5183 18.7955 61.8317 19.4731 61.8317 20.3206C61.8317 21.1676 62.5178 21.8458 63.3759 21.8458H71.9545L58.7435 34.9773C58.1429 35.5705 58.1429 36.5869 58.7435 37.1801C59.0866 37.5189 59.4297 37.6039 59.8587 37.6039C60.2878 37.6039 60.6309 37.4345 60.9739 37.1801L73.9273 24.3873V32.3514C73.9273 33.1984 74.6134 33.8765 75.4716 33.8765C76.4153 33.876 77.1014 33.1134 77.1014 32.2659Z" fill="url(#paint0_linear_14650_96640)"/>
    <path fill-rule="evenodd" clip-rule="evenodd" d="M60.9739 37.1801C60.6309 37.4345 60.2878 37.6039 59.8587 37.6039C59.4297 37.6039 59.0866 37.5189 58.7435 37.1801C58.1429 36.5869 58.1429 35.5705 58.7435 34.9773L71.9545 21.8458H63.3759C62.5178 21.8458 61.8317 21.1676 61.8317 20.3206C61.8317 19.4731 62.5183 18.7955 63.3759 18.7955H75.5572C76.4153 18.7955 77.1014 19.4736 77.1014 20.3206V32.2659C77.1014 33.1134 76.4153 33.876 75.4716 33.8765C74.6134 33.8765 73.9273 33.1984 73.9273 32.3514V24.3873L60.9739 37.1801ZM73.6143 25.1365L61.1782 37.4184L61.1604 37.4316C60.7896 37.7065 60.3815 37.9169 59.8587 37.9169C59.3732 37.9169 58.9414 37.8155 58.5236 37.4028C57.799 36.6871 57.7988 35.4707 58.5233 34.7549L71.1955 22.1588H63.3759C62.3485 22.1588 61.5186 21.3441 61.5186 20.3206C61.5186 19.2965 62.3492 18.4824 63.3759 18.4824H75.5572C76.5846 18.4824 77.4145 19.2971 77.4145 20.3206V32.2659C77.4145 33.2792 76.5952 34.1889 75.4718 34.1896C74.4443 34.1896 73.6143 33.3749 73.6143 32.3514V25.1365Z" fill="url(#paint1_linear_14650_96640)"/>
    <path fill-rule="evenodd" clip-rule="evenodd" d="M9 9H20.125C21.2296 9 22.125 9.89543 22.125 11C22.125 12.1046 21.2296 13 20.125 13H13V20.125C13 21.2296 12.1046 22.125 11 22.125C9.89543 22.125 9 21.2296 9 20.125V9ZM36.375 11C36.375 9.89543 37.2704 9 38.375 9H56.625C57.7296 9 58.625 9.89543 58.625 11C58.625 12.1046 57.7296 13 56.625 13H38.375C37.2704 13 36.375 12.1046 36.375 11ZM72.875 11C72.875 9.89543 73.7704 9 74.875 9H86V20.125C86 21.2296 85.1046 22.125 84 22.125C82.8954 22.125 82 21.2296 82 20.125V13H74.875C73.7704 13 72.875 12.1046 72.875 11ZM84 36.375C85.1046 36.375 86 37.2704 86 38.375V56.625C86 57.7296 85.1046 58.625 84 58.625C82.8954 58.625 82 57.7296 82 56.625V38.375C82 37.2704 82.8954 36.375 84 36.375ZM84 72.875C85.1046 72.875 86 73.7704 86 74.875V86H74.875C73.7704 86 72.875 85.1046 72.875 84C72.875 82.8954 73.7704 82 74.875 82H82V74.875C82 73.7704 82.8954 72.875 84 72.875Z" fill="url(#paint2_linear_14650_96640)"/>
    <path d="M9 38.375C9 37.2704 9.89543 36.375 11 36.375C12.1046 36.375 13 37.2704 13 38.375V56.625C13 57.7296 12.1046 58.625 11 58.625C9.89543 58.625 9 57.7296 9 56.625V38.375Z" fill="url(#paint3_linear_14650_96640)"/>
    <path d="M9 74.875C9 73.7704 9.89543 72.875 11 72.875C12.1046 72.875 13 73.7704 13 74.875V82H20.125C21.2296 82 22.125 82.8954 22.125 84C22.125 85.1046 21.2296 86 20.125 86H9V74.875Z" fill="url(#paint4_linear_14650_96640)"/>
    <path d="M38.375 82C37.2704 82 36.375 82.8954 36.375 84C36.375 85.1046 37.2704 86 38.375 86H56.625C57.7296 86 58.625 85.1046 58.625 84C58.625 82.8954 57.7296 82 56.625 82H38.375Z" fill="url(#paint5_linear_14650_96640)"/>
    <path d="M77.1014 32.2659V20.3206C77.1014 19.4736 76.4153 18.7955 75.5572 18.7955H63.3759C62.5183 18.7955 61.8317 19.4731 61.8317 20.3206C61.8317 21.1676 62.5178 21.8458 63.3759 21.8458H71.9545L58.7435 34.9773C58.1429 35.5705 58.1429 36.5869 58.7435 37.1801C59.0866 37.5189 59.4297 37.6039 59.8587 37.6039C60.2878 37.6039 60.6309 37.4345 60.9739 37.1801L73.9273 24.3873V32.3514C73.9273 33.1984 74.6134 33.8765 75.4716 33.8765C76.4153 33.876 77.1014 33.1134 77.1014 32.2659Z" stroke="url(#paint6_linear_14650_96640)" stroke-width="8" mask="url(#path-1-inside-1_14650_96640)"/>
    <path fill-rule="evenodd" clip-rule="evenodd" d="M60.9739 37.1801C60.6309 37.4345 60.2878 37.6039 59.8587 37.6039C59.4297 37.6039 59.0866 37.5189 58.7435 37.1801C58.1429 36.5869 58.1429 35.5705 58.7435 34.9773L71.9545 21.8458H63.3759C62.5178 21.8458 61.8317 21.1676 61.8317 20.3206C61.8317 19.4731 62.5183 18.7955 63.3759 18.7955H75.5572C76.4153 18.7955 77.1014 19.4736 77.1014 20.3206V32.2659C77.1014 33.1134 76.4153 33.876 75.4716 33.8765C74.6134 33.8765 73.9273 33.1984 73.9273 32.3514V24.3873L60.9739 37.1801ZM73.6143 25.1365L61.1782 37.4184L61.1604 37.4316C60.7896 37.7065 60.3815 37.9169 59.8587 37.9169C59.3732 37.9169 58.9414 37.8155 58.5236 37.4028C57.799 36.6871 57.7988 35.4707 58.5233 34.7549L71.1955 22.1588H63.3759C62.3485 22.1588 61.5186 21.3441 61.5186 20.3206C61.5186 19.2965 62.3492 18.4824 63.3759 18.4824H75.5572C76.5846 18.4824 77.4145 19.2971 77.4145 20.3206V32.2659C77.4145 33.2792 76.5952 34.1889 75.4718 34.1896C74.4443 34.1896 73.6143 33.3749 73.6143 32.3514V25.1365Z" stroke="url(#paint7_linear_14650_96640)" stroke-width="8" mask="url(#path-1-inside-1_14650_96640)"/>
    <path fill-rule="evenodd" clip-rule="evenodd" d="M9 9H20.125C21.2296 9 22.125 9.89543 22.125 11C22.125 12.1046 21.2296 13 20.125 13H13V20.125C13 21.2296 12.1046 22.125 11 22.125C9.89543 22.125 9 21.2296 9 20.125V9ZM36.375 11C36.375 9.89543 37.2704 9 38.375 9H56.625C57.7296 9 58.625 9.89543 58.625 11C58.625 12.1046 57.7296 13 56.625 13H38.375C37.2704 13 36.375 12.1046 36.375 11ZM72.875 11C72.875 9.89543 73.7704 9 74.875 9H86V20.125C86 21.2296 85.1046 22.125 84 22.125C82.8954 22.125 82 21.2296 82 20.125V13H74.875C73.7704 13 72.875 12.1046 72.875 11ZM84 36.375C85.1046 36.375 86 37.2704 86 38.375V56.625C86 57.7296 85.1046 58.625 84 58.625C82.8954 58.625 82 57.7296 82 56.625V38.375C82 37.2704 82.8954 36.375 84 36.375ZM84 72.875C85.1046 72.875 86 73.7704 86 74.875V86H74.875C73.7704 86 72.875 85.1046 72.875 84C72.875 82.8954 73.7704 82 74.875 82H82V74.875C82 73.7704 82.8954 72.875 84 72.875Z" stroke="url(#paint8_linear_14650_96640)" stroke-width="8" mask="url(#path-1-inside-1_14650_96640)"/>
    <path d="M9 38.375C9 37.2704 9.89543 36.375 11 36.375C12.1046 36.375 13 37.2704 13 38.375V56.625C13 57.7296 12.1046 58.625 11 58.625C9.89543 58.625 9 57.7296 9 56.625V38.375Z" stroke="url(#paint9_linear_14650_96640)" stroke-width="8" mask="url(#path-1-inside-1_14650_96640)"/>
    <path d="M9 74.875C9 73.7704 9.89543 72.875 11 72.875C12.1046 72.875 13 73.7704 13 74.875V82H20.125C21.2296 82 22.125 82.8954 22.125 84C22.125 85.1046 21.2296 86 20.125 86H9V74.875Z" stroke="url(#paint10_linear_14650_96640)" stroke-width="8" mask="url(#path-1-inside-1_14650_96640)"/>
    <path d="M38.375 82C37.2704 82 36.375 82.8954 36.375 84C36.375 85.1046 37.2704 86 38.375 86H56.625C57.7296 86 58.625 85.1046 58.625 84C58.625 82.8954 57.7296 82 56.625 82H38.375Z" stroke="url(#paint11_linear_14650_96640)" stroke-width="8" mask="url(#path-1-inside-1_14650_96640)"/>
    <path d="M38.3509 35.9842C39.4791 33.8615 42.5209 33.8615 43.6491 35.9842L48.5066 45.1235C48.9601 45.9768 49.7968 46.5594 50.7545 46.6886L61.2296 48.102C63.7591 48.4433 64.734 51.5865 62.8417 53.2993L55.5557 59.894C54.7844 60.5922 54.4298 61.6401 54.6188 62.6631L56.3773 72.1834C56.8246 74.6053 54.3243 76.5046 52.1111 75.4242L42.3161 70.6425C41.4855 70.237 40.5145 70.237 39.6839 70.6425L29.8889 75.4242C27.6757 76.5046 25.1754 74.6053 25.6227 72.1834L27.3812 62.6631C27.5702 61.6401 27.2156 60.5922 26.4443 59.894L19.1583 53.2993C17.266 51.5865 18.2409 48.4433 20.7704 48.102L31.2455 46.6886C32.2032 46.5594 33.0399 45.9768 33.4934 45.1235L38.3509 35.9842Z" stroke="url(#paint12_linear_14650_96640)" stroke-width="8" mask="url(#path-1-inside-1_14650_96640)"/>
    <defs>
        <linearGradient id="paint0_linear_14650_96640" x1="47.5" y1="9" x2="47.5" y2="86" gradientUnits="userSpaceOnUse">
            <stop stop-color="#00B4D5"/>
            <stop offset="1" stop-color="#66D2E6"/>
        </linearGradient>
        <linearGradient id="paint1_linear_14650_96640" x1="47.5" y1="9" x2="47.5" y2="86" gradientUnits="userSpaceOnUse">
            <stop stop-color="#00B4D5"/>
            <stop offset="1" stop-color="#66D2E6"/>
        </linearGradient>
        <linearGradient id="paint2_linear_14650_96640" x1="47.5" y1="9" x2="47.5" y2="86" gradientUnits="userSpaceOnUse">
            <stop stop-color="#00B4D5"/>
            <stop offset="1" stop-color="#66D2E6"/>
        </linearGradient>
        <linearGradient id="paint3_linear_14650_96640" x1="47.5" y1="9" x2="47.5" y2="86" gradientUnits="userSpaceOnUse">
            <stop stop-color="#00B4D5"/>
            <stop offset="1" stop-color="#66D2E6"/>
        </linearGradient>
        <linearGradient id="paint4_linear_14650_96640" x1="47.5" y1="9" x2="47.5" y2="86" gradientUnits="userSpaceOnUse">
            <stop stop-color="#00B4D5"/>
            <stop offset="1" stop-color="#66D2E6"/>
        </linearGradient>
        <linearGradient id="paint5_linear_14650_96640" x1="47.5" y1="9" x2="47.5" y2="86" gradientUnits="userSpaceOnUse">
            <stop stop-color="#00B4D5"/>
            <stop offset="1" stop-color="#66D2E6"/>
        </linearGradient>
        <linearGradient id="paint6_linear_14650_96640" x1="47.5" y1="9" x2="47.5" y2="86" gradientUnits="userSpaceOnUse">
            <stop stop-color="#00B4D5"/>
            <stop offset="1" stop-color="#AEC3FF"/>
        </linearGradient>
        <linearGradient id="paint7_linear_14650_96640" x1="47.5" y1="9" x2="47.5" y2="86" gradientUnits="userSpaceOnUse">
            <stop stop-color="#00B4D5"/>
            <stop offset="1" stop-color="#AEC3FF"/>
        </linearGradient>
        <linearGradient id="paint8_linear_14650_96640" x1="47.5" y1="9" x2="47.5" y2="86" gradientUnits="userSpaceOnUse">
            <stop stop-color="#00B4D5"/>
            <stop offset="1" stop-color="#AEC3FF"/>
        </linearGradient>
        <linearGradient id="paint9_linear_14650_96640" x1="47.5" y1="9" x2="47.5" y2="86" gradientUnits="userSpaceOnUse">
            <stop stop-color="#00B4D5"/>
            <stop offset="1" stop-color="#AEC3FF"/>
        </linearGradient>
        <linearGradient id="paint10_linear_14650_96640" x1="47.5" y1="9" x2="47.5" y2="86" gradientUnits="userSpaceOnUse">
            <stop stop-color="#00B4D5"/>
            <stop offset="1" stop-color="#AEC3FF"/>
        </linearGradient>
        <linearGradient id="paint11_linear_14650_96640" x1="47.5" y1="9" x2="47.5" y2="86" gradientUnits="userSpaceOnUse">
            <stop stop-color="#00B4D5"/>
            <stop offset="1" stop-color="#AEC3FF"/>
        </linearGradient>
        <linearGradient id="paint12_linear_14650_96640" x1="47.5" y1="9" x2="47.5" y2="86" gradientUnits="userSpaceOnUse">
            <stop stop-color="#00B4D5"/>
            <stop offset="1" stop-color="#AEC3FF"/>
        </linearGradient>
    </defs>
</svg>
