<svg xmlns="http://www.w3.org/2000/svg" width="96" height="96" fill="none"><path fill="url(#a)" fill-rule="evenodd" d="M55 7a6.996 6.996 0 0 1-3.392 6H55a6 6 0 0 1 6 6v4a2 2 0 0 1-2 2H37a2 2 0 0 1-2-2v-4a6 6 0 0 1 6-6h3.392A7 7 0 1 1 55 7Zm-7 3a3 3 0 1 0 0-6 3 3 0 0 0 0 6Zm-7 7a2 2 0 0 0-2 2v2h18v-2a2 2 0 0 0-2-2H41ZM16 65a3 3 0 1 1-6 0 3 3 0 0 1 6 0Zm.608 6a7 7 0 1 0-7.215 0H6a6 6 0 0 0-6 6v4a2 2 0 0 0 2 2h22a2 2 0 0 0 2-2v-4a6 6 0 0 0-6-6h-3.392ZM4 77a2 2 0 0 1 2-2h14a2 2 0 0 1 2 2v2H4v-2Zm81-12a3 3 0 1 1-6 0 3 3 0 0 1 6 0Zm.608 6a7 7 0 1 0-7.215 0H75a6 6 0 0 0-6 6v4a2 2 0 0 0 2 2h22a2 2 0 0 0 2-2v-4a6 6 0 0 0-6-6h-3.392ZM73 77a2 2 0 0 1 2-2h14a2 2 0 0 1 2 2v2H73v-2ZM50 35a2 2 0 1 1-4 0 2 2 0 0 1 4 0Zm0 5.659a6 6 0 1 0-4 0V42H32a2 2 0 1 0 0 4h1.649L30 54a6 6 0 0 0 12 0l-3.65-8H46v18h-7a2 2 0 1 0 0 4h18a2 2 0 1 0 0-4h-7V46h7.649L54 54a6 6 0 0 0 12 0l-3.65-8H64a2 2 0 1 0 0-4H50v-1.341ZM36 51l1.5 3s-.524 2-1.5 2-1.5-2-1.5-2l1.5-3Zm25.5 3L60 51l-1.5 3s.524 2 1.5 2 1.5-2 1.5-2Zm3.482-38.703c.011.72.41 1.374 1.03 1.74C76.777 23.383 84 35.098 84 48.5c0 1.328-.07 2.639-.21 3.93-.099.928.562 1.781 1.454 2.056 1.11.342 2.373-.272 2.502-1.425.168-1.498.254-3.02.254-4.56 0-14.978-8.13-28.056-20.217-35.064-1.284-.744-2.826.237-2.803 1.721l.002.139Zm-33.937-.677c.05-1.474-1.456-2.484-2.754-1.784C15.614 19.68 7 33.083 7 48.5c0 1.542.086 3.063.254 4.56.13 1.154 1.392 1.768 2.501 1.426.893-.275 1.553-1.128 1.454-2.056A36.908 36.908 0 0 1 11 48.5c0-13.8 7.658-25.81 18.955-32.014a2.067 2.067 0 0 0 1.085-1.733l.005-.133ZM47.5 89a40.36 40.36 0 0 1-16.391-3.454A1.885 1.885 0 0 1 30 83.813c0-1.474 1.587-2.422 2.939-1.833A36.377 36.377 0 0 0 47.5 85c5.176 0 10.1-1.077 14.561-3.02 1.352-.589 2.939.36 2.939 1.833 0 .747-.426 1.43-1.109 1.733A40.36 40.36 0 0 1 47.5 89Z" clip-rule="evenodd"/><defs><linearGradient id="a" x1="47.5" x2="47.5" y1="0" y2="89" gradientUnits="userSpaceOnUse"><stop stop-color="#00B4D5"/><stop offset="1" stop-color="#AEC3FF"/></linearGradient></defs></svg>