<svg xmlns="http://www.w3.org/2000/svg" width="60" height="60" fill="none"><rect width="60" height="60" fill="#00B884" fill-opacity=".1" rx="30"/><path fill="#00B884" fill-rule="evenodd" d="M17 22a3 3 0 1 1 5.898.78l3.79 2.756A5.482 5.482 0 0 1 30.5 24c1.673 0 3.172.747 4.18 1.926l2.363-1.418a3 3 0 1 1 .977 1.746l-2.337 1.402a5.498 5.498 0 0 1-2.472 6.63l.735 1.715L34 36a3 3 0 1 1-1.93.703l-.755-1.763a5.494 5.494 0 0 1-5.338-2.31l-2 1a3 3 0 1 1-.895-1.789l2.074-1.037a5.512 5.512 0 0 1 .365-3.643l-3.758-2.734A3 3 0 0 1 17 22Zm3-1a1 1 0 1 0 0 2 1 1 0 0 0 0-2Zm20 2a1 1 0 1 0 0 2 1 1 0 0 0 0-2Zm-7 16a1 1 0 1 1 2 0 1 1 0 0 1-2 0Zm-12-6a1 1 0 1 0 0 2 1 1 0 0 0 0-2Zm6-3.5a3.5 3.5 0 1 1 7 0 3.5 3.5 0 0 1-7 0Z" clip-rule="evenodd"/><path fill="#00B884" d="M30.5 28a1.5 1.5 0 1 0 0 3 1.5 1.5 0 0 0 0-3Z"/></svg>