<svg xmlns="http://www.w3.org/2000/svg" width="60" height="60" fill="none"><rect width="60" height="60" fill="#7B68EE" fill-opacity=".1" rx="30"/><path fill="#7B68EE" fill-rule="evenodd" d="M30.542 42.015a2 2 0 0 1-2.097-.024l-8.513-5.377A2 2 0 0 1 19 34.923v-9.872a2 2 0 0 1 .998-1.731l8.512-4.928a2 2 0 0 1 1.966-.022l8.988 4.943a2 2 0 0 1 1.036 1.753v9.842a2 2 0 0 1-.971 1.715l-8.987 5.392Zm7.958-7.107V26.24l-8 4.8v8.668l8-4.8Zm-10 4.752v-8.635L21 26.29v8.634l7.5 4.737ZM21.932 24.51l7.581 4.789 7.98-4.788-7.98-4.39-7.581 4.39Z" clip-rule="evenodd"/></svg>