<svg xmlns="http://www.w3.org/2000/svg" width="60" height="60" fill="none"><rect width="60" height="60" fill="#BB66E1" fill-opacity=".15" rx="30"/><path fill="#BB66E1" fill-rule="evenodd" d="m25.811 34.185 4.253 4.258c.51.51 1.247.732 1.925.486 1.156-.418 2.868-1.26 3.367-2.693a4.077 4.077 0 0 0 .222-1.078 3.473 3.473 0 0 0-.025-.697c-.157-1.16-.2-2.57.628-3.398l2.509-2.512c1.012-1.013 1.82-2.217 2.263-3.578.72-2.212 1.583-5.556.604-6.534-.977-.978-4.316-.118-6.528.602-1.366.444-2.572 1.255-3.587 2.271l-2.503 2.506c-.828.83-2.238.787-3.4.63a3.589 3.589 0 0 0-.829-.016 4.044 4.044 0 0 0-.947.21c-1.434.5-2.275 2.216-2.692 3.372-.244.678-.023 1.414.488 1.923l4.252 4.248ZM39.067 20.2c-1.059.157-2.314.51-3.382.857-.99.322-1.918.928-2.742 1.753l-2.503 2.506c-.869.87-1.948 1.185-2.819 1.291-.869.106-1.722.029-2.367-.059a1.674 1.674 0 0 0-.793.096c-.13.045-.375.203-.683.647-.071.102-.138.21-.203.321a6.85 6.85 0 0 0-.43.911l4.165 4.16 4.167 4.172a6.091 6.091 0 0 0 1.23-.634 2.69 2.69 0 0 0 .42-.35.997.997 0 0 0 .226-.334c.06-.171.09-.322.103-.455.013-.13.008-.243-.005-.338-.087-.644-.165-1.496-.059-2.364.106-.87.42-1.948 1.288-2.817l2.51-2.512c.82-.823 1.424-1.748 1.746-2.736.347-1.067.7-2.325.858-3.384.048-.322.072-.591.079-.809a7.118 7.118 0 0 0-.806.078ZM34.81 28.19a2.121 2.121 0 1 1-3-3 2.121 2.121 0 0 1 3 3Zm-11.249 6.75a1.06 1.06 0 1 1 1.5 1.5l-5.25 5.25a1.06 1.06 0 1 1-1.5-1.5l5.25-5.25Zm-2.25-2.25a1.06 1.06 0 1 1 1.5 1.5l-3 3a1.061 1.061 0 0 1-1.5-1.5l3-3Zm4.5 4.5a1.06 1.06 0 0 1 1.5 0 1.058 1.058 0 0 1 0 1.5l-3 3a1.061 1.061 0 0 1-1.5-1.5l3-3Z" clip-rule="evenodd"/></svg>