<svg xmlns="http://www.w3.org/2000/svg" width="160" height="160" fill="none"><g fill-rule="evenodd" clip-rule="evenodd" opacity=".1"><path fill="#32C8FC" d="M54.668 15.167a6.566 6.566 0 0 0-6.583 6.583 6.566 6.566 0 0 0 6.583 6.583h6.583V21.75a6.566 6.566 0 0 0-6.583-6.583Zm-19.75 6.583C34.918 10.829 43.746 2 54.668 2c10.921 0 19.75 8.829 19.75 19.75v13.167a6.583 6.583 0 0 1-6.583 6.583H54.668c-10.922 0-19.75-8.829-19.75-19.75Z"/><path fill="#00B884" d="M146.833 54.667a6.565 6.565 0 0 0-6.583-6.583 6.565 6.565 0 0 0-6.583 6.583v6.583h6.583a6.565 6.565 0 0 0 6.583-6.583Zm-6.583-19.75c10.921 0 19.75 8.829 19.75 19.75s-8.829 19.75-19.75 19.75h-13.167a6.583 6.583 0 0 1-6.583-6.583V54.667c0-10.921 8.829-19.75 19.75-19.75Z"/><path fill="#FFC800" d="M107.332 146.833a6.565 6.565 0 0 0 6.583-6.583 6.565 6.565 0 0 0-6.583-6.583h-6.583v6.583a6.565 6.565 0 0 0 6.583 6.583Zm19.75-6.583c0 10.921-8.829 19.75-19.75 19.75s-19.75-8.829-19.75-19.75v-13.167a6.583 6.583 0 0 1 6.583-6.583h13.167c10.921 0 19.75 8.829 19.75 19.75Z"/><path fill="#FF7272" d="M15.167 107.333a6.565 6.565 0 0 0 6.583 6.583 6.565 6.565 0 0 0 6.583-6.583v-6.583H21.75a6.565 6.565 0 0 0-6.583 6.583Zm6.583 19.75c-10.921 0-19.75-8.829-19.75-19.75s8.829-19.75 19.75-19.75h13.167a6.583 6.583 0 0 1 6.583 6.583v13.167c0 10.921-8.829 19.75-19.75 19.75Z"/><path fill="#00B884" d="M95.45 16.14c-.746.852-1.283 2.176-1.283 3.553v37.031c0 1.377.537 2.7 1.284 3.553.631.72 1.249.973 2.007.973.76 0 1.377-.254 2.008-.974.747-.851 1.284-2.176 1.284-3.552V19.693c0-1.377-.537-2.7-1.284-3.553-.631-.72-1.249-.973-2.008-.973-.758 0-1.376.253-2.007.973ZM81 19.693C81 10.66 87.65 2 97.458 2c9.808 0 16.459 8.66 16.459 17.693v37.031c0 9.033-6.651 17.693-16.459 17.693-9.807 0-16.458-8.66-16.458-17.693V19.693Z"/><path fill="#FF7272" d="M62.533 101.723c-.747.852-1.284 2.176-1.284 3.553v37.031c0 1.376.537 2.701 1.284 3.553.631.719 1.249.973 2.007.973.76 0 1.376-.254 2.008-.973.747-.852 1.284-2.177 1.284-3.553v-37.031c0-1.377-.537-2.701-1.284-3.553-.632-.72-1.249-.973-2.008-.973-.758 0-1.376.253-2.007.973Zm-14.451 3.553c0-9.033 6.65-17.693 16.458-17.693 9.808 0 16.459 8.66 16.459 17.693v37.031c0 9.033-6.651 17.693-16.459 17.693-9.807 0-16.458-8.66-16.458-17.693v-37.031Z"/><path fill="#FFC800" d="M145.86 95.45c-.852-.746-2.176-1.283-3.553-1.283h-37.031c-1.376 0-2.701.537-3.553 1.284-.719.631-.973 1.249-.973 2.007 0 .76.254 1.377.973 2.008.852.747 2.177 1.284 3.553 1.284h37.031c1.377 0 2.701-.537 3.553-1.284.72-.631.973-1.249.973-2.008 0-.758-.253-1.376-.973-2.007ZM142.307 81C151.34 81 160 87.65 160 97.458c0 9.808-8.66 16.459-17.693 16.459h-37.031c-9.033 0-17.693-6.651-17.693-16.459 0-9.807 8.66-16.458 17.693-16.458h37.031Z"/><path fill="#32C8FC" d="M60.278 62.534c-.852-.747-2.176-1.284-3.553-1.284H19.694c-1.377 0-2.7.537-3.553 1.284-.72.631-.973 1.248-.973 2.007 0 .76.254 1.377.973 2.008.852.747 2.177 1.284 3.553 1.284h37.031c1.377 0 2.7-.537 3.553-1.284.72-.632.973-1.249.973-2.008 0-.758-.253-1.376-.973-2.007Zm-3.553-14.451c9.033 0 17.693 6.65 17.693 16.458C74.418 74.35 65.758 81 56.725 81H19.694C10.661 81 2.001 74.349 2.001 64.54c0-9.807 8.66-16.458 17.693-16.458h37.031Z"/></g></svg>