<svg xmlns="http://www.w3.org/2000/svg" width="256" height="272" fill="none"><g fill-rule="evenodd" clip-path="url(#a)" clip-rule="evenodd" opacity=".1"><path fill="#32C8FC" d="M76.93 25.784A11.162 11.162 0 0 0 65.74 36.975 11.162 11.162 0 0 0 76.93 48.167h11.192V36.975A11.162 11.162 0 0 0 76.93 25.784ZM43.355 36.975C43.355 18.41 58.364 3.4 76.93 3.4c18.567 0 33.575 15.009 33.575 33.575V59.36c0 6.18-5.01 11.191-11.191 11.191H76.93c-18.567 0-33.575-15.008-33.575-33.575Z"/><path fill="#00B884" d="M233.617 92.933a11.162 11.162 0 0 0-11.192-11.191 11.162 11.162 0 0 0-11.192 11.191v11.192h11.192a11.162 11.162 0 0 0 11.192-11.192Zm-11.192-33.575c18.566 0 33.575 15.009 33.575 33.575 0 18.567-15.009 33.575-33.575 33.575h-22.383c-6.181 0-11.192-5.01-11.192-11.191V92.933c0-18.566 15.009-33.575 33.575-33.575Z"/><path fill="#FFC800" d="M166.464 249.617a11.162 11.162 0 0 0 11.192-11.192 11.162 11.162 0 0 0-11.192-11.192h-11.192v11.192a11.163 11.163 0 0 0 11.192 11.192Zm33.575-11.192c0 18.566-15.009 33.575-33.575 33.575-18.566 0-33.575-15.009-33.575-33.575v-22.383c0-6.181 5.011-11.192 11.192-11.192h22.383c18.566 0 33.575 15.009 33.575 33.575Z"/><path fill="#FF7272" d="M9.782 182.467a11.162 11.162 0 0 0 11.191 11.192 11.162 11.162 0 0 0 11.192-11.192v-11.192H20.973a11.162 11.162 0 0 0-11.191 11.192Zm11.191 33.575c-18.566 0-33.575-15.009-33.575-33.575 0-18.566 15.009-33.575 33.575-33.575h22.384c6.18 0 11.191 5.011 11.191 11.192v22.383c0 18.566-15.008 33.575-33.575 33.575Z"/><path fill="#00B884" d="M146.266 27.439c-1.27 1.448-2.183 3.699-2.183 6.039v62.953c0 2.34.913 4.591 2.183 6.039 1.073 1.224 2.122 1.655 3.412 1.655s2.34-.431 3.413-1.655c1.27-1.448 2.183-3.699 2.183-6.039V33.478c0-2.34-.913-4.591-2.183-6.04-1.073-1.223-2.123-1.654-3.413-1.654-1.29 0-2.339.43-3.412 1.655Zm-24.567 6.039c0-15.356 11.307-30.078 27.979-30.078 16.673 0 27.98 14.722 27.98 30.078v62.953c0 15.356-11.307 30.078-27.98 30.078-16.672 0-27.979-14.722-27.979-30.078V33.478Z"/><path fill="#FF7272" d="M90.305 172.93c-1.27 1.448-2.183 3.699-2.183 6.039v62.953c0 2.34.913 4.591 2.183 6.04 1.073 1.224 2.122 1.655 3.412 1.655s2.34-.431 3.413-1.655c1.27-1.449 2.183-3.7 2.183-6.04v-62.953c0-2.34-.913-4.591-2.183-6.039-1.073-1.224-2.123-1.655-3.413-1.655-1.29 0-2.339.431-3.412 1.655Zm-24.567 6.039c0-15.355 11.307-30.077 27.98-30.077 16.672 0 27.979 14.722 27.979 30.077v62.953c0 15.356-11.307 30.078-27.98 30.078-16.672 0-27.979-14.722-27.979-30.078v-62.953Z"/><path fill="#FFC800" d="M231.962 162.267c-1.449-1.27-3.7-2.183-6.04-2.183h-62.953c-2.34 0-4.591.913-6.039 2.183-1.224 1.073-1.655 2.122-1.655 3.412s.431 2.34 1.655 3.413c1.448 1.27 3.699 2.183 6.039 2.183h62.953c2.34 0 4.591-.913 6.04-2.183 1.224-1.073 1.655-2.123 1.655-3.413 0-1.29-.431-2.339-1.655-3.412Zm-6.04-24.567c15.356 0 30.078 11.306 30.078 27.979 0 16.673-14.722 27.98-30.078 27.98h-62.953c-15.355 0-30.077-11.307-30.077-27.98 0-16.673 14.722-27.979 30.077-27.979h62.953Z"/><path fill="#32C8FC" d="M86.47 106.309c-1.449-1.27-3.7-2.183-6.04-2.183H17.477c-2.34 0-4.591.913-6.04 2.183-1.223 1.073-1.654 2.122-1.654 3.412s.43 2.34 1.655 3.413c1.448 1.27 3.699 2.183 6.04 2.183H80.43c2.34 0 4.591-.913 6.04-2.183 1.223-1.073 1.654-2.123 1.654-3.413 0-1.29-.43-2.339-1.654-3.412Zm-6.04-24.567c15.356 0 30.078 11.306 30.078 27.979 0 16.673-14.722 27.98-30.078 27.98H17.477c-15.355 0-30.078-11.307-30.078-27.98 0-16.672 14.723-27.979 30.078-27.979H80.43Z"/></g><defs><clipPath id="a"><path fill="#fff" d="M-16 0h272v272H-16z"/></clipPath></defs></svg>