<svg xmlns="http://www.w3.org/2000/svg" width="328" height="48" fill="none"><path fill="#fff" d="M40.974 16.864v.91H39.74v3.748h-1.134v-3.749h-1.234v-.909h3.602Zm4.06 2.747c0 .106-.007.217-.02.332h-2.568c.018.23.09.407.22.53.132.12.293.18.483.18.283 0 .48-.12.59-.359h1.208a1.635 1.635 0 0 1-.338.657c-.16.195-.36.347-.604.458a1.95 1.95 0 0 1-.816.166c-.362 0-.685-.078-.968-.232a1.652 1.652 0 0 1-.664-.664 2.048 2.048 0 0 1-.239-1.008c0-.385.078-.721.232-1.009.16-.287.38-.508.664-.663.283-.155.608-.233.975-.233.358 0 .677.076.956.226.278.15.495.365.65.644.16.278.239.603.239.975Zm-1.161-.299a.584.584 0 0 0-.2-.464.733.733 0 0 0-.497-.173.731.731 0 0 0-.484.166.744.744 0 0 0-.24.471h1.42Zm3.265 2.263c-.323 0-.61-.055-.862-.166a1.485 1.485 0 0 1-.597-.451 1.212 1.212 0 0 1-.246-.65h1.121a.431.431 0 0 0 .18.311c.106.08.236.12.391.12a.56.56 0 0 0 .325-.08.26.26 0 0 0 .12-.219c0-.106-.056-.183-.166-.232-.11-.053-.29-.11-.538-.172a5.452 5.452 0 0 1-.663-.193 1.19 1.19 0 0 1-.458-.325c-.128-.15-.192-.352-.192-.604 0-.212.057-.405.172-.577a1.2 1.2 0 0 1 .518-.418c.23-.102.502-.153.816-.153.464 0 .829.115 1.094.346.27.23.425.535.465.915H47.57a.447.447 0 0 0-.173-.305.573.573 0 0 0-.371-.113.502.502 0 0 0-.306.08.235.235 0 0 0-.106.205c0 .107.056.186.166.24.115.052.292.105.53.158.275.071.498.142.67.213.173.066.324.177.452.332.133.15.201.353.206.61a.977.977 0 0 1-.186.584c-.12.168-.294.3-.524.398a1.978 1.978 0 0 1-.79.146Zm4.257-1.015v.962h-.577c-.411 0-.732-.1-.962-.299-.23-.203-.345-.533-.345-.988v-1.473h-.451v-.942h.451v-.903h1.135v.902h.743v.943h-.743v1.486c0 .11.026.19.08.239.052.048.14.073.265.073h.404Zm-22.33 4.304v.91h-1.898v.981h1.42v.883h-1.42v1.884h-1.135v-4.658h3.032Zm1.73 1.573c.133-.204.299-.363.498-.478.199-.12.42-.18.663-.18v1.202h-.311c-.284 0-.496.061-.637.185-.142.12-.213.332-.213.637v1.719h-1.134V25.82h1.134v.617Zm1.478 1.227c0-.38.07-.714.212-1.002.146-.287.343-.508.59-.663.249-.155.525-.233.83-.233.261 0 .489.054.684.16.199.106.351.245.458.418v-.524h1.134v3.702h-1.134v-.524a1.22 1.22 0 0 1-.465.418c-.195.106-.422.159-.683.159-.301 0-.575-.078-.823-.232a1.68 1.68 0 0 1-.59-.67 2.285 2.285 0 0 1-.213-1.009Zm2.773.007c0-.284-.08-.507-.238-.67a.755.755 0 0 0-.571-.246.776.776 0 0 0-.577.245c-.155.16-.232.38-.232.664 0 .283.077.509.232.677.159.163.351.245.577.245a.755.755 0 0 0 .57-.245c.16-.164.24-.387.24-.67Zm6.68-1.891c.46 0 .825.139 1.095.418.274.278.41.665.41 1.16v2.164h-1.127v-2.01c0-.24-.064-.423-.192-.551-.124-.133-.297-.2-.518-.2-.221 0-.396.067-.524.2-.124.128-.186.312-.186.55v2.01h-1.128v-2.01c0-.238-.064-.422-.192-.55-.124-.133-.297-.2-.518-.2-.22 0-.396.067-.524.2-.124.128-.186.312-.186.55v2.01h-1.134V25.82h1.134v.464c.115-.155.266-.276.451-.365.186-.093.396-.14.63-.14.28 0 .527.06.744.18.221.12.394.29.517.51a1.492 1.492 0 0 1 1.248-.69Zm5.79 1.83c0 .107-.007.218-.02.333h-2.568c.017.23.09.407.219.53.132.12.294.18.484.18.283 0 .48-.12.59-.359h1.208a1.634 1.634 0 0 1-.338.657c-.16.195-.36.347-.604.458a1.95 1.95 0 0 1-.816.166c-.363 0-.686-.078-.969-.232a1.652 1.652 0 0 1-.663-.664 2.049 2.049 0 0 1-.24-1.008c0-.385.078-.721.233-1.009.16-.287.38-.508.664-.663.282-.155.608-.233.975-.233.358 0 .676.076.955.226.279.15.496.365.65.644.16.278.24.603.24.975Zm-1.162-.298a.583.583 0 0 0-.199-.464.733.733 0 0 0-.498-.173.731.731 0 0 0-.484.166.744.744 0 0 0-.239.471h1.42Zm7.074-1.492-1.002 3.702h-1.254l-.583-2.402-.604 2.402h-1.248L47.73 25.82h1.135l.524 2.647.623-2.647h1.201l.63 2.633.518-2.633h1.068Zm2.118 3.755c-.363 0-.69-.078-.982-.232a1.729 1.729 0 0 1-.683-.664 2.003 2.003 0 0 1-.246-1.008c0-.38.084-.715.252-1.002.169-.292.398-.515.69-.67.292-.155.62-.233.982-.233.363 0 .69.078.982.233.292.155.522.378.69.67.168.287.252.621.252 1.002 0 .38-.086.716-.258 1.008-.168.288-.4.509-.697.664-.292.154-.62.232-.982.232Zm0-.982c.217 0 .4-.08.55-.239.156-.16.233-.387.233-.683 0-.297-.075-.524-.226-.684a.708.708 0 0 0-.544-.239.715.715 0 0 0-.55.24c-.146.154-.22.382-.22.683 0 .296.072.524.213.683.146.16.327.239.544.239Zm3.674-2.156c.133-.204.299-.363.498-.478.199-.12.42-.18.663-.18v1.202h-.312c-.283 0-.495.061-.637.185-.141.12-.212.332-.212.637v1.719h-1.135V25.82h1.135v.617Zm3.966 3.085-1.128-1.553v1.553h-1.135v-4.91h1.135v2.714l1.121-1.506h1.4l-1.54 1.857 1.553 1.845h-1.406Z"/><rect width="74.878" height="30.33" x="252.621" y="8.835" fill="#66D2E6" rx="3.791"/><path fill="#fff" d="m271.328 26-.969-1.758h-.272V26h-1.135v-4.658h1.904c.368 0 .679.065.936.193.261.128.456.305.584.53.128.222.192.47.192.744 0 .31-.088.586-.265.829-.173.243-.429.416-.77.517L272.608 26h-1.28Zm-1.241-2.561h.703c.208 0 .363-.05.465-.153.106-.101.159-.245.159-.43a.552.552 0 0 0-.159-.419c-.102-.102-.257-.152-.465-.152h-.703v1.154Zm6.683.65c0 .106-.006.217-.02.332h-2.567c.017.23.09.407.219.53.132.12.294.18.484.18.283 0 .48-.12.591-.358h1.207a1.644 1.644 0 0 1-.338.656c-.16.195-.361.348-.604.458-.243.11-.515.166-.816.166-.363 0-.686-.077-.969-.232a1.65 1.65 0 0 1-.663-.664 2.04 2.04 0 0 1-.239-1.008c0-.385.077-.721.232-1.009.159-.287.38-.508.664-.663.283-.155.608-.232.975-.232.358 0 .677.075.955.225.279.15.496.365.65.644.16.278.239.604.239.975Zm-1.161-.298a.582.582 0 0 0-.199-.465.732.732 0 0 0-.497-.172.733.733 0 0 0-.485.166.746.746 0 0 0-.239.47h1.42Zm2.894-.97a1.24 1.24 0 0 1 .458-.417 1.41 1.41 0 0 1 .684-.16c.305 0 .581.078.829.233.248.155.442.376.584.663.146.288.219.622.219 1.002s-.073.717-.219 1.009c-.142.287-.336.51-.584.67a1.533 1.533 0 0 1-.829.232 1.43 1.43 0 0 1-.684-.16 1.262 1.262 0 0 1-.458-.41v2.282h-1.134v-5.467h1.134v.524Zm1.619 1.321c0-.283-.079-.504-.239-.663a.76.76 0 0 0-.577-.246.776.776 0 0 0-.577.246c-.155.163-.232.387-.232.67 0 .283.077.506.232.67a.776.776 0 0 0 .577.245.774.774 0 0 0 .577-.245c.16-.168.239-.394.239-.677Zm3.435 1.911c-.363 0-.69-.077-.982-.232a1.731 1.731 0 0 1-.683-.664 2 2 0 0 1-.246-1.008c0-.38.084-.714.252-1.002.169-.292.399-.515.691-.67.291-.155.619-.232.981-.232.363 0 .69.077.982.232.292.155.522.378.69.67.168.288.253.622.253 1.002s-.087.716-.259 1.008a1.71 1.71 0 0 1-.697.664 2.063 2.063 0 0 1-.982.232Zm0-.982c.217 0 .4-.08.551-.239.155-.159.232-.387.232-.683 0-.297-.075-.524-.225-.684a.71.71 0 0 0-.545-.238.714.714 0 0 0-.55.238c-.146.155-.219.383-.219.684 0 .296.071.524.212.683.146.16.327.24.544.24Zm3.674-2.156a1.47 1.47 0 0 1 .498-.478c.199-.12.42-.179.663-.179v1.2h-.312c-.283 0-.495.063-.637.187-.141.12-.212.331-.212.637V26h-1.135v-3.702h1.135v.617Zm3.767 2.123V26h-.577c-.412 0-.732-.1-.962-.299-.23-.203-.345-.533-.345-.988V23.24h-.452v-.942h.452v-.902h1.134v.902h.743v.942h-.743v1.486c0 .11.027.19.08.239.053.049.141.073.265.073h.405Zm4.181-2.196c0 .27-.062.517-.185.743-.124.221-.314.4-.571.537-.257.137-.575.206-.955.206h-.704V26h-1.134v-4.658h1.838c.371 0 .685.065.942.193.256.128.449.305.577.53.128.226.192.485.192.777Zm-1.798.584c.217 0 .379-.051.485-.153.106-.102.159-.245.159-.431s-.053-.33-.159-.431c-.106-.102-.268-.153-.485-.153h-.617v1.168h.617Zm4.074 2.627c-.362 0-.69-.077-.982-.232a1.731 1.731 0 0 1-.683-.664 2 2 0 0 1-.246-1.008c0-.38.084-.714.253-1.002.168-.292.398-.515.69-.67a2.06 2.06 0 0 1 .982-.232c.362 0 .69.077.981.232.292.155.522.378.69.67.169.288.253.622.253 1.002s-.087.716-.259 1.008c-.168.288-.4.509-.697.664a2.063 2.063 0 0 1-.982.232Zm0-.982c.217 0 .401-.08.551-.239.155-.159.232-.387.232-.683 0-.297-.075-.524-.225-.684a.71.71 0 0 0-.544-.238.715.715 0 0 0-.551.238c-.146.155-.219.383-.219.684 0 .296.071.524.212.683.146.16.327.24.544.24Zm3.674-2.156a1.47 1.47 0 0 1 .498-.478c.199-.12.42-.179.663-.179v1.2h-.312c-.283 0-.495.063-.637.187-.141.12-.212.331-.212.637V26h-1.135v-3.702h1.135v.617Zm3.767 2.123V26h-.577c-.412 0-.732-.1-.962-.299-.23-.203-.345-.533-.345-.988V23.24h-.452v-.942h.452v-.902h1.134v.902h.743v.942h-.743v1.486c0 .11.027.19.08.239.053.049.141.073.265.073h.405Zm.406-.896c0-.38.071-.714.213-1.002.145-.287.342-.508.59-.663.248-.155.524-.232.829-.232.261 0 .489.053.684.159.199.106.351.245.458.418v-.524h1.134V26h-1.134v-.524a1.224 1.224 0 0 1-.465.418c-.195.106-.422.16-.683.16-.301 0-.575-.078-.823-.233a1.67 1.67 0 0 1-.59-.67 2.278 2.278 0 0 1-.213-1.009Zm2.774.007c0-.283-.08-.507-.239-.67a.755.755 0 0 0-.571-.246.776.776 0 0 0-.577.246c-.155.159-.232.38-.232.663 0 .283.077.509.232.677a.776.776 0 0 0 .577.245.755.755 0 0 0 .571-.245c.159-.164.239-.387.239-.67Zm3.089-3.059V26h-1.134v-4.91h1.134Z"/><rect width="74.878" height="30.33" x="115.66" y="8.835" fill="#66D2E6" rx="3.791"/><path fill="#fff" d="M133.767 25.177h-1.739l-.278.823h-1.188l1.685-4.658h1.314L135.246 26h-1.201l-.278-.823Zm-.292-.875-.578-1.706-.57 1.706h1.148Zm3.691-2.057c.261 0 .488.053.683.159.199.106.352.245.458.418v-.524h1.134v3.695c0 .341-.068.648-.205.923-.133.278-.339.5-.617.663-.275.164-.617.246-1.029.246-.548 0-.993-.13-1.333-.392a1.45 1.45 0 0 1-.584-1.048h1.121a.523.523 0 0 0 .252.332.903.903 0 0 0 .491.126c.235 0 .42-.069.557-.206.142-.133.213-.347.213-.644v-.524a1.286 1.286 0 0 1-.458.425c-.195.106-.422.16-.683.16-.306 0-.582-.078-.83-.233a1.684 1.684 0 0 1-.59-.67 2.278 2.278 0 0 1-.213-1.009c0-.38.071-.714.213-1.002.146-.287.343-.508.59-.663.248-.155.524-.232.83-.232Zm1.141 1.904c0-.283-.08-.507-.239-.67a.755.755 0 0 0-.571-.246.776.776 0 0 0-.577.246c-.155.159-.232.38-.232.663 0 .283.077.509.232.677a.776.776 0 0 0 .577.245.755.755 0 0 0 .571-.245c.159-.164.239-.387.239-.67Zm5.445-.06c0 .106-.007.217-.02.332h-2.568c.018.23.091.407.219.53a.7.7 0 0 0 .485.18c.283 0 .48-.12.59-.358h1.208a1.634 1.634 0 0 1-.339.656c-.159.195-.36.348-.603.458-.244.11-.516.166-.816.166-.363 0-.686-.077-.969-.232a1.659 1.659 0 0 1-.664-.664 2.05 2.05 0 0 1-.238-1.008c0-.385.077-.721.232-1.009a1.65 1.65 0 0 1 .663-.663 2 2 0 0 1 .976-.232c.358 0 .676.075.955.225.279.15.495.365.65.644.159.278.239.604.239.975Zm-1.161-.298a.582.582 0 0 0-.199-.465.734.734 0 0 0-.498-.172.732.732 0 0 0-.484.166.746.746 0 0 0-.239.47h1.42Zm4.015-1.533c.434 0 .779.142 1.035.425.261.278.392.663.392 1.154V26h-1.128v-2.01c0-.248-.064-.44-.192-.578a.676.676 0 0 0-.518-.205.673.673 0 0 0-.517.205c-.129.138-.193.33-.193.578V26h-1.134v-3.702h1.134v.49a1.17 1.17 0 0 1 .465-.384c.194-.097.413-.146.656-.146Zm4.279 2.78V26h-.578c-.411 0-.732-.1-.962-.299-.23-.203-.345-.533-.345-.988V23.24h-.451v-.942H149v-.902h1.135v.902h.743v.942h-.743v1.486c0 .11.026.19.08.239.053.049.141.073.265.073h.405Zm4.565-5.341-1.778 7.544h-1.094l1.778-7.544h1.094Zm1.693 3.968c0-.46.099-.87.298-1.228.199-.363.476-.643.83-.843a2.414 2.414 0 0 1 1.214-.305c.553 0 1.026.146 1.42.438.393.292.656.69.789 1.195h-1.247a1.005 1.005 0 0 0-.398-.445 1.095 1.095 0 0 0-.578-.153c-.349 0-.632.122-.849.365-.217.244-.325.569-.325.976 0 .407.108.732.325.975.217.243.5.365.849.365.217 0 .41-.051.578-.153.172-.102.305-.25.398-.444h1.247a2.107 2.107 0 0 1-.789 1.194c-.394.287-.867.431-1.42.431-.451 0-.856-.1-1.214-.298a2.17 2.17 0 0 1-.83-.843 2.485 2.485 0 0 1-.298-1.227Zm6.38-2.575V26h-1.134v-4.91h1.134Zm1.393.823a.71.71 0 0 1-.491-.172.585.585 0 0 1-.186-.438c0-.177.062-.323.186-.438a.694.694 0 0 1 .491-.18.66.66 0 0 1 .478.18c.128.115.192.26.192.438a.576.576 0 0 1-.192.438.675.675 0 0 1-.478.172Zm.564.385V26h-1.134v-3.702h1.134Zm4.312 1.791c0 .106-.006.217-.02.332h-2.567c.017.23.09.407.219.53.132.12.294.18.484.18.283 0 .48-.12.59-.358h1.208a1.644 1.644 0 0 1-.338.656c-.16.195-.361.348-.604.458-.243.11-.515.166-.816.166-.363 0-.686-.077-.969-.232a1.65 1.65 0 0 1-.663-.664 2.04 2.04 0 0 1-.239-1.008c0-.385.077-.721.232-1.009a1.65 1.65 0 0 1 .663-.663c.284-.155.609-.232.976-.232.358 0 .677.075.955.225.279.15.496.365.65.644.16.278.239.604.239.975Zm-1.161-.298a.582.582 0 0 0-.199-.465.732.732 0 0 0-.497-.172.733.733 0 0 0-.485.166.746.746 0 0 0-.239.47h1.42Zm4.016-1.533c.433 0 .778.142 1.035.425.261.278.391.663.391 1.154V26h-1.128v-2.01c0-.248-.064-.44-.192-.578a.676.676 0 0 0-.518-.205.674.674 0 0 0-.517.205c-.129.138-.193.33-.193.578V26h-1.134v-3.702h1.134v.49a1.17 1.17 0 0 1 .465-.384c.194-.097.413-.146.657-.146Zm4.278 2.78V26h-.577c-.412 0-.732-.1-.962-.299-.23-.203-.345-.533-.345-.988V23.24h-.452v-.942h.452v-.902h1.134v.902h.743v.942h-.743v1.486c0 .11.027.19.08.239.053.049.141.073.265.073h.405Z"/><path fill="#66D2E6" fill-rule="evenodd" d="M2.426 26.89c-2.568-1.355-2.568-4.425 0-5.78L35.417 3.698c1.38-.73 3.155-.734 4.542-.012l33.47 17.412c2.598 1.352 2.598 4.452 0 5.804L39.96 44.314c-1.387.722-3.161.717-4.542-.012L2.426 26.89Z" clip-rule="evenodd"/><path fill="#fff" d="M33.392 16.864v.91h-1.234v3.748h-1.134v-3.749H29.79v-.909h3.602Zm4.06 2.747c0 .106-.007.217-.02.332h-2.568c.018.23.09.407.219.53.133.12.294.18.484.18.283 0 .48-.12.59-.359h1.208a1.634 1.634 0 0 1-.338.657c-.16.195-.36.347-.604.458a1.95 1.95 0 0 1-.816.166c-.362 0-.685-.078-.968-.232a1.652 1.652 0 0 1-.664-.664 2.049 2.049 0 0 1-.239-1.008c0-.385.078-.721.232-1.009.16-.287.38-.508.664-.663.283-.155.608-.233.975-.233.358 0 .677.076.956.226.278.15.495.365.65.644.159.278.239.603.239.975Zm-1.161-.299a.583.583 0 0 0-.2-.464.733.733 0 0 0-.497-.173.731.731 0 0 0-.484.166.744.744 0 0 0-.24.471h1.42Zm3.265 2.263c-.323 0-.61-.055-.862-.166a1.485 1.485 0 0 1-.597-.451 1.213 1.213 0 0 1-.246-.65h1.121a.431.431 0 0 0 .18.311c.106.08.236.12.391.12a.56.56 0 0 0 .325-.08.26.26 0 0 0 .12-.219c0-.106-.056-.183-.166-.232-.11-.053-.29-.11-.538-.172a5.452 5.452 0 0 1-.663-.193c-.177-.07-.33-.179-.458-.325-.128-.15-.192-.352-.192-.604 0-.212.057-.405.172-.577a1.2 1.2 0 0 1 .518-.418c.23-.102.502-.153.816-.153.464 0 .829.115 1.094.346.27.23.425.535.465.915h-1.049a.447.447 0 0 0-.172-.305.573.573 0 0 0-.371-.113.502.502 0 0 0-.306.08.235.235 0 0 0-.106.205c0 .107.055.186.166.24.115.052.292.105.53.158.275.071.498.142.67.213.173.066.324.177.452.332.133.15.201.353.206.61a.977.977 0 0 1-.186.584c-.12.168-.294.3-.524.398a1.978 1.978 0 0 1-.79.146Zm4.257-1.015v.962h-.577c-.411 0-.732-.1-.962-.299-.23-.203-.345-.533-.345-.988v-1.473h-.451v-.942h.451v-.903h1.134v.902h.744v.943h-.744v1.486c0 .11.027.19.08.239.053.048.142.073.265.073h.405Zm-22.33 4.304v.91h-1.898v.981h1.42v.883h-1.42v1.884H18.45v-4.658h3.033Zm1.73 1.573c.133-.204.299-.363.498-.478.199-.12.42-.18.663-.18v1.202h-.311c-.284 0-.496.061-.637.185-.142.12-.213.332-.213.637v1.719H22.08V25.82h1.134v.617Zm1.478 1.227c0-.38.07-.714.212-1.002.146-.287.343-.508.59-.663.249-.155.525-.233.83-.233.261 0 .489.054.684.16.199.106.351.245.457.418v-.524H28.6v3.702h-1.135v-.524a1.22 1.22 0 0 1-.464.418c-.195.106-.422.159-.683.159-.301 0-.575-.078-.823-.232a1.68 1.68 0 0 1-.59-.67 2.285 2.285 0 0 1-.213-1.009Zm2.773.007c0-.284-.08-.507-.238-.67a.755.755 0 0 0-.571-.246.776.776 0 0 0-.577.245c-.155.16-.232.38-.232.664 0 .283.077.509.232.677.159.163.351.245.577.245a.755.755 0 0 0 .57-.245c.16-.164.24-.387.24-.67Zm6.68-1.891c.46 0 .825.139 1.095.418.274.278.41.665.41 1.16v2.164h-1.127v-2.01c0-.24-.064-.423-.192-.551-.124-.133-.297-.2-.518-.2-.221 0-.396.067-.524.2-.124.128-.186.312-.186.55v2.01h-1.128v-2.01c0-.238-.064-.422-.192-.55-.124-.133-.297-.2-.518-.2-.22 0-.396.067-.524.2-.124.128-.186.312-.186.55v2.01H29.42V25.82h1.134v.464c.115-.155.266-.276.452-.365.185-.093.395-.14.63-.14.279 0 .526.06.743.18.221.12.394.29.517.51a1.492 1.492 0 0 1 1.248-.69Zm5.79 1.83c0 .107-.007.218-.02.333h-2.568c.017.23.09.407.219.53.132.12.294.18.484.18.283 0 .48-.12.59-.359h1.208a1.637 1.637 0 0 1-.338.657c-.16.195-.36.347-.604.458a1.95 1.95 0 0 1-.816.166c-.363 0-.686-.078-.969-.232a1.651 1.651 0 0 1-.663-.664 2.049 2.049 0 0 1-.24-1.008c0-.385.078-.721.233-1.009.16-.287.38-.508.663-.663.284-.155.609-.233.976-.233.358 0 .677.076.955.226.279.15.496.365.65.644.16.278.24.603.24.975Zm-1.162-.298a.583.583 0 0 0-.199-.464.733.733 0 0 0-.498-.173.732.732 0 0 0-.484.166.744.744 0 0 0-.239.471h1.42Zm7.074-1.492-1.002 3.702H43.59l-.584-2.402-.603 2.402h-1.248l-1.008-3.702h1.135l.524 2.647.623-2.647h1.201l.63 2.633.518-2.633h1.068Zm2.118 3.755c-.363 0-.69-.078-.982-.232a1.728 1.728 0 0 1-.683-.664 2.003 2.003 0 0 1-.246-1.008c0-.38.084-.715.252-1.002.169-.292.398-.515.69-.67.292-.155.62-.233.982-.233.363 0 .69.078.982.233.292.155.522.378.69.67.168.287.252.621.252 1.002 0 .38-.086.716-.258 1.008-.168.288-.4.509-.697.664-.292.154-.62.232-.982.232Zm0-.982c.217 0 .4-.08.55-.239.156-.16.233-.387.233-.683 0-.297-.075-.524-.226-.684a.708.708 0 0 0-.544-.239.715.715 0 0 0-.55.24c-.146.154-.22.382-.22.683 0 .296.072.524.213.683.146.16.327.239.544.239Zm3.674-2.156c.133-.204.299-.363.498-.478.199-.12.42-.18.663-.18v1.202h-.312c-.283 0-.495.061-.637.185-.141.12-.212.332-.212.637v1.719h-1.135V25.82h1.135v.617Zm3.966 3.085-1.128-1.553v1.553H53.34v-4.91h1.135v2.714l1.121-1.506h1.4l-1.54 1.857 1.553 1.845h-1.406Z"/><circle cx="74.666" cy="24" r="1.422" fill="#fff" stroke="#C3C8D5" stroke-width=".474"/><path fill="#C3C8D5" fill-rule="evenodd" d="M76.324 23.763h36.492v.474H76.324v-.474ZM112.816 25.659V22.34l2.37 1.659-2.37 1.659Z" clip-rule="evenodd"/><rect width="23.109" height="10.9" x="82.78" y="18.55" fill="#fff" rx="5.45"/><path fill="#5F6578" d="M89.642 23.822c0 .099-.005.203-.017.313h-2.49c.018.307.122.548.312.722.193.171.427.256.7.256.223 0 .409-.05.557-.153a.838.838 0 0 0 .318-.421h.558c-.084.3-.25.544-.5.733-.251.186-.562.28-.933.28-.296 0-.562-.067-.797-.2a1.418 1.418 0 0 1-.545-.563c-.133-.246-.2-.53-.2-.853 0-.322.065-.605.194-.847.129-.243.309-.429.54-.558.235-.132.504-.199.808-.199.295 0 .557.065.784.194.228.129.402.307.524.534.125.224.187.478.187.762Zm-.534-.108a.94.94 0 0 0-.131-.506.823.823 0 0 0-.358-.324 1.069 1.069 0 0 0-.495-.114.97.97 0 0 0-.671.25c-.182.167-.287.399-.313.694h1.968Zm2.377 1.308.967-2.638h.552L91.78 25.5h-.603l-1.222-3.116h.557l.972 2.638Zm4.872-1.2c0 .099-.006.203-.017.313h-2.491c.019.307.123.548.313.722.193.171.426.256.699.256.224 0 .41-.05.557-.153a.838.838 0 0 0 .319-.421h.557c-.083.3-.25.544-.5.733-.25.186-.561.28-.933.28a1.59 1.59 0 0 1-.796-.2 1.419 1.419 0 0 1-.546-.563 1.771 1.771 0 0 1-.2-.853c0-.322.065-.605.194-.847.13-.243.31-.429.54-.558.236-.132.505-.199.808-.199.296 0 .557.065.785.194.227.129.402.307.523.534.125.224.188.478.188.762Zm-.535-.108a.94.94 0 0 0-.13-.506.823.823 0 0 0-.359-.324 1.069 1.069 0 0 0-.495-.114.97.97 0 0 0-.67.25c-.183.167-.287.399-.314.694h1.968Zm2.736-1.387c.38 0 .686.115.921.347.236.227.353.557.353.99V25.5h-.512v-1.763c0-.31-.077-.548-.233-.71-.155-.168-.368-.251-.637-.251-.273 0-.49.085-.654.256-.16.17-.239.419-.239.745V25.5h-.517v-3.116h.517v.443c.103-.16.241-.282.415-.37.179-.087.374-.13.586-.13Zm2.751.483v1.837c0 .152.032.26.096.324.065.06.177.091.336.091h.381v.438h-.466c-.289 0-.505-.066-.649-.199-.144-.133-.216-.35-.216-.654V22.81h-.404v-.426h.404v-.785h.518v.785h.813v.426h-.813Z"/><rect width="23.109" height="10.9" x="82.78" y="18.55" stroke="#C3C8D5" stroke-width=".474" rx="5.45"/><circle cx="190.776" cy="16.417" r="1.422" fill="#fff" stroke="#C3C8D5" stroke-width=".474"/><path fill="#C3C8D5" fill-rule="evenodd" d="M192.434 16.18h57.343v.474h-57.343v-.474ZM249.777 18.076V14.76l2.37 1.658-2.37 1.66Z" clip-rule="evenodd"/><rect width="46.444" height="10.9" x="199.78" y="10.967" fill="#fff" rx="5.45"/><path fill="#5F6578" d="M207.566 14.744c.235 0 .447.051.637.154.189.098.337.248.443.449.11.2.165.446.165.734v1.837h-.512v-1.764c0-.31-.077-.547-.233-.71-.155-.167-.368-.25-.637-.25-.273 0-.491.085-.654.255-.159.17-.239.42-.239.745v1.724h-.517v-4.209h.517v1.536a1.03 1.03 0 0 1 .421-.37c.182-.087.385-.13.609-.13Zm2.722.483v1.837c0 .152.032.26.096.325.065.06.177.09.336.09h.381v.439h-.466c-.289 0-.505-.067-.649-.2-.144-.132-.216-.35-.216-.654v-1.837h-.404v-.426h.404v-.785h.518v.785h.813v.426h-.813Zm2.071 0v1.837c0 .152.032.26.097.325.064.06.176.09.335.09h.381v.439h-.466c-.288 0-.504-.067-.648-.2-.144-.132-.216-.35-.216-.654v-1.837h-.404v-.426h.404v-.785h.517v.785h.813v.426h-.813Zm1.958.148c.102-.178.254-.326.455-.443a1.37 1.37 0 0 1 .711-.182c.277 0 .527.066.751.199.227.133.405.32.534.563.129.239.193.517.193.836 0 .315-.064.595-.193.842a1.426 1.426 0 0 1-1.285.779 1.31 1.31 0 0 1-1.166-.626v2.053h-.517v-4.595h.517v.574Zm2.116.973c0-.235-.048-.44-.143-.614a.973.973 0 0 0-.386-.398 1.05 1.05 0 0 0-.529-.137 1.033 1.033 0 0 0-.916.546 1.252 1.252 0 0 0-.142.609c0 .235.047.441.142.62.099.174.228.308.387.403.163.091.339.137.529.137a1.011 1.011 0 0 0 .915-.54 1.31 1.31 0 0 0 .143-.626Zm3.243-1.04a.998.998 0 0 1 .387-.416 1.22 1.22 0 0 1 .62-.148v.535h-.137c-.58 0-.87.314-.87.944v1.695h-.517V14.8h.517v.506Zm4.448.932c0 .098-.006.203-.017.313h-2.491c.019.307.123.547.313.722.193.17.426.256.699.256.224 0 .41-.051.557-.154a.838.838 0 0 0 .319-.42h.557c-.083.299-.25.543-.5.733-.25.186-.561.279-.933.279a1.59 1.59 0 0 1-.796-.2 1.423 1.423 0 0 1-.546-.562 1.768 1.768 0 0 1-.199-.853c0-.323.064-.605.193-.848.129-.242.309-.428.541-.557.235-.133.504-.2.807-.2.296 0 .557.065.785.194.227.13.402.307.523.535.125.223.188.478.188.762Zm-.535-.108a.933.933 0 0 0-.131-.506.82.82 0 0 0-.358-.324 1.07 1.07 0 0 0-.495-.114.97.97 0 0 0-.671.25c-.182.167-.286.398-.312.694h1.967Zm1.025.216c0-.319.064-.597.193-.836a1.404 1.404 0 0 1 1.291-.762c.269 0 .504.06.705.182.205.117.354.263.449.438V14.8h.523v4.595h-.523v-2.053c-.098.174-.25.322-.455.444a1.375 1.375 0 0 1-.716.182 1.4 1.4 0 0 1-.745-.205 1.435 1.435 0 0 1-.529-.574 1.788 1.788 0 0 1-.193-.842Zm2.638.006c0-.235-.047-.44-.142-.615a.981.981 0 0 0-.387-.398 1.013 1.013 0 0 0-.529-.142c-.193 0-.369.046-.528.137a.98.98 0 0 0-.381.398c-.095.174-.143.379-.143.614 0 .239.048.447.143.625.094.175.221.31.381.404.159.091.335.137.528.137.194 0 .37-.046.529-.137a1.02 1.02 0 0 0 .387-.404c.095-.178.142-.384.142-.62Zm4.162-1.553v3.117h-.518v-.461a1.02 1.02 0 0 1-.415.375c-.174.087-.368.131-.58.131-.242 0-.46-.05-.654-.148a1.128 1.128 0 0 1-.46-.455 1.51 1.51 0 0 1-.165-.733V14.8h.511v1.757c0 .307.078.544.234.711.155.163.367.245.637.245.276 0 .494-.086.654-.256.159-.17.238-.42.238-.745V14.8h.518Zm3.717 1.439c0 .098-.006.203-.017.313h-2.491c.019.307.123.547.313.722.193.17.427.256.699.256.224 0 .41-.051.558-.154a.836.836 0 0 0 .318-.42h.558c-.084.299-.251.543-.501.733-.25.186-.561.279-.933.279-.295 0-.561-.067-.796-.2a1.423 1.423 0 0 1-.546-.562 1.78 1.78 0 0 1-.199-.853c0-.323.065-.605.194-.848.129-.242.309-.428.54-.557.235-.133.504-.2.807-.2.296 0 .558.065.785.194.228.13.402.307.523.535.126.223.188.478.188.762Zm-.534-.108a.942.942 0 0 0-.131-.506.822.822 0 0 0-.359-.324 1.063 1.063 0 0 0-.494-.114.967.967 0 0 0-.671.25c-.182.167-.287.398-.313.694h1.968Zm2.321 1.837c-.239 0-.454-.04-.643-.12a1.113 1.113 0 0 1-.449-.341.919.919 0 0 1-.182-.506h.534a.527.527 0 0 0 .216.38.849.849 0 0 0 .518.149c.197 0 .352-.044.466-.131a.4.4 0 0 0 .171-.33.32.32 0 0 0-.182-.301 2.448 2.448 0 0 0-.563-.2 4.68 4.68 0 0 1-.569-.181 1.079 1.079 0 0 1-.375-.279.744.744 0 0 1-.154-.489c0-.16.048-.305.142-.438a.948.948 0 0 1 .404-.313c.175-.08.374-.12.597-.12.345 0 .624.088.836.262.213.175.326.414.341.717h-.517a.53.53 0 0 0-.199-.392c-.118-.099-.277-.148-.478-.148-.186 0-.333.04-.443.12a.369.369 0 0 0-.165.312.36.36 0 0 0 .096.256.841.841 0 0 0 .251.16c.102.037.242.08.42.13.224.06.406.121.546.182.141.057.26.144.359.262a.701.701 0 0 1 .159.46c0 .17-.047.324-.142.46a.97.97 0 0 1-.404.325 1.444 1.444 0 0 1-.591.114Zm2.499-2.742v1.837c0 .152.032.26.096.325.065.06.177.09.336.09h.381v.439h-.466c-.289 0-.505-.067-.649-.2-.144-.132-.216-.35-.216-.654v-1.837h-.404v-.426h.404v-.785h.518v.785h.813v.426h-.813Z"/><rect width="46.444" height="10.9" x="199.78" y="10.967" stroke="#C3C8D5" stroke-width=".474" rx="5.45"/><path fill="#90DF52" fill-rule="evenodd" d="M193.383 29.924v3.317l-2.37-1.658 2.37-1.66Z" clip-rule="evenodd"/><path fill="#90DF52" fill-rule="evenodd" d="M193.383 31.346H251.2v.474h-57.817v-.474Z" clip-rule="evenodd"/><circle cx="252.858" cy="31.583" r="1.422" fill="#fff" stroke="#90DF52" stroke-width=".474"/><rect width="47.109" height="10.9" x="199.21" y="26.133" fill="#fff" rx="5.45"/><path fill="#5F6578" d="M205.063 29.91c.235 0 .447.05.637.153.189.098.337.248.443.45.11.2.165.445.165.733v1.837h-.512V31.32c0-.311-.077-.548-.233-.711-.155-.167-.368-.25-.637-.25-.273 0-.491.085-.654.255-.159.171-.239.42-.239.745v1.724h-.517v-4.209h.517v1.536c.103-.16.243-.283.421-.37.182-.087.385-.13.609-.13Zm2.722.483v1.837c0 .151.032.26.096.324.065.06.177.09.336.09h.381v.439h-.466c-.289 0-.505-.067-.649-.2-.144-.132-.216-.35-.216-.653v-1.837h-.404v-.427h.404v-.785h.518v.785h.813v.427h-.813Zm2.071 0v1.837c0 .151.032.26.097.324.064.06.176.09.335.09h.381v.439h-.466c-.288 0-.504-.067-.648-.2-.144-.132-.216-.35-.216-.653v-1.837h-.404v-.427h.404v-.785h.517v.785h.813v.427h-.813Zm1.958.148c.102-.179.254-.326.455-.444a1.37 1.37 0 0 1 .711-.182c.277 0 .527.066.75.2.228.132.406.32.535.562.129.239.193.518.193.836 0 .315-.064.595-.193.842a1.421 1.421 0 0 1-1.285.779c-.266 0-.501-.059-.705-.176a1.309 1.309 0 0 1-.461-.45v2.053h-.518v-4.595h.518v.575Zm2.116.972c0-.235-.048-.44-.143-.614a.973.973 0 0 0-.386-.398 1.05 1.05 0 0 0-.529-.137 1.033 1.033 0 0 0-.916.546 1.252 1.252 0 0 0-.142.609c0 .235.047.441.142.62.099.174.228.309.387.403.163.091.339.137.529.137a1.011 1.011 0 0 0 .915-.54 1.31 1.31 0 0 0 .143-.626Zm3.243-1.04a.998.998 0 0 1 .387-.416 1.22 1.22 0 0 1 .62-.148v.535h-.137c-.58 0-.87.315-.87.944v1.695h-.517v-3.117h.517v.506Zm4.448.932c0 .099-.006.203-.017.313h-2.491c.019.307.123.548.313.722.193.17.426.256.699.256.224 0 .41-.051.557-.154a.839.839 0 0 0 .319-.42h.557c-.083.3-.25.544-.5.733-.251.186-.561.279-.933.279a1.59 1.59 0 0 1-.796-.2 1.423 1.423 0 0 1-.546-.562 1.768 1.768 0 0 1-.199-.853c0-.322.064-.605.193-.848.129-.242.309-.428.541-.557.235-.133.504-.199.807-.199.296 0 .557.065.785.193.227.13.402.308.523.535.125.224.188.478.188.762Zm-.535-.108a.933.933 0 0 0-.131-.506.82.82 0 0 0-.358-.324 1.07 1.07 0 0 0-.495-.114.97.97 0 0 0-.671.25c-.182.167-.286.398-.313.694h1.968Zm2.321 1.837c-.239 0-.453-.04-.643-.12a1.12 1.12 0 0 1-.449-.34.927.927 0 0 1-.182-.507h.535a.527.527 0 0 0 .216.381.846.846 0 0 0 .517.148c.198 0 .353-.044.467-.13a.4.4 0 0 0 .17-.33.318.318 0 0 0-.182-.302 2.43 2.43 0 0 0-.563-.2 4.643 4.643 0 0 1-.568-.181 1.082 1.082 0 0 1-.376-.279.75.75 0 0 1-.153-.489c0-.16.047-.305.142-.438a.943.943 0 0 1 .404-.313c.174-.08.373-.119.597-.119.345 0 .624.087.836.262.212.174.326.413.341.716h-.517a.532.532 0 0 0-.2-.392c-.117-.099-.276-.148-.477-.148-.186 0-.334.04-.444.12a.369.369 0 0 0-.165.312.36.36 0 0 0 .097.256.834.834 0 0 0 .25.16c.103.037.243.08.421.13.224.06.406.121.546.182.14.057.26.144.358.262a.691.691 0 0 1 .159.46c0 .17-.047.324-.142.46a.96.96 0 0 1-.403.325 1.447 1.447 0 0 1-.592.114Zm2.386-2.593c.102-.179.254-.326.455-.444.204-.121.441-.182.71-.182.277 0 .527.066.751.2.228.132.406.32.535.562.129.239.193.518.193.836 0 .315-.064.595-.193.842a1.421 1.421 0 0 1-1.286.779c-.265 0-.5-.059-.705-.176a1.306 1.306 0 0 1-.46-.45v2.053h-.518v-4.595h.518v.575Zm2.115.972c0-.235-.047-.44-.142-.614a.981.981 0 0 0-.387-.398 1.045 1.045 0 0 0-.529-.137c-.189 0-.366.048-.529.142-.159.091-.288.226-.386.404a1.252 1.252 0 0 0-.142.609c0 .235.047.441.142.62.098.174.227.309.386.403.163.091.34.137.529.137.194 0 .37-.046.529-.137a1.02 1.02 0 0 0 .387-.403 1.31 1.31 0 0 0 .142-.626Zm2.569 1.62a1.61 1.61 0 0 1-.796-.198 1.443 1.443 0 0 1-.557-.563 1.768 1.768 0 0 1-.199-.853c0-.319.068-.6.205-.842a1.42 1.42 0 0 1 .568-.563c.239-.133.506-.199.802-.199.296 0 .563.066.802.2.239.128.426.314.563.556.14.243.21.526.21.848 0 .322-.072.606-.216.853a1.46 1.46 0 0 1-.574.563 1.657 1.657 0 0 1-.808.199Zm0-.454c.186 0 .361-.044.524-.13a.979.979 0 0 0 .392-.393c.102-.175.154-.387.154-.637s-.05-.463-.148-.637a.954.954 0 0 0-.387-.387 1.06 1.06 0 0 0-.518-.13c-.189 0-.364.043-.523.13a.928.928 0 0 0-.375.387 1.315 1.315 0 0 0-.142.637c0 .254.045.468.136.642.095.175.22.306.376.393.155.083.326.125.511.125Zm3.797-2.77c.379 0 .686.116.922.347.235.228.352.558.352.99v1.837h-.512V31.32c0-.311-.077-.548-.233-.711-.155-.167-.368-.25-.637-.25-.273 0-.491.085-.654.255-.159.171-.239.42-.239.745v1.724h-.517v-3.117h.517v.444c.103-.16.241-.283.415-.37.179-.087.374-.13.586-.13Zm3.223 3.225c-.239 0-.453-.04-.643-.12a1.12 1.12 0 0 1-.449-.34.92.92 0 0 1-.182-.507h.534a.531.531 0 0 0 .217.381.844.844 0 0 0 .517.148c.197 0 .353-.044.466-.13a.4.4 0 0 0 .171-.33.32.32 0 0 0-.182-.302 2.43 2.43 0 0 0-.563-.2 4.665 4.665 0 0 1-.569-.181 1.079 1.079 0 0 1-.375-.279.75.75 0 0 1-.154-.489c0-.16.048-.305.143-.438a.94.94 0 0 1 .403-.313c.175-.08.374-.119.598-.119.345 0 .623.087.835.262.213.174.327.413.342.716h-.518a.53.53 0 0 0-.199-.392c-.117-.099-.277-.148-.478-.148a.741.741 0 0 0-.443.12.369.369 0 0 0-.165.312c0 .102.032.188.097.256a.822.822 0 0 0 .25.16c.102.037.242.08.421.13.223.06.405.121.546.182a.91.91 0 0 1 .358.262.702.702 0 0 1 .159.46c0 .17-.047.324-.142.46a.963.963 0 0 1-.404.325c-.17.076-.368.114-.591.114Zm4.711-1.729c0 .099-.006.203-.017.313H239.7c.019.307.123.548.313.722.193.17.427.256.7.256a.958.958 0 0 0 .557-.154.837.837 0 0 0 .318-.42h.558c-.084.3-.251.544-.501.733-.25.186-.561.279-.932.279-.296 0-.562-.066-.797-.2a1.423 1.423 0 0 1-.546-.562 1.78 1.78 0 0 1-.199-.853c0-.322.065-.605.194-.848.129-.242.309-.428.54-.557.235-.133.504-.199.808-.199.295 0 .557.065.784.193.228.13.402.308.524.535.125.224.187.478.187.762Zm-.534-.108a.942.942 0 0 0-.131-.506.825.825 0 0 0-.358-.324 1.07 1.07 0 0 0-.495-.114.967.967 0 0 0-.671.25c-.182.167-.287.398-.313.694h1.968Z"/><rect width="47.109" height="10.9" x="199.21" y="26.133" stroke="#90DF52" stroke-width=".474" rx="5.45"/></svg>