<svg xmlns="http://www.w3.org/2000/svg" width="1440" height="416" fill="none"><path fill="url(#a)" d="M-275 0h1990v416H-275V0Z"/><mask id="c" width="1990" height="416" x="-275" y="0" maskUnits="userSpaceOnUse" style="mask-type:alpha"><path fill="url(#b)" d="M-275 0h1990v416H-275V0Z"/></mask><g mask="url(#c)"><g filter="url(#d)"><path fill="url(#e)" fill-opacity=".4" d="M639.863 834.259c456.527-158.444 307.231 135.699 585.597 163.969 278.37 28.272 491.57-277.051-126.61-507.613C480.661 260.052-140.317 1105.03 639.863 834.259Z"/></g><g filter="url(#f)"><path fill="url(#g)" fill-opacity=".7" d="M-205.681 120.331C-525.795-96.401-1013.1 100.656-1030.79-114.971c-17.68-215.627 524.831 124.373 1172.816-36.674s199.347 642.356-347.707 271.976Z"/></g><g filter="url(#h)"><path fill="url(#i)" fill-opacity=".6" d="M787.915 64.534c141.4 146.78 297.095-131.246 589.435 124.281 292.33 255.527 553.69-255.527 30.98-423.2C885.622-402.059 619.806-109.972 787.915 64.533Z"/></g><path fill="url(#j)" d="M-116-14.352v-407.296c0-9.183 5.412-17.669 14.196-22.261l389.608-203.647c8.784-4.592 19.607-4.592 28.392 0l389.608 203.647c8.785 4.592 14.196 13.078 14.196 22.261v407.296c0 9.183-5.411 17.669-14.196 22.26L316.196 211.556c-8.785 4.592-19.608 4.592-28.392 0L-101.804 7.908C-110.588 3.317-116-5.169-116-14.352Z" opacity=".1"/><path fill="url(#k)" d="M1320-8.338v-153.324c0-3.457 2.24-6.651 5.88-8.38l161.24-76.662c3.64-1.728 8.12-1.728 11.76 0l161.24 76.662c3.64 1.729 5.88 4.923 5.88 8.38V-8.338c0 3.457-2.24 6.651-5.88 8.38l-161.24 76.662c-3.64 1.728-8.12 1.728-11.76 0L1325.88.042c-3.64-1.729-5.88-4.923-5.88-8.38Z" opacity=".1"/><path fill="url(#l)" d="M979 521.274V347.726c0-3.913 2.492-7.528 6.538-9.485l179.422-86.774c4.05-1.956 9.03-1.956 13.08 0l179.42 86.774c4.05 1.957 6.54 5.572 6.54 9.485v173.548c0 3.913-2.49 7.528-6.54 9.485l-179.42 86.774c-4.05 1.956-9.03 1.956-13.08 0l-179.422-86.774c-4.046-1.957-6.538-5.572-6.538-9.485Z" opacity=".05"/></g><defs><linearGradient id="a" x1="-1174" x2="1667.97" y1="1001.14" y2="140.668" gradientUnits="userSpaceOnUse"><stop stop-color="#00B4D5"/><stop offset="1" stop-color="#0081A7"/></linearGradient><linearGradient id="b" x1="-275" x2="1575.77" y1="425.473" y2="-204.549" gradientUnits="userSpaceOnUse"><stop stop-color="#1B45B4"/><stop offset="1" stop-color="#1C2792"/></linearGradient><linearGradient id="e" x1="111.18" x2="1115.23" y1="922.439" y2="274.653" gradientUnits="userSpaceOnUse"><stop stop-color="#fff"/><stop offset="1" stop-color="#99E1EE"/></linearGradient><linearGradient id="g" x1="166.263" x2="-483.389" y1="340.181" y2="-363.687" gradientUnits="userSpaceOnUse"><stop stop-color="#00B4D5"/><stop offset="1" stop-color="#CCF2F4"/></linearGradient><linearGradient id="i" x1="510.132" x2="1435.43" y1="224.408" y2="-372.264" gradientUnits="userSpaceOnUse"><stop stop-color="#0081A7"/><stop offset="1" stop-color="#66D2E6"/></linearGradient><linearGradient id="j" x1="304.533" x2="1001.43" y1="431.5" y2="-39.532" gradientUnits="userSpaceOnUse"><stop offset=".5" stop-color="#0081A7"/><stop offset="1" stop-color="#7AEAFF"/></linearGradient><linearGradient id="k" x1="1494.05" x2="1764.76" y1="159.5" y2="-41.664" gradientUnits="userSpaceOnUse"><stop offset=".5" stop-color="#0081A7"/><stop offset="1" stop-color="#7AEAFF"/></linearGradient><linearGradient id="l" x1="1397.7" x2="1577.32" y1="619" y2="285.219" gradientUnits="userSpaceOnUse"><stop stop-color="#7CE1FF"/><stop offset="1" stop-color="#0081A7"/></linearGradient><filter id="d" width="1594.4" height="919.783" x="89.734" y="265.274" color-interpolation-filters="sRGB" filterUnits="userSpaceOnUse"><feFlood flood-opacity="0" result="BackgroundImageFix"/><feBlend in="SourceGraphic" in2="BackgroundImageFix" result="shape"/><feGaussianBlur result="effect1_foregroundBlur_6127_25958" stdDeviation="92.5"/></filter><filter id="f" width="1985.41" height="900.055" x="-1277.21" y="-435.061" color-interpolation-filters="sRGB" filterUnits="userSpaceOnUse"><feFlood flood-opacity="0" result="BackgroundImageFix"/><feBlend in="SourceGraphic" in2="BackgroundImageFix" result="shape"/><feGaussianBlur result="effect1_foregroundBlur_6127_25958" stdDeviation="123"/></filter><filter id="h" width="1240.12" height="813.623" x="602.699" y="-419.54" color-interpolation-filters="sRGB" filterUnits="userSpaceOnUse"><feFlood flood-opacity="0" result="BackgroundImageFix"/><feBlend in="SourceGraphic" in2="BackgroundImageFix" result="shape"/><feGaussianBlur result="effect1_foregroundBlur_6127_25958" stdDeviation="67.5"/></filter></defs></svg>