<svg width="481" height="458" viewBox="0 0 481 458" fill="none" xmlns="http://www.w3.org/2000/svg">
<path d="M313.551 271.405L240.243 313.557L166.935 271.405L166.935 187.108L240.243 144.957L313.551 187.109L313.551 271.405Z" fill="#FBFCFD" stroke="#EDEFF7" stroke-width="2"/>
<path d="M313.551 271.405L240.243 313.557L166.935 271.405L166.935 187.108L240.243 144.957L313.551 187.109L313.551 271.405Z" fill="url(#paint0_linear_12046_85358)" stroke="#EDEFF7" stroke-width="2"/>
<path d="M230.243 129.276L156.936 171.428L83.628 129.276L83.628 44.9793L156.936 2.82737L230.243 44.9793L230.243 129.276Z" fill="url(#paint1_linear_12046_85358)" stroke="#EDEFF7" stroke-width="2"/>
<path d="M125.42 81.245C124.599 81.245 123.862 81.1023 123.208 80.8169C122.566 80.5197 122.061 80.1155 121.693 79.6042C121.324 79.0811 121.134 78.4807 121.122 77.803H122.852C122.911 78.3856 123.149 78.879 123.565 79.2832C123.993 79.6756 124.611 79.8717 125.42 79.8717C126.193 79.8717 126.799 79.6815 127.239 79.3011C127.691 78.9087 127.917 78.4094 127.917 77.803C127.917 77.3275 127.786 76.9411 127.524 76.6438C127.263 76.3466 126.936 76.1207 126.543 75.9661C126.151 75.8116 125.622 75.6451 124.956 75.4668C124.136 75.2528 123.476 75.0388 122.977 74.8248C122.489 74.6108 122.067 74.2779 121.71 73.8261C121.366 73.3624 121.193 72.7442 121.193 71.9714C121.193 71.2937 121.366 70.6933 121.71 70.1701C122.055 69.647 122.537 69.2428 123.155 68.9574C123.785 68.6721 124.504 68.5294 125.313 68.5294C126.478 68.5294 127.429 68.8207 128.166 69.4033C128.915 69.9859 129.337 70.7587 129.432 71.7217H127.649C127.59 71.2461 127.34 70.83 126.9 70.4733C126.46 70.1047 125.878 69.9205 125.152 69.9205C124.475 69.9205 123.922 70.0988 123.494 70.4555C123.066 70.8003 122.852 71.2877 122.852 71.9179C122.852 72.3696 122.977 72.7382 123.226 73.0236C123.488 73.3089 123.803 73.5288 124.171 73.6834C124.552 73.8261 125.081 73.9925 125.759 74.1828C126.579 74.4086 127.239 74.6345 127.738 74.8604C128.238 75.0744 128.666 75.4133 129.022 75.877C129.379 76.3288 129.557 76.947 129.557 77.7317C129.557 78.338 129.397 78.9087 129.076 79.4437C128.755 79.9788 128.279 80.4127 127.649 80.7456C127.019 81.0785 126.276 81.245 125.42 81.245ZM140.862 75.8591C140.862 76.1683 140.845 76.4952 140.809 76.84H132.998C133.057 77.803 133.384 78.558 133.979 79.1049C134.585 79.6399 135.316 79.9074 136.172 79.9074C136.874 79.9074 137.456 79.7469 137.92 79.4259C138.395 79.093 138.728 78.6531 138.919 78.1062H140.666C140.405 79.0454 139.882 79.8123 139.097 80.4068C138.312 80.9893 137.337 81.2806 136.172 81.2806C135.245 81.2806 134.412 81.0726 133.675 80.6564C132.95 80.2403 132.379 79.6518 131.963 78.8909C131.547 78.1181 131.339 77.2264 131.339 76.2158C131.339 75.2052 131.541 74.3195 131.945 73.5586C132.35 72.7977 132.914 72.2151 133.64 71.8108C134.377 71.3947 135.221 71.1867 136.172 71.1867C137.099 71.1867 137.92 71.3888 138.633 71.793C139.347 72.1972 139.893 72.756 140.274 73.4694C140.666 74.1709 140.862 74.9674 140.862 75.8591ZM139.186 75.5203C139.186 74.902 139.049 74.373 138.776 73.9331C138.502 73.4813 138.128 73.1424 137.652 72.9165C137.189 72.6788 136.671 72.5599 136.101 72.5599C135.28 72.5599 134.579 72.8214 133.996 73.3446C133.426 73.8677 133.099 74.5929 133.016 75.5203H139.186ZM142.398 76.2158C142.398 75.2052 142.6 74.3254 143.005 73.5764C143.409 72.8155 143.968 72.227 144.681 71.8108C145.406 71.3947 146.232 71.1867 147.16 71.1867C148.361 71.1867 149.347 71.4779 150.12 72.0605C150.905 72.6431 151.422 73.4516 151.672 74.4859H149.924C149.758 73.8915 149.431 73.4218 148.943 73.0771C148.468 72.7323 147.873 72.5599 147.16 72.5599C146.232 72.5599 145.483 72.8809 144.913 73.5229C144.342 74.153 144.057 75.0507 144.057 76.2158C144.057 77.3928 144.342 78.3024 144.913 78.9444C145.483 79.5864 146.232 79.9074 147.16 79.9074C147.873 79.9074 148.468 79.741 148.943 79.4081C149.419 79.0752 149.746 78.5996 149.924 77.9814H151.672C151.41 78.9801 150.887 79.7826 150.102 80.3889C149.318 80.9834 148.337 81.2806 147.16 81.2806C146.232 81.2806 145.406 81.0726 144.681 80.6564C143.968 80.2403 143.409 79.6518 143.005 78.8909C142.6 78.13 142.398 77.2383 142.398 76.2158ZM162.504 71.3472V81.1201H160.882V79.6756C160.572 80.1749 160.139 80.5673 159.58 80.8526C159.033 81.1261 158.426 81.2628 157.761 81.2628C157 81.2628 156.316 81.1082 155.71 80.7991C155.103 80.4781 154.622 80.0025 154.265 79.3724C153.92 78.7423 153.748 77.9754 153.748 77.0718V71.3472H155.353V76.8578C155.353 77.8209 155.597 78.5639 156.084 79.0871C156.572 79.5983 157.238 79.8539 158.082 79.8539C158.95 79.8539 159.633 79.5864 160.133 79.0514C160.632 78.5164 160.882 77.7376 160.882 76.7152V71.3472H162.504ZM166.867 72.9344C167.153 72.3756 167.557 71.9416 168.08 71.6325C168.615 71.3234 169.263 71.1688 170.024 71.1688V72.8452H169.596C167.777 72.8452 166.867 73.832 166.867 75.8056V81.1201H165.245V71.3472H166.867V72.9344ZM172.736 69.76C172.427 69.76 172.165 69.653 171.951 69.4389C171.737 69.2249 171.63 68.9634 171.63 68.6543C171.63 68.3451 171.737 68.0836 171.951 67.8696C172.165 67.6556 172.427 67.5486 172.736 67.5486C173.033 67.5486 173.283 67.6556 173.485 67.8696C173.699 68.0836 173.806 68.3451 173.806 68.6543C173.806 68.9634 173.699 69.2249 173.485 69.4389C173.283 69.653 173.033 69.76 172.736 69.76ZM173.52 71.3472V81.1201H171.897V71.3472H173.52ZM178.266 72.6847V78.445C178.266 78.9206 178.367 79.2595 178.569 79.4616C178.771 79.6518 179.122 79.7469 179.621 79.7469H180.816V81.1201H179.354C178.45 81.1201 177.772 80.9121 177.321 80.4959C176.869 80.0798 176.643 79.3962 176.643 78.445V72.6847H175.377V71.3472H176.643V68.8861H178.266V71.3472H180.816V72.6847H178.266ZM191.2 71.3472L185.315 85.7213H183.638L185.564 81.0131L181.623 71.3472H183.424L186.492 79.2654L189.524 71.3472H191.2ZM128.526 98.6847V104.445C128.526 104.921 128.627 105.259 128.829 105.462C129.031 105.652 129.382 105.747 129.881 105.747H131.076V107.12H129.614C128.71 107.12 128.033 106.912 127.581 106.496C127.129 106.08 126.903 105.396 126.903 104.445V98.6847H125.637V97.3472H126.903V94.8861H128.526V97.3472H131.076V98.6847H128.526ZM141.96 101.859C141.96 102.168 141.942 102.495 141.906 102.84H134.095C134.154 103.803 134.481 104.558 135.076 105.105C135.682 105.64 136.413 105.907 137.269 105.907C137.971 105.907 138.553 105.747 139.017 105.426C139.493 105.093 139.825 104.653 140.016 104.106H141.763C141.502 105.045 140.979 105.812 140.194 106.407C139.409 106.989 138.434 107.281 137.269 107.281C136.342 107.281 135.51 107.073 134.773 106.656C134.047 106.24 133.477 105.652 133.061 104.891C132.644 104.118 132.436 103.226 132.436 102.216C132.436 101.205 132.638 100.319 133.043 99.5586C133.447 98.7977 134.012 98.2151 134.737 97.8108C135.474 97.3947 136.318 97.1867 137.269 97.1867C138.197 97.1867 139.017 97.3888 139.73 97.793C140.444 98.1972 140.991 98.756 141.371 99.4694C141.763 100.171 141.96 100.967 141.96 101.859ZM140.283 101.52C140.283 100.902 140.146 100.373 139.873 99.9331C139.6 99.4813 139.225 99.1424 138.75 98.9165C138.286 98.6788 137.769 98.5599 137.198 98.5599C136.378 98.5599 135.676 98.8214 135.094 99.3446C134.523 99.8677 134.196 100.593 134.113 101.52H140.283ZM147.562 107.281C146.812 107.281 146.141 107.156 145.546 106.906C144.952 106.645 144.482 106.288 144.137 105.836C143.793 105.372 143.602 104.843 143.567 104.249H145.243C145.291 104.736 145.517 105.135 145.921 105.444C146.337 105.753 146.878 105.907 147.544 105.907C148.162 105.907 148.649 105.771 149.006 105.497C149.363 105.224 149.541 104.879 149.541 104.463C149.541 104.035 149.351 103.72 148.97 103.518C148.59 103.304 148.001 103.096 147.205 102.893C146.48 102.703 145.885 102.513 145.421 102.323C144.97 102.121 144.577 101.829 144.244 101.449C143.923 101.057 143.763 100.545 143.763 99.9152C143.763 99.4159 143.912 98.9582 144.209 98.542C144.506 98.1259 144.928 97.799 145.475 97.5612C146.022 97.3115 146.646 97.1867 147.348 97.1867C148.429 97.1867 149.303 97.4601 149.969 98.007C150.635 98.5539 150.992 99.3029 151.039 100.254H149.416C149.381 99.7428 149.173 99.3327 148.792 99.0236C148.423 98.7144 147.924 98.5599 147.294 98.5599C146.711 98.5599 146.248 98.6847 145.903 98.9344C145.558 99.1841 145.386 99.511 145.386 99.9152C145.386 100.236 145.487 100.504 145.689 100.718C145.903 100.92 146.165 101.086 146.474 101.217C146.795 101.336 147.235 101.473 147.793 101.627C148.495 101.818 149.066 102.008 149.505 102.198C149.945 102.376 150.32 102.65 150.629 103.018C150.95 103.387 151.116 103.868 151.128 104.463C151.128 104.998 150.98 105.479 150.682 105.907C150.385 106.335 149.963 106.674 149.416 106.924C148.881 107.162 148.263 107.281 147.562 107.281ZM155.399 98.6847V104.445C155.399 104.921 155.5 105.259 155.702 105.462C155.904 105.652 156.255 105.747 156.754 105.747H157.949V107.12H156.487C155.583 107.12 154.905 106.912 154.454 106.496C154.002 106.08 153.776 105.396 153.776 104.445V98.6847H152.51V97.3472H153.776V94.8861H155.399V97.3472H157.949V98.6847H155.399ZM160.754 95.76C160.444 95.76 160.183 95.653 159.969 95.4389C159.755 95.2249 159.648 94.9634 159.648 94.6543C159.648 94.3451 159.755 94.0836 159.969 93.8696C160.183 93.6556 160.444 93.5486 160.754 93.5486C161.051 93.5486 161.3 93.6556 161.503 93.8696C161.717 94.0836 161.824 94.3451 161.824 94.6543C161.824 94.9634 161.717 95.2249 161.503 95.4389C161.3 95.653 161.051 95.76 160.754 95.76ZM161.538 97.3472V107.12H159.915V97.3472H161.538ZM169.066 97.1688C170.255 97.1688 171.218 97.5315 171.955 98.2567C172.692 98.97 173.061 100.004 173.061 101.36V107.12H171.456V101.592C171.456 100.617 171.212 99.8736 170.724 99.3624C170.237 98.8393 169.571 98.5777 168.727 98.5777C167.871 98.5777 167.187 98.8452 166.676 99.3802C166.177 99.9152 165.927 100.694 165.927 101.716V107.12H164.304V97.3472H165.927V98.7382C166.248 98.2389 166.682 97.8525 167.229 97.579C167.788 97.3056 168.4 97.1688 169.066 97.1688ZM179.742 97.1867C180.586 97.1867 181.323 97.3709 181.953 97.7395C182.595 98.1081 183.071 98.5718 183.38 99.1306V97.3472H185.021V107.334C185.021 108.226 184.831 109.016 184.45 109.706C184.07 110.407 183.523 110.954 182.809 111.347C182.108 111.739 181.288 111.935 180.348 111.935C179.064 111.935 177.994 111.632 177.138 111.026C176.282 110.419 175.777 109.593 175.622 108.547H177.227C177.406 109.141 177.774 109.617 178.333 109.974C178.892 110.342 179.564 110.526 180.348 110.526C181.24 110.526 181.965 110.247 182.524 109.688C183.095 109.129 183.38 108.345 183.38 107.334V105.283C183.059 105.854 182.584 106.329 181.953 106.71C181.323 107.09 180.586 107.281 179.742 107.281C178.874 107.281 178.083 107.067 177.37 106.639C176.669 106.211 176.116 105.61 175.712 104.837C175.307 104.065 175.105 103.185 175.105 102.198C175.105 101.199 175.307 100.325 175.712 99.5764C176.116 98.8155 176.669 98.227 177.37 97.8108C178.083 97.3947 178.874 97.1867 179.742 97.1867ZM183.38 102.216C183.38 101.479 183.231 100.837 182.934 100.29C182.637 99.7428 182.233 99.3267 181.722 99.0414C181.222 98.7442 180.669 98.5955 180.063 98.5955C179.457 98.5955 178.904 98.7382 178.404 99.0236C177.905 99.3089 177.507 99.725 177.21 100.272C176.912 100.819 176.764 101.461 176.764 102.198C176.764 102.947 176.912 103.601 177.21 104.16C177.507 104.707 177.905 105.129 178.404 105.426C178.904 105.711 179.457 105.854 180.063 105.854C180.669 105.854 181.222 105.711 181.722 105.426C182.233 105.129 182.637 104.707 182.934 104.16C183.231 103.601 183.38 102.953 183.38 102.216Z" fill="#5F6578"/>
<path d="M395.693 128.276L322.385 170.428L249.077 128.276L249.077 43.9793L322.385 1.82737L395.693 43.9793L395.693 128.276Z" fill="url(#paint2_linear_12046_85358)" stroke="#EDEFF7" stroke-width="2"/>
<path d="M277.561 71.328C277.561 72.3624 277.204 73.2244 276.491 73.9139C275.789 74.5916 274.713 74.9305 273.263 74.9305H270.873V80.1201H269.25V67.6899H273.263C274.666 67.6899 275.73 68.0288 276.455 68.7065C277.192 69.3841 277.561 70.258 277.561 71.328ZM273.263 73.5929C274.166 73.5929 274.832 73.3968 275.26 73.0044C275.688 72.6121 275.902 72.0533 275.902 71.328C275.902 69.7943 275.022 69.0275 273.263 69.0275H270.873V73.5929H273.263ZM288.495 74.8591C288.495 75.1683 288.477 75.4952 288.441 75.84H280.63C280.689 76.803 281.016 77.558 281.611 78.1049C282.217 78.6399 282.948 78.9074 283.804 78.9074C284.506 78.9074 285.088 78.7469 285.552 78.4259C286.028 78.093 286.36 77.6531 286.551 77.1062H288.298C288.037 78.0454 287.514 78.8123 286.729 79.4068C285.944 79.9893 284.969 80.2806 283.804 80.2806C282.877 80.2806 282.045 80.0726 281.308 79.6564C280.582 79.2403 280.012 78.6518 279.595 77.8909C279.179 77.1181 278.971 76.2264 278.971 75.2158C278.971 74.2052 279.173 73.3195 279.578 72.5586C279.982 71.7977 280.547 71.2151 281.272 70.8108C282.009 70.3947 282.853 70.1867 283.804 70.1867C284.732 70.1867 285.552 70.3888 286.265 70.793C286.979 71.1972 287.526 71.756 287.906 72.4694C288.298 73.1709 288.495 73.9674 288.495 74.8591ZM286.818 74.5203C286.818 73.902 286.681 73.373 286.408 72.9331C286.135 72.4813 285.76 72.1424 285.284 71.9165C284.821 71.6788 284.304 71.5599 283.733 71.5599C282.913 71.5599 282.211 71.8214 281.629 72.3446C281.058 72.8677 280.731 73.5929 280.648 74.5203H286.818ZM292.26 71.9344C292.545 71.3756 292.949 70.9416 293.472 70.6325C294.007 70.3234 294.655 70.1688 295.416 70.1688V71.8452H294.988C293.169 71.8452 292.26 72.832 292.26 74.8056V80.1201H290.637V70.3472H292.26V71.9344ZM301.267 71.6847H299.216V80.1201H297.593V71.6847H296.327V70.3472H297.593V69.6516C297.593 68.5578 297.872 67.7613 298.431 67.2619C299.002 66.7507 299.911 66.4951 301.16 66.4951V67.8504C300.446 67.8504 299.941 67.9931 299.644 68.2784C299.358 68.5519 299.216 69.0096 299.216 69.6516V70.3472H301.267V71.6847ZM307.421 80.2806C306.506 80.2806 305.673 80.0726 304.924 79.6564C304.187 79.2403 303.605 78.6518 303.177 77.8909C302.76 77.1181 302.552 76.2264 302.552 75.2158C302.552 74.2171 302.766 73.3373 303.194 72.5764C303.634 71.8036 304.229 71.2151 304.978 70.8108C305.727 70.3947 306.565 70.1867 307.492 70.1867C308.42 70.1867 309.258 70.3947 310.007 70.8108C310.756 71.2151 311.344 71.7977 311.772 72.5586C312.212 73.3195 312.432 74.2052 312.432 75.2158C312.432 76.2264 312.206 77.1181 311.755 77.8909C311.315 78.6518 310.714 79.2403 309.953 79.6564C309.193 80.0726 308.348 80.2806 307.421 80.2806ZM307.421 78.8539C308.004 78.8539 308.551 78.7172 309.062 78.4437C309.573 78.1703 309.983 77.7601 310.292 77.2132C310.613 76.6663 310.774 76.0005 310.774 75.2158C310.774 74.4311 310.619 73.7653 310.31 73.2184C310.001 72.6715 309.597 72.2673 309.097 72.0057C308.598 71.7323 308.057 71.5955 307.475 71.5955C306.88 71.5955 306.333 71.7323 305.834 72.0057C305.346 72.2673 304.954 72.6715 304.657 73.2184C304.36 73.7653 304.211 74.4311 304.211 75.2158C304.211 76.0124 304.354 76.6841 304.639 77.231C304.936 77.7779 305.329 78.1881 305.816 78.4616C306.303 78.7231 306.838 78.8539 307.421 78.8539ZM326.319 70.1688C327.08 70.1688 327.757 70.3293 328.352 70.6503C328.946 70.9595 329.416 71.4291 329.761 72.0592C330.105 72.6893 330.278 73.4562 330.278 74.3598V80.1201H328.673V74.5916C328.673 73.6167 328.429 72.8736 327.942 72.3624C327.466 71.8393 326.818 71.5777 325.998 71.5777C325.153 71.5777 324.482 71.8512 323.982 72.3981C323.483 72.9331 323.233 73.7118 323.233 74.7343V80.1201H321.628V74.5916C321.628 73.6167 321.385 72.8736 320.897 72.3624C320.422 71.8393 319.774 71.5777 318.953 71.5777C318.109 71.5777 317.437 71.8512 316.938 72.3981C316.439 72.9331 316.189 73.7118 316.189 74.7343V80.1201H314.566V70.3472H316.189V71.756C316.51 71.2448 316.938 70.8525 317.473 70.579C318.02 70.3056 318.62 70.1688 319.274 70.1688C320.095 70.1688 320.82 70.3531 321.45 70.7217C322.08 71.0902 322.55 71.6312 322.859 72.3446C323.132 71.655 323.584 71.12 324.214 70.7395C324.844 70.3591 325.546 70.1688 326.319 70.1688ZM332.334 75.198C332.334 74.1993 332.536 73.3254 332.94 72.5764C333.344 71.8155 333.897 71.227 334.598 70.8108C335.312 70.3947 336.102 70.1867 336.97 70.1867C337.826 70.1867 338.569 70.3709 339.2 70.7395C339.83 71.1081 340.299 71.5718 340.608 72.1306V70.3472H342.249V80.1201H340.608V78.3011C340.287 78.8717 339.806 79.3473 339.164 79.7278C338.534 80.0963 337.797 80.2806 336.952 80.2806C336.085 80.2806 335.3 80.0666 334.598 79.6386C333.897 79.2106 333.344 78.6102 332.94 77.8374C332.536 77.0646 332.334 76.1848 332.334 75.198ZM340.608 75.2158C340.608 74.4787 340.46 73.8367 340.163 73.2898C339.865 72.7428 339.461 72.3267 338.95 72.0414C338.451 71.7442 337.898 71.5955 337.291 71.5955C336.685 71.5955 336.132 71.7382 335.633 72.0236C335.133 72.3089 334.735 72.725 334.438 73.2719C334.141 73.8188 333.992 74.4608 333.992 75.198C333.992 75.947 334.141 76.6009 334.438 77.1597C334.735 77.7066 335.133 78.1287 335.633 78.4259C336.132 78.7112 336.685 78.8539 337.291 78.8539C337.898 78.8539 338.451 78.7112 338.95 78.4259C339.461 78.1287 339.865 77.7066 340.163 77.1597C340.46 76.6009 340.608 75.9529 340.608 75.2158ZM349.753 70.1688C350.942 70.1688 351.905 70.5315 352.642 71.2567C353.38 71.97 353.748 73.0044 353.748 74.3598V80.1201H352.143V74.5916C352.143 73.6167 351.899 72.8736 351.412 72.3624C350.924 71.8393 350.259 71.5777 349.414 71.5777C348.558 71.5777 347.875 71.8452 347.364 72.3802C346.864 72.9152 346.615 73.694 346.615 74.7165V80.1201H344.992V70.3472H346.615V71.7382C346.936 71.2389 347.37 70.8525 347.916 70.579C348.475 70.3056 349.088 70.1688 349.753 70.1688ZM355.793 75.2158C355.793 74.2052 355.995 73.3254 356.399 72.5764C356.803 71.8155 357.362 71.227 358.075 70.8108C358.801 70.3947 359.627 70.1867 360.554 70.1867C361.755 70.1867 362.742 70.4779 363.515 71.0605C364.299 71.6431 364.817 72.4516 365.066 73.4859H363.319C363.152 72.8915 362.825 72.4218 362.338 72.0771C361.862 71.7323 361.268 71.5599 360.554 71.5599C359.627 71.5599 358.878 71.8809 358.307 72.5229C357.737 73.153 357.451 74.0507 357.451 75.2158C357.451 76.3928 357.737 77.3024 358.307 77.9444C358.878 78.5864 359.627 78.9074 360.554 78.9074C361.268 78.9074 361.862 78.741 362.338 78.4081C362.813 78.0752 363.14 77.5996 363.319 76.9814H365.066C364.805 77.9801 364.282 78.7826 363.497 79.3889C362.712 79.9834 361.731 80.2806 360.554 80.2806C359.627 80.2806 358.801 80.0726 358.075 79.6564C357.362 79.2403 356.803 78.6518 356.399 77.8909C355.995 77.13 355.793 76.2383 355.793 75.2158ZM376.149 74.8591C376.149 75.1683 376.131 75.4952 376.095 75.84H368.284C368.343 76.803 368.67 77.558 369.265 78.1049C369.871 78.6399 370.602 78.9074 371.458 78.9074C372.16 78.9074 372.742 78.7469 373.206 78.4259C373.682 78.093 374.015 77.6531 374.205 77.1062H375.952C375.691 78.0454 375.168 78.8123 374.383 79.4068C373.598 79.9893 372.623 80.2806 371.458 80.2806C370.531 80.2806 369.699 80.0726 368.962 79.6564C368.236 79.2403 367.666 78.6518 367.25 77.8909C366.833 77.1181 366.625 76.2264 366.625 75.2158C366.625 74.2052 366.827 73.3195 367.232 72.5586C367.636 71.7977 368.201 71.2151 368.926 70.8108C369.663 70.3947 370.507 70.1867 371.458 70.1867C372.386 70.1867 373.206 70.3888 373.919 70.793C374.633 71.1972 375.18 71.756 375.56 72.4694C375.952 73.1709 376.149 73.9674 376.149 74.8591ZM374.472 74.5203C374.472 73.902 374.336 73.373 374.062 72.9331C373.789 72.4813 373.414 72.1424 372.939 71.9165C372.475 71.6788 371.958 71.5599 371.387 71.5599C370.567 71.5599 369.865 71.8214 369.283 72.3446C368.712 72.8677 368.385 73.5929 368.302 74.5203H374.472ZM295.142 97.6847V103.445C295.142 103.921 295.243 104.259 295.445 104.462C295.647 104.652 295.998 104.747 296.497 104.747H297.692V106.12H296.229C295.326 106.12 294.648 105.912 294.196 105.496C293.745 105.08 293.519 104.396 293.519 103.445V97.6847H292.253V96.3472H293.519V93.8861H295.142V96.3472H297.692V97.6847H295.142ZM308.575 100.859C308.575 101.168 308.557 101.495 308.522 101.84H300.71C300.77 102.803 301.097 103.558 301.691 104.105C302.298 104.64 303.029 104.907 303.885 104.907C304.586 104.907 305.169 104.747 305.632 104.426C306.108 104.093 306.441 103.653 306.631 103.106H308.379C308.117 104.045 307.594 104.812 306.81 105.407C306.025 105.989 305.05 106.281 303.885 106.281C302.957 106.281 302.125 106.073 301.388 105.656C300.663 105.24 300.092 104.652 299.676 103.891C299.26 103.118 299.052 102.226 299.052 101.216C299.052 100.205 299.254 99.3195 299.658 98.5586C300.062 97.7977 300.627 97.2151 301.352 96.8108C302.09 96.3947 302.934 96.1867 303.885 96.1867C304.812 96.1867 305.632 96.3888 306.346 96.793C307.059 97.1972 307.606 97.756 307.987 98.4694C308.379 99.1709 308.575 99.9674 308.575 100.859ZM306.899 100.52C306.899 99.902 306.762 99.373 306.489 98.9331C306.215 98.4813 305.841 98.1424 305.365 97.9165C304.901 97.6788 304.384 97.5599 303.813 97.5599C302.993 97.5599 302.292 97.8214 301.709 98.3446C301.138 98.8677 300.811 99.5929 300.728 100.52H306.899ZM314.177 106.281C313.428 106.281 312.756 106.156 312.162 105.906C311.567 105.645 311.098 105.288 310.753 104.836C310.408 104.372 310.218 103.843 310.182 103.249H311.859C311.906 103.736 312.132 104.135 312.536 104.444C312.952 104.753 313.493 104.907 314.159 104.907C314.777 104.907 315.265 104.771 315.622 104.497C315.978 104.224 316.157 103.879 316.157 103.463C316.157 103.035 315.966 102.72 315.586 102.518C315.205 102.304 314.617 102.096 313.82 101.893C313.095 101.703 312.501 101.513 312.037 101.323C311.585 101.121 311.193 100.829 310.86 100.449C310.539 100.057 310.378 99.5454 310.378 98.9152C310.378 98.4159 310.527 97.9582 310.824 97.542C311.121 97.1259 311.544 96.799 312.09 96.5612C312.637 96.3115 313.262 96.1867 313.963 96.1867C315.045 96.1867 315.919 96.4601 316.585 97.007C317.25 97.5539 317.607 98.3029 317.655 99.2541H316.032C315.996 98.7428 315.788 98.3327 315.408 98.0236C315.039 97.7144 314.54 97.5599 313.909 97.5599C313.327 97.5599 312.863 97.6847 312.518 97.9344C312.174 98.1841 312.001 98.511 312.001 98.9152C312.001 99.2363 312.102 99.5038 312.304 99.7178C312.518 99.9199 312.78 100.086 313.089 100.217C313.41 100.336 313.85 100.473 314.409 100.627C315.11 100.818 315.681 101.008 316.121 101.198C316.561 101.376 316.935 101.65 317.244 102.018C317.565 102.387 317.732 102.868 317.744 103.463C317.744 103.998 317.595 104.479 317.298 104.907C317.001 105.335 316.579 105.674 316.032 105.924C315.497 106.162 314.878 106.281 314.177 106.281ZM322.014 97.6847V103.445C322.014 103.921 322.115 104.259 322.317 104.462C322.52 104.652 322.87 104.747 323.37 104.747H324.565V106.12H323.102C322.199 106.12 321.521 105.912 321.069 105.496C320.617 105.08 320.391 104.396 320.391 103.445V97.6847H319.125V96.3472H320.391V93.8861H322.014V96.3472H324.565V97.6847H322.014ZM327.369 94.76C327.06 94.76 326.798 94.653 326.584 94.4389C326.37 94.2249 326.263 93.9634 326.263 93.6543C326.263 93.3451 326.37 93.0836 326.584 92.8696C326.798 92.6556 327.06 92.5486 327.369 92.5486C327.666 92.5486 327.916 92.6556 328.118 92.8696C328.332 93.0836 328.439 93.3451 328.439 93.6543C328.439 93.9634 328.332 94.2249 328.118 94.4389C327.916 94.653 327.666 94.76 327.369 94.76ZM328.154 96.3472V106.12H326.531V96.3472H328.154ZM335.681 96.1688C336.87 96.1688 337.833 96.5315 338.57 97.2567C339.307 97.97 339.676 99.0044 339.676 100.36V106.12H338.071V100.592C338.071 99.6167 337.827 98.8736 337.34 98.3624C336.852 97.8393 336.187 97.5777 335.342 97.5777C334.486 97.5777 333.803 97.8452 333.292 98.3802C332.792 98.9152 332.543 99.694 332.543 100.716V106.12H330.92V96.3472H332.543V97.7382C332.864 97.2389 333.297 96.8525 333.844 96.579C334.403 96.3056 335.015 96.1688 335.681 96.1688ZM346.357 96.1867C347.202 96.1867 347.939 96.3709 348.569 96.7395C349.211 97.1081 349.686 97.5718 349.996 98.1306V96.3472H351.636V106.334C351.636 107.226 351.446 108.016 351.066 108.706C350.685 109.407 350.138 109.954 349.425 110.347C348.723 110.739 347.903 110.935 346.964 110.935C345.68 110.935 344.61 110.632 343.754 110.026C342.898 109.419 342.392 108.593 342.238 107.547H343.843C344.021 108.141 344.39 108.617 344.949 108.974C345.507 109.342 346.179 109.526 346.964 109.526C347.856 109.526 348.581 109.247 349.14 108.688C349.71 108.129 349.996 107.345 349.996 106.334V104.283C349.675 104.854 349.199 105.329 348.569 105.71C347.939 106.09 347.202 106.281 346.357 106.281C345.49 106.281 344.699 106.067 343.986 105.639C343.284 105.211 342.731 104.61 342.327 103.837C341.923 103.065 341.721 102.185 341.721 101.198C341.721 100.199 341.923 99.3254 342.327 98.5764C342.731 97.8155 343.284 97.227 343.986 96.8108C344.699 96.3947 345.49 96.1867 346.357 96.1867ZM349.996 101.216C349.996 100.479 349.847 99.8367 349.55 99.2898C349.253 98.7428 348.848 98.3267 348.337 98.0414C347.838 97.7442 347.285 97.5955 346.678 97.5955C346.072 97.5955 345.519 97.7382 345.02 98.0236C344.521 98.3089 344.122 98.725 343.825 99.2719C343.528 99.8188 343.379 100.461 343.379 101.198C343.379 101.947 343.528 102.601 343.825 103.16C344.122 103.707 344.521 104.129 345.02 104.426C345.519 104.711 346.072 104.854 346.678 104.854C347.285 104.854 347.838 104.711 348.337 104.426C348.848 104.129 349.253 103.707 349.55 103.16C349.847 102.601 349.996 101.953 349.996 101.216Z" fill="#5F6578"/>
<path d="M147.615 271.405L74.3075 313.557L0.999851 271.405L0.999859 187.109L74.3076 144.957L147.615 187.109L147.615 271.405Z" fill="url(#paint3_linear_12046_85358)" stroke="#EDEFF7" stroke-width="2"/>
<path d="M66.6807 233.86H61.2592L60.2605 236.625H58.5485L63.0426 224.266H64.9152L69.3915 236.625H67.6794L66.6807 233.86ZM66.217 232.541L63.97 226.263L61.7229 232.541H66.217ZM72.973 223.427V236.625H71.3501V223.427H72.973ZM77.3618 223.427V236.625H75.7389V223.427H77.3618ZM88.5453 226.852L82.6601 241.226H80.9837L82.9098 236.518L78.9685 226.852H80.7697L83.8372 234.77L86.8689 226.852H88.5453Z" fill="#5F6578"/>
<path d="M229.615 414.534L156.308 456.686L83.0001 414.534L83.0001 330.238L156.308 288.086L229.615 330.238L229.615 414.534Z" fill="url(#paint4_linear_12046_85358)" stroke="#EDEFF7" stroke-width="2"/>
<path d="M122.625 352.462V353.782H119.237V364.892H117.614V353.782H114.208V352.462H122.625ZM133.54 359.631C133.54 359.94 133.522 360.267 133.486 360.612H125.675C125.734 361.575 126.061 362.33 126.656 362.877C127.262 363.412 127.993 363.679 128.849 363.679C129.551 363.679 130.134 363.519 130.597 363.198C131.073 362.865 131.406 362.425 131.596 361.878H133.344C133.082 362.817 132.559 363.584 131.774 364.179C130.99 364.761 130.015 365.053 128.849 365.053C127.922 365.053 127.09 364.845 126.353 364.428C125.627 364.012 125.057 363.424 124.641 362.663C124.225 361.89 124.017 360.998 124.017 359.988C124.017 358.977 124.219 358.091 124.623 357.331C125.027 356.57 125.592 355.987 126.317 355.583C127.054 355.167 127.898 354.959 128.849 354.959C129.777 354.959 130.597 355.161 131.311 355.565C132.024 355.969 132.571 356.528 132.951 357.241C133.344 357.943 133.54 358.739 133.54 359.631ZM131.863 359.292C131.863 358.674 131.727 358.145 131.453 357.705C131.18 357.253 130.805 356.914 130.33 356.689C129.866 356.451 129.349 356.332 128.778 356.332C127.958 356.332 127.256 356.593 126.674 357.117C126.103 357.64 125.776 358.365 125.693 359.292H131.863ZM139.142 365.053C138.393 365.053 137.721 364.928 137.126 364.678C136.532 364.417 136.062 364.06 135.718 363.608C135.373 363.144 135.183 362.615 135.147 362.021H136.823C136.871 362.508 137.097 362.907 137.501 363.216C137.917 363.525 138.458 363.679 139.124 363.679C139.742 363.679 140.23 363.543 140.586 363.269C140.943 362.996 141.121 362.651 141.121 362.235C141.121 361.807 140.931 361.492 140.551 361.29C140.17 361.076 139.582 360.868 138.785 360.665C138.06 360.475 137.465 360.285 137.002 360.095C136.55 359.893 136.157 359.601 135.825 359.221C135.504 358.829 135.343 358.317 135.343 357.687C135.343 357.188 135.492 356.73 135.789 356.314C136.086 355.898 136.508 355.571 137.055 355.333C137.602 355.083 138.226 354.959 138.928 354.959C140.01 354.959 140.883 355.232 141.549 355.779C142.215 356.326 142.572 357.075 142.619 358.026H140.996C140.961 357.515 140.753 357.105 140.372 356.796C140.004 356.486 139.504 356.332 138.874 356.332C138.292 356.332 137.828 356.457 137.483 356.706C137.138 356.956 136.966 357.283 136.966 357.687C136.966 358.008 137.067 358.276 137.269 358.49C137.483 358.692 137.745 358.858 138.054 358.989C138.375 359.108 138.815 359.245 139.374 359.399C140.075 359.589 140.646 359.78 141.086 359.97C141.525 360.148 141.9 360.422 142.209 360.79C142.53 361.159 142.697 361.64 142.708 362.235C142.708 362.77 142.56 363.251 142.263 363.679C141.965 364.107 141.543 364.446 140.996 364.696C140.461 364.934 139.843 365.053 139.142 365.053ZM146.979 356.457V362.217C146.979 362.693 147.08 363.031 147.282 363.234C147.484 363.424 147.835 363.519 148.334 363.519H149.529V364.892H148.067C147.163 364.892 146.486 364.684 146.034 364.268C145.582 363.852 145.356 363.168 145.356 362.217V356.457H144.09V355.119H145.356V352.658H146.979V355.119H149.529V356.457H146.979ZM155.644 359.97C155.644 358.971 155.846 358.097 156.25 357.348C156.654 356.587 157.207 355.999 157.909 355.583C158.622 355.167 159.419 354.959 160.298 354.959C161.059 354.959 161.767 355.137 162.421 355.494C163.074 355.838 163.574 356.296 163.919 356.867V351.695H165.559V364.892H163.919V363.055C163.598 363.638 163.122 364.119 162.492 364.5C161.862 364.868 161.125 365.053 160.281 365.053C159.413 365.053 158.622 364.839 157.909 364.411C157.207 363.983 156.654 363.382 156.25 362.609C155.846 361.837 155.644 360.957 155.644 359.97ZM163.919 359.988C163.919 359.251 163.77 358.609 163.473 358.062C163.176 357.515 162.771 357.099 162.26 356.813C161.761 356.516 161.208 356.368 160.602 356.368C159.995 356.368 159.442 356.51 158.943 356.796C158.444 357.081 158.045 357.497 157.748 358.044C157.451 358.591 157.302 359.233 157.302 359.97C157.302 360.719 157.451 361.373 157.748 361.932C158.045 362.479 158.444 362.901 158.943 363.198C159.442 363.483 159.995 363.626 160.602 363.626C161.208 363.626 161.761 363.483 162.26 363.198C162.771 362.901 163.176 362.479 163.473 361.932C163.77 361.373 163.919 360.725 163.919 359.988ZM167.695 359.97C167.695 358.971 167.898 358.097 168.302 357.348C168.706 356.587 169.259 355.999 169.96 355.583C170.674 355.167 171.464 354.959 172.332 354.959C173.188 354.959 173.931 355.143 174.562 355.511C175.192 355.88 175.661 356.344 175.97 356.903V355.119H177.611V364.892H175.97V363.073C175.649 363.644 175.168 364.119 174.526 364.5C173.896 364.868 173.159 365.053 172.314 365.053C171.447 365.053 170.662 364.839 169.96 364.411C169.259 363.983 168.706 363.382 168.302 362.609C167.898 361.837 167.695 360.957 167.695 359.97ZM175.97 359.988C175.97 359.251 175.822 358.609 175.525 358.062C175.227 357.515 174.823 357.099 174.312 356.813C173.813 356.516 173.26 356.368 172.653 356.368C172.047 356.368 171.494 356.51 170.995 356.796C170.495 357.081 170.097 357.497 169.8 358.044C169.503 358.591 169.354 359.233 169.354 359.97C169.354 360.719 169.503 361.373 169.8 361.932C170.097 362.479 170.495 362.901 170.995 363.198C171.494 363.483 172.047 363.626 172.653 363.626C173.26 363.626 173.813 363.483 174.312 363.198C174.823 362.901 175.227 362.479 175.525 361.932C175.822 361.373 175.97 360.725 175.97 359.988ZM182.333 356.457V362.217C182.333 362.693 182.434 363.031 182.636 363.234C182.838 363.424 183.189 363.519 183.689 363.519H184.883V364.892H183.421C182.517 364.892 181.84 364.684 181.388 364.268C180.936 363.852 180.71 363.168 180.71 362.217V356.457H179.444V355.119H180.71V352.658H182.333V355.119H184.883V356.457H182.333ZM186.243 359.97C186.243 358.971 186.446 358.097 186.85 357.348C187.254 356.587 187.807 355.999 188.508 355.583C189.222 355.167 190.012 354.959 190.88 354.959C191.736 354.959 192.479 355.143 193.109 355.511C193.74 355.88 194.209 356.344 194.518 356.903V355.119H196.159V364.892H194.518V363.073C194.197 363.644 193.716 364.119 193.074 364.5C192.444 364.868 191.706 365.053 190.862 365.053C189.994 365.053 189.21 364.839 188.508 364.411C187.807 363.983 187.254 363.382 186.85 362.609C186.446 361.837 186.243 360.957 186.243 359.97ZM194.518 359.988C194.518 359.251 194.37 358.609 194.072 358.062C193.775 357.515 193.371 357.099 192.86 356.813C192.36 356.516 191.808 356.368 191.201 356.368C190.595 356.368 190.042 356.51 189.543 356.796C189.043 357.081 188.645 357.497 188.348 358.044C188.051 358.591 187.902 359.233 187.902 359.97C187.902 360.719 188.051 361.373 188.348 361.932C188.645 362.479 189.043 362.901 189.543 363.198C190.042 363.483 190.595 363.626 191.201 363.626C191.808 363.626 192.36 363.483 192.86 363.198C193.371 362.901 193.775 362.479 194.072 361.932C194.37 361.373 194.518 360.725 194.518 359.988ZM107.021 380.941C107.782 380.941 108.46 381.101 109.054 381.422C109.648 381.731 110.118 382.201 110.463 382.831C110.808 383.461 110.98 384.228 110.98 385.132V390.892H109.375V385.364C109.375 384.389 109.131 383.646 108.644 383.134C108.168 382.611 107.52 382.35 106.7 382.35C105.856 382.35 105.184 382.623 104.685 383.17C104.185 383.705 103.936 384.484 103.936 385.506V390.892H102.331V385.364C102.331 384.389 102.087 383.646 101.599 383.134C101.124 382.611 100.476 382.35 99.6555 382.35C98.8114 382.35 98.1397 382.623 97.6403 383.17C97.141 383.705 96.8913 384.484 96.8913 385.506V390.892H95.2684V381.119H96.8913V382.528C97.2123 382.017 97.6403 381.624 98.1753 381.351C98.7222 381.078 99.3226 380.941 99.9765 380.941C100.797 380.941 101.522 381.125 102.152 381.494C102.782 381.862 103.252 382.403 103.561 383.117C103.835 382.427 104.286 381.892 104.917 381.511C105.547 381.131 106.248 380.941 107.021 380.941ZM113.036 385.97C113.036 384.971 113.238 384.097 113.642 383.348C114.046 382.587 114.599 381.999 115.301 381.583C116.014 381.167 116.805 380.959 117.673 380.959C118.529 380.959 119.272 381.143 119.902 381.511C120.532 381.88 121.002 382.344 121.311 382.903V381.119H122.951V390.892H121.311V389.073C120.99 389.644 120.508 390.119 119.866 390.5C119.236 390.868 118.499 391.053 117.655 391.053C116.787 391.053 116.002 390.839 115.301 390.411C114.599 389.983 114.046 389.382 113.642 388.609C113.238 387.837 113.036 386.957 113.036 385.97ZM121.311 385.988C121.311 385.251 121.162 384.609 120.865 384.062C120.568 383.515 120.163 383.099 119.652 382.813C119.153 382.516 118.6 382.368 117.994 382.368C117.387 382.368 116.834 382.51 116.335 382.796C115.836 383.081 115.437 383.497 115.14 384.044C114.843 384.591 114.694 385.233 114.694 385.97C114.694 386.719 114.843 387.373 115.14 387.932C115.437 388.479 115.836 388.901 116.335 389.198C116.834 389.483 117.387 389.626 117.994 389.626C118.6 389.626 119.153 389.483 119.652 389.198C120.163 388.901 120.568 388.479 120.865 387.932C121.162 387.373 121.311 386.725 121.311 385.988ZM130.456 380.941C131.644 380.941 132.608 381.303 133.345 382.029C134.082 382.742 134.45 383.776 134.45 385.132V390.892H132.845V385.364C132.845 384.389 132.602 383.646 132.114 383.134C131.627 382.611 130.961 382.35 130.117 382.35C129.261 382.35 128.577 382.617 128.066 383.152C127.566 383.687 127.317 384.466 127.317 385.488V390.892H125.694V381.119H127.317V382.51C127.638 382.011 128.072 381.624 128.619 381.351C129.177 381.078 129.79 380.941 130.456 380.941ZM146.018 385.631C146.018 385.94 146 386.267 145.965 386.612H138.154C138.213 387.575 138.54 388.33 139.134 388.877C139.741 389.412 140.472 389.679 141.328 389.679C142.029 389.679 142.612 389.519 143.076 389.198C143.551 388.865 143.884 388.425 144.074 387.878H145.822C145.561 388.817 145.037 389.584 144.253 390.179C143.468 390.761 142.493 391.053 141.328 391.053C140.401 391.053 139.568 390.845 138.831 390.428C138.106 390.012 137.535 389.424 137.119 388.663C136.703 387.89 136.495 386.998 136.495 385.988C136.495 384.977 136.697 384.091 137.101 383.331C137.506 382.57 138.07 381.987 138.796 381.583C139.533 381.167 140.377 380.959 141.328 380.959C142.255 380.959 143.076 381.161 143.789 381.565C144.502 381.969 145.049 382.528 145.43 383.241C145.822 383.943 146.018 384.739 146.018 385.631ZM144.342 385.292C144.342 384.674 144.205 384.145 143.932 383.705C143.658 383.253 143.284 382.914 142.808 382.689C142.344 382.451 141.827 382.332 141.257 382.332C140.436 382.332 139.735 382.593 139.152 383.117C138.582 383.64 138.255 384.365 138.171 385.292H144.342ZM152.191 380.959C153.035 380.959 153.772 381.143 154.402 381.511C155.044 381.88 155.52 382.344 155.829 382.903V381.119H157.47V391.106C157.47 391.998 157.279 392.788 156.899 393.478C156.519 394.179 155.972 394.726 155.258 395.119C154.557 395.511 153.736 395.707 152.797 395.707C151.513 395.707 150.443 395.404 149.587 394.798C148.731 394.191 148.226 393.365 148.071 392.319H149.676C149.855 392.913 150.223 393.389 150.782 393.746C151.341 394.114 152.013 394.298 152.797 394.298C153.689 394.298 154.414 394.019 154.973 393.46C155.544 392.901 155.829 392.117 155.829 391.106V389.055C155.508 389.626 155.032 390.101 154.402 390.482C153.772 390.862 153.035 391.053 152.191 391.053C151.323 391.053 150.532 390.839 149.819 390.411C149.117 389.983 148.565 389.382 148.16 388.609C147.756 387.837 147.554 386.957 147.554 385.97C147.554 384.971 147.756 384.097 148.16 383.348C148.565 382.587 149.117 381.999 149.819 381.583C150.532 381.167 151.323 380.959 152.191 380.959ZM155.829 385.988C155.829 385.251 155.68 384.609 155.383 384.062C155.086 383.515 154.682 383.099 154.17 382.813C153.671 382.516 153.118 382.368 152.512 382.368C151.906 382.368 151.353 382.51 150.853 382.796C150.354 383.081 149.956 383.497 149.658 384.044C149.361 384.591 149.213 385.233 149.213 385.97C149.213 386.719 149.361 387.373 149.658 387.932C149.956 388.479 150.354 388.901 150.853 389.198C151.353 389.483 151.906 389.626 152.512 389.626C153.118 389.626 153.671 389.483 154.17 389.198C154.682 388.901 155.086 388.479 155.383 387.932C155.68 387.373 155.829 386.725 155.829 385.988ZM169.129 385.631C169.129 385.94 169.111 386.267 169.076 386.612H161.264C161.324 387.575 161.651 388.33 162.245 388.877C162.852 389.412 163.583 389.679 164.439 389.679C165.14 389.679 165.723 389.519 166.187 389.198C166.662 388.865 166.995 388.425 167.185 387.878H168.933C168.671 388.817 168.148 389.584 167.364 390.179C166.579 390.761 165.604 391.053 164.439 391.053C163.511 391.053 162.679 390.845 161.942 390.428C161.217 390.012 160.646 389.424 160.23 388.663C159.814 387.89 159.606 386.998 159.606 385.988C159.606 384.977 159.808 384.091 160.212 383.331C160.616 382.57 161.181 381.987 161.906 381.583C162.644 381.167 163.488 380.959 164.439 380.959C165.366 380.959 166.187 381.161 166.9 381.565C167.613 381.969 168.16 382.528 168.541 383.241C168.933 383.943 169.129 384.739 169.129 385.631ZM167.453 385.292C167.453 384.674 167.316 384.145 167.043 383.705C166.769 383.253 166.395 382.914 165.919 382.689C165.455 382.451 164.938 382.332 164.367 382.332C163.547 382.332 162.846 382.593 162.263 383.117C161.692 383.64 161.365 384.365 161.282 385.292H167.453ZM183.024 380.941C183.785 380.941 184.462 381.101 185.057 381.422C185.651 381.731 186.121 382.201 186.466 382.831C186.81 383.461 186.983 384.228 186.983 385.132V390.892H185.378V385.364C185.378 384.389 185.134 383.646 184.647 383.134C184.171 382.611 183.523 382.35 182.703 382.35C181.859 382.35 181.187 382.623 180.688 383.17C180.188 383.705 179.938 384.484 179.938 385.506V390.892H178.333V385.364C178.333 384.389 178.09 383.646 177.602 383.134C177.127 382.611 176.479 382.35 175.658 382.35C174.814 382.35 174.142 382.623 173.643 383.17C173.144 383.705 172.894 384.484 172.894 385.506V390.892H171.271V381.119H172.894V382.528C173.215 382.017 173.643 381.624 174.178 381.351C174.725 381.078 175.325 380.941 175.979 380.941C176.8 380.941 177.525 381.125 178.155 381.494C178.785 381.862 179.255 382.403 179.564 383.117C179.837 382.427 180.289 381.892 180.919 381.511C181.549 381.131 182.251 380.941 183.024 380.941ZM198.562 385.631C198.562 385.94 198.544 386.267 198.508 386.612H190.697C190.757 387.575 191.084 388.33 191.678 388.877C192.284 389.412 193.016 389.679 193.872 389.679C194.573 389.679 195.156 389.519 195.619 389.198C196.095 388.865 196.428 388.425 196.618 387.878H198.366C198.104 388.817 197.581 389.584 196.796 390.179C196.012 390.761 195.037 391.053 193.872 391.053C192.944 391.053 192.112 390.845 191.375 390.428C190.65 390.012 190.079 389.424 189.663 388.663C189.247 387.89 189.039 386.998 189.039 385.988C189.039 384.977 189.241 384.091 189.645 383.331C190.049 382.57 190.614 381.987 191.339 381.583C192.076 381.167 192.92 380.959 193.872 380.959C194.799 380.959 195.619 381.161 196.333 381.565C197.046 381.969 197.593 382.528 197.973 383.241C198.366 383.943 198.562 384.739 198.562 385.631ZM196.886 385.292C196.886 384.674 196.749 384.145 196.475 383.705C196.202 383.253 195.827 382.914 195.352 382.689C194.888 382.451 194.371 382.332 193.8 382.332C192.98 382.332 192.278 382.593 191.696 383.117C191.125 383.64 190.798 384.365 190.715 385.292H196.886ZM205.466 380.941C206.655 380.941 207.618 381.303 208.355 382.029C209.092 382.742 209.46 383.776 209.46 385.132V390.892H207.855V385.364C207.855 384.389 207.612 383.646 207.124 383.134C206.637 382.611 205.971 382.35 205.127 382.35C204.271 382.35 203.587 382.617 203.076 383.152C202.577 383.687 202.327 384.466 202.327 385.488V390.892H200.704V381.119H202.327V382.51C202.648 382.011 203.082 381.624 203.629 381.351C204.188 381.078 204.8 380.941 205.466 380.941ZM214.091 382.457V388.217C214.091 388.693 214.192 389.031 214.394 389.234C214.596 389.424 214.947 389.519 215.446 389.519H216.641V390.892H215.179C214.275 390.892 213.598 390.684 213.146 390.268C212.694 389.852 212.468 389.168 212.468 388.217V382.457H211.202V381.119H212.468V378.658H214.091V381.119H216.641V382.457H214.091Z" fill="#5F6578"/>
<path d="M396.615 414.602L323.308 456.754L250 414.602L250 330.305L323.308 288.154L396.615 330.305L396.615 414.602Z" fill="url(#paint5_linear_12046_85358)" stroke="#EDEFF7" stroke-width="2"/>
<path d="M306.69 352.53C308.045 352.53 309.216 352.785 310.203 353.297C311.202 353.796 311.962 354.515 312.486 355.455C313.021 356.394 313.288 357.499 313.288 358.772C313.288 360.044 313.021 361.149 312.486 362.089C311.962 363.016 311.202 363.729 310.203 364.229C309.216 364.716 308.045 364.96 306.69 364.96H302.82V352.53H306.69ZM306.69 363.622C308.295 363.622 309.519 363.2 310.363 362.356C311.208 361.5 311.63 360.305 311.63 358.772C311.63 357.226 311.202 356.019 310.346 355.151C309.501 354.283 308.283 353.849 306.69 353.849H304.443V363.622H306.69ZM314.822 360.038C314.822 359.039 315.025 358.165 315.429 357.416C315.833 356.655 316.386 356.067 317.087 355.651C317.801 355.235 318.591 355.027 319.459 355.027C320.315 355.027 321.058 355.211 321.688 355.579C322.319 355.948 322.788 356.412 323.097 356.97V355.187H324.738V364.96H323.097V363.141C322.776 363.712 322.295 364.187 321.653 364.568C321.023 364.936 320.285 365.12 319.441 365.12C318.573 365.12 317.789 364.906 317.087 364.478C316.386 364.05 315.833 363.45 315.429 362.677C315.025 361.904 314.822 361.025 314.822 360.038ZM323.097 360.056C323.097 359.319 322.949 358.677 322.651 358.13C322.354 357.583 321.95 357.167 321.439 356.881C320.939 356.584 320.387 356.435 319.78 356.435C319.174 356.435 318.621 356.578 318.122 356.863C317.622 357.149 317.224 357.565 316.927 358.112C316.63 358.659 316.481 359.301 316.481 360.038C316.481 360.787 316.63 361.441 316.927 362C317.224 362.546 317.622 362.969 318.122 363.266C318.621 363.551 319.174 363.694 319.78 363.694C320.387 363.694 320.939 363.551 321.439 363.266C321.95 362.969 322.354 362.546 322.651 362C322.949 361.441 323.097 360.793 323.097 360.056ZM329.46 356.525V362.285C329.46 362.76 329.561 363.099 329.763 363.301C329.965 363.492 330.316 363.587 330.815 363.587H332.01V364.96H330.548C329.644 364.96 328.967 364.752 328.515 364.336C328.063 363.92 327.837 363.236 327.837 362.285V356.525H326.571V355.187H327.837V352.726H329.46V355.187H332.01V356.525H329.46ZM333.37 360.038C333.37 359.039 333.572 358.165 333.977 357.416C334.381 356.655 334.934 356.067 335.635 355.651C336.349 355.235 337.139 355.027 338.007 355.027C338.863 355.027 339.606 355.211 340.236 355.579C340.866 355.948 341.336 356.412 341.645 356.97V355.187H343.286V364.96H341.645V363.141C341.324 363.712 340.843 364.187 340.201 364.568C339.571 364.936 338.833 365.12 337.989 365.12C337.121 365.12 336.337 364.906 335.635 364.478C334.934 364.05 334.381 363.45 333.977 362.677C333.572 361.904 333.37 361.025 333.37 360.038ZM341.645 360.056C341.645 359.319 341.497 358.677 341.199 358.13C340.902 357.583 340.498 357.167 339.987 356.881C339.487 356.584 338.934 356.435 338.328 356.435C337.722 356.435 337.169 356.578 336.67 356.863C336.17 357.149 335.772 357.565 335.475 358.112C335.177 358.659 335.029 359.301 335.029 360.038C335.029 360.787 335.177 361.441 335.475 362C335.772 362.546 336.17 362.969 336.67 363.266C337.169 363.551 337.722 363.694 338.328 363.694C338.934 363.694 339.487 363.551 339.987 363.266C340.498 362.969 340.902 362.546 341.199 362C341.497 361.441 341.645 360.793 341.645 360.056ZM293.401 386.038C293.401 385.039 293.603 384.165 294.007 383.416C294.411 382.655 294.964 382.067 295.666 381.651C296.379 381.235 297.176 381.027 298.056 381.027C298.9 381.027 299.637 381.217 300.267 381.597C300.909 381.966 301.379 382.423 301.676 382.97V381.187H303.317V395.597H301.676V389.159C301.367 389.706 300.891 390.169 300.249 390.55C299.607 390.93 298.858 391.12 298.002 391.12C297.146 391.12 296.367 390.906 295.666 390.478C294.964 390.05 294.411 389.45 294.007 388.677C293.603 387.904 293.401 387.025 293.401 386.038ZM301.676 386.056C301.676 385.319 301.527 384.677 301.23 384.13C300.933 383.583 300.528 383.167 300.017 382.881C299.518 382.584 298.965 382.435 298.359 382.435C297.752 382.435 297.199 382.578 296.7 382.863C296.201 383.149 295.803 383.565 295.505 384.112C295.208 384.659 295.059 385.301 295.059 386.038C295.059 386.787 295.208 387.441 295.505 388C295.803 388.546 296.201 388.969 296.7 389.266C297.199 389.551 297.752 389.694 298.359 389.694C298.965 389.694 299.518 389.551 300.017 389.266C300.528 388.969 300.933 388.546 301.23 388C301.527 387.441 301.676 386.793 301.676 386.056ZM314.726 381.187V390.96H313.103V389.515C312.794 390.015 312.36 390.407 311.802 390.692C311.255 390.966 310.648 391.103 309.982 391.103C309.222 391.103 308.538 390.948 307.932 390.639C307.325 390.318 306.844 389.842 306.487 389.212C306.142 388.582 305.97 387.815 305.97 386.912V381.187H307.575V386.698C307.575 387.661 307.819 388.404 308.306 388.927C308.794 389.438 309.459 389.694 310.303 389.694C311.171 389.694 311.855 389.426 312.354 388.891C312.854 388.356 313.103 387.577 313.103 386.555V381.187H314.726ZM316.86 386.038C316.86 385.039 317.062 384.165 317.466 383.416C317.871 382.655 318.423 382.067 319.125 381.651C319.838 381.235 320.629 381.027 321.497 381.027C322.353 381.027 323.096 381.211 323.726 381.579C324.356 381.948 324.826 382.412 325.135 382.97V381.187H326.776V390.96H325.135V389.141C324.814 389.712 324.332 390.187 323.69 390.568C323.06 390.936 322.323 391.12 321.479 391.12C320.611 391.12 319.826 390.906 319.125 390.478C318.423 390.05 317.871 389.45 317.466 388.677C317.062 387.904 316.86 387.025 316.86 386.038ZM325.135 386.056C325.135 385.319 324.986 384.677 324.689 384.13C324.392 383.583 323.988 383.167 323.476 382.881C322.977 382.584 322.424 382.435 321.818 382.435C321.212 382.435 320.659 382.578 320.159 382.863C319.66 383.149 319.262 383.565 318.964 384.112C318.667 384.659 318.519 385.301 318.519 386.038C318.519 386.787 318.667 387.441 318.964 388C319.262 388.546 319.66 388.969 320.159 389.266C320.659 389.551 321.212 389.694 321.818 389.694C322.424 389.694 322.977 389.551 323.476 389.266C323.988 388.969 324.392 388.546 324.689 388C324.986 387.441 325.135 386.793 325.135 386.056ZM331.141 377.763V390.96H329.518V377.763H331.141ZM334.745 379.6C334.436 379.6 334.174 379.493 333.96 379.279C333.746 379.065 333.639 378.803 333.639 378.494C333.639 378.185 333.746 377.923 333.96 377.709C334.174 377.495 334.436 377.388 334.745 377.388C335.042 377.388 335.292 377.495 335.494 377.709C335.708 377.923 335.815 378.185 335.815 378.494C335.815 378.803 335.708 379.065 335.494 379.279C335.292 379.493 335.042 379.6 334.745 379.6ZM335.53 381.187V390.96H333.907V381.187H335.53ZM340.275 382.525V388.285C340.275 388.76 340.376 389.099 340.579 389.301C340.781 389.492 341.131 389.587 341.631 389.587H342.826V390.96H341.363C340.46 390.96 339.782 390.752 339.33 390.336C338.878 389.92 338.652 389.236 338.652 388.285V382.525H337.386V381.187H338.652V378.726H340.275V381.187H342.826V382.525H340.275ZM353.209 381.187L347.324 395.561H345.648L347.574 390.853L343.633 381.187H345.434L348.501 389.105L351.533 381.187H353.209Z" fill="#5F6578"/>
<path d="M479.615 272.602L406.308 314.754L333 272.602L333 188.305L406.308 146.154L479.615 188.305L479.615 272.602Z" fill="url(#paint6_linear_12046_85358)" stroke="#EDEFF7" stroke-width="2"/>
<path d="M396.487 210.53V211.849H393.098V222.96H391.475V211.849H388.069V210.53H396.487ZM407.401 217.699C407.401 218.008 407.383 218.335 407.348 218.68H399.536C399.596 219.643 399.923 220.398 400.517 220.945C401.124 221.48 401.855 221.747 402.711 221.747C403.412 221.747 403.995 221.587 404.459 221.266C404.934 220.933 405.267 220.493 405.457 219.946H407.205C406.943 220.885 406.42 221.652 405.636 222.247C404.851 222.829 403.876 223.12 402.711 223.12C401.783 223.12 400.951 222.912 400.214 222.496C399.489 222.08 398.918 221.492 398.502 220.731C398.086 219.958 397.878 219.066 397.878 218.056C397.878 217.045 398.08 216.159 398.484 215.398C398.888 214.637 399.453 214.055 400.178 213.651C400.916 213.235 401.76 213.027 402.711 213.027C403.638 213.027 404.459 213.229 405.172 213.633C405.885 214.037 406.432 214.596 406.813 215.309C407.205 216.011 407.401 216.807 407.401 217.699ZM405.725 217.36C405.725 216.742 405.588 216.213 405.315 215.773C405.041 215.321 404.667 214.982 404.191 214.756C403.727 214.519 403.21 214.4 402.639 214.4C401.819 214.4 401.118 214.661 400.535 215.184C399.964 215.708 399.637 216.433 399.554 217.36H405.725ZM413.003 223.12C412.254 223.12 411.582 222.996 410.988 222.746C410.393 222.484 409.924 222.128 409.579 221.676C409.234 221.212 409.044 220.683 409.008 220.089H410.685C410.732 220.576 410.958 220.974 411.362 221.284C411.778 221.593 412.319 221.747 412.985 221.747C413.603 221.747 414.091 221.611 414.448 221.337C414.804 221.064 414.983 220.719 414.983 220.303C414.983 219.875 414.792 219.56 414.412 219.358C414.031 219.144 413.443 218.935 412.646 218.733C411.921 218.543 411.327 218.353 410.863 218.163C410.411 217.961 410.019 217.669 409.686 217.289C409.365 216.896 409.204 216.385 409.204 215.755C409.204 215.256 409.353 214.798 409.65 214.382C409.948 213.966 410.37 213.639 410.916 213.401C411.463 213.151 412.088 213.027 412.789 213.027C413.871 213.027 414.745 213.3 415.411 213.847C416.076 214.394 416.433 215.143 416.481 216.094H414.858C414.822 215.583 414.614 215.173 414.234 214.863C413.865 214.554 413.366 214.4 412.736 214.4C412.153 214.4 411.689 214.525 411.344 214.774C411 215.024 410.827 215.351 410.827 215.755C410.827 216.076 410.928 216.344 411.13 216.558C411.344 216.76 411.606 216.926 411.915 217.057C412.236 217.176 412.676 217.313 413.235 217.467C413.936 217.657 414.507 217.848 414.947 218.038C415.387 218.216 415.761 218.49 416.07 218.858C416.391 219.227 416.558 219.708 416.57 220.303C416.57 220.838 416.421 221.319 416.124 221.747C415.827 222.175 415.405 222.514 414.858 222.764C414.323 223.002 413.705 223.12 413.003 223.12ZM420.84 214.525V220.285C420.84 220.76 420.941 221.099 421.144 221.301C421.346 221.492 421.696 221.587 422.196 221.587H423.391V222.96H421.928C421.025 222.96 420.347 222.752 419.895 222.336C419.443 221.92 419.217 221.236 419.217 220.285V214.525H417.951V213.187H419.217V210.726H420.84V213.187H423.391V214.525H420.84ZM353.746 244.038C353.746 243.039 353.948 242.165 354.352 241.416C354.757 240.655 355.309 240.067 356.011 239.651C356.724 239.235 357.515 239.027 358.383 239.027C359.239 239.027 359.982 239.211 360.612 239.579C361.242 239.948 361.712 240.412 362.021 240.97V239.187H363.662V248.96H362.021V247.141C361.7 247.712 361.218 248.187 360.576 248.568C359.946 248.936 359.209 249.12 358.365 249.12C357.497 249.12 356.712 248.906 356.011 248.478C355.309 248.05 354.757 247.45 354.352 246.677C353.948 245.904 353.746 245.025 353.746 244.038ZM362.021 244.056C362.021 243.319 361.872 242.677 361.575 242.13C361.278 241.583 360.874 241.167 360.362 240.881C359.863 240.584 359.31 240.435 358.704 240.435C358.098 240.435 357.545 240.578 357.045 240.863C356.546 241.149 356.148 241.565 355.85 242.112C355.553 242.659 355.405 243.301 355.405 244.038C355.405 244.787 355.553 245.441 355.85 246C356.148 246.546 356.546 246.969 357.045 247.266C357.545 247.551 358.098 247.694 358.704 247.694C359.31 247.694 359.863 247.551 360.362 247.266C360.874 246.969 361.278 246.546 361.575 246C361.872 245.441 362.021 244.793 362.021 244.056ZM375.071 239.187V248.96H373.449V247.515C373.139 248.015 372.705 248.407 372.147 248.692C371.6 248.966 370.993 249.103 370.328 249.103C369.567 249.103 368.883 248.948 368.277 248.639C367.67 248.318 367.189 247.842 366.832 247.212C366.487 246.582 366.315 245.815 366.315 244.912V239.187H367.92V244.698C367.92 245.661 368.164 246.404 368.651 246.927C369.139 247.438 369.805 247.694 370.649 247.694C371.517 247.694 372.2 247.426 372.7 246.891C373.199 246.356 373.449 245.577 373.449 244.555V239.187H375.071ZM379.791 240.525V246.285C379.791 246.76 379.892 247.099 380.094 247.301C380.296 247.492 380.647 247.587 381.147 247.587H382.341V248.96H380.879C379.975 248.96 379.298 248.752 378.846 248.336C378.394 247.92 378.168 247.236 378.168 246.285V240.525H376.902V239.187H378.168V236.726H379.791V239.187H382.341V240.525H379.791ZM388.57 249.12C387.655 249.12 386.822 248.912 386.073 248.496C385.336 248.08 384.754 247.492 384.326 246.731C383.909 245.958 383.701 245.066 383.701 244.056C383.701 243.057 383.915 242.177 384.343 241.416C384.783 240.643 385.378 240.055 386.127 239.651C386.876 239.235 387.714 239.027 388.641 239.027C389.569 239.027 390.407 239.235 391.156 239.651C391.905 240.055 392.493 240.637 392.921 241.398C393.361 242.159 393.581 243.045 393.581 244.056C393.581 245.066 393.355 245.958 392.904 246.731C392.464 247.492 391.863 248.08 391.102 248.496C390.341 248.912 389.497 249.12 388.57 249.12ZM388.57 247.694C389.153 247.694 389.699 247.557 390.211 247.284C390.722 247.01 391.132 246.6 391.441 246.053C391.762 245.506 391.923 244.84 391.923 244.056C391.923 243.271 391.768 242.605 391.459 242.058C391.15 241.511 390.746 241.107 390.246 240.846C389.747 240.572 389.206 240.435 388.623 240.435C388.029 240.435 387.482 240.572 386.983 240.846C386.495 241.107 386.103 241.511 385.806 242.058C385.509 242.605 385.36 243.271 385.36 244.056C385.36 244.852 385.503 245.524 385.788 246.071C386.085 246.618 386.477 247.028 386.965 247.301C387.452 247.563 387.987 247.694 388.57 247.694ZM407.468 239.009C408.228 239.009 408.906 239.169 409.501 239.49C410.095 239.799 410.565 240.269 410.91 240.899C411.254 241.529 411.427 242.296 411.427 243.2V248.96H409.822V243.431C409.822 242.457 409.578 241.713 409.09 241.202C408.615 240.679 407.967 240.418 407.147 240.418C406.302 240.418 405.631 240.691 405.131 241.238C404.632 241.773 404.382 242.552 404.382 243.574V248.96H402.777V243.431C402.777 242.457 402.534 241.713 402.046 241.202C401.571 240.679 400.923 240.418 400.102 240.418C399.258 240.418 398.586 240.691 398.087 241.238C397.588 241.773 397.338 242.552 397.338 243.574V248.96H395.715V239.187H397.338V240.596C397.659 240.085 398.087 239.692 398.622 239.419C399.169 239.145 399.769 239.009 400.423 239.009C401.244 239.009 401.969 239.193 402.599 239.562C403.229 239.93 403.699 240.471 404.008 241.184C404.281 240.495 404.733 239.96 405.363 239.579C405.993 239.199 406.695 239.009 407.468 239.009ZM413.482 244.038C413.482 243.039 413.685 242.165 414.089 241.416C414.493 240.655 415.046 240.067 415.747 239.651C416.461 239.235 417.251 239.027 418.119 239.027C418.975 239.027 419.718 239.211 420.349 239.579C420.979 239.948 421.448 240.412 421.757 240.97V239.187H423.398V248.96H421.757V247.141C421.436 247.712 420.955 248.187 420.313 248.568C419.683 248.936 418.946 249.12 418.101 249.12C417.234 249.12 416.449 248.906 415.747 248.478C415.046 248.05 414.493 247.45 414.089 246.677C413.685 245.904 413.482 245.025 413.482 244.038ZM421.757 244.056C421.757 243.319 421.609 242.677 421.312 242.13C421.014 241.583 420.61 241.167 420.099 240.881C419.599 240.584 419.047 240.435 418.44 240.435C417.834 240.435 417.281 240.578 416.782 240.863C416.282 241.149 415.884 241.565 415.587 242.112C415.29 242.659 415.141 243.301 415.141 244.038C415.141 244.787 415.29 245.441 415.587 246C415.884 246.546 416.282 246.969 416.782 247.266C417.281 247.551 417.834 247.694 418.44 247.694C419.047 247.694 419.599 247.551 420.099 247.266C420.61 246.969 421.014 246.546 421.312 246C421.609 245.441 421.757 244.793 421.757 244.056ZM428.12 240.525V246.285C428.12 246.76 428.221 247.099 428.423 247.301C428.625 247.492 428.976 247.587 429.476 247.587H430.67V248.96H429.208C428.304 248.96 427.627 248.752 427.175 248.336C426.723 247.92 426.497 247.236 426.497 246.285V240.525H425.231V239.187H426.497V236.726H428.12V239.187H430.67V240.525H428.12ZM433.475 237.6C433.166 237.6 432.904 237.493 432.69 237.279C432.476 237.065 432.369 236.803 432.369 236.494C432.369 236.185 432.476 235.923 432.69 235.709C432.904 235.495 433.166 235.388 433.475 235.388C433.772 235.388 434.022 235.495 434.224 235.709C434.438 235.923 434.545 236.185 434.545 236.494C434.545 236.803 434.438 237.065 434.224 237.279C434.022 237.493 433.772 237.6 433.475 237.6ZM434.26 239.187V248.96H432.637V239.187H434.26ZM441.288 249.12C440.372 249.12 439.54 248.912 438.791 248.496C438.054 248.08 437.471 247.492 437.043 246.731C436.627 245.958 436.419 245.066 436.419 244.056C436.419 243.057 436.633 242.177 437.061 241.416C437.501 240.643 438.096 240.055 438.845 239.651C439.594 239.235 440.432 239.027 441.359 239.027C442.287 239.027 443.125 239.235 443.874 239.651C444.623 240.055 445.211 240.637 445.639 241.398C446.079 242.159 446.299 243.045 446.299 244.056C446.299 245.066 446.073 245.958 445.621 246.731C445.182 247.492 444.581 248.08 443.82 248.496C443.059 248.912 442.215 249.12 441.288 249.12ZM441.288 247.694C441.87 247.694 442.417 247.557 442.929 247.284C443.44 247.01 443.85 246.6 444.159 246.053C444.48 245.506 444.641 244.84 444.641 244.056C444.641 243.271 444.486 242.605 444.177 242.058C443.868 241.511 443.464 241.107 442.964 240.846C442.465 240.572 441.924 240.435 441.341 240.435C440.747 240.435 440.2 240.572 439.701 240.846C439.213 241.107 438.821 241.511 438.524 242.058C438.226 242.605 438.078 243.271 438.078 244.056C438.078 244.852 438.22 245.524 438.506 246.071C438.803 246.618 439.195 247.028 439.683 247.301C440.17 247.563 440.705 247.694 441.288 247.694ZM453.195 239.009C454.383 239.009 455.347 239.371 456.084 240.097C456.821 240.81 457.189 241.844 457.189 243.2V248.96H455.584V243.431C455.584 242.457 455.341 241.713 454.853 241.202C454.366 240.679 453.7 240.418 452.856 240.418C452 240.418 451.316 240.685 450.805 241.22C450.305 241.755 450.056 242.534 450.056 243.556V248.96H448.433V239.187H450.056V240.578C450.377 240.079 450.811 239.692 451.358 239.419C451.916 239.145 452.529 239.009 453.195 239.009Z" fill="#5F6578"/>
<path d="M230.265 208.572V209.892H226.878V221H225.255V209.892H221.85V208.572H230.265ZM241.178 215.74C241.178 216.049 241.16 216.376 241.124 216.721H233.315C233.374 217.684 233.701 218.438 234.295 218.985C234.901 219.52 235.632 219.788 236.488 219.788C237.19 219.788 237.772 219.627 238.236 219.306C238.711 218.973 239.044 218.534 239.234 217.987H240.981C240.72 218.926 240.197 219.692 239.412 220.287C238.628 220.869 237.653 221.16 236.488 221.16C235.561 221.16 234.729 220.952 233.992 220.536C233.267 220.12 232.696 219.532 232.28 218.771C231.864 217.999 231.656 217.107 231.656 216.097C231.656 215.086 231.858 214.201 232.263 213.44C232.667 212.679 233.231 212.097 233.956 211.693C234.693 211.277 235.537 211.069 236.488 211.069C237.415 211.069 238.236 211.271 238.949 211.675C239.662 212.079 240.209 212.638 240.589 213.351C240.981 214.052 241.178 214.849 241.178 215.74ZM239.502 215.401C239.502 214.783 239.365 214.254 239.092 213.815C238.818 213.363 238.444 213.024 237.968 212.798C237.505 212.56 236.988 212.442 236.417 212.442C235.597 212.442 234.896 212.703 234.313 213.226C233.743 213.749 233.416 214.474 233.332 215.401H239.502ZM246.778 221.16C246.029 221.16 245.358 221.036 244.764 220.786C244.169 220.525 243.7 220.168 243.355 219.716C243.01 219.253 242.82 218.724 242.784 218.129H244.46C244.508 218.617 244.734 219.015 245.138 219.324C245.554 219.633 246.095 219.788 246.761 219.788C247.379 219.788 247.866 219.651 248.223 219.377C248.579 219.104 248.757 218.759 248.757 218.343C248.757 217.915 248.567 217.6 248.187 217.398C247.807 217.184 247.218 216.976 246.422 216.774C245.697 216.584 245.102 216.394 244.639 216.204C244.187 216.002 243.795 215.71 243.462 215.33C243.141 214.938 242.981 214.427 242.981 213.797C242.981 213.297 243.129 212.84 243.426 212.424C243.723 212.008 244.145 211.681 244.692 211.443C245.239 211.193 245.863 211.069 246.564 211.069C247.646 211.069 248.52 211.342 249.185 211.889C249.851 212.436 250.208 213.185 250.255 214.135H248.633C248.597 213.624 248.389 213.214 248.009 212.905C247.64 212.596 247.141 212.442 246.511 212.442C245.928 212.442 245.465 212.566 245.12 212.816C244.775 213.066 244.603 213.393 244.603 213.797C244.603 214.118 244.704 214.385 244.906 214.599C245.12 214.801 245.382 214.968 245.691 215.098C246.012 215.217 246.451 215.354 247.01 215.508C247.711 215.699 248.282 215.889 248.722 216.079C249.162 216.257 249.536 216.531 249.845 216.899C250.166 217.268 250.332 217.749 250.344 218.343C250.344 218.878 250.196 219.36 249.899 219.788C249.601 220.215 249.179 220.554 248.633 220.804C248.098 221.042 247.48 221.16 246.778 221.16ZM254.614 212.566V218.325C254.614 218.801 254.715 219.14 254.917 219.342C255.119 219.532 255.47 219.627 255.969 219.627H257.164V221H255.702C254.798 221 254.121 220.792 253.669 220.376C253.217 219.96 252.991 219.276 252.991 218.325V212.566H251.725V211.229H252.991V208.769H254.614V211.229H257.164V212.566H254.614ZM207.184 243.03C207.505 242.471 207.98 242.008 208.61 241.639C209.252 241.259 209.995 241.069 210.839 241.069C211.707 241.069 212.491 241.277 213.192 241.693C213.906 242.109 214.464 242.697 214.868 243.458C215.273 244.207 215.475 245.08 215.475 246.079C215.475 247.066 215.273 247.945 214.868 248.718C214.464 249.49 213.906 250.091 213.192 250.519C212.491 250.947 211.707 251.16 210.839 251.16C210.007 251.16 209.27 250.976 208.628 250.608C207.998 250.227 207.517 249.758 207.184 249.199V255.636H205.561V241.229H207.184V243.03ZM213.816 246.079C213.816 245.342 213.668 244.7 213.371 244.153C213.074 243.606 212.669 243.19 212.158 242.905C211.659 242.62 211.106 242.477 210.5 242.477C209.906 242.477 209.353 242.626 208.842 242.923C208.343 243.208 207.938 243.63 207.629 244.189C207.332 244.736 207.184 245.372 207.184 246.097C207.184 246.834 207.332 247.482 207.629 248.04C207.938 248.587 208.343 249.009 208.842 249.306C209.353 249.591 209.906 249.734 210.5 249.734C211.106 249.734 211.659 249.591 212.158 249.306C212.669 249.009 213.074 248.587 213.371 248.04C213.668 247.482 213.816 246.828 213.816 246.079ZM219.233 242.816C219.518 242.257 219.922 241.823 220.445 241.514C220.98 241.205 221.628 241.051 222.389 241.051V242.727H221.961C220.142 242.727 219.233 243.713 219.233 245.687V251H217.61V241.229H219.233V242.816ZM228.523 251.16C227.608 251.16 226.776 250.952 226.027 250.536C225.29 250.12 224.708 249.532 224.28 248.771C223.864 247.999 223.656 247.107 223.656 246.097C223.656 245.098 223.869 244.219 224.297 243.458C224.737 242.685 225.332 242.097 226.08 241.693C226.829 241.277 227.667 241.069 228.594 241.069C229.522 241.069 230.36 241.277 231.108 241.693C231.857 242.097 232.446 242.679 232.874 243.44C233.313 244.201 233.533 245.086 233.533 246.097C233.533 247.107 233.308 247.999 232.856 248.771C232.416 249.532 231.816 250.12 231.055 250.536C230.294 250.952 229.45 251.16 228.523 251.16ZM228.523 249.734C229.106 249.734 229.652 249.597 230.163 249.324C230.675 249.051 231.085 248.64 231.394 248.094C231.715 247.547 231.875 246.881 231.875 246.097C231.875 245.312 231.721 244.647 231.412 244.1C231.103 243.553 230.698 243.149 230.199 242.887C229.7 242.614 229.159 242.477 228.577 242.477C227.982 242.477 227.435 242.614 226.936 242.887C226.449 243.149 226.057 243.553 225.759 244.1C225.462 244.647 225.314 245.312 225.314 246.097C225.314 246.893 225.456 247.565 225.742 248.112C226.039 248.658 226.431 249.068 226.918 249.342C227.406 249.603 227.941 249.734 228.523 249.734ZM235.06 246.097C235.06 245.086 235.263 244.207 235.667 243.458C236.071 242.697 236.63 242.109 237.343 241.693C238.068 241.277 238.894 241.069 239.821 241.069C241.022 241.069 242.008 241.36 242.781 241.942C243.565 242.525 244.082 243.333 244.332 244.367H242.585C242.418 243.773 242.091 243.303 241.604 242.959C241.129 242.614 240.534 242.442 239.821 242.442C238.894 242.442 238.145 242.763 237.575 243.404C237.004 244.034 236.719 244.932 236.719 246.097C236.719 247.274 237.004 248.183 237.575 248.825C238.145 249.467 238.894 249.788 239.821 249.788C240.534 249.788 241.129 249.621 241.604 249.288C242.08 248.955 242.406 248.48 242.585 247.862H244.332C244.071 248.86 243.548 249.663 242.763 250.269C241.979 250.863 240.998 251.16 239.821 251.16C238.894 251.16 238.068 250.952 237.343 250.536C236.63 250.12 236.071 249.532 235.667 248.771C235.263 248.011 235.06 247.119 235.06 246.097ZM255.412 245.74C255.412 246.049 255.394 246.376 255.359 246.721H247.549C247.608 247.684 247.935 248.438 248.53 248.985C249.136 249.52 249.867 249.788 250.723 249.788C251.424 249.788 252.006 249.627 252.47 249.306C252.946 248.973 253.278 248.534 253.469 247.987H255.216C254.954 248.926 254.431 249.692 253.647 250.287C252.862 250.869 251.888 251.16 250.723 251.16C249.796 251.16 248.964 250.952 248.227 250.536C247.501 250.12 246.931 249.532 246.515 248.771C246.099 247.999 245.891 247.107 245.891 246.097C245.891 245.086 246.093 244.201 246.497 243.44C246.901 242.679 247.466 242.097 248.191 241.693C248.928 241.277 249.772 241.069 250.723 241.069C251.65 241.069 252.47 241.271 253.183 241.675C253.896 242.079 254.443 242.638 254.824 243.351C255.216 244.052 255.412 244.849 255.412 245.74ZM253.736 245.401C253.736 244.783 253.599 244.254 253.326 243.815C253.053 243.363 252.678 243.024 252.203 242.798C251.739 242.56 251.222 242.442 250.651 242.442C249.831 242.442 249.13 242.703 248.547 243.226C247.977 243.749 247.65 244.474 247.567 245.401H253.736ZM261.013 251.16C260.264 251.16 259.592 251.036 258.998 250.786C258.404 250.525 257.934 250.168 257.589 249.716C257.245 249.253 257.054 248.724 257.019 248.129H258.695C258.742 248.617 258.968 249.015 259.372 249.324C259.788 249.633 260.329 249.788 260.995 249.788C261.613 249.788 262.1 249.651 262.457 249.377C262.814 249.104 262.992 248.759 262.992 248.343C262.992 247.915 262.802 247.6 262.421 247.398C262.041 247.184 261.453 246.976 260.656 246.774C259.931 246.584 259.337 246.394 258.873 246.204C258.421 246.002 258.029 245.71 257.696 245.33C257.375 244.938 257.215 244.427 257.215 243.797C257.215 243.297 257.364 242.84 257.661 242.424C257.958 242.008 258.38 241.681 258.927 241.443C259.473 241.193 260.097 241.069 260.799 241.069C261.88 241.069 262.754 241.342 263.42 241.889C264.085 242.436 264.442 243.185 264.49 244.135H262.867C262.831 243.624 262.623 243.214 262.243 242.905C261.875 242.596 261.375 242.442 260.745 242.442C260.163 242.442 259.699 242.566 259.355 242.816C259.01 243.066 258.837 243.393 258.837 243.797C258.837 244.118 258.939 244.385 259.141 244.599C259.355 244.801 259.616 244.968 259.925 245.098C260.246 245.217 260.686 245.354 261.245 245.508C261.946 245.699 262.516 245.889 262.956 246.079C263.396 246.257 263.77 246.531 264.079 246.899C264.4 247.268 264.567 247.749 264.579 248.343C264.579 248.878 264.43 249.36 264.133 249.788C263.836 250.215 263.414 250.554 262.867 250.804C262.332 251.042 261.714 251.16 261.013 251.16ZM270.328 251.16C269.579 251.16 268.908 251.036 268.313 250.786C267.719 250.525 267.25 250.168 266.905 249.716C266.56 249.253 266.37 248.724 266.334 248.129H268.01C268.058 248.617 268.284 249.015 268.688 249.324C269.104 249.633 269.645 249.788 270.31 249.788C270.928 249.788 271.416 249.651 271.772 249.377C272.129 249.104 272.307 248.759 272.307 248.343C272.307 247.915 272.117 247.6 271.737 247.398C271.356 247.184 270.768 246.976 269.972 246.774C269.247 246.584 268.652 246.394 268.189 246.204C267.737 246.002 267.345 245.71 267.012 245.33C266.691 244.938 266.53 244.427 266.53 243.797C266.53 243.297 266.679 242.84 266.976 242.424C267.273 242.008 267.695 241.681 268.242 241.443C268.789 241.193 269.413 241.069 270.114 241.069C271.196 241.069 272.07 241.342 272.735 241.889C273.401 242.436 273.758 243.185 273.805 244.135H272.183C272.147 243.624 271.939 243.214 271.558 242.905C271.19 242.596 270.691 242.442 270.061 242.442C269.478 242.442 269.015 242.566 268.67 242.816C268.325 243.066 268.153 243.393 268.153 243.797C268.153 244.118 268.254 244.385 268.456 244.599C268.67 244.801 268.932 244.968 269.241 245.098C269.562 245.217 270.001 245.354 270.56 245.508C271.261 245.699 271.832 245.889 272.272 246.079C272.711 246.257 273.086 246.531 273.395 246.899C273.716 247.268 273.882 247.749 273.894 248.343C273.894 248.878 273.746 249.36 273.448 249.788C273.151 250.215 272.729 250.554 272.183 250.804C271.648 251.042 271.03 251.16 270.328 251.16Z" fill="#5F6578"/>
<defs>
<linearGradient id="paint0_linear_12046_85358" x1="240.243" y1="314.711" x2="240.243" y2="143.803" gradientUnits="userSpaceOnUse">
<stop stop-color="#F4F5FA"/>
<stop offset="1" stop-color="#F4F5FA" stop-opacity="0"/>
</linearGradient>
<linearGradient id="paint1_linear_12046_85358" x1="156.936" y1="172.582" x2="156.936" y2="1.67384" gradientUnits="userSpaceOnUse">
<stop stop-color="#F4F5FA"/>
<stop offset="1" stop-color="#F4F5FA" stop-opacity="0"/>
</linearGradient>
<linearGradient id="paint2_linear_12046_85358" x1="322.385" y1="171.582" x2="322.385" y2="0.673837" gradientUnits="userSpaceOnUse">
<stop stop-color="#F4F5FA"/>
<stop offset="1" stop-color="#F4F5FA" stop-opacity="0"/>
</linearGradient>
<linearGradient id="paint3_linear_12046_85358" x1="74.3075" y1="314.711" x2="74.3076" y2="143.803" gradientUnits="userSpaceOnUse">
<stop stop-color="#F4F5FA"/>
<stop offset="1" stop-color="#F4F5FA" stop-opacity="0"/>
</linearGradient>
<linearGradient id="paint4_linear_12046_85358" x1="156.308" y1="457.84" x2="156.308" y2="286.932" gradientUnits="userSpaceOnUse">
<stop stop-color="#F4F5FA"/>
<stop offset="1" stop-color="#F4F5FA" stop-opacity="0"/>
</linearGradient>
<linearGradient id="paint5_linear_12046_85358" x1="323.308" y1="457.908" x2="323.308" y2="287" gradientUnits="userSpaceOnUse">
<stop stop-color="#F4F5FA"/>
<stop offset="1" stop-color="#F4F5FA" stop-opacity="0"/>
</linearGradient>
<linearGradient id="paint6_linear_12046_85358" x1="406.308" y1="315.908" x2="406.308" y2="145" gradientUnits="userSpaceOnUse">
<stop stop-color="#F4F5FA"/>
<stop offset="1" stop-color="#F4F5FA" stop-opacity="0"/>
</linearGradient>
</defs>
</svg>
