<svg xmlns="http://www.w3.org/2000/svg" width="43" height="28" fill="none"><path fill="#fff" d="M28.06 18.365 19.424 3.524 25.628 0l10.739 18.365H28.06ZM5.057 16.286l6.204-3.548 3.283 5.627H6.26l-1.204-2.08ZM17.233 27.833h1.766V20.77h-1.766v7.063ZM39.36 28c-1.974 0-3.162-1.008-3.226-2.428h1.862c0 .444.28 1.095 1.485 1.119.802 0 1.18-.469 1.18-.818-.049-.555-.755-.603-1.51-.722-.754-.12-1.396-.254-1.862-.492-.593-.302-.995-.953-.995-1.698 0-1.262 1.108-2.262 2.954-2.262 1.79 0 2.921.928 3.042 2.31h-1.798c-.016-.374-.088-.961-1.148-.961-.714 0-1.188.143-1.228.635 0 .722 1.485.674 2.64.976 1.108.278 1.815.96 1.815 1.913 0 1.754-1.437 2.428-3.21 2.428ZM12.33 9.984l6.203-3.54 6.959 11.921h-6.493v1.746h-1.766v-1.754l-4.904-8.373Z"/><path fill="#fff" fill-rule="evenodd" d="M12.49 28c-2.056 0-3.725-1.659-3.725-3.666 0-2.032 1.67-3.635 3.724-3.635.779 0 1.485.206 2.103.627v-2.96h1.766v9.468h-1.766v-.469a3.852 3.852 0 0 1-2.103.635Zm-2.031-3.666c0 1.095.947 2.007 2.078 2.007 1.108 0 2.055-.912 2.055-2.008 0-1.095-.947-2.031-2.055-2.031-1.131 0-2.078.936-2.078 2.032ZM25.54 18.365h1.741v9.469H25.54v-.469a3.812 3.812 0 0 1-2.127.635c-2.03 0-3.7-1.659-3.7-3.666 0-2.032 1.67-3.635 3.7-3.635.802 0 1.509.206 2.127.627v-2.96Zm-4.11 5.969c0 1.095.948 2.007 2.031 2.007 1.132 0 2.079-.912 2.079-2.008 0-1.095-.947-2.031-2.079-2.031-1.083 0-2.03.936-2.03 2.032ZM31.575 28c-2.023 0-3.7-1.659-3.7-3.666 0-2.032 1.677-3.635 3.7-3.635.778 0 1.509.206 2.103.627v-.564h1.766v7.072h-1.766v-.469c-.594.397-1.3.635-2.103.635Zm-1.982-3.666c0 1.095.947 2.008 2.054 2.008 1.108 0 2.03-.913 2.03-2.008 0-1.096-.922-2.032-2.03-2.032-1.107 0-2.054.936-2.054 2.032ZM2.272 24.334c0 1.095.947 2.008 2.055 2.008 1.132 0 2.079-.913 2.079-2.008 0-1.096-.947-2.032-2.079-2.032-1.108 0-2.055.936-2.055 2.032ZM4.28 28C2.249 28 .57 26.341.57 24.334c0-2.032 1.677-3.635 3.708-3.635.778 0 1.509.206 2.127.627v-.564h1.741v7.072H6.406v-.469A3.813 3.813 0 0 1 4.279 28Z" clip-rule="evenodd"/></svg>
