<svg xmlns="http://www.w3.org/2000/svg" width="115" height="24" fill="none"><g clip-path="url(#a)"><mask id="b" width="115" height="24" x="0" y="0" maskUnits="userSpaceOnUse" style="mask-type:luminance"><path fill="#fff" d="M114.571 0v24h-114V0h114Z"/></mask><g mask="url(#b)"><mask id="c" width="115" height="24" x="0" y="0" maskUnits="userSpaceOnUse" style="mask-type:luminance"><path fill="#fff" d="M114.571 0v24h-114V0h114Z"/></mask><g mask="url(#c)"><mask id="d" width="115" height="24" x="0" y="0" maskUnits="userSpaceOnUse" style="mask-type:luminance"><path fill="#fff" d="M114.571 21.565v2.433h-114v-2.433h114Zm-81.693.588H17.676v1.257h15.202v-1.256Zm32.28 0H49.956v1.257h15.202v-1.256Zm32.308 0H82.264v1.257h15.202v-1.256ZM76.58.393c2.118 0 3.137.347 4.209.668.724.214.858.428.858.775v3.182h-.295c-.08-1.791-1.153-4.224-4.96-4.224-4.13 0-6.086 2.967-6.113 6.55-.027 3.956 2.09 7.03 6.569 7.03 3.002 0 4.45-2.218 5.254-3.983h.295l-.777 3.102c0 .427-.402.508-1.019.695-.831.24-2.386.588-4.29.588-4.504 0-8.552-1.952-8.499-7.272 0-3.048 2.869-7.111 8.768-7.111Zm-58.636 0c1.78 0 2.783.245 3.694.514l.258.077.258.077c.723.214.857.428.857.775v3.182h-.294c-.08-1.791-1.153-4.224-4.96-4.224-4.13 0-6.087 2.967-6.113 6.55-.027 3.956 2.09 7.03 6.568 7.03 3.003 0 4.45-2.218 5.255-3.983h.295l-.777 3.102c0 .427-.403.508-1.02.695-.83.24-2.385.588-4.289.588-4.477 0-8.553-1.952-8.499-7.272 0-3.048 2.869-7.111 8.767-7.111Zm72.282 6.63c.456-4.278 4.451-7.031 8.982-6.577 4.718.481 7.105 4.465 6.783 7.513-.429 4.17-4.236 7.218-9.062 6.737-4.182-.428-7.105-3.823-6.703-7.673ZM39.366.606v.32c-1.957.214-2.654-.106-2.654 1.738v9.839c0 1.844.67 1.524 2.654 1.737v.294h-7.453v-.32c1.957-.214 2.654.107 2.654-1.738V2.664c0-1.844-.67-1.524-2.654-1.737V.606h7.453Zm20.966 0 .885 3.261h-.268c-.724-1.31-1.636-2.834-3.54-2.834h-2.117v11.443c0 1.845.616 1.524 2.6 1.738v.32h-7.346v-.32c1.957-.214 2.6.107 2.6-1.738V1.033H51.03c-1.904 0-2.789 1.524-3.513 2.834h-.268l.885-3.261h12.199ZM98.645.82c-3.7-.401-5.576 2.753-5.845 5.427-.483 4.812 1.93 7.806 4.746 8.1 4.075.428 5.603-3.395 5.871-6.042.483-4.732-2.118-7.218-4.772-7.485Z"/></mask><g mask="url(#d)"><path fill="#fff" d="M.57.392h114.001v23.606h-114V.392Z"/></g></g></g></g><defs><clipPath id="a"><path fill="#fff" d="M.57 0h114v24H.57z"/></clipPath></defs></svg>
