<svg xmlns="http://www.w3.org/2000/svg" width="42" height="34" fill="none"><path fill="#fff" fill-rule="evenodd" d="M21 3.287c-2.993 2.386-4.943 6.079-4.943 10.24 0 4.16 1.946 7.887 4.943 10.24a12.97 12.97 0 0 0 4.943-10.24c0-4.161-1.95-7.854-4.943-10.24Z" clip-rule="evenodd" opacity=".8"/><path fill="#fff" d="M16.057 13.526c0-4.16 1.95-7.853 4.943-10.24A12.895 12.895 0 0 0 12.988.5C5.81.5 0 6.326 0 13.526s5.81 13.027 12.988 13.027c3.031 0 5.81-1.05 8.012-2.787-2.997-2.352-4.943-6.079-4.943-10.24Z"/><path fill="#fff" d="M42 13.526c0 7.2-5.81 13.027-12.988 13.027-3.031 0-5.81-1.05-8.012-2.787a12.969 12.969 0 0 0 4.943-10.24c0-4.16-1.95-7.853-4.943-10.24A12.874 12.874 0 0 1 29.007.5C36.191.5 42 6.364 42 13.526Z" opacity=".5"/><path fill="#fff" d="M6.673 33.424v-2.3c0-.879-.515-1.455-1.399-1.455-.442 0-.922.152-1.253.652-.257-.42-.626-.652-1.18-.652-.369 0-.738.116-1.03.536v-.46H1.04v3.68h.772v-2.032c0-.652.33-.96.846-.96.515 0 .772.343.772.96v2.031h.773v-2.032c0-.651.369-.96.845-.96.515 0 .772.344.772.96v2.032h.854Zm11.458-3.679h-1.253v-1.112h-.773v1.112h-.699v.728h.7v1.688c0 .843.33 1.339 1.214 1.339.33 0 .7-.116.957-.268l-.223-.692a1.2 1.2 0 0 1-.665.192c-.37 0-.515-.232-.515-.612v-1.647h1.253v-.728h.004Zm6.557-.08c-.442 0-.738.232-.923.535v-.46h-.772v3.68h.772v-2.072c0-.612.258-.96.738-.96.146 0 .33.04.48.076l.224-.768c-.154-.031-.373-.031-.52-.031Zm-9.908.384c-.37-.268-.884-.384-1.438-.384-.884 0-1.472.46-1.472 1.187 0 .612.442.96 1.214 1.072l.37.04c.403.076.626.192.626.384 0 .268-.296.46-.811.46-.515 0-.923-.192-1.18-.384l-.37.612c.404.308.958.46 1.511.46 1.03 0 1.622-.5 1.622-1.188 0-.652-.48-.996-1.214-1.112l-.369-.04c-.33-.04-.588-.116-.588-.344 0-.268.258-.42.665-.42.442 0 .884.192 1.107.309l.327-.652Zm20.55-.384c-.442 0-.738.232-.923.535v-.46h-.772v3.68h.772v-2.072c0-.612.258-.96.739-.96.145 0 .33.04.48.076l.223-.76c-.15-.04-.369-.04-.519-.04Zm-9.87 1.92c0 1.111.738 1.915 1.88 1.915.515 0 .884-.116 1.253-.42l-.37-.652c-.295.233-.587.344-.922.344-.626 0-1.068-.46-1.068-1.188 0-.692.442-1.151 1.068-1.187.33 0 .627.116.923.344l.369-.652c-.37-.308-.738-.42-1.253-.42-1.142-.004-1.88.804-1.88 1.915Zm7.145 0v-1.84h-.772v.46c-.258-.344-.627-.536-1.107-.536-.996 0-1.768.804-1.768 1.915 0 1.112.772 1.916 1.768 1.916.515 0 .884-.192 1.107-.536v.46h.772v-1.84Zm-2.836 0c0-.652.403-1.188 1.068-1.188.627 0 1.069.5 1.069 1.188 0 .651-.442 1.187-1.069 1.187-.66-.04-1.068-.54-1.068-1.188Zm-9.244-1.92c-1.03 0-1.768.768-1.768 1.915 0 1.152.738 1.916 1.807 1.916.515 0 1.03-.152 1.438-.5l-.37-.577c-.296.233-.665.384-1.03.384-.48 0-.956-.232-1.068-.88h2.613v-.307c.035-1.183-.63-1.951-1.622-1.951Zm0 .692c.481 0 .811.308.884.88h-1.84c.072-.496.403-.88.956-.88Zm19.19 1.227V28.29h-.772v1.916c-.257-.344-.626-.536-1.107-.536-.995 0-1.768.804-1.768 1.915 0 1.112.773 1.916 1.768 1.916.515 0 .884-.192 1.107-.536v.46h.773v-1.84Zm-2.836 0c0-.651.404-1.187 1.069-1.187.626 0 1.068.5 1.068 1.188 0 .651-.442 1.187-1.068 1.187-.666-.04-1.069-.54-1.069-1.188Zm-25.859 0v-1.839h-.772v.46c-.258-.344-.627-.536-1.107-.536-.996 0-1.768.804-1.768 1.915 0 1.112.772 1.916 1.768 1.916.515 0 .884-.192 1.107-.536v.46h.772v-1.84Zm-2.87 0c0-.651.403-1.187 1.068-1.187.627 0 1.069.5 1.069 1.188 0 .651-.442 1.187-1.069 1.187-.665-.04-1.068-.54-1.068-1.188Z"/></svg>
