<svg xmlns="http://www.w3.org/2000/svg" width="102" height="36" fill="none"><g fill-rule="evenodd" clip-path="url(#a)" clip-rule="evenodd"><path fill="#fff" d="M0 7.558v11.299h2.467v-7.538c0-.342-.03-1.14-.121-2.41.137.798.319 1.457.442 1.986l1.84 7.96h2.528l1.887-8.09c.131-.565.32-1.172.456-1.856a25.298 25.298 0 0 0-.122 2.36v7.587h2.65V7.558H7.795l-1.445 6.724c-.096.446-.243 1.123-.32 2.067-.046-.83-.146-1.5-.29-2.003L3.806 7.558H0ZM20.512 7.597c-.818-.283-1.574-.425-2.266-.425-2.911 0-4.642 1.653-4.642 4.28 0 2.534 1.794 4.252 4.422 4.252.99 0 1.856-.126 2.565-.38l-.063-2.125c-.52.315-1.07.472-1.684.472-1.464 0-2.376-.896-2.376-2.235 0-1.369.865-2.25 2.25-2.25.519 0 1.054.142 1.605.44l.19-2.029ZM22.6 7.558v11.298h3.01v-5.242l3.549 5.242h3.744l-4.574-6.104 4.15-5.194H29.11l-3.5 4.884V7.558H22.6ZM34.005 7.558v11.298h8.025v-2.181h-5.013v-2.572h4.557v-2.149h-4.557V9.675h4.834V7.558h-7.846ZM52.463 7.689a11.269 11.269 0 0 0-3.093-.407c-3.06 0-4.703 1.286-4.703 3.533 0 1.676.96 2.572 2.995 3.304 1.383.505 2.262.651 2.262 1.498 0 .75-.717 1.238-1.921 1.238-.847 0-1.855-.228-2.962-.733l-.26 2.523c1.17.329 2.31.475 3.4.475 3.175 0 4.836-1.37 4.836-3.828 0-1.059-.359-1.823-1.157-2.442-.732-.554-1.79-.847-3.076-1.27-.7-.227-1.041-.585-1.041-1.058 0-.668.683-1.09 1.936-1.09.798 0 1.644.194 2.556.585l.228-2.328ZM62.683 7.689a11.269 11.269 0 0 0-3.092-.407c-3.06 0-4.705 1.286-4.705 3.533 0 1.676.961 2.572 2.996 3.304 1.383.505 2.262.651 2.262 1.498 0 .75-.716 1.238-1.92 1.238-.847 0-1.856-.228-2.963-.733L55 18.645c1.171.329 2.31.475 3.401.475 3.174 0 4.835-1.37 4.835-3.828 0-1.059-.358-1.823-1.156-2.442-.732-.554-1.79-.847-3.076-1.27-.7-.227-1.042-.585-1.042-1.058 0-.668.684-1.09 1.937-1.09.798 0 1.644.194 2.556.585l.227-2.328ZM70.66 7.282c-3.5 0-5.617 2.198-5.617 5.926s2.1 5.912 5.616 5.912c3.5 0 5.6-2.185 5.6-5.912 0-3.728-2.1-5.926-5.6-5.926Zm0 2.198c1.496 0 2.57 1.383 2.57 3.695 0 2.328-1.058 3.712-2.57 3.712-1.515 0-2.59-1.384-2.59-3.712 0-2.328 1.092-3.695 2.59-3.695ZM78.033 7.558v11.298h2.718v-5.958c0-.83-.098-1.953-.31-3.354.212.863.473 1.628.799 2.295l3.401 7.017h3.744V7.558h-2.718v6.398c0 .798.098 1.742.276 2.817-.358-1.172-.65-1.986-.878-2.442l-3.272-6.773h-3.76Z"/><path fill="#EDEFF7" d="M14.342 16.935h6.16v2.02h-6.16v-2.02Z"/><path fill="#fff" d="m23.726 24.968-1.204 5.65h2.889l.106-.472h-2.352l.472-2.24h2.124l.097-.495h-2.116l.424-1.979h2.23l.105-.464h-2.775ZM32.368 28.045c.033-.13.05-.269.05-.423 0-.732-.424-1.155-1.116-1.155-.635 0-1.067.276-1.416.895-.13-.603-.464-.895-1.034-.895-.538 0-.952.227-1.335.707l.138-.626h-.464l-.855 4.07h.505l.456-2.141c.22-1.034.774-1.571 1.417-1.571.448 0 .716.285.716.765a1.9 1.9 0 0 1-.057.44l-.537 2.507h.497l.464-2.164c.22-1.027.7-1.54 1.36-1.54.455 0 .732.276.732.79 0 .122-.016.244-.04.374l-.547 2.54h.521l.545-2.573ZM36.403 28.077c0 1.279-.7 2.166-1.506 2.166-.61 0-1.042-.489-1.042-1.246 0-.489.146-.985.367-1.327.325-.504.748-.765 1.188-.765.61 0 .993.449.993 1.172Zm-2.784 1.718c.211.603.667.905 1.35.905.48 0 .92-.205 1.279-.604.423-.472.708-1.221.708-1.945 0-1.084-.538-1.686-1.433-1.686-.538 0-1.018.26-1.4.774l.138-.708h-.472l-1.23 5.788h.522l.538-2.524ZM39.672 26.467c-.61 0-1.204.276-1.554.69a2.732 2.732 0 0 0-.668 1.825c0 1.05.66 1.734 1.652 1.734.798 0 1.49-.432 1.905-1.213.203-.383.318-.83.318-1.303 0-1.083-.643-1.733-1.653-1.733Zm1.1 1.74c0 .628-.228 1.206-.61 1.613-.27.285-.62.44-.994.44-.7 0-1.164-.53-1.164-1.343 0-.652.253-1.238.676-1.628.277-.253.602-.391.944-.391.7 0 1.148.496 1.148 1.31ZM41.941 26.548l.4 4.128h.626l1.937-3.673.399 3.673h.594l2.207-4.128h-.57l-1.832 3.613-.399-3.613h-.602l-1.946 3.605-.317-3.605h-.497ZM50.94 28.273h-2.392c.196-.871.822-1.408 1.457-1.408.587 0 .961.407.961 1.1 0 .097-.008.202-.025.308Zm.432.432c.066-.27.098-.505.098-.717 0-.944-.578-1.53-1.457-1.53-.619 0-1.14.26-1.538.79a2.809 2.809 0 0 0-.546 1.669c0 1.147.643 1.808 1.71 1.808a2.96 2.96 0 0 0 1.13-.238l.026-.505a2.361 2.361 0 0 1-1.09.276c-.79 0-1.255-.456-1.255-1.212 0-.097.017-.211.033-.342h2.89ZM54.635 26.515a1.739 1.739 0 0 0-.399-.056c-.456 0-.839.227-1.221.699l.138-.61h-.472l-.854 4.07h.537l.448-2.117c.22-1.017.635-1.53 1.35-1.53.115 0 .228.016.358.057l.115-.513ZM55.585 24.684l-.138.658h.594l.138-.658h-.594Zm-.342 1.864-.863 4.07h.497l.87-4.07h-.504ZM59.751 28.363c.057-.253.082-.489.082-.684 0-.733-.489-1.212-1.237-1.212-.546 0-1.017.269-1.376.79l.155-.726h-.48l-.872 4.087h.521l.448-2.092c.22-1.026.79-1.595 1.457-1.595.545 0 .855.309.855.846 0 .163-.017.35-.058.545l-.488 2.296h.52l.473-2.255ZM63.94 26.564l-.163.823c-.21-.603-.658-.905-1.343-.905-.61 0-1.164.334-1.53.945a3.19 3.19 0 0 0-.464 1.652c0 1.026.553 1.637 1.432 1.637.546 0 1.018-.26 1.4-.774-.211 1.37-.691 1.996-1.677 1.996-.423 0-.847-.122-1.27-.359l-.18.481c.498.212.97.326 1.434.326 1.1 0 1.775-.562 2.003-1.66l.862-4.162h-.504Zm-.398 1.61c0 .498-.147.994-.367 1.336-.325.504-.74.765-1.197.765-.602 0-.992-.448-.992-1.172 0-.74.26-1.408.659-1.8.244-.244.545-.373.847-.373.618 0 1.05.489 1.05 1.245ZM68.243 24.968l-1.197 5.65h.538l.578-2.728h2.922l-.577 2.727h.545l1.196-5.649h-.537l-.521 2.45h-2.93l.52-2.45h-.537ZM75.404 28.273h-2.393c.196-.871.823-1.408 1.457-1.408.586 0 .96.407.96 1.1 0 .097-.008.202-.024.308Zm.432.432c.064-.27.097-.505.097-.717 0-.944-.578-1.53-1.457-1.53-.618 0-1.14.26-1.538.79a2.808 2.808 0 0 0-.545 1.669c0 1.147.643 1.808 1.709 1.808.357 0 .732-.074 1.131-.238l.024-.505a2.361 2.361 0 0 1-1.09.276c-.79 0-1.254-.456-1.254-1.212 0-.097.017-.211.033-.342h2.89ZM79.545 28.264a3.2 3.2 0 0 0 .065-.593c0-.758-.496-1.222-1.335-1.222-.31 0-.708.074-1.205.212l-.057.529c.505-.187.911-.293 1.22-.293.57 0 .888.301.888.838a3.2 3.2 0 0 1-.04.399 8.717 8.717 0 0 0-.7-.04c-1.441 0-2.207.545-2.207 1.464 0 .66.497 1.125 1.246 1.125.52 0 .944-.228 1.335-.709l-.098.643h.448c.032-.284.106-.65.195-1.099l.245-1.254Zm-.529.254c-.138 1.13-.716 1.733-1.506 1.733-.48 0-.789-.285-.789-.716 0-.74.602-1.026 1.872-1.026.139 0 .277 0 .423.009ZM81.463 24.554l-1.285 6.063h.52l1.27-6.063h-.505ZM83.57 25.343l-.553.196-.212 1.01h-.822l-.09.431h.823l-.497 2.336c-.032.17-.064.325-.064.471 0 .554.333.873.903.873.13 0 .276-.025.44-.075l.098-.456a1.69 1.69 0 0 1-.44.082c-.294 0-.473-.196-.473-.521 0-.107.016-.252.058-.44l.48-2.27h1.042l.097-.432H83.32l.251-1.205ZM85.652 24.554l-1.286 6.063h.52l.449-2.091c.22-1.026.789-1.595 1.456-1.595.546 0 .855.309.855.846 0 .163-.016.35-.057.545l-.489 2.296h.521l.472-2.254c.057-.253.082-.49.082-.685 0-.732-.49-1.212-1.238-1.212-.545 0-1.017.27-1.375.79l.594-2.703h-.504ZM92.25 26.661a2.768 2.768 0 0 0-1.008-.17c-.782 0-1.352.187-1.8.659a2.438 2.438 0 0 0-.658 1.685c0 1.107.667 1.857 1.676 1.857.334 0 .684-.04 1.034-.132l.058-.528c-.392.122-.708.186-.961.186-.774 0-1.262-.545-1.262-1.391 0-1.084.757-1.881 1.791-1.881.277 0 .61.066.993.196l.138-.48ZM95.456 28.264c.04-.211.065-.406.065-.593 0-.758-.497-1.222-1.335-1.222-.31 0-.708.074-1.205.212l-.057.529c.504-.187.911-.293 1.22-.293.57 0 .888.301.888.838 0 .09-.016.229-.04.399a8.742 8.742 0 0 0-.7-.04c-1.442 0-2.207.545-2.207 1.464 0 .66.497 1.125 1.246 1.125.52 0 .944-.228 1.335-.709l-.098.643h.447c.033-.284.106-.65.196-1.099l.245-1.254Zm-.53.254c-.137 1.13-.716 1.733-1.506 1.733-.48 0-.789-.285-.789-.716 0-.74.602-1.026 1.873-1.026.138 0 .276 0 .423.009ZM98.888 26.515a1.732 1.732 0 0 0-.399-.056c-.456 0-.838.227-1.22.699l.137-.61h-.472l-.854 4.07h.538l.447-2.117c.22-1.017.635-1.53 1.351-1.53.114 0 .228.016.358.057l.114-.513ZM101.662 28.273h-2.394c.196-.871.823-1.408 1.457-1.408.587 0 .961.407.961 1.1 0 .097-.008.202-.024.308Zm.431.432a3.08 3.08 0 0 0 .098-.717c0-.944-.578-1.53-1.457-1.53-.619 0-1.14.26-1.539.79a2.809 2.809 0 0 0-.545 1.669c0 1.147.643 1.808 1.709 1.808.358 0 .732-.074 1.132-.238l.024-.505a2.36 2.36 0 0 1-1.09.276c-.79 0-1.254-.456-1.254-1.212 0-.097.016-.211.032-.342h2.89Z"/></g><defs><clipPath id="a"><path fill="#fff" d="M0 0h102v36H0z"/></clipPath></defs></svg>
