<svg xmlns="http://www.w3.org/2000/svg" width="84" height="40" fill="none"><g fill="#fff" clip-path="url(#a)"><path d="m84.401 14.144-21.274 7.957 1.237-2.627-28.83 9.702 1.597-3.252-33.479 12.67L28.79 32.38l-2.06 3.905 31.164-11.428-1.78 3.404L84.4 14.144ZM79.646 4.508c.15 0 .292-.012.292-.192 0-.145-.137-.17-.262-.17h-.244v.362h.214Zm-.214.658h-.182v-1.17h.455c.279 0 .418.101.418.331 0 .21-.132.303-.308.322l.337.517h-.2l-.315-.508h-.205v.508Zm.218.26c.466 0 .837-.36.837-.849 0-.48-.37-.843-.837-.843a.828.828 0 0 0-.84.843c0 .49.368.85.84.85Zm-1.05-.849c0-.582.48-1.012 1.05-1.012.562 0 1.042.43 1.042 1.012 0 .589-.48 1.02-1.042 1.02-.57 0-1.05-.431-1.05-1.02ZM22.426 7.88l-3.688 3.066-1.582-1.75c-.128.109-3.146 2.629-3.146 2.629l.43-4.184-10.795 8.957 7.372-3.484-1.894 15.65s2.258 1.643 2.445 1.768l2.112-16.608.006-.032 2.134-1.773.454.441-1.717 14.276s2.295 1.686 2.44 1.783c.018-.14 1.555-13.078 1.92-16.164l2.121-1.767.451.44-1.658 13.92 2.441 1.771 1.996-16.941-1.842-1.999ZM28.417 11.01l-2.547.426-.316 2.457 2.545-.474.318-2.409Zm13.691 1.03-1.023 7.805-.566.597-.958-.784.952-7.338-2.548.61-.982 7.636-.752.987-.804-.7.956-7.684-2.558.526-.854 6.988-1.06 1.42-.749-.598 1.652-13.149-2.497.398-1.54 12.633-1.271 1.722-.63-.516 1.057-7.7-2.55.513-1.18 8.924 2.244 1.733 2.21-2.94 2.307 1.82 2.223-2.977 2.383 2.04 2.35-3.063 1.91 1.656 3.305-3.536 1.015-7.46-2.041.438Zm6.049 5.131-1.029 1.242-.55-.466.838-6.494 1.385.723-.644 4.995Zm22.398-9.295 1.205 1.38-1.496.812.29-2.192Zm6.406-1.29 1.11 1.304-1.373.765.263-2.069Zm.163 5.119-.734-.608.15-1.191 3.428-1.91-2.765-3.372-2.521 2.168-.593 4.685-3.359 1.82-.8-.646.165-1.26 3.726-2.024L70.818 5.8l-2.74 2.296-.58 4.447-1.217 1.161-1.916-3.726 4.293-3.857-1.948.279-3.233 2.71.772-6.07-2.337.317-1.304 10.4-1.415 1.531-.334-.276.849-6.598-2.517.569-.786 5.966-1.118 1.332-.477-.408.844-6.544-2.535.497-.785 6.12-1.173 1.47-.515-.445.874-6.833-2.528.535-.058.532-1.766-.839-2.482 3.12-.717 5.573 2.4 2.01 2.202-2.797 1.892 1.583 2.066-2.612 1.776 1.531 1.95-2.517 1.86 1.59 2.516-2.692 1.916 1.495.575-4.57 2.015 4.07 2.674-2.565 1.735 1.439 5.17-2.811 1.32 1.122 4.747-2.733.13-1.004-3.789 2.108Z"/></g><defs><clipPath id="a"><path fill="#fff" d="M.57 0h83v40h-83z"/></clipPath></defs></svg>
