<svg xmlns="http://www.w3.org/2000/svg" width="52" height="32" fill="none"><g clip-path="url(#a)"><path fill="#fff" d="M10.928 8.42a.987.987 0 0 1-.31.72c-.2.201-.473.31-.755.303a1.07 1.07 0 0 1-.722-.31c-.757-.757-2.001-1.06-2.814-1.057-1.236 0-2.203.423-2.901 1.27-.698.846-1.047 2.047-1.05 3.604v11.166a.926.926 0 0 1-.324.773 1.118 1.118 0 0 1-.703.263 1.118 1.118 0 0 1-.703-.263.923.923 0 0 1-.326-.773V12.95a9.29 9.29 0 0 1 .378-2.694A6.46 6.46 0 0 1 1.831 8.06a5.422 5.422 0 0 1 1.87-1.503 5.884 5.884 0 0 1 2.623-.548 6.558 6.558 0 0 1 2.267.446 5.478 5.478 0 0 1 1.99 1.236c.211.185.336.448.347.729ZM16.074 24.115a.927.927 0 0 1-.326.774 1.088 1.088 0 0 1-1.408 0 .924.924 0 0 1-.325-.774V7.39a.927.927 0 0 1 .325-.774 1.091 1.091 0 0 1 1.409 0 .928.928 0 0 1 .325.774v16.726ZM33.927 24.115a.925.925 0 0 1-.328.774 1.088 1.088 0 0 1-1.406 0 .922.922 0 0 1-.325-.774V12.711a4.512 4.512 0 0 0-.362-1.803 4.661 4.661 0 0 0-2.47-2.47 4.687 4.687 0 0 0-3.605 0 4.663 4.663 0 0 0-2.47 2.47 4.528 4.528 0 0 0-.36 1.803v11.404a.924.924 0 0 1-.325.774 1.088 1.088 0 0 1-1.409 0 .922.922 0 0 1-.325-.774V12.711a6.512 6.512 0 0 1 .525-2.61 6.736 6.736 0 0 1 1.424-2.13 6.82 6.82 0 0 1 2.098-1.424 6.706 6.706 0 0 1 5.246 0 6.584 6.584 0 0 1 3.552 3.551c.352.825.53 1.713.524 2.61l.016 11.407ZM51.43 25.316a6.495 6.495 0 0 1-.525 2.623 6.631 6.631 0 0 1-3.56 3.536 6.533 6.533 0 0 1-2.61.525 8.625 8.625 0 0 1-3.085-.619 6.783 6.783 0 0 1-1.439-.787 4.301 4.301 0 0 1-1.08-1.1.98.98 0 0 1-.171-.584.942.942 0 0 1 .325-.737 1.073 1.073 0 0 1 1.165-.207c.168.073.307.199.396.359.408.614 1.288 1.1 1.87 1.288a6.5 6.5 0 0 0 2.006.328c.62.004 1.233-.12 1.803-.362a4.66 4.66 0 0 0 2.47-2.471 4.505 4.505 0 0 0 .376-1.792v-2.36a6.67 6.67 0 0 1-2.099 1.356 6.578 6.578 0 0 1-2.539.498 6.486 6.486 0 0 1-2.623-.524 6.68 6.68 0 0 1-3.536-3.536 6.476 6.476 0 0 1-.524-2.623V12.71a6.512 6.512 0 0 1 .524-2.61A6.716 6.716 0 0 1 40 7.97a6.82 6.82 0 0 1 2.098-1.424 6.707 6.707 0 0 1 5.246 0 6.581 6.581 0 0 1 3.551 3.551c.353.825.531 1.713.525 2.61v12.608h.01Zm-2.06-12.605a4.512 4.512 0 0 0-.362-1.803 4.661 4.661 0 0 0-2.47-2.47 4.688 4.688 0 0 0-3.604 0 4.666 4.666 0 0 0-2.482 2.468 4.544 4.544 0 0 0-.36 1.802v5.39a4.543 4.543 0 0 0 .36 1.815 4.672 4.672 0 0 0 2.474 2.471c1.153.48 2.45.48 3.604 0a4.661 4.661 0 0 0 2.47-2.47 4.51 4.51 0 0 0 .37-1.816v-5.387Z"/><path fill="#EDEFF7" d="M15.046 3.52a1.76 1.76 0 1 0 0-3.52 1.76 1.76 0 0 0 0 3.52Z"/></g><defs><clipPath id="a"><path fill="#fff" d="M.318 0h51.11v32H.319z"/></clipPath></defs></svg>
