<svg xmlns="http://www.w3.org/2000/svg" width="32" height="32" fill="none"><g fill="#fff" clip-path="url(#a)"><path d="M15.909 5.625c.57.328 1.174.751 1.634 1.199l-.18.182c-.908-.097-1.865.024-2.726.037-.096-.097-.289-.243-.109-.364l1.38-1.054Zm16.055 11.28c.012.41.05.763-.11 1.182-1.658.472-2.748-1.285-4.357-1.02l.182.91c1.489.05 2.419 1.478 3.957 1.416-.218.437.098 1.587-.87 1.127-1.005-.241-1.732-1.127-2.834-1.127-.132.244-.048.582-.072.871 1.162.182 1.998 1.165 3.16 1.346-.11.4-.218.846-.545 1.09-.945-.23-1.683-1.08-2.69-1.055l-.178.836c.956.025 1.573.87 2.433 1.125.023.352-.292.668-.473.982-.763-.229-1.345-.884-2.217-.836-.012-.328.183-.701.11-1.052-.98.29-1.636-.619-2.361-1.164-.02-1.786-1.9-2.958-2-4.63-.019-.334.032-.69.184-1.073.618-1.428.424-3.283-.254-4.615-.206-.35-.57-.627-.91-.833.497 1.054 1.103 2.3.8 3.595-.034 1-.625 1.961-.631 2.926a2.01 2.01 0 0 0 .268 1.035c.788 1.418 2.205 2.76 1.672 4.54-.146.546-.583.969-.692 1.525.922.763 1.793 1.623 3.015 1.671.436-.278.194-1.511 1.09-.942l1.308.654c-.095.35-.388.664-.654.905-.496-.241-.98-.53-1.6-.507-.182.194-.339.41-.325.689.436.072.835.255 1.199.51-.169.364-.498.592-.8.87l-1.016-.362c-.17.242-.521.497-.398.763.23.098.483.23.652.4-.448.485-1.016.797-1.562 1.125-.47-1.538-2.021-2.617-1.888-4.396l-.072-.072c-.365.41-.243 1.066-.22 1.597.437 1.115 1.477 1.975 1.635 3.197-.182.315-.593.377-.908.51.037-2.203-3.305-3.873-1.162-6.102.715-1.091 1.912-2.133 1.488-3.635-.436-1.45-1.976-2.35-1.963-3.975l.003-.127c.35-1.696 1.416-3.5.544-5.304-.243-.726-.786-1.55-1.524-1.854 1.1 1.26 1.537 3.317.907 5.013-.317.675-.754 1.479-.798 2.272h-.002c-.024.414.06.826.328 1.217.836 1.356 2.288 2.846 1.453 4.615-.945 1.416-2.591 2.856-1.672 4.721.666 1.114 1.696 2.226 1.418 3.596l-1.09.362c.727-2.554-2.833-4.055-1.343-6.61.92-1.368 2.566-2.652 1.635-4.468-.557-1.125-1.708-1.791-1.672-3.197l.04-.236c.375-1.994 1.89-3.882.83-6.013a3.787 3.787 0 0 0-1.452-1.635l-.037.038c1.235 1.199 1.611 3.17.945 4.756-.31.93-.993 1.857-1.132 2.854-.066.47-.01.957.262 1.47.787 1.247 2.166 2.569 1.305 4.18-.907 1.33-2.42 2.625-1.816 4.356.666 1.514 2.057 2.957 1.306 4.834L18.67 32c.895-1.83-.448-3.645-1.234-5.232-.957-2.277 2.056-3.367 2.104-5.448-.011-1.344-1.44-2.106-1.741-3.341-.618-.522-1.259.207-1.997.072-.546.11-1.384-.751-1.71.182-.387 1.367-2.154 2.372-1.377 3.995.738 1.441 2.516 2.495 1.922 4.36-.531 1.743-2.288 3.402-1.198 5.412-.448-.145-1.284.133-1.272-.582-.69-2.434 2.252-3.852 1.344-6.285-.423-1.49-2.35-2.313-1.926-4.105.314-1.475 1.969-2.506 1.737-4.122a2.38 2.38 0 0 0-.1-.418c-.618-1.744-1.878-3.488-1.127-5.523.207-.581.619-1.078.98-1.597-1.198.641-1.803 1.998-1.778 3.378-.052 1.501 1.056 2.787 1.214 4.16.062.554-.029 1.122-.416 1.724-.786 1.067-1.814 2.192-1.343 3.597.448 1.418 2.216 2.276 2.107 3.924-.012 1.949-2.276 3.162-1.635 5.341l-1.126-.365c-.448-1.937 1.61-2.928 1.634-4.72.29-2.06-2.337-2.825-2.18-4.834-.01-1.526 1.333-2.492 1.926-3.776a2.46 2.46 0 0 0 .122-.89c-.073-1.42-1.351-2.53-1.14-4.126.072-1.174.472-2.204 1.235-3.087-1.053.423-1.488 1.635-1.779 2.652-.504 1.631.7 3.099.821 4.56.054.646-.104 1.287-.711 1.943-.873 1.028-1.757 2.325-1.127 3.707.667 1.524 2.761 2.711 1.853 4.613-.496 1.198-1.683 2.106-1.634 3.522-.315-.133-.641-.266-.908-.507 0-1.804 2.565-2.93 1.343-4.832-.108.375-.132.885-.216 1.309-.425 1.102-1.332 1.985-1.672 3.124-.568-.219-1.162-.68-1.634-1.164l.654-.4c-.073-.243-.266-.449-.435-.655-.425-.06-.704.22-1.055.329-.302-.267-.594-.51-.836-.836.218-.62 1.915-.107 1.055-1.125-.58-.363-1.163.156-1.672.398l-.689-.87c.594-.364 1.185-.873 1.923-.727.182.327.195.809.545.98 1.247-.024 2.131-.968 3.087-1.707-.666-.991-1.209-2.36-.617-3.56.475-1.202 1.71-2.214 1.766-3.543a2.363 2.363 0 0 0-.166-.963c-.654-1.683-.884-3.958.363-5.448-.678.182-1.078 1.028-1.309 1.67-.75 1.643.199 3.166.232 4.741.004.284-.019.568-.087.854-.642 1.295-1.682 2.432-1.851 3.923-.739.471-1.346 1.295-2.398 1.017-.037.278.048.703.144 1.018-.835-.035-1.404.58-2.107.87-.374-.12-.471-.604-.616-.942.822-.278 1.416-1.103 2.36-1.09.11-.304-.061-.583-.11-.873-1.174-.522-3.037 2.578-3.193-.11 1.174-.072 1.924-1.162 3.087-1.271l.034-.87c-1.32-.134-2.168 1.223-3.487 1.09L.36 19.357c1.526.096 2.435-1.272 3.888-1.346.193-.253.216-.629.254-.98-1.586-.206-2.675 1.552-4.358 1.018l-.09-1.145h.002c-.011-.16-.022-.273-.022-.273 1.501.582 2.82-.496 4.104-1.053.327-.098.836.072.983-.29-.013-.28.495-.605.072-.8-1.877-.254-3.124 2.01-5.05.98L0 15.18C.4 9.706 3.486 4.415 8.607 1.811 10.681.626 13.257.022 15.856 0c3.136-.026 6.304.796 8.662 2.465 2.289 1.404 4.478 3.719 5.666 6.068 1.137 2.058 1.66 4.368 1.816 6.827-1.986 1.5-3.318-1.414-5.34-.762.108.316.168.642.4.908 1.792-.012 3.026 1.865 4.903 1.125l.001.274Zm-22.813-6.74c-1.259-.823-2.856-.047-4.03.401-.108-1.102-.556-2.107-1.49-2.833-.09-.045-.215-.14-.328-.147-.067-.004-.131.023-.181.11.423 2.602-1.269 4.419-2.468 6.393.4.326 1.04.278 1.525.182 1.27-.508 2.481-1.393 3.995-1.09.447-.763 1.2-1.502 1.816-2.107.377-.326.894-.533 1.161-.908Zm3.851 1.636c-.024.156.012.436.254.328.376-.52 1.041-.109 1.453-.072v-.147c-.226-.354-.69-.533-1.162-.515-.109.004-.22.02-.326.045a.282.282 0 0 0-.219.36Zm5.92-1.56c-.338-.751-1.113-1.055-1.816-1.237a9.442 9.442 0 0 0-1.057-.074c-.067-.001-.133-.002-.2 0-.992.02-1.94.274-2.52 1.091-.082.231-.448.555-.109.762.763-.049 1.634-.145 2.142.51 0 .582.376 1.356-.254 1.635-.52-.483-1.138.205-1.706-.183-.266-.157-.435.027-.545.257-.157 1.501.629 3.158 2.033 3.993.569.205 1.334.4 1.928.11 1.428-.666 2.02-2.19 2.286-3.596-.036-.267-.023-.788-.398-.8-.423.267-1.041.109-1.49 0-.265.085-.277.473-.58.547l-.183-.147c-.158-.665-.255-1.61.363-2.07.69-.278 1.502-.4 2.216-.182.133-.23-.073-.41-.11-.616Zm-.729 1.194c-.048 0-.094.003-.142.005-.253.169-.993.047-.726.617.46-.365 1.102-.11 1.562.072.17-.085.134-.254.145-.4-.148-.275-.5-.301-.839-.294Zm5.272-5.12c-.896-.048-1.647.461-2.47.691-.072-.7.46-1.44.582-2.144-1.332.086-2.386.887-3.488 1.527-.255-.616-.51-1.235-.763-1.853l1.453-1.38.037-.183-1.963-.109c-.338-.592-.47-1.306-.87-1.85-.327.617-.547 1.27-.874 1.887l-1.96.11v.144L14.637 4.5c-.182.69-.35 1.44-.798 1.962-.872-.522-1.731-1.09-2.687-1.453-.23-.074-.558-.195-.764-.037.303.666.726 1.383.655 2.11-.4-.074-.714-.33-1.09-.438-.449-.122-.982-.362-1.418-.216.727 1.016 1.32 2.08 1.525 3.304 2.41-1.164 5.221-1.804 8.14-1.306 1.367.217 2.625.774 3.848 1.233.047-1.282.859-2.313 1.417-3.343Zm4.139 6.975c1.234.327 2.472 1.672 3.778.8-1.138-1.89-2.832-3.633-2.36-6.103.049-.169-.06-.34-.217-.364-.738.302-1.31 1.03-1.602 1.745-.12.423-.191.872-.36 1.27-.885-.46-1.828-.906-2.906-.798-.389.049-.946.074-1.017.473 1.222.654 2.228 1.744 2.977 2.906.522-.085 1.162-.013 1.707.072Zm-12.93 1.707.035.22c.473.314.618.849 1.273.8.58.035 1.017-.51 1.306-.945-.786-.109-1.742.06-2.614-.075Zm.654-.98c.023.097-.06.242.072.291.387-.084 1.09.207 1.306-.253-.152-.17-.398-.247-.657-.247s-.527.076-.721.21Z"/><path d="M15.165 14.18c.343.081.428.203.699.237.288-.005.246-.064.75-.237.032-.012.077-.085.021-.14-.312-.31-.528-.089-.723-.083-.26.003-.503-.222-.757.07-.043.06-.066.118.01.153Z"/></g><defs><clipPath id="a"><path fill="#fff" d="M0 0h32v32H0z"/></clipPath></defs></svg>
