<svg width="28" height="28" viewBox="0 0 28 28" fill="none" xmlns="http://www.w3.org/2000/svg">
    <path fill-rule="evenodd" clip-rule="evenodd" d="M9.38492 3.04282C9.13902 3.06329 8.88592 3.08833 8.82246 3.09848C8.62975 3.12929 8.13132 3.24521 7.95713 3.29971C7.89367 3.31957 7.78335 3.35292 7.71196 3.37382C7.64057 3.39471 7.56984 3.42253 7.55476 3.43561C7.5397 3.4487 7.51033 3.45942 7.48954 3.45942C7.37309 3.45942 6.50733 3.90031 6.11122 4.16133C5.92079 4.28679 5.75848 4.39747 5.75055 4.40721C5.74262 4.41698 5.67772 4.46984 5.60633 4.52472C5.27918 4.77617 4.76076 5.29419 4.50912 5.62109C4.4542 5.69243 4.4013 5.75728 4.39152 5.7652C4.38177 5.77313 4.27101 5.93531 4.14545 6.1256C3.88424 6.52141 3.44301 7.38652 3.44301 7.50287C3.44301 7.52365 3.43228 7.55297 3.41918 7.56804C3.40609 7.58309 3.37825 7.65379 3.35734 7.72512C3.33643 7.79646 3.30306 7.9067 3.28318 7.97011C3.25044 8.07459 3.19674 8.29122 3.12598 8.6042C3.08329 8.79293 3.03919 9.15658 3.01063 9.55473C2.97605 10.0371 3.02878 10.8144 3.12601 11.2559C3.22818 11.7196 3.33591 12.1088 3.41324 12.2935C3.42651 12.3252 3.46704 12.4289 3.50326 12.524C3.61729 12.8234 3.8982 13.3592 4.10712 13.676C4.21779 13.8438 4.30834 13.9933 4.30834 14.0084C4.30834 14.0234 4.21779 14.173 4.10712 14.3408C3.8982 14.6576 3.61729 15.1934 3.50326 15.4927C3.46704 15.5878 3.42651 15.6916 3.41324 15.7233C3.33608 15.9076 3.23412 16.2755 3.12566 16.7609C3.08329 16.9506 3.03907 17.3148 3.01138 17.7021C2.97674 18.1866 3.03013 18.9811 3.12633 19.4126C3.19033 19.6996 3.24995 19.9406 3.28318 20.0467C3.30306 20.1101 3.33643 20.2203 3.35734 20.2917C3.37825 20.363 3.40609 20.4337 3.41918 20.4487C3.43228 20.4638 3.44301 20.4931 3.44301 20.5139C3.44301 20.6303 3.88424 21.4954 4.14545 21.8912C4.27101 22.0815 4.38177 22.2436 4.39152 22.2516C4.4013 22.2595 4.4542 22.3243 4.50912 22.3957C4.76076 22.7226 5.27918 23.2406 5.60633 23.4921C5.67772 23.5469 5.74262 23.5998 5.75055 23.6096C5.75848 23.6193 5.92079 23.73 6.11122 23.8554C6.50733 24.1165 7.37309 24.5574 7.48954 24.5574C7.51033 24.5574 7.53967 24.5681 7.55476 24.5812C7.56981 24.5942 7.64057 24.6221 7.71196 24.643C7.78335 24.6639 7.89367 24.6972 7.95713 24.7171C8.06328 24.7503 8.3045 24.8098 8.59171 24.8738C9.02766 24.9708 9.81058 25.024 10.2941 24.9894C10.6904 24.961 11.0545 24.917 11.2454 24.8745C11.7312 24.7661 12.0994 24.6642 12.2838 24.5871C12.3155 24.5738 12.4193 24.5333 12.5145 24.4971C12.8141 24.3832 13.3503 24.1025 13.6673 23.8937C13.8352 23.7832 13.9849 23.6927 14 23.6927C14.0151 23.6927 14.1648 23.7832 14.3327 23.8937C14.6497 24.1025 15.1859 24.3832 15.4855 24.4971C15.5807 24.5333 15.6845 24.5738 15.7162 24.5871C15.9006 24.6642 16.2688 24.7661 16.7546 24.8745C16.9455 24.917 17.3096 24.961 17.7059 24.9894C18.1894 25.024 18.9723 24.9708 19.4083 24.8738C19.6955 24.8098 19.9367 24.7503 20.0429 24.7171C20.1063 24.6972 20.2167 24.6639 20.288 24.643C20.3594 24.6221 20.4302 24.5942 20.4452 24.5812C20.4603 24.5681 20.4897 24.5574 20.5105 24.5574C20.6269 24.5574 21.4927 24.1165 21.8888 23.8554C22.0792 23.73 22.2415 23.6193 22.2495 23.6096C22.2574 23.5998 22.3223 23.5469 22.3937 23.4921C22.7208 23.2406 23.2392 22.7226 23.4909 22.3957C23.5458 22.3243 23.5987 22.2595 23.6085 22.2516C23.6182 22.2436 23.729 22.0815 23.8545 21.8912C24.1158 21.4954 24.557 20.6303 24.557 20.5139C24.557 20.4931 24.5677 20.4638 24.5808 20.4487C24.5939 20.4337 24.6217 20.363 24.6427 20.2917C24.6636 20.2203 24.6969 20.1101 24.7168 20.0467C24.75 19.9406 24.8097 19.6996 24.8737 19.4126C24.9699 18.9811 25.0233 18.1866 24.9886 17.7021C24.9609 17.3148 24.9167 16.9506 24.8743 16.7609C24.7659 16.2755 24.6639 15.9076 24.5868 15.7233C24.5735 15.6916 24.533 15.5878 24.4967 15.4927C24.3827 15.1934 24.1018 14.6576 23.8929 14.3408C23.7822 14.173 23.6917 14.0234 23.6917 14.0084C23.6917 13.9933 23.7822 13.8438 23.8929 13.676C24.1018 13.3592 24.3827 12.8234 24.4967 12.524C24.533 12.4289 24.5735 12.3252 24.5868 12.2935C24.6641 12.1088 24.7718 11.7196 24.874 11.2559C24.9712 10.8144 25.024 10.0371 24.9894 9.55473C24.9608 9.15658 24.9167 8.79293 24.874 8.6042C24.8033 8.29122 24.7496 8.07459 24.7168 7.97011C24.6969 7.9067 24.6636 7.79646 24.6427 7.72512C24.6217 7.65379 24.5939 7.58311 24.5808 7.56804C24.5677 7.55299 24.557 7.52365 24.557 7.50287C24.557 7.38652 24.1158 6.52141 23.8545 6.1256C23.729 5.93531 23.6182 5.77313 23.6085 5.7652C23.5987 5.75728 23.5458 5.69243 23.4909 5.62109C23.2392 5.29419 22.7208 4.77617 22.3937 4.52472C22.3223 4.46984 22.2574 4.41698 22.2495 4.40721C22.2415 4.39747 22.0792 4.28679 21.8888 4.16133C21.4927 3.90031 20.6269 3.45942 20.5105 3.45942C20.4897 3.45942 20.4603 3.4487 20.4452 3.43561C20.4302 3.42253 20.3594 3.39471 20.288 3.37382C20.2167 3.35292 20.1063 3.31957 20.0429 3.29971C19.9367 3.26651 19.6955 3.20694 19.4083 3.14298C18.9765 3.04686 18.1814 2.99351 17.6965 3.02812C17.3089 3.05579 16.9444 3.09998 16.7546 3.14232C16.2688 3.25069 15.9006 3.35257 15.7162 3.42967C15.6845 3.44293 15.5807 3.48343 15.4855 3.51963C15.1859 3.63356 14.6497 3.91426 14.3327 4.12302C14.1648 4.23362 14.0151 4.32409 14 4.32409C13.9849 4.32409 13.8352 4.23362 13.6673 4.12302C13.3503 3.91426 12.8141 3.63356 12.5145 3.51963C12.4193 3.48343 12.3155 3.44293 12.2838 3.42967C12.099 3.3524 11.7095 3.24475 11.2454 3.14266C10.99 3.08649 9.98702 2.98466 9.85921 3.00195C9.84427 3.00397 9.63082 3.02236 9.38492 3.04282ZM10.3224 5.34786C10.6981 5.3736 10.9566 5.42718 11.3896 5.5691C11.622 5.64525 12.0982 5.85775 12.2117 5.93586C12.2466 5.95996 11.6522 6.56811 9.11096 9.10796C7.38178 10.8362 5.95794 12.2502 5.94692 12.2502C5.93587 12.2502 5.8618 12.1173 5.78231 11.9548C5.29331 10.9552 5.18909 9.92337 5.45988 8.76272C5.53124 8.45689 5.76292 7.90613 5.9691 7.55219C6.10383 7.32092 6.43003 6.90916 6.66269 6.67665C7.26083 6.07896 7.92457 5.70644 8.8513 5.44825C9.08546 5.38299 9.79719 5.30258 9.97623 5.32111C10.0238 5.32607 10.1796 5.33809 10.3224 5.34786ZM18.4853 5.34915C18.7165 5.36567 18.933 5.40126 19.2497 5.47485C19.555 5.54578 20.1068 5.77748 20.4611 5.98359C20.6926 6.11822 21.1046 6.44417 21.3373 6.67665C21.57 6.90916 21.8962 7.32092 22.0309 7.55219C22.2371 7.90613 22.4688 8.45689 22.5401 8.76272C22.8806 10.2222 22.6205 11.5361 21.7582 12.7114C21.5034 13.0587 13.0496 21.5061 12.702 21.7607C11.5258 22.6223 10.2109 22.8823 8.75035 22.542C8.44428 22.4707 7.8931 22.2392 7.53889 22.0332C7.30744 21.8986 6.89538 21.5726 6.66269 21.3401C6.43003 21.1076 6.10383 20.6959 5.9691 20.4646C5.76292 20.1106 5.53124 19.5599 5.45988 19.254C5.11938 17.7946 5.37952 16.4807 6.24182 15.3054C6.4966 14.9581 14.9504 6.51069 15.298 6.25611C15.9164 5.80313 16.5608 5.52347 17.2882 5.39247C17.5185 5.35103 18.0217 5.30903 18.1391 5.32146C18.1867 5.3265 18.3425 5.33898 18.4853 5.34915ZM14.3317 10.9385C13.9888 11.0256 13.7735 11.1206 13.5001 11.3058C13.2812 11.454 11.4437 13.2902 11.2954 13.5089C11.0127 13.9257 10.8876 14.3204 10.8859 14.801C10.8838 15.3632 11.0566 15.8606 11.3972 16.2736C12.0252 17.035 13.0215 17.3144 13.9567 16.9914C14.3907 16.8415 14.564 16.7011 15.6294 15.6365C16.533 14.7336 16.735 14.5051 16.877 14.2246C17.1425 13.7003 17.1881 13.0576 17.0026 12.4546C16.9445 12.2659 16.7534 11.9257 16.6028 11.7432C16.1397 11.1817 15.5119 10.8911 14.7788 10.8988C14.6122 10.9005 14.411 10.9184 14.3317 10.9385ZM22.2177 16.062C22.7067 17.0615 22.8109 18.0934 22.5401 19.254C22.4688 19.5599 22.2371 20.1106 22.0309 20.4646C21.8962 20.6959 21.57 21.1076 21.3373 21.3401C21.1046 21.5726 20.6926 21.8986 20.4611 22.0332C20.1069 22.2392 19.5557 22.4707 19.2497 22.542C18.104 22.8089 17.0596 22.7081 16.0912 22.237C15.9484 22.1675 15.8121 22.0973 15.7883 22.0809C15.7534 22.0568 16.3478 21.4487 18.889 18.9088C20.6182 17.1806 22.0421 15.7665 22.0531 15.7665C22.0641 15.7665 22.1382 15.8995 22.2177 16.062Z" fill="currentColor"/>
</svg>
