<svg width="28" height="28" viewBox="0 0 28 28" fill="none" xmlns="http://www.w3.org/2000/svg">
    <path fill-rule="evenodd" clip-rule="evenodd" d="M12.0117 3.16117C9.53399 3.6169 7.03958 5.03417 5.51211 6.85342C2.18591 10.8157 2.16025 16.4515 5.45027 20.4206C7.02571 22.3214 9.5163 23.7523 11.9718 24.1674L12.5695 24.2685V22.8974V21.5266L11.7202 21.344C8.92055 20.7421 6.34167 17.8862 5.84919 14.8431C5.20706 10.8742 7.88061 6.96873 11.9529 5.92741C14.6758 5.23095 17.6654 6.02603 19.7536 8.00194C21.0064 9.18736 21.7037 10.4509 22.0776 12.2127C22.6769 15.037 21.4862 18.1228 19.0969 19.9373C18.3561 20.5 17.8289 20.8017 17.8289 20.8017V19.0277V17.4964H16.4742H15.1195V21.2482V25H19.343H23.5665V23.6218V22.2436L22.0923 22.2405L20.618 22.2376L21.2858 21.6995C22.2187 20.9479 23.3617 19.452 23.971 18.1855C26.4978 12.9334 24.2104 6.62249 18.8685 4.10831C16.7621 3.11676 14.1865 2.76103 12.0117 3.16117Z" fill="currentColor"/>
</svg>
