<svg width="120" height="120" viewBox="0 0 120 120" xmlns="http://www.w3.org/2000/svg" xmlns:xlink="http://www.w3.org/1999/xlink"><title>66F38F9D-6971-4CFC-A8F6-E7A0D50E6389</title><defs><path d="M37 32.998A2.994 2.994 0 0 1 39.996 30h54.008A2.999 2.999 0 0 1 97 32.998v67.004A2.994 2.994 0 0 1 94.004 103H39.996A2.999 2.999 0 0 1 37 100.002V32.998z" id="b"/><filter x="-50%" y="-50%" width="200%" height="200%" filterUnits="objectBoundingBox" id="a"><feOffset dx="1" dy="2" in="SourceAlpha" result="shadowOffsetOuter1"/><feColorMatrix values="0 0 0 0 0.693 0 0 0 0 0.87585 0 0 0 0 0.9 0 0 0 0.503962862 0" in="shadowOffsetOuter1"/></filter><rect id="c" x="44" y="73" width="46" height="6" rx="3"/><rect id="d" x="44" y="63" width="46" height="6" rx="3"/><rect id="e" x="44" y="53" width="46" height="6" rx="3"/><path d="M15 9.99C15 8.34 16.34 7 18.002 7h47.092L81 23.156v60.85A3.002 3.002 0 0 1 77.993 87H18.007A2.999 2.999 0 0 1 15 84.01V9.99z" id="g"/><filter x="-50%" y="-50%" width="200%" height="200%" filterUnits="objectBoundingBox" id="f"><feOffset dx="1" dy="2" in="SourceAlpha" result="shadowOffsetOuter1"/><feColorMatrix values="0 0 0 0 0.693 0 0 0 0 0.87585 0 0 0 0 0.9 0 0 0 0.503962862 0" in="shadowOffsetOuter1"/></filter><rect id="h" x="25" y="53" width="46" height="6" rx="3"/><rect id="i" x="25" y="43" width="46" height="6" rx="3"/><rect id="j" x="25" y="33" width="46" height="6" rx="3"/><rect id="k" x="25" y="63" width="24" height="6" rx="3"/></defs><g fill="none" fill-rule="evenodd"><rect fill="#D9F2F4" width="120" height="120" rx="60"/><use fill="#000" filter="url(#a)" xlink:href="#b"/><use fill="#FCFCFC" xlink:href="#b"/><g opacity=".705"><use fill="#DDE9EB" xlink:href="#c"/><use fill="#79D6D9" xlink:href="#c"/></g><g opacity=".705"><use fill="#DDE9EB" xlink:href="#d"/><use fill="#79D6D9" xlink:href="#d"/></g><g opacity=".705"><use fill="#DDE9EB" xlink:href="#e"/><use fill="#79D6D9" xlink:href="#e"/></g><use fill="#000" filter="url(#f)" xlink:href="#g"/><use fill="#FCFCFC" xlink:href="#g"/><use fill="#DDE9EB" xlink:href="#h"/><use fill="#79D6D9" xlink:href="#h"/><use fill="#DDE9EB" xlink:href="#i"/><use fill="#79D6D9" xlink:href="#i"/><g><use fill="#DDE9EB" xlink:href="#j"/><use fill="#79D6D9" xlink:href="#j"/></g><g><use fill="#DDE9EB" xlink:href="#k"/><use fill="#79D6D9" xlink:href="#k"/></g><path d="M65 7l16 16H68.01A3.003 3.003 0 0 1 65 19.99V7z" fill="#BAE9EA"/></g></svg>