<svg xmlns="http://www.w3.org/2000/svg" width="1990" height="1543" fill="none"><path stroke="#CCF0F7" d="M343.5 1154.42V478.576c0-15.051 8.312-28.968 21.819-36.501l605.849-337.924-.243-.437.243.437c13.509-7.535 30.152-7.535 43.662 0l.25-.437-.25.437 605.85 337.924c13.51 7.533 21.82 21.45 21.82 36.501v675.844c0 15.05-8.31 28.97-21.82 36.51l-605.85 337.92c-13.51 7.53-30.153 7.53-43.662 0l-605.849-337.92c-13.507-7.54-21.819-21.46-21.819-36.51Z"/><path fill="url(#a)" d="M0 0h1990v527L0 806V0Z"/><mask id="c" width="1990" height="806" x="0" y="0" maskUnits="userSpaceOnUse" style="mask-type:alpha"><path fill="url(#b)" d="M0 0h1990v527L0 806V0Z"/></mask><g mask="url(#c)"><g filter="url(#d)"><path fill="url(#e)" fill-opacity=".3" d="M1058.87 817.37c456.53-174.582 307.23 149.521 585.6 180.671 278.37 31.149 491.56-305.271-126.62-559.318C899.663 184.676 278.685 1115.72 1058.87 817.37Z"/></g><g filter="url(#f)" opacity=".6"><path fill="url(#g)" d="M910.074-111.272c110.316 224.67 377.886-73.207 621.876 331.835 243.99 405.042 707.87-149.99 175.49-515.525-532.38-365.534-928.515-83.417-797.366 183.69Z"/></g><g filter="url(#h)" opacity=".6"><path fill="url(#i)" d="M430.654 2.42c393.192 40.799 709.776-385.478 840.466-194.487C1401.81-1.077 750.056-44.916 275.054 428.328-199.947 901.571-241.284-67.303 430.654 2.42Z"/></g><path fill="url(#j)" d="M1469 62.83V-116.83c0-4.051 2.24-7.794 5.88-9.819l161.24-89.831a12.142 12.142 0 0 1 11.76 0l161.24 89.831c3.64 2.025 5.88 5.768 5.88 9.819V62.831c0 4.05-2.24 7.794-5.88 9.82l-161.24 89.83a12.142 12.142 0 0 1-11.76 0l-161.24-89.83c-3.64-2.026-5.88-5.77-5.88-9.82Z" opacity=".1"/><path fill="url(#k)" d="M-131-2.16V-355.84c0-7.974 4.415-15.343 11.581-19.33l317.838-176.84c7.166-3.987 15.996-3.987 23.162 0l317.838 176.84c7.166 3.987 11.581 11.356 11.581 19.33V-2.16c0 7.974-4.415 15.343-11.581 19.33L221.581 194.01c-7.166 3.987-15.996 3.987-23.162 0L-119.419 17.17C-126.585 13.183-131 5.814-131-2.16Z" opacity=".1"/><path fill="url(#l)" d="M343 1153.72V478.964c0-15.214 8.415-29.272 22.075-36.879l605.85-337.38c13.66-7.607 30.495-7.607 44.155 0l605.84 337.38c13.66 7.607 22.08 21.665 22.08 36.879V1153.72c0 15.22-8.42 29.28-22.08 36.88l-605.84 337.38c-13.66 7.61-30.495 7.61-44.155 0l-605.85-337.38c-13.66-7.6-22.075-21.66-22.075-36.88Z" opacity=".1"/></g><defs><linearGradient id="a" x1="-899" x2="1871.74" y1="876" y2="-82.754" gradientUnits="userSpaceOnUse"><stop stop-color="#0081A7"/><stop offset="1" stop-color="#0081A7"/></linearGradient><linearGradient id="b" x1="0" x2="1926.16" y1="539" y2="21.42" gradientUnits="userSpaceOnUse"><stop stop-color="#1B45B4"/><stop offset="1" stop-color="#1C2792"/></linearGradient><linearGradient id="e" x1="530.182" x2="1589.11" y1="914.532" y2="294.494" gradientUnits="userSpaceOnUse"><stop stop-color="#fff"/><stop offset="1" stop-color="#99E1EE"/></linearGradient><linearGradient id="g" x1="544.409" x2="1814.7" y1="3.265" y2="-344.894" gradientUnits="userSpaceOnUse"><stop stop-color="#0081A7"/><stop offset="1" stop-color="#66D2E6"/></linearGradient><linearGradient id="i" x1="-487.899" x2="651.289" y1="231.906" y2="951.263" gradientUnits="userSpaceOnUse"><stop stop-color="#0081A7"/><stop offset="1" stop-color="#66D2E6"/></linearGradient><linearGradient id="j" x1="1643.05" x2="1942.72" y1="259.5" y2="69.456" gradientUnits="userSpaceOnUse"><stop offset=".5" stop-color="#0081A7"/><stop offset="1" stop-color="#7AEAFF"/></linearGradient><linearGradient id="k" x1="212.067" x2="802.32" y1="385" y2="10.201" gradientUnits="userSpaceOnUse"><stop offset=".5" stop-color="#0081A7"/><stop offset="1" stop-color="#7AEAFF"/></linearGradient><linearGradient id="l" x1="1728.5" x2="1800.38" y1="1444" y2="-158.114" gradientUnits="userSpaceOnUse"><stop stop-color="#CAF7FF"/><stop offset="1" stop-color="#0081A7"/></linearGradient><filter id="d" width="1594.4" height="975.783" x="508.736" y="209.273" color-interpolation-filters="sRGB" filterUnits="userSpaceOnUse"><feFlood flood-opacity="0" result="BackgroundImageFix"/><feBlend in="SourceGraphic" in2="BackgroundImageFix" result="shape"/><feGaussianBlur result="effect1_foregroundBlur_1222_28687" stdDeviation="92.5"/></filter><filter id="f" width="1337.99" height="1101.56" x="749.799" y="-604.252" color-interpolation-filters="sRGB" filterUnits="userSpaceOnUse"><feFlood flood-opacity="0" result="BackgroundImageFix"/><feBlend in="SourceGraphic" in2="BackgroundImageFix" result="shape"/><feGaussianBlur result="effect1_foregroundBlur_1222_28687" stdDeviation="67.5"/></filter><filter id="h" width="1636.42" height="1070.63" x="-213.32" y="-376.555" color-interpolation-filters="sRGB" filterUnits="userSpaceOnUse"><feFlood flood-opacity="0" result="BackgroundImageFix"/><feBlend in="SourceGraphic" in2="BackgroundImageFix" result="shape"/><feGaussianBlur result="effect1_foregroundBlur_1222_28687" stdDeviation="67.5"/></filter></defs></svg>
