<svg xmlns="http://www.w3.org/2000/svg" width="83" height="24" fill="none"><g clip-path="url(#a)"><path fill="#fff" d="M14.282 22.718a5725.53 5725.53 0 0 0 7.28-1.293l.068-.014-3.744-4.47a636.973 636.973 0 0 1-3.745-4.492c0-.023 3.867-10.71 3.888-10.748.008-.012 2.639 4.547 6.379 11.053l6.415 11.16.049.086-11.901-.002-11.9-.001 7.21-1.279Zm45.637-1.08c-1.812-.117-2.865-1.153-3.144-3.09-.075-.516-.075-.53-.082-3.876l-.008-3.24H58.288l.007 3.134c.005 2.824.01 3.155.036 3.353.11.806.326 1.348.697 1.738.296.31.642.493 1.122.59.226.046.87.046 1.077 0 .486-.107.876-.32 1.22-.665.392-.393.682-.951.822-1.582l.048-.213.005-3.16.005-3.159h1.637v9.934h-1.62v-.788c0-.536-.006-.786-.018-.782a.65.65 0 0 0-.093.142 3.3 3.3 0 0 1-1.253 1.26c-.611.337-1.224.457-2.061.403Zm18.387-.009a4.237 4.237 0 0 1-1.864-.61c-1.16-.72-1.846-1.908-2.047-3.541a8.594 8.594 0 0 1-.02-1.805c.13-1.073.55-2.127 1.149-2.88.153-.192.501-.541.693-.695a4.312 4.312 0 0 1 1.77-.848 5.727 5.727 0 0 1 1.435-.084 3.77 3.77 0 0 1 2.544 1.312c.634.757.983 1.815 1.027 3.117.007.205.01.562.004.796l-.009.424-3.509.005-3.508.004v.157c0 .478.115 1.023.316 1.487.173.4.47.836.713 1.048.5.433 1.11.692 1.78.755.247.023.88-.002 1.162-.045a4.916 4.916 0 0 0 2.191-.907 5.51 5.51 0 0 1 .155-.114c.018-.012.022.132.022.733v.748l-.167.103c-.7.434-1.502.713-2.351.818-.253.031-1.183.045-1.486.022Zm3.053-6.306c0-.801-.336-1.691-.812-2.15a2.23 2.23 0 0 0-1.24-.603 3.648 3.648 0 0 0-.96.028 2.51 2.51 0 0 0-1.313.7 3.593 3.593 0 0 0-.869 1.395c-.066.193-.143.51-.168.686l-.01.084h5.372v-.14ZM33.763 21.38l2.647-6.982 2.64-6.96h1.697l.07.181c.216.554 5.287 13.768 5.287 13.774 0 .005-.407.009-.903.009H44.3l-.731-1.954-.731-1.953h-5.885l-.026.067c-.014.036-.326.915-.694 1.953l-.668 1.886h-.904c-.716 0-.903-.004-.897-.021Zm8.537-5.375c0-.003-.492-1.341-1.093-2.974-1.125-3.054-1.188-3.238-1.276-3.728-.042-.23-.063-.236-.088-.026-.018.15-.094.485-.153.671-.03.092-.536 1.488-1.126 3.1a472.93 472.93 0 0 0-1.072 2.948c0 .008 1.082.015 2.404.015 1.322 0 2.404-.003 2.404-.006Zm4.35 5.142v-.254l2.931-4.045 2.932-4.045-2.654-.01-2.655-.008-.004-.676-.005-.676h7.679v.457l-2.933 4.067a1313.01 1313.01 0 0 0-2.932 4.075c0 .005 1.304.009 2.897.009h2.897v1.36H46.65v-.254Zm21.513.243c-.006-.006-.011-2.25-.011-4.985v-4.972h1.602v1.025c0 .564.007 1.025.015 1.025a.918.918 0 0 0 .087-.205c.18-.517.493-1 .895-1.384a2.317 2.317 0 0 1 1.266-.631c.138-.023.254-.027.528-.02.345.01.526.035.736.104l.066.021v1.67l-.19-.095a2.015 2.015 0 0 0-1.06-.214 2.008 2.008 0 0 0-1.644.952 4.82 4.82 0 0 0-.67 1.934c-.014.118-.022 1.082-.025 2.98l-.004 2.807h-.79c-.434 0-.794-.006-.8-.012ZM0 21.355c0-.006 1.764-3.08 3.92-6.832l3.922-6.82 4.57-3.848C14.923 1.738 16.986.003 16.995 0a.809.809 0 0 1-.074.186L11.96 10.867l-4.873 10.49-3.543.005c-1.95.003-3.544 0-3.544-.007Z"/></g><defs><clipPath id="a"><path fill="#fff" d="M0 0h83v24H0z"/></clipPath></defs></svg>
