<svg xmlns="http://www.w3.org/2000/svg" width="37" height="36" fill="none"><g fill="#fff" clip-path="url(#a)"><path d="M18.43 2.052A15.89 15.89 0 0 0 7.154 6.727a15.881 15.881 0 0 0-4.672 11.275c0 4.401 1.785 8.388 4.672 11.27a15.906 15.906 0 0 0 11.276 4.674c4.403 0 8.392-1.788 11.274-4.673a15.877 15.877 0 0 0 4.667-11.27c0-4.405-1.78-8.394-4.667-11.276A15.878 15.878 0 0 0 18.43 2.052Zm0-1.932c9.873 0 17.879 8.006 17.879 17.882 0 9.873-8.006 17.878-17.88 17.878C8.559 35.88.55 27.874.55 18.002.549 8.126 8.558.12 18.429.12Z"/><path d="M9.974 17.856c0-1.042-.692-1.634-1.67-1.634h-.6v3.27h.583c.91 0 1.687-.495 1.687-1.636Zm10.656 1.176-4.413 3.476-4.034-3.176c-.582 1.398-1.988 2.37-3.608 2.37H5.123v-7.69h3.452a3.87 3.87 0 0 1 3.607 2.376l4.035-3.172 1.494 1.176-3.698 2.907.71.556 3.697-2.905 1.497 1.173-3.697 2.91.71.557 3.7-2.91V14.01h2.683v5.446h2.675v2.254H20.63v-2.678Zm8.757.426h2.675v2.253h-5.36v-7.7h2.685v5.447Z"/></g><defs><clipPath id="a"><path fill="#fff" d="M.43 0h36v36h-36z"/></clipPath></defs></svg>
