<svg xmlns="http://www.w3.org/2000/svg" width="84" height="20" fill="none"><path fill="#fff" fill-rule="evenodd" d="M80.75 4.158V6.59c-1.218-.476-2.303-.716-3.253-.716-.563 0-1.01.107-1.347.316-.337.21-.51.468-.51.774 0 .406.381.766 1.147 1.09l2.212 1.113c1.788.882 2.675 2.053 2.675 3.524 0 1.223-.47 2.198-1.42 2.92-.943.729-2.212 1.09-3.792 1.09-.73 0-1.384-.033-1.966-.1a14.753 14.753 0 0 1-1.991-.389v-2.546c1.36.476 2.598.716 3.712.716 1.33 0 1.992-.398 1.992-1.203 0-.4-.271-.724-.822-.977l-2.456-1.083c-.907-.424-1.58-.937-2.022-1.546-.434-.614-.654-1.318-.654-2.123 0-1.126.458-2.033 1.365-2.722.913-.684 2.125-1.027 3.632-1.027.49 0 1.054.045 1.68.127.63.088 1.235.196 1.819.329ZM11.165 4.158V6.59c-1.219-.476-2.302-.716-3.252-.716-.564 0-1.01.107-1.348.316-.336.21-.508.468-.508.774 0 .406.385.766 1.15 1.09L9.42 9.168c1.781.882 2.67 2.053 2.67 3.524 0 1.223-.472 2.198-1.415 2.92-.95.729-2.212 1.09-3.797 1.09-.73 0-1.386-.033-1.967-.1a14.883 14.883 0 0 1-1.99-.389v-2.546c1.365.476 2.603.716 3.71.716 1.33 0 1.992-.398 1.992-1.203 0-.4-.27-.724-.814-.977L5.352 11.12c-.914-.424-1.587-.937-2.021-1.546-.441-.614-.657-1.318-.657-2.123 0-1.126.455-2.033 1.367-2.722.906-.684 2.12-1.027 3.627-1.027.495 0 1.052.045 1.684.127.625.088 1.231.196 1.813.329ZM13.7 3.93h3.603v12.543H13.7V3.93ZM28.91 3.93v2.318h-5.352V9.03H28.2v2.09h-4.643v2.92h5.462v2.433h-8.93V3.93h8.82ZM45.73 3.93v12.543h-3.363V8.2l-3.49 8.388h-2.076L33.444 8.2v8.273h-2.432V3.93h4.398l3.002 7.68 3.141-7.68h4.178ZM57.333 3.93v2.318h-5.324V9.03h4.643v2.09h-4.643v2.92h5.433v2.433h-8.93V3.93h8.82ZM69.975 3.93v12.543h-3.822l-4.288-8.045v8.045h-2.431V3.93h3.933l4.177 7.907V3.93h2.43Z" clip-rule="evenodd"/></svg>
