<svg width="30" height="30" viewBox="0 0 30 30" xmlns="http://www.w3.org/2000/svg"><title>0A48BC30-CFF3-4484-89ED-8D291E47957C</title><g fill="none" fill-rule="evenodd"><path fill="#D9F2F4" fill-rule="nonzero" d="M15 3.223h-1v24.71L18 30l8-4.133v-4.134l4-1.807v-9.95l-4-2.15v-3.57L18 .124 14 2.19v1.033z"/><path fill="#D9F2F4" fill-rule="nonzero" d="M14.99 3.176h1l.01 9.257v15.5L12 30l-8-4.133v-4.134l-4-1.807v-9.95l4-2.15-.01-3.617 8-4.133 4 2.066v1.034z"/><path fill="#79D6D9" fill-rule="nonzero" d="M16 2L12 .104 6.918 2.541 4 4v4l-4 2v10l4 2v4l8 4 4-2V2l-1 1v24l-3 1.542L5 25v-4l-4-2v-8l4-2.06V5l7-3.394L15 3z"/><path fill="#79D6D9" fill-rule="nonzero" d="M9 8v3l-3 2v4l3 2v3l-1 1 1 1 1-1v-5l-3-2v-2l3-2V7L9 6 8 7zM21 8v3l3 2v4l-3 2v3l1 1-1 1-1-1v-5l3-2v-2l-3-2V7l1-1 1 1z"/><path fill="#79D6D9" fill-rule="nonzero" d="M15 3.1l3-1.327 7 3.394v3.789l4 1.993v7.684L25 20.7v4.133l-7 3.563-3-1.496V3.1h-1v24.833L18 30l8-4.133v-4.134l4-1.807v-9.95l-4-2.15V4.133L18 .21l-4 1.857V3.1z"/><circle fill="#79D6D9" cx="20.5" cy="6.5" r="1.5"/><circle fill="#79D6D9" cx="20.5" cy="23.5" r="1.5"/><circle fill="#79D6D9" cx="9.5" cy="6.5" r="1.5"/><circle fill="#79D6D9" cx="9.5" cy="23.5" r="1.5"/><rect fill="#79D6D9" y="14" width="3" height="2" rx="1"/><rect fill="#79D6D9" x="12" y="14" width="6" height="2" rx="1"/><rect fill="#79D6D9" x="27" y="14" width="3" height="2" rx="1"/></g></svg>