<svg width="16" height="16" viewBox="0 0 16 16" fill="none" xmlns="http://www.w3.org/2000/svg">
<path fill-rule="evenodd" clip-rule="evenodd" d="M6.00386 8.67055C5.74351 8.4102 5.74351 7.98809 6.00386 7.72774L9.06579 4.66581C9.32352 4.40808 9.74139 4.40808 9.99912 4.66581C10.2569 4.92355 10.2569 5.34142 9.99912 5.59915L7.39912 8.19915L9.99912 10.7991C10.2569 11.0569 10.2569 11.4747 9.99912 11.7325C9.74139 11.9902 9.32352 11.9902 9.06578 11.7325L6.00386 8.67055V8.67055Z" fill="#FAFFFF"/>
<mask id="mask0_2668_14323" style="mask-type:alpha" maskUnits="userSpaceOnUse" x="5" y="4" width="6" height="8">
<path fill-rule="evenodd" clip-rule="evenodd" d="M6.00386 8.67055C5.74351 8.4102 5.74351 7.98809 6.00386 7.72774L9.06579 4.66581C9.32352 4.40808 9.74139 4.40808 9.99912 4.66581C10.2569 4.92355 10.2569 5.34142 9.99912 5.59915L7.39912 8.19915L9.99912 10.7991C10.2569 11.0569 10.2569 11.4747 9.99912 11.7325C9.74139 11.9902 9.32352 11.9902 9.06578 11.7325L6.00386 8.67055V8.67055Z" fill="white"/>
</mask>
<g mask="url(#mask0_2668_14323)">
<path fill-rule="evenodd" clip-rule="evenodd" d="M16 -2.38419e-07L1.16035e-06 -1.63718e-06L-2.38419e-07 16L16 16L16 -2.38419e-07Z" fill="#1A9CB0"/>
</g>
</svg>
