<svg width="2110" height="527" viewBox="0 0 2110 527" xmlns="http://www.w3.org/2000/svg" xmlns:xlink="http://www.w3.org/1999/xlink"><title>BEE93C39-BAC9-4908-AEC3-EF3F11A9599D</title><defs><path id="b" d="M0 0h2110v400H0z"/><circle id="d" cx="23" cy="23" r="23"/><circle id="a" cx="23" cy="23" r="15"/><mask id="e" x="0" y="0" width="30" height="30" fill="#fff"><use xlink:href="#a"/></mask><mask id="f" x="0" y="0" width="30" height="30" fill="#fff"><use xlink:href="#a"/></mask><circle id="g" cx="23" cy="23" r="23"/><circle id="i" cx="23" cy="23" r="23"/><ellipse id="k" cx="23" cy="23" rx="23" ry="23"/><ellipse id="m" cx="23" cy="23" rx="23" ry="23"/></defs><g transform="matrix(-1 0 0 1 2110 88)" fill="none" fill-rule="evenodd"><mask id="c" fill="#fff"><use xlink:href="#b"/></mask><g opacity=".5" mask="url(#c)"><g transform="translate(1989 107)"><use fill="#D0F0F1" xlink:href="#d"/><g mask="url(#e)" stroke-width="46" transform="matrix(-1 0 0 1 46 0)"><use mask="url(#f)" xlink:href="#a"/></g></g></g><g opacity=".5" mask="url(#c)"><g transform="translate(1633 266)"><mask id="h" fill="#fff"><use xlink:href="#g"/></mask><use fill="#D0F0F1" xlink:href="#g"/><rect fill="#FFF" mask="url(#h)" x="16" y="12" width="3" height="25" rx="1.5"/><rect fill="#FFF" mask="url(#h)" x="10" y="22" width="3" height="15" rx="1.5"/><rect fill="#FFF" mask="url(#h)" x="22" y="7" width="3" height="30" rx="1.5"/><rect fill="#FFF" mask="url(#h)" x="28" y="17" width="3" height="20" rx="1.5"/><rect fill="#FFF" mask="url(#h)" x="34" y="27" width="3" height="10" rx="1.5"/></g></g><g opacity=".5" mask="url(#c)"><g transform="translate(280 150)"><mask id="j" fill="#fff"><use xlink:href="#i"/></mask><use fill="#D0F0F1" xlink:href="#i"/><path fill="#FFF" mask="url(#j)" d="M5 29l13-12 4 5 7-10 12 17"/></g></g><g mask="url(#c)" stroke="#39C2D7" stroke-dasharray="3,4" opacity=".3"><path d="M0 106c222.5 0 270.344 266.5 494.844 266.5s177-68.5 392-68.5 193.5 68.5 372.5 68.5 377.733-187.5 623.5-187.5 260.5 74.5 340.5 74.5 6.733 696 6.733 696h-2429S-404.5 106 0 106z"/><path d="M309 173.5c151.5 0 185.844 179 316.344 179s155-63.5 324.5-63.5 329.5 88.5 508.5 88.5 278-251 623.5-251c173 0 187.5 46.5 245 40.5s27.077 788.5 27.077 788.5h-2429S-149.114 629.914-25.5 304c192-6 190-122.5 334.5-130.5z"/></g><g opacity=".5" mask="url(#c)"><g transform="matrix(-1 0 0 1 77 89)"><mask id="l" fill="#fff"><use xlink:href="#k"/></mask><use fill="#D0F0F1" xlink:href="#k"/><rect fill="#FFF" mask="url(#l)" x="8" y="13" width="27" height="5" rx="2"/><rect fill="#FFF" mask="url(#l)" x="8" y="21" width="33" height="5" rx="2"/><path d="M8 31.005C8 29.898 8.898 29 9.99 29h16.02c1.099 0 1.99.894 1.99 2.005v.99A2.002 2.002 0 0 1 26.01 34H9.99C8.892 34 8 33.106 8 31.995v-.99z" fill="#FFF" mask="url(#l)"/></g></g><g opacity=".5" mask="url(#c)"><g transform="matrix(-1 0 0 1 146 237)"><mask id="n" fill="#fff"><use xlink:href="#m"/></mask><use fill="#D0F0F1" xlink:href="#m"/><path stroke="#FFF" stroke-width="2" mask="url(#n)" d="M41.5 31.5L33 19l-6 5-11-14L4.5 32"/><path stroke="#FFF" stroke-width="2" mask="url(#n)" d="M42 32l-9-6-7 4-9-10L4.5 32"/></g></g></g></svg>