<svg width="2110" height="399" viewBox="0 0 2110 399" xmlns="http://www.w3.org/2000/svg" xmlns:xlink="http://www.w3.org/1999/xlink"><title>CF316DFB-4871-4AB1-B626-410343CCD241</title><defs><path id="b" d="M0 0h2110v400H0z"/><circle id="d" cx="23" cy="23" r="23"/><circle id="f" cx="23" cy="23" r="23"/><circle id="a" cx="23" cy="23" r="15"/><mask id="g" x="0" y="0" width="30" height="30" fill="#fff"><use xlink:href="#a"/></mask><mask id="h" x="0" y="0" width="30" height="30" fill="#fff"><use xlink:href="#a"/></mask><circle id="i" cx="23" cy="23" r="23"/><ellipse id="k" cx="23" cy="23" rx="23" ry="23"/><ellipse id="m" cx="23" cy="23" rx="23" ry="23"/></defs><g transform="matrix(-1 0 0 1 2110 0)" fill="none" fill-rule="evenodd"><mask id="c" fill="#fff"><use xlink:href="#b"/></mask><g mask="url(#c)" stroke="#39C2D7" stroke-dasharray="3,4" opacity=".3"><path d="M-201 174c49 4.5-115.5 8.5 167.5 4S277 54 495 54s387 271 813 271 455-249.5 696-249.5 224.5 177 282.5 177 20 242 20 242H-211s7.81-320.701 10-320.5z"/><path d="M1904.5 233c-159 0-321.5 134-642.5 127S810.113 59.5 599 59.5s-232 274-405.5 274S-23.5 213-149 213s-137.02 94.5-287.02 94.5c-150 0-101.5 587-101.5 587h2709C2147.106 753.656 2663.09 360 2261 360c-140.5 0-181.5-127-356.5-127z"/></g><g opacity=".498" mask="url(#c)"><g transform="matrix(-1 0 0 1 319 267)"><mask id="e" fill="#fff"><use xlink:href="#d"/></mask><use fill="#D0F0F1" xlink:href="#d"/><rect fill="#FFF" mask="url(#e)" x="16" y="12" width="3" height="25" rx="1.5"/><rect fill="#FFF" mask="url(#e)" x="10" y="22" width="3" height="15" rx="1.5"/><rect fill="#FFF" mask="url(#e)" x="22" y="7" width="3" height="30" rx="1.5"/><rect fill="#FFF" mask="url(#e)" x="28" y="17" width="3" height="20" rx="1.5"/><rect fill="#FFF" mask="url(#e)" x="34" y="27" width="3" height="10" rx="1.5"/></g></g><g opacity=".5" mask="url(#c)"><g transform="translate(81 140)"><use fill="#D0F0F1" xlink:href="#f"/><g mask="url(#g)" stroke-width="46" transform="matrix(-1 0 0 1 46 0)"><use mask="url(#h)" xlink:href="#a"/></g></g></g><g opacity=".5" mask="url(#c)"><g transform="matrix(-1 0 0 1 1943 209)"><mask id="j" fill="#fff"><use xlink:href="#i"/></mask><use fill="#D0F0F1" xlink:href="#i"/><rect fill="#FFF" mask="url(#j)" x="16" y="12" width="3" height="25" rx="1.5"/><rect fill="#FFF" mask="url(#j)" x="10" y="22" width="3" height="15" rx="1.5"/><rect fill="#FFF" mask="url(#j)" x="22" y="7" width="3" height="30" rx="1.5"/><rect fill="#FFF" mask="url(#j)" x="28" y="17" width="3" height="20" rx="1.5"/><rect fill="#FFF" mask="url(#j)" x="34" y="27" width="3" height="10" rx="1.5"/></g></g><g opacity=".5" mask="url(#c)"><g transform="matrix(-1 0 0 1 1717 198)"><mask id="l" fill="#fff"><use xlink:href="#k"/></mask><use fill="#D0F0F1" xlink:href="#k"/><rect fill="#FFF" mask="url(#l)" x="8" y="13" width="27" height="5" rx="2"/><rect fill="#FFF" mask="url(#l)" x="8" y="21" width="33" height="5" rx="2"/><path d="M8 31.005C8 29.898 8.898 29 9.99 29h16.02c1.099 0 1.99.894 1.99 2.005v.99A2.002 2.002 0 0 1 26.01 34H9.99C8.892 34 8 33.106 8 31.995v-.99z" fill="#FFF" mask="url(#l)"/></g></g><g opacity=".5" mask="url(#c)"><g transform="matrix(-1 0 0 1 2037 54)"><mask id="n" fill="#fff"><use xlink:href="#m"/></mask><use fill="#D0F0F1" xlink:href="#m"/><path stroke="#FFF" stroke-width="2" mask="url(#n)" d="M41.5 31.5L33 19l-6 5-11-14L4.5 32"/><path stroke="#FFF" stroke-width="2" mask="url(#n)" d="M42 32l-9-6-7 4-9-10L4.5 32"/></g></g></g></svg>