<svg width="2110" height="400" viewBox="0 0 2110 400" xmlns="http://www.w3.org/2000/svg" xmlns:xlink="http://www.w3.org/1999/xlink"><title>2F70B5D2-A8FC-41A8-9DB4-CD9495184613</title><defs><path id="b" d="M0 0h2110v400H0z"/><circle id="d" cx="23" cy="23" r="23"/><circle id="a" cx="23" cy="23" r="15"/><mask id="e" x="0" y="0" width="30" height="30" fill="#fff"><use xlink:href="#a"/></mask><mask id="f" x="0" y="0" width="30" height="30" fill="#fff"><use xlink:href="#a"/></mask><circle id="g" cx="23" cy="23" r="23"/><circle id="i" cx="23" cy="23" r="23"/><circle id="k" cx="23" cy="23" r="23"/><ellipse id="m" cx="23" cy="23" rx="23" ry="23"/><ellipse id="o" cx="23" cy="23" rx="23" ry="23"/></defs><g transform="matrix(-1 0 0 1 2110 1)" fill="none" fill-rule="evenodd"><mask id="c" fill="#fff"><use xlink:href="#b"/></mask><g mask="url(#c)" stroke="#39C2D7" stroke-dasharray="3,4" opacity=".3"><path d="M-187.879 107.297c222.5 0 229.293 220.183 425.367 216 196.075-4.184 255.145-252.223 437.11-252.223S1118.484 343.63 1340.3 339.297c221.816-4.332 456.554-220.89 621.222-220.89s181.82 141.093 261.82 141.093 6.734 696 6.734 696h-2429S-592.38 107.297-187.88 107.297z"/><path d="M195.23 357.11c178.075 0 230.149-279.739 440.52-279.739 210.371 0 275.848 279.738 517.922 272.52 219.223 0 303.074-108.149 482.074-108.149s291.445 124 520.11 124c111.628 0 113.488-192.742 170.988-198.742s27.077 788.5 27.077 788.5h-2429l-73.21-749.277S17.156 357.109 195.23 357.109z"/></g><g opacity=".5" mask="url(#c)"><g transform="translate(1972 99)"><use fill="#D0F0F1" xlink:href="#d"/><g mask="url(#e)" stroke-width="46" transform="matrix(-1 0 0 1 46 0)"><use mask="url(#f)" xlink:href="#a"/></g></g></g><g opacity=".5" mask="url(#c)"><g transform="translate(90 320)"><mask id="h" fill="#fff"><use xlink:href="#g"/></mask><use fill="#D0F0F1" xlink:href="#g"/><rect fill="#FFF" mask="url(#h)" x="16" y="12" width="3" height="25" rx="1.5"/><rect fill="#FFF" mask="url(#h)" x="10" y="22" width="3" height="15" rx="1.5"/><rect fill="#FFF" mask="url(#h)" x="22" y="7" width="3" height="30" rx="1.5"/><rect fill="#FFF" mask="url(#h)" x="28" y="17" width="3" height="20" rx="1.5"/><rect fill="#FFF" mask="url(#h)" x="34" y="27" width="3" height="10" rx="1.5"/></g></g><g opacity=".5" mask="url(#c)"><g transform="translate(-23 157)"><mask id="j" fill="#fff"><use xlink:href="#i"/></mask><use fill="#D0F0F1" xlink:href="#i"/><path fill="#FFF" mask="url(#j)" d="M5 29l13-12 4 5 7-10 12 17"/></g></g><g opacity=".5" mask="url(#c)"><g transform="translate(1621 218)"><mask id="l" fill="#fff"><use xlink:href="#k"/></mask><use fill="#D0F0F1" xlink:href="#k"/><path fill="#FFF" mask="url(#l)" d="M5 29l13-12 4 5 7-10 12 17"/></g></g><g opacity=".5" mask="url(#c)"><g transform="matrix(-1 0 0 1 1929 289)"><mask id="n" fill="#fff"><use xlink:href="#m"/></mask><use fill="#D0F0F1" xlink:href="#m"/><rect fill="#FFF" mask="url(#n)" x="8" y="13" width="27" height="5" rx="2"/><rect fill="#FFF" mask="url(#n)" x="8" y="21" width="33" height="5" rx="2"/><path d="M8 31.005C8 29.898 8.898 29 9.99 29h16.02c1.099 0 1.99.894 1.99 2.005v.99A2.002 2.002 0 0 1 26.01 34H9.99C8.892 34 8 33.106 8 31.995v-.99z" fill="#FFF" mask="url(#n)"/></g></g><g opacity=".5" mask="url(#c)"><g transform="matrix(-1 0 0 1 339 284)"><mask id="p" fill="#fff"><use xlink:href="#o"/></mask><use fill="#D0F0F1" xlink:href="#o"/><path stroke="#FFF" stroke-width="2" mask="url(#p)" d="M41.5 31.5L33 19l-6 5-11-14L4.5 32"/><path stroke="#FFF" stroke-width="2" mask="url(#p)" d="M42 32l-9-6-7 4-9-10L4.5 32"/></g></g></g></svg>