<svg width="18" height="19" viewBox="0 0 18 19" fill="none" xmlns="http://www.w3.org/2000/svg">
<path d="M3.52941 8.77986C3.23601 8.48747 2.76114 8.4883 2.46875 8.78169C2.17637 9.07509 2.17719 9.54997 2.47059 9.84235L3.52941 8.77986ZM7.18772 13.4844L6.65831 14.0156L7.23136 14.5867L7.75748 13.9721L7.18772 13.4844ZM14.8198 5.7221C15.0891 5.40744 15.0524 4.93399 14.7377 4.66462C14.4231 4.39526 13.9496 4.43198 13.6802 4.74665L14.8198 5.7221ZM2.47059 9.84235L6.65831 14.0156L7.71713 12.9531L3.52941 8.77986L2.47059 9.84235ZM7.75748 13.9721L14.8198 5.7221L13.6802 4.74665L6.61797 12.9966L7.75748 13.9721Z" fill="#39C2D7"/>
</svg>
