<svg width="131" height="137" viewBox="0 0 131 137" fill="none" xmlns="http://www.w3.org/2000/svg">
<ellipse opacity="0.1" cx="59.5008" cy="59.5" rx="59.5008" ry="59.5" fill="#77D090"/>
<line x1="70.501" y1="132" x2="70.501" y2="121" stroke="#77D090"/>
<line y1="-0.5" x2="5" y2="-0.5" transform="matrix(0.500005 -0.866022 0.866028 0.499995 42 124.654)" stroke="#77D090"/>
<line y1="-0.5" x2="5" y2="-0.5" transform="matrix(0.888126 -0.4596 0.45961 0.888121 17.3643 100.728)" stroke="#77D090"/>
<line y1="-0.5" x2="5" y2="-0.5" transform="matrix(0.866028 0.499995 -0.500005 0.866022 16 41.6357)" stroke="#77D090"/>
<line y1="-0.5" x2="5" y2="-0.5" transform="matrix(0.45961 0.888121 -0.888126 0.4596 39.9268 17)" stroke="#77D090"/>
<line x1="70.501" y1="21" x2="70.501" y2="10" stroke="#77D090"/>
<line y1="-0.5" x2="5" y2="-0.5" transform="matrix(0.500005 -0.866022 0.866028 0.499995 100.001 23.0625)" stroke="#77D090"/>
<line x1="10" y1="69.5" x2="21" y2="69.5" stroke="#77D090"/>
<path opacity="0.3" d="M113.878 28L114.632 27.3423L114.612 27.32L114.591 27.2989L113.878 28ZM26.4901 27.3L25.7771 26.5989L26.4901 27.3ZM113.125 28.6577C124.448 41.6262 130.154 59.3521 127.25 77.7066L129.226 78.0191C132.226 59.0555 126.329 40.7387 114.632 27.3423L113.125 28.6577ZM70.1849 130C36.9428 130 10 103.134 10 70H8C8 104.245 35.844 132 70.1849 132V130ZM70.1849 10C86.9947 10 102.22 17.5702 113.165 28.7011L114.591 27.2989C103.327 15.8432 87.6068 8 70.1849 8V10ZM10 70C10 53.6479 16.5603 38.8249 27.2032 28.0011L25.7771 26.5989C14.7819 37.7809 8 53.1016 8 70H10ZM27.2032 28.0011C38.1271 16.8915 53.3476 10 70.1849 10V8C52.7905 8 37.0623 15.1219 25.7771 26.5989L27.2032 28.0011Z" fill="#77D090"/>
<path d="M70 131C36.3106 131 9 103.61 9 69.8235C9 53.1502 15.6509 38.0347 26.4373 27" stroke="#77D090" stroke-width="2"/>
<path opacity="0.3" d="M70.5064 136C33.7759 136 4 106.227 4 69.5C4 32.7731 33.7759 3 70.5064 3C89.1109 3 105.931 10.6384 118.002 22.95" stroke="#77D090" stroke-width="2" stroke-linecap="round"/>
<circle cx="26" cy="28" r="5" fill="#77D090"/>
<g opacity="0.5">
<line x1="106.502" y1="38.5" x2="68.502" y2="38.5" stroke="#77D090" stroke-linecap="round"/>
<line x1="129.502" y1="50.5" x2="98.502" y2="50.5" stroke="#77D090" stroke-linecap="round"/>
<line x1="61.501" y1="95.5" x2="21.501" y2="95.5" stroke="#77D090" stroke-linecap="round"/>
</g>
</svg>
