<svg width="130" height="137" viewBox="0 0 130 137" fill="none" xmlns="http://www.w3.org/2000/svg">
<g opacity="0.7">
<ellipse opacity="0.1" cx="59.5008" cy="59.5" rx="59.5008" ry="59.5" fill="#39C2D7"/>
<line x1="70.501" y1="132" x2="70.501" y2="121" stroke="#39C2D7"/>
<line y1="-0.5" x2="5" y2="-0.5" transform="matrix(0.500005 -0.866022 0.866028 0.499995 42 124.654)" stroke="#39C2D7"/>
<line y1="-0.5" x2="5" y2="-0.5" transform="matrix(0.888126 -0.4596 0.45961 0.888121 17.3643 100.728)" stroke="#39C2D7"/>
<line y1="-0.5" x2="5" y2="-0.5" transform="matrix(0.866028 0.499995 -0.500005 0.866022 16 41.6357)" stroke="#39C2D7"/>
<line y1="-0.5" x2="5" y2="-0.5" transform="matrix(0.45961 0.888121 -0.888126 0.4596 39.9268 17)" stroke="#39C2D7"/>
<line x1="70.501" y1="21" x2="70.501" y2="10" stroke="#39C2D7"/>
<line y1="-0.5" x2="5" y2="-0.5" transform="matrix(0.500005 -0.866022 0.866028 0.499995 100.001 23.0625)" stroke="#39C2D7"/>
<line x1="10" y1="69.5" x2="21" y2="69.5" stroke="#39C2D7"/>
<path opacity="0.3" d="M113.953 28.5L114.708 27.845L114.688 27.8211L114.665 27.7986L113.953 28.5ZM113.197 29.155C124.358 42.0299 130.171 59.58 127.251 77.7513L129.226 78.0685C132.246 59.2719 126.229 41.1346 114.708 27.845L113.197 29.155ZM70.2283 130C36.9616 130 10 103.134 10 70H8C8 104.245 35.8641 132 70.2283 132V130ZM10 70C10 36.8664 36.9616 10 70.2283 10V8C35.8641 8 8 35.7548 8 70H10ZM70.2283 10C87.032 10 102.272 18.0549 113.24 29.2014L114.665 27.7986C103.409 16.3585 87.6806 8 70.2283 8V10Z" fill="#39C2D7"/>
<path opacity="0.3" d="M70.5064 136C33.7759 136 4 106.227 4 69.5C4 32.7731 33.7759 3 70.5064 3C89.1109 3 105.931 10.6384 118.002 22.95" stroke="#39C2D7" stroke-width="2" stroke-linecap="round"/>
</g>
</svg>
