<svg xmlns="http://www.w3.org/2000/svg" xmlns:xlink="http://www.w3.org/1999/xlink" width="2110" height="600" viewBox="0 0 2110 600">
    <defs>
        <path id="a" d="M0 0h2110v600H0z"/>
        <filter id="b" width="100%" height="100.2%" x="0%" y="-.1%" filterUnits="objectBoundingBox">
            <feOffset dy="-1" in="SourceAlpha" result="shadowOffsetInner1"/>
            <feComposite in="shadowOffsetInner1" in2="SourceAlpha" k2="-1" k3="1" operator="arithmetic" result="shadowInnerInner1"/>
            <feColorMatrix in="shadowInnerInner1" values="0 0 0 0 0.741176471 0 0 0 0 0.780392157 0 0 0 0 0.8 0 0 0 0.2 0"/>
        </filter>
        <circle id="d" cx="23" cy="23" r="23"/>
        <circle id="f" cx="23" cy="23" r="23"/>
        <circle id="h" cx="23" cy="23" r="23"/>
        <circle id="j" cx="23" cy="23" r="23"/>
        <circle id="l" cx="23" cy="23" r="23"/>
        <path id="n" d="M26 26V0H0v26z"/>
    </defs>
    <g fill="none" fill-rule="evenodd">
        <mask id="c" fill="#fff">
            <use xlink:href="#a"/>
        </mask>
        <use fill="#FFF" xlink:href="#a"/>
        <use fill="#FCFFFF" xlink:href="#a"/>
        <use fill="#000" filter="url(#b)" xlink:href="#a"/>
        <path stroke="#39C2D7" stroke-dasharray="3,4" d="M-173.314 115.223c94.336 0 47.017 210.992 243.091 206.808C265.852 317.848 288.961 136 506.441 136s339.146 272.76 618.582 272.76c279.435 0 377.16-221.022 573.157-218.764 195.996 2.258 271.568 130.866 483.441 132.035 211.873 1.17 10.158 286.027 10.158 286.027H-144.9s-28.58-402.639-28.413-492.835z" mask="url(#c)" opacity=".3"/>
        <path stroke="#39C2D7" stroke-dasharray="3,4" d="M211.184 451.957c153.146 0 267.23-264.606 501.812-267.629 234.583-3.023 390.61 194.001 590.442 194.262 199.832.26 254.445-112.895 438.332-112.113 183.886.78 271.48 215.742 438.332 211.48 97.076 0-5.671-198.194 44.333-204.194s-48.429 359.126-48.429 359.126H-11.895V339.444s68.22 112.513 223.079 112.513z" mask="url(#c)" opacity=".3"/>
        <g mask="url(#c)">
            <g transform="translate(1675 169)">
                <mask id="e" fill="#fff">
                    <use xlink:href="#d"/>
                </mask>
                <use fill="#D0F0F1" opacity=".653" xlink:href="#d"/>
                <path fill="#FFF" d="M36 15.5c-.923.271-1.91.54-2.5 1.25.617-1.213 1.43-2.203 1.25-3.75-.432.945-1.529 1.368-2.5 1.25-1.131-.638-2.466-1.25-3.75-1.25-3.021 0-5.315 2.258-5 5-.315.443-.27.83 0 1.25-4.447-.267-8.222-2.273-11.25-5 .057.423-.199 1.287 0 2.5-.199 1.468.706 3.007 2.5 3.75-1.255.138-2.04-.087-2.5 0-.235-.446-.235-.42 0 0-.235 2.046 1.529 4.079 3.75 5-.302-.336-.759-.273-1.25 0-.304-.273-.624-.31-1.25 0 .955 1.643 2.856 3.1 5 3.75-1.659.745-3.871 1.555-6.25 1.25-.436.305-.848.278-1.25 0 2.267 1.663 4.963 2.5 7.5 2.5 9.794 0 14.95-7.692 15-13.75-.05-.825-.06-1.05 0-1.25a14.822 14.822 0 0 0 2.5-2.5z" mask="url(#e)"/>
            </g>
        </g>
        <g mask="url(#c)">
            <g transform="translate(1921 331)">
                <mask id="g" fill="#fff">
                    <use xlink:href="#f"/>
                </mask>
                <use fill="#D0F0F1" opacity=".653" xlink:href="#f"/>
                <path fill="#FFF" d="M25 35V24h3l1.946-3.975h-5L25 17c.088-.88.61-1.924 2-1.972h3V11c-.44.124-1.95 0-3 0-4.352 0-6.054 2.755-6 6l-.054 3.025h-5L16 24h5v11h4z" mask="url(#g)"/>
            </g>
        </g>
        <g mask="url(#c)" opacity=".5">
            <g transform="translate(119 286)">
                <mask id="i" fill="#fff">
                    <use xlink:href="#h"/>
                </mask>
                <use fill="#D0F0F1" xlink:href="#h"/>
                <path fill="#FFF" d="M19 16l11 7.333-11 6.417V16zm-3-5v24l20-12-20-12z" mask="url(#i)"/>
            </g>
        </g>
        <g mask="url(#c)" opacity=".5">
            <g transform="translate(437 113)">
                <mask id="k" fill="#fff">
                    <use xlink:href="#j"/>
                </mask>
                <use fill="#D0F0F1" xlink:href="#j"/>
                <g fill="#FFF" mask="url(#k)">
                    <path d="M22.727 10C15.694 10 10 16.125 10 24c0 5.76 3.648 10.887 8.91 12.727.432.11.664-.32 1.272-1.272-.608.271-.629-.818 0-2.546-4.172 1.41-4.91-1.04-5.091-1.273-.388-1.355-1.232-1.763-1.273-1.272-1.119-1.33.126-1.33 0-1.273 1.412.033 2.087 1.35 2.546 1.273.68 2.163 2.514 1.573 3.818 1.272-.46-.946-.123-1.559 0-1.272-2.59-.945-5.563-2.124-5.091-7.637-.472-1.248.034-2.473 1.273-3.818-.565.052-1.007-1.355 0-3.818-.311.58.764.218 3.818 2.545.384-.853 1.48-1.012 2.545-1.272 1.086.26 2.183.42 3.818 1.272 1.802-2.327 2.878-1.964 2.546-2.545 1.028 2.463.585 3.87 0 3.818 1.281 1.345 1.766 2.57 1.273 3.818.493 5.513-2.48 6.67-5.091 7.637.227-.196.628.62 0 2.545.628 1.206.607 2.68 0 2.546.607.952.839 1.383 1.272 1.272 5.261-1.84 8.91-6.967 8.91-12.727.02-7.875-5.695-14-12.728-14z"/>
                    <path d="M16.359 28.414c-.02.07-.115.093-.19.047-.077-.047-.134-.14-.096-.209.019-.07.114-.092.19-.046.077.046.115.139.096.208zM16.606 29.954c-.104.096-.312.032-.416-.097-.138-.128-.173-.32-.069-.417.104-.096.277-.032.416.097.139.16.173.352.07.417zM16.571 31.178c-.128.085-.319 0-.415-.141-.127-.142-.127-.34 0-.397.128-.085.32 0 .415.142.128.141.128.311 0 .396zM17.834 31.144c-.08.11-.266.083-.425-.055-.133-.138-.186-.332-.08-.415.08-.11.266-.083.425.056.133.11.16.303.08.414zM17.875 33.448c-.024.163-.191.229-.36.163-.167-.065-.263-.261-.239-.392.024-.164.192-.229.36-.164a.368.368 0 0 1 .24.393zM19.09 33.333c0 .169-.139.303-.302.303a.305.305 0 0 1-.303-.303c0-.168.14-.303.303-.303.163 0 .303.135.303.303z"/>
                    <path d="M19.088 33.267a.332.332 0 0 1-.264.363c-.168.033-.312-.066-.336-.23a.332.332 0 0 1 .264-.363c.168-.033.312.066.336.23z"/>
                </g>
            </g>
        </g>
        <g mask="url(#c)" opacity=".5">
            <g transform="translate(366 331)">
                <mask id="m" fill="#fff">
                    <use xlink:href="#l"/>
                </mask>
                <use fill="#D0F0F1" xlink:href="#l"/>
                <g mask="url(#m)" opacity=".8">
                    <g transform="translate(10 10)">
                        <mask id="o" fill="#fff">
                            <use xlink:href="#n"/>
                        </mask>
                        <path fill="#FFF" d="M16.265 1.603C15.883.387 14.657-.275 13.51.11c-1.146.406-1.77 1.708-1.407 2.925l5.65 18.444c.382 1.131 1.549 1.772 2.654 1.43 1.167-.363 1.87-1.665 1.488-2.86 0-.043-5.63-18.445-5.63-18.445zM7.265 4.603C6.883 3.387 5.657 2.725 4.51 3.11c-1.146.384-1.77 1.708-1.407 2.925l5.65 18.444c.382 1.131 1.549 1.772 2.654 1.43 1.167-.363 1.87-1.665 1.488-2.86 0-.043-5.63-18.445-5.63-18.445z" mask="url(#o)"/>
                        <path fill="#FFF" d="M24.398 16.265c1.216-.382 1.877-1.608 1.493-2.755-.405-1.146-1.706-1.77-2.922-1.407l-18.448 5.65c-1.13.382-1.77 1.549-1.43 2.654.363 1.167 1.664 1.87 2.859 1.488.042 0 18.448-5.63 18.448-5.63z" mask="url(#o)"/>
                        <path fill="#FFF" d="M8.467 22c1.226-.394 2.825-.92 4.533-1.467-.394-1.226-.92-2.825-1.467-4.533L7 17.467 8.467 22zM17.467 19c1.708-.547 3.307-1.073 4.533-1.467-.394-1.226-.92-2.825-1.467-4.533L16 14.467 17.467 19zM21.397 7.265c1.216-.382 1.878-1.608 1.494-2.755-.384-1.146-1.708-1.77-2.925-1.407L1.522 8.753C.391 9.135-.25 10.302.092 11.407c.363 1.167 1.665 1.87 2.86 1.488.043 0 18.445-5.63 18.445-5.63z" mask="url(#o)"/>
                        <path fill="#FFF" d="M5.467 13c1.226-.394 2.825-.92 4.533-1.467C9.453 9.825 8.927 8.226 8.533 7L4 8.467 5.467 13zM14.467 10c1.708-.547 3.307-1.073 4.533-1.467-.547-1.708-1.073-3.307-1.467-4.533L13 5.49 14.467 10z" mask="url(#o)"/>
                    </g>
                </g>
            </g>
        </g>
    </g>
</svg>
