<svg xmlns="http://www.w3.org/2000/svg" width="40" height="15" viewBox="0 0 40 15" xmlns:xlink="http://www.w3.org/1999/xlink">
  <defs>
    <polygon id="a" points=".081 14.174 11.833 14.174 11.833 .147 .081 .147"/>
  </defs>
  <g fill="none" fill-rule="evenodd">
    <g transform="translate(5.896)">
      <mask id="b" fill="white">
        <use xlink:href="#a"/>
      </mask>
      <path fill="#3F3E3D" d="M1.63346614 4.92031873L3.83920319 4.92031873 3.83920319 2.57800797C3.83920319 1.92446215 3.51266932 1.59760956 2.85896414 1.59760956L2.61386454 1.59760956C1.96031873 1.59760956 1.63346614 1.92446215 1.63346614 2.57800797L1.63346614 4.92031873zM1.6285259 6.41498008L1.63346614 8.99123506C1.63346614 9.64478088 1.96031873 9.97163347 2.61386454 9.97163347L2.89976096 9.97163347C3.55346614 9.97163347 3.88015936 9.64478088 3.88015936 8.99123506L3.88015936 7.72494024 5.39155378 7.72494024 5.39155378 8.93003984C5.39155378 10.5843825 4.55426295 11.4216733 2.89976096 11.4216733L2.57306773 11.4216733C.918565737 11.4216733.0812749004 10.5843825.0812749004 9.12366534L.0812749004 2.83298805C.0812749004.984860558.918565737.147410359 2.57306773.147410359L2.89976096.147410359C4.55426295.147410359 5.39155378.984860558 5.39155378 2.63936255L5.38661355 6.41498008 1.6285259 6.41498008 1.6285259 6.41498008zM7.9523506 9.37928287C8.38119522 9.74693227 8.87139442 9.9510757 9.38199203 9.9510757 9.95394422 9.9510757 10.2807968 9.68573705 10.2807968 9.05258964L10.2807968 2.51681275C10.2807968 1.88350598 9.95394422 1.61800797 9.38199203 1.61800797 8.87139442 1.61800797 8.38119522 1.82231076 7.9523506 2.18996016L7.9523506 9.37928287zM6.4.269960159L7.9523506.269960159 7.9523506.984860558C8.32.596812749 8.95314741.147410359 9.85179283.147410359 11.1794422.147410359 11.832988 1.02565737 11.832988 2.33290837L11.832988 9.23633466C11.832988 10.5434263 11.1794422 11.4216733 9.85179283 11.4216733 8.95314741 11.4216733 8.32 10.9928287 7.9523506 10.6251793L7.9523506 14.1832669 6.4 14.1832669 6.4.269960159 6.4.269960159z" mask="url(#b)"/>
    </g>
    <path fill="#3F3E3D" d="M22.3835857 9.44063745L22.3835857 5.8025498 20.9743426 6.33609562C20.4023904 6.56079681 20.2186454 6.84669323 20.2186454 7.47984064L20.2186454 9.15474104C20.2186454 9.68573705 20.4841434 9.9510757 20.9743426 9.9510757 21.4439841 9.9510757 21.872988 9.78772908 22.3835857 9.44063745zM18.6662948 7.45944223C18.6662948 6.09099602 19.1156972 5.53960159 20.300239 5.13115538L22.3835857 4.41625498 22.3835857 2.57800797C22.3835857 1.92446215 22.0567331 1.57721116 21.4031873 1.57721116L21.1502789 1.57721116C20.4967331 1.57721116 20.1698805 1.92446215 20.1698805 2.57800797L20.1698805 4.14007968 18.6584861 4.14007968 18.6584861 2.63936255C18.6584861.984860558 19.4959363.147410359 21.1502789.147410359L21.4439841.147410359C23.0983267.147410359 23.9357769.984860558 23.9357769 2.63936255L23.9357769 11.2991235 22.3835857 11.2991235 22.3835857 10.6047809C21.954741 11.0132271 21.3827888 11.4216733 20.4841434 11.4216733 19.238247 11.4216733 18.6662948 10.7067729 18.6662948 9.48143426L18.6662948 7.45944223 18.6662948 7.45944223zM30.2138645 11.2991235L28.6615139 11.2991235 28.6615139 2.41466135C28.6615139 1.86310757 28.3961753 1.61800797 27.9263745 1.61800797 27.4973705 1.61800797 27.0481275 1.78135458 26.4965737 2.16956175L26.4965737 11.2991235 24.9443825 11.2991235 24.9443825.269960159 26.4965737.269960159 26.4965737.984860558C26.9459761.556015936 27.5383267.147410359 28.3961753.147410359 29.1926693.147410359 29.7236653.474262948 30.0095618 1.04621514 30.5611155.576414343 31.2146614.147410359 32.1133068.147410359 33.3184064.147410359 33.9311554.882868526 33.9311554 2.08780876L33.9311554 11.2991235 32.3788048 11.2991235 32.3788048 2.41466135C32.3788048 1.86310757 32.1133068 1.61800797 31.643506 1.61800797 31.2146614 1.61800797 30.765259 1.78135458 30.2138645 2.16956175L30.2138645 11.2991235"/>
    <polyline fill="#44BBC7" points="3.988 1.286 3.988 3.314 1.376 5.803 3.988 8.248 3.988 10.32 0 6.571 0 5.079 3.988 1.286"/>
    <polyline fill="#44BBC7" points="39.889 5.079 39.889 6.571 35.901 10.32 35.901 8.248 38.513 5.803 35.901 3.314 35.901 1.286 39.889 5.079"/>
  </g>
</svg>
