<svg width="160" height="120" viewBox="0 0 160 120" xmlns="http://www.w3.org/2000/svg" xmlns:xlink="http://www.w3.org/1999/xlink"><title>FB41CC58-0EA5-4CBA-A86D-19F5AE199830</title><defs><filter x="-50%" y="-50%" width="200%" height="200%" filterUnits="objectBoundingBox" id="d"><feOffset dx="1" dy="2" in="SourceAlpha" result="shadowOffsetOuter1"/><feColorMatrix values="0 0 0 0 0.693 0 0 0 0 0.87585 0 0 0 0 0.9 0 0 0 0.503962862 0" in="shadowOffsetOuter1" result="shadowMatrixOuter1"/><feMerge><feMergeNode in="shadowMatrixOuter1"/><feMergeNode in="SourceGraphic"/></feMerge></filter><path d="M0 12h74v35.002A3 3 0 0 1 71.007 50H2.993A3.002 3.002 0 0 1 0 47.002V12z" id="e"/><filter x="-50%" y="-50%" width="200%" height="200%" filterUnits="objectBoundingBox" id="f"><feOffset dy="1" in="SourceAlpha" result="shadowOffsetInner1"/><feComposite in="shadowOffsetInner1" in2="SourceAlpha" operator="arithmetic" k2="-1" k3="1" result="shadowInnerInner1"/><feColorMatrix values="0 0 0 0 0.941176471 0 0 0 0 0.949019608 0 0 0 0 0.952941176 0 0 0 1 0" in="shadowInnerInner1"/></filter><rect id="a" width="58" height="22" rx="3"/><mask id="g" x="0" y="0" width="58" height="22" fill="#fff"><use xlink:href="#a"/></mask><path d="M45 18V4c-4.062 0-7 3.134-7 7s2.938 7 7 7z" id="b"/><mask id="h" x="0" y="0" width="7" height="14" fill="#fff"><use xlink:href="#b"/></mask><path d="M52 18V4c-4.062 0-7 3.134-7 7s2.938 7 7 7z" id="c"/><mask id="i" x="0" y="0" width="7" height="14" fill="#fff"><use xlink:href="#c"/></mask><rect id="j" x="6" y="6" width="28" height="4" rx="2"/><rect id="k" x="6" y="12" width="14" height="4" rx="2"/><filter x="-50%" y="-50%" width="200%" height="200%" filterUnits="objectBoundingBox" id="l"><feOffset dx="1" dy="2" in="SourceAlpha" result="shadowOffsetOuter1"/><feColorMatrix values="0 0 0 0 0.693 0 0 0 0 0.87585 0 0 0 0 0.9 0 0 0 0.503962862 0" in="shadowOffsetOuter1" result="shadowMatrixOuter1"/><feMerge><feMergeNode in="shadowMatrixOuter1"/><feMergeNode in="SourceGraphic"/></feMerge></filter><path d="M0 12h57v35.002A3.006 3.006 0 0 1 53.996 50H3.004A3.008 3.008 0 0 1 0 47.002V12z" id="m"/><filter x="-50%" y="-50%" width="200%" height="200%" filterUnits="objectBoundingBox" id="n"><feOffset dy="1" in="SourceAlpha" result="shadowOffsetInner1"/><feComposite in="shadowOffsetInner1" in2="SourceAlpha" operator="arithmetic" k2="-1" k3="1" result="shadowInnerInner1"/><feColorMatrix values="0 0 0 0 0.9405 0 0 0 0 0.946833333 0 0 0 0 0.95 0 0 0 1 0" in="shadowInnerInner1"/></filter><path id="o" d="M0 0h18v37H0z"/><rect id="p" width="27" height="7" rx="2"/><rect id="r" width="27" height="7" rx="2"/><rect id="t" width="27" height="7" rx="2"/></defs><g fill="none" fill-rule="evenodd"><rect fill="#D7F3F4" x="20" width="120" height="120" rx="60"/><path d="M74.996 94v-2c.187-.037.638-.425 1.001-1L78 92.935V91l-2.003-1c.625-.4.668-.697 0-1 .668-.303.625-.6 0-1L78 87V84.87L75.997 87c-.363.425-.814-.963-1-1v-2h-2.003v2h-1.002v-2H69.99v2h-1.001v-2h-1.986v2C65.808 86.403 65 87.612 65 89s.808 2.597 2.003 3v2h1.986v-2h1.001v2h2.002v-2h1.002v2h2.002zm-5.98-4v-2h1v2h-1zm3 0v-2h1v2h-1z" fill="#79D6D9" opacity=".98"/><path d="M106.996 43v-2c.187-.037.638-.425 1.001-1L110 41.935V40l-2.003-1c.625-.4.668-.697 0-1 .668-.303.625-.6 0-1L110 36V33.87L107.997 36c-.363.425-.814-.963-1-1v-2h-2.003v2h-1.002v-2h-2.002v2h-1.001v-2h-1.986v2C97.808 35.403 97 36.612 97 38s.808 2.597 2.003 3v2h1.986v-2h1.001v2h2.002v-2h1.002v2h2.002zm-5.98-4v-2h1v2h-1zm3 0v-2h1v2h-1z" fill="#E5EB3D" opacity=".98"/><path d="M90.996 69v-2c.187-.037.638-.425 1.001-1L94 67.935V66l-2.003-1c.625-.4.668-.697 0-1 .668-.303.625-.6 0-1L94 62V59.87L91.997 62c-.363.425-.814-.963-1-1v-2h-2.003v2h-1.002v-2H85.99v2h-1.001v-2h-1.986v2C81.808 61.403 81 62.612 81 64s.808 2.597 2.003 3v2h1.986v-2h1.001v2h2.002v-2h1.002v2h2.002zm-5.98-4v-2h1v2h-1zm3 0v-2h1v2h-1z" fill="#FF8B6E" opacity=".98"/><g filter="url(#d)" transform="translate(0 23)"><path d="M0 2.997A3 3 0 0 1 2.993 0h68.014A2.995 2.995 0 0 1 74 2.997V12H0V2.997z" fill="#F7F9FA"/><use fill="#FDFDFD" xlink:href="#e"/><use fill="#000" filter="url(#f)" xlink:href="#e"/><g transform="translate(8 20)"><use stroke="#79D6D9" mask="url(#g)" stroke-width="2" stroke-dasharray="3,4" xlink:href="#a"/><use stroke="#FF8B6E" mask="url(#h)" stroke-width="8" xlink:href="#b"/><use stroke="#E5EB3D" mask="url(#i)" stroke-width="8" transform="matrix(-1 0 0 1 97 0)" xlink:href="#c"/><circle fill="#FFF" cx="45" cy="11" r="3"/><use fill="#DDE9EB" xlink:href="#j"/><use fill="#EFF1F2" xlink:href="#j"/><g><use fill="#DDE9EB" xlink:href="#k"/><use fill="#EFF1F2" xlink:href="#k"/></g></g><circle fill="#D9F2F4" opacity=".7" cx="7" cy="6" r="2"/><circle fill="#D9F2F4" opacity=".7" cx="14" cy="6" r="2"/><circle fill="#D9F2F4" opacity=".7" cx="21" cy="6" r="2"/></g><g filter="url(#l)" transform="translate(102 57)"><path d="M0 2.997A3.006 3.006 0 0 1 3.004 0h50.992A3 3 0 0 1 57 2.997V12H0V2.997z" fill="#F8FAFA"/><use fill="#FDFDFD" xlink:href="#m"/><use fill="#000" filter="url(#n)" xlink:href="#m"/><use fill="#EFF1F2" opacity=".5" xlink:href="#o" transform="translate(0 13)"/><g transform="translate(24 17)"><mask id="q" fill="#fff"><use xlink:href="#p"/></mask><use fill="#E4E8E9" opacity=".5" xlink:href="#p"/><path fill="#FE8C70" mask="url(#q)" d="M0 0h3v9H0z"/></g><g transform="translate(24 28)"><mask id="s" fill="#fff"><use xlink:href="#r"/></mask><use fill="#EFF1F2" xlink:href="#r"/><path fill="#E5EB3D" mask="url(#s)" d="M0 0h3v9H0z"/></g><g transform="translate(24 39)"><mask id="u" fill="#fff"><use xlink:href="#t"/></mask><use fill="#EFF1F2" xlink:href="#t"/><path fill="#E5EB3D" mask="url(#u)" d="M0 0h3v9H0z"/></g><circle fill="#D9F2F4" opacity=".7" cx="7" cy="6" r="2"/><circle fill="#D9F2F4" opacity=".7" cx="14" cy="6" r="2"/><circle fill="#D9F2F4" opacity=".7" cx="21" cy="6" r="2"/></g></g></svg>