<svg width="37" height="37" viewBox="0 0 37 37" xmlns="http://www.w3.org/2000/svg"><title>499F74A6-FDC2-419F-9C98-B579992F82C3</title><g fill="none" fill-rule="evenodd"><path d="M18.5 0C8.277 0 0 8.244 0 18.5c0 8.094 5.303 14.995 12.333 17.472 1.247.149 11.087.149 12.334 0C31.697 33.495 37 26.594 37 18.5 37.03 8.244 28.723 0 18.5 0z" fill="#E8F8F8"/><path d="M18.5 0C8.277 0 0 8.244 0 18.5c0 8.094 5.303 14.995 12.333 17.472 1.247.149 1.584-.431 2.056-1.028-.472-.32-.503-1.785 0-3.083-5.652.87-6.725-2.427-7.195-2.055-.358-2.51-1.584-3.059-2.055-3.084-1.215-1.105.593-1.105 1.028-1.028 1.435.046 2.416 1.816 2.055 2.056 2.017 2.57 4.684 1.776 6.167 1.028-.257-.932 1.028-1.371 1.028-2.056-4.381-.586-8.704-2.173-8.223-9.25-.48-2.022.255-3.671 1.028-5.139.208-.272-.436-2.165 1.028-5.139-.452.44 1.111-.05 5.139 2.056.969-.12 2.563-.334 4.111 0 1.579-.334 3.173-.12 5.139 0 3.03-2.105 4.594-1.617 4.111-2.056 1.494 2.974.85 4.867 1.028 5.14.834 1.467 1.54 3.116 1.028 5.138.511 7.077-5.36 8.85-8.223 9.25 0 .514 1.53 1.521 1.028 3.084.502 2.65.472 4.635 0 5.138.472.597.809 1.177 2.056 1.028C31.697 33.495 37 26.594 37 18.5 37.03 8.244 28.723 0 18.5 0z" fill="#79D6D9"/></g></svg>