<svg xmlns="http://www.w3.org/2000/svg" xmlns:xlink="http://www.w3.org/1999/xlink" width="2110" height="160" viewBox="0 0 2110 160">
  <defs>
    <linearGradient id="download-pic-b" x1="50%" x2="50%" y1="100%" y2="7.52%">
      <stop offset="0%" stop-color="#4CC7DA" stop-opacity="0"/>
      <stop offset="100%" stop-color="#48C6DA"/>
    </linearGradient>
    <linearGradient id="download-pic-c" x1="100%" x2="0%" y1="100%" y2="0%">
      <stop offset="0%" stop-color="#BEE8DE"/>
      <stop offset="15.187%" stop-color="#7CC57A" stop-opacity=".398"/>
      <stop offset="100%" stop-color="#39C2D7" stop-opacity=".597"/>
    </linearGradient>
    <rect id="download-pic-a" width="2110" height="160"/>
    <circle id="download-pic-d" cx="616.5" cy="93.5" r="3.5"/>
    <circle id="download-pic-e" cx="382.5" cy="93.5" r="3.5"/>
    <circle id="download-pic-f" cx="308.5" cy="138.5" r="3.5"/>
    <circle id="download-pic-g" cx="710.5" cy="93.5" r="3.5"/>
    <circle id="download-pic-h" cx="710.5" cy="26.5" r="3.5"/>
    <circle id="download-pic-i" cx="473.5" cy="93.5" r="3.5"/>
    <circle id="download-pic-j" cx="382.5" cy="138.5" r="3.5"/>
    <circle id="download-pic-k" cx="966.5" cy="26.5" r="3.5"/>
    <circle id="download-pic-l" cx="1337.5" cy="153.5" r="3.5"/>
    <circle id="download-pic-m" cx="1337.5" cy="97.5" r="3.5"/>
    <circle id="download-pic-n" cx="966.5" cy="153.5" r="3.5"/>
    <circle id="download-pic-o" cx="1222.5" cy="153.5" r="3.5"/>
    <circle id="download-pic-p" cx="1517.5" cy="153.5" r="3.5"/>
    <circle id="download-pic-q" cx="1453.5" cy="15.5" r="3.5"/>
    <circle id="download-pic-r" cx="382.5" cy="15.5" r="3.5"/>
    <circle id="download-pic-s" cx="1566.5" cy="15.5" r="3.5"/>
    <circle id="download-pic-t" cx="1166.5" cy="15.5" r="3.5"/>
    <circle id="download-pic-u" cx="234.5" cy="15.5" r="3.5"/>
    <circle id="download-pic-v" cx="1727.5" cy="60.5" r="3.5"/>
    <circle id="download-pic-w" cx="1840.5" cy="60.5" r="3.5"/>
    <circle id="download-pic-x" cx="1840.5" cy="133.5" r="3.5"/>
    <circle id="download-pic-y" cx="1651.5" cy="97.5" r="3.5"/>
    <circle id="download-pic-z" cx="1651.5" cy="133.5" r="3.5"/>
    <circle id="download-pic-A" cx="1764.5" cy="133.5" r="3.5"/>
    <path id="download-pic-B" d="M19.5,39 C8.73044738,39 0,30.2695526 0,19.5 C0,8.73044738 8.73044738,0 19.5,0 C30.2695526,0 39,8.73044738 39,19.5 C39,30.2695526 30.2695526,39 19.5,39 Z M31.3379955,19.1773399 C31.2647554,18.0689655 30.6788347,17.1083744 29.6534734,16.2955665 L29.287273,16 L28.9943126,16.3694581 C28.481632,17.182266 28.2619117,18.2167488 28.3351518,19.1034483 C28.4083919,19.6945813 28.6281121,20.3596059 28.9943126,20.8029557 C28.7013522,21.0246305 27.7822325,22.0591133 26.5371509,22.0591133 L8.08064816,22.0591133 C7.71444771,24.0541872 8.26736702,31 16.8364576,31 C23.2083455,31 28.4083919,28.1182266 30.8253148,22.0591133 C31.6309558,22.0591133 33.6816784,22.2068966 34.7070396,20.2118227 C34.7070396,20.2118227 35,19.6945813 35,19.6945813 L34.6337995,19.3990148 C33.9746387,19.0295567 32.4365968,18.8817734 31.3379955,19.1773399 Z M20,10 L20,13 L23,13 L23,10 L20,10 Z M20,14 L20,17 L23,17 L23,14 L20,14 Z M16,14 L16,17 L19,17 L19,14 L16,14 Z M12,14 L12,17 L15,17 L15,14 L12,14 Z M8,18 L8,21 L11,21 L11,18 L8,18 Z M12,18 L12,21 L15,21 L15,18 L12,18 Z M16,18 L16,21 L19,21 L19,18 L16,18 Z M20,18 L20,21 L23,21 L23,18 L20,18 Z M24,18 L24,21 L27,21 L27,18 L24,18 Z"/>
    <path id="download-pic-C" d="M19.5,39 C8.73044738,39 0,30.2695526 0,19.5 C0,8.73044738 8.73044738,0 19.5,0 C30.2695526,0 39,8.73044738 39,19.5 C39,30.2695526 30.2695526,39 19.5,39 Z M28,17 L23,17 L23,10 L16,10 L16,17 L11,17 L20,26 L28,17 Z M11,28 L11,30 L28,30 L28,28 L11,28 Z"/>
    <path id="download-pic-D" d="M29,25.9785593 L29,14 C29,13.03975 28.105,12.1 27,12 L26,12 L26,10 L24,10 L24,12 L16,12 L16,10 L14,10 L14,12 L13,12 C11.895,12.1 11.01,13.03975 11,14 L11,25.974894 C5.6678163,25.9727881 1.55322822,25.9695847 1.09715274,25.9647114 C0.386492992,23.9416287 0,21.7659495 0,19.5 C0,8.73044738 8.73044738,0 19.5,0 C30.2695526,0 39,8.73044738 39,19.5 C39,21.7712604 38.6116932,23.9518269 37.897845,25.9789339 C37.0120471,25.9789339 33.5133663,25.9789339 29,25.9785593 Z M24,24 L21,24 L21,27 L19,27 L19,24 L16,24 L16,22 L19,22 L19,19 L21,19 L21,22 L24,22 L24,24 Z M27,29 L13,29 L13,17 L27,17 L27,29 Z"/>
    <path id="download-pic-E" d="M15.5,0.197527587 L15.5,0.583333333 L11.1666667,0.583333333 C9.96958333,0.583333333 9.01083333,1.55291667 9.01083333,2.75 L9.00541667,6.86666667 L10.625,6.86666667 C12.2391667,6.86666667 13.55,8.1775 13.55,9.79166667 C13.55,11.4058333 12.2391667,12.7166667 10.625,12.7166667 L9.00541667,12.7166667 L9,16.8333333 C9,18.0304161 9.96958333,19 11.1666667,19 L15.2833333,19 L15.2833333,17.375 C15.2833333,15.7608333 16.5941667,14.45 18.2083333,14.45 C19.8225,14.45 21.1333333,15.7608317 21.1333333,17.375 L21.1333333,19 L25.25,19 C26.4470833,19 27.4166667,18.0304161 27.4166667,16.8333333 L27.4166667,12.5 L29.0416667,12.5 C30.5366667,12.5 31.75,11.2866667 31.75,9.79166667 C31.75,8.29666667 30.5366667,7.08333333 29.0416667,7.08333333 L27.4166667,7.08333333 L27.4166667,2.75 C27.4166667,1.55291667 26.4470833,0.583333333 25.25,0.583333333 L20.9166667,0.583333333 L20.9166667,0.198538555 C28.4097859,0.200292192 35.5524225,0.203646551 37.1552244,0.210062779 C38.3385622,2.72586287 39,5.53568789 39,8.5 C39,19.2695526 30.2695526,28 19.5,28 C8.73044738,28 0,19.2695526 0,8.5 C0,5.53040599 0.663797068,2.7158501 1.85110612,0.196617399 C3.58727806,0.196617399 9.2144411,0.196617399 15.5,0.197527587 Z"/>
    <path id="download-pic-F" d="M29.5300266,25.9803039 C29.4503298,25.806954 29.335867,25.6464581 29.18751,25.509702 C28.69184,25.064443 28.52116,24.360122 28.75796,23.737295 C28.99488,23.114469 29.59059,22.701691 30.25682,22.698366 L30.36674,22.698366 C30.39675,22.698397 30.42676,22.698397 30.45665,22.698397 C31.19888,22.694646 31.82131,22.13666 31.90573,21.39916 L31.90573,21.39919 C32.01016,20.4954 32.01029,19.58265 31.90598,18.67877 C31.77398,17.92269 31.11434,17.37303 30.34685,17.37959 C29.6755,17.39145 29.06722,16.98563 28.8203,16.36125 C28.57338,15.73684 28.73966,15.02474 29.23753,14.57426 C29.81031,14.05477 29.88021,13.17944 29.39747,12.57546 C28.84043,11.86461 28.20336,11.22037 27.49858,10.65559 C26.89128,10.1704 26.01144,10.24135 25.48977,10.81751 C25.16111,11.153 24.71021,11.3403 24.24052,11.33624 C24.04545,11.33713 23.85208,11.30043 23.67092,11.2283 C23.03922,10.96174 22.64321,10.32684 22.68164,9.64222 C22.73044,8.8665 22.16425,8.18792 21.39225,8.09715 C20.49594,7.99339 19.59084,7.99111 18.69392,8.09017 C17.930457,8.17575 17.36073,8.83334 17.384641,9.60129 C17.407577,10.27877 17.01011,10.90013 16.385239,11.16331 C16.206513,11.23135 16.016686,11.26524 15.825516,11.26326 C15.35607,11.26792 14.905046,11.08139 14.576142,10.74651 C14.295792,10.44194 13.901009,10.26812 13.486828,10.26684 C13.157679,10.2688 12.838168,10.37868 12.57746,10.57961 C11.860482,11.14361 11.209993,11.78742 10.638679,12.49857 C10.159108,13.10715 10.22889,13.98227 10.798618,14.50735 C11.306004,14.9674 11.469969,15.69627 11.208529,16.32925 C10.911343,16.95382 10.270613,17.34137 9.579377,17.3146 C8.8154299,17.28516 8.1596944,17.85346 8.08027421,18.61381 C7.97035466,19.51964 7.97035466,20.43538 8.08027421,21.34121 C8.2115433,22.102593 8.8767945,22.655637 9.649281,22.64542 L9.709304,22.64545 C10.348814,22.658809 10.918785,23.051884 11.15851,23.64476 C11.408848,24.274236 11.245982,24.992861 10.748599,25.452699 C10.5847447,25.601419 10.4622406,25.7793901 10.3822716,25.9717915 C6.50081795,25.9712473 3.15572089,25.9712473 1.09944997,25.9712473 C0.387325932,23.9463149 0,21.7683899 0,19.5 C0,8.73044738 8.73044738,0 19.5,0 C30.2695526,0 39,8.73044738 39,19.5 C39,21.7772404 38.6096457,23.9633087 37.8921998,25.9949423 C36.1443171,25.9884432 33.1315658,25.9837267 29.5300266,25.9803039 Z M29.92694,19.07755 L29.92682,19.07355 C29.9872,19.69809 29.9872,20.32695 29.92706,20.9514 C28.64426,20.97189 27.49346,21.74471 26.98888,22.924305 C26.48869,24.111979 26.74866,25.483747 27.64852,26.40623 C27.24214,26.883941 26.79405,27.324412 26.30935,27.722428 C25.68643,27.146845 24.86881,26.828341 24.02081,26.830963 C23.62017,26.829286 23.22307,26.905321 22.85134,27.054798 C21.67956,27.546081 20.90231,28.676081 20.86254,29.946103 C20.24755,30.003594 19.62866,30.003594 19.01367,29.946103 C19.00464,28.659672 18.23045,27.502193 17.044757,27.002858 C16.664857,26.84539 16.256898,26.765878 15.845645,26.768989 C14.99691,26.771215 14.180138,27.092251 13.556976,27.668383 C13.087165,27.267775 12.65261,26.827792 12.257705,26.353253 C13.149139,25.436657 13.411312,24.078369 12.925152,22.895819 C12.439115,21.71327 11.297343,20.93215 10.019177,20.90748 C9.967572,20.28209 9.970744,19.65341 10.029059,19.02854 C11.30637,18.99804 12.451193,18.23256 12.967241,17.0638 C13.462184,15.87552 13.20294,14.50677 12.307602,13.58181 C12.710315,13.10078 13.158777,12.65997 13.646766,12.26568 C14.266879,12.83919 15.080844,13.15726 15.925432,13.1561 C16.316311,13.09334 16.690477,12.95152 17.024871,12.73936 C18.20349,12.35059 19.02404,11.28015 19.09346,10.04093 C19.70845,9.98396 20.32734,9.98399 20.94245,10.04097 C20.95257,11.32746 21.72616,12.485 22.91112,12.98619 C23.28809,13.14235 23.69239,13.22153 24.10035,13.21906 C24.94957,13.22018 25.76768,12.89869 26.38902,12.3196 C26.86334,12.71493 27.29851,13.15507 27.68829,13.63388 C26.80308,14.55224 26.54481,15.90714 27.02987,17.08683 C27.51505,18.26651 28.65182,19.04766 29.92694,19.07755 Z M19.99282,23.997607 L19.99282,23.997638 C22.19914,23.992117 23.98372,22.200252 23.98042,19.99402 C23.98042,18.37323 23.00323,16.91237 21.5051,16.29366 C20.00709,15.67495 18.28388,16.02042 17.140159,17.16878 C15.996434,18.31714 15.65777,20.04181 16.282518,21.53732 C16.907266,23.032853 18.37221,24.004164 19.99282,23.997607 Z M19.99282,18.00919 C18.89021,18.01471 18.00036,18.912 18.00402,20.01461 C18.00768,21.11722 18.90351,22.008594 20.00612,22.006764 C21.10873,22.004934 22.00163,21.1106 22.00163,20.00799 C22.00187,19.47596 21.79009,18.9658 21.41299,18.59044 C21.03602,18.21509 20.52485,18.00556 19.99282,18.00821 L19.99282,18.00919 Z"/>
  </defs>
  <g fill="none" fill-rule="evenodd">
    <rect width="2110" height="160" fill="#A6E3E8"/>
    <use fill="#39C2D7" fill-opacity=".2" xlink:href="#download-pic-a"/>
    <use fill="url(#download-pic-b)" fill-opacity=".4" xlink:href="#download-pic-a"/>
    <use fill="url(#download-pic-c)" xlink:href="#download-pic-a"/>
    <use fill="#79D6D9" fill-opacity=".7" xlink:href="#download-pic-a"/>
    <path stroke="#FFF" d="M710.5 33L710.5 87M616.5 100L616.5 131M382.5 100L382.5 132M308.5 145L308.5 160M382.5 22L382.5 87M623 93.5L704 93.5M480 93.5L610 93.5M389 93.5L467 93.5M717 26.5L816 26.5M861 26.5L960 26.5M973 153.5L1072 153.5M1117 153.5L1216 153.5M1344 153.5L1511 153.5M1229 153.5L1331 153.5M1344 97.5L1431 97.5M1460 15.5L1560 15.5M1173 15.5L1447 15.5M241 15.5L376 15.5M1476 97.5L1645 97.5" opacity=".3"/>
    <g opacity=".197">
      <use fill="#FFF" xlink:href="#download-pic-d"/>
      <circle cx="616.5" cy="93.5" r="3" stroke="#FFF"/>
    </g>
    <g opacity=".197">
      <use fill="#FFF" xlink:href="#download-pic-e"/>
      <circle cx="382.5" cy="93.5" r="3" stroke="#FFF"/>
    </g>
    <g opacity=".197">
      <use fill="#FFF" xlink:href="#download-pic-f"/>
      <circle cx="308.5" cy="138.5" r="3" stroke="#FFF"/>
    </g>
    <g opacity=".197">
      <use fill="#FFF" xlink:href="#download-pic-g"/>
      <circle cx="710.5" cy="93.5" r="3" stroke="#FFF"/>
    </g>
    <g opacity=".197">
      <use fill="#FFF" xlink:href="#download-pic-h"/>
      <circle cx="710.5" cy="26.5" r="3" stroke="#FFF"/>
    </g>
    <path stroke="#FFF" d="M473.5,75 L473.5,87" opacity=".3"/>
    <g opacity=".197">
      <use fill="#FFF" xlink:href="#download-pic-i"/>
      <circle cx="473.5" cy="93.5" r="3" stroke="#FFF"/>
    </g>
    <path stroke="#FFF" d="M315,138.5 L376,138.5" opacity=".3"/>
    <g opacity=".197">
      <use fill="#FFF" xlink:href="#download-pic-j"/>
      <circle cx="382.5" cy="138.5" r="3" stroke="#FFF"/>
    </g>
    <path stroke="#FFF" d="M966.5 33L966.5 147M1337.5 104L1337.5 147M966.5 0L966.5 20" opacity=".3"/>
    <g opacity=".197">
      <use fill="#FFF" xlink:href="#download-pic-k"/>
      <circle cx="966.5" cy="26.5" r="3" stroke="#FFF"/>
    </g>
    <path stroke="#FFF" d="M1453.5 22L1453.5 75M1566.5 0L1566.5 9" opacity=".3"/>
    <path stroke="#FFF" d="M1651.5 104L1651.5 127M1764.5 140L1764.5 160M1840.5 67L1840.5 127" opacity=".2"/>
    <g opacity=".197">
      <use fill="#FFF" xlink:href="#download-pic-l"/>
      <circle cx="1337.5" cy="153.5" r="3" stroke="#FFF"/>
    </g>
    <g opacity=".197">
      <use fill="#FFF" xlink:href="#download-pic-m"/>
      <circle cx="1337.5" cy="97.5" r="3" stroke="#FFF"/>
    </g>
    <g opacity=".197">
      <use fill="#FFF" xlink:href="#download-pic-n"/>
      <circle cx="966.5" cy="153.5" r="3" stroke="#FFF"/>
    </g>
    <g opacity=".197">
      <use fill="#FFF" xlink:href="#download-pic-o"/>
      <circle cx="1222.5" cy="153.5" r="3" stroke="#FFF"/>
    </g>
    <g opacity=".197">
      <use fill="#FFF" xlink:href="#download-pic-p"/>
      <circle cx="1517.5" cy="153.5" r="3" stroke="#FFF"/>
    </g>
    <g opacity=".197">
      <use fill="#FFF" xlink:href="#download-pic-q"/>
      <circle cx="1453.5" cy="15.5" r="3" stroke="#FFF"/>
    </g>
    <g opacity=".197">
      <use fill="#FFF" xlink:href="#download-pic-r"/>
      <circle cx="382.5" cy="15.5" r="3" stroke="#FFF"/>
    </g>
    <g opacity=".197">
      <use fill="#FFF" xlink:href="#download-pic-s"/>
      <circle cx="1566.5" cy="15.5" r="3" stroke="#FFF"/>
    </g>
    <path stroke="#FFF" d="M1166.5 0L1166.5 9M234.5 0L234.5 9" opacity=".3"/>
    <g opacity=".197">
      <use fill="#FFF" xlink:href="#download-pic-t"/>
      <circle cx="1166.5" cy="15.5" r="3" stroke="#FFF"/>
    </g>
    <g opacity=".197">
      <use fill="#FFF" xlink:href="#download-pic-u"/>
      <circle cx="234.5" cy="15.5" r="3" stroke="#FFF"/>
    </g>
    <path stroke="#FFF" d="M1734 60.5L1834 60.5M1727.5 31L1727.5 54" opacity=".2"/>
    <g opacity=".195">
      <use fill="#FFF" xlink:href="#download-pic-v"/>
      <circle cx="1727.5" cy="60.5" r="3" stroke="#FFF"/>
    </g>
    <g opacity=".195">
      <use fill="#FFF" xlink:href="#download-pic-w"/>
      <circle cx="1840.5" cy="60.5" r="3" stroke="#FFF"/>
    </g>
    <g opacity=".195">
      <use fill="#FFF" xlink:href="#download-pic-x"/>
      <circle cx="1840.5" cy="133.5" r="3" stroke="#FFF"/>
    </g>
    <g opacity=".195">
      <use fill="#FFF" xlink:href="#download-pic-y"/>
      <circle cx="1651.5" cy="97.5" r="3" stroke="#FFF"/>
    </g>
    <g opacity=".195">
      <use fill="#FFF" xlink:href="#download-pic-z"/>
      <circle cx="1651.5" cy="133.5" r="3" stroke="#FFF"/>
    </g>
    <g opacity=".195">
      <use fill="#FFF" xlink:href="#download-pic-A"/>
      <circle cx="1764.5" cy="133.5" r="3" stroke="#FFF"/>
    </g>
    <g transform="translate(819 7)">
      <g opacity=".2">
        <use fill="#FFF" xlink:href="#download-pic-B"/>
        <path stroke="#FFF" d="M19.5,38.5 C29.9934102,38.5 38.5,29.9934102 38.5,19.5 C38.5,9.00658975 29.9934102,0.5 19.5,0.5 C9.00658975,0.5 0.5,9.00658975 0.5,19.5 C0.5,29.9934102 9.00658975,38.5 19.5,38.5 Z M31.7595705,18.5831258 C32.8635732,18.425101 34.1965008,18.5819256 34.9478325,19.0099347 L35.644109,19.5719111 L35.4350627,19.9409965 C35.3984427,20.0056516 35.3984427,20.0056516 35.2885825,20.1996172 C35.1787224,20.3935827 35.1787224,20.3935827 35.1517449,20.4403774 C34.6716899,21.3744337 33.9555407,21.971352 33.0664049,22.2860299 C32.4544744,22.5026008 31.9307123,22.5613758 31.1596867,22.5612132 C28.694588,28.4006962 23.5460071,31.5 16.8364576,31.5 C12.8300131,31.5 10.1439917,30.0351089 8.67642043,27.5304849 C7.63177762,25.7476501 7.30789995,23.4995479 7.588864,21.9688452 L7.66407124,21.5591133 L26.5371509,21.5591133 C27.020809,21.5591133 27.4925912,21.3618277 27.9728198,21.0078199 C28.0607786,20.9429797 28.1995533,20.8277298 28.3319149,20.7151677 C28.0775927,20.2655729 27.9068997,19.7125551 27.8368487,19.1446074 C27.752017,18.1175709 28.0168878,16.9818561 28.6025337,16.0587986 L29.2088495,15.2941618 L29.6013059,15.61092 L29.9640746,15.9037415 C30.9348788,16.6733017 31.5452395,17.5721204 31.7595705,18.5831258 Z M19.5,13.5 L19.5,9.5 L23.5,9.5 L23.5,13.5 L19.5,13.5 Z M19.5,17.5 L19.5,13.5 L23.5,13.5 L23.5,17.5 L19.5,17.5 Z M15.5,17.5 L15.5,13.5 L19.5,13.5 L19.5,17.5 L15.5,17.5 Z M11.5,17.5 L11.5,13.5 L15.5,13.5 L15.5,17.5 L11.5,17.5 Z M7.5,21.5 L7.5,17.5 L11.5,17.5 L11.5,21.5 L7.5,21.5 Z M11.5,21.5 L11.5,17.5 L15.5,17.5 L15.5,21.5 L11.5,21.5 Z M15.5,21.5 L15.5,17.5 L19.5,17.5 L19.5,21.5 L15.5,21.5 Z M19.5,21.5 L19.5,17.5 L23.5,17.5 L23.5,21.5 L19.5,21.5 Z M23.5,17.5 L27.5,17.5 L27.5,21.5 L23.5,21.5 L23.5,17.5 Z"/>
      </g>
    </g>
    <g opacity=".2" transform="translate(454 33)">
      <use fill="#FFF" xlink:href="#download-pic-C"/>
      <path stroke="#FFF" d="M19.5,38.5 C29.9934102,38.5 38.5,29.9934102 38.5,19.5 C38.5,9.00658975 29.9934102,0.5 19.5,0.5 C9.00658975,0.5 0.5,9.00658975 0.5,19.5 C0.5,29.9934102 9.00658975,38.5 19.5,38.5 Z M15.5,16.5 L15.5,9.5 L23.5,9.5 L23.5,16.5 L29.1134219,16.5 L20.0214084,26.7285152 L9.79289322,16.5 L15.5,16.5 Z M10.5,27.5 L28.5,27.5 L28.5,30.5 L10.5,30.5 L10.5,27.5 Z"/>
    </g>
    <g transform="translate(1434 78)">
      <path fill="#FFF" stroke="#FFF" d="M19.5,39 C8.73044738,39 0,30.2695526 0,19.5 C0,8.73044738 8.73044738,0 19.5,0 C30.2695526,0 39,8.73044738 39,19.5 C39,30.2695526 30.2695526,39 19.5,39 Z M19.6335294,8.53615686 C20.7697412,8.53615686 21.8250118,8.64171765 22.8452078,8.85385098 L20.8017804,6.82425098 C20.053749,6.08330196 18.8419922,6.08330196 18.0953098,6.82425098 L15.2441569,9.65584314 C16.5587765,8.92231373 18.1253255,8.53615686 19.6335294,8.53615686 Z M12.9626275,25.9580706 C13.0550353,25.6508314 13.209498,25.3749569 13.6111686,25.3749569 C13.7656314,25.3749569 13.9200941,25.4063216 14.1366118,25.4983922 C15.6492,26.0815059 17.3789804,26.4484392 18.9539608,26.4484392 C20.2513804,26.4484392 21.8877412,25.7746039 21.8877412,24.2707843 C21.8877412,23.1052314 20.961302,22.5221176 20.003498,22.0931294 L15.8660549,20.1923608 C13.5804784,19.1488941 12.0668784,17.2471137 12.0668784,14.670149 C12.0668784,13.7649569 12.2790118,12.9521725 12.6466196,12.2358431 L6.56051765,18.2804627 C5.81316078,19.0227608 5.81316078,20.2267608 6.56051765,20.9680471 L12.6182902,26.9843373 L12.9626275,25.9580706 Z M32.335898,18.2804627 L25.8923059,11.8803765 L25.3156,13.3211294 C25.1618118,13.7204392 24.9766588,13.8725412 24.6980863,13.8725412 C24.5436235,13.8725412 24.3588078,13.811498 24.1422902,13.7204392 C22.8762353,13.1673412 21.2088471,12.7380157 19.9421176,12.7380157 C18.7070902,12.7380157 17.3172627,13.1987059 17.3172627,14.6401333 C17.3172627,15.6208706 18.5522902,16.2350118 19.3246039,16.5719294 L22.8762353,18.1668078 C25.3156,19.2713176 26.8905804,20.9275765 26.8905804,23.7190353 C26.8905804,25.1311216 26.5263451,26.3540078 25.8943294,27.3661098 L32.335898,20.9680471 C33.0829176,20.2267608 33.0829176,19.0227608 32.335898,18.2804627 Z M19.1084235,30.7126902 C18.1765882,30.7126902 17.1503216,30.6233176 16.1183216,30.4600863 L18.0953098,32.4239216 C18.8419922,33.1658824 20.053749,33.1658824 20.8017804,32.4239216 L23.8036863,29.442251 C22.4897412,30.2712235 20.8577647,30.7126902 19.1084235,30.7126902 Z" opacity=".2"/>
    </g>
    <g transform="translate(597 134)">
      <use fill="#FFF" opacity=".2" xlink:href="#download-pic-D"/>
    </g>
    <path stroke="#FFF" d="M1771,133.5 L1834,133.5" opacity=".2"/>
    <path stroke="#FFF" d="M1658,133.5 L1758,133.5" opacity=".3"/>
    <g transform="translate(1708)">
      <use fill="#FFF" opacity=".2" xlink:href="#download-pic-E"/>
    </g>
    <g transform="translate(1075 134)">
      <use fill="#FFF" opacity=".2" xlink:href="#download-pic-F"/>
    </g>
  </g>
</svg>
