<svg width="18" height="18" viewBox="0 0 18 18" xmlns="http://www.w3.org/2000/svg"><title>83B23A0B-F970-4AFC-BBC3-3F2D2CE02A53</title><g fill-rule="nonzero" fill="#1b9ab0"><path d="M7.465 8.22l2.383-.8.772 2.304-2.384.799z"/><path d="M7.465 8.22l2.383-.8.772 2.304-2.384.799z"/><path d="M17 7C15.39.337 12.713-1.102 7 1 .337 2.61-1.102 5.287 1 11c1.61 6.663 4.287 8.102 10 6 6.663-1.61 8.102-4.287 6-10zm-3 4h-1l1 1c-.294.78-.564 1.334-1 1-.18.529-.3.559 0 1-.795-.471-1.17-.726-1-1l-1-1H9v2c.353.232.083.786 0 1-.533-.019-.653.011-1 0-.148-.019-.524-.273-1-1v-1H6c-.4.514-.52.544-1 1-.015-.486-.39-.74-1-1 .31-.64.58-1.193 1-1l1-1-1-2H4c.174.262.054.292 0 0-.441.262-.817.007-1 0-.117-.891.153-1.445 1-2h1L4 6c.294-.78.564-1.335 1-1 .585-.664 1.14-.395 1 0l1 1h2V4c-.353-.233-.083-.787 0-1 .938-.116 1.494.153 2 1v1h1c.805-.65 1.36-.38 2 0-.31.638-.58 1.192-1 1l-1 1 1 2h1c.231-.397.786-.128 1 0 .117.89-.153 1.444-1 2z"/></g></svg>
