<svg width="18" height="18" viewBox="0 0 18 18" fill="none" xmlns="http://www.w3.org/2000/svg"><path d="M13.9583 0.5H4.04167C2.08596 0.5 0.5 2.08596 0.5 4.04167V13.9583C0.5 15.914 2.08596 17.5 4.04167 17.5H13.9583C15.9148 17.5 17.5 15.914 17.5 13.9583V4.04167C17.5 2.08596 15.9148 0.5 13.9583 0.5ZM6.16667 13.9583H4.04167V6.16667H6.16667V13.9583ZM5.10417 5.2685C4.41992 5.2685 3.86458 4.70892 3.86458 4.019C3.86458 3.32908 4.41992 2.7695 5.10417 2.7695C5.78842 2.7695 6.34375 3.32908 6.34375 4.019C6.34375 4.70892 5.78912 5.2685 5.10417 5.2685ZM14.6667 13.9583H12.5417V9.98883C12.5417 7.60317 9.70833 7.78379 9.70833 9.98883V13.9583H7.58333V6.16667H9.70833V7.41687C10.6972 5.58512 14.6667 5.44983 14.6667 9.17071V13.9583Z" fill="#1b9ab0"/></svg>
