<svg xmlns="http://www.w3.org/2000/svg" width="181" height="40" viewBox="0 0 181 40">
  <g fill="#707373">
    <path d="M60.1,10.1 L63.6,10.1 L63.6,24 C63.6,26.2 63.5,26.7 63.4,27.4 C62.9,29.5 60.9,30.8 59.4,31.4 L57.8,29.6 C58.7,29.1 59.5,28.2 59.8,27.5 C60.1,26.9 60.1,26.2 60.1,24.3 L60.1,10.1 Z"/>
    <polygon points="65.4 10.1 74.7 10.1 74.3 12.9 68.8 12.9 68.8 16.8 73.2 16.8 73.2 19.6 68.8 19.6 68.8 27.2 65.3 27.2 65.3 10.1"/>
    <path d="M73.9 15.1L76.9 14.3C77.2 14.8 77.4 15.4 77.4 16.1 77.9 15.5 78.7 14.8 79.3 14.5 79.6 14.4 80 14.3 80.4 14.3 80.9 14.3 81.1 14.3 81.6 14.6L80.7 17.5C80.4 17.3 80.1 17.3 79.7 17.3 79 17.3 78.3 17.6 77.7 18.4L77.7 27.4 74.4 27.4 74.4 18.9C74.4 17.1 74.2 15.8 73.9 15.1zM86.8 14.4C88.6 14.4 90 15 91.1 16.3 92.1 17.5 92.6 18.9 92.6 20.9 92.6 23.1 92.1 24.6 91 25.8 90 26.9 88.8 27.6 86.8 27.6 83.4 27.6 81.1 25 81.1 21 81.1 17 83.4 14.4 86.8 14.4zM86.9 16.8C86.1 16.8 85.5 17.3 85.2 18.1 85 18.8 84.9 19.7 84.9 20.9 84.9 22.4 85 23.5 85.3 24.1 85.6 24.8 86.3 25.1 87 25.1 88.4 25.1 89.1 23.8 89.1 20.8 89.1 19.1 88.9 18 88.4 17.4 88 17.1 87.5 16.8 86.9 16.8zM105.1 13.9L106.5 16C105.8 16.7 105.1 16.9 104.2 16.9 103.9 16.9 103.8 16.9 103.3 16.8 103.8 17.4 104 18 104 18.9 104 21.1 102 22.7 99.3 22.7 99.2 22.7 99.1 22.7 98.8 22.7 98 23.1 97.5 23.4 97.5 23.7 97.5 23.9 97.7 24 98 24L99.8 24C101.7 24 102.7 24.3 103.6 25.1 104.3 25.8 104.7 26.7 104.7 27.8 104.7 28.9 104.4 29.7 103.7 30.4 102.6 31.6 100.7 32 98.7 32 96.9 32 95 31.7 93.9 30.6 93.2 30 92.9 29.2 92.9 28.3 92.9 27.6 93.1 27.3 93.2 27L96.3 27C96.2 27.3 96.2 27.4 96.2 27.8 96.2 28.8 97 29.4 98.6 29.4 99.5 29.4 100.3 29.3 100.7 29 101.2 28.7 101.5 28.2 101.5 27.7 101.5 27.2 101.3 26.8 100.9 26.6 100.6 26.4 100.1 26.3 99.2 26.2 99 26.2 98.6 26.2 97.8 26.2 96.3 26.2 95.3 26 94.8 25.8 94.5 25.7 94.3 25.5 94.1 25.2 94 24.9 93.9 24.6 93.9 24.2 93.9 23.7 94 23.3 94.3 23 94.7 22.6 95.5 22.2 96.2 22 94.4 21.5 93.5 20.4 93.5 18.5 93.5 15.9 95.6 14.2 98.9 14.2 99.6 14.2 100.3 14.3 101.2 14.5 102.1 14.7 102.3 14.8 102.8 14.8 103.4 15 104.4 14.6 105.1 13.9zM98.7 16.8C97.4 16.8 96.7 17.5 96.7 18.7 96.7 20 97.5 20.5 98.7 20.5 100 20.5 100.7 19.9 100.7 18.7 100.7 17.5 99.9 16.8 98.7 16.8zM111.1 10L116.9 10C119 10 120.1 10.3 121.1 11.2 122.1 12 122.5 13 122.5 14.3 122.5 15.5 122.1 16.5 121.3 17.2 120.8 17.7 120.5 17.8 119.7 18.1 122 18.8 123.1 20.2 123.1 22.4 123.1 24.8 121.6 27 118.6 27.2 118.1 27.2 117.3 27.2 116.4 27.2L111 27.2 111 10 111.1 10zM114.6 13L114.6 17 116.7 17C117.5 17 117.9 17 118.2 16.8 118.7 16.6 119.1 15.7 119.1 15 119.1 14.3 118.7 13.6 118.1 13.3 117.8 13.2 117.4 13.1 116.7 13.1L114.6 13.1 114.6 13zM114.6 19.8L114.6 24.5 116.9 24.5C117.6 24.5 118.1 24.4 118.5 24.1 119 23.7 119.4 22.9 119.4 22.1 119.4 21.1 118.9 20.3 118.1 20 117.7 19.9 117.6 19.9 116.8 19.9L114.6 19.9 114.6 19.8zM126.4 9.1C127.5 9.1 128.4 10 128.4 11.2 128.4 12.4 127.5 13.3 126.3 13.3 125.2 13.3 124.3 12.4 124.3 11.2 124.3 10 125.3 9.1 126.4 9.1zM124.7 14.8L128 14.3 128 27.3 124.7 27.3 124.7 14.8zM129.7 15.1L132.6 14.3C132.9 14.8 133.1 15.4 133.1 15.9 133.9 15.4 134 15.3 134.6 15 135.3 14.7 136.1 14.5 136.9 14.5 138.3 14.5 139.6 15.2 139.9 16.3 140.1 16.8 140.1 17.3 140.1 18.1L140.1 27.4 136.8 27.4 136.8 19C136.8 17.6 136.6 17.1 135.7 17.1 135 17.1 134.2 17.5 133.4 18.2L133.4 27.2 130.1 27.2 130.1 18C130.1 17 130 16 129.7 15.1zM148.6 14.6L147.8 16.8 145.7 16.8 145.7 23.3C145.7 24.9 146 25.3 147.1 25.3 147.4 25.3 147.7 25.2 148.3 25.1L148.7 27.1C147.7 27.5 146.9 27.7 146 27.7 144.3 27.7 143 27 142.6 25.8 142.4 25.3 142.4 25 142.4 23.8L142.4 16.8 141.1 16.8 141.1 14.6 142.4 14.6C142.4 13.4 142.4 12.5 142.5 11.6L145.9 10.8C145.8 12 145.7 13.3 145.7 14.6L148.6 14.6zM149.5 15.1L152.5 14.3C152.8 14.8 153 15.4 153 16.1 153.5 15.5 154.3 14.8 154.9 14.5 155.2 14.4 155.6 14.3 156 14.3 156.5 14.3 156.7 14.3 157.2 14.6L156.3 17.5C156 17.3 155.7 17.3 155.3 17.3 154.6 17.3 153.9 17.6 153.3 18.4L153.3 27.4 150 27.4 150 18.9C149.9 17.1 149.7 15.8 149.5 15.1zM157.2 16.1C158 15.6 158.4 15.4 159.3 15.1 160.5 14.6 161.6 14.4 162.8 14.4 164.9 14.4 166.4 15.2 166.9 16.6 167.1 17.1 167.1 17.5 167.1 18.9L167 23.2C167 23.3 167 23.3 167 23.4 167 24.8 167.2 25.3 168.2 26L166.4 28C165.6 27.7 164.9 27.1 164.6 26.5 164.1 26.9 164.1 27 163.8 27.2 163.2 27.6 162.3 27.9 161.2 27.9 158.4 27.9 156.8 26.5 156.8 23.9 156.8 20.9 158.9 19.5 162.9 19.5 163.1 19.5 163.3 19.5 163.6 19.5L163.6 19C163.6 17.6 163.3 17.1 162.1 17.1 161 17.1 159.8 17.6 158.4 18.5L157.2 16.1zM163.7 21.7L163.6 21.7C161.3 21.7 160.5 22.1 160.5 23.6 160.5 24.6 161.1 25.3 162 25.3 162.6 25.3 163.2 25 163.7 24.4L163.7 21.7zM167.5 14.8L170.9 14.4 173.1 21.8C173.3 22.6 173.8 24.4 173.8 24.4 173.8 24.4 174 23 174.2 22.4 174.4 21.6 174.4 21.5 174.7 20.6L176.6 14.6 180.1 14.6 175.5 27.5C174.6 30 174 31 173.1 31.7 172.3 32.3 171.2 32.7 170 32.9L168.9 30.7C169.6 30.5 170.5 30.2 171 29.9 171.4 29.6 171.7 29.3 171.9 28.9 172.2 28.4 172.3 28.2 172.6 27.4L171.8 27.4C171.6 26.8 171.5 26.6 171.3 25.9 171.1 25.1 170.7 23.9 170.6 23.8L167.5 14.8z"/>
    <rect width="31.2" height="2.8" y="37.1"/>
    <polygon points="22.3 13.3 22.3 16.1 26.4 16.1 17 25.5 17 5.4 19.9 8.3 21.9 6.3 15.6 0 9.3 6.3 11.3 8.3 14.2 5.3 14.2 25.5 4.8 16.1 8.9 16.1 8.9 13.3 0 13.3 0 22.2 2.8 22.2 2.8 18 15.6 30.8 28.4 18 28.4 22.2 31.2 22.2 31.2 13.3"/>
  </g>
</svg>
