<svg xmlns="http://www.w3.org/2000/svg" width="227" height="26" fill="none" style=""><rect id="backgroundrect" width="100%" height="100%" x="0" y="0" fill="none" stroke="none" class="" style=""/>




<g class="currentLayer" style=""><title>Layer 1</title><path d="M0,2.03921687246854 C0,0.9129888263206831 2.697302766540189,-7.380314415161848e-10 6.024597716270819,-7.380314415161848e-10 H221.40396607295258 C224.73105016176316,-7.380314415161848e-10 227.4285637892234,0.9129888263206831 227.4285637892234,2.03921687246854 V23.960776720227116 C227.4285637892234,25.086984374221537 224.73105016176316,25.99999206402218 221.40396607295258,25.99999206402218 H6.024597716270819 C2.69731782803448,25.99999206402218 0,25.086984374221537 0,23.960776720227116 V2.03921687246854 z" fill="#0EBAC5" id="svg_1" class=""/><path d="M110.38693958740234,20.142849596452713 V7.772249596452713 H113.00243958740234 V17.986449596452715 H118.30583958740235 V20.142849596452713 H110.38693958740234 zM122.63523958740234,20.31804959645271 C122.04333958740234,20.31804959645271 121.51573958740235,20.21534959645271 121.05263958740235,20.009949596452714 C120.58963958740235,19.80054959645271 120.22313958740234,19.49254959645271 119.95333958740235,19.085749596452715 C119.68753958740234,18.675049596452716 119.55463958740233,18.163649596452714 119.55463958740233,17.551549596452716 C119.55463958740233,17.036149596452717 119.64933958740235,16.603249596452713 119.83853958740235,16.252849596452712 C120.02783958740234,15.902549596452715 120.28553958740235,15.620649596452715 120.61173958740235,15.407249596452715 C120.93793958740235,15.193849596452715 121.30843958740235,15.03274959645271 121.72313958740234,14.924049596452711 C122.14193958740233,14.815249596452716 122.58083958740235,14.738749596452713 123.03993958740234,14.694449596452714 C123.57953958740234,14.63804959645271 124.01443958740234,14.585749596452715 124.34463958740234,14.53744959645271 C124.67483958740235,14.485049596452711 124.91443958740234,14.408549596452715 125.06343958740234,14.307849596452712 C125.21243958740234,14.207249596452712 125.28693958740234,14.058249596452711 125.28693958740234,13.860949596452713 V13.824649596452712 C125.28693958740234,13.442149596452712 125.16613958740234,13.146149596452712 124.92453958740234,12.936749596452714 C124.68693958740235,12.727349596452711 124.34873958740235,12.622649596452714 123.90973958740234,12.622649596452714 C123.44663958740234,12.622649596452714 123.07823958740235,12.725349596452713 122.80433958740235,12.930649596452714 C122.53053958740234,13.132049596452713 122.34933958740234,13.385749596452712 122.26073958740234,13.691749596452713 L119.88083958740233,13.498449596452712 C120.00163958740234,12.934749596452711 120.23923958740235,12.447449596452714 120.59363958740235,12.036749596452712 C120.94793958740235,11.621949596452712 121.40503958740234,11.303849596452716 121.96473958740233,11.082349596452712 C122.52853958740235,10.856849596452712 123.18093958740235,10.744049596452712 123.92183958740235,10.744049596452712 C124.43723958740235,10.744049596452712 124.93053958740234,10.804449596452713 125.40173958740235,10.925349596452712 C125.87693958740235,11.046149596452715 126.29773958740235,11.233349596452712 126.66413958740235,11.487049596452714 C127.03463958740235,11.740749596452712 127.32653958740235,12.066949596452712 127.54003958740235,12.465549596452714 C127.75343958740234,12.860249596452716 127.86013958740234,13.333349596452713 127.86013958740234,13.885049596452713 V20.142849596452713 H125.41983958740235 V18.856249596452713 H125.34733958740235 C125.19833958740234,19.146249596452712 124.99903958740234,19.40194959645271 124.74933958740235,19.623349596452712 C124.49973958740235,19.840849596452713 124.19973958740235,20.011949596452716 123.84933958740234,20.136849596452713 C123.49903958740234,20.257649596452715 123.09433958740235,20.31804959645271 122.63523958740234,20.31804959645271 zM123.37213958740234,18.54214959645271 C123.75073958740234,18.54214959645271 124.08493958740235,18.467649596452716 124.37483958740233,18.318649596452715 C124.66483958740234,18.16564959645271 124.89233958740235,17.960249596452712 125.05743958740234,17.702549596452712 C125.22253958740234,17.444849596452713 125.30503958740235,17.15284959645271 125.30503958740235,16.826749596452714 V15.842149596452714 C125.22453958740235,15.894449596452716 125.11383958740234,15.94284959645271 124.97283958740235,15.98714959645271 C124.83593958740235,16.027349596452716 124.68093958740235,16.065649596452715 124.50773958740234,16.101849596452716 C124.33463958740234,16.134049596452712 124.16143958740234,16.164249596452713 123.98823958740235,16.19244959645271 C123.81513958740234,16.21664959645271 123.65803958740234,16.238749596452713 123.51713958740234,16.258949596452716 C123.21513958740235,16.303249596452716 122.95133958740234,16.373649596452715 122.72583958740233,16.470349596452714 C122.50033958740235,16.566949596452716 122.32513958740235,16.697849596452713 122.20033958740234,16.862949596452715 C122.07553958740235,17.024049596452713 122.01313958740235,17.225349596452716 122.01313958740235,17.466949596452714 C122.01313958740235,17.817349596452715 122.13993958740235,18.085149596452716 122.39363958740233,18.27034959645271 C122.65133958740235,18.451549596452715 122.97753958740233,18.54214959645271 123.37213958740234,18.54214959645271 zM129.85643958740235,20.142849596452713 V10.864949596452714 H132.30883958740236 V12.501849596452715 H132.41753958740236 C132.61083958740235,11.958249596452713 132.93303958740233,11.529349596452715 133.38403958740236,11.215249596452715 C133.83503958740235,10.901149596452711 134.37463958740233,10.744049596452712 135.00283958740235,10.744049596452712 C135.63903958740235,10.744049596452712 136.18073958740234,10.903149596452714 136.62763958740234,11.221249596452711 C137.07463958740234,11.535349596452711 137.37263958740235,11.962249596452715 137.52163958740235,12.501849596452715 H137.61833958740235 C137.80753958740235,11.970249596452714 138.14983958740234,11.545449596452713 138.64513958740235,11.227349596452711 C139.14453958740233,10.905149596452713 139.73443958740233,10.744049596452712 140.41493958740233,10.744049596452712 C141.28073958740234,10.744049596452712 141.98343958740236,11.019949596452712 142.52303958740234,11.571649596452712 C143.06663958740234,12.119249596452715 143.33853958740235,12.896449596452712 143.33853958740235,13.903149596452714 V20.142849596452713 H140.77133958740234 V14.41054959645271 C140.77133958740234,13.895149596452715 140.63443958740234,13.508549596452713 140.36063958740235,13.250849596452714 C140.08673958740235,12.993149596452714 139.74453958740236,12.864249596452712 139.33373958740233,12.864249596452712 C138.86663958740235,12.864249596452712 138.50223958740236,13.013249596452713 138.24043958740234,13.311249596452711 C137.97873958740234,13.605249596452712 137.84783958740235,13.993749596452716 137.84783958740235,14.477049596452716 V20.142849596452713 H135.35313958740235 V14.356249596452713 C135.35313958740235,13.901149596452711 135.22233958740236,13.538749596452714 134.96053958740234,13.268949596452714 C134.70283958740234,12.999149596452714 134.36253958740235,12.864249596452712 133.93973958740236,12.864249596452712 C133.65383958740233,12.864249596452712 133.39613958740233,12.936749596452714 133.16653958740233,13.081749596452713 C132.94103958740234,13.222649596452712 132.76183958740233,13.421949596452713 132.62893958740233,13.679649596452713 C132.49613958740235,13.933349596452715 132.42963958740233,14.231349596452716 132.42963958740233,14.57364959645271 V20.142849596452713 H129.85643958740235 zM145.41943958740234,20.142849596452713 V7.772249596452713 H147.99253958740235 V12.423349596452713 H148.07113958740234 C148.18383958740236,12.173649596452712 148.34693958740235,11.919949596452714 148.56033958740232,11.662249596452714 C148.77783958740235,11.400449596452713 149.05973958740236,11.183049596452712 149.40603958740235,11.009849596452714 C149.75633958740235,10.832649596452715 150.19123958740235,10.744049596452712 150.71073958740234,10.744049596452712 C151.38723958740235,10.744049596452712 152.01143958740235,10.921249596452716 152.58323958740235,11.275649596452713 C153.15503958740234,11.625949596452713 153.61213958740234,12.155549596452712 153.95433958740233,12.864249596452712 C154.29663958740235,13.568949596452715 154.46783958740235,14.452849596452715 154.46783958740235,15.515949596452714 C154.46783958740235,16.550849596452714 154.30073958740235,17.424749596452713 153.96643958740236,18.13744959645271 C153.63623958740234,18.84614959645271 153.18523958740235,19.383749596452716 152.61343958740235,19.75024959645271 C152.04563958740235,20.112649596452712 151.40943958740235,20.293849596452716 150.70463958740234,20.293849596452716 C150.20533958740236,20.293849596452716 149.78053958740236,20.211349596452713 149.43013958740232,20.04624959645271 C149.08383958740234,19.881149596452715 148.79993958740235,19.673749596452716 148.57853958740236,19.42404959645271 C148.35703958740234,19.170349596452716 148.18783958740232,18.914649596452712 148.07113958740234,18.656949596452712 H147.95633958740234 V20.142849596452713 H145.41943958740234 zM147.93823958740234,15.50384959645271 C147.93823958740234,16.055549596452714 148.01473958740235,16.536749596452715 148.16773958740234,16.94754959645271 C148.32073958740233,17.358249596452715 148.54223958740235,17.678449596452715 148.83213958740234,17.90794959645271 C149.12213958740233,18.133449596452717 149.47443958740234,18.24614959645271 149.88923958740236,18.24614959645271 C150.30803958740233,18.24614959645271 150.66243958740233,18.13144959645271 150.95233958740235,17.901849596452713 C151.24223958740234,17.668349596452714 151.46173958740235,17.34614959645271 151.61073958740235,16.935449596452713 C151.76373958740234,16.520649596452714 151.84023958740232,16.04344959645271 151.84023958740232,15.50384959645271 C151.84023958740232,14.968349596452711 151.76573958740235,14.497149596452715 151.61673958740235,14.090449596452716 C151.46773958740235,13.683749596452714 151.24833958740234,13.365649596452712 150.95833958740235,13.136049596452715 C150.66843958740236,12.906549596452713 150.31203958740235,12.791749596452714 149.88923958740236,12.791749596452714 C149.47043958740232,12.791749596452714 149.11603958740233,12.902549596452712 148.82613958740234,13.123949596452716 C148.54023958740234,13.345449596452713 148.32073958740233,13.659549596452713 148.16773958740234,14.066249596452714 C148.01473958740235,14.472949596452715 147.93823958740234,14.952149596452713 147.93823958740234,15.50384959645271 zM159.60363958740234,20.293849596452716 C158.89893958740234,20.293849596452716 158.26063958740235,20.112649596452712 157.68883958740236,19.75024959645271 C157.12103958740235,19.383749596452716 156.67003958740236,18.84614959645271 156.33583958740235,18.13744959645271 C156.00553958740232,17.424749596452713 155.84043958740233,16.550849596452714 155.84043958740233,15.515949596452714 C155.84043958740233,14.452849596452715 156.01163958740233,13.568949596452715 156.35393958740235,12.864249596452712 C156.69623958740235,12.155549596452712 157.15123958740236,11.625949596452713 157.71903958740234,11.275649596452713 C158.29083958740233,10.921249596452716 158.91703958740234,10.744049596452712 159.59753958740234,10.744049596452712 C160.11703958740236,10.744049596452712 160.54993958740235,10.832649596452715 160.89623958740236,11.009849596452714 C161.24653958740234,11.183049596452712 161.52843958740235,11.400449596452713 161.74193958740233,11.662249596452714 C161.95933958740233,11.919949596452714 162.12443958740235,12.173649596452712 162.23723958740234,12.423349596452713 H162.31573958740233 V7.772249596452713 H164.88283958740234 V20.142849596452713 H162.34593958740234 V18.656949596452712 H162.23723958740234 C162.11643958740234,18.914649596452712 161.94523958740234,19.170349596452716 161.72373958740235,19.42404959645271 C161.50633958740235,19.673749596452716 161.22243958740233,19.881149596452715 160.87203958740236,20.04624959645271 C160.52573958740234,20.211349596452713 160.10293958740235,20.293849596452716 159.60363958740234,20.293849596452716 zM160.41903958740232,18.24614959645271 C160.83383958740234,18.24614959645271 161.18413958740234,18.133449596452717 161.47003958740234,17.90794959645271 C161.76003958740233,17.678449596452715 161.98143958740235,17.358249596452715 162.13453958740234,16.94754959645271 C162.29153958740233,16.536749596452715 162.37003958740235,16.055549596452714 162.37003958740235,15.50384959645271 C162.37003958740235,14.952149596452713 162.29353958740234,14.472949596452715 162.14053958740234,14.066249596452714 C161.98753958740235,13.659549596452713 161.76603958740236,13.345449596452713 161.47613958740234,13.123949596452716 C161.18613958740235,12.902549596452712 160.83383958740234,12.791749596452714 160.41903958740232,12.791749596452714 C159.99623958740233,12.791749596452714 159.63983958740235,12.906549596452713 159.34993958740233,13.136049596452715 C159.05993958740234,13.365649596452712 158.84053958740236,13.683749596452714 158.69153958740236,14.090449596452716 C158.54253958740236,14.497149596452715 158.46803958740236,14.968349596452711 158.46803958740236,15.50384959645271 C158.46803958740236,16.04344959645271 158.54253958740236,16.520649596452714 158.69153958740236,16.935449596452713 C158.84453958740232,17.34614959645271 159.06403958740236,17.668349596452714 159.34993958740233,17.901849596452713 C159.63983958740235,18.13144959645271 159.99623958740233,18.24614959645271 160.41903958740232,18.24614959645271 zM169.64413958740235,20.31804959645271 C169.05223958740234,20.31804959645271 168.52463958740236,20.21534959645271 168.06163958740234,20.009949596452714 C167.59853958740234,19.80054959645271 167.23203958740234,19.49254959645271 166.96223958740234,19.085749596452715 C166.69643958740232,18.675049596452716 166.56353958740235,18.163649596452714 166.56353958740235,17.551549596452716 C166.56353958740235,17.036149596452717 166.65823958740236,16.603249596452713 166.84743958740233,16.252849596452712 C167.03673958740234,15.902549596452715 167.29443958740234,15.620649596452715 167.62063958740234,15.407249596452715 C167.94683958740234,15.193849596452715 168.31733958740233,15.03274959645271 168.73203958740234,14.924049596452711 C169.15083958740234,14.815249596452716 169.58983958740234,14.738749596452713 170.04883958740234,14.694449596452714 C170.58843958740235,14.63804959645271 171.02333958740235,14.585749596452715 171.35353958740234,14.53744959645271 C171.68373958740233,14.485049596452711 171.92333958740232,14.408549596452715 172.07233958740233,14.307849596452712 C172.22133958740233,14.207249596452712 172.29583958740233,14.058249596452711 172.29583958740233,13.860949596452713 V13.824649596452712 C172.29583958740233,13.442149596452712 172.17503958740235,13.146149596452712 171.93343958740235,12.936749596452714 C171.69583958740236,12.727349596452711 171.35763958740233,12.622649596452714 170.91863958740234,12.622649596452714 C170.45553958740234,12.622649596452714 170.08713958740236,12.725349596452713 169.81323958740234,12.930649596452714 C169.53943958740234,13.132049596452713 169.35823958740235,13.385749596452712 169.26963958740234,13.691749596452713 L166.88973958740235,13.498449596452712 C167.01053958740235,12.934749596452711 167.24813958740236,12.447449596452714 167.60253958740236,12.036749596452712 C167.95693958740236,11.621949596452712 168.41393958740235,11.303849596452716 168.97363958740235,11.082349596452712 C169.53743958740233,10.856849596452712 170.18983958740233,10.744049596452712 170.93073958740234,10.744049596452712 C171.44623958740235,10.744049596452712 171.93943958740235,10.804449596452713 172.41063958740233,10.925349596452712 C172.88583958740236,11.046149596452715 173.30663958740234,11.233349596452712 173.67303958740234,11.487049596452714 C174.04353958740234,11.740749596452712 174.33543958740233,12.066949596452712 174.54893958740234,12.465549596452714 C174.76233958740232,12.860249596452716 174.86903958740234,13.333349596452713 174.86903958740234,13.885049596452713 V20.142849596452713 H172.42873958740233 V18.856249596452713 H172.35623958740234 C172.20723958740234,19.146249596452712 172.00793958740235,19.40194959645271 171.75823958740233,19.623349596452712 C171.50863958740234,19.840849596452713 171.20863958740233,20.011949596452716 170.85823958740235,20.136849596452713 C170.50793958740235,20.257649596452715 170.10323958740236,20.31804959645271 169.64413958740235,20.31804959645271 zM170.38103958740234,18.54214959645271 C170.75963958740235,18.54214959645271 171.09383958740233,18.467649596452716 171.38373958740235,18.318649596452715 C171.67373958740234,18.16564959645271 171.90123958740236,17.960249596452712 172.06633958740235,17.702549596452712 C172.23143958740235,17.444849596452713 172.31393958740233,17.15284959645271 172.31393958740233,16.826749596452714 V15.842149596452714 C172.23343958740236,15.894449596452716 172.12273958740235,15.94284959645271 171.98173958740233,15.98714959645271 C171.84483958740236,16.027349596452716 171.68983958740233,16.065649596452715 171.51663958740232,16.101849596452716 C171.34353958740235,16.134049596452712 171.17033958740234,16.164249596452713 170.99723958740236,16.19244959645271 C170.82403958740235,16.21664959645271 170.66693958740234,16.238749596452713 170.52603958740235,16.258949596452716 C170.22403958740233,16.303249596452716 169.96023958740233,16.373649596452715 169.73473958740234,16.470349596452714 C169.50923958740236,16.566949596452716 169.33403958740234,16.697849596452713 169.20923958740235,16.862949596452715 C169.08443958740236,17.024049596452713 169.02203958740233,17.225349596452716 169.02203958740233,17.466949596452714 C169.02203958740233,17.817349596452715 169.14883958740234,18.085149596452716 169.40253958740234,18.27034959645271 C169.66023958740234,18.451549596452715 169.98643958740234,18.54214959645271 170.38103958740234,18.54214959645271 zM175.66183958740234,9.928649596452711 V7.772249596452713 H185.82213958740235 V9.928649596452711 H182.03413958740236 V20.142849596452713 H179.44913958740233 V9.928649596452711 H175.66183958740234 zM190.32913958740232,20.32404959645271 C189.37513958740234,20.32404959645271 188.55313958740234,20.130749596452716 187.86513958740233,19.744149596452715 C187.18013958740232,19.353549596452716 186.65313958740234,18.801949596452715 186.28213958740236,18.089149596452714 C185.91213958740235,17.372349596452715 185.72613958740234,16.52464959645271 185.72613958740234,15.546149596452715 C185.72613958740234,14.591749596452715 185.91213958740235,13.754149596452713 186.28213958740236,13.033349596452712 C186.65313958740234,12.312549596452712 187.17413958740235,11.750849596452714 187.84713958740235,11.348149596452714 C188.52313958740234,10.945449596452715 189.31613958740235,10.744049596452712 190.22613958740234,10.744049596452712 C190.83913958740234,10.744049596452712 191.40813958740233,10.842749596452713 191.93613958740235,11.040049596452715 C192.46713958740236,11.233349596452712 192.93113958740236,11.525349596452713 193.32513958740236,11.915949596452712 C193.72413958740236,12.306549596452712 194.03413958740236,12.797849596452714 194.25513958740234,13.389749596452713 C194.47713958740235,13.977649596452716 194.58813958740234,14.666249596452715 194.58813958740234,15.455549596452713 V16.16224959645271 H186.75313958740236 V14.56764959645271 H192.16513958740234 C192.16513958740234,14.19714959645271 192.08513958740235,13.868949596452712 191.92413958740235,13.583049596452714 C191.76313958740235,13.297149596452712 191.53913958740236,13.073649596452716 191.25313958740236,12.912549596452713 C190.97113958740235,12.747449596452714 190.64313958740235,12.664949596452715 190.26913958740235,12.664949596452715 C189.87813958740236,12.664949596452715 189.53213958740236,12.755549596452713 189.23013958740233,12.936749596452714 C188.93213958740233,13.113949596452713 188.69813958740235,13.353549596452712 188.52913958740234,13.655549596452712 C188.36013958740233,13.95354959645271 188.27313958740234,14.28574959645271 188.26913958740235,14.652149596452716 V16.168349596452714 C188.26913958740235,16.62734959645271 188.35413958740236,17.024049596452713 188.52313958740234,17.358249596452715 C188.69613958740234,17.69244959645271 188.94013958740234,17.950249596452714 189.25413958740234,18.13144959645271 C189.56813958740236,18.312649596452715 189.94113958740235,18.40324959645271 190.37113958740235,18.40324959645271 C190.65713958740236,18.40324959645271 190.91913958740236,18.362949596452715 191.15713958740236,18.282449596452715 C191.39413958740235,18.20184959645271 191.59813958740233,18.081049596452715 191.76713958740234,17.920049596452714 C191.93613958740235,17.758949596452716 192.06513958740234,17.56164959645271 192.15313958740234,17.328049596452715 L194.53313958740233,17.485149596452715 C194.41213958740235,18.05694959645271 194.16513958740234,18.556249596452716 193.79013958740234,18.983149596452712 C193.42013958740233,19.405949596452714 192.94113958740235,19.736149596452712 192.35313958740232,19.973749596452713 C191.76913958740235,20.207249596452712 191.09413958740234,20.32404959645271 190.32913958740232,20.32404959645271 zM203.98613958740236,13.510549596452712 L201.63113958740234,13.655549596452712 C201.59013958740235,13.454149596452712 201.50413958740234,13.272949596452712 201.37113958740235,13.111949596452714 C201.23813958740234,12.946849596452711 201.06313958740236,12.815949596452715 200.84513958740234,12.719249596452713 C200.63213958740235,12.618649596452713 200.37613958740235,12.568249596452713 200.07813958740235,12.568249596452713 C199.68013958740232,12.568249596452713 199.34313958740233,12.652849596452715 199.07013958740234,12.821949596452715 C198.79613958740234,12.987049596452714 198.65913958740236,13.208549596452713 198.65913958740236,13.486449596452712 C198.65913958740236,13.707849596452714 198.74713958740233,13.895149596452715 198.92513958740233,14.04814959645271 C199.10213958740235,14.201149596452716 199.40613958740235,14.32404959645271 199.83713958740236,14.416649596452716 L201.51613958740234,14.754849596452715 C202.41813958740235,14.940149596452713 203.09013958740235,15.238149596452715 203.53313958740233,15.648849596452713 C203.97613958740234,16.05954959645271 204.19813958740235,16.599149596452712 204.19813958740235,17.267649596452717 C204.19813958740235,17.875749596452714 204.01913958740235,18.40924959645271 203.66013958740234,18.86834959645271 C203.30613958740236,19.327449596452716 202.81913958740233,19.685849596452712 202.19813958740235,19.943549596452712 C201.58213958740234,20.197249596452714 200.87213958740233,20.32404959645271 200.06613958740235,20.32404959645271 C198.83813958740234,20.32404959645271 197.85913958740235,20.068349596452713 197.13113958740234,19.55694959645271 C196.40613958740235,19.04154959645271 195.98113958740234,18.340849596452713 195.85613958740234,17.454949596452714 L198.38713958740234,17.322049596452715 C198.46313958740234,17.696549596452712 198.64913958740235,17.98244959645271 198.94313958740236,18.179749596452716 C199.23713958740234,18.373049596452717 199.61313958740234,18.46964959645271 200.07213958740235,18.46964959645271 C200.52313958740234,18.46964959645271 200.88613958740234,18.38314959645271 201.15913958740236,18.209949596452716 C201.43713958740233,18.03274959645271 201.57813958740235,17.80524959645271 201.58213958740234,17.527349596452716 C201.57813958740235,17.293849596452716 201.48013958740233,17.10254959645271 201.28613958740235,16.95354959645271 C201.09313958740233,16.80054959645271 200.79513958740233,16.683749596452714 200.39213958740234,16.603249596452713 L198.78613958740235,16.283049596452713 C197.88013958740234,16.101849596452716 197.20513958740236,15.787749596452713 196.76213958740234,15.34074959645271 C196.32313958740235,14.89384959645271 196.10413958740236,14.32404959645271 196.10413958740236,13.631349596452715 C196.10413958740236,13.035349596452711 196.26513958740236,12.521949596452714 196.58713958740236,12.091049596452713 C196.91313958740233,11.660249596452712 197.37013958740235,11.327949596452711 197.95813958740234,11.094449596452712 C198.55013958740233,10.860849596452713 199.24313958740234,10.744049596452712 200.03613958740235,10.744049596452712 C201.20813958740234,10.744049596452712 202.13013958740234,10.991749596452713 202.80213958740234,11.487049596452714 C203.47913958740236,11.982349596452714 203.87413958740234,12.656849596452712 203.98613958740236,13.510549596452712 zM210.75313958740233,10.864949596452714 V12.797849596452714 H205.16613958740234 V10.864949596452714 H210.75313958740233 zM206.43413958740234,8.642049596452715 H209.00713958740235 V17.291849596452714 C209.00713958740235,17.529449596452714 209.04413958740236,17.714649596452716 209.11613958740233,17.847549596452716 C209.18913958740234,17.976349596452714 209.28913958740233,18.066949596452716 209.41813958740235,18.119349596452714 C209.55113958740233,18.17164959645271 209.70413958740235,18.197849596452713 209.87713958740235,18.197849596452713 C209.99813958740233,18.197849596452713 210.11913958740234,18.187849596452715 210.24013958740235,18.167649596452712 C210.36013958740233,18.143549596452715 210.45313958740235,18.125349596452715 210.51713958740234,18.113349596452714 L210.92213958740234,20.02804959645271 C210.79313958740235,20.068349596452713 210.61213958740234,20.114649596452715 210.37913958740234,20.167049596452717 C210.14513958740235,20.223349596452714 209.86113958740233,20.257649596452715 209.52713958740233,20.269749596452712 C208.90713958740236,20.293849596452716 208.36313958740234,20.211349596452713 207.89613958740233,20.02204959645271 C207.43313958740234,19.832749596452715 207.07213958740235,19.538849596452714 206.81513958740234,19.140149596452716 C206.55713958740233,18.74144959645271 206.43013958740235,18.238149596452715 206.43413958740234,17.630049596452714 V8.642049596452715 z" fill="white" id="svg_2" class=""/><path d="M12.358,11.248792998552322 V10.254792998552322 H17.5803 V11.248792998552322 H15.5572 V16.800292998552322 H14.381 V11.248792998552322 H12.358 zM20.587,16.800292998552322 V10.254792998552322 H24.8441 V11.248792998552322 H21.7727 V13.025792998552323 H24.6236 V14.019792998552322 H21.7727 V15.806292998552323 H24.8697 V16.800292998552322 H20.587 zM31.611,12.054192998552322 C31.5811,11.775092998552322 31.4554,11.557792998552323 31.2338,11.402192998552323 C31.0144,11.246692998552323 30.7289,11.168892998552323 30.3773,11.168892998552323 C30.1301,11.168892998552323 29.9181,11.206192998552323 29.7413,11.280792998552322 C29.5645,11.355292998552322 29.4292,11.456492998552323 29.3354,11.584392998552323 C29.2417,11.712192998552322 29.1937,11.858192998552322 29.1916,12.022192998552322 C29.1916,12.158592998552322 29.2225,12.276892998552322 29.2843,12.376992998552323 C29.3482,12.477092998552322 29.4345,12.562392998552323 29.5431,12.632692998552322 C29.6518,12.700892998552323 29.7722,12.758392998552322 29.9043,12.805292998552323 C30.0364,12.852092998552322 30.1696,12.891592998552323 30.3038,12.923492998552323 L30.9174,13.076892998552323 C31.1646,13.134492998552322 31.4022,13.212192998552322 31.6301,13.310192998552322 C31.8603,13.408292998552323 32.0659,13.531792998552323 32.247,13.680992998552323 C32.4302,13.830092998552322 32.5751,14.010192998552322 32.6816,14.221092998552322 C32.7882,14.431992998552323 32.8414,14.679192998552322 32.8414,14.962592998552322 C32.8414,15.346092998552322 32.7434,15.683792998552322 32.5474,15.975692998552322 C32.3514,16.265492998552322 32.068,16.492392998552322 31.6973,16.656492998552324 C31.3287,16.818392998552323 30.8823,16.899392998552322 30.3581,16.899392998552322 C29.8489,16.899392998552322 29.4068,16.82049299855232 29.0318,16.662892998552323 C28.6589,16.50519299855232 28.367,16.27509299855232 28.1561,15.972492998552323 C27.9473,15.669992998552322 27.8343,15.301392998552322 27.8173,14.866692998552322 H28.9838 C29.0009,15.094692998552322 29.0712,15.284292998552322 29.1948,15.435592998552323 C29.3184,15.586892998552322 29.4792,15.699792998552322 29.6774,15.774392998552322 C29.8777,15.848992998552323 30.1014,15.886192998552321 30.3485,15.886192998552321 C30.6064,15.886192998552321 30.8322,15.847892998552322 31.0261,15.771192998552323 C31.2221,15.692292998552322 31.3755,15.583692998552323 31.4863,15.445192998552322 C31.5971,15.304592998552323 31.6536,15.140492998552322 31.6557,14.952992998552322 C31.6536,14.782492998552323 31.6035,14.641892998552322 31.5055,14.531092998552323 C31.4075,14.418192998552323 31.2701,14.324392998552323 31.0932,14.249892998552323 C30.9185,14.173192998552322 30.714,14.104992998552323 30.4796,14.045292998552322 L29.7349,13.853592998552323 C29.1958,13.715092998552322 28.7697,13.505192998552323 28.4565,13.223992998552323 C28.1454,12.940592998552322 27.9899,12.564492998552323 27.9899,12.095792998552323 C27.9899,11.710092998552323 28.0943,11.372392998552323 28.3031,11.082592998552322 C28.514,10.792792998552322 28.8006,10.568092998552322 29.1628,10.408292998552323 C29.525,10.246292998552322 29.935200000000002,10.165392998552322 30.3933,10.165392998552322 C30.8578,10.165392998552322 31.2647,10.246292998552322 31.6142,10.408292998552323 C31.965700000000002,10.568092998552322 32.2417,10.790692998552322 32.4419,11.076192998552322 C32.6422,11.359592998552323 32.7456,11.685592998552323 32.752,12.054192998552322 H31.611 zM35.6109,11.248792998552322 V10.254792998552322 H40.8332 V11.248792998552322 H38.8101 V16.800292998552322 H37.634 V11.248792998552322 H35.6109 zM43.8399,16.800292998552322 V10.254792998552322 H48.097 V11.248792998552322 H45.0257 V13.025792998552323 H47.8765 V14.019792998552322 H45.0257 V15.806292998552323 H48.1226 V16.800292998552322 H43.8399 zM53.5248,16.800292998552322 H51.3067 V10.254792998552322 H53.5695 C54.2194,10.254792998552322 54.7776,10.385892998552322 55.2442,10.647992998552322 C55.713,10.907892998552322 56.0731,11.281792998552323 56.3245,11.769792998552322 C56.5759,12.257692998552322 56.7016,12.841492998552322 56.7016,13.521192998552323 C56.7016,14.202992998552322 56.5748,14.788892998552322 56.3213,15.278992998552322 C56.0699,15.768992998552323 55.7066,16.14509299855232 55.2314,16.407192998552322 C54.7584,16.669292998552322 54.1895,16.800292998552322 53.5248,16.800292998552322 zM52.4925,15.774392998552322 H53.4672 C53.9232,15.774392998552322 54.3035,15.691292998552322 54.6082,15.525092998552322 C54.9129,15.356792998552322 55.142,15.106392998552323 55.2954,14.773992998552323 C55.4488,14.439492998552323 55.5255,14.021892998552323 55.5255,13.521192998552323 C55.5255,13.020492998552323 55.4488,12.604992998552323 55.2954,12.274692998552322 C55.142,11.942292998552322 54.915,11.694092998552323 54.6146,11.530092998552323 C54.3163,11.363892998552323 53.9456,11.280792998552322 53.5024,11.280792998552322 H52.4925 V15.774392998552322 zM69.9094,13.527592998552322 C69.9094,14.232792998552322 69.7773,14.836892998552322 69.5131,15.339692998552323 C69.251,15.840392998552321 68.893,16.223992998552323 68.4392,16.490292998552324 C67.9875,16.75659299855232 67.4751,16.889792998552323 66.9019,16.889792998552323 C66.3287,16.889792998552323 65.8153,16.75659299855232 65.3614,16.490292998552324 C64.9097,16.221792998552324 64.5518,15.837192998552322 64.2876,15.336492998552323 C64.0255,14.833692998552323 63.8944,14.230692998552323 63.8944,13.527592998552322 C63.8944,12.822292998552323 64.0255,12.219292998552323 64.2876,11.718592998552323 C64.5518,11.215792998552322 64.9097,10.831192998552323 65.3614,10.564892998552322 C65.8153,10.298492998552323 66.3287,10.165392998552322 66.9019,10.165392998552322 C67.4751,10.165392998552322 67.9875,10.298492998552323 68.4392,10.564892998552322 C68.893,10.831192998552323 69.251,11.215792998552322 69.5131,11.718592998552323 C69.7773,12.219292998552323 69.9094,12.822292998552323 69.9094,13.527592998552322 zM68.7172,13.527592998552322 C68.7172,13.031092998552323 68.6395,12.612392998552323 68.4839,12.271492998552322 C68.3305,11.928492998552322 68.1175,11.669592998552323 67.8447,11.494892998552322 C67.572,11.318092998552322 67.2577,11.229592998552322 66.9019,11.229592998552322 C66.5461,11.229592998552322 66.2318,11.318092998552322 65.9591,11.494892998552322 C65.6863,11.669592998552323 65.4722,11.928492998552322 65.3167,12.271492998552322 C65.1633,12.612392998552323 65.0866,13.031092998552323 65.0866,13.527592998552322 C65.0866,14.023992998552323 65.1633,14.443792998552322 65.3167,14.786792998552322 C65.4722,15.127692998552323 65.6863,15.386592998552322 65.9591,15.563392998552322 C66.2318,15.738192998552323 66.5461,15.825492998552324 66.9019,15.825492998552324 C67.2577,15.825492998552324 67.572,15.738192998552323 67.8447,15.563392998552322 C68.1175,15.386592998552322 68.3305,15.127692998552323 68.4839,14.786792998552322 C68.6395,14.443792998552322 68.7172,14.023992998552323 68.7172,13.527592998552322 zM78.4093,10.254792998552322 V16.800292998552322 H77.3546 L74.2704,12.341792998552322 H74.2161 V16.800292998552322 H73.0304 V10.254792998552322 H74.0914 L77.1724,14.716492998552322 H77.2299 V10.254792998552322 H78.4093 z" fill="white" id="svg_3" class=""/><path fill-rule="evenodd" clip-rule="evenodd" d="M96.40112972946167,18.382564699602128 V19.70066469960213 C96.40112972946167,20.021364699602124 96.04322972946167,20.21906469960213 95.75762972946167,20.050264699602124 L95.13382972946167,19.658164699602125 L94.98382972946168,19.575364699602126 L92.22482972946167,18.013964699602127 L92.07522972946167,17.929964699602124 C91.91942972946167,17.84196469960213 91.79162972946168,17.715964699602125 91.70322972946167,17.563864699602128 C91.61592972946167,17.413064699602124 91.57042972946167,17.241864699602125 91.57212972946166,17.07206469960213 L91.57142972946167,13.789364699602125 V10.501464699602128 C91.57142972946167,10.316864699602128 91.62472972946168,10.136664699602129 91.72362972946166,9.981964699602127 C91.82172972946167,9.826564699602127 91.96372972946168,9.698864699602126 92.10932972946168,9.630064699602126 L94.83022972946168,8.090864699602129 L94.97922972946168,8.005564699602129 L95.12902972946168,7.9218646996021285 L97.73482972946167,6.449164699602129 L97.88752972946168,6.360664699602125 C98.05512972946167,6.266164699602125 98.24492972946167,6.221164699602127 98.43732972946167,6.229964699602128 C98.62412972946167,6.238864699602129 98.80822972946167,6.298764699602128 98.93482972946167,6.387164699602128 L101.64642972946167,7.920964699602127 L101.79672972946167,8.003964699602125 L104.55392972946167,9.564464699602127 L104.70452972946167,9.648764699602125 C104.86022972946166,9.736964699602126 104.98772972946168,9.862764699602128 105.07602972946167,10.014864699602128 C105.16322972946168,10.165264699602126 105.20862972946168,10.336464699602129 105.20712972946167,10.506764699602126 L105.20772972946168,13.495964699602126 C105.20782972946168,13.81326469960213 104.85672972946168,14.01146469960213 104.57602972946167,13.85266469960213 L103.40592972946166,13.190564699602128 C103.27572972946167,13.116964699602129 103.19562972946167,12.980964699602126 103.19562972946167,12.833864699602128 V11.068564699602128 L100.84332972946167,9.736964699602126 C100.82112972946167,9.726164699602126 100.77542972946168,9.700764699602129 100.64442972946168,9.626364699602128 L98.38942972946167,8.348864699602128 L96.04492972946167,9.674164699602127 C96.02212972946167,9.688864699602128 96.02212972946167,9.688864699602128 96.00742972946168,9.698064699602128 L96.00742972946168,9.698064699602128 C95.99862972946167,9.703364699602126 95.83772972946167,9.794664699602126 95.83772972946167,9.794664699602126 L93.58372972946167,11.068764699602127 V16.510064699602125 L95.93722972946168,17.842264699602126 C95.95412972946167,17.850464699602128 95.98482972946167,17.86766469960213 96.14012972946168,17.955464699602125 L96.20562972946166,18.012364699602124 L96.24192972946167,18.05986469960213 C96.34182972946167,18.137464699602127 96.40112972946167,18.256064699602128 96.40112972946167,18.382564699602128 zM95.97192972946166,18.394564699602128 L95.96802972946168,18.391064699602126 C95.96902972946167,18.39246469960213 95.97042972946167,18.393664699602127 95.97192972946166,18.394564699602128 zM103.82662972946167,14.637664699602126 C103.54592972946168,14.479464699602126 103.19552972946167,14.677664699602126 103.19552972946167,14.994664699602126 V15.237464699602128 L97.23102972946167,11.863864699602129 L97.02802972946168,11.748064699602129 C96.82532972946167,11.633564699602125 96.57512972946166,11.645564699602126 96.38642972946167,11.776964699602129 L96.23012972946167,11.862964699602127 L95.33772972946167,12.365764699602128 L94.97782972946167,12.568064699602129 C94.68972972946167,12.731064699602126 94.59962972946167,13.087964699602129 94.76772972946168,13.371964699602124 L94.97232972946168,13.717264699602126 L95.17882972946167,14.066464699602129 C95.34572972946167,14.34816469960213 95.71112972946167,14.436164699602124 96.00032972946167,14.270564699602126 C96.35262972946167,14.071464699602124 96.36922972946167,14.062164699602128 96.38492972946167,14.051464699602128 C96.38632972946166,14.05046469960213 96.38782972946167,14.049464699602126 96.38942972946167,14.048364699602125 L96.72852972946167,13.857764699602129 L97.40692972946167,14.24156469960213 L97.40622972946167,20.648164699602127 C97.40622972946167,20.968764699602126 97.67172972946167,21.228864699602127 97.99932972946166,21.228864699602127 C98.14962972946167,21.228864699602127 98.29322972946167,21.173364699602125 98.40292972946168,21.073864699602126 L99.20192972946167,20.442264699602127 C99.35622972946167,20.32056469960213 99.43732972946167,20.132364699602128 99.42052972946166,19.94016469960213 L99.42182972946168,15.381864699602126 L103.68832972946167,17.80276469960213 C103.98622972946167,17.970764699602128 104.31812972946167,17.858164699602128 104.54012972946167,17.580464699602125 L105.08782972946167,17.034464699602125 C105.16472972946167,16.957264699602128 105.20762972946167,16.854064699602127 105.20762972946167,16.746564699602125 V15.654364699602127 C105.20762972946167,15.507064699602125 105.12722972946167,15.37086469960213 104.99682972946167,15.297364699602127 L103.82662972946167,14.637664699602126 z" fill="white" id="svg_4" class=""/></g></svg>