<svg xmlns="http://www.w3.org/2000/svg" width="17" height="20" viewBox="0 0 17 20">
    <path fill="#464547" fill-rule="nonzero" d="M8.282 0C6.257 0 5.231 1.459 5.231 4.336v2.168c0 .161-.044.353-.121.507a4.886 4.886 0 0 1-.257.376c-.606.843-1.947 3.174-2.194 5.707.095-.019.195-.032.306-.032.267 0 .971 0 2.096 1.846.214.305.327.494.48.752.105.175.233.39.437.713l.011.017.01.017c.12.209.242.374.36.533.069.091.138.185.206.285.268-.108.541-.267.703-.498.212-.352.19-.77-.064-1.147-.104-.156-.296-.269-.757-.53-.275-.157-.617-.352-.773-.486-.366-.31-.879-.99-.879-1.529 0-1.151.775-2.908 1.397-3.95.355-.594.626-1.053.733-1.445.061.043.13.083.224.116l.017.005.016.005c.302.08.607.066.806.066.41 0 .706-.197.981-.362.272-.163.54-.316.577-.33.2.372.454.716.72 1.074.728.975 1.603 2.616 1.862 5.054.34-.178.533-.233.949-.233l.027.002c.038-.001.074-.005.112-.005a3.1 3.1 0 0 1 .327.018c.257.014.602.102.804.172.34.099.622.277.818.505.178.001.35.042.504.118 0-.284.023-.698.023-.81 0-1.43-.943-3.405-1.652-4.42-.147-.21-.29-.405-.426-.593-.628-.866-1.124-1.55-1.41-2.729-.185-.765-.211-1.002-.236-1.231-.026-.231-.052-.47-.208-1.117C11.479 1.633 11.129 0 8.282 0zM6.974 2.602c.482 0 .872.872.872 1.59 0 .046-.005.115-.008.178-.033-.002-.065-.007-.098-.007-.126 0-.242.02-.353.047-.05-.275-.212-.48-.413-.48-.24 0-.435.29-.435.65a.93.93 0 0 0 .033.247 2.567 2.567 0 0 0-.26.216l-.042.035a1.675 1.675 0 0 1-.082-.213c-.05-.304-.085-.672-.085-.672 0-.719.39-1.591.871-1.591zm2.18 0c.482 0 .872.872.872 1.59 0 .27-.058.584-.153.833-.119-.05-.236-.09-.351-.117a.866.866 0 0 0 .068-.328c0-.36-.195-.65-.436-.65-.24 0-.436.29-.436.65v.004a3.78 3.78 0 0 0-.423-.142 3.778 3.778 0 0 1-.013-.25c0-.718.39-1.59.872-1.59zM7.74 5.23c.175 0 .433.07.668.165.236.094.434.2.601.27l.034.014.036.008c.222.052.42.108.501.15a1.395 1.395 0 0 1-.054.304c-.012.017-.072.075-.295.193-.276.098-.485.258-.711.394-.246.147-.497.237-.532.237-.191 0-.456-.014-.56-.037.04.012-.032-.023-.122-.106a9.12 9.12 0 0 1-.34-.347l-.032-.031-.035-.025a1.74 1.74 0 0 1-.302-.25c-.054-.064-.058-.081-.058-.123 0-.065-.013-.027.027-.071.04-.045.157-.138.32-.28l.015-.013.014-.015c-.024.026.134-.128.306-.24.173-.112.385-.197.519-.197zm5.476 8.67c-.407 0-.69.121-.768.217.179.204.287.4.4.756.12.264.422.33.665.33.738 0 .881-.442 1.114-.692 0 0-.06-.066-.06-.132-.06-.132-.243-.265-.485-.33a2.456 2.456 0 0 0-.605-.133 2.144 2.144 0 0 0-.261-.016zm-10.25.03c-.304 0-.455.149-.657.35-.202.2-.418.512-.771.762-.311.404-1.243.015-1.511.622-.147.331.361.77.361 1.52 0 .3-.253.501-.304.701-.05.25-.1.4 0 .6.203.301.456.402 2.174.752.91.2 1.768.701 2.324.751.556.05 1.516 0 1.516-1.351.051-.801-.404-1.002-.859-1.803-.505-.802-.555-.952-.909-1.453-.303-.5-.96-1.451-1.365-1.451zm8.905.864c-.102.204-.102.359-.102.87 0 .41 0 .871-.05 1.23-.104.87-.386 1.261-.386 1.774 0 .564.155.922.36 1.076.155.154.413.256.98.256.566 0 .927-.205 1.288-.563.257-.256.463-.36 1.184-.872.567-.358 1.442-.82 1.597-.973.103-.102.258-.155.258-.462 0-.256-.206-.359-.36-.41-.206-.102-.567-.256-.876-.717-.134-.223-.114-.793-.275-1.14l-.223.239c-.026.027-.05.062-.074.095-.212.284-.65.873-1.68.873-.673 0-1.218-.313-1.458-.839l-.023-.049-.016-.05a1.37 1.37 0 0 0-.144-.338zm-1.189 2.772c-.416.356-1.052.7-1.965.7-.927 0-1.553-.341-1.951-.689.137.287.229.63.204 1.086-.001.165-.016.32-.04.47h3.568a3.357 3.357 0 0 1-.036-.465c0-.383.096-.695.189-.997l.031-.105z"/>
</svg>
