<svg width="160" height="128" viewBox="0 0 160 128" xmlns="http://www.w3.org/2000/svg" xmlns:xlink="http://www.w3.org/1999/xlink"><title>9B298C0D-F20F-499A-AF95-D61E01E64048</title><defs><path id="c" d="M69 45H5V13h64z"/><filter x="-50%" y="-50%" width="200%" height="200%" filterUnits="objectBoundingBox" id="d"><feOffset dy="1" in="SourceAlpha" result="shadowOffsetInner1"/><feComposite in="shadowOffsetInner1" in2="SourceAlpha" operator="arithmetic" k2="-1" k3="1" result="shadowInnerInner1"/><feColorMatrix values="0 0 0 0 0.941176471 0 0 0 0 0.949019608 0 0 0 0 0.952941176 0 0 0 1 0" in="shadowInnerInner1"/></filter><path id="a" d="M61 54h48v8H61z"/><mask id="e" x="0" y="0" width="48" height="8" fill="#fff"><use xlink:href="#a"/></mask><path id="b" d="M61 65h28v8H61z"/><mask id="f" x="0" y="0" width="28" height="8" fill="#fff"><use xlink:href="#b"/></mask><rect id="h" width="56" height="40" rx="4"/><filter x="-50%" y="-50%" width="200%" height="200%" filterUnits="objectBoundingBox" id="g"><feOffset dx="1" dy="2" in="SourceAlpha" result="shadowOffsetOuter1"/><feColorMatrix values="0 0 0 0 0.693 0 0 0 0 0.87585 0 0 0 0 0.9 0 0 0 0.503962862 0" in="shadowOffsetOuter1"/></filter><rect id="j" width="56" height="40" rx="4"/><filter x="-50%" y="-50%" width="200%" height="200%" filterUnits="objectBoundingBox" id="i"><feOffset dx="1" dy="2" in="SourceAlpha" result="shadowOffsetOuter1"/><feColorMatrix values="0 0 0 0 0.693 0 0 0 0 0.87585 0 0 0 0 0.9 0 0 0 0.503962862 0" in="shadowOffsetOuter1"/></filter><rect id="l" width="56" height="39" rx="4"/><filter x="-50%" y="-50%" width="200%" height="200%" filterUnits="objectBoundingBox" id="k"><feOffset dx="1" dy="2" in="SourceAlpha" result="shadowOffsetOuter1"/><feColorMatrix values="0 0 0 0 0.693 0 0 0 0 0.87585 0 0 0 0 0.9 0 0 0 0.503962862 0" in="shadowOffsetOuter1"/></filter></defs><g fill="none" fill-rule="evenodd"><rect fill="#D9F2F4" x="20" y="8" width="120" height="120" rx="60"/><path d="M115 35H55c-3.99 0-7 2.998-7 7v40c0 3.602 3.01 6.6 7 7h23l-6 10v3h26v-3l-6-10h23c3.99-.4 7-3.398 7-7V42c0-4.002-3.01-7-7-7z" fill="#E4E8E9"/><g transform="translate(48 35)"><use fill="#FDFDFD" xlink:href="#c"/><use fill="#000" filter="url(#d)" xlink:href="#c"/></g><path fill="#F7F9FA" d="M53 40h64v8H53z"/><circle fill="#D9F2F4" opacity=".7" cx="59" cy="44" r="2"/><circle fill="#D9F2F4" opacity=".7" cx="66" cy="44" r="2"/><circle fill="#D9F2F4" opacity=".7" cx="73" cy="44" r="2"/><use stroke="#79D6D9" mask="url(#e)" stroke-width="2" stroke-dasharray="3,4" xlink:href="#a"/><use stroke="#79D6D9" mask="url(#f)" stroke-width="2" stroke-dasharray="3,4" xlink:href="#b"/><g transform="translate(103 76)"><use fill="#000" filter="url(#g)" xlink:href="#h"/><use fill="#FDFDFD" xlink:href="#h"/></g><path d="M130 111c7.732 0 14-6.268 14-14h-14V83c-7.732 0-14 6.268-14 14s6.268 14 14 14z" fill="#E4E8E9"/><path d="M132 95V81c7.732 0 14 6.268 14 14h-14z" fill="#79D6D9"/><g><g transform="translate(86)"><use fill="#000" filter="url(#i)" xlink:href="#j"/><use fill="#FDFDFD" xlink:href="#j"/></g><path d="M101.996 17v-2c.187-.037.638-.425 1.001-1L105 15.935V14l-2.003-1c.625-.4.668-.697 0-1 .668-.303.625-.6 0-1L105 10V7.87L102.997 10c-.363.425-.814-.963-1-1V7h-2.003v2h-1.002V7H96.99v2h-1.001V7h-1.986v2C92.808 9.403 92 10.613 92 12s.808 2.597 2.003 3v2h1.986v-2h1.001v2h2.002v-2h1.002v2h2.002zm-5.98-4v-2h1v2h-1zm3 0v-2h1v2h-1z" fill="#FF8B6E"/><path d="M132.996 33v-2c.187-.038.638-.425 1.001-1L136 31.935V30l-2.003-1c.625-.4.668-.697 0-1 .668-.303.625-.6 0-1L136 26V23.87L133.997 26c-.363.425-.814-.962-1-1v-2h-2.003v2h-1.002v-2h-2.002v2h-1.001v-2h-1.986v2c-1.195.403-2.003 1.612-2.003 3s.808 2.597 2.003 3v2h1.986v-2h1.001v2h2.002v-2h1.002v2h2.002zm-5.98-4v-2h1v2h-1zm3 0v-2h1v2h-1z" fill="#E5EB3D"/><path d="M110.98 33v-2c.187-.038.637-.425 1.001-1l2.003 1.935V30l-2.003-1c.624-.4.668-.697 0-1 .668-.303.624-.6 0-1l2.003-1V23.87L111.98 26c-.364.425-.814-.963-1.001-1v-2h-2.002v2h-1.002v-2h-2.002v2h-1.001v-2h-1.987v2c-1.195.403-2.002 1.612-2.002 3 0 1.387.807 2.597 2.002 3v2h1.987v-2h1v2h2.003v-2h1.002v2h2.002zM105 29v-2h1v2h-1zm3 0v-2h1v2h-1zM123.996 17v-2c.187-.038.638-.425 1.001-1L127 15.935V14l-2.003-1c.625-.4.668-.697 0-1 .668-.303.625-.6 0-1L127 10V7.87L124.997 10c-.363.425-.814-.962-1-1V7h-2.003v2h-1.002V7h-2.002v2h-1.001V7h-1.986v2c-1.195.403-2.003 1.612-2.003 3s.808 2.597 2.003 3v2h1.986v-2h1.001v2h2.002v-2h1.002v2h2.002zm-5.98-4v-2h1v2h-1zm3 0v-2h1v2h-1z" fill="#E4E8E9"/></g><g><g transform="translate(0 56)"><use fill="#000" filter="url(#k)" xlink:href="#l"/><use fill="#FDFDFD" xlink:href="#l"/></g><g transform="translate(10 64)"><rect fill="#79D6D9" width="36" height="5" rx="2.5"/><rect fill="#79D6D9" y="9" width="36" height="5" rx="2.5"/><rect fill="#E4E8E9" y="18" width="36" height="5" rx="2"/><path d="M0 20.5C0 19.12 1.125 18 2.5 18H16v5H2.5C1.12 23 0 21.89 0 20.5z" fill="#79D6D9"/></g></g></g></svg>