<svg width="32" height="32" viewBox="0 0 32 32" xmlns="http://www.w3.org/2000/svg" xmlns:xlink="http://www.w3.org/1999/xlink"><title>B504599A-7048-4F6A-A13F-DACC1FB8E0C8</title><defs><circle id="a" cx="16" cy="16" r="15"/><mask id="c" x="-1" y="-1" width="32" height="32"><path fill="#fff" d="M0 0h32v32H0z"/><use xlink:href="#a"/></mask><path d="M4.96 10.812C4.951 8.565 4.93 3.995 4.81 2c-.038.043-.068.081-.11.13C3.985 2.706.307 5.884.013 12.342c-.24 5.12 2.98 8.481 4.325 9.657.332-1.478.757-5.298.643-9.154-.016-.283-.016-1.016-.02-2.034z" id="b"/><mask id="d" x="0" y="0" width="5" height="20" fill="#fff"><use xlink:href="#b"/></mask></defs><g fill="none" fill-rule="evenodd"><use stroke="#79D6D9" mask="url(#c)" stroke-width="2" stroke-dasharray="6,3" xlink:href="#a"/><g transform="translate(10 3)" fill-rule="nonzero"><use stroke="#79D6D9" mask="url(#d)" stroke-width="2" xlink:href="#b"/><path d="M5.135 20.731L5 22.948c.219.876.187 1.854.187 1.854l1.344.274s.076-4.378.087-4.412c-.2-.151-1.391-.107-1.483.067z" fill="#79D6D9"/><path d="M10.795 10.486c-1.303-5.81-4.37-7.715-4.699-8.442A.112.112 0 0 1 6.07 2c-.717-.479-1.424-3.088-1.424.648v6.297c.005.983-.012 3.501 0 3.768.075 2.595.145 5.18 0 6.655.017 1.453.41 2.653.707 2.868.118-.098 1.724-.454 1.876-.596l.027-.017c1.559-1.465 4.552-5.132 3.54-11.137z" fill="#79D6D9"/></g></g></svg>