<svg xmlns="http://www.w3.org/2000/svg" xmlns:xlink="http://www.w3.org/1999/xlink" width="20" height="20" viewBox="0 0 20 20">
    <defs>
        <path id="a" d="M.011 0H20v19.989H.011z"/>
    </defs>
    <g fill="none" fill-rule="evenodd">
        <mask id="b" fill="#fff">
            <use xlink:href="#a"/>
        </mask>
        <path fill="#E9A823" d="M12.967 1.23A1.797 1.797 0 0 0 10.721.082a1.797 1.797 0 0 0-1.147 2.246l4.606 14.164a1.778 1.778 0 0 0 2.164 1.098c.951-.279 1.525-1.279 1.213-2.197 0-.032-4.59-14.163-4.59-14.163z" mask="url(#b)"/>
        <path fill="#3FB991" d="M5.836 3.557A1.797 1.797 0 0 0 3.59 2.41c-.934.295-1.442 1.311-1.147 2.246L7.049 18.82a1.778 1.778 0 0 0 2.164 1.098c.95-.279 1.525-1.279 1.213-2.197 0-.032-4.59-14.164-4.59-14.164z" mask="url(#b)"/>
        <path fill="#E11765" d="M18.77 12.967a1.797 1.797 0 0 0 1.148-2.246 1.797 1.797 0 0 0-2.246-1.147L3.492 14.18a1.778 1.778 0 0 0-1.099 2.164c.28.951 1.28 1.525 2.197 1.213.033 0 14.18-4.59 14.18-4.59z" mask="url(#b)"/>
        <path fill="#472A49" d="M6.443 16.967c.918-.295 2.114-.688 3.393-1.098-.295-.918-.688-2.115-1.098-3.394l-3.394 1.099 1.099 3.393z" mask="url(#b)"/>
        <path fill="#CD2027" d="M13.574 14.656c1.278-.41 2.475-.804 3.393-1.099-.295-.918-.688-2.114-1.098-3.393l-3.394 1.098 1.099 3.394z" mask="url(#b)"/>
        <path fill="#71CBDC" d="M16.443 5.836A1.797 1.797 0 0 0 17.59 3.59c-.295-.934-1.311-1.442-2.246-1.147L1.18 7.049A1.778 1.778 0 0 0 .082 9.213c.279.95 1.279 1.525 2.197 1.213.032 0 14.164-4.59 14.164-4.59z" mask="url(#b)"/>
        <path fill="#1D947E" d="M4.131 9.836c.918-.295 2.115-.688 3.394-1.098-.41-1.279-.804-2.476-1.099-3.394L3.033 6.443 4.13 9.836z" mask="url(#b)"/>
        <path fill="#66873A" d="M11.262 7.508c1.279-.41 2.476-.803 3.394-1.098-.41-1.279-.804-2.476-1.099-3.394l-3.393 1.115 1.098 3.377z" mask="url(#b)"/>
    </g>
</svg>
