<svg width="1440" height="190" viewBox="0 0 1440 190" fill="none" xmlns="http://www.w3.org/2000/svg">
<rect x="-2" width="1442" height="190" fill="url(#paint0_linear_3976_26808)"/>
<mask id="mask0_3976_26808" style="mask-type:alpha" maskUnits="userSpaceOnUse" x="-2" y="0" width="1442" height="190">
<rect x="-2" width="1442" height="190" fill="white"/>
</mask>
<g mask="url(#mask0_3976_26808)">
<rect x="-2" width="1442" height="190" fill="#A6E3E8"/>
<rect x="-2" width="1442" height="190" fill="#39C2D7" fill-opacity="0.2"/>
<rect x="-2" width="1442" height="190" fill="url(#paint1_linear_3976_26808)" fill-opacity="0.4"/>
<rect x="-2" width="1442" height="190" fill="url(#paint2_linear_3976_26808)"/>
<rect x="-2" width="1442" height="190" fill="#79D6D9" fill-opacity="0.7"/>
<g opacity="0.08">
<path fill-rule="evenodd" clip-rule="evenodd" d="M-2 327.184L718.317 -150.217V-103.574L-2 373.827V327.184Z" fill="white"/>
<path fill-rule="evenodd" clip-rule="evenodd" d="M-2 -13.7184L718.317 -491.119V-444.477L-2 32.9242V-13.7184Z" fill="white"/>
<path fill-rule="evenodd" clip-rule="evenodd" d="M-2 495.235L718.317 17.8339V64.4765L-2 541.877V495.235Z" fill="white"/>
<path fill-rule="evenodd" clip-rule="evenodd" d="M-2 154.332L718.317 -323.069V-276.426L-2 200.975V154.332Z" fill="white"/>
<path fill-rule="evenodd" clip-rule="evenodd" d="M-2 663.285L718.317 185.884V232.527L-2 709.928V663.285Z" fill="white"/>
<path fill-rule="evenodd" clip-rule="evenodd" d="M-2 411.552L718.317 -65.8484V-19.2058L-2 458.195V411.552Z" fill="white"/>
<path fill-rule="evenodd" clip-rule="evenodd" d="M-2 70.6498L718.317 -406.751V-360.108L-2 117.292V70.6498Z" fill="white"/>
<path fill-rule="evenodd" clip-rule="evenodd" d="M-2 579.603L718.317 102.202V148.845L-2 626.245V579.603Z" fill="white"/>
<path fill-rule="evenodd" clip-rule="evenodd" d="M-2 238.7L718.317 -238.7V-192.058L-2 285.343V238.7Z" fill="white"/>
<path fill-rule="evenodd" clip-rule="evenodd" d="M718.317 -150.217L1440 327.184V373.827L718.317 -103.574V-150.217Z" fill="white"/>
<path fill-rule="evenodd" clip-rule="evenodd" d="M718.317 -491.119L1440 -13.7184V32.9242L718.317 -444.477V-491.119Z" fill="white"/>
<path fill-rule="evenodd" clip-rule="evenodd" d="M718.317 17.8339L1440 495.235V541.877L718.317 64.4765V17.8339Z" fill="white"/>
<path fill-rule="evenodd" clip-rule="evenodd" d="M718.317 -323.069L1440 154.332V200.975L718.317 -276.426V-323.069Z" fill="white"/>
<path fill-rule="evenodd" clip-rule="evenodd" d="M718.317 185.884L1440 663.285V709.928L718.317 232.527V185.884Z" fill="white"/>
<path fill-rule="evenodd" clip-rule="evenodd" d="M718.317 -65.8484L1440 411.552V458.195L718.317 -19.2058V-65.8484Z" fill="white"/>
<path fill-rule="evenodd" clip-rule="evenodd" d="M718.317 -406.751L1440 70.6498V117.292L718.317 -360.108V-406.751Z" fill="white"/>
<path fill-rule="evenodd" clip-rule="evenodd" d="M718.317 102.202L1440 579.603V626.245L718.317 148.845V102.202Z" fill="white"/>
<path fill-rule="evenodd" clip-rule="evenodd" d="M718.317 -238.7L1440 238.7V285.343L718.317 -192.058V-238.7Z" fill="white"/>
</g>
</g>
<defs>
<linearGradient id="paint0_linear_3976_26808" x1="1440" y1="0" x2="-2" y2="0" gradientUnits="userSpaceOnUse">
<stop stop-color="#86D9D6"/>
<stop offset="1" stop-color="#6CD2DA"/>
</linearGradient>
<linearGradient id="paint1_linear_3976_26808" x1="1385.78" y1="190" x2="1385.78" y2="14.2887" gradientUnits="userSpaceOnUse">
<stop stop-color="#4CC7DA" stop-opacity="0.01"/>
<stop offset="1" stop-color="#48C6DA"/>
</linearGradient>
<linearGradient id="paint2_linear_3976_26808" x1="2161" y1="95" x2="2111.79" y2="-278.515" gradientUnits="userSpaceOnUse">
<stop stop-color="#BEE8DE"/>
<stop offset="0.151872" stop-color="#7CC57A" stop-opacity="0.397888"/>
<stop offset="1" stop-color="#39C2D7" stop-opacity="0.597118"/>
</linearGradient>
</defs>
</svg>
