<svg xmlns="http://www.w3.org/2000/svg" xmlns:xlink="http://www.w3.org/1999/xlink" width="2110" height="280"><defs><linearGradient id="A" x1="100%" x2="0%" y1="50%" y2="50%"><stop offset="0%" stop-color="#86d9d6"/><stop offset="100%" stop-color="#6cd2da"/></linearGradient><path id="B" d="M0 0h2110v277H0z"/><linearGradient id="C" x1="50%" x2="50%" y1="100%" y2="7.52%"><stop offset="0%" stop-color="#4cc7da" stop-opacity="0"/><stop offset="100%" stop-color="#48c6da"/></linearGradient><linearGradient id="D" x1="100%" x2="0%" y1="50.862%" y2="49.138%"><stop offset="0%" stop-color="#bee8de"/><stop offset="15.187%" stop-color="#7cc57a" stop-opacity=".398"/><stop offset="100%" stop-color="#39c2d7" stop-opacity=".597"/></linearGradient></defs><g fill="none" fill-rule="evenodd"><path fill="#fff" d="M0-60h2110v1733H0z"/><mask id="E" fill="#fff"><use xlink:href="#B"/></mask><use fill="url(#A)" xlink:href="#B"/><path fill="#a6e3e8" d="M0 0h2110v277H0z" mask="url(#E)"/><g mask="url(#E)"><use fill="#39c2d7" fill-opacity=".2" xlink:href="#E" href="#B"/><use fill="url(#C)" fill-opacity=".4" xlink:href="#E" href="#B"/><use fill="url(#D)" xlink:href="#E" href="#B"/><use fill="#79d6d9" fill-opacity=".7" xlink:href="#E" href="#B"/></g><g fill="#fff" mask="url(#E)" opacity=".08"><path d="M0 477l1054-696v68L0 545zM0-20l1054-696v68L0 48zm0 742L1054 26v68L0 790zm0-497l1054-696v68L0 293zm0 742l1054-696v68L0 1035zm0-367L1054-96v68L0 668zm0-497l1054-696v68L0 171zm0 742l1054-696v68L0 913zm0-497l1054-696v68L0 416zm1054-567l1056 696v68L1054-151zm0-497L2110-20v68L1054-648zm0 742l1056 696v68L1054 94zm0-497l1056 696v68L1054-403zm0 742l1056 696v68L1054 339zm0-367l1056 696v68L1054-28zm0-497l1056 696v68L1054-525zm0 742l1056 696v68L1054 217zm0-497l1056 696v68L1054-280z"/></g></g></svg>