<svg width="40" height="38" viewBox="0 0 40 38" fill="none" xmlns="http://www.w3.org/2000/svg">
<path d="M0 3C0 1.34315 1.34315 0 3 0H40V38H3C1.34315 38 0 36.6569 0 35V3Z" fill="#F2F5F5"/>
<path fill-rule="evenodd" clip-rule="evenodd" d="M20 12.25C21.2429 12.25 22.25 13.2571 22.25 14.5C22.25 15.7429 21.2429 16.75 20 16.75C18.7571 16.75 17.75 15.7429 17.75 14.5C17.75 13.2571 18.7571 12.25 20 12.25ZM20 22.375C23.292 22.375 26.75 23.9096 26.75 24.5898V25.75H13.25V24.5898C13.25 23.9096 16.708 22.375 20 22.375ZM20 10C17.5138 10 15.5 12.0138 15.5 14.5C15.5 16.9806 17.5138 19 20 19C22.4862 19 24.5 16.9806 24.5 14.5C24.5 12.0138 22.4862 10 20 10ZM20 20.125C17.0019 20.125 11 21.6269 11 24.625V28H29V24.625C29 21.6269 22.9981 20.125 20 20.125Z" fill="#39C2D7"/>
</svg>
