<svg width="120" height="120" viewBox="0 0 120 120" xmlns="http://www.w3.org/2000/svg" xmlns:xlink="http://www.w3.org/1999/xlink"><title>7A151F84-9A49-4E36-9FB6-F1928463260A</title><defs><path d="M0 21.002A3.004 3.004 0 0 1 3.006 18h111.988A2.999 2.999 0 0 1 118 21.002v77.996a3.004 3.004 0 0 1-3.006 3.002H3.006A2.999 2.999 0 0 1 0 98.998V21.002z" id="b"/><filter x="-50%" y="-50%" width="200%" height="200%" filterUnits="objectBoundingBox" id="a"><feOffset dx="1" dy="2" in="SourceAlpha" result="shadowOffsetOuter1"/><feColorMatrix values="0 0 0 0 0.693 0 0 0 0 0.87585 0 0 0 0 0.9 0 0 0 0.503962862 0" in="shadowOffsetOuter1"/></filter><path d="M0 32h120v66.992a3.006 3.006 0 0 1-2.996 3.008H2.996A2.995 2.995 0 0 1 0 98.992V32z" id="c"/><filter x="-50%" y="-50%" width="200%" height="200%" filterUnits="objectBoundingBox" id="d"><feOffset dy="1" in="SourceAlpha" result="shadowOffsetInner1"/><feComposite in="shadowOffsetInner1" in2="SourceAlpha" operator="arithmetic" k2="-1" k3="1" result="shadowInnerInner1"/><feColorMatrix values="0 0 0 0 0.741176471 0 0 0 0 0.780392157 0 0 0 0 0.8 0 0 0 0.15 0" in="shadowInnerInner1"/></filter><rect id="e" x="11" y="42" width="98" height="50" rx="3"/></defs><g fill="none" fill-rule="evenodd"><rect fill="#D9F2F4" width="120" height="120" rx="60"/><use fill="#000" filter="url(#a)" xlink:href="#b"/><use fill="#FDFDFD" xlink:href="#b"/><path d="M0 21.003A3.004 3.004 0 0 1 2.996 18h114.008A2.998 2.998 0 0 1 120 21.003V32H0V21.003z" fill="#F9F9F9"/><circle fill="#D8F3F7" opacity=".7" cx="9" cy="25" r="3"/><circle fill="#D8F3F7" opacity=".7" cx="19" cy="25" r="3"/><circle fill="#D8F3F7" opacity=".7" cx="29" cy="25" r="3"/><use fill="#FDFDFD" xlink:href="#c"/><use fill="#000" filter="url(#d)" xlink:href="#c"/><g><use fill-opacity=".203" fill="#39C2D7" xlink:href="#e"/><use fill-opacity=".196" fill="#D5E5AD" xlink:href="#e"/><use fill="#79D6D9" xlink:href="#e"/></g><path fill="#FFF" d="M55 78l15-11-15-11z"/></g></svg>