<svg xmlns="http://www.w3.org/2000/svg" width="2110" height="1152" viewBox="0 0 2110 1152" xmlns:xlink="http://www.w3.org/1999/xlink">
  <defs>
    <path id="a" d="M234.324688,150.5 C541.824688,150.5 473.324688,635 797.324688,635 C1121.32469,635 1189.32469,389.5 1356.32469,389.5 C1523.32469,389.5 1438.82469,529 1801.82469,537.5 C2164.82469,546 2261.82469,0.5 2470.82469,0.5 C2679.82469,0.5 2766.32469,234 2916.32469,234 C3066.32469,234 2719.82469,1076 2719.82469,1076 C2719.82469,1076 146.324688,1076 10.8246878,1076 C10.8246878,759.5 -73.1753122,150.5 234.324688,150.5 Z"/>
  </defs>
  <g fill="none" fill-rule="evenodd" transform="translate(-625 77)" opacity=".4">
    <mask id="b" fill="white">
      <use xlink:href="#a"/>
    </mask>
    <use fill="#79D6D9" opacity=".75" transform="matrix(-1 0 0 1 2954.325 0)" xlink:href="#a"/>
    <rect width="2110" height="1152" x="627" y="-77" mask="url(#b)"/>
  </g>
</svg>
