<?xml version="1.0" encoding="UTF-8"?>
<svg id="_Шар_2" data-name="Шар 2" xmlns="http://www.w3.org/2000/svg" xmlns:xlink="http://www.w3.org/1999/xlink" viewBox="0 0 535 272">
  <defs>
    <style>
      .cls-1 {
        clip-path: url(#clippath);
      }

      .cls-2, .cls-3, .cls-4 {
        fill: none;
      }

      .cls-2, .cls-3, .cls-5, .cls-6, .cls-7, .cls-8, .cls-9, .cls-10, .cls-11, .cls-12, .cls-13, .cls-14, .cls-15, .cls-16, .cls-17, .cls-18, .cls-19, .cls-20, .cls-21, .cls-22, .cls-23, .cls-24, .cls-25, .cls-26, .cls-27, .cls-28, .cls-29, .cls-30, .cls-31, .cls-32, .cls-33, .cls-34, .cls-35, .cls-36, .cls-37, .cls-38, .cls-39, .cls-40, .cls-41, .cls-42, .cls-43, .cls-44, .cls-45, .cls-46, .cls-47, .cls-48, .cls-49, .cls-50, .cls-51, .cls-52, .cls-53, .cls-54, .cls-55, .cls-56, .cls-57, .cls-58, .cls-59, .cls-60, .cls-61, .cls-62, .cls-63, .cls-64, .cls-65, .cls-66, .cls-67, .cls-68, .cls-69, .cls-70, .cls-71, .cls-72, .cls-73 {
        stroke-width: 0px;
      }

      .cls-74 {
        clip-path: url(#clippath-1);
      }

      .cls-75 {
        clip-path: url(#clippath-4);
      }

      .cls-76 {
        clip-path: url(#clippath-3);
      }

      .cls-77 {
        clip-path: url(#clippath-2);
      }

      .cls-78 {
        clip-path: url(#clippath-7);
      }

      .cls-79 {
        clip-path: url(#clippath-8);
      }

      .cls-80 {
        clip-path: url(#clippath-6);
      }

      .cls-81 {
        clip-path: url(#clippath-5);
      }

      .cls-82 {
        fill: url(#_Градієнт_без_назви_3);
      }

      .cls-82, .cls-83, .cls-84 {
        stroke: #66d2e6;
      }

      .cls-3 {
        clip-rule: evenodd;
      }

      .cls-4 {
        stroke: #c3c8d5;
        stroke-dasharray: 0 0 5 5;
      }

      .cls-5 {
        fill: #66d2e6;
      }

      .cls-5, .cls-6 {
        fill-rule: evenodd;
      }

      .cls-6, .cls-7 {
        fill: #8791ab;
      }

      .cls-83 {
        fill: url(#_Градієнт_без_назви_3-3);
      }

      .cls-84 {
        fill: url(#_Градієнт_без_назви_3-2);
      }

      .cls-8 {
        fill: #c3c8d5;
      }

      .cls-9 {
        fill: #cfd2dc;
      }

      .cls-10 {
        fill: #cfd2de;
      }

      .cls-11 {
        fill: #d1d4e0;
      }

      .cls-12 {
        fill: #d1d4de;
      }

      .cls-13 {
        fill: #d2d5e0;
      }

      .cls-14 {
        fill: #d2d5de;
      }

      .cls-15 {
        fill: #cbcedb;
      }

      .cls-16 {
        fill: #dddfe9;
      }

      .cls-17 {
        fill: #dddfe8;
      }

      .cls-18 {
        fill: #dee0ea;
      }

      .cls-19 {
        fill: #dee0e8;
      }

      .cls-20 {
        fill: #d0d3df;
      }

      .cls-21 {
        fill: #d0d3dd;
      }

      .cls-22 {
        fill: #c9ccd9;
      }

      .cls-23 {
        fill: #cacdda;
      }

      .cls-24 {
        fill: #cccfd9;
      }

      .cls-25 {
        fill: #cccfdb;
      }

      .cls-26 {
        fill: #d9dce6;
      }

      .cls-27 {
        fill: #d9dce5;
      }

      .cls-28 {
        fill: #d7dae5;
      }

      .cls-29 {
        fill: #d7dae3;
      }

      .cls-30 {
        fill: #d3d6e1;
      }

      .cls-31 {
        fill: #d3d6df;
      }

      .cls-32 {
        fill: #e1e3eb;
      }

      .cls-33 {
        fill: #e1e3ec;
      }

      .cls-34 {
        fill: #e0e2ea;
      }

      .cls-35 {
        fill: #e0e2eb;
      }

      .cls-36 {
        fill: #d5d8e3;
      }

      .cls-37 {
        fill: #d5d8e1;
      }

      .cls-38 {
        fill: #d6d9e2;
      }

      .cls-39 {
        fill: #d6d9e4;
      }

      .cls-40 {
        fill: #dfe1ea;
      }

      .cls-41 {
        fill: #dfe1e9;
      }

      .cls-42 {
        fill: #dcdee8;
      }

      .cls-43 {
        fill: #dbdee7;
      }

      .cls-44 {
        fill: #dadde7;
      }

      .cls-45 {
        fill: #dadde6;
      }

      .cls-46 {
        fill: #d4d7e2;
      }

      .cls-47 {
        fill: #d4d7e0;
      }

      .cls-48 {
        fill: #d8dbe4;
      }

      .cls-49 {
        fill: #d8dbe5;
      }

      .cls-50 {
        fill: #ced1db;
      }

      .cls-51 {
        fill: #ced1dd;
      }

      .cls-52 {
        fill: #cdd0dc;
      }

      .cls-53 {
        fill: #cdd0da;
      }

      .cls-54 {
        fill: #fff;
      }

      .cls-55 {
        fill: #edeff7;
      }

      .cls-56 {
        fill: #edeff6;
      }

      .cls-57 {
        fill: #e8eaf1;
      }

      .cls-58 {
        fill: #e8eaf2;
      }

      .cls-59 {
        fill: #e3e5ee;
      }

      .cls-60 {
        fill: #e3e5ed;
      }

      .cls-61 {
        fill: #e4e6ef;
      }

      .cls-62 {
        fill: #e4e6ee;
      }

      .cls-63 {
        fill: #e2e4ec;
      }

      .cls-64 {
        fill: #e2e4ed;
      }

      .cls-65 {
        fill: #eceef5;
      }

      .cls-66 {
        fill: #e5e7ef;
      }

      .cls-67 {
        fill: #eaecf3;
      }

      .cls-68 {
        fill: #eaecf4;
      }

      .cls-69 {
        fill: #ebedf4;
      }

      .cls-70 {
        fill: #e7e9f1;
      }

      .cls-71 {
        fill: #e9ebf2;
      }

      .cls-72 {
        fill: #e9ebf3;
      }

      .cls-73 {
        fill: #e6e8f0;
      }

      .cls-85 {
        isolation: isolate;
        opacity: .5;
      }
    </style>
    <clipPath id="clippath">
      <rect class="cls-2" x="437.75" y="103.19" width="19" height="19"/>
    </clipPath>
    <clipPath id="clippath-1">
      <rect class="cls-2" x="301.75" y="152.19" width="19" height="19"/>
    </clipPath>
    <linearGradient id="_Градієнт_без_назви_3" data-name="Градієнт без назви 3" x1="177.25" y1="179.7" x2="177.25" y2="138.7" gradientTransform="translate(0 271.89) scale(1 -1)" gradientUnits="userSpaceOnUse">
      <stop offset="0" stop-color="#f4f5fa"/>
      <stop offset="1" stop-color="#f4f5fa" stop-opacity="0"/>
    </linearGradient>
    <linearGradient id="_Градієнт_без_назви_3-2" data-name="Градієнт без назви 3" y1="130.7" y2="89.7" xlink:href="#_Градієнт_без_назви_3"/>
    <linearGradient id="_Градієнт_без_назви_3-3" data-name="Градієнт без назви 3" x1="311.25" x2="311.25" xlink:href="#_Градієнт_без_назви_3"/>
    <clipPath id="clippath-2">
      <rect class="cls-2" x="167.75" y="201.19" width="19" height="19"/>
    </clipPath>
    <clipPath id="clippath-3">
      <path class="cls-2" d="m175.75,72.19h26v6h-26v-6Z"/>
    </clipPath>
    <clipPath id="clippath-4">
      <path class="cls-3" d="m204.75,72.19h12c1.88-2.51,3-5.62,3-9,0-8.28-6.72-15-15-15v6c4.97,0,9,4.03,9,9s-4.03,9-9,9Z"/>
    </clipPath>
    <clipPath id="clippath-5">
      <path class="cls-2" d="m309.75,72.19h26v6h-26v-6Z"/>
    </clipPath>
    <clipPath id="clippath-6">
      <path class="cls-3" d="m338.75,72.19h12c1.88-2.51,3-5.62,3-9,0-8.28-6.72-15-15-15v6c4.97,0,9,4.03,9,9s-4.03,9-9,9Z"/>
    </clipPath>
    <clipPath id="clippath-7">
      <path class="cls-2" d="m445.75,72.19h26v6h-26v-6Z"/>
    </clipPath>
    <clipPath id="clippath-8">
      <path class="cls-3" d="m474.75,72.19h12c1.88-2.51,3-5.62,3-9,0-8.28-6.72-15-15-15v6c4.97,0,9,4.03,9,9s-4.03,9-9,9Z"/>
    </clipPath>
  </defs>
  <g id="_Шар_1-2" data-name="Шар 1">
    <rect class="cls-54" width="535" height="272" rx="16" ry="16"/>
    <g class="cls-1">
      <path class="cls-5" d="m439.41,111.9c-.44,0-.79.36-.79.79s.36.79.79.79h7.05v7.04c0,.44.35.79.79.79s.79-.35.79-.79v-7.04h7.05c.44,0,.79-.36.79-.79s-.36-.79-.79-.79h-7.05v-7.04c0-.44-.35-.79-.79-.79s-.79.35-.79.79v7.04h-7.05Z"/>
    </g>
    <rect class="cls-4" x="392.25" y="92.69" width="110" height="40" rx="3.5" ry="3.5"/>
    <g class="cls-74">
      <path class="cls-5" d="m303.41,160.9c-.44,0-.79.36-.79.79s.36.79.79.79h7.05v7.04c0,.44.35.79.79.79s.79-.35.79-.79v-7.04h7.05c.44,0,.79-.36.79-.79s-.36-.79-.79-.79h-7.05v-7.04c0-.44-.35-.79-.79-.79s-.79.35-.79.79v7.04h-7.05Z"/>
    </g>
    <rect class="cls-4" x="256.25" y="141.69" width="110" height="40" rx="3.5" ry="3.5"/>
    <rect class="cls-82" x="122.25" y="92.69" width="110" height="40" rx="3.5" ry="3.5"/>
    <path class="cls-7" d="m130.02,108.58v-.69l3.51-4.86h1.09v4.76h1v.79h-1v1.61h-.9v-1.61h-3.7Zm3.74-4.6l-2.69,3.81h2.69v-3.81Z"/>
    <path class="cls-7" d="m139.01,107.44c0-.57.11-1.06.34-1.48.23-.43.54-.76.94-.99.41-.23.87-.35,1.39-.35.67,0,1.23.16,1.66.49.44.33.73.78.87,1.36h-.98c-.09-.33-.28-.6-.55-.79-.27-.19-.6-.29-1-.29-.52,0-.94.18-1.26.54-.32.35-.48.86-.48,1.51s.16,1.17.48,1.53c.32.36.74.54,1.26.54.4,0,.73-.09,1-.28.27-.19.45-.45.55-.8h.98c-.15.56-.44,1.01-.88,1.35-.44.33-.99.5-1.65.5-.52,0-.98-.12-1.39-.35-.4-.23-.71-.56-.94-.99s-.34-.93-.34-1.5Z"/>
    <path class="cls-7" d="m146.33,102.79v7.4h-.91v-7.4h.91Z"/>
    <path class="cls-7" d="m148.35,103.82c-.17,0-.32-.06-.44-.18-.12-.12-.18-.27-.18-.44s.06-.32.18-.44c.12-.12.27-.18.44-.18s.31.06.42.18c.12.12.18.27.18.44s-.06.32-.18.44c-.11.12-.25.18-.42.18Zm.44.89v5.48h-.91v-5.48h.91Z"/>
    <path class="cls-7" d="m155.34,107.24c0,.17-.01.36-.03.55h-4.38c.03.54.22.96.55,1.27.34.3.75.45,1.23.45.39,0,.72-.09.98-.27.27-.19.45-.43.56-.74h.98c-.15.53-.44.96-.88,1.29-.44.33-.99.49-1.64.49-.52,0-.99-.12-1.4-.35-.41-.23-.73-.56-.96-.99-.23-.43-.35-.93-.35-1.5s.11-1.06.34-1.49c.23-.43.54-.75.95-.98.41-.23.89-.35,1.42-.35s.98.11,1.38.34c.4.23.71.54.92.94.22.39.33.84.33,1.34Zm-.94-.19c0-.35-.08-.64-.23-.89-.15-.25-.36-.44-.63-.57-.26-.13-.55-.2-.87-.2-.46,0-.85.15-1.18.44-.32.29-.5.7-.55,1.22h3.46Z"/>
    <path class="cls-7" d="m159.21,104.61c.67,0,1.21.2,1.62.61.41.4.62.98.62,1.74v3.23h-.9v-3.1c0-.55-.14-.96-.41-1.25-.27-.29-.65-.44-1.12-.44s-.86.15-1.15.45c-.28.3-.42.74-.42,1.31v3.03h-.91v-5.48h.91v.78c.18-.28.42-.5.73-.65.31-.15.66-.23,1.03-.23Z"/>
    <path class="cls-7" d="m164.05,105.46v3.23c0,.27.06.46.17.57.11.11.31.16.59.16h.67v.77h-.82c-.51,0-.89-.12-1.14-.35-.25-.23-.38-.62-.38-1.15v-3.23h-.71v-.75h.71v-1.38h.91v1.38h1.43v.75h-1.43Z"/>
    <path class="cls-7" d="m131.5,117.46v3.23c0,.27.06.46.17.57.11.11.31.16.59.16h.67v.77h-.82c-.51,0-.89-.12-1.14-.35-.25-.23-.38-.62-.38-1.15v-3.23h-.71v-.75h.71v-1.38h.91v1.38h1.43v.75h-1.43Z"/>
    <path class="cls-7" d="m139.03,119.24c0,.17-.01.36-.03.55h-4.38c.03.54.22.96.55,1.27.34.3.75.45,1.23.45.39,0,.72-.09.98-.27.27-.19.45-.43.56-.74h.98c-.15.53-.44.96-.88,1.29-.44.33-.99.49-1.64.49-.52,0-.99-.12-1.4-.35-.41-.23-.73-.56-.96-.99-.23-.43-.35-.93-.35-1.5s.11-1.06.34-1.49c.23-.43.54-.75.95-.98.41-.23.89-.35,1.42-.35s.98.11,1.38.34c.4.23.71.54.92.94.22.39.33.84.33,1.34Zm-.94-.19c0-.35-.08-.64-.23-.89-.15-.25-.36-.44-.63-.57-.26-.13-.55-.2-.87-.2-.46,0-.85.15-1.18.44-.32.29-.5.7-.55,1.22h3.46Z"/>
    <path class="cls-7" d="m139.89,119.43c0-.56.11-1.05.34-1.47.23-.43.54-.76.93-.99.4-.23.84-.35,1.33-.35s.9.1,1.25.31c.35.21.62.47.79.78v-1h.92v5.48h-.92v-1.02c-.18.32-.45.59-.81.8-.35.21-.77.31-1.24.31s-.93-.12-1.32-.36c-.39-.24-.7-.58-.93-1.01-.23-.43-.34-.93-.34-1.48Zm4.64,0c0-.41-.08-.77-.25-1.08-.17-.31-.39-.54-.68-.7-.28-.17-.59-.25-.93-.25s-.65.08-.93.24c-.28.16-.5.39-.67.7-.17.31-.25.67-.25,1.08s.08.79.25,1.1c.17.31.39.54.67.71.28.16.59.24.93.24s.65-.08.93-.24c.29-.17.51-.4.68-.71.17-.31.25-.68.25-1.09Z"/>
    <path class="cls-7" d="m153.58,116.61c.43,0,.81.09,1.14.27.33.17.6.44.79.79.19.35.29.78.29,1.29v3.23h-.9v-3.1c0-.55-.14-.96-.41-1.25-.27-.29-.63-.44-1.09-.44s-.85.15-1.13.46c-.28.3-.42.74-.42,1.31v3.02h-.9v-3.1c0-.55-.14-.96-.41-1.25-.27-.29-.63-.44-1.09-.44s-.85.15-1.13.46c-.28.3-.42.74-.42,1.31v3.02h-.91v-5.48h.91v.79c.18-.29.42-.51.72-.66.31-.15.64-.23,1.01-.23.46,0,.87.1,1.22.31.35.21.62.51.79.91.15-.39.41-.69.76-.9.35-.21.75-.32,1.18-.32Z"/>
    <path class="cls-7" d="m159.23,122.28c-.42,0-.8-.07-1.13-.21-.33-.15-.6-.35-.79-.6-.19-.26-.3-.56-.32-.89h.94c.03.27.15.5.38.67.23.17.54.26.91.26.35,0,.62-.08.82-.23.2-.15.3-.35.3-.58s-.11-.42-.32-.53c-.21-.12-.54-.24-.99-.35-.41-.11-.74-.21-1-.32-.25-.11-.47-.28-.66-.49-.18-.22-.27-.51-.27-.86,0-.28.08-.54.25-.77.17-.23.4-.42.71-.55.31-.14.66-.21,1.05-.21.61,0,1.1.15,1.47.46.37.31.57.73.6,1.26h-.91c-.02-.29-.14-.52-.35-.69-.21-.17-.49-.26-.84-.26-.33,0-.59.07-.78.21-.19.14-.29.32-.29.55,0,.18.06.33.17.45.12.11.27.21.44.28.18.07.43.14.74.23.39.11.71.21.96.32.25.1.46.25.63.46.18.21.27.48.28.81,0,.3-.08.57-.25.81-.17.24-.4.43-.71.57-.3.13-.65.2-1.04.2Z"/>
    <path class="cls-7" d="m206.17,114.68c-.23,0-.41-.17-.41-.39v-1.7c0-.22.18-.39.41-.39s.41.17.41.39v1.7c0,.21-.18.39-.41.39Z"/>
    <path class="cls-7" d="m209.62,114.66c-.23,0-.41-.17-.41-.39v-1.7c0-.22.18-.39.41-.39s.41.17.41.39v1.7c0,.22-.18.39-.41.39Z"/>
    <path class="cls-7" d="m211.65,108.91h-.05c-.22-.02-.39-.22-.36-.44.07-.58.77-3.67-.47-4.97-.71-.74-1.76-1.11-3.1-1.09h-.02c-1.35-.03-2.4.34-3.12,1.09-1.26,1.31-.43,4.48-.36,5.06.02.21-.14.41-.36.43-.22.02-.43-.13-.45-.34-.07-.67-.92-4.12.58-5.68.89-.92,2.14-1.37,3.73-1.35,1.6-.03,2.85.42,3.73,1.35,1.48,1.56.76,4.92.67,5.59-.03.21-.21.35-.42.35Z"/>
    <path class="cls-7" d="m215.66,123.76h-15.52c-.23,0-.41-.17-.41-.39v-4.54c0-1.32.57-2.61,1.56-3.54.99-.92,2.28-1.42,3.64-1.4h1.26c.12.01.24.07.31.16l1.41,1.63,1.41-1.65c.07-.09.2-.15.32-.15h1.26c2.86,0,5.19,2.21,5.19,4.94v4.54c0,.24-.19.42-.42.42Zm-15.11-.78h14.7v-4.15c0-2.29-1.96-4.15-4.37-4.15h-1.06l-1.6,1.88c-.07.09-.2.14-.32.15-.12,0-.24-.05-.32-.14l-1.6-1.86h-1.06c-1.13-.03-2.21.38-3.04,1.16-.84.78-1.32,1.87-1.32,2.98v4.15Z"/>
    <path class="cls-7" d="m202.84,123.76c-.23,0-.41-.17-.41-.39v-5.08c0-.22.18-.39.41-.39s.41.17.41.39v5.08c0,.21-.19.39-.41.39Z"/>
    <path class="cls-7" d="m212.96,123.76c-.23,0-.41-.17-.41-.39v-5.08c0-.22.18-.39.41-.39s.41.17.41.39v5.08c0,.21-.19.39-.41.39Z"/>
    <path class="cls-7" d="m199.94,122.21h-8.91c-.23,0-.41-.17-.41-.39v-4.49c0-2.19,1.87-3.96,4.17-3.96h1.14c.11,0,.21.04.3.12l1.53,1.49,1.53-1.49c.07-.08.18-.12.3-.12h1.14c1.13,0,1.61.28,2.48,1.02.16.16.16.4,0,.56-.16.15-.42.15-.58,0-.69-.55-.99-.78-1.89-.78h-.96l-1.7,1.65c-.07.08-.18.12-.3.12s-.21-.04-.3-.12l-1.7-1.65h-.96c-1.84,0-3.35,1.43-3.35,3.18v4.1h8.5c.23,0,.41.17.41.39s-.18.39-.41.39Z"/>
    <path class="cls-7" d="m193.73,122.21c-.23,0-.41-.17-.41-.39v-4.52c0-.22.18-.39.41-.39s.41.17.41.39v4.52c0,.21-.18.39-.41.39Z"/>
    <path class="cls-7" d="m195.93,114.14c-.23,0-.41-.17-.41-.39v-1.57c0-.22.18-.39.41-.39s.41.17.41.39v1.57c0,.22-.18.39-.41.39Z"/>
    <path class="cls-7" d="m199.58,114.14c-.23,0-.41-.17-.41-.39v-1.49c0-.22.18-.39.41-.39s.41.17.41.39v1.49c0,.22-.19.39-.41.39Z"/>
    <path class="cls-7" d="m197.8,113.25s0,0,0,0c-1.7,0-3.55-1.29-3.62-4.1,0-.22.17-.39.4-.4.23,0,.41.16.42.38.05,2.29,1.48,3.33,2.8,3.34,1.31,0,2.74-1.04,2.8-3.32,0-.22.2-.38.42-.38.23,0,.4.19.4.4-.07,2.8-1.93,4.07-3.62,4.07Z"/>
    <path class="cls-7" d="m201.01,109.56s-.07,0-.1,0c-.18-.04-.31-.19-.31-.37-.04-1.38-.35-2.02-.54-2.28-1.58.81-2.85.35-3.72.04-.44-.16-.63-.21-.73-.19-.03,1.35-.62,2.51-.64,2.57-.07.12-.19.2-.34.22-.14,0-.29-.05-.37-.16-.99-1.3-1.06-2.74-.21-4.06,1-1.54,3.11-2.53,4.79-2.27,1.19.19,2.02.96,2.36,2.16,1.73,1.35.22,4.04.16,4.15-.06.12-.2.19-.35.19Zm-2.72-5.78c-1.28,0-2.79.81-3.53,1.94-.4.6-.7,1.49-.25,2.51.14-.44.28-1.03.27-1.64,0-.08.02-.16.07-.22.44-.64,1.15-.38,1.78-.16.85.31,1.91.69,3.28-.13.12-.08.29-.08.42,0,.12.06.58.36.86,1.38.1-.62.02-1.3-.58-1.7-.08-.06-.14-.14-.17-.23-.23-.97-.83-1.56-1.73-1.7-.15-.04-.29-.05-.44-.05Z"/>
    <path class="cls-7" d="m224.76,122.21h-8.94c-.23,0-.41-.17-.41-.39s.18-.39.41-.39h8.53v-4.1c0-1.75-1.51-3.18-3.35-3.18h-.96l-1.7,1.65c-.07.08-.18.12-.3.12-.11,0-.21-.04-.3-.12l-1.7-1.65h-.96c-.91,0-1.37.12-2.02.71-.16.16-.42.16-.58,0-.17-.15-.17-.4,0-.56.84-.74,1.48-.95,2.62-.95h1.13c.11,0,.21.04.3.12l1.53,1.49,1.53-1.49c.07-.08.18-.12.3-.12h1.13c2.3,0,4.17,1.78,4.17,3.96v4.49c0,.21-.18.39-.41.39Z"/>
    <path class="cls-7" d="m216.22,114.14c-.23,0-.41-.17-.41-.39v-1.57c0-.22.18-.39.41-.39s.41.17.41.39v1.57c0,.22-.19.39-.41.39Z"/>
    <path class="cls-7" d="m219.87,114.14c-.23,0-.41-.17-.41-.39v-1.49c0-.22.18-.39.41-.39s.41.17.41.39v1.49c0,.22-.18.39-.41.39Z"/>
    <path class="cls-7" d="m218.09,113.25c-1.7,0-3.55-1.29-3.62-4.1,0-.22.17-.39.4-.4h0c.22,0,.4.17.41.38.05,2.29,1.48,3.33,2.8,3.34,1.31,0,2.74-1.04,2.8-3.32,0-.22.19-.38.42-.38.23,0,.4.19.4.4-.07,2.8-1.92,4.07-3.62,4.07Z"/>
    <path class="cls-7" d="m221.3,109.56s-.07,0-.1,0c-.18-.04-.31-.19-.31-.37-.04-1.38-.36-2.03-.54-2.28-1.58.81-2.85.35-3.72.04-.44-.16-.63-.21-.73-.19-.02,1.35-.62,2.51-.64,2.57-.07.12-.19.2-.34.22-.14,0-.29-.05-.37-.16-.99-1.3-1.06-2.74-.21-4.06,1-1.54,3.11-2.53,4.79-2.27,1.19.19,2.02.96,2.36,2.16,1.73,1.35.22,4.04.16,4.15-.07.12-.21.19-.35.19Zm-2.72-5.78c-1.28,0-2.79.81-3.53,1.94-.4.6-.7,1.49-.25,2.51.14-.44.28-1.03.27-1.64,0-.08.02-.16.07-.22.44-.64,1.15-.38,1.78-.16.85.31,1.91.69,3.28-.13.12-.08.29-.08.42,0,.11.06.58.36.86,1.38.1-.62.02-1.3-.58-1.7-.08-.06-.14-.14-.16-.23-.23-.97-.83-1.56-1.73-1.7-.14-.04-.29-.05-.43-.05Z"/>
    <path class="cls-7" d="m222.06,122.21c-.23,0-.41-.17-.41-.39v-4.52c0-.22.18-.39.41-.39s.41.17.41.39v4.52c0,.21-.18.39-.41.39Z"/>
    <path class="cls-7" d="m218.04,122.21c-.23,0-.41-.17-.41-.39v-6.29c0-.22.18-.39.41-.39s.41.17.41.39v6.29c0,.21-.18.39-.41.39Z"/>
    <path class="cls-7" d="m197.75,122.21c-.23,0-.41-.17-.41-.39v-6.29c0-.22.18-.39.41-.39s.41.17.41.39v6.29c0,.21-.19.39-.41.39Z"/>
    <path class="cls-6" d="m209.83,105.63s-.11,0-.44.13c-.03.01-.07.03-.1.04-.35.14-.9.36-1.54.36s-1.19-.22-1.54-.36c-.04-.01-.07-.03-.1-.04-.33-.13-.42-.13-.44-.13-.05.02-.17.09-.34.28-.16.19-.32.44-.47.75-.3.63-.47,1.36-.47,1.9,0,.94.39,1.92,1.03,2.66.64.74,1.47,1.17,2.33,1.17s1.69-.44,2.33-1.17c.64-.74,1.03-1.72,1.03-2.66,0-.54-.2-1.36-.51-2.05-.16-.34-.32-.59-.46-.75-.17-.19-.31-.14-.31-.14h0Zm.32-.9c-.39-.14-.78.01-1.21.18-.36.14-.75.3-1.19.3s-.83-.15-1.19-.3c-.43-.17-.82-.32-1.21-.18-1.06.37-1.92,2.42-1.92,3.84,0,2.38,1.93,4.8,4.32,4.8s4.32-2.41,4.32-4.8c0-1.42-.96-3.84-1.92-3.84Z"/>
    <rect class="cls-84" x="122.25" y="141.69" width="110" height="40" rx="3.5" ry="3.5"/>
    <path class="cls-7" d="m130.02,157.58v-.69l3.51-4.86h1.09v4.76h1v.79h-1v1.61h-.9v-1.61h-3.7Zm3.74-4.6l-2.69,3.81h2.69v-3.81Z"/>
    <path class="cls-7" d="m139.01,156.44c0-.57.11-1.06.34-1.48.23-.43.54-.76.94-.99.41-.23.87-.35,1.39-.35.67,0,1.23.16,1.66.49.44.33.73.78.87,1.36h-.98c-.09-.33-.28-.6-.55-.79-.27-.19-.6-.29-1-.29-.52,0-.94.18-1.26.54-.32.35-.48.86-.48,1.51s.16,1.17.48,1.53c.32.36.74.54,1.26.54.4,0,.73-.09,1-.28.27-.19.45-.45.55-.8h.98c-.15.56-.44,1.01-.88,1.35-.44.33-.99.5-1.65.5-.52,0-.98-.12-1.39-.35-.4-.23-.71-.56-.94-.99s-.34-.93-.34-1.5Z"/>
    <path class="cls-7" d="m146.33,151.79v7.4h-.91v-7.4h.91Z"/>
    <path class="cls-7" d="m148.35,152.82c-.17,0-.32-.06-.44-.18-.12-.12-.18-.27-.18-.44s.06-.32.18-.44c.12-.12.27-.18.44-.18s.31.06.42.18c.12.12.18.27.18.44s-.06.32-.18.44c-.11.12-.25.18-.42.18Zm.44.89v5.48h-.91v-5.48h.91Z"/>
    <path class="cls-7" d="m155.34,156.24c0,.17-.01.36-.03.55h-4.38c.03.54.22.96.55,1.27.34.3.75.45,1.23.45.39,0,.72-.09.98-.27.27-.19.45-.43.56-.74h.98c-.15.53-.44.96-.88,1.29-.44.33-.99.49-1.64.49-.52,0-.99-.12-1.4-.35-.41-.23-.73-.56-.96-.99-.23-.43-.35-.93-.35-1.5s.11-1.06.34-1.49c.23-.43.54-.75.95-.98.41-.23.89-.35,1.42-.35s.98.11,1.38.34c.4.23.71.54.92.94.22.39.33.84.33,1.34Zm-.94-.19c0-.35-.08-.64-.23-.89-.15-.25-.36-.44-.63-.57-.26-.13-.55-.2-.87-.2-.46,0-.85.15-1.18.44-.32.29-.5.7-.55,1.22h3.46Z"/>
    <path class="cls-7" d="m159.21,153.61c.67,0,1.21.2,1.62.61.41.4.62.98.62,1.74v3.23h-.9v-3.1c0-.55-.14-.96-.41-1.25-.27-.29-.65-.44-1.12-.44s-.86.15-1.15.45c-.28.3-.42.74-.42,1.31v3.03h-.91v-5.48h.91v.78c.18-.28.42-.5.73-.65.31-.15.66-.23,1.03-.23Z"/>
    <path class="cls-7" d="m164.05,154.46v3.23c0,.27.06.46.17.57.11.11.31.16.59.16h.67v.77h-.82c-.51,0-.89-.12-1.14-.35-.25-.23-.38-.62-.38-1.15v-3.23h-.71v-.75h.71v-1.38h.91v1.38h1.43v.75h-1.43Z"/>
    <path class="cls-7" d="m131.5,166.46v3.23c0,.27.06.46.17.57.11.11.31.16.59.16h.67v.77h-.82c-.51,0-.89-.12-1.14-.35-.25-.23-.38-.62-.38-1.15v-3.23h-.71v-.75h.71v-1.38h.91v1.38h1.43v.75h-1.43Z"/>
    <path class="cls-7" d="m139.03,168.24c0,.17-.01.36-.03.55h-4.38c.03.54.22.96.55,1.27.34.3.75.45,1.23.45.39,0,.72-.09.98-.27.27-.19.45-.43.56-.74h.98c-.15.53-.44.96-.88,1.29-.44.33-.99.49-1.64.49-.52,0-.99-.12-1.4-.35-.41-.23-.73-.56-.96-.99-.23-.43-.35-.93-.35-1.5s.11-1.06.34-1.49c.23-.43.54-.75.95-.98.41-.23.89-.35,1.42-.35s.98.11,1.38.34c.4.23.71.54.92.94.22.39.33.84.33,1.34Zm-.94-.19c0-.35-.08-.64-.23-.89-.15-.25-.36-.44-.63-.57-.26-.13-.55-.2-.87-.2-.46,0-.85.15-1.18.44-.32.29-.5.7-.55,1.22h3.46Z"/>
    <path class="cls-7" d="m139.89,168.43c0-.56.11-1.05.34-1.47.23-.43.54-.76.93-.99.4-.23.84-.35,1.33-.35s.9.1,1.25.31c.35.21.62.47.79.78v-1h.92v5.48h-.92v-1.02c-.18.32-.45.59-.81.8-.35.21-.77.31-1.24.31s-.93-.12-1.32-.36c-.39-.24-.7-.58-.93-1.01-.23-.43-.34-.93-.34-1.48Zm4.64,0c0-.41-.08-.77-.25-1.08-.17-.31-.39-.54-.68-.7-.28-.17-.59-.25-.93-.25s-.65.08-.93.24c-.28.16-.5.39-.67.7-.17.31-.25.67-.25,1.08s.08.79.25,1.1c.17.31.39.54.67.71.28.16.59.24.93.24s.65-.08.93-.24c.29-.17.51-.4.68-.71.17-.31.25-.68.25-1.09Z"/>
    <path class="cls-7" d="m153.58,165.61c.43,0,.81.09,1.14.27.33.17.6.44.79.79.19.35.29.78.29,1.29v3.23h-.9v-3.1c0-.55-.14-.96-.41-1.25-.27-.29-.63-.44-1.09-.44s-.85.15-1.13.46c-.28.3-.42.74-.42,1.31v3.02h-.9v-3.1c0-.55-.14-.96-.41-1.25-.27-.29-.63-.44-1.09-.44s-.85.15-1.13.46c-.28.3-.42.74-.42,1.31v3.02h-.91v-5.48h.91v.79c.18-.29.42-.51.72-.66.31-.15.64-.23,1.01-.23.46,0,.87.1,1.22.31.35.21.62.51.79.91.15-.39.41-.69.76-.9.35-.21.75-.32,1.18-.32Z"/>
    <path class="cls-7" d="m159.23,171.28c-.42,0-.8-.07-1.13-.21-.33-.15-.6-.35-.79-.6-.19-.26-.3-.56-.32-.89h.94c.03.27.15.5.38.67.23.17.54.26.91.26.35,0,.62-.08.82-.23.2-.15.3-.35.3-.58s-.11-.42-.32-.53c-.21-.12-.54-.24-.99-.35-.41-.11-.74-.21-1-.32-.25-.11-.47-.28-.66-.49-.18-.22-.27-.51-.27-.86,0-.28.08-.54.25-.77.17-.23.4-.42.71-.55.31-.14.66-.21,1.05-.21.61,0,1.1.15,1.47.46.37.31.57.73.6,1.26h-.91c-.02-.29-.14-.52-.35-.69-.21-.17-.49-.26-.84-.26-.33,0-.59.07-.78.21-.19.14-.29.32-.29.55,0,.18.06.33.17.45.12.11.27.21.44.28.18.07.43.14.74.23.39.11.71.21.96.32.25.1.46.25.63.46.18.21.27.48.28.81,0,.3-.08.57-.25.81-.17.24-.4.43-.71.57-.3.13-.65.2-1.04.2Z"/>
    <path class="cls-7" d="m206.17,163.68c-.23,0-.41-.17-.41-.39v-1.7c0-.22.18-.39.41-.39s.41.17.41.39v1.7c0,.21-.18.39-.41.39Z"/>
    <path class="cls-7" d="m209.62,163.66c-.23,0-.41-.17-.41-.39v-1.7c0-.22.18-.39.41-.39s.41.17.41.39v1.7c0,.22-.18.39-.41.39Z"/>
    <path class="cls-7" d="m211.65,157.91h-.05c-.22-.02-.39-.22-.36-.44.07-.58.77-3.67-.47-4.97-.71-.74-1.76-1.11-3.1-1.09h-.02c-1.35-.03-2.4.34-3.12,1.09-1.26,1.31-.43,4.48-.36,5.06.02.21-.14.41-.36.43-.22.02-.43-.13-.45-.34-.07-.66-.92-4.12.58-5.68.89-.92,2.14-1.37,3.73-1.35,1.6-.03,2.85.42,3.73,1.35,1.48,1.56.76,4.92.67,5.59-.03.21-.21.35-.42.35Z"/>
    <path class="cls-7" d="m215.66,172.76h-15.52c-.23,0-.41-.17-.41-.39v-4.54c0-1.32.57-2.61,1.56-3.54.99-.92,2.28-1.42,3.64-1.4h1.26c.12.01.24.07.31.16l1.41,1.63,1.41-1.65c.07-.09.2-.15.32-.15h1.26c2.86,0,5.19,2.21,5.19,4.94v4.54c0,.24-.19.42-.42.42Zm-15.11-.78h14.7v-4.15c0-2.29-1.96-4.15-4.37-4.15h-1.06l-1.6,1.88c-.07.09-.2.14-.32.15-.12,0-.24-.05-.32-.14l-1.6-1.86h-1.06c-1.13-.03-2.21.38-3.04,1.16-.84.78-1.32,1.87-1.32,2.98v4.15Z"/>
    <path class="cls-7" d="m202.84,172.76c-.23,0-.41-.17-.41-.39v-5.08c0-.22.18-.39.41-.39s.41.17.41.39v5.08c0,.21-.19.39-.41.39Z"/>
    <path class="cls-7" d="m212.96,172.76c-.23,0-.41-.17-.41-.39v-5.08c0-.22.18-.39.41-.39s.41.17.41.39v5.08c0,.21-.19.39-.41.39Z"/>
    <path class="cls-7" d="m199.94,171.21h-8.91c-.23,0-.41-.17-.41-.39v-4.49c0-2.19,1.87-3.96,4.17-3.96h1.14c.11,0,.21.04.3.12l1.53,1.49,1.53-1.49c.07-.08.18-.12.3-.12h1.14c1.13,0,1.61.28,2.48,1.02.16.16.16.4,0,.56-.16.15-.42.15-.58,0-.69-.55-.99-.78-1.89-.78h-.96l-1.7,1.65c-.07.08-.18.12-.3.12s-.21-.04-.3-.12l-1.7-1.65h-.96c-1.84,0-3.35,1.43-3.35,3.18v4.1h8.5c.23,0,.41.17.41.39s-.18.39-.41.39Z"/>
    <path class="cls-7" d="m193.73,171.21c-.23,0-.41-.17-.41-.39v-4.52c0-.22.18-.39.41-.39s.41.17.41.39v4.52c0,.21-.18.39-.41.39Z"/>
    <path class="cls-7" d="m195.93,163.14c-.23,0-.41-.17-.41-.39v-1.57c0-.22.18-.39.41-.39s.41.17.41.39v1.57c0,.22-.18.39-.41.39Z"/>
    <path class="cls-7" d="m199.58,163.14c-.23,0-.41-.17-.41-.39v-1.49c0-.22.18-.39.41-.39s.41.17.41.39v1.49c0,.22-.19.39-.41.39Z"/>
    <path class="cls-7" d="m197.8,162.25s0,0,0,0c-1.7,0-3.55-1.29-3.62-4.1,0-.22.17-.39.4-.4.23,0,.41.16.42.38.05,2.29,1.48,3.33,2.8,3.34,1.31,0,2.74-1.04,2.8-3.32,0-.22.2-.38.42-.38.23,0,.4.19.4.4-.07,2.8-1.93,4.07-3.62,4.07Z"/>
    <path class="cls-7" d="m201.01,158.56s-.07,0-.1,0c-.18-.04-.31-.2-.31-.37-.04-1.38-.35-2.02-.54-2.28-1.58.81-2.85.35-3.72.04-.44-.16-.63-.21-.73-.19-.03,1.35-.62,2.51-.64,2.57-.07.12-.19.2-.34.22-.14,0-.29-.05-.37-.16-.99-1.3-1.06-2.74-.21-4.06,1-1.54,3.11-2.54,4.79-2.27,1.19.19,2.02.96,2.36,2.16,1.73,1.35.22,4.04.16,4.15-.06.12-.2.19-.35.19Zm-2.72-5.78c-1.28,0-2.79.81-3.53,1.94-.4.6-.7,1.49-.25,2.51.14-.44.28-1.03.27-1.64,0-.08.02-.16.07-.22.44-.64,1.15-.38,1.78-.16.85.3,1.91.69,3.28-.13.12-.08.29-.08.42,0,.12.06.58.36.86,1.38.1-.62.02-1.3-.58-1.7-.08-.06-.14-.14-.17-.23-.23-.97-.83-1.56-1.73-1.7-.15-.04-.29-.05-.44-.05Z"/>
    <path class="cls-7" d="m224.76,171.21h-8.94c-.23,0-.41-.17-.41-.39s.18-.39.41-.39h8.53v-4.1c0-1.75-1.51-3.18-3.35-3.18h-.96l-1.7,1.65c-.07.08-.18.12-.3.12-.11,0-.21-.04-.3-.12l-1.7-1.65h-.96c-.91,0-1.37.12-2.02.71-.16.16-.42.16-.58,0-.17-.15-.17-.4,0-.56.84-.74,1.48-.95,2.62-.95h1.13c.11,0,.21.04.3.12l1.53,1.49,1.53-1.49c.07-.08.18-.12.3-.12h1.13c2.3,0,4.17,1.78,4.17,3.96v4.49c0,.21-.18.39-.41.39Z"/>
    <path class="cls-7" d="m216.22,163.14c-.23,0-.41-.17-.41-.39v-1.57c0-.22.18-.39.41-.39s.41.17.41.39v1.57c0,.22-.19.39-.41.39Z"/>
    <path class="cls-7" d="m219.87,163.14c-.23,0-.41-.17-.41-.39v-1.49c0-.22.18-.39.41-.39s.41.17.41.39v1.49c0,.22-.18.39-.41.39Z"/>
    <path class="cls-7" d="m218.09,162.25c-1.7,0-3.55-1.29-3.62-4.1,0-.22.17-.39.4-.4h0c.22,0,.4.17.41.38.05,2.29,1.48,3.33,2.8,3.34,1.31,0,2.74-1.04,2.8-3.32,0-.22.19-.38.42-.38.23,0,.4.19.4.4-.07,2.8-1.92,4.07-3.62,4.07Z"/>
    <path class="cls-7" d="m221.3,158.56s-.07,0-.1,0c-.18-.04-.31-.2-.31-.37-.04-1.38-.36-2.03-.54-2.28-1.58.81-2.85.35-3.72.04-.44-.16-.63-.21-.73-.19-.02,1.35-.62,2.51-.64,2.57-.07.12-.19.2-.34.22-.14,0-.29-.05-.37-.16-.99-1.3-1.06-2.74-.21-4.06,1-1.54,3.11-2.54,4.79-2.27,1.19.19,2.02.96,2.36,2.16,1.73,1.35.22,4.04.16,4.15-.07.12-.21.19-.35.19Zm-2.72-5.78c-1.28,0-2.79.81-3.53,1.94-.4.6-.7,1.49-.25,2.51.14-.44.28-1.03.27-1.64,0-.08.02-.16.07-.22.44-.64,1.15-.38,1.78-.16.85.3,1.91.69,3.28-.13.12-.08.29-.08.42,0,.11.06.58.36.86,1.38.1-.62.02-1.3-.58-1.7-.08-.06-.14-.14-.16-.23-.23-.97-.83-1.56-1.73-1.7-.14-.04-.29-.05-.43-.05Z"/>
    <path class="cls-7" d="m222.06,171.21c-.23,0-.41-.17-.41-.39v-4.52c0-.22.18-.39.41-.39s.41.17.41.39v4.52c0,.21-.18.39-.41.39Z"/>
    <path class="cls-7" d="m218.04,171.21c-.23,0-.41-.17-.41-.39v-6.29c0-.22.18-.39.41-.39s.41.17.41.39v6.29c0,.21-.18.39-.41.39Z"/>
    <path class="cls-7" d="m197.75,171.21c-.23,0-.41-.17-.41-.39v-6.29c0-.22.18-.39.41-.39s.41.17.41.39v6.29c0,.21-.19.39-.41.39Z"/>
    <path class="cls-6" d="m209.83,154.63s-.11,0-.44.13c-.03.01-.07.03-.1.04-.35.14-.9.36-1.54.36s-1.19-.22-1.54-.36c-.04-.01-.07-.03-.1-.04-.33-.13-.42-.13-.44-.13-.05.02-.17.09-.34.28-.16.19-.32.44-.47.75-.3.63-.47,1.36-.47,1.9,0,.94.39,1.92,1.03,2.66.64.74,1.47,1.17,2.33,1.17s1.69-.44,2.33-1.17c.64-.74,1.03-1.72,1.03-2.66,0-.54-.2-1.36-.51-2.05-.16-.34-.32-.59-.46-.75-.17-.19-.31-.14-.31-.14h0Zm.32-.9c-.39-.14-.78.01-1.21.18-.36.14-.75.3-1.19.3s-.83-.15-1.19-.3c-.43-.17-.82-.32-1.21-.18-1.06.37-1.92,2.42-1.92,3.84,0,2.38,1.93,4.8,4.32,4.8s4.32-2.41,4.32-4.8c0-1.42-.96-3.84-1.92-3.84Z"/>
    <rect class="cls-83" x="256.25" y="92.69" width="110" height="40" rx="3.5" ry="3.5"/>
    <path class="cls-7" d="m264.02,108.58v-.69l3.51-4.86h1.09v4.76h1v.79h-1v1.61h-.9v-1.61h-3.7Zm3.74-4.6l-2.69,3.81h2.69v-3.81Z"/>
    <path class="cls-7" d="m273.01,107.44c0-.57.11-1.06.34-1.48.23-.43.54-.76.94-.99.41-.23.87-.35,1.39-.35.67,0,1.23.16,1.66.49.44.33.73.78.87,1.36h-.98c-.09-.33-.28-.6-.55-.79-.27-.19-.6-.29-1-.29-.52,0-.94.18-1.26.54-.32.35-.48.86-.48,1.51s.16,1.17.48,1.53c.32.36.74.54,1.26.54.4,0,.73-.09,1-.28.27-.19.45-.45.55-.8h.98c-.15.56-.44,1.01-.88,1.35-.44.33-.99.5-1.65.5-.52,0-.98-.12-1.39-.35-.4-.23-.71-.56-.94-.99s-.34-.93-.34-1.5Z"/>
    <path class="cls-7" d="m280.33,102.79v7.4h-.91v-7.4h.91Z"/>
    <path class="cls-7" d="m282.35,103.82c-.17,0-.32-.06-.44-.18-.12-.12-.18-.27-.18-.44s.06-.32.18-.44.27-.18.44-.18.31.06.42.18c.12.12.18.27.18.44s-.06.32-.18.44c-.11.12-.25.18-.42.18Zm.44.89v5.48h-.91v-5.48h.91Z"/>
    <path class="cls-7" d="m289.34,107.24c0,.17-.01.36-.03.55h-4.38c.03.54.22.96.55,1.27.34.3.75.45,1.23.45.39,0,.72-.09.98-.27.27-.19.45-.43.56-.74h.98c-.15.53-.44.96-.88,1.29-.44.33-.99.49-1.64.49-.52,0-.99-.12-1.4-.35-.41-.23-.73-.56-.96-.99-.23-.43-.35-.93-.35-1.5s.11-1.06.34-1.49c.23-.43.54-.75.95-.98.41-.23.89-.35,1.42-.35s.98.11,1.38.34c.4.23.71.54.92.94.22.39.33.84.33,1.34Zm-.94-.19c0-.35-.08-.64-.23-.89-.15-.25-.36-.44-.63-.57-.26-.13-.55-.2-.87-.2-.46,0-.85.15-1.18.44-.32.29-.5.7-.55,1.22h3.46Z"/>
    <path class="cls-7" d="m293.21,104.61c.67,0,1.21.2,1.62.61.41.4.62.98.62,1.74v3.23h-.9v-3.1c0-.55-.14-.96-.41-1.25-.27-.29-.65-.44-1.12-.44s-.86.15-1.15.45c-.28.3-.42.74-.42,1.31v3.03h-.91v-5.48h.91v.78c.18-.28.42-.5.73-.65.31-.15.66-.23,1.03-.23Z"/>
    <path class="cls-7" d="m298.05,105.46v3.23c0,.27.06.46.17.57.11.11.31.16.59.16h.67v.77h-.82c-.51,0-.89-.12-1.14-.35-.25-.23-.38-.62-.38-1.15v-3.23h-.71v-.75h.71v-1.38h.91v1.38h1.43v.75h-1.43Z"/>
    <path class="cls-7" d="m265.5,117.46v3.23c0,.27.06.46.17.57.11.11.31.16.59.16h.67v.77h-.82c-.51,0-.89-.12-1.14-.35-.25-.23-.38-.62-.38-1.15v-3.23h-.71v-.75h.71v-1.38h.91v1.38h1.43v.75h-1.43Z"/>
    <path class="cls-7" d="m273.03,119.24c0,.17,0,.36-.03.55h-4.38c.03.54.22.96.55,1.27.34.3.75.45,1.23.45.39,0,.72-.09.98-.27.27-.19.45-.43.56-.74h.98c-.15.53-.44.96-.88,1.29-.44.33-.99.49-1.64.49-.52,0-.99-.12-1.4-.35-.41-.23-.73-.56-.96-.99-.23-.43-.35-.93-.35-1.5s.11-1.06.34-1.49c.23-.43.54-.75.95-.98.41-.23.89-.35,1.42-.35s.98.11,1.38.34c.4.23.71.54.92.94.22.39.33.84.33,1.34Zm-.94-.19c0-.35-.08-.64-.23-.89-.15-.25-.36-.44-.63-.57-.26-.13-.55-.2-.87-.2-.46,0-.85.15-1.18.44-.32.29-.5.7-.55,1.22h3.46Z"/>
    <path class="cls-7" d="m273.89,119.43c0-.56.11-1.05.34-1.47.23-.43.54-.76.93-.99.4-.23.84-.35,1.33-.35s.9.1,1.25.31c.35.21.62.47.79.78v-1h.92v5.48h-.92v-1.02c-.18.32-.45.59-.81.8-.35.21-.77.31-1.24.31s-.93-.12-1.32-.36c-.39-.24-.7-.58-.93-1.01-.23-.43-.34-.93-.34-1.48Zm4.64,0c0-.41-.08-.77-.25-1.08-.17-.31-.39-.54-.68-.7-.28-.17-.59-.25-.93-.25s-.65.08-.93.24c-.28.16-.5.39-.67.7-.17.31-.25.67-.25,1.08s.08.79.25,1.1c.17.31.39.54.67.71.28.16.59.24.93.24s.65-.08.93-.24c.29-.17.51-.4.68-.71.17-.31.25-.68.25-1.09Z"/>
    <path class="cls-7" d="m287.58,116.61c.43,0,.81.09,1.14.27.33.17.6.44.79.79.19.35.29.78.29,1.29v3.23h-.9v-3.1c0-.55-.14-.96-.41-1.25-.27-.29-.63-.44-1.09-.44s-.85.15-1.13.46c-.28.3-.42.74-.42,1.31v3.02h-.9v-3.1c0-.55-.14-.96-.41-1.25-.27-.29-.63-.44-1.09-.44s-.85.15-1.13.46c-.28.3-.42.74-.42,1.31v3.02h-.91v-5.48h.91v.79c.18-.29.42-.51.72-.66.31-.15.64-.23,1.01-.23.46,0,.87.1,1.22.31.35.21.62.51.79.91.15-.39.41-.69.76-.9.35-.21.75-.32,1.18-.32Z"/>
    <path class="cls-7" d="m293.23,122.28c-.42,0-.8-.07-1.13-.21-.33-.15-.6-.35-.79-.6-.19-.26-.3-.56-.32-.89h.94c.03.27.15.5.38.67.23.17.54.26.91.26.35,0,.62-.08.82-.23.2-.15.3-.35.3-.58s-.11-.42-.32-.53c-.21-.12-.54-.24-.99-.35-.41-.11-.74-.21-1-.32-.25-.11-.47-.28-.66-.49-.18-.22-.27-.51-.27-.86,0-.28.08-.54.25-.77.17-.23.4-.42.71-.55.31-.14.66-.21,1.05-.21.61,0,1.1.15,1.47.46.37.31.57.73.6,1.26h-.91c-.02-.29-.14-.52-.35-.69-.21-.17-.49-.26-.84-.26-.33,0-.59.07-.78.21-.19.14-.29.32-.29.55,0,.18.06.33.17.45.12.11.27.21.44.28.18.07.43.14.74.23.39.11.71.21.96.32.25.1.46.25.63.46.18.21.27.48.28.81,0,.3-.08.57-.25.81-.17.24-.4.43-.71.57-.3.13-.65.2-1.04.2Z"/>
    <path class="cls-7" d="m340.17,114.68c-.23,0-.41-.17-.41-.39v-1.7c0-.22.18-.39.41-.39s.41.17.41.39v1.7c0,.21-.18.39-.41.39Z"/>
    <path class="cls-7" d="m343.62,114.66c-.23,0-.41-.17-.41-.39v-1.7c0-.22.18-.39.41-.39s.41.17.41.39v1.7c0,.22-.18.39-.41.39Z"/>
    <path class="cls-7" d="m345.65,108.91h-.05c-.22-.02-.39-.22-.36-.44.07-.58.77-3.67-.47-4.97-.71-.74-1.76-1.11-3.1-1.09h-.02c-1.35-.03-2.4.34-3.12,1.09-1.26,1.31-.43,4.48-.36,5.06.02.21-.14.41-.36.43-.22.02-.43-.13-.45-.34-.07-.67-.92-4.12.58-5.68.89-.92,2.14-1.37,3.73-1.35,1.6-.03,2.85.42,3.73,1.35,1.48,1.56.76,4.92.67,5.59-.03.21-.21.35-.42.35Z"/>
    <path class="cls-7" d="m349.66,123.76h-15.52c-.23,0-.41-.17-.41-.39v-4.54c0-1.32.57-2.61,1.56-3.54.99-.92,2.28-1.42,3.64-1.4h1.26c.12.01.24.07.31.16l1.41,1.63,1.41-1.65c.07-.09.2-.15.32-.15h1.26c2.86,0,5.19,2.21,5.19,4.94v4.54c0,.24-.19.42-.42.42Zm-15.11-.78h14.7v-4.15c0-2.29-1.96-4.15-4.37-4.15h-1.06l-1.6,1.88c-.07.09-.2.14-.32.15-.12,0-.24-.05-.32-.14l-1.6-1.86h-1.06c-1.14-.03-2.21.38-3.04,1.16-.84.78-1.32,1.87-1.32,2.98v4.15Z"/>
    <path class="cls-7" d="m336.84,123.76c-.23,0-.41-.17-.41-.39v-5.08c0-.22.18-.39.41-.39s.41.17.41.39v5.08c0,.21-.19.39-.41.39Z"/>
    <path class="cls-7" d="m346.96,123.76c-.23,0-.41-.17-.41-.39v-5.08c0-.22.18-.39.41-.39s.41.17.41.39v5.08c0,.21-.19.39-.41.39Z"/>
    <path class="cls-7" d="m333.94,122.21h-8.91c-.23,0-.41-.17-.41-.39v-4.49c0-2.19,1.87-3.96,4.17-3.96h1.13c.11,0,.21.04.3.12l1.53,1.49,1.53-1.49c.07-.08.18-.12.3-.12h1.14c1.13,0,1.61.28,2.48,1.02.16.16.16.4,0,.56-.16.15-.42.15-.58,0-.69-.55-.99-.78-1.89-.78h-.96l-1.7,1.65c-.07.08-.18.12-.3.12s-.21-.04-.3-.12l-1.7-1.65h-.96c-1.84,0-3.35,1.43-3.35,3.18v4.1h8.5c.23,0,.41.17.41.39s-.18.39-.41.39Z"/>
    <path class="cls-7" d="m327.73,122.21c-.23,0-.41-.17-.41-.39v-4.52c0-.22.18-.39.41-.39s.41.17.41.39v4.52c0,.21-.18.39-.41.39Z"/>
    <path class="cls-7" d="m329.92,114.14c-.23,0-.41-.17-.41-.39v-1.57c0-.22.18-.39.41-.39s.41.17.41.39v1.57c0,.22-.18.39-.41.39Z"/>
    <path class="cls-7" d="m333.58,114.14c-.23,0-.41-.17-.41-.39v-1.49c0-.22.18-.39.41-.39s.41.17.41.39v1.49c0,.22-.19.39-.41.39Z"/>
    <path class="cls-7" d="m331.8,113.25s0,0,0,0c-1.7,0-3.55-1.29-3.62-4.1,0-.22.17-.39.4-.4.23,0,.41.16.42.38.05,2.29,1.48,3.33,2.8,3.34,1.31,0,2.74-1.04,2.8-3.32,0-.22.2-.38.42-.38.23,0,.4.19.4.4-.07,2.8-1.93,4.07-3.62,4.07Z"/>
    <path class="cls-7" d="m335.01,109.56s-.07,0-.1,0c-.18-.04-.31-.19-.31-.37-.04-1.38-.35-2.02-.54-2.28-1.58.81-2.85.35-3.72.04-.44-.16-.63-.21-.73-.19-.02,1.35-.62,2.51-.64,2.57-.07.12-.19.2-.34.22-.14,0-.29-.05-.37-.16-.99-1.3-1.06-2.74-.21-4.06,1-1.54,3.11-2.53,4.8-2.27,1.19.19,2.02.96,2.36,2.16,1.73,1.35.22,4.04.16,4.15-.07.12-.2.19-.35.19Zm-2.72-5.78c-1.28,0-2.79.81-3.53,1.94-.39.6-.7,1.49-.25,2.51.14-.44.28-1.03.27-1.64,0-.08.02-.16.06-.22.44-.64,1.15-.38,1.78-.16.85.31,1.91.69,3.28-.13.12-.08.29-.08.42,0,.11.06.58.36.86,1.38.1-.62.02-1.3-.58-1.7-.08-.06-.14-.14-.17-.23-.23-.97-.83-1.56-1.73-1.7-.15-.04-.29-.05-.44-.05Z"/>
    <path class="cls-7" d="m358.76,122.21h-8.94c-.23,0-.41-.17-.41-.39s.18-.39.41-.39h8.53v-4.1c0-1.75-1.51-3.18-3.35-3.18h-.96l-1.7,1.65c-.07.08-.18.12-.3.12-.11,0-.21-.04-.3-.12l-1.7-1.65h-.96c-.91,0-1.36.12-2.02.71-.16.16-.42.16-.58,0-.16-.15-.16-.4,0-.56.84-.74,1.48-.95,2.61-.95h1.14c.11,0,.21.04.3.12l1.53,1.49,1.53-1.49c.07-.08.18-.12.3-.12h1.14c2.3,0,4.17,1.78,4.17,3.96v4.49c0,.21-.18.39-.41.39Z"/>
    <path class="cls-7" d="m350.22,114.14c-.23,0-.41-.17-.41-.39v-1.57c0-.22.18-.39.41-.39s.41.17.41.39v1.57c0,.22-.19.39-.41.39Z"/>
    <path class="cls-7" d="m353.87,114.14c-.23,0-.41-.17-.41-.39v-1.49c0-.22.18-.39.41-.39s.41.17.41.39v1.49c0,.22-.18.39-.41.39Z"/>
    <path class="cls-7" d="m352.09,113.25c-1.7,0-3.55-1.29-3.62-4.1,0-.22.17-.39.4-.4h0c.22,0,.4.17.41.38.05,2.29,1.48,3.33,2.8,3.34,1.31,0,2.74-1.04,2.8-3.32,0-.22.19-.38.42-.38.23,0,.4.19.4.4-.07,2.8-1.92,4.07-3.62,4.07Z"/>
    <path class="cls-7" d="m355.3,109.56s-.07,0-.1,0c-.18-.04-.31-.19-.31-.37-.04-1.38-.36-2.03-.54-2.28-1.58.81-2.85.35-3.72.04-.44-.16-.63-.21-.73-.19-.02,1.35-.62,2.51-.64,2.57-.07.12-.19.2-.34.22-.14,0-.29-.05-.37-.16-.99-1.3-1.06-2.74-.21-4.06,1-1.54,3.11-2.53,4.8-2.27,1.19.19,2.02.96,2.36,2.16,1.73,1.35.22,4.04.16,4.15-.07.12-.21.19-.35.19Zm-2.72-5.78c-1.28,0-2.79.81-3.53,1.94-.39.6-.7,1.49-.25,2.51.14-.44.28-1.03.27-1.64,0-.08.02-.16.07-.22.44-.64,1.15-.38,1.78-.16.85.31,1.91.69,3.28-.13.12-.08.29-.08.42,0,.12.06.58.36.86,1.38.1-.62.02-1.3-.58-1.7-.08-.06-.14-.14-.16-.23-.23-.97-.83-1.56-1.73-1.7-.14-.04-.29-.05-.43-.05Z"/>
    <path class="cls-7" d="m356.06,122.21c-.23,0-.41-.17-.41-.39v-4.52c0-.22.18-.39.41-.39s.41.17.41.39v4.52c0,.21-.18.39-.41.39Z"/>
    <path class="cls-7" d="m352.04,122.21c-.23,0-.41-.17-.41-.39v-6.29c0-.22.18-.39.41-.39s.41.17.41.39v6.29c0,.21-.18.39-.41.39Z"/>
    <path class="cls-7" d="m331.75,122.21c-.23,0-.41-.17-.41-.39v-6.29c0-.22.18-.39.41-.39s.41.17.41.39v6.29c0,.21-.19.39-.41.39Z"/>
    <path class="cls-6" d="m343.83,105.63s-.11,0-.44.13c-.03.01-.07.03-.1.04-.35.14-.9.36-1.54.36s-1.19-.22-1.54-.36c-.04-.01-.07-.03-.1-.04-.33-.13-.42-.13-.44-.13-.05.02-.17.09-.34.28-.16.19-.32.44-.47.75-.3.63-.47,1.36-.47,1.9,0,.94.39,1.92,1.03,2.66.64.74,1.47,1.17,2.33,1.17s1.69-.44,2.33-1.17c.64-.74,1.03-1.72,1.03-2.66,0-.54-.19-1.36-.51-2.05-.16-.34-.32-.59-.45-.75-.17-.19-.31-.14-.31-.14h0Zm.32-.9c-.39-.14-.78.01-1.21.18-.36.14-.75.3-1.19.3s-.83-.15-1.19-.3c-.43-.17-.82-.32-1.21-.18-1.06.37-1.92,2.42-1.92,3.84,0,2.38,1.93,4.8,4.32,4.8s4.32-2.41,4.32-4.8c0-1.42-.96-3.84-1.92-3.84Z"/>
    <g class="cls-77">
      <path class="cls-5" d="m169.41,209.9c-.44,0-.79.36-.79.79s.35.79.79.79h7.04v7.04c0,.44.36.79.79.79s.79-.35.79-.79v-7.04h7.04c.44,0,.79-.36.79-.79s-.35-.79-.79-.79h-7.04v-7.04c0-.44-.36-.79-.79-.79s-.79.35-.79.79v7.04h-7.04Z"/>
    </g>
    <path class="cls-8" d="m225.75,231.19h-5v-1h5v1Zm-10,0h-5v-1h5v1Zm-10,0h-5v-1h5v1Zm-10,0h-5v-1h5v1Zm-10,0h-5v-1h5v1Zm-10,0h-5v-1h5v1Zm-10,0h-5v-1h5v1Zm-10,0h-5v-1h5v1Zm-10,0h-5v-1h5v1Zm-10,0h-5v-1h5v1Zm-10,0c-1.98,0-3.68-1.48-3.96-3.43l.99-.14c.21,1.47,1.49,2.57,2.97,2.57v1Zm105.16-.63l-.54-.84c.86-.56,1.38-1.5,1.38-2.53v-1.5h1v1.5c0,1.37-.69,2.62-1.84,3.37Zm-108.16-7.87h-1v-5h1v5Zm110-2h-1v-5h1v5Zm-110-8h-1v-5h1v5Zm110-2h-1v-5h1v5Zm-110-8h-1v-5h1v5Zm110-2h-1v-5h1v5Zm-109.73-7.75l-.91-.42c.65-1.42,2.08-2.34,3.64-2.34h5v1h-5c-1.17,0-2.24.69-2.73,1.75Zm107.35-1.28c-.48-.31-1.05-.48-1.62-.48h-3v-1h3c.77,0,1.52.22,2.16.63l-.54.84Zm-9.62-.48h-5v-1h5v1Zm-10,0h-5v-1h5v1Zm-10,0h-5v-1h5v1Zm-10,0h-5v-1h5v1Zm-10,0h-5v-1h5v1Zm-10,0h-5v-1h5v1Zm-10,0h-5v-1h5v1Zm-10,0h-5v-1h5v1Zm-10,0h-5v-1h5v1Z"/>
    <path class="cls-8" d="m96.32,231.19h-5v-1h5v1Zm-10,0h-5v-1h5v1Zm-10,0h-5v-1h5v1Zm-10,0h-5v-1h5v1Zm-10,0h-5v-1h5v1Zm-10,0h-5v-1h5v1Zm-10.09-.14c-1.75-.34-3.36-1.27-4.53-2.62l.76-.65c1.03,1.18,2.43,2,3.96,2.29l-.19.98Zm65.2-.32l-.34-.94c1.47-.52,2.74-1.54,3.57-2.87l.85.53c-.95,1.51-2.4,2.68-4.08,3.27Zm-71.68-7.16c0-.13,0-.25,0-.38v-4.64h1v4.64c0,.11,0,.22,0,.33l-1,.04Zm76.99-1.16h-1v-5h1v5Zm-76-8.86h-1v-5h1v5Zm76-1.14h-1v-5h1v5Zm-76-8.86h-1v-5h1v5Zm76-1.14h-1v-5h1v5Zm-76-8.86h-1v-5h1v5Zm76-1.14h-1v-5h1v5Zm-76-8.86h-1v-5h1v5Zm76-1.14h-1v-5h1v5Zm-76-8.86h-1v-5h1v5Zm76-1.14h-1v-5h1v5Zm-76-8.86h-1v-5h1v5Zm76-1.14h-1v-5h1v5Zm-76-8.86h-1v-5h1v5Zm76-1.14h-1v-5h1v5Zm-76-8.86h-1v-5h1v5Zm76-1.14h-1v-5h1v5Zm-76-8.86h-1v-5h1v5Zm76-1.14h-1v-5h1v5Zm-76-8.86h-1v-3.36c0-.59.06-1.17.19-1.74l.98.22c-.11.5-.17,1.01-.17,1.52v3.36Zm76-1.14h-1v-2.21c0-.88-.16-1.73-.48-2.54l.93-.36c.36.92.54,1.9.54,2.9v2.22Zm-73.43-7.64l-.63-.77c1.4-1.15,3.1-1.77,4.91-1.8l.02,1c-1.59.03-3.07.58-4.3,1.58Zm68.99-.61c-1.07-.63-2.3-.97-3.56-.97h-1v-1h1c1.43,0,2.84.38,4.07,1.11l-.51.86Zm-9.56-.97h-5v-1h5v1Zm-10,0h-5v-1h5v1Zm-10,0h-5v-1h5v1Zm-10,0h-5v-1h5v1Zm-10,0h-5v-1h5v1Zm-10,0h-5v-1h5v1Z"/>
    <g>
      <rect class="cls-54" x="30.25" y="92.69" width="76" height="89" rx="7.5" ry="7.5"/>
      <path class="cls-8" d="m98.75,182.19h-61c-4.41,0-8-3.59-8-8v-74c0-4.41,3.59-8,8-8h61c4.41,0,8,3.59,8,8v74c0,4.41-3.59,8-8,8Zm-61-89c-3.86,0-7,3.14-7,7v74c0,3.86,3.14,7,7,7h61c3.86,0,7-3.14,7-7v-74c0-3.86-3.14-7-7-7h-61Z"/>
    </g>
    <path class="cls-7" d="m50.77,127.71c0-1.51.34-2.86,1.01-4.05.69-1.2,1.62-2.13,2.79-2.79,1.19-.68,2.52-1.01,3.98-1.01,1.72,0,3.22.44,4.51,1.32,1.29.88,2.19,2.1,2.71,3.65h-3.54c-.35-.73-.85-1.28-1.5-1.65-.63-.37-1.36-.55-2.2-.55-.89,0-1.69.21-2.4.64-.69.41-1.23,1-1.63,1.76-.38.76-.57,1.66-.57,2.68s.19,1.91.57,2.68c.4.76.94,1.36,1.63,1.78.7.41,1.5.62,2.4.62.84,0,1.57-.18,2.2-.55.65-.38,1.14-.94,1.5-1.67h3.54c-.51,1.57-1.42,2.79-2.71,3.67-1.28.86-2.78,1.3-4.51,1.3-1.47,0-2.79-.33-3.98-.99-1.17-.68-2.1-1.61-2.79-2.79-.67-1.19-1.01-2.54-1.01-4.05Z"/>
    <path class="cls-7" d="m71.49,120.06v15.36h-3.08v-15.36h3.08Z"/>
    <path class="cls-7" d="m85.73,124.81c0,.82-.2,1.59-.59,2.31-.38.72-.99,1.3-1.83,1.74-.82.44-1.86.66-3.12.66h-2.57v5.9h-3.08v-15.36h5.65c1.19,0,2.2.21,3.04.62s1.46.97,1.87,1.69c.43.72.64,1.53.64,2.44Zm-5.68,2.22c.85,0,1.48-.19,1.89-.57.41-.4.62-.95.62-1.65,0-1.5-.84-2.24-2.51-2.24h-2.44v4.47h2.44Z"/>
    <path class="cls-7" d="m57.21,146.04v1.36h-2.23v7.02h-1.68v-7.02h-2.23v-1.36h6.14Z"/>
    <path class="cls-7" d="m64.61,150.95c0,.24-.02.46-.05.65h-4.86c.04.48.21.86.5,1.13.3.27.66.41,1.09.41.62,0,1.07-.27,1.33-.8h1.81c-.19.64-.56,1.17-1.1,1.58-.54.41-1.21.61-2,.61-.64,0-1.22-.14-1.73-.42-.5-.29-.9-.69-1.19-1.21-.28-.52-.42-1.12-.42-1.8s.14-1.29.42-1.81c.28-.52.67-.92,1.18-1.2.5-.28,1.08-.42,1.74-.42s1.2.14,1.69.41c.5.27.89.66,1.16,1.16.28.5.42,1.07.42,1.72Zm-1.74-.48c0-.43-.16-.78-.47-1.03-.3-.26-.68-.4-1.12-.4-.42,0-.77.13-1.06.38-.28.25-.45.6-.52,1.04h3.16Z"/>
    <path class="cls-7" d="m65.41,151.07c0-.67.13-1.27.4-1.79.27-.52.64-.92,1.09-1.2.46-.28.98-.42,1.55-.42.5,0,.93.1,1.3.3.38.2.68.45.9.76v-.95h1.69v6.65h-1.69v-.97c-.22.31-.52.57-.9.78-.38.2-.81.3-1.31.3-.56,0-1.07-.14-1.54-.43-.46-.29-.82-.69-1.09-1.21-.26-.53-.4-1.13-.4-1.81Zm5.23.02c0-.41-.08-.76-.24-1.04-.16-.3-.38-.52-.65-.67-.27-.16-.56-.24-.88-.24s-.6.08-.86.23c-.26.15-.48.38-.65.67-.16.29-.24.63-.24,1.03s.08.75.24,1.06c.17.3.38.52.65.68.27.16.56.24.86.24s.6-.08.88-.23c.27-.16.49-.38.65-.67.16-.3.24-.65.24-1.06Z"/>
    <path class="cls-7" d="m82.23,147.67c.82,0,1.47.25,1.97.76.5.5.76,1.19.76,2.09v3.9h-1.68v-3.67c0-.52-.13-.92-.4-1.19-.26-.28-.62-.42-1.08-.42s-.82.14-1.09.42c-.26.27-.4.67-.4,1.19v3.67h-1.68v-3.67c0-.52-.13-.92-.4-1.19-.26-.28-.62-.42-1.08-.42s-.83.14-1.1.42c-.26.27-.4.67-.4,1.19v3.67h-1.68v-6.65h1.68v.8c.22-.28.49-.5.83-.66.34-.16.72-.24,1.13-.24.52,0,.98.11,1.39.34.41.22.72.53.95.94.22-.38.53-.69.94-.92.42-.23.86-.35,1.34-.35Z"/>
    <path class="cls-55" d="m124.75,72.19h97c1.66,0,3,1.34,3,3h0c0,1.66-1.34,3-3,3h-97c-1.66,0-3-1.34-3-3h0c0-1.66,1.34-3,3-3Z"/>
    <g class="cls-85">
      <g class="cls-76">
        <polygon class="cls-56" points="182.2 72.19 179.88 78.19 175.75 78.19 175.75 72.19 182.2 72.19"/>
        <polygon class="cls-56" points="182.65 72.19 180.33 78.19 179.88 78.19 182.2 72.19 182.65 72.19"/>
        <polygon class="cls-65" points="183.11 72.19 180.79 78.19 180.33 78.19 182.65 72.19 183.11 72.19"/>
        <polygon class="cls-69" points="183.57 72.19 181.25 78.19 180.79 78.19 183.11 72.19 183.57 72.19"/>
        <polygon class="cls-67" points="184.03 72.19 181.7 78.19 181.25 78.19 183.57 72.19 184.03 72.19"/>
        <polygon class="cls-71" points="184.48 72.19 182.16 78.19 181.7 78.19 184.03 72.19 184.48 72.19"/>
        <polygon class="cls-57" points="184.94 72.19 182.62 78.19 182.16 78.19 184.48 72.19 184.94 72.19"/>
        <polygon class="cls-70" points="185.4 72.19 183.08 78.19 182.62 78.19 184.94 72.19 185.4 72.19"/>
        <polygon class="cls-73" points="185.85 72.19 183.53 78.19 183.08 78.19 185.4 72.19 185.85 72.19"/>
        <polygon class="cls-66" points="186.31 72.19 183.99 78.19 183.53 78.19 185.85 72.19 186.31 72.19"/>
        <polygon class="cls-62" points="186.77 72.19 184.45 78.19 183.99 78.19 186.31 72.19 186.77 72.19"/>
        <polygon class="cls-60" points="187.23 72.19 184.9 78.19 184.45 78.19 186.77 72.19 187.23 72.19"/>
        <polygon class="cls-63" points="187.68 72.19 185.36 78.19 184.9 78.19 187.23 72.19 187.68 72.19"/>
        <polygon class="cls-32" points="188.14 72.19 185.82 78.19 185.36 78.19 187.68 72.19 188.14 72.19"/>
        <polygon class="cls-34" points="188.6 72.19 186.28 78.19 185.82 78.19 188.14 72.19 188.6 72.19"/>
        <polygon class="cls-41" points="189.05 72.19 186.73 78.19 186.28 78.19 188.6 72.19 189.05 72.19"/>
        <polygon class="cls-19" points="189.51 72.19 187.19 78.19 186.73 78.19 189.05 72.19 189.51 72.19"/>
        <polygon class="cls-17" points="189.97 72.19 187.65 78.19 187.19 78.19 189.51 72.19 189.97 72.19"/>
        <polygon class="cls-43" points="190.43 72.19 188.1 78.19 187.65 78.19 189.97 72.19 190.43 72.19"/>
        <polygon class="cls-45" points="190.88 72.19 188.56 78.19 188.1 78.19 190.43 72.19 190.88 72.19"/>
        <polygon class="cls-27" points="191.34 72.19 189.02 78.19 188.56 78.19 190.88 72.19 191.34 72.19"/>
        <polygon class="cls-48" points="191.8 72.19 189.48 78.19 189.02 78.19 191.34 72.19 191.8 72.19"/>
        <polygon class="cls-29" points="192.25 72.19 189.93 78.19 189.48 78.19 191.8 72.19 192.25 72.19"/>
        <polygon class="cls-38" points="192.71 72.19 190.39 78.19 189.93 78.19 192.25 72.19 192.71 72.19"/>
        <polygon class="cls-37" points="193.17 72.19 190.85 78.19 190.39 78.19 192.71 72.19 193.17 72.19"/>
        <polygon class="cls-47" points="193.63 72.19 191.31 78.19 190.85 78.19 193.17 72.19 193.63 72.19"/>
        <polygon class="cls-31" points="194.08 72.19 191.76 78.19 191.31 78.19 193.63 72.19 194.08 72.19"/>
        <polygon class="cls-14" points="194.54 72.19 192.22 78.19 191.76 78.19 194.08 72.19 194.54 72.19"/>
        <polygon class="cls-12" points="195 72.19 192.68 78.19 192.22 78.19 194.54 72.19 195 72.19"/>
        <polygon class="cls-21" points="195.45 72.19 193.13 78.19 192.68 78.19 195 72.19 195.45 72.19"/>
        <polygon class="cls-9" points="195.91 72.19 193.59 78.19 193.13 78.19 195.45 72.19 195.91 72.19"/>
        <polygon class="cls-50" points="196.37 72.19 194.05 78.19 193.59 78.19 195.91 72.19 196.37 72.19"/>
        <polygon class="cls-53" points="196.83 72.19 194.51 78.19 194.05 78.19 196.37 72.19 196.83 72.19"/>
        <polygon class="cls-24" points="197.28 72.19 194.96 78.19 194.51 78.19 196.83 72.19 197.28 72.19"/>
        <polygon class="cls-24" points="194.96 78.19 197.28 72.19 201.75 72.19 201.75 78.19 194.96 78.19"/>
      </g>
    </g>
    <path class="cls-56" d="m204.75,78.19c-8.27,0-15-6.73-15-15s6.73-15,15-15,15,6.73,15,15-6.73,15-15,15Zm0-24c-4.96,0-9,4.04-9,9s4.04,9,9,9,9-4.04,9-9-4.04-9-9-9Z"/>
    <path class="cls-56" d="m222.75,78.19v-12l12,12h-12Z"/>
    <g class="cls-85">
      <g class="cls-75">
        <rect class="cls-56" x="204.75" y="48.19" width="15" height="8"/>
        <rect class="cls-56" x="204.75" y="56.19" width="15" height=".44"/>
        <rect class="cls-65" x="204.75" y="56.63" width="15" height=".44"/>
        <rect class="cls-69" x="204.75" y="57.08" width="15" height=".44"/>
        <rect class="cls-68" x="204.75" y="57.52" width="15" height=".44"/>
        <rect class="cls-72" x="204.75" y="57.97" width="15" height=".44"/>
        <rect class="cls-58" x="204.75" y="58.41" width="15" height=".44"/>
        <rect class="cls-70" x="204.75" y="58.86" width="15" height=".44"/>
        <rect class="cls-73" x="204.75" y="59.3" width="15" height=".44"/>
        <rect class="cls-66" x="204.75" y="59.75" width="15" height=".44"/>
        <rect class="cls-61" x="204.75" y="60.19" width="15" height=".44"/>
        <rect class="cls-59" x="204.75" y="60.63" width="15" height=".44"/>
        <rect class="cls-64" x="204.75" y="61.08" width="15" height=".44"/>
        <rect class="cls-33" x="204.75" y="61.52" width="15" height=".44"/>
        <rect class="cls-35" x="204.75" y="61.97" width="15" height=".44"/>
        <rect class="cls-40" x="204.75" y="62.41" width="15" height=".44"/>
        <rect class="cls-18" x="204.75" y="62.86" width="15" height=".44"/>
        <rect class="cls-16" x="204.75" y="63.3" width="15" height=".44"/>
        <rect class="cls-42" x="204.75" y="63.75" width="15" height=".44"/>
        <rect class="cls-44" x="204.75" y="64.19" width="15" height=".44"/>
        <rect class="cls-26" x="204.75" y="64.63" width="15" height=".44"/>
        <rect class="cls-49" x="204.75" y="65.08" width="15" height=".44"/>
        <rect class="cls-28" x="204.75" y="65.52" width="15" height=".44"/>
        <rect class="cls-39" x="204.75" y="65.97" width="15" height=".44"/>
        <rect class="cls-36" x="204.75" y="66.41" width="15" height=".44"/>
        <rect class="cls-46" x="204.75" y="66.86" width="15" height=".44"/>
        <rect class="cls-30" x="204.75" y="67.3" width="15" height=".44"/>
        <rect class="cls-13" x="204.75" y="67.75" width="15" height=".44"/>
        <rect class="cls-11" x="204.75" y="68.19" width="15" height=".44"/>
        <rect class="cls-20" x="204.75" y="68.63" width="15" height=".44"/>
        <rect class="cls-10" x="204.75" y="69.08" width="15" height=".44"/>
        <rect class="cls-51" x="204.75" y="69.52" width="15" height=".44"/>
        <rect class="cls-52" x="204.75" y="69.97" width="15" height=".44"/>
        <rect class="cls-25" x="204.75" y="70.41" width="15" height=".44"/>
        <rect class="cls-15" x="204.75" y="70.86" width="15" height=".44"/>
        <rect class="cls-23" x="204.75" y="71.3" width="15" height=".44"/>
        <rect class="cls-22" x="204.75" y="71.75" width="15" height=".44"/>
      </g>
    </g>
    <path class="cls-55" d="m258.75,72.19h97c1.66,0,3,1.34,3,3h0c0,1.66-1.34,3-3,3h-97c-1.66,0-3-1.34-3-3h0c0-1.66,1.34-3,3-3Z"/>
    <g class="cls-85">
      <g class="cls-81">
        <polygon class="cls-56" points="316.2 72.19 313.88 78.19 309.75 78.19 309.75 72.19 316.2 72.19"/>
        <polygon class="cls-56" points="316.65 72.19 314.33 78.19 313.88 78.19 316.2 72.19 316.65 72.19"/>
        <polygon class="cls-65" points="317.11 72.19 314.79 78.19 314.33 78.19 316.65 72.19 317.11 72.19"/>
        <polygon class="cls-69" points="317.57 72.19 315.25 78.19 314.79 78.19 317.11 72.19 317.57 72.19"/>
        <polygon class="cls-67" points="318.03 72.19 315.7 78.19 315.25 78.19 317.57 72.19 318.03 72.19"/>
        <polygon class="cls-71" points="318.48 72.19 316.16 78.19 315.7 78.19 318.03 72.19 318.48 72.19"/>
        <polygon class="cls-57" points="318.94 72.19 316.62 78.19 316.16 78.19 318.48 72.19 318.94 72.19"/>
        <polygon class="cls-70" points="319.4 72.19 317.08 78.19 316.62 78.19 318.94 72.19 319.4 72.19"/>
        <polygon class="cls-73" points="319.85 72.19 317.53 78.19 317.08 78.19 319.4 72.19 319.85 72.19"/>
        <polygon class="cls-66" points="320.31 72.19 317.99 78.19 317.53 78.19 319.85 72.19 320.31 72.19"/>
        <polygon class="cls-62" points="320.77 72.19 318.45 78.19 317.99 78.19 320.31 72.19 320.77 72.19"/>
        <polygon class="cls-60" points="321.23 72.19 318.9 78.19 318.45 78.19 320.77 72.19 321.23 72.19"/>
        <polygon class="cls-63" points="321.68 72.19 319.36 78.19 318.9 78.19 321.23 72.19 321.68 72.19"/>
        <polygon class="cls-32" points="322.14 72.19 319.82 78.19 319.36 78.19 321.68 72.19 322.14 72.19"/>
        <polygon class="cls-34" points="322.6 72.19 320.28 78.19 319.82 78.19 322.14 72.19 322.6 72.19"/>
        <polygon class="cls-41" points="323.05 72.19 320.73 78.19 320.28 78.19 322.6 72.19 323.05 72.19"/>
        <polygon class="cls-19" points="323.51 72.19 321.19 78.19 320.73 78.19 323.05 72.19 323.51 72.19"/>
        <polygon class="cls-17" points="323.97 72.19 321.65 78.19 321.19 78.19 323.51 72.19 323.97 72.19"/>
        <polygon class="cls-43" points="324.43 72.19 322.1 78.19 321.65 78.19 323.97 72.19 324.43 72.19"/>
        <polygon class="cls-45" points="324.88 72.19 322.56 78.19 322.1 78.19 324.43 72.19 324.88 72.19"/>
        <polygon class="cls-27" points="325.34 72.19 323.02 78.19 322.56 78.19 324.88 72.19 325.34 72.19"/>
        <polygon class="cls-48" points="325.8 72.19 323.48 78.19 323.02 78.19 325.34 72.19 325.8 72.19"/>
        <polygon class="cls-29" points="326.25 72.19 323.93 78.19 323.48 78.19 325.8 72.19 326.25 72.19"/>
        <polygon class="cls-38" points="326.71 72.19 324.39 78.19 323.93 78.19 326.25 72.19 326.71 72.19"/>
        <polygon class="cls-37" points="327.17 72.19 324.85 78.19 324.39 78.19 326.71 72.19 327.17 72.19"/>
        <polygon class="cls-47" points="327.63 72.19 325.31 78.19 324.85 78.19 327.17 72.19 327.63 72.19"/>
        <polygon class="cls-31" points="328.08 72.19 325.76 78.19 325.31 78.19 327.63 72.19 328.08 72.19"/>
        <polygon class="cls-14" points="328.54 72.19 326.22 78.19 325.76 78.19 328.08 72.19 328.54 72.19"/>
        <polygon class="cls-12" points="329 72.19 326.68 78.19 326.22 78.19 328.54 72.19 329 72.19"/>
        <polygon class="cls-21" points="329.45 72.19 327.13 78.19 326.68 78.19 329 72.19 329.45 72.19"/>
        <polygon class="cls-9" points="329.91 72.19 327.59 78.19 327.13 78.19 329.45 72.19 329.91 72.19"/>
        <polygon class="cls-50" points="330.37 72.19 328.05 78.19 327.59 78.19 329.91 72.19 330.37 72.19"/>
        <polygon class="cls-53" points="330.83 72.19 328.51 78.19 328.05 78.19 330.37 72.19 330.83 72.19"/>
        <polygon class="cls-24" points="331.28 72.19 328.96 78.19 328.51 78.19 330.83 72.19 331.28 72.19"/>
        <polygon class="cls-24" points="328.96 78.19 331.28 72.19 335.75 72.19 335.75 78.19 328.96 78.19"/>
      </g>
    </g>
    <path class="cls-56" d="m338.75,78.19c-8.27,0-15-6.73-15-15s6.73-15,15-15,15,6.73,15,15-6.73,15-15,15Zm0-24c-4.96,0-9,4.04-9,9s4.04,9,9,9,9-4.04,9-9-4.04-9-9-9Z"/>
    <path class="cls-56" d="m356.75,78.19v-12l12,12h-12Z"/>
    <g class="cls-85">
      <g class="cls-80">
        <rect class="cls-56" x="338.75" y="48.19" width="15" height="8"/>
        <rect class="cls-56" x="338.75" y="56.19" width="15" height=".44"/>
        <rect class="cls-65" x="338.75" y="56.63" width="15" height=".44"/>
        <rect class="cls-69" x="338.75" y="57.08" width="15" height=".44"/>
        <rect class="cls-68" x="338.75" y="57.52" width="15" height=".44"/>
        <rect class="cls-72" x="338.75" y="57.97" width="15" height=".44"/>
        <rect class="cls-58" x="338.75" y="58.41" width="15" height=".44"/>
        <rect class="cls-70" x="338.75" y="58.86" width="15" height=".44"/>
        <rect class="cls-73" x="338.75" y="59.3" width="15" height=".44"/>
        <rect class="cls-66" x="338.75" y="59.75" width="15" height=".44"/>
        <rect class="cls-61" x="338.75" y="60.19" width="15" height=".44"/>
        <rect class="cls-59" x="338.75" y="60.63" width="15" height=".44"/>
        <rect class="cls-64" x="338.75" y="61.08" width="15" height=".44"/>
        <rect class="cls-33" x="338.75" y="61.52" width="15" height=".44"/>
        <rect class="cls-35" x="338.75" y="61.97" width="15" height=".44"/>
        <rect class="cls-40" x="338.75" y="62.41" width="15" height=".44"/>
        <rect class="cls-18" x="338.75" y="62.86" width="15" height=".44"/>
        <rect class="cls-16" x="338.75" y="63.3" width="15" height=".44"/>
        <rect class="cls-42" x="338.75" y="63.75" width="15" height=".44"/>
        <rect class="cls-44" x="338.75" y="64.19" width="15" height=".44"/>
        <rect class="cls-26" x="338.75" y="64.63" width="15" height=".44"/>
        <rect class="cls-49" x="338.75" y="65.08" width="15" height=".44"/>
        <rect class="cls-28" x="338.75" y="65.52" width="15" height=".44"/>
        <rect class="cls-39" x="338.75" y="65.97" width="15" height=".44"/>
        <rect class="cls-36" x="338.75" y="66.41" width="15" height=".44"/>
        <rect class="cls-46" x="338.75" y="66.86" width="15" height=".44"/>
        <rect class="cls-30" x="338.75" y="67.3" width="15" height=".44"/>
        <rect class="cls-13" x="338.75" y="67.75" width="15" height=".44"/>
        <rect class="cls-11" x="338.75" y="68.19" width="15" height=".44"/>
        <rect class="cls-20" x="338.75" y="68.63" width="15" height=".44"/>
        <rect class="cls-10" x="338.75" y="69.08" width="15" height=".44"/>
        <rect class="cls-51" x="338.75" y="69.52" width="15" height=".44"/>
        <rect class="cls-52" x="338.75" y="69.97" width="15" height=".44"/>
        <rect class="cls-25" x="338.75" y="70.41" width="15" height=".44"/>
        <rect class="cls-15" x="338.75" y="70.86" width="15" height=".44"/>
        <rect class="cls-23" x="338.75" y="71.3" width="15" height=".44"/>
        <rect class="cls-22" x="338.75" y="71.75" width="15" height=".44"/>
      </g>
    </g>
    <path class="cls-7" d="m122.47,43.7c.06-.74.34-1.31.85-1.73.51-.42,1.18-.62,1.99-.62.54,0,1.01.1,1.4.3.4.19.7.46.9.79.21.34.31.72.31,1.14,0,.5-.14.92-.43,1.28-.28.36-.65.59-1.1.7v.06c.52.13.93.38,1.24.76s.46.87.46,1.48c0,.46-.1.87-.31,1.24-.21.36-.52.64-.94.85s-.92.31-1.5.31c-.85,0-1.54-.22-2.09-.66-.54-.45-.85-1.08-.91-1.9h1.06c.06.48.25.87.59,1.18s.78.46,1.34.46.98-.14,1.27-.43c.3-.3.44-.68.44-1.14,0-.6-.2-1.03-.6-1.3s-1-.4-1.81-.4h-.28v-.91h.29c.74,0,1.29-.13,1.67-.36.38-.24.56-.61.56-1.1,0-.42-.14-.76-.42-1.02-.27-.26-.66-.38-1.18-.38s-.9.13-1.2.38c-.3.26-.48.6-.54,1.03h-1.07Z"/>
    <path class="cls-7" d="m134.3,45.33v.92h-4.79v-.92h4.79Z"/>
    <path class="cls-7" d="m144.26,43.49c.51,0,.97.11,1.37.32.4.21.72.52.95.95.23.42.35.94.35,1.55v3.88h-1.08v-3.72c0-.66-.16-1.16-.49-1.5-.32-.35-.76-.53-1.31-.53s-1.02.18-1.36.55c-.34.36-.5.88-.5,1.57v3.62h-1.08v-3.72c0-.66-.16-1.16-.49-1.5-.32-.35-.76-.53-1.31-.53s-1.02.18-1.36.55c-.34.36-.5.88-.5,1.57v3.62h-1.09v-6.58h1.09v.95c.22-.34.5-.61.86-.79.37-.18.77-.28,1.21-.28.55,0,1.04.12,1.46.37.42.25.74.61.95,1.09.18-.46.49-.82.91-1.08.42-.26.9-.38,1.42-.38Z"/>
    <path class="cls-7" d="m151.58,50.3c-.62,0-1.18-.14-1.68-.42-.5-.28-.89-.68-1.18-1.19-.28-.52-.42-1.12-.42-1.8s.14-1.26.43-1.78c.3-.52.7-.92,1.2-1.19.5-.28,1.07-.42,1.69-.42s1.19.14,1.69.42c.5.27.9.66,1.19,1.18.3.51.44,1.11.44,1.79s-.15,1.28-.46,1.8c-.3.51-.7.91-1.21,1.19-.51.28-1.08.42-1.7.42Zm0-.96c.39,0,.76-.09,1.1-.28.34-.18.62-.46.83-.83.22-.37.32-.82.32-1.34s-.1-.98-.31-1.34c-.21-.37-.48-.64-.82-.82-.34-.18-.7-.28-1.09-.28s-.77.09-1.1.28c-.33.18-.59.45-.79.82-.2.37-.3.82-.3,1.34s.1.99.29,1.36c.2.37.46.64.79.83.33.18.69.26,1.08.26Z"/>
    <path class="cls-7" d="m159.59,43.49c.8,0,1.45.24,1.94.73.5.48.74,1.18.74,2.09v3.88h-1.08v-3.72c0-.66-.16-1.16-.49-1.5-.33-.35-.78-.53-1.34-.53s-1.04.18-1.38.54c-.34.36-.5.88-.5,1.57v3.64h-1.09v-6.58h1.09v.94c.22-.34.51-.6.88-.78.38-.18.79-.28,1.24-.28Z"/>
    <path class="cls-7" d="m165.4,44.51v3.88c0,.32.07.55.2.68.14.13.37.19.71.19h.8v.92h-.98c-.61,0-1.06-.14-1.37-.42s-.46-.74-.46-1.38v-3.88h-.85v-.9h.85v-1.66h1.09v1.66h1.72v.9h-1.72Z"/>
    <path class="cls-7" d="m171.7,43.49c.5,0,.94.11,1.34.32.4.21.71.52.94.95.23.42.35.94.35,1.55v3.88h-1.08v-3.72c0-.66-.16-1.16-.49-1.5-.33-.35-.78-.53-1.34-.53s-1.04.18-1.38.54c-.34.36-.5.88-.5,1.57v3.64h-1.09v-8.88h1.09v3.24c.22-.34.51-.6.89-.78.38-.18.81-.28,1.28-.28Z"/>
    <path class="cls-7" d="m123.24,55.55c-.21,0-.38-.07-.53-.22-.14-.14-.22-.32-.22-.53s.07-.38.22-.53c.14-.14.32-.22.53-.22s.37.07.5.22c.14.14.22.32.22.53s-.07.38-.22.53c-.14.14-.3.22-.5.22Zm.53,1.07v6.58h-1.09v-6.58h1.09Z"/>
    <path class="cls-7" d="m126.96,57.51v3.88c0,.32.07.55.2.68.14.13.37.19.71.19h.8v.92h-.98c-.61,0-1.06-.14-1.37-.42s-.46-.74-.46-1.38v-3.88h-.85v-.9h.85v-1.66h1.09v1.66h1.72v.9h-1.72Z"/>
    <path class="cls-7" d="m136,59.65c0,.21-.01.43-.04.66h-5.26c.04.65.26,1.16.66,1.52.41.36.9.54,1.48.54.47,0,.86-.11,1.18-.32.32-.22.54-.52.67-.89h1.18c-.18.63-.53,1.15-1.06,1.55-.53.39-1.18.59-1.97.59-.62,0-1.18-.14-1.68-.42-.49-.28-.87-.68-1.15-1.19-.28-.52-.42-1.12-.42-1.8s.14-1.28.41-1.79.65-.9,1.14-1.18c.5-.28,1.06-.42,1.7-.42s1.18.14,1.66.41c.48.27.85.65,1.1,1.13.26.47.4,1.01.4,1.61Zm-1.13-.23c0-.42-.09-.77-.28-1.07-.18-.3-.44-.53-.76-.68-.31-.16-.66-.24-1.04-.24-.55,0-1.02.18-1.42.53-.38.35-.6.84-.66,1.46h4.15Z"/>
    <path class="cls-7" d="m138.53,57.68c.19-.38.46-.67.82-.88.36-.21.8-.31,1.31-.31v1.13h-.29c-1.22,0-1.84.66-1.84,1.99v3.58h-1.09v-6.58h1.09v1.07Z"/>
    <path class="cls-7" d="m141.51,59.88c0-.67.14-1.26.41-1.76.27-.51.64-.91,1.12-1.19.48-.28,1.01-.42,1.6-.42s1.08.12,1.5.37c.42.25.74.56.95.94v-1.2h1.1v6.58h-1.1v-1.22c-.22.38-.54.7-.97.96-.42.25-.92.37-1.49.37s-1.11-.14-1.58-.43c-.47-.29-.84-.69-1.12-1.21-.27-.52-.41-1.11-.41-1.78Zm5.57.01c0-.5-.1-.93-.3-1.3-.2-.37-.47-.65-.82-.84-.34-.2-.71-.3-1.12-.3s-.78.1-1.12.29-.6.47-.8.84c-.2.37-.3.8-.3,1.3s.1.94.3,1.32c.2.37.47.65.8.85.34.19.71.29,1.12.29s.78-.1,1.12-.29c.34-.2.62-.48.82-.85.2-.38.3-.81.3-1.31Z"/>
    <path class="cls-7" d="m151.36,57.51v3.88c0,.32.07.55.2.68.14.13.37.19.71.19h.8v.92h-.98c-.61,0-1.06-.14-1.37-.42s-.46-.74-.46-1.38v-3.88h-.85v-.9h.85v-1.66h1.09v1.66h1.72v.9h-1.72Z"/>
    <path class="cls-7" d="m154.96,55.55c-.21,0-.38-.07-.53-.22s-.22-.32-.22-.53.07-.38.22-.53.32-.22.53-.22.37.07.5.22c.14.14.22.32.22.53s-.07.38-.22.53c-.14.14-.3.22-.5.22Zm.53,1.07v6.58h-1.09v-6.58h1.09Z"/>
    <path class="cls-7" d="m160.22,63.3c-.62,0-1.18-.14-1.68-.42-.5-.28-.89-.68-1.18-1.19-.28-.52-.42-1.12-.42-1.8s.14-1.26.43-1.78c.3-.52.7-.92,1.2-1.19.5-.28,1.07-.42,1.69-.42s1.19.14,1.69.42c.5.27.9.66,1.19,1.18.3.51.44,1.11.44,1.79s-.15,1.28-.46,1.8c-.3.51-.7.91-1.21,1.19-.51.28-1.08.42-1.7.42Zm0-.96c.39,0,.76-.09,1.1-.28.34-.18.62-.46.83-.83.22-.37.32-.82.32-1.34s-.1-.98-.31-1.34c-.21-.37-.48-.64-.82-.82-.34-.18-.7-.28-1.09-.28s-.77.09-1.1.28c-.33.18-.59.45-.79.82-.2.37-.3.82-.3,1.34s.1.99.29,1.36c.2.37.46.64.79.83.33.18.69.26,1.08.26Z"/>
    <path class="cls-7" d="m168.23,56.49c.8,0,1.45.24,1.94.73.5.48.74,1.18.74,2.09v3.88h-1.08v-3.72c0-.66-.16-1.16-.49-1.5-.33-.35-.78-.53-1.34-.53s-1.04.18-1.38.54c-.34.36-.5.88-.5,1.57v3.64h-1.09v-6.58h1.09v.94c.22-.34.51-.6.88-.78.38-.18.79-.28,1.24-.28Z"/>
    <path class="cls-7" d="m256.47,43.7c.06-.74.34-1.31.85-1.73.51-.42,1.18-.62,1.99-.62.54,0,1.01.1,1.4.3.4.19.7.46.9.79.21.34.31.72.31,1.14,0,.5-.14.92-.43,1.28-.28.36-.65.59-1.1.7v.06c.52.13.93.38,1.24.76.3.38.46.87.46,1.48,0,.46-.1.87-.31,1.24-.21.36-.52.64-.94.85-.42.21-.92.31-1.5.31-.85,0-1.54-.22-2.09-.66-.54-.45-.85-1.08-.91-1.9h1.06c.06.48.25.87.59,1.18s.78.46,1.34.46.98-.14,1.27-.43c.3-.3.44-.68.44-1.14,0-.6-.2-1.03-.6-1.3-.4-.26-1-.4-1.81-.4h-.28v-.91h.29c.74,0,1.29-.13,1.67-.36.38-.24.56-.61.56-1.1,0-.42-.14-.76-.42-1.02-.27-.26-.66-.38-1.18-.38s-.9.13-1.2.38c-.3.26-.48.6-.54,1.03h-1.07Z"/>
    <path class="cls-7" d="m268.3,45.33v.92h-4.79v-.92h4.79Z"/>
    <path class="cls-7" d="m278.26,43.49c.51,0,.97.11,1.37.32.4.21.72.52.95.95s.35.94.35,1.55v3.88h-1.08v-3.72c0-.66-.16-1.16-.49-1.5-.32-.35-.76-.53-1.31-.53s-1.02.18-1.36.55c-.34.36-.5.88-.5,1.57v3.62h-1.08v-3.72c0-.66-.16-1.16-.49-1.5-.32-.35-.76-.53-1.31-.53s-1.02.18-1.36.55c-.34.36-.5.88-.5,1.57v3.62h-1.09v-6.58h1.09v.95c.22-.34.5-.61.86-.79.37-.18.77-.28,1.21-.28.55,0,1.04.12,1.46.37.42.25.74.61.95,1.09.18-.46.49-.82.91-1.08.42-.26.9-.38,1.42-.38Z"/>
    <path class="cls-7" d="m285.58,50.3c-.62,0-1.18-.14-1.68-.42-.5-.28-.89-.68-1.18-1.19-.28-.52-.42-1.12-.42-1.8s.14-1.26.43-1.78c.3-.52.7-.92,1.2-1.19.5-.28,1.07-.42,1.69-.42s1.19.14,1.69.42c.5.27.9.66,1.19,1.18.3.51.44,1.11.44,1.79s-.15,1.28-.46,1.8c-.3.51-.7.91-1.21,1.19-.51.28-1.08.42-1.7.42Zm0-.96c.39,0,.76-.09,1.1-.28s.62-.46.83-.83c.22-.37.32-.82.32-1.34s-.1-.98-.31-1.34-.48-.64-.82-.82c-.34-.18-.7-.28-1.09-.28s-.77.09-1.1.28c-.33.18-.59.45-.79.82-.2.37-.3.82-.3,1.34s.1.99.29,1.36c.2.37.46.64.79.83.33.18.69.26,1.08.26Z"/>
    <path class="cls-7" d="m293.59,43.49c.8,0,1.45.24,1.94.73.5.48.74,1.18.74,2.09v3.88h-1.08v-3.72c0-.66-.16-1.16-.49-1.5-.33-.35-.78-.53-1.34-.53s-1.04.18-1.38.54c-.34.36-.5.88-.5,1.57v3.64h-1.09v-6.58h1.09v.94c.22-.34.51-.6.88-.78.38-.18.79-.28,1.24-.28Z"/>
    <path class="cls-7" d="m299.4,44.51v3.88c0,.32.07.55.2.68.14.13.37.19.71.19h.8v.92h-.98c-.61,0-1.06-.14-1.37-.42-.3-.28-.46-.74-.46-1.38v-3.88h-.85v-.9h.85v-1.66h1.09v1.66h1.72v.9h-1.72Z"/>
    <path class="cls-7" d="m305.7,43.49c.5,0,.94.11,1.34.32.4.21.71.52.94.95.23.42.35.94.35,1.55v3.88h-1.08v-3.72c0-.66-.16-1.16-.49-1.5-.33-.35-.78-.53-1.34-.53s-1.04.18-1.38.54c-.34.36-.5.88-.5,1.57v3.64h-1.09v-8.88h1.09v3.24c.22-.34.51-.6.89-.78.38-.18.81-.28,1.28-.28Z"/>
    <path class="cls-7" d="m257.24,55.55c-.21,0-.38-.07-.53-.22-.14-.14-.22-.32-.22-.53s.07-.38.22-.53c.14-.14.32-.22.53-.22s.37.07.5.22c.14.14.22.32.22.53s-.07.38-.22.53c-.14.14-.3.22-.5.22Zm.53,1.07v6.58h-1.09v-6.58h1.09Z"/>
    <path class="cls-7" d="m260.96,57.51v3.88c0,.32.07.55.2.68.14.13.37.19.71.19h.8v.92h-.98c-.61,0-1.06-.14-1.37-.42-.3-.28-.46-.74-.46-1.38v-3.88h-.85v-.9h.85v-1.66h1.09v1.66h1.72v.9h-1.72Z"/>
    <path class="cls-7" d="m270,59.65c0,.21-.01.43-.04.66h-5.26c.04.65.26,1.16.66,1.52.41.36.9.54,1.48.54.47,0,.86-.11,1.18-.32.32-.22.54-.52.67-.89h1.18c-.18.63-.53,1.15-1.06,1.55-.53.39-1.18.59-1.97.59-.62,0-1.18-.14-1.68-.42-.49-.28-.87-.68-1.15-1.19-.28-.52-.42-1.12-.42-1.8s.14-1.28.41-1.79c.27-.51.65-.9,1.14-1.18.5-.28,1.06-.42,1.7-.42s1.18.14,1.66.41c.48.27.85.65,1.1,1.13.26.47.4,1.01.4,1.61Zm-1.13-.23c0-.42-.09-.77-.28-1.07-.18-.3-.44-.53-.76-.68-.31-.16-.66-.24-1.04-.24-.55,0-1.02.18-1.42.53-.38.35-.6.84-.66,1.46h4.15Z"/>
    <path class="cls-7" d="m272.53,57.68c.19-.38.46-.67.82-.88.36-.21.8-.31,1.31-.31v1.13h-.29c-1.22,0-1.84.66-1.84,1.99v3.58h-1.09v-6.58h1.09v1.07Z"/>
    <path class="cls-7" d="m275.51,59.88c0-.67.14-1.26.41-1.76.27-.51.64-.91,1.12-1.19.48-.28,1.01-.42,1.6-.42s1.08.12,1.5.37c.42.25.74.56.95.94v-1.2h1.1v6.58h-1.1v-1.22c-.22.38-.54.7-.97.96-.42.25-.92.37-1.49.37s-1.11-.14-1.58-.43c-.47-.29-.84-.69-1.12-1.21-.27-.52-.41-1.11-.41-1.78Zm5.57.01c0-.5-.1-.93-.3-1.3-.2-.37-.47-.65-.82-.84-.34-.2-.71-.3-1.12-.3s-.78.1-1.12.29-.6.47-.8.84c-.2.37-.3.8-.3,1.3s.1.94.3,1.32c.2.37.47.65.8.85.34.19.71.29,1.12.29s.78-.1,1.12-.29c.34-.2.62-.48.82-.85.2-.38.3-.81.3-1.31Z"/>
    <path class="cls-7" d="m285.36,57.51v3.88c0,.32.07.55.2.68.14.13.37.19.71.19h.8v.92h-.98c-.61,0-1.06-.14-1.37-.42-.3-.28-.46-.74-.46-1.38v-3.88h-.85v-.9h.85v-1.66h1.09v1.66h1.72v.9h-1.72Z"/>
    <path class="cls-7" d="m288.96,55.55c-.21,0-.38-.07-.53-.22-.14-.14-.22-.32-.22-.53s.07-.38.22-.53c.14-.14.32-.22.53-.22s.37.07.5.22c.14.14.22.32.22.53s-.07.38-.22.53c-.14.14-.3.22-.5.22Zm.53,1.07v6.58h-1.09v-6.58h1.09Z"/>
    <path class="cls-7" d="m294.22,63.3c-.62,0-1.18-.14-1.68-.42-.5-.28-.89-.68-1.18-1.19-.28-.52-.42-1.12-.42-1.8s.14-1.26.43-1.78c.3-.52.7-.92,1.2-1.19.5-.28,1.07-.42,1.69-.42s1.19.14,1.69.42c.5.27.9.66,1.19,1.18.3.51.44,1.11.44,1.79s-.15,1.28-.46,1.8c-.3.51-.7.91-1.21,1.19-.51.28-1.08.42-1.7.42Zm0-.96c.39,0,.76-.09,1.1-.28s.62-.46.83-.83c.22-.37.32-.82.32-1.34s-.1-.98-.31-1.34c-.21-.37-.48-.64-.82-.82-.34-.18-.7-.28-1.09-.28s-.77.09-1.1.28c-.33.18-.59.45-.79.82-.2.37-.3.82-.3,1.34s.1.99.29,1.36c.2.37.46.64.79.83.33.18.69.26,1.08.26Z"/>
    <path class="cls-7" d="m302.23,56.49c.8,0,1.45.24,1.94.73.5.48.74,1.18.74,2.09v3.88h-1.08v-3.72c0-.66-.16-1.16-.49-1.5-.33-.35-.78-.53-1.34-.53s-1.04.18-1.38.54c-.34.36-.5.88-.5,1.57v3.64h-1.09v-6.58h1.09v.94c.22-.34.51-.6.88-.78.38-.18.79-.28,1.24-.28Z"/>
    <path class="cls-7" d="m392.47,43.7c.06-.74.34-1.31.85-1.73.51-.42,1.18-.62,1.99-.62.54,0,1.01.1,1.4.3.4.19.7.46.9.79.21.34.31.72.31,1.14,0,.5-.14.92-.43,1.28-.28.36-.65.59-1.1.7v.06c.52.13.93.38,1.24.76.3.38.46.87.46,1.48,0,.46-.1.87-.31,1.24-.21.36-.52.64-.94.85-.42.21-.92.31-1.5.31-.85,0-1.54-.22-2.09-.66-.54-.45-.85-1.08-.91-1.9h1.06c.06.48.25.87.59,1.18s.78.46,1.34.46.98-.14,1.27-.43c.3-.3.44-.68.44-1.14,0-.6-.2-1.03-.6-1.3-.4-.26-1-.4-1.81-.4h-.28v-.91h.29c.74,0,1.29-.13,1.67-.36.38-.24.56-.61.56-1.1,0-.42-.14-.76-.42-1.02-.27-.26-.66-.38-1.18-.38s-.9.13-1.2.38c-.3.26-.48.6-.54,1.03h-1.07Z"/>
    <path class="cls-7" d="m404.3,45.33v.92h-4.79v-.92h4.79Z"/>
    <path class="cls-7" d="m414.26,43.49c.51,0,.97.11,1.37.32.4.21.72.52.95.95s.35.94.35,1.55v3.88h-1.08v-3.72c0-.66-.16-1.16-.49-1.5-.32-.35-.76-.53-1.31-.53s-1.02.18-1.36.55c-.34.36-.5.88-.5,1.57v3.62h-1.08v-3.72c0-.66-.16-1.16-.49-1.5-.32-.35-.76-.53-1.31-.53s-1.02.18-1.36.55c-.34.36-.5.88-.5,1.57v3.62h-1.09v-6.58h1.09v.95c.22-.34.5-.61.86-.79.37-.18.77-.28,1.21-.28.55,0,1.04.12,1.46.37.42.25.74.61.95,1.09.18-.46.49-.82.91-1.08.42-.26.9-.38,1.42-.38Z"/>
    <path class="cls-7" d="m421.58,50.3c-.62,0-1.18-.14-1.68-.42-.5-.28-.89-.68-1.18-1.19-.28-.52-.42-1.12-.42-1.8s.14-1.26.43-1.78c.3-.52.7-.92,1.2-1.19.5-.28,1.07-.42,1.69-.42s1.19.14,1.69.42c.5.27.9.66,1.19,1.18.3.51.44,1.11.44,1.79s-.15,1.28-.46,1.8c-.3.51-.7.91-1.21,1.19-.51.28-1.08.42-1.7.42Zm0-.96c.39,0,.76-.09,1.1-.28s.62-.46.83-.83c.22-.37.32-.82.32-1.34s-.1-.98-.31-1.34-.48-.64-.82-.82c-.34-.18-.7-.28-1.09-.28s-.77.09-1.1.28c-.33.18-.59.45-.79.82-.2.37-.3.82-.3,1.34s.1.99.29,1.36c.2.37.46.64.79.83.33.18.69.26,1.08.26Z"/>
    <path class="cls-7" d="m429.59,43.49c.8,0,1.45.24,1.94.73.5.48.74,1.18.74,2.09v3.88h-1.08v-3.72c0-.66-.16-1.16-.49-1.5-.33-.35-.78-.53-1.34-.53s-1.04.18-1.38.54c-.34.36-.5.88-.5,1.57v3.64h-1.09v-6.58h1.09v.94c.22-.34.51-.6.88-.78.38-.18.79-.28,1.24-.28Z"/>
    <path class="cls-7" d="m435.4,44.51v3.88c0,.32.07.55.2.68.14.13.37.19.71.19h.8v.92h-.98c-.61,0-1.06-.14-1.37-.42-.3-.28-.46-.74-.46-1.38v-3.88h-.85v-.9h.85v-1.66h1.09v1.66h1.72v.9h-1.72Z"/>
    <path class="cls-7" d="m441.7,43.49c.5,0,.94.11,1.34.32.4.21.71.52.94.95.23.42.35.94.35,1.55v3.88h-1.08v-3.72c0-.66-.16-1.16-.49-1.5-.33-.35-.78-.53-1.34-.53s-1.04.18-1.38.54c-.34.36-.5.88-.5,1.57v3.64h-1.09v-8.88h1.09v3.24c.22-.34.51-.6.89-.78.38-.18.81-.28,1.28-.28Z"/>
    <path class="cls-7" d="m393.24,55.55c-.21,0-.38-.07-.53-.22-.14-.14-.22-.32-.22-.53s.07-.38.22-.53c.14-.14.32-.22.53-.22s.37.07.5.22c.14.14.22.32.22.53s-.07.38-.22.53c-.14.14-.3.22-.5.22Zm.53,1.07v6.58h-1.09v-6.58h1.09Z"/>
    <path class="cls-7" d="m396.96,57.51v3.88c0,.32.07.55.2.68.14.13.37.19.71.19h.8v.92h-.98c-.61,0-1.06-.14-1.37-.42-.3-.28-.46-.74-.46-1.38v-3.88h-.85v-.9h.85v-1.66h1.09v1.66h1.72v.9h-1.72Z"/>
    <path class="cls-7" d="m406,59.65c0,.21-.01.43-.04.66h-5.26c.04.65.26,1.16.66,1.52.41.36.9.54,1.48.54.47,0,.86-.11,1.18-.32.32-.22.54-.52.67-.89h1.18c-.18.63-.53,1.15-1.06,1.55-.53.39-1.18.59-1.97.59-.62,0-1.18-.14-1.68-.42-.49-.28-.87-.68-1.15-1.19-.28-.52-.42-1.12-.42-1.8s.14-1.28.41-1.79c.27-.51.65-.9,1.14-1.18.5-.28,1.06-.42,1.7-.42s1.18.14,1.66.41c.48.27.85.65,1.1,1.13.26.47.4,1.01.4,1.61Zm-1.13-.23c0-.42-.09-.77-.28-1.07-.18-.3-.44-.53-.76-.68-.31-.16-.66-.24-1.04-.24-.55,0-1.02.18-1.42.53-.38.35-.6.84-.66,1.46h4.15Z"/>
    <path class="cls-7" d="m408.53,57.68c.19-.38.46-.67.82-.88.36-.21.8-.31,1.31-.31v1.13h-.29c-1.22,0-1.84.66-1.84,1.99v3.58h-1.09v-6.58h1.09v1.07Z"/>
    <path class="cls-7" d="m411.51,59.88c0-.67.14-1.26.41-1.76.27-.51.64-.91,1.12-1.19.48-.28,1.01-.42,1.6-.42s1.08.12,1.5.37c.42.25.74.56.95.94v-1.2h1.1v6.58h-1.1v-1.22c-.22.38-.54.7-.97.96-.42.25-.92.37-1.49.37s-1.11-.14-1.58-.43c-.47-.29-.84-.69-1.12-1.21-.27-.52-.41-1.11-.41-1.78Zm5.57.01c0-.5-.1-.93-.3-1.3-.2-.37-.47-.65-.82-.84-.34-.2-.71-.3-1.12-.3s-.78.1-1.12.29-.6.47-.8.84c-.2.37-.3.8-.3,1.3s.1.94.3,1.32c.2.37.47.65.8.85.34.19.71.29,1.12.29s.78-.1,1.12-.29c.34-.2.62-.48.82-.85.2-.38.3-.81.3-1.31Z"/>
    <path class="cls-7" d="m421.36,57.51v3.88c0,.32.07.55.2.68.14.13.37.19.71.19h.8v.92h-.98c-.61,0-1.06-.14-1.37-.42-.3-.28-.46-.74-.46-1.38v-3.88h-.85v-.9h.85v-1.66h1.09v1.66h1.72v.9h-1.72Z"/>
    <path class="cls-7" d="m424.96,55.55c-.21,0-.38-.07-.53-.22-.14-.14-.22-.32-.22-.53s.07-.38.22-.53c.14-.14.32-.22.53-.22s.37.07.5.22c.14.14.22.32.22.53s-.07.38-.22.53c-.14.14-.3.22-.5.22Zm.53,1.07v6.58h-1.09v-6.58h1.09Z"/>
    <path class="cls-7" d="m430.22,63.3c-.62,0-1.18-.14-1.68-.42-.5-.28-.89-.68-1.18-1.19-.28-.52-.42-1.12-.42-1.8s.14-1.26.43-1.78c.3-.52.7-.92,1.2-1.19.5-.28,1.07-.42,1.69-.42s1.19.14,1.69.42c.5.27.9.66,1.19,1.18.3.51.44,1.11.44,1.79s-.15,1.28-.46,1.8c-.3.51-.7.91-1.21,1.19-.51.28-1.08.42-1.7.42Zm0-.96c.39,0,.76-.09,1.1-.28s.62-.46.83-.83c.22-.37.32-.82.32-1.34s-.1-.98-.31-1.34c-.21-.37-.48-.64-.82-.82-.34-.18-.7-.28-1.09-.28s-.77.09-1.1.28c-.33.18-.59.45-.79.82-.2.37-.3.82-.3,1.34s.1.99.29,1.36c.2.37.46.64.79.83.33.18.69.26,1.08.26Z"/>
    <path class="cls-7" d="m438.23,56.49c.8,0,1.45.24,1.94.73.5.48.74,1.18.74,2.09v3.88h-1.08v-3.72c0-.66-.16-1.16-.49-1.5-.33-.35-.78-.53-1.34-.53s-1.04.18-1.38.54c-.34.36-.5.88-.5,1.57v3.64h-1.09v-6.58h1.09v.94c.22-.34.51-.6.88-.78.38-.18.79-.28,1.24-.28Z"/>
    <path class="cls-55" d="m394.75,72.19h97c1.66,0,3,1.34,3,3h0c0,1.66-1.34,3-3,3h-97c-1.66,0-3-1.34-3-3h0c0-1.66,1.34-3,3-3Z"/>
    <g class="cls-85">
      <g class="cls-78">
        <polygon class="cls-56" points="452.2 72.19 449.88 78.19 445.75 78.19 445.75 72.19 452.2 72.19"/>
        <polygon class="cls-56" points="452.65 72.19 450.33 78.19 449.88 78.19 452.2 72.19 452.65 72.19"/>
        <polygon class="cls-65" points="453.11 72.19 450.79 78.19 450.33 78.19 452.65 72.19 453.11 72.19"/>
        <polygon class="cls-69" points="453.57 72.19 451.25 78.19 450.79 78.19 453.11 72.19 453.57 72.19"/>
        <polygon class="cls-67" points="454.03 72.19 451.7 78.19 451.25 78.19 453.57 72.19 454.03 72.19"/>
        <polygon class="cls-71" points="454.48 72.19 452.16 78.19 451.7 78.19 454.03 72.19 454.48 72.19"/>
        <polygon class="cls-57" points="454.94 72.19 452.62 78.19 452.16 78.19 454.48 72.19 454.94 72.19"/>
        <polygon class="cls-70" points="455.4 72.19 453.08 78.19 452.62 78.19 454.94 72.19 455.4 72.19"/>
        <polygon class="cls-73" points="455.85 72.19 453.53 78.19 453.08 78.19 455.4 72.19 455.85 72.19"/>
        <polygon class="cls-66" points="456.31 72.19 453.99 78.19 453.53 78.19 455.85 72.19 456.31 72.19"/>
        <polygon class="cls-62" points="456.77 72.19 454.45 78.19 453.99 78.19 456.31 72.19 456.77 72.19"/>
        <polygon class="cls-60" points="457.23 72.19 454.9 78.19 454.45 78.19 456.77 72.19 457.23 72.19"/>
        <polygon class="cls-63" points="457.68 72.19 455.36 78.19 454.9 78.19 457.23 72.19 457.68 72.19"/>
        <polygon class="cls-32" points="458.14 72.19 455.82 78.19 455.36 78.19 457.68 72.19 458.14 72.19"/>
        <polygon class="cls-34" points="458.6 72.19 456.28 78.19 455.82 78.19 458.14 72.19 458.6 72.19"/>
        <polygon class="cls-41" points="459.05 72.19 456.73 78.19 456.28 78.19 458.6 72.19 459.05 72.19"/>
        <polygon class="cls-19" points="459.51 72.19 457.19 78.19 456.73 78.19 459.05 72.19 459.51 72.19"/>
        <polygon class="cls-17" points="459.97 72.19 457.65 78.19 457.19 78.19 459.51 72.19 459.97 72.19"/>
        <polygon class="cls-43" points="460.43 72.19 458.1 78.19 457.65 78.19 459.97 72.19 460.43 72.19"/>
        <polygon class="cls-45" points="460.88 72.19 458.56 78.19 458.1 78.19 460.43 72.19 460.88 72.19"/>
        <polygon class="cls-27" points="461.34 72.19 459.02 78.19 458.56 78.19 460.88 72.19 461.34 72.19"/>
        <polygon class="cls-48" points="461.8 72.19 459.48 78.19 459.02 78.19 461.34 72.19 461.8 72.19"/>
        <polygon class="cls-29" points="462.25 72.19 459.93 78.19 459.48 78.19 461.8 72.19 462.25 72.19"/>
        <polygon class="cls-38" points="462.71 72.19 460.39 78.19 459.93 78.19 462.25 72.19 462.71 72.19"/>
        <polygon class="cls-37" points="463.17 72.19 460.85 78.19 460.39 78.19 462.71 72.19 463.17 72.19"/>
        <polygon class="cls-47" points="463.63 72.19 461.31 78.19 460.85 78.19 463.17 72.19 463.63 72.19"/>
        <polygon class="cls-31" points="464.08 72.19 461.76 78.19 461.31 78.19 463.63 72.19 464.08 72.19"/>
        <polygon class="cls-14" points="464.54 72.19 462.22 78.19 461.76 78.19 464.08 72.19 464.54 72.19"/>
        <polygon class="cls-12" points="465 72.19 462.68 78.19 462.22 78.19 464.54 72.19 465 72.19"/>
        <polygon class="cls-21" points="465.45 72.19 463.13 78.19 462.68 78.19 465 72.19 465.45 72.19"/>
        <polygon class="cls-9" points="465.91 72.19 463.59 78.19 463.13 78.19 465.45 72.19 465.91 72.19"/>
        <polygon class="cls-50" points="466.37 72.19 464.05 78.19 463.59 78.19 465.91 72.19 466.37 72.19"/>
        <polygon class="cls-53" points="466.83 72.19 464.51 78.19 464.05 78.19 466.37 72.19 466.83 72.19"/>
        <polygon class="cls-24" points="467.28 72.19 464.96 78.19 464.51 78.19 466.83 72.19 467.28 72.19"/>
        <polygon class="cls-24" points="464.96 78.19 467.28 72.19 471.75 72.19 471.75 78.19 464.96 78.19"/>
      </g>
    </g>
    <path class="cls-56" d="m474.75,78.19c-8.27,0-15-6.73-15-15s6.73-15,15-15,15,6.73,15,15-6.73,15-15,15Zm0-24c-4.96,0-9,4.04-9,9s4.04,9,9,9,9-4.04,9-9-4.04-9-9-9Z"/>
    <path class="cls-56" d="m492.75,78.19v-12l12,12h-12Z"/>
    <g class="cls-85">
      <g class="cls-79">
        <rect class="cls-56" x="474.75" y="48.19" width="15" height="8"/>
        <rect class="cls-56" x="474.75" y="56.19" width="15" height=".44"/>
        <rect class="cls-65" x="474.75" y="56.63" width="15" height=".44"/>
        <rect class="cls-69" x="474.75" y="57.08" width="15" height=".44"/>
        <rect class="cls-68" x="474.75" y="57.52" width="15" height=".44"/>
        <rect class="cls-72" x="474.75" y="57.97" width="15" height=".44"/>
        <rect class="cls-58" x="474.75" y="58.41" width="15" height=".44"/>
        <rect class="cls-70" x="474.75" y="58.86" width="15" height=".44"/>
        <rect class="cls-73" x="474.75" y="59.3" width="15" height=".44"/>
        <rect class="cls-66" x="474.75" y="59.75" width="15" height=".44"/>
        <rect class="cls-61" x="474.75" y="60.19" width="15" height=".44"/>
        <rect class="cls-59" x="474.75" y="60.63" width="15" height=".44"/>
        <rect class="cls-64" x="474.75" y="61.08" width="15" height=".44"/>
        <rect class="cls-33" x="474.75" y="61.52" width="15" height=".44"/>
        <rect class="cls-35" x="474.75" y="61.97" width="15" height=".44"/>
        <rect class="cls-40" x="474.75" y="62.41" width="15" height=".44"/>
        <rect class="cls-18" x="474.75" y="62.86" width="15" height=".44"/>
        <rect class="cls-16" x="474.75" y="63.3" width="15" height=".44"/>
        <rect class="cls-42" x="474.75" y="63.75" width="15" height=".44"/>
        <rect class="cls-44" x="474.75" y="64.19" width="15" height=".44"/>
        <rect class="cls-26" x="474.75" y="64.63" width="15" height=".44"/>
        <rect class="cls-49" x="474.75" y="65.08" width="15" height=".44"/>
        <rect class="cls-28" x="474.75" y="65.52" width="15" height=".44"/>
        <rect class="cls-39" x="474.75" y="65.97" width="15" height=".44"/>
        <rect class="cls-36" x="474.75" y="66.41" width="15" height=".44"/>
        <rect class="cls-46" x="474.75" y="66.86" width="15" height=".44"/>
        <rect class="cls-30" x="474.75" y="67.3" width="15" height=".44"/>
        <rect class="cls-13" x="474.75" y="67.75" width="15" height=".44"/>
        <rect class="cls-11" x="474.75" y="68.19" width="15" height=".44"/>
        <rect class="cls-20" x="474.75" y="68.63" width="15" height=".44"/>
        <rect class="cls-10" x="474.75" y="69.08" width="15" height=".44"/>
        <rect class="cls-51" x="474.75" y="69.52" width="15" height=".44"/>
        <rect class="cls-52" x="474.75" y="69.97" width="15" height=".44"/>
        <rect class="cls-25" x="474.75" y="70.41" width="15" height=".44"/>
        <rect class="cls-15" x="474.75" y="70.86" width="15" height=".44"/>
        <rect class="cls-23" x="474.75" y="71.3" width="15" height=".44"/>
        <rect class="cls-22" x="474.75" y="71.75" width="15" height=".44"/>
      </g>
    </g>
  </g>
</svg>