<svg xmlns="http://www.w3.org/2000/svg" width="68" height="30" fill="none"><g clip-path="url(#a)"><path fill="#fff" d="M58.498 13.104c-1.137.275-4.138.428-4.138.428l-.37 1.243s1.487-.133 2.575-.02c0 0 .35-.031.388.407.02.448-.029.917-.029.917s-.029.275-.388.346c-.418.072-3.235.204-3.235.204l-.457 1.61s-.165.367.214.265c.35-.102 3.303-.693 3.691-.611.408.101.874.692.738 1.222-.155.642-3.108 2.619-4.895 2.487 0 0-.942.06-1.73-1.274-.757-1.274.263-3.668.263-3.668s-.456-1.121-.116-1.529c0 0 .194-.173.777-.224l.728-1.57s-.826.052-1.311-.58c-.447-.611-.486-.876-.136-1.04.369-.203 3.788-.845 6.139-.763 0 0 .825-.102 1.554 1.396 0 0 .33.61-.253.754m-8.868 6.032c-.291.744-1.098 1.528-2.069 1.05-.99-.49-2.555-3.832-2.555-3.832s-.583-1.243-.7-1.202c0 0-.125-.245-.193 1.12-.097 1.356.02 3.995-.515 4.413-.486.407-1.069.234-1.399-.245-.272-.479-.388-1.63-.233-3.638.175-2.007.612-4.147 1.166-4.81.582-.672 1.049-.183 1.224 0 0 0 .747.714 2.01 2.823l.214.388s1.146 2.007 1.263 1.997c0 0 .097.102.175.02.116-.03.077-.683.077-.683s-.213-2.17-1.282-5.838c0 0-.155-.469-.049-.917.098-.408.515-.204.515-.204s1.613.815 2.4 3.566c.777 2.752.252 5.248-.04 5.992m-7.916-7.062c-.155.286-.223.683-.893.795 0 0-6.509.48-6.83.958 0 0-.213.285.137.357.369.081 1.845.285 2.545.326.758 0 3.302.02 4.235 1.222 0 0 .534.571.515 1.865-.02 1.325-.243 1.793-.739 2.272-.514.449-4.924 2.527-7.77-.652 0 0-1.302-1.528.456-2.69 0 0 1.263-.815 4.498.133 0 0 .97.366.932.744-.058.407-.806.815-1.894.794-1.05-.03-1.826-.56-1.67-.468.145.05-1.137-.653-1.535-.174-.39.449-.292.714.097.989.971.59 4.788.377 5.925-.958 0 0 .456-.54-.233-.978-.68-.408-2.662-.663-3.43-.693-.728-.04-3.457 0-3.865-.744 0 0-.389-.53.039-1.977.447-1.528 3.623-2.12 5.002-2.241 0 0 3.788-.163 4.498.652 0 0 .097.183-.02.458M30.99 21.031c-.457.357-1.428.204-1.71-.204-.272-.357-.369-1.763-.32-3.974.068-2.262.097-5.033.583-5.482.485-.438.777-.05.971.245.194.306.447.642.486 1.345.058.713.223 4.381.223 4.381s.214 3.343-.223 3.689m.961-11.922c-1.34.48-2.253.326-3.03-.03-.34.642-.544.835-.797.876-.388.04-.728-.611-.777-.815-.078-.153-.262-.428-.039-1.05-.757-.713-.816-1.67-.68-2.313.175-.754 1.457-3.586 5.343-3.923 0 0 1.904-.142 2.234.917h.058s1.846 0 1.807 1.733c0 1.732-2.04 3.892-4.119 4.636m1.73-4.962c-1.225.203-3.109 1.915-4.012 3.332 1.389.264 3.817.163 4.905-2.14 0 0 .515-1.447-.894-1.192Zm-5.372 1.12c-.389.663-.408 1.06-.224 1.325.457-.713 1.263-1.834 2.477-2.71-.932.102-1.719.51-2.253 1.385ZM61.412 20.96c-.894 2.302-1.651 4.636-2.089 8.13 0 0-.097.683-.631.46-.534-.204-1.409-1.122-1.603-2.416-.194-1.691.525-4.544 1.992-7.825-.428-.713-.729-1.773-.486-3.26 0 0 .388-2.752 3.011-5.238 0 0 .31-.275.486-.184.213.102.126.979-.049 1.427-.155.428-1.32 2.547-1.32 2.547s-.73 1.447-.525 2.578c1.379-2.221 4.516-6.725 6.46-5.298 1.233.917 1.233 3.872.31 5.584-.729 1.355-2.788 4.157-5.537 3.505m4.041-6.929c-.719.815-2.001 2.364-3.011 4.463 1.068-.122 2.108-.744 2.428-1.06.515-.479 1.7-1.773 1.516-3.484 0 0-.117-.897-.933.081m-43.517 8.121c-3.438 1.1-6.682.591-8.45.102-.049.754-.127 1.07-.243 1.192-.136.163-1.263.836-1.885-.122-.272-.459-.408-1.284-.485-2.038-3.983-1.895-5.828-4.687-5.887-4.79-.097-.101-1-1.09-.097-2.312.845-1.1 3.643-2.211 6.149-2.65.097-2.241.33-3.973.631-4.738.36-.917.816-.101 1.224.51.33.458.534 2.425.554 3.994 1.632-.081 2.622.041 4.439.408 2.39.428 3.982 1.712 3.856 3.159-.116 1.426-1.36 2.017-1.845 2.058-.486.04-1.263-.336-1.263-.336-.544-.265-.049-.51.583-.795.699-.357.543-.713.543-.713-.252-.816-3.35-1.356-6.43-1.356 0 1.784.068 4.738.117 6.46 2.156.428 3.769.337 3.769.337s7.868-.235 8.091-5.503c.243-5.278-7.868-10.332-13.842-11.921-5.964-1.64-9.344-.48-9.636-.326-.32.163-.029.224-.029.224s.32.05.904.255c.582.203.116.509.116.509-1.02.367-2.156.153-2.38-.336-.223-.48.146-.917.583-1.56.408-.662.874-.641.874-.641 7.383-2.7 16.397 2.14 16.397 2.14 8.431 4.463 9.869 9.71 9.713 11.748-.136 2.007-.874 5.4-6.07 7.051M5.733 14.876c-.836.408-.253 1.06-.253 1.06 1.574 1.763 3.497 2.874 5.343 3.567.213-3.057.194-4.148.194-5.686-2.856.204-4.507.693-5.284 1.06Z"/></g><defs><clipPath id="a"><path fill="#fff" d="M0 0h68v30H0z"/></clipPath></defs></svg>
