<svg xmlns="http://www.w3.org/2000/svg" width="40" height="40" fill="none"><g fill="#fff" clip-path="url(#a)"><path d="M7.04 34.948c-.279.006-.558.04-.734.1-.366.123-.743.435-.915.757-.118.218-.131.339-.149 1.316-.013.707.004 1.152.049 1.301.15.5.54.888 1.06 1.057.165.053.446.075.808.064.87-.027 1.363-.307 1.642-.934.113-.255.135-.42.156-1.174.027-1.01-.037-1.415-.277-1.771a1.79 1.79 0 0 0-.903-.648c-.177-.052-.456-.074-.736-.068Zm.078.869c.25.007.495.093.66.264l.169.175.016.94c.019 1.067-.024 1.214-.412 1.397-.422.199-.979.077-1.235-.27-.11-.15-.12-.246-.12-1.076 0-.798.013-.931.11-1.073.166-.244.492-.366.812-.357ZM19.11 39.504c-.476-.143-.777-.49-.855-.986l-.047-.293h.48c.48 0 .48 0 .554.176.128.308.498.388.779.169l.153-.12.015-1.726.015-1.725h.934l.016 1.711c.018 2.002-.012 2.192-.395 2.518-.128.11-.334.229-.459.266-.255.076-.948.082-1.19.01ZM24.145 34.946c-.483 0-.599.02-.904.16-.433.2-.582.335-.778.707-.144.274-.154.347-.175 1.288-.018.8-.003 1.062.073 1.325.151.516.617.946 1.171 1.081.335.082 1.058.058 1.38-.046.446-.143.884-.577 1.008-1 .126-.428.13-2.007.007-2.422-.122-.407-.417-.726-.859-.926-.322-.146-.437-.167-.923-.167Zm.014.874c.196.004.392.047.523.127.306.189.339.317.339 1.343 0 .855-.009.93-.127 1.08a.944.944 0 0 1-.319.24c-.434.18-.985.05-1.187-.28-.105-.17-.118-.292-.118-1.084 0-.987.038-1.124.369-1.319.128-.075.324-.11.52-.107ZM37.173 39.475c-.337-.104-.669-.34-.848-.601-.158-.232-.298-.676-.241-.767.019-.031.239-.057.488-.057.453 0 .453 0 .536.185.142.313.357.425.812.425.471 0 .644-.108.644-.406 0-.273-.15-.37-.857-.55-.813-.21-.9-.245-1.183-.5a1.267 1.267 0 0 1-.087-1.766c.675-.743 2.259-.65 2.8.164.082.123.164.319.183.435l.035.212h-.47c-.436 0-.478-.011-.578-.148-.332-.454-1.303-.346-1.303.146 0 .249.205.372.91.548.711.178.91.265 1.179.52.199.187.363.611.363.935a1.28 1.28 0 0 1-.93 1.218c-.381.112-1.103.116-1.453.007ZM.474 34.999.46 37.251l-.015 2.252h1.12c1.34 0 1.659-.065 2.066-.422.47-.412.518-.562.541-1.713.016-.807.001-1.058-.075-1.285-.135-.407-.426-.715-.86-.913-.367-.166-.372-.167-1.565-.169l-1.197-.002Zm.964.9h.62c.515 0 .652.02.807.115.313.193.353.335.353 1.257 0 .93-.045 1.057-.442 1.259-.15.076-.343.101-.77.101h-.568V35.9ZM10.69 39.373c-.096-.4-.847-4.212-.847-4.299 0-.091.057-.104.462-.104h.463l.056.276c.032.152.157.818.279 1.481.122.663.23 1.197.239 1.187.01-.01.151-.46.314-1.001l.443-1.466.146-.483.3.018.298.017.436 1.468c.24.807.444 1.46.453 1.45.01-.009.136-.652.283-1.43.146-.777.28-1.437.298-1.465.039-.063.882-.07.92-.008.015.024-.173 1.044-.418 2.266l-.446 2.223H13.314l-.373-1.191c-.204-.655-.388-1.191-.407-1.19-.019 0-.118.268-.22.595l-.373 1.19-.187.596h-.516c-.488 0-.519-.007-.548-.13ZM27.136 37.251 27.152 35l.467-.016.467-.016.905 1.44.904 1.439.016-1.438.015-1.438h.932V39.503h-.963l-.875-1.392-.876-1.392-.016 1.392-.015 1.392h-.992l.015-2.252ZM32.084 37.236v-2.268l1.503.016 1.503.015v.872l-1.007.016-1.007.016v.866l.89.016.89.016.018.421.017.422h-1.815v.988h2.044v.872h-3.036v-2.268ZM9.143 13.406V.444l7.165.018 7.166.018.612.153c2.972.74 5.152 2.63 6.219 5.391.256.664.492 1.741.535 2.448l.035.577h-4.33l-.033-.276c-.112-.918-.403-1.649-.924-2.322-.52-.674-1.304-1.22-2.173-1.516l-.467-.158-4.714-.017-4.713-.016v17.323h4.32v4.301H9.142V13.406Z"/><path d="M21.11 24.235v-2.15l.773-.039c.426-.021.94-.078 1.143-.125 1.248-.292 2.457-1.242 3.02-2.374.47-.947.453-.797.478-4.207l.021-3.037h4.32l-.022 3.299-.022 3.298-.15.61c-.425 1.715-1.162 3.028-2.382 4.242a8.677 8.677 0 0 1-3.376 2.118c-.964.332-1.599.442-2.767.48l-1.036.035v-2.15Z"/></g><defs><clipPath id="a"><path fill="#fff" d="M0 0h40v40H0z"/></clipPath></defs></svg>
