<svg xmlns="http://www.w3.org/2000/svg" width="48" height="20" fill="none"><path fill="#fff" d="M0 18.177h9.333v1.318H0v-1.318ZM0 15.648h9.333v1.323H0v-1.323ZM2.663 13.124h4.003v1.323H2.663v-1.322ZM2.663 10.6h4.003v1.324H2.663V10.6ZM2.663 8.077h4.003V9.4H2.663V8.077ZM2.663 5.548h4.003v1.323H2.663V5.548ZM9.333 3.024H0v1.323h9.333V3.024ZM9.333.5H0v1.323h9.333V.5ZM10.664 16.971h14.353c.243-.408.424-.854.533-1.323H10.664v1.323ZM23.9 10.6H13.331v1.324h11.686A5.31 5.31 0 0 0 23.9 10.6ZM13.331 8.077V9.4H23.9c.447-.371.823-.817 1.117-1.323H13.331ZM25.017 3.024H10.664v1.323H25.55a5.681 5.681 0 0 0-.533-1.323ZM20.605.5h-9.941v1.323h13.37A5.084 5.084 0 0 0 20.604.5ZM17.33 5.548H13.33v1.323h3.998V5.548ZM21.332 6.871h4.184c.12-.422.181-.868.181-1.323h-4.364v1.323ZM13.331 13.124h3.998v1.323h-3.998v-1.322ZM21.332 13.124v1.323h4.365c0-.455-.062-.9-.18-1.322h-4.184ZM10.664 19.486l9.941.014a5.088 5.088 0 0 0 3.433-1.323H10.664v1.309ZM26.667 18.177h6.666v1.318h-6.666v-1.318ZM26.667 15.648h6.666v1.323h-6.666v-1.323ZM29.33 13.124h4.003v1.323H29.33v-1.322ZM29.33 10.6h4.003v1.324H29.33V10.6ZM35.187 3.024h-8.52v1.323h8.981l-.461-1.323ZM34.303.5h-7.636v1.323h8.097L34.303.5ZM41.33 18.177H48v1.318h-6.67v-1.318ZM41.33 15.648H48v1.323h-6.67v-1.323ZM41.33 13.124h4.003v1.323H41.33v-1.322ZM41.33 10.6h4.003v1.324H41.33V10.6ZM41.33 9.4h4.003V8.077h-7.626l-.376 1.07-.375-1.07H29.33V9.4h4.003V8.184l.423 1.216h7.15l.424-1.216V9.4ZM45.333 5.548H38.59l-.461 1.323h7.203V5.548ZM40.364.5l-.46 1.323H48V.5h-7.636ZM37.331 19.486l.461-1.309h-.922l.461 1.309ZM36.447 16.971h1.769l.475-1.323h-2.715l.471 1.323ZM35.548 14.447h3.566l.47-1.322h-4.507l.471 1.322ZM34.655 11.924h5.358l.456-1.323h-6.276l.462 1.323ZM29.33 6.871h7.203l-.462-1.323H29.33v1.323ZM39.019 4.347h8.98V3.024h-8.524l-.456 1.323Z"/></svg>
