<svg xmlns="http://www.w3.org/2000/svg" width="94" height="28" fill="none"><g fill="#fff" clip-path="url(#a)"><path d="M58.405 19.77a.193.193 0 0 0-.222-.12l-.03.008c-.274.059-.487.042-.635-.057-.212-.14-.314-.458-.314-.97v-4.627c0-1.807-1.092-2.724-3.248-2.724-1.93 0-3.443.901-3.443 2.052 0 .591.366 1.02.906 1.083.352.043.689-.115.933-.37.474-.493.413-1.081-.162-1.711.34-.352.943-.56 1.63-.56 1.12 0 1.598.656 1.598 2.192v1.17c-.262.08-.508.155-.958.26-.907.21-2.151.49-3.09 1-.775.42-1.168 1.081-1.168 1.967 0 .964.642 2.09 2.45 2.09 1.013 0 1.92-.474 2.85-1.49.082 1.056.487 1.452 1.471 1.452.474 0 .852-.11 1.303-.324a.253.253 0 0 0 .129-.322Zm-2.987-1.415c-.22.302-.937 1.2-1.832 1.2-1.209 0-1.462-.836-1.462-1.538 0-1.155.896-1.689 3.294-2.273v2.611Zm23.172 2.137c-2.562 0-4.493-1.98-4.493-4.606 0-2.57 2.015-4.663 4.493-4.663 2.509 0 4.475 2.014 4.475 4.587 0 2.892-2.322 4.682-4.475 4.682Zm-.097-8.775c-1.106 0-2.378.47-2.378 4.13 0 2.794.835 4.15 2.553 4.15 1.644 0 2.378-1.278 2.378-4.15 0-2.779-.836-4.13-2.553-4.13Zm-39.506-.329c0 2.13-.532 3.303-3.254 3.303h-1.442V8.256h1.501c2.816 0 3.195 1.584 3.195 3.132Zm-4.696 7.243v-3.348h1.307c1.95 0 3.432-.406 4.408-1.209 1.02-.84 1.234-1.903 1.234-2.647 0-3.06-2.994-3.703-5.507-3.703l.01-.001H30.65a.209.209 0 0 0-.21.206v.014-.004c0 .105.065.199.166.234.453.166 1.686-.066 1.686 1.238v9.219c0 .67-.301 1.144-1.679 1.272a.207.207 0 0 0-.192.205v.032c0 .114.093.205.209.205h5.443c.115 0 .21-.091.21-.205v-.029a.21.21 0 0 0-.196-.205c-1.497-.118-1.797-.575-1.797-1.275v-3.34l.002 3.341ZM45.36 11.22c-2.37 0-4.298 2.116-4.298 4.717 0 2.633 1.808 4.544 4.298 4.544 2.092 0 3.11-1.233 3.693-2.16a.205.205 0 0 0-.056-.276l-.029-.02a.212.212 0 0 0-.285.042c-.77.952-1.443 1.502-2.605 1.502-1.47 0-3.042-.999-3.042-3.805v-.02c-.003-.124 0-.294.005-.452h6.017a.03.03 0 0 0 .03-.03l.004-.047c.086-1.15-.244-2.184-.929-2.91-.669-.71-1.638-1.085-2.803-1.085Zm-2.286 3.48c.198-1.919.957-2.971 2.15-2.971.596 0 1.039.163 1.351.499.43.46.612 1.292.54 2.473h-4.04Zm27.226.104h-.002c-1.646-.457-2.287-.917-2.287-1.645 0-.828.667-1.43 1.586-1.43 1.081 0 1.544.51 2.686 2.392l.015.025c.005.01.016.015.016.015h.167c.115 0 .21-.092.21-.206v-2.705c0-.017-.015-.03-.015-.03h-.224a.208.208 0 0 0-.16.075l-.365.437c-.46-.25-1.209-.512-1.96-.512-1.89 0-3.21 1.151-3.21 2.8 0 1.55 1.04 2.13 2.838 2.609 1.746.471 2.365.962 2.365 1.873 0 1.014-.995 1.47-1.702 1.47-1.315 0-1.87-.483-3.131-2.716l-.015-.026c-.005-.01-.016-.017-.016-.017h-.17a.209.209 0 0 0-.208.206v3.031c0 .017.014.031.031.031h.214a.212.212 0 0 0 .148-.06l.576-.568c.674.413 1.683.628 2.337.628.983 0 1.792-.307 2.338-.888.487-.518.755-1.252.755-2.067 0-1.411-.764-2.149-2.817-2.722Zm-9.958 4.454c0 .467-.12.62-.874.667a.208.208 0 0 0-.195.206c0 .114.094.205.209.205h3.723c.114 0 .206-.09.206-.202a.206.206 0 0 0-.198-.205c-.861-.041-1.085-.18-1.085-.67V13.87c.613-1.005 1.053-1.532 1.797-1.69a1.57 1.57 0 0 0-.06.402c0 .654.464 1.111 1.127 1.111.651 0 1.107-.457 1.107-1.111 0-.618-.392-1.341-1.496-1.341-.905 0-1.77.512-2.514 1.736v-1.385a.253.253 0 0 0-.261-.251l-2.346.062a.206.206 0 0 0-.203.206v.029c0 .102.075.189.174.203.782.109.89.476.89.857v6.558Zm25.754-7.92c.053 0 .106.02.144.058a.2.2 0 0 1 .065.147l.007 1.536s.765-1.802 3.245-1.802h.022c1.546 0 2.432.972 2.432 2.668v5.305c0 .467.121.62.875.667.11.006.195.096.195.206a.208.208 0 0 1-.208.205h-3.346a.208.208 0 0 1-.019-.416c.609-.051.705-.202.705-.662V14.46c0-1.582-.456-2.196-1.625-2.196-.79 0-1.437.68-1.84 1.25 0 0-.207.255-.43.736l.024 4.997c0 .46.095.611.686.662a.209.209 0 0 1-.02.417h-3.324a.208.208 0 0 1-.209-.207c0-.108.087-.198.196-.205.753-.047.873-.2.873-.666v-6.55c0-.381-.108-.75-.894-.86a.206.206 0 0 1-.175-.204v-.03c0-.113.09-.203.204-.207l2.416-.062Z"/><path fill-rule="evenodd" d="M23.904 20.272c4.103-7.518 2.73-14.948-3.166-18.263C14.223-1.653 5.73.34 2.068 8.184-.451 13.586.693 22.974 6.56 26.34c5.867 3.363 13.74.541 17.345-6.067Zm-1.99-7.989c.2-1.513-.159-3.357-1.313-4.573l-.017-.016c-2.217-2.471-5.296-2.626-7.245-2.579-2.156.054-3.703.756-4.97 1.408-1.104.568-2.1 1.545-2.505 2.03-.258.31-.696.948-.46 1.52.193.476.92.445 1.193.242.144-.107.292-.244.456-.394.146-.134.304-.279.48-.424 1.664-1.358 3.14-2.213 6.577-2.213s5.299 2.114 5.299 4.002c0 1.887-.904 3.169-2.613 4.006-.846.413-1.75.734-2.888.777.083-1.83.125-3.561.125-3.561.004-.217.014-.427.023-.628.046-1.018.08-1.79-.666-1.938-.892-.177-2.536-.002-2.567 1.002-.04-.15.17 8.233.208 8.399l.015.192c.017.213.094.4.229.55.134.148.353.24.55.261.03.003.06.006.091.006.187 0 .45-.033.716-.107.334-.094.671-.255.866-.505a.99.99 0 0 0 .22-.476c.03-.155.087-1.128.101-1.41 1.808-.017 3.645-.351 5.043-1.192 1.762-1.057 2.823-2.654 3.053-4.379Zm-9.351 9.034c.203.04.404.134.584.272.325.25.52.64.524 1.038.003.344-.143.652-.412.87-.231.183-.529.282-.86.282-.152 0-.304-.022-.452-.063-.257-.072-.463-.192-.598-.348a1.08 1.08 0 0 1-.237-.54c-.054-.337.03-.684.235-.974.246-.35.622-.558 1.005-.558.07 0 .142.007.21.021Z" clip-rule="evenodd"/></g><defs><clipPath id="a"><path fill="#fff" d="M.57 0h92.748v28H.57z"/></clipPath></defs></svg>
