<svg xmlns="http://www.w3.org/2000/svg" width="82" height="28" fill="none"><g clip-path="url(#a)"><path fill="#fff" fill-rule="evenodd" d="M25.125 21.03c2.676-1.153 5.307-2.286 6.164-2.733v-.018c.848-.44 1.265-.787 1.275-1.098h.002v3.258c0 .34-.389.67-1.276 1.145v.002c-.841.441-3.39 1.541-6.015 2.674-2.79 1.204-5.665 2.445-6.664 2.97-1.94 1.02-2.978.991-4.495.264-.733-.352-3.342-1.443-6.038-2.57-2.883-1.207-5.865-2.454-6.759-2.883-.872-.41-1.317-.76-1.317-1.089v-3.271c.037.321.477.662 1.317 1.062.885.421 3.818 1.647 6.674 2.84 2.726 1.14 5.382 2.25 6.123 2.604 1.516.725 2.555.734 4.495-.268.981-.506 3.771-1.708 6.514-2.889Z" clip-rule="evenodd"/><path fill="#fff" fill-rule="evenodd" d="M25.068 15.66c2.697-1.161 5.358-2.308 6.221-2.76v-.007c.84-.434 1.256-.782 1.275-1.094h.002v3.258c0 .34-.389.678-1.276 1.147-.86.45-3.507 1.59-6.194 2.746-2.732 1.177-5.507 2.371-6.485 2.877-1.94 1.001-2.97.992-4.486.263-.742-.357-3.403-1.464-6.133-2.6-2.857-1.188-5.788-2.408-6.673-2.83-.872-.416-1.317-.764-1.317-1.094v-3.284c.029.323.469.666 1.317 1.073.894.429 3.876 1.672 6.759 2.874 2.696 1.124 5.305 2.211 6.038 2.563 1.517.727 2.555.734 4.495-.268.975-.503 3.733-1.691 6.457-2.864Z" clip-rule="evenodd"/><path fill="#fff" fill-rule="evenodd" d="M31.29 7.32c-.85.437-3.445 1.557-6.1 2.703-2.762 1.193-5.59 2.413-6.58 2.92-1.939.992-2.978.99-4.494.267-.732-.349-3.334-1.434-6.025-2.558C5.204 9.448 2.215 8.2 1.319 7.774.479 7.373.039 7.03.002 6.71v3.274c0 .33.445.68 1.317 1.09.895.429 3.883 1.674 6.77 2.877 2.696 1.124 5.303 2.21 6.036 2.561 1.517.725 2.546.732 4.486-.268.971-.5 3.715-1.682 6.43-2.851 2.705-1.166 5.383-2.319 6.249-2.773.887-.467 1.276-.801 1.272-1.145V6.242c-.034.305-.45.645-1.273 1.071v.007Z" clip-rule="evenodd"/><path stroke="#fff" stroke-width=".3" d="m31.22 7.18-.08.042v.006c-.92.46-3.431 1.545-6.009 2.657l-.01.005c-2.757 1.19-5.585 2.41-6.579 2.919-.961.492-1.684.73-2.345.76-.657.032-1.27-.139-2.017-.494-.735-.35-3.336-1.436-6.02-2.556l-.011-.005c-2.89-1.206-5.874-2.451-6.765-2.876-.43-.205-.743-.39-.95-.558-.21-.173-.28-.306-.284-.405-.003-.092.05-.211.245-.36.191-.147.492-.302.912-.466l.967-.38.004-.001C5.266 4.295 12.78 1.345 14.54.71c1.005-.363 1.663-.543 2.277-.56.61-.017 1.19.126 2.04.439.86.317 3.568 1.383 6.26 2.444l.004.001c2.639 1.04 5.26 2.073 6.097 2.38.417.155.724.298.924.437.206.141.269.255.272.342.003.09-.053.218-.255.395-.198.173-.507.368-.939.592Z"/><path fill="#fff" d="m23.887 4.556 4.464 1.77-4.46 1.768-.004-3.538ZM18.945 1.92l-2.15.708-2.275-.897.732 1.352-2.433.88 3.258.294 1.02 1.702.633-1.526 2.818-.295-2.186-.82.583-1.397ZM16.932 11.537l-5.268-2.193L19.21 8.18l-2.277 3.356ZM13.662 6.548c0-.859-1.809-1.562-4.033-1.562-2.226 0-4.035.703-4.035 1.562 0 .859 1.815 1.562 4.035 1.562s4.033-.703 4.033-1.562Z"/><path fill="#EDEFF7" d="m23.887 4.556.005 3.538-.485.19-4.462-1.77 4.942-1.958Z" opacity=".5"/><path fill="#fff" d="M42.931 9.239a3.86 3.86 0 0 1 1.386-.968 4.437 4.437 0 0 1 1.624-.36 1.488 1.488 0 0 1 1.112.36 1.115 1.115 0 0 1 .338.845c.002.316-.12.62-.338.846a1.09 1.09 0 0 1-.843.364c-1.388.122-3.315 1.51-3.315 3.395v4.28a1.245 1.245 0 0 1-1.205 1.207 1.091 1.091 0 0 1-.86-.373 1.197 1.197 0 0 1-.361-.846V9.065a1.195 1.195 0 0 1 .36-.846c.264-.19.58-.297.905-.303a1.226 1.226 0 0 1 1.204 1.205l-.007.118ZM57.548 13.166c.001.291-.106.573-.3.79-.231.214-.53.342-.844.36h-7.117c.067.568.342 1.09.771 1.464.55.594 1.303.958 2.109 1.02a3.12 3.12 0 0 0 2.349-.544 1.228 1.228 0 0 1 .905-.364 1.033 1.033 0 0 1 .78.303.984.984 0 0 1 .059 1.393c-.018.02-.038.038-.058.058a5.443 5.443 0 0 1-3.913 1.45 5.102 5.102 0 0 1-3.908-1.691 5.96 5.96 0 0 1-1.623-3.994 5.438 5.438 0 0 1 1.623-3.99 5.025 5.025 0 0 1 3.795-1.63 4.88 4.88 0 0 1 3.723 1.512 5.536 5.536 0 0 1 1.693 3.735v.119l-.044.009Zm-5.36-3.202a3.153 3.153 0 0 0-2.032.787 2.94 2.94 0 0 0-.963 1.562h6.324a2.765 2.765 0 0 0-1.086-1.508 3.841 3.841 0 0 0-2.224-.85M68.88 17.878a1.245 1.245 0 0 1-1.203 1.21 1.298 1.298 0 0 1-1.206-.97 5.156 5.156 0 0 1-3.076.97 5.23 5.23 0 0 1-3.855-1.632 5.387 5.387 0 0 1-1.568-3.99 5.754 5.754 0 0 1 1.569-3.986 5.305 5.305 0 0 1 3.854-1.698 4.959 4.959 0 0 1 3.01.968V4.527a1.1 1.1 0 0 1 .362-.846 1.195 1.195 0 0 1 .854-.363 1.091 1.091 0 0 1 .843.363 1.196 1.196 0 0 1 .363.846v13.35h.053Zm-5.416-1.21a2.663 2.663 0 0 0 2.107-.963 3.218 3.218 0 0 0 0-4.463 2.893 2.893 0 0 0-2.107-.977 2.585 2.585 0 0 0-2.108.968 3.218 3.218 0 0 0 0 4.463 2.78 2.78 0 0 0 2.108.964M72.441 4.527v.486a1.231 1.231 0 0 1-.371.92 1.031 1.031 0 0 1-.843.3 1.078 1.078 0 0 1-.84-.359 1.215 1.215 0 0 1-.363-.906v-.446a1.18 1.18 0 0 1 .362-.845 1.186 1.186 0 0 1 .84-.364 1.11 1.11 0 0 1 .844.368 1.094 1.094 0 0 1 .37.846m-2.032 3.688a1.175 1.175 0 0 1 .843-.364 1.076 1.076 0 0 1 .843.364 1.223 1.223 0 0 1 .345.892v8.838a1.018 1.018 0 0 1-.37.845 1.185 1.185 0 0 1-1.301.275 1.09 1.09 0 0 1-.382-.275 1.18 1.18 0 0 1-.362-.845V9.116a1.205 1.205 0 0 1 .362-.892M80.985 9.06c.247.17.42.43.483.723.048.307.007.622-.12.906a1.2 1.2 0 0 1-.723.482 1.245 1.245 0 0 1-.906-.18c-.843-.543-1.501-.844-2.046-.844a1.94 1.94 0 0 0-1.335.42c-.24.182-.36.303-.36.423a.448.448 0 0 0 .06.304c.069.074.15.135.24.18.492.31 1.05.496 1.628.543a8.377 8.377 0 0 1 2.167.669 3.021 3.021 0 0 1 1.446 1.271 3.008 3.008 0 0 1-.903 4.166 4.837 4.837 0 0 1-2.892.906c-1.386 0-2.71-.542-3.975-1.562a1.288 1.288 0 0 1-.422-.787 1.164 1.164 0 0 1 .6-1.127 1.153 1.153 0 0 1 1.268.11 3.493 3.493 0 0 0 2.47.965c.533.018 1.059-.13 1.505-.424.24-.24.423-.421.423-.604s0-.241-.06-.302c0-.062-.123-.18-.303-.24a4.474 4.474 0 0 0-1.808-.639 6.273 6.273 0 0 1-2.047-.669 3.685 3.685 0 0 1-1.445-1.265 2.82 2.82 0 0 1-.359-1.39 2.974 2.974 0 0 1 1.324-2.479 4.843 4.843 0 0 1 2.77-.845c1.013.062 2.108.482 3.311 1.27"/></g><defs><clipPath id="a"><path fill="#fff" d="M0 0h82v28H0z"/></clipPath></defs></svg>
