<svg xmlns="http://www.w3.org/2000/svg" width="82" height="18" fill="none"><g clip-path="url(#a)"><path fill="#EDEFF7" d="m79.787 0-4.418 9.468-1.662-3.587h-1.796l2.732 5.868h1.452L81.57 0h-1.784Z"/><path fill="#fff" d="M60.835 17.581h3.556v-6.522c0-1.492.862-2.54 2.141-2.54 1.231 0 1.871.863 1.871 2.109v6.953h3.557V9.949c0-2.589-1.551-4.413-4.061-4.413-1.6 0-2.72.69-3.557 1.948h-.074V5.88h-3.446l.013 11.7Zm-6.99-12.02c-3.717 0-6.203 2.675-6.203 6.2 0 3.502 2.486 6.202 6.203 6.202 3.716 0 6.202-2.7 6.202-6.201.012-3.526-2.486-6.202-6.202-6.202Zm-.025 9.764c-1.686 0-2.584-1.418-2.584-3.563 0-2.17.886-3.563 2.584-3.563 1.686 0 2.621 1.393 2.621 3.563.013 2.145-.923 3.563-2.62 3.563ZM37.502 17.58h9.993V14.77h-5.661v-.074l5.414-6.078v-2.75h-9.746v2.824h5.476v.074l-5.476 6.127v2.688Zm-4.566 0h3.581v-11.7h-3.58v11.7Zm-8.306 0h3.568v-5.375c0-2.441 1.465-3.526 3.692-3.218h.074V5.906c-.184-.074-.394-.087-.726-.087-1.39 0-2.326.641-3.126 2.01h-.074V5.88H24.63v11.7Zm-6.547-2.244c-1.576 0-2.535-1.023-2.72-2.601h8.417c.025-2.515-.64-4.525-2.03-5.782-.985-.913-2.277-1.418-3.926-1.418-3.52 0-5.956 2.675-5.956 6.177 0 3.526 2.326 6.213 6.19 6.213 1.465 0 2.621-.394 3.581-1.048 1.022-.703 1.76-1.738 1.957-2.761h-3.421c-.333.764-1.046 1.22-2.092 1.22Zm-.185-7.25c1.255 0 2.117.938 2.264 2.306h-4.774c.283-1.38 1.033-2.305 2.51-2.305ZM4.755 17.582h3.741l4.061-11.7H8.976l-2.277 7.52H6.65l-2.277-7.52H.693l4.062 11.7ZM32.936 1.714h3.581v3.18h-3.58v-3.18Z"/></g><defs><clipPath id="a"><path fill="#fff" d="M.57 0h81v18h-81z"/></clipPath></defs></svg>
