<svg width="36" height="36" viewBox="0 0 36 36" fill="none" xmlns="http://www.w3.org/2000/svg">
    <path fill-rule="evenodd" clip-rule="evenodd" d="M20 10C20 11.1046 19.1046 12 18 12C16.8954 12 16 11.1046 16 10C16 8.89543 16.8954 8 18 8C19.1046 8 20 8.89543 20 10ZM22 10C22 12.2091 20.2091 14 18 14C15.7909 14 14 12.2091 14 10C14 7.79086 15.7909 6 18 6C20.2091 6 22 7.79086 22 10ZM11 24C13.2091 24 15 25.7909 15 28H7C7 25.7909 8.79086 24 11 24ZM5 28C5 24.6863 7.68629 22 11 22C14.3137 22 17 24.6863 17 28C17 29.1046 16.1046 30 15 30H7C5.89543 30 5 29.1046 5 28ZM29 28C29 25.7909 27.2091 24 25 24C22.7909 24 21 25.7909 21 28H29ZM25 22C21.6863 22 19 24.6863 19 28C19 29.1046 19.8954 30 21 30H29C30.1046 30 31 29.1046 31 28C31 24.6863 28.3137 22 25 22ZM13 18C13 19.1046 12.1046 20 11 20C9.89543 20 9 19.1046 9 18C9 16.8954 9.89543 16 11 16C12.1046 16 13 16.8954 13 18ZM15 18C15 20.2091 13.2091 22 11 22C8.79086 22 7 20.2091 7 18C7 15.7909 8.79086 14 11 14C13.2091 14 15 15.7909 15 18ZM14.085 15.4534C14.5372 16.0005 14.8466 16.6701 14.9563 17.4049C15.6899 16.5451 16.7814 16 18.0002 16C19.2189 16 20.3103 16.545 21.044 17.4046C21.015 17.5989 21 17.7977 21 18C21 20.2091 22.7909 22 25 22C27.2091 22 29 20.2091 29 18C29 15.7909 27.2091 14 25 14C23.7585 14 22.649 14.5656 21.9154 15.4533C20.8645 14.5476 19.4961 14 18 14C16.5038 14 15.1358 14.5476 14.085 15.4534ZM25 20C26.1046 20 27 19.1046 27 18C27 16.8954 26.1046 16 25 16C23.8954 16 23 16.8954 23 18C23 19.1046 23.8954 20 25 20Z" fill="#BB66E1"/>
</svg>

