<svg xmlns="http://www.w3.org/2000/svg" width="36" height="36" fill="none"><path fill="url(#a)" fill-rule="evenodd" d="M20 8.688c0-.496.33-.688.5-.688.17 0 .5.192.5.688v5.624c0 .496-.33.688-.5.688-.17 0-.5-.192-.5-.688V8.689ZM20.5 6C19.01 6 18 7.315 18 8.688v5.624C18 15.685 19.01 17 20.5 17s2.5-1.315 2.5-2.688V8.689C23 7.314 21.99 6 20.5 6Zm5.5 8c0-.554.446-1 1-1s1 .446 1 1-.446 1-1 1h-1v-1Zm1-3c-1.659 0-3 1.341-3 3v2a1 1 0 0 0 1 1h2c1.659 0 3-1.341 3-3s-1.341-3-3-3ZM15.5 21c-.17 0-.5.192-.5.688v5.625c0 .495.33.687.5.687.17 0 .5-.192.5-.688v-5.625c0-.495-.33-.687-.5-.687Zm-2.5.688C13 20.314 14.01 19 15.5 19s2.5 1.315 2.5 2.688v5.625C18 28.684 16.99 30 15.5 30S13 28.685 13 27.312v-5.625ZM8 22c0-.554.446-1 1-1h1v1c0 .554-.446 1-1 1s-1-.446-1-1Zm1-3c-1.659 0-3 1.341-3 3s1.341 3 3 3 3-1.341 3-3v-2a1 1 0 0 0-1-1H9Zm12.688 1c-.496 0-.688.33-.688.5 0 .17.192.5.688.5h5.625c.495 0 .687-.33.687-.5 0-.17-.192-.5-.688-.5h-5.625ZM19 20.5c0-1.49 1.315-2.5 2.688-2.5h5.625C28.684 18 30 19.01 30 20.5S28.685 23 27.312 23h-5.625C20.316 23 19 21.99 19 20.5Zm1 3.5a1 1 0 0 0-1 1v2c0 1.659 1.341 3 3 3s3-1.341 3-3-1.341-3-3-3h-2Zm1 3v-1h1c.554 0 1 .446 1 1s-.446 1-1 1-1-.446-1-1ZM6 15.5C6 14.01 7.315 13 8.688 13h5.624C15.685 13 17 14.01 17 15.5S15.685 18 14.312 18H8.689C7.314 18 6 16.99 6 15.5Zm2.688-.5c-.496 0-.688.33-.688.5 0 .17.192.5.688.5h5.624c.496 0 .688-.33.688-.5 0-.17-.192-.5-.688-.5H8.689ZM14 6c-1.659 0-3 1.341-3 3s1.341 3 3 3h2a1 1 0 0 0 1-1V9c0-1.659-1.341-3-3-3Zm-1 3c0-.554.446-1 1-1s1 .446 1 1v1h-1c-.554 0-1-.446-1-1Z" clip-rule="evenodd"/><defs><linearGradient id="a" x1="18" x2="18" y1="6" y2="30" gradientUnits="userSpaceOnUse"><stop stop-color="#C3C8D5"/><stop offset="1" stop-color="#8791AB"/></linearGradient></defs></svg>
