<svg xmlns="http://www.w3.org/2000/svg" width="36" height="36" fill="none"><path fill="#32C8FC" fill-rule="evenodd" d="M14 8c-.554 0-1 .446-1 1s.446 1 1 1h1V9c0-.554-.446-1-1-1Zm-3 1c0-1.659 1.341-3 3-3s3 1.341 3 3v2a1 1 0 0 1-1 1h-2c-1.659 0-3-1.341-3-3Z" clip-rule="evenodd"/><path fill="#00B884" fill-rule="evenodd" d="M28 14c0-.554-.446-1-1-1s-1 .446-1 1v1h1c.554 0 1-.446 1-1Zm-1-3c1.659 0 3 1.341 3 3s-1.341 3-3 3h-2a1 1 0 0 1-1-1v-2c0-1.659 1.341-3 3-3Z" clip-rule="evenodd"/><path fill="#FFC800" fill-rule="evenodd" d="M22 28c.554 0 1-.446 1-1s-.446-1-1-1h-1v1c0 .554.446 1 1 1Zm3-1c0 1.659-1.341 3-3 3s-3-1.341-3-3v-2a1 1 0 0 1 1-1h2c1.659 0 3 1.341 3 3Z" clip-rule="evenodd"/><path fill="#FF7272" fill-rule="evenodd" d="M8 22c0 .554.446 1 1 1s1-.446 1-1v-1H9c-.554 0-1 .446-1 1Zm1 3c-1.659 0-3-1.341-3-3s1.341-3 3-3h2a1 1 0 0 1 1 1v2c0 1.659-1.341 3-3 3Z" clip-rule="evenodd"/><path fill="#00B884" fill-rule="evenodd" d="M20.195 8.148a.843.843 0 0 0-.195.54v5.624c0 .21.082.41.195.54.096.11.19.148.305.148a.377.377 0 0 0 .305-.148.843.843 0 0 0 .195-.54V8.689c0-.21-.082-.41-.195-.54A.377.377 0 0 0 20.5 8a.377.377 0 0 0-.305.148ZM18 8.688C18 7.314 19.01 6 20.5 6S23 7.315 23 8.688v5.624C23 15.685 21.99 17 20.5 17S18 15.685 18 14.312V8.689Z" clip-rule="evenodd"/><path fill="#FF7272" fill-rule="evenodd" d="M15.195 21.148a.843.843 0 0 0-.195.54v5.625c0 .209.082.41.195.54.096.108.19.147.305.147a.377.377 0 0 0 .305-.148.843.843 0 0 0 .195-.54v-5.625c0-.209-.082-.41-.195-.54A.377.377 0 0 0 15.5 21a.377.377 0 0 0-.305.148Zm-2.195.54C13 20.314 14.01 19 15.5 19s2.5 1.315 2.5 2.688v5.625C18 28.684 16.99 30 15.5 30S13 28.685 13 27.312v-5.625Z" clip-rule="evenodd"/><path fill="#FFC800" fill-rule="evenodd" d="M27.852 20.195a.843.843 0 0 0-.54-.195h-5.625c-.209 0-.41.082-.54.195A.377.377 0 0 0 21 20.5c0 .115.038.209.148.305.13.113.33.195.54.195h5.625c.209 0 .41-.082.54-.195A.377.377 0 0 0 28 20.5a.377.377 0 0 0-.148-.305ZM27.312 18C28.686 18 30 19.01 30 20.5S28.685 23 27.312 23h-5.625C20.316 23 19 21.99 19 20.5s1.315-2.5 2.688-2.5h5.625Z" clip-rule="evenodd"/><path fill="#32C8FC" fill-rule="evenodd" d="M14.852 15.195a.843.843 0 0 0-.54-.195H8.689c-.21 0-.41.082-.54.195A.377.377 0 0 0 8 15.5c0 .115.039.209.148.305.13.113.33.195.54.195h5.624c.21 0 .41-.082.54-.195A.377.377 0 0 0 15 15.5a.377.377 0 0 0-.148-.305ZM14.312 13C15.685 13 17 14.01 17 15.5S15.685 18 14.312 18H8.689C7.314 18 6 16.99 6 15.5S7.315 13 8.688 13h5.624Z" clip-rule="evenodd"/></svg>
