<svg width="96" height="96" viewBox="0 0 96 96" fill="none" xmlns="http://www.w3.org/2000/svg">
<path fill-rule="evenodd" clip-rule="evenodd" d="M48.7341 20.3247C33.4667 20.3247 21.095 32.5251 21.095 47.5689C21.095 62.6127 33.4667 74.8131 48.7341 74.8131C60.1851 74.8131 70.0122 67.9489 74.2065 58.1623C74.6209 57.1956 75.7505 56.7435 76.7297 57.1526C77.7089 57.5617 78.1668 58.677 77.7524 59.6438C72.9756 70.7894 61.783 78.6146 48.7341 78.6146C31.3458 78.6146 17.2447 64.7177 17.2447 47.5689C17.2447 30.4201 31.3458 16.5232 48.7341 16.5232C63.7204 16.5232 76.2603 26.8436 79.443 40.671C79.6786 41.6947 79.0292 42.7131 77.9924 42.9458C76.9556 43.1784 75.9241 42.5371 75.6885 41.5135C72.8963 29.3827 61.8875 20.3247 48.7341 20.3247Z" fill="url(#paint0_linear_9786_39544)"/>
<path fill-rule="evenodd" clip-rule="evenodd" d="M38.9065 81.0065C57.6533 85.966 76.9212 74.9847 81.9431 56.4799C86.9651 37.9751 75.8397 18.9531 57.093 13.9935C43.0312 10.2734 28.6718 15.5216 20.254 26.1946C19.6007 27.0229 18.3911 27.1714 17.5522 26.5265C16.7133 25.8815 16.5629 24.6872 17.2161 23.8589C26.5512 12.0229 42.4813 6.19232 58.0895 10.3215C78.8895 15.8243 91.2347 36.9304 85.6622 57.4638C80.0897 77.9972 58.7101 90.1812 37.91 84.6785C19.9841 79.9361 8.34145 63.6074 9.02888 46.0433C9.06993 44.9944 9.96449 44.1769 11.0269 44.2174C12.0894 44.2579 12.9173 45.1412 12.8763 46.1901C12.2568 62.0185 22.7547 76.7334 38.9065 81.0065Z" fill="url(#paint1_linear_9786_39544)"/>
<path d="M51.9098 42.9111H49.3033V33.8926H50.6065C51.9891 33.8926 53.3151 34.3676 54.2927 35.2133C55.2703 36.0589 55.8195 37.2059 55.8195 38.4018C55.8195 38.7008 55.9569 38.9875 56.2013 39.199C56.4457 39.4104 56.7772 39.5291 57.1228 39.5291C57.4685 39.5291 57.7999 39.4104 58.0443 39.199C58.2888 38.9875 58.4261 38.7008 58.4261 38.4018C58.4239 36.6085 57.5994 34.8892 56.1334 33.6211C54.6674 32.353 52.6797 31.6398 50.6065 31.6379H49.3033V29.3833C49.3033 29.0843 49.166 28.7976 48.9215 28.5862C48.6771 28.3748 48.3456 28.256 48 28.256C47.6544 28.256 47.3229 28.3748 47.0785 28.5862C46.834 28.7976 46.6967 29.0843 46.6967 29.3833V31.6379H45.3935C43.3196 31.6379 41.3307 32.3505 39.8642 33.619C38.3978 34.8875 37.5739 36.6079 37.5739 38.4018C37.5739 40.1957 38.3978 41.9161 39.8642 43.1846C41.3307 44.4531 43.3196 45.1657 45.3935 45.1657H46.6967V54.1842H44.0902C42.7076 54.1842 41.3817 53.7092 40.4041 52.8635C39.4264 52.0179 38.8772 50.8709 38.8772 49.675C38.8772 49.376 38.7399 49.0892 38.4955 48.8778C38.2511 48.6664 37.9196 48.5477 37.5739 48.5477C37.2283 48.5477 36.8968 48.6664 36.6524 48.8778C36.408 49.0892 36.2707 49.376 36.2707 49.675C36.2728 51.4683 37.0974 53.1876 38.5634 54.4557C40.0293 55.7238 42.017 56.437 44.0902 56.4389H46.6967V63.1344L48 64.2617L49.3033 63.1344V56.4389H51.9098C53.9837 56.4389 55.9726 55.7262 57.439 54.4578C58.9055 53.1893 59.7293 51.4689 59.7293 49.675C59.7293 47.8811 58.9055 46.1607 57.439 44.8922C55.9726 43.6237 53.9837 42.9111 51.9098 42.9111ZM45.3935 42.9111C44.0109 42.9111 42.6849 42.436 41.7073 41.5903C40.7297 40.7447 40.1805 39.5977 40.1805 38.4018C40.1805 37.2059 40.7297 36.0589 41.7073 35.2133C42.6849 34.3676 44.0109 33.8926 45.3935 33.8926H46.6967V42.9111H45.3935ZM51.9098 54.1842H49.3033V45.1657H51.9098C53.2924 45.1657 54.6183 45.6408 55.5959 46.4864C56.5736 47.3321 57.1228 48.479 57.1228 49.675C57.1228 50.8709 56.5736 52.0179 55.5959 52.8635C54.6183 53.7092 53.2924 54.1842 51.9098 54.1842Z" fill="url(#paint2_linear_9786_39544)"/>
<path fill-rule="evenodd" clip-rule="evenodd" d="M40.4667 58.9411C40.8485 58.611 41.4673 58.611 41.8491 58.9411L48 64.2617L54.1509 58.9411C54.5327 58.611 55.1516 58.611 55.5333 58.9411C55.915 59.2713 55.915 59.8067 55.5333 60.1368L48 66.6531L40.4667 60.1368C40.085 59.8067 40.085 59.2713 40.4667 58.9411Z" fill="url(#paint3_linear_9786_39544)"/>
<path fill-rule="evenodd" clip-rule="evenodd" d="M58.6967 38.4018C58.6967 38.7764 58.5245 39.1305 58.227 39.3878C57.9304 39.6444 57.5328 39.7851 57.1228 39.7851C56.7128 39.7851 56.3152 39.6444 56.0186 39.3878C55.7211 39.1305 55.5489 38.7764 55.5489 38.4018C55.5489 37.2815 55.0346 36.2019 54.11 35.4022C53.1846 34.6017 51.9247 34.1485 50.6065 34.1485H49.5739V42.6551H51.9098C54.048 42.6551 56.103 43.3896 57.6217 44.7033C59.1412 46.0176 60 47.8054 60 49.675C60 51.5445 59.1412 53.3323 57.6217 54.6467C56.103 55.9603 54.048 56.6948 51.9098 56.6948H49.5739V62.5533L53.9683 58.7523C54.4534 58.3326 55.2308 58.3326 55.7159 58.7523C56.215 59.1839 56.215 59.8941 55.7159 60.3257L48 67L40.2841 60.3257C39.785 59.8941 39.785 59.1839 40.2841 58.7523C40.7692 58.3326 41.5466 58.3326 42.0317 58.7523L46.4261 62.5533V56.6948H44.0902C41.9527 56.6929 39.8988 55.9578 38.3807 54.6446C36.8617 53.3307 36.0022 51.5441 36 49.6753C36 49.3006 36.1723 48.9462 36.4697 48.689C36.7663 48.4324 37.1639 48.2917 37.5739 48.2917C37.984 48.2917 38.3815 48.4324 38.6782 48.689C38.9756 48.9462 39.1479 49.3004 39.1479 49.675C39.1479 50.7953 39.6621 51.8748 40.5867 52.6746C41.5121 53.4751 42.772 53.9283 44.0902 53.9283H46.4261V45.4217H45.3935C43.2552 45.4217 41.2002 44.6872 39.6815 43.3735C38.1621 42.0591 37.3033 40.2713 37.3033 38.4018C37.3033 36.5323 38.1621 34.7445 39.6815 33.4301C41.2002 32.1165 43.2552 31.3819 45.3935 31.3819H46.4261V29.3833C46.4261 29.0087 46.5983 28.6546 46.8958 28.3973C47.1924 28.1407 47.59 28 48 28C48.41 28 48.8076 28.1407 49.1042 28.3973C49.4017 28.6546 49.5739 29.0087 49.5739 29.3833V31.3819H50.6065C52.744 31.3839 54.7979 32.119 56.3161 33.4322C57.835 34.7461 58.6945 36.533 58.6967 38.4018ZM46.6967 63.1344L41.8491 58.9411C41.4673 58.611 40.8485 58.611 40.4667 58.9411C40.085 59.2713 40.085 59.8067 40.4667 60.1368L48 66.6531L55.5333 60.1368C55.915 59.8067 55.915 59.2713 55.5333 58.9411C55.1516 58.611 54.5327 58.611 54.1509 58.9411L49.3033 63.1344V56.4389H51.9098C53.9837 56.4389 55.9726 55.7262 57.439 54.4578C58.9055 53.1893 59.7293 51.4689 59.7293 49.675C59.7293 47.8811 58.9055 46.1607 57.439 44.8922C55.9726 43.6237 53.9837 42.9111 51.9098 42.9111H49.3033V33.8926H50.6065C51.9891 33.8926 53.3151 34.3676 54.2927 35.2133C55.2703 36.0589 55.8195 37.2059 55.8195 38.4018C55.8195 38.7008 55.9569 38.9875 56.2013 39.199C56.4457 39.4104 56.7772 39.5291 57.1228 39.5291C57.4685 39.5291 57.7999 39.4104 58.0443 39.199C58.2888 38.9875 58.4261 38.7008 58.4261 38.4018C58.4239 36.6085 57.5994 34.8892 56.1334 33.6211C54.6674 32.353 52.6797 31.6398 50.6065 31.6379H49.3033V29.3833C49.3033 29.0843 49.166 28.7976 48.9215 28.5862C48.6771 28.3748 48.3456 28.256 48 28.256C47.6544 28.256 47.3229 28.3748 47.0785 28.5862C46.834 28.7976 46.6967 29.0843 46.6967 29.3833V31.6379H45.3935C43.3196 31.6379 41.3307 32.3505 39.8642 33.619C38.3978 34.8875 37.5739 36.6079 37.5739 38.4018C37.5739 40.1957 38.3978 41.9161 39.8642 43.1846C41.3307 44.4531 43.3196 45.1657 45.3935 45.1657H46.6967V54.1842H44.0902C42.7076 54.1842 41.3817 53.7092 40.4041 52.8635C39.4264 52.0179 38.8772 50.8709 38.8772 49.675C38.8772 49.376 38.7399 49.0892 38.4955 48.8778C38.2511 48.6664 37.9196 48.5477 37.5739 48.5477C37.2283 48.5477 36.8968 48.6664 36.6524 48.8778C36.408 49.0892 36.2707 49.376 36.2707 49.675C36.2728 51.4683 37.0974 53.1876 38.5634 54.4557C40.0293 55.7238 42.017 56.437 44.0902 56.4389H46.6967V63.1344ZM41.89 41.4015C42.8154 42.2019 44.0753 42.6551 45.3935 42.6551H46.4261V34.1485H45.3935C44.0753 34.1485 42.8154 34.6017 41.89 35.4022C40.9654 36.2019 40.4511 37.2815 40.4511 38.4018C40.4511 39.5221 40.9654 40.6017 41.89 41.4015ZM49.5739 53.9283H51.9098C53.228 53.9283 54.4879 53.4751 55.4133 52.6746C56.3379 51.8748 56.8521 50.7953 56.8521 49.675C56.8521 48.5547 56.3379 47.4751 55.4133 46.6753C54.4879 45.8749 53.228 45.4217 51.9098 45.4217H49.5739V53.9283ZM41.7073 41.5903C42.6849 42.436 44.0109 42.9111 45.3935 42.9111H46.6967V33.8926H45.3935C44.0109 33.8926 42.6849 34.3676 41.7073 35.2133C40.7297 36.0589 40.1805 37.2059 40.1805 38.4018C40.1805 39.5977 40.7297 40.7447 41.7073 41.5903ZM51.9098 54.1842C53.2924 54.1842 54.6183 53.7092 55.5959 52.8635C56.5736 52.0179 57.1228 50.8709 57.1228 49.675C57.1228 48.479 56.5736 47.3321 55.5959 46.4864C54.6183 45.6408 53.2924 45.1657 51.9098 45.1657H49.3033V54.1842H51.9098Z" fill="black"/>
<path fill-rule="evenodd" clip-rule="evenodd" d="M58.6967 38.4018C58.6967 38.7764 58.5245 39.1305 58.227 39.3878C57.9304 39.6444 57.5328 39.7851 57.1228 39.7851C56.7128 39.7851 56.3152 39.6444 56.0186 39.3878C55.7211 39.1305 55.5489 38.7764 55.5489 38.4018C55.5489 37.2815 55.0346 36.2019 54.11 35.4022C53.1846 34.6017 51.9247 34.1485 50.6065 34.1485H49.5739V42.6551H51.9098C54.048 42.6551 56.103 43.3896 57.6217 44.7033C59.1412 46.0176 60 47.8054 60 49.675C60 51.5445 59.1412 53.3323 57.6217 54.6467C56.103 55.9603 54.048 56.6948 51.9098 56.6948H49.5739V62.5533L53.9683 58.7523C54.4534 58.3326 55.2308 58.3326 55.7159 58.7523C56.215 59.1839 56.215 59.8941 55.7159 60.3257L48 67L40.2841 60.3257C39.785 59.8941 39.785 59.1839 40.2841 58.7523C40.7692 58.3326 41.5466 58.3326 42.0317 58.7523L46.4261 62.5533V56.6948H44.0902C41.9527 56.6929 39.8988 55.9578 38.3807 54.6446C36.8617 53.3307 36.0022 51.5441 36 49.6753C36 49.3006 36.1723 48.9462 36.4697 48.689C36.7663 48.4324 37.1639 48.2917 37.5739 48.2917C37.984 48.2917 38.3815 48.4324 38.6782 48.689C38.9756 48.9462 39.1479 49.3004 39.1479 49.675C39.1479 50.7953 39.6621 51.8748 40.5867 52.6746C41.5121 53.4751 42.772 53.9283 44.0902 53.9283H46.4261V45.4217H45.3935C43.2552 45.4217 41.2002 44.6872 39.6815 43.3735C38.1621 42.0591 37.3033 40.2713 37.3033 38.4018C37.3033 36.5323 38.1621 34.7445 39.6815 33.4301C41.2002 32.1165 43.2552 31.3819 45.3935 31.3819H46.4261V29.3833C46.4261 29.0087 46.5983 28.6546 46.8958 28.3973C47.1924 28.1407 47.59 28 48 28C48.41 28 48.8076 28.1407 49.1042 28.3973C49.4017 28.6546 49.5739 29.0087 49.5739 29.3833V31.3819H50.6065C52.744 31.3839 54.7979 32.119 56.3161 33.4322C57.835 34.7461 58.6945 36.533 58.6967 38.4018ZM46.6967 63.1344L41.8491 58.9411C41.4673 58.611 40.8485 58.611 40.4667 58.9411C40.085 59.2713 40.085 59.8067 40.4667 60.1368L48 66.6531L55.5333 60.1368C55.915 59.8067 55.915 59.2713 55.5333 58.9411C55.1516 58.611 54.5327 58.611 54.1509 58.9411L49.3033 63.1344V56.4389H51.9098C53.9837 56.4389 55.9726 55.7262 57.439 54.4578C58.9055 53.1893 59.7293 51.4689 59.7293 49.675C59.7293 47.8811 58.9055 46.1607 57.439 44.8922C55.9726 43.6237 53.9837 42.9111 51.9098 42.9111H49.3033V33.8926H50.6065C51.9891 33.8926 53.3151 34.3676 54.2927 35.2133C55.2703 36.0589 55.8195 37.2059 55.8195 38.4018C55.8195 38.7008 55.9569 38.9875 56.2013 39.199C56.4457 39.4104 56.7772 39.5291 57.1228 39.5291C57.4685 39.5291 57.7999 39.4104 58.0443 39.199C58.2888 38.9875 58.4261 38.7008 58.4261 38.4018C58.4239 36.6085 57.5994 34.8892 56.1334 33.6211C54.6674 32.353 52.6797 31.6398 50.6065 31.6379H49.3033V29.3833C49.3033 29.0843 49.166 28.7976 48.9215 28.5862C48.6771 28.3748 48.3456 28.256 48 28.256C47.6544 28.256 47.3229 28.3748 47.0785 28.5862C46.834 28.7976 46.6967 29.0843 46.6967 29.3833V31.6379H45.3935C43.3196 31.6379 41.3307 32.3505 39.8642 33.619C38.3978 34.8875 37.5739 36.6079 37.5739 38.4018C37.5739 40.1957 38.3978 41.9161 39.8642 43.1846C41.3307 44.4531 43.3196 45.1657 45.3935 45.1657H46.6967V54.1842H44.0902C42.7076 54.1842 41.3817 53.7092 40.4041 52.8635C39.4264 52.0179 38.8772 50.8709 38.8772 49.675C38.8772 49.376 38.7399 49.0892 38.4955 48.8778C38.2511 48.6664 37.9196 48.5477 37.5739 48.5477C37.2283 48.5477 36.8968 48.6664 36.6524 48.8778C36.408 49.0892 36.2707 49.376 36.2707 49.675C36.2728 51.4683 37.0974 53.1876 38.5634 54.4557C40.0293 55.7238 42.017 56.437 44.0902 56.4389H46.6967V63.1344ZM41.89 41.4015C42.8154 42.2019 44.0753 42.6551 45.3935 42.6551H46.4261V34.1485H45.3935C44.0753 34.1485 42.8154 34.6017 41.89 35.4022C40.9654 36.2019 40.4511 37.2815 40.4511 38.4018C40.4511 39.5221 40.9654 40.6017 41.89 41.4015ZM49.5739 53.9283H51.9098C53.228 53.9283 54.4879 53.4751 55.4133 52.6746C56.3379 51.8748 56.8521 50.7953 56.8521 49.675C56.8521 48.5547 56.3379 47.4751 55.4133 46.6753C54.4879 45.8749 53.228 45.4217 51.9098 45.4217H49.5739V53.9283ZM41.7073 41.5903C42.6849 42.436 44.0109 42.9111 45.3935 42.9111H46.6967V33.8926H45.3935C44.0109 33.8926 42.6849 34.3676 41.7073 35.2133C40.7297 36.0589 40.1805 37.2059 40.1805 38.4018C40.1805 39.5977 40.7297 40.7447 41.7073 41.5903ZM51.9098 54.1842C53.2924 54.1842 54.6183 53.7092 55.5959 52.8635C56.5736 52.0179 57.1228 50.8709 57.1228 49.675C57.1228 48.479 56.5736 47.3321 55.5959 46.4864C54.6183 45.6408 53.2924 45.1657 51.9098 45.1657H49.3033V54.1842H51.9098Z" fill="url(#paint4_linear_9786_39544)"/>
<defs>
<linearGradient id="paint0_linear_9786_39544" x1="48" y1="9" x2="48" y2="86" gradientUnits="userSpaceOnUse">
<stop stop-color="#01B4D5"/>
<stop offset="1" stop-color="#62D1E5"/>
</linearGradient>
<linearGradient id="paint1_linear_9786_39544" x1="48" y1="9" x2="48" y2="86" gradientUnits="userSpaceOnUse">
<stop stop-color="#01B4D5"/>
<stop offset="1" stop-color="#62D1E5"/>
</linearGradient>
<linearGradient id="paint2_linear_9786_39544" x1="48" y1="9" x2="48" y2="86" gradientUnits="userSpaceOnUse">
<stop stop-color="#01B4D5"/>
<stop offset="1" stop-color="#62D1E5"/>
</linearGradient>
<linearGradient id="paint3_linear_9786_39544" x1="48" y1="9" x2="48" y2="86" gradientUnits="userSpaceOnUse">
<stop stop-color="#01B4D5"/>
<stop offset="1" stop-color="#62D1E5"/>
</linearGradient>
<linearGradient id="paint4_linear_9786_39544" x1="48" y1="28.256" x2="48" y2="66.6531" gradientUnits="userSpaceOnUse">
<stop stop-color="#01B4D5"/>
<stop offset="1" stop-color="#62D1E5"/>
</linearGradient>
</defs>
</svg>
