<svg width="96" height="96" viewBox="0 0 96 96" fill="none" xmlns="http://www.w3.org/2000/svg">
<path d="M46.5212 23.0927C47.6279 23.0927 48.522 22.196 48.522 21.092V17.8926C48.522 16.7886 47.6279 15.8919 46.5212 15.8919C45.4146 15.8919 44.5205 16.7886 44.5205 17.8926V21.092C44.5205 22.1969 45.4146 23.0927 46.5212 23.0927Z" fill="url(#paint0_linear_9566_67509)"/>
<path d="M27.7421 29.7121C28.1324 30.1024 28.6442 30.2981 29.1569 30.2981C29.6687 30.2981 30.1814 30.1016 30.5717 29.7121C31.3542 28.9297 31.3542 27.6649 30.5717 26.8834L28.311 24.6227C27.5286 23.8403 26.2638 23.8403 25.4823 24.6227C24.6999 25.4052 24.6999 26.6699 25.4823 27.4515L27.7421 29.7121Z" fill="url(#paint1_linear_9566_67509)"/>
<path d="M21.9718 43.6739H18.7743C17.6676 43.6739 16.7735 44.5706 16.7735 45.6746C16.7735 46.7786 17.6676 47.6754 18.7743 47.6754H21.9718C23.0785 47.6754 23.9726 46.7786 23.9726 45.6746C23.9726 44.5698 23.0767 43.6739 21.9718 43.6739Z" fill="url(#paint2_linear_9566_67509)"/>
<path d="M27.7643 61.6261L25.5037 63.8867C24.7212 64.6692 24.7212 65.9357 25.5037 66.7155C25.894 67.1058 26.4058 67.3014 26.9185 67.3014C27.4303 67.3014 27.943 67.1049 28.3333 66.7155L30.594 64.4548C31.3764 63.6723 31.3764 62.4058 30.594 61.6261C29.8133 60.8463 28.5468 60.8463 27.7643 61.6261Z" fill="url(#paint3_linear_9566_67509)"/>
<path d="M46.5578 68.2249C45.4512 68.2249 44.5571 69.1217 44.5571 70.2257V73.4251C44.5571 74.5291 45.4512 75.4258 46.5578 75.4258C47.6645 75.4258 48.5586 74.5291 48.5586 73.4251V70.2257C48.5586 69.1208 47.6645 68.2249 46.5578 68.2249Z" fill="url(#paint4_linear_9566_67509)"/>
<path d="M71.1066 47.6437H74.3042C75.4108 47.6437 76.3049 46.747 76.3049 45.643C76.3049 44.539 75.4108 43.6422 74.3042 43.6422H71.1066C69.9999 43.6422 69.1059 44.539 69.1059 45.643C69.1059 46.7479 70.0017 47.6437 71.1066 47.6437Z" fill="url(#paint5_linear_9566_67509)"/>
<path d="M63.8993 30.2771C64.4111 30.2771 64.9238 30.0806 65.3141 29.6912L67.5748 27.4305C68.3572 26.6481 68.3572 25.3815 67.5748 24.6018C66.7923 23.8193 65.5276 23.8193 64.746 24.6018L62.4854 26.8624C61.7029 27.6449 61.7029 28.9114 62.4854 29.6912C62.8757 30.0806 63.3875 30.2771 63.8993 30.2771Z" fill="url(#paint6_linear_9566_67509)"/>
<path d="M48.5397 39.1785V28.01C48.5397 26.906 47.6456 26.0092 46.5389 26.0092C45.4323 26.0092 44.5382 26.906 44.5382 28.01V39.1785C41.7611 40.0387 39.7247 42.6022 39.7247 45.6587C39.7247 46.8091 40.0364 47.8756 40.5429 48.8277L33.8421 55.5266C33.0596 56.3073 33.0596 57.5738 33.8421 58.3553C34.2324 58.7457 34.7442 58.9413 35.2569 58.9413C35.7687 58.9413 36.2814 58.7448 36.6717 58.3553L43.3725 51.6545C44.3229 52.1583 45.3911 52.4727 46.5399 52.4727C50.2976 52.4727 53.3541 49.4153 53.3541 45.6585C53.3532 42.6011 51.3167 40.0387 48.5397 39.1785ZM46.5389 48.4714C44.9884 48.4714 43.7262 47.2093 43.7262 45.6587C43.7262 44.108 44.9883 42.846 46.5389 42.846C48.0896 42.846 49.3517 44.108 49.3517 45.6587C49.3517 47.2093 48.0896 48.4714 46.5389 48.4714Z" fill="url(#paint7_linear_9566_67509)"/>
<path d="M81.1755 63.167L68.3609 75.9835L64.7291 70.8995C64.0869 70.0028 62.8382 69.7929 61.9379 70.4351C61.0393 71.0773 60.8294 72.326 61.4734 73.2263L66.4771 80.2289C66.8192 80.7068 67.3533 81.0114 67.9393 81.0596C67.9929 81.0632 68.0491 81.0659 68.1036 81.0659C68.6315 81.0659 69.1424 80.8578 69.5184 80.4799L84.0043 65.994C84.7868 65.2116 84.7868 63.9468 84.0043 63.1653C83.2219 62.3829 81.9553 62.3846 81.1755 63.167Z" fill="url(#paint8_linear_9566_67509)"/>
<path fill-rule="evenodd" clip-rule="evenodd" d="M73 89C82.3888 89 90 81.3888 90 72C90 62.6112 82.3888 55 73 55C63.6112 55 56 62.6112 56 72C56 81.3888 63.6112 89 73 89ZM73 93C84.598 93 94 83.598 94 72C94 60.402 84.598 51 73 51C61.402 51 52 60.402 52 72C52 83.598 61.402 93 73 93Z" fill="url(#paint9_linear_9566_67509)"/>
<path fill-rule="evenodd" clip-rule="evenodd" d="M46.5 14C29.103 14 15 28.103 15 45.5C15 62.897 29.103 77 46.5 77C47.6046 77 48.5 77.8954 48.5 79C48.5 80.1046 47.6046 81 46.5 81C26.8939 81 11 65.1061 11 45.5C11 25.8939 26.8939 10 46.5 10C66.1061 10 82 25.8939 82 45.5C82 46.6046 81.1046 47.5 80 47.5C78.8954 47.5 78 46.6046 78 45.5C78 28.103 63.897 14 46.5 14Z" fill="url(#paint10_linear_9566_67509)"/>
<path fill-rule="evenodd" clip-rule="evenodd" d="M46.5 6C24.6848 6 7 23.6848 7 45.5C7 67.3152 24.6848 85 46.5 85C48.1445 85 48.8015 84.9971 49.7306 84.8708C50.8251 84.722 51.833 85.4887 51.9818 86.5832C52.1305 87.6777 51.3639 88.6856 50.2694 88.8343C49.05 89.0001 48.135 89 46.5808 89H46.5C22.4756 89 3 69.5244 3 45.5C3 21.4756 22.4756 2 46.5 2C70.5244 2 90 21.4756 90 45.5C90 46.379 89.9739 47.2521 89.9224 48.1186C89.8569 49.2212 88.9099 50.062 87.8073 49.9965C86.7047 49.931 85.8639 48.984 85.9295 47.8814C85.9763 47.0938 86 46.2998 86 45.5C86 23.6848 68.3152 6 46.5 6Z" fill="url(#paint11_linear_9566_67509)"/>
<defs>
<linearGradient id="paint0_linear_9566_67509" x1="48.5" y1="2" x2="48.5" y2="93" gradientUnits="userSpaceOnUse">
<stop stop-color="#00B4D5"/>
<stop offset="1" stop-color="#66D2E6"/>
</linearGradient>
<linearGradient id="paint1_linear_9566_67509" x1="48.5" y1="2" x2="48.5" y2="93" gradientUnits="userSpaceOnUse">
<stop stop-color="#00B4D5"/>
<stop offset="1" stop-color="#66D2E6"/>
</linearGradient>
<linearGradient id="paint2_linear_9566_67509" x1="48.5" y1="2" x2="48.5" y2="93" gradientUnits="userSpaceOnUse">
<stop stop-color="#00B4D5"/>
<stop offset="1" stop-color="#66D2E6"/>
</linearGradient>
<linearGradient id="paint3_linear_9566_67509" x1="48.5" y1="2" x2="48.5" y2="93" gradientUnits="userSpaceOnUse">
<stop stop-color="#00B4D5"/>
<stop offset="1" stop-color="#66D2E6"/>
</linearGradient>
<linearGradient id="paint4_linear_9566_67509" x1="48.5" y1="2" x2="48.5" y2="93" gradientUnits="userSpaceOnUse">
<stop stop-color="#00B4D5"/>
<stop offset="1" stop-color="#66D2E6"/>
</linearGradient>
<linearGradient id="paint5_linear_9566_67509" x1="48.5" y1="2" x2="48.5" y2="93" gradientUnits="userSpaceOnUse">
<stop stop-color="#00B4D5"/>
<stop offset="1" stop-color="#66D2E6"/>
</linearGradient>
<linearGradient id="paint6_linear_9566_67509" x1="48.5" y1="2" x2="48.5" y2="93" gradientUnits="userSpaceOnUse">
<stop stop-color="#00B4D5"/>
<stop offset="1" stop-color="#66D2E6"/>
</linearGradient>
<linearGradient id="paint7_linear_9566_67509" x1="48.5" y1="2" x2="48.5" y2="93" gradientUnits="userSpaceOnUse">
<stop stop-color="#00B4D5"/>
<stop offset="1" stop-color="#66D2E6"/>
</linearGradient>
<linearGradient id="paint8_linear_9566_67509" x1="78.2418" y1="67.188" x2="78.2418" y2="93" gradientUnits="userSpaceOnUse">
<stop stop-color="#00B4D5"/>
<stop offset="1" stop-color="#66D2E6"/>
</linearGradient>
<linearGradient id="paint9_linear_9566_67509" x1="48.5" y1="2" x2="48.5" y2="93" gradientUnits="userSpaceOnUse">
<stop stop-color="#00B4D5"/>
<stop offset="1" stop-color="#66D2E6"/>
</linearGradient>
<linearGradient id="paint10_linear_9566_67509" x1="48.5" y1="2" x2="48.5" y2="93" gradientUnits="userSpaceOnUse">
<stop stop-color="#00B4D5"/>
<stop offset="1" stop-color="#66D2E6"/>
</linearGradient>
<linearGradient id="paint11_linear_9566_67509" x1="48.5" y1="2" x2="48.5" y2="93" gradientUnits="userSpaceOnUse">
<stop stop-color="#00B4D5"/>
<stop offset="1" stop-color="#66D2E6"/>
</linearGradient>
</defs>
</svg>
