<svg width="97" height="96" viewBox="0 0 97 96" fill="none" xmlns="http://www.w3.org/2000/svg">
<path d="M50.4887 47.9495C50.4887 48.9219 49.7174 49.7109 48.7668 49.7109C47.8163 49.7109 47.0449 48.9219 47.0449 47.9495C47.0449 46.9771 47.8163 46.188 48.7668 46.188C49.7174 46.188 50.4887 46.9771 50.4887 47.9495Z" fill="url(#paint0_linear_9566_45050)"/>
<path d="M48.6516 55.3208C44.5356 55.3208 41.1922 51.9588 41.1922 47.8203C41.1922 43.6819 44.5358 40.3199 48.6516 40.3199C49.6806 40.3199 50.7095 40.5788 51.7384 40.9666L62.1556 26.7411C62.5413 26.2242 63.3129 26.0943 63.9561 26.4822C64.4701 26.8701 64.5993 27.6459 64.2136 28.2926L53.1531 43.4229C52.7674 43.9398 51.9958 44.0697 51.4809 43.6818C50.7094 43.1649 49.6804 42.906 48.7797 42.906C46.0784 42.906 43.7639 45.1043 43.7639 47.9495C43.7639 50.7945 45.9501 52.9929 48.7797 52.9929C51.4809 52.9929 53.7954 50.7946 53.7954 47.9495C53.7954 47.3027 54.3095 46.6559 55.0819 46.6559C55.8534 46.6559 56.3684 47.1728 56.3684 47.9495C56.1109 51.959 52.7675 55.3208 48.6516 55.3208Z" fill="url(#paint1_linear_9566_45050)"/>
<path fill-rule="evenodd" clip-rule="evenodd" d="M62.1556 26.7411C62.5413 26.2242 63.3129 26.0943 63.9561 26.4822C64.4701 26.8701 64.5993 27.6459 64.2136 28.2926L53.1531 43.4229C52.7674 43.9398 51.9958 44.0697 51.4809 43.6818C50.7094 43.1649 49.6804 42.906 48.7797 42.906C46.0784 42.906 43.7639 45.1043 43.7639 47.9495C43.7639 50.7945 45.9501 52.9929 48.7797 52.9929C51.4809 52.9929 53.7954 50.7946 53.7954 47.9495C53.7954 47.3027 54.3095 46.6559 55.0819 46.6559C55.8534 46.6559 56.3684 47.1728 56.3684 47.9495C56.1109 51.959 52.7675 55.3208 48.6516 55.3208C44.5356 55.3208 41.1922 51.9588 41.1922 47.8203C41.1922 43.6819 44.5358 40.3199 48.6516 40.3199C49.6806 40.3199 50.7095 40.5788 51.7384 40.9666L62.1556 26.7411ZM51.4911 40.1369L61.6117 26.3163C62.241 25.4731 63.4119 25.3415 64.3036 25.8792L64.3339 25.8975L64.3623 25.9189C65.2025 26.5529 65.3405 27.7471 64.7977 28.6572L64.7809 28.6854L53.697 43.8477C53.0986 44.6495 51.9202 44.8662 51.093 44.2587C50.453 43.8349 49.5668 43.606 48.7797 43.606C46.4336 43.606 44.4482 45.5138 44.4482 47.9495C44.4482 50.3966 46.3169 52.2929 48.7797 52.2929C51.1257 52.2929 53.1112 50.3852 53.1112 47.9495C53.1112 46.9509 53.8984 45.9559 55.0819 45.9559C55.6195 45.9559 56.1225 46.1387 56.494 46.5121C56.8666 46.8866 57.0526 47.3984 57.0526 47.9495V47.9724L57.0512 47.9954C56.7706 52.3647 53.1361 56.0208 48.6516 56.0208C44.1688 56.0208 40.5079 52.3567 40.5079 47.8203C40.5079 43.284 44.1691 39.6199 48.6516 39.6199C49.6202 39.6199 50.5701 39.8268 51.4911 40.1369ZM51.173 47.9495C51.173 49.3085 50.0953 50.4109 48.7668 50.4109C47.4384 50.4109 46.3607 49.3085 46.3607 47.9495C46.3607 46.5905 47.4384 45.488 48.7668 45.488C50.0953 45.488 51.173 46.5905 51.173 47.9495ZM48.7668 49.7109C49.7174 49.7109 50.4887 48.9219 50.4887 47.9495C50.4887 46.9771 49.7174 46.188 48.7668 46.188C47.8163 46.188 47.0449 46.9771 47.0449 47.9495C47.0449 48.9219 47.8163 49.7109 48.7668 49.7109Z" fill="url(#paint2_linear_9566_45050)"/>
<path fill-rule="evenodd" clip-rule="evenodd" d="M49 88C70.9067 88 88.5899 70.0489 88.5899 48C88.5899 25.9511 70.9067 8 49 8C27.0933 8 9.41011 25.9511 9.41011 48C9.41011 70.0489 27.0933 88 49 88ZM49 92C73.0244 92 92.5 72.3005 92.5 48C92.5 23.6995 73.0244 4 49 4C24.9756 4 5.5 23.6995 5.5 48C5.5 72.3005 24.9756 92 49 92Z" fill="url(#paint3_linear_9566_45050)"/>
<path d="M36.7809 72C36.7809 70.8954 37.6562 70 38.736 70H60.2416C61.3213 70 62.1966 70.8954 62.1966 72C62.1966 73.1046 61.3213 74 60.2416 74H38.736C37.6562 74 36.7809 73.1046 36.7809 72Z" fill="url(#paint4_linear_9566_45050)"/>
<path d="M40.691 80C40.691 78.8954 41.5663 78 42.6461 78H56.3315C57.4112 78 58.2865 78.8954 58.2865 80C58.2865 81.1046 57.4112 82 56.3315 82H42.6461C41.5663 82 40.691 81.1046 40.691 80Z" fill="url(#paint5_linear_9566_45050)"/>
<path fill-rule="evenodd" clip-rule="evenodd" d="M48.6048 10.1762C49.6843 10.1534 50.5775 11.0301 50.5998 12.1345L50.6819 16.1959C50.7042 17.3002 49.8471 18.2139 48.7676 18.2367C47.6881 18.2596 46.7949 17.3828 46.7726 16.2785L46.6905 12.2171C46.6682 11.1128 47.5253 10.199 48.6048 10.1762ZM35.1522 12.9736C36.151 12.5539 37.2932 13.0421 37.7034 14.0638L39.212 17.8215C39.6222 18.8433 39.145 20.0118 38.1462 20.4314C37.1474 20.851 36.0052 20.3629 35.595 19.3411L34.0865 15.5834C33.6763 14.5616 34.1534 13.3932 35.1522 12.9736ZM63.5591 13.1005C64.5581 13.5196 65.0359 14.6878 64.6262 15.7098L63.1196 19.4683C62.71 20.4903 61.568 20.979 60.569 20.56C59.57 20.1409 59.0922 18.9727 59.5019 17.9507L61.0085 14.1922C61.4182 13.1702 62.5601 12.6814 63.5591 13.1005ZM23.6265 20.5132C24.4111 19.7543 25.6485 19.7897 26.3903 20.5923L29.1186 23.544C29.8604 24.3465 29.8258 25.6124 29.0413 26.3713C28.2567 27.1302 27.0193 27.0948 26.2775 26.2922L23.5492 23.3405C22.8073 22.5379 22.842 21.2721 23.6265 20.5132ZM74.981 20.7052C75.767 21.4626 75.8041 22.7283 75.0637 23.5324L72.3411 26.4895C71.6008 27.2936 70.3635 27.3314 69.5775 26.5741C68.7915 25.8168 68.7544 24.551 69.4948 23.747L72.2174 20.7899C72.9577 19.9858 74.195 19.9479 74.981 20.7052ZM15.0289 32.8722C15.4636 31.8611 16.6172 31.402 17.6056 31.8467L21.2405 33.4823C22.2289 33.927 22.6777 35.1071 22.2429 36.1182C21.8082 37.1293 20.6546 37.5885 19.6662 37.1437L16.0313 35.5082C15.0429 35.0635 14.5941 33.8833 15.0289 32.8722ZM83.6893 33.6036C84.1125 34.6198 83.6504 35.7945 82.6571 36.2275L79.0039 37.82C78.0106 38.253 76.8622 37.7802 76.439 36.764C76.0157 35.7479 76.4778 34.5731 77.4712 34.1401L81.1243 32.5477C82.1176 32.1147 83.266 32.5874 83.6893 33.6036ZM11.7928 47.266C11.7928 46.1615 12.6681 45.266 13.7479 45.266H17.7189C18.7986 45.266 19.6739 46.1615 19.6739 47.266C19.6739 48.3706 18.7986 49.266 17.7189 49.266H13.7479C12.6681 49.266 11.7928 48.3706 11.7928 47.266ZM78.7349 47.6208C78.7349 46.5162 79.6102 45.6208 80.6899 45.6208H84.6609C85.7407 45.6208 86.616 46.5162 86.616 47.6208C86.616 48.7253 85.7407 49.6208 84.6609 49.6208H80.6899C79.6102 49.6208 78.7349 48.7253 78.7349 47.6208ZM76.1659 58.7686C76.6006 57.7575 77.7542 57.2984 78.7426 57.7431L82.3775 59.3786C83.3659 59.8234 83.8147 61.0035 83.38 62.0146C82.9452 63.0257 81.7916 63.4848 80.8032 63.0401L77.1683 61.4046C76.18 60.9599 75.7311 59.7797 76.1659 58.7686ZM20.9916 59.1222C21.4149 60.1384 20.9528 61.3131 19.9594 61.7461L16.3063 63.3386C15.313 63.7716 14.1646 63.2988 13.7413 62.2827C13.3181 61.2665 13.7802 60.0917 14.7735 59.6587L18.4267 58.0663C19.42 57.6333 20.5684 58.106 20.9916 59.1222Z" fill="url(#paint6_linear_9566_45050)"/>
<path d="M43.542 25.7586C38.8197 26.7004 34.5357 29.228 31.3714 32.9393C28.2071 36.6505 26.344 41.3322 26.0783 46.2399C25.8127 51.1475 27.1597 55.9994 29.9053 60.0239C30.5274 60.9358 30.3071 62.1934 29.4132 62.8329C28.5193 63.4724 27.2904 63.2516 26.6682 62.3397C23.42 57.5784 21.8262 51.838 22.1405 46.0313C22.4549 40.2246 24.6592 34.6854 28.4029 30.2947C32.1466 25.904 37.2144 22.9139 42.8004 21.7999C47.267 20.9091 51.8598 21.2586 56.1087 22.7813C57.1668 23.1605 57.6117 24.3801 57.1346 25.3978C56.6678 26.3938 55.4914 26.8219 54.4498 26.4687C50.9544 25.2833 47.1981 25.0294 43.542 25.7586Z" fill="url(#paint7_linear_9566_45050)"/>
<defs>
<linearGradient id="paint0_linear_9566_45050" x1="34.4964" y1="-57.3338" x2="34.4964" y2="181.863" gradientUnits="userSpaceOnUse">
<stop stop-color="#02B5D6"/>
<stop offset="1" stop-color="#5FD1E5"/>
</linearGradient>
<linearGradient id="paint1_linear_9566_45050" x1="34.4964" y1="-57.3338" x2="34.4964" y2="181.863" gradientUnits="userSpaceOnUse">
<stop stop-color="#02B5D6"/>
<stop offset="1" stop-color="#5FD1E5"/>
</linearGradient>
<linearGradient id="paint2_linear_9566_45050" x1="35.304" y1="-52.4979" x2="35.304" y2="175.714" gradientUnits="userSpaceOnUse">
<stop stop-color="#02B5D6"/>
<stop offset="1" stop-color="#5FD1E5"/>
</linearGradient>
<linearGradient id="paint3_linear_9566_45050" x1="49.0105" y1="4" x2="49.0105" y2="87.0472" gradientUnits="userSpaceOnUse">
<stop stop-color="#02B5D6"/>
<stop offset="1" stop-color="#5FD1E5"/>
</linearGradient>
<linearGradient id="paint4_linear_9566_45050" x1="49" y1="4" x2="49" y2="92" gradientUnits="userSpaceOnUse">
<stop stop-color="#00B4D5"/>
<stop offset="1" stop-color="#66D2E6"/>
</linearGradient>
<linearGradient id="paint5_linear_9566_45050" x1="49" y1="4" x2="49" y2="92" gradientUnits="userSpaceOnUse">
<stop stop-color="#00B4D5"/>
<stop offset="1" stop-color="#66D2E6"/>
</linearGradient>
<linearGradient id="paint6_linear_9566_45050" x1="49" y1="4" x2="49" y2="92" gradientUnits="userSpaceOnUse">
<stop stop-color="#00B4D5"/>
<stop offset="1" stop-color="#66D2E6"/>
</linearGradient>
<linearGradient id="paint7_linear_9566_45050" x1="39.7135" y1="21.3169" x2="39.7135" y2="63.1986" gradientUnits="userSpaceOnUse">
<stop stop-color="#00B4D5"/>
<stop offset="1" stop-color="#66D2E6"/>
</linearGradient>
</defs>
</svg>
