<svg width="97" height="96" fill="none" xmlns="http://www.w3.org/2000/svg"><path d="M7.5 8v72h42a2 2 0 1 1 0 4h-44a2 2 0 0 1-2-2V6a2 2 0 0 1 2-2h76a2 2 0 0 1 2 2v42a2 2 0 1 1-4 0V8h-72Z" fill="url(#a)"/><path d="M15.5 24v48h32a2 2 0 1 1 0 4h-34a2 2 0 0 1-2-2V22a2 2 0 0 1 2-2h60a2 2 0 0 1 2 2v25a2 2 0 1 1-4 0V24h-56Z" fill="url(#b)"/><path fill-rule="evenodd" clip-rule="evenodd" d="M52.04 56.865a2 2 0 0 1 .092-2.827l6.444-6.04-6.444-6.042a2 2 0 0 1 2.736-2.918l8 7.5a2 2 0 0 1 0 2.918l-8 7.5a2 2 0 0 1-2.827-.09Z" fill="url(#c)"/><path fill-rule="evenodd" clip-rule="evenodd" d="M33.865 39.035a2 2 0 0 1 .097 2.827l-5.726 6.135 5.726 6.136a2 2 0 1 1-2.924 2.729l-7-7.5a2 2 0 0 1 0-2.73l7-7.5a2 2 0 0 1 2.827-.097Z" fill="url(#d)"/><path d="M43.55 38.914a2 2 0 0 1 3.864 1.035L42.45 57.087a2 2 0 0 1-3.863-1.035l4.965-17.137Z" fill="url(#e)"/><path fill-rule="evenodd" clip-rule="evenodd" d="M79.653 90.921c.378 1.038 1.531 1.583 2.526 1.103C88.878 88.792 93.5 81.936 93.5 74c0-11.046-8.954-20-20-20s-20 8.954-20 20c0 7.213 3.818 13.533 9.543 17.052.574.353 1.167.677 1.778.972.995.48 2.148-.065 2.526-1.103l3.419-9.401c.377-1.038-.191-2.165-1.048-2.862a6 6 0 1 1 7.565 0c-.858.697-1.426 1.824-1.049 2.862l3.42 9.401Zm2.9-3.727C86.75 84.309 89.5 79.476 89.5 74c0-8.837-7.163-16-16-16s-16 7.163-16 16c0 5.476 2.75 10.31 6.946 13.194l2.163-5.948A9.972 9.972 0 0 1 63.5 74c0-5.523 4.477-10 10-10s10 4.477 10 10a9.971 9.971 0 0 1-3.109 7.246l2.163 5.948Z" fill="url(#f)"/><path d="M11.5 14a2 2 0 0 1 2-2h2a2 2 0 1 1 0 4h-2a2 2 0 0 1-2-2Z" fill="url(#g)"/><path d="M21.5 14a2 2 0 0 1 2-2h2a2 2 0 1 1 0 4h-2a2 2 0 0 1-2-2Z" fill="url(#h)"/><path d="M31.5 14a2 2 0 0 1 2-2h2a2 2 0 1 1 0 4h-2a2 2 0 0 1-2-2Z" fill="url(#i)"/><defs><linearGradient id="a" x1="48.5" y1="4" x2="48.5" y2="92.2" gradientUnits="userSpaceOnUse"><stop stop-color="#00B4D5"/><stop offset="1" stop-color="#AEC3FF"/></linearGradient><linearGradient id="b" x1="48.5" y1="4" x2="48.5" y2="92.2" gradientUnits="userSpaceOnUse"><stop stop-color="#00B4D5"/><stop offset="1" stop-color="#AEC3FF"/></linearGradient><linearGradient id="c" x1="48.5" y1="4" x2="48.5" y2="92.2" gradientUnits="userSpaceOnUse"><stop stop-color="#00B4D5"/><stop offset="1" stop-color="#AEC3FF"/></linearGradient><linearGradient id="d" x1="48.5" y1="4" x2="48.5" y2="92.2" gradientUnits="userSpaceOnUse"><stop stop-color="#00B4D5"/><stop offset="1" stop-color="#AEC3FF"/></linearGradient><linearGradient id="e" x1="48.5" y1="4" x2="48.5" y2="92.2" gradientUnits="userSpaceOnUse"><stop stop-color="#00B4D5"/><stop offset="1" stop-color="#AEC3FF"/></linearGradient><linearGradient id="f" x1="48.5" y1="4" x2="48.5" y2="92.2" gradientUnits="userSpaceOnUse"><stop stop-color="#00B4D5"/><stop offset="1" stop-color="#AEC3FF"/></linearGradient><linearGradient id="g" x1="48.5" y1="4" x2="48.5" y2="92.2" gradientUnits="userSpaceOnUse"><stop stop-color="#00B4D5"/><stop offset="1" stop-color="#AEC3FF"/></linearGradient><linearGradient id="h" x1="48.5" y1="4" x2="48.5" y2="92.2" gradientUnits="userSpaceOnUse"><stop stop-color="#00B4D5"/><stop offset="1" stop-color="#AEC3FF"/></linearGradient><linearGradient id="i" x1="48.5" y1="4" x2="48.5" y2="92.2" gradientUnits="userSpaceOnUse"><stop stop-color="#00B4D5"/><stop offset="1" stop-color="#AEC3FF"/></linearGradient></defs></svg>
