<svg xmlns="http://www.w3.org/2000/svg" width="36" height="36" fill="none"><path fill="#C3C8D5" stroke="#2851E3" stroke-width=".105" d="M24.386 11.67v-.053h-2.039a4.817 4.817 0 0 1-4.817-4.765h10.734c.488 0 .884.396.884.884V18.4a4.817 4.817 0 0 1-4.762-4.813v-1.919Z"/><path fill="url(#a)" stroke="#3563E9" stroke-width=".105" d="M23.81 13.11v10.665a4.817 4.817 0 0 1-4.764-4.81v-1.977h-2.039a4.817 4.817 0 0 1-4.814-4.762h10.734c.488 0 .884.396.884.884Z"/><path fill="url(#b)" d="M17.587 17.546H6.8a4.87 4.87 0 0 0 4.87 4.87h1.993v1.918a4.87 4.87 0 0 0 4.86 4.866V18.482a.936.936 0 0 0-.936-.936Z"/><defs><linearGradient id="a" x1="23.632" x2="19.072" y1="12.193" y2="16.951" gradientUnits="userSpaceOnUse"><stop offset=".18" stop-color="#8791AB"/><stop offset="1" stop-color="#C3C8D5"/></linearGradient><linearGradient id="b" x1="18.601" x2="13.325" y1="17.599" y2="22.789" gradientUnits="userSpaceOnUse"><stop offset=".18" stop-color="#8791AB"/><stop offset="1" stop-color="#C3C8D5"/></linearGradient></defs></svg>
