<svg xmlns="http://www.w3.org/2000/svg" width="36" height="36" fill="none"><path fill="url(#a)" d="M9.53 21.245a8.928 8.928 0 0 1-.603-3.257 9.117 9.117 0 0 1 5.667-8.393 9.104 9.104 0 0 1 3.49-.676c.429.002.857.032 1.282.09l-1.026 1.038h-.279a7.965 7.965 0 0 0-6.359 3.165 7.979 7.979 0 0 0-1.31 6.985h6.979l-2.966 5.454 7.024-7.116h-9.588L22.644 7.804A11.077 11.077 0 0 0 18.017 6.8 11.225 11.225 0 0 0 7.22 14.992a11.24 11.24 0 0 0 4.944 12.623l3.345-6.325-5.98-.045Zm14.34-12.84-3.344 6.326h5.987a9.096 9.096 0 0 1-4.254 11.304 9.083 9.083 0 0 1-4.23 1.045 10.46 10.46 0 0 1-1.327-.09l1.014-1.026h.316a7.977 7.977 0 0 0 7.972-7.976 8.737 8.737 0 0 0-.302-2.164H18.72l2.91-5.5-7.158 7.128h9.61l-10.68 10.776a11.223 11.223 0 0 0 14.497-5.014 11.24 11.24 0 0 0-4.028-14.808Z"/><defs><linearGradient id="a" x1="18" x2="18" y1="6.8" y2="29.2" gradientUnits="userSpaceOnUse"><stop stop-color="#C3C8D5"/><stop offset="1" stop-color="#8791AB"/></linearGradient></defs></svg>
