<svg xmlns="http://www.w3.org/2000/svg" width="256" height="208" fill="none"><rect width="116" height="16" x="66" y="32" fill="#EDEFF7" rx="8"/><rect width="74" height="16" x="95" y="16" fill="#EDEFF7" rx="8"/><rect width="184" height="16" x="46" y="48" fill="#EDEFF7" rx="8"/><rect width="188" height="16" x="27" y="64" fill="#EDEFF7" rx="8"/><rect width="205" height="16" y="80" fill="#EDEFF7" rx="8"/><rect width="184" height="16" x="38" y="96" fill="#EDEFF7" rx="8"/><rect width="193" height="16" x="57" y="112" fill="#EDEFF7" rx="8"/><rect width="22" height="16" x="165" y="43" fill="#66D2E6" stroke="#66D2E6" stroke-width="2" rx="1"/><rect width="11" height="1" x="170.5" y="48.5" fill="#66D2E6" stroke="#EDEFF7" rx=".5"/><rect width="6" height="1" x="170.5" y="52.5" fill="#66D2E6" stroke="#EDEFF7" rx=".5"/><rect width="2" height="1" x="179.5" y="52.5" fill="#66D2E6" stroke="#EDEFF7" rx=".5"/><rect width="167" height="16" x="27" y="144" fill="#EDEFF7" rx="8"/><rect width="159" height="16" x="46" y="128" fill="#EDEFF7" rx="8"/><rect width="155" height="16" fill="#EDEFF7" rx="8" transform="matrix(-1 0 0 1 215 160)"/><rect width="63" height="16" fill="#EDEFF7" rx="8" transform="matrix(-1 0 0 1 149 176)"/><path fill="#99E1EE" fill-rule="evenodd" d="M91.163 11.79A11 11 0 0 1 92 16H81V5a11 11 0 0 1 10.163 6.79Zm-3.017 12.321A11 11 0 0 0 90 18H79V7a11 11 0 1 0 9.146 17.111Z" clip-rule="evenodd"/><path stroke="#66D2E6" stroke-linecap="round" stroke-width="2" d="m167 89 9.354-23.14c.097-.238.146-.492.146-.749V59"/><path fill="#E0E3EA" fill-rule="evenodd" d="M239.707 138.293a.999.999 0 0 1 0 1.414L234 145.414l-3.707-3.707a.999.999 0 1 1 1.414-1.414l2.293 2.293 4.293-4.293a.999.999 0 0 1 1.414 0Z" clip-rule="evenodd"/><path fill="#C3C8D5" fill-rule="evenodd" d="M31.707 23.293a1 1 0 0 1 0 1.414L26 30.414l-3.707-3.707a1 1 0 0 1 1.414-1.414L26 27.586l4.293-4.293a1 1 0 0 1 1.414 0Z" clip-rule="evenodd" opacity=".7"/><path fill="#66D2E6" d="M88 60a8 8 0 0 1 8-8h49.943a8 8 0 0 1 5.335 2.038L158.5 60.5l6.834 6.115A7.997 7.997 0 0 1 168 72.577V148a8 8 0 0 1-8 8H96a8 8 0 0 1-8-8V60Z"/><path fill="#EDEFF7" fill-rule="evenodd" d="M148 52v16a1 1 0 0 0 1 1h19v2h-19a3 3 0 0 1-3-3V52h2Z" clip-rule="evenodd"/><circle cx="117.598" cy="105.402" r="34.402" fill="#66D2E6"/><path fill="#EDEFF7" fill-rule="evenodd" d="M117.598 137.585c17.774 0 32.183-14.408 32.183-32.183 0-17.774-14.409-32.183-32.183-32.183s-32.183 14.41-32.183 32.183c0 17.775 14.409 32.183 32.183 32.183ZM152 105.402c0 19-15.402 34.403-34.402 34.403s-34.403-15.403-34.403-34.403S98.598 71 117.598 71 152 86.403 152 105.402Z" clip-rule="evenodd"/><circle cx="117.594" cy="105.403" r="23.415" fill="#99E1EE" stroke="#EDEFF7" stroke-width="2"/><path fill="#EBFBFF" fill-rule="evenodd" d="M126.644 100.298a1.06 1.06 0 0 1 .045 1.542l-7.654 7.773a1.16 1.16 0 0 1-.827.342 1.16 1.16 0 0 1-.826-.342l-3.202-3.251-5.216 5.296a1.172 1.172 0 0 1-1.608.044 1.06 1.06 0 0 1-.046-1.542l6.043-6.136c.215-.219.514-.342.827-.342.313 0 .612.123.827.342l3.201 3.251 6.828-6.933a1.172 1.172 0 0 1 1.608-.044Z" clip-rule="evenodd"/><path stroke="#EBFBFF" stroke-linecap="round" stroke-linejoin="round" stroke-width="2" d="M120.453 101h5.549v5.549"/><rect width="13.894" height="34.736" x="85.563" y="128.723" fill="#66D2E6" rx="2" transform="rotate(45 85.563 128.723)"/><path fill="#EBFBFF" fill-rule="evenodd" d="M135.916 102.764c-.677.391-1.537-.048-1.698-.813a15.521 15.521 0 0 0-5.245-8.72c-.611-.51-.577-1.502.113-1.9.373-.216.84-.19 1.173.084a17.749 17.749 0 0 1 6.168 10.253c.086.437-.125.874-.511 1.096Z" clip-rule="evenodd"/><rect width="6.947" height="6.947" x="91.703" y="127.495" fill="#66D2E6" rx="2" transform="rotate(45 91.703 127.495)"/><rect width="11.894" height="32.736" x="85.563" y="130.137" stroke="#EDEFF7" stroke-width="2" rx="1" transform="rotate(45 85.563 130.137)"/><rect width="4.947" height="6.832" x="92.867" y="127.746" stroke="#EDEFF7" stroke-width="2" rx="1" transform="rotate(45 92.867 127.746)"/><rect width="22" height="16" x="182" y="104" fill="#66D2E6" stroke="#66D2E6" stroke-width="2" rx="1"/><rect width="11" height="1" x="187.5" y="109.5" fill="#EBFBFF" stroke="#EDEFF7" rx=".5"/><rect width="6" height="1" x="187.5" y="113.5" fill="#EBFBFF" stroke="#EDEFF7" rx=".5"/><rect width="2" height="1" x="196.5" y="113.5" fill="#EBFBFF" stroke="#EDEFF7" rx=".5"/><rect width="22" height="16" x="55" y="62" fill="#66D2E6" stroke="#66D2E6" stroke-width="2" rx="1"/><rect width="12" height="2" x="60" y="67" fill="#EDEFF7" rx="1"/><rect width="7" height="2" x="60" y="71" fill="#EDEFF7" rx="1"/><rect width="3" height="2" x="69" y="71" fill="#EDEFF7" rx="1"/><path stroke="#66D2E6" stroke-linecap="round" stroke-width="2" d="M167 126h4.446c.363 0 .718-.099 1.029-.285L182 120"/><path stroke="#66D2E6" stroke-linecap="square" stroke-width="2" d="M87 86h-5.5a2 2 0 0 1-.941-.235L66 78"/><path fill="#99E1EE" fill-rule="evenodd" d="M174 179a2 2 0 0 0-2 2v18a2 2 0 0 0 2 2h2a2 2 0 0 0 2-2v-18a2 2 0 0 0-2-2h-2Zm-11 6a2 2 0 0 1 2-2h2a2 2 0 0 1 2 2v14a2 2 0 0 1-2 2h-2a2 2 0 0 1-2-2v-14Zm-9 4a2 2 0 0 1 2-2h2a2 2 0 0 1 2 2v10a2 2 0 0 1-2 2h-2a2 2 0 0 1-2-2v-10Z" clip-rule="evenodd"/><path fill="#E0E3EA" fill-rule="evenodd" d="M42 184a1 1 0 0 0-1 1v2h-2a1 1 0 0 0 0 2h2v2a1 1 0 0 0 2 0v-2h2a1 1 0 0 0 0-2h-2v-2a1 1 0 0 0-1-1ZM184 20a1 1 0 0 0-1 1v2h-2a1 1 0 0 0 0 2h2v2a1 1 0 0 0 2 0v-2h2a1 1 0 0 0 0-2h-2v-2a1 1 0 0 0-1-1Z" clip-rule="evenodd"/></svg>
