<svg xmlns="http://www.w3.org/2000/svg" width="60" height="24" fill="none"><path fill="#C3C8D5" d="M.702 22h11v2h-11v-2ZM.648 19h11v2h-11v-2ZM3.622 16h5v2h-5v-2ZM3.622 13h5v2h-5v-2ZM3.622 10h5v2h-5v-2ZM3.622 6h5v2h-5V6ZM11.622 3h-11v2h11V3ZM11.608 0h-11v2h11V0ZM14.602 21h17.356c.293-.617.511-1.29.644-2h-18v2ZM30.263 13H17.602v2h14a7.864 7.864 0 0 0-1.339-2ZM17.602 10v2h12.661a7.31 7.31 0 0 0 1.339-2h-14ZM31.958 3H14.602v2h18a9.93 9.93 0 0 0-.644-2ZM26.5 0H14.601v2h16c-1.07-1.234-2.521-2-4.103-2ZM22.602 6h-5v2h5V6ZM27.602 8h4.793a9.617 9.617 0 0 0 .207-2h-5v2ZM17.602 16h5v2h-5v-2ZM27.602 16v2h5c0-.688-.071-1.362-.207-2h-4.793ZM14.602 23.979 26.495 24c1.593 0 3.032-.766 4.107-2h-16v1.979ZM33.391 22h8v2h-8v-2ZM33.391 19h8v2h-8v-2ZM36.391 16h5v2h-5v-2ZM36.391 13h5v2h-5v-2ZM43.826 3H33.391v2h11l-.565-2ZM42.822 0h-9.43v2h10l-.57-2ZM51.391 22h8v2h-8v-2ZM51.391 19h8v2h-8v-2ZM51.391 16h5v2h-5v-2ZM51.391 13h5v2h-5v-2ZM51.388 12h5.003v-2H46.861l-.47 1.617-.47-1.617H36.392v2h5.003v-1.837L41.923 12h8.936l.53-1.837V12ZM56.391 6h-8.424l-.576 2h9V6ZM49.96 0l-.569 2h10V0h-9.43ZM46.891 24l.5-2h-1l.5 2ZM45.911 21h1.955l.525-2h-3l.52 2ZM43.913 18h3.956l.522-2h-5l.522 2ZM42.979 15h6.83l.582-2h-8l.588 2ZM36.391 8h9l-.576-2H36.39v2ZM48.391 5h11V3h-10.44l-.56 2Z"/></svg>