<svg xmlns="http://www.w3.org/2000/svg" width="84" height="24" fill="none"><g clip-path="url(#a)"><path fill="#C3C8D5" d="M14.89 22.718a5725.53 5725.53 0 0 0 7.28-1.293l.068-.014-3.744-4.47a636.973 636.973 0 0 1-3.745-4.492c0-.023 3.867-10.71 3.889-10.748.007-.012 2.638 4.547 6.378 11.053l6.415 11.16.049.086-11.9-.002-11.901-.001 7.211-1.279Zm45.637-1.08c-1.811-.117-2.865-1.153-3.144-3.09-.074-.516-.075-.53-.082-3.876l-.008-3.24h1.604l.006 3.134c.006 2.824.01 3.155.036 3.353.11.806.327 1.348.697 1.738.296.31.643.493 1.122.59.227.046.87.046 1.077 0 .487-.107.877-.32 1.22-.665.392-.393.682-.951.823-1.582l.047-.213.005-3.16.006-3.159h1.637v9.934h-1.62v-.788c0-.536-.006-.786-.019-.782a.65.65 0 0 0-.092.142 3.3 3.3 0 0 1-1.254 1.26c-.611.337-1.224.457-2.06.403Zm18.387-.009a4.237 4.237 0 0 1-1.863-.61c-1.16-.72-1.846-1.908-2.047-3.541-.07-.565-.078-1.325-.02-1.805.13-1.073.55-2.127 1.148-2.88.153-.192.501-.541.694-.695a4.312 4.312 0 0 1 1.77-.848 5.727 5.727 0 0 1 1.435-.084 3.77 3.77 0 0 1 2.544 1.312c.634.757.982 1.815 1.027 3.117.007.205.008.562.004.796l-.01.424-3.508.005-3.509.004v.157c0 .478.116 1.023.316 1.487.173.4.47.836.714 1.048.5.433 1.11.692 1.779.755.248.023.88-.002 1.162-.045a4.916 4.916 0 0 0 2.191-.907 5.51 5.51 0 0 1 .155-.114c.018-.012.023.132.022.733v.748l-.166.103c-.7.434-1.502.713-2.352.818-.253.031-1.183.045-1.486.022Zm3.054-6.306c0-.801-.337-1.691-.813-2.15a2.23 2.23 0 0 0-1.239-.603 3.648 3.648 0 0 0-.961.028 2.51 2.51 0 0 0-1.313.7 3.593 3.593 0 0 0-.868 1.395c-.067.193-.144.51-.168.686l-.011.084H81.968v-.14ZM34.37 21.38l2.648-6.982 2.64-6.96h1.697l.07.181c.215.554 5.286 13.768 5.286 13.774 0 .005-.406.009-.903.009h-.902l-.73-1.954-.732-1.953H37.56l-.026.067c-.014.036-.326.915-.693 1.953l-.669 1.886h-.904c-.716 0-.903-.004-.897-.021Zm8.537-5.375c0-.003-.492-1.341-1.093-2.974-1.124-3.054-1.187-3.238-1.276-3.728-.042-.23-.063-.236-.087-.026-.018.15-.095.485-.154.671-.03.092-.536 1.488-1.125 3.1a472.93 472.93 0 0 0-1.072 2.948c0 .008 1.081.015 2.403.015 1.323 0 2.404-.003 2.404-.006Zm4.35 5.142v-.254l2.932-4.045 2.931-4.045-2.654-.01-2.654-.008-.005-.676-.005-.676h7.679v.457l-2.932 4.067a1313.01 1313.01 0 0 0-2.932 4.075c0 .005 1.303.009 2.897.009h2.896v1.36H47.258v-.254Zm21.514.243c-.007-.006-.012-2.25-.012-4.985v-4.972H70.363v1.025c0 .564.006 1.025.015 1.025a.918.918 0 0 0 .086-.205c.18-.517.493-1 .895-1.384a2.317 2.317 0 0 1 1.267-.631c.137-.023.253-.027.528-.02.345.01.525.035.735.104l.066.021v1.67l-.19-.095a2.015 2.015 0 0 0-1.06-.214 2.008 2.008 0 0 0-1.644.952 4.82 4.82 0 0 0-.67 1.934c-.013.118-.021 1.082-.024 2.98l-.005 2.807h-.79c-.433 0-.794-.006-.8-.012ZM.608 21.355c0-.006 1.765-3.08 3.921-6.832l3.921-6.82 4.57-3.848C15.533 1.738 17.596.003 17.604 0a.809.809 0 0 1-.073.186c-.05.105-2.282 4.912-4.962 10.681l-4.873 10.49-3.544.005c-1.949.003-3.544 0-3.544-.007Z"/></g><defs><clipPath id="a"><path fill="#fff" d="M.608 0h83v24h-83z"/></clipPath></defs></svg>