<svg xmlns="http://www.w3.org/2000/svg" width="64" height="64" fill="none"><path fill="#0089D6" d="M43.007 46.623c-.068.014-5.954 1.048-13.08 2.299L16.97 51.195l21.382.002 21.381.003-.087-.152-11.526-19.84c-6.72-11.566-11.447-19.672-11.46-19.65-.04.068-6.986 19.067-6.986 19.106 0 .02 3.027 3.614 6.728 7.985l6.727 7.948-.122.026ZM11.311 34.353a4881.29 4881.29 0 0 0-7.044 12.145c0 .011 2.865.017 6.366.012L17 46.502l8.756-18.649 8.915-18.99c.087-.187.146-.335.132-.33-.015.006-3.722 3.09-8.237 6.853l-8.21 6.842-7.045 12.125Z"/></svg>
