<svg xmlns="http://www.w3.org/2000/svg" width="64" height="64" fill="none"><path fill="#2684FF" d="M55.46 6.4H30.806a11.13 11.13 0 0 0 11.13 11.13h4.542v4.385c.004 6.141 4.981 11.119 11.123 11.123v-24.5c0-1.18-.958-2.138-2.14-2.138Z"/><path fill="url(#a)" d="M43.262 18.684H18.607c.004 6.142 4.981 11.12 11.123 11.123h4.542v4.4c.007 6.14 4.988 11.115 11.13 11.115V20.824a2.14 2.14 0 0 0-2.14-2.14Z"/><path fill="url(#b)" d="M31.055 30.962H6.4c0 6.147 4.983 11.13 11.13 11.13h4.556v4.385c.004 6.136 4.973 11.111 11.109 11.123V33.1a2.14 2.14 0 0 0-2.14-2.139Z"/><defs><linearGradient id="a" x1="44.874" x2="34.45" y1="18.727" y2="29.605" gradientUnits="userSpaceOnUse"><stop offset=".18" stop-color="#0052CC"/><stop offset="1" stop-color="#2684FF"/></linearGradient><linearGradient id="b" x1="33.373" x2="21.314" y1="31.083" y2="42.947" gradientUnits="userSpaceOnUse"><stop offset=".18" stop-color="#0052CC"/><stop offset="1" stop-color="#2684FF"/></linearGradient></defs></svg>
