<svg xmlns="http://www.w3.org/2000/svg" width="64" height="64" fill="none"><path fill="#2684FF" d="m56.987 31.386-22.78-22.78L31.999 6.4 7.013 31.386a2.097 2.097 0 0 0 0 2.963l15.666 15.666L32 59.337l24.988-24.988a2.096 2.096 0 0 0 0-2.963Zm-24.988 9.307-7.825-7.825L32 25.042l7.826 7.826L32 40.694Z"/><path fill="url(#a)" d="M31.999 25.041c-5.123-5.125-5.149-13.425-.054-18.58L14.818 23.58l9.322 9.322 7.859-7.862Z"/><path fill="url(#b)" d="m39.847 32.846-7.849 7.847a13.178 13.178 0 0 1 0 18.644l17.168-17.169-9.32-9.322Z"/><defs><linearGradient id="a" x1="28.636" x2="19.674" y1="19.092" y2="28.052" gradientUnits="userSpaceOnUse"><stop stop-color="#0052CC"/><stop offset="1" stop-color="#2684FF"/></linearGradient><linearGradient id="b" x1="35.459" x2="44.403" y1="46.557" y2="37.613" gradientUnits="userSpaceOnUse"><stop stop-color="#0052CC"/><stop offset="1" stop-color="#2684FF"/></linearGradient></defs></svg>
