<svg xmlns="http://www.w3.org/2000/svg" width="64" height="64" fill="none"><path fill="#00AAF2" d="M38.938 30.99c1.209.007 2.418.013 3.627.013 1.211 0 2.423-.006 3.632-.013a335.08 335.08 0 0 1 7.192.013c1.008 0 1.41-.289 1.353-1.357-.038-1.137-.025-2.273-.013-3.409.007-.568.013-1.136.013-1.704.039-3.085.026-6.208.013-9.318-.006-1.55-.013-3.097-.013-4.634 0-.095.004-.193.008-.29.026-.642.052-1.276-1.073-1.126-5.57.845-11.14 1.641-16.711 2.438-1.857.265-3.714.53-5.57.797-.95.174-1.296.52-1.296 1.531.058 5.171.058 10.313 0 15.541 0 1.3.46 1.531 1.584 1.531 2.418-.038 4.836-.026 7.254-.013ZM54.8 53.621v-9.619c0-.801-.004-1.601-.007-2.4V41.6c-.011-2.398-.022-4.791.064-7.217 0-1.069-.288-1.531-1.468-1.531-7.225 0-14.48 0-21.85-.058-1.122 0-1.468.347-1.468 1.473v.03c.058 5.16.115 10.292 0 15.396 0 1.415.461 1.877 1.756 2.05 1.8.253 3.6.504 5.402.755 5.403.753 10.806 1.506 16.16 2.308 1.065.173 1.41-.058 1.41-1.185ZM18.556 32.939h8.119c.863 0 1.237.288 1.237 1.184v16.06c0 .925-.403 1.012-1.237.925a1663.83 1663.83 0 0 0-16.121-2.34c-1.065-.173-1.41-.52-1.41-1.646.057-4.275.057-8.55 0-12.912 0-1.07.287-1.358 1.352-1.358 2.735.087 5.354.087 8.06.087ZM10.554 31.003h8.002c1.303 0 2.627-.014 3.959-.028 1.345-.015 2.698-.03 4.044-.03 1.008 0 1.468-.173 1.468-1.3V14.279c0-1.01-.115-1.415-1.353-1.242a503.595 503.595 0 0 1-16.12 2.34c-1.066.173-1.353.52-1.353 1.53a465.57 465.57 0 0 1 0 12.682c0 1.069.345 1.415 1.353 1.415Z"/></svg>
