<svg xmlns="http://www.w3.org/2000/svg" width="64" height="64" fill="none"><path fill="url(#a)" d="M6.857 16A9.143 9.143 0 0 1 16 6.857h32A9.143 9.143 0 0 1 57.143 16v32A9.143 9.143 0 0 1 48 57.143H16A9.143 9.143 0 0 1 6.857 48V16Z"/><path fill="#fff" fill-rule="evenodd" d="M18.286 20.571A2.286 2.286 0 0 0 16 22.857v18.286a2.286 2.286 0 0 0 2.286 2.286h27.428A2.286 2.286 0 0 0 48 41.143V22.857a2.286 2.286 0 0 0-2.286-2.286H18.286ZM32 33.934l13.714-9.494V24c0-.631-.511-1.143-1.143-1.143H19.43c-.632 0-1.143.512-1.143 1.143v.44L32 33.933Z" clip-rule="evenodd"/><path fill="#000" d="M45.712 43.427 16 22.857a2.286 2.286 0 0 1 2.286-2.285h6.204l21.222 22.855Z" opacity=".07"/><defs><linearGradient id="a" x1="32" x2="32" y1="6.857" y2="57.143" gradientUnits="userSpaceOnUse"><stop stop-color="#00B9FF"/><stop offset=".797" stop-color="#0082FF"/></linearGradient></defs></svg>
