<svg xmlns="http://www.w3.org/2000/svg" width="64" height="64" fill="none"><path fill="#E53E4B" fill-rule="evenodd" d="M30.396 6.896c-.299.019-.876.073-1.284.12-7.37.862-13.965 4.942-18.109 11.2-3.16 4.776-4.6 10.6-4.02 16.27.687 6.734 4.047 12.89 9.36 17.15a25.257 25.257 0 0 0 9.979 4.854 24.945 24.945 0 0 0 16.959-2.044 25.19 25.19 0 0 0 11.218-11.284 22.525 22.525 0 0 0 1.355-3.275 24.895 24.895 0 0 0 .704-13.265c-1.285-5.852-4.672-11.095-9.524-14.745a25.068 25.068 0 0 0-13.532-4.984 32.386 32.386 0 0 0-3.106.003Zm3.857 5.603c2.36.295 4.325.875 6.318 1.863 3.846 1.908 7.12 5.18 9.044 9.033 1.127 2.26 1.745 4.543 1.947 7.19.063.83.027 2.819-.065 3.608-.525 4.49-2.424 8.382-5.676 11.635a20.24 20.24 0 0 1-3.207 2.631c-.774.512-1.261.79-2.19 1.249-2.014.994-3.942 1.55-6.317 1.82-.628.071-2.883.097-3.67.042-4.143-.289-7.714-1.718-10.78-4.315-.556-.47-1.962-1.89-2.538-2.563-2.631-3.07-4.149-6.523-4.614-10.499-.148-1.268-.127-3.38.048-4.755.686-5.39 3.674-10.25 8.345-13.57 2.58-1.835 5.68-3.01 8.872-3.363.896-.099.867-.098 2.44-.087 1.082.008 1.631.03 2.043.082Zm-2.96 2.176c-.68.058-1.52.163-2.002.25-2.874.52-5.456 1.686-7.673 3.465-.645.517-1.719 1.55-2.25 2.164-4.006 4.637-5.276 11.309-3.274 17.206.736 2.168 1.812 4.018 3.37 5.793.455.518 1.822 1.862 2.279 2.24.457.377.69.549.645.474l-.21-.331a11.17 11.17 0 0 1-1.689-4.855c-.064-.636-.028-2.146.064-2.737.662-4.242 3.35-7.657 7.302-9.276 2.708-1.11 5.994-1.118 8.74-.023a11.83 11.83 0 0 1 6.21 5.69c.594 1.182.926 2.22 1.145 3.588.09.566.128 2.168.065 2.78-.178 1.721-.856 3.62-1.77 4.958l-.128.188.206-.18c.114-.1.489-.419.833-.709 1.165-.983 1.945-1.803 2.763-2.905 1.963-2.646 3.139-5.861 3.387-9.263.284-3.896-.867-8.206-3.117-11.68a25.31 25.31 0 0 0-1.247-1.701c-.19-.227-.832-.826-1.327-1.238-2.565-2.132-5.562-3.395-9.07-3.82-.533-.065-2.775-.118-3.253-.078Zm-.022 15.642c-2.583.35-4.867 1.687-6.412 3.752a9.46 9.46 0 0 0-1.421 8.663 9.459 9.459 0 0 0 3.733 4.872c.44.291 1.244.74 1.244.695 0-.01-.076-.11-.168-.22-.404-.49-.681-1.246-.744-2.033-.07-.88.057-1.608.411-2.352a5.151 5.151 0 0 1 2.478-2.475c1.47-.689 3.322-.492 4.667.496 1.63 1.197 2.352 3.267 1.76 5.04-.153.455-.34.852-.609 1.291-.195.319-.196.319.357.062 1.282-.596 2.52-1.7 3.399-3.031 1.47-2.226 1.941-5.012 1.306-7.713-.656-2.788-2.438-5.083-4.85-6.244a9.189 9.189 0 0 0-2.724-.806c-.604-.077-1.848-.076-2.427.003Z" clip-rule="evenodd"/></svg>
