<svg xmlns="http://www.w3.org/2000/svg" width="64" height="64" fill="none"><path fill="#CB3939" fill-rule="evenodd" d="M33.586 44.395c-7.68.955-23.576 2.635-27.186.243 0-2.45 4.36-11.622 7.688-18.409 2.508-5.114 5.944-9.74 8.99-13.842a202.62 202.62 0 0 0 2.817-3.854c-5.242 7.797-14.633 25.02-11.431 30.819 1.473 3.688 14.366 5.567 19.122 5.043Zm2.853-34.57c-3.897 1.89-10.538 16.43-13.624 23.527 1.969-4.36 10.147-14.503 14.071-13.895 6.622.194 16.67 17.042 20.714 25.522-.616-1.371-1.236-2.846-1.884-4.386-1.981-4.71-4.215-10.021-7.341-14.783-4.149-6.318-9.828-14.738-11.936-15.985Zm16.91 44.072c.411-4.311-8.553-17.544-13.01-23.871 2.7 3.949 7.11 16.209 4.55 19.245-3.61 5.555-23.225 5.375-32.571 4.42 1.491.187 3.074.424 4.726.672 5.053.757 10.751 1.61 16.444 1.416 7.554-.257 17.7-.73 19.861-1.882Z" clip-rule="evenodd"/></svg>
