<svg xmlns="http://www.w3.org/2000/svg" width="64" height="64" fill="none"><path fill="#E1251B" d="M12.638 39.418a20.405 20.405 0 0 1-1.376-7.445 20.839 20.839 0 0 1 6.173-14.703 20.82 20.82 0 0 1 14.757-6.026c.98.004 1.96.072 2.93.204l-2.345 2.374h-.637a18.205 18.205 0 0 0-14.535 7.234 18.238 18.238 0 0 0-2.996 15.965h15.953l-6.778 12.468 16.055-16.267H17.92L42.614 8.695A25.319 25.319 0 0 0 32.04 6.4a25.658 25.658 0 0 0-15.48 5.217 25.691 25.691 0 0 0-8.389 29.83 25.676 25.676 0 0 0 10.49 12.53l7.645-14.457-13.667-.102Zm32.78-29.347-7.645 14.458h13.685a20.792 20.792 0 0 1-9.723 25.836 20.763 20.763 0 0 1-9.67 2.39 23.92 23.92 0 0 1-3.033-.205l2.32-2.346h.72c4.833 0 9.467-1.92 12.885-5.339a18.233 18.233 0 0 0 5.336-12.89 19.975 19.975 0 0 0-.688-4.948h-15.96l6.651-12.57-16.36 16.292h21.968L21.49 55.378a25.654 25.654 0 0 0 18.829.813 25.67 25.67 0 0 0 14.307-12.273 25.691 25.691 0 0 0-9.207-33.846l-.001-.001Z"/></svg>
