<svg xmlns="http://www.w3.org/2000/svg" width="14" height="16" fill="none"><path fill="#8791AB" d="M12.715 0H3.143a.143.143 0 0 0-.142.143v1c0 .078.064.143.142.143h8.858V13.57c0 .079.064.143.142.143h1a.143.143 0 0 0 .143-.143v-13A.57.57 0 0 0 12.715 0Zm-2.286 2.286H1.286a.57.57 0 0 0-.571.571v9.477c0 .152.06.296.168.404l3.094 3.094c.04.04.084.072.132.098v.034h.075a.563.563 0 0 0 .197.036h6.048a.57.57 0 0 0 .572-.571V2.857a.57.57 0 0 0-.572-.571Zm-6.321 11.86L2.57 12.607h1.538v1.54Zm5.607.568H5.25V12.18a.714.714 0 0 0-.715-.715H2.001V3.571h7.714v11.143Z"/></svg>