<svg width="45" height="31" viewBox="0 0 45 31" xmlns="http://www.w3.org/2000/svg"><title>36BFAF9E-E3E1-4F53-AADC-AA0F6B51150F</title><g fill="none" fill-rule="evenodd"><path d="M25 10h-5v4h5v-4zm0-5h-5v4h5V5zm0-5h-5v4h5V0zm6 10h-5v4h5v-4zm-18 0H8v4h5v-4zm6 0h-5v4h5v-4zM7 10H2v4h5v-4zm12-5h-5v4h5V5zm-6 0H8v4h5V5z" fill="#79D6D9" fill-rule="nonzero"/><path d="M36 7l-1 1c-.825.631-1.174 2.495-1 4 .058.942.408 1.99 1 3-.476.039-1.058.272-2 1-.571-.146-1.619-.03-3 0H0v1c-.163 1.883.186 4.214 1 6l.5 1c2.377 4.903 7.882 7 13.5 7 10.329 0 18.942-4.544 23-14 2.693-.214 5.37-.913 7-3v-1h-1c-1.095-1.34-3.19-1.456-5-1-.17-1.854-1.333-3.369-3-5z" fill="#D9F2F4"/><path d="M9 25c-.81 0-2-1.125-2-2 0-1.875 1.071-3 2-3 1.929 0 3 1.125 3 3 0 .875-1.19 2-3 2z" fill="#79D6D9"/></g></svg>