<svg width="32" height="32" viewBox="0 0 32 32" xmlns="http://www.w3.org/2000/svg" xmlns:xlink="http://www.w3.org/1999/xlink"><title>0319C5C7-36F4-4F1E-8FFB-B028EB3FE341</title><defs><path d="M4 7c0-2.761 2.244-5 5-5 2.761 0 5 2.244 5 5 0 2.761-2.244 5-5 5-2.761 0-5-2.244-5-5z" id="a"/><mask id="d" x="0" y="0" width="10" height="10" fill="#fff"><use xlink:href="#a"/></mask><path id="b" d="M23 10h9v9h-9z"/><mask id="e" x="0" y="0" width="9" height="9" fill="#fff"><use xlink:href="#b"/></mask><path id="c" d="M17 19v11H6z"/><mask id="f" x="0" y="0" width="11" height="11" fill="#fff"><use xlink:href="#c"/></mask></defs><g fill="none" fill-rule="evenodd"><g><use fill="#D9F2F4" xlink:href="#a"/><use stroke="#79D6D9" mask="url(#d)" stroke-width="2" fill="#79D6D9" xlink:href="#a"/></g><g><use fill="#D9F2F4" xlink:href="#b"/><use stroke="#79D6D9" mask="url(#e)" stroke-width="2" fill="#79D6D9" xlink:href="#b"/></g><g><use fill="#D9F2F4" xlink:href="#c"/><use stroke="#79D6D9" mask="url(#f)" stroke-width="2" fill="#79D6D9" xlink:href="#c"/></g><path d="M3.021 15.955C1.73 19.163 2.701 23 5.957 25.057c.695.198 1.389.397 1.204-.628a5.15 5.15 0 0 1-.854-.774c-2.634-1.551-3.283-4.832-1.897-7.302l1.04 1.8c.274.33.638.434 1.388.397-.19-.287-.098-.653-.52-.9l-1.557-2.699c-.175-.785-.538-.89-.52-.9L.763 16.06c-.148.085-.24.451.52.9-.425.131 1.738-1.005 1.738-1.005zM26.176 5.575C24.55 2.523 20.986.8 17.317 1.973c-.598.405-1.197.809-.292 1.326a5.15 5.15 0 0 1 1.141-.156c2.881-1.021 5.812.59 6.813 3.24l-2.046-.36c-.43-.002-.744.209-1.198.808.342.039.564.344 1.023.18l3.07.542c.713.37 1.026.16 1.023.18l.697-3.956c.03-.168-.192-.473-1.023-.18.171-.41-.349 1.978-.349 1.978zM22.348 29.682c3.424-.485 6.26-3.245 6.414-7.093-.175-.7-.35-1.402-1.146-.728a5.15 5.15 0 0 1-.243 1.126c-.026 3.056-2.543 5.259-5.375 5.293l1.038-1.799c.15-.404.058-.77-.35-1.402-.153.308-.516.412-.52.9l-1.558 2.699c-.592.544-.5.91-.519.9l3.478 2.008c.148.085.511-.019.52-.9.326.301-1.74-1.004-1.74-1.004z" fill="#79D6D9"/></g></svg>