<svg width="33" height="28" viewBox="0 0 33 28" xmlns="http://www.w3.org/2000/svg" xmlns:xlink="http://www.w3.org/1999/xlink"><title>E3F16323-DF23-4D7A-9870-E121268D7448</title><defs><rect id="a" width="28" height="22" rx="3"/><filter x="-50%" y="-50%" width="200%" height="200%" filterUnits="objectBoundingBox" id="c"><feOffset dy="-2" in="SourceAlpha" result="shadowOffsetInner1"/><feComposite in="shadowOffsetInner1" in2="SourceAlpha" operator="arithmetic" k2="-1" k3="1" result="shadowInnerInner1"/><feColorMatrix values="0 0 0 0 0.474509804 0 0 0 0 0.839215686 0 0 0 0 0.850980392 0 0 0 1 0" in="shadowInnerInner1"/></filter><mask id="d" x="0" y="0" width="28" height="22" fill="#fff"><use xlink:href="#a"/></mask><rect id="b" x="22" y="12" width="9" height="14" rx="2"/><filter x="-50%" y="-50%" width="200%" height="200%" filterUnits="objectBoundingBox" id="e"><feOffset dy="-2" in="SourceAlpha" result="shadowOffsetInner1"/><feComposite in="shadowOffsetInner1" in2="SourceAlpha" operator="arithmetic" k2="-1" k3="1" result="shadowInnerInner1"/><feColorMatrix values="0 0 0 0 0.474509804 0 0 0 0 0.839215686 0 0 0 0 0.850980392 0 0 0 1 0" in="shadowInnerInner1"/></filter><mask id="f" x="0" y="0" width="9" height="14" fill="#fff"><use xlink:href="#b"/></mask><mask id="g" x="-1" y="-1" width="11" height="16"><path fill="#fff" d="M21 11h11v16H21z"/><use xlink:href="#b"/></mask></defs><g fill="none" fill-rule="evenodd"><path fill="#79D6D9" d="M12 20h4v5h-4zM9 25h10v1H9z"/><g><use fill="#D9F2F4" xlink:href="#a"/><use fill="#000" filter="url(#c)" xlink:href="#a"/><use stroke="#79D6D9" mask="url(#d)" stroke-width="2" xlink:href="#a"/></g><path fill="#79D6D9" d="M14 13.306l3.09 1.785-.82-3.364L19 9.464l-3.595-.292L14 6l-1.405 3.172L9 9.464l2.73 2.263-.82 3.364z"/><g><use fill="#FFF" xlink:href="#b"/><use fill="#D9F2F4" xlink:href="#b"/><use fill="#000" filter="url(#e)" xlink:href="#b"/><use stroke="#79D6D9" mask="url(#f)" stroke-width="2" xlink:href="#b"/><use stroke="#FCFFFF" mask="url(#g)" stroke-width="2" xlink:href="#b"/></g></g></svg>