<svg width="38" height="32" viewBox="0 0 38 32" xmlns="http://www.w3.org/2000/svg" xmlns:xlink="http://www.w3.org/1999/xlink"><title>A83BB0FC-6D69-49F9-9F69-C4435320D007</title><defs><path d="M14 18l-5 5 5 4v-3h8v-3h-8v-3zm18-1l-5-5v3h-8v3h8v3l5-4z" id="a"/><mask id="b" x="0" y="0" width="23" height="15" fill="#fff"><use xlink:href="#a"/></mask></defs><g transform="translate(-1)" fill="none" fill-rule="evenodd"><path d="M32 14c-.875-5.783-5.933-10-12-10-4.817 0-8.992 2.665-11 7-5.092.085-9 4.22-9 10 0 4.637 4.475 9 11 9h20c5.267 0 9-3.64 9-8 0-4.415-3.425-7.893-8-8z" fill="#D9F2F4"/><use stroke="#79D6D9" mask="url(#b)" stroke-width="2" fill="#7BD7DA" transform="matrix(-1 0 0 1 41 0)" xlink:href="#a"/></g></svg>