<svg width="43" height="27" viewBox="0 0 43 27" xmlns="http://www.w3.org/2000/svg"><title>11468750-C69F-4315-97F8-DEC736143AC7</title><g fill="none" fill-rule="evenodd"><path d="M20.5 6.5V19M23 6.5l12.295 12.82M18.295 6.5L6 19.32" stroke="#79D6D9"/><rect fill="#79D6D9" transform="rotate(45 36.364 20.364)" x="31.864" y="15.864" width="9" height="9" rx="2"/><path d="M14 18h13c1.065 0 1.325.637 1 1l-6 7c-.887 1.195-2.109 1.204-3 0l-6-7c-.322-.355-.066-1 1-1z" fill="#D9F2F4"/><rect fill="#D9F2F4" y="16" width="10" height="10" rx="5"/><rect fill="#D9F2F4" x="5" width="31" height="7" rx="2"/><path d="M5 2.006C5 .898 5.9 0 6.992 0H16v7H6.992C5.892 7 5 6.113 5 4.994V2.006z" fill="#79D6D9"/></g></svg>