<svg xmlns="http://www.w3.org/2000/svg" width="690" height="488" fill="none"><g clip-path="url(#a)"><path fill="url(#b)" d="M572 202.194C572 279.161 315.935 380 226.57 380 137.205 380 95 199.651 95 122.684 95 45.717 158.509 34 247.874 34 398.524 34 572 125.227 572 202.194Z"/><path fill="url(#c)" d="M446.213 383.929c-9.128-34.067 73.145-103.95 106.032-112.762 60.797-23.977 78.528 53.978 78.936 100.92.194 22.412-12.854 45.516-45.74 54.328-55.44 14.855-130.1-8.418-139.228-42.486Z"/><path fill="url(#d)" d="m151 339 233.5-135 226 130.5-234 134.5L151 339Z"/><path fill="#F3F5FA" d="m151 323 233.5-135 226 130.5-234 134.5L151 323Z"/><g opacity=".8"><path fill="url(#e)" d="M450 393.5 250.5 278l36.5-21.5L488 372l-38 21.5Z"/><path fill="url(#f)" d="M450 393.5 250.5 278l36.5-21.5L488 372l-38 21.5Z"/><path fill="url(#g)" d="M450 393.5 250.5 278l36.5-21.5L488 372l-38 21.5Z"/></g><path fill="#8791AB" d="M442.5 368 286 278l2.5-2 154 88v4Z"/><path fill="#DCE3FF" d="m271 45.5 13 8v232l-13-7.5V45.5Z"/><path fill="url(#h)" d="m284 53.5 13-8V278l-13 7.5v-232Z"/><path fill="url(#i)" fill-opacity=".53" d="m284 53.5 13-8V278l-13 7.5v-232Z"/><path fill="url(#j)" fill-opacity=".62" d="m284 53.5 13-8V278l-13 7.5v-232Z"/><g opacity=".8"><path fill="url(#k)" d="m284 53.5-13-8 13-7.5 13 7.5-13 8Z"/><path fill="url(#l)" d="m284 53.5-13-8 13-7.5 13 7.5-13 8Z"/><path fill="url(#m)" d="m284 53.5-13-8 13-7.5 13 7.5-13 8Z"/></g><path fill="#00B4D5" d="M445.5 336 289 245.5V159l156.5 90.5V336Z" opacity=".4"/><path fill="#32C8FC" d="M445.5 165 289 75l3-1.5L445.5 161v4ZM445.5 335.5l-156.5-90 3-1.5 153.5 87.5v4Z" opacity=".5"/><mask id="n" width="752" height="443" x="-31" y="18" maskUnits="userSpaceOnUse" style="mask-type:alpha"><path fill="#D9D9D9" d="M529.5 18-31 334.5l202.5 126 549-334.5-191-108Z"/></mask><g mask="url(#n)"><g filter="url(#o)"><path fill="#fff" d="m403.515 126.695 127.49-73.609A12 12 0 0 1 543 53.083l79.472 45.834c4.007 2.311 4.003 8.095-.008 10.4l-127.734 73.39a12.001 12.001 0 0 1-11.964-.005l-79.244-45.611c-4.006-2.306-4.01-8.085-.007-10.396Z"/></g><path fill="#C3C8D5" fill-rule="evenodd" d="m530.986 64.028 2.009-1.163a6.001 6.001 0 0 1 6.013 0l40.009 23.163c1.996 1.155 1.996 4.037 0 5.192l-2.009 1.164a6.001 6.001 0 0 1-6.013 0L530.986 69.22c-1.996-1.155-1.996-4.037 0-5.192Zm-56.485 97.991 2.005-1.16a5.998 5.998 0 0 1 5.997-.009l12.491 7.182c2.003 1.152 2.007 4.04.008 5.197l-2.005 1.161a6.003 6.003 0 0 1-5.997.009l-12.491-7.183c-2.003-1.152-2.007-4.04-.008-5.197Zm108.38-45.587-68.349-39.833a5.597 5.597 0 0 0-5.185-.236c-2.047.955-2.177 3.816-.225 4.954l68.349 39.832a5.596 5.596 0 0 0 5.185.236c2.047-.955 2.177-3.816.225-4.953Zm-92.349-25.833 68.349 39.833c1.952 1.137 1.822 3.998-.225 4.953a5.596 5.596 0 0 1-5.185-.236l-68.349-39.832c-1.952-1.138-1.822-3.999.225-4.954a5.597 5.597 0 0 1 5.185.236Zm-22.545 10.266-28.007 16.173c-1.995 1.152-2.001 4.03-.011 5.19l68.025 39.644a6.004 6.004 0 0 0 6.022.012l28.007-16.174c1.995-1.152 2.001-4.03.011-5.19l-68.025-39.643a6 6 0 0 0-6.022-.012Zm34.545-17.266 68.349 39.833c1.952 1.137 1.822 3.998-.225 4.953a5.596 5.596 0 0 1-5.185-.236l-68.349-39.832c-1.952-1.138-1.822-3.999.225-4.954a5.597 5.597 0 0 1 5.185.236Z" clip-rule="evenodd" opacity=".7"/><g filter="url(#p)"><path fill="#fff" d="m228.138 227.949 127.489-73.608a11.998 11.998 0 0 1 11.995-.003l79.473 45.833c4.007 2.311 4.002 8.095-.009 10.4l-127.733 73.39a11.999 11.999 0 0 1-11.964-.005l-79.244-45.611c-4.006-2.306-4.01-8.085-.007-10.396Z"/></g><path fill="#C3C8D5" fill-rule="evenodd" d="m355.609 165.282 2.009-1.163a5.997 5.997 0 0 1 6.012 0l40.01 23.163c1.995 1.155 1.995 4.037 0 5.193l-2.01 1.163a6.002 6.002 0 0 1-6.012 0l-40.009-23.163c-1.996-1.156-1.996-4.038 0-5.193Zm-56.485 97.991 2.004-1.16a5.998 5.998 0 0 1 5.997-.009l12.492 7.182c2.002 1.152 2.006 4.04.007 5.197l-2.004 1.161a6 6 0 0 1-5.997.009l-12.491-7.183c-2.003-1.151-2.007-4.039-.008-5.197Zm108.38-45.587-68.349-39.833a5.596 5.596 0 0 0-5.185-.236c-2.047.955-2.177 3.816-.226 4.954l68.349 39.832a5.599 5.599 0 0 0 5.185.237c2.047-.956 2.177-3.817.226-4.954Zm-92.349-25.833 68.349 39.833c1.951 1.137 1.821 3.998-.226 4.954a5.599 5.599 0 0 1-5.185-.237l-68.349-39.832c-1.951-1.138-1.821-3.999.226-4.954a5.596 5.596 0 0 1 5.185.236Zm-22.545 10.266-28.008 16.173c-1.995 1.152-2.001 4.03-.01 5.19l68.025 39.644a6 6 0 0 0 6.021.012l28.008-16.174c1.995-1.152 2.001-4.03.01-5.19l-68.025-39.643a5.997 5.997 0 0 0-6.021-.012Zm34.545-17.266 68.349 39.833c1.951 1.137 1.821 3.998-.226 4.954a5.599 5.599 0 0 1-5.185-.237l-68.349-39.832c-1.951-1.138-1.821-3.999.226-4.954a5.596 5.596 0 0 1 5.185.236Z" clip-rule="evenodd" opacity=".7"/><g filter="url(#q)"><path fill="#fff" d="m52.76 329.203 127.49-73.608a12 12 0 0 1 11.996-.003l79.472 45.833c4.007 2.311 4.002 8.096-.009 10.4l-127.733 73.39a11.999 11.999 0 0 1-11.964-.005l-79.244-45.611c-4.006-2.306-4.01-8.085-.007-10.396Z"/></g><path fill="#C3C8D5" fill-rule="evenodd" d="m180.232 266.536 2.009-1.163a5.997 5.997 0 0 1 6.012 0l40.01 23.163c1.995 1.156 1.995 4.037 0 5.193l-2.01 1.163a5.997 5.997 0 0 1-6.012 0l-40.009-23.163c-1.996-1.156-1.996-4.037 0-5.193Zm-56.485 97.991 2.004-1.16a5.998 5.998 0 0 1 5.997-.009l12.492 7.183c2.002 1.151 2.007 4.039.007 5.197l-2.004 1.16a6 6 0 0 1-5.997.009l-12.491-7.183c-2.003-1.151-2.007-4.039-.008-5.197Zm108.38-45.587-68.349-39.833a5.596 5.596 0 0 0-5.185-.236c-2.047.955-2.177 3.817-.226 4.954l68.349 39.833a5.599 5.599 0 0 0 5.185.236c2.047-.955 2.177-3.817.226-4.954Zm-92.349-25.833 68.349 39.833c1.951 1.137 1.821 3.999-.226 4.954a5.599 5.599 0 0 1-5.185-.236l-68.349-39.833c-1.951-1.137-1.821-3.999.226-4.954a5.596 5.596 0 0 1 5.185.236Zm-22.545 10.266-28.008 16.173c-1.995 1.152-2 4.03-.01 5.19l68.025 39.644a6 6 0 0 0 6.021.012l28.008-16.174c1.995-1.152 2.001-4.029.01-5.189l-68.025-39.644a6 6 0 0 0-6.021-.012Zm34.545-17.266 68.349 39.833c1.951 1.137 1.821 3.999-.226 4.954a5.599 5.599 0 0 1-5.185-.236l-68.349-39.833c-1.951-1.137-1.821-3.999.226-4.954a5.596 5.596 0 0 1 5.185.236Z" clip-rule="evenodd" opacity=".7"/></g><path fill="#00B4D5" d="M445.5 249.5 289 159V75l156.5 90v84.5Z" opacity=".4"/><path fill="#DCE3FF" d="m440 142 13 8v232l-13-7.5V142Z"/><path fill="url(#r)" d="m453 150 13-8v232.5l-13 7.5V150Z"/><path fill="url(#s)" fill-opacity=".53" d="m453 150 13-8v232.5l-13 7.5V150Z"/><path fill="url(#t)" fill-opacity=".62" d="m453 150 13-8v232.5l-13 7.5V150Z"/><g opacity=".8"><path fill="url(#u)" d="m453 150-13-8 13-7.5 13 7.5-13 8Z"/><path fill="url(#v)" d="m453 150-13-8 13-7.5 13 7.5-13 8Z"/><path fill="url(#w)" d="m453 150-13-8 13-7.5 13 7.5-13 8Z"/></g><g filter="url(#x)"><path fill="#DCE3FF" d="M502.013 307.341 457 281.5v-84l47.974 27.541A11.999 11.999 0 0 1 511 235.448v66.689c0 4.612-4.987 7.5-8.987 5.204Z"/></g><g filter="url(#y)"><path fill="#00B4D5" d="M498.014 295.576 463 275.548V212l35.965 20.572a10 10 0 0 1 5.035 8.681v50.851c0 3.072-3.319 4.997-5.986 3.472Z"/></g><g filter="url(#z)"><path stroke="#fff" stroke-linecap="round" stroke-width="6" d="m289.46 122.198 149.31 86.204"/></g><g filter="url(#A)"><path stroke="#fff" stroke-linecap="round" stroke-linejoin="round" stroke-width="4" d="m474 257.839 4.098 8.161L491 252"/></g></g><defs><linearGradient id="b" x1="333.5" x2="283.473" y1="34" y2="421.642" gradientUnits="userSpaceOnUse"><stop offset=".026" stop-color="#CFECFD" stop-opacity=".99"/><stop offset=".226" stop-color="#D9D3ED" stop-opacity=".788"/><stop offset="1" stop-color="#FD71AF" stop-opacity=".01"/></linearGradient><linearGradient id="c" x1="557.151" x2="537" y1="433.995" y2="256" gradientUnits="userSpaceOnUse"><stop stop-color="#CEEFFF"/><stop offset=".026" stop-color="#CFECFD" stop-opacity=".83"/><stop offset="1" stop-color="#FD71AF" stop-opacity=".01"/></linearGradient><linearGradient id="d" x1="249" x2="435.5" y1="-49" y2="483.5" gradientUnits="userSpaceOnUse"><stop stop-color="#00B4D5"/><stop offset="1" stop-color="#DCE3FF"/></linearGradient><linearGradient id="e" x1="250.5" x2="484.409" y1="325" y2="296.02" gradientUnits="userSpaceOnUse"><stop offset=".198" stop-color="#F2FDFF"/><stop offset="1" stop-color="#FFBFF1"/></linearGradient><linearGradient id="f" x1="306.143" x2="380.049" y1="283.629" y2="414.558" gradientUnits="userSpaceOnUse"><stop stop-color="#FEAFE7" stop-opacity=".76"/><stop offset=".083" stop-color="#fff" stop-opacity=".917"/><stop offset="1" stop-color="#E2F7FB" stop-opacity="0"/></linearGradient><linearGradient id="g" x1="440.5" x2="312.351" y1="282.951" y2="510.211" gradientUnits="userSpaceOnUse"><stop stop-color="#BB66E1"/><stop offset=".094" stop-color="#fff" stop-opacity="0"/><stop offset=".969" stop-color="#F8DBEC"/></linearGradient><linearGradient id="h" x1="297" x2="365.449" y1="46.331" y2="71.322" gradientUnits="userSpaceOnUse"><stop offset=".002" stop-color="#44DCFE"/><stop offset="1" stop-color="#3500D5"/></linearGradient><linearGradient id="i" x1="293.5" x2="263.972" y1="291.5" y2="286.463" gradientUnits="userSpaceOnUse"><stop stop-color="#077393" stop-opacity=".86"/><stop offset=".228" stop-color="#fff" stop-opacity=".6"/><stop offset="1" stop-color="#8CE0F0" stop-opacity="0"/></linearGradient><linearGradient id="j" x1="299.216" x2="284" y1="47.991" y2="47.991" gradientUnits="userSpaceOnUse"><stop stop-color="#0081A7" stop-opacity="0"/><stop offset=".209" stop-color="#EAEDFF" stop-opacity=".38"/><stop offset="1" stop-color="#D5DAFF"/></linearGradient><linearGradient id="k" x1="271" x2="296.632" y1="45.75" y2="42.677" gradientUnits="userSpaceOnUse"><stop offset=".198" stop-color="#F2FDFF"/><stop offset="1" stop-color="#FFBFF1"/></linearGradient><linearGradient id="l" x1="277.091" x2="285.593" y1="41.069" y2="55.643" gradientUnits="userSpaceOnUse"><stop stop-color="#FEAFE7" stop-opacity=".76"/><stop offset=".083" stop-color="#fff" stop-opacity=".917"/><stop offset="1" stop-color="#E2F7FB" stop-opacity="0"/></linearGradient><linearGradient id="m" x1="291.8" x2="277.058" y1="40.993" y2="66.289" gradientUnits="userSpaceOnUse"><stop stop-color="#BB66E1"/><stop offset=".094" stop-color="#fff" stop-opacity="0"/><stop offset=".969" stop-color="#F8DBEC"/></linearGradient><linearGradient id="r" x1="466" x2="534.449" y1="142.83" y2="167.822" gradientUnits="userSpaceOnUse"><stop offset=".002" stop-color="#44DCFE"/><stop offset="1" stop-color="#3500D5"/></linearGradient><linearGradient id="s" x1="462.5" x2="432.972" y1="388" y2="382.963" gradientUnits="userSpaceOnUse"><stop stop-color="#077393" stop-opacity=".86"/><stop offset=".228" stop-color="#fff" stop-opacity=".6"/><stop offset="1" stop-color="#8CE0F0" stop-opacity="0"/></linearGradient><linearGradient id="t" x1="468.216" x2="453" y1="144.491" y2="144.491" gradientUnits="userSpaceOnUse"><stop stop-color="#0081A7" stop-opacity="0"/><stop offset=".209" stop-color="#EAEDFF" stop-opacity=".38"/><stop offset="1" stop-color="#D5DAFF"/></linearGradient><linearGradient id="u" x1="440" x2="465.632" y1="142.25" y2="139.177" gradientUnits="userSpaceOnUse"><stop offset=".198" stop-color="#F2FDFF"/><stop offset="1" stop-color="#FFBFF1"/></linearGradient><linearGradient id="v" x1="446.091" x2="454.593" y1="137.569" y2="152.143" gradientUnits="userSpaceOnUse"><stop stop-color="#FEAFE7" stop-opacity=".76"/><stop offset=".083" stop-color="#fff" stop-opacity=".917"/><stop offset="1" stop-color="#E2F7FB" stop-opacity="0"/></linearGradient><linearGradient id="w" x1="460.8" x2="446.058" y1="137.493" y2="162.789" gradientUnits="userSpaceOnUse"><stop stop-color="#BB66E1"/><stop offset=".094" stop-color="#fff" stop-opacity="0"/><stop offset=".969" stop-color="#F8DBEC"/></linearGradient><filter id="o" width="224.959" height="136.823" x="400.515" y="51.479" color-interpolation-filters="sRGB" filterUnits="userSpaceOnUse"><feFlood flood-opacity="0" result="BackgroundImageFix"/><feColorMatrix in="SourceAlpha" result="hardAlpha" values="0 0 0 0 0 0 0 0 0 0 0 0 0 0 0 0 0 0 127 0"/><feOffset dy="4"/><feComposite in2="hardAlpha" operator="out"/><feColorMatrix values="0 0 0 0 0.663542 0 0 0 0 0.710657 0 0 0 0 0.816667 0 0 0 1 0"/><feBlend in2="BackgroundImageFix" result="effect1_dropShadow_4547_91845"/><feBlend in="SourceGraphic" in2="effect1_dropShadow_4547_91845" result="shape"/></filter><filter id="p" width="224.959" height="136.823" x="225.138" y="152.733" color-interpolation-filters="sRGB" filterUnits="userSpaceOnUse"><feFlood flood-opacity="0" result="BackgroundImageFix"/><feColorMatrix in="SourceAlpha" result="hardAlpha" values="0 0 0 0 0 0 0 0 0 0 0 0 0 0 0 0 0 0 127 0"/><feOffset dy="4"/><feComposite in2="hardAlpha" operator="out"/><feColorMatrix values="0 0 0 0 0.663542 0 0 0 0 0.710657 0 0 0 0 0.816667 0 0 0 1 0"/><feBlend in2="BackgroundImageFix" result="effect1_dropShadow_4547_91845"/><feBlend in="SourceGraphic" in2="effect1_dropShadow_4547_91845" result="shape"/></filter><filter id="q" width="224.959" height="136.823" x="49.761" y="253.987" color-interpolation-filters="sRGB" filterUnits="userSpaceOnUse"><feFlood flood-opacity="0" result="BackgroundImageFix"/><feColorMatrix in="SourceAlpha" result="hardAlpha" values="0 0 0 0 0 0 0 0 0 0 0 0 0 0 0 0 0 0 127 0"/><feOffset dy="4"/><feComposite in2="hardAlpha" operator="out"/><feColorMatrix values="0 0 0 0 0.663542 0 0 0 0 0.710657 0 0 0 0 0.816667 0 0 0 1 0"/><feBlend in2="BackgroundImageFix" result="effect1_dropShadow_4547_91845"/><feBlend in="SourceGraphic" in2="effect1_dropShadow_4547_91845" result="shape"/></filter><filter id="x" width="60" height="110.646" x="457" y="197.5" color-interpolation-filters="sRGB" filterUnits="userSpaceOnUse"><feFlood flood-opacity="0" result="BackgroundImageFix"/><feColorMatrix in="SourceAlpha" result="hardAlpha" values="0 0 0 0 0 0 0 0 0 0 0 0 0 0 0 0 0 0 127 0"/><feOffset dx="6"/><feComposite in2="hardAlpha" operator="out"/><feColorMatrix values="0 0 0 0 0.529412 0 0 0 0 0.568627 0 0 0 0 0.670588 0 0 0 1 0"/><feBlend in2="BackgroundImageFix" result="effect1_dropShadow_4547_91845"/><feBlend in="SourceGraphic" in2="effect1_dropShadow_4547_91845" result="shape"/></filter><filter id="y" width="41" height="84.11" x="463" y="212" color-interpolation-filters="sRGB" filterUnits="userSpaceOnUse"><feFlood flood-opacity="0" result="BackgroundImageFix"/><feBlend in="SourceGraphic" in2="BackgroundImageFix" result="shape"/><feColorMatrix in="SourceAlpha" result="hardAlpha" values="0 0 0 0 0 0 0 0 0 0 0 0 0 0 0 0 0 0 127 0"/><feOffset dx="2" dy="-1"/><feComposite in2="hardAlpha" k2="-1" k3="1" operator="arithmetic"/><feColorMatrix values="0 0 0 0 0 0 0 0 0 0 0 0 0 0 0 0 0 0 0.25 0"/><feBlend in2="shape" result="effect1_innerShadow_4547_91845"/></filter><filter id="z" width="177.311" height="114.205" x="275.46" y="110.197" color-interpolation-filters="sRGB" filterUnits="userSpaceOnUse"><feFlood flood-opacity="0" result="BackgroundImageFix"/><feColorMatrix in="SourceAlpha" result="hardAlpha" values="0 0 0 0 0 0 0 0 0 0 0 0 0 0 0 0 0 0 127 0"/><feOffset dy="2"/><feGaussianBlur stdDeviation="5.5"/><feComposite in2="hardAlpha" operator="out"/><feColorMatrix values="0 0 0 0 0.817908 0 0 0 0 1 0 0 0 0 0.675 0 0 0 1 0"/><feBlend in2="BackgroundImageFix" result="effect1_dropShadow_4547_91845"/><feBlend in="SourceGraphic" in2="effect1_dropShadow_4547_91845" result="shape"/></filter><filter id="A" width="21" height="18" x="472" y="250" color-interpolation-filters="sRGB" filterUnits="userSpaceOnUse"><feFlood flood-opacity="0" result="BackgroundImageFix"/><feBlend in="SourceGraphic" in2="BackgroundImageFix" result="shape"/><feColorMatrix in="SourceAlpha" result="hardAlpha" values="0 0 0 0 0 0 0 0 0 0 0 0 0 0 0 0 0 0 127 0"/><feOffset dx="-2"/><feComposite in2="hardAlpha" k2="-1" k3="1" operator="arithmetic"/><feColorMatrix values="0 0 0 0 0.5125 0 0 0 0 0.91236 0 0 0 0 1 0 0 0 1 0"/><feBlend in2="shape" result="effect1_innerShadow_4547_91845"/></filter><clipPath id="a"><path fill="#fff" d="M0 0h690v488H0z"/></clipPath></defs></svg>
