<svg xmlns="http://www.w3.org/2000/svg" width="690" height="488" fill="none"><g clip-path="url(#a)"><path fill="url(#b)" d="M226.993 405.66c-36.481 17.952-132.546-56.619-149.392-90.853-39.806-61.508 44.334-99.104 97.16-110.417 25.222-5.401 54.006 3.644 70.852 37.877 28.399 57.71 17.86 145.441-18.62 163.393Z"/><path fill="url(#c)" d="M642.146 193.256C635.002 51.231 497.33 50.012 408.524 93.954 168.27 212.836 669.576 738.565 642.146 193.256Z"/><path fill="url(#d)" d="M344.5 195 115 327.5 344.5 460 574 327.5 344.5 195Z"/><path fill="#E1FEFF" d="M344.5 179 115 311.5 344.5 444 574 311.5 344.5 179Z"/><g opacity=".8"><path fill="url(#e)" d="M460 249 238 378l42.5 25.5 218-132L460 249Z"/><path fill="url(#f)" d="M460 249 238 378l42.5 25.5 218-132L460 249Z"/><path fill="url(#g)" d="M460 249 238 378l42.5 25.5 218-132L460 249Z"/></g><g opacity=".2"><path fill="url(#h)" d="M348 185 126 314l42.5 25.5 218-132L348 185Z"/><path fill="url(#i)" d="M348 185 126 314l42.5 25.5 218-132L348 185Z"/><path fill="url(#j)" d="M348 185 126 314l42.5 25.5 218-132L348 185Z"/></g><g opacity=".2"><path fill="url(#k)" d="M516 280 294 409l42.5 25.5 218-132L516 280Z"/><path fill="url(#l)" d="M516 280 294 409l42.5 25.5 218-132L516 280Z"/><path fill="url(#m)" d="M516 280 294 409l42.5 25.5 218-132L516 280Z"/></g><g opacity=".2"><path fill="url(#n)" d="M404 216 182 345l42.5 25.5 218-132L404 216Z"/><path fill="url(#o)" d="M404 216 182 345l42.5 25.5 218-132L404 216Z"/><path fill="url(#p)" d="M404 216 182 345l42.5 25.5 218-132L404 216Z"/></g><path stroke="#fff" stroke-dasharray="8 8" stroke-width="3" d="M263 385.5 478 261M205 355.5 420 231M153 319.5 368 195M324 418.5 539 294"/><g filter="url(#q)"><path stroke="#fff" stroke-linecap="round" stroke-width="4" d="m232 362.734.774-48.071L276.5 290l44.5 25.266v47.468L276.113 388 232 362.734Z" shape-rendering="crispEdges"/></g><path fill="#DCE3FF" d="m462 203.5 4.5 3v168L462 372V203.5Z"/><path fill="url(#r)" d="M466.5 206.5 510 181v168.5l-43.5 25v-168Z"/><path fill="url(#s)" fill-opacity=".53" d="M466.5 206.5 510 181v168.5l-43.5 25v-168Z"/><path fill="url(#t)" fill-opacity=".62" d="M466.5 206.5 510 181v168.5l-43.5 25v-168Z"/><path fill="#DCE3FF" d="m237 72.5 4.5 3v168L237 241V72.5Z"/><path fill="url(#u)" d="M241.5 75.5 285 50v168.5l-43.5 25v-168Z"/><path fill="url(#v)" fill-opacity=".53" d="M241.5 75.5 285 50v168.5l-43.5 25v-168Z"/><path fill="url(#w)" fill-opacity=".62" d="M241.5 75.5 285 50v168.5l-43.5 25v-168Z"/><path fill="url(#x)" d="M321 235.674v-47.395l-44.754 25.548V261L321 235.674Z"/><path fill="url(#y)" d="M321 235.674v-47.395l-44.754 25.548V261L321 235.674Z"/><path fill="url(#z)" d="M321 235.674v-47.395l-44.754 25.548V261L321 235.674Z"/><path fill="url(#A)" d="M276.246 213.827V261L232 235.704v-47.173l44.246 25.296Z"/><path fill="url(#B)" d="M276.246 213.827V261L232 235.704v-47.173l44.246 25.296Z"/><path fill="url(#C)" d="M276.246 213.827V261L232 235.704v-47.173l44.246 25.296Z"/><path fill="url(#D)" d="M271.414 213.442 232 235.334V191.55l39.414 21.892Z" opacity=".78"/><path fill="url(#E)" d="M276.5 163 232 188.531l44.246 25.298L321 188.279 276.5 163Z"/><path fill="url(#F)" d="M276.5 163 232 188.531l44.246 25.298L321 188.279 276.5 163Z"/><path fill="url(#G)" d="M276.5 163 232 188.531l44.246 25.298L321 188.279 276.5 163Z"/><g filter="url(#H)"><path fill="#DCE3FF" d="m250 79 36 20.666v14.304c0 4.612-4.987 7.5-8.987 5.204l-20.987-12.049A11.997 11.997 0 0 1 250 96.718V79Z"/></g><g filter="url(#I)"><path fill="#FF7272" d="m251.999 82.336 31.333 18.07v14.07c0 2.308-2.499 3.752-4.499 2.598l-21.83-12.589a10 10 0 0 1-5.004-8.663V82.336Z"/></g><path fill="#DCE3FF" d="m292 104.5 4.5 3v168L292 273V104.5Z"/><path fill="url(#J)" d="M296.5 107.5 340 82v168.5l-43.5 25v-168Z"/><path fill="url(#K)" fill-opacity=".53" d="M296.5 107.5 340 82v168.5l-43.5 25v-168Z"/><path fill="url(#L)" fill-opacity=".62" d="M296.5 107.5 340 82v168.5l-43.5 25v-168Z"/><g filter="url(#M)"><path fill="#DCE3FF" d="m305 111 36 20.666v14.304c0 4.612-4.987 7.5-8.987 5.204l-20.987-12.049A11.998 11.998 0 0 1 305 128.718V111Z"/></g><g filter="url(#N)"><path fill="#57F" d="m306.999 114.336 31.333 18.07v14.07c0 2.308-2.499 3.752-4.499 2.598l-21.83-12.589a10 10 0 0 1-5.004-8.663v-13.486Z"/></g><path fill="#DCE3FF" d="m347 136.5 4.5 3v168L347 305V136.5Z"/><path fill="url(#O)" d="M351.5 139.5 395 114v168.5l-43.5 25v-168Z"/><path fill="url(#P)" fill-opacity=".53" d="M351.5 139.5 395 114v168.5l-43.5 25v-168Z"/><path fill="url(#Q)" fill-opacity=".62" d="M351.5 139.5 395 114v168.5l-43.5 25v-168Z"/><g filter="url(#R)"><path fill="#DCE3FF" d="m360 144 36 20.666v14.304c0 4.612-4.987 7.5-8.987 5.204l-20.987-12.049A11.998 11.998 0 0 1 360 161.718V144Z"/></g><g filter="url(#S)"><path fill="#FFC800" d="m361.999 147.336 31.333 18.07v14.07c0 2.308-2.499 3.752-4.499 2.598l-21.83-12.589a10 10 0 0 1-5.004-8.663v-13.486Z"/></g><path fill="#DCE3FF" d="m402 167.5 4.5 3v168L402 336V167.5Z"/><path fill="url(#T)" d="M406.5 170.5 450 145v168.5l-43.5 25v-168Z"/><path fill="url(#U)" fill-opacity=".53" d="M406.5 170.5 450 145v168.5l-43.5 25v-168Z"/><path fill="url(#V)" fill-opacity=".62" d="M406.5 170.5 450 145v168.5l-43.5 25v-168Z"/><path fill="url(#W)" d="M321 362.674v-47.395l-44.754 25.548V388L321 362.674Z"/><path fill="url(#X)" d="M321 362.674v-47.395l-44.754 25.548V388L321 362.674Z"/><path fill="url(#Y)" d="M321 362.674v-47.395l-44.754 25.548V388L321 362.674Z"/><path fill="url(#Z)" d="M276.246 340.827V388L232 362.704v-47.173l44.246 25.296Z"/><path fill="url(#aa)" d="M276.246 340.827V388L232 362.704v-47.173l44.246 25.296Z"/><path fill="url(#ab)" d="M276.246 340.827V388L232 362.704v-47.173l44.246 25.296Z"/><path fill="url(#ac)" d="M271.414 340.442 232 362.334V318.55l39.414 21.892Z" opacity=".78"/><path fill="url(#ad)" d="M276.5 290 232 315.531l44.246 25.298L321 315.279 276.5 290Z"/><path fill="url(#ae)" d="M276.5 290 232 315.531l44.246 25.298L321 315.279 276.5 290Z"/><path fill="url(#af)" d="M276.5 290 232 315.531l44.246 25.298L321 315.279 276.5 290Z"/><g filter="url(#ag)"><path fill="#DCE3FF" d="m417 177 36 20.666v14.304c0 4.612-4.987 7.5-8.987 5.204l-20.987-12.049A11.998 11.998 0 0 1 417 194.718V177Z"/></g><g filter="url(#ah)"><path fill="#C3C8D5" d="m418.999 180.336 31.333 18.07v14.07c0 2.308-2.498 3.752-4.498 2.598l-21.831-12.589a10.002 10.002 0 0 1-5.004-8.663v-13.486Z"/></g><g opacity=".8"><path fill="url(#ai)" d="M466.5 206.5 237 72.5l43.5-25L510 181l-43.5 25.5Z"/><path fill="url(#aj)" d="M466.5 206.5 237 72.5l43.5-25L510 181l-43.5 25.5Z"/><path fill="url(#ak)" d="M466.5 206.5 237 72.5l43.5-25L510 181l-43.5 25.5Z"/></g></g><defs><linearGradient id="b" x1="260.104" x2="63.197" y1="271.715" y2="333.494" gradientUnits="userSpaceOnUse"><stop stop-color="#CEEFFF"/><stop offset=".026" stop-color="#CFECFD" stop-opacity=".83"/><stop offset="1" stop-color="#FD71AF" stop-opacity=".01"/></linearGradient><linearGradient id="c" x1="580.66" x2="346.089" y1="83.371" y2="387.807" gradientUnits="userSpaceOnUse"><stop offset=".026" stop-color="#CFECFD" stop-opacity=".99"/><stop offset=".226" stop-color="#D9D3ED" stop-opacity=".788"/><stop offset="1" stop-color="#FD71AF" stop-opacity=".01"/></linearGradient><linearGradient id="d" x1="212.893" x2="399.552" y1="-58" y2="474.373" gradientUnits="userSpaceOnUse"><stop stop-color="#00B4D5"/><stop offset="1" stop-color="#DCE3FF"/></linearGradient><linearGradient id="e" x1="279.5" x2="451.857" y1="316" y2="294.657" gradientUnits="userSpaceOnUse"><stop offset=".198" stop-color="#F2FDFF"/><stop offset="1" stop-color="#FFBFF1"/></linearGradient><linearGradient id="f" x1="320.5" x2="375" y1="285.5" y2="382" gradientUnits="userSpaceOnUse"><stop stop-color="#FEAFE7" stop-opacity=".76"/><stop offset=".083" stop-color="#fff" stop-opacity=".917"/><stop offset="1" stop-color="#E2F7FB" stop-opacity="0"/></linearGradient><linearGradient id="g" x1="368.75" x2="368.75" y1="245.5" y2="405.5" gradientUnits="userSpaceOnUse"><stop stop-color="#8892AC"/><stop offset="1" stop-color="#ADACF2"/></linearGradient><linearGradient id="h" x1="167.5" x2="339.857" y1="252" y2="230.657" gradientUnits="userSpaceOnUse"><stop offset=".198" stop-color="#F2FDFF"/><stop offset="1" stop-color="#FFBFF1"/></linearGradient><linearGradient id="i" x1="208.5" x2="263" y1="221.5" y2="318" gradientUnits="userSpaceOnUse"><stop stop-color="#FEAFE7" stop-opacity=".76"/><stop offset=".083" stop-color="#fff" stop-opacity=".917"/><stop offset="1" stop-color="#E2F7FB" stop-opacity="0"/></linearGradient><linearGradient id="j" x1="256.75" x2="256.75" y1="181.5" y2="341.5" gradientUnits="userSpaceOnUse"><stop stop-color="#8892AC"/><stop offset="1" stop-color="#ADACF2"/></linearGradient><linearGradient id="k" x1="335.5" x2="507.857" y1="347" y2="325.657" gradientUnits="userSpaceOnUse"><stop offset=".198" stop-color="#F2FDFF"/><stop offset="1" stop-color="#FFBFF1"/></linearGradient><linearGradient id="l" x1="376.5" x2="431" y1="316.5" y2="413" gradientUnits="userSpaceOnUse"><stop stop-color="#FEAFE7" stop-opacity=".76"/><stop offset=".083" stop-color="#fff" stop-opacity=".917"/><stop offset="1" stop-color="#E2F7FB" stop-opacity="0"/></linearGradient><linearGradient id="m" x1="424.75" x2="424.75" y1="276.5" y2="436.5" gradientUnits="userSpaceOnUse"><stop stop-color="#8892AC"/><stop offset="1" stop-color="#ADACF2"/></linearGradient><linearGradient id="n" x1="223.5" x2="395.857" y1="283" y2="261.657" gradientUnits="userSpaceOnUse"><stop offset=".198" stop-color="#F2FDFF"/><stop offset="1" stop-color="#FFBFF1"/></linearGradient><linearGradient id="o" x1="264.5" x2="319" y1="252.5" y2="349" gradientUnits="userSpaceOnUse"><stop stop-color="#FEAFE7" stop-opacity=".76"/><stop offset=".083" stop-color="#fff" stop-opacity=".917"/><stop offset="1" stop-color="#E2F7FB" stop-opacity="0"/></linearGradient><linearGradient id="p" x1="312.75" x2="312.75" y1="212.5" y2="372.5" gradientUnits="userSpaceOnUse"><stop stop-color="#8892AC"/><stop offset="1" stop-color="#ADACF2"/></linearGradient><linearGradient id="r" x1="479.5" x2="551.253" y1="135.33" y2="156.984" gradientUnits="userSpaceOnUse"><stop offset=".002" stop-color="#44DCFE"/><stop offset="1" stop-color="#3500D5"/></linearGradient><linearGradient id="s" x1="517" x2="469.159" y1="374.5" y2="242.458" gradientUnits="userSpaceOnUse"><stop stop-color="#077393" stop-opacity=".86"/><stop offset=".228" stop-color="#fff" stop-opacity=".6"/><stop offset="1" stop-color="#8CE0F0" stop-opacity="0"/></linearGradient><linearGradient id="t" x1="542" x2="466.5" y1="122" y2="136.991" gradientUnits="userSpaceOnUse"><stop stop-color="#0081A7" stop-opacity="0"/><stop offset=".209" stop-color="#EAEDFF" stop-opacity=".38"/><stop offset="1" stop-color="#D5DAFF"/></linearGradient><linearGradient id="u" x1="254.5" x2="326.253" y1="4.33" y2="25.983" gradientUnits="userSpaceOnUse"><stop offset=".002" stop-color="#44DCFE"/><stop offset="1" stop-color="#3500D5"/></linearGradient><linearGradient id="v" x1="292" x2="244.159" y1="243.5" y2="111.458" gradientUnits="userSpaceOnUse"><stop stop-color="#077393" stop-opacity=".86"/><stop offset=".228" stop-color="#fff" stop-opacity=".6"/><stop offset="1" stop-color="#8CE0F0" stop-opacity="0"/></linearGradient><linearGradient id="w" x1="317" x2="241.5" y1="-9" y2="5.991" gradientUnits="userSpaceOnUse"><stop stop-color="#0081A7" stop-opacity="0"/><stop offset=".209" stop-color="#EAEDFF" stop-opacity=".38"/><stop offset="1" stop-color="#D5DAFF"/></linearGradient><linearGradient id="x" x1="321" x2="335.667" y1="188.531" y2="249.373" gradientUnits="userSpaceOnUse"><stop offset=".002" stop-color="#44DCFE"/><stop offset="1" stop-color="#3500D5"/></linearGradient><linearGradient id="y" x1="301.42" x2="285.666" y1="252.193" y2="220.857" gradientUnits="userSpaceOnUse"><stop stop-color="#077393" stop-opacity=".86"/><stop offset=".228" stop-color="#fff" stop-opacity=".6"/><stop offset="1" stop-color="#8CE0F0" stop-opacity="0"/></linearGradient><linearGradient id="z" x1="328.628" x2="276.246" y1="189.034" y2="189.034" gradientUnits="userSpaceOnUse"><stop stop-color="#0081A7" stop-opacity="0"/><stop offset=".209" stop-color="#EAEDFF" stop-opacity=".38"/><stop offset="1" stop-color="#D5DAFF"/></linearGradient><linearGradient id="A" x1="232" x2="228.047" y1="191.299" y2="261.886" gradientUnits="userSpaceOnUse"><stop offset=".002" stop-color="#fff"/><stop offset="1" stop-color="#5DE5FE"/></linearGradient><linearGradient id="B" x1="258.7" x2="278.224" y1="252.948" y2="218.8" gradientUnits="userSpaceOnUse"><stop stop-color="#57CEE4"/><stop offset=".109" stop-color="#fff" stop-opacity=".519"/><stop offset="1" stop-color="#DEF7FF"/></linearGradient><linearGradient id="C" x1="229.966" x2="278.026" y1="226.527" y2="226.527" gradientUnits="userSpaceOnUse"><stop stop-color="#7BD4E6"/><stop offset=".088" stop-color="#fff" stop-opacity=".51"/><stop offset="1" stop-color="#32C8FC" stop-opacity=".13"/></linearGradient><linearGradient id="D" x1="251.707" x2="251.707" y1="191.55" y2="235.334" gradientUnits="userSpaceOnUse"><stop offset=".05" stop-color="#F0DFF8" stop-opacity="0"/><stop offset="1" stop-color="#C2E0FC"/></linearGradient><linearGradient id="E" x1="232" x2="319.628" y1="188.415" y2="177.449" gradientUnits="userSpaceOnUse"><stop offset=".198" stop-color="#F2FDFF"/><stop offset="1" stop-color="#FFBFF1"/></linearGradient><linearGradient id="F" x1="252.851" x2="280.13" y1="173.065" y2="221.875" gradientUnits="userSpaceOnUse"><stop stop-color="#FEAFE7" stop-opacity=".76"/><stop offset=".083" stop-color="#fff" stop-opacity=".917"/><stop offset="1" stop-color="#E2F7FB" stop-opacity="0"/></linearGradient><linearGradient id="G" x1="303.2" x2="255.901" y1="172.814" y2="257.535" gradientUnits="userSpaceOnUse"><stop stop-color="#BB66E1"/><stop offset=".094" stop-color="#fff" stop-opacity="0"/><stop offset=".969" stop-color="#F8DBEC"/></linearGradient><linearGradient id="J" x1="309.5" x2="381.253" y1="36.33" y2="57.983" gradientUnits="userSpaceOnUse"><stop offset=".002" stop-color="#44DCFE"/><stop offset="1" stop-color="#3500D5"/></linearGradient><linearGradient id="K" x1="347" x2="299.159" y1="275.5" y2="143.458" gradientUnits="userSpaceOnUse"><stop stop-color="#077393" stop-opacity=".86"/><stop offset=".228" stop-color="#fff" stop-opacity=".6"/><stop offset="1" stop-color="#8CE0F0" stop-opacity="0"/></linearGradient><linearGradient id="L" x1="372" x2="296.5" y1="23" y2="37.991" gradientUnits="userSpaceOnUse"><stop stop-color="#0081A7" stop-opacity="0"/><stop offset=".209" stop-color="#EAEDFF" stop-opacity=".38"/><stop offset="1" stop-color="#D5DAFF"/></linearGradient><linearGradient id="O" x1="364.5" x2="436.253" y1="68.33" y2="89.984" gradientUnits="userSpaceOnUse"><stop offset=".002" stop-color="#44DCFE"/><stop offset="1" stop-color="#3500D5"/></linearGradient><linearGradient id="P" x1="402" x2="354.159" y1="307.5" y2="175.458" gradientUnits="userSpaceOnUse"><stop stop-color="#077393" stop-opacity=".86"/><stop offset=".228" stop-color="#fff" stop-opacity=".6"/><stop offset="1" stop-color="#8CE0F0" stop-opacity="0"/></linearGradient><linearGradient id="Q" x1="427" x2="351.5" y1="55" y2="69.991" gradientUnits="userSpaceOnUse"><stop stop-color="#0081A7" stop-opacity="0"/><stop offset=".209" stop-color="#EAEDFF" stop-opacity=".38"/><stop offset="1" stop-color="#D5DAFF"/></linearGradient><linearGradient id="T" x1="419.5" x2="491.253" y1="99.33" y2="120.984" gradientUnits="userSpaceOnUse"><stop offset=".002" stop-color="#44DCFE"/><stop offset="1" stop-color="#3500D5"/></linearGradient><linearGradient id="U" x1="457" x2="409.159" y1="338.5" y2="206.458" gradientUnits="userSpaceOnUse"><stop stop-color="#077393" stop-opacity=".86"/><stop offset=".228" stop-color="#fff" stop-opacity=".6"/><stop offset="1" stop-color="#8CE0F0" stop-opacity="0"/></linearGradient><linearGradient id="V" x1="482" x2="406.5" y1="86" y2="100.991" gradientUnits="userSpaceOnUse"><stop stop-color="#0081A7" stop-opacity="0"/><stop offset=".209" stop-color="#EAEDFF" stop-opacity=".38"/><stop offset="1" stop-color="#D5DAFF"/></linearGradient><linearGradient id="W" x1="321" x2="335.667" y1="315.531" y2="376.373" gradientUnits="userSpaceOnUse"><stop offset=".002" stop-color="#44DCFE"/><stop offset="1" stop-color="#3500D5"/></linearGradient><linearGradient id="X" x1="301.42" x2="285.666" y1="379.193" y2="347.857" gradientUnits="userSpaceOnUse"><stop stop-color="#077393" stop-opacity=".86"/><stop offset=".228" stop-color="#fff" stop-opacity=".6"/><stop offset="1" stop-color="#8CE0F0" stop-opacity="0"/></linearGradient><linearGradient id="Y" x1="328.628" x2="276.246" y1="316.034" y2="316.034" gradientUnits="userSpaceOnUse"><stop stop-color="#0081A7" stop-opacity="0"/><stop offset=".209" stop-color="#EAEDFF" stop-opacity=".38"/><stop offset="1" stop-color="#D5DAFF"/></linearGradient><linearGradient id="Z" x1="232" x2="228.047" y1="318.299" y2="388.886" gradientUnits="userSpaceOnUse"><stop offset=".002" stop-color="#fff"/><stop offset="1" stop-color="#5DE5FE"/></linearGradient><linearGradient id="aa" x1="258.7" x2="278.224" y1="379.948" y2="345.8" gradientUnits="userSpaceOnUse"><stop stop-color="#57CEE4"/><stop offset=".109" stop-color="#fff" stop-opacity=".519"/><stop offset="1" stop-color="#DEF7FF"/></linearGradient><linearGradient id="ab" x1="229.966" x2="278.026" y1="353.527" y2="353.527" gradientUnits="userSpaceOnUse"><stop stop-color="#7BD4E6"/><stop offset=".088" stop-color="#fff" stop-opacity=".51"/><stop offset="1" stop-color="#32C8FC" stop-opacity=".13"/></linearGradient><linearGradient id="ac" x1="251.707" x2="251.707" y1="318.55" y2="362.334" gradientUnits="userSpaceOnUse"><stop offset=".05" stop-color="#F0DFF8" stop-opacity="0"/><stop offset="1" stop-color="#C2E0FC"/></linearGradient><linearGradient id="ad" x1="232" x2="319.628" y1="315.415" y2="304.449" gradientUnits="userSpaceOnUse"><stop offset=".198" stop-color="#F2FDFF"/><stop offset="1" stop-color="#FFBFF1"/></linearGradient><linearGradient id="ae" x1="252.851" x2="280.13" y1="300.065" y2="348.875" gradientUnits="userSpaceOnUse"><stop stop-color="#FEAFE7" stop-opacity=".76"/><stop offset=".083" stop-color="#fff" stop-opacity=".917"/><stop offset="1" stop-color="#E2F7FB" stop-opacity="0"/></linearGradient><linearGradient id="af" x1="303.2" x2="255.901" y1="299.814" y2="384.535" gradientUnits="userSpaceOnUse"><stop stop-color="#BB66E1"/><stop offset=".094" stop-color="#fff" stop-opacity="0"/><stop offset=".969" stop-color="#F8DBEC"/></linearGradient><linearGradient id="ai" x1="450" x2="475.632" y1="194.75" y2="191.677" gradientUnits="userSpaceOnUse"><stop offset=".198" stop-color="#F2FDFF"/><stop offset="1" stop-color="#FFBFF1"/></linearGradient><linearGradient id="aj" x1="449.5" x2="464.854" y1="180.5" y2="204.453" gradientUnits="userSpaceOnUse"><stop stop-color="#FEAFE7" stop-opacity=".76"/><stop offset=".083" stop-color="#fff" stop-opacity=".917"/><stop offset="1" stop-color="#E2F7FB" stop-opacity="0"/></linearGradient><linearGradient id="ak" x1="492" x2="455.16" y1="157" y2="214.676" gradientUnits="userSpaceOnUse"><stop stop-color="#BB66E1"/><stop offset=".094" stop-color="#fff" stop-opacity="0"/><stop offset=".969" stop-color="#F8DBEC"/></linearGradient><filter id="q" width="145.019" height="154.598" x="203.981" y="285.702" color-interpolation-filters="sRGB" filterUnits="userSpaceOnUse"><feFlood flood-opacity="0" result="BackgroundImageFix"/><feColorMatrix in="SourceAlpha" result="hardAlpha" values="0 0 0 0 0 0 0 0 0 0 0 0 0 0 0 0 0 0 127 0"/><feOffset dy="24"/><feGaussianBlur stdDeviation="13"/><feComposite in2="hardAlpha" operator="out"/><feColorMatrix values="0 0 0 0 0.514323 0 0 0 0 0.537982 0 0 0 0 0.9875 0 0 0 1 0"/><feBlend in2="BackgroundImageFix" result="effect1_dropShadow_4547_100601"/><feBlend in="SourceGraphic" in2="effect1_dropShadow_4547_100601" result="shape"/></filter><filter id="H" width="42" height="40.979" x="250" y="79" color-interpolation-filters="sRGB" filterUnits="userSpaceOnUse"><feFlood flood-opacity="0" result="BackgroundImageFix"/><feColorMatrix in="SourceAlpha" result="hardAlpha" values="0 0 0 0 0 0 0 0 0 0 0 0 0 0 0 0 0 0 127 0"/><feOffset dx="6"/><feComposite in2="hardAlpha" operator="out"/><feColorMatrix values="0 0 0 0 0.529412 0 0 0 0 0.568627 0 0 0 0 0.670588 0 0 0 1 0"/><feBlend in2="BackgroundImageFix" result="effect1_dropShadow_4547_100601"/><feBlend in="SourceGraphic" in2="effect1_dropShadow_4547_100601" result="shape"/></filter><filter id="I" width="31.334" height="35.145" x="251.999" y="82.336" color-interpolation-filters="sRGB" filterUnits="userSpaceOnUse"><feFlood flood-opacity="0" result="BackgroundImageFix"/><feBlend in="SourceGraphic" in2="BackgroundImageFix" result="shape"/><feColorMatrix in="SourceAlpha" result="hardAlpha" values="0 0 0 0 0 0 0 0 0 0 0 0 0 0 0 0 0 0 127 0"/><feOffset dx="2" dy="-1"/><feComposite in2="hardAlpha" k2="-1" k3="1" operator="arithmetic"/><feColorMatrix values="0 0 0 0 0 0 0 0 0 0 0 0 0 0 0 0 0 0 0.25 0"/><feBlend in2="shape" result="effect1_innerShadow_4547_100601"/></filter><filter id="M" width="42" height="40.979" x="305" y="111" color-interpolation-filters="sRGB" filterUnits="userSpaceOnUse"><feFlood flood-opacity="0" result="BackgroundImageFix"/><feColorMatrix in="SourceAlpha" result="hardAlpha" values="0 0 0 0 0 0 0 0 0 0 0 0 0 0 0 0 0 0 127 0"/><feOffset dx="6"/><feComposite in2="hardAlpha" operator="out"/><feColorMatrix values="0 0 0 0 0.529412 0 0 0 0 0.568627 0 0 0 0 0.670588 0 0 0 1 0"/><feBlend in2="BackgroundImageFix" result="effect1_dropShadow_4547_100601"/><feBlend in="SourceGraphic" in2="effect1_dropShadow_4547_100601" result="shape"/></filter><filter id="N" width="31.334" height="35.145" x="306.999" y="114.336" color-interpolation-filters="sRGB" filterUnits="userSpaceOnUse"><feFlood flood-opacity="0" result="BackgroundImageFix"/><feBlend in="SourceGraphic" in2="BackgroundImageFix" result="shape"/><feColorMatrix in="SourceAlpha" result="hardAlpha" values="0 0 0 0 0 0 0 0 0 0 0 0 0 0 0 0 0 0 127 0"/><feOffset dx="2" dy="-1"/><feComposite in2="hardAlpha" k2="-1" k3="1" operator="arithmetic"/><feColorMatrix values="0 0 0 0 0 0 0 0 0 0 0 0 0 0 0 0 0 0 0.25 0"/><feBlend in2="shape" result="effect1_innerShadow_4547_100601"/></filter><filter id="R" width="42" height="40.979" x="360" y="144" color-interpolation-filters="sRGB" filterUnits="userSpaceOnUse"><feFlood flood-opacity="0" result="BackgroundImageFix"/><feColorMatrix in="SourceAlpha" result="hardAlpha" values="0 0 0 0 0 0 0 0 0 0 0 0 0 0 0 0 0 0 127 0"/><feOffset dx="6"/><feComposite in2="hardAlpha" operator="out"/><feColorMatrix values="0 0 0 0 0.529412 0 0 0 0 0.568627 0 0 0 0 0.670588 0 0 0 1 0"/><feBlend in2="BackgroundImageFix" result="effect1_dropShadow_4547_100601"/><feBlend in="SourceGraphic" in2="effect1_dropShadow_4547_100601" result="shape"/></filter><filter id="S" width="31.334" height="35.145" x="361.999" y="147.336" color-interpolation-filters="sRGB" filterUnits="userSpaceOnUse"><feFlood flood-opacity="0" result="BackgroundImageFix"/><feBlend in="SourceGraphic" in2="BackgroundImageFix" result="shape"/><feColorMatrix in="SourceAlpha" result="hardAlpha" values="0 0 0 0 0 0 0 0 0 0 0 0 0 0 0 0 0 0 127 0"/><feOffset dx="2" dy="-1"/><feComposite in2="hardAlpha" k2="-1" k3="1" operator="arithmetic"/><feColorMatrix values="0 0 0 0 0 0 0 0 0 0 0 0 0 0 0 0 0 0 0.25 0"/><feBlend in2="shape" result="effect1_innerShadow_4547_100601"/></filter><filter id="ag" width="42" height="40.979" x="417" y="177" color-interpolation-filters="sRGB" filterUnits="userSpaceOnUse"><feFlood flood-opacity="0" result="BackgroundImageFix"/><feColorMatrix in="SourceAlpha" result="hardAlpha" values="0 0 0 0 0 0 0 0 0 0 0 0 0 0 0 0 0 0 127 0"/><feOffset dx="6"/><feComposite in2="hardAlpha" operator="out"/><feColorMatrix values="0 0 0 0 0.529412 0 0 0 0 0.568627 0 0 0 0 0.670588 0 0 0 1 0"/><feBlend in2="BackgroundImageFix" result="effect1_dropShadow_4547_100601"/><feBlend in="SourceGraphic" in2="effect1_dropShadow_4547_100601" result="shape"/></filter><filter id="ah" width="31.333" height="35.145" x="418.999" y="180.336" color-interpolation-filters="sRGB" filterUnits="userSpaceOnUse"><feFlood flood-opacity="0" result="BackgroundImageFix"/><feBlend in="SourceGraphic" in2="BackgroundImageFix" result="shape"/><feColorMatrix in="SourceAlpha" result="hardAlpha" values="0 0 0 0 0 0 0 0 0 0 0 0 0 0 0 0 0 0 127 0"/><feOffset dx="2" dy="-1"/><feComposite in2="hardAlpha" k2="-1" k3="1" operator="arithmetic"/><feColorMatrix values="0 0 0 0 0 0 0 0 0 0 0 0 0 0 0 0 0 0 0.25 0"/><feBlend in2="shape" result="effect1_innerShadow_4547_100601"/></filter><clipPath id="a"><path fill="#fff" d="M0 0h690v488H0z"/></clipPath></defs></svg>
