<svg xmlns="http://www.w3.org/2000/svg" width="690" height="488" fill="none"><path fill="url(#a)" d="M514.723 123.092C400.401-8.586 205.71 58.616 112.962 144.552c-250.922 232.491 840.702 484.123 401.761-21.46Z"/><path fill="url(#b)" d="M344.5 189 115 321.5 344.5 454 574 321.5 344.5 189Z"/><path fill="#F3F5FA" d="M344.5 172 115 304.5 344.5 437 574 304.5 344.5 172Z"/><path fill="url(#c)" fill-rule="evenodd" d="M353 278.73 440.5 228l87.5 50.23L440 329l-87-50.27Zm-111 58L329.5 286l87.5 50.23L329 387l-87-50.27Z" clip-rule="evenodd"/><g opacity=".8"><path fill="url(#d)" d="M533 246.406V152.23l-88 50.765v93.735l88-50.324Z"/><path fill="url(#e)" d="M533 246.406V152.23l-88 50.765v93.735l88-50.324Z"/><path fill="url(#f)" d="M533 246.406V152.23l-88 50.765v93.735l88-50.324Z"/></g><g opacity=".8"><path fill="url(#g)" d="M445 202.994v93.736l-87-50.264V152.73l87 50.264Z"/><path fill="url(#h)" d="M445 202.994v93.736l-87-50.264V152.73l87 50.264Z"/><path fill="url(#i)" d="M445 202.994v93.736l-87-50.264V152.73l87 50.264Z"/></g><path fill="url(#j)" d="m435.5 202.23-77.5 43.5v-87l77.5 43.5Z" opacity=".78"/><g opacity=".8"><path fill="url(#k)" d="M445.5 102 358 152.73 445 203l88-50.77L445.5 102Z"/><path fill="url(#l)" d="M445.5 102 358 152.73 445 203l88-50.77L445.5 102Z"/><path fill="url(#m)" d="M445.5 102 358 152.73 445 203l88-50.77L445.5 102Z"/></g><g opacity=".8"><path fill="url(#n)" d="M422 308.406V214.23l-88 50.765v93.735l88-50.324Z"/><path fill="url(#o)" d="M422 308.406V214.23l-88 50.765v93.735l88-50.324Z"/><path fill="url(#p)" d="M422 308.406V214.23l-88 50.765v93.735l88-50.324Z"/></g><g opacity=".8"><path fill="url(#q)" d="M334 264.994v93.736l-87-50.264V214.73l87 50.264Z"/><path fill="url(#r)" d="M334 264.994v93.736l-87-50.264V214.73l87 50.264Z"/><path fill="url(#s)" d="M334 264.994v93.736l-87-50.264V214.73l87 50.264Z"/></g><path fill="url(#t)" d="m324.5 264.23-77.5 43.5v-87l77.5 43.5Z" opacity=".78"/><g opacity=".8"><path fill="url(#u)" d="M334.5 164 247 214.73 334 265l88-50.77L334.5 164Z"/><path fill="url(#v)" d="M334.5 164 247 214.73 334 265l88-50.77L334.5 164Z"/><path fill="url(#w)" d="M334.5 164 247 214.73 334 265l88-50.77L334.5 164Z"/></g><g opacity=".8"><path fill="url(#x)" d="M422 183.406V89.23l-88 50.765v93.735l88-50.324Z"/><path fill="url(#y)" d="M422 183.406V89.23l-88 50.765v93.735l88-50.324Z"/><path fill="url(#z)" d="M422 183.406V89.23l-88 50.765v93.735l88-50.324Z"/></g><g opacity=".8"><path fill="url(#A)" d="M334 139.994v93.736l-87-50.264V89.73l87 50.264Z"/><path fill="url(#B)" d="M334 139.994v93.736l-87-50.264V89.73l87 50.264Z"/><path fill="url(#C)" d="M334 139.994v93.736l-87-50.264V89.73l87 50.264Z"/></g><path fill="url(#D)" d="m324.5 139.23-77.5 43.5v-87l77.5 43.5Z" opacity=".78"/><g opacity=".8"><path fill="url(#E)" d="M334.5 39 247 89.73 334 140l88-50.77L334.5 39Z"/><path fill="url(#F)" d="M334.5 39 247 89.73 334 140l88-50.77L334.5 39Z"/><path fill="url(#G)" d="M334.5 39 247 89.73 334 140l88-50.77L334.5 39Z"/></g><g opacity=".8"><path fill="url(#H)" d="M307 378.406V284.23l-88 50.765v93.735l88-50.324Z"/><path fill="url(#I)" d="M307 378.406V284.23l-88 50.765v93.735l88-50.324Z"/><path fill="url(#J)" d="M307 378.406V284.23l-88 50.765v93.735l88-50.324Z"/></g><g opacity=".8"><path fill="url(#K)" d="M219 334.994v93.736l-87-50.264V284.73l87 50.264Z"/><path fill="url(#L)" d="M219 334.994v93.736l-87-50.264V284.73l87 50.264Z"/><path fill="url(#M)" d="M219 334.994v93.736l-87-50.264V284.73l87 50.264Z"/></g><path fill="url(#N)" d="m209.5 334.23-77.5 43.5v-87l77.5 43.5Z" opacity=".78"/><g opacity=".8"><path fill="url(#O)" d="M219.5 234 132 284.73 219 335l88-50.77L219.5 234Z"/><path fill="url(#P)" d="M219.5 234 132 284.73 219 335l88-50.77L219.5 234Z"/><path fill="url(#Q)" d="M219.5 234 132 284.73 219 335l88-50.77L219.5 234Z"/></g><path fill="url(#R)" d="m385.06 188.938 4.502-2.576A42.592 42.592 0 0 0 411 149.394c0-17.993-19.443-29.268-35.06-20.332l-4.502 2.576A42.592 42.592 0 0 0 350 168.606c0 17.993 19.443 29.268 35.06 20.332Z"/><path fill="url(#S)" d="m385.06 313.938 4.502-2.576A42.592 42.592 0 0 0 411 274.394c0-17.993-19.443-29.268-35.06-20.332l-4.502 2.576A42.592 42.592 0 0 0 350 293.606c0 17.993 19.443 29.268 35.06 20.332Z"/><path fill="url(#T)" d="m497.06 253.938 4.502-2.576A42.592 42.592 0 0 0 523 214.394c0-17.993-19.443-29.268-35.06-20.332l-4.502 2.576A42.592 42.592 0 0 0 462 233.606c0 17.993 19.443 29.268 35.06 20.332Z"/><path fill="url(#U)" d="m268.06 385.938 4.502-2.576A42.592 42.592 0 0 0 294 346.394c0-17.993-19.443-29.268-35.06-20.332l-4.502 2.576A42.592 42.592 0 0 0 233 365.606c0 17.993 19.443 29.268 35.06 20.332Z"/><g filter="url(#V)"><path stroke="#00E995" stroke-linecap="round" stroke-linejoin="round" stroke-width="16" d="m395 180 10 13 21.5-31"/></g><g filter="url(#W)"><path stroke="#00E995" stroke-linecap="round" stroke-linejoin="round" stroke-width="16" d="m395 306 10 13 21.5-31"/></g><g filter="url(#X)"><path stroke="#FF7272" stroke-linecap="round" stroke-linejoin="round" stroke-width="16" d="m510 235.06 25 12.699M532.951 224l-19.262 34"/></g><g filter="url(#Y)"><path stroke="#00B4D5" stroke-linecap="round" stroke-linejoin="round" stroke-width="16" d="M285.5 365.5v27M304 356v27"/></g><defs><linearGradient id="a" x1="280.925" x2="252.49" y1="95.841" y2="435.546" gradientUnits="userSpaceOnUse"><stop offset=".026" stop-color="#DAF6FF"/><stop offset=".333" stop-color="#DBD1FD" stop-opacity=".788"/></linearGradient><linearGradient id="b" x1="372.5" x2="399.29" y1="322" y2="468.482" gradientUnits="userSpaceOnUse"><stop stop-color="#8791AB"/><stop offset="1" stop-color="#DCE3FF"/></linearGradient><linearGradient id="c" x1="402.105" x2="425.008" y1="318.491" y2="377.063" gradientUnits="userSpaceOnUse"><stop stop-color="#8791AB"/><stop offset=".844" stop-color="#BEC6E1" stop-opacity=".75"/></linearGradient><linearGradient id="d" x1="533" x2="562.417" y1="152.73" y2="273.486" gradientUnits="userSpaceOnUse"><stop offset=".002" stop-color="#44DCFE"/><stop offset="1" stop-color="#3500D5"/></linearGradient><linearGradient id="e" x1="494.5" x2="463" y1="279.23" y2="217.23" gradientUnits="userSpaceOnUse"><stop stop-color="#077393" stop-opacity=".86"/><stop offset=".228" stop-color="#fff" stop-opacity=".6"/><stop offset="1" stop-color="#8CE0F0" stop-opacity="0"/></linearGradient><linearGradient id="f" x1="548" x2="445" y1="153.73" y2="153.73" gradientUnits="userSpaceOnUse"><stop stop-color="#0081A7" stop-opacity="0"/><stop offset=".209" stop-color="#EAEDFF" stop-opacity=".38"/><stop offset="1" stop-color="#D5DAFF"/></linearGradient><linearGradient id="g" x1="358" x2="350.063" y1="158.23" y2="298.481" gradientUnits="userSpaceOnUse"><stop offset=".002" stop-color="#fff"/><stop offset="1" stop-color="#5DE5FE"/></linearGradient><linearGradient id="h" x1="410.5" x2="449.5" y1="280.73" y2="213.23" gradientUnits="userSpaceOnUse"><stop stop-color="#57CEE4"/><stop offset=".109" stop-color="#fff" stop-opacity=".519"/><stop offset="1" stop-color="#DEF7FF"/></linearGradient><linearGradient id="i" x1="354" x2="448.5" y1="228.23" y2="228.23" gradientUnits="userSpaceOnUse"><stop stop-color="#7BD4E6"/><stop offset=".088" stop-color="#fff" stop-opacity=".51"/><stop offset="1" stop-color="#32C8FC" stop-opacity=".13"/></linearGradient><linearGradient id="j" x1="396.75" x2="396.75" y1="158.73" y2="245.73" gradientUnits="userSpaceOnUse"><stop offset=".05" stop-color="#F0DFF8" stop-opacity="0"/><stop offset="1" stop-color="#C2E0FC"/></linearGradient><linearGradient id="k" x1="358" x2="530.357" y1="152.5" y2="131.157" gradientUnits="userSpaceOnUse"><stop offset=".198" stop-color="#F2FDFF"/><stop offset="1" stop-color="#FFBFF1"/></linearGradient><linearGradient id="l" x1="399" x2="453.5" y1="122" y2="218.5" gradientUnits="userSpaceOnUse"><stop stop-color="#FEAFE7" stop-opacity=".76"/><stop offset=".083" stop-color="#fff" stop-opacity=".917"/><stop offset="1" stop-color="#E2F7FB" stop-opacity="0"/></linearGradient><linearGradient id="m" x1="498" x2="403.5" y1="121.5" y2="289" gradientUnits="userSpaceOnUse"><stop stop-color="#BB66E1"/><stop offset=".094" stop-color="#fff" stop-opacity="0"/><stop offset=".969" stop-color="#F8DBEC"/></linearGradient><linearGradient id="n" x1="422" x2="451.417" y1="214.73" y2="335.486" gradientUnits="userSpaceOnUse"><stop offset=".002" stop-color="#44DCFE"/><stop offset="1" stop-color="#3500D5"/></linearGradient><linearGradient id="o" x1="383.5" x2="352" y1="341.23" y2="279.23" gradientUnits="userSpaceOnUse"><stop stop-color="#077393" stop-opacity=".86"/><stop offset=".228" stop-color="#fff" stop-opacity=".6"/><stop offset="1" stop-color="#8CE0F0" stop-opacity="0"/></linearGradient><linearGradient id="p" x1="437" x2="334" y1="215.73" y2="215.73" gradientUnits="userSpaceOnUse"><stop stop-color="#0081A7" stop-opacity="0"/><stop offset=".209" stop-color="#EAEDFF" stop-opacity=".38"/><stop offset="1" stop-color="#D5DAFF"/></linearGradient><linearGradient id="q" x1="247" x2="239.063" y1="220.23" y2="360.481" gradientUnits="userSpaceOnUse"><stop offset=".002" stop-color="#fff"/><stop offset="1" stop-color="#5DE5FE"/></linearGradient><linearGradient id="r" x1="299.5" x2="338.5" y1="342.73" y2="275.23" gradientUnits="userSpaceOnUse"><stop stop-color="#57CEE4"/><stop offset=".109" stop-color="#fff" stop-opacity=".519"/><stop offset="1" stop-color="#DEF7FF"/></linearGradient><linearGradient id="s" x1="243" x2="337.5" y1="290.23" y2="290.23" gradientUnits="userSpaceOnUse"><stop stop-color="#7BD4E6"/><stop offset=".088" stop-color="#fff" stop-opacity=".51"/><stop offset="1" stop-color="#32C8FC" stop-opacity=".13"/></linearGradient><linearGradient id="t" x1="285.75" x2="285.75" y1="220.73" y2="307.73" gradientUnits="userSpaceOnUse"><stop offset=".05" stop-color="#F0DFF8" stop-opacity="0"/><stop offset="1" stop-color="#C2E0FC"/></linearGradient><linearGradient id="u" x1="247" x2="419.357" y1="214.5" y2="193.157" gradientUnits="userSpaceOnUse"><stop offset=".198" stop-color="#F2FDFF"/><stop offset="1" stop-color="#FFBFF1"/></linearGradient><linearGradient id="v" x1="288" x2="342.5" y1="184" y2="280.5" gradientUnits="userSpaceOnUse"><stop stop-color="#FEAFE7" stop-opacity=".76"/><stop offset=".083" stop-color="#fff" stop-opacity=".917"/><stop offset="1" stop-color="#E2F7FB" stop-opacity="0"/></linearGradient><linearGradient id="w" x1="387" x2="292.5" y1="183.5" y2="351" gradientUnits="userSpaceOnUse"><stop stop-color="#BB66E1"/><stop offset=".094" stop-color="#fff" stop-opacity="0"/><stop offset=".969" stop-color="#F8DBEC"/></linearGradient><linearGradient id="x" x1="422" x2="451.417" y1="89.73" y2="210.486" gradientUnits="userSpaceOnUse"><stop offset=".002" stop-color="#44DCFE"/><stop offset="1" stop-color="#3500D5"/></linearGradient><linearGradient id="y" x1="383.5" x2="352" y1="216.23" y2="154.23" gradientUnits="userSpaceOnUse"><stop stop-color="#077393" stop-opacity=".86"/><stop offset=".228" stop-color="#fff" stop-opacity=".6"/><stop offset="1" stop-color="#8CE0F0" stop-opacity="0"/></linearGradient><linearGradient id="z" x1="437" x2="334" y1="90.73" y2="90.73" gradientUnits="userSpaceOnUse"><stop stop-color="#0081A7" stop-opacity="0"/><stop offset=".209" stop-color="#EAEDFF" stop-opacity=".38"/><stop offset="1" stop-color="#D5DAFF"/></linearGradient><linearGradient id="A" x1="247" x2="239.063" y1="95.23" y2="235.481" gradientUnits="userSpaceOnUse"><stop offset=".002" stop-color="#fff"/><stop offset="1" stop-color="#5DE5FE"/></linearGradient><linearGradient id="B" x1="299.5" x2="338.5" y1="217.73" y2="150.23" gradientUnits="userSpaceOnUse"><stop stop-color="#57CEE4"/><stop offset=".109" stop-color="#fff" stop-opacity=".519"/><stop offset="1" stop-color="#DEF7FF"/></linearGradient><linearGradient id="C" x1="243" x2="337.5" y1="165.23" y2="165.23" gradientUnits="userSpaceOnUse"><stop stop-color="#7BD4E6"/><stop offset=".088" stop-color="#fff" stop-opacity=".51"/><stop offset="1" stop-color="#32C8FC" stop-opacity=".13"/></linearGradient><linearGradient id="D" x1="285.75" x2="285.75" y1="95.731" y2="182.73" gradientUnits="userSpaceOnUse"><stop offset=".05" stop-color="#F0DFF8" stop-opacity="0"/><stop offset="1" stop-color="#C2E0FC"/></linearGradient><linearGradient id="E" x1="247" x2="419.357" y1="89.5" y2="68.157" gradientUnits="userSpaceOnUse"><stop offset=".198" stop-color="#F2FDFF"/><stop offset="1" stop-color="#FFBFF1"/></linearGradient><linearGradient id="F" x1="288" x2="342.5" y1="59" y2="155.5" gradientUnits="userSpaceOnUse"><stop stop-color="#FEAFE7" stop-opacity=".76"/><stop offset=".083" stop-color="#fff" stop-opacity=".917"/><stop offset="1" stop-color="#E2F7FB" stop-opacity="0"/></linearGradient><linearGradient id="G" x1="387" x2="292.5" y1="58.5" y2="226" gradientUnits="userSpaceOnUse"><stop stop-color="#BB66E1"/><stop offset=".094" stop-color="#fff" stop-opacity="0"/><stop offset=".969" stop-color="#F8DBEC"/></linearGradient><linearGradient id="H" x1="307" x2="336.417" y1="284.73" y2="405.486" gradientUnits="userSpaceOnUse"><stop offset=".002" stop-color="#44DCFE"/><stop offset="1" stop-color="#3500D5"/></linearGradient><linearGradient id="I" x1="268.5" x2="237" y1="411.23" y2="349.23" gradientUnits="userSpaceOnUse"><stop stop-color="#077393" stop-opacity=".86"/><stop offset=".228" stop-color="#fff" stop-opacity=".6"/><stop offset="1" stop-color="#8CE0F0" stop-opacity="0"/></linearGradient><linearGradient id="J" x1="322" x2="219" y1="285.73" y2="285.73" gradientUnits="userSpaceOnUse"><stop stop-color="#0081A7" stop-opacity="0"/><stop offset=".209" stop-color="#EAEDFF" stop-opacity=".38"/><stop offset="1" stop-color="#D5DAFF"/></linearGradient><linearGradient id="K" x1="132" x2="124.063" y1="290.23" y2="430.481" gradientUnits="userSpaceOnUse"><stop offset=".002" stop-color="#fff"/><stop offset="1" stop-color="#5DE5FE"/></linearGradient><linearGradient id="L" x1="184.5" x2="223.5" y1="412.73" y2="345.23" gradientUnits="userSpaceOnUse"><stop stop-color="#57CEE4"/><stop offset=".109" stop-color="#fff" stop-opacity=".519"/><stop offset="1" stop-color="#DEF7FF"/></linearGradient><linearGradient id="M" x1="128" x2="222.5" y1="360.23" y2="360.23" gradientUnits="userSpaceOnUse"><stop stop-color="#7BD4E6"/><stop offset=".088" stop-color="#fff" stop-opacity=".51"/><stop offset="1" stop-color="#32C8FC" stop-opacity=".13"/></linearGradient><linearGradient id="N" x1="170.75" x2="170.75" y1="290.73" y2="377.73" gradientUnits="userSpaceOnUse"><stop offset=".05" stop-color="#F0DFF8" stop-opacity="0"/><stop offset="1" stop-color="#C2E0FC"/></linearGradient><linearGradient id="O" x1="132" x2="304.357" y1="284.5" y2="263.157" gradientUnits="userSpaceOnUse"><stop offset=".198" stop-color="#F2FDFF"/><stop offset="1" stop-color="#FFBFF1"/></linearGradient><linearGradient id="P" x1="173" x2="227.5" y1="254" y2="350.5" gradientUnits="userSpaceOnUse"><stop stop-color="#FEAFE7" stop-opacity=".76"/><stop offset=".083" stop-color="#fff" stop-opacity=".917"/><stop offset="1" stop-color="#E2F7FB" stop-opacity="0"/></linearGradient><linearGradient id="Q" x1="272" x2="177.5" y1="253.5" y2="421" gradientUnits="userSpaceOnUse"><stop stop-color="#BB66E1"/><stop offset=".094" stop-color="#fff" stop-opacity="0"/><stop offset=".969" stop-color="#F8DBEC"/></linearGradient><radialGradient id="R" cx="0" cy="0" r="1" gradientTransform="matrix(-30.9999 -27.0001 37.4685 -43.0191 395 170.5)" gradientUnits="userSpaceOnUse"><stop offset=".002" stop-color="#fff" stop-opacity="0"/><stop offset="1" stop-color="#B4C3FF"/></radialGradient><radialGradient id="S" cx="0" cy="0" r="1" gradientTransform="matrix(-30.9999 -27.0001 37.4685 -43.0191 395 295.5)" gradientUnits="userSpaceOnUse"><stop offset=".002" stop-color="#fff" stop-opacity="0"/><stop offset="1" stop-color="#B4C3FF"/></radialGradient><radialGradient id="T" cx="0" cy="0" r="1" gradientTransform="matrix(-30.9999 -27.0001 37.4685 -43.0191 507 235.5)" gradientUnits="userSpaceOnUse"><stop offset=".002" stop-color="#fff" stop-opacity="0"/><stop offset="1" stop-color="#B4C3FF"/></radialGradient><radialGradient id="U" cx="0" cy="0" r="1" gradientTransform="matrix(-30.9999 -27.0001 37.4685 -43.0191 278 367.5)" gradientUnits="userSpaceOnUse"><stop offset=".002" stop-color="#fff" stop-opacity="0"/><stop offset="1" stop-color="#B4C3FF"/></radialGradient><filter id="V" width="79.501" height="64.001" x="357" y="136.999" color-interpolation-filters="sRGB" filterUnits="userSpaceOnUse"><feFlood flood-opacity="0" result="BackgroundImageFix"/><feColorMatrix in="SourceAlpha" result="hardAlpha" values="0 0 0 0 0 0 0 0 0 0 0 0 0 0 0 0 0 0 127 0"/><feOffset dx="-30" dy="-17"/><feComposite in2="hardAlpha" operator="out"/><feColorMatrix values="0 0 0 0 1 0 0 0 0 1 0 0 0 0 1 0 0 0 0.49 0"/><feBlend in2="BackgroundImageFix" result="effect1_dropShadow_4547_100450"/><feBlend in="SourceGraphic" in2="effect1_dropShadow_4547_100450" result="shape"/><feColorMatrix in="SourceAlpha" result="hardAlpha" values="0 0 0 0 0 0 0 0 0 0 0 0 0 0 0 0 0 0 127 0"/><feOffset dx="1" dy="1"/><feComposite in2="hardAlpha" k2="-1" k3="1" operator="arithmetic"/><feColorMatrix values="0 0 0 0 1 0 0 0 0 1 0 0 0 0 1 0 0 0 1 0"/><feBlend in2="shape" result="effect2_innerShadow_4547_100450"/><feColorMatrix in="SourceAlpha" result="hardAlpha" values="0 0 0 0 0 0 0 0 0 0 0 0 0 0 0 0 0 0 127 0"/><feOffset dx="2" dy="-3"/><feGaussianBlur stdDeviation="1.5"/><feComposite in2="hardAlpha" k2="-1" k3="1" operator="arithmetic"/><feColorMatrix values="0 0 0 0 0.02 0 0 0 0 0 0 0 0 0 1 0 0 0 0.25 0"/><feBlend in2="effect2_innerShadow_4547_100450" result="effect3_innerShadow_4547_100450"/></filter><filter id="W" width="79.501" height="64.001" x="357" y="262.999" color-interpolation-filters="sRGB" filterUnits="userSpaceOnUse"><feFlood flood-opacity="0" result="BackgroundImageFix"/><feColorMatrix in="SourceAlpha" result="hardAlpha" values="0 0 0 0 0 0 0 0 0 0 0 0 0 0 0 0 0 0 127 0"/><feOffset dx="-30" dy="-17"/><feComposite in2="hardAlpha" operator="out"/><feColorMatrix values="0 0 0 0 1 0 0 0 0 1 0 0 0 0 1 0 0 0 0.49 0"/><feBlend in2="BackgroundImageFix" result="effect1_dropShadow_4547_100450"/><feBlend in="SourceGraphic" in2="effect1_dropShadow_4547_100450" result="shape"/><feColorMatrix in="SourceAlpha" result="hardAlpha" values="0 0 0 0 0 0 0 0 0 0 0 0 0 0 0 0 0 0 127 0"/><feOffset dx="1" dy="1"/><feComposite in2="hardAlpha" k2="-1" k3="1" operator="arithmetic"/><feColorMatrix values="0 0 0 0 1 0 0 0 0 1 0 0 0 0 1 0 0 0 1 0"/><feBlend in2="shape" result="effect2_innerShadow_4547_100450"/><feColorMatrix in="SourceAlpha" result="hardAlpha" values="0 0 0 0 0 0 0 0 0 0 0 0 0 0 0 0 0 0 127 0"/><feOffset dx="2" dy="-3"/><feGaussianBlur stdDeviation="1.5"/><feComposite in2="hardAlpha" k2="-1" k3="1" operator="arithmetic"/><feColorMatrix values="0 0 0 0 0.02 0 0 0 0 0 0 0 0 0 1 0 0 0 0.25 0"/><feBlend in2="effect2_innerShadow_4547_100450" result="effect3_innerShadow_4547_100450"/></filter><filter id="X" width="73.003" height="67.003" x="471.998" y="198.999" color-interpolation-filters="sRGB" filterUnits="userSpaceOnUse"><feFlood flood-opacity="0" result="BackgroundImageFix"/><feColorMatrix in="SourceAlpha" result="hardAlpha" values="0 0 0 0 0 0 0 0 0 0 0 0 0 0 0 0 0 0 127 0"/><feOffset dx="-30" dy="-17"/><feComposite in2="hardAlpha" operator="out"/><feColorMatrix values="0 0 0 0 1 0 0 0 0 1 0 0 0 0 1 0 0 0 0.49 0"/><feBlend in2="BackgroundImageFix" result="effect1_dropShadow_4547_100450"/><feBlend in="SourceGraphic" in2="effect1_dropShadow_4547_100450" result="shape"/><feColorMatrix in="SourceAlpha" result="hardAlpha" values="0 0 0 0 0 0 0 0 0 0 0 0 0 0 0 0 0 0 127 0"/><feOffset dx="1" dy="1"/><feComposite in2="hardAlpha" k2="-1" k3="1" operator="arithmetic"/><feColorMatrix values="0 0 0 0 1 0 0 0 0 1 0 0 0 0 1 0 0 0 1 0"/><feBlend in2="shape" result="effect2_innerShadow_4547_100450"/><feColorMatrix in="SourceAlpha" result="hardAlpha" values="0 0 0 0 0 0 0 0 0 0 0 0 0 0 0 0 0 0 127 0"/><feOffset dx="2" dy="-3"/><feGaussianBlur stdDeviation="1.5"/><feComposite in2="hardAlpha" k2="-1" k3="1" operator="arithmetic"/><feColorMatrix values="0 0 0 0 0.02 0 0 0 0 0 0 0 0 0 1 0 0 0 0.25 0"/><feBlend in2="effect2_innerShadow_4547_100450" result="effect3_innerShadow_4547_100450"/></filter><filter id="Y" width="66.5" height="69.5" x="247.5" y="331" color-interpolation-filters="sRGB" filterUnits="userSpaceOnUse"><feFlood flood-opacity="0" result="BackgroundImageFix"/><feColorMatrix in="SourceAlpha" result="hardAlpha" values="0 0 0 0 0 0 0 0 0 0 0 0 0 0 0 0 0 0 127 0"/><feOffset dx="-30" dy="-17"/><feComposite in2="hardAlpha" operator="out"/><feColorMatrix values="0 0 0 0 1 0 0 0 0 1 0 0 0 0 1 0 0 0 0.49 0"/><feBlend in2="BackgroundImageFix" result="effect1_dropShadow_4547_100450"/><feBlend in="SourceGraphic" in2="effect1_dropShadow_4547_100450" result="shape"/><feColorMatrix in="SourceAlpha" result="hardAlpha" values="0 0 0 0 0 0 0 0 0 0 0 0 0 0 0 0 0 0 127 0"/><feOffset dx="1" dy="1"/><feComposite in2="hardAlpha" k2="-1" k3="1" operator="arithmetic"/><feColorMatrix values="0 0 0 0 1 0 0 0 0 1 0 0 0 0 1 0 0 0 1 0"/><feBlend in2="shape" result="effect2_innerShadow_4547_100450"/><feColorMatrix in="SourceAlpha" result="hardAlpha" values="0 0 0 0 0 0 0 0 0 0 0 0 0 0 0 0 0 0 127 0"/><feOffset dx="2" dy="-3"/><feGaussianBlur stdDeviation="1.5"/><feComposite in2="hardAlpha" k2="-1" k3="1" operator="arithmetic"/><feColorMatrix values="0 0 0 0 0.02 0 0 0 0 0 0 0 0 0 1 0 0 0 0.25 0"/><feBlend in2="effect2_innerShadow_4547_100450" result="effect3_innerShadow_4547_100450"/></filter></defs></svg>
