<svg xmlns="http://www.w3.org/2000/svg" width="690" height="488" fill="none"><g clip-path="url(#a)"><path fill="url(#b)" d="M166.684 365.245c-26.701-72.187 178.478-255.597 262.292-286.6 83.815-31.002 185.966 123.504 212.667 195.691 26.702 72.187-28.798 105.209-112.613 136.211-141.294 52.264-335.644 26.885-362.346-45.302Z"/><path fill="url(#c)" d="M312.261 99.085c13.63 32.529-102.875 131.446-149.766 151.094-86.56 44.319-113.232-31.122-114.605-79.823-.655-23.253 17.62-51.445 64.511-71.093 79.049-33.122 186.23-32.707 199.86-.178Z"/><path fill="url(#d)" d="M344.5 195 115 327.5 344.5 460 574 327.5 344.5 195Z"/><path fill="#F3F5FA" d="M344.5 179 115 311.5 344.5 444 574 311.5 344.5 179Z"/><path fill="url(#e)" d="M424.5 387 225 271.5l36.5-21.5 201 115.5-38 21.5Z"/><path fill="url(#f)" d="M424.5 381 225 265.5l36.5-21.5 201 115.5-38 21.5Z"/><path fill="url(#g)" d="M424.5 381 225 265.5l36.5-21.5 201 115.5-38 21.5Z"/><path fill="url(#h)" d="M424.5 381 225 265.5l36.5-21.5 201 115.5-38 21.5Z"/><path fill="#DCE3FF" d="m414.5 303 13 8v60l-13-7.5V303ZM245 206l13 8v60l-13-7.5V206Z"/><path fill="url(#i)" d="m427.5 311 13-8v60l-13 7.5V311Z"/><path fill="url(#j)" fill-opacity=".53" d="m427.5 311 13-8v60l-13 7.5V311Z"/><path fill="url(#k)" fill-opacity=".62" d="m427.5 311 13-8v60l-13 7.5V311Z"/><path fill="url(#l)" d="m258 214 13-8v60l-13 7.5V214Z"/><path fill="url(#m)" fill-opacity=".53" d="m258 214 13-8v60l-13 7.5V214Z"/><path fill="url(#n)" fill-opacity=".62" d="m258 214 13-8v60l-13 7.5V214Z"/><path fill="#8791AB" d="M487 198 192 28l6-3 295 169.5-6 3.5Z"/><path fill="url(#o)" d="M493 194.5v185l-6 3-14-40.068-275-159.06L197 25l296 169.5Z"/><path fill="url(#p)" d="M487 382.5 192 211.872V28l295 169.685V382.5Z"/><path fill="url(#q)" d="M487 382.5 192 211.872V28l295 169.685V382.5Z"/><path fill="url(#r)" d="M487 382.5 192 211.872V28l295 169.685V382.5Z"/><path fill="url(#s)" d="M487 382.5 192 211.872V28l295 169.685V382.5Z"/><path fill="#fff" d="M339.433 126.792a6 6 0 0 1 2.992 5.192l.001 145.606c0 4.623-5.007 7.509-9.007 5.192l-129.427-74.975a6 6 0 0 1-2.992-5.192l-.001-145.606c0-4.623 5.008-7.509 9.008-5.192l129.426 74.975Z" opacity=".7"/><path fill="#B1B9D4" fill-rule="evenodd" d="m216.63 69.956 36.404 20.56a4.798 4.798 0 0 1 2.439 4.178c0 3.674-3.959 5.984-7.158 4.178l-36.404-20.56a4.797 4.797 0 0 1-2.438-4.178c0-3.673 3.959-5.984 7.157-4.178Zm44.843 101.44v41.739c0 4.593-4.951 7.483-8.951 5.224l-34-19.202a6.002 6.002 0 0 1-3.049-5.225v-41.738c0-4.594 4.951-7.484 8.95-5.225l34 19.203a6 6 0 0 1 3.05 5.224Zm55 70.739v-41.739a6 6 0 0 0-3.05-5.224l-34-19.203c-3.999-2.259-8.95.631-8.95 5.225v41.738a6.002 6.002 0 0 0 3.049 5.225l34 19.202c4 2.259 8.951-.631 8.951-5.224ZM213.623 90.25l115.431 64.975a2.785 2.785 0 0 1 1.419 2.426c0 2.13-2.295 3.472-4.151 2.427L210.891 95.103a2.785 2.785 0 0 1-1.418-2.426c0-2.13 2.294-3.472 4.15-2.427Zm115.431 75.975L213.623 101.25c-1.856-1.044-4.15.297-4.15 2.427 0 1.006.542 1.933 1.418 2.426l115.431 64.975c1.856 1.045 4.151-.297 4.151-2.427a2.785 2.785 0 0 0-1.419-2.426ZM213.623 112.25l115.431 64.975a2.785 2.785 0 0 1 1.419 2.426c0 2.13-2.295 3.472-4.151 2.427l-115.431-64.975a2.783 2.783 0 0 1-1.418-2.426c0-2.13 2.294-3.471 4.15-2.427Zm115.431 75.975L213.623 123.25c-1.856-1.044-4.15.297-4.15 2.427 0 1.006.542 1.933 1.418 2.426l115.431 64.975c1.856 1.045 4.151-.297 4.151-2.427a2.785 2.785 0 0 0-1.419-2.426Z" clip-rule="evenodd"/><g filter="url(#t)"><path fill="#fff" d="M462.163 159.543V259.59c0 4.623-5.008 7.509-9.007 5.192l-56.164-32.534a6 6 0 0 1-2.992-5.192V127.009c0-4.623 5.008-7.509 9.008-5.192l56.163 32.535a6 6 0 0 1 2.992 5.191Z"/></g><path fill="#DADEE8" d="m407.871 136.779 24.485 13.965a3.257 3.257 0 0 1 1.644 2.83c0 2.5-2.7 4.068-4.872 2.829l-24.484-13.965a3.257 3.257 0 0 1-1.644-2.83c0-2.5 2.7-4.068 4.871-2.829Z"/><g filter="url(#u)"><path fill="#fff" d="M220.125 160.369v78.092c0 4.623-5.007 7.509-9.007 5.192l-73.126-42.36a6 6 0 0 1-2.992-5.192v-78.092c0-4.623 5.008-7.509 9.008-5.192l73.125 42.361a5.998 5.998 0 0 1 2.992 5.191Z"/></g><path fill="#DADEE8" d="m184.871 148.779 24.485 13.966a3.254 3.254 0 0 1 1.644 2.829c0 2.5-2.7 4.069-4.872 2.83l-24.484-13.966a3.254 3.254 0 0 1-1.644-2.829c0-2.5 2.7-4.069 4.871-2.83Z"/><g filter="url(#v)"><path stroke="#5CEAB7" stroke-linecap="round" stroke-linejoin="round" stroke-width="8" d="M149 140v50m11.5-39v46.5m12-29v35m11-9.5v15m11-31v39m12-3.5v12"/></g><g filter="url(#w)"><path stroke="#32C8FC" stroke-linecap="round" stroke-linejoin="round" stroke-width="8" d="m407.5 224.5.909-6.588a14.86 14.86 0 0 1 8.291-11.368v0a14.859 14.859 0 0 0 7.425-8.025l4.618-11.909a9.423 9.423 0 0 1 10.285-5.896v0a9.421 9.421 0 0 0 10.463-6.395L453 163.5"/></g><path fill="#B1B9D4" d="M381.014 248.065v15.698l-12.009-6.911a4.001 4.001 0 0 1-2.005-3.467v-6.468c0-3.077 3.328-5.002 5.995-3.467l8.019 4.615Z"/><path fill="#B1B9D4" d="M392.591 257.08v6.468c0 3.077-3.329 5.002-5.996 3.467l-8.018-4.615v-15.698l12.009 6.911a4.001 4.001 0 0 1 2.005 3.467ZM381.014 265.734v15.698l-12.009-6.91a4.001 4.001 0 0 1-2.005-3.467v-6.468c0-3.077 3.328-5.002 5.995-3.467l8.019 4.614Z"/><path fill="#B1B9D4" d="M392.591 274.75v6.468c0 3.076-3.329 5.001-5.996 3.467l-8.018-4.615v-15.698l12.009 6.911a4.001 4.001 0 0 1 2.005 3.467ZM381.014 283.404v15.698l-12.009-6.911a4.001 4.001 0 0 1-2.005-3.467v-6.468c0-3.076 3.328-5.001 5.995-3.467l8.019 4.615Z"/><path fill="#B1B9D4" d="M392.591 292.419v6.468c0 3.077-3.329 5.002-5.996 3.467l-8.018-4.614v-15.698l12.009 6.91a4.001 4.001 0 0 1 2.005 3.467ZM381.014 301.073v15.699l-12.009-6.911a4.001 4.001 0 0 1-2.005-3.467v-6.468c0-3.077 3.328-5.002 5.995-3.467l8.019 4.614Z"/><path fill="#B1B9D4" d="M392.591 310.089v6.468c0 3.077-3.329 5.001-5.996 3.467l-8.018-4.615v-15.698l12.009 6.911a4.001 4.001 0 0 1 2.005 3.467ZM408.432 263.907v15.698l-12.009-6.911a4 4 0 0 1-2.004-3.467l-.001-6.468c0-3.077 3.329-5.002 5.996-3.467l8.018 4.615Z"/><path fill="#B1B9D4" d="M420.009 272.922v6.468c0 3.077-3.328 5.002-5.995 3.467l-8.019-4.615v-15.698l12.009 6.911a4 4 0 0 1 2.005 3.467ZM408.432 281.576v15.698l-12.009-6.911a3.998 3.998 0 0 1-2.004-3.466l-.001-6.469c0-3.076 3.329-5.001 5.996-3.466l8.018 4.614Z"/><path fill="#B1B9D4" d="M420.009 290.592v6.468c0 3.076-3.328 5.001-5.995 3.467l-8.019-4.615v-15.698l12.009 6.911a3.998 3.998 0 0 1 2.005 3.467ZM408.433 299.246v15.698l-12.009-6.911a4.001 4.001 0 0 1-2.005-3.467v-6.468c0-3.077 3.328-5.001 5.995-3.467l8.019 4.615Z"/><path fill="#B1B9D4" d="m420.009 308.261.001 6.468c0 3.077-3.329 5.002-5.996 3.467l-8.018-4.614v-15.699l12.009 6.911a4 4 0 0 1 2.004 3.467ZM408.433 316.915v15.699l-12.009-6.911a4.001 4.001 0 0 1-2.005-3.467v-6.468c0-3.077 3.328-5.002 5.995-3.467l8.019 4.614Z"/><path fill="#B1B9D4" d="m420.009 325.931.001 6.468c0 3.077-3.329 5.001-5.996 3.467l-8.018-4.615v-15.698l12.009 6.911a4 4 0 0 1 2.004 3.467ZM435.851 279.748v15.699l-12.009-6.911a4.001 4.001 0 0 1-2.005-3.467v-6.468c0-3.077 3.328-5.002 5.995-3.467l8.019 4.614Z"/><path fill="#B1B9D4" d="M447.428 288.764v6.468c0 3.077-3.329 5.002-5.995 3.467l-8.019-4.615v-15.698l12.009 6.911a4.001 4.001 0 0 1 2.005 3.467ZM435.851 297.418v15.698l-12.009-6.911a3.999 3.999 0 0 1-2.005-3.466v-6.469c0-3.076 3.328-5.001 5.995-3.466l8.019 4.614Z"/><path fill="#B1B9D4" d="M447.428 306.434v6.468c0 3.076-3.329 5.001-5.995 3.467l-8.019-4.615v-15.698l12.009 6.911a3.999 3.999 0 0 1 2.005 3.467ZM435.851 315.088v15.698l-12.009-6.911a4.001 4.001 0 0 1-2.005-3.467v-6.468c0-3.077 3.328-5.001 5.995-3.467l8.019 4.615Z"/><path fill="#B1B9D4" d="M447.428 324.103v6.468c0 3.077-3.329 5.002-5.995 3.467l-8.019-4.614v-15.699l12.009 6.911a4.001 4.001 0 0 1 2.005 3.467ZM435.851 332.757v15.699l-12.009-6.911a4.001 4.001 0 0 1-2.005-3.467v-6.468c0-3.077 3.328-5.002 5.995-3.467l8.019 4.614Z"/><path fill="#B1B9D4" d="M447.427 341.773v6.468c.001 3.076-3.328 5.001-5.995 3.467l-8.018-4.615v-15.698l12.009 6.911a4 4 0 0 1 2.004 3.467ZM463.27 295.59v15.699l-12.009-6.911a4 4 0 0 1-2.005-3.467v-6.468c0-3.077 3.328-5.002 5.995-3.467l8.019 4.614Z"/><path fill="#B1B9D4" d="M474.846 304.606v6.468c0 3.077-3.328 5.001-5.995 3.467l-8.018-4.615v-15.698l12.009 6.911a4 4 0 0 1 2.004 3.467ZM463.27 313.26v15.698l-12.009-6.911a3.997 3.997 0 0 1-2.005-3.467v-6.468c0-3.076 3.328-5.001 5.995-3.467l8.019 4.615Z"/><path fill="#B1B9D4" d="M474.846 322.275v6.469c0 3.076-3.328 5.001-5.995 3.466l-8.018-4.614v-15.698l12.009 6.911a3.998 3.998 0 0 1 2.004 3.466ZM463.27 330.93v15.698l-12.009-6.911a4 4 0 0 1-2.005-3.467v-6.468c0-3.077 3.328-5.002 5.995-3.467l8.019 4.615Z"/><path fill="#B1B9D4" d="M474.846 339.945v6.468c0 3.077-3.328 5.002-5.995 3.467l-8.018-4.614v-15.699l12.009 6.911a4 4 0 0 1 2.004 3.467ZM463.27 348.599v15.698l-12.009-6.91a4 4 0 0 1-2.005-3.467v-6.468c0-3.077 3.328-5.002 5.995-3.467l8.019 4.614Z"/><path fill="#B1B9D4" d="M474.846 357.615v6.468c0 3.076-3.328 5.001-5.995 3.467l-8.018-4.615v-15.698l12.009 6.911a4 4 0 0 1 2.004 3.467Z"/><path fill="#fff" d="M371.014 253.065v15.698l-12.009-6.911a4.001 4.001 0 0 1-2.005-3.467v-6.468c0-3.077 3.328-5.002 5.995-3.467l8.019 4.615Z"/><path fill="#fff" d="M382.591 262.08v6.468c0 3.077-3.329 5.002-5.996 3.467l-8.018-4.615v-15.698l12.009 6.911a4.001 4.001 0 0 1 2.005 3.467ZM371.014 270.734v15.698l-12.009-6.91a4.001 4.001 0 0 1-2.005-3.467v-6.468c0-3.077 3.328-5.002 5.995-3.467l8.019 4.614Z"/><path fill="#fff" d="M382.591 279.75v6.468c0 3.076-3.329 5.001-5.996 3.467l-8.018-4.615v-15.698l12.009 6.911a4.001 4.001 0 0 1 2.005 3.467ZM371.014 288.404v15.698l-12.009-6.911a4.001 4.001 0 0 1-2.005-3.467v-6.468c0-3.076 3.328-5.001 5.995-3.467l8.019 4.615Z"/><path fill="#fff" d="M382.591 297.419v6.468c0 3.077-3.329 5.002-5.996 3.467l-8.018-4.614v-15.698l12.009 6.91a4.001 4.001 0 0 1 2.005 3.467ZM371.014 306.073v15.699l-12.009-6.911a4.001 4.001 0 0 1-2.005-3.467v-6.468c0-3.077 3.328-5.002 5.995-3.467l8.019 4.614Z"/><path fill="#fff" d="M382.591 315.089v6.468c0 3.077-3.329 5.001-5.996 3.467l-8.018-4.615v-15.698l12.009 6.911a4.001 4.001 0 0 1 2.005 3.467ZM398.432 268.907v15.698l-12.009-6.911a4 4 0 0 1-2.004-3.467l-.001-6.468c0-3.077 3.329-5.002 5.996-3.467l8.018 4.615Z"/><path fill="#fff" d="M410.009 277.922v6.468c0 3.077-3.328 5.002-5.995 3.467l-8.019-4.615v-15.698l12.009 6.911a4.001 4.001 0 0 1 2.005 3.467ZM398.432 286.576v15.698l-12.009-6.911a3.998 3.998 0 0 1-2.004-3.466l-.001-6.469c0-3.076 3.329-5.001 5.996-3.466l8.018 4.614Z"/><path fill="#fff" d="M410.009 295.592v6.468c0 3.076-3.328 5.001-5.995 3.467l-8.019-4.615v-15.698l12.009 6.911a4 4 0 0 1 2.005 3.467Z"/><path fill="#FFD8F0" d="M398.433 304.246v15.698l-12.009-6.911a4.001 4.001 0 0 1-2.005-3.467v-6.468c0-3.077 3.328-5.001 5.995-3.467l8.019 4.615Z"/><path fill="#FFD8F0" d="m410.009 313.261.001 6.468c0 3.077-3.329 5.002-5.996 3.467l-8.018-4.614v-15.699l12.009 6.911a4 4 0 0 1 2.004 3.467Z"/><path fill="#fff" d="M398.433 321.915v15.699l-12.009-6.911a4.001 4.001 0 0 1-2.005-3.467v-6.468c0-3.077 3.328-5.002 5.995-3.467l8.019 4.614Z"/><path fill="#fff" d="m410.009 330.931.001 6.468c0 3.077-3.329 5.001-5.996 3.467l-8.018-4.615v-15.698l12.009 6.911a4 4 0 0 1 2.004 3.467Z"/><path fill="#5CEAB7" d="M425.851 284.748v15.699l-12.009-6.911a4.001 4.001 0 0 1-2.005-3.467v-6.468c0-3.077 3.328-5.002 5.995-3.467l8.019 4.614Z"/><path fill="#5CEAB7" d="M437.428 293.764v6.468c0 3.077-3.329 5.002-5.995 3.467l-8.019-4.615v-15.698l12.009 6.911a4.001 4.001 0 0 1 2.005 3.467Z"/><path fill="#fff" d="M425.851 302.418v15.698l-12.009-6.911a3.999 3.999 0 0 1-2.005-3.466v-6.469c0-3.076 3.328-5.001 5.995-3.466l8.019 4.614Z"/><path fill="#fff" d="M437.428 311.434v6.468c0 3.076-3.329 5.001-5.995 3.467l-8.019-4.615v-15.698l12.009 6.911a3.999 3.999 0 0 1 2.005 3.467ZM425.851 320.088v15.698l-12.009-6.911a4.001 4.001 0 0 1-2.005-3.467v-6.468c0-3.077 3.328-5.001 5.995-3.467l8.019 4.615Z"/><path fill="#fff" d="M437.428 329.103v6.468c0 3.077-3.329 5.002-5.995 3.467l-8.019-4.614v-15.699l12.009 6.911a4.001 4.001 0 0 1 2.005 3.467ZM425.851 337.757v15.699l-12.009-6.911a4.001 4.001 0 0 1-2.005-3.467v-6.468c0-3.077 3.328-5.002 5.995-3.467l8.019 4.614Z"/><path fill="#fff" d="M437.427 346.773v6.468c.001 3.076-3.328 5.001-5.995 3.467l-8.018-4.615v-15.698l12.009 6.911a4 4 0 0 1 2.004 3.467ZM453.27 300.59v15.699l-12.009-6.911a4 4 0 0 1-2.005-3.467v-6.468c0-3.077 3.328-5.002 5.995-3.467l8.019 4.614Z"/><path fill="#fff" d="M464.846 309.606v6.468c0 3.077-3.328 5.001-5.995 3.467l-8.018-4.615v-15.698l12.009 6.911a4 4 0 0 1 2.004 3.467Z"/><path fill="#FFF3C9" d="M453.27 318.26v15.698l-12.009-6.911a3.997 3.997 0 0 1-2.005-3.467v-6.468c0-3.076 3.328-5.001 5.995-3.467l8.019 4.615Z"/><path fill="#FFF3C9" d="M464.846 327.275v6.469c0 3.076-3.328 5.001-5.995 3.466l-8.018-4.614v-15.698l12.009 6.911a3.998 3.998 0 0 1 2.004 3.466Z"/><path fill="#fff" d="M453.27 335.93v15.698l-12.009-6.911a4 4 0 0 1-2.005-3.467v-6.468c0-3.077 3.328-5.002 5.995-3.467l8.019 4.615Z"/><path fill="#fff" d="M464.846 344.945v6.468c0 3.077-3.328 5.002-5.995 3.467l-8.018-4.614v-15.699l12.009 6.911a4 4 0 0 1 2.004 3.467ZM453.27 353.599v15.698l-12.009-6.91a4 4 0 0 1-2.005-3.467v-6.468c0-3.077 3.328-5.002 5.995-3.467l8.019 4.614Z"/><path fill="#fff" d="M464.846 362.615v6.468c0 3.076-3.328 5.001-5.995 3.467l-8.018-4.615v-15.698l12.009 6.911a4 4 0 0 1 2.004 3.467Z"/></g><defs><linearGradient id="b" x1="448.722" x2="361.161" y1="440.253" y2="59.33" gradientUnits="userSpaceOnUse"><stop offset=".026" stop-color="#CFECFD" stop-opacity=".99"/><stop offset=".226" stop-color="#D9D3ED" stop-opacity=".788"/><stop offset="1" stop-color="#FD71AF" stop-opacity=".01"/></linearGradient><linearGradient id="c" x1="152.738" x2="205.406" y1="82.362" y2="254.727" gradientUnits="userSpaceOnUse"><stop stop-color="#CEEFFF"/><stop offset=".026" stop-color="#CFECFD" stop-opacity=".83"/><stop offset="1" stop-color="#FD71AF" stop-opacity=".01"/></linearGradient><linearGradient id="d" x1="212.893" x2="399.552" y1="-58" y2="474.373" gradientUnits="userSpaceOnUse"><stop stop-color="#00B4D5"/><stop offset="1" stop-color="#DCE3FF"/></linearGradient><linearGradient id="e" x1="357.954" x2="378.224" y1="327.97" y2="377.931" gradientUnits="userSpaceOnUse"><stop stop-color="#8791AB"/><stop offset=".844" stop-color="#BEC6E1" stop-opacity=".75"/></linearGradient><linearGradient id="f" x1="225" x2="458.909" y1="312.5" y2="283.52" gradientUnits="userSpaceOnUse"><stop offset=".198" stop-color="#F2FDFF"/><stop offset="1" stop-color="#FFBFF1"/></linearGradient><linearGradient id="g" x1="281.5" x2="354.543" y1="259.5" y2="402.057" gradientUnits="userSpaceOnUse"><stop stop-color="#FEAFE7" stop-opacity=".76"/><stop offset=".362" stop-color="#fff" stop-opacity=".917"/><stop offset="1" stop-color="#E2F7FB" stop-opacity="0"/></linearGradient><linearGradient id="h" x1="415" x2="286.851" y1="270.451" y2="497.711" gradientUnits="userSpaceOnUse"><stop stop-color="#BB66E1"/><stop offset=".094" stop-color="#fff" stop-opacity="0"/><stop offset=".969" stop-color="#F8DBEC"/></linearGradient><linearGradient id="i" x1="440.5" x2="508.949" y1="131.331" y2="156.322" gradientUnits="userSpaceOnUse"><stop offset=".002" stop-color="#44DCFE"/><stop offset="1" stop-color="#3500D5"/></linearGradient><linearGradient id="j" x1="437" x2="407.472" y1="376.5" y2="371.463" gradientUnits="userSpaceOnUse"><stop stop-color="#077393" stop-opacity=".86"/><stop offset=".228" stop-color="#fff" stop-opacity=".6"/><stop offset="1" stop-color="#8CE0F0" stop-opacity="0"/></linearGradient><linearGradient id="k" x1="442.716" x2="427.5" y1="132.991" y2="132.991" gradientUnits="userSpaceOnUse"><stop stop-color="#0081A7" stop-opacity="0"/><stop offset=".209" stop-color="#EAEDFF" stop-opacity=".38"/><stop offset="1" stop-color="#D5DAFF"/></linearGradient><linearGradient id="l" x1="271" x2="339.449" y1="34.331" y2="59.322" gradientUnits="userSpaceOnUse"><stop offset=".002" stop-color="#44DCFE"/><stop offset="1" stop-color="#3500D5"/></linearGradient><linearGradient id="m" x1="267.5" x2="237.972" y1="279.5" y2="274.463" gradientUnits="userSpaceOnUse"><stop stop-color="#077393" stop-opacity=".86"/><stop offset=".228" stop-color="#fff" stop-opacity=".6"/><stop offset="1" stop-color="#8CE0F0" stop-opacity="0"/></linearGradient><linearGradient id="n" x1="273.216" x2="258" y1="35.991" y2="35.991" gradientUnits="userSpaceOnUse"><stop stop-color="#0081A7" stop-opacity="0"/><stop offset=".209" stop-color="#EAEDFF" stop-opacity=".38"/><stop offset="1" stop-color="#D5DAFF"/></linearGradient><linearGradient id="o" x1="487.5" x2="292.196" y1="333" y2="236.754" gradientUnits="userSpaceOnUse"><stop stop-color="#8791AB"/><stop offset=".844" stop-color="#BEC6E1" stop-opacity=".75"/></linearGradient><linearGradient id="p" x1="487" x2="533.905" y1="29.138" y2="312.633" gradientUnits="userSpaceOnUse"><stop offset=".002" stop-color="#F8FEFF"/><stop offset="1" stop-color="#D6C8FF"/></linearGradient><linearGradient id="q" x1="487" x2="533.905" y1="29.138" y2="312.633" gradientUnits="userSpaceOnUse"><stop offset=".002" stop-color="#F8FEFF"/><stop offset="1" stop-color="#D6C8FF"/></linearGradient><linearGradient id="r" x1="427" x2="344.995" y1="439" y2="149.727" gradientUnits="userSpaceOnUse"><stop stop-color="#077393" stop-opacity=".86"/><stop offset=".228" stop-color="#fff" stop-opacity=".6"/><stop offset="1" stop-color="#8CE0F0" stop-opacity="0"/></linearGradient><linearGradient id="s" x1="537.284" x2="192" y1="31.415" y2="31.415" gradientUnits="userSpaceOnUse"><stop stop-color="#0081A7" stop-opacity="0"/><stop offset=".209" stop-color="#EAEDFF" stop-opacity=".38"/><stop offset="1" stop-color="#D5DAFF"/></linearGradient><filter id="t" width="136.163" height="212.599" x="374" y="98" color-interpolation-filters="sRGB" filterUnits="userSpaceOnUse"><feFlood flood-opacity="0" result="BackgroundImageFix"/><feColorMatrix in="SourceAlpha" result="hardAlpha" values="0 0 0 0 0 0 0 0 0 0 0 0 0 0 0 0 0 0 127 0"/><feOffset dx="14" dy="11"/><feGaussianBlur stdDeviation="17"/><feComposite in2="hardAlpha" operator="out"/><feColorMatrix values="0 0 0 0 0.968627 0 0 0 0 0.870588 0 0 0 0 0.933333 0 0 0 1 0"/><feBlend in2="BackgroundImageFix" result="effect1_dropShadow_4547_100903"/><feColorMatrix in="SourceAlpha" result="hardAlpha" values="0 0 0 0 0 0 0 0 0 0 0 0 0 0 0 0 0 0 127 0"/><feOffset dx="4" dy="-1"/><feComposite in2="hardAlpha" operator="out"/><feColorMatrix values="0 0 0 0 0.533333 0 0 0 0 0.572549 0 0 0 0 0.67451 0 0 0 1 0"/><feBlend in2="effect1_dropShadow_4547_100903" result="effect2_dropShadow_4547_100903"/><feBlend in="SourceGraphic" in2="effect2_dropShadow_4547_100903" result="shape"/></filter><filter id="u" width="153.125" height="200.47" x="115" y="89" color-interpolation-filters="sRGB" filterUnits="userSpaceOnUse"><feFlood flood-opacity="0" result="BackgroundImageFix"/><feColorMatrix in="SourceAlpha" result="hardAlpha" values="0 0 0 0 0 0 0 0 0 0 0 0 0 0 0 0 0 0 127 0"/><feOffset dx="14" dy="11"/><feGaussianBlur stdDeviation="17"/><feComposite in2="hardAlpha" operator="out"/><feColorMatrix values="0 0 0 0 0.513726 0 0 0 0 0.815686 0 0 0 0 0.933333 0 0 0 1 0"/><feBlend in2="BackgroundImageFix" result="effect1_dropShadow_4547_100903"/><feColorMatrix in="SourceAlpha" result="hardAlpha" values="0 0 0 0 0 0 0 0 0 0 0 0 0 0 0 0 0 0 127 0"/><feOffset dx="4" dy="-1"/><feComposite in2="hardAlpha" operator="out"/><feColorMatrix values="0 0 0 0 0.533333 0 0 0 0 0.572549 0 0 0 0 0.67451 0 0 0 1 0"/><feBlend in2="effect1_dropShadow_4547_100903" result="effect2_dropShadow_4547_100903"/><feBlend in="SourceGraphic" in2="effect2_dropShadow_4547_100903" result="shape"/></filter><filter id="v" width="67.5" height="96.5" x="143" y="133" color-interpolation-filters="sRGB" filterUnits="userSpaceOnUse"><feFlood flood-opacity="0" result="BackgroundImageFix"/><feBlend in="SourceGraphic" in2="BackgroundImageFix" result="shape"/><feColorMatrix in="SourceAlpha" result="hardAlpha" values="0 0 0 0 0 0 0 0 0 0 0 0 0 0 0 0 0 0 127 0"/><feOffset dx="-1" dy="1"/><feComposite in2="hardAlpha" k2="-1" k3="1" operator="arithmetic"/><feColorMatrix values="0 0 0 0 1 0 0 0 0 1 0 0 0 0 1 0 0 0 1 0"/><feBlend in2="shape" result="effect1_innerShadow_4547_100903"/><feColorMatrix in="SourceAlpha" result="hardAlpha" values="0 0 0 0 0 0 0 0 0 0 0 0 0 0 0 0 0 0 127 0"/><feOffset dx="-2" dy="-3"/><feGaussianBlur stdDeviation="1.5"/><feComposite in2="hardAlpha" k2="-1" k3="1" operator="arithmetic"/><feColorMatrix values="0 0 0 0 0.02 0 0 0 0 0 0 0 0 0 1 0 0 0 0.25 0"/><feBlend in2="effect1_innerShadow_4547_100903" result="effect2_innerShadow_4547_100903"/></filter><filter id="w" width="55.502" height="72.002" x="401.5" y="156.499" color-interpolation-filters="sRGB" filterUnits="userSpaceOnUse"><feFlood flood-opacity="0" result="BackgroundImageFix"/><feBlend in="SourceGraphic" in2="BackgroundImageFix" result="shape"/><feColorMatrix in="SourceAlpha" result="hardAlpha" values="0 0 0 0 0 0 0 0 0 0 0 0 0 0 0 0 0 0 127 0"/><feOffset dx="-1" dy="1"/><feComposite in2="hardAlpha" k2="-1" k3="1" operator="arithmetic"/><feColorMatrix values="0 0 0 0 1 0 0 0 0 1 0 0 0 0 1 0 0 0 1 0"/><feBlend in2="shape" result="effect1_innerShadow_4547_100903"/><feColorMatrix in="SourceAlpha" result="hardAlpha" values="0 0 0 0 0 0 0 0 0 0 0 0 0 0 0 0 0 0 127 0"/><feOffset dx="-2" dy="-3"/><feGaussianBlur stdDeviation="1.5"/><feComposite in2="hardAlpha" k2="-1" k3="1" operator="arithmetic"/><feColorMatrix values="0 0 0 0 0.02 0 0 0 0 0 0 0 0 0 1 0 0 0 0.25 0"/><feBlend in2="effect1_innerShadow_4547_100903" result="effect2_innerShadow_4547_100903"/></filter><clipPath id="a"><path fill="#fff" d="M0 0h690v488H0z"/></clipPath></defs></svg>
