<svg width="2110" height="231" viewBox="0 0 2110 231" fill="none" xmlns="http://www.w3.org/2000/svg">
<path d="M704.914 123.008C704.654 123.008 704.424 122.99 704.227 122.953C704.029 122.917 703.859 122.867 703.719 122.805V121.672C703.885 121.724 704.065 121.763 704.258 121.789C704.451 121.82 704.659 121.836 704.883 121.836C705.174 121.836 705.443 121.779 705.688 121.664C705.932 121.549 706.128 121.354 706.273 121.078C706.419 120.802 706.492 120.422 706.492 119.938V108.578H707.828V119.836C707.828 120.549 707.708 121.141 707.469 121.609C707.234 122.078 706.898 122.427 706.461 122.656C706.029 122.891 705.513 123.008 704.914 123.008ZM717.734 111.438V120H716.672L716.484 118.797H716.414C716.237 119.094 716.008 119.344 715.727 119.547C715.445 119.75 715.128 119.901 714.773 120C714.424 120.104 714.052 120.156 713.656 120.156C712.979 120.156 712.411 120.047 711.953 119.828C711.495 119.609 711.148 119.271 710.914 118.812C710.685 118.354 710.57 117.766 710.57 117.047V111.438H711.883V116.953C711.883 117.667 712.044 118.201 712.367 118.555C712.69 118.904 713.182 119.078 713.844 119.078C714.479 119.078 714.984 118.958 715.359 118.719C715.74 118.479 716.013 118.128 716.18 117.664C716.346 117.195 716.43 116.622 716.43 115.945V111.438H717.734ZM721.781 120H720.477V107.844H721.781V120ZM723.172 111.438H724.562L726.453 116.406C726.562 116.698 726.664 116.979 726.758 117.25C726.852 117.516 726.935 117.771 727.008 118.016C727.081 118.26 727.138 118.497 727.18 118.727H727.234C727.307 118.466 727.411 118.125 727.547 117.703C727.682 117.276 727.828 116.841 727.984 116.398L729.773 111.438H731.172L727.445 121.258C727.247 121.784 727.016 122.242 726.75 122.633C726.49 123.023 726.172 123.323 725.797 123.531C725.422 123.745 724.969 123.852 724.438 123.852C724.193 123.852 723.977 123.836 723.789 123.805C723.602 123.779 723.44 123.747 723.305 123.711V122.672C723.419 122.698 723.557 122.721 723.719 122.742C723.885 122.763 724.057 122.773 724.234 122.773C724.557 122.773 724.836 122.711 725.07 122.586C725.31 122.466 725.516 122.289 725.688 122.055C725.859 121.82 726.008 121.542 726.133 121.219L726.602 120.016L723.172 111.438ZM743.602 120H736.117V118.914L739.172 115.812C739.74 115.24 740.216 114.729 740.602 114.281C740.992 113.833 741.289 113.393 741.492 112.961C741.695 112.523 741.797 112.044 741.797 111.523C741.797 110.878 741.604 110.385 741.219 110.047C740.839 109.703 740.336 109.531 739.711 109.531C739.164 109.531 738.68 109.625 738.258 109.812C737.836 110 737.404 110.266 736.961 110.609L736.266 109.734C736.568 109.479 736.896 109.253 737.25 109.055C737.609 108.857 737.992 108.701 738.398 108.586C738.81 108.471 739.247 108.414 739.711 108.414C740.414 108.414 741.021 108.536 741.531 108.781C742.042 109.026 742.435 109.375 742.711 109.828C742.992 110.281 743.133 110.82 743.133 111.445C743.133 112.049 743.013 112.612 742.773 113.133C742.534 113.648 742.198 114.161 741.766 114.672C741.333 115.177 740.828 115.714 740.25 116.281L737.766 118.758V118.812H743.602V120ZM753.328 117.352H751.617V120H750.352V117.352H744.828V116.258L750.266 108.516H751.617V116.18H753.328V117.352ZM750.352 116.18V112.445C750.352 112.159 750.354 111.901 750.359 111.672C750.365 111.438 750.372 111.221 750.383 111.023C750.393 110.82 750.401 110.628 750.406 110.445C750.417 110.263 750.424 110.083 750.43 109.906H750.367C750.268 110.115 750.154 110.336 750.023 110.57C749.898 110.799 749.771 111.005 749.641 111.188L746.117 116.18H750.352ZM756.492 118.141L756.594 118.32C756.5 118.701 756.38 119.107 756.234 119.539C756.094 119.971 755.938 120.404 755.766 120.836C755.599 121.273 755.43 121.682 755.258 122.062H754.289C754.398 121.646 754.505 121.206 754.609 120.742C754.714 120.284 754.807 119.831 754.891 119.383C754.979 118.93 755.049 118.516 755.102 118.141H756.492ZM770.211 120H762.727V118.914L765.781 115.812C766.349 115.24 766.826 114.729 767.211 114.281C767.602 113.833 767.898 113.393 768.102 112.961C768.305 112.523 768.406 112.044 768.406 111.523C768.406 110.878 768.214 110.385 767.828 110.047C767.448 109.703 766.945 109.531 766.32 109.531C765.773 109.531 765.289 109.625 764.867 109.812C764.445 110 764.013 110.266 763.57 110.609L762.875 109.734C763.177 109.479 763.505 109.253 763.859 109.055C764.219 108.857 764.602 108.701 765.008 108.586C765.419 108.471 765.857 108.414 766.32 108.414C767.023 108.414 767.63 108.536 768.141 108.781C768.651 109.026 769.044 109.375 769.32 109.828C769.602 110.281 769.742 110.82 769.742 111.445C769.742 112.049 769.622 112.612 769.383 113.133C769.143 113.648 768.807 114.161 768.375 114.672C767.943 115.177 767.438 115.714 766.859 116.281L764.375 118.758V118.812H770.211V120ZM779.43 114.273C779.43 115.201 779.359 116.029 779.219 116.758C779.078 117.487 778.857 118.104 778.555 118.609C778.253 119.115 777.862 119.5 777.383 119.766C776.904 120.026 776.328 120.156 775.656 120.156C774.807 120.156 774.104 119.924 773.547 119.461C772.995 118.997 772.581 118.328 772.305 117.453C772.034 116.573 771.898 115.513 771.898 114.273C771.898 113.055 772.021 112.008 772.266 111.133C772.516 110.253 772.917 109.578 773.469 109.109C774.021 108.635 774.75 108.398 775.656 108.398C776.516 108.398 777.224 108.633 777.781 109.102C778.339 109.565 778.753 110.237 779.023 111.117C779.294 111.992 779.43 113.044 779.43 114.273ZM773.203 114.273C773.203 115.336 773.284 116.221 773.445 116.93C773.607 117.638 773.867 118.169 774.227 118.523C774.591 118.872 775.068 119.047 775.656 119.047C776.245 119.047 776.719 118.872 777.078 118.523C777.443 118.174 777.706 117.646 777.867 116.938C778.034 116.229 778.117 115.341 778.117 114.273C778.117 113.227 778.036 112.352 777.875 111.648C777.714 110.94 777.453 110.409 777.094 110.055C776.734 109.695 776.255 109.516 775.656 109.516C775.057 109.516 774.578 109.695 774.219 110.055C773.859 110.409 773.599 110.94 773.438 111.648C773.281 112.352 773.203 113.227 773.203 114.273ZM788.523 120H781.039V118.914L784.094 115.812C784.661 115.24 785.138 114.729 785.523 114.281C785.914 113.833 786.211 113.393 786.414 112.961C786.617 112.523 786.719 112.044 786.719 111.523C786.719 110.878 786.526 110.385 786.141 110.047C785.76 109.703 785.258 109.531 784.633 109.531C784.086 109.531 783.602 109.625 783.18 109.812C782.758 110 782.326 110.266 781.883 110.609L781.188 109.734C781.49 109.479 781.818 109.253 782.172 109.055C782.531 108.857 782.914 108.701 783.32 108.586C783.732 108.471 784.169 108.414 784.633 108.414C785.336 108.414 785.943 108.536 786.453 108.781C786.964 109.026 787.357 109.375 787.633 109.828C787.914 110.281 788.055 110.82 788.055 111.445C788.055 112.049 787.935 112.612 787.695 113.133C787.456 113.648 787.12 114.161 786.688 114.672C786.255 115.177 785.75 115.714 785.172 116.281L782.688 118.758V118.812H788.523V120ZM797.68 120H790.195V118.914L793.25 115.812C793.818 115.24 794.294 114.729 794.68 114.281C795.07 113.833 795.367 113.393 795.57 112.961C795.773 112.523 795.875 112.044 795.875 111.523C795.875 110.878 795.682 110.385 795.297 110.047C794.917 109.703 794.414 109.531 793.789 109.531C793.242 109.531 792.758 109.625 792.336 109.812C791.914 110 791.482 110.266 791.039 110.609L790.344 109.734C790.646 109.479 790.974 109.253 791.328 109.055C791.688 108.857 792.07 108.701 792.477 108.586C792.888 108.471 793.326 108.414 793.789 108.414C794.492 108.414 795.099 108.536 795.609 108.781C796.12 109.026 796.513 109.375 796.789 109.828C797.07 110.281 797.211 110.82 797.211 111.445C797.211 112.049 797.091 112.612 796.852 113.133C796.612 113.648 796.276 114.161 795.844 114.672C795.411 115.177 794.906 115.714 794.328 116.281L791.844 118.758V118.812H797.68V120Z" fill="#6F898D"/>
<path d="M711.221 148.293L710.808 150.452H712.604V151.258H710.649L710.11 154H709.253L709.792 151.258H707.856L707.336 154H706.492L706.993 151.258H705.33V150.452H707.152L707.577 148.293H705.812V147.5H707.723L708.25 144.72H709.12L708.593 147.5H710.542L711.068 144.72H711.906L711.379 147.5H713.062V148.293H711.221ZM708.009 150.452H709.945L710.364 148.293H708.428L708.009 150.452ZM717.118 146.929C717.947 146.929 718.563 147.115 718.965 147.487C719.367 147.86 719.568 148.454 719.568 149.271V154H718.8L718.597 152.972H718.546C718.351 153.226 718.148 153.439 717.937 153.613C717.725 153.782 717.479 153.911 717.2 154C716.925 154.085 716.587 154.127 716.185 154.127C715.761 154.127 715.385 154.053 715.055 153.905C714.729 153.757 714.471 153.532 714.28 153.232C714.094 152.931 714.001 152.551 714.001 152.089C714.001 151.395 714.276 150.862 714.826 150.49C715.376 150.117 716.214 149.914 717.34 149.88L718.54 149.83V149.404C718.54 148.803 718.41 148.382 718.152 148.141C717.894 147.9 717.53 147.779 717.061 147.779C716.697 147.779 716.35 147.832 716.02 147.938C715.689 148.044 715.376 148.169 715.08 148.312L714.756 147.513C715.069 147.352 715.429 147.214 715.835 147.1C716.242 146.986 716.669 146.929 717.118 146.929ZM718.527 150.572L717.467 150.617C716.599 150.651 715.988 150.792 715.632 151.042C715.277 151.292 715.099 151.645 715.099 152.102C715.099 152.5 715.22 152.794 715.461 152.984C715.702 153.175 716.022 153.27 716.419 153.27C717.037 153.27 717.543 153.099 717.937 152.756C718.33 152.413 718.527 151.899 718.527 151.213V150.572ZM724.9 146.916C725.04 146.916 725.186 146.924 725.338 146.941C725.49 146.954 725.626 146.973 725.744 146.999L725.611 147.976C725.497 147.946 725.37 147.923 725.23 147.906C725.09 147.889 724.959 147.881 724.836 147.881C724.557 147.881 724.293 147.938 724.043 148.052C723.798 148.162 723.582 148.323 723.396 148.535C723.209 148.742 723.063 148.994 722.958 149.29C722.852 149.582 722.799 149.908 722.799 150.268V154H721.739V147.043H722.615L722.729 148.325H722.773C722.917 148.067 723.091 147.832 723.294 147.621C723.497 147.405 723.732 147.233 723.999 147.106C724.269 146.979 724.57 146.916 724.9 146.916ZM729.305 153.264C729.479 153.264 729.656 153.249 729.838 153.219C730.02 153.19 730.168 153.154 730.283 153.111V153.93C730.16 153.985 729.989 154.032 729.769 154.07C729.553 154.108 729.341 154.127 729.134 154.127C728.766 154.127 728.431 154.063 728.131 153.937C727.83 153.805 727.589 153.585 727.407 153.276C727.229 152.967 727.141 152.54 727.141 151.994V147.868H726.15V147.354L727.147 146.941L727.566 145.431H728.201V147.043H730.238V147.868H728.201V151.962C728.201 152.398 728.3 152.724 728.499 152.94C728.702 153.156 728.971 153.264 729.305 153.264ZM732.746 147.043V154H731.692V147.043H732.746ZM732.231 144.44C732.405 144.44 732.553 144.498 732.676 144.612C732.803 144.722 732.866 144.895 732.866 145.132C732.866 145.365 732.803 145.539 732.676 145.653C732.553 145.767 732.405 145.824 732.231 145.824C732.049 145.824 731.897 145.767 731.774 145.653C731.656 145.539 731.597 145.365 731.597 145.132C731.597 144.895 731.656 144.722 731.774 144.612C731.897 144.498 732.049 144.44 732.231 144.44ZM737.767 154.127C737.14 154.127 736.588 153.998 736.11 153.74C735.632 153.482 735.259 153.088 734.993 152.559C734.726 152.03 734.593 151.364 734.593 150.56C734.593 149.717 734.732 149.03 735.012 148.497C735.295 147.959 735.685 147.561 736.18 147.303C736.675 147.045 737.238 146.916 737.868 146.916C738.215 146.916 738.549 146.952 738.871 147.024C739.197 147.092 739.464 147.178 739.671 147.284L739.354 148.167C739.142 148.082 738.896 148.006 738.617 147.938C738.342 147.87 738.084 147.836 737.843 147.836C737.36 147.836 736.958 147.94 736.637 148.147C736.319 148.355 736.08 148.66 735.919 149.062C735.763 149.464 735.685 149.959 735.685 150.547C735.685 151.11 735.761 151.59 735.913 151.988C736.07 152.386 736.3 152.69 736.605 152.902C736.914 153.109 737.299 153.213 737.76 153.213C738.128 153.213 738.461 153.175 738.757 153.099C739.053 153.018 739.322 152.925 739.563 152.819V153.759C739.33 153.877 739.07 153.968 738.782 154.032C738.499 154.095 738.16 154.127 737.767 154.127ZM742.273 154H741.213V144.123H742.273V154ZM747.18 146.916C747.773 146.916 748.28 147.047 748.704 147.31C749.127 147.572 749.451 147.94 749.675 148.414C749.899 148.884 750.011 149.434 750.011 150.064V150.718H745.206C745.219 151.535 745.422 152.157 745.815 152.584C746.209 153.012 746.763 153.226 747.479 153.226C747.919 153.226 748.308 153.185 748.646 153.105C748.985 153.025 749.336 152.906 749.7 152.75V153.676C749.349 153.833 749 153.947 748.653 154.019C748.31 154.091 747.904 154.127 747.434 154.127C746.765 154.127 746.181 153.992 745.682 153.721C745.187 153.446 744.802 153.044 744.527 152.515C744.252 151.986 744.114 151.338 744.114 150.572C744.114 149.823 744.239 149.176 744.489 148.63C744.743 148.08 745.098 147.657 745.555 147.36C746.016 147.064 746.558 146.916 747.18 146.916ZM747.167 147.779C746.605 147.779 746.156 147.963 745.822 148.332C745.487 148.7 745.289 149.214 745.225 149.874H748.907C748.903 149.459 748.837 149.095 748.71 148.782C748.587 148.465 748.399 148.219 748.145 148.046C747.891 147.868 747.565 147.779 747.167 147.779Z" fill="#6F898D"/>
<path d="M773.221 148.293L772.808 150.452H774.604V151.258H772.649L772.11 154H771.253L771.792 151.258H769.856L769.336 154H768.492L768.993 151.258H767.33V150.452H769.152L769.577 148.293H767.812V147.5H769.723L770.25 144.72H771.12L770.593 147.5H772.542L773.068 144.72H773.906L773.379 147.5H775.062V148.293H773.221ZM770.009 150.452H771.945L772.364 148.293H770.428L770.009 150.452ZM779.194 146.916C779.786 146.916 780.294 147.047 780.717 147.31C781.14 147.572 781.464 147.94 781.688 148.414C781.913 148.884 782.025 149.434 782.025 150.064V150.718H777.22C777.232 151.535 777.436 152.157 777.829 152.584C778.223 153.012 778.777 153.226 779.492 153.226C779.932 153.226 780.322 153.185 780.66 153.105C780.999 153.025 781.35 152.906 781.714 152.75V153.676C781.363 153.833 781.014 153.947 780.667 154.019C780.324 154.091 779.917 154.127 779.448 154.127C778.779 154.127 778.195 153.992 777.696 153.721C777.201 153.446 776.816 153.044 776.541 152.515C776.265 151.986 776.128 151.338 776.128 150.572C776.128 149.823 776.253 149.176 776.502 148.63C776.756 148.08 777.112 147.657 777.569 147.36C778.03 147.064 778.572 146.916 779.194 146.916ZM779.181 147.779C778.618 147.779 778.17 147.963 777.835 148.332C777.501 148.7 777.302 149.214 777.239 149.874H780.92C780.916 149.459 780.851 149.095 780.724 148.782C780.601 148.465 780.413 148.219 780.159 148.046C779.905 147.868 779.579 147.779 779.181 147.779ZM784.875 154H783.815V144.123H784.875V154ZM789.706 146.929C790.535 146.929 791.151 147.115 791.553 147.487C791.955 147.86 792.156 148.454 792.156 149.271V154H791.388L791.185 152.972H791.134C790.939 153.226 790.736 153.439 790.524 153.613C790.313 153.782 790.067 153.911 789.788 154C789.513 154.085 789.174 154.127 788.772 154.127C788.349 154.127 787.973 154.053 787.643 153.905C787.317 153.757 787.059 153.532 786.868 153.232C786.682 152.931 786.589 152.551 786.589 152.089C786.589 151.395 786.864 150.862 787.414 150.49C787.964 150.117 788.802 149.914 789.928 149.88L791.127 149.83V149.404C791.127 148.803 790.998 148.382 790.74 148.141C790.482 147.9 790.118 147.779 789.648 147.779C789.285 147.779 788.938 147.832 788.607 147.938C788.277 148.044 787.964 148.169 787.668 148.312L787.344 147.513C787.657 147.352 788.017 147.214 788.423 147.1C788.83 146.986 789.257 146.929 789.706 146.929ZM791.115 150.572L790.055 150.617C789.187 150.651 788.576 150.792 788.22 151.042C787.865 151.292 787.687 151.645 787.687 152.102C787.687 152.5 787.808 152.794 788.049 152.984C788.29 153.175 788.61 153.27 789.007 153.27C789.625 153.27 790.131 153.099 790.524 152.756C790.918 152.413 791.115 151.899 791.115 151.213V150.572ZM798.827 152.096C798.827 152.54 798.715 152.915 798.491 153.219C798.271 153.52 797.953 153.746 797.539 153.898C797.128 154.051 796.637 154.127 796.066 154.127C795.579 154.127 795.158 154.089 794.803 154.013C794.447 153.937 794.136 153.829 793.87 153.689V152.718C794.153 152.857 794.492 152.984 794.885 153.099C795.279 153.213 795.681 153.27 796.091 153.27C796.692 153.27 797.128 153.173 797.399 152.978C797.67 152.783 797.805 152.519 797.805 152.185C797.805 151.994 797.75 151.827 797.64 151.683C797.534 151.535 797.354 151.393 797.101 151.258C796.847 151.118 796.495 150.966 796.047 150.801C795.603 150.632 795.217 150.464 794.892 150.299C794.57 150.13 794.32 149.925 794.143 149.684C793.969 149.442 793.882 149.129 793.882 148.744C793.882 148.156 794.119 147.705 794.593 147.392C795.071 147.075 795.698 146.916 796.472 146.916C796.891 146.916 797.283 146.958 797.646 147.043C798.015 147.123 798.357 147.233 798.675 147.373L798.319 148.217C798.032 148.095 797.725 147.991 797.399 147.906C797.073 147.822 796.741 147.779 796.402 147.779C795.916 147.779 795.541 147.86 795.279 148.021C795.021 148.181 794.892 148.401 794.892 148.681C794.892 148.896 794.951 149.074 795.069 149.214C795.192 149.354 795.387 149.485 795.653 149.607C795.92 149.73 796.271 149.874 796.707 150.039C797.143 150.2 797.52 150.367 797.837 150.541C798.154 150.71 798.398 150.917 798.567 151.163C798.74 151.404 798.827 151.715 798.827 152.096ZM802.769 153.264C802.943 153.264 803.12 153.249 803.302 153.219C803.484 153.19 803.632 153.154 803.747 153.111V153.93C803.624 153.985 803.452 154.032 803.232 154.07C803.017 154.108 802.805 154.127 802.598 154.127C802.229 154.127 801.895 154.063 801.595 153.937C801.294 153.805 801.053 153.585 800.871 153.276C800.693 152.967 800.604 152.54 800.604 151.994V147.868H799.614V147.354L800.611 146.941L801.03 145.431H801.665V147.043H803.702V147.868H801.665V151.962C801.665 152.398 801.764 152.724 801.963 152.94C802.166 153.156 802.435 153.264 802.769 153.264ZM806.209 147.043V154H805.156V147.043H806.209ZM805.695 144.44C805.869 144.44 806.017 144.498 806.14 144.612C806.267 144.722 806.33 144.895 806.33 145.132C806.33 145.365 806.267 145.539 806.14 145.653C806.017 145.767 805.869 145.824 805.695 145.824C805.513 145.824 805.361 145.767 805.238 145.653C805.12 145.539 805.061 145.365 805.061 145.132C805.061 144.895 805.12 144.722 805.238 144.612C805.361 144.498 805.513 144.44 805.695 144.44ZM811.23 154.127C810.604 154.127 810.052 153.998 809.574 153.74C809.096 153.482 808.723 153.088 808.457 152.559C808.19 152.03 808.057 151.364 808.057 150.56C808.057 149.717 808.196 149.03 808.476 148.497C808.759 147.959 809.148 147.561 809.644 147.303C810.139 147.045 810.701 146.916 811.332 146.916C811.679 146.916 812.013 146.952 812.335 147.024C812.661 147.092 812.927 147.178 813.135 147.284L812.817 148.167C812.606 148.082 812.36 148.006 812.081 147.938C811.806 147.87 811.548 147.836 811.307 147.836C810.824 147.836 810.422 147.94 810.101 148.147C809.783 148.355 809.544 148.66 809.383 149.062C809.227 149.464 809.148 149.959 809.148 150.547C809.148 151.11 809.225 151.59 809.377 151.988C809.534 152.386 809.764 152.69 810.069 152.902C810.378 153.109 810.763 153.213 811.224 153.213C811.592 153.213 811.924 153.175 812.221 153.099C812.517 153.018 812.786 152.925 813.027 152.819V153.759C812.794 153.877 812.534 153.968 812.246 154.032C811.963 154.095 811.624 154.127 811.23 154.127ZM819.178 152.096C819.178 152.54 819.066 152.915 818.841 153.219C818.621 153.52 818.304 153.746 817.889 153.898C817.479 154.051 816.988 154.127 816.417 154.127C815.93 154.127 815.509 154.089 815.153 154.013C814.798 153.937 814.487 153.829 814.22 153.689V152.718C814.504 152.857 814.842 152.984 815.236 153.099C815.629 153.213 816.031 153.27 816.442 153.27C817.043 153.27 817.479 153.173 817.75 152.978C818.02 152.783 818.156 152.519 818.156 152.185C818.156 151.994 818.101 151.827 817.991 151.683C817.885 151.535 817.705 151.393 817.451 151.258C817.197 151.118 816.846 150.966 816.397 150.801C815.953 150.632 815.568 150.464 815.242 150.299C814.921 150.13 814.671 149.925 814.493 149.684C814.32 149.442 814.233 149.129 814.233 148.744C814.233 148.156 814.47 147.705 814.944 147.392C815.422 147.075 816.048 146.916 816.823 146.916C817.242 146.916 817.633 146.958 817.997 147.043C818.365 147.123 818.708 147.233 819.025 147.373L818.67 148.217C818.382 148.095 818.075 147.991 817.75 147.906C817.424 147.822 817.091 147.779 816.753 147.779C816.266 147.779 815.892 147.86 815.629 148.021C815.371 148.181 815.242 148.401 815.242 148.681C815.242 148.896 815.301 149.074 815.42 149.214C815.543 149.354 815.737 149.485 816.004 149.607C816.271 149.73 816.622 149.874 817.058 150.039C817.493 150.2 817.87 150.367 818.188 150.541C818.505 150.71 818.748 150.917 818.917 151.163C819.091 151.404 819.178 151.715 819.178 152.096ZM823.551 146.916C824.144 146.916 824.652 147.047 825.075 147.31C825.498 147.572 825.822 147.94 826.046 148.414C826.27 148.884 826.382 149.434 826.382 150.064V150.718H821.577C821.59 151.535 821.793 152.157 822.187 152.584C822.58 153.012 823.134 153.226 823.85 153.226C824.29 153.226 824.679 153.185 825.018 153.105C825.356 153.025 825.707 152.906 826.071 152.75V153.676C825.72 153.833 825.371 153.947 825.024 154.019C824.681 154.091 824.275 154.127 823.805 154.127C823.137 154.127 822.553 153.992 822.053 153.721C821.558 153.446 821.173 153.044 820.898 152.515C820.623 151.986 820.485 151.338 820.485 150.572C820.485 149.823 820.61 149.176 820.86 148.63C821.114 148.08 821.469 147.657 821.926 147.36C822.388 147.064 822.929 146.916 823.551 146.916ZM823.539 147.779C822.976 147.779 822.527 147.963 822.193 148.332C821.859 148.7 821.66 149.214 821.596 149.874H825.278C825.274 149.459 825.208 149.095 825.081 148.782C824.958 148.465 824.77 148.219 824.516 148.046C824.262 147.868 823.936 147.779 823.539 147.779ZM830.775 146.929C831.604 146.929 832.22 147.115 832.622 147.487C833.024 147.86 833.225 148.454 833.225 149.271V154H832.457L832.254 152.972H832.203C832.008 153.226 831.805 153.439 831.594 153.613C831.382 153.782 831.137 153.911 830.857 154C830.582 154.085 830.244 154.127 829.842 154.127C829.419 154.127 829.042 154.053 828.712 153.905C828.386 153.757 828.128 153.532 827.938 153.232C827.751 152.931 827.658 152.551 827.658 152.089C827.658 151.395 827.933 150.862 828.483 150.49C829.034 150.117 829.871 149.914 830.997 149.88L832.197 149.83V149.404C832.197 148.803 832.068 148.382 831.81 148.141C831.551 147.9 831.188 147.779 830.718 147.779C830.354 147.779 830.007 147.832 829.677 147.938C829.347 148.044 829.034 148.169 828.737 148.312L828.414 147.513C828.727 147.352 829.086 147.214 829.493 147.1C829.899 146.986 830.326 146.929 830.775 146.929ZM832.184 150.572L831.124 150.617C830.257 150.651 829.645 150.792 829.29 151.042C828.934 151.292 828.756 151.645 828.756 152.102C828.756 152.5 828.877 152.794 829.118 152.984C829.359 153.175 829.679 153.27 830.077 153.27C830.694 153.27 831.2 153.099 831.594 152.756C831.987 152.413 832.184 151.899 832.184 151.213V150.572ZM838.557 146.916C838.697 146.916 838.843 146.924 838.995 146.941C839.147 146.954 839.283 146.973 839.401 146.999L839.268 147.976C839.154 147.946 839.027 147.923 838.887 147.906C838.748 147.889 838.616 147.881 838.494 147.881C838.214 147.881 837.95 147.938 837.7 148.052C837.455 148.162 837.239 148.323 837.053 148.535C836.867 148.742 836.721 148.994 836.615 149.29C836.509 149.582 836.456 149.908 836.456 150.268V154H835.396V147.043H836.272L836.386 148.325H836.431C836.575 148.067 836.748 147.832 836.951 147.621C837.154 147.405 837.389 147.233 837.656 147.106C837.927 146.979 838.227 146.916 838.557 146.916ZM843.502 154.127C842.876 154.127 842.323 153.998 841.845 153.74C841.367 153.482 840.995 153.088 840.728 152.559C840.461 152.03 840.328 151.364 840.328 150.56C840.328 149.717 840.468 149.03 840.747 148.497C841.031 147.959 841.42 147.561 841.915 147.303C842.41 147.045 842.973 146.916 843.604 146.916C843.951 146.916 844.285 146.952 844.606 147.024C844.932 147.092 845.199 147.178 845.406 147.284L845.089 148.167C844.877 148.082 844.632 148.006 844.353 147.938C844.077 147.87 843.819 147.836 843.578 147.836C843.096 147.836 842.694 147.94 842.372 148.147C842.055 148.355 841.816 148.66 841.655 149.062C841.498 149.464 841.42 149.959 841.42 150.547C841.42 151.11 841.496 151.59 841.648 151.988C841.805 152.386 842.036 152.69 842.34 152.902C842.649 153.109 843.034 153.213 843.496 153.213C843.864 153.213 844.196 153.175 844.492 153.099C844.788 153.018 845.057 152.925 845.298 152.819V153.759C845.066 153.877 844.805 153.968 844.518 154.032C844.234 154.095 843.896 154.127 843.502 154.127ZM848.002 144.123V147.075C848.002 147.244 847.998 147.415 847.99 147.589C847.981 147.758 847.966 147.915 847.945 148.059H848.015C848.159 147.813 848.341 147.608 848.561 147.443C848.785 147.274 849.039 147.147 849.323 147.062C849.606 146.973 849.907 146.929 850.224 146.929C850.783 146.929 851.248 147.018 851.621 147.195C851.997 147.373 852.279 147.648 852.465 148.021C852.655 148.393 852.75 148.875 852.75 149.468V154H851.709V149.538C851.709 148.958 851.576 148.524 851.31 148.236C851.047 147.949 850.643 147.805 850.097 147.805C849.581 147.805 849.168 147.904 848.859 148.103C848.555 148.298 848.335 148.585 848.199 148.966C848.068 149.347 848.002 149.813 848.002 150.363V154H846.949V144.123H848.002Z" fill="#6F898D"/>
<path d="M878.221 148.293L877.808 150.452H879.604V151.258H877.649L877.11 154H876.253L876.792 151.258H874.856L874.336 154H873.492L873.993 151.258H872.33V150.452H874.152L874.577 148.293H872.812V147.5H874.723L875.25 144.72H876.12L875.593 147.5H877.542L878.068 144.72H878.906L878.379 147.5H880.062V148.293H878.221ZM875.009 150.452H876.945L877.364 148.293H875.428L875.009 150.452ZM883.991 154.127C883.111 154.127 882.412 153.826 881.896 153.226C881.384 152.625 881.128 151.732 881.128 150.547C881.128 149.349 881.39 148.446 881.915 147.836C882.44 147.223 883.138 146.916 884.01 146.916C884.378 146.916 884.7 146.965 884.975 147.062C885.25 147.159 885.487 147.291 885.686 147.456C885.884 147.616 886.052 147.8 886.187 148.008H886.263C886.246 147.877 886.229 147.697 886.212 147.468C886.195 147.24 886.187 147.054 886.187 146.91V144.123H887.241V154H886.39L886.231 153.01H886.187C886.056 153.217 885.889 153.405 885.686 153.575C885.487 153.744 885.248 153.879 884.968 153.981C884.693 154.078 884.367 154.127 883.991 154.127ZM884.156 153.251C884.901 153.251 885.427 153.039 885.736 152.616C886.045 152.193 886.2 151.565 886.2 150.731V150.541C886.2 149.656 886.052 148.977 885.755 148.503C885.463 148.029 884.93 147.792 884.156 147.792C883.508 147.792 883.024 148.042 882.702 148.541C882.381 149.036 882.22 149.713 882.22 150.572C882.22 151.427 882.378 152.087 882.696 152.553C883.017 153.018 883.504 153.251 884.156 153.251ZM892.078 146.929C892.907 146.929 893.523 147.115 893.925 147.487C894.327 147.86 894.528 148.454 894.528 149.271V154H893.76L893.557 152.972H893.506C893.311 153.226 893.108 153.439 892.896 153.613C892.685 153.782 892.439 153.911 892.16 154C891.885 154.085 891.547 154.127 891.145 154.127C890.721 154.127 890.345 154.053 890.015 153.905C889.689 153.757 889.431 153.532 889.24 153.232C889.054 152.931 888.961 152.551 888.961 152.089C888.961 151.395 889.236 150.862 889.786 150.49C890.336 150.117 891.174 149.914 892.3 149.88L893.5 149.83V149.404C893.5 148.803 893.37 148.382 893.112 148.141C892.854 147.9 892.49 147.779 892.021 147.779C891.657 147.779 891.31 147.832 890.979 147.938C890.649 148.044 890.336 148.169 890.04 148.312L889.716 147.513C890.029 147.352 890.389 147.214 890.795 147.1C891.202 146.986 891.629 146.929 892.078 146.929ZM893.487 150.572L892.427 150.617C891.559 150.651 890.948 150.792 890.592 151.042C890.237 151.292 890.059 151.645 890.059 152.102C890.059 152.5 890.18 152.794 890.421 152.984C890.662 153.175 890.982 153.27 891.379 153.27C891.997 153.27 892.503 153.099 892.896 152.756C893.29 152.413 893.487 151.899 893.487 151.213V150.572ZM898.946 153.264C899.119 153.264 899.297 153.249 899.479 153.219C899.661 153.19 899.809 153.154 899.923 153.111V153.93C899.801 153.985 899.629 154.032 899.409 154.07C899.193 154.108 898.982 154.127 898.774 154.127C898.406 154.127 898.072 154.063 897.771 153.937C897.471 153.805 897.23 153.585 897.048 153.276C896.87 152.967 896.781 152.54 896.781 151.994V147.868H895.791V147.354L896.788 146.941L897.207 145.431H897.841V147.043H899.879V147.868H897.841V151.962C897.841 152.398 897.941 152.724 898.14 152.94C898.343 153.156 898.611 153.264 898.946 153.264ZM903.935 146.929C904.764 146.929 905.38 147.115 905.782 147.487C906.184 147.86 906.385 148.454 906.385 149.271V154H905.617L905.414 152.972H905.363C905.169 153.226 904.965 153.439 904.754 153.613C904.542 153.782 904.297 153.911 904.018 154C903.743 154.085 903.404 154.127 903.002 154.127C902.579 154.127 902.202 154.053 901.872 153.905C901.546 153.757 901.288 153.532 901.098 153.232C900.911 152.931 900.818 152.551 900.818 152.089C900.818 151.395 901.093 150.862 901.644 150.49C902.194 150.117 903.032 149.914 904.157 149.88L905.357 149.83V149.404C905.357 148.803 905.228 148.382 904.97 148.141C904.712 147.9 904.348 147.779 903.878 147.779C903.514 147.779 903.167 147.832 902.837 147.938C902.507 148.044 902.194 148.169 901.897 148.312L901.574 147.513C901.887 147.352 902.247 147.214 902.653 147.1C903.059 146.986 903.486 146.929 903.935 146.929ZM905.344 150.572L904.284 150.617C903.417 150.651 902.805 150.792 902.45 151.042C902.094 151.292 901.917 151.645 901.917 152.102C901.917 152.5 902.037 152.794 902.278 152.984C902.52 153.175 902.839 153.27 903.237 153.27C903.855 153.27 904.36 153.099 904.754 152.756C905.147 152.413 905.344 151.899 905.344 151.213V150.572ZM913.057 152.096C913.057 152.54 912.944 152.915 912.72 153.219C912.5 153.52 912.183 153.746 911.768 153.898C911.358 154.051 910.867 154.127 910.295 154.127C909.809 154.127 909.388 154.089 909.032 154.013C908.677 153.937 908.366 153.829 908.099 153.689V152.718C908.383 152.857 908.721 152.984 909.115 153.099C909.508 153.213 909.91 153.27 910.321 153.27C910.922 153.27 911.358 153.173 911.628 152.978C911.899 152.783 912.035 152.519 912.035 152.185C912.035 151.994 911.98 151.827 911.87 151.683C911.764 151.535 911.584 151.393 911.33 151.258C911.076 151.118 910.725 150.966 910.276 150.801C909.832 150.632 909.447 150.464 909.121 150.299C908.799 150.13 908.55 149.925 908.372 149.684C908.199 149.442 908.112 149.129 908.112 148.744C908.112 148.156 908.349 147.705 908.823 147.392C909.301 147.075 909.927 146.916 910.702 146.916C911.121 146.916 911.512 146.958 911.876 147.043C912.244 147.123 912.587 147.233 912.904 147.373L912.549 148.217C912.261 148.095 911.954 147.991 911.628 147.906C911.303 147.822 910.97 147.779 910.632 147.779C910.145 147.779 909.771 147.86 909.508 148.021C909.25 148.181 909.121 148.401 909.121 148.681C909.121 148.896 909.18 149.074 909.299 149.214C909.422 149.354 909.616 149.485 909.883 149.607C910.149 149.73 910.501 149.874 910.937 150.039C911.372 150.2 911.749 150.367 912.066 150.541C912.384 150.71 912.627 150.917 912.796 151.163C912.97 151.404 913.057 151.715 913.057 152.096ZM916.999 153.264C917.172 153.264 917.35 153.249 917.532 153.219C917.714 153.19 917.862 153.154 917.976 153.111V153.93C917.853 153.985 917.682 154.032 917.462 154.07C917.246 154.108 917.035 154.127 916.827 154.127C916.459 154.127 916.125 154.063 915.824 153.937C915.524 153.805 915.283 153.585 915.101 153.276C914.923 152.967 914.834 152.54 914.834 151.994V147.868H913.844V147.354L914.84 146.941L915.259 145.431H915.894V147.043H917.932V147.868H915.894V151.962C915.894 152.398 915.993 152.724 916.192 152.94C916.396 153.156 916.664 153.264 916.999 153.264ZM922.546 146.916C922.686 146.916 922.832 146.924 922.984 146.941C923.137 146.954 923.272 146.973 923.391 146.999L923.257 147.976C923.143 147.946 923.016 147.923 922.876 147.906C922.737 147.889 922.606 147.881 922.483 147.881C922.204 147.881 921.939 147.938 921.689 148.052C921.444 148.162 921.228 148.323 921.042 148.535C920.856 148.742 920.71 148.994 920.604 149.29C920.498 149.582 920.445 149.908 920.445 150.268V154H919.385V147.043H920.261L920.375 148.325H920.42C920.564 148.067 920.737 147.832 920.94 147.621C921.144 147.405 921.378 147.233 921.645 147.106C921.916 146.979 922.216 146.916 922.546 146.916ZM927.383 146.916C927.976 146.916 928.484 147.047 928.907 147.31C929.33 147.572 929.654 147.94 929.878 148.414C930.102 148.884 930.214 149.434 930.214 150.064V150.718H925.409C925.422 151.535 925.625 152.157 926.019 152.584C926.412 153.012 926.966 153.226 927.682 153.226C928.122 153.226 928.511 153.185 928.85 153.105C929.188 153.025 929.539 152.906 929.903 152.75V153.676C929.552 153.833 929.203 153.947 928.856 154.019C928.513 154.091 928.107 154.127 927.637 154.127C926.969 154.127 926.385 153.992 925.885 153.721C925.39 153.446 925.005 153.044 924.73 152.515C924.455 151.986 924.317 151.338 924.317 150.572C924.317 149.823 924.442 149.176 924.692 148.63C924.946 148.08 925.301 147.657 925.758 147.36C926.22 147.064 926.761 146.916 927.383 146.916ZM927.371 147.779C926.808 147.779 926.359 147.963 926.025 148.332C925.691 148.7 925.492 149.214 925.428 149.874H929.11C929.106 149.459 929.04 149.095 928.913 148.782C928.79 148.465 928.602 148.219 928.348 148.046C928.094 147.868 927.768 147.779 927.371 147.779ZM934.607 146.929C935.436 146.929 936.052 147.115 936.454 147.487C936.856 147.86 937.057 148.454 937.057 149.271V154H936.289L936.086 152.972H936.035C935.84 153.226 935.637 153.439 935.426 153.613C935.214 153.782 934.969 153.911 934.689 154C934.414 154.085 934.076 154.127 933.674 154.127C933.251 154.127 932.874 154.053 932.544 153.905C932.218 153.757 931.96 153.532 931.77 153.232C931.583 152.931 931.49 152.551 931.49 152.089C931.49 151.395 931.765 150.862 932.315 150.49C932.866 150.117 933.703 149.914 934.829 149.88L936.029 149.83V149.404C936.029 148.803 935.9 148.382 935.642 148.141C935.383 147.9 935.02 147.779 934.55 147.779C934.186 147.779 933.839 147.832 933.509 147.938C933.179 148.044 932.866 148.169 932.569 148.312L932.246 147.513C932.559 147.352 932.918 147.214 933.325 147.1C933.731 146.986 934.158 146.929 934.607 146.929ZM936.016 150.572L934.956 150.617C934.089 150.651 933.477 150.792 933.122 151.042C932.766 151.292 932.588 151.645 932.588 152.102C932.588 152.5 932.709 152.794 932.95 152.984C933.191 153.175 933.511 153.27 933.909 153.27C934.527 153.27 935.032 153.099 935.426 152.756C935.819 152.413 936.016 151.899 936.016 151.213V150.572ZM946.782 146.916C947.548 146.916 948.125 147.117 948.515 147.519C948.904 147.917 949.099 148.558 949.099 149.442V154H948.058V149.493C948.058 148.93 947.935 148.509 947.689 148.23C947.448 147.946 947.089 147.805 946.61 147.805C945.938 147.805 945.449 147.999 945.144 148.389C944.839 148.778 944.687 149.351 944.687 150.109V154H943.64V149.493C943.64 149.117 943.585 148.803 943.475 148.554C943.369 148.304 943.208 148.118 942.992 147.995C942.781 147.868 942.512 147.805 942.186 147.805C941.725 147.805 941.354 147.9 941.075 148.09C940.796 148.281 940.593 148.564 940.466 148.941C940.343 149.313 940.282 149.772 940.282 150.318V154H939.228V147.043H940.079L940.237 148.027H940.294C940.434 147.786 940.61 147.583 940.821 147.417C941.033 147.252 941.27 147.128 941.532 147.043C941.795 146.958 942.074 146.916 942.37 146.916C942.899 146.916 943.341 147.015 943.697 147.214C944.056 147.409 944.317 147.707 944.478 148.109H944.535C944.763 147.707 945.076 147.409 945.474 147.214C945.872 147.015 946.308 146.916 946.782 146.916ZM955.764 152.096C955.764 152.54 955.652 152.915 955.427 153.219C955.207 153.52 954.89 153.746 954.475 153.898C954.065 154.051 953.574 154.127 953.002 154.127C952.516 154.127 952.095 154.089 951.739 154.013C951.384 153.937 951.073 153.829 950.806 153.689V152.718C951.09 152.857 951.428 152.984 951.822 153.099C952.215 153.213 952.617 153.27 953.028 153.27C953.629 153.27 954.065 153.173 954.335 152.978C954.606 152.783 954.742 152.519 954.742 152.185C954.742 151.994 954.687 151.827 954.577 151.683C954.471 151.535 954.291 151.393 954.037 151.258C953.783 151.118 953.432 150.966 952.983 150.801C952.539 150.632 952.154 150.464 951.828 150.299C951.507 150.13 951.257 149.925 951.079 149.684C950.906 149.442 950.819 149.129 950.819 148.744C950.819 148.156 951.056 147.705 951.53 147.392C952.008 147.075 952.634 146.916 953.409 146.916C953.828 146.916 954.219 146.958 954.583 147.043C954.951 147.123 955.294 147.233 955.611 147.373L955.256 148.217C954.968 148.095 954.661 147.991 954.335 147.906C954.01 147.822 953.677 147.779 953.339 147.779C952.852 147.779 952.478 147.86 952.215 148.021C951.957 148.181 951.828 148.401 951.828 148.681C951.828 148.896 951.887 149.074 952.006 149.214C952.129 149.354 952.323 149.485 952.59 149.607C952.856 149.73 953.208 149.874 953.644 150.039C954.079 150.2 954.456 150.367 954.773 150.541C955.091 150.71 955.334 150.917 955.503 151.163C955.677 151.404 955.764 151.715 955.764 152.096Z" fill="#6F898D"/>
<circle cx="1045" cy="126" r="18" fill="#E9F7F7"/>
<path d="M1044.5 109L1048.41 120.747L1061.07 120.747L1050.83 128.007L1054.74 139.753L1044.5 132.493L1034.26 139.753L1038.17 128.007L1027.93 120.747L1040.59 120.747L1044.5 109Z" fill="#F6FDFD"/>
<rect width="2110" height="187" fill="#F4FBFB"/>
<mask id="mask0_77_196" style="mask-type:alpha" maskUnits="userSpaceOnUse" x="2" y="4" width="2100" height="183">
<rect x="2" y="4" width="2100" height="183" fill="url(#paint0_linear_77_196)"/>
</mask>
<g mask="url(#mask0_77_196)">
<circle opacity="0.56" cx="1160.79" cy="-110" r="263.5" stroke="#65BFD4" stroke-dasharray="6 6"/>
<circle opacity="0.5" cx="1656" cy="356" r="403.5" stroke="#65BFD4" stroke-dasharray="6 6"/>
<circle opacity="0.56" cx="976.791" cy="327" r="389.5" stroke="#65BFD4" stroke-dasharray="6 6"/>
<circle opacity="0.56" cx="1606.29" cy="-74.5" r="330" stroke="#65BFD4" stroke-dasharray="6 6"/>
<circle opacity="0.2" cx="1161" cy="-110" r="263.5" stroke="#65BFD4" stroke-dasharray="6 6"/>
<circle opacity="0.2" cx="977" cy="327" r="389.5" stroke="#65BFD4" stroke-dasharray="6 6"/>
<circle opacity="0.2" cx="1606.5" cy="-74.5" r="330" stroke="#65BFD4" stroke-dasharray="6 6"/>
<circle cx="949" cy="43" r="18" fill="#E9F7F7"/>
<path fill-rule="evenodd" clip-rule="evenodd" d="M959.996 34.8664V34.2804C960.002 34.2447 960.001 34.2081 959.992 34.173C959.983 34.1378 959.966 34.1049 959.942 34.0765C959.919 34.0515 959.89 34.0317 959.857 34.0185C959.825 34.0053 959.79 33.999 959.755 34.0001H959.112C953.355 34.2039 948.347 36.8791 945.321 41.0574L939.457 43.5287C939.309 43.5959 939.186 43.7045 939.105 43.8399C939.024 43.9753 938.989 44.1311 939.003 44.2863C939.018 44.4416 939.082 44.5889 939.187 44.7085C939.292 44.8281 939.433 44.9142 939.591 44.9555L942.992 45.8217C942.911 46.0765 942.831 46.3567 942.777 46.637L942.724 46.9172C942.716 46.9588 942.72 47.0015 942.734 47.0415C942.748 47.0816 942.772 47.1176 942.804 47.1465L946.205 50.4331C946.254 50.4811 946.322 50.5086 946.392 50.5096H946.446L946.741 50.4331L947.597 50.2293L948.481 53.4395C948.525 53.5929 948.619 53.7293 948.748 53.8298C948.878 53.9303 949.037 53.9898 949.204 54H949.284C949.439 53.9976 949.589 53.953 949.717 53.8717C949.845 53.7904 949.946 53.6758 950.007 53.5414L952.632 47.9618C956.997 45.1083 959.808 40.344 959.996 34.8664ZM953.335 37.0978C953.007 37.4128 952.783 37.8146 952.692 38.2522C952.601 38.6898 952.647 39.1435 952.824 39.556C953.001 39.9684 953.301 40.321 953.686 40.5691C954.071 40.8172 954.524 40.9496 954.988 40.9496C955.451 40.9496 955.904 40.8172 956.29 40.5691C956.675 40.321 956.975 39.9684 957.152 39.556C957.329 39.1435 957.375 38.6898 957.284 38.2522C957.193 37.8146 956.969 37.4128 956.641 37.0978C956.202 36.6767 955.608 36.4402 954.988 36.4402C954.368 36.4402 953.774 36.6767 953.335 37.0978ZM941.912 48.0643C941.94 48.035 941.974 48.0144 942.011 48.0042C942.049 47.9962 942.088 47.9998 942.125 48.0144C942.162 48.0291 942.195 48.0545 942.221 48.0883L944.935 51.3383C944.96 51.3705 944.98 51.4096 944.99 51.4523C945.001 51.4951 945.003 51.5403 944.996 51.5841C944.989 51.628 944.974 51.6692 944.951 51.7044C944.928 51.7397 944.898 51.7678 944.864 51.7866L941.005 53.916L940.701 54C940.582 53.9999 940.466 53.9637 940.362 53.8949C940.258 53.826 940.17 53.7268 940.107 53.6065C940.044 53.4862 940.008 53.3486 940.001 53.2068C939.994 53.0649 940.018 52.9233 940.069 52.7953L941.847 48.1723C941.861 48.1306 941.883 48.0936 941.912 48.0643Z" fill="#F6FDFD"/>
</g>
<g clip-path="url(#clip0_77_196)">
<path fill-rule="evenodd" clip-rule="evenodd" d="M533.371 30.7892C533.244 30.4742 533.404 30.117 533.723 30.0013L548.019 24.8184C548.323 24.7082 548.659 24.8587 548.78 25.1587L554.453 39.2676C554.579 39.5826 554.42 39.9398 554.1 40.0555L539.804 45.2384C539.5 45.3486 539.164 45.1981 539.043 44.8981L533.371 30.7892Z" fill="#E9F7F7"/>
<path fill-rule="evenodd" clip-rule="evenodd" d="M548.728 68.7334C548.6 68.4159 548.763 68.0561 549.086 67.9431L563.448 62.9228C563.75 62.817 564.083 62.9678 564.202 63.2653L569.81 77.2117C569.935 77.5241 569.779 77.8787 569.464 77.9972L555.233 83.3426C554.928 83.4572 554.587 83.3072 554.466 83.0047L548.728 68.7334Z" fill="#E9F7F7"/>
<path fill-rule="evenodd" clip-rule="evenodd" d="M560.296 42.8225C560.172 42.5093 560.33 42.1556 560.646 42.039L574.827 36.8047C575.131 36.6927 575.468 36.8412 575.591 37.1405L581.378 51.3009C581.508 51.6176 581.346 51.9783 581.024 52.0931L566.613 57.2246C566.308 57.3331 565.973 57.1806 565.854 56.8799L560.296 42.8225Z" fill="#E9F7F7"/>
<path fill-rule="evenodd" clip-rule="evenodd" d="M521.79 56.6895C521.665 56.3737 521.827 56.0174 522.147 55.9036L536.393 50.8318C536.695 50.7243 537.028 50.8732 537.15 51.17L542.872 65.1678C543 65.482 542.843 65.8402 542.524 65.9577L528.179 71.2517C527.873 71.3646 527.533 71.2126 527.413 70.9095L521.79 56.6895Z" fill="#E9F7F7"/>
</g>
<circle cx="1125.63" cy="151.634" r="17.1863" transform="rotate(30 1125.63 151.634)" fill="#E9F7F7"/>
<g clip-path="url(#clip1_77_196)">
<path fill-rule="evenodd" clip-rule="evenodd" d="M1119.44 142.354C1119.35 142.029 1119.54 141.691 1119.87 141.608L1124.75 140.38C1125.07 140.301 1125.39 140.486 1125.48 140.798L1126.86 145.641C1126.95 145.966 1126.75 146.304 1126.42 146.387L1121.54 147.615C1121.23 147.694 1120.91 147.509 1120.82 147.197L1119.44 142.354Z" fill="#F6FDFD"/>
<path fill-rule="evenodd" clip-rule="evenodd" d="M1124.1 157.943C1124.01 157.615 1124.21 157.275 1124.54 157.195L1129.44 156.023C1129.75 155.948 1130.07 156.133 1130.15 156.442L1131.51 161.229C1131.61 161.552 1131.42 161.888 1131.09 161.974L1126.22 163.258C1125.91 163.341 1125.58 163.156 1125.49 162.842L1124.1 157.943Z" fill="#F6FDFD"/>
<path fill-rule="evenodd" clip-rule="evenodd" d="M1129.13 147.944C1129.04 147.621 1129.23 147.286 1129.55 147.202L1134.4 145.953C1134.72 145.872 1135.04 146.056 1135.13 146.367L1136.54 151.231C1136.64 151.558 1136.44 151.899 1136.11 151.981L1131.19 153.188C1130.87 153.265 1130.55 153.079 1130.47 152.766L1129.13 147.944Z" fill="#F6FDFD"/>
<path fill-rule="evenodd" clip-rule="evenodd" d="M1114.04 151.711C1113.95 151.384 1114.14 151.048 1114.47 150.967L1119.33 149.774C1119.65 149.697 1119.96 149.88 1120.05 150.189L1121.45 154.997C1121.55 155.322 1121.35 155.661 1121.02 155.745L1116.12 157.008C1115.8 157.09 1115.48 156.903 1115.39 156.588L1114.04 151.711Z" fill="#F6FDFD"/>
</g>
<circle cx="657" cy="104" r="18" fill="#E9F7F7"/>
<path d="M646.255 110L651.05 93.4852L667.75 97.5901L662.955 114.105L646.255 110Z" stroke="#F6FDFD" stroke-width="2" stroke-linecap="round"/>
<path d="M651.51 106.986L654.012 98.5793L662.52 100.629L660.171 109.247L651.51 106.986Z" stroke="#F6FDFD" stroke-width="2" stroke-linecap="round"/>
<path d="M839.501 101.6L844.176 115.696L859.307 115.696L847.066 124.408L851.741 138.504L839.501 129.792L827.26 138.504L831.936 124.408L819.695 115.696L834.825 115.696L839.501 101.6Z" fill="#E9F7F7"/>
<g clip-path="url(#clip2_77_196)">
<path d="M1369.44 155.357L1369.37 154.941L1369.76 154.796C1370.82 154.409 1371.85 153.974 1372.85 153.494L1373.06 153.944C1375.13 152.95 1377.07 151.764 1378.85 150.411L1378.55 150.012C1380.34 148.657 1381.98 147.131 1383.44 145.461L1383.82 145.791C1385.32 144.086 1386.63 142.234 1387.75 140.26L1387.31 140.014C1388.4 138.082 1389.3 136.032 1389.98 133.89L1390.46 134.041C1391.13 131.909 1391.6 129.687 1391.83 127.4L1391.33 127.349C1391.44 126.25 1391.5 125.134 1391.5 124.007C1391.5 122.879 1391.44 121.76 1391.32 120.654L1391.82 120.601C1391.58 118.319 1391.1 116.089 1390.4 113.941L1389.92 114.096C1389.23 111.957 1388.32 109.901 1387.21 107.959L1387.65 107.711C1386.52 105.733 1385.2 103.871 1383.71 102.157L1383.33 102.485C1381.86 100.799 1380.22 99.2573 1378.44 97.8923L1378.74 97.4953C1376.94 96.1196 1375 94.9202 1372.94 93.9276L1372.72 94.3781C1371.72 93.8945 1370.69 93.4607 1369.63 93.0805L1369.16 92.9125L1369.32 92.4436C1369.57 91.7572 1369.78 91.0531 1369.97 90.3359L1370.45 90.4621C1370.83 89.0279 1371.09 87.5426 1371.22 86.0403L1370.72 85.9963C1370.79 85.2653 1370.82 84.5307 1370.82 83.7965C1370.82 82.6921 1370.75 81.6053 1370.61 80.5405L1371.1 80.475C1370.81 78.2321 1370.22 76.0834 1369.37 74.0677L1368.91 74.2614C1368.06 72.2401 1366.95 70.3548 1365.62 68.6463L1366.01 68.3392C1364.65 66.587 1363.06 65.0174 1361.29 63.6728L1360.99 64.0709C1359.26 62.7622 1357.37 61.6707 1355.34 60.837L1355.53 60.3745C1353.5 59.5432 1351.35 58.963 1349.11 58.6726L1349.04 59.1684C1347.98 59.0301 1346.89 58.9588 1345.79 58.9588C1344.4 58.9588 1343.02 59.0755 1341.67 59.3026L1341.59 58.8095C1338.8 59.2766 1336.11 60.2016 1333.64 61.5325L1333.88 61.9727C1332.66 62.6259 1331.5 63.3787 1330.41 64.2245L1330 64.5403L1329.7 64.1236C1329.15 63.3659 1328.58 62.6269 1327.99 61.9072L1328.37 61.5901C1327.17 60.1231 1325.89 58.7354 1324.54 57.4319L1324.19 57.7918C1322.84 56.4909 1321.42 55.2747 1319.94 54.1481L1320.24 53.75C1318.74 52.6065 1317.17 51.5543 1315.54 50.5984L1315.29 51.0294C1313.68 50.0829 1312.02 49.2318 1310.3 48.4812L1310.51 48.0233C1308.78 47.2672 1307.01 46.612 1305.2 46.0624L1305.05 46.5409C1303.27 46.0012 1301.46 45.5645 1299.61 45.2357L1299.7 44.7435C1297.85 44.4152 1295.98 44.1933 1294.08 44.0824L1294.05 44.5816C1293.12 44.5274 1292.19 44.5 1291.25 44.5C1290.21 44.5 1289.18 44.5334 1288.16 44.5992L1288.13 44.1002C1286.03 44.2354 1283.96 44.5061 1281.94 44.9035L1282.04 45.3941C1280 45.7951 1278.01 46.3266 1276.08 46.9792L1275.92 46.5054C1273.93 47.174 1272.01 47.9684 1270.15 48.879L1270.37 49.328C1268.51 50.2376 1266.73 51.2643 1265.02 52.3984L1264.74 51.9817C1263 53.1341 1261.34 54.3961 1259.78 55.7577L1260.1 56.1352C1258.55 57.4859 1257.08 58.9356 1255.71 60.4742L1255.34 60.1421C1253.96 61.6962 1252.68 63.3401 1251.51 65.0636L1251.92 65.3444C1250.77 67.0435 1249.73 68.8208 1248.8 70.6661L1248.35 70.4419C1247.43 72.2929 1246.61 74.2118 1245.93 76.1887L1246.41 76.3518C1245.74 78.2836 1245.2 80.2714 1244.79 82.3059L1244.3 82.2072C1243.89 84.225 1243.61 86.2882 1243.47 88.3879L1243.97 88.4207C1243.91 89.4416 1243.87 90.4713 1243.87 91.5086C1243.87 92.2711 1243.89 93.0253 1243.92 93.7712L1243.42 93.793C1243.49 95.3439 1243.63 96.8605 1243.83 98.3427L1244.33 98.2738C1244.43 99.0259 1244.55 99.7689 1244.69 100.503L1244.78 100.922L1244.37 101.067C1243.31 101.452 1242.27 101.886 1241.27 102.366L1241.05 101.915C1238.97 102.91 1237.02 104.099 1235.23 105.456L1235.53 105.855C1233.72 107.217 1232.08 108.749 1230.61 110.427L1230.23 110.097C1228.73 111.811 1227.4 113.673 1226.28 115.656L1226.72 115.902C1225.62 117.846 1224.72 119.907 1224.03 122.058L1223.56 121.907C1222.87 124.053 1222.41 126.287 1222.17 128.583L1222.67 128.634C1222.56 129.74 1222.5 130.861 1222.5 131.994C1222.5 133.124 1222.56 134.244 1222.68 135.352L1222.18 135.404C1222.42 137.691 1222.89 139.926 1223.59 142.076L1224.06 141.922C1224.76 144.066 1225.67 146.125 1226.77 148.068L1226.34 148.316C1227.47 150.295 1228.8 152.156 1230.3 153.865L1230.68 153.534C1232.16 155.211 1233.81 156.74 1235.62 158.089L1235.32 158.49C1237.12 159.842 1239.08 161.016 1241.17 161.982L1241.38 161.529C1242.39 161.996 1243.43 162.414 1244.5 162.779L1244.98 162.942L1244.81 163.419C1244.57 164.105 1244.36 164.809 1244.17 165.526L1243.69 165.4C1243.31 166.834 1243.05 168.32 1242.92 169.822L1243.41 169.866C1243.35 170.597 1243.32 171.332 1243.32 172.066C1243.32 173.17 1243.39 174.257 1243.53 175.322L1243.03 175.387C1243.33 177.63 1243.92 179.779 1244.77 181.795L1245.23 181.601C1246.08 183.622 1247.19 185.508 1248.52 187.216L1248.13 187.523C1249.49 189.275 1251.08 190.845 1252.85 192.19L1253.15 191.791C1254.87 193.1 1256.77 194.192 1258.8 195.025L1258.61 195.488C1260.64 196.319 1262.79 196.899 1265.03 197.19L1265.09 196.694C1266.16 196.832 1267.25 196.903 1268.35 196.903C1269.73 196.903 1271.1 196.796 1272.43 196.583L1272.51 197.077C1275.28 196.636 1277.94 195.751 1280.39 194.44L1280.16 193.999C1281.35 193.36 1282.5 192.618 1283.59 191.775L1284 191.458L1284.3 191.879C1284.85 192.64 1285.42 193.381 1286 194.103L1285.61 194.418C1286.81 195.892 1288.09 197.284 1289.44 198.588L1289.79 198.229C1291.14 199.533 1292.56 200.75 1294.04 201.876L1293.74 202.274C1295.24 203.418 1296.81 204.469 1298.44 205.423L1298.69 204.991C1300.3 205.937 1301.97 206.785 1303.68 207.533L1303.48 207.991C1305.21 208.745 1306.98 209.398 1308.79 209.945L1308.94 209.466C1310.72 210.004 1312.54 210.439 1314.39 210.766L1314.3 211.258C1316.15 211.586 1318.02 211.807 1319.92 211.918L1319.95 211.419C1320.88 211.473 1321.81 211.5 1322.75 211.5C1323.79 211.5 1324.83 211.467 1325.85 211.401L1325.88 211.9C1327.99 211.765 1330.06 211.495 1332.09 211.099L1331.99 210.608C1334.04 210.208 1336.03 209.677 1337.98 209.025L1338.14 209.499C1340.13 208.83 1342.06 208.036 1343.92 207.125L1343.7 206.676C1345.57 205.765 1347.36 204.737 1349.08 203.601L1349.35 204.018C1351.1 202.863 1352.76 201.598 1354.34 200.232L1354.01 199.855C1355.57 198.5 1357.04 197.046 1358.41 195.502L1358.79 195.834C1360.17 194.274 1361.45 192.624 1362.63 190.894L1362.21 190.614C1363.37 188.909 1364.41 187.124 1365.34 185.272L1365.79 185.495C1366.72 183.638 1367.53 181.712 1368.21 179.727L1367.74 179.564C1368.4 177.626 1368.95 175.631 1369.35 173.589L1369.84 173.687C1370.25 171.663 1370.53 169.593 1370.66 167.485L1370.17 167.453C1370.23 166.428 1370.27 165.395 1370.27 164.354V164.354C1370.27 163.599 1370.25 162.845 1370.22 162.092L1370.72 162.07C1370.65 160.548 1370.51 159.03 1370.3 157.521L1369.81 157.589C1369.7 156.843 1369.58 156.098 1369.44 155.357Z" fill="#F4FBFB" stroke="#A4D9E5" stroke-dasharray="6 6"/>
<path d="M1379.43 124.574C1379.43 136.613 1371.95 147.016 1360.85 151.107C1361.32 153.652 1361.55 156.234 1361.55 158.822C1361.55 181.147 1343.43 199.264 1321.1 199.264C1308.13 199.264 1295.97 193.069 1288.38 182.433C1284.64 185.355 1280.08 186.874 1275.29 186.874C1263.48 186.874 1253.78 177.29 1253.78 165.367C1253.78 162.796 1254.25 160.224 1255.06 157.886C1243.84 154.029 1236.25 143.276 1236.25 131.354C1236.25 119.314 1243.73 108.795 1254.95 104.704C1254.48 102.249 1254.25 99.6776 1254.25 96.9897C1254.25 74.7814 1272.36 56.6639 1294.57 56.6639C1307.66 56.6639 1319.7 62.9757 1327.3 73.4953C1331.04 70.5735 1335.72 68.9367 1340.51 68.9367C1352.31 68.9367 1362.01 78.5215 1362.01 90.4436C1362.01 93.0151 1361.55 95.5867 1360.73 97.9245C1371.72 101.898 1379.43 112.652 1379.43 124.574H1379.43Z" fill="white"/>
<path d="M1292.23 138.017L1324.14 123.406L1356.4 151.692C1356.87 154.039 1357.11 156.428 1357.1 158.822C1357.1 178.692 1340.97 194.823 1321.1 194.823C1309.18 194.823 1298.08 188.978 1291.41 179.16L1286.04 151.341L1292.23 138.016V138.017Z" fill="#F4BD19"/>
<path d="M1259.15 104.236C1258.69 101.899 1258.45 99.444 1258.45 96.9893C1258.45 77.1193 1274.7 60.872 1294.57 60.872C1306.61 60.872 1317.71 66.833 1324.49 76.6516L1329.75 104.47L1322.62 118.029L1290.6 132.64L1259.15 104.236Z" fill="#3CBEB1"/>
<path d="M1258.92 159.523L1280.78 154.38L1285.69 179.277C1282.65 181.615 1279.03 182.783 1275.17 182.783C1265.7 182.783 1257.87 175.069 1257.87 165.484C1257.87 163.497 1258.22 161.393 1258.92 159.523H1258.92Z" fill="#E9478C"/>
<path d="M1257.05 154.264C1247.23 151.108 1240.45 141.64 1240.45 131.354C1240.45 121.302 1246.65 112.301 1256 108.795L1286.74 136.614L1281.13 148.653L1257.05 154.263V154.264Z" fill="#2C458F"/>
<path d="M1330.1 76.7685C1333.14 74.4302 1336.77 73.1446 1340.51 73.1446C1349.97 73.1446 1357.81 80.8588 1357.81 90.4437C1357.81 92.5476 1357.45 94.5352 1356.75 96.4053L1334.9 101.548L1330.1 76.7685Z" fill="#95C63D"/>
<path d="M1334.55 107.276L1358.62 101.665C1368.44 104.937 1375.22 114.288 1375.22 124.575C1375.22 134.627 1369.03 143.51 1359.68 147.133L1328.12 119.549L1334.55 107.275V107.276Z" fill="#176655"/>
<circle cx="1230.27" cy="31.268" r="16.3013" transform="rotate(30 1230.27 31.268)" fill="#E9F7F7"/>
<path fill-rule="evenodd" clip-rule="evenodd" d="M1227.72 39.408L1239.17 27.959C1240.37 26.7627 1240.37 24.8232 1239.17 23.6269C1237.98 22.4307 1236.04 22.4307 1234.84 23.6269L1223.39 35.0759L1221.76 40.2707C1221.61 40.7435 1222.06 41.1881 1222.53 41.0396L1227.72 39.408ZM1224.57 36.4393L1226.36 38.2292L1223.75 39.0488L1224.57 36.4393ZM1234.12 26.5115L1225.47 35.1682L1227.63 37.3321L1236.29 28.6754L1234.12 26.5115ZM1235.21 25.4274L1237.37 27.5913L1238.09 26.8749C1238.69 26.2774 1238.69 25.3086 1238.09 24.711C1237.49 24.1135 1236.52 24.1135 1235.92 24.711L1235.21 25.4274Z" fill="#F7FDFD"/>
</g>
<rect x="1669" width="441" height="187" fill="#F4FBFB"/>
<defs>
<linearGradient id="paint0_linear_77_196" x1="1052" y1="4" x2="1052" y2="187" gradientUnits="userSpaceOnUse">
<stop offset="0.5625" stop-color="#F4FBFB"/>
<stop offset="1" stop-color="#F4FBFB" stop-opacity="0"/>
</linearGradient>
<clipPath id="clip0_77_196">
<rect width="59" height="57" fill="white" transform="translate(536.262 16) rotate(24.0846)"/>
</clipPath>
<clipPath id="clip1_77_196">
<rect width="27.0071" height="26.1887" fill="white" transform="translate(1120.13 133.338) rotate(30)"/>
</clipPath>
<clipPath id="clip2_77_196">
<rect width="207" height="220" fill="white" transform="matrix(1 0 0 -1 1205 231)"/>
</clipPath>
</defs>
</svg>
