<svg width="536" height="1076" viewBox="0 0 536 1076" fill="none" xmlns="http://www.w3.org/2000/svg">
<g clip-path="url(#clip0_14386_104512)">
<rect width="536" height="1076" fill="url(#paint0_linear_14386_104512)"/>
<path opacity="0.3" d="M-203 182.639L-203 112.759L-203 44.9352L-203 -50.6389C-203 -55.8987 -200.081 -60.7589 -195.342 -63.3887L14.8416 -180.028C19.5806 -182.657 25.4194 -182.657 30.1584 -180.028L240.342 -63.3887C245.081 -60.7589 248 -55.8987 248 -50.6389V20.42V88.6938V182.639C248 187.899 245.081 192.759 240.342 195.389L30.1584 312.028C25.4194 314.657 19.5806 314.657 14.8416 312.028L-195.342 195.389C-200.081 192.759 -203 187.899 -203 182.639Z" fill="#7B68EE"/>
<path opacity="0.7" d="M280 1155.87L280 1062.57L280 972.006L280 844.395C280 837.372 283.884 830.882 290.189 827.371L569.811 671.634C576.116 668.122 583.884 668.122 590.189 671.634L869.811 827.371C876.116 830.882 880 837.372 880 844.395V939.273V1030.43V1155.87C880 1162.89 876.116 1169.38 869.811 1172.89L590.189 1328.63C583.884 1332.14 576.116 1332.14 569.811 1328.63L290.189 1172.89C283.884 1169.38 280 1162.89 280 1155.87Z" fill="#7B68EE"/>
</g>
<defs>
<linearGradient id="paint0_linear_14386_104512" x1="268" y1="0" x2="268" y2="1212.46" gradientUnits="userSpaceOnUse">
<stop stop-color="#BB66E1"/>
<stop offset="1" stop-color="#7B68EE"/>
</linearGradient>
<clipPath id="clip0_14386_104512">
<rect width="536" height="1076" fill="white"/>
</clipPath>
</defs>
</svg>
