<svg width="1440" height="900" viewBox="0 0 1440 900" fill="none" xmlns="http://www.w3.org/2000/svg">
<g clip-path="url(#clip0_14386_104347)">
<rect width="1440" height="900" fill="url(#paint0_linear_14386_104347)"/>
<path opacity="0.3" d="M-24 254.858L-24 168.072L-24 83.8389L-24 -34.858C-24 -41.3903 -20.3751 -47.4263 -14.4907 -50.6925L246.491 -195.55C252.375 -198.817 259.625 -198.817 265.509 -195.55L526.491 -50.6925C532.375 -47.4263 536 -41.3903 536 -34.858V53.3926V138.184V254.858C536 261.39 532.375 267.426 526.491 270.692L265.509 415.55C259.625 418.817 252.375 418.817 246.491 415.55L-14.4907 270.692C-20.3751 267.426 -24 261.39 -24 254.858Z" fill="#7B68EE"/>
<path opacity="0.7" d="M832 832.082L832 733.179L832 637.187L832 501.918C832 494.474 836.117 487.595 842.8 483.873L1139.2 318.792C1145.88 315.069 1154.12 315.069 1160.8 318.792L1457.2 483.873C1463.88 487.595 1468 494.474 1468 501.918V602.49V699.119V832.082C1468 839.526 1463.88 846.405 1457.2 850.127L1160.8 1015.21C1154.12 1018.93 1145.88 1018.93 1139.2 1015.21L842.8 850.127C836.117 846.405 832 839.526 832 832.082Z" fill="#7B68EE"/>
</g>
<defs>
<linearGradient id="paint0_linear_14386_104347" x1="720" y1="0" x2="720" y2="1014.14" gradientUnits="userSpaceOnUse">
<stop stop-color="#BB66E1"/>
<stop offset="1" stop-color="#7B68EE"/>
</linearGradient>
<clipPath id="clip0_14386_104347">
<rect width="1440" height="900" fill="white"/>
</clipPath>
</defs>
</svg>
