<svg width="768" height="820" viewBox="0 0 768 820" fill="none" xmlns="http://www.w3.org/2000/svg">
<g clip-path="url(#clip0_14386_104376)">
<rect width="768" height="820" fill="url(#paint0_linear_14386_104376)"/>
<path opacity="0.3" d="M-24 182.639L-24 112.759L-24 44.9352L-24 -50.6389C-24 -55.8987 -21.0806 -60.7589 -16.3416 -63.3887L193.842 -180.028C198.581 -182.657 204.419 -182.657 209.158 -180.028L419.342 -63.3887C424.081 -60.7589 427 -55.8987 427 -50.6389V20.42V88.6938V182.639C427 187.899 424.081 192.759 419.342 195.389L209.158 312.028C204.419 314.657 198.581 314.657 193.842 312.028L-16.3416 195.389C-21.0806 192.759 -24 187.899 -24 182.639Z" fill="#7B68EE"/>
<path opacity="0.7" d="M303 998.869L303 905.565L303 815.006L303 687.395C303 680.372 306.884 673.882 313.189 670.371L592.811 514.634C599.116 511.122 606.884 511.122 613.189 514.634L892.811 670.371C899.116 673.882 903 680.372 903 687.395V782.273V873.433V998.869C903 1005.89 899.116 1012.38 892.811 1015.89L613.189 1171.63C606.884 1175.14 599.116 1175.14 592.811 1171.63L313.189 1015.89C306.884 1012.38 303 1005.89 303 998.869Z" fill="#7B68EE"/>
</g>
<defs>
<linearGradient id="paint0_linear_14386_104376" x1="384" y1="0" x2="384" y2="923.993" gradientUnits="userSpaceOnUse">
<stop stop-color="#BB66E1"/>
<stop offset="1" stop-color="#7B68EE"/>
</linearGradient>
<clipPath id="clip0_14386_104376">
<rect width="768" height="820" fill="white"/>
</clipPath>
</defs>
</svg>
