<svg width="161" height="127" viewBox="0 0 161 127" xmlns="http://www.w3.org/2000/svg" xmlns:xlink="http://www.w3.org/1999/xlink"><title>8AACDE46-9C89-4969-9DE6-4B680EEED94B</title><defs><rect id="b" width="92" height="58" rx="3"/><filter x="-50%" y="-50%" width="200%" height="200%" filterUnits="objectBoundingBox" id="a"><feOffset dx="1" dy="2" in="SourceAlpha" result="shadowOffsetOuter1"/><feColorMatrix values="0 0 0 0 0.693 0 0 0 0 0.87585 0 0 0 0 0.9 0 0 0 0.503962862 0" in="shadowOffsetOuter1"/></filter><rect id="d" width="37" height="37" rx="18.5"/><filter x="-50%" y="-50%" width="200%" height="200%" filterUnits="objectBoundingBox" id="c"><feOffset dx="1" dy="2" in="SourceAlpha" result="shadowOffsetOuter1"/><feColorMatrix values="0 0 0 0 0.693 0 0 0 0 0.87585 0 0 0 0 0.9 0 0 0 0.503962862 0" in="shadowOffsetOuter1"/></filter><rect id="f" width="37" height="37" rx="18.5"/><filter x="-50%" y="-50%" width="200%" height="200%" filterUnits="objectBoundingBox" id="e"><feOffset dx="1" dy="2" in="SourceAlpha" result="shadowOffsetOuter1"/><feColorMatrix values="0 0 0 0 0.693 0 0 0 0 0.87585 0 0 0 0 0.9 0 0 0 0.503962862 0" in="shadowOffsetOuter1"/></filter><rect id="h" width="37" height="37" rx="18.5"/><filter x="-50%" y="-50%" width="200%" height="200%" filterUnits="objectBoundingBox" id="g"><feOffset dx="1" dy="2" in="SourceAlpha" result="shadowOffsetOuter1"/><feColorMatrix values="0 0 0 0 0.693 0 0 0 0 0.87585 0 0 0 0 0.9 0 0 0 0.503962862 0" in="shadowOffsetOuter1"/></filter></defs><g fill="none" fill-rule="evenodd"><rect fill="#D9F2F4" x="20" y="4" width="120" height="120" rx="60"/><path d="M36 62.5h37.5M48.5 36v54.99" stroke="#79D6D9" stroke-dasharray="3,4"/><circle fill="#79D6D9" cx="48.5" cy="62.5" r="2.5"/><g transform="translate(68 34)"><use fill="#000" filter="url(#a)" xlink:href="#b"/><use fill="#FDFDFD" xlink:href="#b"/><rect fill="#79D6D9" x="10" y="10" width="6" height="38" rx="2"/><rect fill="#79D6D9" x="37" y="29" width="6" height="19" rx="2"/><rect fill="#79D6D9" x="64" y="20" width="6" height="28" rx="2"/><rect fill="#D4D8D9" x="16" y="29" width="6" height="19" rx="2"/><rect fill="#D4D8D9" x="43" y="20" width="6" height="28" rx="2"/><rect fill="#D4D8D9" x="70" y="10" width="6" height="38" rx="2"/><rect fill="#FF8B6E" x="22" y="20" width="6" height="28" rx="2"/><rect fill="#FF8B6E" x="49" y="10" width="6" height="38" rx="2"/><rect fill="#FF8B6E" x="76" y="29" width="6" height="19" rx="2"/></g><g transform="translate(30)"><use fill="#000" filter="url(#c)" xlink:href="#d"/><use fill="#FDFDFD" xlink:href="#d"/><rect fill="#79D6D9" x="9" y="9" width="5" height="20" rx="2"/><rect fill="#79D6D9" x="16" y="19" width="5" height="10" rx="2"/><rect fill="#79D6D9" x="23" y="14" width="5" height="15" rx="2"/></g><g transform="translate(0 44)"><use fill="#000" filter="url(#e)" xlink:href="#f"/><use fill="#FDFDFD" xlink:href="#f"/><rect fill="#D4D8D9" x="23" y="9" width="5" height="20" rx="2"/><rect fill="#D4D8D9" x="9" y="19" width="5" height="10" rx="2"/><rect fill="#D4D8D9" x="16" y="14" width="5" height="15" rx="2"/></g><g transform="translate(30 88)"><use fill="#000" filter="url(#g)" xlink:href="#h"/><use fill="#FDFDFD" xlink:href="#h"/><rect fill="#FF8B6E" x="16" y="9" width="5" height="20" rx="2"/><rect fill="#FF8B6E" x="23" y="19" width="5" height="10" rx="2"/><rect fill="#FF8B6E" x="9" y="14" width="5" height="15" rx="2"/></g></g></svg>