<svg width="161" height="120" viewBox="0 0 161 120" xmlns="http://www.w3.org/2000/svg" xmlns:xlink="http://www.w3.org/1999/xlink"><title>DB742C7F-71FD-43CD-A2FA-6D7B538611DF</title><defs><path d="M20 55.867V37.996A4.994 4.994 0 0 1 25.007 33h110.986A5.004 5.004 0 0 1 141 38v19.497" id="a"/><mask id="b" x="0" y="0" width="121" height="24.497" fill="#fff"><use xlink:href="#a"/></mask><filter x="-50%" y="-50%" width="200%" height="200%" filterUnits="objectBoundingBox" id="c"><feOffset dx="1" dy="2" in="SourceAlpha" result="shadowOffsetOuter1"/><feColorMatrix values="0 0 0 0 0.693 0 0 0 0 0.87585 0 0 0 0 0.9 0 0 0 0.503962862 0" in="shadowOffsetOuter1" result="shadowMatrixOuter1"/><feMerge><feMergeNode in="shadowMatrixOuter1"/><feMergeNode in="SourceGraphic"/></feMerge></filter><filter x="-50%" y="-50%" width="200%" height="200%" filterUnits="objectBoundingBox" id="d"><feOffset dx="1" dy="2" in="SourceAlpha" result="shadowOffsetOuter1"/><feColorMatrix values="0 0 0 0 0.693 0 0 0 0 0.87585 0 0 0 0 0.9 0 0 0 0.503962862 0" in="shadowOffsetOuter1" result="shadowMatrixOuter1"/><feMerge><feMergeNode in="shadowMatrixOuter1"/><feMergeNode in="SourceGraphic"/></feMerge></filter><filter x="-50%" y="-50%" width="200%" height="200%" filterUnits="objectBoundingBox" id="e"><feOffset dx="1" dy="2" in="SourceAlpha" result="shadowOffsetOuter1"/><feColorMatrix values="0 0 0 0 0.693 0 0 0 0 0.87585 0 0 0 0 0.9 0 0 0 0.503962862 0" in="shadowOffsetOuter1" result="shadowMatrixOuter1"/><feMerge><feMergeNode in="shadowMatrixOuter1"/><feMergeNode in="SourceGraphic"/></feMerge></filter><path d="M93.71 24.07C92.35 17.19 86.28 12 79 12c-5.78 0-10.79 3.28-13.3 8.07C59.69 20.72 55 25.81 55 32c0 6.63 5.37 12 12 12h26c5.52 0 10-4.48 10-10 0-5.28-4.11-9.56-9.29-9.93z" id="g"/><filter x="-50%" y="-50%" width="200%" height="200%" filterUnits="objectBoundingBox" id="f"><feOffset dx="1" dy="2" in="SourceAlpha" result="shadowOffsetOuter1"/><feColorMatrix values="0 0 0 0 0.693 0 0 0 0 0.87585 0 0 0 0 0.9 0 0 0 0.503962862 0" in="shadowOffsetOuter1"/></filter></defs><g fill="none" fill-rule="evenodd"><rect fill="#D9F2F4" x="20" width="120" height="120" rx="60"/><use stroke="#79D6D9" mask="url(#b)" stroke-width="2" stroke-dasharray="3,4" xlink:href="#a"/><path d="M79.5 21.5v46.534" stroke="#79D6D9" stroke-dasharray="3,4"/><g fill-rule="nonzero"><g filter="url(#c)" transform="translate(120 46)"><path d="M19.937.095C8.949.095.032 9.012.032 20c0 6.846 3.462 12.885 8.727 16.458.221-1.897.506-3.73.838-4.19.98-1.359 3.652-2.466 5.755-3.13v-.015c.016-.285.221-.49.474-.475.158.016.285.11.364.237.174-.047.332-.094.49-.126v-.08c.221-.173.19-1.043-.048-1.754-.047-.221.285-.221.459-.095.016-.664.032-1.249.032-1.74l-.016-.015v-.332l-.032-.032c-.885.396-1.597 1.186-1.929 1.518-5.755-3.494-6.34-10.466-4.521-14.703 1.36-3.162 5.77-5.455 9.754-5.218 3.858.237 8.775 3.352 9.186 8.095.174 2.024.253 4.38-.474 6.561-1.217 3.605-3.557 5.613-3.557 5.44-.364-.333-1.297-1.202-2.657-1.66h-.015a26.88 26.88 0 0 0 0 1.596c0 .19.015.395.015.617.016-.016.016-.032.032-.048.11-.205.57-.253.522.016-.237.711-.269 1.58-.048 1.755 0 0 0 .047-.015.126.094.032.205.064.332.111.079-.158.22-.269.395-.269.253 0 .458.222.458.49v.064c1.834.648 4.76 1.865 5.803 3.32.316.442.585 2.134.806 3.92 5.265-3.588 8.712-9.612 8.712-16.458C39.842 9.012 30.924.094 19.937.094z" fill="#FDFDFD"/><path d="M25.85 20.38c-.822 1.596-1.913 3.162-3.004 4.316v.095h.016c1.375.458 2.292 1.328 2.656 1.66 0-1.455.553-3.81.332-6.072zM13.708 19.763c.332 4.063.774 4.948 1.438 6.482.316-.332 1.028-1.122 1.93-1.518-1.282-1.28-2.515-3.114-3.368-4.964z" fill="#D4D8D9"/><path d="M17.154 26.94c.316.538.98.98 2.878.98.142 0 .284 0 .41-.015-1.264-.696-2.402-1.692-3.32-2.798 0 .49-.015 1.09-.031 1.739.016.047.047.079.063.095z" fill="#FFF"/><path d="M22.896 26.988c0-.221-.05-.427-.05-.616 0 .205 0 .41.05.616 0 .016 0 0 0 0z" fill="#F9DFA9"/><path d="M20.443 27.92c1.517-.062 2.118-.442 2.419-.916 0-.221-.016-.427-.016-.632V24.68c-1.012 1.06-2.04 1.755-2.878 1.755-.838 0-1.865-.648-2.877-1.676v.332l.016.016c.917 1.122 2.055 2.118 3.336 2.814z" fill="#FFF"/><path d="M19.968 26.435V14.387c-2.608-1.043-3.004-3.21-3.004-3.21s-1.533 1.677-2.513 4.048c.379.427.632 1.075.664 1.803.047 1.233-.585 2.26-1.44 2.434 0 .095.017.19.017.285.853 1.85 2.087 3.684 3.351 4.964l.032.032c1.028 1.044 2.055 1.692 2.893 1.692z" fill="#FFF"/><path d="M15.794 29.66c.253 0 .443.221.459.49 0 .269-.19.49-.443.49.253 0 .459.206.475.475a.49.49 0 0 1-.427.521c.253-.015.458.19.49.443.031.269-.142.506-.395.538.253-.032.474.158.505.426a.482.482 0 0 1-.363.554c.253-.048.49.126.537.395a.474.474 0 0 1-.332.57c.238-.064.49.094.57.347a.483.483 0 0 1-.285.6c.237-.078.49.048.6.285.096.238.017.506-.205.617.222-.11.49-.016.633.19.063.11.079.221.063.332a.492.492 0 0 1-.174.3c.19-.142.49-.126.648.048.095.079.127.19.142.3a.497.497 0 0 1-.079.332.611.611 0 0 1 .3-.19.268.268 0 0 1 .159 0c.063 0 .11.016.158.048a.426.426 0 0 1 .127.11.522.522 0 0 1 .126.49.418.418 0 0 1 .221-.268.379.379 0 0 1 .317-.063c.158.015.3.11.363.252L20 30.577c-2.972 0-3.289-1.439-3.32-1.786-.158.031-.316.079-.49.126a.52.52 0 0 1 .063.269.473.473 0 0 1-.459.474z" fill="#FF8B6E"/><path d="M19.494 38.91a.634.634 0 0 1-.364-.206.394.394 0 0 1-.063-.348c-.031.126-.126.205-.237.253-.063.016-.126.031-.205.031a.448.448 0 0 1-.206-.063.702.702 0 0 1-.174-.126.377.377 0 0 1-.095-.174.385.385 0 0 1 .063-.348.413.413 0 0 1-.316.158.618.618 0 0 1-.38-.158.54.54 0 0 1-.157-.38c0-.126.063-.237.158-.316-.095.08-.222.095-.348.08a.479.479 0 0 1-.316-.238c-.158-.253-.08-.553.142-.664-.221.11-.506 0-.632-.269-.111-.268 0-.553.237-.632-.237.079-.506-.063-.585-.332-.08-.269.063-.553.3-.6-.237.062-.49-.112-.553-.38-.063-.285.095-.538.348-.585-.253.047-.475-.143-.522-.427-.032-.285.126-.522.38-.554-.254.032-.475-.174-.507-.442-.031-.285.159-.522.412-.538-.253.016-.475-.19-.475-.474-.016-.285.19-.506.427-.522-.253.016-.458-.205-.458-.49 0-.285.205-.506.458-.49-.253 0-.443-.221-.443-.506-2.102.648-4.774 1.77-5.755 3.13-.316.443-.616 2.277-.837 4.19a19.835 19.835 0 0 0 11.177 3.43H20v-1.185a.66.66 0 0 1-.506.174z" fill="#FF8B6E"/><path d="M24.522 29.233c-.032.237-.206.427-.443.427.253 0 .459.221.459.49s-.206.49-.459.49c.253 0 .459.222.443.506 0 .269-.222.49-.459.49.253 0 .443.238.427.522-.016.285-.237.49-.49.474.253.016.427.253.411.538-.032.285-.253.474-.506.443.253.031.427.284.38.569-.048.284-.3.458-.538.41.253.048.395.317.332.602a.528.528 0 0 1-.221.316.454.454 0 0 1-.348.047c.237.08.364.364.253.633a.48.48 0 0 1-.269.284.443.443 0 0 1-.348 0 .46.46 0 0 1 .142.68c-.158.253-.474.316-.663.158.094.08.158.19.158.316a.498.498 0 0 1-.174.364.618.618 0 0 1-.38.158.43.43 0 0 1-.316-.174.382.382 0 0 1 .047.348.58.58 0 0 1-.284.3.534.534 0 0 1-.411.016.37.37 0 0 1-.237-.268c.079.237-.111.505-.427.553a.471.471 0 0 1-.395-.095.413.413 0 0 1-.159-.316c0 .079-.015.158-.063.221v1.186c4.127 0 7.969-1.28 11.146-3.43-.205-1.787-.49-3.48-.806-3.922-1.043-1.47-3.952-2.688-5.802-3.336z" fill="#FF8B6E"/><path d="M20.016 30.561H20l-.016 7.716a.515.515 0 0 1 .063.221.51.51 0 0 1 .127-.332.47.47 0 0 1 .3-.158.487.487 0 0 1 .538.348.522.522 0 0 1 .031-.348.436.436 0 0 1 .238-.237c.094-.063.221-.063.332-.032.11.032.221.08.284.19a.519.519 0 0 1-.079-.332.534.534 0 0 1 .142-.3c.08-.08.19-.127.317-.127a.51.51 0 0 1 .332.095.507.507 0 0 1-.095-.648.498.498 0 0 1 .616-.19.558.558 0 0 1-.237-.269.65.65 0 0 1 0-.348c.095-.237.348-.38.585-.3-.126-.032-.205-.127-.269-.237-.047-.11-.079-.237-.031-.364a.478.478 0 0 1 .553-.364c-.253-.047-.395-.3-.363-.553.047-.253.268-.443.521-.411-.253-.032-.41-.269-.395-.538.032-.268.237-.458.49-.442-.253-.016-.442-.253-.427-.522.016-.269.222-.474.475-.474-.253-.016-.443-.237-.443-.506s.205-.49.458-.49c-.253 0-.458-.222-.458-.49 0-.27.205-.49.443-.49-.253 0-.459-.222-.459-.49 0-.08.016-.159.048-.238-.127-.047-.238-.079-.332-.11 0 .458-.396 1.77-3.273 1.77z" fill="#FF8B6E"/><path d="M13.676 19.478c.854-.174 1.47-1.217 1.439-2.435-.016-.727-.285-1.375-.664-1.802-.522 1.265-.886 2.72-.775 4.237zM20.885 14.688a6.946 6.946 0 0 1-.917-.285v12.032c.838 0 1.866-.696 2.878-1.755 1.09-1.138 2.182-2.72 3.004-4.316-.222-2.451-1.328-4.775-4.965-5.676z" fill="#FFF"/><path d="M13.676 19.478c-.11-1.518.253-2.988.775-4.253.98-2.371 2.513-4.047 2.513-4.047s.396 2.166 3.004 3.21c.285.11.585.205.917.284 3.637.901 4.743 3.241 4.965 5.692.205 2.26-.332 4.632-.332 6.055 0 .158 2.356-1.85 3.557-5.439.743-2.182.648-4.537.474-6.561-.426-4.743-5.343-7.874-9.185-8.095-3.985-.237-8.396 2.055-9.755 5.218C8.79 15.779 9.375 22.75 15.13 26.245c-.664-1.518-1.106-2.419-1.438-6.482 0-.08 0-.174-.016-.285z" fill="#D5D8D9"/><path d="M20 30.561h.016c2.861 0 3.273-1.328 3.336-1.739.016-.079.016-.126.016-.126-.222-.174-.19-1.044.047-1.755.047-.27-.411-.222-.522-.016-.016.016-.016.032-.031.047v.016c-.3.474-.917.854-2.42.917-.126 0-.268.016-.41.016-1.882 0-2.562-.443-2.878-.98a.345.345 0 0 0-.063-.08c-.174-.126-.49-.142-.459.096.238.711.27 1.58.048 1.754v.08c.031.347.348 1.77 3.32 1.77z" fill="#FF8B6E"/><path d="M15.794 29.66a.462.462 0 0 0 .459-.474.52.52 0 0 0-.063-.269c-.08-.142-.206-.237-.364-.237-.253-.016-.458.205-.474.474v.016c0 .269.19.49.442.49zM16.237 30.15c0-.269-.205-.49-.458-.49s-.459.221-.459.49c0 .285.206.49.459.49a.457.457 0 0 0 .458-.49z" fill="#FFF"/><path d="M16.269 31.115c-.016-.27-.222-.475-.475-.475-.252 0-.442.237-.426.522.015.285.237.49.474.474a.49.49 0 0 0 .427-.521zM16.348 32.08c-.032-.27-.237-.46-.49-.444-.253.016-.443.253-.411.538.031.284.253.474.506.443.237-.032.41-.27.395-.538z" fill="#FFF"/><path d="M16.458 33.028c-.031-.27-.268-.459-.505-.427-.253.031-.427.269-.38.553.048.285.285.459.522.427.237-.047.395-.285.363-.553z" fill="#FFF"/><path d="M16.617 33.976a.489.489 0 0 0-.538-.395c-.253.047-.411.3-.348.585.063.269.316.443.554.38a.462.462 0 0 0 .332-.57z" fill="#FFF"/><path d="M16.854 34.893c-.08-.253-.316-.41-.57-.348-.237.064-.379.332-.3.601.08.269.348.427.585.332.237-.063.364-.332.285-.585zM17.17 35.779c-.11-.237-.364-.364-.6-.285-.238.08-.349.364-.238.632.11.27.411.38.632.27.222-.111.3-.38.206-.617zM17.66 36.933a.597.597 0 0 0-.063-.332.497.497 0 0 0-.633-.19c-.22.11-.3.411-.142.664.08.127.206.206.316.237a.39.39 0 0 0 .348-.079c.11-.079.158-.19.174-.3z" fill="#FFF"/><path d="M18.277 37.581c-.016-.11-.048-.221-.143-.3-.158-.174-.442-.19-.648-.048a.413.413 0 0 0-.158.316c0 .127.063.27.158.38a.54.54 0 0 0 .38.158.413.413 0 0 0 .316-.158.49.49 0 0 0 .095-.348z" fill="#FFF"/><path d="M19.036 38.008a.373.373 0 0 0-.095-.142c-.032-.048-.08-.08-.127-.111a.305.305 0 0 0-.158-.047h-.158a.45.45 0 0 0-.3.19.385.385 0 0 0-.064.347.377.377 0 0 0 .095.174c.048.047.11.095.174.126a.515.515 0 0 0 .206.064c.079 0 .142-.016.205-.032a.348.348 0 0 0 .237-.253c.048-.079.032-.205-.015-.316zM19.605 38.024a.379.379 0 0 0-.316.063.54.54 0 0 0-.222.269.394.394 0 0 0 .063.348c.08.094.206.173.364.205.221.016.395-.063.49-.205a.363.363 0 0 0 .063-.222c0-.079-.031-.142-.063-.221-.079-.127-.221-.237-.38-.237z" fill="#FFF"/><path d="M20.474 38.008a.688.688 0 0 0-.3.158.48.48 0 0 0-.127.332c0 .127.064.237.159.316.094.08.237.127.395.095.316-.032.49-.316.427-.553-.095-.237-.317-.38-.554-.348z" fill="#FFF"/><path d="M21.613 37.755c-.111-.032-.238-.032-.332.032a.436.436 0 0 0-.238.237.435.435 0 0 0-.031.348.405.405 0 0 0 .237.268c.11.048.269.032.411-.015a.643.643 0 0 0 .285-.3.436.436 0 0 0-.048-.349.358.358 0 0 0-.284-.221zM21.976 37.312c-.095.08-.126.19-.142.3-.016.111 0 .238.079.333.063.11.174.158.316.174.127.015.269-.048.38-.159a.557.557 0 0 0 .174-.363.37.37 0 0 0-.158-.316.434.434 0 0 0-.333-.095c-.126-.016-.22.031-.316.126zM22.798 36.411a.498.498 0 0 0-.268.206.51.51 0 0 0 .095.648c.19.158.505.095.664-.158a.599.599 0 0 0 .079-.396.402.402 0 0 0-.222-.284.527.527 0 0 0-.348-.016z" fill="#FFF"/><path d="M22.925 35.826a.442.442 0 0 0 0 .348c.032.11.11.205.237.269a.385.385 0 0 0 .348 0 .528.528 0 0 0 .269-.285c.11-.269-.016-.553-.253-.632a.492.492 0 0 0-.601.3z" fill="#FFF"/><path d="M23.21 34.94a.57.57 0 0 0 .031.364c.048.111.142.19.269.238.11.031.237.015.348-.048a.471.471 0 0 0 .221-.316c.063-.285-.079-.538-.332-.6-.237-.064-.474.11-.538.363zM23.4 34.008a.47.47 0 0 0 .363.553c.237.048.49-.126.537-.41.048-.285-.126-.538-.38-.57a.511.511 0 0 0-.52.427z" fill="#FFF"/><path d="M23.526 33.06c-.032.268.142.505.395.537.253.031.474-.158.506-.443.031-.284-.158-.522-.411-.537-.237-.016-.459.174-.49.442zM23.605 32.095a.49.49 0 0 0 .427.522c.253.015.474-.19.49-.475.016-.284-.174-.506-.427-.521a.49.49 0 0 0-.49.474z" fill="#FFF"/><path d="M23.636 31.13c0 .27.19.49.443.506.253.016.459-.205.459-.49 0-.269-.19-.506-.443-.506s-.459.222-.459.49zM23.636 30.15c0 .269.206.49.459.49s.458-.221.458-.49-.205-.49-.458-.49-.459.221-.459.49zM24.095 29.66c.221 0 .41-.19.443-.427v-.063c0-.269-.206-.49-.459-.49-.174 0-.316.11-.395.269a.528.528 0 0 0-.048.237c0 .253.206.474.459.474z" fill="#FFF"/></g><g filter="url(#d)" transform="translate(60 65)"><path d="M26.89 14.794c-.017 0-.017.045 0 0 .174.09.33.272.487.5-.14-.182-.313-.41-.487-.5z" fill="#8DA28D"/><path d="M16.841 28.143L17 26.984v-.952c-.286-.095-.556-.222-.841-.35C14.333 24.779 13.667 21 13.635 20v-.254h-.016c-.889 0-1.571-1.714-1.571-3.08 0-.745.206-1.237.523-1.539l-.031.032s-.492-3.302.603-5.492c1-2 4-3.365 6.905-3.365 2.904 0 5.904 1.365 6.904 3.365 1.096 2.19.604 5.492.604 5.492s-.064-.048-.143-.111c.397.285.635.793.635 1.635 0 1.38-.683 3.079-1.572 3.079h-.016v.254c-.031 1-.698 4.778-2.523 5.682-.27.143-.556.254-.842.35V27l.159 1.159c1 .222 6.302 1.476 7.81 3.301.365.46.746 2.429 1.047 4.365 4.746-3.65 7.81-9.38 7.81-15.825C39.92 8.984 31 .063 19.984.063 9.508.063.937 8.127.111 18.397v3.206c.46 5.841 3.445 10.968 7.873 14.318.302-1.953.683-3.984 1.064-4.46 1.476-1.842 6.777-3.08 7.793-3.318z" fill="#FDFDFD"/><path d="M13.389 14.794c-.175.05-.35.2-.5.35.15-.15.325-.25.5-.35 0 .05 0 0 0 0z" fill="#8DA28D"/><path d="M18.841 26.524a11.334 11.334 0 0 1-1.825-.492v.952c.794 1.048 1.38 1.508 3.032 1.556.952-.032 1.54-.19 2.031-.508a10.997 10.997 0 0 1-3.238-1.508z" fill="#FFF"/><path d="M18.841 26.524a10.576 10.576 0 0 0 3.238 1.492c.365-.254.667-.587 1.016-1.032v-.952c-1.555.571-3.047.65-3.047.65s-.492-.031-1.207-.158z" fill="#FFF"/><path fill="#FFE8B9" d="M13.206 14.844v-.05z"/><path d="M14.873 12.762s-.286.825-.159.968c.127.159-.19 1.429-.19 1.429 0 .016 0 .016-.016.031.429.445.714 1.207.714 2.064 0 .905-.317 1.698-.793 2.143.142.365.349.714.619.968.968.92 1.682 1.952 1.682 1.952s.175-.476.238-.666c.064-.19 3.048-.746 3.048-.746v-8.62c-2.667.54-5.143.477-5.143.477zM24.841 17.254c0-.857.286-1.62.715-2.08v-.015s-.54-.969-.175-1.603c.365-.635-.365-3-1.111-3.366-.746-.365-1.238 1.413-4 2.032l-.238.048v8.619s2.984.555 3.047.746c.064.19.238.667.238.667s.73-1.016 1.683-1.953c.27-.254.476-.603.619-.968-.46-.429-.778-1.222-.778-2.127z" fill="#FFF"/><path d="M20.048 28.54l-2.238 2.635-1.032-2.492.08-.524c-1 .222-6.302 1.476-7.81 3.301-.381.46-.762 2.492-1.064 4.46a19.809 19.809 0 0 0 12 4.017h.064V28.54z" fill="#79D6D9"/><path d="M17 26.984l-.159 1.159-.08.524 1.033 2.492 2.238-2.635c-1.651-.032-2.238-.492-3.032-1.54z" fill="#23C5DE"/><path d="M23.254 28.143l.08.524-1.032 2.492-2.239-2.635V39.92a19.755 19.755 0 0 0 12.048-4.111c-.301-1.937-.682-3.905-1.048-4.366-1.507-1.825-6.809-3.079-7.809-3.301zm5.317 9.667H23.89v-.89h4.682v.89z" fill="#79D6D9"/><path d="M22.286 31.175l1.031-2.492-.079-.524L23.08 27c-.349.444-.65.794-1.016 1.032-.492.333-1.079.492-2.031.508l2.254 2.635z" fill="#23C5DE"/><path d="M15.238 17.254c0-.857-.286-1.62-.714-2.064-.334.921-.492 2.207-.492 2.207s.047 1.063.428 2c.46-.445.778-1.238.778-2.143zM13.65 17.397s-.094-2.603-.428-2.587a1.867 1.867 0 0 0-.317.11c-.143.08-.254.16-.318.207-.333.302-.524.794-.524 1.54 0 1.38.683 3.079 1.572 3.079h.016c-.032-1 0-2.35 0-2.35zM26.873 14.81c-.333 0-.429 2.587-.429 2.587s.016 1.349 0 2.349h.016c.89 0 1.572-1.714 1.572-3.08 0-.825-.254-1.349-.635-1.634-.016-.016-.048-.032-.064-.048a1.255 1.255 0 0 0-.46-.174zM24.841 17.254c0 .905.318 1.698.794 2.143.38-.937.428-2 .428-2s-.158-1.286-.492-2.207c-.444.429-.73 1.191-.73 2.064z" fill="#FFF"/><path d="M13.206 14.794c.334-.016.445 2.587.445 2.587h.38s.16-1.286.493-2.206c0-.016 0-.016.016-.032 0 0 .317-1.27.19-1.429-.127-.158.159-.968.159-.968s2.476.08 5.159-.492l.238-.048c2.777-.619 3.27-2.38 4-2.031.746.365 1.46 2.73 1.11 3.365-.364.635.175 1.603.175 1.603v.016c.35.92.492 2.206.492 2.206h.381s.096-2.587.429-2.587a1.088 1.088 0 0 1 .508.222c.095.063.143.111.143.111s.492-3.301-.603-5.492c-1-2-4-3.365-6.905-3.365-2.905 0-5.905 1.365-6.905 3.365-1.095 2.19-.603 5.492-.603 5.492l.032-.032c.047-.047.158-.127.317-.206.127-.016.238-.063.35-.08zM20.048 26.683s1.476-.08 3.047-.651c.286-.095.556-.222.842-.35C25.762 24.779 26.429 21 26.46 20v-.254c.016-1 0-2.35 0-2.35h-.38s-.048 1.064-.43 2c-.142.366-.348.715-.618.97-.969.92-1.683 1.951-1.683 1.951s-.174-.476-.238-.666c-.063-.19-3.048-.746-3.048-.746s-2.984.555-3.047.746c-.064.19-.238.666-.238.666s-.73-1.015-1.683-1.952c-.27-.254-.476-.603-.619-.968-.38-.937-.428-2-.428-2h-.397s-.016 1.349 0 2.349V20c.032 1 .698 4.778 2.524 5.683.27.142.555.254.84.349a11.787 11.787 0 0 0 3.033.65zm-1.715-4.175h3.286v.016a.677.677 0 0 1-.682.682h-1.921a.677.677 0 0 1-.683-.682v-.016z" fill="#D4D8D9"/><path d="M19.016 23.19h1.92a.677.677 0 0 0 .683-.682v-.016h-3.286v.016c0 .38.302.682.683.682z" fill="#FFF"/><path fill="#23C5DE" d="M23.889 36.921h4.683v.889h-4.683z"/></g><g filter="url(#e)" transform="translate(0 46)"><path d="M20.047.095C9.06.095.142 9.012.142 20c0 6.846 3.463 12.885 8.728 16.458.22-1.897.505-3.73.838-4.19 1.09-1.517 4.284-2.719 6.45-3.335l.048-.095.932-1.455c0 .016 0 .048.016.064.032-.902.063-1.708.063-2.34l-.015-.016v-.332c-1.328-1.344-2.657-3.304-3.51-5.265-.032 0-.08.016-.111.016-.949.032-1.74-1.597-1.77-2.925-.032-.743.189-1.233.537-1.534a2.222 2.222 0 0 0-.285.206s-.743-4.048.443-6.387c1.075-2.135 2.656-4 2.656-4-.269 2.83 9.613-.933 12.3 3.588 1.329 2.246.649 6.799.649 6.799s-.095-.095-.237-.174c.332.3.537.79.505 1.502-.047 1.328-.822 2.957-1.77 2.925-.064 0-.127-.016-.19-.016-.854 1.881-2.134 3.842-3.43 5.202a30.169 30.169 0 0 0 0 1.691c.015.348.015.728.047 1.139 0-.032.015-.08.015-.111l.933 1.455c.048.063.095.126.127.173 1.739.585 5.201 1.914 6.355 3.51.317.443.585 2.135.807 3.921 5.265-3.589 8.711-9.612 8.711-16.458C39.937 9.012 31.036.095 20.047.095z" fill="#FDFDFD"/><path d="M23.09 27.51a53.1 53.1 0 0 0-.15-1.138c0 .379.05.774.1 1.185 0-.015 0-.031.05-.047z" fill="#F9DFA9"/><path d="M20.11 29.723c.933-.015 1.85-.427 2.404-.996-2.056-.537-3.937-1.929-5.312-3.604 0 .648-.016 1.454-.064 2.34.032.268.08.537.111.806.459.822 1.66 1.47 2.862 1.454z" fill="#FFF"/><path d="M22.514 28.727c.142-.142.269-.3.348-.458.031-.237.063-.475.11-.712-.015-.41-.031-.806-.031-1.185V24.68c-1.012 1.06-2.04 1.755-2.878 1.755-.838 0-1.865-.648-2.877-1.676v.332l.016.016c1.375 1.691 3.272 3.083 5.312 3.62zM15.257 17.502c0 .253.205.443.443.443h2.419c.458 0 .838-.38.838-.838l.015-1.186-3.715-.016v1.597z" fill="#FFF"/><path d="M20.08 26.435V12.174c-2.878.6-5.535.522-5.535.522s-.3.885-.158 1.043c.095.11-.047.806-.126 1.218.269.19.49.474.664.822a.357.357 0 0 1 .332-.237h3.715c.206 0 .364.158.364.363v1.202c0 .664-.538 1.217-1.217 1.217h-2.42a.79.79 0 0 1-.616-.284c-.237.806-.759 1.375-1.407 1.454.854 1.96 2.182 3.921 3.51 5.265 1.027 1.028 2.04 1.676 2.893 1.676z" fill="#FFF"/><path d="M15.099 18.04a.81.81 0 0 1-.206-.538v-1.581c0-.047.016-.095.032-.127-.174-.347-.395-.632-.664-.822-.048.174-.08.317-.08.317-.363.996-.537 2.387-.537 2.387h-.41s-.111-2.814-.475-2.767c-.158.016-.3.095-.427.158-.348.3-.57.79-.538 1.534.048 1.328.823 2.956 1.771 2.925.048 0 .08 0 .11-.016.65-.095 1.187-.68 1.424-1.47zM27.447 15.636c0 1.044-.411 2.42-1.06 3.842.064.016.127.016.19.016.949.032 1.74-1.597 1.77-2.925.017-.727-.173-1.201-.505-1.502-.127-.079-.269-.158-.427-.174.016.253.032.49.032.743zM21.723 17.945h2.42a.442.442 0 0 0 .442-.443v-1.581l-3.715.016.015 1.186c0 .442.38.822.838.822z" fill="#FFF"/><path d="M27.447 15.636c0-.253-.016-.506-.032-.743-.016 0-.032 0-.032-.016-.363-.047-.474 2.767-.474 2.767h-.411s-.158-1.407-.538-2.387c0 0-.569-1.028-.19-1.723.38-.68-.379-3.21-1.185-3.605s-1.312 1.518-4.285 2.166l-.237.047v14.261c.838 0 1.866-.695 2.878-1.755 1.296-1.36 2.577-3.304 3.43-5.201.665-1.376 1.076-2.751 1.076-3.81zm-6.941 1.47v-1.2c0-.206.158-.364.364-.364h3.715c.206 0 .364.158.364.363v1.581a.817.817 0 0 1-.823.822h-2.418c-.665.016-1.202-.521-1.202-1.201z" fill="#FFF"/><path d="M12.759 14.877c.364-.047.474 2.767.474 2.767h.411s.158-1.407.538-2.387l.079-.316c.095-.411.221-1.107.126-1.218-.142-.158.158-1.043.158-1.043s2.657.079 5.534-.522l.237-.047c2.973-.664 3.494-2.562 4.285-2.166.79.395 1.565 2.909 1.186 3.604-.38.68.19 1.724.19 1.724.363.996.537 2.387.537 2.387h.41s.112-2.814.475-2.767c.016 0 .032 0 .032.016.158.032.316.11.427.174.142.095.237.174.237.174s.696-4.538-.648-6.799c-2.688-4.521-12.57-.774-12.3-3.588 0 0-1.582 1.85-2.657 4-1.17 2.34-.443 6.387-.443 6.387s.111-.11.285-.206c.11-.079.269-.142.427-.174z" fill="#D4D8D9"/><path d="M22.877 28.269a2.34 2.34 0 0 1-.347.458c-.554.554-1.47.98-2.404.996-1.201.016-2.418-.632-2.845-1.438.553 3.826 1.106 8.41 2.577 11.62H20.268c1.487-3.21 2.056-7.81 2.61-11.636zM15.336 33.77l1.565-1.28h-1.66c.08-1.897.427-2.672.901-3.541-2.166.6-5.36 1.818-6.45 3.336-.317.442-.617 2.276-.838 4.19a19.787 19.787 0 0 0 10.482 3.414l-4-6.118zM30.419 32.538c-1.154-1.597-4.632-2.925-6.356-3.51.712 1.043.854 2.008.822 3.462h-1.66l1.566 1.28-4.016 6.12a19.74 19.74 0 0 0 10.45-3.432c-.221-1.786-.49-3.478-.806-3.92z" fill="#E4E8E9"/><path d="M17.265 28.285c-.032-.27-.08-.538-.11-.807 0-.016 0-.047-.017-.063l-.932 1.455-.048.094c-.474.87-.822 1.645-.901 3.542h1.66l-1.565 1.28 4 6.12c.174 0 .332.015.506.015-1.486-3.225-2.04-7.81-2.593-11.636zM24.79 33.77l-1.565-1.28h1.66c.032-1.439-.11-2.419-.822-3.462-.047-.064-.079-.127-.126-.174l-.933-1.455c0 .032-.016.08-.016.11v.048c-.031.237-.063.475-.11.712-.554 3.826-1.123 8.427-2.61 11.636.175 0 .349 0 .507-.016l4.016-6.118zM14.893 17.502c0 .206.08.395.206.538a.84.84 0 0 0 .616.284h2.42c.663 0 1.217-.537 1.217-1.217v-1.202a.358.358 0 0 0-.364-.363h-3.715a.342.342 0 0 0-.332.237c-.016.047-.032.079-.032.126v1.597h-.016zm4.08-1.581l-.016 1.186c0 .458-.38.838-.838.838h-2.42a.442.442 0 0 1-.442-.443v-1.581h3.715zM21.723 18.324h2.42a.817.817 0 0 0 .821-.822v-1.581a.358.358 0 0 0-.363-.364H20.87a.358.358 0 0 0-.364.364v1.202c0 .664.537 1.201 1.217 1.201zm-.838-1.217l-.015-1.186 3.715-.016v1.581a.442.442 0 0 1-.443.443h-2.419a.82.82 0 0 1-.838-.822z" fill="#79D6D9"/></g></g><g fill-rule="nonzero"><use fill="#000" filter="url(#f)" xlink:href="#g"/><use fill="#FDFDFD" fill-rule="evenodd" xlink:href="#g"/></g><path d="M76 38c0 .55.45 1 1 1h4c.55 0 1-.45 1-1v-1h-6v1zm3-19c-3.86 0-7 3.14-7 7 0 2.38 1.19 4.47 3 5.74V34c0 .55.45 1 1 1h6c.55 0 1-.45 1-1v-2.26c1.81-1.27 3-3.36 3-5.74 0-3.86-3.14-7-7-7z" fill="#E5EB3D" fill-rule="nonzero"/><path d="M82.135 30.358l-.935.65V33.5h-4.6v-2.492l-.935-.65a5.39 5.39 0 0 1-2.365-4.441c0-2.99 2.664-5.417 5.7-5.417s5.5 2.427 5.5 5.417a5.39 5.39 0 0 1-2.365 4.441z"/></g></svg>