<svg width="28" height="28" viewBox="0 0 28 28" fill="none" xmlns="http://www.w3.org/2000/svg">
    <path d="M5 8C5 7.44772 5.44772 7 6 7H22C22.5523 7 23 7.44772 23 8V18C23 21.866 19.866 25 16 25H12C8.13401 25 5 21.866 5 18V8Z" stroke="#2F3C5F" stroke-width="2"/>
    <path d="M12.2651 12C11.6627 12 11.1084 12.2389 10.6747 12.6689C10.241 13.099 10 13.6485 10 14.2696C10 14.8669 10.241 15.4164 10.6747 15.8464L13.759 18.9044C13.8313 18.9522 13.9036 19 14 19C14.0964 19 14.1687 18.9761 14.241 18.9044L17.3253 15.8464C17.759 15.4403 18 14.8669 18 14.2696C18 13.6485 17.759 13.099 17.3253 12.6689C16.9157 12.2389 16.3373 12 15.7349 12C15.1084 12 14.5542 12.2389 14.1205 12.6689L14 12.7884L13.8795 12.6689C13.4458 12.2389 12.8675 12 12.2651 12Z" fill="#2F3C5F"/>
    <path d="M9.10002 7C9.56329 4.71776 11.581 3 14 3C16.419 3 18.4367 4.71776 18.9 7H9.10002Z" stroke="#2F3C5F" stroke-width="2"/>
</svg>
