<svg width="1440" height="56" viewBox="0 0 1440 56" fill="none" xmlns="http://www.w3.org/2000/svg">
    <g clip-path="url(#clip0_13732_90082)">
        <mask id="path-1-inside-1_13732_90082" fill="white">
            <path d="M0 0H1440V56H0V0Z" />
        </mask>
        <path d="M0 0H1440V56H0V0Z" fill="url(#paint0_linear_13732_90082)" />
        <path opacity="0.5" d="M75 17.9632L75 -20.3578L75 -57.5517L75 -109.963C75 -112.848 76.5989 -115.513 79.1943 -116.955L194.306 -180.918C196.901 -182.361 200.099 -182.361 202.694 -180.918L317.806 -116.955C320.401 -115.513 322 -112.848 322 -109.963V-70.9955V-33.555V17.9632C322 20.8476 320.401 23.5129 317.806 24.9551L202.694 88.9184C200.099 90.3605 196.901 90.3605 194.306 88.9184L79.1943 24.9551C76.5989 23.5129 75 20.8476 75 17.9632Z" fill="#EDEFF7" />
        <path opacity="0.5" d="M1038 313.73L1038 247.091L1038 182.412L1038 91.2697C1038 86.2539 1040.77 81.6191 1045.27 79.1111L1244.73 -32.119C1249.23 -34.627 1254.77 -34.627 1259.27 -32.119L1458.73 79.1111C1463.23 81.6191 1466 86.2539 1466 91.2697V159.034V224.141V313.73C1466 318.746 1463.23 323.381 1458.73 325.889L1259.27 437.119C1254.77 439.627 1249.23 439.627 1244.73 437.119L1045.27 325.889C1040.77 323.381 1038 318.746 1038 313.73Z" fill="#EDEFF7" />
    </g>
    <path d="M1440 55H0V57H1440V55Z" fill="#EDEFF7" mask="url(#path-1-inside-1_13732_90082)" />
    <defs>
        <linearGradient id="paint0_linear_13732_90082" x1="720" y1="0" x2="720" y2="56" gradientUnits="userSpaceOnUse">
            <stop stop-color="#F4F5FA" />
            <stop offset="1" stop-color="#F4F5FA" stop-opacity="0" />
        </linearGradient>
        <clipPath id="clip0_13732_90082">
            <path d="M0 0H1440V56H0V0Z" fill="white" />
        </clipPath>
    </defs>
</svg>
