<svg width="360" height="120" viewBox="0 0 360 120" fill="none" xmlns="http://www.w3.org/2000/svg">
    <g clip-path="url(#clip0_13732_90267)">
        <mask id="path-1-inside-1_13732_90267" fill="white">
            <path d="M0 0H360V120H0V0Z" />
        </mask>
        <path d="M0 0H360V120H0V0Z" fill="url(#paint0_linear_13732_90267)" />
        <path opacity="0.5" d="M-67 23.324L-67 -6.82565L-67 -36.0884V-77.324C-67 -79.5934 -65.7442 -81.6903 -63.7057 -82.825L26.7057 -133.149C28.7442 -134.284 31.2558 -134.284 33.2943 -133.149L123.706 -82.825C125.744 -81.6903 127 -79.5934 127 -77.324V-46.6655V-17.2087V23.324C127 25.5934 125.744 27.6903 123.706 28.825L33.2943 79.149C31.2558 80.2837 28.7442 80.2837 26.7057 79.149L-63.7057 28.825C-65.7442 27.6903 -67 25.5934 -67 23.324Z" fill="#EDEFF7" />
        <path opacity="0.5" d="M268 211.567L268 177.346L268 144.132L268 97.3288C268 94.753 269.424 92.3729 271.736 91.0851L374.264 33.9659C376.576 32.678 379.424 32.678 381.736 33.9659L484.264 91.0851C486.576 92.3729 488 94.753 488 97.3288V132.127V165.561V211.567C488 214.143 486.576 216.523 484.264 217.811L381.736 274.93C379.424 276.218 376.576 276.218 374.264 274.93L271.736 217.811C269.424 216.523 268 214.143 268 211.567Z" fill="#EDEFF7" />
    </g>
    <path d="M360 119H0V121H360V119Z" fill="#EDEFF7" mask="url(#path-1-inside-1_13732_90267)" />
    <defs>
        <linearGradient id="paint0_linear_13732_90267" x1="180" y1="0" x2="180" y2="120" gradientUnits="userSpaceOnUse">
            <stop stop-color="#F4F5FA" />
            <stop offset="1" stop-color="#F4F5FA" stop-opacity="0" />
        </linearGradient>
        <clipPath id="clip0_13732_90267">
            <path d="M0 0H360V120H0V0Z" fill="white" />
        </clipPath>
    </defs>
</svg>
