<svg width="768" height="56" viewBox="0 0 768 56" fill="none" xmlns="http://www.w3.org/2000/svg">
    <g clip-path="url(#clip0_13702_88877)">
        <rect width="768" height="56" fill="url(#paint0_linear_13702_88877)" />
        <path opacity="0.5" d="M-53 -0.67598L-53 -30.8256L-53 -60.0884V-101.324C-53 -103.593 -51.7442 -105.69 -49.7057 -106.825L40.7057 -157.149C42.7442 -158.284 45.2558 -158.284 47.2943 -157.149L137.706 -106.825C139.744 -105.69 141 -103.593 141 -101.324V-70.6655V-41.2087V-0.67598C141 1.59335 139.744 3.69029 137.706 4.82495L47.2943 55.149C45.2558 56.2837 42.7442 56.2837 40.7057 55.149L-49.7057 4.82495C-51.7442 3.69029 -53 1.59335 -53 -0.67598Z" fill="#EDEFF7" />
        <path opacity="0.5" d="M630 155.567L630 121.346L630 88.1323L630 41.3288C630 38.753 631.424 36.3729 633.736 35.0851L736.264 -22.0341C738.576 -23.322 741.424 -23.322 743.736 -22.0341L846.264 35.0851C848.576 36.3729 850 38.753 850 41.3288V76.127V109.561V155.567C850 158.143 848.576 160.523 846.264 161.811L743.736 218.93C741.424 220.218 738.576 220.218 736.264 218.93L633.736 161.811C631.424 160.523 630 158.143 630 155.567Z" fill="#EDEFF7" />
    </g>
    <defs>
        <linearGradient id="paint0_linear_13702_88877" x1="384" y1="0" x2="384" y2="56" gradientUnits="userSpaceOnUse">
            <stop stop-color="#F4F5FA" />
            <stop offset="1" stop-color="#F4F5FA" stop-opacity="0" />
        </linearGradient>
        <clipPath id="clip0_13702_88877">
            <rect width="768" height="56" fill="white" />
        </clipPath>
    </defs>
</svg>
