<svg xmlns="http://www.w3.org/2000/svg" width="18" height="18" viewBox="0 0 18 18">
    <g fill="none" fill-rule="nonzero">
        <path fill="#464547" d="M9 0C4.05 0 0 4.05 0 9s4.05 9 9 9 9-4.05 9-9-4.05-9-9-9z"/>
        <path fill="#FFF" stroke="#FFF" d="M12.84 3.48c-.06-.06-.15-.03-.21.03L9 8.73 5.37 3.51c-.06-.06-.15-.09-.21-.03s-.09.15-.03.21L8.82 9l-3.69 5.31c-.06.06-.03.15.03.21.03.03.06.03.09.03.06 0 .09-.03.12-.06L9 9.27l3.63 5.22c.03.03.09.06.12.06s.06 0 .09-.03c.06-.06.09-.15.03-.21L9.18 9l3.69-5.31c.06-.06.03-.18-.03-.21z"/>
    </g>
</svg>
