<svg xmlns="http://www.w3.org/2000/svg" xmlns:xlink="http://www.w3.org/1999/xlink" width="2110" height="1152" viewBox="0 0 2110 1152">
  <defs>
    <rect id="waves-a" width="2110" height="1152"/>
    <circle id="waves-c" cx="23" cy="23" r="23"/>
    <circle id="waves-e" cx="23" cy="23" r="23"/>
    <circle id="waves-g" cx="23" cy="23" r="23"/>
    <circle id="waves-i" cx="23" cy="23" r="23"/>
    <circle id="waves-k" cx="23" cy="23" r="23"/>
    <circle id="waves-m" cx="23" cy="23" r="23"/>
    <circle id="waves-o" cx="23" cy="23" r="23"/>
    <circle id="waves-q" cx="23" cy="23" r="23"/>
  </defs>
  <g fill="none" fill-rule="evenodd" transform="translate(0 2)">
    <g opacity=".3" transform="translate(0 -2)">
      <mask id="waves-b" fill="#fff">
        <use xlink:href="#waves-a"/>
      </mask>
      <g stroke="#39C2D7" stroke-dasharray="3 4" mask="url(#waves-b)">
        <g transform="translate(-626 107)">
          <path d="M223.369591,241 C530.869591,241 478.369591,635 802.369591,635 C1126.36959,635 1194.36959,389.5 1361.36959,389.5 C1528.36959,389.5 1443.86959,529 1806.86959,537.5 C2169.86959,546 2266.86959,0.5 2475.86959,0.5 C2684.86959,0.5 2771.36959,234 2921.36959,234 C3071.36959,234 2724.86959,1138 2724.86959,1138 C2724.86959,1138 151.369591,1138 15.8695908,1138 C15.8695908,821.5 -84.1304092,241 223.369591,241 Z" transform="matrix(-1 0 0 1 2959.37 0)"/>
          <path d="M562.5,222.5 C747.5,222.5 774.362732,703.5 985.5,703.5 C1196.63727,703.5 1264.8869,395 1476,395 C1687.1131,395 1647,546.5 1924.5,546.5 C2202,546.5 2246.5,296 2487.5,296 C2728.5,296 2751.5,571 2909.5,571 C3067.5,571 2831.5,1138 2831.5,1138 L402.5,1138 C402.5,1138 158,222.5 562.5,222.5 Z"/>
          <path d="M599.5,23 C822,23 871.5,464.5 1096,464.5 C1320.5,464.5 1273,316 1488,316 C1703,316 1681.5,464.5 1860.5,464.5 C2039.5,464.5 2238.23311,187 2484,187 C2729.76689,187 2744.5,351.5 2824.5,351.5 C2904.5,351.5 2831.23311,1047.5 2831.23311,1047.5 L402.233108,1047.5 C402.233108,1047.5 195,23 599.5,23 Z"/>
          <path d="M909.5,229.5 C1061,229.5 1096,444.5 1226.5,444.5 C1357,444.5 1381.5,301 1551,301 C1720.5,301 1880.5,469.5 2059.5,469.5 C2238.5,469.5 2337.5,67.5 2683,67.5 C2856,67.5 2870.5,265 2928,259 C2985.5,253 2955.07689,1047.5 2955.07689,1047.5 L526.076887,1047.5 C526.076887,1047.5 423.886379,700.913689 547.5,375 C739.5,369 765,237.5 909.5,229.5 Z"/>
          <path d="M630.5,451 C798.5,451 961.5,668.5 1141,668.5 C1320.5,668.5 1413,451 1620,451 C1747.5,451 1731.5,653.5 1943.5,653.5 C2155.5,653.5 2272.5,379 2456.5,379 C2682.5,379 2801.5,617.5 2928.5,617.5 C3055.5,617.5 2976,1138 2976,1138 L342.5,1138 C342.5,1138 363.5,451 630.5,451 Z"/>
          <path d="M758.897129,489.5 C917.897129,489.5 969.897129,702 1207.39713,702 C1444.89713,702 1486.78403,538 1697.89713,538 C1909.01023,538 1909.89713,638 2061.89713,638 C2358.39713,633 2450.39713,351 2672.89713,351 C2895.39713,351 2842.89713,551 2992.89713,551 C3142.89713,551 3094.39713,1138 3094.39713,1138 C3094.39713,1138 681.397129,1138 385.397129,1138 C409.770614,997.156079 -48.6941105,744.5 353.397129,744.5 C493.897129,744.5 583.897129,489.5 758.897129,489.5 Z" transform="matrix(-1 0 0 1 3289.397 0)"/>
        </g>
      </g>
    </g>
    <g opacity=".5" transform="translate(51 154)">
      <g transform="translate(1563 399)">
        <mask id="waves-d" fill="#fff">
          <use xlink:href="#waves-c"/>
        </mask>
        <use fill="#FFF" xlink:href="#waves-c"/>
        <polyline fill="#D0F0F1" points="5 29 18 17 22 22 29 12 41 29" mask="url(#waves-d)"/>
      </g>
      <g transform="translate(38 24)">
        <mask id="waves-f" fill="#fff">
          <use xlink:href="#waves-e"/>
        </mask>
        <use fill="#D0F0F1" xlink:href="#waves-e"/>
        <polyline fill="#FFF" points="5 29 18 17 22 22 29 12 41 29" mask="url(#waves-f)"/>
      </g>
      <g transform="translate(393 394)">
        <circle cx="23" cy="23" r="23" fill="#D0F0F1"/>
        <path fill="#FFF" d="M23,37 C15.2680135,37 9,30.7319865 9,23 C9,15.2680135 15.2680135,9 23,9 C30.7319865,9 37,15.2680135 37,23 C37,30.7319865 30.7319865,37 23,37 Z M23,30 C26.8659932,30 30,26.8659932 30,23 C30,19.1340068 26.8659932,16 23,16 C19.1340068,16 16,19.1340068 16,23 C16,26.8659932 19.1340068,30 23,30 Z"/>
      </g>
      <g transform="translate(1939)">
        <mask id="waves-h" fill="#fff">
          <use xlink:href="#waves-g"/>
        </mask>
        <use fill="#D0F0F1" xlink:href="#waves-g"/>
        <rect width="27" height="5" x="8" y="13" fill="#FFF" mask="url(#waves-h)" rx="2"/>
        <rect width="33" height="5" x="8" y="21" fill="#FFF" mask="url(#waves-h)" rx="2"/>
        <path fill="#FFF" d="M8,31.0048815 C8,29.897616 8.89821238,29 9.99079514,29 L26.0092049,29 C27.1086907,29 28,29.8938998 28,31.0048815 L28,31.9951185 C28,33.102384 27.1017876,34 26.0092049,34 L9.99079514,34 C8.89130934,34 8,33.1061002 8,31.9951185 L8,31.0048815 Z" mask="url(#waves-h)"/>
      </g>
      <g transform="translate(282 632)">
        <mask id="waves-j" fill="#fff">
          <use xlink:href="#waves-i"/>
        </mask>
        <use fill="#FFF" xlink:href="#waves-i"/>
        <rect width="27" height="5" x="8" y="13" fill="#D0F0F1" mask="url(#waves-j)" rx="2"/>
        <rect width="33" height="5" x="8" y="21" fill="#D0F0F1" mask="url(#waves-j)" rx="2"/>
        <path fill="#D0F0F1" d="M8,31.0048815 C8,29.897616 8.89821238,29 9.99079514,29 L26.0092049,29 C27.1086907,29 28,29.8938998 28,31.0048815 L28,31.9951185 C28,33.102384 27.1017876,34 26.0092049,34 L9.99079514,34 C8.89130934,34 8,33.1061002 8,31.9951185 L8,31.0048815 Z" mask="url(#waves-j)"/>
      </g>
      <g transform="translate(239 166)">
        <mask id="waves-l" fill="#fff">
          <use xlink:href="#waves-k"/>
        </mask>
        <use fill="#D0F0F1" xlink:href="#waves-k"/>
        <rect width="3" height="25" x="16" y="12" fill="#FFF" mask="url(#waves-l)" rx="1.5"/>
        <rect width="3" height="15" x="10" y="22" fill="#FFF" mask="url(#waves-l)" rx="1.5"/>
        <rect width="3" height="30" x="22" y="7" fill="#FFF" mask="url(#waves-l)" rx="1.5"/>
        <rect width="3" height="20" x="28" y="17" fill="#FFF" mask="url(#waves-l)" rx="1.5"/>
        <rect width="3" height="10" x="34" y="27" fill="#FFF" mask="url(#waves-l)" rx="1.5"/>
      </g>
      <g transform="translate(1824 421)">
        <mask id="waves-n" fill="#fff">
          <use xlink:href="#waves-m"/>
        </mask>
        <use fill="#FFF" xlink:href="#waves-m"/>
        <rect width="3" height="25" x="16" y="12" fill="#D0F0F1" mask="url(#waves-n)" rx="1.5"/>
        <rect width="3" height="15" x="10" y="22" fill="#D0F0F1" mask="url(#waves-n)" rx="1.5"/>
        <rect width="3" height="30" x="22" y="7" fill="#D0F0F1" mask="url(#waves-n)" rx="1.5"/>
        <rect width="3" height="20" x="28" y="17" fill="#D0F0F1" mask="url(#waves-n)" rx="1.5"/>
        <rect width="3" height="10" x="34" y="27" fill="#D0F0F1" mask="url(#waves-n)" rx="1.5"/>
      </g>
      <g transform="translate(1774 118)">
        <mask id="waves-p" fill="#fff">
          <use xlink:href="#waves-o"/>
        </mask>
        <use fill="#D0F0F1" xlink:href="#waves-o"/>
        <polyline stroke="#FFF" stroke-width="2" points="41.5 31.5 33 19 27 24 16 10 4.5 32" mask="url(#waves-p)"/>
        <polyline stroke="#FFF" stroke-width="2" points="42 32 33 26 26 30 17 20 4.5 32" mask="url(#waves-p)"/>
      </g>
      <g transform="translate(0 393)">
        <mask id="waves-r" fill="#fff">
          <use xlink:href="#waves-q"/>
        </mask>
        <use fill="#FFF" xlink:href="#waves-q"/>
        <polyline stroke="#C3E9EB" stroke-width="2" points="41.5 31.5 33 19 27 24 16 10 4.5 32" mask="url(#waves-r)"/>
        <polyline stroke="#C3E9EB" stroke-width="2" points="42 32 33 26 26 30 17 20 4.5 32" mask="url(#waves-r)"/>
      </g>
    </g>
  </g>
</svg>
