<?xml version="1.0" encoding="UTF-8"?>
<svg width="2110px" height="825px" viewBox="0 0 2110 825" version="1.1" xmlns="http://www.w3.org/2000/svg" xmlns:xlink="http://www.w3.org/1999/xlink">
    <!-- Generator: Sketch 52.2 (67145) - http://www.bohemiancoding.com/sketch -->
    <title>Asset 1</title>
    <desc>Created with Sketch.</desc>
    <g id="#Responsive-Landing-v8" stroke="none" stroke-width="1" fill="none" fill-rule="evenodd">
        <g id="Responsive-Landing" transform="translate(0.000000, -491.000000)">
            <g id="Asset-1" transform="translate(-9.000000, 491.000000)">
                <polygon id="Path" fill="#FBFEFF" points="9 170.851389 183.514583 119.273611 532.104167 270.929861 460.598611 450.572917 9 440.755556"></polygon>
                <polygon id="Path" fill="#F5FDFF" points="147.908333 187.702083 229.670833 404.709722 640.067006 440 625.20253 296 183.514583 119.273611"></polygon>
                <polygon id="Path" fill="#FBFEFF" points="2119 231.074306 1978.33333 177.591667 1631.20903 344.633333 1702.86111 524.276389 2119 515.191667"></polygon>
                <polygon id="Path" fill="#F5FDFF" points="1904.33681 225.359722 1767.33333 474.310417 1444 520 1455 312 1798.10417 217.886806 1978.33333 177.591667"></polygon>
                <polygon id="Path" fill="#EBF8FC" transform="translate(1755.581970, 327.084811) scale(-1, 1) translate(-1755.581970, -327.084811) " points="1755.63747 245 1742.65071 319.332662 1756.63645 310.645857 1736.65682 354.079883 1734.21487 368.044747 1759.5224 340.444898 1730.32994 390.366538 1727 409.169623 1755.63747 397.40395 1784.16394 409.169623 1781.49999 393.775284 1767.18125 371.453494 1778.39205 375.741917"></polygon>
                <polygon id="Path" fill="#EBF8FC" transform="translate(1716.339603, 286.013656) scale(-1, 1) translate(-1716.339603, -286.013656) " points="1696.41547 274.138023 1717.94907 260.832916 1687.20264 327.46841 1683.42871 348.910524 1722.27799 306.576093 1677.43482 383.327866 1672.43992 412.027311 1705.7393 409.058403 1760.23929 412.027311 1756.13236 388.495965 1748.6955 346.161535 1716.2841 160"></polygon>
                <polygon id="Path" fill="#EBF8FC" points="522.804167 169 505.660417 268.052778 524.122917 256.477083 497.747917 314.355556 494.524306 332.964583 527.932639 296.186111 489.395833 362.709722 485 387.765972 522.804167 372.0875 560.461806 387.765972 556.945139 367.252083 538.043056 337.506944 552.842361 343.221528"></polygon>
                <polygon id="Path" fill="#EBF8FC" points="464.878472 56 438.65 208.095833 467.076389 190.365972 426.488194 279.161806 421.50625 307.734722 472.790972 251.321528 413.59375 353.597917 407 391.841667 450.958333 387.885417 522.903472 391.841667 517.481944 360.484722 521.291667 334.25625 528.764583 291.909722 507.664583 304.071528"></polygon>
                <polygon id="Path" fill="#EBF8FC" points="1936.57292 308.001389 1930.12569 345.659028 1937.15903 341.263194 1927.04861 363.242361 1925.87639 370.275694 1938.62431 356.355556 1923.97153 381.558333 1922.21319 391.082639 1936.57292 385.075 1950.93264 391.082639 1949.61389 383.316667 1942.43403 372.034028 1948.00208 374.085417"></polygon>
                <polygon id="Path" fill="#EBF8FC" points="1554.42639 266 1541.53194 340.729167 1535.52431 375.749306 1533.03333 389.815972 1529.22361 412.38125 1526 431.136806 1554.42639 419.414583 1582.99931 431.136806 1580.21528 415.751389 1556.62431 389.815972 1577.13819 397.581944 1571.86319 366.664583 1553.25417 339.117361 1567.76042 343.220139 1564.97639 327.248611 1557.65 318.017361 1563.80417 320.06875"></polygon>
                <polygon id="Path" fill="#EBF8FC" points="1617.75556 308 1605.74028 377.747222 1612.77361 375.988889 1603.68889 389.7625 1601.19792 404.561806 1599 417.016667 1617.75556 409.250694 1636.65764 417.016667 1634.89931 406.759722 1619.22083 389.615972 1632.84792 394.890972 1629.33125 374.523611 1617.02292 356.207639 1626.54722 358.991667 1624.78889 348.441667 1623.90972 343.752778"></polygon>
                <polygon id="Path" fill="#EBF8FC" points="214.038194 224 227.665278 302.978472 213.0125 293.747222 234.1125 339.903472 236.603472 354.849306 209.935417 325.54375 240.70625 378.586806 244.222917 398.514583 214.038194 386.059722 184 398.514583 186.784028 382.25 201.876389 358.5125 190.154167 363.054861"></polygon>
                <polygon id="Path-Copy" fill="#EBF8FC" points="346.064958 273 354.71394 323.014576 345.41396 317.168717 358.805931 346.398015 360.386927 355.86274 343.460964 337.304455 362.990922 370.89495 365.222917 383.514583 346.064958 375.627312 327 383.514583 328.766996 373.214736 338.345975 358.182525 330.905991 361.059059"></polygon>
                <polygon id="Path-Copy-2" fill="#EBF8FC" points="292.017042 302 300.666023 352.014576 291.366043 346.168717 304.758014 375.398015 306.339011 384.86274 289.413047 366.304455 308.943005 399.89495 311.175 412.514583 292.017042 404.627312 272.952083 412.514583 274.719079 402.214736 284.298059 387.182525 276.858075 390.059059"></polygon>
                <polygon id="Path" fill="#FBFEFF" points="2119 322.214583 1950.93264 378.041667 1798.10417 375.404167 1563.51319 415.40625 1348.99653 485.153472 373.561111 351.520139 229.670833 380.825694 9 336.867361 9 799.895139 2119 799.895139"></polygon>
                <polygon id="Path" fill="#D3F1FB" points="1668 414 1694 423 1606 441"></polygon>
                <polygon id="Path" fill="#D3F1FB" points="167.689583 367.93125 665 555 65.4131944 449.254167 9 440.755556 9 336.867361"></polygon>
                <polygon id="Path" fill="#DCF4FC" points="373.561111 351.520139 249.745139 398.848611 229.670833 380.825694"></polygon>
                <rect id="Rectangle" fill="#D3F1FB" x="89.5902778" y="357.088194" width="21.9791667" height="83.6380556"></rect>
                <polygon id="Path" fill="#D3F1FB" points="167.689583 393.573611 111.715972 370.422222 101.019444 366.026389 89.5902778 370.715278 55.8888889 384.781944 34.4958333 393.573611 35.5215278 387.7125 46.2180556 325.877778 83.5826389 277.816667 51.2 297.011806 54.7166667 276.204861 96.1840278 225.799306 60.8708333 240.745139 70.8347222 182.720139 84.3152778 168.067361 85.4875 160.594444 72.4465278 173.781944 101.019444 7.9125 128.566667 166.895139 101.019444 150.044444 136.186111 211.293056 154.0625 315.18125 117.430556 301.114583 161.388889 357.674306"></polygon>
                <polygon id="Path" fill="#B0E8F7" points="63.5083333 225.799306 98.0888889 210.853472 64.9736111 217.007639"></polygon>
                <polygon id="Path" fill="#B0E8F7" points="147.908333 281.333333 111.715972 261.1125 111.715972 256.716667 146.296528 271.6625"></polygon>
                <polygon id="Path" fill="#B0E8F7" points="122.852083 134.365972 100.140278 123.229861 121.826389 128.504861"></polygon>
                <rect id="Rectangle" fill="#D3F1FB" transform="translate(2025.661806, 391.024028) rotate(-180.000000) translate(-2025.661806, -391.024028) " x="2014.67222" y="349.205" width="21.9791667" height="83.6380556"></rect>
                <polygon id="Path" fill="#D3F1FB" points="1958.69861 385.807639 2014.67222 362.509722 2025.22222 358.113889 2036.65139 362.802778 2070.35278 376.869444 2091.89236 385.807639 2090.86667 379.8 2080.17014 318.111806 2051.59722 281.333333 2075.18819 289.099306 2070.49931 262.138194 2041.77986 248.364583 2041.19375 244.554861 2068.8875 253.346528 2067.27569 243.822222 2040.02153 229.755556 2039.14236 225.359722 2065.66389 234.297917 2025.22222 0 1993.57222 183.745833 2018.775 171.877083 1990.20208 203.380556 1972.17917 307.26875 2008.81111 293.348611 1964.85278 349.761806"></polygon>
                <polygon id="Path" fill="#B0E8F7" points="2062.73333 217.886806 2028.15278 208.509028 2061.26806 209.095139"></polygon>
                <polygon id="Path" fill="#B0E8F7" points="1978.33333 273.420833 2014.81875 248.950694 2014.81875 244.554861 1980.67778 259.940278"></polygon>
                <polygon id="Path" fill="#B0E8F7" points="2003.53611 126.453472 2026.24792 115.317361 2026.24792 111.947222 2004.41528 120.592361"></polygon>
                <polygon id="Path" fill="#DCF4FC" points="1860.37847 390.936111 1872.39375 385.954167 1879.42708 383.023611 1886.9 386.247222 1909.31875 395.478472 1923.53194 401.339583 1922.94583 397.383333 1915.76597 356.502083 1896.86389 332.031944 1912.54236 337.306944 1910.05139 323.533333 1896.86389 310.345833 1908.43958 313.422917 1879.42708 145.355556 1859.35278 261.698611 1867.11875 258.035417 1866.97222 259.354167 1858.91319 264.043056 1858.18056 267.999306 1867.41181 264.189583 1866.97222 266.3875 1857.59444 271.369444 1844.26042 349.322222 1868.4375 340.090972 1839.27847 377.455556"></polygon>
                <polygon id="Path" fill="#B0E8F7" points="1904.33681 289.978472 1881.33194 283.824306 1903.31111 284.117361"></polygon>
                <polygon id="Path" fill="#B0E8F7" points="1848.21667 326.903472 1872.54028 317.525694 1849.82847 317.81875"></polygon>
                <polygon id="Path" fill="#D3F1FB" points="1899.06181 404.416667 1339.01624 522 2119 437.971528 2119 322.214583 1950.93264 378.041667"></polygon>
                <polygon id="Path" fill="#DCF4FC" points="1798.10417 375.404167 1899.06181 404.416667 1950.93264 378.041667"></polygon>
                <polygon id="Path" fill="#D3F1FB" points="249.745139 398.848611 199.486111 392.108333 167.689583 367.93125 229.670833 380.825694"></polygon>
                <polygon id="Path" fill="#D3F1FB" points="485 449.480556 527.932639 436 626.545833 455.78125"></polygon>
                <polygon id="Path" fill="#D3F1FB" points="1746.15594 597.100694 2119 538.343056 2119 597.100694"></polygon>
                <polygon id="Path" fill="#D3F1FB" points="167.689583 614.390972 10.9048611 608.822917 10.9048611 582.301389"></polygon>
                <polygon id="Path" fill="#FFFFFF" points="379.422222 733.664583 643.758333 650.729861 1645.42222 671.976389 1826.2375 661.426389 2119 749.636111 2119 825 1091.29541 810 0 810 9 667.2875"></polygon>
            </g>
        </g>
    </g>
</svg>