<svg width="2110" height="1023" viewBox="0 0 2110 1023" xmlns="http://www.w3.org/2000/svg" xmlns:xlink="http://www.w3.org/1999/xlink"><title>D48627A8-7A1F-469B-96BB-FC71274D0960</title><defs><path d="M234.325 150.5c307.5 0 239 484.5 563 484.5s392-245.5 559-245.5 82.5 139.5 445.5 148 460-537 669-537 295.5 233.5 445.5 233.5-196.5 842-196.5 842h-2709c0-316.5-84-925.5 223.5-925.5z" id="b"/><path d="M233.5.5c185 0 211.863 451 423 451S935.887 173 1147 173s240 226 451 226 283.5-319.5 555-319.5S2430.5 349 2580.5 349s-78 506-78 506H73.5S-171 .5 233.5.5z" id="d"/><path id="f" d="M0 0h2110v1152H0z"/><linearGradient x1="50%" y1="100%" x2="50%" y2="7.52%" id="i"><stop stop-color="#4CC7DA" stop-opacity="0" offset="0%"/><stop stop-color="#48C6DA" offset="100%"/></linearGradient><path id="h" d="M626 952h2110v200H626z"/><ellipse id="j" cx="23" cy="23" rx="23" ry="23"/><circle id="l" cx="23" cy="23" r="23"/><circle id="n" cx="23" cy="23" r="23"/><circle id="a" cx="23" cy="23" r="15"/><mask id="o" x="0" y="0" width="30" height="30" fill="#fff"><use xlink:href="#a"/></mask><mask id="p" x="0" y="0" width="30" height="30" fill="#fff"><use xlink:href="#a"/></mask><ellipse id="q" cx="23" cy="23" rx="23" ry="23"/><ellipse id="s" cx="23" cy="23" rx="23" ry="23"/><circle id="u" cx="23" cy="23" r="23"/><circle id="w" cx="23" cy="23" r="23"/><ellipse id="y" cx="23" cy="23" rx="23" ry="23"/><ellipse id="A" cx="23" cy="23" rx="23" ry="23"/></defs><g fill="none" fill-rule="evenodd"><g opacity=".4" transform="translate(-626 -54)"><mask id="c" fill="#fff"><use xlink:href="#b"/></mask><use fill="#79D6D9" opacity=".75" transform="matrix(-1 0 0 1 2954.325 0)" xlink:href="#b"/><path mask="url(#c)" d="M627-77h2110v1152H627z"/></g><g opacity=".4" transform="translate(-297 168)"><mask id="e" fill="#fff"><use xlink:href="#d"/></mask><use fill="#79D6D9" opacity=".75" xlink:href="#d"/><path mask="url(#e)" d="M298-299h2110V853H298z"/></g><g opacity=".3" transform="translate(0 -131)"><mask id="g" fill="#fff"><use xlink:href="#f"/></mask><g mask="url(#g)" stroke="#39C2D7" stroke-dasharray="3,4"><path d="M2110 348c-307.5 0-255 394-579 394s-392-245.5-559-245.5-82.5 139.5-445.5 148-460-537-669-537S-438 341-588 341s196.5 904 196.5 904h2709c0-316.5 100-897-207.5-897z"/><path d="M-63.5 329.5c185 0 211.863 481 423 481S638.887 502 850 502s171 151.5 448.5 151.5 322-250.5 563-250.5 264 275 422 275-78 567-78 567h-2429S-468 329.5-63.5 329.5z"/><path d="M-26.5 130c222.5 0 272 441.5 496.5 441.5S647 423 862 423s193.5 148.5 372.5 148.5S1612.233 294 1858 294s260.5 164.5 340.5 164.5 6.733 696 6.733 696h-2429S-431 130-26.5 130z"/><path d="M283.5 336.5c151.5 0 186.5 215 317 215S755.5 408 925 408s329.5 168.5 508.5 168.5 278-402 623.5-402c173 0 187.5 197.5 245 191.5s27.077 788.5 27.077 788.5h-2429S-202.113 807.914-78.5 482c192-6 217.5-137.5 362-145.5z"/><path d="M4.5 558c168 0 331 217.5 510.5 217.5S787 558 994 558c127.5 0 111.5 202.5 323.5 202.5s329-274.5 513-274.5c226 0 345 238.5 472 238.5S2350 1245 2350 1245H-283.5s21-687 288-687z"/><path d="M1904.5 596.5c-159 0-211 212.5-448.5 212.5s-279.387-164-490.5-164-212 100-364 100C305 740 213 458-9.5 458s-170 200-320 200S-431 1245-431 1245h2709c-24.373-140.844 434.091-393.5 32-393.5-140.5 0-230.5-255-405.5-255z"/></g></g><g opacity=".322" fill-opacity=".4" transform="translate(-626 -131)"><use fill="#39C2D7" xlink:href="#h"/><use fill="url(#i)" xlink:href="#h"/></g><g opacity=".5"><g transform="translate(1614 422)"><mask id="k" fill="#fff"><use xlink:href="#j"/></mask><use fill="#FFF" xlink:href="#j"/><path fill="#D0F0F1" mask="url(#k)" d="M5 29l13-12 4 5 7-10 12 17"/></g><g transform="translate(89 47)"><mask id="m" fill="#fff"><use xlink:href="#l"/></mask><use fill="#D0F0F1" xlink:href="#l"/><path fill="#FFF" mask="url(#m)" d="M5 29l13-12 4 5 7-10 12 17"/></g><g transform="translate(444 417)"><use fill="#D0F0F1" xlink:href="#n"/><g mask="url(#o)" stroke-width="46" transform="matrix(-1 0 0 1 46 0)"><use mask="url(#p)" xlink:href="#a"/></g></g><g transform="translate(1990 23)"><mask id="r" fill="#fff"><use xlink:href="#q"/></mask><use fill="#D0F0F1" xlink:href="#q"/><rect fill="#FFF" mask="url(#r)" x="8" y="13" width="27" height="5" rx="2"/><rect fill="#FFF" mask="url(#r)" x="8" y="21" width="33" height="5" rx="2"/><path d="M8 31.005C8 29.898 8.898 29 9.99 29h16.02c1.099 0 1.99.894 1.99 2.005v.99A2.002 2.002 0 0 1 26.01 34H9.99C8.892 34 8 33.106 8 31.995v-.99z" fill="#FFF" mask="url(#r)"/></g><g transform="translate(333 655)"><mask id="t" fill="#fff"><use xlink:href="#s"/></mask><use fill="#FFF" xlink:href="#s"/><rect fill="#D0F0F1" mask="url(#t)" x="8" y="13" width="27" height="5" rx="2"/><rect fill="#D0F0F1" mask="url(#t)" x="8" y="21" width="33" height="5" rx="2"/><path d="M8 31.005C8 29.898 8.898 29 9.99 29h16.02c1.099 0 1.99.894 1.99 2.005v.99A2.002 2.002 0 0 1 26.01 34H9.99C8.892 34 8 33.106 8 31.995v-.99z" fill="#D0F0F1" mask="url(#t)"/></g><g transform="translate(290 189)"><mask id="v" fill="#fff"><use xlink:href="#u"/></mask><use fill="#D0F0F1" xlink:href="#u"/><rect fill="#FFF" mask="url(#v)" x="16" y="12" width="3" height="25" rx="1.5"/><rect fill="#FFF" mask="url(#v)" x="10" y="22" width="3" height="15" rx="1.5"/><rect fill="#FFF" mask="url(#v)" x="22" y="7" width="3" height="30" rx="1.5"/><rect fill="#FFF" mask="url(#v)" x="28" y="17" width="3" height="20" rx="1.5"/><rect fill="#FFF" mask="url(#v)" x="34" y="27" width="3" height="10" rx="1.5"/></g><g transform="translate(1875 444)"><mask id="x" fill="#fff"><use xlink:href="#w"/></mask><use fill="#FFF" xlink:href="#w"/><rect fill="#D0F0F1" mask="url(#x)" x="16" y="12" width="3" height="25" rx="1.5"/><rect fill="#D0F0F1" mask="url(#x)" x="10" y="22" width="3" height="15" rx="1.5"/><rect fill="#D0F0F1" mask="url(#x)" x="22" y="7" width="3" height="30" rx="1.5"/><rect fill="#D0F0F1" mask="url(#x)" x="28" y="17" width="3" height="20" rx="1.5"/><rect fill="#D0F0F1" mask="url(#x)" x="34" y="27" width="3" height="10" rx="1.5"/></g><g transform="translate(1825 141)"><mask id="z" fill="#fff"><use xlink:href="#y"/></mask><use fill="#D0F0F1" xlink:href="#y"/><path stroke="#FFF" stroke-width="2" mask="url(#z)" d="M41.5 31.5L33 19l-6 5-11-14L4.5 32"/><path stroke="#FFF" stroke-width="2" mask="url(#z)" d="M42 32l-9-6-7 4-9-10L4.5 32"/></g><g transform="translate(51 416)"><mask id="B" fill="#fff"><use xlink:href="#A"/></mask><use fill="#FFF" xlink:href="#A"/><path stroke="#C3EAEB" stroke-width="2" mask="url(#B)" d="M41.5 31.5L33 19l-6 5-11-14L4.5 32"/><path stroke="#C3EAEB" stroke-width="2" mask="url(#B)" d="M42 32l-9-6-7 4-9-10L4.5 32"/></g></g></g></svg>