<svg width="1991" height="967" viewBox="0 0 1991 967" fill="none" xmlns="http://www.w3.org/2000/svg">
<path d="M0.5 0H1990.5V564L0.5 967V0Z" fill="url(#paint0_linear_6086_77289)"/>
<mask id="mask0_6086_77289" style="mask-type:alpha" maskUnits="userSpaceOnUse" x="0" y="0" width="1991" height="967">
<path d="M0.5 0H1990.5V564L0.5 967V0Z" fill="url(#paint1_linear_6086_77289)"/>
</mask>
<g mask="url(#mask0_6086_77289)">
<g filter="url(#filter0_f_6086_77289)">
<path d="M825.856 860.582C1313.93 673.833 1154.31 1020.52 1451.92 1053.84C1749.52 1087.17 1977.45 727.298 1316.55 455.547C655.655 183.796 -8.22806 1179.72 825.856 860.582Z" fill="url(#paint2_linear_6086_77289)" fill-opacity="0.4"/>
</g>
<g filter="url(#filter1_f_6086_77289)">
<path d="M981.461 -88.4036C1085.16 122.971 1336.83 -157.34 1566.22 223.728C1795.6 604.795 2231.91 82.4971 1731.32 -261.355C1230.73 -605.207 858.17 -339.705 981.461 -88.4036Z" fill="url(#paint3_linear_6086_77289)" fill-opacity="0.6"/>
</g>
<g filter="url(#filter2_f_6086_77289)">
<path d="M431.155 2.41969C824.346 43.2189 1140.93 -383.058 1271.62 -192.067C1402.31 -1.07682 750.556 -44.9158 275.555 428.327C-199.447 901.57 -240.784 -67.3033 431.155 2.41969Z" fill="url(#paint4_linear_6086_77289)" fill-opacity="0.7"/>
</g>
<path opacity="0.1" d="M1422.5 115.831L1422.5 62.0122L1422.5 9.77673L1422.5 -63.8308C1422.5 -67.8816 1424.74 -71.6248 1428.38 -73.6502L1589.62 -163.481C1593.26 -165.506 1597.74 -165.506 1601.38 -163.481L1762.62 -73.6502C1766.26 -71.6248 1768.5 -67.8816 1768.5 -63.8308V-9.10391V43.4779V115.831C1768.5 119.882 1766.26 123.625 1762.62 125.65L1601.38 215.481C1597.74 217.506 1593.26 217.506 1589.62 215.481L1428.38 125.65C1424.74 123.625 1422.5 119.882 1422.5 115.831Z" fill="url(#paint5_linear_6086_77289)"/>
<path opacity="0.15" d="M-37.5 169.748L-37.5 29.707L-37.5 -106.214L-37.5 -297.748C-37.5 -308.289 -31.6677 -318.029 -22.2002 -323.299L397.7 -557.047C407.168 -562.318 418.832 -562.318 428.3 -557.047L848.2 -323.299C857.668 -318.029 863.5 -308.289 863.5 -297.748V-155.344V-18.5209V169.748C863.5 180.289 857.668 190.029 848.2 195.299L428.3 429.047C418.832 434.318 407.168 434.318 397.7 429.047L-22.2002 195.299C-31.6677 190.029 -37.5 180.289 -37.5 169.748Z" fill="url(#paint6_linear_6086_77289)"/>
<path opacity="0.05" d="M892.5 857.652L892.5 740.435L892.5 626.666L892.5 466.348C892.5 457.525 897.381 449.372 905.304 444.961L1256.7 249.309C1264.62 244.897 1274.38 244.897 1282.3 249.309L1633.7 444.961C1641.62 449.372 1646.5 457.525 1646.5 466.348V585.543V700.067V857.652C1646.5 866.475 1641.62 874.628 1633.7 879.039L1282.3 1074.69C1274.38 1079.1 1264.62 1079.1 1256.7 1074.69L905.304 879.039C897.381 874.628 892.5 866.475 892.5 857.652Z" fill="url(#paint7_linear_6086_77289)"/>
</g>
<defs>
<filter id="filter0_f_6086_77289" x="250.5" y="223" width="1679" height="1018" filterUnits="userSpaceOnUse" color-interpolation-filters="sRGB">
<feFlood flood-opacity="0" result="BackgroundImageFix"/>
<feBlend mode="normal" in="SourceGraphic" in2="BackgroundImageFix" result="shape"/>
<feGaussianBlur stdDeviation="92.5" result="effect1_foregroundBlur_6086_77289"/>
</filter>
<filter id="filter1_f_6086_77289" x="822.709" y="-560.273" width="1274.28" height="1052.33" filterUnits="userSpaceOnUse" color-interpolation-filters="sRGB">
<feFlood flood-opacity="0" result="BackgroundImageFix"/>
<feBlend mode="normal" in="SourceGraphic" in2="BackgroundImageFix" result="shape"/>
<feGaussianBlur stdDeviation="67.5" result="effect1_foregroundBlur_6086_77289"/>
</filter>
<filter id="filter2_f_6086_77289" x="-323.819" y="-487.555" width="1858.42" height="1292.64" filterUnits="userSpaceOnUse" color-interpolation-filters="sRGB">
<feFlood flood-opacity="0" result="BackgroundImageFix"/>
<feBlend mode="normal" in="SourceGraphic" in2="BackgroundImageFix" result="shape"/>
<feGaussianBlur stdDeviation="123" result="effect1_foregroundBlur_6086_77289"/>
</filter>
<linearGradient id="paint0_linear_6086_77289" x1="-898.5" y1="904.88" x2="1890.98" y2="-29.5522" gradientUnits="userSpaceOnUse">
<stop stop-color="#009DBB"/>
<stop offset="1" stop-color="#0081A7"/>
</linearGradient>
<linearGradient id="paint1_linear_6086_77289" x1="0.500133" y1="384.562" x2="1809.18" y2="-296.632" gradientUnits="userSpaceOnUse">
<stop stop-color="#009DBB"/>
<stop offset="1" stop-color="#0081A7"/>
</linearGradient>
<linearGradient id="paint2_linear_6086_77289" x1="260.645" y1="964.515" x2="1393.06" y2="301.818" gradientUnits="userSpaceOnUse">
<stop stop-color="white"/>
<stop offset="1" stop-color="#99E1EE"/>
</linearGradient>
<linearGradient id="paint3_linear_6086_77289" x1="637.578" y1="19.4181" x2="1832.37" y2="-307.696" gradientUnits="userSpaceOnUse">
<stop stop-color="#0081A7"/>
<stop offset="1" stop-color="#66D2E6"/>
</linearGradient>
<linearGradient id="paint4_linear_6086_77289" x1="-8.5916" y1="-15.3548" x2="948.4" y2="247.431" gradientUnits="userSpaceOnUse">
<stop stop-color="#00B4D5"/>
<stop offset="1" stop-color="#CCF2F4"/>
</linearGradient>
<linearGradient id="paint5_linear_6086_77289" x1="1596.55" y1="312.5" x2="1896.22" y2="122.456" gradientUnits="userSpaceOnUse">
<stop offset="0.500188" stop-color="#0081A7"/>
<stop offset="1" stop-color="#7AEAFF"/>
</linearGradient>
<linearGradient id="paint6_linear_6086_77289" x1="415.73" y1="681.5" x2="1195.76" y2="186.458" gradientUnits="userSpaceOnUse">
<stop offset="0.500188" stop-color="#0081A7"/>
<stop offset="1" stop-color="#7AEAFF"/>
</linearGradient>
<linearGradient id="paint7_linear_6086_77289" x1="1716.5" y1="1078" x2="2073.45" y2="358.138" gradientUnits="userSpaceOnUse">
<stop offset="0.0001" stop-color="#0081A7"/>
<stop offset="1" stop-color="#63E0F8"/>
</linearGradient>
</defs>
</svg>
