<svg xmlns="http://www.w3.org/2000/svg" xmlns:xlink="http://www.w3.org/1999/xlink" width="20" height="20" viewBox="0 0 20 20">
    <defs>
        <path id="a" d="M0 0h2110v274H0z"/>
        <filter id="b" width="100%" height="100.4%" x="0%" y="-.2%" filterUnits="objectBoundingBox">
            <feOffset dy="-1" in="SourceAlpha" result="shadowOffsetInner1"/>
            <feComposite in="shadowOffsetInner1" in2="SourceAlpha" k2="-1" k3="1" operator="arithmetic" result="shadowInnerInner1"/>
            <feColorMatrix in="shadowInnerInner1" values="0 0 0 0 0.741176471 0 0 0 0 0.780392157 0 0 0 0 0.8 0 0 0 0.200152853 0"/>
        </filter>
        <rect id="c" width="212" height="107" rx="8"/>
    </defs>
    <g fill="none" fill-rule="evenodd">
        <g transform="translate(-645 -89)">
            <use fill="#39C2D7" xlink:href="#a"/>
            <use fill="#FFF" xlink:href="#a"/>
            <use fill="#000" filter="url(#b)" xlink:href="#a"/>
        </g>
        <g transform="translate(-61 -29)">
            <use fill="#FFF" xlink:href="#c"/>
            <rect width="211" height="106" x=".5" y=".5" stroke="#E2F6FA" rx="8"/>
        </g>
        <path fill="#0274D1" d="M18.333 1.68H15.5A9.988 9.988 0 1 1 9.166.056V1.68l.109.037A8.338 8.338 0 1 0 14.166 2.8v3.047a.833.833 0 0 1-1.666 0v-5c0-.46.373-.834.833-.834h5a.833.833 0 0 1 0 1.667z"/>
    </g>
</svg>
