<svg xmlns="http://www.w3.org/2000/svg" width="25" height="20" viewBox="0 0 25 20">
    <path fill="#7F993A" fill-rule="evenodd" d="M7 13.702c-3.164.1-4.913 2.822-5 6.298H0c.543-4.338 2.68-7.997 7-8 2.655-.07 4.81 1.046 6 3-.417.315-.772.765-1 1-.89-1.425-2.413-2.305-5-2.298zM7.5 11a5.5 5.5 0 1 1 0-11 5.5 5.5 0 0 1 0 11zm0-2a3.5 3.5 0 1 0 0-7 3.5 3.5 0 0 0 0 7zm12 3a4.5 4.5 0 1 1 0-9 4.5 4.5 0 0 1 0 9zm0-2a2.5 2.5 0 1 0 0-5 2.5 2.5 0 0 0 0 5zm-.5 3c3.843 0 5.572 3.21 6 7h-2c-.044-2.853-1.241-5.266-4-5.27-2.759-.005-3.956 2.418-4 5.27h-2c.428-3.79 2.157-7 6-7z"/>
</svg>
