<svg xmlns="http://www.w3.org/2000/svg" xmlns:xlink="http://www.w3.org/1999/xlink" width="20" height="20" viewBox="0 0 20 20">
    <defs>
        <path id="a" d="M0 0h2110v274H0z"/>
        <filter id="b" width="100%" height="100.4%" x="0%" y="-.2%" filterUnits="objectBoundingBox">
            <feOffset dy="-1" in="SourceAlpha" result="shadowOffsetInner1"/>
            <feComposite in="shadowOffsetInner1" in2="SourceAlpha" k2="-1" k3="1" operator="arithmetic" result="shadowInnerInner1"/>
            <feColorMatrix in="shadowInnerInner1" values="0 0 0 0 0.741176471 0 0 0 0 0.780392157 0 0 0 0 0.8 0 0 0 0.200152853 0"/>
        </filter>
        <rect id="c" width="212" height="107" rx="8"/>
    </defs>
    <g fill="none" fill-rule="evenodd">
        <g transform="translate(-1381 -89)">
            <use fill="#39C2D7" xlink:href="#a"/>
            <use fill="#FFF" xlink:href="#a"/>
            <use fill="#000" filter="url(#b)" xlink:href="#a"/>
        </g>
        <g transform="translate(-68 -29)">
            <use fill="#FFF" xlink:href="#c"/>
            <rect width="211" height="106" x=".5" y=".5" stroke="#E2F6FA" rx="8"/>
        </g>
        <path fill="#F7D63E" d="M19.925 7.457a1.454 1.454 0 0 0-1.15-.975l-5.208-.798-2.259-4.85a1.442 1.442 0 0 0-2.616 0L6.434 5.683l-5.208.798a1.456 1.456 0 0 0-.817 2.45l3.816 3.93-.883 5.452a1.444 1.444 0 0 0 2.125 1.505L10 17.296l4.533 2.521c.215.118.455.18.7.182a1.448 1.448 0 0 0 1.425-1.687l-.883-5.453 3.816-3.93c.377-.39.506-.957.334-1.472zm-5.308 4.347c-.316.32-.46.773-.384 1.216l.859 5.32-4.408-2.46a1.404 1.404 0 0 0-1.367 0l-4.408 2.46.858-5.32a1.398 1.398 0 0 0-.383-1.216L1.676 7.97l5.066-.78c.463-.074.86-.373 1.058-.798L10 1.664l2.2 4.729c.2.425.595.723 1.058.797l5.067.781-3.708 3.833z"/>
    </g>
</svg>
