<svg width="21" height="12" viewBox="0 0 21 12" xmlns="http://www.w3.org/2000/svg"><title>0A42D34C-AC49-4F7F-81DB-067D64D41D0C</title><path d="M10.123 11.754h1.237s.373-.041.564-.247c.176-.188.17-.543.17-.543s-.024-1.66.746-1.904c.76-.24 1.734 1.604 2.767 2.314.782.536 1.376.419 1.376.419l2.763-.039s1.445-.09.76-1.226c-.057-.092-.4-.84-2.055-2.377-1.733-1.608-1.5-1.347.587-4.13 1.27-1.693 1.779-2.727 1.62-3.17-.151-.422-1.086-.31-1.086-.31L16.46.56s-.231-.032-.402.07c-.167.1-.274.334-.274.334s-.493 1.311-1.15 2.426c-1.385 2.352-1.939 2.477-2.165 2.33-.527-.34-.395-1.367-.395-2.097 0-2.28.345-3.23-.674-3.476-.338-.082-.587-.136-1.452-.144C8.84-.01 7.9.006 7.368.267c-.354.173-.627.56-.46.581.205.028.67.126.917.462.32.434.308 1.408.308 1.408s.183 2.683-.428 3.016c-.42.23-.994-.238-2.23-2.372-.632-1.093-1.11-2.301-1.11-2.301S4.273.835 4.109.714C3.909.568 3.63.521 3.63.521L.674.541S.231.552.068.745c-.145.172-.012.526-.012.526S2.37 6.687 4.991 9.416c2.403 2.502 5.132 2.338 5.132 2.338" fill="#1b9ab0" fill-rule="evenodd"/></svg>
