<svg width="18" height="18" viewBox="0 0 18 18" xmlns="http://www.w3.org/2000/svg"><title>A831EE8E-761C-4F51-B123-B075521E1982</title><path d="M9 0C4.027 0 0 4.125 0 9.429 0 13.307 2.58 16.76 6.3 18c.306.074.47-.216.9-.857-.43.183-.444-.55 0-1.714-2.95.95-3.472-.7-3.6-.858-.274-.912-.87-1.187-.9-.857-.791-.895.089-.895 0-.857.998.023 1.476.909 1.8.857.48 1.457 1.778 1.06 2.7.857-.325-.637-.087-1.05 0-.857-1.831-.636-3.934-1.43-3.6-5.143-.334-.84.024-1.665.9-2.571-.399.035-.712-.912 0-2.571-.22.39.54.146 2.7 1.714.271-.575 1.047-.682 1.8-.857.768.175 1.543.282 2.7.857 1.274-1.568 2.035-1.323 1.8-1.714.727 1.659.414 2.606 0 2.571.906.906 1.249 1.73.9 2.571.349 3.713-1.754 4.492-3.6 5.143.161-.132.444.419 0 1.715.444.812.43 1.805 0 1.714.43.641.594.931.9.857 3.72-1.24 6.3-4.693 6.3-8.571C18.015 4.125 13.973 0 9 0z" fill="#39C2D7" fill-rule="evenodd"/></svg>