<svg width="1920" height="568" viewBox="0 0 1920 568" fill="none" xmlns="http://www.w3.org/2000/svg">
<mask id="mask0_1589_9674" style="mask-type:alpha" maskUnits="userSpaceOnUse" x="0" y="0" width="1920" height="568">
<path d="M0 2.00001C0 0.895441 0.895431 0 2 0H1920V568H1.99997C0.8954 568 0 567.105 0 566V2.00001Z" fill="white"/>
</mask>
<g mask="url(#mask0_1589_9674)">
<path opacity="0.3" d="M0 1.99999C0 0.895425 0.895431 0 2 0H1920V511.013L1540.73 501.576C1485.2 500.194 1429.86 494.491 1375.22 484.518L1125.84 439.003C1029.35 421.392 931.172 414.831 833.196 419.448V419.448C592.491 430.791 353.378 464.656 118.991 520.599L2.27885 548.456C1.11642 548.734 0 547.852 0 546.657V1.99999Z" fill="#D7F3F4"/>
<circle opacity="0.25" cx="233" cy="-41" r="233" stroke="#39C2D7" stroke-dasharray="3 4"/>
<circle opacity="0.25" cx="233" cy="121" r="233" stroke="#39C2D7" stroke-dasharray="3 4"/>
<circle opacity="0.25" cx="1617" cy="245" r="233" stroke="#39C2D7" stroke-dasharray="3 4"/>
<circle opacity="0.25" cx="1704" cy="79" r="233" stroke="#39C2D7" stroke-dasharray="3 4"/>
<circle opacity="0.25" cx="536.5" cy="24.5" r="256.5" stroke="#39C2D7" stroke-dasharray="3 4"/>
<circle opacity="0.25" cx="1310" cy="39" r="233" stroke="#39C2D7" stroke-dasharray="3 4"/>
<circle opacity="0.25" cx="976" cy="160" r="233" stroke="#39C2D7" stroke-dasharray="3 4"/>
<g opacity="0.4">
<circle cx="325" cy="171" r="23" fill="#D0F0F1"/>
<mask id="mask1_1589_9674" style="mask-type:alpha" maskUnits="userSpaceOnUse" x="302" y="148" width="46" height="46">
<circle cx="325" cy="171" r="23" fill="white"/>
</mask>
<g mask="url(#mask1_1589_9674)">
<rect x="310" y="161" width="27" height="5" rx="2" fill="white"/>
<rect x="310" y="169" width="33" height="5" rx="2" fill="white"/>
<path fill-rule="evenodd" clip-rule="evenodd" d="M310 179C310 177.895 310.895 177 312 177H328C329.105 177 330 177.895 330 179V180C330 181.105 329.105 182 328 182H312C310.895 182 310 181.105 310 180V179Z" fill="white"/>
</g>
</g>
<g opacity="0.4">
<circle cx="1378" cy="262" r="23" fill="#D0F0F1"/>
<mask id="mask2_1589_9674" style="mask-type:alpha" maskUnits="userSpaceOnUse" x="1355" y="239" width="46" height="46">
<circle cx="1378" cy="262" r="23" fill="white"/>
</mask>
<g mask="url(#mask2_1589_9674)">
<rect x="1363" y="252" width="27" height="5" rx="2" fill="white"/>
<rect x="1363" y="260" width="33" height="5" rx="2" fill="white"/>
<path fill-rule="evenodd" clip-rule="evenodd" d="M1363 270C1363 268.895 1363.9 268 1365 268H1381C1382.1 268 1383 268.895 1383 270V271C1383 272.105 1382.1 273 1381 273H1365C1363.9 273 1363 272.105 1363 271V270Z" fill="white"/>
</g>
</g>
<g opacity="0.4">
<circle cx="204" cy="347" r="23" fill="#D0F0F1"/>
<circle r="11.5" transform="matrix(-1 0 0 1 204 347)" stroke="url(#paint0_angular_1589_9674)" stroke-width="7"/>
<mask id="mask3_1589_9674" style="mask-type:alpha" maskUnits="userSpaceOnUse" x="189" y="332" width="30" height="30">
<circle r="11.5" transform="matrix(-1 0 0 1 204 347)" fill="white" stroke="white" stroke-width="7"/>
</mask>
<g mask="url(#mask3_1589_9674)">
</g>
</g>
<g opacity="0.4">
<circle cx="542" cy="284" r="23" fill="#D0F0F1"/>
<mask id="mask4_1589_9674" style="mask-type:alpha" maskUnits="userSpaceOnUse" x="519" y="261" width="46" height="46">
<circle cx="542" cy="284" r="23" fill="white"/>
</mask>
<g mask="url(#mask4_1589_9674)">
<path d="M560.5 292.5L552 280L546 285L535 271L523.5 293" stroke="white" stroke-width="2"/>
<path d="M561 293L552 287L545 291L536 281L523.5 293" stroke="white" stroke-width="2"/>
</g>
</g>
<g opacity="0.4">
<circle cx="1547" cy="464" r="23" fill="#D0F0F1"/>
<mask id="mask5_1589_9674" style="mask-type:alpha" maskUnits="userSpaceOnUse" x="1524" y="441" width="46" height="46">
<circle cx="1547" cy="464" r="23" fill="white"/>
</mask>
<g mask="url(#mask5_1589_9674)">
<path d="M1565.5 472.5L1557 460L1551 465L1540 451L1528.5 473" stroke="white" stroke-width="2"/>
<path d="M1566 473L1557 467L1550 471L1541 461L1528.5 473" stroke="white" stroke-width="2"/>
</g>
</g>
<g opacity="0.4">
<circle cx="517" cy="141" r="23" fill="#D0F0F1"/>
<mask id="mask6_1589_9674" style="mask-type:alpha" maskUnits="userSpaceOnUse" x="494" y="118" width="46" height="46">
<circle cx="517" cy="141" r="23" fill="white"/>
</mask>
<g mask="url(#mask6_1589_9674)">
<rect x="510" y="130" width="3" height="25" rx="1.5" fill="white"/>
<rect x="504" y="140" width="3" height="15" rx="1.5" fill="white"/>
<rect x="516" y="125" width="3" height="30" rx="1.5" fill="white"/>
<rect x="522" y="135" width="3" height="20" rx="1.5" fill="white"/>
<rect x="528" y="145" width="3" height="10" rx="1.5" fill="white"/>
</g>
</g>
<g opacity="0.4">
<circle cx="1495" cy="181" r="23" fill="#D0F0F1"/>
<mask id="mask7_1589_9674" style="mask-type:alpha" maskUnits="userSpaceOnUse" x="1472" y="158" width="46" height="46">
<circle cx="1495" cy="181" r="23" fill="white"/>
</mask>
<g mask="url(#mask7_1589_9674)">
<rect x="1488" y="170" width="3" height="25" rx="1.5" fill="white"/>
<rect x="1482" y="180" width="3" height="15" rx="1.5" fill="white"/>
<rect x="1494" y="165" width="3" height="30" rx="1.5" fill="white"/>
<rect x="1500" y="175" width="3" height="20" rx="1.5" fill="white"/>
<rect x="1506" y="185" width="3" height="10" rx="1.5" fill="white"/>
</g>
</g>
</g>
<defs>
<radialGradient id="paint0_angular_1589_9674" cx="0" cy="0" r="1" gradientUnits="userSpaceOnUse" gradientTransform="translate(15 15) scale(15)">
<stop offset="0.25" stop-color="white"/>
<stop offset="0.250107" stop-color="white" stop-opacity="0.502349"/>
<stop offset="0.744369" stop-color="white" stop-opacity="0.499915"/>
<stop offset="0.750556" stop-color="white"/>
</radialGradient>
</defs>
</svg>
