<svg width="16" height="16" viewBox="0 0 16 16" fill="none" xmlns="http://www.w3.org/2000/svg">
<rect x="1" y="1" width="14" height="14" rx="2" fill="#1A9CB0" stroke="#1A9CB0" stroke-width="2"/>
<path d="M4.49027 7.54822C4.24074 7.27747 3.81898 7.26027 3.54824 7.5098C3.2775 7.75932 3.2603 8.18108 3.50982 8.45182L5.9179 11.0647C6.27625 11.4154 6.80968 11.4154 7.1408 11.0843C7.18164 11.0442 7.18164 11.0442 7.38364 10.8455C7.58 10.6524 7.7988 10.4371 8.03442 10.205C8.70767 9.54204 9.38092 8.87795 10.0094 8.25653L10.0362 8.22995C11.1528 7.12582 12.0003 6.28245 12.4747 5.80151C12.7332 5.53938 12.7303 5.11728 12.4682 4.85872C12.2061 4.60017 11.784 4.60307 11.5254 4.8652C11.0562 5.34089 10.2113 6.18165 9.09871 7.28189L9.07186 7.30844C8.44415 7.92914 7.77152 8.59261 7.09888 9.255C6.90527 9.44566 6.72303 9.62503 6.55529 9.79006L4.49027 7.54822Z" fill="#54E70A"/>
<mask id="mask0_876_10963" style="mask-type:alpha" maskUnits="userSpaceOnUse" x="3" y="4" width="10" height="8">
<path d="M4.49027 7.54822C4.24074 7.27747 3.81898 7.26027 3.54824 7.5098C3.2775 7.75932 3.2603 8.18108 3.50982 8.45182L5.9179 11.0647C6.27625 11.4154 6.80968 11.4154 7.1408 11.0843C7.18164 11.0442 7.18164 11.0442 7.38364 10.8455C7.58 10.6524 7.7988 10.4371 8.03442 10.205C8.70767 9.54204 9.38092 8.87795 10.0094 8.25653L10.0362 8.22995C11.1528 7.12582 12.0003 6.28245 12.4747 5.80151C12.7332 5.53938 12.7303 5.11728 12.4682 4.85872C12.2061 4.60017 11.784 4.60307 11.5254 4.8652C11.0562 5.34089 10.2113 6.18165 9.09871 7.28189L9.07186 7.30844C8.44415 7.92914 7.77152 8.59261 7.09888 9.255C6.90527 9.44566 6.72303 9.62503 6.55529 9.79006L4.49027 7.54822Z" fill="white"/>
</mask>
<g mask="url(#mask0_876_10963)">
<path fill-rule="evenodd" clip-rule="evenodd" d="M0 16H16V0H0V16Z" fill="white"/>
</g>
</svg>
