<svg width="16" height="16" viewBox="0 0 16 16" fill="none" xmlns="http://www.w3.org/2000/svg">
<rect x="1" y="1" width="14" height="14" rx="2" fill="#F4F5F7" stroke="#EBECF0" stroke-width="2"/>
<path d="M4.49027 7.54819C4.24074 7.27744 3.81898 7.26024 3.54824 7.50977C3.2775 7.75929 3.2603 8.18105 3.50982 8.45179L5.9179 11.0646C6.27625 11.4154 6.80968 11.4154 7.1408 11.0842C7.18164 11.0441 7.18164 11.0441 7.38364 10.8455C7.58 10.6524 7.7988 10.437 8.03442 10.205C8.70767 9.54201 9.38092 8.87792 10.0094 8.2565L10.0362 8.22992C11.1528 7.12578 12.0003 6.28242 12.4747 5.80148C12.7332 5.53935 12.7303 5.11725 12.4682 4.85869C12.2061 4.60014 11.784 4.60304 11.5254 4.86517C11.0562 5.34086 10.2113 6.18162 9.09871 7.28186L9.07186 7.30841C8.44415 7.92911 7.77152 8.59258 7.09888 9.25497C6.90527 9.44563 6.72303 9.625 6.55529 9.79003L4.49027 7.54819Z" fill="#54E70A"/>
<mask id="mask0_876_10984" style="mask-type:alpha" maskUnits="userSpaceOnUse" x="3" y="4" width="10" height="8">
<path d="M4.49027 7.54819C4.24074 7.27744 3.81898 7.26024 3.54824 7.50977C3.2775 7.75929 3.2603 8.18105 3.50982 8.45179L5.9179 11.0646C6.27625 11.4154 6.80968 11.4154 7.1408 11.0842C7.18164 11.0441 7.18164 11.0441 7.38364 10.8455C7.58 10.6524 7.7988 10.437 8.03442 10.205C8.70767 9.54201 9.38092 8.87792 10.0094 8.2565L10.0362 8.22992C11.1528 7.12578 12.0003 6.28242 12.4747 5.80148C12.7332 5.53935 12.7303 5.11725 12.4682 4.85869C12.2061 4.60014 11.784 4.60304 11.5254 4.86517C11.0562 5.34086 10.2113 6.18162 9.09871 7.28186L9.07186 7.30841C8.44415 7.92911 7.77152 8.59258 7.09888 9.25497C6.90527 9.44563 6.72303 9.625 6.55529 9.79003L4.49027 7.54819Z" fill="white"/>
</mask>
<g mask="url(#mask0_876_10984)">
<path fill-rule="evenodd" clip-rule="evenodd" d="M0 16H16V0H0V16Z" fill="#A5ADBA"/>
</g>
</svg>
