<svg width="131" height="137" viewBox="0 0 131 137" fill="none" xmlns="http://www.w3.org/2000/svg">
<ellipse opacity="0.1" cx="59.5008" cy="59.5" rx="59.5008" ry="59.5" fill="#39C2D7"/>
<line x1="70.501" y1="132" x2="70.501" y2="121" stroke="#39C2D7"/>
<line y1="-0.5" x2="5" y2="-0.5" transform="matrix(0.500005 -0.866022 0.866028 0.499995 42 124.654)" stroke="#39C2D7"/>
<line y1="-0.5" x2="5" y2="-0.5" transform="matrix(0.888126 -0.4596 0.45961 0.888121 17.3643 100.728)" stroke="#39C2D7"/>
<line y1="-0.5" x2="5" y2="-0.5" transform="matrix(0.866028 0.499995 -0.500005 0.866022 16 41.6357)" stroke="#39C2D7"/>
<line y1="-0.5" x2="5" y2="-0.5" transform="matrix(0.45961 0.888121 -0.888126 0.4596 39.9268 17)" stroke="#39C2D7"/>
<line x1="70.501" y1="21" x2="70.501" y2="10" stroke="#39C2D7"/>
<line y1="-0.5" x2="5" y2="-0.5" transform="matrix(0.500005 -0.866022 0.866028 0.499995 100.001 23.0625)" stroke="#39C2D7"/>
<line x1="10" y1="69.5" x2="21" y2="69.5" stroke="#39C2D7"/>
<path opacity="0.2" d="M114.23 28.4766C118.251 33.1121 121.56 38.3484 124.026 44" stroke="#39C2D7" stroke-width="2" stroke-linecap="round"/>
<path d="M70.2559 131C36.4252 131 9 103.689 9 70C9 36.3106 36.4252 9 70.2559 9C87.3916 9 102.884 16.0067 114.001 27.3" stroke="#39C2D7" stroke-width="2"/>
<path opacity="0.3" d="M70.5064 136C33.7759 136 4 106.227 4 69.5C4 32.7731 33.7759 3 70.5064 3C89.1109 3 105.931 10.6384 118.002 22.95" stroke="#39C2D7" stroke-width="2" stroke-linecap="round"/>
<circle cx="113.502" cy="28" r="5" fill="#39C2D7"/>
<g opacity="0.5">
<line x1="106.502" y1="38.5" x2="68.502" y2="38.5" stroke="#39C2D7" stroke-linecap="round"/>
<line x1="129.502" y1="50.5" x2="98.502" y2="50.5" stroke="#39C2D7" stroke-linecap="round"/>
<line x1="61.501" y1="95.5" x2="21.501" y2="95.5" stroke="#39C2D7" stroke-linecap="round"/>
</g>
</svg>
