<svg width="32" height="32" viewBox="0 0 32 32" fill="none" xmlns="http://www.w3.org/2000/svg">
<path d="M11.7143 13C11.7143 11.6155 12.1332 10.2622 12.9181 9.11101C13.7029 7.95987 14.8185 7.06266 16.1237 6.53285C17.4289 6.00303 18.8651 5.86441 20.2506 6.13451C21.6362 6.4046 22.909 7.07129 23.9079 8.05026C24.9068 9.02922 25.5871 10.2765 25.8627 11.6344C26.1384 12.9922 25.9969 14.3997 25.4563 15.6788C24.9157 16.9579 24.0001 18.0511 22.8255 18.8203C21.6509 19.5895 20.2699 20 18.8571 20H11C9.67392 20 8.40215 19.4838 7.46447 18.5648C6.52678 17.6459 6 16.3996 6 15.1C6 13.8004 6.52678 12.5541 7.46447 11.6352C8.40215 10.7163 9.67392 10.2 11 10.2C11.4183 10.1998 11.8351 10.2498 12.2411 10.3488" fill="#39C2D7" fill-opacity="0.2"/>
<path d="M11.7143 13C11.7143 11.6155 12.1332 10.2622 12.9181 9.11101C13.7029 7.95987 14.8185 7.06266 16.1237 6.53285C17.4289 6.00303 18.8651 5.86441 20.2506 6.13451C21.6362 6.4046 22.909 7.07129 23.9079 8.05026C24.9068 9.02922 25.5871 10.2765 25.8627 11.6344C26.1384 12.9922 25.9969 14.3997 25.4563 15.6788C24.9157 16.9579 24.0001 18.0511 22.8255 18.8203C21.6509 19.5895 20.2699 20 18.8571 20H11C9.67392 20 8.40215 19.4838 7.46447 18.5648C6.52678 17.6459 6 16.3996 6 15.1C6 13.8004 6.52678 12.5541 7.46447 11.6352C8.40215 10.7163 9.67392 10.2 11 10.2C11.4183 10.1998 11.8351 10.2498 12.2411 10.3488" stroke="#1A9CB0" stroke-linecap="round" stroke-linejoin="round"/>
<path d="M16.5 26C17.3284 26 18 25.3284 18 24.5C18 23.6716 17.3284 23 16.5 23C15.6716 23 15 23.6716 15 24.5C15 25.3284 15.6716 26 16.5 26Z" fill="#1A9CB0"/>
<path fill-rule="evenodd" clip-rule="evenodd" d="M3 24.5C3 24.2239 3.22386 24 3.5 24H29.5C29.7761 24 30 24.2239 30 24.5C30 24.7761 29.7761 25 29.5 25H3.5C3.22386 25 3 24.7761 3 24.5Z" fill="#1A9CB0"/>
<path fill-rule="evenodd" clip-rule="evenodd" d="M16 24L16 20L17 20L17 24L16 24Z" fill="#1A9CB0"/>
</svg>
