<svg width="40" height="38" viewBox="0 0 40 38" fill="none" xmlns="http://www.w3.org/2000/svg">
<path d="M0 3C0 1.34315 1.34315 0 3 0H40V38H3C1.34315 38 0 36.6569 0 35V3Z" fill="#F2F5F5"/>
<path d="M20 22.748C22.0711 22.748 23.75 21.0691 23.75 18.998C23.75 16.927 22.0711 15.248 20 15.248C17.9289 15.248 16.25 16.927 16.25 18.998C16.25 21.0691 17.9289 22.748 20 22.748Z" stroke="#39C2D7" stroke-width="2" stroke-linecap="round" stroke-linejoin="round"/>
<path d="M24.9781 26.4979C23.3076 27.607 21.3145 28.1265 19.3151 27.9739C17.3157 27.8213 15.4246 27.0054 13.9417 25.6556C12.4588 24.3058 11.4692 22.4994 11.1298 20.5232C10.7905 18.5469 11.1208 16.5139 12.0685 14.7467C13.0161 12.9796 14.5267 11.5795 16.3607 10.7686C18.1947 9.9578 20.2469 9.78264 22.1917 10.2709C24.1365 10.7593 25.8626 11.8831 27.096 13.4641C28.3294 15.0451 28.9995 16.9927 29 18.9979C29 21.0698 28.25 22.7479 26.375 22.7479C24.5 22.7479 23.75 21.0698 23.75 18.9979V15.2479" stroke="#39C2D7" stroke-width="2" stroke-linecap="round" stroke-linejoin="round"/>
</svg>
