<svg width="32" height="32" viewBox="0 0 32 32" fill="none" xmlns="http://www.w3.org/2000/svg">
<path d="M23 20V12.235C22.9986 12.1494 22.9795 12.065 22.944 11.9868C22.9085 11.9085 22.8572 11.8379 22.7932 11.7791L16.4295 6.16206C16.3122 6.05781 16.159 6 16 6C15.841 6 15.6878 6.05781 15.5705 6.16206L9.20682 11.7791C9.14278 11.8379 9.09149 11.9085 9.05598 11.9868C9.02046 12.065 9.00142 12.1494 9 12.235V20" fill="white" fill-opacity="0.2"/>
<path d="M23 20V12.235C22.9986 12.1494 22.9795 12.065 22.944 11.9868C22.9085 11.9085 22.8572 11.8379 22.7932 11.7791L16.4295 6.16206C16.3122 6.05781 16.159 6 16 6C15.841 6 15.6878 6.05781 15.5705 6.16206L9.20682 11.7791C9.14278 11.8379 9.09149 11.9085 9.05598 11.9868C9.02046 12.065 9.00142 12.1494 9 12.235V20" stroke="white" stroke-linecap="round" stroke-linejoin="round"/>
<path d="M16 26C16.8284 26 17.5 25.3284 17.5 24.5C17.5 23.6716 16.8284 23 16 23C15.1716 23 14.5 23.6716 14.5 24.5C14.5 25.3284 15.1716 26 16 26Z" fill="white"/>
<path fill-rule="evenodd" clip-rule="evenodd" d="M2.5 24.5C2.5 24.2239 2.72386 24 3 24H29C29.2761 24 29.5 24.2239 29.5 24.5C29.5 24.7761 29.2761 25 29 25H3C2.72386 25 2.5 24.7761 2.5 24.5Z" fill="white"/>
<path fill-rule="evenodd" clip-rule="evenodd" d="M15.5 24L15.5 20L16.5 20L16.5 24L15.5 24Z" fill="white"/>
<path fill-rule="evenodd" clip-rule="evenodd" d="M6.5 20C6.5 19.7239 6.72386 19.5 7 19.5H25C25.2761 19.5 25.5 19.7239 25.5 20C25.5 20.2761 25.2761 20.5 25 20.5H7C6.72386 20.5 6.5 20.2761 6.5 20Z" fill="white"/>
<path d="M18 20V15.625C18 15.4592 17.9298 15.3003 17.8047 15.1831C17.6797 15.0658 17.5101 15 17.3333 15H14.6667C14.4899 15 14.3203 15.0658 14.1953 15.1831C14.0702 15.3003 14 15.4592 14 15.625V20" stroke="white" stroke-linecap="round" stroke-linejoin="round"/>
</svg>
