<svg width="24" height="24" viewBox="0 0 24 24" fill="none" xmlns="http://www.w3.org/2000/svg">
<path d="M4.70588 10.7273C4.31468 10.3375 3.68152 10.3386 3.29167 10.7298C2.90182 11.121 2.90292 11.7541 3.29412 12.144L4.70588 10.7273ZM9.58363 17L8.87775 17.7083L9.64182 18.4698L10.3433 17.6503L9.58363 17ZM19.7597 6.65031C20.1188 6.23075 20.0699 5.59948 19.6503 5.24033C19.2308 4.88117 18.5995 4.93014 18.2403 5.34969L19.7597 6.65031ZM3.29412 12.144L8.87775 17.7083L10.2895 16.2917L4.70588 10.7273L3.29412 12.144ZM10.3433 17.6503L19.7597 6.65031L18.2403 5.34969L8.82396 16.3497L10.3433 17.6503Z" fill="#6F898D"/>
</svg>
