<svg xmlns="http://www.w3.org/2000/svg" width="176" height="40" fill="none"><path class="logo-block" fill="#fff" d="M3.688 23.394v5.072c0 .381.21.734.554.925l15.204 8.466c.343.19.765.19 1.108 0l15.204-8.466c.343-.19.554-.543.554-.925v-6.819L20 30.762l-9.665-5.38v-5.69l-6.648 3.702Z"/><path class="logo-block" fill="#fff" d="m20 9.238 9.665 5.38v5.775l6.648-3.701v-5.158c0-.382-.212-.734-.555-.925L20.554 2.143a1.144 1.144 0 0 0-1.108 0L4.241 10.61c-.342.19-.553.543-.553.925v6.937L20 9.238Z"/><path class="logo-title" fill="#fff" d="M164.856 10.5v15.062H168V10.5h-3.144Zm-29.324 4.141v10.921h3.144v-5.156c0-1.042.262-1.807.786-2.294.537-.5 1.236-.75 2.096-.75.121 0 .235.006.342.02.108 0 .229.006.363.02v-2.923c-1.021 0-1.888.203-2.6.609a3.41 3.41 0 0 0-1.128.987v-1.434h-3.003Zm-7.155 11.083c-1.156 0-2.184-.243-3.084-.73a5.662 5.662 0 0 1-2.116-1.99c-.511-.852-.766-1.82-.766-2.902 0-1.097.255-2.064.766-2.903a5.458 5.458 0 0 1 2.116-1.99c.9-.487 1.928-.73 3.084-.73 1.142 0 2.163.243 3.063.73a5.326 5.326 0 0 1 2.117 1.97c.51.838.765 1.813.765 2.923 0 1.082-.255 2.05-.765 2.902a5.472 5.472 0 0 1-2.117 1.99c-.9.487-1.921.73-3.063.73Zm0-2.598c.524 0 .994-.122 1.411-.365.416-.244.745-.589.987-1.036.242-.46.363-1.001.363-1.623 0-.637-.121-1.178-.363-1.624a2.613 2.613 0 0 0-.987-1.036 2.744 2.744 0 0 0-1.411-.365c-.524 0-.994.122-1.411.365a2.763 2.763 0 0 0-1.008 1.036c-.242.446-.362.987-.362 1.623 0 .623.12 1.164.362 1.624.256.447.592.792 1.008 1.036.417.243.887.365 1.411.365Zm-14.37 1.99c.685.405 1.484.608 2.398.608 1.021 0 1.935-.23 2.741-.69a4.975 4.975 0 0 0 1.935-1.948c.484-.84.726-1.834.726-2.984 0-1.137-.242-2.125-.726-2.964a4.975 4.975 0 0 0-1.935-1.949c-.806-.473-1.72-.71-2.741-.71-.954 0-1.773.203-2.459.609a3.59 3.59 0 0 0-.947.814v-1.261h-3.003V29.5h3.144v-5.094c.256.282.545.519.867.71Zm3.245-2.355a2.636 2.636 0 0 1-1.391.365c-.524 0-.994-.122-1.411-.365a2.606 2.606 0 0 1-.987-1.036c-.242-.46-.363-1.001-.363-1.623 0-.637.121-1.178.363-1.624.241-.447.571-.792.987-1.036a2.744 2.744 0 0 1 1.411-.365 2.636 2.636 0 0 1 2.378 1.4c.255.447.383.988.383 1.625 0 .622-.128 1.163-.383 1.623a2.613 2.613 0 0 1-.987 1.036Zm39.019 2.963c.913 0 1.713-.203 2.398-.609.321-.19.61-.427.867-.71v1.167h3.144V14.641h-3.003v1.261a3.59 3.59 0 0 0-.947-.814c-.686-.406-1.505-.61-2.459-.61-1.021 0-1.935.238-2.741.711a4.975 4.975 0 0 0-1.935 1.949c-.484.839-.726 1.827-.726 2.963 0 1.15.242 2.145.726 2.985a4.975 4.975 0 0 0 1.935 1.948c.806.46 1.72.69 2.741.69Zm.544-2.598a2.636 2.636 0 0 1-2.378-1.4c-.256-.46-.383-1.002-.383-1.624 0-.637.127-1.178.383-1.624a2.636 2.636 0 0 1 2.378-1.4c.524-.001.994.12 1.411.364.416.244.745.589.987 1.036.242.446.363.987.363 1.623 0 .623-.121 1.164-.363 1.624a2.613 2.613 0 0 1-.987 1.036 2.744 2.744 0 0 1-1.411.365Zm-84.71 1.99c.685.405 1.484.608 2.398.608 1.021 0 1.935-.23 2.741-.69a4.979 4.979 0 0 0 1.935-1.948c.484-.84.726-1.834.726-2.984 0-1.137-.242-2.125-.726-2.964a4.979 4.979 0 0 0-1.935-1.949c-.806-.473-1.72-.71-2.74-.71-.955 0-1.775.203-2.46.609a3.59 3.59 0 0 0-.947.814v-1.261h-3.003V29.5h3.144v-5.094c.257.282.545.519.867.71Zm3.245-2.355a2.635 2.635 0 0 1-1.391.365c-.524 0-.994-.122-1.41-.365a2.61 2.61 0 0 1-.988-1.036c-.242-.46-.363-1.001-.363-1.623 0-.637.12-1.178.363-1.624a2.61 2.61 0 0 1 .987-1.036 2.742 2.742 0 0 1 1.411-.365 2.635 2.635 0 0 1 2.378 1.4c.255.447.383.988.383 1.625 0 .622-.127 1.163-.383 1.623a2.61 2.61 0 0 1-.987 1.036Zm30.393 2.963c-1.277 0-2.271-.325-2.983-.974-.712-.663-1.068-1.644-1.068-2.943v-9.581h3.144v2.74h3.507v2.436h-3.507v4.364c0 .46.121.819.363 1.076.241.243.571.365.987.365h2.157v2.517h-2.6Zm38.898-.974c.713.65 1.707.974 2.983.974h2.6v-2.517h-2.156c-.417 0-.746-.122-.988-.365-.242-.257-.363-.616-.363-1.076v-4.364h3.507v-2.436h-3.507v-2.74h-3.144v9.581c0 1.299.356 2.28 1.068 2.943Zm-50.991.812V14.641h3.003v1.434a3.413 3.413 0 0 1 1.129-.987c.712-.406 1.578-.61 2.6-.61v2.924a3.687 3.687 0 0 0-.363-.02 2.758 2.758 0 0 0-.343-.02c-.86 0-1.558.25-2.096.75-.524.487-.786 1.252-.786 2.294v5.156H93.65Zm-10.256-.568c.9.487 1.928.73 3.084.73 1.142 0 2.163-.243 3.063-.73a5.471 5.471 0 0 0 2.117-1.99c.51-.852.765-1.82.765-2.902 0-1.11-.255-2.085-.766-2.924a5.326 5.326 0 0 0-2.116-1.969c-.9-.487-1.921-.73-3.063-.73-1.156 0-2.184.243-3.084.73a5.46 5.46 0 0 0-2.116 1.99c-.51.839-.766 1.806-.766 2.902 0 1.083.255 2.05.766 2.903a5.666 5.666 0 0 0 2.116 1.99Zm4.495-2.233a2.742 2.742 0 0 1-1.411.365c-.524 0-.994-.122-1.411-.365a2.754 2.754 0 0 1-1.008-1.036c-.242-.46-.362-1.001-.362-1.623 0-.637.12-1.178.362-1.624a2.754 2.754 0 0 1 1.008-1.036 2.742 2.742 0 0 1 1.41-.365c.525 0 .995.122 1.412.365.416.244.745.589.987 1.036.242.446.363.987.363 1.623 0 .623-.12 1.164-.363 1.624a2.61 2.61 0 0 1-.987 1.036ZM61.46 25.724c-1.236 0-2.325-.243-3.265-.73-.927-.488-1.646-1.15-2.157-1.99-.51-.852-.766-1.82-.766-2.902 0-1.097.249-2.064.746-2.903a5.352 5.352 0 0 1 2.076-1.99c.873-.487 1.86-.73 2.963-.73 1.061 0 2.015.23 2.861.69a4.966 4.966 0 0 1 2.036 1.948c.497.84.746 1.848.746 3.025 0 .122-.007.264-.02.426l-.04.427h-8.205c.064.29.165.561.304.812.268.446.638.791 1.108 1.035.484.23 1.048.345 1.693.345.578 0 1.082-.088 1.512-.264.443-.176.846-.44 1.21-.792l1.672 1.827a4.97 4.97 0 0 1-1.874 1.32c-.753.298-1.62.446-2.6.446Zm-2.761-7.49c-.148.27-.248.575-.3.913h5.34a2.792 2.792 0 0 0-.304-.933 2.441 2.441 0 0 0-.947-.975c-.403-.243-.874-.365-1.411-.365-.538 0-1.015.122-1.431.365a2.41 2.41 0 0 0-.947.995Zm-7.697-2.159a3.413 3.413 0 0 1 1.129-.987c.712-.406 1.579-.61 2.6-.61v2.924a3.664 3.664 0 0 0-.363-.02 2.751 2.751 0 0 0-.343-.02c-.86 0-1.558.25-2.096.75-.524.487-.786 1.252-.786 2.294v5.156H48V14.641h3.003v1.434Z"/></svg>
