<svg xmlns="http://www.w3.org/2000/svg" width="3841" height="34" fill="none"><path fill="#F4F5FA" d="M3374.51 8.34c-21.82-.167-42.41-.38-63.01-.591-44.8-.461-89.59-.922-147-.922-44.65 0-87.55.245-131 .493-82.79.474-167.59.959-270.33-.22-24.93-.287-44.18-1.119-63.61-1.959-18.33-.792-36.82-1.591-60.39-1.946-57.09-.858-99.05.44-144.1 1.835-29.75.921-60.86 1.884-98.57 2.295-185.81 2.027-374.21.546-476-.498-96.2-.987-183.6-.654-277.75-.295-71.58.273-147.05.56-233.25.295l-12.04-.037c-310.52-.96-499.793-1.544-820.96-.547-12.777.04-23.833.063-34.223.085-23.484.05-43.568.093-72.444.298-34.783.247-61.255.65-88.439 1.063-22.887.349-46.279.705-75.561.982-43.438.41-95.763-1.949-144.729-4.156C75.694.664.5-2.726.5 9.847V6.41c1.612-1.287 4.163-2.324 7.38-3.143C13.52 1.829 21.537.959 31.261.48c19.492-.958 46.632-.374 77.342.785 16.726.632 34.525 1.434 52.774 2.257C210.31 5.729 262.469 8.08 305.798 7.67c29.211-.276 52.606-.632 75.507-.98 27.219-.415 53.741-.818 88.502-1.065 28.885-.204 48.982-.247 72.471-.298 10.388-.022 21.441-.045 34.21-.085 321.179-.997 510.462-.413 820.982.547l12.04.037c86.13.266 161.6-.022 233.18-.295 94.18-.359 181.65-.692 277.85.295 101.78 1.044 290.15 2.525 475.92.498 37.67-.41 68.73-1.372 98.48-2.293h.01c7.65-.237 15.22-.47 22.79-.692 36.99-1.082 74.01-1.858 121.48-1.144 23.63.355 42.17 1.156 60.49 1.948l1.66.072c18.87.815 37.68 1.606 61.84 1.883 102.72 1.18 187.45.695 270.23.222 43.45-.249 86.37-.494 131.06-.494 57.43 0 102.24.46 147.03.922h.01c44.79.46 89.57.922 146.96.922 74.57 0 170.06-.624 246.91-1.248a62127.317 62127.317 0 0 0 132.4-1.22c1.74-.018 2.69 0 2.69 0v.992c-22.61.238-240.76 2.476-382 2.476-30.84 0-58.05-.133-83.57-.328l-.42-.003Z"/><path fill="url(#a)" d="M.5 9.847c0-19.782 186.124-.05 305.333-1.176 64.061-.606 99.931-1.59 164-2.045 41.651-.295 65.011-.254 106.667-.383 325.296-1.01 515.29-.397 833 .584 199.57.616 341.67-1.737 511 0 101.79 1.044 290.19 2.525 476 .498 94.82-1.034 147.88-5.554 242.67-4.13 48.55.73 75.55 3.348 124 3.904 156.65 1.799 271.58-.272 401.33-.272 114.81 0 179.19 1.844 294 1.844 149.18 0 382-2.496 382-2.496v12.082s-334.61-.16-548 6.02c-87.77 2.541-169.66 1.581-224 1.46-184.2-.408-312.18-6.585-474-6.585-157.19 0-250.98.87-411.33 4.98-30.22.774-51.68 2.066-77.34 2.18-29.33 0-48.74-1.008-80-1.49-176.08-2.719-327.08 9.173-536.66 9.178-271.03.006-422.66-11.638-694.003-13.926-310.285-2.616-344 11.912-794.667 3.858V9.847Z"/><defs><linearGradient id="a" x1="1920.5" x2="1920.5" y1="6.82664" y2="34.3661" gradientUnits="userSpaceOnUse"><stop stop-color="#FDFDFE"/><stop offset="0.692506" stop-color="#DADEE8"/><stop offset="1" stop-color="#C3C8D5"/></linearGradient></defs></svg>
