<svg xmlns="http://www.w3.org/2000/svg" width="1991" height="76" fill="none"><g clip-path="url(#a)" filter="url(#b)"><path fill="#fff" fill-opacity=".1" d="M.5 0h1990v76H.5z"/><path fill="#fff" d="M345.27 36.916a.598.598 0 0 0-1.196 0v34.667a.598.598 0 0 0 1.196 0V36.917Z"/><path fill="#fff" d="m359.385 45.067-30.024 17.33a.598.598 0 0 0 .598 1.036l30.024-17.33a.598.598 0 1 0-.598-1.036Z"/><path fill="#fff" d="M329.959 45.066a.597.597 0 1 0-.598 1.035l30.023 17.333a.597.597 0 1 0 .597-1.035l-30.022-17.334Z"/><path fill="#fff" fill-opacity=".7" d="m346.226 70.507-1.196-.896a.596.596 0 0 0-.717 0l-1.196.896a.596.596 0 1 1-.717-.956l1.554-1.166a1.197 1.197 0 0 1 1.435 0l1.554 1.166a.6.6 0 0 1-.274 1.07.598.598 0 0 1-.443-.114Z"/><path fill="#fff" fill-opacity=".7" d="M344.671 44.09a.596.596 0 0 1-.298-.08l-3.666-2.092a.601.601 0 0 1-.295-.596.601.601 0 0 1 .891-.444l3.072 1.756a.595.595 0 0 0 .593 0l3.072-1.756a.6.6 0 0 1 .873.676.598.598 0 0 1-.28.362l-3.665 2.092a.597.597 0 0 1-.297.081Z"/><path fill="#fff" fill-opacity=".7" d="M344.672 47.675a.595.595 0 0 1-.331-.1l-3.087-2.06a.605.605 0 0 1-.256-.38.61.61 0 0 1 .088-.448.609.609 0 0 1 .38-.255.602.602 0 0 1 .449.089l2.426 1.617a.594.594 0 0 0 .663 0l2.426-1.617a.595.595 0 0 1 .829.166.59.59 0 0 1-.001.664.605.605 0 0 1-.165.165l-3.089 2.059a.598.598 0 0 1-.332.1Z"/><path fill="#fff" fill-opacity=".7" d="M344.671 40.503a.596.596 0 0 1-.358-.12L342.4 38.95a.6.6 0 0 1 .274-1.07.597.597 0 0 1 .443.114l1.196.896a.596.596 0 0 0 .717 0l1.196-.897a.597.597 0 1 1 .717.957l-1.913 1.434a.596.596 0 0 1-.359.12Z"/><path fill="#fff" fill-opacity=".7" d="m348.041 67.622-3.072-1.756a.595.595 0 0 0-.593 0l-3.072 1.756a.599.599 0 0 1-.593-1.038l3.369-1.925a1.193 1.193 0 0 1 1.186 0l3.368 1.925a.599.599 0 0 1-.139 1.095.599.599 0 0 1-.454-.057Z"/><path fill="#fff" fill-opacity=".7" d="m347.428 63.979-2.425-1.618a.598.598 0 0 0-.664 0l-2.425 1.618a.6.6 0 0 1-.918-.382.61.61 0 0 1 .089-.448.605.605 0 0 1 .165-.165l2.758-1.838a1.197 1.197 0 0 1 1.326 0l2.758 1.838a.605.605 0 0 1 .254.38.586.586 0 0 1-.253.614.608.608 0 0 1-.449.09.607.607 0 0 1-.216-.09Z"/><path fill="#fff" fill-opacity=".7" d="m334.775 63.853-.015-3.538a.595.595 0 0 0-.299-.514l-3.054-1.782a.604.604 0 0 1-.277-.364.59.59 0 0 1 .062-.454.599.599 0 0 1 .817-.215l3.351 1.955a1.194 1.194 0 0 1 .593 1.027l.017 3.88a.594.594 0 0 1-.597.597.598.598 0 0 1-.598-.592Z"/><path fill="#fff" fill-opacity=".7" d="M338.184 62.14a.596.596 0 0 1-.558-.635l.188-2.91a.594.594 0 0 0-.332-.574l-2.613-1.292a.595.595 0 0 1-.271-.8.598.598 0 0 1 .799-.275l2.971 1.47a1.192 1.192 0 0 1 .663 1.148l-.213 3.308a.591.591 0 0 1-.201.41.594.594 0 0 1-.433.15Z"/><path fill="#fff" fill-opacity=".7" d="M331.891 64.39a.598.598 0 0 1-.521-.665l.179-1.484a.599.599 0 0 0-.359-.621l-1.374-.587a.598.598 0 0 1 .469-1.1l1.787.764a1.192 1.192 0 0 1 .717 1.242l-.232 1.928a.6.6 0 0 1-.666.522Z"/><path fill="#fff" fill-opacity=".7" d="m357.332 51.514-3.347-1.955a1.201 1.201 0 0 1-.593-1.027l-.017-3.88a.598.598 0 0 1 1.195-.003l.017 3.538a.594.594 0 0 0 .298.514l3.056 1.782a.59.59 0 0 1 .277.364.61.61 0 0 1 .015.233.617.617 0 0 1-.232.397.596.596 0 0 1-.669.037Z"/><path fill="#fff" fill-opacity=".7" d="m359.059 48.566-1.787-.763a1.194 1.194 0 0 1-.718-1.242l.233-1.929a.6.6 0 0 1 .665-.521.597.597 0 0 1 .521.664l-.179 1.484a.599.599 0 0 0 .359.621l1.374.587a.597.597 0 0 1-.468 1.1Z"/><path fill="#fff" fill-opacity=".7" d="m353.946 52.845-2.97-1.469a1.194 1.194 0 0 1-.664-1.149l.213-3.307a.6.6 0 0 1 .635-.557.596.596 0 0 1 .558.634l-.184 2.91a.593.593 0 0 0 .331.574l2.614 1.293a.598.598 0 1 1-.533 1.071Z"/><path fill="#fff" fill-opacity=".7" d="M353.969 64.448a.598.598 0 0 1-.598-.598l.017-3.88a1.198 1.198 0 0 1 .594-1.027l3.351-1.954a.588.588 0 0 1 .453-.062.603.603 0 0 1 .364.277.59.59 0 0 1-.04.663.602.602 0 0 1-.175.154l-3.053 1.78a.605.605 0 0 0-.299.514l-.016 3.538a.599.599 0 0 1-.598.595Z"/><path fill="#fff" fill-opacity=".7" d="m350.525 61.58-.213-3.307a1.198 1.198 0 0 1 .664-1.15l2.97-1.468a.597.597 0 0 1 .53 1.07l-2.614 1.294a.6.6 0 0 0-.331.574l.187 2.91a.598.598 0 0 1-1.193.077Z"/><path fill="#fff" fill-opacity=".7" d="m356.788 63.867-.234-1.928a1.194 1.194 0 0 1 .718-1.242l1.786-.764a.6.6 0 0 1 .784.315.594.594 0 0 1-.315.785l-1.374.587a.6.6 0 0 0-.359.62l.179 1.485a.596.596 0 1 1-1.185.142Z"/><path fill="#fff" fill-opacity=".7" d="M331.192 51.298a.59.59 0 0 1 .04-.663.602.602 0 0 1 .175-.154l3.056-1.782a.605.605 0 0 0 .299-.514l.015-3.538a.6.6 0 0 1 1.021-.42.598.598 0 0 1 .175.423l-.017 3.88a1.2 1.2 0 0 1-.593 1.027l-3.352 1.954a.588.588 0 0 1-.454.064.597.597 0 0 1-.365-.277Z"/><path fill="#fff" fill-opacity=".7" d="M329.501 48.251a.598.598 0 0 1 .315-.784l1.374-.587a.6.6 0 0 0 .359-.62l-.179-1.485a.596.596 0 1 1 1.186-.143l.233 1.929a1.194 1.194 0 0 1-.718 1.242l-1.786.763a.597.597 0 0 1-.784-.315Z"/><path fill="#fff" fill-opacity=".7" d="M334.598 52.576a.597.597 0 0 1 .271-.8l2.613-1.293a.597.597 0 0 0 .332-.573l-.188-2.91a.597.597 0 0 1 1.193-.077l.213 3.307a1.196 1.196 0 0 1-.663 1.149l-2.972 1.466a.598.598 0 0 1-.799-.269Z"/><path fill="#fff" fill-opacity=".7" d="M341.087 60.825a.597.597 0 0 1-.594-.666l.433-3.775-3.102-1.603a.6.6 0 0 1-.323-.531.597.597 0 0 1 .323-.53l3.102-1.604-.433-3.775a.598.598 0 0 1 .925-.565l3.255 2.17 3.254-2.17a.598.598 0 0 1 .926.565l-.433 3.775 3.102 1.603a.6.6 0 0 1 .323.531.597.597 0 0 1-.323.53l-3.102 1.604.433 3.775a.598.598 0 0 1-.926.565l-3.254-2.17-3.255 2.17a.596.596 0 0 1-.331.1Zm3.586-3.587a.6.6 0 0 1 .332.1l2.514 1.675-.334-2.904a.594.594 0 0 1 .319-.598l2.442-1.261-2.442-1.262a.599.599 0 0 1-.319-.598l.334-2.904-2.514 1.674a.6.6 0 0 1-.664 0l-2.51-1.674.333 2.904a.595.595 0 0 1-.319.598l-2.443 1.262 2.441 1.262a.595.595 0 0 1 .32.598l-.333 2.904 2.51-1.674a.596.596 0 0 1 .333-.102Z"/><path fill="#fff" d="M729.801 12.302a.302.302 0 1 0-.604 0v17.521a.303.303 0 0 0 .604 0v-17.52Z"/><path fill="#fff" d="m736.936 16.422-15.174 8.759a.302.302 0 1 0 .302.523l15.174-8.76a.302.302 0 1 0-.302-.522Z"/><path fill="#fff" d="M722.064 16.42a.302.302 0 1 0-.302.524l15.174 8.76a.301.301 0 1 0 .302-.523l-15.174-8.76Z"/><path fill="#fff" fill-opacity=".7" d="m730.286 29.28-.605-.453a.299.299 0 0 0-.362 0l-.604.453a.302.302 0 0 1-.363-.484l.786-.589a.603.603 0 0 1 .725 0l.785.59a.302.302 0 1 1-.362.483Z"/><path fill="#fff" fill-opacity=".7" d="M729.5 15.927a.302.302 0 0 1-.151-.04l-1.853-1.057a.3.3 0 0 1-.149-.301.304.304 0 0 1 .45-.224l1.553.887a.303.303 0 0 0 .3 0l1.553-.888a.301.301 0 1 1 .299.525l-1.852 1.057a.302.302 0 0 1-.15.041Z"/><path fill="#fff" fill-opacity=".7" d="M729.501 17.74a.303.303 0 0 1-.168-.051l-1.56-1.04a.3.3 0 0 1 .107-.548.302.302 0 0 1 .227.044l1.226.818a.303.303 0 0 0 .335 0l1.226-.818a.302.302 0 0 1 .336.503l-1.562 1.04a.3.3 0 0 1-.167.052Z"/><path fill="#fff" fill-opacity=".7" d="M729.5 14.115a.302.302 0 0 1-.181-.06l-.967-.726a.305.305 0 0 1-.118-.199.304.304 0 0 1 .257-.341c.079-.012.16.009.224.057l.604.453a.302.302 0 0 0 .362 0l.605-.453a.301.301 0 1 1 .362.483l-.967.725a.3.3 0 0 1-.181.06Z"/><path fill="#fff" fill-opacity=".7" d="m731.203 27.821-1.553-.887a.303.303 0 0 0-.3 0l-1.552.887a.304.304 0 0 1-.413-.112.3.3 0 0 1 .113-.412l1.702-.973a.608.608 0 0 1 .6 0l1.702.973a.3.3 0 0 1-.07.553.301.301 0 0 1-.229-.029Z"/><path fill="#fff" fill-opacity=".7" d="m730.894 25.98-1.226-.818a.303.303 0 0 0-.336 0l-1.225.818a.31.31 0 0 1-.227.045.304.304 0 0 1-.238-.238.312.312 0 0 1 .046-.226.3.3 0 0 1 .083-.084l1.394-.929a.604.604 0 0 1 .67 0l1.394.93a.3.3 0 0 1 .129.191.307.307 0 0 1-.129.31.304.304 0 0 1-.335 0Z"/><path fill="#fff" fill-opacity=".7" d="m724.498 25.916-.008-1.788a.303.303 0 0 0-.151-.26l-1.544-.9a.304.304 0 0 1-.147-.302.3.3 0 0 1 .223-.251.303.303 0 0 1 .229.03l1.693.988a.6.6 0 0 1 .3.52l.009 1.96a.301.301 0 0 1-.302.303.303.303 0 0 1-.302-.3Z"/><path fill="#fff" fill-opacity=".7" d="M726.221 25.05a.304.304 0 0 1-.208-.102.306.306 0 0 1-.074-.218l.095-1.471a.299.299 0 0 0-.168-.29l-1.321-.654a.302.302 0 0 1 .267-.542l1.502.742a.605.605 0 0 1 .335.58l-.108 1.672a.302.302 0 0 1-.32.283Z"/><path fill="#fff" fill-opacity=".7" d="M723.04 26.188a.303.303 0 0 1-.264-.336l.091-.75a.304.304 0 0 0-.181-.314l-.695-.297a.302.302 0 1 1 .237-.556l.903.386a.604.604 0 0 1 .363.628l-.118.975a.298.298 0 0 1-.113.201.31.31 0 0 1-.223.063Z"/><path fill="#fff" fill-opacity=".7" d="m735.899 19.68-1.692-.988a.606.606 0 0 1-.3-.52l-.009-1.96a.301.301 0 0 1 .303-.302.304.304 0 0 1 .302.3l.008 1.789c0 .052.014.104.041.15a.295.295 0 0 0 .11.11l1.544.9a.296.296 0 0 1 .14.184.292.292 0 0 1-.031.23.3.3 0 0 1-.304.147.296.296 0 0 1-.112-.04Z"/><path fill="#fff" fill-opacity=".7" d="m736.771 18.19-.903-.386a.604.604 0 0 1-.363-.627l.118-.975a.3.3 0 0 1 .336-.264.301.301 0 0 1 .263.336l-.09.75a.298.298 0 0 0 .181.314l.695.297a.302.302 0 1 1-.237.555Z"/><path fill="#fff" fill-opacity=".7" d="m734.188 20.353-1.502-.743a.599.599 0 0 1-.335-.58l.108-1.672a.302.302 0 1 1 .602.04l-.093 1.47a.306.306 0 0 0 .168.29l1.321.653a.302.302 0 1 1-.269.542Z"/><path fill="#fff" fill-opacity=".7" d="M734.199 26.217a.302.302 0 0 1-.303-.302l.009-1.96a.606.606 0 0 1 .3-.52l1.694-.988a.3.3 0 0 1 .335.02.31.31 0 0 1 .116.2.299.299 0 0 1-.147.302l-1.543.9a.303.303 0 0 0-.151.26l-.008 1.788a.304.304 0 0 1-.302.3Z"/><path fill="#fff" fill-opacity=".7" d="m732.459 24.767-.108-1.671a.6.6 0 0 1 .335-.58l1.502-.743a.3.3 0 0 1 .404.137.298.298 0 0 1 .015.23.299.299 0 0 1-.152.174l-1.321.654a.304.304 0 0 0-.167.29l.095 1.47a.302.302 0 0 1-.603.04Z"/><path fill="#fff" fill-opacity=".7" d="m735.623 25.924-.118-.975a.611.611 0 0 1 .363-.628l.903-.386a.301.301 0 0 1 .399.39.302.302 0 0 1-.162.166l-.695.297a.304.304 0 0 0-.181.313l.09.75a.301.301 0 1 1-.599.072Z"/><path fill="#fff" fill-opacity=".7" d="M722.687 19.571a.315.315 0 0 1-.039-.112.311.311 0 0 1 .007-.117.305.305 0 0 1 .14-.184l1.545-.901a.295.295 0 0 0 .11-.11.294.294 0 0 0 .041-.15l.008-1.788a.303.303 0 0 1 .604.002l-.009 1.96a.597.597 0 0 1-.299.52l-1.694.988a.299.299 0 0 1-.23.032.307.307 0 0 1-.184-.14Z"/><path fill="#fff" fill-opacity=".7" d="M721.832 18.031a.303.303 0 0 1 .159-.396l.695-.297a.304.304 0 0 0 .181-.314l-.091-.75a.303.303 0 0 1 .6-.072l.117.975a.604.604 0 0 1-.362.627l-.903.386a.302.302 0 0 1-.396-.159Z"/><path fill="#fff" fill-opacity=".7" d="M724.408 20.217a.303.303 0 0 1 .137-.404l1.321-.654a.3.3 0 0 0 .168-.29l-.095-1.47a.306.306 0 0 1 .074-.22.304.304 0 0 1 .426-.027.303.303 0 0 1 .103.207l.107 1.672a.606.606 0 0 1-.335.58l-1.502.742a.302.302 0 0 1-.404-.136Z"/><path fill="#fff" fill-opacity=".7" d="M727.688 24.386a.3.3 0 0 1-.288-.21.298.298 0 0 1-.012-.127l.219-1.907-1.568-.81a.305.305 0 0 1-.163-.27.3.3 0 0 1 .163-.268l1.568-.81-.219-1.908a.293.293 0 0 1 .029-.167.301.301 0 0 1 .439-.119l1.645 1.097 1.645-1.096a.302.302 0 0 1 .468.285l-.219 1.908 1.567.81a.3.3 0 0 1 0 .537l-1.567.81.219 1.908a.302.302 0 0 1-.468.286l-1.645-1.097-1.645 1.096a.304.304 0 0 1-.168.052Zm1.813-1.813a.3.3 0 0 1 .167.051l1.271.846-.168-1.468a.299.299 0 0 1 .161-.302l1.234-.637-1.234-.638a.299.299 0 0 1-.161-.302l.168-1.468-1.271.846a.298.298 0 0 1-.335 0l-1.269-.846.169 1.468a.3.3 0 0 1-.162.302l-1.234.638 1.234.638a.3.3 0 0 1 .161.302l-.168 1.468 1.269-.846a.3.3 0 0 1 .168-.052Z"/><path fill="#fff" d="M1067.14 52.642a.643.643 0 0 0-.64-.642c-.36 0-.64.287-.64.642v37.233c0 .354.28.642.64.642.35 0 .64-.288.64-.642V52.642Z"/><path fill="#fff" d="m1082.3 61.395-32.24 18.614a.638.638 0 0 0-.24.877c.18.307.57.412.88.235l32.24-18.613c.31-.178.42-.57.24-.877a.646.646 0 0 0-.88-.236Z"/><path fill="#fff" d="M1050.7 61.394a.646.646 0 0 0-.88.235c-.18.307-.07.7.24.877l32.24 18.617c.31.177.7.072.88-.236.17-.307.07-.7-.24-.876l-32.24-18.617Z"/><path fill="#fff" fill-opacity=".7" d="M1066.5 60.345a.652.652 0 0 1-.32-.084l-3.94-2.247a.633.633 0 0 1-.3-.39.53.53 0 0 1-.01-.25.515.515 0 0 1 .08-.238.625.625 0 0 1 .38-.301.647.647 0 0 1 .49.062l3.3 1.885c.1.056.21.085.32.085.11 0 .22-.03.32-.085l3.3-1.885a.647.647 0 0 1 .49-.062c.16.045.3.153.38.3.09.148.11.324.07.488a.668.668 0 0 1-.31.388l-3.93 2.247a.662.662 0 0 1-.32.087Z"/><path fill="#fff" fill-opacity=".7" d="M1066.5 64.197a.626.626 0 0 1-.35-.108l-3.32-2.212a.694.694 0 0 1-.18-.176.636.636 0 0 1-.09-.231.706.706 0 0 1-.01-.251.66.66 0 0 1 .51-.505.64.64 0 0 1 .48.095l2.61 1.737c.1.07.22.108.35.108.13 0 .25-.037.36-.108l2.6-1.737a.654.654 0 0 1 .49-.095c.08.016.16.049.23.096a.54.54 0 0 1 .17.177c.05.07.08.149.1.232a.53.53 0 0 1 0 .25.657.657 0 0 1-.1.231c-.04.07-.1.13-.17.177l-3.32 2.212a.658.658 0 0 1-.36.108Z"/><path fill="#fff" fill-opacity=".7" d="M1066.5 56.493a.622.622 0 0 1-.38-.128l-2.06-1.54a.693.693 0 0 1-.25-.423.67.67 0 0 1 .12-.476.673.673 0 0 1 .43-.25.63.63 0 0 1 .47.121l1.29.963c.11.084.24.129.38.129s.27-.045.39-.129l1.28-.963a.655.655 0 0 1 .48-.122c.16.025.32.114.42.25.1.137.14.308.12.477a.612.612 0 0 1-.25.422l-2.05 1.541a.673.673 0 0 1-.39.128Z"/><path fill="#fff" fill-opacity=".7" d="m1055.87 81.572-.02-3.8a.698.698 0 0 0-.08-.319.664.664 0 0 0-.24-.233l-3.28-1.914a.636.636 0 0 1-.18-.166.503.503 0 0 1-.11-.225.531.531 0 0 1-.02-.25.66.66 0 0 1 .08-.237.665.665 0 0 1 .39-.297c.17-.043.34-.02.49.066l3.6 2.099c.19.113.35.274.46.467.12.194.17.413.18.636l.01 4.167c0 .17-.06.334-.18.454a.656.656 0 0 1-.46.188.636.636 0 0 1-.45-.186.637.637 0 0 1-.19-.45Z"/><path fill="#fff" fill-opacity=".7" d="M1059.53 79.732a.636.636 0 0 1-.44-.217.657.657 0 0 1-.16-.465l.2-3.125a.65.65 0 0 0-.08-.362.64.64 0 0 0-.27-.254l-2.81-1.388a.63.63 0 0 1-.32-.37.599.599 0 0 1 .03-.49c.07-.153.21-.27.37-.325a.642.642 0 0 1 .49.03l3.19 1.579c.23.112.41.29.54.509.13.22.19.471.17.724l-.23 3.552c0 .085-.03.167-.06.243a.748.748 0 0 1-.15.2.73.73 0 0 1-.22.125.637.637 0 0 1-.25.034Z"/><path fill="#fff" fill-opacity=".7" d="m1080.1 68.32-3.6-2.1a1.28 1.28 0 0 1-.63-1.103l-.02-4.167c0-.17.06-.334.18-.454.13-.12.29-.188.46-.188a.64.64 0 0 1 .64.639l.02 3.8c0 .112.03.222.09.319.05.096.13.177.23.233l3.28 1.914a.635.635 0 0 1 .3.391c.02.082.03.167.01.25a.661.661 0 0 1-.08.237.589.589 0 0 1-.17.19.57.57 0 0 1-.22.11.633.633 0 0 1-.49-.071Z"/><path fill="#fff" fill-opacity=".7" d="m1081.95 65.154-1.92-.82a1.32 1.32 0 0 1-.61-.539 1.37 1.37 0 0 1-.16-.795l.25-2.072a.655.655 0 0 1 .24-.427.654.654 0 0 1 .47-.133c.17.02.33.107.43.241.11.134.16.304.14.473l-.2 1.594c-.01.138.01.277.08.398.07.12.18.214.31.269l1.47.63c.16.067.28.193.35.351.06.158.06.335-.01.492a.613.613 0 0 1-.35.343.64.64 0 0 1-.49-.005Z"/><path fill="#fff" fill-opacity=".7" d="m1076.46 69.75-3.19-1.578c-.23-.112-.42-.29-.54-.51-.13-.219-.19-.47-.17-.724l.23-3.552c.01-.17.09-.328.21-.44.13-.113.3-.17.47-.159.17.011.33.09.44.217.11.128.17.295.16.465l-.2 3.125c-.01.126.02.252.09.362.06.11.15.198.27.254l2.8 1.389c.16.075.27.208.33.37.05.16.04.337-.04.49a.479.479 0 0 1-.15.2.62.62 0 0 1-.22.125.63.63 0 0 1-.49-.034Z"/><path fill="#fff" fill-opacity=".7" d="M1076.48 82.211a.646.646 0 0 1-.64-.642l.02-4.166c0-.224.06-.443.17-.637.12-.194.28-.355.47-.467l3.6-2.1a.614.614 0 0 1 .48-.066.62.62 0 0 1 .23.11.73.73 0 0 1 .17.188c.04.073.07.153.08.237.01.083 0 .168-.02.25a.635.635 0 0 1-.3.391l-3.27 1.912a.664.664 0 0 0-.24.233.865.865 0 0 0-.09.318l-.01 3.8a.641.641 0 0 1-.65.64Z"/><path fill="#fff" fill-opacity=".7" d="m1072.79 79.13-.23-3.551c-.02-.253.04-.506.17-.725.12-.22.31-.397.54-.51l3.19-1.577a.642.642 0 0 1 .86.29c.08.153.09.33.03.49a.63.63 0 0 1-.32.37l-2.81 1.39a.702.702 0 0 0-.27.254.65.65 0 0 0-.08.362l.2 3.125c.01.17-.05.337-.16.465a.636.636 0 0 1-.69.184.723.723 0 0 1-.22-.126.742.742 0 0 1-.15-.198.514.514 0 0 1-.06-.243Z"/><path fill="#fff" fill-opacity=".7" d="M1052.02 68.088a.661.661 0 0 1-.08-.236.532.532 0 0 1 .02-.25.503.503 0 0 1 .11-.226.638.638 0 0 1 .18-.166l3.29-1.914a.725.725 0 0 0 .23-.233.601.601 0 0 0 .09-.319l.01-3.8a.64.64 0 0 1 .65-.639.646.646 0 0 1 .64.642l-.02 4.167c0 .224-.06.443-.17.637-.12.193-.28.354-.47.467l-3.6 2.099a.614.614 0 0 1-.23.083.692.692 0 0 1-.26-.015.654.654 0 0 1-.22-.109.585.585 0 0 1-.17-.188Z"/><path fill="#fff" fill-opacity=".7" d="M1050.2 64.816a.692.692 0 0 1 0-.492.646.646 0 0 1 .34-.35l1.48-.631c.13-.055.23-.15.3-.27.07-.12.1-.26.08-.397l-.19-1.594a.665.665 0 0 1 .13-.473c.11-.134.26-.22.43-.24a.63.63 0 0 1 .47.132c.14.105.23.259.25.428l.25 2.071c.03.276-.03.555-.17.795s-.35.43-.6.539l-1.92.82a.64.64 0 0 1-.49.005.662.662 0 0 1-.36-.344Z"/><path fill="#fff" fill-opacity=".7" d="M1055.68 69.46a.599.599 0 0 1-.03-.49.63.63 0 0 1 .32-.369l2.81-1.388a.64.64 0 0 0 .27-.254.65.65 0 0 0 .08-.362l-.2-3.125a.657.657 0 0 1 .16-.465.635.635 0 0 1 .44-.217c.17-.011.34.046.47.158.12.112.2.27.21.44l.23 3.553c.02.253-.04.505-.17.725-.12.219-.31.396-.54.508l-3.19 1.576a.644.644 0 0 1-.86-.29Z"/><path fill="#fff" fill-opacity=".7" d="M1062.65 78.32c-.09 0-.18-.02-.26-.056a.586.586 0 0 1-.22-.159.68.68 0 0 1-.13-.233c-.03-.087-.04-.178-.03-.268l.47-4.053-3.33-1.723a.618.618 0 0 1-.35-.57.618.618 0 0 1 .35-.57l3.33-1.722-.47-4.054a.719.719 0 0 1 .06-.355.666.666 0 0 1 .59-.36c.13.002.24.04.35.108l3.49 2.33 3.5-2.33a.632.632 0 0 1 .69-.015.642.642 0 0 1 .3.622l-.46 4.054 3.33 1.722c.1.054.19.136.25.236.06.101.09.216.09.334a.65.65 0 0 1-.09.334c-.06.1-.15.182-.25.236l-3.33 1.722.46 4.054a.642.642 0 0 1-.65.715.632.632 0 0 1-.34-.107l-3.5-2.332-3.49 2.33a.658.658 0 0 1-.36.11Zm3.85-3.852c.13 0 .25.037.36.108l2.7 1.797-.36-3.118a.69.69 0 0 1 .07-.375.663.663 0 0 1 .27-.267l2.62-1.355-2.62-1.356a.664.664 0 0 1-.27-.267.69.69 0 0 1-.07-.375l.36-3.118-2.7 1.797a.657.657 0 0 1-.36.108.602.602 0 0 1-.35-.108l-2.7-1.797.36 3.118a.69.69 0 0 1-.07.375.687.687 0 0 1-.28.267l-2.62 1.356 2.62 1.356c.12.06.21.153.27.267.07.115.09.246.08.375l-.36 3.118 2.69-1.797a.654.654 0 0 1 .36-.11Z"/><path fill="#fff" d="M1650.92-20.067a.921.921 0 0 0-.92-.926.93.93 0 0 0-.93.925v53.66c0 .51.42.925.93.925s.92-.415.92-.925v-53.66Z"/><path fill="#fff" d="m1672.77-7.452-46.47 26.825a.933.933 0 0 0-.34 1.264c.26.443.82.594 1.27.339L1673.7-5.85a.933.933 0 0 0 .34-1.263.932.932 0 0 0-1.27-.34Z"/><path fill="#fff" d="M1627.23-7.454a.932.932 0 0 0-1.27.339.933.933 0 0 0 .34 1.263l46.47 26.83a.934.934 0 0 0 1.27-.339.933.933 0 0 0-.34-1.264l-46.47-26.83Z"/><path fill="#fff" fill-opacity=".7" d="m1652.41 31.926-1.85-1.387a.94.94 0 0 0-.56-.185.91.91 0 0 0-.55.185l-1.85 1.387c-.2.148-.45.21-.69.176a.94.94 0 0 1-.77-.686c-.03-.118-.03-.24-.02-.36.02-.12.06-.237.12-.341.07-.105.15-.196.25-.269l2.4-1.804a1.85 1.85 0 0 1 2.22 0l2.41 1.804c.19.147.32.366.36.61a.936.936 0 0 1-.79 1.046.924.924 0 0 1-.36-.02.828.828 0 0 1-.32-.156Z"/><path fill="#fff" fill-opacity=".7" d="m1655.21 27.46-4.75-2.718a.932.932 0 0 0-.92 0l-4.75 2.718a.947.947 0 0 1-.71.089.97.97 0 0 1-.56-.433.954.954 0 0 1-.09-.703.967.967 0 0 1 .44-.56l5.21-2.98a1.866 1.866 0 0 1 1.84 0l5.21 2.98a.93.93 0 0 1 .44.56c.06.237.03.49-.09.703a.97.97 0 0 1-.56.433.947.947 0 0 1-.71-.09Z"/><path fill="#fff" fill-opacity=".7" d="m1654.27 21.82-3.76-2.503a.915.915 0 0 0-1.02 0l-3.76 2.503a.92.92 0 0 1-.69.138c-.12-.024-.23-.07-.34-.138a.958.958 0 0 1-.39-.59c-.02-.119-.02-.241 0-.36a1 1 0 0 1 .14-.334.86.86 0 0 1 .26-.255l4.26-2.845a1.866 1.866 0 0 1 2.06 0l4.27 2.845c.1.067.18.154.25.255s.12.214.14.333c.02.12.02.242 0 .361a.832.832 0 0 1-.14.334.958.958 0 0 1-.25.256.943.943 0 0 1-.7.138.894.894 0 0 1-.33-.138Z"/><path fill="#fff" fill-opacity=".7" d="m1634.68 21.626-.02-5.477a.93.93 0 0 0-.47-.795l-4.72-2.758a.827.827 0 0 1-.27-.24.818.818 0 0 1-.16-.324.877.877 0 0 1-.02-.36.83.83 0 0 1 .11-.342.949.949 0 0 1 .57-.428.919.919 0 0 1 .7.095l5.19 3.025a1.829 1.829 0 0 1 .91 1.59l.03 6.006c0 .245-.1.48-.27.654a.919.919 0 0 1-1.3.003.895.895 0 0 1-.28-.649Z"/><path fill="#fff" fill-opacity=".7" d="M1639.96 18.974a.922.922 0 0 1-.64-.313.96.96 0 0 1-.23-.67l.29-4.503a.87.87 0 0 0-.12-.522.935.935 0 0 0-.39-.366l-4.04-2.001a.936.936 0 0 1-.47-.533.913.913 0 0 1 .05-.706c.1-.22.3-.389.53-.468a.91.91 0 0 1 .7.044l4.6 2.274c.33.162.6.417.78.733.19.317.27.68.25 1.044l-.33 5.12c-.01.122-.04.24-.09.35-.06.109-.13.206-.22.287-.09.08-.2.142-.31.182a.953.953 0 0 1-.36.048Z"/><path fill="#fff" fill-opacity=".7" d="M1630.22 22.456a.915.915 0 0 1-.62-.347.927.927 0 0 1-.19-.682l.28-2.297a.955.955 0 0 0-.12-.573.95.95 0 0 0-.44-.388l-2.13-.909a.93.93 0 0 1-.49-.506.914.914 0 0 1 .01-.707.888.888 0 0 1 .5-.495.93.93 0 0 1 .71.007l2.76 1.182c.37.157.68.43.88.776.2.346.28.749.24 1.146l-.36 2.986a1.004 1.004 0 0 1-.35.617c-.1.075-.21.13-.32.163a.93.93 0 0 1-.36.027Z"/><path fill="#fff" fill-opacity=".7" d="M1669.6 2.527 1664.42-.5a1.829 1.829 0 0 1-.67-.673 1.75 1.75 0 0 1-.25-.917l-.03-6.005c0-.245.1-.48.27-.654a.942.942 0 0 1 .66-.271.921.921 0 0 1 .92.92l.03 5.477c0 .161.04.32.12.46.08.138.2.254.34.335l4.73 2.759a.942.942 0 0 1 .43.564c.03.117.04.24.02.36s-.06.236-.12.341a.87.87 0 0 1-.24.273.943.943 0 0 1-.69.179.887.887 0 0 1-.34-.122Z"/><path fill="#fff" fill-opacity=".7" d="m1664.36 4.588-4.6-2.274c-.33-.162-.6-.417-.78-.734-.19-.316-.27-.68-.25-1.044l.33-5.12a.958.958 0 0 1 .31-.634.941.941 0 0 1 .67-.228c.25.015.48.128.64.312a.96.96 0 0 1 .23.67l-.29 4.504c-.01.182.03.363.12.521.1.159.23.286.4.367l4.04 2.001c.22.109.39.3.47.533.08.232.06.486-.05.706a.945.945 0 0 1-.53.47.941.941 0 0 1-.71-.05Z"/><path fill="#fff" fill-opacity=".7" d="M1664.39 22.547a.902.902 0 0 1-.65-.27.907.907 0 0 1-.28-.655l.03-6.005c0-.322.09-.639.25-.917.16-.28.39-.511.67-.674l5.19-3.025a.925.925 0 0 1 .7-.096c.12.031.23.085.32.159.1.073.18.165.24.27.06.105.1.221.12.342.02.12.01.242-.02.36a.942.942 0 0 1-.43.564l-4.73 2.755a.896.896 0 0 0-.33.336.93.93 0 0 0-.13.459l-.02 5.477a.942.942 0 0 1-.28.651.92.92 0 0 1-.65.27Z"/><path fill="#fff" fill-opacity=".7" d="m1659.06 18.107-.33-5.118c-.02-.365.06-.729.25-1.045.18-.317.45-.572.78-.734l4.6-2.274a.91.91 0 0 1 .7-.047.95.95 0 0 1 .54.466c.1.22.12.474.04.707a.92.92 0 0 1-.46.532l-4.05 2.002c-.16.081-.3.209-.39.367a.948.948 0 0 0-.12.521l.29 4.504a.96.96 0 0 1-.23.67.92.92 0 0 1-.99.265.995.995 0 0 1-.32-.18c-.09-.08-.16-.178-.22-.287a1.042 1.042 0 0 1-.09-.349Z"/><path fill="#fff" fill-opacity=".7" d="m1668.75 21.649-.36-2.986c-.05-.397.04-.8.24-1.146.2-.347.5-.62.87-.776l2.77-1.182a.905.905 0 0 1 .7-.007c.23.091.41.27.51.495a.915.915 0 0 1-.49 1.213l-2.12.909a.904.904 0 0 0-.44.388.955.955 0 0 0-.12.573l.28 2.297a.928.928 0 0 1-.19.682.924.924 0 0 1-1.3.156.942.942 0 0 1-.35-.616Z"/><path fill="#fff" fill-opacity=".7" d="M1629.13 2.194a.83.83 0 0 1-.11-.342.877.877 0 0 1 .02-.36.818.818 0 0 1 .16-.325.826.826 0 0 1 .27-.24l4.73-2.758c.14-.08.25-.196.34-.336a.92.92 0 0 0 .12-.459l.02-5.477a.942.942 0 0 1 .93-.92c.25 0 .48.097.65.27.18.174.28.41.28.655l-.03 6.005c0 .322-.09.638-.25.917-.16.28-.39.511-.67.674l-5.19 3.025a.922.922 0 0 1-.7.099.83.83 0 0 1-.32-.158c-.1-.074-.18-.165-.25-.27Z"/><path fill="#fff" fill-opacity=".7" d="M1634.41 4.171a.913.913 0 0 1-.05-.706.936.936 0 0 1 .47-.532l4.04-2.002c.16-.08.3-.208.39-.366a.87.87 0 0 0 .12-.522l-.29-4.503a.96.96 0 0 1 .23-.67.922.922 0 0 1 .64-.313c.24-.016.48.066.67.228.18.162.29.39.31.635l.33 5.12c.02.364-.06.728-.24 1.044-.19.316-.46.571-.79.733l-4.6 2.27a.915.915 0 0 1-1.23-.416Z"/><path fill="#fff" fill-opacity=".7" d="M1644.45 16.939a.938.938 0 0 1-.38-.081.939.939 0 0 1-.31-.229.887.887 0 0 1-.19-.336c-.04-.124-.05-.255-.04-.385l.67-5.842-4.8-2.483a.865.865 0 0 1-.36-.34.913.913 0 0 1-.14-.481c0-.17.05-.336.14-.48a.865.865 0 0 1 .36-.342l4.8-2.482-.67-5.842a.906.906 0 0 1 .09-.512c.08-.158.2-.292.35-.384a.912.912 0 0 1 .99.02L1650 .1l5.04-3.358a.935.935 0 0 1 1-.02c.15.091.27.225.35.383.07.159.1.336.08.512l-.67 5.842 4.8 2.482a.903.903 0 0 1 .5.822.904.904 0 0 1-.5.821l-4.8 2.483.67 5.842a.994.994 0 0 1-.08.512.95.95 0 0 1-.35.384.936.936 0 0 1-1-.02l-5.04-3.36-5.04 3.357a.917.917 0 0 1-.51.158Zm5.55-5.551c.19 0 .36.054.52.155l3.89 2.59-.52-4.494c-.02-.186.02-.374.1-.54a.97.97 0 0 1 .39-.385l3.78-1.952-3.78-1.954a.97.97 0 0 1-.39-.386 1.001 1.001 0 0 1-.1-.54l.52-4.494-3.89 2.59a.948.948 0 0 1-.52.156.916.916 0 0 1-.51-.155l-3.89-2.59.52 4.494c.02.186-.02.374-.1.54-.09.165-.23.3-.4.385l-3.78 1.954 3.78 1.954c.17.086.31.22.39.386.09.165.13.353.11.539l-.52 4.494 3.89-2.59a.911.911 0 0 1 .51-.157Z"/><g filter="url(#c)"><path fill="#fff" d="M543.722 107.972c-54.284 36.431-75.884-65.915-183.95-6.127-108.065 59.788-140.471-126.383 27.643-139.57C555.53-50.91 608.259 64.66 543.722 107.973Z"/></g><g filter="url(#d)" opacity=".7"><path fill="#fff" d="M1217.05 225.91c-124.95 83.857-174.67-151.721-423.418-14.102-248.744 137.62-323.336-290.907 63.629-321.26C1244.22-139.805 1365.6 126.213 1217.05 225.91Z"/></g><g filter="url(#e)" opacity=".7"><path fill="#fff" d="M1688.7 109.924c-83.85-124.949 151.73-174.67 14.11-423.413-137.62-248.744 290.9-323.336 321.26 63.629 30.35 386.964-235.67 508.335-335.37 359.784Z"/></g><g filter="url(#f)" opacity=".8"><path fill="#fff" d="M1672.48 173.308c-88.64 59.489-123.91-107.632-300.37-10.003-176.46 97.628-229.38-206.372 45.13-227.905 274.52-21.532 360.62 167.182 255.24 237.908Z"/></g><g filter="url(#g)" opacity=".8"><path fill="#fff" d="M195.456 15.683C316.958 121.792 86.814 238.632 298.334 458.005c211.52 219.373-211.52 415.497-350.317 23.248S51.004-110.469 195.456 15.683Z"/></g></g><defs><filter id="b" width="2022" height="108" x="-15.5" y="-16" color-interpolation-filters="sRGB" filterUnits="userSpaceOnUse"><feFlood flood-opacity="0" result="BackgroundImageFix"/><feGaussianBlur in="BackgroundImageFix" stdDeviation="8"/><feComposite in2="SourceAlpha" operator="in" result="effect1_backgroundBlur_13402_96355"/><feBlend in="SourceGraphic" in2="effect1_backgroundBlur_13402_96355" result="shape"/></filter><filter id="c" width="570.381" height="424.8" x="135.019" y="-173.766" color-interpolation-filters="sRGB" filterUnits="userSpaceOnUse"><feFlood flood-opacity="0" result="BackgroundImageFix"/><feBlend in="SourceGraphic" in2="BackgroundImageFix" result="shape"/><feGaussianBlur result="effect1_foregroundBlur_13402_96355" stdDeviation="67.5"/></filter><filter id="d" width="961.414" height="626.317" x="452.038" y="-246.85" color-interpolation-filters="sRGB" filterUnits="userSpaceOnUse"><feFlood flood-opacity="0" result="BackgroundImageFix"/><feBlend in="SourceGraphic" in2="BackgroundImageFix" result="shape"/><feGaussianBlur result="effect1_foregroundBlur_13402_96355" stdDeviation="67.5"/></filter><filter id="e" width="626.316" height="961.413" x="1535.15" y="-655.083" color-interpolation-filters="sRGB" filterUnits="userSpaceOnUse"><feFlood flood-opacity="0" result="BackgroundImageFix"/><feBlend in="SourceGraphic" in2="BackgroundImageFix" result="shape"/><feGaussianBlur result="effect1_foregroundBlur_13402_96355" stdDeviation="67.5"/></filter><filter id="f" width="664.493" height="426.774" x="1138.55" y="-153.301" color-interpolation-filters="sRGB" filterUnits="userSpaceOnUse"><feFlood flood-opacity="0" result="BackgroundImageFix"/><feBlend in="SourceGraphic" in2="BackgroundImageFix" result="shape"/><feGaussianBlur result="effect1_foregroundBlur_13402_96355" stdDeviation="43.5"/></filter><filter id="g" width="624" height="902" x="-180.5" y="-109" color-interpolation-filters="sRGB" filterUnits="userSpaceOnUse"><feFlood flood-opacity="0" result="BackgroundImageFix"/><feBlend in="SourceGraphic" in2="BackgroundImageFix" result="shape"/><feGaussianBlur result="effect1_foregroundBlur_13402_96355" stdDeviation="43.5"/></filter><clipPath id="a"><path fill="#fff" d="M.5 0h1990v76H.5z"/></clipPath></defs></svg>