<svg xmlns="http://www.w3.org/2000/svg" width="1993" height="35" fill="none"><g filter="url(#a)"><path fill="url(#b)" d="M1.5 10.847c0-19.782 96.455-.05 158.233-1.176 33.198-.606 51.787-1.59 84.989-2.045 21.585-.295 33.69-.254 55.278-.383 168.578-1.01 267.036-.397 431.685.584 103.425.616 177.062-1.737 264.815 0 52.75 1.044 150.38 2.525 246.68.498 49.14-1.034 76.63-5.554 125.75-4.13 25.17.73 39.16 3.348 64.26 3.904 81.19 1.799 140.75-.272 207.99-.272 59.5 0 92.86 1.844 152.36 1.844 77.31 0 197.96-2.496 197.96-2.496v12.082s-173.4-.16-283.99 6.02c-45.49 2.541-87.92 1.581-116.08 1.46-95.46-.408-161.79-6.585-245.64-6.585-81.47 0-130.07.87-213.17 4.98-15.66.774-26.78 2.066-40.07 2.18-15.21 0-25.27-1.008-41.46-1.49-91.256-2.719-169.507 9.173-278.119 9.178-140.456.006-219.036-11.638-359.652-13.926C252.521 18.458 235.049 32.986 1.5 24.932V10.847Z"/></g><defs><linearGradient id="b" x1="996.499" x2="996.499" y1="7.827" y2="35.366" gradientUnits="userSpaceOnUse"><stop stop-color="#FDFDFE"/><stop offset=".693" stop-color="#DADEE8"/><stop offset="1" stop-color="#C3C8D5"/></linearGradient><filter id="a" width="1992" height="35" x=".5" y="0" color-interpolation-filters="sRGB" filterUnits="userSpaceOnUse"><feFlood flood-opacity="0" result="BackgroundImageFix"/><feColorMatrix in="SourceAlpha" result="hardAlpha" values="0 0 0 0 0 0 0 0 0 0 0 0 0 0 0 0 0 0 127 0"/><feOffset dy="-1"/><feGaussianBlur stdDeviation=".5"/><feComposite in2="hardAlpha" operator="out"/><feColorMatrix values="0 0 0 0 0.764706 0 0 0 0 0.784314 0 0 0 0 0.835294 0 0 0 0.24 0"/><feBlend in2="BackgroundImageFix" result="effect1_dropShadow_13402_96453"/><feBlend in="SourceGraphic" in2="effect1_dropShadow_13402_96453" result="shape"/></filter></defs></svg>