<svg xmlns="http://www.w3.org/2000/svg" width="36" height="36" fill="none"><path fill="url(#a)" stroke="url(#b)" stroke-width=".3" d="m26.926 14.869-.002-.002a.983.983 0 0 0-1.37 1.412l2.222 2.221-2.221 2.221-.002.002-.018.018-.001.002a.983.983 0 0 0 1.39 1.39l.002-.002.018-.018.001-.001 2.917-2.917.001-.001.018-.018.001-.002a.983.983 0 0 0-.02-1.37l-2.917-2.916-.001-.002-.018-.017Z"/><path fill="url(#c)" stroke="url(#d)" stroke-width=".3" d="m8.076 14.867-.002.002-.018.018-.001.001-2.917 2.917a.983.983 0 0 0 0 1.39l2.917 2.917.001.002.018.017.002.002a.983.983 0 0 0 1.37-1.412L7.223 18.5l2.221-2.221.002-.002.017-.018.002-.002a.983.983 0 0 0-1.39-1.39Z"/><path fill="url(#e)" stroke="url(#f)" stroke-width=".3" d="m15.259 20.702-.002-.001a.983.983 0 0 0-1.39 1.39l.002.001.017.018.002.002 5.138 5.138-1.526 1.526-2.222-2.221-.001-.002-.018-.017-.002-.002a.983.983 0 0 0-1.39 1.39l.002.002.017.018.002.001 2.916 2.917.002.002.021.02.002.002a.98.98 0 0 0 .657.264H17.541a.98.98 0 0 0 .654-.288l2.917-2.917.001-.001.018-.018.001-.002a.983.983 0 0 0-.02-1.37l-5.834-5.833-.001-.001-.018-.018Zm0-5.833-.002-.002a.983.983 0 0 0-1.39 1.39l.002.002.017.018.002.002 5.833 5.833.002.002.018.017.001.001a.983.983 0 0 0 1.39-1.39l-.001-.001-.018-.018-.001-.002-5.834-5.833-.001-.002-.018-.017Zm2.255-9.019H17.486a.98.98 0 0 0-.682.288l-2.916 2.917-.002.001-.017.018-.002.002a.983.983 0 0 0 0 1.348l.002.002.017.018.002.001 5.833 5.834.002.001.018.018.001.001a.983.983 0 0 0 1.39-1.39l-.001-.002-.018-.018-.001-.001-5.138-5.138L17.5 8.224l2.221 2.221.002.002.018.017.001.002a.983.983 0 0 0 1.39-1.39l-.001-.002-.018-.018-.001-.001-2.917-2.917-.002-.002-.02-.02-.003-.002a.98.98 0 0 0-.657-.264Z"/><defs><linearGradient id="a" x1="27.708" x2="27.708" y1="14.75" y2="22.25" gradientUnits="userSpaceOnUse"><stop stop-color="#C3C8D5"/><stop offset="1" stop-color="#8791AB"/></linearGradient><linearGradient id="b" x1="27.708" x2="27.708" y1="14.75" y2="22.25" gradientUnits="userSpaceOnUse"><stop stop-color="#C3C8D5"/><stop offset="1" stop-color="#8791AB"/></linearGradient><linearGradient id="c" x1="7.292" x2="7.292" y1="14.75" y2="22.25" gradientUnits="userSpaceOnUse"><stop stop-color="#C3C8D5"/><stop offset="1" stop-color="#8791AB"/></linearGradient><linearGradient id="d" x1="7.292" x2="7.292" y1="14.75" y2="22.25" gradientUnits="userSpaceOnUse"><stop stop-color="#C3C8D5"/><stop offset="1" stop-color="#8791AB"/></linearGradient><linearGradient id="e" x1="17.5" x2="17.5" y1="6" y2="31" gradientUnits="userSpaceOnUse"><stop stop-color="#C3C8D5"/><stop offset="1" stop-color="#8791AB"/></linearGradient><linearGradient id="f" x1="17.5" x2="17.5" y1="6" y2="31" gradientUnits="userSpaceOnUse"><stop stop-color="#C3C8D5"/><stop offset="1" stop-color="#8791AB"/></linearGradient></defs></svg>
