<svg xmlns="http://www.w3.org/2000/svg" width="36" height="36" fill="none"><path fill="#007FFF" stroke="#007FFF" stroke-width=".3" d="m26.926 14.869-.002-.002a.983.983 0 0 0-1.37 1.412l2.222 2.221-2.221 2.221-.002.002-.018.018-.001.002a.983.983 0 0 0 1.39 1.39l.002-.002.018-.018.001-.001 2.917-2.917.001-.001.018-.018.001-.002a.983.983 0 0 0-.02-1.37l-2.917-2.916-.001-.002-.018-.017Zm-18.85-.002-.002.002-.018.018-.001.001-2.917 2.917a.983.983 0 0 0 0 1.39l2.917 2.917.001.002.018.017.002.002a.983.983 0 0 0 1.37-1.412L7.223 18.5l2.221-2.221.002-.002.017-.018.002-.002a.983.983 0 0 0-1.39-1.39Z"/><path fill="#1B191B" stroke="#1B191B" stroke-width=".3" d="m15.259 20.702-.002-.001a.983.983 0 0 0-1.39 1.39l.002.001.017.018.002.002 5.138 5.138-1.526 1.526-2.222-2.221-.001-.002-.018-.017-.002-.002a.983.983 0 0 0-1.39 1.39l.002.002.017.018.002.001 2.917 2.917.001.002.021.02.002.002a.98.98 0 0 0 .657.264h.055a.98.98 0 0 0 .654-.288l2.917-2.917.001-.001.018-.018.001-.002a.983.983 0 0 0-.02-1.37l-5.833-5.833-.002-.001-.018-.018Zm0-5.833-.002-.002a.983.983 0 0 0-1.39 1.39l.002.002.017.018.002.002 5.833 5.833.002.002.018.017.001.001a.983.983 0 0 0 1.39-1.39l-.001-.001-.018-.018-.001-.002-5.833-5.833-.002-.002-.018-.017Zm2.255-9.019h-.028a.98.98 0 0 0-.681.288l-2.917 2.917-.002.001-.017.018-.002.002a.983.983 0 0 0 0 1.348l.002.002.017.018.002.001 5.833 5.834.002.001.018.018.001.001a.983.983 0 0 0 1.39-1.39l-.001-.002-.018-.018-.001-.001-5.138-5.138L17.5 8.224l2.221 2.221.002.002.018.017.001.002a.983.983 0 0 0 1.39-1.39l-.001-.002-.018-.018-.001-.001-2.917-2.917-.002-.002-.02-.02-.003-.002a.98.98 0 0 0-.657-.264Z"/></svg>
