<svg xmlns="http://www.w3.org/2000/svg" width="36" height="36" fill="none"><path fill="#000" fill-rule="evenodd" d="M13.385 7.043c-.246.02-.5.045-.563.055a9.655 9.655 0 0 0-1.11.276.671.671 0 0 0-.157.062.116.116 0 0 1-.066.023c-.116 0-.982.441-1.378.702a7.63 7.63 0 0 0-.36.246 7.577 7.577 0 0 0-1.242 1.214 2.031 2.031 0 0 1-.117.144c-.01.008-.121.17-.247.36-.26.396-.702 1.261-.702 1.378 0 .02-.01.05-.024.065a.674.674 0 0 0-.062.157 10.093 10.093 0 0 0-.231.88 7.59 7.59 0 0 0-.115.95c-.035.482.018 1.26.115 1.7.102.465.21.854.287 1.039.014.031.054.135.09.23.114.3.395.835.604 1.152.11.168.201.317.201.332 0 .015-.09.165-.2.333-.21.317-.49.852-.605 1.152a6.872 6.872 0 0 1-.09.23c-.077.185-.179.553-.287 1.038a7.55 7.55 0 0 0-.115.941c-.034.485.02 1.28.115 1.71a10.022 10.022 0 0 0 .231.88.67.67 0 0 0 .062.157.115.115 0 0 1 .024.065c0 .116.441.981.702 1.377.126.19.237.353.247.36a7.536 7.536 0 0 0 1.215 1.24c.07.056.136.109.144.119.007.01.17.12.36.245.396.261 1.262.702 1.378.702a.12.12 0 0 1 .066.024.683.683 0 0 0 .157.062c.071.02.182.054.245.074.106.033.348.093.635.157.436.097 1.219.15 1.702.115.396-.028.76-.072.951-.114.486-.109.854-.21 1.039-.288a7.43 7.43 0 0 0 1.384-.693c.167-.11.317-.201.332-.201.015 0 .165.09.333.2.317.21.853.49 1.152.604.096.036.2.077.231.09.185.077.553.18 1.039.288.19.042.555.086.95.114a7.238 7.238 0 0 0 1.703-.115 10.095 10.095 0 0 0 .88-.231.676.676 0 0 0 .157-.062.116.116 0 0 1 .066-.024c.116 0 .982-.44 1.378-.702.19-.125.352-.236.36-.245a7.577 7.577 0 0 0 1.359-1.358c.01-.008.121-.17.247-.36.26-.397.702-1.262.702-1.378 0-.02.01-.05.024-.065a.674.674 0 0 0 .062-.157 10.034 10.034 0 0 0 .231-.88c.096-.43.15-1.225.115-1.71a7.623 7.623 0 0 0-.115-.941c-.108-.485-.21-.853-.287-1.038a11.865 11.865 0 0 1-.09-.23 7.431 7.431 0 0 0-.604-1.152 2.808 2.808 0 0 1-.201-.333c0-.015.09-.164.2-.332a7.427 7.427 0 0 0 .695-1.382c.077-.185.185-.574.287-1.038.097-.442.15-1.219.115-1.701a7.593 7.593 0 0 0-.115-.95 10.006 10.006 0 0 0-.231-.88.677.677 0 0 0-.062-.157.115.115 0 0 1-.024-.065c0-.117-.441-.982-.702-1.377a7.64 7.64 0 0 0-.247-.36 2.02 2.02 0 0 1-.117-.145 7.538 7.538 0 0 0-1.097-1.096 2.023 2.023 0 0 1-.144-.118c-.009-.01-.17-.12-.361-.246-.396-.26-1.262-.702-1.378-.702a.12.12 0 0 1-.066-.023.671.671 0 0 0-.157-.062 10.06 10.06 0 0 0-.88-.23c-.431-.097-1.227-.15-1.711-.116a7.643 7.643 0 0 0-.942.114c-.486.109-.854.21-1.039.288l-.23.09c-.3.114-.836.394-1.153.603-.168.11-.318.201-.333.201-.015 0-.165-.09-.333-.201a7.436 7.436 0 0 0-1.152-.603 11.541 11.541 0 0 1-.231-.09c-.185-.078-.574-.185-1.039-.287-.255-.057-1.258-.158-1.386-.141l-.474.04Zm.937 2.305c.376.026.635.08 1.068.221.232.076.708.289.822.367.035.024-.56.632-3.101 3.172a354.875 354.875 0 0 1-3.164 3.142c-.011 0-.085-.133-.165-.295-.489-1-.593-2.032-.322-3.192.071-.306.303-.857.51-1.21.134-.232.46-.644.693-.876.598-.598 1.262-.97 2.188-1.229.234-.065.946-.145 1.125-.127.048.005.204.017.346.027Zm8.163.001c.232.017.448.052.765.126.305.07.857.302 1.211.509.232.134.644.46.876.693.233.232.56.644.694.875.206.354.438.905.51 1.21.34 1.46.08 2.774-.783 3.95-.255.347-8.708 8.794-9.056 9.049-1.176.861-2.491 1.121-3.952.781-.306-.071-.857-.303-1.211-.509a5.476 5.476 0 0 1-.876-.693 5.472 5.472 0 0 1-.694-.875c-.206-.354-.438-.905-.51-1.211-.34-1.46-.08-2.773.783-3.949.255-.347 8.708-8.794 9.056-9.049a4.695 4.695 0 0 1 1.99-.864c.23-.041.734-.083.851-.07.048.005.204.017.346.027Zm-4.153 5.59a2.36 2.36 0 0 0-.832.367c-.219.148-2.056 1.984-2.205 2.203a2.186 2.186 0 0 0-.41 1.292 2.301 2.301 0 0 0 3.07 2.19c.436-.15.609-.29 1.674-1.354.904-.903 1.106-1.132 1.248-1.412.265-.525.311-1.167.126-1.77a2.665 2.665 0 0 0-.4-.712 2.256 2.256 0 0 0-1.824-.844 2.53 2.53 0 0 0-.447.04Zm7.886 5.123c.489 1 .593 2.031.322 3.192-.071.306-.303.857-.51 1.21-.134.232-.46.644-.693.876a5.476 5.476 0 0 1-.876.693c-.354.206-.905.438-1.211.509-1.146.267-2.19.166-3.159-.305a4.86 4.86 0 0 1-.303-.156c-.035-.024.56-.632 3.101-3.172a355.925 355.925 0 0 1 3.164-3.142c.011 0 .085.133.165.295Z" clip-rule="evenodd"/></svg>
