<svg xmlns="http://www.w3.org/2000/svg" width="36" height="36" fill="none"><path fill="url(#a)" fill-rule="evenodd" d="M16.012 7.161c-2.478.456-4.972 1.873-6.5 3.692-3.326 3.963-3.352 9.598-.062 13.568 1.576 1.9 4.066 3.331 6.522 3.746l.598.101v-2.741l-.85-.183c-2.8-.602-5.378-3.458-5.87-6.5-.643-3.97 2.03-7.875 6.103-8.917 2.723-.696 5.712.099 7.8 2.075 1.253 1.185 1.95 2.449 2.325 4.21.599 2.825-.592 5.91-2.981 7.725-.74.563-1.268.865-1.268.865v-3.306h-2.71V29h8.448v-2.756l-1.475-.003-1.474-.003.668-.538c.933-.752 2.076-2.248 2.685-3.514 2.527-5.253.24-11.563-5.102-14.078-2.107-.991-4.683-1.347-6.857-.947Z" clip-rule="evenodd"/><defs><linearGradient id="a" x1="18" x2="18" y1="7" y2="29" gradientUnits="userSpaceOnUse"><stop stop-color="#C3C8D5"/><stop offset="1" stop-color="#8791AB"/></linearGradient></defs></svg>
