<svg width="481" height="458" fill="none" xmlns="http://www.w3.org/2000/svg"><path d="m313.551 271.405-73.308 42.152-73.308-42.152v-84.297l73.308-42.151 73.308 42.152v84.296Z" fill="#FBFCFD" stroke="#EDEFF7" stroke-width="2"/><path d="m313.551 271.405-73.308 42.152-73.308-42.152v-84.297l73.308-42.151 73.308 42.152v84.296Z" fill="url(#a)" stroke="#EDEFF7" stroke-width="2"/><path d="m230.243 129.276-73.307 42.152-73.308-42.152V44.979l73.308-42.152 73.307 42.152v84.297Z" fill="url(#b)" stroke="#EDEFF7" stroke-width="2"/><path d="M125.42 81.245c-.821 0-1.558-.143-2.212-.428-.642-.297-1.147-.701-1.515-1.213a3.147 3.147 0 0 1-.571-1.801h1.73a2.33 2.33 0 0 0 .713 1.48c.428.393 1.046.589 1.855.589.773 0 1.379-.19 1.819-.57.452-.393.678-.893.678-1.499 0-.475-.131-.862-.393-1.16a2.499 2.499 0 0 0-.981-.677 15.283 15.283 0 0 0-1.587-.5c-.82-.213-1.48-.427-1.979-.641a3.288 3.288 0 0 1-1.267-.999c-.344-.464-.517-1.082-.517-1.855 0-.677.173-1.278.517-1.8.345-.524.827-.928 1.445-1.214.63-.285 1.349-.428 2.158-.428 1.165 0 2.116.292 2.853.874.749.583 1.171 1.356 1.266 2.319h-1.783c-.059-.476-.309-.892-.749-1.249-.44-.368-1.022-.552-1.748-.552-.677 0-1.23.178-1.658.534-.428.345-.642.833-.642 1.463 0 .452.125.82.374 1.106.262.285.577.505.945.66.381.142.91.309 1.588.499.82.226 1.48.451 1.979.677.5.214.928.553 1.284 1.017.357.452.535 1.07.535 1.855 0 .606-.16 1.177-.481 1.712-.321.535-.797.969-1.427 1.302-.63.333-1.373.499-2.229.499Zm15.442-5.386c0 .31-.017.636-.053.981h-7.811c.059.963.386 1.718.981 2.265.606.535 1.337.802 2.193.802.702 0 1.284-.16 1.748-.481.475-.333.808-.773.999-1.32h1.747a4.24 4.24 0 0 1-1.569 2.3c-.785.583-1.76.875-2.925.875-.927 0-1.76-.208-2.497-.625a4.451 4.451 0 0 1-1.712-1.765c-.416-.773-.624-1.665-.624-2.675 0-1.01.202-1.896.606-2.657a4.217 4.217 0 0 1 1.695-1.748c.737-.416 1.581-.624 2.532-.624.927 0 1.748.202 2.461.606.714.404 1.26.963 1.641 1.676.392.702.588 1.498.588 2.39Zm-1.676-.339c0-.618-.137-1.147-.41-1.587a2.583 2.583 0 0 0-1.124-1.017 3.349 3.349 0 0 0-1.551-.356c-.821 0-1.522.261-2.105.785-.57.523-.897 1.248-.98 2.175h6.17Zm3.212.696c0-1.01.202-1.89.607-2.64.404-.76.963-1.349 1.676-1.765.725-.416 1.551-.624 2.479-.624 1.201 0 2.187.29 2.96.874.785.582 1.302 1.39 1.552 2.425h-1.748a2.49 2.49 0 0 0-.981-1.409c-.475-.345-1.07-.517-1.783-.517-.928 0-1.677.32-2.247.963-.571.63-.856 1.528-.856 2.693 0 1.177.285 2.086.856 2.728.57.642 1.319.963 2.247.963.713 0 1.308-.166 1.783-.499.476-.333.803-.808.981-1.427h1.748c-.262 1-.785 1.802-1.57 2.408-.784.594-1.765.892-2.942.892-.928 0-1.754-.208-2.479-.625a4.366 4.366 0 0 1-1.676-1.765c-.405-.761-.607-1.653-.607-2.675Zm20.106-4.869v9.773h-1.622v-1.444c-.31.499-.743.891-1.302 1.177a4.012 4.012 0 0 1-1.819.41c-.761 0-1.445-.155-2.051-.464a3.548 3.548 0 0 1-1.445-1.427c-.345-.63-.517-1.397-.517-2.3v-5.725h1.605v5.51c0 .964.244 1.707.731 2.23.488.511 1.154.767 1.998.767.868 0 1.551-.268 2.051-.803.499-.535.749-1.313.749-2.336v-5.368h1.622Zm4.363 1.587c.286-.558.69-.992 1.213-1.302.535-.309 1.183-.463 1.944-.463v1.676h-.428c-1.819 0-2.729.987-2.729 2.96v5.315h-1.622v-9.773h1.622v1.587Zm5.869-3.174c-.309 0-.571-.107-.785-.321a1.067 1.067 0 0 1-.321-.785c0-.309.107-.57.321-.784.214-.214.476-.321.785-.321a.99.99 0 0 1 .749.32c.214.215.321.476.321.785 0 .31-.107.57-.321.785a.99.99 0 0 1-.749.321Zm.784 1.587v9.773h-1.623v-9.773h1.623Zm4.746 1.338v5.76c0 .476.101.815.303 1.017.202.19.553.285 1.052.285h1.195v1.373h-1.462c-.904 0-1.582-.208-2.033-.624-.452-.416-.678-1.1-.678-2.051v-5.76h-1.266v-1.338h1.266v-2.46h1.623v2.46h2.55v1.338h-2.55Zm12.934-1.338-5.885 14.374h-1.677l1.926-4.708-3.941-9.666h1.801l3.068 7.918 3.032-7.918h1.676Zm-62.674 27.338v5.76c0 .476.101.814.303 1.017.202.19.553.285 1.052.285h1.195v1.373h-1.462c-.904 0-1.581-.208-2.033-.624-.452-.416-.678-1.1-.678-2.051v-5.76h-1.266v-1.338h1.266v-2.46h1.623v2.46h2.55v1.338h-2.55Zm13.434 3.174c0 .309-.018.636-.054.981h-7.811c.059.963.386 1.718.981 2.265.606.535 1.337.802 2.193.802.702 0 1.284-.16 1.748-.481a2.63 2.63 0 0 0 .999-1.32h1.747a4.243 4.243 0 0 1-1.569 2.301c-.785.582-1.76.874-2.925.874-.927 0-1.759-.208-2.496-.625a4.442 4.442 0 0 1-1.712-1.765c-.417-.773-.625-1.665-.625-2.675 0-1.011.202-1.897.607-2.657a4.215 4.215 0 0 1 1.694-1.748c.737-.416 1.581-.624 2.532-.624.928 0 1.748.202 2.461.606a4.117 4.117 0 0 1 1.641 1.676c.392.702.589 1.498.589 2.39Zm-1.677-.339c0-.618-.137-1.147-.41-1.587a2.58 2.58 0 0 0-1.123-1.017 3.353 3.353 0 0 0-1.552-.356c-.82 0-1.522.261-2.104.785-.571.523-.898 1.248-.981 2.175h6.17Zm7.279 5.761c-.75 0-1.421-.125-2.016-.375-.594-.261-1.064-.618-1.409-1.07a2.894 2.894 0 0 1-.57-1.587h1.676c.048.487.274.886.678 1.195.416.309.957.463 1.623.463.618 0 1.105-.136 1.462-.41.357-.273.535-.618.535-1.034 0-.428-.19-.743-.571-.945-.38-.214-.969-.422-1.765-.625-.725-.19-1.32-.38-1.784-.57a3.4 3.4 0 0 1-1.177-.874c-.321-.392-.481-.904-.481-1.534 0-.5.149-.957.446-1.373.297-.416.719-.743 1.266-.98.547-.25 1.171-.375 1.873-.375 1.081 0 1.955.273 2.621.82.666.547 1.023 1.296 1.07 2.247h-1.623c-.035-.511-.243-.921-.624-1.23-.369-.31-.868-.464-1.498-.464-.583 0-1.046.125-1.391.374-.345.25-.517.577-.517.981 0 .321.101.589.303.803.214.202.476.368.785.499.321.119.761.256 1.319.41.702.191 1.273.381 1.712.571.44.178.815.452 1.124.82.321.369.487.85.499 1.445 0 .535-.148 1.016-.446 1.444-.297.428-.719.767-1.266 1.017-.535.238-1.153.357-1.854.357Zm7.837-8.596v5.76c0 .476.101.814.303 1.017.202.19.553.285 1.052.285h1.195v1.373h-1.462c-.904 0-1.582-.208-2.033-.624-.452-.416-.678-1.1-.678-2.051v-5.76h-1.266v-1.338h1.266v-2.46h1.623v2.46h2.55v1.338h-2.55Zm5.355-2.925c-.31 0-.571-.107-.785-.321a1.067 1.067 0 0 1-.321-.785c0-.309.107-.57.321-.784.214-.214.475-.321.785-.321a.99.99 0 0 1 .749.32c.214.215.321.476.321.785 0 .31-.107.57-.321.785a.99.99 0 0 1-.749.321Zm.784 1.587v9.773h-1.623v-9.773h1.623Zm7.528-.178c1.189 0 2.152.362 2.889 1.088.737.713 1.106 1.747 1.106 3.103v5.76h-1.605v-5.528c0-.975-.244-1.718-.732-2.23-.487-.523-1.153-.784-1.997-.784-.856 0-1.54.267-2.051.802-.499.535-.749 1.314-.749 2.336v5.404h-1.623v-9.773h1.623v1.391c.321-.5.755-.885 1.302-1.159a4.123 4.123 0 0 1 1.837-.41Zm10.676.018c.844 0 1.581.184 2.211.553.642.368 1.118.832 1.427 1.39v-1.783h1.641v9.987c0 .892-.19 1.682-.571 2.372a4.04 4.04 0 0 1-1.641 1.641c-.701.392-1.521.588-2.461.588-1.284 0-2.354-.303-3.21-.909-.856-.607-1.361-1.433-1.516-2.479h1.605c.179.594.547 1.07 1.106 1.427.559.368 1.231.552 2.015.552.892 0 1.617-.279 2.176-.838.571-.559.856-1.343.856-2.354v-2.051c-.321.571-.796 1.046-1.427 1.427-.63.38-1.367.571-2.211.571a4.522 4.522 0 0 1-2.372-.642c-.701-.428-1.254-1.029-1.658-1.802-.405-.772-.607-1.652-.607-2.639 0-.999.202-1.873.607-2.622.404-.76.957-1.349 1.658-1.765a4.62 4.62 0 0 1 2.372-.624Zm3.638 5.029c0-.737-.149-1.379-.446-1.926a3.066 3.066 0 0 0-1.212-1.249 3.186 3.186 0 0 0-1.659-.445c-.606 0-1.159.142-1.659.428a3.103 3.103 0 0 0-1.194 1.248c-.298.547-.446 1.189-.446 1.926 0 .749.148 1.403.446 1.962.297.547.695.969 1.194 1.266.5.285 1.053.428 1.659.428.606 0 1.159-.143 1.659-.428a3.188 3.188 0 0 0 1.212-1.266c.297-.559.446-1.207.446-1.944Z" fill="#5F6578"/><path d="m395.693 128.276-73.308 42.152-73.308-42.152V43.979l73.308-42.152 73.308 42.152v84.297Z" fill="url(#c)" stroke="#EDEFF7" stroke-width="2"/><path d="M277.561 71.328c0 1.034-.357 1.896-1.07 2.586-.702.678-1.778 1.016-3.228 1.016h-2.39v5.19h-1.623V67.69h4.013c1.403 0 2.467.339 3.192 1.017.737.677 1.106 1.551 1.106 2.621Zm-4.298 2.265c.903 0 1.569-.196 1.997-.589.428-.392.642-.95.642-1.676 0-1.534-.88-2.3-2.639-2.3h-2.39v4.565h2.39Zm15.232 1.266c0 .31-.018.636-.054.981h-7.811c.059.963.386 1.718.981 2.265.606.535 1.337.802 2.193.802.702 0 1.284-.16 1.748-.481a2.63 2.63 0 0 0 .999-1.32h1.747a4.24 4.24 0 0 1-1.569 2.3c-.785.583-1.76.875-2.925.875-.927 0-1.759-.208-2.496-.625a4.453 4.453 0 0 1-1.713-1.765c-.416-.773-.624-1.665-.624-2.675 0-1.01.202-1.896.607-2.657a4.215 4.215 0 0 1 1.694-1.748c.737-.416 1.581-.624 2.532-.624.928 0 1.748.202 2.461.606a4.117 4.117 0 0 1 1.641 1.676c.392.702.589 1.498.589 2.39Zm-1.677-.339c0-.618-.137-1.147-.41-1.587a2.578 2.578 0 0 0-1.124-1.017 3.346 3.346 0 0 0-1.551-.356c-.82 0-1.522.261-2.104.785-.571.523-.898 1.248-.981 2.175h6.17Zm5.442-2.586a3.127 3.127 0 0 1 1.212-1.302c.535-.309 1.183-.463 1.944-.463v1.676h-.428c-1.819 0-2.728.987-2.728 2.96v5.315h-1.623v-9.773h1.623v1.587Zm9.007-.25h-2.051v8.436h-1.623v-8.435h-1.266v-1.338h1.266v-.695c0-1.094.279-1.89.838-2.39.571-.511 1.48-.767 2.729-.767v1.355c-.714 0-1.219.143-1.516.428-.286.274-.428.732-.428 1.374v.695h2.051v1.338Zm6.154 8.597c-.915 0-1.748-.208-2.497-.625a4.536 4.536 0 0 1-1.747-1.765c-.417-.773-.625-1.665-.625-2.675 0-.999.214-1.879.642-2.64a4.47 4.47 0 0 1 1.784-1.765c.749-.416 1.587-.624 2.514-.624.928 0 1.766.208 2.515.624a4.381 4.381 0 0 1 1.765 1.748c.44.76.66 1.646.66 2.657 0 1.01-.226 1.902-.677 2.675a4.593 4.593 0 0 1-1.802 1.765c-.76.417-1.605.625-2.532.625Zm0-1.427c.583 0 1.13-.137 1.641-.41.511-.274.921-.684 1.23-1.23.321-.548.482-1.213.482-1.998 0-.785-.155-1.45-.464-1.998-.309-.547-.713-.95-1.213-1.212a3.323 3.323 0 0 0-1.622-.41 3.36 3.36 0 0 0-1.641.41c-.488.261-.88.665-1.177 1.212-.297.547-.446 1.213-.446 1.998 0 .796.143 1.468.428 2.015.297.547.69.957 1.177 1.23a3.339 3.339 0 0 0 1.605.393Zm18.898-8.685c.761 0 1.438.16 2.033.481.594.31 1.064.78 1.409 1.41.344.63.517 1.396.517 2.3v5.76h-1.605v-5.528c0-.975-.244-1.718-.731-2.23-.476-.523-1.124-.784-1.944-.784-.845 0-1.516.273-2.016.82-.499.535-.749 1.314-.749 2.336v5.386h-1.605v-5.528c0-.975-.243-1.718-.731-2.23-.475-.523-1.123-.784-1.944-.784-.844 0-1.516.273-2.015.82-.499.535-.749 1.314-.749 2.336v5.386h-1.623v-9.773h1.623v1.409a3.222 3.222 0 0 1 1.284-1.177 3.97 3.97 0 0 1 1.801-.41c.821 0 1.546.184 2.176.553.63.368 1.1.91 1.409 1.623a3.203 3.203 0 0 1 1.355-1.605c.63-.38 1.332-.571 2.105-.571Zm6.015 5.029c0-.999.202-1.873.606-2.622.404-.76.957-1.349 1.658-1.765a4.623 4.623 0 0 1 2.372-.624c.856 0 1.599.184 2.23.553.63.368 1.099.832 1.408 1.39v-1.783h1.641v9.773h-1.641v-1.819c-.321.57-.802 1.046-1.444 1.427-.63.368-1.367.553-2.212.553a4.433 4.433 0 0 1-2.354-.642c-.701-.428-1.254-1.029-1.658-1.802-.404-.772-.606-1.652-.606-2.639Zm8.274.018c0-.737-.148-1.38-.445-1.926a3.076 3.076 0 0 0-1.213-1.249 3.181 3.181 0 0 0-1.659-.445c-.606 0-1.159.142-1.658.428a3.1 3.1 0 0 0-1.195 1.248c-.297.547-.446 1.189-.446 1.926 0 .749.149 1.403.446 1.962.297.547.695.969 1.195 1.266a3.282 3.282 0 0 0 1.658.428c.607 0 1.16-.143 1.659-.428a3.2 3.2 0 0 0 1.213-1.266c.297-.56.445-1.207.445-1.944Zm9.145-5.047c1.189 0 2.152.362 2.889 1.088.738.713 1.106 1.747 1.106 3.103v5.76h-1.605v-5.528c0-.975-.244-1.718-.731-2.23-.488-.523-1.153-.784-1.998-.784-.856 0-1.539.267-2.05.802-.5.535-.749 1.314-.749 2.337v5.403h-1.623v-9.773h1.623v1.391a3.24 3.24 0 0 1 1.301-1.159 4.126 4.126 0 0 1 1.837-.41Zm6.04 5.047c0-1.01.202-1.89.606-2.64.404-.76.963-1.349 1.676-1.765.726-.416 1.552-.624 2.479-.624 1.201 0 2.188.29 2.961.874.784.582 1.302 1.39 1.551 2.425h-1.747a2.5 2.5 0 0 0-.981-1.409c-.476-.345-1.07-.517-1.784-.517-.927 0-1.676.32-2.247.963-.57.63-.856 1.528-.856 2.693 0 1.177.286 2.086.856 2.728.571.642 1.32.963 2.247.963.714 0 1.308-.166 1.784-.499.475-.333.802-.808.981-1.427h1.747c-.261 1-.784 1.802-1.569 2.408-.785.594-1.766.892-2.943.892-.927 0-1.753-.208-2.479-.625a4.366 4.366 0 0 1-1.676-1.765c-.404-.761-.606-1.653-.606-2.675Zm20.356-.357c0 .31-.018.636-.054.981h-7.811c.059.963.386 1.718.981 2.265.606.535 1.337.802 2.193.802.702 0 1.284-.16 1.748-.481.476-.333.809-.773.999-1.32h1.747a4.24 4.24 0 0 1-1.569 2.3c-.785.583-1.76.875-2.925.875-.927 0-1.759-.208-2.496-.625a4.444 4.444 0 0 1-1.712-1.765c-.417-.773-.625-1.665-.625-2.675 0-1.01.202-1.896.607-2.657a4.215 4.215 0 0 1 1.694-1.748c.737-.416 1.581-.624 2.532-.624.928 0 1.748.202 2.461.606a4.117 4.117 0 0 1 1.641 1.676c.392.702.589 1.498.589 2.39Zm-1.677-.339c0-.618-.136-1.147-.41-1.587a2.58 2.58 0 0 0-1.123-1.017 3.353 3.353 0 0 0-1.552-.356c-.82 0-1.522.261-2.104.785-.571.523-.898 1.248-.981 2.175h6.17Zm-79.33 23.165v5.76c0 .476.101.814.303 1.017.202.19.553.285 1.052.285h1.195v1.373h-1.463c-.903 0-1.581-.208-2.033-.624-.451-.416-.677-1.1-.677-2.051v-5.76h-1.266v-1.338h1.266v-2.46h1.623v2.46h2.55v1.338h-2.55Zm13.433 3.174c0 .309-.018.636-.053.981h-7.812c.06.963.387 1.718.981 2.265.607.535 1.338.802 2.194.802.701 0 1.284-.16 1.747-.481.476-.333.809-.773.999-1.32h1.748a4.253 4.253 0 0 1-1.569 2.301c-.785.582-1.76.874-2.925.874-.928 0-1.76-.208-2.497-.625a4.448 4.448 0 0 1-1.712-1.765c-.416-.773-.624-1.665-.624-2.675 0-1.011.202-1.896.606-2.657a4.215 4.215 0 0 1 1.694-1.748c.738-.416 1.582-.624 2.533-.624.927 0 1.747.202 2.461.606a4.13 4.13 0 0 1 1.641 1.676c.392.702.588 1.498.588 2.39Zm-1.676-.339c0-.618-.137-1.147-.41-1.587a2.583 2.583 0 0 0-1.124-1.017 3.353 3.353 0 0 0-1.552-.356c-.82 0-1.521.261-2.104.785-.571.523-.898 1.248-.981 2.175h6.171Zm7.278 5.761c-.749 0-1.421-.125-2.015-.375-.595-.261-1.064-.618-1.409-1.07a2.895 2.895 0 0 1-.571-1.587h1.677c.047.487.273.886.677 1.195.416.309.957.463 1.623.463.618 0 1.106-.136 1.463-.41.356-.273.535-.618.535-1.034 0-.428-.191-.743-.571-.945-.381-.214-.969-.422-1.766-.625-.725-.19-1.319-.38-1.783-.57a3.39 3.39 0 0 1-1.177-.874c-.321-.392-.482-.904-.482-1.534 0-.5.149-.957.446-1.373.297-.416.72-.743 1.266-.98.547-.25 1.172-.375 1.873-.375 1.082 0 1.956.273 2.622.82.665.547 1.022 1.296 1.07 2.247h-1.623c-.036-.511-.244-.921-.624-1.23-.369-.31-.868-.464-1.499-.464-.582 0-1.046.125-1.391.374-.344.25-.517.577-.517.981 0 .321.101.589.303.803.214.202.476.368.785.499.321.119.761.256 1.32.41.701.191 1.272.381 1.712.571.44.178.814.452 1.123.82.321.369.488.85.5 1.445 0 .535-.149 1.016-.446 1.444-.297.428-.719.767-1.266 1.017-.535.238-1.154.357-1.855.357Zm7.837-8.596v5.76c0 .476.101.814.303 1.017.203.19.553.285 1.053.285h1.195v1.373h-1.463c-.903 0-1.581-.208-2.033-.624-.452-.416-.678-1.1-.678-2.051v-5.76h-1.266v-1.338h1.266v-2.46h1.623v2.46h2.551v1.338h-2.551Zm5.355-2.925c-.309 0-.571-.107-.785-.321a1.067 1.067 0 0 1-.321-.785c0-.309.107-.57.321-.784.214-.214.476-.321.785-.321a.99.99 0 0 1 .749.32c.214.215.321.476.321.785 0 .31-.107.57-.321.785a.99.99 0 0 1-.749.321Zm.785 1.587v9.773h-1.623v-9.773h1.623Zm7.527-.178c1.189 0 2.152.362 2.889 1.088.737.713 1.106 1.747 1.106 3.103v5.76h-1.605v-5.528c0-.975-.244-1.718-.731-2.23-.488-.523-1.153-.784-1.998-.784-.856 0-1.539.267-2.05.802-.5.535-.749 1.314-.749 2.336v5.404h-1.623v-9.773h1.623v1.391c.321-.5.754-.885 1.301-1.159a4.123 4.123 0 0 1 1.837-.41Zm10.676.018c.845 0 1.582.184 2.212.553.642.368 1.117.832 1.427 1.39v-1.783h1.64v9.987c0 .892-.19 1.682-.57 2.372a4.052 4.052 0 0 1-1.641 1.641c-.702.392-1.522.588-2.461.588-1.284 0-2.354-.303-3.21-.909-.856-.607-1.362-1.433-1.516-2.479h1.605c.178.594.547 1.07 1.106 1.427.558.368 1.23.552 2.015.552.892 0 1.617-.279 2.176-.838.57-.559.856-1.343.856-2.354v-2.051c-.321.571-.797 1.046-1.427 1.427-.63.38-1.367.571-2.212.571a4.52 4.52 0 0 1-2.371-.642c-.702-.428-1.255-1.029-1.659-1.802-.404-.772-.606-1.652-.606-2.639 0-.999.202-1.873.606-2.622.404-.76.957-1.349 1.659-1.765a4.62 4.62 0 0 1 2.371-.624Zm3.639 5.029c0-.737-.149-1.38-.446-1.926a3.07 3.07 0 0 0-1.213-1.249 3.181 3.181 0 0 0-1.659-.445c-.606 0-1.159.142-1.658.428a3.106 3.106 0 0 0-1.195 1.248c-.297.547-.446 1.189-.446 1.926 0 .749.149 1.403.446 1.962a3.23 3.23 0 0 0 1.195 1.266 3.285 3.285 0 0 0 1.658.428c.607 0 1.16-.143 1.659-.428a3.19 3.19 0 0 0 1.213-1.266c.297-.559.446-1.207.446-1.944Z" fill="#5F6578"/><path d="m147.615 271.405-73.308 42.152L1 271.405v-84.296l73.308-42.152 73.307 42.152v84.296Z" fill="url(#d)" stroke="#EDEFF7" stroke-width="2"/><path d="M66.68 233.86h-5.42l-1 2.765h-1.712l4.495-12.359h1.872l4.476 12.359H67.68l-.998-2.765Zm-.463-1.319-2.247-6.278-2.247 6.278h4.494Zm6.756-9.114v13.198H71.35v-13.198h1.623Zm4.389 0v13.198h-1.623v-13.198h1.623Zm11.183 3.425-5.885 14.374h-1.676l1.926-4.708-3.941-9.666h1.8l3.068 7.918 3.032-7.918h1.676Z" fill="#5F6578"/><path d="m229.615 414.534-73.307 42.152L83 414.534v-84.296l73.308-42.152 73.307 42.152v84.296Z" fill="url(#e)" stroke="#EDEFF7" stroke-width="2"/><path d="M122.625 352.462v1.32h-3.388v11.11h-1.623v-11.11h-3.406v-1.32h8.417Zm10.915 7.169c0 .309-.018.636-.054.981h-7.811c.059.963.386 1.718.981 2.265.606.535 1.337.802 2.193.802.702 0 1.285-.16 1.748-.481.476-.333.809-.773.999-1.32h1.748a4.25 4.25 0 0 1-1.57 2.301c-.784.582-1.759.874-2.925.874-.927 0-1.759-.208-2.496-.625a4.442 4.442 0 0 1-1.712-1.765c-.416-.773-.624-1.665-.624-2.675 0-1.011.202-1.897.606-2.657a4.213 4.213 0 0 1 1.694-1.748c.737-.416 1.581-.624 2.532-.624.928 0 1.748.202 2.462.606.713.404 1.26.963 1.64 1.676.393.702.589 1.498.589 2.39Zm-1.677-.339c0-.618-.136-1.147-.41-1.587a2.573 2.573 0 0 0-1.123-1.016 3.35 3.35 0 0 0-1.552-.357c-.82 0-1.522.261-2.104.785-.571.523-.898 1.248-.981 2.175h6.17Zm7.279 5.761c-.749 0-1.421-.125-2.016-.375-.594-.261-1.064-.618-1.408-1.07a2.895 2.895 0 0 1-.571-1.587h1.676c.048.487.274.886.678 1.195.416.309.957.463 1.623.463.618 0 1.106-.136 1.462-.41.357-.273.535-.618.535-1.034 0-.428-.19-.743-.57-.945-.381-.214-.969-.422-1.766-.625a14.51 14.51 0 0 1-1.783-.57 3.38 3.38 0 0 1-1.177-.874c-.321-.392-.482-.904-.482-1.534 0-.499.149-.957.446-1.373.297-.416.719-.743 1.266-.981.547-.25 1.171-.374 1.873-.374 1.082 0 1.955.273 2.621.82.666.547 1.023 1.296 1.07 2.247h-1.623c-.035-.511-.243-.921-.624-1.23-.368-.31-.868-.464-1.498-.464-.582 0-1.046.125-1.391.374-.345.25-.517.577-.517.981 0 .321.101.589.303.803.214.202.476.368.785.499.321.119.761.256 1.32.41.701.19 1.272.381 1.712.571.439.178.814.452 1.123.82.321.369.488.85.499 1.445 0 .535-.148 1.016-.445 1.444-.298.428-.72.767-1.267 1.017-.535.238-1.153.357-1.854.357Zm7.837-8.596v5.76c0 .476.101.814.303 1.017.202.19.553.285 1.052.285h1.195v1.373h-1.462c-.904 0-1.581-.208-2.033-.624-.452-.416-.678-1.1-.678-2.051v-5.76h-1.266v-1.338h1.266v-2.461h1.623v2.461h2.55v1.338h-2.55Zm8.665 3.513c0-.999.202-1.873.606-2.622a4.398 4.398 0 0 1 1.659-1.765c.713-.416 1.51-.624 2.389-.624.761 0 1.469.178 2.123.535.653.344 1.153.802 1.498 1.373v-5.172h1.64v13.197h-1.64v-1.837c-.321.583-.797 1.064-1.427 1.445-.63.368-1.367.553-2.211.553a4.522 4.522 0 0 1-2.372-.642c-.702-.428-1.255-1.029-1.659-1.802-.404-.772-.606-1.652-.606-2.639Zm8.275.018c0-.737-.149-1.379-.446-1.926a3.075 3.075 0 0 0-1.213-1.249 3.181 3.181 0 0 0-1.658-.445c-.607 0-1.16.142-1.659.428a3.102 3.102 0 0 0-1.195 1.248c-.297.547-.446 1.189-.446 1.926 0 .749.149 1.403.446 1.962a3.23 3.23 0 0 0 1.195 1.266 3.286 3.286 0 0 0 1.659.428c.606 0 1.159-.143 1.658-.428a3.19 3.19 0 0 0 1.213-1.266c.297-.559.446-1.207.446-1.944Zm3.776-.018c0-.999.203-1.873.607-2.622a4.402 4.402 0 0 1 1.658-1.765 4.624 4.624 0 0 1 2.372-.624c.856 0 1.599.184 2.23.552.63.369 1.099.833 1.408 1.392v-1.784h1.641v9.773h-1.641v-1.819c-.321.571-.802 1.046-1.444 1.427-.63.368-1.367.553-2.212.553a4.433 4.433 0 0 1-2.354-.642c-.701-.428-1.254-1.029-1.658-1.802-.404-.772-.607-1.652-.607-2.639Zm8.275.018c0-.737-.148-1.379-.445-1.926a3.081 3.081 0 0 0-1.213-1.249 3.182 3.182 0 0 0-1.659-.445c-.606 0-1.159.142-1.658.428-.5.285-.898.701-1.195 1.248-.297.547-.446 1.189-.446 1.926 0 .749.149 1.403.446 1.962.297.547.695.969 1.195 1.266a3.285 3.285 0 0 0 1.658.428c.607 0 1.16-.143 1.659-.428a3.197 3.197 0 0 0 1.213-1.266c.297-.559.445-1.207.445-1.944Zm6.363-3.531v5.76c0 .476.101.814.303 1.017.202.19.553.285 1.053.285h1.194v1.373h-1.462c-.904 0-1.581-.208-2.033-.624-.452-.416-.678-1.1-.678-2.051v-5.76h-1.266v-1.338h1.266v-2.461h1.623v2.461h2.55v1.338h-2.55Zm3.91 3.513c0-.999.203-1.873.607-2.622a4.402 4.402 0 0 1 1.658-1.765 4.624 4.624 0 0 1 2.372-.624c.856 0 1.599.184 2.229.552.631.369 1.1.833 1.409 1.392v-1.784h1.641v9.773h-1.641v-1.819c-.321.571-.802 1.046-1.444 1.427-.63.368-1.368.553-2.212.553a4.431 4.431 0 0 1-2.354-.642c-.701-.428-1.254-1.029-1.658-1.802-.404-.772-.607-1.652-.607-2.639Zm8.275.018c0-.737-.148-1.379-.446-1.926a3.073 3.073 0 0 0-1.212-1.249 3.185 3.185 0 0 0-1.659-.445c-.606 0-1.159.142-1.658.428-.5.285-.898.701-1.195 1.248-.297.547-.446 1.189-.446 1.926 0 .749.149 1.403.446 1.962.297.547.695.969 1.195 1.266a3.285 3.285 0 0 0 1.658.428c.607 0 1.159-.143 1.659-.428a3.188 3.188 0 0 0 1.212-1.266c.298-.559.446-1.207.446-1.944Zm-87.497 20.953c.761 0 1.439.16 2.033.481.594.309 1.064.779 1.409 1.409s.517 1.397.517 2.301v5.76h-1.605v-5.528c0-.975-.244-1.718-.731-2.23-.476-.523-1.124-.784-1.944-.784-.844 0-1.516.273-2.015.82-.5.535-.749 1.314-.749 2.336v5.386h-1.605v-5.528c0-.975-.244-1.718-.732-2.23-.475-.523-1.123-.784-1.944-.784-.844 0-1.515.273-2.015.82-.499.535-.749 1.314-.749 2.336v5.386h-1.623v-9.773h1.623v1.409a3.22 3.22 0 0 1 1.284-1.177 3.976 3.976 0 0 1 1.802-.41c.82 0 1.545.184 2.175.553.63.368 1.1.909 1.409 1.623a3.208 3.208 0 0 1 1.356-1.606c.63-.38 1.331-.57 2.104-.57Zm6.015 5.029c0-.999.202-1.873.606-2.622a4.398 4.398 0 0 1 1.659-1.765 4.621 4.621 0 0 1 2.372-.624c.856 0 1.599.184 2.229.552.63.369 1.1.833 1.409 1.392v-1.784h1.64v9.773h-1.64v-1.819c-.321.571-.803 1.046-1.445 1.427-.63.368-1.367.553-2.211.553-.868 0-1.653-.214-2.354-.642-.702-.428-1.255-1.029-1.659-1.802-.404-.772-.606-1.652-.606-2.639Zm8.275.018c0-.737-.149-1.379-.446-1.926a3.075 3.075 0 0 0-1.213-1.249 3.181 3.181 0 0 0-1.658-.445c-.607 0-1.16.142-1.659.428a3.102 3.102 0 0 0-1.195 1.248c-.297.547-.446 1.189-.446 1.926 0 .749.149 1.403.446 1.962a3.23 3.23 0 0 0 1.195 1.266 3.286 3.286 0 0 0 1.659.428c.606 0 1.159-.143 1.658-.428a3.19 3.19 0 0 0 1.213-1.266c.297-.559.446-1.207.446-1.944Zm9.145-5.047c1.188 0 2.152.362 2.889 1.088.737.713 1.105 1.747 1.105 3.103v5.76h-1.605v-5.528c0-.975-.243-1.718-.731-2.23-.487-.523-1.153-.784-1.997-.784-.856 0-1.54.267-2.051.802-.5.535-.749 1.314-.749 2.336v5.404h-1.623v-9.773h1.623v1.391a3.234 3.234 0 0 1 1.302-1.159 4.125 4.125 0 0 1 1.837-.41Zm15.562 4.69c0 .309-.018.636-.053.981h-7.811c.059.963.386 1.718.98 2.265.607.535 1.338.802 2.194.802.701 0 1.284-.16 1.748-.481.475-.333.808-.773.998-1.32h1.748a4.248 4.248 0 0 1-1.569 2.301c-.785.582-1.76.874-2.925.874-.927 0-1.76-.208-2.497-.625a4.448 4.448 0 0 1-1.712-1.765c-.416-.773-.624-1.665-.624-2.675 0-1.011.202-1.897.606-2.657a4.215 4.215 0 0 1 1.695-1.748c.737-.416 1.581-.624 2.532-.624.927 0 1.748.202 2.461.606a4.13 4.13 0 0 1 1.641 1.676c.392.702.588 1.498.588 2.39Zm-1.676-.339c0-.618-.137-1.147-.41-1.587a2.575 2.575 0 0 0-1.124-1.016 3.348 3.348 0 0 0-1.551-.357c-.821 0-1.522.261-2.105.785-.57.523-.897 1.248-.981 2.175h6.171Zm7.849-4.333c.844 0 1.581.184 2.211.552.642.369 1.118.833 1.427 1.392v-1.784h1.641v9.987c0 .892-.191 1.682-.571 2.372a4.04 4.04 0 0 1-1.641 1.641c-.701.392-1.522.588-2.461.588-1.284 0-2.354-.303-3.21-.909-.856-.607-1.361-1.433-1.516-2.479h1.605c.179.594.547 1.07 1.106 1.427.559.368 1.231.552 2.015.552.892 0 1.617-.279 2.176-.838.571-.559.856-1.343.856-2.354v-2.051c-.321.571-.797 1.046-1.427 1.427-.63.38-1.367.571-2.211.571a4.522 4.522 0 0 1-2.372-.642c-.702-.428-1.254-1.029-1.659-1.802-.404-.772-.606-1.652-.606-2.639 0-.999.202-1.873.606-2.622.405-.761.957-1.349 1.659-1.765a4.621 4.621 0 0 1 2.372-.624Zm3.638 5.029c0-.737-.149-1.379-.446-1.926a3.069 3.069 0 0 0-1.213-1.249 3.181 3.181 0 0 0-1.658-.445c-.606 0-1.159.142-1.659.428a3.109 3.109 0 0 0-1.195 1.248c-.297.547-.445 1.189-.445 1.926 0 .749.148 1.403.445 1.962.298.547.696.969 1.195 1.266.5.285 1.053.428 1.659.428.606 0 1.159-.143 1.658-.428a3.183 3.183 0 0 0 1.213-1.266c.297-.559.446-1.207.446-1.944Zm13.3-.357c0 .309-.018.636-.053.981h-7.812c.06.963.387 1.718.981 2.265.607.535 1.338.802 2.194.802.701 0 1.284-.16 1.748-.481.475-.333.808-.773.998-1.32h1.748a4.253 4.253 0 0 1-1.569 2.301c-.785.582-1.76.874-2.925.874-.928 0-1.76-.208-2.497-.625a4.448 4.448 0 0 1-1.712-1.765c-.416-.773-.624-1.665-.624-2.675 0-1.011.202-1.897.606-2.657a4.213 4.213 0 0 1 1.694-1.748c.738-.416 1.582-.624 2.533-.624.927 0 1.748.202 2.461.606a4.13 4.13 0 0 1 1.641 1.676c.392.702.588 1.498.588 2.39Zm-1.676-.339c0-.618-.137-1.147-.41-1.587a2.575 2.575 0 0 0-1.124-1.016 3.35 3.35 0 0 0-1.552-.357c-.82 0-1.521.261-2.104.785-.571.523-.898 1.248-.981 2.175h6.171Zm15.571-4.351c.761 0 1.438.16 2.033.481.594.309 1.064.779 1.409 1.409.344.63.517 1.397.517 2.301v5.76h-1.605v-5.528c0-.975-.244-1.718-.731-2.23-.476-.523-1.124-.784-1.944-.784-.844 0-1.516.273-2.015.82-.5.535-.75 1.314-.75 2.336v5.386h-1.605v-5.528c0-.975-.243-1.718-.731-2.23-.475-.523-1.123-.784-1.944-.784-.844 0-1.516.273-2.015.82-.499.535-.749 1.314-.749 2.336v5.386h-1.623v-9.773h1.623v1.409a3.22 3.22 0 0 1 1.284-1.177 3.975 3.975 0 0 1 1.801-.41c.821 0 1.546.184 2.176.553.63.368 1.1.909 1.409 1.623a3.206 3.206 0 0 1 1.355-1.606c.63-.38 1.332-.57 2.105-.57Zm15.538 4.69c0 .309-.018.636-.054.981h-7.811c.06.963.387 1.718.981 2.265.606.535 1.338.802 2.194.802.701 0 1.284-.16 1.747-.481.476-.333.809-.773.999-1.32h1.748a4.25 4.25 0 0 1-1.57 2.301c-.784.582-1.759.874-2.924.874-.928 0-1.76-.208-2.497-.625a4.448 4.448 0 0 1-1.712-1.765c-.416-.773-.624-1.665-.624-2.675 0-1.011.202-1.897.606-2.657a4.213 4.213 0 0 1 1.694-1.748c.737-.416 1.581-.624 2.533-.624.927 0 1.747.202 2.461.606.713.404 1.26.963 1.64 1.676.393.702.589 1.498.589 2.39Zm-1.676-.339c0-.618-.137-1.147-.411-1.587a2.573 2.573 0 0 0-1.123-1.016 3.35 3.35 0 0 0-1.552-.357c-.82 0-1.522.261-2.104.785-.571.523-.898 1.248-.981 2.175h6.171Zm8.58-4.351c1.189 0 2.152.362 2.889 1.088.737.713 1.105 1.747 1.105 3.103v5.76h-1.605v-5.528c0-.975-.243-1.718-.731-2.23-.487-.523-1.153-.784-1.997-.784-.856 0-1.54.267-2.051.802-.499.535-.749 1.314-.749 2.336v5.404h-1.623v-9.773h1.623v1.391a3.234 3.234 0 0 1 1.302-1.159 4.129 4.129 0 0 1 1.837-.41Zm8.625 1.516v5.76c0 .476.101.814.303 1.017.202.19.553.285 1.052.285h1.195v1.373h-1.462c-.904 0-1.581-.208-2.033-.624-.452-.416-.678-1.1-.678-2.051v-5.76h-1.266v-1.338h1.266v-2.461h1.623v2.461h2.55v1.338h-2.55Z" fill="#5F6578"/><path d="m396.615 414.602-73.307 42.152L250 414.602v-84.297l73.308-42.151 73.307 42.151v84.297Z" fill="url(#f)" stroke="#EDEFF7" stroke-width="2"/><path d="M306.69 352.53c1.355 0 2.526.255 3.513.767.999.499 1.759 1.218 2.283 2.158.535.939.802 2.044.802 3.317 0 1.272-.267 2.377-.802 3.317-.524.927-1.284 1.64-2.283 2.14-.987.487-2.158.731-3.513.731h-3.87v-12.43h3.87Zm0 11.092c1.605 0 2.829-.422 3.673-1.266.845-.856 1.267-2.051 1.267-3.584 0-1.546-.428-2.753-1.284-3.621-.845-.868-2.063-1.302-3.656-1.302h-2.247v9.773h2.247Zm8.132-3.584c0-.999.203-1.873.607-2.622a4.402 4.402 0 0 1 1.658-1.765 4.624 4.624 0 0 1 2.372-.624c.856 0 1.599.184 2.229.552.631.369 1.1.833 1.409 1.391v-1.783h1.641v9.773h-1.641v-1.819c-.321.571-.802 1.046-1.444 1.427-.63.368-1.368.552-2.212.552a4.431 4.431 0 0 1-2.354-.642c-.701-.428-1.254-1.028-1.658-1.801-.404-.773-.607-1.652-.607-2.639Zm8.275.018c0-.737-.148-1.379-.446-1.926a3.073 3.073 0 0 0-1.212-1.249 3.186 3.186 0 0 0-1.659-.446c-.606 0-1.159.143-1.658.428-.5.286-.898.702-1.195 1.249-.297.547-.446 1.189-.446 1.926 0 .749.149 1.403.446 1.962a3.23 3.23 0 0 0 1.195 1.266 3.285 3.285 0 0 0 1.658.428c.607 0 1.159-.143 1.659-.428.511-.297.915-.72 1.212-1.266.298-.559.446-1.207.446-1.944Zm6.363-3.531v5.76c0 .475.101.814.303 1.016.202.191.553.286 1.052.286h1.195v1.373h-1.462c-.904 0-1.581-.208-2.033-.624-.452-.416-.678-1.1-.678-2.051v-5.76h-1.266v-1.338h1.266v-2.461h1.623v2.461h2.55v1.338h-2.55Zm3.91 3.513c0-.999.202-1.873.607-2.622a4.402 4.402 0 0 1 1.658-1.765 4.624 4.624 0 0 1 2.372-.624c.856 0 1.599.184 2.229.552.63.369 1.1.833 1.409 1.391v-1.783h1.641v9.773h-1.641v-1.819c-.321.571-.802 1.046-1.444 1.427-.63.368-1.368.552-2.212.552a4.431 4.431 0 0 1-2.354-.642c-.701-.428-1.254-1.028-1.658-1.801-.405-.773-.607-1.652-.607-2.639Zm8.275.018c0-.737-.148-1.379-.446-1.926a3.073 3.073 0 0 0-1.212-1.249 3.188 3.188 0 0 0-1.659-.446c-.606 0-1.159.143-1.658.428-.5.286-.898.702-1.195 1.249-.298.547-.446 1.189-.446 1.926 0 .749.148 1.403.446 1.962a3.23 3.23 0 0 0 1.195 1.266 3.285 3.285 0 0 0 1.658.428c.606 0 1.159-.143 1.659-.428.511-.297.915-.72 1.212-1.266.298-.559.446-1.207.446-1.944Zm-48.244 25.982c0-.999.202-1.873.606-2.622a4.398 4.398 0 0 1 1.659-1.765c.713-.416 1.51-.624 2.39-.624.844 0 1.581.19 2.211.57.642.369 1.112.826 1.409 1.373v-1.783h1.641v14.41h-1.641v-6.438c-.309.547-.785 1.01-1.427 1.391-.642.38-1.391.57-2.247.57a4.396 4.396 0 0 1-2.336-.642c-.702-.428-1.255-1.028-1.659-1.801-.404-.773-.606-1.652-.606-2.639Zm8.275.018c0-.737-.149-1.379-.446-1.926a3.075 3.075 0 0 0-1.213-1.249 3.182 3.182 0 0 0-1.658-.446c-.607 0-1.16.143-1.659.428a3.118 3.118 0 0 0-1.195 1.249c-.297.547-.446 1.189-.446 1.926 0 .749.149 1.403.446 1.962.298.546.696.969 1.195 1.266a3.286 3.286 0 0 0 1.659.428c.606 0 1.159-.143 1.658-.428.511-.297.916-.72 1.213-1.266.297-.559.446-1.207.446-1.944Zm13.05-4.869v9.773h-1.623v-1.445c-.309.5-.743.892-1.301 1.177a4.007 4.007 0 0 1-1.82.411c-.76 0-1.444-.155-2.05-.464a3.55 3.55 0 0 1-1.445-1.427c-.345-.63-.517-1.397-.517-2.3v-5.725h1.605v5.511c0 .963.244 1.706.731 2.229.488.511 1.153.767 1.997.767.868 0 1.552-.268 2.051-.803.5-.535.749-1.314.749-2.336v-5.368h1.623Zm2.134 4.851c0-.999.202-1.873.606-2.622.405-.761.957-1.349 1.659-1.765a4.621 4.621 0 0 1 2.372-.624c.856 0 1.599.184 2.229.552.63.369 1.1.833 1.409 1.391v-1.783h1.641v9.773h-1.641v-1.819c-.321.571-.803 1.046-1.445 1.427-.63.368-1.367.552-2.211.552-.868 0-1.653-.214-2.354-.642-.702-.428-1.254-1.028-1.659-1.801-.404-.773-.606-1.652-.606-2.639Zm8.275.018c0-.737-.149-1.379-.446-1.926a3.069 3.069 0 0 0-1.213-1.249 3.182 3.182 0 0 0-1.658-.446c-.606 0-1.159.143-1.659.428a3.118 3.118 0 0 0-1.195 1.249c-.297.547-.445 1.189-.445 1.926 0 .749.148 1.403.445 1.962.298.546.696.969 1.195 1.266.5.285 1.053.428 1.659.428.606 0 1.159-.143 1.658-.428a3.19 3.19 0 0 0 1.213-1.266c.297-.559.446-1.207.446-1.944Zm6.006-8.293v13.197h-1.623v-13.197h1.623Zm3.604 1.837c-.309 0-.571-.107-.785-.321a1.068 1.068 0 0 1-.321-.785c0-.309.107-.571.321-.785.214-.214.476-.321.785-.321a.99.99 0 0 1 .749.321c.214.214.321.476.321.785 0 .309-.107.571-.321.785a.99.99 0 0 1-.749.321Zm.785 1.587v9.773h-1.623v-9.773h1.623Zm4.745 1.338v5.76c0 .475.101.814.304 1.016.202.191.552.286 1.052.286h1.195v1.373h-1.463c-.903 0-1.581-.208-2.033-.624-.452-.416-.678-1.1-.678-2.051v-5.76h-1.266v-1.338h1.266v-2.461h1.623v2.461h2.551v1.338h-2.551Zm12.934-1.338-5.885 14.374h-1.676l1.926-4.708-3.941-9.666h1.801l3.067 7.918 3.032-7.918h1.676Z" fill="#5F6578"/><path d="m479.615 272.602-73.307 42.152L333 272.602v-84.297l73.308-42.151 73.307 42.151v84.297Z" fill="url(#g)" stroke="#EDEFF7" stroke-width="2"/><path d="M396.487 210.53v1.319h-3.389v11.111h-1.623v-11.111h-3.406v-1.319h8.418Zm10.914 7.169c0 .309-.018.636-.053.981h-7.812c.06.963.387 1.718.981 2.265.607.535 1.338.802 2.194.802.701 0 1.284-.16 1.748-.481.475-.333.808-.773.998-1.32h1.748a4.253 4.253 0 0 1-1.569 2.301c-.785.582-1.76.873-2.925.873-.928 0-1.76-.208-2.497-.624a4.448 4.448 0 0 1-1.712-1.765c-.416-.773-.624-1.665-.624-2.675 0-1.011.202-1.897.606-2.658a4.21 4.21 0 0 1 1.694-1.747c.738-.416 1.582-.624 2.533-.624.927 0 1.748.202 2.461.606a4.13 4.13 0 0 1 1.641 1.676c.392.702.588 1.498.588 2.39Zm-1.676-.339c0-.618-.137-1.147-.41-1.587a2.584 2.584 0 0 0-1.124-1.017 3.361 3.361 0 0 0-1.552-.356c-.82 0-1.521.261-2.104.784-.571.524-.898 1.249-.981 2.176h6.171Zm7.278 5.76c-.749 0-1.421-.124-2.015-.374-.595-.262-1.064-.618-1.409-1.07a2.895 2.895 0 0 1-.571-1.587h1.677c.047.487.273.885.677 1.195.416.309.957.463 1.623.463.618 0 1.106-.136 1.463-.41.356-.273.535-.618.535-1.034 0-.428-.191-.743-.571-.945-.381-.214-.969-.423-1.766-.625-.725-.19-1.319-.38-1.783-.57a3.39 3.39 0 0 1-1.177-.874c-.321-.393-.482-.904-.482-1.534 0-.499.149-.957.446-1.373.298-.416.72-.743 1.266-.981.547-.25 1.172-.374 1.873-.374 1.082 0 1.956.273 2.622.82.665.547 1.022 1.296 1.07 2.247h-1.623c-.036-.511-.244-.921-.624-1.231-.369-.309-.868-.463-1.498-.463-.583 0-1.047.125-1.392.374-.344.25-.517.577-.517.981 0 .321.101.589.303.803.214.202.476.368.785.499.321.119.761.256 1.32.41.701.19 1.272.381 1.712.571.44.178.814.452 1.123.82.321.369.488.85.5 1.445 0 .535-.149 1.016-.446 1.444-.297.428-.719.767-1.266 1.017-.535.238-1.153.356-1.855.356Zm7.837-8.595v5.76c0 .475.101.814.304 1.016.202.191.552.286 1.052.286h1.195v1.373h-1.463c-.903 0-1.581-.208-2.033-.624-.452-.416-.678-1.1-.678-2.051v-5.76h-1.266v-1.338h1.266v-2.461h1.623v2.461h2.551v1.338h-2.551Zm-67.094 29.513c0-.999.202-1.873.606-2.622.405-.761.957-1.349 1.659-1.765a4.621 4.621 0 0 1 2.372-.624c.856 0 1.599.184 2.229.552.63.369 1.1.833 1.409 1.391v-1.783h1.641v9.773h-1.641v-1.819c-.321.571-.803 1.046-1.445 1.427-.63.368-1.367.552-2.211.552-.868 0-1.653-.214-2.354-.642-.702-.428-1.254-1.028-1.659-1.801-.404-.773-.606-1.652-.606-2.639Zm8.275.018c0-.737-.149-1.379-.446-1.926a3.069 3.069 0 0 0-1.213-1.249 3.182 3.182 0 0 0-1.658-.446c-.606 0-1.159.143-1.659.428a3.118 3.118 0 0 0-1.195 1.249c-.297.547-.445 1.189-.445 1.926 0 .749.148 1.403.445 1.962.298.546.696.969 1.195 1.266.5.285 1.053.428 1.659.428.606 0 1.159-.143 1.658-.428a3.19 3.19 0 0 0 1.213-1.266c.297-.559.446-1.207.446-1.944Zm13.05-4.869v9.773h-1.622v-1.445c-.31.5-.744.892-1.302 1.177a4.006 4.006 0 0 1-1.819.411c-.761 0-1.445-.155-2.051-.464a3.55 3.55 0 0 1-1.445-1.427c-.345-.63-.517-1.397-.517-2.3v-5.725h1.605v5.511c0 .963.244 1.706.731 2.229.488.511 1.154.767 1.998.767.868 0 1.551-.268 2.051-.803.499-.535.749-1.314.749-2.336v-5.368h1.622Zm4.72 1.338v5.76c0 .475.101.814.303 1.016.202.191.553.286 1.053.286h1.194v1.373h-1.462c-.904 0-1.581-.208-2.033-.624-.452-.416-.678-1.1-.678-2.051v-5.76h-1.266v-1.338h1.266v-2.461h1.623v2.461h2.55v1.338h-2.55Zm8.779 8.595c-.915 0-1.748-.208-2.497-.624a4.533 4.533 0 0 1-1.747-1.765c-.417-.773-.625-1.665-.625-2.675 0-.999.214-1.879.642-2.64a4.466 4.466 0 0 1 1.784-1.765c.749-.416 1.587-.624 2.514-.624.928 0 1.766.208 2.515.624a4.377 4.377 0 0 1 1.765 1.747c.44.761.66 1.647.66 2.658 0 1.01-.226 1.902-.677 2.675a4.59 4.59 0 0 1-1.802 1.765c-.761.416-1.605.624-2.532.624Zm0-1.426c.583 0 1.129-.137 1.641-.41a3.067 3.067 0 0 0 1.23-1.231c.321-.547.482-1.213.482-1.997 0-.785-.155-1.451-.464-1.998-.309-.547-.713-.951-1.213-1.212a3.318 3.318 0 0 0-1.623-.411c-.594 0-1.141.137-1.64.411-.488.261-.88.665-1.177 1.212-.297.547-.446 1.213-.446 1.998 0 .796.143 1.468.428 2.015.297.547.689.957 1.177 1.23a3.333 3.333 0 0 0 1.605.393Zm18.898-8.685c.76 0 1.438.16 2.033.481.594.309 1.064.779 1.409 1.409.344.63.517 1.397.517 2.301v5.76h-1.605v-5.529c0-.974-.244-1.718-.732-2.229-.475-.523-1.123-.784-1.943-.784-.845 0-1.516.273-2.016.82-.499.535-.749 1.314-.749 2.336v5.386h-1.605v-5.529c0-.974-.243-1.718-.731-2.229-.475-.523-1.123-.784-1.944-.784-.844 0-1.516.273-2.015.82-.499.535-.749 1.314-.749 2.336v5.386h-1.623v-9.773h1.623v1.409a3.22 3.22 0 0 1 1.284-1.177 3.963 3.963 0 0 1 1.801-.41c.821 0 1.546.184 2.176.553.63.368 1.1.909 1.409 1.622a3.208 3.208 0 0 1 1.355-1.605c.63-.38 1.332-.57 2.105-.57Zm6.014 5.029c0-.999.203-1.873.607-2.622a4.402 4.402 0 0 1 1.658-1.765 4.624 4.624 0 0 1 2.372-.624c.856 0 1.599.184 2.23.552.63.369 1.099.833 1.408 1.391v-1.783h1.641v9.773h-1.641v-1.819c-.321.571-.802 1.046-1.444 1.427-.63.368-1.367.552-2.212.552a4.433 4.433 0 0 1-2.354-.642c-.701-.428-1.254-1.028-1.658-1.801-.404-.773-.607-1.652-.607-2.639Zm8.275.018c0-.737-.148-1.379-.445-1.926a3.081 3.081 0 0 0-1.213-1.249 3.186 3.186 0 0 0-1.659-.446c-.606 0-1.159.143-1.658.428-.5.286-.898.702-1.195 1.249-.297.547-.446 1.189-.446 1.926 0 .749.149 1.403.446 1.962a3.23 3.23 0 0 0 1.195 1.266 3.285 3.285 0 0 0 1.658.428c.607 0 1.159-.143 1.659-.428.511-.297.915-.72 1.213-1.266.297-.559.445-1.207.445-1.944Zm6.363-3.531v5.76c0 .475.101.814.303 1.016.202.191.553.286 1.053.286h1.194v1.373h-1.462c-.904 0-1.581-.208-2.033-.624-.452-.416-.678-1.1-.678-2.051v-5.76h-1.266v-1.338h1.266v-2.461h1.623v2.461h2.55v1.338h-2.55Zm5.355-2.925c-.309 0-.571-.107-.785-.321a1.068 1.068 0 0 1-.321-.785c0-.309.107-.571.321-.785.214-.214.476-.321.785-.321a.99.99 0 0 1 .749.321c.214.214.321.476.321.785 0 .309-.107.571-.321.785a.99.99 0 0 1-.749.321Zm.785 1.587v9.773h-1.623v-9.773h1.623Zm7.028 9.933c-.916 0-1.748-.208-2.497-.624a4.535 4.535 0 0 1-1.748-1.765c-.416-.773-.624-1.665-.624-2.675 0-.999.214-1.879.642-2.64a4.466 4.466 0 0 1 1.784-1.765c.749-.416 1.587-.624 2.514-.624.928 0 1.766.208 2.515.624a4.377 4.377 0 0 1 1.765 1.747c.44.761.66 1.647.66 2.658 0 1.01-.226 1.902-.678 2.675a4.581 4.581 0 0 1-1.801 1.765c-.761.416-1.605.624-2.532.624Zm0-1.426c.582 0 1.129-.137 1.641-.41a3.067 3.067 0 0 0 1.23-1.231c.321-.547.482-1.213.482-1.997 0-.785-.155-1.451-.464-1.998-.309-.547-.713-.951-1.213-1.212a3.318 3.318 0 0 0-1.623-.411c-.594 0-1.141.137-1.64.411-.488.261-.88.665-1.177 1.212-.298.547-.446 1.213-.446 1.998 0 .796.142 1.468.428 2.015.297.547.689.957 1.177 1.23a3.333 3.333 0 0 0 1.605.393Zm11.907-8.685c1.188 0 2.152.362 2.889 1.088.737.713 1.105 1.747 1.105 3.103v5.76h-1.605v-5.529c0-.974-.243-1.718-.731-2.229-.487-.523-1.153-.784-1.997-.784-.856 0-1.54.267-2.051.802-.5.535-.749 1.314-.749 2.336v5.404h-1.623v-9.773h1.623v1.391a3.234 3.234 0 0 1 1.302-1.159 4.112 4.112 0 0 1 1.837-.41ZM230.265 208.572v1.32h-3.387V221h-1.623v-11.108h-3.405v-1.32h8.415Zm10.913 7.168c0 .309-.018.636-.054.981h-7.809c.059.963.386 1.717.98 2.264.606.535 1.337.803 2.193.803.702 0 1.284-.161 1.748-.482.475-.333.808-.772.998-1.319h1.747a4.24 4.24 0 0 1-1.569 2.3c-.784.582-1.759.873-2.924.873-.927 0-1.759-.208-2.496-.624a4.448 4.448 0 0 1-1.712-1.765c-.416-.772-.624-1.664-.624-2.674 0-1.011.202-1.896.607-2.657a4.208 4.208 0 0 1 1.693-1.747c.737-.416 1.581-.624 2.532-.624.927 0 1.748.202 2.461.606.713.404 1.26.963 1.64 1.676.392.701.589 1.498.589 2.389Zm-1.676-.339c0-.618-.137-1.147-.41-1.586a2.584 2.584 0 0 0-1.124-1.017 3.342 3.342 0 0 0-1.551-.356c-.82 0-1.521.261-2.104.784-.57.523-.897 1.248-.981 2.175h6.17Zm7.276 5.759c-.749 0-1.42-.124-2.014-.374-.595-.261-1.064-.618-1.409-1.07a2.89 2.89 0 0 1-.571-1.587h1.676c.048.488.274.886.678 1.195.416.309.957.464 1.623.464.618 0 1.105-.137 1.462-.411.356-.273.534-.618.534-1.034 0-.428-.19-.743-.57-.945-.38-.214-.969-.422-1.765-.624a14.51 14.51 0 0 1-1.783-.57 3.39 3.39 0 0 1-1.177-.874c-.321-.392-.481-.903-.481-1.533 0-.5.148-.957.445-1.373.297-.416.719-.743 1.266-.981.547-.25 1.171-.374 1.872-.374 1.082 0 1.956.273 2.621.82.666.547 1.023 1.296 1.07 2.246h-1.622c-.036-.511-.244-.921-.624-1.23-.369-.309-.868-.463-1.498-.463-.583 0-1.046.124-1.391.374s-.517.577-.517.981c0 .321.101.588.303.802a2.6 2.6 0 0 0 .785.499c.321.119.76.256 1.319.41.701.191 1.272.381 1.712.571.44.178.814.452 1.123.82.321.369.487.85.499 1.444 0 .535-.148 1.017-.445 1.445-.298.427-.72.766-1.266 1.016-.535.238-1.153.356-1.855.356Zm7.836-8.594v5.759c0 .476.101.815.303 1.017.202.19.553.285 1.052.285h1.195V221h-1.462c-.904 0-1.581-.208-2.033-.624-.452-.416-.678-1.1-.678-2.051v-5.759h-1.266v-1.337h1.266v-2.46h1.623v2.46h2.55v1.337h-2.55Zm-47.43 30.464c.321-.559.796-1.022 1.426-1.391.642-.38 1.385-.57 2.229-.57.868 0 1.652.208 2.353.624a4.357 4.357 0 0 1 1.676 1.765c.405.749.607 1.622.607 2.621 0 .987-.202 1.866-.607 2.639a4.46 4.46 0 0 1-1.676 1.801c-.701.428-1.485.641-2.353.641-.832 0-1.569-.184-2.211-.552-.63-.381-1.111-.85-1.444-1.409v6.437h-1.623v-14.407h1.623v1.801Zm6.632 3.049c0-.737-.148-1.379-.445-1.926a3.066 3.066 0 0 0-1.213-1.248 3.285 3.285 0 0 0-1.658-.428c-.594 0-1.147.149-1.658.446-.499.285-.904.707-1.213 1.266-.297.547-.445 1.183-.445 1.908 0 .737.148 1.385.445 1.943a3.36 3.36 0 0 0 1.213 1.266 3.35 3.35 0 0 0 1.658.428c.606 0 1.159-.143 1.658-.428a3.19 3.19 0 0 0 1.213-1.266c.297-.558.445-1.212.445-1.961Zm5.417-3.263a3.126 3.126 0 0 1 1.212-1.302c.535-.309 1.183-.463 1.944-.463v1.676h-.428c-1.819 0-2.728.986-2.728 2.96V251h-1.623v-9.771h1.623v1.587Zm9.29 8.344c-.915 0-1.747-.208-2.496-.624a4.533 4.533 0 0 1-1.747-1.765c-.416-.772-.624-1.664-.624-2.674 0-.999.213-1.878.641-2.639a4.47 4.47 0 0 1 1.783-1.765c.749-.416 1.587-.624 2.514-.624.928 0 1.766.208 2.514.624a4.379 4.379 0 0 1 1.766 1.747c.439.761.659 1.646.659 2.657 0 1.01-.225 1.902-.677 2.674a4.588 4.588 0 0 1-1.801 1.765c-.761.416-1.605.624-2.532.624Zm0-1.426c.583 0 1.129-.137 1.64-.41.512-.273.922-.684 1.231-1.23.321-.547.481-1.213.481-1.997 0-.785-.154-1.45-.463-1.997-.309-.547-.714-.951-1.213-1.213a3.327 3.327 0 0 0-1.622-.41c-.595 0-1.142.137-1.641.41-.487.262-.879.666-1.177 1.213-.297.547-.445 1.212-.445 1.997 0 .796.142 1.468.428 2.015.297.546.689.956 1.176 1.23a3.35 3.35 0 0 0 1.605.392Zm6.537-3.637c0-1.011.203-1.89.607-2.639a4.364 4.364 0 0 1 1.676-1.765c.725-.416 1.551-.624 2.478-.624 1.201 0 2.187.291 2.96.873.784.583 1.301 1.391 1.551 2.425h-1.747a2.497 2.497 0 0 0-.981-1.408c-.475-.345-1.07-.517-1.783-.517-.927 0-1.676.321-2.246.962-.571.63-.856 1.528-.856 2.693 0 1.177.285 2.086.856 2.728.57.642 1.319.963 2.246.963.713 0 1.308-.167 1.783-.5.476-.333.802-.808.981-1.426h1.747c-.261.998-.784 1.801-1.569 2.407-.784.594-1.765.891-2.942.891-.927 0-1.753-.208-2.478-.624a4.364 4.364 0 0 1-1.676-1.765c-.404-.76-.607-1.652-.607-2.674Zm20.352-.357c0 .309-.018.636-.053.981h-7.81c.059.963.386 1.717.981 2.264.606.535 1.337.803 2.193.803.701 0 1.283-.161 1.747-.482.476-.333.808-.772.999-1.319h1.747a4.25 4.25 0 0 1-1.569 2.3c-.785.582-1.759.873-2.924.873-.927 0-1.759-.208-2.496-.624a4.442 4.442 0 0 1-1.712-1.765c-.416-.772-.624-1.664-.624-2.674 0-1.011.202-1.896.606-2.657a4.21 4.21 0 0 1 1.694-1.747c.737-.416 1.581-.624 2.532-.624.927 0 1.747.202 2.46.606a4.13 4.13 0 0 1 1.641 1.676c.392.701.588 1.498.588 2.389Zm-1.676-.339c0-.618-.137-1.147-.41-1.586a2.581 2.581 0 0 0-1.123-1.017 3.349 3.349 0 0 0-1.552-.356c-.82 0-1.521.261-2.104.784-.57.523-.897 1.248-.98 2.175h6.169Zm7.277 5.759c-.749 0-1.421-.124-2.015-.374-.594-.261-1.064-.618-1.409-1.07a2.888 2.888 0 0 1-.57-1.587h1.676c.047.488.273.886.677 1.195.416.309.957.464 1.623.464.618 0 1.105-.137 1.462-.411.357-.273.535-.618.535-1.034 0-.428-.19-.743-.571-.945-.38-.214-.968-.422-1.765-.624-.725-.19-1.319-.38-1.783-.57a3.39 3.39 0 0 1-1.177-.874c-.321-.392-.481-.903-.481-1.533 0-.5.149-.957.446-1.373.297-.416.719-.743 1.266-.981.546-.25 1.17-.374 1.872-.374 1.081 0 1.955.273 2.621.82.665.547 1.022 1.296 1.07 2.246h-1.623c-.036-.511-.244-.921-.624-1.23-.368-.309-.868-.463-1.498-.463-.582 0-1.046.124-1.39.374-.345.25-.518.577-.518.981 0 .321.102.588.304.802.214.202.475.369.784.499.321.119.761.256 1.32.41.701.191 1.271.381 1.711.571.44.178.814.452 1.123.82.321.369.488.85.5 1.444 0 .535-.149 1.017-.446 1.445-.297.427-.719.766-1.266 1.016-.535.238-1.153.356-1.854.356Zm9.315 0c-.749 0-1.42-.124-2.015-.374-.594-.261-1.063-.618-1.408-1.07a2.89 2.89 0 0 1-.571-1.587h1.676c.048.488.274.886.678 1.195.416.309.957.464 1.622.464.618 0 1.106-.137 1.462-.411.357-.273.535-.618.535-1.034 0-.428-.19-.743-.57-.945-.381-.214-.969-.422-1.765-.624a14.51 14.51 0 0 1-1.783-.57 3.39 3.39 0 0 1-1.177-.874c-.321-.392-.482-.903-.482-1.533 0-.5.149-.957.446-1.373.297-.416.719-.743 1.266-.981.547-.25 1.171-.374 1.872-.374 1.082 0 1.956.273 2.621.82.666.547 1.023 1.296 1.07 2.246h-1.622c-.036-.511-.244-.921-.625-1.23-.368-.309-.867-.463-1.497-.463-.583 0-1.046.124-1.391.374s-.517.577-.517.981c0 .321.101.588.303.802a2.6 2.6 0 0 0 .785.499c.321.119.76.256 1.319.41.701.191 1.272.381 1.712.571.439.178.814.452 1.123.82.321.369.487.85.499 1.444a2.47 2.47 0 0 1-.446 1.445c-.297.427-.719.766-1.265 1.016-.535.238-1.153.356-1.855.356Z" fill="#5F6578"/><defs><linearGradient id="a" x1="240.243" y1="314.711" x2="240.243" y2="143.803" gradientUnits="userSpaceOnUse"><stop stop-color="#F4F5FA"/><stop offset="1" stop-color="#F4F5FA" stop-opacity="0"/></linearGradient><linearGradient id="b" x1="156.936" y1="172.582" x2="156.936" y2="1.674" gradientUnits="userSpaceOnUse"><stop stop-color="#F4F5FA"/><stop offset="1" stop-color="#F4F5FA" stop-opacity="0"/></linearGradient><linearGradient id="c" x1="322.385" y1="171.582" x2="322.385" y2=".674" gradientUnits="userSpaceOnUse"><stop stop-color="#F4F5FA"/><stop offset="1" stop-color="#F4F5FA" stop-opacity="0"/></linearGradient><linearGradient id="d" x1="74.308" y1="314.711" x2="74.308" y2="143.803" gradientUnits="userSpaceOnUse"><stop stop-color="#F4F5FA"/><stop offset="1" stop-color="#F4F5FA" stop-opacity="0"/></linearGradient><linearGradient id="e" x1="156.308" y1="457.84" x2="156.308" y2="286.932" gradientUnits="userSpaceOnUse"><stop stop-color="#F4F5FA"/><stop offset="1" stop-color="#F4F5FA" stop-opacity="0"/></linearGradient><linearGradient id="f" x1="323.308" y1="457.908" x2="323.308" y2="287" gradientUnits="userSpaceOnUse"><stop stop-color="#F4F5FA"/><stop offset="1" stop-color="#F4F5FA" stop-opacity="0"/></linearGradient><linearGradient id="g" x1="406.308" y1="315.908" x2="406.308" y2="145" gradientUnits="userSpaceOnUse"><stop stop-color="#F4F5FA"/><stop offset="1" stop-color="#F4F5FA" stop-opacity="0"/></linearGradient></defs></svg>