<svg width="1440" height="940" fill="none" xmlns="http://www.w3.org/2000/svg"><path d="M617.5 719.387V327.612c0-8.646 4.777-16.644 12.547-20.975L981.44 110.749c7.771-4.332 17.349-4.332 25.12 0l351.39 195.888c7.77 4.331 12.55 12.329 12.55 20.975v391.775c0 8.647-4.78 16.645-12.55 20.976l-351.39 195.888c-7.771 4.332-17.349 4.332-25.12 0L630.047 740.363c-7.77-4.331-12.547-12.329-12.547-20.976ZM120.5 863.128v-67.256c0-1.33.732-2.567 1.935-3.239l60.119-33.628-.245-.436.245.436a4.004 4.004 0 0 1 3.892 0l60.119 33.628c1.203.672 1.935 1.909 1.935 3.239v67.256c0 1.33-.732 2.567-1.935 3.239l-60.119 33.628a4.004 4.004 0 0 1-3.892 0l-60.119-33.628c-1.203-.672-1.935-1.909-1.935-3.239Z" stroke="#CCF0F7"/><path d="M-275-138h1990v564L-275 829v-967Z" fill="url(#a)"/><mask id="c" style="mask-type:alpha" maskUnits="userSpaceOnUse" x="-275" y="-138" width="1990" height="967"><path d="M-275-138h1990v564L-275 829v-967Z" fill="url(#b)"/></mask><g mask="url(#c)"><g filter="url(#d)"><path d="M550.356 722.582c488.074-186.749 328.459 159.941 626.064 193.262 297.6 33.321 525.53-326.546-135.37-598.297C380.155 45.796-283.728 1041.72 550.356 722.582Z" fill="url(#e)" fill-opacity=".4"/></g><g filter="url(#f)"><path d="M705.961-226.404C809.665-15.029 1061.33-295.34 1290.72 85.728c229.38 381.067 665.69-141.23 165.1-485.083-500.586-343.852-873.15-78.35-749.859 172.951Z" fill="url(#g)" fill-opacity=".6"/></g><g filter="url(#h)"><path d="M155.655-135.58c393.191 40.799 709.774-385.478 840.463-194.487C1126.81-139.077 475.056-182.916.055 290.327c-475.002 473.243-516.339-495.63 155.6-425.907Z" fill="url(#i)" fill-opacity=".7"/></g><path opacity=".1" d="M1147-22.17V-201.83c0-4.051 2.24-7.794 5.88-9.819l161.24-89.831a12.142 12.142 0 0 1 11.76 0l161.24 89.831c3.64 2.025 5.88 5.768 5.88 9.819V-22.169c0 4.05-2.24 7.794-5.88 9.82l-161.24 89.83a12.14 12.14 0 0 1-11.76 0l-161.24-89.83c-3.64-2.026-5.88-5.77-5.88-9.82Z" fill="url(#j)"/><path opacity=".15" d="M-313 31.748v-467.496c0-10.541 5.832-20.281 15.3-25.551l419.9-233.748c9.468-5.271 21.132-5.271 30.6 0l419.9 233.748c9.468 5.27 15.3 15.01 15.3 25.551V31.748c0 10.54-5.832 20.28-15.3 25.551L152.8 291.047c-9.468 5.271-21.132 5.271-30.6 0L-297.7 57.299c-9.468-5.27-15.3-15.01-15.3-25.551Z" fill="url(#k)"/><path opacity=".05" d="M617 719.652V328.348c0-8.823 4.881-16.976 12.804-21.387l351.392-195.652c7.923-4.412 17.685-4.412 25.604 0l351.4 195.652c7.92 4.411 12.8 12.564 12.8 21.387v391.304c0 8.823-4.88 16.976-12.8 21.387l-351.4 195.652c-7.919 4.412-17.681 4.412-25.604 0L629.804 741.039C621.881 736.628 617 728.475 617 719.652Z" fill="url(#l)"/></g><defs><linearGradient id="a" x1="-1174" y1="766.88" x2="1615.48" y2="-167.552" gradientUnits="userSpaceOnUse"><stop stop-color="#009DBB"/><stop offset="1" stop-color="#0081A7"/></linearGradient><linearGradient id="b" x1="-275" y1="246.562" x2="1533.68" y2="-434.632" gradientUnits="userSpaceOnUse"><stop stop-color="#009DBB"/><stop offset="1" stop-color="#0081A7"/></linearGradient><linearGradient id="e" x1="-14.855" y1="826.515" x2="1117.56" y2="163.818" gradientUnits="userSpaceOnUse"><stop stop-color="#fff"/><stop offset="1" stop-color="#99E1EE"/></linearGradient><linearGradient id="g" x1="362.078" y1="-118.582" x2="1556.87" y2="-445.696" gradientUnits="userSpaceOnUse"><stop stop-color="#0081A7"/><stop offset="1" stop-color="#66D2E6"/></linearGradient><linearGradient id="i" x1="-284.092" y1="-153.355" x2="672.9" y2="109.431" gradientUnits="userSpaceOnUse"><stop stop-color="#00B4D5"/><stop offset="1" stop-color="#CCF2F4"/></linearGradient><linearGradient id="j" x1="1321.05" y1="174.5" x2="1620.72" y2="-15.544" gradientUnits="userSpaceOnUse"><stop offset=".5" stop-color="#0081A7"/><stop offset="1" stop-color="#7AEAFF"/></linearGradient><linearGradient id="k" x1="140.23" y1="543.5" x2="920.257" y2="48.458" gradientUnits="userSpaceOnUse"><stop offset=".5" stop-color="#0081A7"/><stop offset="1" stop-color="#7AEAFF"/></linearGradient><linearGradient id="l" x1="1441" y1="940" x2="1797.95" y2="220.138" gradientUnits="userSpaceOnUse"><stop offset="0" stop-color="#0081A7"/><stop offset="1" stop-color="#63E0F8"/></linearGradient><filter id="d" x="-25" y="85" width="1679" height="1018" filterUnits="userSpaceOnUse" color-interpolation-filters="sRGB"><feFlood flood-opacity="0" result="BackgroundImageFix"/><feBlend in="SourceGraphic" in2="BackgroundImageFix" result="shape"/><feGaussianBlur stdDeviation="92.5" result="effect1_foregroundBlur_3299_71033"/></filter><filter id="f" x="547.207" y="-698.273" width="1274.28" height="1052.33" filterUnits="userSpaceOnUse" color-interpolation-filters="sRGB"><feFlood flood-opacity="0" result="BackgroundImageFix"/><feBlend in="SourceGraphic" in2="BackgroundImageFix" result="shape"/><feGaussianBlur stdDeviation="67.5" result="effect1_foregroundBlur_3299_71033"/></filter><filter id="h" x="-599.32" y="-625.555" width="1858.42" height="1292.64" filterUnits="userSpaceOnUse" color-interpolation-filters="sRGB"><feFlood flood-opacity="0" result="BackgroundImageFix"/><feBlend in="SourceGraphic" in2="BackgroundImageFix" result="shape"/><feGaussianBlur stdDeviation="123" result="effect1_foregroundBlur_3299_71033"/></filter></defs></svg>