<svg xmlns="http://www.w3.org/2000/svg" width="1991" height="967" fill="none"><path fill="url(#a)" d="M.5 0h1990v564L.5 967V0Z"/><mask id="c" width="1991" height="967" x="0" y="0" maskUnits="userSpaceOnUse" style="mask-type:alpha"><path fill="url(#b)" d="M.5 0h1990v564L.5 967V0Z"/></mask><g mask="url(#c)"><g filter="url(#d)"><path fill="url(#e)" fill-opacity=".4" d="M825.856 860.582c488.074-186.749 328.454 159.938 626.064 193.258 297.6 33.33 525.53-326.542-135.37-598.293C655.655 183.796-8.228 1179.72 825.856 860.582Z"/></g><g filter="url(#f)"><path fill="url(#g)" fill-opacity=".6" d="M981.461-88.404c103.699 211.375 355.369-68.936 584.759 312.132 229.38 381.067 665.69-141.23 165.1-485.083-500.59-343.852-873.15-78.35-749.859 172.951Z"/></g><g filter="url(#h)"><path fill="url(#i)" fill-opacity=".7" d="M431.155 2.42c393.191 40.799 709.775-385.478 840.465-194.487C1402.31-1.077 750.556-44.916 275.555 428.327-199.447 901.57-240.784-67.303 431.155 2.42Z"/></g><path fill="url(#j)" d="M1422.5 115.831V-63.831c0-4.05 2.24-7.794 5.88-9.82l161.24-89.83a12.142 12.142 0 0 1 11.76 0l161.24 89.83c3.64 2.026 5.88 5.77 5.88 9.82v179.662c0 4.051-2.24 7.794-5.88 9.819l-161.24 89.831a12.142 12.142 0 0 1-11.76 0l-161.24-89.831c-3.64-2.025-5.88-5.768-5.88-9.819Z" opacity=".1"/><path fill="url(#k)" d="M-37.5 169.748v-467.496c0-10.541 5.832-20.281 15.3-25.551l419.9-233.748c9.468-5.271 21.132-5.271 30.6 0l419.9 233.748c9.468 5.27 15.3 15.01 15.3 25.551v467.496c0 10.541-5.832 20.281-15.3 25.551L428.3 429.047c-9.468 5.271-21.132 5.271-30.6 0L-22.2 195.299c-9.468-5.27-15.3-15.01-15.3-25.551Z" opacity=".15"/><path fill="url(#l)" d="M892.5 857.652V466.348c0-8.823 4.881-16.976 12.804-21.387L1256.7 249.309c7.92-4.412 17.68-4.412 25.6 0l351.4 195.652c7.92 4.411 12.8 12.564 12.8 21.387v391.304c0 8.823-4.88 16.976-12.8 21.387l-351.4 195.651c-7.92 4.41-17.68 4.41-25.6 0L905.304 879.039c-7.923-4.411-12.804-12.564-12.804-21.387Z" opacity=".05"/></g><defs><linearGradient id="a" x1="-898.5" x2="1890.98" y1="904.88" y2="-29.552" gradientUnits="userSpaceOnUse"><stop stop-color="#009DBB"/><stop offset="1" stop-color="#0081A7"/></linearGradient><linearGradient id="b" x1=".5" x2="1809.18" y1="384.562" y2="-296.632" gradientUnits="userSpaceOnUse"><stop stop-color="#009DBB"/><stop offset="1" stop-color="#0081A7"/></linearGradient><linearGradient id="e" x1="260.645" x2="1393.06" y1="964.515" y2="301.818" gradientUnits="userSpaceOnUse"><stop stop-color="#fff"/><stop offset="1" stop-color="#99E1EE"/></linearGradient><linearGradient id="g" x1="637.578" x2="1832.37" y1="19.418" y2="-307.696" gradientUnits="userSpaceOnUse"><stop stop-color="#0081A7"/><stop offset="1" stop-color="#66D2E6"/></linearGradient><linearGradient id="i" x1="-8.592" x2="948.4" y1="-15.355" y2="247.431" gradientUnits="userSpaceOnUse"><stop stop-color="#00B4D5"/><stop offset="1" stop-color="#CCF2F4"/></linearGradient><linearGradient id="j" x1="1596.55" x2="1896.22" y1="312.5" y2="122.456" gradientUnits="userSpaceOnUse"><stop offset=".5" stop-color="#0081A7"/><stop offset="1" stop-color="#7AEAFF"/></linearGradient><linearGradient id="k" x1="415.73" x2="1195.76" y1="681.5" y2="186.458" gradientUnits="userSpaceOnUse"><stop offset=".5" stop-color="#0081A7"/><stop offset="1" stop-color="#7AEAFF"/></linearGradient><linearGradient id="l" x1="1716.5" x2="2073.45" y1="1078" y2="358.138" gradientUnits="userSpaceOnUse"><stop offset="0" stop-color="#0081A7"/><stop offset="1" stop-color="#63E0F8"/></linearGradient><filter id="d" width="1679" height="1018" x="250.5" y="223" color-interpolation-filters="sRGB" filterUnits="userSpaceOnUse"><feFlood flood-opacity="0" result="BackgroundImageFix"/><feBlend in="SourceGraphic" in2="BackgroundImageFix" result="shape"/><feGaussianBlur result="effect1_foregroundBlur_6086_77289" stdDeviation="92.5"/></filter><filter id="f" width="1274.28" height="1052.33" x="822.709" y="-560.273" color-interpolation-filters="sRGB" filterUnits="userSpaceOnUse"><feFlood flood-opacity="0" result="BackgroundImageFix"/><feBlend in="SourceGraphic" in2="BackgroundImageFix" result="shape"/><feGaussianBlur result="effect1_foregroundBlur_6086_77289" stdDeviation="67.5"/></filter><filter id="h" width="1858.42" height="1292.64" x="-323.819" y="-487.555" color-interpolation-filters="sRGB" filterUnits="userSpaceOnUse"><feFlood flood-opacity="0" result="BackgroundImageFix"/><feBlend in="SourceGraphic" in2="BackgroundImageFix" result="shape"/><feGaussianBlur result="effect1_foregroundBlur_6086_77289" stdDeviation="123"/></filter></defs></svg>