<svg width="1440" height="56" fill="none" xmlns="http://www.w3.org/2000/svg"><g clip-path="url(#a)"><mask id="c" fill="#fff"><path d="M0 0h1440v56H0V0Z"/></mask><path d="M0 0h1440v56H0V0Z" fill="url(#b)"/><path opacity=".5" d="M75 17.963v-127.926c0-2.885 1.599-5.55 4.194-6.992l115.112-63.963a8.668 8.668 0 0 1 8.388 0l115.112 63.963c2.595 1.442 4.194 4.107 4.194 6.992V17.963c0 2.885-1.599 5.55-4.194 6.992L202.694 88.918a8.672 8.672 0 0 1-8.388 0L79.194 24.955C76.6 23.513 75 20.848 75 17.963ZM1038 313.73V91.27c0-5.016 2.77-9.65 7.27-12.159l199.46-111.23a14.99 14.99 0 0 1 14.54 0l199.46 111.23c4.5 2.508 7.27 7.143 7.27 12.159V313.73c0 5.016-2.77 9.651-7.27 12.159l-199.46 111.23a14.99 14.99 0 0 1-14.54 0l-199.46-111.23c-4.5-2.508-7.27-7.143-7.27-12.159Z" fill="#EDEFF7"/></g><path d="M1440 55H0v2h1440v-2Z" fill="#EDEFF7" mask="url(#c)"/><defs><linearGradient id="b" x1="720" y1="0" x2="720" y2="56" gradientUnits="userSpaceOnUse"><stop stop-color="#F4F5FA"/><stop offset="1" stop-color="#F4F5FA" stop-opacity="0"/></linearGradient><clipPath id="a"><path d="M0 0h1440v56H0V0Z" fill="#fff"/></clipPath></defs></svg>