<svg width="360" height="120" fill="none" xmlns="http://www.w3.org/2000/svg"><g clip-path="url(#a)"><mask id="c" fill="#fff"><path d="M0 0h360v120H0V0Z"/></mask><path d="M0 0h360v120H0V0Z" fill="url(#b)"/><path opacity=".5" d="M-67 23.324V-77.324c0-2.27 1.256-4.366 3.294-5.501l90.412-50.324a6.8 6.8 0 0 1 6.588 0l90.412 50.324c2.038 1.135 3.294 3.232 3.294 5.501V23.324c0 2.27-1.256 4.366-3.294 5.501L33.294 79.149a6.802 6.802 0 0 1-6.588 0l-90.412-50.324C-65.744 27.69-67 25.593-67 23.324ZM268 211.567V97.329c0-2.576 1.424-4.956 3.736-6.244l102.528-57.12a7.708 7.708 0 0 1 7.472 0l102.528 57.12c2.312 1.288 3.736 3.668 3.736 6.244v114.238c0 2.576-1.424 4.956-3.736 6.244L381.736 274.93a7.707 7.707 0 0 1-7.472 0l-102.528-57.119c-2.312-1.288-3.736-3.668-3.736-6.244Z" fill="#EDEFF7"/></g><path d="M360 119H0v2h360v-2Z" fill="#EDEFF7" mask="url(#c)"/><defs><linearGradient id="b" x1="180" y1="0" x2="180" y2="120" gradientUnits="userSpaceOnUse"><stop stop-color="#F4F5FA"/><stop offset="1" stop-color="#F4F5FA" stop-opacity="0"/></linearGradient><clipPath id="a"><path d="M0 0h360v120H0V0Z" fill="#fff"/></clipPath></defs></svg>