<svg width="768" height="56" fill="none" xmlns="http://www.w3.org/2000/svg"><g clip-path="url(#a)"><path fill="url(#b)" d="M0 0h768v56H0z"/><path opacity=".5" d="M-53-.676v-100.648c0-2.269 1.256-4.366 3.294-5.501l90.412-50.324a6.8 6.8 0 0 1 6.588 0l90.412 50.324c2.038 1.135 3.294 3.232 3.294 5.501V-.676c0 2.27-1.256 4.366-3.294 5.501L47.294 55.149a6.802 6.802 0 0 1-6.588 0L-49.706 4.825C-51.744 3.69-53 1.593-53-.676ZM630 155.567V41.329c0-2.576 1.424-4.956 3.736-6.244l102.528-57.12a7.708 7.708 0 0 1 7.472 0l102.528 57.12c2.312 1.288 3.736 3.668 3.736 6.244v114.238c0 2.576-1.424 4.956-3.736 6.244L743.736 218.93a7.707 7.707 0 0 1-7.472 0l-102.528-57.119c-2.312-1.288-3.736-3.668-3.736-6.244Z" fill="#EDEFF7"/></g><defs><linearGradient id="b" x1="384" y1="0" x2="384" y2="56" gradientUnits="userSpaceOnUse"><stop stop-color="#F4F5FA"/><stop offset="1" stop-color="#F4F5FA" stop-opacity="0"/></linearGradient><clipPath id="a"><path fill="#fff" d="M0 0h768v56H0z"/></clipPath></defs></svg>