<svg width="317" height="317" fill="none" xmlns="http://www.w3.org/2000/svg"><g filter="url(#a)"><rect x="300" y="9" width="283" height="283" rx="141.5" transform="rotate(90 300 9)" fill="url(#b)" shape-rendering="crispEdges"/><g filter="url(#c)"><path fill-rule="evenodd" clip-rule="evenodd" d="m76.11 66.984 2.684 2.683a3.977 3.977 0 1 1-5.624 5.624l-2.532-2.532C53.125 92.537 42.19 118.261 41.25 146.523h7.39a3.977 3.977 0 0 1 0 7.954h-7.39c.95 28.519 12.075 54.455 29.868 74.303l2.55-2.549a3.977 3.977 0 0 1 5.624 5.624l-2.667 2.666c20.26 19.747 47.625 32.222 77.899 33.23v-5.402a3.977 3.977 0 1 1 7.954 0v5.402c30.274-1.008 57.639-13.483 77.899-33.23l-2.667-2.666a3.977 3.977 0 0 1 5.624-5.624l2.55 2.549c17.793-19.848 28.918-45.784 29.868-74.303h-9.876a3.978 3.978 0 0 1 0-7.954h9.876c-.941-28.262-11.875-53.986-29.387-73.764l-2.532 2.532a3.977 3.977 0 1 1-5.624-5.624l2.683-2.683c-20.31-20.039-47.882-32.718-78.414-33.735v7.888a3.977 3.977 0 0 1-7.954 0v-7.888C123.993 34.266 96.42 46.945 76.11 66.984Zm-8.481-2.71c22.821-24.044 55.098-39.045 90.872-39.045s68.051 15.001 90.872 39.044c21.315 22.456 34.399 52.818 34.399 86.227 0 33.677-13.295 64.258-34.913 86.766-22.791 23.728-54.852 38.505-90.358 38.505-35.506 0-67.567-14.777-90.358-38.505C46.526 214.758 33.23 184.177 33.23 150.5c0-33.409 13.084-63.77 34.399-86.227Z" fill="#66D2E6"/></g></g><defs><filter id="a" x=".771" y=".885" width="315.459" height="315.459" filterUnits="userSpaceOnUse" color-interpolation-filters="sRGB"><feFlood flood-opacity="0" result="BackgroundImageFix"/><feColorMatrix in="SourceAlpha" values="0 0 0 0 0 0 0 0 0 0 0 0 0 0 0 0 0 0 127 0" result="hardAlpha"/><feOffset dy="8.115"/><feGaussianBlur stdDeviation="8.115"/><feComposite in2="hardAlpha" operator="out"/><feColorMatrix values="0 0 0 0 0 0 0 0 0 0.177273 0 0 0 0 0.216667 0 0 0 0.12 0"/><feBlend in2="BackgroundImageFix" result="effect1_dropShadow_4901_99779"/><feBlend in="SourceGraphic" in2="effect1_dropShadow_4901_99779" result="shape"/></filter><filter id="c" x="29.173" y="21.172" width="258.658" height="258.656" filterUnits="userSpaceOnUse" color-interpolation-filters="sRGB"><feFlood flood-opacity="0" result="BackgroundImageFix"/><feColorMatrix in="SourceAlpha" values="0 0 0 0 0 0 0 0 0 0 0 0 0 0 0 0 0 0 127 0" result="hardAlpha"/><feOffset/><feGaussianBlur stdDeviation="2.029"/><feComposite in2="hardAlpha" operator="out"/><feColorMatrix values="0 0 0 0 0.223529 0 0 0 0 0.760784 0 0 0 0 0.843137 0 0 0 1 0"/><feBlend in2="BackgroundImageFix" result="effect1_dropShadow_4901_99779"/><feBlend in="SourceGraphic" in2="effect1_dropShadow_4901_99779" result="shape"/></filter><linearGradient id="b" x1="441.5" y1="9" x2="441.5" y2="292" gradientUnits="userSpaceOnUse"><stop stop-color="#F4F5FA"/><stop offset="1" stop-color="#F4F5FA" stop-opacity="0"/></linearGradient></defs></svg>