<svg xmlns="http://www.w3.org/2000/svg" width="60" height="60" fill="none"><rect width="60" height="60" fill="#32C8FC" fill-opacity=".15" rx="30"/><path fill="#32C8FC" fill-rule="evenodd" d="M32 22a2 2 0 1 1-4 0 2 2 0 0 1 4 0Zm2 0a4 4 0 1 1-8 0 4 4 0 0 1 8 0ZM23 36a4 4 0 0 1 4 4h-8a4 4 0 0 1 4-4Zm-6 4a6 6 0 0 1 12 0 2 2 0 0 1-2 2h-8a2 2 0 0 1-2-2Zm24 0a4 4 0 0 0-8 0h8Zm-4-6a6 6 0 0 0-6 6 2 2 0 0 0 2 2h8a2 2 0 0 0 2-2 6 6 0 0 0-6-6Zm-12-4a2 2 0 1 1-4 0 2 2 0 0 1 4 0Zm2 0a4 4 0 1 1-8 0 4 4 0 0 1 8 0Zm-.915-2.547a3.98 3.98 0 0 1 .871 1.952A3.99 3.99 0 0 1 30 28a3.99 3.99 0 0 1 3.044 1.405 4 4 0 1 0 .871-1.951A5.977 5.977 0 0 0 30 26a5.975 5.975 0 0 0-3.915 1.453ZM37 32a2 2 0 1 0 0-4 2 2 0 0 0 0 4Z" clip-rule="evenodd"/></svg>