<svg xmlns="http://www.w3.org/2000/svg" width="328" height="232" fill="none"><g clip-path="url(#a)"><path fill="url(#b)" d="M246.668 47.754c18.16 31.036-63.109 133.171-99.774 154.625-36.666 21.453-96.534-41.138-114.694-72.175-18.16-31.036 5.133-51.007 41.798-72.46 61.811-36.167 154.51-41.026 172.67-9.99Z"/><path fill="url(#c)" d="M163.839 195.979c-7.09-15.193 46.374-64.384 68.274-74.605 40.275-22.69 54.373 12.638 55.948 35.744.752 11.032-7.394 24.769-29.295 34.99-36.919 17.23-87.837 19.064-94.927 3.871Z"/><path fill="url(#d)" d="M163.762 92.707 54.667 155.693l109.095 62.985 109.096-62.985-109.096-62.986Z"/><path fill="#F3F5FA" d="M163.762 85.102 54.667 148.087l109.095 62.986 109.096-62.986-109.096-62.985Z"/><path fill="url(#e)" d="m165.164 200.841-86.858-50.575c-1.87-1.089-1.894-3.783-.043-4.905l53.175-32.213 95.547 54.904-56.071 32.784a5.705 5.705 0 0 1-5.75.005Z"/><path fill="url(#f)" d="m166.137 198.249-87.74-50.797c-1.892-1.095-1.898-3.825-.011-4.93l50.199-29.374 95.548 54.904-52.285 30.2a5.707 5.707 0 0 1-5.711-.003Z"/><path fill="url(#g)" d="m166.137 198.249-87.74-50.797c-1.892-1.095-1.898-3.825-.011-4.93l50.199-29.374 95.548 54.904-52.285 30.2a5.707 5.707 0 0 1-5.711-.003Z"/><path fill="url(#h)" d="m166.137 198.249-87.74-50.797c-1.892-1.095-1.898-3.825-.011-4.93l50.199-29.374 95.548 54.904-52.285 30.2a5.707 5.707 0 0 1-5.711-.003Z"/><path fill="url(#i)" d="m177.454 185.2-78.998-46.223c-1.91-1.118-1.875-3.892.063-4.96l29.672-16.353 86.435 50.388-31.558 17.231a5.703 5.703 0 0 1-5.614-.083Z"/><path fill="url(#j)" d="m177.454 185.2-78.998-46.223c-1.91-1.118-1.875-3.892.063-4.96l29.672-16.353 86.435 50.388-31.558 17.231a5.703 5.703 0 0 1-5.614-.083Z"/><path fill="url(#k)" d="m177.454 185.2-78.998-46.223c-1.91-1.118-1.875-3.892.063-4.96l29.672-16.353 86.435 50.388-31.558 17.231a5.703 5.703 0 0 1-5.614-.083Z"/><g fill-rule="evenodd" clip-rule="evenodd" filter="url(#l)"><path fill="url(#m)" d="m122.18 123.178 7.031 3.994a2.85 2.85 0 0 0 2.761.031l4.315-2.323a.95.95 0 0 0 .017-1.665l-7.08-3.995a2.85 2.85 0 0 0-2.764-.021l-4.264 2.317a.95.95 0 0 0-.016 1.662Zm-16.638 8.557 7.031 3.994a2.853 2.853 0 0 0 2.761.031l4.315-2.324a.95.95 0 0 0 .017-1.665l-7.08-3.994a2.852 2.852 0 0 0-2.763-.022l-4.265 2.318a.951.951 0 0 0-.016 1.662Zm21.289 3.035-12.503-7.16a.951.951 0 0 1 .018-1.661l4.264-2.317a2.852 2.852 0 0 1 2.774.028l12.555 7.158a.95.95 0 0 1-.021 1.663l-4.317 2.325a2.852 2.852 0 0 1-2.77-.036Zm-29.379 1.72 12.504 7.161a2.853 2.853 0 0 0 2.769.036l4.318-2.325a.95.95 0 0 0 .02-1.663l-12.554-7.158a2.851 2.851 0 0 0-2.775-.028l-4.263 2.317a.95.95 0 0 0-.019 1.66Zm42.217-3.138-7.031-3.994a.95.95 0 0 1 .016-1.662l4.264-2.318a2.854 2.854 0 0 1 2.764.022l7.079 3.995a.95.95 0 0 1-.016 1.665l-4.315 2.323a2.85 2.85 0 0 1-2.761-.031ZM116 137.915l7.031 3.993a2.853 2.853 0 0 0 2.761.032l4.315-2.324a.95.95 0 0 0 .017-1.665l-7.08-3.994a2.849 2.849 0 0 0-2.763-.022l-4.265 2.318a.951.951 0 0 0-.016 1.662Zm21.292 3.043-7.031-3.994a.951.951 0 0 1 .016-1.662l4.265-2.318a2.852 2.852 0 0 1 2.763.022l7.08 3.994a.95.95 0 0 1-.017 1.665l-4.315 2.324a2.853 2.853 0 0 1-2.761-.031Zm-23.906 4.886 7.031 3.994a2.853 2.853 0 0 0 2.761.032l4.315-2.324a.95.95 0 0 0 .016-1.665l-7.079-3.995a2.854 2.854 0 0 0-2.764-.021l-4.265 2.317a.95.95 0 0 0-.015 1.662Zm37.216-6.312-7.031-3.994a.951.951 0 0 1 .016-1.662l4.265-2.318a2.852 2.852 0 0 1 2.763.022l7.08 3.994a.95.95 0 0 1-.017 1.665l-4.315 2.324a2.853 2.853 0 0 1-2.761-.031Zm-23.668 4.562 7.031 3.994a2.85 2.85 0 0 0 2.761.031l4.315-2.323a.95.95 0 0 0 .016-1.665l-7.079-3.995a2.854 2.854 0 0 0-2.764-.022l-4.265 2.318a.95.95 0 0 0-.015 1.662Zm21.291 3.043-7.03-3.993a.95.95 0 0 1 .015-1.662l4.265-2.318a2.85 2.85 0 0 1 2.764.022l7.079 3.994a.95.95 0 0 1-.016 1.665l-4.316 2.324a2.853 2.853 0 0 1-2.761-.032Zm-23.919 4.89 28.286 16.253a2.853 2.853 0 0 0 2.773.038l4.319-2.326a.95.95 0 0 0 .023-1.662l-28.338-16.248a2.855 2.855 0 0 0-2.781-.032l-4.262 2.317a.951.951 0 0 0-.02 1.66Zm37.23-6.316-7.031-3.993a.95.95 0 0 1 .015-1.662l4.265-2.318a2.85 2.85 0 0 1 2.764.022l7.079 3.994a.95.95 0 0 1-.016 1.665l-4.315 2.324a2.853 2.853 0 0 1-2.761-.032Zm-23.669 4.563 7.031 3.994a2.85 2.85 0 0 0 2.761.031l4.315-2.323a.951.951 0 0 0 .016-1.666l-7.079-3.994a2.854 2.854 0 0 0-2.764-.022l-4.264 2.318a.95.95 0 0 0-.016 1.662Zm21.292 3.043-7.031-3.994a.95.95 0 0 1 .015-1.662l4.265-2.318a2.854 2.854 0 0 1 2.764.022l7.079 3.995a.95.95 0 0 1-.016 1.665l-4.315 2.323a2.85 2.85 0 0 1-2.761-.031Zm5.804-5.42 7.031 3.994a2.849 2.849 0 0 0 2.76.031l4.316-2.323a.95.95 0 0 0 .016-1.665l-7.079-3.995a2.854 2.854 0 0 0-2.764-.022l-4.265 2.318a.95.95 0 0 0-.015 1.662Zm-9.607 12.551-7.031-3.994a.95.95 0 0 1 .016-1.662l4.264-2.318a2.854 2.854 0 0 1 2.764.022l7.079 3.994a.95.95 0 0 1-.016 1.665l-4.315 2.324a2.856 2.856 0 0 1-2.761-.031Zm7.23-4.945 7.031 3.994a2.85 2.85 0 0 0 2.761.031l4.315-2.323a.952.952 0 0 0 .016-1.666l-7.079-3.994a2.854 2.854 0 0 0-2.764-.022l-4.265 2.318a.95.95 0 0 0-.015 1.662Zm30.799 8.747-7.031-3.993a.95.95 0 0 1 .016-1.662l4.264-2.318a2.85 2.85 0 0 1 2.764.022l7.079 3.994a.95.95 0 0 1-.016 1.665l-4.315 2.324a2.853 2.853 0 0 1-2.761-.032Zm-23.669 4.563 7.031 3.994a2.85 2.85 0 0 0 2.761.031l4.315-2.323a.95.95 0 0 0 .017-1.665l-7.08-3.995a2.852 2.852 0 0 0-2.763-.022l-4.265 2.318a.951.951 0 0 0-.016 1.662Zm26.134 5.884-11.886-6.832a.95.95 0 0 1 .02-1.66l4.264-2.317a2.852 2.852 0 0 1 2.778.03l11.936 6.83a.95.95 0 0 1-.021 1.662l-4.318 2.325a2.85 2.85 0 0 1-2.773-.038Zm-28.761 2.048 11.885 6.832a2.852 2.852 0 0 0 2.774.039l4.317-2.325a.95.95 0 0 0 .022-1.662l-11.936-6.83a2.854 2.854 0 0 0-2.779-.031l-4.264 2.318a.95.95 0 0 0-.019 1.659Zm15.838-18.674-7.031-3.994a.95.95 0 0 1 .016-1.662l4.264-2.318a2.854 2.854 0 0 1 2.764.022l7.079 3.994a.95.95 0 0 1-.016 1.665l-4.315 2.324a2.853 2.853 0 0 1-2.761-.031Zm-23.669 4.562 7.031 3.994a2.853 2.853 0 0 0 2.761.032l4.315-2.324a.95.95 0 0 0 .017-1.665l-7.08-3.995a2.852 2.852 0 0 0-2.763-.021l-4.265 2.318a.95.95 0 0 0-.016 1.661Zm21.292 3.044-7.031-3.994a.951.951 0 0 1 .016-1.662l4.265-2.318a2.852 2.852 0 0 1 2.763.022l7.08 3.994a.95.95 0 0 1-.017 1.665l-4.315 2.324a2.856 2.856 0 0 1-2.761-.031Zm-23.906 4.886 7.031 3.994a2.85 2.85 0 0 0 2.761.031l4.315-2.323a.95.95 0 0 0 .016-1.665l-7.079-3.995a2.854 2.854 0 0 0-2.764-.022l-4.265 2.318a.95.95 0 0 0-.015 1.662Zm47.674-.133-7.031-3.994a.951.951 0 0 1 .016-1.662l4.265-2.318a2.852 2.852 0 0 1 2.763.022l7.08 3.995a.95.95 0 0 1-.017 1.665l-4.315 2.323a2.85 2.85 0 0 1-2.761-.031Zm-23.668 4.563 7.03 3.994a2.853 2.853 0 0 0 2.761.031l4.316-2.324a.95.95 0 0 0 .016-1.665l-7.079-3.994a2.854 2.854 0 0 0-2.764-.022l-4.265 2.318a.95.95 0 0 0-.015 1.662Z"/><path fill="url(#n)" d="m122.18 123.178 7.031 3.994a2.85 2.85 0 0 0 2.761.031l4.315-2.323a.95.95 0 0 0 .017-1.665l-7.08-3.995a2.85 2.85 0 0 0-2.764-.021l-4.264 2.317a.95.95 0 0 0-.016 1.662Zm-16.638 8.557 7.031 3.994a2.853 2.853 0 0 0 2.761.031l4.315-2.324a.95.95 0 0 0 .017-1.665l-7.08-3.994a2.852 2.852 0 0 0-2.763-.022l-4.265 2.318a.951.951 0 0 0-.016 1.662Zm21.289 3.035-12.503-7.16a.951.951 0 0 1 .018-1.661l4.264-2.317a2.852 2.852 0 0 1 2.774.028l12.555 7.158a.95.95 0 0 1-.021 1.663l-4.317 2.325a2.852 2.852 0 0 1-2.77-.036Zm-29.379 1.72 12.504 7.161a2.853 2.853 0 0 0 2.769.036l4.318-2.325a.95.95 0 0 0 .02-1.663l-12.554-7.158a2.851 2.851 0 0 0-2.775-.028l-4.263 2.317a.95.95 0 0 0-.019 1.66Zm42.217-3.138-7.031-3.994a.95.95 0 0 1 .016-1.662l4.264-2.318a2.854 2.854 0 0 1 2.764.022l7.079 3.995a.95.95 0 0 1-.016 1.665l-4.315 2.323a2.85 2.85 0 0 1-2.761-.031ZM116 137.915l7.031 3.993a2.853 2.853 0 0 0 2.761.032l4.315-2.324a.95.95 0 0 0 .017-1.665l-7.08-3.994a2.849 2.849 0 0 0-2.763-.022l-4.265 2.318a.951.951 0 0 0-.016 1.662Zm21.292 3.043-7.031-3.994a.951.951 0 0 1 .016-1.662l4.265-2.318a2.852 2.852 0 0 1 2.763.022l7.08 3.994a.95.95 0 0 1-.017 1.665l-4.315 2.324a2.853 2.853 0 0 1-2.761-.031Zm-23.906 4.886 7.031 3.994a2.853 2.853 0 0 0 2.761.032l4.315-2.324a.95.95 0 0 0 .016-1.665l-7.079-3.995a2.854 2.854 0 0 0-2.764-.021l-4.265 2.317a.95.95 0 0 0-.015 1.662Zm37.216-6.312-7.031-3.994a.951.951 0 0 1 .016-1.662l4.265-2.318a2.852 2.852 0 0 1 2.763.022l7.08 3.994a.95.95 0 0 1-.017 1.665l-4.315 2.324a2.853 2.853 0 0 1-2.761-.031Zm-23.668 4.562 7.031 3.994a2.85 2.85 0 0 0 2.761.031l4.315-2.323a.95.95 0 0 0 .016-1.665l-7.079-3.995a2.854 2.854 0 0 0-2.764-.022l-4.265 2.318a.95.95 0 0 0-.015 1.662Zm21.291 3.043-7.03-3.993a.95.95 0 0 1 .015-1.662l4.265-2.318a2.85 2.85 0 0 1 2.764.022l7.079 3.994a.95.95 0 0 1-.016 1.665l-4.316 2.324a2.853 2.853 0 0 1-2.761-.032Zm-23.919 4.89 28.286 16.253a2.853 2.853 0 0 0 2.773.038l4.319-2.326a.95.95 0 0 0 .023-1.662l-28.338-16.248a2.855 2.855 0 0 0-2.781-.032l-4.262 2.317a.951.951 0 0 0-.02 1.66Zm37.23-6.316-7.031-3.993a.95.95 0 0 1 .015-1.662l4.265-2.318a2.85 2.85 0 0 1 2.764.022l7.079 3.994a.95.95 0 0 1-.016 1.665l-4.315 2.324a2.853 2.853 0 0 1-2.761-.032Zm-23.669 4.563 7.031 3.994a2.85 2.85 0 0 0 2.761.031l4.315-2.323a.951.951 0 0 0 .016-1.666l-7.079-3.994a2.854 2.854 0 0 0-2.764-.022l-4.264 2.318a.95.95 0 0 0-.016 1.662Zm21.292 3.043-7.031-3.994a.95.95 0 0 1 .015-1.662l4.265-2.318a2.854 2.854 0 0 1 2.764.022l7.079 3.995a.95.95 0 0 1-.016 1.665l-4.315 2.323a2.85 2.85 0 0 1-2.761-.031Zm5.804-5.42 7.031 3.994a2.849 2.849 0 0 0 2.76.031l4.316-2.323a.95.95 0 0 0 .016-1.665l-7.079-3.995a2.854 2.854 0 0 0-2.764-.022l-4.265 2.318a.95.95 0 0 0-.015 1.662Zm-9.607 12.551-7.031-3.994a.95.95 0 0 1 .016-1.662l4.264-2.318a2.854 2.854 0 0 1 2.764.022l7.079 3.994a.95.95 0 0 1-.016 1.665l-4.315 2.324a2.856 2.856 0 0 1-2.761-.031Zm7.23-4.945 7.031 3.994a2.85 2.85 0 0 0 2.761.031l4.315-2.323a.952.952 0 0 0 .016-1.666l-7.079-3.994a2.854 2.854 0 0 0-2.764-.022l-4.265 2.318a.95.95 0 0 0-.015 1.662Zm30.799 8.747-7.031-3.993a.95.95 0 0 1 .016-1.662l4.264-2.318a2.85 2.85 0 0 1 2.764.022l7.079 3.994a.95.95 0 0 1-.016 1.665l-4.315 2.324a2.853 2.853 0 0 1-2.761-.032Zm-23.669 4.563 7.031 3.994a2.85 2.85 0 0 0 2.761.031l4.315-2.323a.95.95 0 0 0 .017-1.665l-7.08-3.995a2.852 2.852 0 0 0-2.763-.022l-4.265 2.318a.951.951 0 0 0-.016 1.662Zm26.134 5.884-11.886-6.832a.95.95 0 0 1 .02-1.66l4.264-2.317a2.852 2.852 0 0 1 2.778.03l11.936 6.83a.95.95 0 0 1-.021 1.662l-4.318 2.325a2.85 2.85 0 0 1-2.773-.038Zm-28.761 2.048 11.885 6.832a2.852 2.852 0 0 0 2.774.039l4.317-2.325a.95.95 0 0 0 .022-1.662l-11.936-6.83a2.854 2.854 0 0 0-2.779-.031l-4.264 2.318a.95.95 0 0 0-.019 1.659Zm15.838-18.674-7.031-3.994a.95.95 0 0 1 .016-1.662l4.264-2.318a2.854 2.854 0 0 1 2.764.022l7.079 3.994a.95.95 0 0 1-.016 1.665l-4.315 2.324a2.853 2.853 0 0 1-2.761-.031Zm-23.669 4.562 7.031 3.994a2.853 2.853 0 0 0 2.761.032l4.315-2.324a.95.95 0 0 0 .017-1.665l-7.08-3.995a2.852 2.852 0 0 0-2.763-.021l-4.265 2.318a.95.95 0 0 0-.016 1.661Zm21.292 3.044-7.031-3.994a.951.951 0 0 1 .016-1.662l4.265-2.318a2.852 2.852 0 0 1 2.763.022l7.08 3.994a.95.95 0 0 1-.017 1.665l-4.315 2.324a2.856 2.856 0 0 1-2.761-.031Zm-23.906 4.886 7.031 3.994a2.85 2.85 0 0 0 2.761.031l4.315-2.323a.95.95 0 0 0 .016-1.665l-7.079-3.995a2.854 2.854 0 0 0-2.764-.022l-4.265 2.318a.95.95 0 0 0-.015 1.662Zm47.674-.133-7.031-3.994a.951.951 0 0 1 .016-1.662l4.265-2.318a2.852 2.852 0 0 1 2.763.022l7.08 3.995a.95.95 0 0 1-.017 1.665l-4.315 2.323a2.85 2.85 0 0 1-2.761-.031Zm-23.668 4.563 7.03 3.994a2.853 2.853 0 0 0 2.761.031l4.316-2.324a.95.95 0 0 0 .016-1.665l-7.079-3.994a2.854 2.854 0 0 0-2.764-.022l-4.265 2.318a.95.95 0 0 0-.015 1.662Z"/><path fill="url(#o)" d="m122.18 123.178 7.031 3.994a2.85 2.85 0 0 0 2.761.031l4.315-2.323a.95.95 0 0 0 .017-1.665l-7.08-3.995a2.85 2.85 0 0 0-2.764-.021l-4.264 2.317a.95.95 0 0 0-.016 1.662Zm-16.638 8.557 7.031 3.994a2.853 2.853 0 0 0 2.761.031l4.315-2.324a.95.95 0 0 0 .017-1.665l-7.08-3.994a2.852 2.852 0 0 0-2.763-.022l-4.265 2.318a.951.951 0 0 0-.016 1.662Zm21.289 3.035-12.503-7.16a.951.951 0 0 1 .018-1.661l4.264-2.317a2.852 2.852 0 0 1 2.774.028l12.555 7.158a.95.95 0 0 1-.021 1.663l-4.317 2.325a2.852 2.852 0 0 1-2.77-.036Zm-29.379 1.72 12.504 7.161a2.853 2.853 0 0 0 2.769.036l4.318-2.325a.95.95 0 0 0 .02-1.663l-12.554-7.158a2.851 2.851 0 0 0-2.775-.028l-4.263 2.317a.95.95 0 0 0-.019 1.66Zm42.217-3.138-7.031-3.994a.95.95 0 0 1 .016-1.662l4.264-2.318a2.854 2.854 0 0 1 2.764.022l7.079 3.995a.95.95 0 0 1-.016 1.665l-4.315 2.323a2.85 2.85 0 0 1-2.761-.031ZM116 137.915l7.031 3.993a2.853 2.853 0 0 0 2.761.032l4.315-2.324a.95.95 0 0 0 .017-1.665l-7.08-3.994a2.849 2.849 0 0 0-2.763-.022l-4.265 2.318a.951.951 0 0 0-.016 1.662Zm21.292 3.043-7.031-3.994a.951.951 0 0 1 .016-1.662l4.265-2.318a2.852 2.852 0 0 1 2.763.022l7.08 3.994a.95.95 0 0 1-.017 1.665l-4.315 2.324a2.853 2.853 0 0 1-2.761-.031Zm-23.906 4.886 7.031 3.994a2.853 2.853 0 0 0 2.761.032l4.315-2.324a.95.95 0 0 0 .016-1.665l-7.079-3.995a2.854 2.854 0 0 0-2.764-.021l-4.265 2.317a.95.95 0 0 0-.015 1.662Zm37.216-6.312-7.031-3.994a.951.951 0 0 1 .016-1.662l4.265-2.318a2.852 2.852 0 0 1 2.763.022l7.08 3.994a.95.95 0 0 1-.017 1.665l-4.315 2.324a2.853 2.853 0 0 1-2.761-.031Zm-23.668 4.562 7.031 3.994a2.85 2.85 0 0 0 2.761.031l4.315-2.323a.95.95 0 0 0 .016-1.665l-7.079-3.995a2.854 2.854 0 0 0-2.764-.022l-4.265 2.318a.95.95 0 0 0-.015 1.662Zm21.291 3.043-7.03-3.993a.95.95 0 0 1 .015-1.662l4.265-2.318a2.85 2.85 0 0 1 2.764.022l7.079 3.994a.95.95 0 0 1-.016 1.665l-4.316 2.324a2.853 2.853 0 0 1-2.761-.032Zm-23.919 4.89 28.286 16.253a2.853 2.853 0 0 0 2.773.038l4.319-2.326a.95.95 0 0 0 .023-1.662l-28.338-16.248a2.855 2.855 0 0 0-2.781-.032l-4.262 2.317a.951.951 0 0 0-.02 1.66Zm37.23-6.316-7.031-3.993a.95.95 0 0 1 .015-1.662l4.265-2.318a2.85 2.85 0 0 1 2.764.022l7.079 3.994a.95.95 0 0 1-.016 1.665l-4.315 2.324a2.853 2.853 0 0 1-2.761-.032Zm-23.669 4.563 7.031 3.994a2.85 2.85 0 0 0 2.761.031l4.315-2.323a.951.951 0 0 0 .016-1.666l-7.079-3.994a2.854 2.854 0 0 0-2.764-.022l-4.264 2.318a.95.95 0 0 0-.016 1.662Zm21.292 3.043-7.031-3.994a.95.95 0 0 1 .015-1.662l4.265-2.318a2.854 2.854 0 0 1 2.764.022l7.079 3.995a.95.95 0 0 1-.016 1.665l-4.315 2.323a2.85 2.85 0 0 1-2.761-.031Zm5.804-5.42 7.031 3.994a2.849 2.849 0 0 0 2.76.031l4.316-2.323a.95.95 0 0 0 .016-1.665l-7.079-3.995a2.854 2.854 0 0 0-2.764-.022l-4.265 2.318a.95.95 0 0 0-.015 1.662Zm-9.607 12.551-7.031-3.994a.95.95 0 0 1 .016-1.662l4.264-2.318a2.854 2.854 0 0 1 2.764.022l7.079 3.994a.95.95 0 0 1-.016 1.665l-4.315 2.324a2.856 2.856 0 0 1-2.761-.031Zm7.23-4.945 7.031 3.994a2.85 2.85 0 0 0 2.761.031l4.315-2.323a.952.952 0 0 0 .016-1.666l-7.079-3.994a2.854 2.854 0 0 0-2.764-.022l-4.265 2.318a.95.95 0 0 0-.015 1.662Zm30.799 8.747-7.031-3.993a.95.95 0 0 1 .016-1.662l4.264-2.318a2.85 2.85 0 0 1 2.764.022l7.079 3.994a.95.95 0 0 1-.016 1.665l-4.315 2.324a2.853 2.853 0 0 1-2.761-.032Zm-23.669 4.563 7.031 3.994a2.85 2.85 0 0 0 2.761.031l4.315-2.323a.95.95 0 0 0 .017-1.665l-7.08-3.995a2.852 2.852 0 0 0-2.763-.022l-4.265 2.318a.951.951 0 0 0-.016 1.662Zm26.134 5.884-11.886-6.832a.95.95 0 0 1 .02-1.66l4.264-2.317a2.852 2.852 0 0 1 2.778.03l11.936 6.83a.95.95 0 0 1-.021 1.662l-4.318 2.325a2.85 2.85 0 0 1-2.773-.038Zm-28.761 2.048 11.885 6.832a2.852 2.852 0 0 0 2.774.039l4.317-2.325a.95.95 0 0 0 .022-1.662l-11.936-6.83a2.854 2.854 0 0 0-2.779-.031l-4.264 2.318a.95.95 0 0 0-.019 1.659Zm15.838-18.674-7.031-3.994a.95.95 0 0 1 .016-1.662l4.264-2.318a2.854 2.854 0 0 1 2.764.022l7.079 3.994a.95.95 0 0 1-.016 1.665l-4.315 2.324a2.853 2.853 0 0 1-2.761-.031Zm-23.669 4.562 7.031 3.994a2.853 2.853 0 0 0 2.761.032l4.315-2.324a.95.95 0 0 0 .017-1.665l-7.08-3.995a2.852 2.852 0 0 0-2.763-.021l-4.265 2.318a.95.95 0 0 0-.016 1.661Zm21.292 3.044-7.031-3.994a.951.951 0 0 1 .016-1.662l4.265-2.318a2.852 2.852 0 0 1 2.763.022l7.08 3.994a.95.95 0 0 1-.017 1.665l-4.315 2.324a2.856 2.856 0 0 1-2.761-.031Zm-23.906 4.886 7.031 3.994a2.85 2.85 0 0 0 2.761.031l4.315-2.323a.95.95 0 0 0 .016-1.665l-7.079-3.995a2.854 2.854 0 0 0-2.764-.022l-4.265 2.318a.95.95 0 0 0-.015 1.662Zm47.674-.133-7.031-3.994a.951.951 0 0 1 .016-1.662l4.265-2.318a2.852 2.852 0 0 1 2.763.022l7.08 3.995a.95.95 0 0 1-.017 1.665l-4.315 2.323a2.85 2.85 0 0 1-2.761-.031Zm-23.668 4.563 7.03 3.994a2.853 2.853 0 0 0 2.761.031l4.316-2.324a.95.95 0 0 0 .016-1.665l-7.079-3.994a2.854 2.854 0 0 0-2.764-.022l-4.265 2.318a.95.95 0 0 0-.015 1.662Z"/></g><path fill="url(#p)" d="m135.001 176.619-25.183-14.863c-1.898-1.121-1.863-3.879.064-4.95l8.416-4.679 32.392 19.048-10.038 5.528a5.703 5.703 0 0 1-5.651-.084Z"/><path fill="url(#q)" d="m135.001 176.619-25.183-14.863c-1.898-1.121-1.863-3.879.064-4.95l8.416-4.679 32.392 19.048-10.038 5.528a5.703 5.703 0 0 1-5.651-.084Z"/><path fill="url(#r)" d="m135.001 176.619-25.183-14.863c-1.898-1.121-1.863-3.879.064-4.95l8.416-4.679 32.392 19.048-10.038 5.528a5.703 5.703 0 0 1-5.651-.084Z"/><g filter="url(#s)"><path fill="#DCE3FF" d="m223.896 167.964-95.548-54.877 31.603-67.32a5.704 5.704 0 0 1 7.987-2.532l85.614 48.77a5.704 5.704 0 0 1 2.346 7.37l-32.002 68.589Z"/></g><g filter="url(#t)"><path fill="#E1FEFF" d="m221.258 165.314-89.107-51.944 29.259-62.607a5.705 5.705 0 0 1 7.983-2.546l80.073 45.422a5.704 5.704 0 0 1 2.337 7.41l-30.545 64.265Z"/></g><path fill="url(#u)" fill-rule="evenodd" d="m200.913 79.118 1.75-4.013a2.852 2.852 0 0 0-1.217-3.626l-31.367-17.631a2.852 2.852 0 0 0-4.012 1.346l-1.75 4.014a2.852 2.852 0 0 0 1.217 3.626l31.367 17.631a2.852 2.852 0 0 0 4.012-1.347Zm5.538 11.765-43.122-24.767a1.857 1.857 0 0 0-1.85 3.22l43.122 24.768a1.857 1.857 0 1 0 1.85-3.22Zm36.79 15.61-21.372 46.378a2.853 2.853 0 0 1-4.001 1.285l-24.259-13.806a2.853 2.853 0 0 1-1.18-3.673L213.801 90.3a2.852 2.852 0 0 1 4.001-1.285l24.259 13.806a2.852 2.852 0 0 1 1.18 3.672Zm-39.88-9.905L160.239 71.82a1.856 1.856 0 1 0-1.849 3.221l43.121 24.767a1.857 1.857 0 0 0 1.85-3.22ZM157.863 78l43.121 24.767a1.856 1.856 0 1 1-1.849 3.221l-43.122-24.767a1.856 1.856 0 1 1 1.85-3.221Zm31.192 54.845 8.596-19.246a2.853 2.853 0 0 0-1.184-3.636l-41.376-23.765a2.852 2.852 0 0 0-4.025 1.31l-8.595 19.246a2.853 2.853 0 0 0 1.184 3.637l41.376 23.764a2.852 2.852 0 0 0 4.024-1.31Z" clip-rule="evenodd"/><path fill="url(#v)" fill-rule="evenodd" d="m200.913 79.118 1.75-4.013a2.852 2.852 0 0 0-1.217-3.626l-31.367-17.631a2.852 2.852 0 0 0-4.012 1.346l-1.75 4.014a2.852 2.852 0 0 0 1.217 3.626l31.367 17.631a2.852 2.852 0 0 0 4.012-1.347Zm5.538 11.765-43.122-24.767a1.857 1.857 0 0 0-1.85 3.22l43.122 24.768a1.857 1.857 0 1 0 1.85-3.22Zm36.79 15.61-21.372 46.378a2.853 2.853 0 0 1-4.001 1.285l-24.259-13.806a2.853 2.853 0 0 1-1.18-3.673L213.801 90.3a2.852 2.852 0 0 1 4.001-1.285l24.259 13.806a2.852 2.852 0 0 1 1.18 3.672Zm-39.88-9.905L160.239 71.82a1.856 1.856 0 1 0-1.849 3.221l43.121 24.767a1.857 1.857 0 0 0 1.85-3.22ZM157.863 78l43.121 24.767a1.856 1.856 0 1 1-1.849 3.221l-43.122-24.767a1.856 1.856 0 1 1 1.85-3.221Zm31.192 54.845 8.596-19.246a2.853 2.853 0 0 0-1.184-3.636l-41.376-23.765a2.852 2.852 0 0 0-4.025 1.31l-8.595 19.246a2.853 2.853 0 0 0 1.184 3.637l41.376 23.764a2.852 2.852 0 0 0 4.024-1.31Z" clip-rule="evenodd"/><path fill="url(#w)" fill-rule="evenodd" d="m200.913 79.118 1.75-4.013a2.852 2.852 0 0 0-1.217-3.626l-31.367-17.631a2.852 2.852 0 0 0-4.012 1.346l-1.75 4.014a2.852 2.852 0 0 0 1.217 3.626l31.367 17.631a2.852 2.852 0 0 0 4.012-1.347Zm5.538 11.765-43.122-24.767a1.857 1.857 0 0 0-1.85 3.22l43.122 24.768a1.857 1.857 0 1 0 1.85-3.22Zm36.79 15.61-21.372 46.378a2.853 2.853 0 0 1-4.001 1.285l-24.259-13.806a2.853 2.853 0 0 1-1.18-3.673L213.801 90.3a2.852 2.852 0 0 1 4.001-1.285l24.259 13.806a2.852 2.852 0 0 1 1.18 3.672Zm-39.88-9.905L160.239 71.82a1.856 1.856 0 1 0-1.849 3.221l43.121 24.767a1.857 1.857 0 0 0 1.85-3.22ZM157.863 78l43.121 24.767a1.856 1.856 0 1 1-1.849 3.221l-43.122-24.767a1.856 1.856 0 1 1 1.85-3.221Zm31.192 54.845 8.596-19.246a2.853 2.853 0 0 0-1.184-3.636l-41.376-23.765a2.852 2.852 0 0 0-4.025 1.31l-8.595 19.246a2.853 2.853 0 0 0 1.184 3.637l41.376 23.764a2.852 2.852 0 0 0 4.024-1.31Z" clip-rule="evenodd"/><g filter="url(#x)"><path fill="#00B884" d="m225.156 145.32-1.384 2.94c-2.366 5.028-8.52 6.964-13.337 4.196l-29.805-17.118a9.507 9.507 0 0 1-3.867-12.292l1.384-2.941c2.365-5.027 8.519-6.963 13.337-4.196l29.805 17.118a9.508 9.508 0 0 1 3.867 12.293Z"/></g><path fill="#fff" d="m194.41 125.475 1.75.999-3.701 6.488 3.879 2.213-.839 1.472-5.63-3.212 4.541-7.96Zm6.608 3.77 1.75.999-4.541 7.959-1.75-.998 4.541-7.96Zm2.448 11.947-1.973-1.125 1.966-9.429 1.795 1.024-1.421 6.607.023.013 4.987-4.572 1.806 1.03-7.183 6.452Zm7.862-6.065 5.953 3.396-.839 1.472-4.203-2.398-.973 1.706 3.857 2.2-.776 1.361-3.857-2.201-1.113 1.951 4.292 2.449-.84 1.471-6.042-3.447 4.541-7.96Z"/><circle cx="183.728" cy="123.843" r="2.139" fill="#fff"/></g><defs><linearGradient id="b" x1="45.397" x2="184.754" y1="-45.386" y2="201.82" gradientUnits="userSpaceOnUse"><stop offset=".026" stop-color="#CFECFD" stop-opacity=".99"/><stop offset="1" stop-color="#FD71AF" stop-opacity=".01"/></linearGradient><linearGradient id="c" x1="239.927" x2="211.645" y1="200.9" y2="120.027" gradientUnits="userSpaceOnUse"><stop stop-color="#CEEFFF"/><stop offset=".026" stop-color="#CFECFD" stop-opacity=".83"/><stop offset="1" stop-color="#FD71AF" stop-opacity=".01"/></linearGradient><linearGradient id="d" x1="101.201" x2="189.932" y1="-27.559" y2="225.511" gradientUnits="userSpaceOnUse"><stop stop-color="#00B4D5"/><stop offset="1" stop-color="#DCE3FF"/></linearGradient><linearGradient id="e" x1="137.358" x2="146.994" y1="174.693" y2="198.443" gradientUnits="userSpaceOnUse"><stop stop-color="#8791AB"/><stop offset=".844" stop-color="#BEC6E1" stop-opacity=".75"/></linearGradient><linearGradient id="f" x1="98.049" x2="197.203" y1="150.769" y2="138.18" gradientUnits="userSpaceOnUse"><stop offset=".198" stop-color="#F2FDFF"/><stop offset="1" stop-color="#FFBFF1"/></linearGradient><linearGradient id="g" x1="121.654" x2="151.857" y1="133.643" y2="188.476" gradientUnits="userSpaceOnUse"><stop stop-color="#FEAFE7" stop-opacity=".76"/><stop offset=".083" stop-color="#fff" stop-opacity=".917"/><stop offset="1" stop-color="#E2F7FB" stop-opacity="0"/></linearGradient><linearGradient id="h" x1="149.433" x2="149.433" y1="111.183" y2="201.025" gradientUnits="userSpaceOnUse"><stop stop-color="#8892AC"/><stop offset="1" stop-color="#ADACF2"/></linearGradient><linearGradient id="i" x1="115.258" x2="159.578" y1="135.756" y2="130.159" gradientUnits="userSpaceOnUse"><stop offset=".198" stop-color="#F2FDFF"/><stop offset="1" stop-color="#FFBFF1"/></linearGradient><linearGradient id="j" x1="125.807" x2="139.416" y1="128.061" y2="152.636" gradientUnits="userSpaceOnUse"><stop stop-color="#FEAFE7" stop-opacity=".76"/><stop offset=".083" stop-color="#fff" stop-opacity=".917"/><stop offset="1" stop-color="#E2F7FB" stop-opacity="0"/></linearGradient><linearGradient id="k" x1="138.221" x2="138.221" y1="117.969" y2="158.337" gradientUnits="userSpaceOnUse"><stop stop-color="#616776"/><stop offset="1" stop-color="#7979A4"/></linearGradient><linearGradient id="m" x1="183.601" x2="192.906" y1="174.006" y2="172.815" gradientUnits="userSpaceOnUse"><stop offset=".198" stop-color="#F2FDFF"/><stop offset="1" stop-color="#FFBFF1"/></linearGradient><linearGradient id="n" x1="185.817" x2="188.615" y1="172.412" y2="177.536" gradientUnits="userSpaceOnUse"><stop stop-color="#FEAFE7" stop-opacity=".76"/><stop offset=".083" stop-color="#fff" stop-opacity=".917"/><stop offset="1" stop-color="#E2F7FB" stop-opacity="0"/></linearGradient><linearGradient id="o" x1="197.939" x2="167.516" y1="217.32" y2="111.076" gradientUnits="userSpaceOnUse"><stop stop-color="#7B68EE"/><stop offset="1" stop-color="#F7DAF4"/></linearGradient><linearGradient id="p" x1="113.451" x2="130.065" y1="158.966" y2="156.886" gradientUnits="userSpaceOnUse"><stop offset=".198" stop-color="#F2FDFF"/><stop offset="1" stop-color="#FFBFF1"/></linearGradient><linearGradient id="q" x1="117.405" x2="122.573" y1="156.058" y2="165.309" gradientUnits="userSpaceOnUse"><stop stop-color="#FEAFE7" stop-opacity=".76"/><stop offset=".083" stop-color="#fff" stop-opacity=".917"/><stop offset="1" stop-color="#E2F7FB" stop-opacity="0"/></linearGradient><linearGradient id="r" x1="122.057" x2="122.057" y1="152.243" y2="167.502" gradientUnits="userSpaceOnUse"><stop stop-color="#616776"/><stop offset="1" stop-color="#7979A4"/></linearGradient><linearGradient id="u" x1="142.223" x2="282.053" y1="104.005" y2="215.009" gradientUnits="userSpaceOnUse"><stop offset=".198" stop-color="#F2FDFF"/><stop offset="1" stop-color="#FFC800"/></linearGradient><linearGradient id="v" x1="165.951" x2="229.604" y1="73.491" y2="138.687" gradientUnits="userSpaceOnUse"><stop stop-color="#FEAFE7" stop-opacity=".76"/><stop offset=".822" stop-color="#fff" stop-opacity=".917"/><stop offset="1" stop-color="#E2F7FB" stop-opacity="0"/></linearGradient><linearGradient id="w" x1="223.247" x2="112.821" y1="72.99" y2="186.213" gradientUnits="userSpaceOnUse"><stop stop-color="#F90"/><stop offset=".094" stop-color="#fff" stop-opacity="0"/><stop offset=".969" stop-color="#F8F4E9"/></linearGradient><filter id="l" width="114.92" height="66.055" x="96.974" y="118.852" color-interpolation-filters="sRGB" filterUnits="userSpaceOnUse"><feFlood flood-opacity="0" result="BackgroundImageFix"/><feColorMatrix in="SourceAlpha" result="hardAlpha" values="0 0 0 0 0 0 0 0 0 0 0 0 0 0 0 0 0 0 127 0"/><feOffset dy=".951"/><feComposite in2="hardAlpha" operator="out"/><feColorMatrix values="0 0 0 0 0 0 0 0 0 0 0 0 0 0 0 0 0 0 0.21 0"/><feBlend in2="BackgroundImageFix" result="effect1_dropShadow_8646_18146"/><feBlend in="SourceGraphic" in2="effect1_dropShadow_8646_18146" result="shape"/></filter><filter id="s" width="130.938" height="125.479" x="128.348" y="42.486" color-interpolation-filters="sRGB" filterUnits="userSpaceOnUse"><feFlood flood-opacity="0" result="BackgroundImageFix"/><feColorMatrix in="SourceAlpha" result="hardAlpha" values="0 0 0 0 0 0 0 0 0 0 0 0 0 0 0 0 0 0 127 0"/><feOffset dx="2.852"/><feComposite in2="hardAlpha" operator="out"/><feColorMatrix values="0 0 0 0 0.529412 0 0 0 0 0.568627 0 0 0 0 0.670588 0 0 0 1 0"/><feBlend in2="BackgroundImageFix" result="effect1_dropShadow_8646_18146"/><feBlend in="SourceGraphic" in2="effect1_dropShadow_8646_18146" result="shape"/></filter><filter id="t" width="120.206" height="117.842" x="132.151" y="47.472" color-interpolation-filters="sRGB" filterUnits="userSpaceOnUse"><feFlood flood-opacity="0" result="BackgroundImageFix"/><feBlend in="SourceGraphic" in2="BackgroundImageFix" result="shape"/><feColorMatrix in="SourceAlpha" result="hardAlpha" values="0 0 0 0 0 0 0 0 0 0 0 0 0 0 0 0 0 0 127 0"/><feOffset dx=".951" dy="-.475"/><feComposite in2="hardAlpha" k2="-1" k3="1" operator="arithmetic"/><feColorMatrix values="0 0 0 0 0.360784 0 0 0 0 0.917647 0 0 0 0 0.717647 0 0 0 1 0"/><feBlend in2="shape" result="effect1_innerShadow_8646_18146"/></filter><filter id="x" width="50.206" height="39.079" x="175.856" y="114.643" color-interpolation-filters="sRGB" filterUnits="userSpaceOnUse"><feFlood flood-opacity="0" result="BackgroundImageFix"/><feBlend in="SourceGraphic" in2="BackgroundImageFix" result="shape"/><feColorMatrix in="SourceAlpha" result="hardAlpha" values="0 0 0 0 0 0 0 0 0 0 0 0 0 0 0 0 0 0 127 0"/><feOffset dx=".951" dy="-.475"/><feComposite in2="hardAlpha" k2="-1" k3="1" operator="arithmetic"/><feColorMatrix values="0 0 0 0 0 0 0 0 0 0 0 0 0 0 0 0 0 0 0.25 0"/><feBlend in2="shape" result="effect1_innerShadow_8646_18146"/></filter><clipPath id="a"><path fill="#fff" d="M0 0h328v232H0z"/></clipPath></defs></svg>