<svg xmlns="http://www.w3.org/2000/svg" width="328" height="263" fill="none"><path d="M0 0h328v263H0z"/><path fill="url(#a)" d="M268.486 53.471c-46.454-74.85-125.564-36.65-163.252 12.199-101.96 132.155 341.612 275.192 163.252-12.2Z"/><path fill="url(#b)" d="M36.542 211.033c22.116 35.729 59.778 17.495 77.72-5.822 48.54-63.083-162.632-131.359-77.72 5.822Z"/><path fill="url(#c)" d="m172.091 103.953-128.02 73.912 128.02 73.912 128.02-73.912-128.02-73.912Z"/><path fill="#F3F5FA" d="M172.091 95.028 44.071 168.94l128.02 73.912 128.02-73.912-128.02-73.912Z"/><path fill="url(#d)" d="m225.361 205.249-112.123-64.957V18.028l112.123 64.636v122.585Z"/><path fill="url(#e)" d="m225.361 205.249-112.123-64.957V18.028l112.123 64.636v122.585Z"/><path fill="url(#f)" d="m225.361 205.249-112.123-64.957V18.028l112.123 64.636v122.585Z"/><path fill="url(#g)" d="m225.361 205.249-112.123-64.957V18.028l112.123 64.636v122.585Z"/><mask id="m" width="113" height="188" x="113" y="18" maskUnits="userSpaceOnUse" style="mask-type:alpha"><path fill="url(#h)" d="m225.361 205.249-112.123-64.957V18.028l112.123 64.636v122.585Z"/><path fill="url(#i)" d="m225.361 205.249-112.123-64.957V18.028l112.123 64.636v122.585Z"/><path fill="url(#j)" d="m225.361 205.249-112.123-64.957V18.028l112.123 64.636v122.585Z"/><path fill="url(#k)" d="m225.361 205.249-112.123-64.957V18.028l112.123 64.636v122.585Z"/><path fill="url(#l)" d="m225.361 205.249-112.123-64.957V18.028l112.123 64.636v122.585Z"/></mask><g mask="url(#m)"><g opacity=".8"><path fill="url(#n)" d="M237.077 153.346v-35.122l-32.819 18.932v34.958l32.819-18.768Z"/><path fill="url(#o)" d="M237.077 153.346v-35.122l-32.819 18.932v34.958l32.819-18.768Z"/><path fill="url(#p)" d="M237.077 153.346v-35.122l-32.819 18.932v34.958l32.819-18.768Z"/></g><g opacity=".8"><path fill="url(#q)" d="M204.259 137.156v34.959l-32.447-18.746V118.41l32.447 18.746Z"/><path fill="url(#r)" d="M204.259 137.156v34.959l-32.447-18.746V118.41l32.447 18.746Z"/><path fill="url(#s)" d="M204.259 137.156v34.959l-32.447-18.746V118.41l32.447 18.746Z"/></g><path fill="url(#t)" d="m200.716 136.871-28.904 16.223v-32.446l28.904 16.223Z" opacity=".78"/><g opacity=".8"><path fill="url(#u)" d="m204.445 99.49-32.633 18.92 32.447 18.748 32.819-18.934-32.633-18.733Z"/><path fill="url(#v)" d="m204.445 99.49-32.633 18.92 32.447 18.748 32.819-18.934-32.633-18.733Z"/><path fill="url(#w)" d="m204.445 99.49-32.633 18.92 32.447 18.748 32.819-18.934-32.633-18.733Z"/></g><g opacity=".8"><path fill="url(#x)" d="M237.077 115.972V80.85l-32.819 18.932v34.958l32.819-18.768Z"/><path fill="url(#y)" d="M237.077 115.972V80.85l-32.819 18.932v34.958l32.819-18.768Z"/><path fill="url(#z)" d="M237.077 115.972V80.85l-32.819 18.932v34.958l32.819-18.768Z"/></g><g opacity=".8"><path fill="url(#A)" d="M204.259 99.782v34.958l-32.447-18.745V81.036l32.447 18.746Z"/><path fill="url(#B)" d="M204.259 99.782v34.958l-32.447-18.745V81.036l32.447 18.746Z"/><path fill="url(#C)" d="M204.259 99.782v34.958l-32.447-18.745V81.036l32.447 18.746Z"/></g><path fill="url(#D)" d="m200.716 99.497-28.904 16.223V83.274l28.904 16.223Z" opacity=".78"/><g opacity=".8"><path fill="url(#E)" d="m204.445 62.116-32.633 18.92 32.447 18.748 32.819-18.934-32.633-18.734Z"/><path fill="url(#F)" d="m204.445 62.116-32.633 18.92 32.447 18.748 32.819-18.934-32.633-18.734Z"/><path fill="url(#G)" d="m204.445 62.116-32.633 18.92 32.447 18.748 32.819-18.934-32.633-18.734Z"/></g><g opacity=".8"><path fill="url(#H)" d="M237.077 61.305V26.183l-32.819 18.932v34.958l32.819-18.768Z"/><path fill="url(#I)" d="M237.077 61.305V26.183l-32.819 18.932v34.958l32.819-18.768Z"/><path fill="url(#J)" d="M237.077 61.305V26.183l-32.819 18.932v34.958l32.819-18.768Z"/><path stroke="url(#K)" stroke-dasharray="3.35 3.35" stroke-linecap="round" stroke-linejoin="round" stroke-width="1.673" d="M237.077 61.305V26.183l-32.819 18.932v34.958l32.819-18.768Z"/></g><g opacity=".8"><path fill="url(#L)" d="M204.259 45.115v34.959l-32.447-18.746V26.369l32.447 18.746Z"/><path fill="url(#M)" d="M204.259 45.115v34.959l-32.447-18.746V26.369l32.447 18.746Z"/><path fill="url(#N)" d="M204.259 45.115v34.959l-32.447-18.746V26.369l32.447 18.746Z"/><path stroke="url(#O)" stroke-dasharray="3.35 3.35" stroke-linecap="round" stroke-linejoin="round" stroke-width="1.673" d="M204.259 45.115v34.959l-32.447-18.746V26.369l32.447 18.746Z"/></g><path fill="url(#P)" d="m200.716 44.83-28.904 16.223V28.607l28.904 16.223Z" opacity=".78"/><g opacity=".8"><path fill="url(#Q)" d="m204.445 7.45-32.633 18.92 32.447 18.747 32.819-18.934L204.445 7.45Z"/><path fill="url(#R)" d="m204.445 7.45-32.633 18.92 32.447 18.747 32.819-18.934L204.445 7.45Z"/><path fill="url(#S)" d="m204.445 7.45-32.633 18.92 32.447 18.747 32.819-18.934L204.445 7.45Z"/><path stroke="url(#T)" stroke-dasharray="3.35 3.35" stroke-linecap="round" stroke-linejoin="round" stroke-width="1.673" d="m204.445 7.45-32.633 18.92 32.447 18.747 32.819-18.934L204.445 7.45Z"/></g></g><path fill="url(#U)" d="m225.361 205.249-112.123-64.957V18.028l112.123 64.636v122.585Z"/><path fill="url(#V)" d="m225.361 205.249-112.123-64.957V18.028l112.123 64.636v122.585Z"/><g filter="url(#W)"><circle cx="189.103" cy="108.416" r="1.673" stroke="#FF7272" stroke-linecap="round" stroke-linejoin="round" stroke-width="3.347"/></g><g filter="url(#X)"><circle cx="147.826" cy="132.402" r="1.673" stroke="#FF7272" stroke-linecap="round" stroke-linejoin="round" stroke-width="3.347"/></g><g filter="url(#Y)"><circle cx="147.826" cy="169.777" r="1.673" stroke="#FF7272" stroke-linecap="round" stroke-linejoin="round" stroke-width="3.347"/></g><g filter="url(#Z)"><circle cx="189.103" cy="146.348" r="1.673" stroke="#FF7272" stroke-linecap="round" stroke-linejoin="round" stroke-width="3.347"/></g><path fill="#fff" d="M113.32 18.307v120.598l1.034-.521V19.979l-1.034-1.672Z"/><path fill="#8892AC" d="M225.359 83.778 109.332 16.914V13.57l116.027 66.307v3.9Zm0 123.142-116.027-66.864v-3.343l116.027 66.307v3.9Z"/><path fill="#fff" d="M225.361 203.02 113.32 138.905l1.034-.52 109.891 62.318 1.116 2.317Z"/><path fill="#8892AC" d="m221.457 79.878 3.905 2.563V206.92l-3.905-2.403V79.877ZM109.332 16.357l3.905 2.229v123.699l-3.905-2.403V16.357Z"/><path fill="url(#aa)" d="m225.359 79.878 4.463-2.605v127.244l-4.463 2.403V79.878Z"/><path fill="url(#ab)" fill-opacity=".53" d="m225.359 79.878 4.463-2.605v127.244l-4.463 2.403V79.878Z"/><path fill="url(#ac)" fill-opacity=".62" d="m225.359 79.878 4.463-2.605v127.244l-4.463 2.403V79.878Z"/><g filter="url(#ad)"><path stroke="#FF7272" stroke-dasharray="4.46 4.46" stroke-linecap="round" stroke-linejoin="round" stroke-width="3.347" d="m182.965 111.763-26.496 15.34"/></g><g opacity=".8"><path fill="url(#ae)" d="M225.359 79.877 109.332 13.571l4.184-2.427 116.306 66.145-4.463 2.588Z"/><path fill="url(#af)" d="M225.359 79.877 109.332 13.571l4.184-2.427 116.306 66.145-4.463 2.588Z"/><path fill="url(#ag)" d="M225.359 79.877 109.332 13.571l4.184-2.427 116.306 66.145-4.463 2.588Z"/></g><g filter="url(#ah)"><path stroke="#FF7272" stroke-dasharray="4.46 4.46" stroke-linecap="round" stroke-linejoin="round" stroke-width="3.347" d="m182.965 149.137-26.496 15.34"/></g><g opacity=".8"><path fill="url(#ai)" d="M164.557 194.625v-35.122l-32.819 18.932v34.958l32.819-18.768Z"/><path fill="url(#aj)" d="M164.557 194.625v-35.122l-32.819 18.932v34.958l32.819-18.768Z"/><path fill="url(#ak)" d="M164.557 194.625v-35.122l-32.819 18.932v34.958l32.819-18.768Z"/></g><g opacity=".8"><path fill="url(#al)" d="M131.739 178.435v34.959l-32.446-18.746v-34.959l32.446 18.746Z"/><path fill="url(#am)" d="M131.739 178.435v34.959l-32.446-18.746v-34.959l32.446 18.746Z"/><path fill="url(#an)" d="M131.739 178.435v34.959l-32.446-18.746v-34.959l32.446 18.746Z"/></g><path fill="url(#ao)" d="m128.196 178.15-28.903 16.223v-32.446l28.903 16.223Z" opacity=".78"/><g opacity=".8"><path fill="url(#ap)" d="m131.926 140.77-32.633 18.919 32.446 18.748 32.819-18.934-32.632-18.733Z"/><path fill="url(#aq)" d="m131.926 140.77-32.633 18.919 32.446 18.748 32.819-18.934-32.632-18.733Z"/><path fill="url(#ar)" d="m131.926 140.77-32.633 18.919 32.446 18.748 32.819-18.934-32.632-18.733Z"/></g><g opacity=".8"><path fill="url(#as)" d="M164.557 157.251v-35.122l-32.819 18.932v34.958l32.819-18.768Z"/><path fill="url(#at)" d="M164.557 157.251v-35.122l-32.819 18.932v34.958l32.819-18.768Z"/><path fill="url(#au)" d="M164.557 157.251v-35.122l-32.819 18.932v34.958l32.819-18.768Z"/></g><g opacity=".8"><path fill="url(#av)" d="M131.739 141.061v34.958l-32.446-18.746v-34.958l32.446 18.746Z"/><path fill="url(#aw)" d="M131.739 141.061v34.958l-32.446-18.746v-34.958l32.446 18.746Z"/><path fill="url(#ax)" d="M131.739 141.061v34.958l-32.446-18.746v-34.958l32.446 18.746Z"/></g><path fill="url(#ay)" d="m128.196 140.776-28.903 16.223v-32.446l28.903 16.223Z" opacity=".78"/><g opacity=".8"><path fill="url(#az)" d="m131.926 103.395-32.633 18.92 32.446 18.748 32.819-18.934-32.632-18.734Z"/><path fill="url(#aA)" d="m131.926 103.395-32.633 18.92 32.446 18.748 32.819-18.934-32.632-18.734Z"/><path fill="url(#aB)" d="m131.926 103.395-32.633 18.92 32.446 18.748 32.819-18.934-32.632-18.734Z"/></g><g opacity=".8"><path fill="url(#aC)" d="M164.557 102.584V67.462l-32.819 18.932v34.959l32.819-18.769Z"/><path fill="url(#aD)" d="M164.557 102.584V67.462l-32.819 18.932v34.959l32.819-18.769Z"/><path fill="url(#aE)" d="M164.557 102.584V67.462l-32.819 18.932v34.959l32.819-18.769Z"/><path stroke="url(#aF)" stroke-dasharray="3.35 3.35" stroke-linecap="round" stroke-linejoin="round" stroke-width="1.673" d="M164.557 102.584V67.462l-32.819 18.932v34.959l32.819-18.769Z"/></g><g opacity=".8"><path fill="url(#aG)" d="M131.739 86.394v34.959l-32.446-18.746V67.648l32.446 18.746Z"/><path fill="url(#aH)" d="M131.739 86.394v34.959l-32.446-18.746V67.648l32.446 18.746Z"/><path fill="url(#aI)" d="M131.739 86.394v34.959l-32.446-18.746V67.648l32.446 18.746Z"/><path stroke="url(#aJ)" stroke-dasharray="3.35 3.35" stroke-linecap="round" stroke-linejoin="round" stroke-width="1.673" d="M131.739 86.394v34.959l-32.446-18.746V67.648l32.446 18.746Z"/></g><path fill="url(#aK)" d="m128.196 86.11-28.903 16.222V69.886l28.903 16.223Z" opacity=".78"/><g opacity=".8"><path fill="url(#aL)" d="m131.926 48.729-32.633 18.92 32.446 18.747 32.819-18.934-32.632-18.733Z"/><path fill="url(#aM)" d="m131.926 48.729-32.633 18.92 32.446 18.747 32.819-18.934-32.632-18.733Z"/><path fill="url(#aN)" d="m131.926 48.729-32.633 18.92 32.446 18.747 32.819-18.934-32.632-18.733Z"/><path stroke="url(#aO)" stroke-dasharray="3.35 3.35" stroke-linecap="round" stroke-linejoin="round" stroke-width="1.673" d="m131.926 48.729-32.633 18.92 32.446 18.747 32.819-18.934-32.632-18.733Z"/></g><defs><linearGradient id="a" x1="200.537" x2="161.595" y1="11.354" y2="243.073" gradientUnits="userSpaceOnUse"><stop offset=".026" stop-color="#CFECFD" stop-opacity=".99"/><stop offset=".226" stop-color="#D9D3ED" stop-opacity=".788"/><stop offset="1" stop-color="#FD71AF" stop-opacity=".01"/></linearGradient><linearGradient id="b" x1="68.891" x2="87.526" y1="231.137" y2="120.546" gradientUnits="userSpaceOnUse"><stop offset=".026" stop-color="#CFECFD" stop-opacity=".99"/><stop offset=".226" stop-color="#D9D3ED" stop-opacity=".788"/><stop offset="1" stop-color="#FD71AF" stop-opacity=".01"/></linearGradient><linearGradient id="c" x1="98.678" x2="202.8" y1="-37.176" y2="259.794" gradientUnits="userSpaceOnUse"><stop stop-color="#00B4D5"/><stop offset="1" stop-color="#DCE3FF"/></linearGradient><linearGradient id="d" x1="225.361" x2="258.949" y1="18.63" y2="164.726" gradientUnits="userSpaceOnUse"><stop offset=".002" stop-color="#DBF3F9"/><stop offset="1" stop-color="#997BF3"/></linearGradient><linearGradient id="e" x1="225.361" x2="258.949" y1="18.63" y2="164.726" gradientUnits="userSpaceOnUse"><stop offset=".002" stop-color="#99E3F3"/><stop offset="1" stop-color="#CEBDFF"/></linearGradient><linearGradient id="f" x1="202.556" x2="146.275" y1="235.088" y2="92.208" gradientUnits="userSpaceOnUse"><stop stop-color="#077393" stop-opacity=".86"/><stop offset=".228" stop-color="#fff" stop-opacity=".6"/><stop offset="1" stop-color="#8CE0F0" stop-opacity="0"/></linearGradient><linearGradient id="g" x1="244.473" x2="113.238" y1="19.832" y2="19.832" gradientUnits="userSpaceOnUse"><stop stop-color="#0081A7" stop-opacity="0"/><stop offset=".209" stop-color="#fff" stop-opacity=".38"/><stop offset="1" stop-color="#D5DAFF"/></linearGradient><linearGradient id="h" x1="225.361" x2="258.949" y1="18.63" y2="164.726" gradientUnits="userSpaceOnUse"><stop offset=".002" stop-color="#F8FEFF"/><stop offset="1" stop-color="#D6C8FF"/></linearGradient><linearGradient id="i" x1="225.361" x2="258.949" y1="18.63" y2="164.726" gradientUnits="userSpaceOnUse"><stop offset=".002" stop-color="#F8FEFF"/><stop offset="1" stop-color="#D6C8FF"/></linearGradient><linearGradient id="j" x1="202.556" x2="146.275" y1="235.088" y2="92.208" gradientUnits="userSpaceOnUse"><stop stop-color="#077393" stop-opacity=".86"/><stop offset=".228" stop-color="#fff" stop-opacity=".6"/><stop offset="1" stop-color="#8CE0F0" stop-opacity="0"/></linearGradient><linearGradient id="k" x1="244.473" x2="113.238" y1="19.832" y2="19.832" gradientUnits="userSpaceOnUse"><stop stop-color="#0081A7" stop-opacity="0"/><stop offset=".209" stop-color="#fff" stop-opacity=".38"/><stop offset="1" stop-color="#D5DAFF"/></linearGradient><linearGradient id="l" x1="199.143" x2="169.364" y1="31.401" y2="205.26" gradientUnits="userSpaceOnUse"><stop/><stop offset=".266" stop-color="#fff" stop-opacity=".734"/><stop offset="1" stop-opacity="0"/></linearGradient><linearGradient id="n" x1="237.077" x2="248.048" y1="118.41" y2="163.446" gradientUnits="userSpaceOnUse"><stop offset=".002" stop-color="#44DCFE"/><stop offset="1" stop-color="#3500D5"/></linearGradient><linearGradient id="o" x1="222.719" x2="210.971" y1="165.588" y2="142.465" gradientUnits="userSpaceOnUse"><stop stop-color="#077393" stop-opacity=".86"/><stop offset=".228" stop-color="#fff" stop-opacity=".6"/><stop offset="1" stop-color="#8CE0F0" stop-opacity="0"/></linearGradient><linearGradient id="p" x1="242.671" x2="204.258" y1="118.783" y2="118.783" gradientUnits="userSpaceOnUse"><stop stop-color="#0081A7" stop-opacity="0"/><stop offset=".209" stop-color="#EAEDFF" stop-opacity=".38"/><stop offset="1" stop-color="#D5DAFF"/></linearGradient><linearGradient id="q" x1="171.812" x2="168.853" y1="120.462" y2="172.767" gradientUnits="userSpaceOnUse"><stop offset=".002" stop-color="#fff"/><stop offset="1" stop-color="#5DE5FE"/></linearGradient><linearGradient id="r" x1="191.392" x2="205.937" y1="166.147" y2="140.974" gradientUnits="userSpaceOnUse"><stop stop-color="#57CEE4"/><stop offset=".109" stop-color="#fff" stop-opacity=".519"/><stop offset="1" stop-color="#DEF7FF"/></linearGradient><linearGradient id="s" x1="170.321" x2="205.564" y1="146.568" y2="146.568" gradientUnits="userSpaceOnUse"><stop stop-color="#7BD4E6"/><stop offset=".088" stop-color="#fff" stop-opacity=".51"/><stop offset="1" stop-color="#32C8FC" stop-opacity=".13"/></linearGradient><linearGradient id="t" x1="186.264" x2="186.264" y1="120.648" y2="153.094" gradientUnits="userSpaceOnUse"><stop offset=".05" stop-color="#F0DFF8" stop-opacity="0"/><stop offset="1" stop-color="#C2E0FC"/></linearGradient><linearGradient id="u" x1="171.813" x2="236.092" y1="118.324" y2="110.364" gradientUnits="userSpaceOnUse"><stop offset=".198" stop-color="#F2FDFF"/><stop offset="1" stop-color="#FFBFF1"/></linearGradient><linearGradient id="v" x1="187.103" x2="207.429" y1="106.95" y2="142.939" gradientUnits="userSpaceOnUse"><stop stop-color="#FEAFE7" stop-opacity=".76"/><stop offset=".083" stop-color="#fff" stop-opacity=".917"/><stop offset="1" stop-color="#E2F7FB" stop-opacity="0"/></linearGradient><linearGradient id="w" x1="224.025" x2="188.782" y1="106.763" y2="169.231" gradientUnits="userSpaceOnUse"><stop stop-color="#BB66E1"/><stop offset=".094" stop-color="#fff" stop-opacity="0"/><stop offset=".969" stop-color="#F8DBEC"/></linearGradient><linearGradient id="x" x1="237.077" x2="248.048" y1="81.036" y2="126.071" gradientUnits="userSpaceOnUse"><stop offset=".002" stop-color="#44DCFE"/><stop offset="1" stop-color="#3500D5"/></linearGradient><linearGradient id="y" x1="222.719" x2="210.971" y1="128.214" y2="105.091" gradientUnits="userSpaceOnUse"><stop stop-color="#077393" stop-opacity=".86"/><stop offset=".228" stop-color="#fff" stop-opacity=".6"/><stop offset="1" stop-color="#8CE0F0" stop-opacity="0"/></linearGradient><linearGradient id="z" x1="242.671" x2="204.258" y1="81.409" y2="81.409" gradientUnits="userSpaceOnUse"><stop stop-color="#0081A7" stop-opacity="0"/><stop offset=".209" stop-color="#EAEDFF" stop-opacity=".38"/><stop offset="1" stop-color="#D5DAFF"/></linearGradient><linearGradient id="A" x1="171.812" x2="168.853" y1="83.088" y2="135.393" gradientUnits="userSpaceOnUse"><stop offset=".002" stop-color="#fff"/><stop offset="1" stop-color="#5DE5FE"/></linearGradient><linearGradient id="B" x1="191.392" x2="205.937" y1="128.773" y2="103.599" gradientUnits="userSpaceOnUse"><stop stop-color="#57CEE4"/><stop offset=".109" stop-color="#fff" stop-opacity=".519"/><stop offset="1" stop-color="#DEF7FF"/></linearGradient><linearGradient id="C" x1="170.321" x2="205.564" y1="109.194" y2="109.194" gradientUnits="userSpaceOnUse"><stop stop-color="#7BD4E6"/><stop offset=".088" stop-color="#fff" stop-opacity=".51"/><stop offset="1" stop-color="#32C8FC" stop-opacity=".13"/></linearGradient><linearGradient id="D" x1="186.264" x2="186.264" y1="83.274" y2="115.72" gradientUnits="userSpaceOnUse"><stop offset=".05" stop-color="#F0DFF8" stop-opacity="0"/><stop offset="1" stop-color="#C2E0FC"/></linearGradient><linearGradient id="E" x1="171.813" x2="236.092" y1="80.95" y2="72.99" gradientUnits="userSpaceOnUse"><stop offset=".198" stop-color="#F2FDFF"/><stop offset="1" stop-color="#FFBFF1"/></linearGradient><linearGradient id="F" x1="187.103" x2="207.429" y1="69.575" y2="105.564" gradientUnits="userSpaceOnUse"><stop stop-color="#FEAFE7" stop-opacity=".76"/><stop offset=".083" stop-color="#fff" stop-opacity=".917"/><stop offset="1" stop-color="#E2F7FB" stop-opacity="0"/></linearGradient><linearGradient id="G" x1="224.025" x2="188.782" y1="69.389" y2="131.857" gradientUnits="userSpaceOnUse"><stop stop-color="#BB66E1"/><stop offset=".094" stop-color="#fff" stop-opacity="0"/><stop offset=".969" stop-color="#F8DBEC"/></linearGradient><linearGradient id="H" x1="237.077" x2="248.048" y1="26.369" y2="71.405" gradientUnits="userSpaceOnUse"><stop offset=".002" stop-color="#44DCFE"/><stop offset="1" stop-color="#3500D5"/></linearGradient><linearGradient id="I" x1="222.719" x2="210.971" y1="73.547" y2="50.424" gradientUnits="userSpaceOnUse"><stop stop-color="#077393" stop-opacity=".86"/><stop offset=".228" stop-color="#fff" stop-opacity=".6"/><stop offset="1" stop-color="#8CE0F0" stop-opacity="0"/></linearGradient><linearGradient id="J" x1="242.671" x2="204.258" y1="26.742" y2="26.742" gradientUnits="userSpaceOnUse"><stop stop-color="#0081A7" stop-opacity="0"/><stop offset=".209" stop-color="#EAEDFF" stop-opacity=".38"/><stop offset="1" stop-color="#D5DAFF"/></linearGradient><linearGradient id="K" x1="220.667" x2="220.667" y1="26.183" y2="80.073" gradientUnits="userSpaceOnUse"><stop stop-color="#8791AB"/><stop offset="1" stop-color="#6DD1F0"/></linearGradient><linearGradient id="L" x1="171.812" x2="168.853" y1="28.421" y2="80.726" gradientUnits="userSpaceOnUse"><stop offset=".002" stop-color="#fff"/><stop offset="1" stop-color="#5DE5FE"/></linearGradient><linearGradient id="M" x1="191.392" x2="205.937" y1="74.106" y2="48.933" gradientUnits="userSpaceOnUse"><stop stop-color="#57CEE4"/><stop offset=".109" stop-color="#fff" stop-opacity=".519"/><stop offset="1" stop-color="#DEF7FF"/></linearGradient><linearGradient id="N" x1="170.321" x2="205.564" y1="54.527" y2="54.527" gradientUnits="userSpaceOnUse"><stop stop-color="#7BD4E6"/><stop offset=".088" stop-color="#fff" stop-opacity=".51"/><stop offset="1" stop-color="#32C8FC" stop-opacity=".13"/></linearGradient><linearGradient id="O" x1="188.036" x2="188.036" y1="80.074" y2="26.369" gradientUnits="userSpaceOnUse"><stop stop-color="#8791AB"/><stop offset="1" stop-color="#6DD1F0"/></linearGradient><linearGradient id="P" x1="186.264" x2="186.264" y1="28.607" y2="61.053" gradientUnits="userSpaceOnUse"><stop offset=".05" stop-color="#F0DFF8" stop-opacity="0"/><stop offset="1" stop-color="#C2E0FC"/></linearGradient><linearGradient id="Q" x1="171.813" x2="236.092" y1="26.283" y2="18.324" gradientUnits="userSpaceOnUse"><stop offset=".198" stop-color="#F2FDFF"/><stop offset="1" stop-color="#FFBFF1"/></linearGradient><linearGradient id="R" x1="187.103" x2="207.429" y1="14.909" y2="50.898" gradientUnits="userSpaceOnUse"><stop stop-color="#FEAFE7" stop-opacity=".76"/><stop offset=".083" stop-color="#fff" stop-opacity=".917"/><stop offset="1" stop-color="#E2F7FB" stop-opacity="0"/></linearGradient><linearGradient id="S" x1="224.025" x2="188.782" y1="14.722" y2="77.19" gradientUnits="userSpaceOnUse"><stop stop-color="#BB66E1"/><stop offset=".094" stop-color="#fff" stop-opacity="0"/><stop offset=".969" stop-color="#F8DBEC"/></linearGradient><linearGradient id="T" x1="204.445" x2="204.445" y1="7.45" y2="45.117" gradientUnits="userSpaceOnUse"><stop stop-color="#8791AB"/><stop offset="1" stop-color="#6DD1F0"/></linearGradient><linearGradient id="U" x1="105.987" x2="234.908" y1="-23.483" y2="197.851" gradientUnits="userSpaceOnUse"><stop offset=".455" stop-color="#fff" stop-opacity="0"/><stop offset=".455" stop-color="#fff" stop-opacity=".86"/><stop offset=".48" stop-color="#fff" stop-opacity=".1"/><stop offset="1" stop-color="#fff" stop-opacity="0"/></linearGradient><linearGradient id="V" x1="93.714" x2="214.279" y1="20.536" y2="235.452" gradientUnits="userSpaceOnUse"><stop offset=".588" stop-color="#fff" stop-opacity="0"/><stop offset=".589" stop-color="#fff"/><stop offset=".649" stop-color="#fff" stop-opacity="0"/></linearGradient><linearGradient id="aa" x1="229.822" x2="252.917" y1="130.292" y2="139.327" gradientUnits="userSpaceOnUse"><stop offset=".002" stop-color="#44DCFE"/><stop offset="1" stop-color="#3500D5"/></linearGradient><linearGradient id="ab" x1="228.62" x2="218.526" y1="208.843" y2="206.998" gradientUnits="userSpaceOnUse"><stop stop-color="#077393" stop-opacity=".86"/><stop offset=".228" stop-color="#fff" stop-opacity=".6"/><stop offset="1" stop-color="#8CE0F0" stop-opacity="0"/></linearGradient><linearGradient id="ac" x1="230.583" x2="225.359" y1="130.824" y2="130.824" gradientUnits="userSpaceOnUse"><stop stop-color="#0081A7" stop-opacity="0"/><stop offset=".209" stop-color="#EAEDFF" stop-opacity=".38"/><stop offset="1" stop-color="#D5DAFF"/></linearGradient><linearGradient id="ae" x1="116.026" x2="235.466" y1="15.521" y2="63.246" gradientUnits="userSpaceOnUse"><stop offset=".198" stop-color="#F2FDFF"/><stop offset="1" stop-color="#FFBFF1"/></linearGradient><linearGradient id="af" x1="112.121" x2="227.703" y1="24.993" y2="76.901" gradientUnits="userSpaceOnUse"><stop stop-color="#FEAFE7" stop-opacity=".76"/><stop offset=".083" stop-color="#fff" stop-opacity=".917"/><stop offset="1" stop-color="#E2F7FB" stop-opacity="0"/></linearGradient><linearGradient id="ag" x1="228.149" x2="223.367" y1="75.831" y2="83.993" gradientUnits="userSpaceOnUse"><stop stop-color="#BB66E1"/><stop offset=".094" stop-color="#fff" stop-opacity="0"/><stop offset=".969" stop-color="#F8DBEC"/></linearGradient><linearGradient id="ai" x1="164.557" x2="175.528" y1="159.689" y2="204.725" gradientUnits="userSpaceOnUse"><stop offset=".002" stop-color="#44DCFE"/><stop offset="1" stop-color="#3500D5"/></linearGradient><linearGradient id="aj" x1="150.199" x2="138.451" y1="206.867" y2="183.744" gradientUnits="userSpaceOnUse"><stop stop-color="#077393" stop-opacity=".86"/><stop offset=".228" stop-color="#fff" stop-opacity=".6"/><stop offset="1" stop-color="#8CE0F0" stop-opacity="0"/></linearGradient><linearGradient id="ak" x1="170.152" x2="131.738" y1="160.062" y2="160.062" gradientUnits="userSpaceOnUse"><stop stop-color="#0081A7" stop-opacity="0"/><stop offset=".209" stop-color="#EAEDFF" stop-opacity=".38"/><stop offset="1" stop-color="#D5DAFF"/></linearGradient><linearGradient id="al" x1="99.293" x2="96.333" y1="161.741" y2="214.046" gradientUnits="userSpaceOnUse"><stop offset=".002" stop-color="#fff"/><stop offset="1" stop-color="#5DE5FE"/></linearGradient><linearGradient id="am" x1="118.873" x2="133.417" y1="207.426" y2="182.253" gradientUnits="userSpaceOnUse"><stop stop-color="#57CEE4"/><stop offset=".109" stop-color="#fff" stop-opacity=".519"/><stop offset="1" stop-color="#DEF7FF"/></linearGradient><linearGradient id="an" x1="97.801" x2="133.044" y1="187.847" y2="187.847" gradientUnits="userSpaceOnUse"><stop stop-color="#7BD4E6"/><stop offset=".088" stop-color="#fff" stop-opacity=".51"/><stop offset="1" stop-color="#32C8FC" stop-opacity=".13"/></linearGradient><linearGradient id="ao" x1="113.745" x2="113.745" y1="161.927" y2="194.373" gradientUnits="userSpaceOnUse"><stop offset=".05" stop-color="#F0DFF8" stop-opacity="0"/><stop offset="1" stop-color="#C2E0FC"/></linearGradient><linearGradient id="ap" x1="99.293" x2="163.573" y1="159.603" y2="151.644" gradientUnits="userSpaceOnUse"><stop offset=".198" stop-color="#F2FDFF"/><stop offset="1" stop-color="#FFBFF1"/></linearGradient><linearGradient id="aq" x1="114.584" x2="134.909" y1="148.229" y2="184.218" gradientUnits="userSpaceOnUse"><stop stop-color="#FEAFE7" stop-opacity=".76"/><stop offset=".083" stop-color="#fff" stop-opacity=".917"/><stop offset="1" stop-color="#E2F7FB" stop-opacity="0"/></linearGradient><linearGradient id="ar" x1="151.505" x2="116.262" y1="148.042" y2="210.51" gradientUnits="userSpaceOnUse"><stop stop-color="#BB66E1"/><stop offset=".094" stop-color="#fff" stop-opacity="0"/><stop offset=".969" stop-color="#F8DBEC"/></linearGradient><linearGradient id="as" x1="164.557" x2="175.528" y1="122.315" y2="167.35" gradientUnits="userSpaceOnUse"><stop offset=".002" stop-color="#44DCFE"/><stop offset="1" stop-color="#3500D5"/></linearGradient><linearGradient id="at" x1="150.199" x2="138.451" y1="169.493" y2="146.37" gradientUnits="userSpaceOnUse"><stop stop-color="#077393" stop-opacity=".86"/><stop offset=".228" stop-color="#fff" stop-opacity=".6"/><stop offset="1" stop-color="#8CE0F0" stop-opacity="0"/></linearGradient><linearGradient id="au" x1="170.152" x2="131.738" y1="122.688" y2="122.688" gradientUnits="userSpaceOnUse"><stop stop-color="#0081A7" stop-opacity="0"/><stop offset=".209" stop-color="#EAEDFF" stop-opacity=".38"/><stop offset="1" stop-color="#D5DAFF"/></linearGradient><linearGradient id="av" x1="99.293" x2="96.333" y1="124.366" y2="176.672" gradientUnits="userSpaceOnUse"><stop offset=".002" stop-color="#fff"/><stop offset="1" stop-color="#5DE5FE"/></linearGradient><linearGradient id="aw" x1="118.873" x2="133.417" y1="170.052" y2="144.878" gradientUnits="userSpaceOnUse"><stop stop-color="#57CEE4"/><stop offset=".109" stop-color="#fff" stop-opacity=".519"/><stop offset="1" stop-color="#DEF7FF"/></linearGradient><linearGradient id="ax" x1="97.801" x2="133.044" y1="150.472" y2="150.472" gradientUnits="userSpaceOnUse"><stop stop-color="#7BD4E6"/><stop offset=".088" stop-color="#fff" stop-opacity=".51"/><stop offset="1" stop-color="#32C8FC" stop-opacity=".13"/></linearGradient><linearGradient id="ay" x1="113.745" x2="113.745" y1="124.553" y2="156.999" gradientUnits="userSpaceOnUse"><stop offset=".05" stop-color="#F0DFF8" stop-opacity="0"/><stop offset="1" stop-color="#C2E0FC"/></linearGradient><linearGradient id="az" x1="99.293" x2="163.573" y1="122.229" y2="114.269" gradientUnits="userSpaceOnUse"><stop offset=".198" stop-color="#F2FDFF"/><stop offset="1" stop-color="#FFBFF1"/></linearGradient><linearGradient id="aA" x1="114.584" x2="134.909" y1="110.854" y2="146.843" gradientUnits="userSpaceOnUse"><stop stop-color="#FEAFE7" stop-opacity=".76"/><stop offset=".083" stop-color="#fff" stop-opacity=".917"/><stop offset="1" stop-color="#E2F7FB" stop-opacity="0"/></linearGradient><linearGradient id="aB" x1="151.505" x2="116.262" y1="110.668" y2="173.136" gradientUnits="userSpaceOnUse"><stop stop-color="#BB66E1"/><stop offset=".094" stop-color="#fff" stop-opacity="0"/><stop offset=".969" stop-color="#F8DBEC"/></linearGradient><linearGradient id="aC" x1="164.557" x2="175.528" y1="67.648" y2="112.684" gradientUnits="userSpaceOnUse"><stop offset=".002" stop-color="#44DCFE"/><stop offset="1" stop-color="#3500D5"/></linearGradient><linearGradient id="aD" x1="150.199" x2="138.451" y1="114.826" y2="91.704" gradientUnits="userSpaceOnUse"><stop stop-color="#077393" stop-opacity=".86"/><stop offset=".228" stop-color="#fff" stop-opacity=".6"/><stop offset="1" stop-color="#8CE0F0" stop-opacity="0"/></linearGradient><linearGradient id="aE" x1="170.152" x2="131.738" y1="68.022" y2="68.022" gradientUnits="userSpaceOnUse"><stop stop-color="#0081A7" stop-opacity="0"/><stop offset=".209" stop-color="#EAEDFF" stop-opacity=".38"/><stop offset="1" stop-color="#D5DAFF"/></linearGradient><linearGradient id="aF" x1="148.148" x2="148.148" y1="67.462" y2="121.353" gradientUnits="userSpaceOnUse"><stop stop-color="#8791AB"/><stop offset="1" stop-color="#6DD1F0"/></linearGradient><linearGradient id="aG" x1="99.293" x2="96.333" y1="69.7" y2="122.005" gradientUnits="userSpaceOnUse"><stop offset=".002" stop-color="#fff"/><stop offset="1" stop-color="#5DE5FE"/></linearGradient><linearGradient id="aH" x1="118.873" x2="133.417" y1="115.385" y2="90.212" gradientUnits="userSpaceOnUse"><stop stop-color="#57CEE4"/><stop offset=".109" stop-color="#fff" stop-opacity=".519"/><stop offset="1" stop-color="#DEF7FF"/></linearGradient><linearGradient id="aI" x1="97.801" x2="133.044" y1="95.806" y2="95.806" gradientUnits="userSpaceOnUse"><stop stop-color="#7BD4E6"/><stop offset=".088" stop-color="#fff" stop-opacity=".51"/><stop offset="1" stop-color="#32C8FC" stop-opacity=".13"/></linearGradient><linearGradient id="aJ" x1="115.516" x2="115.516" y1="121.353" y2="67.648" gradientUnits="userSpaceOnUse"><stop stop-color="#8791AB"/><stop offset="1" stop-color="#6DD1F0"/></linearGradient><linearGradient id="aK" x1="113.745" x2="113.745" y1="69.886" y2="102.332" gradientUnits="userSpaceOnUse"><stop offset=".05" stop-color="#F0DFF8" stop-opacity="0"/><stop offset="1" stop-color="#C2E0FC"/></linearGradient><linearGradient id="aL" x1="99.293" x2="163.573" y1="67.562" y2="59.602" gradientUnits="userSpaceOnUse"><stop offset=".198" stop-color="#F2FDFF"/><stop offset="1" stop-color="#FFBFF1"/></linearGradient><linearGradient id="aM" x1="114.584" x2="134.909" y1="56.188" y2="92.177" gradientUnits="userSpaceOnUse"><stop stop-color="#FEAFE7" stop-opacity=".76"/><stop offset=".083" stop-color="#fff" stop-opacity=".917"/><stop offset="1" stop-color="#E2F7FB" stop-opacity="0"/></linearGradient><linearGradient id="aN" x1="151.505" x2="116.262" y1="56.001" y2="118.469" gradientUnits="userSpaceOnUse"><stop stop-color="#BB66E1"/><stop offset=".094" stop-color="#fff" stop-opacity="0"/><stop offset=".969" stop-color="#F8DBEC"/></linearGradient><linearGradient id="aO" x1="131.926" x2="131.926" y1="48.729" y2="86.396" gradientUnits="userSpaceOnUse"><stop stop-color="#8791AB"/><stop offset="1" stop-color="#6DD1F0"/></linearGradient><filter id="W" width="7.807" height="8.367" x="185.758" y="103.395" color-interpolation-filters="sRGB" filterUnits="userSpaceOnUse"><feFlood flood-opacity="0" result="BackgroundImageFix"/><feBlend in="SourceGraphic" in2="BackgroundImageFix" result="shape"/><feColorMatrix in="SourceAlpha" result="hardAlpha" values="0 0 0 0 0 0 0 0 0 0 0 0 0 0 0 0 0 0 127 0"/><feOffset dx=".558" dy="-.558"/><feComposite in2="hardAlpha" k2="-1" k3="1" operator="arithmetic"/><feColorMatrix values="0 0 0 0 1 0 0 0 0 1 0 0 0 0 1 0 0 0 1 0"/><feBlend in2="shape" result="effect1_innerShadow_5905_111022"/><feColorMatrix in="SourceAlpha" result="hardAlpha" values="0 0 0 0 0 0 0 0 0 0 0 0 0 0 0 0 0 0 127 0"/><feOffset dx="1.116" dy="-1.673"/><feGaussianBlur stdDeviation=".837"/><feComposite in2="hardAlpha" k2="-1" k3="1" operator="arithmetic"/><feColorMatrix values="0 0 0 0 0.02 0 0 0 0 0 0 0 0 0 1 0 0 0 0.25 0"/><feBlend in2="effect1_innerShadow_5905_111022" result="effect2_innerShadow_5905_111022"/></filter><filter id="X" width="7.807" height="8.367" x="144.48" y="127.382" color-interpolation-filters="sRGB" filterUnits="userSpaceOnUse"><feFlood flood-opacity="0" result="BackgroundImageFix"/><feBlend in="SourceGraphic" in2="BackgroundImageFix" result="shape"/><feColorMatrix in="SourceAlpha" result="hardAlpha" values="0 0 0 0 0 0 0 0 0 0 0 0 0 0 0 0 0 0 127 0"/><feOffset dx=".558" dy="-.558"/><feComposite in2="hardAlpha" k2="-1" k3="1" operator="arithmetic"/><feColorMatrix values="0 0 0 0 1 0 0 0 0 1 0 0 0 0 1 0 0 0 1 0"/><feBlend in2="shape" result="effect1_innerShadow_5905_111022"/><feColorMatrix in="SourceAlpha" result="hardAlpha" values="0 0 0 0 0 0 0 0 0 0 0 0 0 0 0 0 0 0 127 0"/><feOffset dx="1.116" dy="-1.673"/><feGaussianBlur stdDeviation=".837"/><feComposite in2="hardAlpha" k2="-1" k3="1" operator="arithmetic"/><feColorMatrix values="0 0 0 0 0.02 0 0 0 0 0 0 0 0 0 1 0 0 0 0.25 0"/><feBlend in2="effect1_innerShadow_5905_111022" result="effect2_innerShadow_5905_111022"/></filter><filter id="Y" width="7.807" height="8.367" x="144.48" y="164.756" color-interpolation-filters="sRGB" filterUnits="userSpaceOnUse"><feFlood flood-opacity="0" result="BackgroundImageFix"/><feBlend in="SourceGraphic" in2="BackgroundImageFix" result="shape"/><feColorMatrix in="SourceAlpha" result="hardAlpha" values="0 0 0 0 0 0 0 0 0 0 0 0 0 0 0 0 0 0 127 0"/><feOffset dx=".558" dy="-.558"/><feComposite in2="hardAlpha" k2="-1" k3="1" operator="arithmetic"/><feColorMatrix values="0 0 0 0 1 0 0 0 0 1 0 0 0 0 1 0 0 0 1 0"/><feBlend in2="shape" result="effect1_innerShadow_5905_111022"/><feColorMatrix in="SourceAlpha" result="hardAlpha" values="0 0 0 0 0 0 0 0 0 0 0 0 0 0 0 0 0 0 127 0"/><feOffset dx="1.116" dy="-1.673"/><feGaussianBlur stdDeviation=".837"/><feComposite in2="hardAlpha" k2="-1" k3="1" operator="arithmetic"/><feColorMatrix values="0 0 0 0 0.02 0 0 0 0 0 0 0 0 0 1 0 0 0 0.25 0"/><feBlend in2="effect1_innerShadow_5905_111022" result="effect2_innerShadow_5905_111022"/></filter><filter id="Z" width="7.807" height="8.367" x="185.758" y="141.327" color-interpolation-filters="sRGB" filterUnits="userSpaceOnUse"><feFlood flood-opacity="0" result="BackgroundImageFix"/><feBlend in="SourceGraphic" in2="BackgroundImageFix" result="shape"/><feColorMatrix in="SourceAlpha" result="hardAlpha" values="0 0 0 0 0 0 0 0 0 0 0 0 0 0 0 0 0 0 127 0"/><feOffset dx=".558" dy="-.558"/><feComposite in2="hardAlpha" k2="-1" k3="1" operator="arithmetic"/><feColorMatrix values="0 0 0 0 1 0 0 0 0 1 0 0 0 0 1 0 0 0 1 0"/><feBlend in2="shape" result="effect1_innerShadow_5905_111022"/><feColorMatrix in="SourceAlpha" result="hardAlpha" values="0 0 0 0 0 0 0 0 0 0 0 0 0 0 0 0 0 0 127 0"/><feOffset dx="1.116" dy="-1.673"/><feGaussianBlur stdDeviation=".837"/><feComposite in2="hardAlpha" k2="-1" k3="1" operator="arithmetic"/><feColorMatrix values="0 0 0 0 0.02 0 0 0 0 0 0 0 0 0 1 0 0 0 0.25 0"/><feBlend in2="effect1_innerShadow_5905_111022" result="effect2_innerShadow_5905_111022"/></filter><filter id="ad" width="47.694" height="28.171" x="138.062" y="100.606" color-interpolation-filters="sRGB" filterUnits="userSpaceOnUse"><feFlood flood-opacity="0" result="BackgroundImageFix"/><feColorMatrix in="SourceAlpha" result="hardAlpha" values="0 0 0 0 0 0 0 0 0 0 0 0 0 0 0 0 0 0 127 0"/><feOffset dx="-16.735" dy="-9.483"/><feComposite in2="hardAlpha" operator="out"/><feColorMatrix values="0 0 0 0 1 0 0 0 0 1 0 0 0 0 1 0 0 0 0.49 0"/><feBlend in2="BackgroundImageFix" result="effect1_dropShadow_5905_111022"/><feBlend in="SourceGraphic" in2="effect1_dropShadow_5905_111022" result="shape"/><feColorMatrix in="SourceAlpha" result="hardAlpha" values="0 0 0 0 0 0 0 0 0 0 0 0 0 0 0 0 0 0 127 0"/><feOffset dx="1.116" dy="-1.673"/><feGaussianBlur stdDeviation=".837"/><feComposite in2="hardAlpha" k2="-1" k3="1" operator="arithmetic"/><feColorMatrix values="0 0 0 0 0.02 0 0 0 0 0 0 0 0 0 1 0 0 0 0.25 0"/><feBlend in2="shape" result="effect2_innerShadow_5905_111022"/></filter><filter id="ah" width="47.694" height="28.171" x="138.062" y="137.98" color-interpolation-filters="sRGB" filterUnits="userSpaceOnUse"><feFlood flood-opacity="0" result="BackgroundImageFix"/><feColorMatrix in="SourceAlpha" result="hardAlpha" values="0 0 0 0 0 0 0 0 0 0 0 0 0 0 0 0 0 0 127 0"/><feOffset dx="-16.735" dy="-9.483"/><feComposite in2="hardAlpha" operator="out"/><feColorMatrix values="0 0 0 0 1 0 0 0 0 1 0 0 0 0 1 0 0 0 0.49 0"/><feBlend in2="BackgroundImageFix" result="effect1_dropShadow_5905_111022"/><feBlend in="SourceGraphic" in2="effect1_dropShadow_5905_111022" result="shape"/><feColorMatrix in="SourceAlpha" result="hardAlpha" values="0 0 0 0 0 0 0 0 0 0 0 0 0 0 0 0 0 0 127 0"/><feOffset dx="1.116" dy="-1.673"/><feGaussianBlur stdDeviation=".837"/><feComposite in2="hardAlpha" k2="-1" k3="1" operator="arithmetic"/><feColorMatrix values="0 0 0 0 0.02 0 0 0 0 0 0 0 0 0 1 0 0 0 0.25 0"/><feBlend in2="shape" result="effect2_innerShadow_5905_111022"/></filter></defs></svg>