<svg width="690" height="488" fill="none" xmlns="http://www.w3.org/2000/svg"><g clip-path="url(#a)"><path d="M602.595 190.488C532.429 44.728 329.654 36.234 217.646 76.542-85.381 185.592 871.997 750.14 602.595 190.488Z" fill="url(#b)"/><path d="M195.491 288.462c-39.645-70.133-107.162-34.34-139.326 11.43-87.017 123.826 291.546 257.848 139.326-11.43Z" fill="url(#c)"/><g filter="url(#d)"><path d="M314.857 81.496a51.17 51.17 0 0 1-2.359-5.055c-.841-2.043-1.161-3.246-1.904-5.327l4.263 10.382Zm-4.263-10.382a50.811 50.811 0 0 1-1.41-5.54c-.45-2.206-.535-3.472-.878-5.697l2.288 11.237Zm4.263 10.382-4.263-10.382-2.288-11.237 6.551 21.62Zm5.928 9.057a47.257 47.257 0 0 1-3.153-4.333c-1.174-1.789-1.692-2.88-2.775-4.724l5.928 9.057Zm-12.479-30.676c-.239-2.253-.306-3.527-.306-5.793 0-2.209.178-3.443.292-5.65l.014 11.443Zm19.767 37.935-13.216-16.316-6.551-21.619 19.767 37.935Zm0 0-7.288-7.259-5.928-9.057 13.216 16.316Zm-19.767-37.935-.014-11.443 2.265-10.152-2.251 21.595Zm19.767 37.935c-1.552-1.235-2.387-1.978-3.795-3.375-1.447-1.437-2.128-2.367-3.493-3.884l7.288 7.259Zm-19.781-49.378c.213-2.079.404-3.242.865-5.28.437-1.931.853-2.97 1.4-4.872l-2.265 10.152Zm19.781 49.378-19.767-37.935 12.43-36.165 7.337 74.1Zm-19.767-37.935 2.251-21.595 10.179-14.57-12.43 36.165Zm28.107 42.917c-1.725-.737-2.67-1.217-4.283-2.176-1.655-.986-2.473-1.71-4.057-2.806l8.34 4.982Zm-25.856-64.512c.62-1.773 1.038-2.75 1.896-4.42.817-1.592 1.435-2.396 2.354-3.93l-4.25 8.35ZM345.355 105l-8.942-2.206-8.34-4.982L345.355 105Zm-34.798-66.718 4.25-8.35 5.929-6.22-10.179 14.57ZM345.355 105c-1.764-.141-2.754-.3-4.474-.718-1.787-.435-2.723-.907-4.468-1.488l8.942 2.206Zm-30.548-75.068c.974-1.409 1.589-2.16 2.774-3.397 1.144-1.194 1.923-1.72 3.155-2.823l-5.929 6.22Zm46.259 70.521L345.355 105l-17.282-7.188 32.993 2.641Zm-7.34 3.679c-1.558.454-2.463.633-4.077.805-1.668.178-2.617.038-4.294.063l8.371-.868Zm-32.99-80.42c1.284-.979 2.061-1.469 3.498-2.207 1.426-.732 2.317-.944 3.802-1.549l-7.3 3.756Zm40.33 76.741-7.34 3.679-8.371.868 15.711-4.547Zm12.638-36.222-45.631 33.58-7.337-74.099 52.968 40.519Zm-52.968-40.519 7.3-3.756 8.363-.956-15.663 4.712Zm40.33 76.741c-1.295.966-2.077 1.448-3.521 2.171-1.434.717-2.282 1.052-3.819 1.508l7.34-3.679Zm-33.03-80.497c1.553-.471 2.456-.66 4.068-.849 1.666-.196 2.618-.065 4.295-.107l-8.363.956Zm45.668 44.275-12.638 36.222-32.993-2.641 45.631-33.581Zm-52.968-40.519L336.399 19l17.364 7.076-33.027-2.364Zm46.319 70.57c-.987 1.401-1.608 2.15-2.806 3.376-1.155 1.184-1.94 1.703-3.183 2.795l5.989-6.172ZM336.399 19c1.766.124 2.759.274 4.482.677 1.794.42 2.735.886 4.487 1.454L336.399 19Zm34.971 66.938-4.315 8.343-5.989 6.172 10.304-14.515Zm-50.634-62.226 33.027 2.364 19.941 38.155-52.968-40.519ZM336.399 19l8.969 2.13 8.395 4.946L336.399 19Zm34.971 66.938c-.631 1.775-1.057 2.752-1.928 4.423-.829 1.589-1.455 2.39-2.387 3.92l4.315-8.343Zm-26.002-64.807c1.735.726 2.686 1.2 4.308 2.152 1.667.978 2.491 1.702 4.087 2.793a62346.08 62346.08 0 0 0-8.395-4.945Zm28.336 43.1-2.334 21.707-10.304 14.515 12.638-36.222Zm-.014 11.518c-.221 2.089-.417 3.258-.89 5.305-.448 1.936-.872 2.977-1.43 4.884l2.32-10.19Zm-19.927-49.673c1.565 1.232 2.408 1.975 3.827 3.373 1.461 1.44 2.149 2.372 3.526 3.893l-7.353-7.266Zm19.941 38.155-.014 11.518-2.32 10.189 2.334-21.707Zm-19.941-38.155 7.353 7.266 5.989 9.105-13.342-16.371Zm0 0c5.21 6.393 8.131 9.978 13.342 16.37l6.599 21.785-19.941-38.155Zm19.941 38.155c.237 2.269.302 3.552.296 5.833-.006 2.223-.189 3.465-.31 5.685l.014-11.518Zm-12.588-30.89a47.205 47.205 0 0 1 3.185 4.354c1.186 1.798 1.709 2.896 2.804 4.752l-5.989-9.105Zm5.989 9.106 4.302 10.459 2.297 11.325-6.599-21.784Zm4.302 10.459c.659 2.152.971 3.38 1.419 5.585.452 2.222.535 3.498.878 5.74l-2.297-11.325Zm-4.302-10.46a51.34 51.34 0 0 1 2.382 5.092c.848 2.058 1.17 3.272 1.92 5.368l-4.302-10.46Z" fill="url(#e)"/></g><path d="M344.5 204 115 336.5 344.5 469 574 336.5 344.5 204Z" fill="url(#f)"/><path d="M344.5 188 115 320.5 344.5 453 574 320.5 344.5 188Z" fill="#F3F5FA"/><path opacity=".8" d="m453 300-34-20-143 81 34.5 19.5" stroke="url(#g)" stroke-width="2" stroke-linecap="round" stroke-linejoin="round" stroke-dasharray="6 6"/><path opacity=".8" d="M206.5 314.5 271 276m0 0 50 29m-50-29 44-26" stroke="url(#h)" stroke-width="2" stroke-linecap="round" stroke-linejoin="round" stroke-dasharray="6 6"/><path d="m344.547 287.433-50.543 28.655 50.543 28.65 50.457-28.653-50.457-28.652Z" fill="url(#i)"/><path d="m344.547 287.433-50.543 28.655 50.543 28.65 50.457-28.653-50.457-28.652Z" fill="url(#j)"/><path d="m344.547 287.433-50.543 28.655 50.543 28.65 50.457-28.653-50.457-28.652Z" fill="url(#k)"/><path d="M395.004 321.518v-5.73l-50.457 28.652v5.731l50.457-28.653Z" fill="url(#l)" fill-opacity=".9"/><path d="M395.004 321.518v-5.73l-50.457 28.652v5.731l50.457-28.653Z" fill="url(#m)" fill-opacity=".53"/><path d="M395.004 321.518v-5.73l-50.457 28.652v5.731l50.457-28.653Z" fill="url(#n)" fill-opacity=".62"/><path d="M344.547 344.44v5.731l-50.543-28.653v-5.73l50.543 28.652ZM331.004 257l13 8v60l-13-7.5V257Z" fill="#DCE3FF"/><path d="m344.004 265.059 13-8.059v60.444l-13 7.556v-59.941Z" fill="url(#o)"/><path d="m344.004 265.059 13-8.059v60.444l-13 7.556v-59.941Z" fill="url(#p)" fill-opacity=".53"/><path d="m344.004 265.059 13-8.059v60.444l-13 7.556v-59.941Z" fill="url(#q)" fill-opacity=".62"/><g filter="url(#r)" fill-rule="evenodd" clip-rule="evenodd"><path d="M336.503 301c94.5 15 98.505-177.757 98.505-177.757L345.009 39.25l-.982-.147c.198.21.404.44.639.709.786.895 1.19 1.45 1.864 2.474.695 1.055 1.047 1.69 1.628 2.85.598 1.195.895 1.9 1.377 3.18a33.612 33.612 0 0 1 1.115 3.461c.387 1.414.568 2.228.837 3.695.275 1.495.394 2.349.548 3.882.158 1.555.211 2.439.246 4.02.035 1.597.02 2.5-.07 4.11a45.066 45.066 0 0 1-.399 4.152 43.305 43.305 0 0 1-.74 4.146c-.349 1.565-.575 2.44-1.058 3.965-.456 1.442-.741 2.244-1.325 3.627-.552 1.308-.89 2.032-1.563 3.263-.638 1.167-1.022 1.808-1.771 2.876-.713 1.017-1.138 1.569-1.952 2.466-.778.858-1.238 1.315-2.102 2.03-.833.692-1.323 1.048-2.224 1.574-.88.514-1.392.763-2.317 1.093-.918.327-1.446.46-2.381.588-.947.13-1.484.14-2.418.062-.965-.082-1.501-.198-2.424-.488-.973-.306-1.502-.553-2.403-1.061-.937-.528-1.437-.893-2.282-1.602-.861-.724-1.312-1.19-2.069-2.065-.778-.9-1.178-1.454-1.845-2.48-.687-1.055-1.035-1.689-1.609-2.847-.591-1.192-.884-1.894-1.36-3.17a33.596 33.596 0 0 1-1.1-3.443 37.945 37.945 0 0 1-.826-3.672 41.34 41.34 0 0 1-.541-3.853 43.55 43.55 0 0 1-.242-3.989 44.814 44.814 0 0 1 .068-4.078c.09-1.61.174-2.515.392-4.121.219-1.616.376-2.523.728-4.118.343-1.557.566-2.427 1.042-3.944.451-1.436.731-2.235 1.308-3.613.545-1.306.879-2.028 1.544-3.258.631-1.167 1.011-1.808 1.753-2.879.706-1.02 1.127-1.573 1.934-2.476.772-.863 1.229-1.324 2.087-2.048.729-.615 1.194-.969 1.906-1.41L243.008 24s-5.505 213.5 93.495 277Z" fill="url(#s)"/><path d="M336.503 301c94.5 15 98.505-177.757 98.505-177.757L345.009 39.25l-.982-.147c.198.21.404.44.639.709.786.895 1.19 1.45 1.864 2.474.695 1.055 1.047 1.69 1.628 2.85.598 1.195.895 1.9 1.377 3.18a33.612 33.612 0 0 1 1.115 3.461c.387 1.414.568 2.228.837 3.695.275 1.495.394 2.349.548 3.882.158 1.555.211 2.439.246 4.02.035 1.597.02 2.5-.07 4.11a45.066 45.066 0 0 1-.399 4.152 43.305 43.305 0 0 1-.74 4.146c-.349 1.565-.575 2.44-1.058 3.965-.456 1.442-.741 2.244-1.325 3.627-.552 1.308-.89 2.032-1.563 3.263-.638 1.167-1.022 1.808-1.771 2.876-.713 1.017-1.138 1.569-1.952 2.466-.778.858-1.238 1.315-2.102 2.03-.833.692-1.323 1.048-2.224 1.574-.88.514-1.392.763-2.317 1.093-.918.327-1.446.46-2.381.588-.947.13-1.484.14-2.418.062-.965-.082-1.501-.198-2.424-.488-.973-.306-1.502-.553-2.403-1.061-.937-.528-1.437-.893-2.282-1.602-.861-.724-1.312-1.19-2.069-2.065-.778-.9-1.178-1.454-1.845-2.48-.687-1.055-1.035-1.689-1.609-2.847-.591-1.192-.884-1.894-1.36-3.17a33.596 33.596 0 0 1-1.1-3.443 37.945 37.945 0 0 1-.826-3.672 41.34 41.34 0 0 1-.541-3.853 43.55 43.55 0 0 1-.242-3.989 44.814 44.814 0 0 1 .068-4.078c.09-1.61.174-2.515.392-4.121.219-1.616.376-2.523.728-4.118.343-1.557.566-2.427 1.042-3.944.451-1.436.731-2.235 1.308-3.613.545-1.306.879-2.028 1.544-3.258.631-1.167 1.011-1.808 1.753-2.879.706-1.02 1.127-1.573 1.934-2.476.772-.863 1.229-1.324 2.087-2.048.729-.615 1.194-.969 1.906-1.41L243.008 24s-5.505 213.5 93.495 277Z" fill="url(#t)"/><path d="M336.503 301c94.5 15 98.505-177.757 98.505-177.757L345.009 39.25l-.982-.147c.198.21.404.44.639.709.786.895 1.19 1.45 1.864 2.474.695 1.055 1.047 1.69 1.628 2.85.598 1.195.895 1.9 1.377 3.18a33.612 33.612 0 0 1 1.115 3.461c.387 1.414.568 2.228.837 3.695.275 1.495.394 2.349.548 3.882.158 1.555.211 2.439.246 4.02.035 1.597.02 2.5-.07 4.11a45.066 45.066 0 0 1-.399 4.152 43.305 43.305 0 0 1-.74 4.146c-.349 1.565-.575 2.44-1.058 3.965-.456 1.442-.741 2.244-1.325 3.627-.552 1.308-.89 2.032-1.563 3.263-.638 1.167-1.022 1.808-1.771 2.876-.713 1.017-1.138 1.569-1.952 2.466-.778.858-1.238 1.315-2.102 2.03-.833.692-1.323 1.048-2.224 1.574-.88.514-1.392.763-2.317 1.093-.918.327-1.446.46-2.381.588-.947.13-1.484.14-2.418.062-.965-.082-1.501-.198-2.424-.488-.973-.306-1.502-.553-2.403-1.061-.937-.528-1.437-.893-2.282-1.602-.861-.724-1.312-1.19-2.069-2.065-.778-.9-1.178-1.454-1.845-2.48-.687-1.055-1.035-1.689-1.609-2.847-.591-1.192-.884-1.894-1.36-3.17a33.596 33.596 0 0 1-1.1-3.443 37.945 37.945 0 0 1-.826-3.672 41.34 41.34 0 0 1-.541-3.853 43.55 43.55 0 0 1-.242-3.989 44.814 44.814 0 0 1 .068-4.078c.09-1.61.174-2.515.392-4.121.219-1.616.376-2.523.728-4.118.343-1.557.566-2.427 1.042-3.944.451-1.436.731-2.235 1.308-3.613.545-1.306.879-2.028 1.544-3.258.631-1.167 1.011-1.808 1.753-2.879.706-1.02 1.127-1.573 1.934-2.476.772-.863 1.229-1.324 2.087-2.048.729-.615 1.194-.969 1.906-1.41L243.008 24s-5.505 213.5 93.495 277Z" fill="url(#u)"/><path d="M336.503 301c94.5 15 98.505-177.757 98.505-177.757L345.009 39.25l-.982-.147c.198.21.404.44.639.709.786.895 1.19 1.45 1.864 2.474.695 1.055 1.047 1.69 1.628 2.85.598 1.195.895 1.9 1.377 3.18a33.612 33.612 0 0 1 1.115 3.461c.387 1.414.568 2.228.837 3.695.275 1.495.394 2.349.548 3.882.158 1.555.211 2.439.246 4.02.035 1.597.02 2.5-.07 4.11a45.066 45.066 0 0 1-.399 4.152 43.305 43.305 0 0 1-.74 4.146c-.349 1.565-.575 2.44-1.058 3.965-.456 1.442-.741 2.244-1.325 3.627-.552 1.308-.89 2.032-1.563 3.263-.638 1.167-1.022 1.808-1.771 2.876-.713 1.017-1.138 1.569-1.952 2.466-.778.858-1.238 1.315-2.102 2.03-.833.692-1.323 1.048-2.224 1.574-.88.514-1.392.763-2.317 1.093-.918.327-1.446.46-2.381.588-.947.13-1.484.14-2.418.062-.965-.082-1.501-.198-2.424-.488-.973-.306-1.502-.553-2.403-1.061-.937-.528-1.437-.893-2.282-1.602-.861-.724-1.312-1.19-2.069-2.065-.778-.9-1.178-1.454-1.845-2.48-.687-1.055-1.035-1.689-1.609-2.847-.591-1.192-.884-1.894-1.36-3.17a33.596 33.596 0 0 1-1.1-3.443 37.945 37.945 0 0 1-.826-3.672 41.34 41.34 0 0 1-.541-3.853 43.55 43.55 0 0 1-.242-3.989 44.814 44.814 0 0 1 .068-4.078c.09-1.61.174-2.515.392-4.121.219-1.616.376-2.523.728-4.118.343-1.557.566-2.427 1.042-3.944.451-1.436.731-2.235 1.308-3.613.545-1.306.879-2.028 1.544-3.258.631-1.167 1.011-1.808 1.753-2.879.706-1.02 1.127-1.573 1.934-2.476.772-.863 1.229-1.324 2.087-2.048.729-.615 1.194-.969 1.906-1.41L243.008 24s-5.505 213.5 93.495 277Z" fill="url(#v)"/></g><path fill-rule="evenodd" clip-rule="evenodd" d="M435.008 123.243S431.003 316 336.503 301c-80.377-51.555-91.868-201.986-93.347-256.756-.343-12.69-.148-20.244-.148-20.244l102.001 15.25 89.999 83.993Zm-99.102-65.131 78.708 73.455a446.181 446.181 0 0 1-1.601 19.494c-1.788 17.215-5.091 39.649-11.096 61.352-6.108 22.076-14.494 41.455-25.349 54.134-9.159 10.699-25.566 16.453-37.896 13.17-18.713-13.259-28.661-31.856-40.395-57.192-12.439-26.857-20.637-57.693-25.961-87.369-5.306-29.579-7.643-57.357-8.645-77.785a631.633 631.633 0 0 1-.416-10.122l72.651 10.862Z" fill="url(#w)"/><g filter="url(#x)"><path d="m345.019 174.742-21.001 21.967 4.936-30.655 16.065 8.688Zm-18.689-14.201-.522-1.474-.461-1.5.983 2.974Zm0 0-.983-2.974-.732-3.053 1.715 6.027Zm1.21 2.844-.632-1.403-.578-1.441 1.21 2.844Zm-2.193-5.818-.399-1.519-.333-1.534.732 3.053Zm3.607 8.487-1.414-2.669-1.21-2.844 2.624 5.513Zm0 0-.731-1.309-.683-1.36 1.414 2.669Zm-4.339-11.54-.264-1.542-.193-1.545.457 3.087Zm1.715 6.027-1.715-6.027-.615-6.158 2.33 12.185Zm-1.715-6.027-.457-3.087-.158-3.071.615 6.158Zm20.404 20.228 4.949 37.063-25.95-15.096 21.001-21.967Zm-20.861-23.315-.118-1.54-.04-1.531.158 3.071Zm-.158-3.071.118-2.531.344-2.303-.462 4.834Zm0 0 .462-4.834 1.307-3.865-1.769 8.699Zm21.019 26.386-16.065-8.688-2.624-5.513 18.689 14.201Zm-20.557-31.22.555-2.061.752-1.804-1.307 3.865Zm20.557 31.22-18.689-14.201-2.33-12.185 21.019 26.386ZM324 148.356l1.769-8.699 4.656-4.356L324 148.356Zm1.769-8.699.931-1.532 1.097-1.247-2.028 2.779Zm0 0 2.028-2.779 2.628-1.577-4.656 4.356Zm2.028-2.779 1.247-.946 1.381-.631-2.628 1.577ZM324 148.356l6.425-13.055 18.54 19.077L324 148.356Zm24.965 6.022-3.946 20.364L324 148.356l24.965 6.022Zm-18.54-19.077 1.499-.301 1.603.043-3.102.258Zm16.644 37.58-1.318 1.342-.732.519 2.05-1.861Zm0 0-.633.72-.685.622 1.318-1.342Zm-16.644-37.58 3.102-.258 5.219 2.302-8.321-2.044Zm18.61 33.76-1.966 3.82-2.05 1.861 4.016-5.681Zm-.863 2.092-.523.911-.58.817 1.103-1.728Zm-14.645-36.11 1.692.402 3.527 1.9-5.219-2.302Zm15.508 34.018-.863 2.092-1.103 1.728 1.966-3.82Zm-13.816-33.616 1.763.775 1.764 1.125-3.527-1.9Zm-4.794-.144 8.321 2.044 10.219 17.033-18.54-19.077Zm18.61 33.76-.4 1.09-.463 1.002.863-2.092Zm-.07-14.683.07 14.683-4.016 5.681 3.946-20.364Zm.669 12.249-.265 1.258-.334 1.176.599-2.434Zm.311-2.754-.311 2.754-.599 2.434.91-5.188Zm-11.199-26.528 1.693 1.421 1.605 1.686-3.298-3.107Zm11.199 26.528-.118 1.416-.193 1.338.311-2.754Zm-11.199-26.528 3.298 3.107 2.885 4.04-6.183-7.147Zm10.219 17.033.98 9.495-.91 5.188-.07-14.683Zm-10.219-17.033 6.183 7.147 4.036 9.886-10.219-17.033Zm11.122 22.376.118 2.663-.041 1.489-.077-4.152Zm-7.824-19.269 1.501 1.919 1.384 2.121-2.885-4.04Zm6.921 13.926.903 5.343.077 4.152-.98-9.495Zm0 0 .557 2.664.346 2.679-.903-5.343Zm-4.036-9.886 1.249 2.293 1.1 2.433-2.349-4.726Zm0 0 2.349 4.726 1.687 5.16-4.036-9.886Zm2.349 4.726.934 2.541.753 2.619-1.687-5.16Z" fill="url(#y)"/><path d="m345.019 174.742-21.001 21.967 4.936-30.655 16.065 8.688Zm-18.689-14.201-.522-1.474-.461-1.5.983 2.974Zm0 0-.983-2.974-.732-3.053 1.715 6.027Zm1.21 2.844-.632-1.403-.578-1.441 1.21 2.844Zm-2.193-5.818-.399-1.519-.333-1.534.732 3.053Zm3.607 8.487-1.414-2.669-1.21-2.844 2.624 5.513Zm0 0-.731-1.309-.683-1.36 1.414 2.669Zm-4.339-11.54-.264-1.542-.193-1.545.457 3.087Zm1.715 6.027-1.715-6.027-.615-6.158 2.33 12.185Zm-1.715-6.027-.457-3.087-.158-3.071.615 6.158Zm20.404 20.228 4.949 37.063-25.95-15.096 21.001-21.967Zm-20.861-23.315-.118-1.54-.04-1.531.158 3.071Zm-.158-3.071.118-2.531.344-2.303-.462 4.834Zm0 0 .462-4.834 1.307-3.865-1.769 8.699Zm21.019 26.386-16.065-8.688-2.624-5.513 18.689 14.201Zm-20.557-31.22.555-2.061.752-1.804-1.307 3.865Zm20.557 31.22-18.689-14.201-2.33-12.185 21.019 26.386ZM324 148.356l1.769-8.699 4.656-4.356L324 148.356Zm1.769-8.699.931-1.532 1.097-1.247-2.028 2.779Zm0 0 2.028-2.779 2.628-1.577-4.656 4.356Zm2.028-2.779 1.247-.946 1.381-.631-2.628 1.577ZM324 148.356l6.425-13.055 18.54 19.077L324 148.356Zm24.965 6.022-3.946 20.364L324 148.356l24.965 6.022Zm-18.54-19.077 1.499-.301 1.603.043-3.102.258Zm16.644 37.58-1.318 1.342-.732.519 2.05-1.861Zm0 0-.633.72-.685.622 1.318-1.342Zm-16.644-37.58 3.102-.258 5.219 2.302-8.321-2.044Zm18.61 33.76-1.966 3.82-2.05 1.861 4.016-5.681Zm-.863 2.092-.523.911-.58.817 1.103-1.728Zm-14.645-36.11 1.692.402 3.527 1.9-5.219-2.302Zm15.508 34.018-.863 2.092-1.103 1.728 1.966-3.82Zm-13.816-33.616 1.763.775 1.764 1.125-3.527-1.9Zm-4.794-.144 8.321 2.044 10.219 17.033-18.54-19.077Zm18.61 33.76-.4 1.09-.463 1.002.863-2.092Zm-.07-14.683.07 14.683-4.016 5.681 3.946-20.364Zm.669 12.249-.265 1.258-.334 1.176.599-2.434Zm.311-2.754-.311 2.754-.599 2.434.91-5.188Zm-11.199-26.528 1.693 1.421 1.605 1.686-3.298-3.107Zm11.199 26.528-.118 1.416-.193 1.338.311-2.754Zm-11.199-26.528 3.298 3.107 2.885 4.04-6.183-7.147Zm10.219 17.033.98 9.495-.91 5.188-.07-14.683Zm-10.219-17.033 6.183 7.147 4.036 9.886-10.219-17.033Zm11.122 22.376.118 2.663-.041 1.489-.077-4.152Zm-7.824-19.269 1.501 1.919 1.384 2.121-2.885-4.04Zm6.921 13.926.903 5.343.077 4.152-.98-9.495Zm0 0 .557 2.664.346 2.679-.903-5.343Zm-4.036-9.886 1.249 2.293 1.1 2.433-2.349-4.726Zm0 0 2.349 4.726 1.687 5.16-4.036-9.886Zm2.349 4.726.934 2.541.753 2.619-1.687-5.16Z" fill="url(#z)"/><path d="m345.019 174.742-21.001 21.967 4.936-30.655 16.065 8.688Zm-18.689-14.201-.522-1.474-.461-1.5.983 2.974Zm0 0-.983-2.974-.732-3.053 1.715 6.027Zm1.21 2.844-.632-1.403-.578-1.441 1.21 2.844Zm-2.193-5.818-.399-1.519-.333-1.534.732 3.053Zm3.607 8.487-1.414-2.669-1.21-2.844 2.624 5.513Zm0 0-.731-1.309-.683-1.36 1.414 2.669Zm-4.339-11.54-.264-1.542-.193-1.545.457 3.087Zm1.715 6.027-1.715-6.027-.615-6.158 2.33 12.185Zm-1.715-6.027-.457-3.087-.158-3.071.615 6.158Zm20.404 20.228 4.949 37.063-25.95-15.096 21.001-21.967Zm-20.861-23.315-.118-1.54-.04-1.531.158 3.071Zm-.158-3.071.118-2.531.344-2.303-.462 4.834Zm0 0 .462-4.834 1.307-3.865-1.769 8.699Zm21.019 26.386-16.065-8.688-2.624-5.513 18.689 14.201Zm-20.557-31.22.555-2.061.752-1.804-1.307 3.865Zm20.557 31.22-18.689-14.201-2.33-12.185 21.019 26.386ZM324 148.356l1.769-8.699 4.656-4.356L324 148.356Zm1.769-8.699.931-1.532 1.097-1.247-2.028 2.779Zm0 0 2.028-2.779 2.628-1.577-4.656 4.356Zm2.028-2.779 1.247-.946 1.381-.631-2.628 1.577ZM324 148.356l6.425-13.055 18.54 19.077L324 148.356Zm24.965 6.022-3.946 20.364L324 148.356l24.965 6.022Zm-18.54-19.077 1.499-.301 1.603.043-3.102.258Zm16.644 37.58-1.318 1.342-.732.519 2.05-1.861Zm0 0-.633.72-.685.622 1.318-1.342Zm-16.644-37.58 3.102-.258 5.219 2.302-8.321-2.044Zm18.61 33.76-1.966 3.82-2.05 1.861 4.016-5.681Zm-.863 2.092-.523.911-.58.817 1.103-1.728Zm-14.645-36.11 1.692.402 3.527 1.9-5.219-2.302Zm15.508 34.018-.863 2.092-1.103 1.728 1.966-3.82Zm-13.816-33.616 1.763.775 1.764 1.125-3.527-1.9Zm-4.794-.144 8.321 2.044 10.219 17.033-18.54-19.077Zm18.61 33.76-.4 1.09-.463 1.002.863-2.092Zm-.07-14.683.07 14.683-4.016 5.681 3.946-20.364Zm.669 12.249-.265 1.258-.334 1.176.599-2.434Zm.311-2.754-.311 2.754-.599 2.434.91-5.188Zm-11.199-26.528 1.693 1.421 1.605 1.686-3.298-3.107Zm11.199 26.528-.118 1.416-.193 1.338.311-2.754Zm-11.199-26.528 3.298 3.107 2.885 4.04-6.183-7.147Zm10.219 17.033.98 9.495-.91 5.188-.07-14.683Zm-10.219-17.033 6.183 7.147 4.036 9.886-10.219-17.033Zm11.122 22.376.118 2.663-.041 1.489-.077-4.152Zm-7.824-19.269 1.501 1.919 1.384 2.121-2.885-4.04Zm6.921 13.926.903 5.343.077 4.152-.98-9.495Zm0 0 .557 2.664.346 2.679-.903-5.343Zm-4.036-9.886 1.249 2.293 1.1 2.433-2.349-4.726Zm0 0 2.349 4.726 1.687 5.16-4.036-9.886Zm2.349 4.726.934 2.541.753 2.619-1.687-5.16Z" fill="url(#A)"/></g><g opacity=".8"><path d="M389.117 403.163v-23.584l-44.812 25.851v23.36l44.812-25.627Z" fill="url(#B)"/><path d="M389.117 403.163v-23.584l-44.812 25.851v23.36l44.812-25.627Z" fill="url(#C)"/><path d="M389.117 403.163v-23.584l-44.812 25.851v23.36l44.812-25.627Z" fill="url(#D)"/></g><g opacity=".8"><path d="M344.303 405.43v23.36L300 403.194v-23.36l44.303 25.596Z" fill="url(#E)"/><path d="M344.303 405.43v23.36L300 403.194v-23.36l44.303 25.596Z" fill="url(#F)"/><path d="M344.303 405.43v23.36L300 403.194v-23.36l44.303 25.596Z" fill="url(#G)"/></g><path opacity=".78" d="M344.558 376.85 300 402.819v-22.922l44.558-3.047Z" fill="url(#H)"/><path d="M344.558 354 300 379.834l44.303 25.599 44.813-25.854L344.558 354Z" fill="url(#I)"/><path d="M344.558 354 300 379.834l44.303 25.599 44.813-25.854L344.558 354Z" fill="url(#J)"/><path d="M344.558 354 300 379.834l44.303 25.599 44.813-25.854L344.558 354Z" fill="url(#K)"/><g filter="url(#L)"><path d="M344.5 369 327 379.548 344.4 390l17.6-10.556L344.5 369Z" fill="url(#M)"/></g><path d="m344.5 390-15.799-9.424L312 315h65l-16.684 65.451L344.5 390Z" fill="url(#N)"/><g opacity=".8"><path d="M525.117 326.163v-23.584l-44.812 25.851v23.36l44.812-25.627Z" fill="url(#O)"/><path d="M525.117 326.163v-23.584l-44.812 25.851v23.36l44.812-25.627Z" fill="url(#P)"/><path d="M525.117 326.163v-23.584l-44.812 25.851v23.36l44.812-25.627Z" fill="url(#Q)"/></g><g opacity=".8"><path d="M480.303 328.43v23.36L436 326.194v-23.36l44.303 25.596Z" fill="url(#R)"/><path d="M480.303 328.43v23.36L436 326.194v-23.36l44.303 25.596Z" fill="url(#S)"/><path d="M480.303 328.43v23.36L436 326.194v-23.36l44.303 25.596Z" fill="url(#T)"/></g><path opacity=".78" d="M480.558 299.85 436 325.819v-22.922l44.558-3.047Z" fill="url(#U)"/><path d="M480.558 277 436 302.834l44.303 25.599 44.813-25.854L480.558 277Z" fill="url(#V)"/><path d="M480.558 277 436 302.834l44.303 25.599 44.813-25.854L480.558 277Z" fill="url(#W)"/><path d="M480.558 277 436 302.834l44.303 25.599 44.813-25.854L480.558 277Z" fill="url(#X)"/><g filter="url(#Y)"><path d="M480.5 292 463 302.548 480.4 313l17.6-10.556L480.5 292Z" fill="url(#Z)"/></g><path d="m480.5 313-15.799-9.424L448 238h65l-16.684 65.451L480.5 313Z" fill="url(#aa)"/><g opacity=".8"><path d="M251.117 324.163v-23.584l-44.812 25.851v23.36l44.812-25.627Z" fill="url(#ab)"/><path d="M251.117 324.163v-23.584l-44.812 25.851v23.36l44.812-25.627Z" fill="url(#ac)"/><path d="M251.117 324.163v-23.584l-44.812 25.851v23.36l44.812-25.627Z" fill="url(#ad)"/></g><g opacity=".8"><path d="M206.303 326.43v23.36L162 324.194v-23.36l44.303 25.596Z" fill="url(#ae)"/><path d="M206.303 326.43v23.36L162 324.194v-23.36l44.303 25.596Z" fill="url(#af)"/><path d="M206.303 326.43v23.36L162 324.194v-23.36l44.303 25.596Z" fill="url(#ag)"/></g><path opacity=".78" d="M206.558 297.85 162 323.819v-22.922l44.558-3.047Z" fill="url(#ah)"/><path d="M206.558 275 162 300.834l44.303 25.599 44.813-25.854L206.558 275Z" fill="url(#ai)"/><path d="M206.558 275 162 300.834l44.303 25.599 44.813-25.854L206.558 275Z" fill="url(#aj)"/><path d="M206.558 275 162 300.834l44.303 25.599 44.813-25.854L206.558 275Z" fill="url(#ak)"/><g filter="url(#al)"><path d="M206.5 290 189 300.548 206.4 311l17.6-10.556L206.5 290Z" fill="url(#am)"/></g><path d="m206.5 311-15.799-9.424L174 236h65l-16.684 65.451L206.5 311Z" fill="url(#an)"/><path d="m369.715 75.302 3.975.447-3.975-.447c-.221 1.965-.381 2.98-.813 4.85-.418 1.811-.676 2.73-1.29 4.416-.598 1.64-.942 2.457-1.717 3.943-.76 1.457-1.178 2.165-2.092 3.44-.904 1.262-1.385 1.857-2.417 2.914-1.028 1.054-1.563 1.534-2.694 2.368-1.137.838-1.719 1.204-2.937 1.813-1.23.616-1.856.865-3.158 1.248-1.317.387-1.987.518-3.372.665-1.405.15-2.121.154-3.591.051-1.499-.105-2.262-.239-3.807-.615-1.548-.377-2.332-.65-3.875-1.293l-1.539 3.692 1.539-3.692c-1.523-.635-2.292-1.039-3.776-1.922l-2.046 3.438 2.046-3.438c-1.48-.88-2.224-1.41-3.635-2.516-1.415-1.11-2.125-1.755-3.444-3.065-1.33-1.32-1.995-2.073-3.205-3.565-1.223-1.508-1.831-2.356-2.916-4.009-1.097-1.672-1.638-2.601-2.579-4.391-.954-1.812-1.417-2.81-2.2-4.714a47.923 47.923 0 0 1-1.778-4.975c-.616-2.017-.896-3.111-1.316-5.171-.425-2.084-.601-3.206-.818-5.308-.22-2.129-.285-3.265-.285-5.381 0-2.09.047-3.187.269-5.217.213-1.956.368-2.968.79-4.831.408-1.805.661-2.723 1.264-4.405.587-1.64.925-2.457 1.689-3.945.749-1.46 1.162-2.17 2.065-3.451.893-1.268 1.37-1.867 2.391-2.933 1.02-1.064 1.551-1.55 2.674-2.395 1.129-.85 1.707-1.222 2.919-1.845 1.225-.629 1.848-.885 3.145-1.282 1.313-.401 1.982-.539 3.364-.701 1.403-.165 2.118-.176 3.588-.087 1.5.09 2.264.217 3.812.58 1.552.363 2.338.629 3.887 1.261 1.53.625 2.302 1.024 3.795 1.9 1.489.873 2.238 1.4 3.659 2.502 1.426 1.107 2.142 1.752 3.472 3.063 1.342 1.321 2.013 2.075 3.234 3.572 1.235 1.514 1.85 2.365 2.945 4.025 1.108 1.682 1.654 2.617 2.606 4.418.963 1.824 1.43 2.83 2.221 4.748.8 1.94 1.179 3.002 1.793 5.012.621 2.033.902 3.136 1.324 5.213.427 2.1.603 3.23.818 5.348.218 2.144.281 3.288.276 5.419-.005 2.102-.056 3.206-.285 5.248Z" fill="url(#ao)" stroke="#fff" stroke-width="8"/><path d="m326.585 64.314-.258-.574-.183-.587.441 1.16Zm-.441-1.16-.109-.595-.035-.592.144 1.186Zm.441 1.16-.441-1.16-.144-1.187.585 2.347ZM326 61.967l.037-.584.109-.568-.146 1.152Zm.585 2.347L326 61.967l.574-2.208.011 4.555ZM326 61.967l.146-1.152.428-1.056-.574 2.208Zm.146-1.152.179-.543.249-.513-.428 1.056Zm6.319 12.042-5.545-7.992-.335-.551 5.88 8.543Zm-5.891-13.098.318-.473.385-.427-.703.9Zm0 0 .703-.9.954-.673-1.657 1.573Zm.011 4.555-.011-4.555 3.867-1.977-3.856 6.532Zm6.35 9.127-.47-.584-5.88-8.543 6.35 9.127Zm-5.658-14.582.452-.372.502-.301-.954.673Zm6.794 15.495-1.136-.913-6.35-9.127 7.486 10.04Zm-7.497-14.595 1.657-1.573 2.21-.404-3.867 1.977Zm6.361 13.682-.244-.282-.226-.302.47.584Zm-4.704-15.255.529-.22.55-.14-1.079.36Zm8.559 16.795-2.719-.626-7.486-10.041L336.79 74.98Zm-3.316-1.039-.277-.24-.262-.261.539.501Zm3.316 1.039-10.205-10.667 3.856-6.532 6.349 17.199Zm-2.719-.626-.597-.413-.539-.501 1.136.913Zm-5.84-16.17 1.079-.358 1.131-.045-2.21.404Zm5.84 16.17-.305-.195-.292-.218.597.413Zm-4.761-16.528.562-.061.569.016-1.131.045Zm5.404 16.844-.327-.146-.316-.17.643.316Zm.677.215-.677-.215-.643-.317 1.32.532Zm0 0-.342-.094-.335-.12.677.214Zm1.399.095-1.399-.095-1.32-.531 2.719.626Zm-6.349-17.2.566.092.557.164-1.123-.255Zm5.651 17.21-.353-.039-.348-.066.701.105Zm-5.651-17.21 1.123.256 1.057.543-2.18-.798Zm6.349 17.2-.698.01-.701-.105 1.399.095Zm0 0-.347.019-.351-.01.698-.01Zm-5.226-16.944.54.236.517.307-1.057-.543Zm5.226 16.944-6.349-17.2 5.355 4.78.994 12.42Zm-6.349-17.2 2.18.799 3.175 3.98-5.355-4.778Zm7.018 17.077-.33.075-.339.047.669-.122Zm-4.838-16.278.485.374.445.442-.93-.816Zm5.468 16.047-.63.23-.669.124 1.299-.354Zm0 0-.309.129-.321.102.63-.23Zm-5.468-16.047.93.816 2.245 3.164-3.175-3.98Zm6.566 15.285-1.098.762-1.299.354 2.397-1.116Zm-5.636-14.47.4.507 1.845 2.658-2.245-3.164Zm5.118 14.9-.283.178-.297.154.58-.332Zm.518-.43-.518.43-.58.332 1.098-.762Zm0 0-.251.226-.267.204.518-.43Zm.444-.522-.212.272-.232.25.444-.522Zm-3.835-10.783 16.579-8.76-15.585 21.18-.994-12.42Zm16.579-8.76-13.188 20.065-2.397 1.116 15.585-21.182Zm-.478 2.281-12.266 17.262-.444.522 12.71-17.784Zm-16.101 6.48 8.477-11.896.377-.456-8.854 12.351Zm0 0 8.854-12.352.897-.696-9.751 13.047Zm0 0 9.751-13.048 2.156-.513-11.907 13.56Zm0 0L347.703 49l4.672 4.8-16.579 8.76Zm16.101-6.48-.311.51-11.955 16.752 12.266-17.262Zm.478-2.282-.478 2.282-12.71 17.784 13.188-20.066Zm-7.725-3.59.428-.384.469-.312-.897.696Zm.897-.696.505-.24.532-.165-1.037.405Zm0 0 1.037-.405 1.119-.108-2.156.513Zm1.037-.405.553-.092.566-.016-1.119.108Zm1.119-.108.571.06.569.135-1.14-.195Zm0 0 1.14.195 1.104.504-2.244-.699Zm1.14.195.56.213.544.291-1.104-.504Zm-1.14-.195 2.244.7 2.428 4.1-4.672-4.8Zm2.244.7.519.369.473.434-.992-.804Zm2.34 5.273-.157.566-.233.542.39-1.108Zm-2.34-5.274.992.804.752.999-1.744-1.803Zm2.428 4.1-.088 1.174-.39 1.108.478-2.282Zm-2.428-4.1 1.744 1.803.684 2.297-2.428-4.1Zm.992.804.409.48.343.519-.752-.999Zm1.436 3.296-.007.592-.081.582.088-1.174Zm-.684-2.297.482 1.12.202 1.177-.684-2.297Zm0 0 .275.548.207.571-.482-1.12Zm.482 1.12.137.585.065.592-.202-1.178Z" fill="#fff"/><g filter="url(#ap)"><mask id="ar" maskUnits="userSpaceOnUse" x="153.427" y="182.328" width="94.805" height="93.862" fill="#000"><path fill="#fff" d="M153.427 182.328h94.805v93.862h-94.805z"/><path d="M167.236 227.083a33.032 33.032 0 0 1-.985-2.892 32.703 32.703 0 0 1-.761-2.973 31.56 31.56 0 0 1-.519-3.021 29.332 29.332 0 0 1-.261-3.033 26.73 26.73 0 0 1 .014-3.009c.061-1.122.117-1.752.295-2.861.165-1.024.277-1.599.559-2.598.26-.923.425-1.438.802-2.32.348-.816.564-1.269 1.026-2.026.43-.703.693-1.091 1.231-1.715.506-.587.813-.903 1.417-1.389.577-.464.925-.703 1.582-1.045a7.715 7.715 0 0 1 1.729-.686 7.739 7.739 0 0 1 1.856-.309c.765-.049 1.202-.021 1.962.083.816.111 1.269.235 2.05.493.856.282 1.321.497 2.118.918l.222.121.06.033.221.125.249.146.248.152.247.156.246.162.244.166.242.171.241.176.24.18.238.185a.257.257 0 0 0 .384-.076c.21-.376.609-1.073.931-1.552.438-.651.701-1.008 1.212-1.605.489-.571.78-.88 1.337-1.385.538-.488.856-.748 1.454-1.159a10.95 10.95 0 0 1 1.561-.924c.627-.312.993-.464 1.659-.682a10.487 10.487 0 0 1 1.747-.43c.706-.12 1.11-.155 1.827-.172.741-.017 1.16.008 1.896.094.773.091 1.203.178 1.957.369.799.203 1.24.353 2.008.652.822.319 1.27.534 2.05.942 1.046.547 1.608.905 2.576 1.58 1.006.702 1.541 1.14 2.462 1.95.958.842 1.464 1.351 2.333 2.284.901.967 1.375 1.54 2.185 2.585a36.126 36.126 0 0 1 2.021 2.849 40.07 40.07 0 0 1 1.84 3.081 42.966 42.966 0 0 1 1.641 3.276 44.774 44.774 0 0 1 1.426 3.436 45.904 45.904 0 0 1 1.193 3.561c.418 1.412.626 2.212.943 3.65.316 1.437.467 2.249.677 3.705.208 1.447.394 3.723.394 3.723l.027.014.028.014.028.014.028.014.027.014.028.014.028.015.028.014.027.015.028.014.022.011.012.007.022.012c.691.375 1.068.612 1.706 1.072a14.74 14.74 0 0 1 1.619 1.342c.628.582.957.936 1.518 1.582.584.672.888 1.069 1.404 1.794.532.748.809 1.184 1.274 1.976.477.812.723 1.281 1.131 2.129.415.864.628 1.359.973 2.254.349.904.525 1.419.802 2.348.278.933.415 1.463.617 2.414.202.95.296 1.488.417 2.451.121.956.169 1.495.204 2.458.035.951.035 1.486-.023 2.436a18.65 18.65 0 0 1-.255 2.31c-.14.827-.234 1.29-.47 2.094-.218.743-.356 1.157-.67 1.865-.289.654-.468 1.018-.851 1.622-.356.563-.574.872-1.018 1.368-.418.466-.671.717-1.167 1.1a6.638 6.638 0 0 1-1.3.82 6.231 6.231 0 0 1-1.417.528c-.579.15-.918.196-1.516.224a6.982 6.982 0 0 1-1.601-.093c-.664-.1-1.032-.205-1.667-.422-.695-.237-1.049-.463-1.719-.763-17.448-7.808-26.918-13.029-43.078-23.238-.817-.517-1.308-.759-2.088-1.33-.815-.595-1.244-.969-1.981-1.659-.767-.719-1.169-1.155-1.856-1.953a24.978 24.978 0 0 1-1.715-2.212 28.123 28.123 0 0 1-1.557-2.434c-.584-1-.884-1.578-1.384-2.622a32.494 32.494 0 0 1-1.192-2.775Z"/></mask><path d="M167.236 227.083a33.032 33.032 0 0 1-.985-2.892 32.703 32.703 0 0 1-.761-2.973 31.56 31.56 0 0 1-.519-3.021 29.332 29.332 0 0 1-.261-3.033 26.73 26.73 0 0 1 .014-3.009c.061-1.122.117-1.752.295-2.861.165-1.024.277-1.599.559-2.598.26-.923.425-1.438.802-2.32.348-.816.564-1.269 1.026-2.026.43-.703.693-1.091 1.231-1.715.506-.587.813-.903 1.417-1.389.577-.464.925-.703 1.582-1.045a7.715 7.715 0 0 1 1.729-.686 7.739 7.739 0 0 1 1.856-.309c.765-.049 1.202-.021 1.962.083.816.111 1.269.235 2.05.493.856.282 1.321.497 2.118.918l.222.121.06.033.221.125.249.146.248.152.247.156.246.162.244.166.242.171.241.176.24.18.238.185a.257.257 0 0 0 .384-.076c.21-.376.609-1.073.931-1.552.438-.651.701-1.008 1.212-1.605.489-.571.78-.88 1.337-1.385.538-.488.856-.748 1.454-1.159a10.95 10.95 0 0 1 1.561-.924c.627-.312.993-.464 1.659-.682a10.487 10.487 0 0 1 1.747-.43c.706-.12 1.11-.155 1.827-.172.741-.017 1.16.008 1.896.094.773.091 1.203.178 1.957.369.799.203 1.24.353 2.008.652.822.319 1.27.534 2.05.942 1.046.547 1.608.905 2.576 1.58 1.006.702 1.541 1.14 2.462 1.95.958.842 1.464 1.351 2.333 2.284.901.967 1.375 1.54 2.185 2.585a36.126 36.126 0 0 1 2.021 2.849 40.07 40.07 0 0 1 1.84 3.081 42.966 42.966 0 0 1 1.641 3.276 44.774 44.774 0 0 1 1.426 3.436 45.904 45.904 0 0 1 1.193 3.561c.418 1.412.626 2.212.943 3.65.316 1.437.467 2.249.677 3.705.208 1.447.394 3.723.394 3.723l.027.014.028.014.028.014.028.014.027.014.028.014.028.015.028.014.027.015.028.014.022.011.012.007.022.012c.691.375 1.068.612 1.706 1.072a14.74 14.74 0 0 1 1.619 1.342c.628.582.957.936 1.518 1.582.584.672.888 1.069 1.404 1.794.532.748.809 1.184 1.274 1.976.477.812.723 1.281 1.131 2.129.415.864.628 1.359.973 2.254.349.904.525 1.419.802 2.348.278.933.415 1.463.617 2.414.202.95.296 1.488.417 2.451.121.956.169 1.495.204 2.458.035.951.035 1.486-.023 2.436a18.65 18.65 0 0 1-.255 2.31c-.14.827-.234 1.29-.47 2.094-.218.743-.356 1.157-.67 1.865-.289.654-.468 1.018-.851 1.622-.356.563-.574.872-1.018 1.368-.418.466-.671.717-1.167 1.1a6.638 6.638 0 0 1-1.3.82 6.231 6.231 0 0 1-1.417.528c-.579.15-.918.196-1.516.224a6.982 6.982 0 0 1-1.601-.093c-.664-.1-1.032-.205-1.667-.422-.695-.237-1.049-.463-1.719-.763-17.448-7.808-26.918-13.029-43.078-23.238-.817-.517-1.308-.759-2.088-1.33-.815-.595-1.244-.969-1.981-1.659-.767-.719-1.169-1.155-1.856-1.953a24.978 24.978 0 0 1-1.715-2.212 28.123 28.123 0 0 1-1.557-2.434c-.584-1-.884-1.578-1.384-2.622a32.494 32.494 0 0 1-1.192-2.775Z" fill="url(#aq)"/><path d="m183.571 200.108 2.428-3.179a2.262 2.262 0 0 0-.098-.073l-2.33 3.252Zm40.192 30.117 1.793-3.575a3.999 3.999 0 0 0-5.364 1.774 3.999 3.999 0 0 0 1.76 5.368l1.811-3.567Zm.111.056 1.828-3.558-.035-.018-1.793 3.576Zm.111.057 1.862-3.54-.034-.018-1.828 3.558Zm-38.084-33.482-.484-.347-4.658 6.504.483.347 4.659-6.504Zm-4.757 6.43.478.365 4.855-6.357-.478-.365-4.855 6.357Zm44.523 23.419-.111-.055-3.586 7.151.111.056 3.586-7.152Zm-3.621 7.134.111.057 3.656-7.116-.111-.057-3.656 7.116Zm3.749-7.068-.222-.112-3.621 7.133.222.113 3.621-7.134Zm.163.086-.111-.059-3.725 7.08.111.059 3.725-7.08Zm-58.722.226 7.466-2.873-7.466 2.873Zm-.985-2.892-7.668 2.284 7.668-2.284Zm-.761-2.973-7.824 1.67 7.824-1.67Zm-.519-3.021 7.934-1.021-7.934 1.021Zm-.261-3.033-7.994.323 7.994-.323Zm5.102 17.316 6.911-4.03-6.911 4.03Zm-1.384-2.622-7.217 3.451 7.217-3.451Zm-3.704-17.703-7.988-.44 7.988.44Zm.295-2.861-7.898-1.27 7.898 1.27Zm8.065 27.832 6.064-5.219-6.064 5.219Zm-1.715-2.212 6.534-4.616-6.534 4.616Zm-5.791-28.218 7.7 2.17-7.7-2.17Zm.802-2.32-7.357-3.142 7.357 3.142Zm10.541 36.362-4.718 6.461 4.718-6.461Zm-1.981-1.659-5.47 5.838 5.47-5.838Zm-7.534-36.729 6.827 4.172-6.827-4.172Zm1.231-1.715-6.058-5.225 6.058 5.225Zm1.417-1.389-5.015-6.233 5.015 6.233Zm1.582-1.045 3.693 7.097-3.693-7.097Zm1.729-.686 2.15 7.706-2.15-7.706Zm1.856-.309.509 7.983-.509-7.983Zm1.962.083 1.083-7.927-1.083 7.927Zm2.05.493-2.506 7.597 2.506-7.597Zm42.854 67.524-3.268 7.302 3.268-7.302Zm-43.078-23.238-4.273 6.763 4.273-6.763Zm2.342-43.368-3.743 7.071 3.743-7.071Zm.222.121-3.843 7.016 3.843-7.016Zm.06.033 3.934-6.966-3.934 6.966Zm.221.125 4.054-6.897-.12-.069-3.934 6.966Zm.249.146 4.171-6.826a4.518 4.518 0 0 0-.117-.07l-4.054 6.896Zm.248.152 4.285-6.756-.114-.071-4.171 6.827Zm.247.156 4.395-6.684a4.133 4.133 0 0 0-.11-.071l-4.285 6.755Zm.246.162 4.502-6.613-.107-.072-4.395 6.685Zm.244.166 4.607-6.54a6.64 6.64 0 0 0-.105-.073l-4.502 6.613Zm.242.171 4.709-6.468-.102-.072-4.607 6.54Zm.241.176 4.808-6.395-.099-.073-4.709 6.468Zm.478.365 4.997-6.248-.093-.074-4.904 6.322Zm-.238-.185 4.904-6.321-.096-.074-4.808 6.395Zm.622.109 6.981 3.907-6.981-3.907Zm.931-1.552-6.637-4.467 6.637 4.467Zm1.212-1.605 6.074 5.206-6.074-5.206Zm1.337-1.385-5.375-5.925 5.375 5.925Zm1.454-1.159-4.536-6.59 4.536 6.59Zm1.561-.924 3.564 7.162-3.564-7.162Zm1.659-.682-2.485-7.604 2.485 7.604Zm1.747-.43 1.342 7.887-1.342-7.887Zm1.827-.172-.187-7.998.187 7.998Zm1.896.094-.929 7.946.929-7.946Zm1.957.369 1.965-7.755-1.965 7.755Zm2.008.652 2.895-7.458-2.895 7.458Zm2.05.942 3.708-7.089-3.708 7.089Zm21.401 71.946 1.193-7.91-1.193 7.91Zm-1.667-.422-2.586 7.571 2.586-7.571Zm-17.158-69.944-4.576 6.563 4.576-6.563Zm2.462 1.95 5.283-6.008-5.283 6.008Zm19.48 68.285-1.998-7.746 1.998 7.746Zm-1.516.224.372 7.992-.372-7.992Zm-15.631-66.225 5.855-5.452-5.855 5.452Zm2.185 2.585 6.32-4.906-6.32 4.906Zm17.679 62.068-4.888-6.333 4.888 6.333Zm-1.3.82 3.545 7.172-3.545-7.172Zm-14.358-60.039-6.7 4.372 6.7-4.372Zm1.84 3.081-7.014 3.848 7.014-3.848Zm16.003 53.67-6.759-4.28v.001l6.759 4.279Zm-1.018 1.368-5.961-5.336v.001l5.961 5.335Zm-8.711-33.687-7.974.651a8 8 0 0 0 4.414 6.514l3.56-7.165Zm.027.014 3.578-7.155-.018-.009-3.56 7.164Zm.028.014 3.595-7.147-.017-.008-3.578 7.155Zm.028.014 3.611-7.138-.016-.009-3.595 7.147Zm.028.014 3.63-7.129-.019-.009-3.611 7.138Zm.111.057 3.698-7.094a.263.263 0 0 1-.017-.009l-3.681 7.103Zm-.084-.043 3.648-7.12-.017-.009-3.631 7.129Zm.028.014 3.665-7.11-.018-.01-3.647 7.12Zm.028.015 3.681-7.103a.12.12 0 0 0-.016-.008l-3.665 7.111Zm.055.029 3.717-7.085-.018-.009-3.699 7.094Zm.028.014 3.733-7.076a.12.12 0 0 1-.016-.008l-3.717 7.084Zm.022.011 3.741-7.071-.008-.004-3.733 7.075Zm.012.007 3.751-7.066-.01-.005-3.741 7.071Zm.022.012 3.817-7.031-.067-.036-3.75 7.067Zm-4.966-18.247-7.275 3.328 7.275-3.328Zm1.426 3.436 7.491-2.806-7.491 2.806Zm2.136 7.211 7.813-1.72-7.813 1.72Zm.677 3.705-7.919 1.14 7.919-1.14Zm-1.62-7.355 7.67-2.273-7.67 2.273Zm4.053 12.322 4.682-6.486-4.682 6.486Zm1.619 1.342 5.44-5.866-5.44 5.866Zm7.592 26.246 7.676 2.252-7.676-2.252Zm-.67 1.865 7.316 3.238-7.316-3.238Zm-5.404-26.529-6.039 5.247 6.039-5.247Zm1.404 1.794 6.515-4.642-6.515 4.642Zm5.395 18.466-7.985-.487 7.985.487Zm-.255 2.31 7.888 1.335-7.888-1.335Zm-3.866-18.8-6.899 4.051 6.899-4.051Zm1.131 2.129-7.21 3.468 7.21-3.468Zm2.809 9.467-7.937 1.002 7.937-1.002Zm.204 2.458-7.995.29 7.995-.29Zm-2.04-9.671 7.463-2.883-7.463 2.883Zm.802 2.348-7.666 2.285 7.666-2.285Zm.617 2.414 7.825-1.662-7.825 1.662Zm-60.438-23.098a25.555 25.555 0 0 1-.784-2.302l-15.335 4.567c.4 1.341.683 2.172 1.186 3.481l14.933-5.746Zm-.784-2.302c-.285-.955-.4-1.403-.604-2.36l-15.648 3.34c.296 1.387.518 2.245.917 3.587l15.335-4.567Zm-.604-2.36a23.76 23.76 0 0 1-.409-2.372l-15.869 2.042c.183 1.424.339 2.304.63 3.67l15.648-3.34Zm-.409-2.372a21.783 21.783 0 0 1-.202-2.334l-15.987.645c.059 1.451.143 2.351.32 3.731l15.869-2.042Zm3.818 11.274a23.073 23.073 0 0 1-1.078-2.044l-14.434 6.903c.582 1.217.984 1.99 1.689 3.2l13.823-8.059Zm-1.078-2.044a25.223 25.223 0 0 1-.943-2.196l-14.933 5.746a40.582 40.582 0 0 0 1.442 3.353l14.434-6.903Zm-2.942-11.564c-.039-.968-.04-1.371.009-2.248l-15.976-.879a34.755 34.755 0 0 0-.02 3.772l15.987-.645Zm.009-2.248c.05-.923.083-1.265.206-2.029l-15.797-2.541a31.158 31.158 0 0 0-.385 3.691l15.976.879Zm6.436 19.313c-.512-.594-.726-.875-1.245-1.609l-13.067 9.233a32.73 32.73 0 0 0 2.185 2.814l12.127-10.438Zm-1.245-1.609c-.495-.7-.708-1.037-1.18-1.848l-13.823 8.059a36.32 36.32 0 0 0 1.936 3.022l13.067-9.233Zm-4.985-19.733c.132-.821.185-1.079.36-1.699l-15.4-4.34c-.389 1.378-.56 2.269-.757 3.498l15.797 2.541Zm.36-1.699c.199-.706.257-.876.459-1.348l-14.714-6.284c-.551 1.291-.824 2.152-1.145 3.292l15.4 4.34Zm8.361 25.412c-.479-.35-.654-.498-1.228-1.036l-10.941 11.675c.898.841 1.582 1.442 2.733 2.282l9.436-12.921Zm-1.228-1.036c-.507-.475-.71-.692-1.263-1.335l-12.127 10.438c.82.952 1.421 1.608 2.449 2.572l10.941-11.675Zm-6.674-25.724c.156-.365.221-.505.266-.594.033-.066.087-.17.23-.402l-13.653-8.343c-.724 1.184-1.11 2.008-1.557 3.055l14.714 6.284Zm.496-.996c.185-.304.245-.39.27-.426.01-.014.047-.067.193-.236l-12.117-10.45c-.903 1.047-1.416 1.815-1.999 2.769l13.653 8.343Zm.463-.662c.203-.236.246-.277.239-.27-.006.006-.008.008.003-.002.014-.012.052-.045.131-.108l-10.03-12.467c-1.072.863-1.724 1.544-2.46 2.397l12.117 10.45Zm.373-.38c.206-.166.225-.173.178-.142a.342.342 0 0 1-.04.025c.005-.002.039-.022.122-.065l-7.385-14.194a16.146 16.146 0 0 0-2.905 1.909l10.03 12.467Zm.26-.182c.099-.052.144-.073.157-.08a.43.43 0 0 1-.048.021l-.044.016a.09.09 0 0 1-.017.006c.004-.001.043-.014.138-.04l-4.3-15.412a15.639 15.639 0 0 0-3.271 1.295l7.385 14.194Zm.186-.077c.094-.026.133-.035.136-.036l-.018.004-.046.008c-.082.013-.086.007.143-.008l-1.019-15.967c-1.242.079-2.21.229-3.496.587l4.3 15.412Zm.215-.032a3.18 3.18 0 0 1 .143-.007l-.04-.001c-.047-.002-.016-.005.268.034l2.165-15.853c-1.171-.159-2.152-.23-3.555-.14l1.019 15.967Zm.371.026a3.49 3.49 0 0 1 .208.033c.009.003.086.021.418.131l5.013-15.195c-1.09-.359-2.036-.625-3.474-.822l-2.165 15.853Zm49.254 52.789c-17.06-7.634-26.196-12.669-42.073-22.7l-8.546 13.527c16.442 10.388 26.248 15.796 44.083 23.777l6.536-14.604Zm-42.073-22.7a37.472 37.472 0 0 0-.706-.434c-.225-.136-.32-.191-.46-.277a6.085 6.085 0 0 1-.477-.315l-9.436 12.921c1.038.759 2.338 1.509 2.533 1.632l8.546-13.527Zm-6.555-29.925c.252.083.336.119.372.135.057.025.172.078.509.257l7.486-14.141c-1.084-.574-1.969-.989-3.354-1.446l-5.013 15.195Zm.881.392.012.006.036.02.074.04 7.685-14.033a25.582 25.582 0 0 0-.321-.174l-7.486 14.141Zm.09.049.221.124 7.869-13.931-.221-.125-7.869 13.932Zm.101.055.25.147 8.108-13.793-.249-.147-8.109 13.793Zm.133.077.248.151 8.342-13.653-.248-.151-8.342 13.653Zm.135.081.246.156 8.57-13.511-.247-.157-8.569 13.512Zm.136.085.245.161 8.791-13.369-.246-.161-8.79 13.369Zm.138.089.244.167 9.005-13.226-.244-.166-9.005 13.225Zm.14.094.242.171 9.214-13.08-.242-.171-9.214 13.08Zm.141.098.241.176 9.417-12.935-.241-.176-9.417 12.935Zm.142.103.24.18 9.615-12.789-.24-.18-9.615 12.789Zm.144.107.238.185 9.807-12.643-.238-.184-9.807 12.642Zm12.506-2.305c.086-.154.205-.364.329-.574.136-.229.224-.369.257-.417l-13.273-8.935a32.896 32.896 0 0 0-1.275 2.112l13.962 7.814Zm.586-.991a7.15 7.15 0 0 1 .65-.867l-12.148-10.412a22.689 22.689 0 0 0-1.775 2.344L192 203.313Zm.65-.867c.203-.237.287-.327.338-.38.043-.045.116-.119.301-.287l-10.751-11.849a20.95 20.95 0 0 0-2.036 2.104l12.148 10.412Zm.639-.667c.214-.194.29-.257.327-.286a4.34 4.34 0 0 1 .287-.208l-9.072-13.179a19.84 19.84 0 0 0-2.293 1.824l10.751 11.849Zm.614-.494c.219-.15.288-.192.311-.205.016-.01.074-.045.278-.146l-7.128-14.325c-1.005.5-1.672.904-2.533 1.497l9.072 13.179Zm.589-.351c.221-.11.284-.135.295-.14.008-.003.065-.028.285-.099l-4.97-15.209a18.598 18.598 0 0 0-2.738 1.123l7.128 14.325Zm.58-.239c.223-.073.283-.087.291-.089a3.79 3.79 0 0 1 .313-.059l-2.683-15.774a18.32 18.32 0 0 0-2.891.713l4.97 15.209Zm.604-.148c.227-.039.293-.045.308-.046.021-.002.098-.009.363-.015l-.373-15.996c-1.068.025-1.86.092-2.981.283l2.683 15.774Zm.671-.061c.237-.006.317-.002.349 0 .044.002.141.008.432.042l1.859-15.892a19.629 19.629 0 0 0-3.013-.146l.373 15.996Zm.781.042c.252.03.353.047.412.059.073.014.194.039.509.119l3.93-15.51a20.94 20.94 0 0 0-2.992-.56l-1.859 15.892Zm.921.178c.412.105.536.144 1.078.355l5.79-14.916a22.656 22.656 0 0 0-2.938-.949l-3.93 15.51Zm1.078.355c.473.183.644.262 1.238.573l7.415-14.178a25.065 25.065 0 0 0-2.863-1.311l-5.79 14.916Zm27.539 57.52-.09-.015.057.013c.042.011.018.008-.242-.08l-5.171 15.141c.937.32 1.787.57 3.061.762l2.385-15.821Zm-.275-.082.014.005.026.01-.047-.022a8.25 8.25 0 0 1-.132-.064l-.22-.107a22.588 22.588 0 0 0-.677-.317l-6.536 14.604c.063.029.13.06.229.108l.442.215c.438.209.999.459 1.73.709l5.171-15.141Zm-26.026-56.865c.673.352.941.519 1.707 1.054l9.151-13.125c-1.169-.816-2.025-1.365-3.443-2.107l-7.415 14.178Zm1.707 1.054c.699.487.995.726 1.756 1.394l10.565-12.015c-1.082-.952-1.856-1.589-3.17-2.504l-9.151 13.125Zm24.52 55.926c-.061.016-.071.017-.047.012l.058-.011c.025-.005.054-.009.083-.013a2.25 2.25 0 0 1 .119-.015l-.104.006.745 15.983a14.344 14.344 0 0 0 3.143-.469l-3.997-15.493Zm.11-.021-.051.002a.983.983 0 0 1 .117.004l.054.004.012.001a.555.555 0 0 1-.049-.006l-.119-.017-2.385 15.821c1.018.153 1.909.232 3.165.174l-.744-15.983Zm-22.874-54.511c.71.625 1.024.939 1.76 1.728l11.71-10.903c-1.002-1.076-1.701-1.781-2.905-2.84l-10.565 12.015Zm1.76 1.728c.704.757 1.023 1.14 1.721 2.039l12.639-9.811a40.503 40.503 0 0 0-2.65-3.131l-11.71 10.903Zm20.831 52.869-.081.061-.019.015-.006.004.022-.015.056-.037.065-.04.047-.027-.041.021 7.09 14.343a14.594 14.594 0 0 0 2.643-1.659l-9.776-12.666Zm.043-.018-.072.035a2.802 2.802 0 0 1 .258-.097l-.056.015 3.997 15.493a14.226 14.226 0 0 0 2.963-1.103l-7.09-14.343Zm-19.153-50.812c.679.875.992 1.322 1.64 2.316l13.4-8.743a43.853 43.853 0 0 0-2.401-3.384l-12.639 9.811Zm1.64 2.316c.64.981.936 1.482 1.526 2.557l14.028-7.696a47.703 47.703 0 0 0-2.154-3.604l-13.4 8.743Zm17.784 48.1c-.146.23-.171.261-.158.242a.35.35 0 0 0 .016-.02l-.078.089 11.922 10.671a16.731 16.731 0 0 0 1.816-2.423l-13.518-8.559Zm-.22.312-.131.143.025-.024c.028-.027.053-.048.066-.06l-.054.043 9.776 12.666a15.396 15.396 0 0 0 2.24-2.098l-11.922-10.67Zm-6.31-21.187.028.014 7.119-14.329-.028-.014-7.119 14.329Zm.01.005.027.013 7.156-14.31-.028-.014-7.155 14.311Zm.01.005.028.014 7.19-14.294-.028-.014-7.19 14.294Zm.011.006.028.014 7.223-14.277-.028-.014-7.223 14.277Zm.009.004.028.014 7.261-14.258-.028-.014-7.261 14.258Zm.011.005.028.015 7.294-14.241-.027-.014-7.295 14.24Zm.01.005.027.015 7.331-14.222-.028-.014-7.33 14.221Zm.012.007.028.014 7.362-14.206-.028-.014-7.362 14.206Zm.01.005.028.014 7.397-14.187-.028-.015-7.397 14.188Zm.01.005.027.014 7.434-14.168-.028-.015-7.433 14.169Zm.011.006.022.011 7.466-14.151-.022-.012-7.466 14.152Zm.013.007.013.007 7.482-14.143-.012-.007-7.483 14.143Zm.004.002.021.011 7.501-14.133-.021-.011-7.501 14.133Zm-9.849-24.73a35.06 35.06 0 0 1 1.38 2.756l14.55-6.657a51.298 51.298 0 0 0-1.902-3.795l-14.028 7.696Zm1.38 2.756a37.144 37.144 0 0 1 1.209 2.914l14.983-5.612a52.795 52.795 0 0 0-1.642-3.959l-14.55 6.657Zm3.024 9.04c.277 1.259.392 1.878.571 3.124l15.837-2.28a51.25 51.25 0 0 0-.782-4.285l-15.626 3.441Zm.571 3.124c.077.53.161 1.307.231 2.034.033.346.061.651.08.869l.022.251.005.064.001.014v.002l7.974-.651 7.973-.65v-.004l-.001-.007-.002-.025-.007-.086a108.252 108.252 0 0 0-.119-1.316 64.904 64.904 0 0 0-.32-2.775l-15.837 2.28Zm-2.386-9.25a37.468 37.468 0 0 1 1.014 3.028l15.341-4.546a53.135 53.135 0 0 0-1.372-4.094l-14.983 5.612Zm1.014 3.028c.367 1.237.527 1.853.801 3.098l15.626-3.441a53.477 53.477 0 0 0-1.086-4.203l-15.341 4.546Zm6.201 16.007c.26.142.367.206.432.246.064.041.168.109.408.283l9.365-12.973a21.295 21.295 0 0 0-2.571-1.617l-7.634 14.061Zm.84.529c.329.237.424.315.862.721l10.88-11.732a22.584 22.584 0 0 0-2.377-1.962l-9.365 12.973Zm6.217 18.85c-.097.33-.137.451-.163.525-.018.052-.051.14-.145.352l14.631 6.477a20.768 20.768 0 0 0 1.03-2.851l-15.353-4.503Zm-.308.877c-.125.283-.163.357-.175.382-.002.002-.022.044-.12.199l13.518 8.56a18.574 18.574 0 0 0 1.408-2.664l-14.631-6.477Zm-5.047-19.006c.365.338.493.472.919.963l12.078-10.494a25.078 25.078 0 0 0-2.117-2.201l-10.88 11.732Zm.919.963c.38.437.525.625.927 1.189l13.031-9.284a27.991 27.991 0 0 0-1.88-2.399L222.9 239.64Zm4.853 14.526c-.043.705-.066.92-.158 1.463l15.776 2.669c.211-1.247.284-2.051.352-3.159l-15.97-.973Zm-.158 1.463c-.105.619-.137.759-.259 1.177l15.353 4.503c.35-1.191.507-1.978.682-3.011l-15.776-2.669Zm-3.768-14.8c.374.525.524.759.891 1.385l13.797-8.102a30.552 30.552 0 0 0-1.657-2.567l-13.031 9.284Zm.891 1.385c.353.6.496.872.82 1.546l14.419-6.936a32.689 32.689 0 0 0-1.442-2.712l-13.797 8.102Zm2.902 8.547c.095.752.121 1.053.146 1.746l15.99-.58a31.584 31.584 0 0 0-.262-3.169l-15.874 2.003Zm.146 1.746c.027.742.026 1.013-.013 1.659l15.97.973c.076-1.253.075-2.052.033-3.212l-15.99.58Zm-2.228-8.747c.318.661.447.96.721 1.669l14.925-5.766a34.39 34.39 0 0 0-1.227-2.839l-14.419 6.936Zm.721 1.669c.273.706.381 1.022.598 1.75l15.333-4.57a34.883 34.883 0 0 0-1.006-2.946l-14.925 5.766Zm.598 1.75a19 19 0 0 1 .458 1.792l15.65-3.325a34.512 34.512 0 0 0-.775-3.037l-15.333 4.57Zm.458 1.792c.159.752.214 1.069.305 1.79l15.874-2.003a33.036 33.036 0 0 0-.529-3.112l-15.65 3.325Zm-48.262-42.251c4.002 3.201 9.883 2.011 12.361-2.416l-13.962-7.814c2.323-4.151 7.839-5.269 11.594-2.265l-9.993 12.495Zm-1.323-.883a.927.927 0 0 1-.031-.017l7.868-13.932a5.512 5.512 0 0 0-.152-.084l-7.685 14.033Z" fill="#fff" mask="url(#ar)"/></g><g filter="url(#as)"><path d="m440.722 252.307-.534-1.01-.454-1.044.988 2.054Zm1.277 1.866-.671-.903-.606-.963 1.277 1.866Zm0 0-1.277-1.866-.988-2.054 2.265 3.92Zm-2.265-3.92-.367-1.065-.272-1.073.639 2.138Zm3.771 5.494-.778-.744-.728-.83 1.506 1.574Zm-1.506-1.574-2.265-3.92-.867-4.256 3.132 8.176Zm-2.265-3.92-.639-2.138-.228-2.118.867 4.256Zm5.446 6.672-1.675-1.178-1.506-1.574 3.181 2.752Zm-6.085-8.81-.169-1.068-.059-1.05.228 2.118Zm6.085 8.81-.855-.533-.82-.645 1.675 1.178Zm-6.313-10.928-.015-7.51.055-.988-.04 8.498Zm0 0 .04-8.498.434-1.669-.474 10.167Zm0 0 .474-10.167 1.95-1.964-2.424 12.131Zm.04-8.498.085-.455c.054-.288.128-.572.224-.849l.125-.365-.434 1.669Zm.434-1.669.096-.177c.178-.327.386-.638.622-.927l.097-.119-.815 1.223Zm0 0 .815-1.223 1.135-.741-1.95 1.964Zm.815-1.223.033-.028c.331-.27.69-.503 1.07-.697l.032-.016-1.135.741Zm1.135-.741.083-.022c.39-.103.79-.166 1.193-.189l.121-.007-1.397.218Zm0 0 1.397-.218 1.598.345-2.995-.127Zm1.397-.218.292.038c.323.041.643.109.955.202l.351.105-1.598-.345Zm71.418 60.14-72.107-39.615-3.132-8.176 75.239 47.791Zm0 0-68.926-36.863-3.181-2.752 72.107 39.615Zm-75.239-47.791 2.424-12.131 74.874 41.222-77.298-29.091Zm2.424-12.131 2.995.127 71.879 41.095-74.874-41.222Zm2.995.127.856.395 66.526 36.053-67.382-36.448Zm68.207 59.441-.863-.4-66.45-36.109 67.313 36.509Zm1.613.354-1.613-.354-67.313-36.509 68.926 36.863Zm2.059-18.7-2.059 18.7-75.239-47.791 77.298 29.091Zm-71.879-41.095 67.382 36.448 1.692 1.186-69.074-37.634Zm0 0 69.074 37.634 2.805 3.461-71.879-41.095Zm69.82 59.795-.305-.04a6.095 6.095 0 0 1-.945-.204l-.363-.11 1.613.354Zm1.412-.21-.094.024a5.997 5.997 0 0 1-1.184.179l-.134.007 1.412-.21Zm1.151-.735-1.151.735-1.412.21 2.563-.945Zm0 0-.038.031a6.034 6.034 0 0 1-1.074.685l-.039.019 1.151-.735Zm1.275-2.89-1.275 2.89-2.563.945 3.838-3.835Zm-.446 1.669-.097.175a5.997 5.997 0 0 1-.633.927l-.099.119.829-1.221Zm.446-1.669-.446 1.669-.829 1.221 1.275-2.89Zm0 0-.087.452c-.056.29-.133.576-.231.854l-.128.363.446-1.669Zm-1.779-14.865 1.779 14.865-3.838 3.835 2.059-18.7Zm1.854 6.341-.015 7.534-.06.99.075-8.524Zm-.223-2.126.223 2.126-.075 8.524-.148-10.65Zm-1.631-4.215 1.631 4.215.148 10.65-1.779-14.865Zm-4.497-4.647.864.536.828.65-1.692-1.186Zm6.128 8.862.167 1.072.056 1.054-.223-2.126Zm-4.436-7.676.785.749.734.835-1.519-1.584Zm0 0 1.519 1.584 1.286 1.877-2.805-3.461Zm3.798 5.527.367 1.07.271 1.079-.638-2.149Zm-.993-2.066.993 2.066.638 2.149-1.631-4.215Zm-1.286-1.877.676.909.61.968-1.286-1.877Zm1.286 1.877.537 1.016.456 1.05-.993-2.066Z" fill="#fff"/></g><path d="m446.442 248.895-.168-.319-.144-.33.312.649Zm.403.589-.212-.285-.191-.304.403.589Zm0 0-.403-.589-.312-.649.715 1.238Zm-.715-1.238-.116-.337-.085-.339.201.676Zm1.191 1.736-.246-.236-.23-.262.476.498Zm-.476-.498-.715-1.238-.274-1.345.989 2.583Zm-.715-1.238-.201-.676-.073-.669.274 1.345Zm1.72 2.108-.529-.372-.476-.498 1.005.87Zm-1.921-2.784-.054-.337-.019-.332.073.669Zm1.921 2.784-.27-.169-.259-.203.529.372Zm-1.994-3.453-.004-2.372.017-.313-.013 2.685Zm0 0 .013-2.685.137-.527-.15 3.212Zm0 0 .15-3.212.616-.62-.766 3.832Zm.013-2.685.052-.28.085-.247-.137.527Zm.137-.527.115-.211.142-.175-.257.386Zm0 0 .257-.386.359-.234-.616.62Zm.257-.386.168-.137.191-.097-.359.234Zm.359-.234.211-.056.23-.013-.441.069Zm0 0 .441-.069.505.109-.946-.04Zm.441-.069.246.031.259.078-.505-.109Zm32.553 24-32.771-17.516-.989-2.583L479.616 267Zm0 0-31.766-16.646-1.005-.87L479.616 267Zm-33.76-20.099.766-3.832 33.644 18.023-34.41-14.191Zm.766-3.832.946.04 32.698 17.983-33.644-18.023Zm.946.04.27.125 31.008 16.39-31.278-16.515Zm31.538 23.779-.272-.126-30.984-16.408 31.256 16.534Zm.51.112-.51-.112-31.256-16.534L479.616 267Zm.65-5.908-.65 5.908-33.76-20.099 34.41 14.191Zm-32.698-17.983 31.278 16.515.534.375-31.812-16.89Zm0 0 31.812 16.89.886 1.093-32.698-17.983ZM479.616 267l-.248-.033-.262-.079.51.112Zm.446-.066-.214.054-.232.012.446-.066Zm.363-.233-.363.233-.446.066.809-.299Zm0 0-.17.137-.193.096.363-.233Zm.403-.913-.403.913-.809.299 1.212-1.212Zm-.141.528-.117.211-.145.174.262-.385Zm.141-.528-.141.528-.262.385.403-.913Zm0 0-.054.281-.087.247.141-.528Zm-.562-4.696.562 4.696-1.212 1.212.65-5.908Zm.586 2.004-.005 2.38-.019.312.024-2.692Zm-.071-.672.071.672-.024 2.692-.047-3.364Zm-.515-1.332.515 1.332.047 3.364-.562-4.696Zm-1.42-1.468.273.169.261.206-.534-.375Zm1.935 2.8.053.339.018.333-.071-.672Zm-1.401-2.425.248.236.232.264-.48-.5Zm0 0 .48.5.406.593-.886-1.093Zm1.199 1.746.116.338.086.341-.202-.679Zm-.313-.653.313.653.202.679-.515-1.332Zm-.406-.593.213.287.193.306-.406-.593Zm.406.593.17.321.143.332-.313-.653Z" fill="#D8EFF4"/><path d="M489.26 272.34c.076.187.123.291.215.47.09.176.145.272.252.438.105.163.167.252.287.403a4.032 4.032 0 0 0 .662.674 3.153 3.153 0 0 0 1.165.601c.156.039.246.055.406.067.153.01.239.01.391-.006.147-.016.229-.033.37-.075.14-.042.217-.074.348-.14.131-.067.202-.113.32-.202.121-.091.184-.149.289-.259.109-.114.164-.184.255-.314.095-.135.142-.216.217-.364.079-.155.117-.246.175-.411.062-.173.09-.274.13-.453.043-.19.06-.299.081-.493.023-.205.028-.321.029-.528 0-.212-.006-.331-.027-.542a4.827 4.827 0 0 0-.08-.533 4.78 4.78 0 0 0-.129-.518 4.833 4.833 0 0 0-.175-.499 4.91 4.91 0 0 0-.216-.473 4.59 4.59 0 0 0-.255-.441 4.301 4.301 0 0 0-.29-.404 3.798 3.798 0 0 0-.32-.362c-.129-.13-.205-.2-.348-.313a2.877 2.877 0 0 0-.372-.259 2.527 2.527 0 0 0-.391-.2 2.269 2.269 0 0 0-.408-.135 2.014 2.014 0 0 0-.408-.063 1.816 1.816 0 0 0-.39.01 1.672 1.672 0 0 0-.37.079 1.765 1.765 0 0 0-.346.143c-.13.069-.2.115-.318.205-.12.093-.182.152-.286.263a2.767 2.767 0 0 0-.467.68 3.01 3.01 0 0 0-.172.41 3.424 3.424 0 0 0-.127.453 3.847 3.847 0 0 0-.079.49c-.022.204-.026.32-.026.525 0 .21.006.329.027.538.021.208.039.324.08.529.041.203.069.316.128.515.059.196.097.305.173.494ZM497.26 276.848c.076.187.123.29.215.469.09.176.146.273.252.439.105.162.167.251.287.402a4.032 4.032 0 0 0 .662.674c.138.111.219.169.369.261.147.089.232.135.39.202.154.066.243.098.406.138.156.039.246.055.406.067.153.011.239.011.391-.006.147-.016.229-.032.37-.075.14-.042.217-.073.348-.14.131-.067.202-.112.32-.201.121-.092.184-.15.289-.26.109-.114.164-.184.255-.314.095-.135.142-.216.217-.364.079-.155.117-.246.175-.41.062-.174.09-.274.13-.454.043-.19.06-.299.081-.493.023-.205.028-.321.029-.528 0-.211-.006-.331-.027-.541a4.757 4.757 0 0 0-.08-.533 4.857 4.857 0 0 0-.129-.519 4.917 4.917 0 0 0-.175-.499 4.784 4.784 0 0 0-.216-.472 4.607 4.607 0 0 0-.255-.442 4.436 4.436 0 0 0-.29-.404 3.798 3.798 0 0 0-.32-.362 3.563 3.563 0 0 0-.348-.313 2.98 2.98 0 0 0-.372-.259 2.619 2.619 0 0 0-.391-.2 2.269 2.269 0 0 0-.408-.135 2.087 2.087 0 0 0-.408-.063 1.883 1.883 0 0 0-.39.01 1.793 1.793 0 0 0-.37.079 1.832 1.832 0 0 0-.346.144c-.13.068-.2.115-.318.205-.12.092-.182.151-.286.262a2.767 2.767 0 0 0-.467.68 3.076 3.076 0 0 0-.172.411 3.368 3.368 0 0 0-.127.452 3.89 3.89 0 0 0-.079.491 4.17 4.17 0 0 0-.026.524c0 .211.006.329.027.538.021.208.039.325.08.529.041.204.069.317.128.515.059.196.097.305.173.495ZM505.26 281.34c.076.187.123.291.215.47.09.176.145.272.252.438.105.163.167.252.287.403a4.032 4.032 0 0 0 .662.674 3.153 3.153 0 0 0 1.165.601c.156.039.246.055.406.067.153.01.239.01.391-.006.147-.016.229-.033.37-.075.14-.042.217-.074.348-.14.131-.067.202-.113.32-.202.121-.091.184-.149.289-.259.109-.114.164-.184.255-.314.095-.135.142-.216.217-.364.079-.155.117-.246.175-.411.062-.173.09-.274.13-.453.043-.19.06-.299.081-.493.023-.205.028-.321.029-.528 0-.212-.006-.331-.027-.542a4.827 4.827 0 0 0-.08-.533 4.78 4.78 0 0 0-.129-.518 4.833 4.833 0 0 0-.175-.499 4.91 4.91 0 0 0-.216-.473 4.59 4.59 0 0 0-.255-.441 4.301 4.301 0 0 0-.29-.404 3.798 3.798 0 0 0-.32-.362c-.129-.13-.205-.2-.348-.313a2.877 2.877 0 0 0-.372-.259 2.527 2.527 0 0 0-.391-.2 2.269 2.269 0 0 0-.408-.135 2.014 2.014 0 0 0-.408-.063 1.816 1.816 0 0 0-.39.01 1.672 1.672 0 0 0-.37.079 1.765 1.765 0 0 0-.346.143c-.13.069-.2.115-.318.205-.12.093-.182.152-.286.263a2.767 2.767 0 0 0-.467.68 3.01 3.01 0 0 0-.172.41 3.424 3.424 0 0 0-.127.453 3.847 3.847 0 0 0-.079.49c-.022.204-.026.32-.026.525 0 .21.006.329.027.538.021.208.039.324.08.529.041.203.069.316.128.515.059.196.097.305.173.494Z" fill="#00B4D5"/><g filter="url(#at)"><path d="m440.722 226.307-.534-1.01-.454-1.044.988 2.054Zm1.277 1.866-.671-.903-.606-.963 1.277 1.866Zm0 0-1.277-1.866-.988-2.054 2.265 3.92Zm-2.265-3.92-.367-1.065-.272-1.073.639 2.138Zm3.771 5.494-.778-.744-.728-.83 1.506 1.574Zm-1.506-1.574-2.265-3.92-.867-4.256 3.132 8.176Zm-2.265-3.92-.639-2.138-.228-2.118.867 4.256Zm5.446 6.672-1.675-1.178-1.506-1.574 3.181 2.752Zm-6.085-8.81-.169-1.068-.059-1.05.228 2.118Zm6.085 8.81-.855-.533-.82-.645 1.675 1.178Zm-6.313-10.928-.015-7.51.055-.988-.04 8.498Zm0 0 .04-8.498.434-1.669-.474 10.167Zm0 0 .474-10.167 1.95-1.964-2.424 12.131Zm.04-8.498.085-.455c.054-.288.128-.572.224-.849l.125-.365-.434 1.669Zm.434-1.669.096-.177c.178-.327.386-.638.622-.927l.097-.119-.815 1.223Zm0 0 .815-1.223 1.135-.741-1.95 1.964Zm.815-1.223.033-.028c.331-.27.69-.503 1.07-.697l.032-.016-1.135.741Zm1.135-.741.083-.022c.39-.103.79-.166 1.193-.189l.121-.007-1.397.218Zm0 0 1.397-.218 1.598.345-2.995-.127Zm1.397-.218.292.038c.323.041.643.109.955.202l.351.105-1.598-.345Zm71.418 60.14-72.107-39.615-3.132-8.176 75.239 47.791Zm0 0-68.926-36.863-3.181-2.752 72.107 39.615Zm-75.239-47.791 2.424-12.131 74.874 41.222-77.298-29.091Zm2.424-12.131 2.995.127 71.879 41.095-74.874-41.222Zm2.995.127.856.395 66.526 36.053-67.382-36.448Zm68.207 59.441-.863-.4-66.45-36.109 67.313 36.509Zm1.613.354-1.613-.354-67.313-36.509 68.926 36.863Zm2.059-18.7-2.059 18.7-75.239-47.791 77.298 29.091Zm-71.879-41.095 67.382 36.448 1.692 1.186-69.074-37.634Zm0 0 69.074 37.634 2.805 3.461-71.879-41.095Zm69.82 59.795-.305-.04a6.095 6.095 0 0 1-.945-.204l-.363-.11 1.613.354Zm1.412-.21-.094.024a5.997 5.997 0 0 1-1.184.179l-.134.007 1.412-.21Zm1.151-.735-1.151.735-1.412.21 2.563-.945Zm0 0-.038.031a6.034 6.034 0 0 1-1.074.685l-.039.019 1.151-.735Zm1.275-2.89-1.275 2.89-2.563.945 3.838-3.835Zm-.446 1.669-.097.175a5.997 5.997 0 0 1-.633.927l-.099.119.829-1.221Zm.446-1.669-.446 1.669-.829 1.221 1.275-2.89Zm0 0-.087.452c-.056.29-.133.576-.231.854l-.128.363.446-1.669Zm-1.779-14.865 1.779 14.865-3.838 3.835 2.059-18.7Zm1.854 6.341-.015 7.534-.06.99.075-8.524Zm-.223-2.126.223 2.126-.075 8.524-.148-10.65Zm-1.631-4.215 1.631 4.215.148 10.65-1.779-14.865Zm-4.497-4.647.864.536.828.65-1.692-1.186Zm6.128 8.862.167 1.072.056 1.054-.223-2.126Zm-4.436-7.676.785.749.734.835-1.519-1.584Zm0 0 1.519 1.584 1.286 1.877-2.805-3.461Zm3.798 5.527.367 1.07.271 1.079-.638-2.149Zm-.993-2.066.993 2.066.638 2.149-1.631-4.215Zm-1.286-1.877.676.909.61.968-1.286-1.877Zm1.286 1.877.537 1.016.456 1.05-.993-2.066Z" fill="#fff"/></g><path d="m446.442 222.895-.168-.319-.144-.33.312.649Zm.403.589-.212-.285-.191-.304.403.589Zm0 0-.403-.589-.312-.649.715 1.238Zm-.715-1.238-.116-.337-.085-.339.201.676Zm1.191 1.736-.246-.236-.23-.262.476.498Zm-.476-.498-.715-1.238-.274-1.345.989 2.583Zm-.715-1.238-.201-.676-.073-.669.274 1.345Zm1.72 2.108-.529-.372-.476-.498 1.005.87Zm-1.921-2.784-.054-.337-.019-.332.073.669Zm1.921 2.784-.27-.169-.259-.203.529.372Zm-1.994-3.453-.004-2.372.017-.313-.013 2.685Zm0 0 .013-2.685.137-.527-.15 3.212Zm0 0 .15-3.212.616-.62-.766 3.832Zm.013-2.685.052-.28.085-.247-.137.527Zm.137-.527.115-.211.142-.175-.257.386Zm0 0 .257-.386.359-.234-.616.62Zm.257-.386.168-.137.191-.097-.359.234Zm.359-.234.211-.056.23-.013-.441.069Zm0 0 .441-.069.505.109-.946-.04Zm.441-.069.246.031.259.078-.505-.109Zm32.553 24-32.771-17.516-.989-2.583L479.616 241Zm0 0-31.766-16.646-1.005-.87L479.616 241Zm-33.76-20.099.766-3.832 33.644 18.023-34.41-14.191Zm.766-3.832.946.04 32.698 17.983-33.644-18.023Zm.946.04.27.125 31.008 16.39-31.278-16.515Zm31.538 23.779-.272-.126-30.984-16.408 31.256 16.534Zm.51.112-.51-.112-31.256-16.534L479.616 241Zm.65-5.908-.65 5.908-33.76-20.099 34.41 14.191Zm-32.698-17.983 31.278 16.515.534.375-31.812-16.89Zm0 0 31.812 16.89.886 1.093-32.698-17.983ZM479.616 241l-.248-.033-.262-.079.51.112Zm.446-.066-.214.054-.232.012.446-.066Zm.363-.233-.363.233-.446.066.809-.299Zm0 0-.17.137-.193.096.363-.233Zm.403-.913-.403.913-.809.299 1.212-1.212Zm-.141.528-.117.211-.145.174.262-.385Zm.141-.528-.141.528-.262.385.403-.913Zm0 0-.054.281-.087.247.141-.528Zm-.562-4.696.562 4.696-1.212 1.212.65-5.908Zm.586 2.004-.005 2.38-.019.312.024-2.692Zm-.071-.672.071.672-.024 2.692-.047-3.364Zm-.515-1.332.515 1.332.047 3.364-.562-4.696Zm-1.42-1.468.273.169.261.206-.534-.375Zm1.935 2.8.053.339.018.333-.071-.672Zm-1.401-2.425.248.236.232.264-.48-.5Zm0 0 .48.5.406.593-.886-1.093Zm1.199 1.746.116.338.086.341-.202-.679Zm-.313-.653.313.653.202.679-.515-1.332Zm-.406-.593.213.287.193.306-.406-.593Zm.406.593.17.321.143.332-.313-.653Z" fill="#D8EFF4"/><path d="M489.26 246.34c.076.187.123.291.215.47.09.176.145.272.252.438.105.163.167.252.287.403a4.032 4.032 0 0 0 .662.674 3.153 3.153 0 0 0 1.165.601c.156.039.246.055.406.067.153.01.239.01.391-.006.147-.016.229-.033.37-.075.14-.042.217-.074.348-.14.131-.067.202-.113.32-.202.121-.091.184-.149.289-.259.109-.114.164-.184.255-.314.095-.135.142-.216.217-.364.079-.155.117-.246.175-.411.062-.173.09-.274.13-.453.043-.19.06-.299.081-.493.023-.205.028-.321.029-.528 0-.212-.006-.331-.027-.542a4.827 4.827 0 0 0-.08-.533 4.78 4.78 0 0 0-.129-.518 4.833 4.833 0 0 0-.175-.499 4.91 4.91 0 0 0-.216-.473 4.59 4.59 0 0 0-.255-.441 4.301 4.301 0 0 0-.29-.404 3.798 3.798 0 0 0-.32-.362c-.129-.13-.205-.2-.348-.313a2.877 2.877 0 0 0-.372-.259 2.527 2.527 0 0 0-.391-.2 2.269 2.269 0 0 0-.408-.135 2.014 2.014 0 0 0-.408-.063 1.816 1.816 0 0 0-.39.01 1.672 1.672 0 0 0-.37.079 1.765 1.765 0 0 0-.346.143c-.13.069-.2.115-.318.205-.12.093-.182.152-.286.263a2.767 2.767 0 0 0-.467.68 3.01 3.01 0 0 0-.172.41 3.424 3.424 0 0 0-.127.453 3.847 3.847 0 0 0-.079.49c-.022.204-.026.32-.026.525 0 .21.006.329.027.538.021.208.039.324.08.529.041.203.069.316.128.515.059.196.097.305.173.494ZM497.26 250.848c.076.187.123.29.215.469.09.176.146.273.252.439.105.162.167.251.287.402a4.032 4.032 0 0 0 .662.674c.138.111.219.169.369.261.147.089.232.135.39.202.154.066.243.098.406.138.156.039.246.055.406.067.153.011.239.011.391-.006.147-.016.229-.032.37-.075.14-.042.217-.073.348-.14.131-.067.202-.112.32-.201.121-.092.184-.15.289-.26.109-.114.164-.184.255-.314.095-.135.142-.216.217-.364.079-.155.117-.246.175-.41.062-.174.09-.274.13-.454.043-.19.06-.299.081-.493.023-.205.028-.321.029-.528 0-.211-.006-.331-.027-.541a4.757 4.757 0 0 0-.08-.533 4.857 4.857 0 0 0-.129-.519 4.917 4.917 0 0 0-.175-.499 4.784 4.784 0 0 0-.216-.472 4.607 4.607 0 0 0-.255-.442 4.436 4.436 0 0 0-.29-.404 3.798 3.798 0 0 0-.32-.362 3.563 3.563 0 0 0-.348-.313 2.98 2.98 0 0 0-.372-.259 2.619 2.619 0 0 0-.391-.2 2.269 2.269 0 0 0-.408-.135 2.087 2.087 0 0 0-.408-.063 1.883 1.883 0 0 0-.39.01 1.793 1.793 0 0 0-.37.079 1.832 1.832 0 0 0-.346.144c-.13.068-.2.115-.318.205-.12.092-.182.151-.286.262a2.767 2.767 0 0 0-.467.68 3.076 3.076 0 0 0-.172.411 3.368 3.368 0 0 0-.127.452 3.89 3.89 0 0 0-.079.491 4.17 4.17 0 0 0-.026.524c0 .211.006.329.027.538.021.208.039.325.08.529.041.204.069.317.128.515.059.196.097.305.173.495ZM505.26 255.34c.076.187.123.291.215.47.09.176.145.272.252.438.105.163.167.252.287.403a4.032 4.032 0 0 0 .662.674 3.153 3.153 0 0 0 1.165.601c.156.039.246.055.406.067.153.01.239.01.391-.006.147-.016.229-.033.37-.075.14-.042.217-.074.348-.14.131-.067.202-.113.32-.202.121-.091.184-.149.289-.259.109-.114.164-.184.255-.314.095-.135.142-.216.217-.364.079-.155.117-.246.175-.411.062-.173.09-.274.13-.453.043-.19.06-.299.081-.493.023-.205.028-.321.029-.528 0-.212-.006-.331-.027-.542a4.827 4.827 0 0 0-.08-.533 4.78 4.78 0 0 0-.129-.518 4.833 4.833 0 0 0-.175-.499 4.91 4.91 0 0 0-.216-.473 4.59 4.59 0 0 0-.255-.441 4.301 4.301 0 0 0-.29-.404 3.798 3.798 0 0 0-.32-.362c-.129-.13-.205-.2-.348-.313a2.877 2.877 0 0 0-.372-.259 2.527 2.527 0 0 0-.391-.2 2.269 2.269 0 0 0-.408-.135 2.014 2.014 0 0 0-.408-.063 1.816 1.816 0 0 0-.39.01 1.672 1.672 0 0 0-.37.079 1.765 1.765 0 0 0-.346.143c-.13.069-.2.115-.318.205-.12.093-.182.152-.286.263a2.767 2.767 0 0 0-.467.68 3.01 3.01 0 0 0-.172.41 3.424 3.424 0 0 0-.127.453 3.847 3.847 0 0 0-.079.49c-.022.204-.026.32-.026.525 0 .21.006.329.027.538.021.208.039.324.08.529.041.203.069.316.128.515.059.196.097.305.173.494Z" fill="#00B4D5"/><g filter="url(#au)"><path d="m440.722 200.307-.534-1.01-.454-1.044.988 2.054Zm1.277 1.866-.671-.903-.606-.963 1.277 1.866Zm0 0-1.277-1.866-.988-2.054 2.265 3.92Zm-2.265-3.92-.367-1.065-.272-1.073.639 2.138Zm3.771 5.494-.778-.744-.728-.83 1.506 1.574Zm-1.506-1.574-2.265-3.92-.867-4.256 3.132 8.176Zm-2.265-3.92-.639-2.138-.228-2.118.867 4.256Zm5.446 6.672-1.675-1.178-1.506-1.574 3.181 2.752Zm-6.085-8.81-.169-1.068-.059-1.05.228 2.118Zm6.085 8.81-.855-.533-.82-.645 1.675 1.178Zm-6.313-10.928-.015-7.51.055-.988-.04 8.498Zm0 0 .04-8.498.434-1.669-.474 10.167Zm0 0 .474-10.167 1.95-1.964-2.424 12.131Zm.04-8.498.085-.455c.054-.288.128-.572.224-.849l.125-.365-.434 1.669Zm.434-1.669.096-.177c.178-.327.386-.638.622-.927l.097-.119-.815 1.223Zm0 0 .815-1.223 1.135-.741-1.95 1.964Zm.815-1.223.033-.028c.331-.27.69-.503 1.07-.697l.032-.016-1.135.741Zm1.135-.741.083-.022c.39-.103.79-.166 1.193-.189l.121-.007-1.397.218Zm0 0 1.397-.218 1.598.345-2.995-.127Zm1.397-.218.292.038c.323.041.643.109.955.202l.351.105-1.598-.345Zm71.418 60.14-72.107-39.615-3.132-8.176 75.239 47.791Zm0 0-68.926-36.863-3.181-2.752 72.107 39.615Zm-75.239-47.791 2.424-12.131 74.874 41.222-77.298-29.091Zm2.424-12.131 2.995.127 71.879 41.095-74.874-41.222Zm2.995.127.856.395 66.526 36.053-67.382-36.448Zm68.207 59.441-.863-.4-66.45-36.109 67.313 36.509Zm1.613.354-1.613-.354-67.313-36.509 68.926 36.863Zm2.059-18.7-2.059 18.7-75.239-47.791 77.298 29.091Zm-71.879-41.095 67.382 36.448 1.692 1.186-69.074-37.634Zm0 0 69.074 37.634 2.805 3.461-71.879-41.095Zm69.82 59.795-.305-.04a6.095 6.095 0 0 1-.945-.204l-.363-.11 1.613.354Zm1.412-.21-.094.024a5.997 5.997 0 0 1-1.184.179l-.134.007 1.412-.21Zm1.151-.735-1.151.735-1.412.21 2.563-.945Zm0 0-.038.031a6.034 6.034 0 0 1-1.074.685l-.039.019 1.151-.735Zm1.275-2.89-1.275 2.89-2.563.945 3.838-3.835Zm-.446 1.669-.097.175a5.997 5.997 0 0 1-.633.927l-.099.119.829-1.221Zm.446-1.669-.446 1.669-.829 1.221 1.275-2.89Zm0 0-.087.452c-.056.29-.133.576-.231.854l-.128.363.446-1.669Zm-1.779-14.865 1.779 14.865-3.838 3.835 2.059-18.7Zm1.854 6.341-.015 7.534-.06.99.075-8.524Zm-.223-2.126.223 2.126-.075 8.524-.148-10.65Zm-1.631-4.215 1.631 4.215.148 10.65-1.779-14.865Zm-4.497-4.647.864.536.828.65-1.692-1.186Zm6.128 8.862.167 1.072.056 1.054-.223-2.126Zm-4.436-7.676.785.749.734.835-1.519-1.584Zm0 0 1.519 1.584 1.286 1.877-2.805-3.461Zm3.798 5.527.367 1.07.271 1.079-.638-2.149Zm-.993-2.066.993 2.066.638 2.149-1.631-4.215Zm-1.286-1.877.676.909.61.968-1.286-1.877Zm1.286 1.877.537 1.016.456 1.05-.993-2.066Z" fill="#fff"/></g><path d="m446.442 196.895-.168-.319-.144-.33.312.649Zm.403.589-.212-.285-.191-.304.403.589Zm0 0-.403-.589-.312-.649.715 1.238Zm-.715-1.238-.116-.337-.085-.339.201.676Zm1.191 1.736-.246-.236-.23-.262.476.498Zm-.476-.498-.715-1.238-.274-1.345.989 2.583Zm-.715-1.238-.201-.676-.073-.669.274 1.345Zm1.72 2.108-.529-.372-.476-.498 1.005.87Zm-1.921-2.784-.054-.337-.019-.332.073.669Zm1.921 2.784-.27-.169-.259-.203.529.372Zm-1.994-3.453-.004-2.372.017-.313-.013 2.685Zm0 0 .013-2.685.137-.527-.15 3.212Zm0 0 .15-3.212.616-.62-.766 3.832Zm.013-2.685.052-.28.085-.247-.137.527Zm.137-.527.115-.211.142-.175-.257.386Zm0 0 .257-.386.359-.234-.616.62Zm.257-.386.168-.137.191-.097-.359.234Zm.359-.234.211-.056.23-.013-.441.069Zm0 0 .441-.069.505.109-.946-.04Zm.441-.069.246.031.259.078-.505-.109Zm32.553 24-32.771-17.516-.989-2.583L479.616 215Zm0 0-31.766-16.646-1.005-.87L479.616 215Zm-33.76-20.099.766-3.832 33.644 18.023-34.41-14.191Zm.766-3.832.946.04 32.698 17.983-33.644-18.023Zm.946.04.27.125 31.008 16.39-31.278-16.515Zm31.538 23.779-.272-.126-30.984-16.408 31.256 16.534Zm.51.112-.51-.112-31.256-16.534L479.616 215Zm.65-5.908-.65 5.908-33.76-20.099 34.41 14.191Zm-32.698-17.983 31.278 16.515.534.375-31.812-16.89Zm0 0 31.812 16.89.886 1.093-32.698-17.983ZM479.616 215l-.248-.033-.262-.079.51.112Zm.446-.066-.214.054-.232.012.446-.066Zm.363-.233-.363.233-.446.066.809-.299Zm0 0-.17.137-.193.096.363-.233Zm.403-.913-.403.913-.809.299 1.212-1.212Zm-.141.528-.117.211-.145.174.262-.385Zm.141-.528-.141.528-.262.385.403-.913Zm0 0-.054.281-.087.247.141-.528Zm-.562-4.696.562 4.696-1.212 1.212.65-5.908Zm.586 2.004-.005 2.38-.019.312.024-2.692Zm-.071-.672.071.672-.024 2.692-.047-3.364Zm-.515-1.332.515 1.332.047 3.364-.562-4.696Zm-1.42-1.468.273.169.261.206-.534-.375Zm1.935 2.8.053.339.018.333-.071-.672Zm-1.401-2.425.248.236.232.264-.48-.5Zm0 0 .48.5.406.593-.886-1.093Zm1.199 1.746.116.338.086.341-.202-.679Zm-.313-.653.313.653.202.679-.515-1.332Zm-.406-.593.213.287.193.306-.406-.593Zm.406.593.17.321.143.332-.313-.653Z" fill="#D8EFF4"/><path d="M489.26 220.34c.076.187.123.291.215.47.09.176.145.272.252.438.105.163.167.252.287.403a4.032 4.032 0 0 0 .662.674 3.153 3.153 0 0 0 1.165.601c.156.039.246.055.406.067.153.01.239.01.391-.006.147-.016.229-.033.37-.075.14-.042.217-.074.348-.14.131-.067.202-.113.32-.202.121-.091.184-.149.289-.259.109-.114.164-.184.255-.314.095-.135.142-.216.217-.364.079-.155.117-.246.175-.411.062-.173.09-.274.13-.453.043-.19.06-.299.081-.493.023-.205.028-.321.029-.528 0-.212-.006-.331-.027-.542a4.827 4.827 0 0 0-.08-.533 4.78 4.78 0 0 0-.129-.518 4.833 4.833 0 0 0-.175-.499 4.91 4.91 0 0 0-.216-.473 4.59 4.59 0 0 0-.255-.441 4.301 4.301 0 0 0-.29-.404 3.798 3.798 0 0 0-.32-.362c-.129-.13-.205-.2-.348-.313a2.877 2.877 0 0 0-.372-.259 2.527 2.527 0 0 0-.391-.2 2.269 2.269 0 0 0-.408-.135 2.014 2.014 0 0 0-.408-.063 1.816 1.816 0 0 0-.39.01 1.672 1.672 0 0 0-.37.079 1.765 1.765 0 0 0-.346.143c-.13.069-.2.115-.318.205-.12.093-.182.152-.286.263a2.767 2.767 0 0 0-.467.68 3.01 3.01 0 0 0-.172.41 3.424 3.424 0 0 0-.127.453 3.847 3.847 0 0 0-.079.49c-.022.204-.026.32-.026.525 0 .21.006.329.027.538.021.208.039.324.08.529.041.203.069.316.128.515.059.196.097.305.173.494ZM497.26 224.848c.076.187.123.29.215.469.09.176.146.273.252.439.105.162.167.251.287.402a4.032 4.032 0 0 0 .662.674c.138.111.219.169.369.261.147.089.232.135.39.202.154.066.243.098.406.138.156.039.246.055.406.067.153.011.239.011.391-.006.147-.016.229-.032.37-.075.14-.042.217-.073.348-.14.131-.067.202-.112.32-.201.121-.092.184-.15.289-.26.109-.114.164-.184.255-.314.095-.135.142-.216.217-.364.079-.155.117-.246.175-.41.062-.174.09-.274.13-.454.043-.19.06-.299.081-.493.023-.205.028-.321.029-.528 0-.211-.006-.331-.027-.541a4.757 4.757 0 0 0-.08-.533 4.857 4.857 0 0 0-.129-.519 4.917 4.917 0 0 0-.175-.499 4.784 4.784 0 0 0-.216-.472 4.607 4.607 0 0 0-.255-.442 4.436 4.436 0 0 0-.29-.404 3.798 3.798 0 0 0-.32-.362 3.563 3.563 0 0 0-.348-.313 2.98 2.98 0 0 0-.372-.259 2.619 2.619 0 0 0-.391-.2 2.269 2.269 0 0 0-.408-.135 2.087 2.087 0 0 0-.408-.063 1.883 1.883 0 0 0-.39.01 1.793 1.793 0 0 0-.37.079 1.832 1.832 0 0 0-.346.144c-.13.068-.2.115-.318.205-.12.092-.182.151-.286.262a2.767 2.767 0 0 0-.467.68 3.076 3.076 0 0 0-.172.411 3.368 3.368 0 0 0-.127.452 3.89 3.89 0 0 0-.079.491 4.17 4.17 0 0 0-.026.524c0 .211.006.329.027.538.021.208.039.325.08.529.041.204.069.317.128.515.059.196.097.305.173.495ZM505.26 229.34c.076.187.123.291.215.47.09.176.145.272.252.438.105.163.167.252.287.403a4.032 4.032 0 0 0 .662.674 3.153 3.153 0 0 0 1.165.601c.156.039.246.055.406.067.153.01.239.01.391-.006.147-.016.229-.033.37-.075.14-.042.217-.074.348-.14.131-.067.202-.113.32-.202.121-.091.184-.149.289-.259.109-.114.164-.184.255-.314.095-.135.142-.216.217-.364.079-.155.117-.246.175-.411.062-.173.09-.274.13-.453.043-.19.06-.299.081-.493.023-.205.028-.321.029-.528 0-.212-.006-.331-.027-.542a4.827 4.827 0 0 0-.08-.533 4.78 4.78 0 0 0-.129-.518 4.833 4.833 0 0 0-.175-.499 4.91 4.91 0 0 0-.216-.473 4.59 4.59 0 0 0-.255-.441 4.301 4.301 0 0 0-.29-.404 3.798 3.798 0 0 0-.32-.362c-.129-.13-.205-.2-.348-.313a2.877 2.877 0 0 0-.372-.259 2.527 2.527 0 0 0-.391-.2 2.269 2.269 0 0 0-.408-.135 2.014 2.014 0 0 0-.408-.063 1.816 1.816 0 0 0-.39.01 1.672 1.672 0 0 0-.37.079 1.765 1.765 0 0 0-.346.143c-.13.069-.2.115-.318.205-.12.093-.182.152-.286.263a2.767 2.767 0 0 0-.467.68 3.01 3.01 0 0 0-.172.41 3.424 3.424 0 0 0-.127.453 3.847 3.847 0 0 0-.079.49c-.022.204-.026.32-.026.525 0 .21.006.329.027.538.021.208.039.324.08.529.041.203.069.316.128.515.059.196.097.305.173.494Z" fill="#00B4D5"/><g filter="url(#av)"><path d="M379.857 285.85a6 6 0 0 1 2.993 5.192v65.364c0 4.623-5.007 7.509-9.007 5.192l-68.85-39.884a5.999 5.999 0 0 1-2.993-5.191v-65.365c0-4.623 5.008-7.509 9.008-5.192l68.849 39.884Z" fill="#fff"/></g><path d="M366.527 294.595a3.999 3.999 0 0 1 1.995 3.461l.001 37.3c0 3.081-3.339 5.006-6.005 3.461l-44.195-25.601a4.001 4.001 0 0 1-1.995-3.461v-40.77c0-1.541 1.669-2.503 3.003-1.73l47.196 27.34Z" fill="url(#aw)"/><path d="M328.004 283.881a.981.981 0 0 1 1.473-.849l.729.423a4.168 4.168 0 0 1 2.079 3.607.981.981 0 0 1-1.473.849l-.729-.423-2.006 3.461 2.006-3.461a4.168 4.168 0 0 1-2.079-3.607Z" fill="#fff" stroke="#fff" stroke-width="8"/><path d="m315.305 309.383 14.328-6.002 5.373 7.932 23.538-10.016 12.281 30.996" stroke="#fff" stroke-width="6" stroke-linejoin="round"/></g><defs><linearGradient id="b" x1="466.094" y1="74.768" x2="311.878" y2="403.39" gradientUnits="userSpaceOnUse"><stop offset=".026" stop-color="#CFECFD" stop-opacity=".99"/><stop offset=".226" stop-color="#D9D3ED" stop-opacity=".788"/><stop offset="1" stop-color="#FD71AF" stop-opacity=".01"/></linearGradient><linearGradient id="c" x1="137.5" y1="249" x2="97.666" y2="464.897" gradientUnits="userSpaceOnUse"><stop offset=".026" stop-color="#CFECFD" stop-opacity=".99"/><stop offset=".226" stop-color="#D9D3ED" stop-opacity=".788"/><stop offset="1" stop-color="#FD71AF" stop-opacity=".01"/></linearGradient><linearGradient id="e" x1="313.256" y1="19" x2="378.71" y2="43.274" gradientUnits="userSpaceOnUse"><stop stop-color="#00E398"/><stop offset="1" stop-color="#00E995"/></linearGradient><linearGradient id="f" x1="212.893" y1="-49" x2="399.552" y2="483.373" gradientUnits="userSpaceOnUse"><stop stop-color="#00B4D5"/><stop offset="1" stop-color="#DCE3FF"/></linearGradient><linearGradient id="g" x1="424" y1="286" x2="424" y2="305.5" gradientUnits="userSpaceOnUse"><stop stop-color="#C3C8D5"/><stop offset="1" stop-color="#6DD1F0"/></linearGradient><linearGradient id="h" x1="275" y1="281" x2="275" y2="300.5" gradientUnits="userSpaceOnUse"><stop stop-color="#C3C8D5"/><stop offset="1" stop-color="#6DD1F0"/></linearGradient><linearGradient id="i" x1="305.226" y1="316.085" x2="382.979" y2="306.414" gradientUnits="userSpaceOnUse"><stop offset=".198" stop-color="#F2FDFF"/><stop offset="1" stop-color="#BFFBFF"/></linearGradient><linearGradient id="j" x1="324.009" y1="298.535" x2="348.141" y2="345.819" gradientUnits="userSpaceOnUse"><stop stop-color="#AFC5FE" stop-opacity=".76"/><stop offset=".362" stop-color="#fff" stop-opacity=".917"/><stop offset="1" stop-color="#E2F7FB" stop-opacity="0"/></linearGradient><linearGradient id="k" x1="368.391" y1="302.161" x2="326.042" y2="377.559" gradientUnits="userSpaceOnUse"><stop stop-color="#D6FFE6"/><stop offset=".094" stop-color="#fff" stop-opacity="0"/><stop offset=".969" stop-color="#DBE1F8"/></linearGradient><linearGradient id="l" x1="395.09" y1="314.747" x2="400.729" y2="355.598" gradientUnits="userSpaceOnUse"><stop offset=".002" stop-color="#44DCFE"/><stop offset="1" stop-color="#3500D5"/></linearGradient><linearGradient id="m" x1="381.482" y1="362.784" x2="371.998" y2="330.681" gradientUnits="userSpaceOnUse"><stop stop-color="#077393" stop-opacity=".86"/><stop offset=".228" stop-color="#fff" stop-opacity=".6"/><stop offset="1" stop-color="#8CE0F0" stop-opacity="0"/></linearGradient><linearGradient id="n" x1="403.705" y1="315.072" x2="344.547" y2="315.072" gradientUnits="userSpaceOnUse"><stop stop-color="#0081A7" stop-opacity="0"/><stop offset=".209" stop-color="#EAEDFF" stop-opacity=".38"/><stop offset="1" stop-color="#D5DAFF"/></linearGradient><linearGradient id="o" x1="357.004" y1="84.059" x2="425.571" y2="108.91" gradientUnits="userSpaceOnUse"><stop offset=".002" stop-color="#44DCFE"/><stop offset="1" stop-color="#3500D5"/></linearGradient><linearGradient id="p" x1="353.504" y1="331.044" x2="323.963" y2="326.043" gradientUnits="userSpaceOnUse"><stop stop-color="#077393" stop-opacity=".86"/><stop offset=".228" stop-color="#fff" stop-opacity=".6"/><stop offset="1" stop-color="#8CE0F0" stop-opacity="0"/></linearGradient><linearGradient id="q" x1="359.22" y1="85.732" x2="344.004" y2="85.732" gradientUnits="userSpaceOnUse"><stop stop-color="#0081A7" stop-opacity="0"/><stop offset=".209" stop-color="#EAEDFF" stop-opacity=".38"/><stop offset="1" stop-color="#D5DAFF"/></linearGradient><linearGradient id="s" x1="440.009" y1="309.414" x2="488.88" y2="77.886" gradientUnits="userSpaceOnUse"><stop offset=".002" stop-color="#F8FEFF"/><stop offset="1" stop-color="#D6C8FF"/></linearGradient><linearGradient id="t" x1="440.009" y1="309.414" x2="488.88" y2="77.886" gradientUnits="userSpaceOnUse"><stop offset=".002" stop-color="#F8FEFF"/><stop offset="1" stop-color="#D6C8FF"/></linearGradient><linearGradient id="u" x1="400.957" y1="-30.915" x2="317.961" y2="198.57" gradientUnits="userSpaceOnUse"><stop stop-color="#077393" stop-opacity=".86"/><stop offset=".228" stop-color="#fff" stop-opacity=".6"/><stop offset="1" stop-color="#8CE0F0" stop-opacity="0"/></linearGradient><linearGradient id="v" x1="472.737" y1="307.524" x2="248.004" y2="307.524" gradientUnits="userSpaceOnUse"><stop stop-color="#0081A7" stop-opacity="0"/><stop offset=".209" stop-color="#EAEDFF"/><stop offset="1" stop-color="#C3CAFF"/></linearGradient><linearGradient id="w" x1="243.002" y1="24" x2="338.981" y2="301.832" gradientUnits="userSpaceOnUse"><stop stop-color="#F3F5FA"/><stop offset=".32" stop-color="#fff"/></linearGradient><linearGradient id="y" x1="328.14" y1="165.475" x2="345.587" y2="165.068" gradientUnits="userSpaceOnUse"><stop offset=".198" stop-color="#F2FDFF"/><stop offset="1" stop-color="#FFBFF1"/></linearGradient><linearGradient id="z" x1="332.23" y1="149.326" x2="352.46" y2="156.075" gradientUnits="userSpaceOnUse"><stop stop-color="#FEAFE7" stop-opacity=".76"/><stop offset=".083" stop-color="#fff" stop-opacity=".917"/><stop offset="1" stop-color="#E2F7FB" stop-opacity="0"/></linearGradient><linearGradient id="A" x1="337.043" y1="128.147" x2="337.043" y2="212.864" gradientUnits="userSpaceOnUse"><stop stop-color="#8892AC"/><stop offset="1" stop-color="#ADACF2"/></linearGradient><linearGradient id="B" x1="389.117" y1="355.46" x2="404.097" y2="416.953" gradientUnits="userSpaceOnUse"><stop offset=".002" stop-color="#44DCFE"/><stop offset="1" stop-color="#3500D5"/></linearGradient><linearGradient id="C" x1="369.512" y1="419.878" x2="353.471" y2="388.306" gradientUnits="userSpaceOnUse"><stop stop-color="#077393" stop-opacity=".86"/><stop offset=".228" stop-color="#fff" stop-opacity=".6"/><stop offset="1" stop-color="#8CE0F0" stop-opacity="0"/></linearGradient><linearGradient id="D" x1="396.756" y1="355.969" x2="344.305" y2="355.969" gradientUnits="userSpaceOnUse"><stop stop-color="#0081A7" stop-opacity="0"/><stop offset=".209" stop-color="#EAEDFF" stop-opacity=".38"/><stop offset="1" stop-color="#D5DAFF"/></linearGradient><linearGradient id="E" x1="300" y1="358.261" x2="295.958" y2="429.681" gradientUnits="userSpaceOnUse"><stop offset=".002" stop-color="#fff"/><stop offset="1" stop-color="#5DE5FE"/></linearGradient><linearGradient id="F" x1="326.735" y1="420.642" x2="346.595" y2="386.269" gradientUnits="userSpaceOnUse"><stop stop-color="#57CEE4"/><stop offset=".109" stop-color="#fff" stop-opacity=".519"/><stop offset="1" stop-color="#DEF7FF"/></linearGradient><linearGradient id="G" x1="297.963" y1="393.907" x2="346.086" y2="393.907" gradientUnits="userSpaceOnUse"><stop stop-color="#7BD4E6"/><stop offset=".088" stop-color="#fff" stop-opacity=".51"/><stop offset="1" stop-color="#32C8FC" stop-opacity=".13"/></linearGradient><linearGradient id="H" x1="319.733" y1="358.515" x2="319.733" y2="402.819" gradientUnits="userSpaceOnUse"><stop offset=".05" stop-color="#F0DFF8" stop-opacity="0"/><stop offset="1" stop-color="#C2E0FC"/></linearGradient><linearGradient id="I" x1="300" y1="379.716" x2="387.77" y2="368.848" gradientUnits="userSpaceOnUse"><stop offset=".198" stop-color="#F2FDFF"/><stop offset="1" stop-color="#FFBFF1"/></linearGradient><linearGradient id="J" x1="320.879" y1="364.185" x2="348.632" y2="413.326" gradientUnits="userSpaceOnUse"><stop stop-color="#FEAFE7" stop-opacity=".76"/><stop offset=".083" stop-color="#fff" stop-opacity=".917"/><stop offset="1" stop-color="#E2F7FB" stop-opacity="0"/></linearGradient><linearGradient id="K" x1="371.293" y1="363.93" x2="323.17" y2="449.227" gradientUnits="userSpaceOnUse"><stop stop-color="#BB66E1"/><stop offset=".094" stop-color="#fff" stop-opacity="0"/><stop offset=".969" stop-color="#F8DBEC"/></linearGradient><linearGradient id="M" x1="344.5" y1="369" x2="344.5" y2="390" gradientUnits="userSpaceOnUse"><stop stop-color="#EBFBFF"/><stop offset="1" stop-color="#66D2E6"/></linearGradient><linearGradient id="N" x1="344.559" y1="419.532" x2="344.559" y2="254.246" gradientUnits="userSpaceOnUse"><stop stop-color="#fff" stop-opacity=".5"/><stop offset="1" stop-color="#fff" stop-opacity=".5"/></linearGradient><linearGradient id="O" x1="525.117" y1="278.46" x2="540.097" y2="339.953" gradientUnits="userSpaceOnUse"><stop offset=".002" stop-color="#44DCFE"/><stop offset="1" stop-color="#3500D5"/></linearGradient><linearGradient id="P" x1="505.512" y1="342.878" x2="489.471" y2="311.306" gradientUnits="userSpaceOnUse"><stop stop-color="#077393" stop-opacity=".86"/><stop offset=".228" stop-color="#fff" stop-opacity=".6"/><stop offset="1" stop-color="#8CE0F0" stop-opacity="0"/></linearGradient><linearGradient id="Q" x1="532.756" y1="278.969" x2="480.305" y2="278.969" gradientUnits="userSpaceOnUse"><stop stop-color="#0081A7" stop-opacity="0"/><stop offset=".209" stop-color="#EAEDFF" stop-opacity=".38"/><stop offset="1" stop-color="#D5DAFF"/></linearGradient><linearGradient id="R" x1="436" y1="281.261" x2="431.958" y2="352.681" gradientUnits="userSpaceOnUse"><stop offset=".002" stop-color="#fff"/><stop offset="1" stop-color="#5DE5FE"/></linearGradient><linearGradient id="S" x1="462.735" y1="343.642" x2="482.595" y2="309.269" gradientUnits="userSpaceOnUse"><stop stop-color="#57CEE4"/><stop offset=".109" stop-color="#fff" stop-opacity=".519"/><stop offset="1" stop-color="#DEF7FF"/></linearGradient><linearGradient id="T" x1="433.963" y1="316.907" x2="482.086" y2="316.907" gradientUnits="userSpaceOnUse"><stop stop-color="#7BD4E6"/><stop offset=".088" stop-color="#fff" stop-opacity=".51"/><stop offset="1" stop-color="#32C8FC" stop-opacity=".13"/></linearGradient><linearGradient id="U" x1="455.733" y1="281.515" x2="455.733" y2="325.819" gradientUnits="userSpaceOnUse"><stop offset=".05" stop-color="#F0DFF8" stop-opacity="0"/><stop offset="1" stop-color="#C2E0FC"/></linearGradient><linearGradient id="V" x1="436" y1="302.716" x2="523.77" y2="291.848" gradientUnits="userSpaceOnUse"><stop offset=".198" stop-color="#F2FDFF"/><stop offset="1" stop-color="#FFBFF1"/></linearGradient><linearGradient id="W" x1="456.879" y1="287.185" x2="484.632" y2="336.326" gradientUnits="userSpaceOnUse"><stop stop-color="#FEAFE7" stop-opacity=".76"/><stop offset=".083" stop-color="#fff" stop-opacity=".917"/><stop offset="1" stop-color="#E2F7FB" stop-opacity="0"/></linearGradient><linearGradient id="X" x1="507.293" y1="286.93" x2="459.17" y2="372.227" gradientUnits="userSpaceOnUse"><stop stop-color="#BB66E1"/><stop offset=".094" stop-color="#fff" stop-opacity="0"/><stop offset=".969" stop-color="#F8DBEC"/></linearGradient><linearGradient id="Z" x1="480.5" y1="292" x2="480.5" y2="313" gradientUnits="userSpaceOnUse"><stop stop-color="#EBFBFF"/><stop offset="1" stop-color="#66D2E6"/></linearGradient><linearGradient id="aa" x1="480.559" y1="342.532" x2="480.559" y2="177.246" gradientUnits="userSpaceOnUse"><stop stop-color="#fff" stop-opacity=".5"/><stop offset="1" stop-color="#fff" stop-opacity=".5"/></linearGradient><linearGradient id="ab" x1="251.117" y1="276.46" x2="266.097" y2="337.953" gradientUnits="userSpaceOnUse"><stop offset=".002" stop-color="#44DCFE"/><stop offset="1" stop-color="#3500D5"/></linearGradient><linearGradient id="ac" x1="231.512" y1="340.878" x2="215.471" y2="309.306" gradientUnits="userSpaceOnUse"><stop stop-color="#077393" stop-opacity=".86"/><stop offset=".228" stop-color="#fff" stop-opacity=".6"/><stop offset="1" stop-color="#8CE0F0" stop-opacity="0"/></linearGradient><linearGradient id="ad" x1="258.756" y1="276.969" x2="206.305" y2="276.969" gradientUnits="userSpaceOnUse"><stop stop-color="#0081A7" stop-opacity="0"/><stop offset=".209" stop-color="#EAEDFF" stop-opacity=".38"/><stop offset="1" stop-color="#D5DAFF"/></linearGradient><linearGradient id="ae" x1="162" y1="279.261" x2="157.958" y2="350.681" gradientUnits="userSpaceOnUse"><stop offset=".002" stop-color="#fff"/><stop offset="1" stop-color="#5DE5FE"/></linearGradient><linearGradient id="af" x1="188.735" y1="341.642" x2="208.595" y2="307.269" gradientUnits="userSpaceOnUse"><stop stop-color="#57CEE4"/><stop offset=".109" stop-color="#fff" stop-opacity=".519"/><stop offset="1" stop-color="#DEF7FF"/></linearGradient><linearGradient id="ag" x1="159.963" y1="314.907" x2="208.086" y2="314.907" gradientUnits="userSpaceOnUse"><stop stop-color="#7BD4E6"/><stop offset=".088" stop-color="#fff" stop-opacity=".51"/><stop offset="1" stop-color="#32C8FC" stop-opacity=".13"/></linearGradient><linearGradient id="ah" x1="181.733" y1="279.515" x2="181.733" y2="323.819" gradientUnits="userSpaceOnUse"><stop offset=".05" stop-color="#F0DFF8" stop-opacity="0"/><stop offset="1" stop-color="#C2E0FC"/></linearGradient><linearGradient id="ai" x1="162" y1="300.716" x2="249.77" y2="289.848" gradientUnits="userSpaceOnUse"><stop offset=".198" stop-color="#F2FDFF"/><stop offset="1" stop-color="#FFBFF1"/></linearGradient><linearGradient id="aj" x1="182.879" y1="285.185" x2="210.632" y2="334.326" gradientUnits="userSpaceOnUse"><stop stop-color="#FEAFE7" stop-opacity=".76"/><stop offset=".083" stop-color="#fff" stop-opacity=".917"/><stop offset="1" stop-color="#E2F7FB" stop-opacity="0"/></linearGradient><linearGradient id="ak" x1="233.293" y1="284.93" x2="185.17" y2="370.227" gradientUnits="userSpaceOnUse"><stop stop-color="#BB66E1"/><stop offset=".094" stop-color="#fff" stop-opacity="0"/><stop offset=".969" stop-color="#F8DBEC"/></linearGradient><linearGradient id="am" x1="206.5" y1="290" x2="206.5" y2="311" gradientUnits="userSpaceOnUse"><stop stop-color="#EBFBFF"/><stop offset="1" stop-color="#66D2E6"/></linearGradient><linearGradient id="an" x1="206.559" y1="340.532" x2="206.559" y2="175.246" gradientUnits="userSpaceOnUse"><stop stop-color="#fff" stop-opacity=".5"/><stop offset="1" stop-color="#fff" stop-opacity=".5"/></linearGradient><linearGradient id="ao" x1="313.256" y1="19" x2="378.71" y2="43.274" gradientUnits="userSpaceOnUse"><stop stop-color="#01CDA2"/><stop offset="1" stop-color="#00E995"/></linearGradient><linearGradient id="aq" x1="178.575" y1="193.377" x2="235.486" y2="270.239" gradientUnits="userSpaceOnUse"><stop stop-color="#B9EFFE"/><stop offset="1" stop-color="#E1F7FE"/></linearGradient><linearGradient id="aw" x1="342.425" y1="266.982" x2="342.425" y2="339.362" gradientUnits="userSpaceOnUse"><stop stop-color="#FFBFF1" stop-opacity=".94"/><stop offset="1" stop-color="#FFBFF1" stop-opacity=".2"/></linearGradient><filter id="d" x="308" y="17.995" width="75" height="87.033" filterUnits="userSpaceOnUse" color-interpolation-filters="sRGB"><feFlood flood-opacity="0" result="BackgroundImageFix"/><feColorMatrix in="SourceAlpha" values="0 0 0 0 0 0 0 0 0 0 0 0 0 0 0 0 0 0 127 0" result="hardAlpha"/><feOffset dx="9" dy="-1"/><feComposite in2="hardAlpha" operator="out"/><feColorMatrix values="0 0 0 0 0.616354 0 0 0 0 0.716183 0 0 0 0 0.808333 0 0 0 1 0"/><feBlend in2="BackgroundImageFix" result="effect1_dropShadow_4547_100903"/><feBlend in="SourceGraphic" in2="effect1_dropShadow_4547_100903" result="shape"/></filter><filter id="r" x="242.953" y="23" width="201.055" height="278.832" filterUnits="userSpaceOnUse" color-interpolation-filters="sRGB"><feFlood flood-opacity="0" result="BackgroundImageFix"/><feColorMatrix in="SourceAlpha" values="0 0 0 0 0 0 0 0 0 0 0 0 0 0 0 0 0 0 127 0" result="hardAlpha"/><feOffset dx="9" dy="-1"/><feComposite in2="hardAlpha" operator="out"/><feColorMatrix values="0 0 0 0 0.616354 0 0 0 0 0.716183 0 0 0 0 0.808333 0 0 0 1 0"/><feBlend in2="BackgroundImageFix" result="effect1_dropShadow_4547_100903"/><feBlend in="SourceGraphic" in2="effect1_dropShadow_4547_100903" result="shape"/><feColorMatrix in="SourceAlpha" values="0 0 0 0 0 0 0 0 0 0 0 0 0 0 0 0 0 0 127 0" result="hardAlpha"/><feOffset dx="24" dy="4"/><feComposite in2="hardAlpha" operator="arithmetic" k2="-1" k3="1"/><feColorMatrix values="0 0 0 0 0 0 0 0 0 0 0 0 0 0 0 0 0 0 0.25 0"/><feBlend in2="shape" result="effect2_innerShadow_4547_100903"/></filter><filter id="x" x="324" y="135" width="25.984" height="76.805" filterUnits="userSpaceOnUse" color-interpolation-filters="sRGB"><feFlood flood-opacity="0" result="BackgroundImageFix"/><feBlend in="SourceGraphic" in2="BackgroundImageFix" result="shape"/><feColorMatrix in="SourceAlpha" values="0 0 0 0 0 0 0 0 0 0 0 0 0 0 0 0 0 0 127 0" result="hardAlpha"/><feOffset dx="4" dy="1"/><feComposite in2="hardAlpha" operator="arithmetic" k2="-1" k3="1"/><feColorMatrix values="0 0 0 0 0 0 0 0 0 0 0 0 0 0 0 0 0 0 0.25 0"/><feBlend in2="shape" result="effect1_innerShadow_4547_100903"/></filter><filter id="L" x="327" y="369" width="35" height="21" filterUnits="userSpaceOnUse" color-interpolation-filters="sRGB"><feFlood flood-opacity="0" result="BackgroundImageFix"/><feBlend in="SourceGraphic" in2="BackgroundImageFix" result="shape"/><feColorMatrix in="SourceAlpha" values="0 0 0 0 0 0 0 0 0 0 0 0 0 0 0 0 0 0 127 0" result="hardAlpha"/><feOffset dy="2"/><feComposite in2="hardAlpha" operator="arithmetic" k2="-1" k3="1"/><feColorMatrix values="0 0 0 0 0 0 0 0 0 0 0 0 0 0 0 0 0 0 0.12 0"/><feBlend in2="shape" result="effect1_innerShadow_4547_100903"/></filter><filter id="Y" x="463" y="292" width="35" height="21" filterUnits="userSpaceOnUse" color-interpolation-filters="sRGB"><feFlood flood-opacity="0" result="BackgroundImageFix"/><feBlend in="SourceGraphic" in2="BackgroundImageFix" result="shape"/><feColorMatrix in="SourceAlpha" values="0 0 0 0 0 0 0 0 0 0 0 0 0 0 0 0 0 0 127 0" result="hardAlpha"/><feOffset dy="2"/><feComposite in2="hardAlpha" operator="arithmetic" k2="-1" k3="1"/><feColorMatrix values="0 0 0 0 0 0 0 0 0 0 0 0 0 0 0 0 0 0 0.12 0"/><feBlend in2="shape" result="effect1_innerShadow_4547_100903"/></filter><filter id="al" x="189" y="290" width="35" height="21" filterUnits="userSpaceOnUse" color-interpolation-filters="sRGB"><feFlood flood-opacity="0" result="BackgroundImageFix"/><feBlend in="SourceGraphic" in2="BackgroundImageFix" result="shape"/><feColorMatrix in="SourceAlpha" values="0 0 0 0 0 0 0 0 0 0 0 0 0 0 0 0 0 0 127 0" result="hardAlpha"/><feOffset dy="2"/><feComposite in2="hardAlpha" operator="arithmetic" k2="-1" k3="1"/><feColorMatrix values="0 0 0 0 0 0 0 0 0 0 0 0 0 0 0 0 0 0 0.12 0"/><feBlend in2="shape" result="effect1_innerShadow_4547_100903"/></filter><filter id="ap" x="156.676" y="181.483" width="91.109" height="93.112" filterUnits="userSpaceOnUse" color-interpolation-filters="sRGB"><feFlood flood-opacity="0" result="BackgroundImageFix"/><feColorMatrix in="SourceAlpha" values="0 0 0 0 0 0 0 0 0 0 0 0 0 0 0 0 0 0 127 0" result="hardAlpha"/><feOffset dx="4" dy="-3"/><feComposite in2="hardAlpha" operator="out"/><feColorMatrix values="0 0 0 0 0.673771 0 0 0 0 0.574635 0 0 0 0 0.7375 0 0 0 0.66 0"/><feBlend in2="BackgroundImageFix" result="effect1_dropShadow_4547_100903"/><feBlend in="SourceGraphic" in2="effect1_dropShadow_4547_100903" result="shape"/></filter><filter id="as" x="438.852" y="230.648" width="83.168" height="63.139" filterUnits="userSpaceOnUse" color-interpolation-filters="sRGB"><feFlood flood-opacity="0" result="BackgroundImageFix"/><feColorMatrix in="SourceAlpha" values="0 0 0 0 0 0 0 0 0 0 0 0 0 0 0 0 0 0 127 0" result="hardAlpha"/><feOffset dx="4" dy="-3"/><feComposite in2="hardAlpha" operator="out"/><feColorMatrix values="0 0 0 0 0.67451 0 0 0 0 0.576471 0 0 0 0 0.737255 0 0 0 0.66 0"/><feBlend in2="BackgroundImageFix" result="effect1_dropShadow_4547_100903"/><feBlend in="SourceGraphic" in2="effect1_dropShadow_4547_100903" result="shape"/></filter><filter id="at" x="438.852" y="204.648" width="83.168" height="63.139" filterUnits="userSpaceOnUse" color-interpolation-filters="sRGB"><feFlood flood-opacity="0" result="BackgroundImageFix"/><feColorMatrix in="SourceAlpha" values="0 0 0 0 0 0 0 0 0 0 0 0 0 0 0 0 0 0 127 0" result="hardAlpha"/><feOffset dx="4" dy="-3"/><feComposite in2="hardAlpha" operator="out"/><feColorMatrix values="0 0 0 0 0.67451 0 0 0 0 0.576471 0 0 0 0 0.737255 0 0 0 0.66 0"/><feBlend in2="BackgroundImageFix" result="effect1_dropShadow_4547_100903"/><feBlend in="SourceGraphic" in2="effect1_dropShadow_4547_100903" result="shape"/></filter><filter id="au" x="438.852" y="178.648" width="83.168" height="63.139" filterUnits="userSpaceOnUse" color-interpolation-filters="sRGB"><feFlood flood-opacity="0" result="BackgroundImageFix"/><feColorMatrix in="SourceAlpha" values="0 0 0 0 0 0 0 0 0 0 0 0 0 0 0 0 0 0 127 0" result="hardAlpha"/><feOffset dx="4" dy="-3"/><feComposite in2="hardAlpha" operator="out"/><feColorMatrix values="0 0 0 0 0.67451 0 0 0 0 0.576471 0 0 0 0 0.737255 0 0 0 0.66 0"/><feBlend in2="BackgroundImageFix" result="effect1_dropShadow_4547_100903"/><feBlend in="SourceGraphic" in2="effect1_dropShadow_4547_100903" result="shape"/></filter><filter id="av" x="302" y="242.149" width="84.852" height="120.266" filterUnits="userSpaceOnUse" color-interpolation-filters="sRGB"><feFlood flood-opacity="0" result="BackgroundImageFix"/><feColorMatrix in="SourceAlpha" values="0 0 0 0 0 0 0 0 0 0 0 0 0 0 0 0 0 0 127 0" result="hardAlpha"/><feOffset dx="4" dy="-3"/><feComposite in2="hardAlpha" operator="out"/><feColorMatrix values="0 0 0 0 0.67451 0 0 0 0 0.576471 0 0 0 0 0.737255 0 0 0 0.66 0"/><feBlend in2="BackgroundImageFix" result="effect1_dropShadow_4547_100903"/><feBlend in="SourceGraphic" in2="effect1_dropShadow_4547_100903" result="shape"/></filter><clipPath id="a"><path fill="#fff" d="M0 0h690v488H0z"/></clipPath></defs></svg>