<svg width="314" height="327" fill="none" xmlns="http://www.w3.org/2000/svg"><path d="M215.719 60.5 274.892 163l-59.173 102.5H97.374L38.202 163 97.374 60.5H215.72Z" fill="url(#a)" stroke="#66D2E6" stroke-width="2"/><path d="M218.72 56.5 280.892 164 218.72 271.5H94.374L32.202 164 94.374 56.5H218.72Z" stroke="url(#b)" stroke-width="2"/><path d="M32.456 162.625 94.588 55.249l124.064-.125 61.931 107.247-62.131 107.376-124.065.124-61.93-107.246Z" stroke="url(#c)" stroke-width="2"/><path d="m94.37 55.624 124.064.125 62.131 107.376-61.931 107.246-124.064-.124-62.131-107.376 61.93-107.247Z" stroke="url(#d)" stroke-width="2"/><path d="M32.456 162.625 94.588 55.249l124.064-.125 61.931 107.247-62.131 107.376-124.065.124-61.93-107.246Z" stroke="url(#e)" stroke-width="2"/><path d="m218.724 271.375-124.064-.124L32.53 163.875l61.93-107.246 124.065.124 62.131 107.376-61.931 107.246Z" stroke="url(#f)" stroke-width="2"/><path d="M94.374 270.5 32.202 163 94.374 55.5H218.72L280.892 163 218.72 270.5H94.374Z" stroke="url(#g)" stroke-width="2"/><path d="m280.637 164.375-62.131 107.376-124.064.124L32.51 164.629 94.642 57.253l124.064-.124 61.931 107.246Z" stroke="url(#h)" stroke-width="2"/><defs><linearGradient id="a" x1="276.047" y1="163" x2="37.047" y2="163" gradientUnits="userSpaceOnUse"><stop stop-color="#F4F5FA"/><stop offset="1" stop-color="#F4F5FA" stop-opacity="0"/></linearGradient><linearGradient id="b" x1="282.047" y1="164" x2="254.206" y2="164" gradientUnits="userSpaceOnUse"><stop stop-color="#66D2E6"/><stop offset=".661" stop-color="#39C2D7" stop-opacity="0"/></linearGradient><linearGradient id="c" x1="94.011" y1="54.25" x2="107.875" y2="78.265" gradientUnits="userSpaceOnUse"><stop stop-color="#66D2E6"/><stop offset=".661" stop-color="#39C2D7" stop-opacity="0"/></linearGradient><linearGradient id="d" x1="219.011" y1="54.75" x2="205.146" y2="78.765" gradientUnits="userSpaceOnUse"><stop stop-color="#66D2E6"/><stop offset=".661" stop-color="#39C2D7" stop-opacity="0"/></linearGradient><linearGradient id="e" x1="94.011" y1="54.25" x2="107.875" y2="78.265" gradientUnits="userSpaceOnUse"><stop stop-color="#66D2E6"/><stop offset=".661" stop-color="#39C2D7" stop-opacity="0"/></linearGradient><linearGradient id="f" x1="94.083" y1="272.25" x2="107.948" y2="248.235" gradientUnits="userSpaceOnUse"><stop stop-color="#66D2E6"/><stop offset=".661" stop-color="#39C2D7" stop-opacity="0"/></linearGradient><linearGradient id="g" x1="31.047" y1="163" x2="58.887" y2="163" gradientUnits="userSpaceOnUse"><stop stop-color="#66D2E6"/><stop offset=".661" stop-color="#39C2D7" stop-opacity="0"/></linearGradient><linearGradient id="h" x1="219.083" y1="272.75" x2="205.218" y2="248.735" gradientUnits="userSpaceOnUse"><stop stop-color="#66D2E6"/><stop offset=".661" stop-color="#39C2D7" stop-opacity="0"/></linearGradient></defs></svg>