<svg xmlns="http://www.w3.org/2000/svg" width="1440" height="1024" fill="none"><path fill="url(#a)" d="M-280 0h1990v1024H-280V0Z"/><mask id="c" width="1990" height="1024" x="-280" y="0" maskUnits="userSpaceOnUse" style="mask-type:alpha"><path fill="url(#b)" d="M-280 0h1990v1024H-280V0Z"/></mask><g mask="url(#c)"><g filter="url(#d)"><path fill="url(#e)" fill-opacity=".4" d="M779.009 817.248c456.381-174.645 307.131 149.574 585.411 180.736 278.27 31.166 491.4-305.381-126.58-559.519C619.859 184.327-.915 1115.7 779.009 817.248Z"/></g><g filter="url(#f)"><path fill="url(#g)" fill-opacity=".7" d="M-154.805 299.519c-319.997-231.96-807.252-20.924-824.881-251.754-17.629-230.83 524.692 133.054 1172.583-39.461 647.891-172.515 199.152 687.621-347.702 291.215Z"/></g><g filter="url(#h)"><path fill="url(#i)" fill-opacity=".6" d="M783.209 100.274C924.591 262.277 1080.27-44.582 1372.57 237.445c292.29 282.026 553.61-282.027 30.97-467.089C880.904-414.706 615.122-92.329 783.209 100.274Z"/></g><path fill="url(#j)" d="M-121 26.817v-433.634c0-9.777 5.412-18.811 14.196-23.7l389.608-216.817c8.784-4.888 19.607-4.888 28.392 0l389.608 216.817c8.785 4.889 14.196 13.923 14.196 23.7V26.817c0 9.777-5.411 18.811-14.196 23.7L311.196 267.334c-8.785 4.888-19.608 4.888-28.392 0L-106.804 50.517C-115.588 45.628-121 36.594-121 26.817Z" opacity=".1"/><path fill="url(#k)" d="M1315 32.83v-179.66c0-4.051 2.24-7.794 5.88-9.819l161.24-89.831a12.142 12.142 0 0 1 11.76 0l161.24 89.831c3.64 2.025 5.88 5.768 5.88 9.819V32.831c0 4.05-2.24 7.794-5.88 9.82l-161.24 89.83a12.142 12.142 0 0 1-11.76 0l-161.24-89.83c-3.64-2.026-5.88-5.77-5.88-9.82Z" opacity=".1"/><path fill="url(#l)" d="M1038 530.443V330.557c0-4.506 2.49-8.671 6.54-10.924l179.42-99.943a13.501 13.501 0 0 1 13.08 0l179.42 99.943c4.05 2.253 6.54 6.418 6.54 10.924v199.886c0 4.506-2.49 8.671-6.54 10.924l-179.42 99.943a13.501 13.501 0 0 1-13.08 0l-179.42-99.943c-4.05-2.253-6.54-6.418-6.54-10.924Z" opacity=".1"/><path fill="url(#m)" d="M120 613.16v-58.32c0-1.315.719-2.53 1.885-3.187l51.73-29.16a3.852 3.852 0 0 1 3.77 0l51.73 29.16A3.665 3.665 0 0 1 231 554.84v58.32c0 1.315-.719 2.53-1.885 3.187l-51.73 29.16a3.852 3.852 0 0 1-3.77 0l-51.73-29.16A3.665 3.665 0 0 1 120 613.16Z" opacity=".1"/></g><defs><linearGradient id="a" x1="-1179" x2="1877.26" y1="2464.35" y2="2088.43" gradientUnits="userSpaceOnUse"><stop stop-color="#00B4D5"/><stop offset="1" stop-color="#0081A7"/></linearGradient><linearGradient id="b" x1="-280" x2="1746.48" y1="1047.32" y2="767.072" gradientUnits="userSpaceOnUse"><stop stop-color="#1B45B4"/><stop offset="1" stop-color="#1C2792"/></linearGradient><linearGradient id="e" x1="250.499" x2="1309.45" y1="914.444" y2="294.819" gradientUnits="userSpaceOnUse"><stop stop-color="#fff"/><stop offset="1" stop-color="#99E1EE"/></linearGradient><linearGradient id="g" x1="217.011" x2="-480.486" y1="534.81" y2="-171.004" gradientUnits="userSpaceOnUse"><stop stop-color="#00B4D5"/><stop offset="1" stop-color="#CCF2F4"/></linearGradient><linearGradient id="i" x1="505.462" x2="1482.07" y1="276.729" y2="-293.784" gradientUnits="userSpaceOnUse"><stop stop-color="#0081A7"/><stop offset="1" stop-color="#66D2E6"/></linearGradient><linearGradient id="j" x1="299.533" x2="1023.16" y1="501.5" y2="42.11" gradientUnits="userSpaceOnUse"><stop offset=".5" stop-color="#0081A7"/><stop offset="1" stop-color="#7AEAFF"/></linearGradient><linearGradient id="k" x1="1489.05" x2="1788.72" y1="229.5" y2="39.456" gradientUnits="userSpaceOnUse"><stop offset=".5" stop-color="#0081A7"/><stop offset="1" stop-color="#7AEAFF"/></linearGradient><linearGradient id="l" x1="1456.7" x2="1678.69" y1="643" y2="284.828" gradientUnits="userSpaceOnUse"><stop stop-color="#7CE1FF"/><stop offset="1" stop-color="#0081A7"/></linearGradient><linearGradient id="m" x1="240.716" x2="381.757" y1="646" y2="518.971" gradientUnits="userSpaceOnUse"><stop stop-color="#6BE8FF"/><stop offset="1" stop-color="#00B4D5"/></linearGradient><filter id="d" width="1594" height="976" x="229" y="209" color-interpolation-filters="sRGB" filterUnits="userSpaceOnUse"><feFlood flood-opacity="0" result="BackgroundImageFix"/><feBlend in="SourceGraphic" in2="BackgroundImageFix" result="shape"/><feGaussianBlur result="effect1_foregroundBlur_11650_86025" stdDeviation="92.5"/></filter><filter id="f" width="1985.09" height="928.655" x="-1226.1" y="-277.564" color-interpolation-filters="sRGB" filterUnits="userSpaceOnUse"><feFlood flood-opacity="0" result="BackgroundImageFix"/><feBlend in="SourceGraphic" in2="BackgroundImageFix" result="shape"/><feGaussianBlur result="effect1_foregroundBlur_11650_86025" stdDeviation="123"/></filter><filter id="h" width="1240" height="870" x="598" y="-420" color-interpolation-filters="sRGB" filterUnits="userSpaceOnUse"><feFlood flood-opacity="0" result="BackgroundImageFix"/><feBlend in="SourceGraphic" in2="BackgroundImageFix" result="shape"/><feGaussianBlur result="effect1_foregroundBlur_11650_86025" stdDeviation="67.5"/></filter></defs></svg>