<svg width="1440" height="582" fill="none" xmlns="http://www.w3.org/2000/svg"><path d="M-275 0h1990v582H-275V0Z" fill="url(#a)"/><mask id="c" style="mask-type:alpha" maskUnits="userSpaceOnUse" x="-275" y="0" width="1990" height="582"><path d="M-275 0h1990v582H-275V0Z" fill="url(#b)"/></mask><g mask="url(#c)"><g filter="url(#d)"><path d="M783.867 817.37C1240.4 642.788 1091.1 966.891 1369.47 998.041c278.37 31.149 491.57-305.271-126.62-559.318C624.665 184.676 3.687 1115.72 783.867 817.37Z" fill="url(#e)" fill-opacity=".3"/></g><g opacity=".6" filter="url(#f)"><path d="M635.076-111.272c110.313 224.67 377.884-73.207 621.874 331.835s707.88-149.99 175.5-515.525c-532.385-365.534-928.524-83.417-797.374 183.69Z" fill="url(#g)"/></g><g opacity=".6" filter="url(#h)"><path d="M155.655 2.42c393.191 40.799 709.774-385.478 840.463-194.487C1126.81-1.077 475.056-44.916.055 428.328-474.947 901.571-516.284-67.303 155.655 2.42Z" fill="url(#i)"/></g><path opacity=".1" d="M1194 62.83V-116.83c0-4.051 2.24-7.794 5.88-9.819l161.24-89.831a12.142 12.142 0 0 1 11.76 0l161.24 89.831c3.64 2.025 5.88 5.768 5.88 9.819V62.831c0 4.05-2.24 7.794-5.88 9.82l-161.24 89.83a12.142 12.142 0 0 1-11.76 0l-161.24-89.83c-3.64-2.026-5.88-5.77-5.88-9.82Z" fill="url(#j)"/><path opacity=".1" d="M-406-2.16V-355.84c0-7.974 4.415-15.343 11.581-19.33l317.838-176.84c7.166-3.987 15.996-3.987 23.162 0l317.838 176.84c7.166 3.987 11.581 11.356 11.581 19.33V-2.16c0 7.974-4.415 15.343-11.581 19.33L-53.419 194.01c-7.166 3.987-15.996 3.987-23.162 0L-394.419 17.17C-401.585 13.183-406 5.814-406-2.16Z" fill="url(#k)"/><path opacity=".1" d="M68 1153.72V478.964c0-15.214 8.415-29.272 22.075-36.879l605.85-337.38c13.66-7.607 30.49-7.607 44.15 0l605.845 337.38c13.66 7.607 22.08 21.665 22.08 36.879V1153.72c0 15.22-8.42 29.28-22.08 36.88l-605.845 337.38c-13.66 7.61-30.49 7.61-44.15 0L90.075 1190.6C76.415 1183 68 1168.94 68 1153.72Z" fill="url(#l)"/></g><defs><linearGradient id="a" x1="-1174" y1="876" x2="1596.74" y2="-82.754" gradientUnits="userSpaceOnUse"><stop stop-color="#0081A7"/><stop offset="1" stop-color="#0081A7"/></linearGradient><linearGradient id="b" x1="-275" y1="539.001" x2="1651.16" y2="21.42" gradientUnits="userSpaceOnUse"><stop stop-color="#1B45B4"/><stop offset="1" stop-color="#1C2792"/></linearGradient><linearGradient id="e" x1="255.184" y1="914.532" x2="1314.11" y2="294.494" gradientUnits="userSpaceOnUse"><stop stop-color="#fff"/><stop offset="1" stop-color="#99E1EE"/></linearGradient><linearGradient id="g" x1="269.411" y1="3.265" x2="1539.7" y2="-344.894" gradientUnits="userSpaceOnUse"><stop stop-color="#0081A7"/><stop offset="1" stop-color="#66D2E6"/></linearGradient><linearGradient id="i" x1="-762.898" y1="231.906" x2="376.289" y2="951.263" gradientUnits="userSpaceOnUse"><stop stop-color="#0081A7"/><stop offset="1" stop-color="#66D2E6"/></linearGradient><linearGradient id="j" x1="1368.05" y1="259.5" x2="1667.72" y2="69.456" gradientUnits="userSpaceOnUse"><stop offset=".5" stop-color="#0081A7"/><stop offset="1" stop-color="#7AEAFF"/></linearGradient><linearGradient id="k" x1="-62.933" y1="385" x2="527.32" y2="10.201" gradientUnits="userSpaceOnUse"><stop offset=".5" stop-color="#0081A7"/><stop offset="1" stop-color="#7AEAFF"/></linearGradient><linearGradient id="l" x1="1453.5" y1="1444" x2="1525.38" y2="-158.114" gradientUnits="userSpaceOnUse"><stop stop-color="#CAF7FF"/><stop offset="1" stop-color="#0081A7"/></linearGradient><filter id="d" x="233.738" y="209.273" width="1594.4" height="975.783" filterUnits="userSpaceOnUse" color-interpolation-filters="sRGB"><feFlood flood-opacity="0" result="BackgroundImageFix"/><feBlend in="SourceGraphic" in2="BackgroundImageFix" result="shape"/><feGaussianBlur stdDeviation="92.5" result="effect1_foregroundBlur_12191_128059"/></filter><filter id="f" x="474.801" y="-604.252" width="1338" height="1101.56" filterUnits="userSpaceOnUse" color-interpolation-filters="sRGB"><feFlood flood-opacity="0" result="BackgroundImageFix"/><feBlend in="SourceGraphic" in2="BackgroundImageFix" result="shape"/><feGaussianBlur stdDeviation="67.5" result="effect1_foregroundBlur_12191_128059"/></filter><filter id="h" x="-488.32" y="-376.555" width="1636.42" height="1070.63" filterUnits="userSpaceOnUse" color-interpolation-filters="sRGB"><feFlood flood-opacity="0" result="BackgroundImageFix"/><feBlend in="SourceGraphic" in2="BackgroundImageFix" result="shape"/><feGaussianBlur stdDeviation="67.5" result="effect1_foregroundBlur_12191_128059"/></filter></defs></svg>