<svg xmlns="http://www.w3.org/2000/svg" width="48" height="20" fill="none"><path fill="#fff" d="M0 18.177h9.333v1.318H0v-1.318Zm0-2.529h9.333v1.323H0v-1.323Zm2.663-2.524h4.003v1.323H2.663v-1.322Zm0-2.524h4.003v1.324H2.663V10.6Zm0-2.523h4.003V9.4H2.663V8.077Zm0-2.529h4.003v1.323H2.663V5.548Zm6.67-2.524H0v1.323h9.333V3.024Zm0-2.524H0v1.323h9.333V.5Zm1.331 16.471h14.353c.243-.408.424-.854.533-1.323H10.664v1.323ZM23.9 10.6H13.331v1.324h11.686A5.31 5.31 0 0 0 23.9 10.6ZM13.331 8.077V9.4H23.9a4.937 4.937 0 0 0 1.117-1.323H13.331Zm11.686-5.053H10.664v1.323H25.55a5.681 5.681 0 0 0-.533-1.323ZM20.605.5h-9.941v1.323h13.37A5.084 5.084 0 0 0 20.604.5ZM17.33 5.548h-4v1.323h3.998V5.548Zm4.002 1.323h4.184a4.84 4.84 0 0 0 .181-1.323h-4.364v1.323Zm-8.001 6.253h3.998v1.323h-3.998v-1.322Zm8.001 0v1.323h4.365c0-.455-.062-.9-.18-1.322h-4.184Zm-10.668 6.362 9.941.014a5.088 5.088 0 0 0 3.433-1.323H10.664v1.309Zm16.003-1.309h6.666v1.318h-6.666v-1.318Zm0-2.529h6.666v1.323h-6.666v-1.323Zm2.663-2.524h4.003v1.323H29.33v-1.322Zm0-2.524h4.003v1.324H29.33V10.6Zm5.857-7.576h-8.52v1.323h8.981l-.461-1.323ZM34.303.5h-7.636v1.323h8.097L34.303.5Zm7.027 17.677H48v1.318h-6.67v-1.318Zm0-2.529H48v1.323h-6.67v-1.323Zm0-2.524h4.003v1.323H41.33v-1.322Zm0-2.524h4.003v1.324H41.33V10.6Zm0-1.2h4.003V8.077h-7.626l-.376 1.07-.375-1.07H29.33V9.4h4.003V8.184l.423 1.216h7.15l.424-1.216V9.4Zm4.003-3.852H38.59l-.461 1.323h7.203V5.548ZM40.364.5l-.46 1.323H48V.5h-7.636Zm-3.033 18.986.461-1.309h-.922l.461 1.309Zm-.884-2.515h1.769l.475-1.323h-2.715l.471 1.323Zm-.899-2.524h3.566l.47-1.322h-4.507l.471 1.322Zm-.893-2.523h5.358l.456-1.323h-6.276l.462 1.323ZM29.33 6.871h7.203l-.462-1.323H29.33v1.323Zm9.689-2.524h8.98V3.024h-8.524l-.456 1.323Z"/></svg>