<svg width="111" height="48" fill="none" xmlns="http://www.w3.org/2000/svg"><path d="M36.668 25.729c0 .84-.297 1.484-.893 1.935-.595.445-1.448.668-2.558.668-1.115 0-2.01-.173-2.686-.52v-1.578c.984.466 1.9.7 2.747.7 1.095 0 1.642-.34 1.642-1.018a.82.82 0 0 0-.182-.544c-.12-.145-.32-.296-.597-.451a10.143 10.143 0 0 0-1.158-.529c-.964-.383-1.617-.766-1.96-1.15-.338-.383-.507-.88-.507-1.492 0-.735.287-1.305.862-1.71.58-.409 1.368-.613 2.361-.613.984 0 1.915.204 2.793.614l-.575 1.375c-.903-.383-1.663-.575-2.278-.575-.938 0-1.408.275-1.408.824 0 .27.121.497.364.684.247.186.782.443 1.604.769.691.275 1.193.526 1.506.754.313.228.545.492.696.792.152.296.227.65.227 1.065Zm6.176 2.603c-1.06 0-1.882-.39-2.468-1.173h-.105c.07.725.105 1.165.105 1.32V32h-1.778V19.582h1.438c.04.16.123.544.25 1.15h.09c.555-.87 1.388-1.305 2.498-1.305 1.044 0 1.856.389 2.437 1.166.585.777.877 1.867.877 3.271s-.297 2.5-.892 3.287c-.59.788-1.408 1.181-2.452 1.181Zm-.432-7.413c-.706 0-1.223.212-1.551.637-.323.425-.484 1.104-.484 2.036v.272c0 1.046.16 1.805.484 2.277.323.466.85.7 1.582.7.615 0 1.09-.26 1.422-.778.333-.518.5-1.256.5-2.214 0-.964-.167-1.692-.5-2.184-.328-.497-.812-.746-1.453-.746Zm9.498 7.413c-1.302 0-2.321-.388-3.058-1.165-.731-.783-1.097-1.858-1.097-3.225 0-1.404.34-2.508 1.022-3.31.68-.804 1.617-1.205 2.807-1.205 1.105 0 1.978.344 2.619 1.033.64.69.961 1.637.961 2.845v.986h-5.578c.026.834.245 1.477.659 1.927.414.446.996.669 1.748.669a6.41 6.41 0 0 0 1.377-.14 7.293 7.293 0 0 0 1.378-.482v1.484a5.362 5.362 0 0 1-1.317.451 7.866 7.866 0 0 1-1.521.132Zm-.326-7.522c-.565 0-1.019.184-1.362.552-.338.368-.54.904-.605 1.608h3.799c-.01-.71-.177-1.245-.5-1.608-.323-.368-.766-.552-1.332-.552Zm8.976 7.522c-1.267 0-2.23-.378-2.891-1.134-.656-.762-.984-1.852-.984-3.272 0-1.445.343-2.556 1.03-3.333.69-.777 1.687-1.166 2.989-1.166.883 0 1.677.168 2.383.505l-.537 1.469c-.752-.3-1.372-.451-1.861-.451-1.449 0-2.172.987-2.172 2.96 0 .964.179 1.69.537 2.177.363.481.893.722 1.59.722.791 0 1.54-.202 2.247-.606v1.593a3.453 3.453 0 0 1-1.022.412 5.901 5.901 0 0 1-1.31.124Zm8.498-7.367h-2.043v7.212H65.23v-7.212h-1.377v-.854l1.377-.56v-.56c0-1.015.232-1.766.696-2.253.465-.492 1.173-.738 2.127-.738.626 0 1.241.106 1.846.319l-.469 1.383a4.001 4.001 0 0 0-1.256-.218c-.404 0-.699.13-.885.389-.182.254-.273.637-.273 1.15v.56h2.043v1.383Zm3.202 7.212H70.48V16.086h1.779v12.09Zm9.982-4.313c0 1.404-.351 2.5-1.053 3.287-.7.788-1.677 1.181-2.928 1.181-.782 0-1.473-.181-2.074-.544-.6-.362-1.062-.883-1.385-1.562-.322-.678-.484-1.466-.484-2.362 0-1.394.348-2.482 1.044-3.264.697-.782 1.678-1.173 2.944-1.173 1.211 0 2.17.401 2.876 1.204.707.798 1.06 1.876 1.06 3.233Zm-6.093 0c0 1.984.715 2.976 2.142 2.976 1.413 0 2.119-.992 2.119-2.976 0-1.963-.711-2.945-2.134-2.945-.746 0-1.289.254-1.627.761-.333.508-.5 1.236-.5 2.184Zm15.007 4.313-1.082-4.01c-.131-.425-.368-1.412-.71-2.96h-.07c-.292 1.398-.524 2.39-.695 2.976l-1.113 3.994h-1.968l-2.346-8.595h1.817l1.067 4.235a30.22 30.22 0 0 1 .514 2.69h.046c.05-.38.126-.812.227-1.299.106-.492.197-.86.272-1.103l1.272-4.523h1.952l1.234 4.523c.075.254.169.642.28 1.165.116.524.184.93.204 1.22h.06c.076-.637.253-1.528.53-2.673l1.083-4.235h1.786l-2.361 8.595h-1.999Z" fill="#574897"/><path fill-rule="evenodd" clip-rule="evenodd" d="M15.992 20.573c.82 0 1.484.685 1.484 1.53v8.348c0 .845-.664 1.53-1.484 1.53s-1.484-.685-1.484-1.53v-8.348c0-.845.664-1.53 1.484-1.53Z" fill="#004C97"/><path fill-rule="evenodd" clip-rule="evenodd" d="M25.107 23.122c.504.666.39 1.628-.256 2.148l-7.953 6.406a1.454 1.454 0 0 1-2.083-.264 1.562 1.562 0 0 1 .255-2.148l7.953-6.406a1.454 1.454 0 0 1 2.084.264Z" fill="#574897"/><path fill-rule="evenodd" clip-rule="evenodd" d="M14.897 16.637a1.454 1.454 0 0 1 2.083-.264l7.953 6.406c.646.52.76 1.482.256 2.148a1.454 1.454 0 0 1-2.084.264l-7.953-6.406a1.562 1.562 0 0 1-.255-2.148Z" fill="#45B9D9"/><path fill-rule="evenodd" clip-rule="evenodd" d="M15.992 16c.82 0 1.484.685 1.484 1.53v7.045c0 .845-.664 1.53-1.484 1.53s-1.484-.685-1.484-1.53V17.53c0-.845.664-1.53 1.484-1.53Z" fill="#004C97"/></svg>