<svg width="110" height="48" fill="none" xmlns="http://www.w3.org/2000/svg"><path d="M7.02 19.14c1.5 0 2.745.775 3.338 1.611v-1.405h2.285v10.436h-1.645a.648.648 0 0 1-.653-.655v-.751C9.765 29.224 8.52 30 7.02 30 4.165 30 2 27.552 2 24.57c0-2.982 2.165-5.43 5.02-5.43Zm.41 2.084c-1.85 0-3.108 1.467-3.108 3.346 0 1.878 1.246 3.345 3.109 3.345 1.85 0 3.108-1.466 3.108-3.345 0-1.88-1.246-3.346-3.108-3.346Zm7.814-1.878h2.298v1.418c.629-1.043 1.814-1.625 3.169-1.625 2.419 0 3.979 1.71 3.979 4.364v6.279h-1.645a.648.648 0 0 1-.653-.655V23.88c0-1.649-.835-2.655-2.165-2.655-1.524 0-2.685 1.188-2.685 3.418v5.14h-1.645a.648.648 0 0 1-.653-.655v-9.781Zm16.28-.207c1.499 0 2.745.776 3.337 1.613v-6.619h2.286v15.66h-1.645a.648.648 0 0 1-.653-.654v-.751c-.58.836-1.838 1.612-3.338 1.612-2.854 0-5.02-2.448-5.02-5.43.013-2.982 2.178-5.43 5.032-5.43Zm.41 2.085c-1.85 0-3.108 1.467-3.108 3.346 0 1.878 1.246 3.345 3.108 3.345 1.851 0 3.109-1.466 3.109-3.345 0-1.88-1.258-3.346-3.108-3.346Zm7.814-1.878h2.286V21.2a2.94 2.94 0 0 1 2.745-1.964c.3 0 .6.028.895.085v2.364a3.688 3.688 0 0 0-1.149-.194c-1.318 0-2.503 1.103-2.503 3.2v5.09h-1.645a.648.648 0 0 1-.654-.654v-9.781h.025ZM51.867 30c-3.084 0-5.455-2.4-5.455-5.43s2.37-5.43 5.455-5.43c3.084 0 5.454 2.4 5.454 5.43S54.951 30 51.867 30Zm0-2.133c1.838 0 3.12-1.443 3.12-3.297 0-1.855-1.294-3.297-3.12-3.297-1.85 0-3.145 1.442-3.145 3.297 0 1.854 1.294 3.297 3.145 3.297Zm8.454-10.8a1.545 1.545 0 0 1-1.536-1.54A1.557 1.557 0 0 1 60.32 14a1.528 1.528 0 0 1 1.53 1.533 1.535 1.535 0 0 1-1.53 1.534Zm-1.137 2.279h2.286v10.436h-1.633a.648.648 0 0 1-.653-.655v-9.781Zm9.192-.207c1.5 0 2.745.776 3.338 1.613v-6.619H74v15.66h-1.645a.647.647 0 0 1-.604-.403.652.652 0 0 1-.049-.25v-.752c-.58.836-1.838 1.612-3.338 1.612-2.855 0-5.02-2.448-5.02-5.43.013-2.982 2.178-5.43 5.032-5.43Zm.423 2.085c-1.85 0-3.108 1.467-3.108 3.346 0 1.878 1.246 3.345 3.108 3.345 1.85 0 3.109-1.466 3.109-3.345 0-1.88-1.258-3.346-3.109-3.346Z" fill="#222B45"/><path d="M100.455 25.957c-.232 0-.458-.07-.65-.2a1.202 1.202 0 0 1-.177-1.826 1.153 1.153 0 0 1 1.275-.257c.213.089.396.24.525.436a1.204 1.204 0 0 1-.146 1.499 1.16 1.16 0 0 1-.827.348m-12.885 0c-.232 0-.458-.07-.65-.2a1.185 1.185 0 0 1-.431-.533 1.204 1.204 0 0 1 .253-1.294 1.154 1.154 0 0 1 1.275-.257c.215.09.397.242.526.437a1.199 1.199 0 0 1-.146 1.499c-.22.222-.517.348-.827.348m13.299-7.123 2.34-4.093a.488.488 0 0 0 .047-.373.497.497 0 0 0-.228-.296.483.483 0 0 0-.537.041.49.49 0 0 0-.123.146l-2.365 4.142a14.11 14.11 0 0 0-5.985-1.31 14.349 14.349 0 0 0-5.997 1.298l-2.365-4.142a.477.477 0 0 0-.657-.183.497.497 0 0 0-.184.666l2.328 4.092a13.866 13.866 0 0 0-4.968 4.67A14.12 14.12 0 0 0 80 30h28a14.046 14.046 0 0 0-2.165-6.503 13.791 13.791 0 0 0-4.966-4.663" fill="#3DDC84"/></svg>