<svg width="111" height="48" fill="none" xmlns="http://www.w3.org/2000/svg"><path d="M34.26 24.141c3.562-5.325.696-10.796-3.364-12.583-4.428-1.949-10.171 1.358-10.396 7.553V37h9.644c4.652-1.53 4.39-5.762 3.023-8.022-3.597-4.832-10.196-.47-8.105 5.023l1.325-.805-1.373 3.456-3.401-.565 1.197-.723c-1.604-3.306-.706-7.952 2.786-10.186-4.818-2.192-5.119-11.368 2.092-12.425 3.957-.58 8.961 5.068 5.175 10.52l.746.613-2.648.005-.693-2.768.885.702c2.968-4.75-3.016-9.17-6.032-5.098-1.057 1.426-1.428 4.367 1.075 6.16.792.55 2.986.897 4.764 1.38.942.257 2.161 1.003 2.6 1.387 3.497 3.202 4.142 7.46 1.431 11.346h2.098c2.728-4.211 1.348-10.337-2.829-12.859ZM44.5 26.303v-6.192a1.11 1.11 0 1 1 2.222 0v2.29c.824-.53 1.747-.795 2.769-.795 1.377 0 2.55.461 3.52 1.384.98.913 1.47 2.017 1.47 3.313 0 1.296-.49 2.405-1.47 3.328-.97.913-2.143 1.369-3.52 1.369-1.377 0-2.556-.456-3.536-1.37-.97-.922-1.455-2.031-1.455-3.327Zm3.02 1.84c.542.511 1.199.766 1.97.766.773 0 1.424-.255 1.956-.765.543-.51.814-1.124.814-1.84 0-.717-.271-1.331-.814-1.841-.532-.51-1.183-.766-1.955-.766s-1.43.255-1.971.766c-.532.51-.798 1.123-.798 1.84 0 .717.266 1.33.797 1.84ZM56.459 22.99c.98-.922 2.159-1.384 3.536-1.384 1.377 0 2.55.461 3.52 1.384.98.913 1.47 2.017 1.47 3.313 0 .366-.317.633-.682.633h-7c.147.57.47 1.04.97 1.414.501.373 1.075.56 1.722.56.667 0 1.262-.207 1.783-.62 1.251 0 1.958 1.318.892 1.974a5.03 5.03 0 0 1-2.675.736c-1.377 0-2.556-.456-3.536-1.37-.97-.922-1.455-2.031-1.455-3.327 0-1.296.485-2.4 1.455-3.313Zm.939 2.386h5.178a2.597 2.597 0 0 0-1.001-1.223 2.777 2.777 0 0 0-1.58-.47c-.584 0-1.116.156-1.596.47-.47.315-.803.722-1.001 1.223ZM74.63 25.773v4.124a1.103 1.103 0 0 1-2.205 0v-4.124c0-.57-.22-1.055-.657-1.458a2.17 2.17 0 0 0-1.565-.618c-.615 0-1.142.206-1.58.618-.428.403-.642.889-.642 1.458v4.116a1.11 1.11 0 1 1-2.221 0v-9.778a1.11 1.11 0 1 1 2.221 0v2.055a4.65 4.65 0 0 1 2.222-.56c1.22 0 2.263.407 3.13 1.222.865.815 1.298 1.797 1.298 2.945ZM85.453 26.303v3.56c0 .628-.466 1.137-1.094 1.137-.485 0-.959-.308-1.117-.766l-.01-.03a5.11 5.11 0 0 1-2.77.796c-1.376 0-2.555-.456-3.535-1.37-.97-.922-1.455-2.031-1.455-3.327 0-1.296.485-2.4 1.455-3.313.98-.922 2.159-1.384 3.536-1.384 1.376 0 2.55.461 3.52 1.384.98.913 1.47 2.017 1.47 3.313Zm-3.035-1.855a2.753 2.753 0 0 0-1.955-.766c-.762 0-1.414.255-1.956.766-.542.51-.814 1.129-.814 1.855 0 .717.272 1.33.814 1.84.542.511 1.194.766 1.956.766.761 0 1.413-.255 1.955-.765.543-.51.814-1.124.814-1.84 0-.727-.271-1.346-.814-1.856ZM87.73 19c.614 0 1.112.497 1.112 1.11v1.393h.378a.78.78 0 1 1 0 1.56h-.378v4.8c0 .295.104.546.313.752.219.196.48.294.782.294.31 0 .563.252.563.563v.965a.563.563 0 0 1-.563.563c-.918 0-1.7-.304-2.347-.913-.647-.618-.97-1.36-.97-2.223v-4.8h-.386a.78.78 0 0 1 0-1.56h.386V20.11c0-.614.497-1.111 1.11-1.111Z" fill="#5F6578"/></svg>