<svg width="111" height="48" fill="none" xmlns="http://www.w3.org/2000/svg"><path d="M9.458 22.225a3.4 3.4 0 0 1 6.8 0 1.235 1.235 0 0 1-2.468 0 .93.93 0 0 0-1.861 0 1.234 1.234 0 1 1-2.47 0m14.093 5.718a1.236 1.236 0 0 1-1.238 1.237H10.856a1.237 1.237 0 1 1 0-2.474H22.31a1.24 1.24 0 0 1 1.237 1.238m-5.354-5.02a1.237 1.237 0 0 1 .337-1.715l2.86-1.934a1.233 1.233 0 1 1 1.382 2.04l-2.868 1.935c-.202.14-.442.215-.687.214a1.239 1.239 0 0 1-1.028-.54m7.843 7.598a.882.882 0 0 1-.258.624l-2.129 2.128a.881.881 0 0 1-.623.258H9.973a.882.882 0 0 1-.623-.258l-2.12-2.128a.882.882 0 0 1-.258-.624V17.487a.881.881 0 0 1 .258-.624l2.12-2.127a.881.881 0 0 1 .623-.258h13.052a.882.882 0 0 1 .624.258l2.129 2.127a.881.881 0 0 1 .258.624l-.004 13.035Zm1.81-15.08-2.779-2.781c-.42-.421-.99-.659-1.585-.661H9.522c-.595 0-1.166.237-1.588.657l-2.777 2.785c-.42.42-.656.99-.657 1.583V30.98a2.244 2.244 0 0 0 .657 1.587l2.777 2.78c.423.419.994.653 1.588.653h13.956a2.245 2.245 0 0 0 1.587-.652l2.778-2.78a2.224 2.224 0 0 0 .657-1.588V17.03a2.226 2.226 0 0 0-.657-1.587M36.574 19.104c.129.162.289.377.481.645.2.26.405.553.613.877.208.317.413.65.613 1 .208.348.385.685.529 1.01h-1.274c-.16-.308-.337-.62-.529-.938a15.693 15.693 0 0 0-.565-.901 14.167 14.167 0 0 0-.577-.816 16.091 16.091 0 0 0-.505-.658 4.185 4.185 0 0 1-.324.012H33.666v3.301H32.5v-8.32a6.11 6.11 0 0 1 1.094-.158c.408-.032.78-.048 1.117-.048 1.17 0 2.06.223 2.669.67.616.446.925 1.112.925 1.997 0 .56-.148 1.04-.445 1.438-.288.398-.717.694-1.286.889Zm-1.766-3.959c-.497 0-.878.012-1.142.037v3.179h.83c.4 0 .76-.02 1.08-.061.321-.04.59-.118.806-.232a1.23 1.23 0 0 0 .517-.475c.12-.21.18-.487.18-.828 0-.317-.06-.58-.18-.792a1.33 1.33 0 0 0-.493-.5c-.2-.12-.44-.206-.721-.255a4.986 4.986 0 0 0-.877-.073ZM39.593 18.41c0-.723.104-1.36.312-1.913.217-.552.505-1.01.866-1.376a3.607 3.607 0 0 1 1.274-.84 4.306 4.306 0 0 1 1.55-.281c.537 0 1.042.093 1.514.28.481.187.902.467 1.262.84.361.366.645.825.854 1.377.216.552.324 1.19.324 1.913 0 .722-.108 1.36-.324 1.912a4.007 4.007 0 0 1-.854 1.389 3.57 3.57 0 0 1-1.262.828c-.472.187-.977.28-1.514.28a4.308 4.308 0 0 1-1.55-.28 3.689 3.689 0 0 1-1.274-.828 4.152 4.152 0 0 1-.866-1.39c-.208-.551-.312-1.189-.312-1.912Zm1.226 0c0 .511.064.978.192 1.4.128.415.309.768.541 1.06.24.292.529.52.865.682.345.154.73.232 1.154.232a2.71 2.71 0 0 0 1.142-.232c.336-.162.62-.39.853-.682.24-.292.425-.646.553-1.06.128-.422.192-.889.192-1.4 0-.512-.064-.975-.192-1.39a3.069 3.069 0 0 0-.553-1.071 2.301 2.301 0 0 0-.853-.67 2.594 2.594 0 0 0-1.142-.244c-.424 0-.81.082-1.154.244a2.407 2.407 0 0 0-.865.67c-.232.292-.413.65-.54 1.072a4.685 4.685 0 0 0-.193 1.389ZM51.531 22.71a13.767 13.767 0 0 1-1.718-.11 4.428 4.428 0 0 1-.53-.098v-8.185c.161-.04.337-.073.53-.098a13.757 13.757 0 0 1 1.706-.11c.481 0 .93.037 1.346.11.425.073.79.2 1.094.378.313.17.557.398.733.682.176.284.265.633.265 1.048 0 .462-.109.844-.325 1.145a1.972 1.972 0 0 1-.865.657c.488.146.877.378 1.166.695.288.316.432.763.432 1.34 0 .844-.308 1.482-.925 1.912-.61.422-1.579.633-2.909.633Zm-1.093-4.008v2.972a20.069 20.069 0 0 0 .673.049h.492c.345 0 .67-.02.974-.061.312-.049.585-.13.817-.244.233-.113.417-.272.553-.475.144-.203.216-.459.216-.767a1.41 1.41 0 0 0-.156-.695 1.146 1.146 0 0 0-.457-.462 2.082 2.082 0 0 0-.697-.244 5.214 5.214 0 0 0-.913-.073h-1.502Zm0-.95h1.225c.289 0 .561-.02.818-.061.256-.04.477-.114.66-.22.193-.105.341-.243.446-.414.112-.17.168-.385.168-.645 0-.244-.056-.447-.169-.61a1.147 1.147 0 0 0-.468-.401 2.272 2.272 0 0 0-.685-.232 4.633 4.633 0 0 0-.842-.073c-.296 0-.528.004-.697.012-.168.009-.32.02-.456.037v2.607ZM56.67 18.41c0-.723.104-1.36.313-1.913.216-.552.504-1.01.865-1.376a3.607 3.607 0 0 1 1.274-.84 4.305 4.305 0 0 1 1.55-.281c.537 0 1.042.093 1.515.28.48.187.901.467 1.262.84.36.366.645.825.853 1.377.216.552.324 1.19.324 1.913 0 .722-.108 1.36-.324 1.912a4.005 4.005 0 0 1-.853 1.389c-.36.365-.782.641-1.262.828-.473.187-.978.28-1.515.28a4.307 4.307 0 0 1-1.55-.28 3.69 3.69 0 0 1-1.274-.828 4.15 4.15 0 0 1-.865-1.39c-.209-.551-.313-1.189-.313-1.912Zm1.226 0c0 .511.064.978.192 1.4.129.415.309.768.541 1.06.24.292.529.52.866.682.344.154.729.232 1.153.232a2.71 2.71 0 0 0 1.142-.232 2.42 2.42 0 0 0 .853-.682c.24-.292.425-.646.553-1.06.129-.422.193-.889.193-1.4 0-.512-.065-.975-.193-1.39a3.069 3.069 0 0 0-.553-1.071 2.3 2.3 0 0 0-.853-.67 2.594 2.594 0 0 0-1.142-.244c-.424 0-.809.082-1.153.244a2.407 2.407 0 0 0-.866.67c-.232.292-.412.65-.54 1.072a4.685 4.685 0 0 0-.193 1.389ZM71.597 14.195v1.023h-2.62v7.418h-1.166v-7.418h-2.62v-1.023h6.406ZM32.5 34.817v-8.441h5.024v1.01h-3.858v2.547h3.425v.999h-3.425v3.885H32.5ZM43.03 31.285c.128.162.288.377.48.645.2.26.405.553.613.877.209.317.413.65.613 1 .209.349.385.685.53 1.01H43.99c-.16-.308-.336-.62-.529-.938a15.658 15.658 0 0 0-.565-.901 14.206 14.206 0 0 0-.576-.816 16.082 16.082 0 0 0-.505-.658 4.187 4.187 0 0 1-.325.012h-1.37v3.301h-1.166v-8.32a6.119 6.119 0 0 1 1.094-.158c.409-.032.781-.048 1.118-.048 1.17 0 2.059.223 2.668.67.617.446.925 1.112.925 1.997 0 .56-.148 1.04-.444 1.438-.289.398-.718.694-1.286.889Zm-1.767-3.959c-.497 0-.877.012-1.142.037v3.179h.83c.4 0 .76-.02 1.081-.061.32-.04.589-.118.805-.232a1.23 1.23 0 0 0 .517-.475c.12-.21.18-.487.18-.828 0-.317-.06-.58-.18-.792a1.331 1.331 0 0 0-.493-.5c-.2-.12-.44-.206-.72-.255a4.977 4.977 0 0 0-.878-.073ZM52.419 34.817a45.236 45.236 0 0 1-.385-1.072c-.12-.357-.244-.718-.372-1.084h-3.774l-.757 2.156h-1.214a240.444 240.444 0 0 1 1.718-4.64c.273-.683.541-1.332.806-1.95.264-.625.54-1.242.829-1.851h1.07a60.201 60.201 0 0 1 1.623 3.8c.272.682.548 1.405.829 2.168.28.756.58 1.58.9 2.473H52.42Zm-1.094-3.13a92.766 92.766 0 0 0-.769-2.047 32.526 32.526 0 0 0-.781-1.912c-.28.609-.55 1.246-.806 1.912-.248.658-.496 1.34-.745 2.047h3.101ZM58.561 33.648c-.08-.195-.188-.443-.324-.743-.128-.3-.269-.625-.42-.975-.153-.349-.317-.706-.493-1.072a77.35 77.35 0 0 0-.481-1.047 18.61 18.61 0 0 0-.433-.89c-.128-.26-.232-.458-.312-.596a75.36 75.36 0 0 0-.217 3.118 223.265 223.265 0 0 0-.144 3.374h-1.142a213.896 213.896 0 0 1 .24-4.397c.057-.723.113-1.425.169-2.107.064-.682.132-1.328.204-1.937h1.022c.216.357.449.78.697 1.267.248.487.497.998.745 1.534.248.528.489 1.06.721 1.596l.637 1.45.637-1.45c.233-.536.473-1.068.721-1.596.249-.535.497-1.047.745-1.534.249-.488.481-.91.697-1.267h1.022c.273 2.72.477 5.534.613 8.441h-1.142c-.04-1.137-.088-2.261-.144-3.374a75.36 75.36 0 0 0-.216-3.118c-.08.138-.189.337-.325.597-.128.26-.268.556-.42.889l-.493 1.047c-.169.366-.329.723-.481 1.072-.152.35-.296.674-.433.975-.128.3-.232.548-.312.743h-.938ZM65.293 34.817v-8.441h5.084v1.01h-3.918v2.51h3.485v.987H66.46v2.923h4.218v1.011h-5.384ZM76.714 29.092a56.691 56.691 0 0 1-1.022 3.021 159.47 159.47 0 0 1-1.033 2.704h-1.166a42.825 42.825 0 0 1-1.13-3.934 80.75 80.75 0 0 1-.901-4.507h1.226c.112.633.228 1.267.348 1.9a83.4 83.4 0 0 0 .758 3.557c.128.544.26 1.047.396 1.51.32-.852.661-1.786 1.022-2.801a56.18 56.18 0 0 0 1.01-3.167h1.009a50.338 50.338 0 0 0 1.022 3.167c.368 1.015.713 1.949 1.033 2.801.128-.454.257-.954.385-1.498s.252-1.112.372-1.705a83.4 83.4 0 0 0 .373-1.852c.12-.641.236-1.279.348-1.912h1.19a79.836 79.836 0 0 1-.925 4.507c-.32 1.38-.69 2.692-1.106 3.934h-1.166a86.057 86.057 0 0 1-1.033-2.704 65.577 65.577 0 0 1-1.01-3.02ZM82.797 30.59c0-.722.104-1.36.312-1.912.216-.552.505-1.01.865-1.376a3.609 3.609 0 0 1 1.274-.84 4.307 4.307 0 0 1 1.55-.281c.538 0 1.042.093 1.515.28.48.187.901.467 1.262.84.36.366.645.825.853 1.377.217.552.325 1.19.325 1.912 0 .723-.108 1.36-.325 1.913a4.004 4.004 0 0 1-.853 1.389c-.36.365-.781.641-1.262.828-.473.187-.977.28-1.514.28a4.305 4.305 0 0 1-1.55-.28 3.686 3.686 0 0 1-1.275-.828 4.148 4.148 0 0 1-.865-1.39c-.208-.551-.312-1.189-.312-1.912Zm1.225 0c0 .512.065.979.193 1.401.128.415.308.768.54 1.06.241.292.53.52.866.682.345.155.73.232 1.154.232a2.71 2.71 0 0 0 1.141-.232 2.42 2.42 0 0 0 .854-.682 3.08 3.08 0 0 0 .553-1.06c.128-.422.192-.889.192-1.4 0-.512-.064-.975-.192-1.39a3.07 3.07 0 0 0-.553-1.071 2.301 2.301 0 0 0-.853-.67 2.594 2.594 0 0 0-1.142-.244c-.425 0-.81.082-1.154.244a2.408 2.408 0 0 0-.865.67c-.233.292-.413.65-.541 1.072a4.685 4.685 0 0 0-.193 1.388ZM96.562 31.285c.128.162.288.377.48.645.2.26.405.553.613.877.209.317.413.65.613 1 .209.349.385.685.53 1.01h-1.275c-.16-.308-.336-.62-.529-.938a15.658 15.658 0 0 0-.564-.901 14.206 14.206 0 0 0-.577-.816 16.178 16.178 0 0 0-.505-.658 4.191 4.191 0 0 1-.325.012h-1.37v3.301h-1.166v-8.32a6.119 6.119 0 0 1 1.094-.158c.409-.032.781-.048 1.118-.048 1.17 0 2.059.223 2.668.67.617.446.925 1.112.925 1.997 0 .56-.148 1.04-.444 1.438-.289.398-.717.694-1.286.889Zm-1.767-3.959c-.497 0-.877.012-1.142.037v3.179h.83c.4 0 .76-.02 1.081-.061.32-.04.59-.118.805-.232a1.23 1.23 0 0 0 .517-.475c.12-.21.18-.487.18-.828 0-.317-.06-.58-.18-.792a1.33 1.33 0 0 0-.492-.5c-.2-.12-.441-.206-.722-.255a4.979 4.979 0 0 0-.877-.073ZM106.212 26.376a141.6 141.6 0 0 1-.842.926 105.732 105.732 0 0 1-1.995 2.07 97.05 97.05 0 0 1-.949.95c.344.244.709.545 1.093.902.385.357.762.739 1.13 1.145.369.406.713.82 1.034 1.242.328.423.601.825.817 1.206h-1.37c-.24-.381-.517-.763-.829-1.145-.313-.39-.645-.759-.998-1.108a13.138 13.138 0 0 0-1.058-.987 8.893 8.893 0 0 0-1.033-.767v4.007h-1.166v-8.441h1.166v3.727c.28-.268.589-.568.925-.901a90.595 90.595 0 0 0 1.923-1.998c.297-.316.545-.593.745-.828h1.407Z" fill="#222B45"/></svg>