<svg width="111" height="48" fill="none" xmlns="http://www.w3.org/2000/svg"><path d="M17.418 25.657 9.5 22.483v-1.4l9.315 3.99v1.26L9.5 30.3v-1.4l7.918-3.15v-.093ZM24.354 31c-1.226 0-2.453-.257-3.679-.77v-2.963h1.397v2.1c.714.233 1.553.35 2.515.35.978 0 1.731-.187 2.259-.56.543-.374.815-.84.815-1.4a1.578 1.578 0 0 0-.722-1.377 4.93 4.93 0 0 0-.955-.49 19.764 19.764 0 0 0-1.397-.49c-.465-.156-.939-.327-1.42-.513a7.396 7.396 0 0 1-1.304-.677 3.373 3.373 0 0 1-.955-.98c-.233-.404-.35-.887-.35-1.447 0-1.01.412-1.827 1.235-2.45.838-.622 1.948-.933 3.33-.933 1.273 0 2.43.264 3.47.793v2.94h-1.398v-2.076c-.59-.25-1.343-.374-2.259-.374-.931 0-1.645.195-2.142.584-.481.373-.722.824-.722 1.353 0 .342.062.63.187.863.14.218.341.42.605.607.264.171.59.334.978.49.388.14.846.296 1.374.467.466.155.931.326 1.397.513.481.187.908.412 1.28.677.39.249.7.567.932.956.233.374.35.833.35 1.377 0 1.089-.427 1.937-1.281 2.543-.854.591-2.034.887-3.54.887ZM38.832 30.253a6.883 6.883 0 0 1-3.167.747c-1.413 0-2.562-.42-3.447-1.26-.869-.84-1.304-2.014-1.304-3.523 0-1.587.458-2.816 1.374-3.687.932-.887 2.12-1.33 3.563-1.33a7.51 7.51 0 0 1 2.981.607V24h-1.397v-1.307c-.45-.155-1.01-.233-1.677-.233-1.071 0-1.894.303-2.468.91-.575.591-.862 1.447-.862 2.567 0 1.244.287 2.177.862 2.8.574.622 1.42.933 2.538.933 1.01 0 2.01-.272 3.004-.817v1.4ZM40.688 22.017c1.164-.545 2.352-.817 3.563-.817 1.056 0 1.847.241 2.375.723.544.483.815 1.26.815 2.334v5.46h1.398V31h-2.702l-.093-1.423h-.07c-.838.949-1.832 1.423-2.98 1.423-.932 0-1.646-.233-2.143-.7-.497-.482-.745-1.143-.745-1.983 0-2.085 1.653-3.127 4.96-3.127h.978v-.98c0-.56-.163-.988-.489-1.283-.31-.296-.815-.444-1.514-.444-1.024 0-2.142.273-3.353.817v-1.283Zm4.145 4.456c-2.142 0-3.213.584-3.213 1.75 0 .498.14.871.419 1.12.295.25.714.374 1.257.374.994 0 1.91-.475 2.748-1.424v-1.82h-1.21ZM49.996 29.717h1.397V18.283h-1.397V17h2.794v12.717h1.398V31h-4.192v-1.283ZM56.05 22.017c1.164-.545 2.351-.817 3.562-.817 1.056 0 1.848.241 2.375.723.544.483.816 1.26.816 2.334v5.46H64.2V31h-2.702l-.093-1.423h-.07c-.838.949-1.831 1.423-2.98 1.423-.932 0-1.646-.233-2.143-.7-.497-.482-.745-1.143-.745-1.983 0-2.085 1.654-3.127 4.96-3.127h.978v-.98c0-.56-.163-.988-.489-1.283-.31-.296-.815-.444-1.513-.444-1.025 0-2.143.273-3.354.817v-1.283Zm4.144 4.456c-2.142 0-3.213.584-3.213 1.75 0 .498.14.871.419 1.12.295.25.714.374 1.257.374.994 0 1.91-.475 2.748-1.424v-1.82h-1.21ZM68.152 29.717h1.397V19.683h-2.795v2.45h-1.397V18.4h9.78v3.733H73.74v-2.45h-2.794v10.034h1.397V31h-4.191v-1.283ZM80.3 29.717c1.01 0 2.003-.32 2.981-.957v1.377c-1.009.575-2.065.863-3.167.863-1.397 0-2.5-.436-3.306-1.307-.808-.886-1.211-2.037-1.211-3.453 0-1.587.396-2.823 1.187-3.71.807-.887 1.863-1.33 3.167-1.33 1.134 0 2.01.389 2.632 1.167.62.762.931 1.827.931 3.196v.724H77.11c.047 1.073.319 1.913.815 2.52.513.606 1.304.91 2.376.91Zm1.817-4.714c-.078-1.68-.854-2.52-2.329-2.52-.776 0-1.381.226-1.816.677-.42.436-.683 1.05-.792 1.843h4.937ZM85.603 23.883c0-.855.35-1.516 1.048-1.983.714-.467 1.638-.7 2.771-.7.963 0 1.98.171 3.05.513V24h-1.396v-1.33a7.08 7.08 0 0 0-1.77-.21c-.621 0-1.141.101-1.56.303-.42.203-.63.514-.63.934 0 .249.047.459.14.63.11.155.264.295.466.42.202.109.458.217.769.326.31.11.667.226 1.071.35.388.125.776.257 1.164.397.388.14.738.311 1.048.513.31.203.56.46.745.77.202.296.303.67.303 1.12 0 .871-.365 1.556-1.094 2.054-.73.482-1.692.723-2.888.723a8.047 8.047 0 0 1-3.12-.63V28.2h1.397v1.33a7.75 7.75 0 0 0 1.84.21c.652 0 1.203-.101 1.653-.303.466-.218.698-.553.698-1.004 0-.482-.21-.832-.628-1.05-.404-.217-.978-.435-1.724-.653a20.646 20.646 0 0 1-1.187-.373 5.68 5.68 0 0 1-1.071-.514 2.75 2.75 0 0 1-.792-.793c-.202-.311-.303-.7-.303-1.167ZM98.707 31c-.76 0-1.39-.187-1.886-.56-.497-.373-.745-.949-.745-1.727v-6.23h-1.398V21.2h1.398v-2.543l1.397-.257v2.8h3.027v1.283h-3.027v5.997c0 .436.14.754.419.957.28.186.62.28 1.025.28.512 0 1.04-.14 1.583-.42v1.236a3.716 3.716 0 0 1-1.793.467Z" fill="#4D8B2C"/></svg>