<svg width="111" height="48" fill="none" xmlns="http://www.w3.org/2000/svg"><path fill-rule="evenodd" clip-rule="evenodd" d="m27.72 12.286 4.471 4.443 1.504 13.047-7.127 7.082-4.338-.377L11.671 25.99l2.611-6.573 7.689-7.64 5.75.51Z" fill="#FFFFFE"/><path fill-rule="evenodd" clip-rule="evenodd" d="M24.785 12.377c1.19 0 2.296.11 3.365.333l-2.141-2.128a2.017 2.017 0 0 0-2.835 0l-2.988 2.969c1.378-.77 3.019-1.174 4.6-1.174ZM17.795 30.64c.096-.323.258-.612.68-.612.16 0 .323.033.55.13 1.584.61 3.397.995 5.047.995 1.359 0 3.073-.706 3.073-2.283 0-1.221-.97-1.833-1.974-2.282l-4.334-1.993c-2.395-1.093-3.98-3.087-3.98-5.788 0-.95.221-1.801.607-2.552l-6.377 6.336a1.983 1.983 0 0 0 0 2.817l6.347 6.307.36-1.076ZM38.092 22.591l-6.75-6.709-.605 1.51c-.161.42-.355.579-.647.579-.162 0-.355-.064-.582-.16-1.327-.58-3.074-1.03-4.4-1.03-1.295 0-2.75.483-2.75 1.994 0 1.028 1.293 1.672 2.102 2.025l3.721 1.672c2.556 1.158 4.206 2.894 4.206 5.82 0 1.48-.382 2.762-1.044 3.823l6.749-6.707a1.984 1.984 0 0 0 0-2.817ZM21.1 35.358l2.071 2.059a2.014 2.014 0 0 0 2.836 0l3.145-3.126c-1.377.87-3.087 1.332-4.92 1.332-.976 0-2.05-.094-3.132-.265ZM49.554 29.013c-1.102 0-2.443-.22-3.545-.61-.27-.085-.356-.204-.356-.357 0-.085.034-.187.068-.288l.458-1.375c.05-.17.135-.322.356-.322.085 0 .17.016.289.067.83.323 1.78.526 2.645.526.713 0 1.612-.373 1.612-1.205 0-.644-.51-.967-1.035-1.204l-2.273-1.052c-1.255-.577-2.086-1.63-2.086-3.055 0-2.172 2.171-3.394 4.156-3.394 1.22 0 2.272.22 3.34.678.272.12.374.238.374.39 0 .069-.034.154-.068.256l-.525 1.323c-.085.22-.187.306-.34.306a.836.836 0 0 1-.305-.085c-.695-.306-1.611-.543-2.307-.543-.678 0-1.442.254-1.442 1.052 0 .543.679.882 1.103 1.069l1.95.883c1.34.61 2.205 1.527 2.205 3.071 0 2.444-1.95 3.87-4.274 3.87ZM58.95 22.276c-1.255 0-1.662 1.086-1.662 2.325 0 1.256.356 2.393 1.612 2.393 1.255 0 1.662-1.12 1.662-2.36 0-1.255-.356-2.358-1.612-2.358Zm-.083 6.72c-2.866 0-4.206-1.85-4.206-4.378 0-2.494 1.577-4.344 4.325-4.344 2.866 0 4.206 1.85 4.206 4.378 0 2.495-1.577 4.344-4.325 4.344ZM69.447 22.955c-.305-.271-.865-.577-1.373-.577-.831 0-1.612.679-1.612 2.257 0 1.052.271 2.308 1.56 2.308.611 0 1.222-.458 1.425-.713v-3.275Zm3.29 5.43c0 .255-.17.39-.407.39h-.899c-1 0-1.407-.288-1.628-.78h-.034c-.458.526-1.544 1.001-2.375 1.001-2.442 0-3.579-1.934-3.579-4.191 0-3.004 1.866-4.531 3.732-4.531.95 0 1.713.44 2.07.95l.05-.373a.376.376 0 0 1 .39-.34h1.527c.237 0 .407.136.407.407v5.855c0 .17.068.288.254.288h.136c.237 0 .356.086.356.34v.984ZM78.859 22.972c-.29-.441-.73-.611-1.188-.611-.492 0-1.12.322-1.39.61v3.462c.305.29.847.544 1.34.544.491 0 .915-.255 1.136-.56.339-.459.491-.985.491-1.765 0-.764-.152-1.324-.39-1.68Zm1.949 4.87c-.628.747-1.527 1.188-2.63 1.188-.746 0-1.441-.254-1.899-.679v3.581c0 .39-.186.526-.526.526H74.21c-.306 0-.475-.17-.475-.509V20.986c0-.34.17-.475.492-.475h1.306c.322 0 .491.085.526.356l.034.34c.44-.492 1.356-.917 2.239-.917 1.17 0 1.933.459 2.476 1.036.746.78 1.086 2.002 1.086 3.173 0 1.324-.374 2.512-1.086 3.343ZM88.237 28.996c-3.494 0-5.072-1.9-5.072-5.498v-6.059c0-.339.22-.44.526-.44h1.679c.323 0 .492.084.492.44v5.855c0 2.681.916 3.428 2.493 3.428 1.493 0 2.409-.78 2.409-3.411v-5.872c0-.339.203-.44.509-.44h1.678c.323 0 .493.084.493.44v6.042c0 3.818-1.95 5.515-5.207 5.515ZM100.498 18.288c0 .305-.17.441-.424.441h-.916v8.316h.847c.272 0 .408.203.408.441v.9c0 .203-.136.39-.373.39h-4.36c-.254 0-.424-.187-.424-.373v-.917c0-.305.17-.441.424-.441h.78v-8.316h-.898c-.272 0-.407-.203-.407-.44v-.9c0-.204.135-.39.373-.39h4.546c.254 0 .424.186.424.373v.916Z" fill="#363C3B"/></svg>