<svg width="111" height="48" fill="none" xmlns="http://www.w3.org/2000/svg"><path fill-rule="evenodd" clip-rule="evenodd" d="M39.5 8h32v32h-32V8Zm9.664 10.947c0 .666-.154 1.245-.462 1.738-.309.492-.759.87-1.351 1.137-.588.267-1.302.4-2.144.4-.372 0-.737-.025-1.095-.077a7.232 7.232 0 0 1-1.02-.223 6.184 6.184 0 0 1-.925-.376V19.33c.509.236 1.038.449 1.586.639s1.091.284 1.63.284c.372 0 .67-.051.896-.154.23-.102.396-.243.499-.423.103-.179.154-.384.154-.615 0-.282-.09-.523-.272-.722-.18-.2-.43-.387-.748-.562a29.809 29.809 0 0 0-1.065-.56c-.25-.124-.522-.273-.815-.447a4.79 4.79 0 0 1-.837-.653 3.146 3.146 0 0 1-.654-.93c-.166-.37-.25-.81-.25-1.323 0-.671.147-1.245.441-1.722.294-.477.712-.84 1.256-1.092.548-.256 1.194-.384 1.938-.384.558 0 1.09.069 1.594.207a9.57 9.57 0 0 1 1.593.585l-.734 1.853c-.495-.21-.938-.372-1.33-.485a4.13 4.13 0 0 0-1.196-.177c-.284 0-.526.049-.727.146a.993.993 0 0 0-.455.4c-.103.17-.155.367-.155.592 0 .267.074.492.22.677.152.18.378.353.676.523.304.169.68.366 1.131.591a8.487 8.487 0 0 1 1.403.854c.391.292.692.638.903 1.038.21.395.315.887.315 1.476Zm6.088 3.122h-2.277v-9.257H50.06v-1.984h8.107v1.984h-2.915v9.257Zm13.58-3.354-.052-.048-14.7 15.96-6.58-5.417v3.454l6.831 5.626 14.501-15.744v-3.831Z" fill="#779736"/></svg>