<svg width="111" height="48" fill="none" xmlns="http://www.w3.org/2000/svg"><path d="m83.367 22.456-1.46 2.815c-.134.238-.223.554-.478.554-.355 0-.398-.318-.531-.594l-1.195-2.339c-.089-.12-.089-.356-.266-.318-.222.04-.176.277-.176.427v4.797c0 .238 0 .476-.045.714a.464.464 0 0 1-.477.397c-.265-.04-.355-.2-.398-.397v-7.454c0-.318-.089-.752.31-.872.442-.12.707.2.884.554l1.36 2.697c.134.237.177.664.532.713.397 0 .442-.476.576-.713l1.36-2.617c.177-.357.398-.714.885-.634.477.12.355.553.355.912v6.899c0 .356.134.912-.443.912-.618 0-.477-.554-.477-.953v-4.56c-.045-.318.045-.634-.31-.952l-.006.012Zm18.996.199c-.266.237-.177.553-.177.832v4.717c0 .277.089.714-.355.714-.477.04-.477-.397-.477-.714V20.9c0-.277-.045-.634.309-.713.398-.12.619.158.797.476l2.169 4.322c.134.318.31.594.443.912.089.158.089.397.355.318.223-.08.177-.318.177-.476v-4.65c0-.198 0-.355.045-.553.045-.277.222-.396.477-.396.265.04.355.237.355.476v7.335c0 .318.134.752-.309.871-.477.159-.663-.277-.84-.634l-2.48-4.916c-.133-.238-.176-.516-.477-.634l-.012.018Zm-50.257 1.863c-.045.871.045 1.704-.089 2.576-.222 1.218-.974 1.824-2.348 1.824-1.46 0-2.303-.554-2.48-1.784-.222-1.785-.265-3.609 0-5.384.177-1.152 1.064-1.705 2.391-1.705 1.328 0 2.17.594 2.391 1.704.223.953.089 1.864.134 2.775v-.006Zm-.885 0v-2.02c-.045-1.03-.663-1.628-1.68-1.587-.973 0-1.55.554-1.607 1.586v4.096c.045 1.029.618 1.586 1.607 1.627 1.019 0 1.638-.554 1.68-1.627.045-.664 0-1.348 0-2.063v-.012Zm44.624 3.845c0 .277-.045.476-.31.517-.222.04-.397 0-.476-.238-.045-.158-.134-.356-.177-.516-.398-1.218-.398-1.218-1.607-1.218h-.389c-1.505 0-1.505 0-2.036 1.44-.09.276-.134.663-.577.553-.443-.158-.31-.554-.222-.872l2.17-7.177c.133-.356.176-.872.74-.832.478.04.577.476.664.832l2.037 6.818c.088.238.133.476.176.714l.007-.02Zm-2.966-2.22h.442c.974 0 1.019-.04.709-1.029l-.84-2.815c-.045-.2 0-.476-.266-.476-.265 0-.309.277-.355.516l-.708 2.38c-.443 1.44-.398 1.44 1.019 1.44l-.001-.016ZM36.52 24.52v-3.674c0-.594.222-.793.742-.793h1.505c2.036.04 2.79.872 2.744 2.974-.045 1.44-.84 2.26-2.224 2.34-.398 0-.742.04-1.15 0-.618-.04-.84.237-.796.832.045.713 0 1.439 0 2.102 0 .277-.045.594-.443.594s-.398-.318-.398-.634V24.53l.02-.012Zm2.08.12c1.286 0 1.772-.277 1.993-1.111.222-.834.223-1.627-.442-2.26-.709-.635-1.638-.357-2.48-.318-.31 0-.31.356-.31.634v1.784c0 1.268 0 1.268 1.242 1.268l-.002.003ZM59.987 29c-.93 0-1.68-.158-2.259-.792-.176-.2-.398-.476-.133-.752.222-.238.477-.08.663.12.532.516 1.107.663 1.817.633.663-.04 1.15-.317 1.417-.99.262-.614.107-1.308-.398-1.785-.478-.476-1.108-.664-1.728-.952-.885-.357-1.55-.872-1.638-1.943-.133-1.439.577-2.22 2.127-2.498.663-.12 1.285.04 1.859.238.31.08.576.318.443.664-.134.396-.443.237-.708.12-.577-.277-1.195-.277-1.772-.2-.477.08-.93.357-1.018.912-.089.556 0 1.03.443 1.388.576.427 1.24.594 1.859.872.973.427 1.505 1.19 1.505 2.299 0 1.029-.265 1.823-1.24 2.339-.444.277-.93.237-1.242.318l.003.009Zm9.698-4.164v-3.052c.045-.752-.265-.992-.93-.912-.265.04-.576 0-.84 0-.263 0-.442-.12-.442-.427 0-.238.177-.397.398-.397h4.516c.223 0 .398.12.398.356 0 .277-.176.428-.443.428-.309 0-.663.04-.973 0-.619-.04-.797.237-.797.832v6.504c0 .317-.045.664-.443.664-.443 0-.443-.357-.443-.664v-3.332Z" fill="#5F6578"/><path d="M25.998 16.666a12 12 0 1 0-2.16 16.83c5.251-4.052 6.2-11.586 2.161-16.83h-.001Z" fill="#FF6C37"/><path d="m20.548 19.646-5.06 5.1-1.43-1.47c4.98-4.98 5.48-4.53 6.5-3.63h-.01Z" fill="#fff"/><path d="M15.485 24.886a.179.179 0 0 1-.12-.05l-1.44-1.44c-.067-.077-.067-.18 0-.25 4.9-4.9 5.58-4.679 6.74-3.629.04.031.063.08.061.13a.139.139 0 0 1-.05.13l-5.06 5.059a.192.192 0 0 1-.13.05h-.001Zm-1.18-1.6 1.18 1.18 4.8-4.8a1.08 1.08 0 0 0-1.42-.24c-.87.4-2.27 1.58-4.56 3.86Z" fill="#FF6C37"/><path d="m16.934 26.156-1.38-1.399 5.06-5c1.36 1.33-.66 3.55-3.68 6.4Z" fill="#fff"/><path d="M16.934 26.336a.208.208 0 0 1-.12-.05l-1.4-1.38a.212.212 0 0 1 0-.16.187.187 0 0 1 0-.13l5.06-5.059a.188.188 0 0 1 .26 0c.332.305.514.74.5 1.189 0 1.35-1.54 3.05-4.16 5.53a.211.211 0 0 1-.13.06h-.01Zm-1.12-1.6 1.13 1.13c2.008-1.899 3.9-3.84 3.92-5.16.011-.28-.082-.554-.26-.77l-4.79 4.8Z" fill="#FF6C37"/><path d="m14.098 23.306 1 1a.06.06 0 0 1 .02.044.06.06 0 0 1-.02.045l-2.1.45a.2.2 0 0 1-.18-.34l1.23-1.22s.04 0 .06.02h-.01Z" fill="#fff"/><path d="M12.937 25.046a.389.389 0 0 1-.33-.19.379.379 0 0 1 .07-.45l1.22-1.23a.24.24 0 0 1 .32 0l1 1a.22.22 0 0 1 .06.22.231.231 0 0 1-.17.16l-2.1.45-.07.04Zm1.12-1.52-1.13 1.13 1.87-.4-.74-.73Z" fill="#FF6C37"/><path d="M23.24 16.837a1.949 1.949 0 0 0-2.625-.066 1.933 1.933 0 0 0-.3 2.602 1.938 1.938 0 0 0 2.568.525l-1.359-1.36 1.716-1.7Z" fill="#fff"/><path d="M21.88 20.356a2.119 2.119 0 0 1-1.479-3.61 2.14 2.14 0 0 1 3 0 .17.17 0 0 1 .045.202.17.17 0 0 1-.045.058l-1.62 1.53 1.23 1.2a.17.17 0 0 1 .05.15.178.178 0 0 1-.08.13c-.33.206-.71.32-1.1.33v.01Zm0-3.88a1.76 1.76 0 0 0-1.24 3c.51.511 1.28.658 1.94.37l-1.179-1.18a.16.16 0 0 1 0-.25l1.56-1.569a1.79 1.79 0 0 0-1.08-.37Z" fill="#FF6C37"/><path d="m23.267 16.866-1.7 1.7 1.358 1.36c.137-.08.265-.173.38-.281a2 2 0 0 0-.03-2.78l-.008.001Z" fill="#fff"/><path d="M22.887 20.076a.147.147 0 0 1-.12-.05l-1.36-1.359a.16.16 0 0 1 0-.25l1.701-1.67a.18.18 0 0 1 .3 0 2.1 2.1 0 0 1 0 3 1.839 1.839 0 0 1-.4.32.158.158 0 0 1-.12.01h-.002Zm-1.1-1.54 1.13 1.13c.077-.053.15-.114.22-.18a1.766 1.766 0 0 0 .52-1.25c0-.419-.153-.824-.43-1.139l-1.44 1.44Z" fill="#FF6C37"/><path d="M20.756 19.857a.73.73 0 0 0-1 0l-4.53 4.52.75.76 4.8-4.2a.74.74 0 0 0-.01-1.081h-.01Z" fill="#fff"/><path d="M15.938 25.316a.179.179 0 0 1-.12-.05l-.76-.76c-.067-.077-.067-.18 0-.25l4.53-4.5a.92.92 0 1 1 1.261 1.34l-4.8 4.2a.17.17 0 0 1-.12.03l.009-.01Zm-.53-.94.5.5 4.7-4.091a.549.549 0 0 0 .19-.4.528.528 0 0 0-.17-.41.56.56 0 0 0-.79 0l-4.43 4.401Z" fill="#FF6C37"/><path d="M11.715 29.526a.1.1 0 0 0 0 .12l.2.87a.25.25 0 0 1-.41.23l-1.368-1.312 4.27-4.3h1.48l1 1a22.691 22.691 0 0 1-5.17 3.4l-.002-.008Z" fill="#fff"/><path d="M11.623 30.996a.435.435 0 0 1-.302-.13l-1.3-1.3a.16.16 0 0 1 0-.25l4.3-4.3a.17.17 0 0 1 .091-.051h1.5a.177.177 0 0 1 .12 0l1 1a.16.16 0 0 1 .05.139.16.16 0 0 1-.06.13l-.08.069a24.497 24.497 0 0 1-5.13 3.29l.2.8a.43.43 0 0 1-.409.53l.02.073Zm-1.22-1.57 1.18 1.2c.022.02.056.02.08 0a.058.058 0 0 0 0-.07l-.201-.87a.28.28 0 0 1 .15-.32 24.592 24.592 0 0 0 5-3.219l-.828-.82h-1.34l-4.041 4.1Z" fill="#FF6C37"/><path d="m9.101 30.455 1-1 1.54 1.54-2.45-.17a.2.2 0 0 1-.09-.37Z" fill="#fff"/><path d="m11.677 31.146-2.44-.17a.378.378 0 0 1-.24-.64l1-1c.077-.067.18-.067.25 0l1.53 1.53a.17.17 0 0 1 0 .2.194.194 0 0 1-.1.081Zm-2.44-.56 2.008.13-1.1-1.03-.908.9Z" fill="#FF6C37"/><path d="m16.024 25.247-2.02.3 1.17-1.159.85.859Z" fill="#fff"/><path d="M14.009 25.745a.171.171 0 0 1-.16-.1.17.17 0 0 1 0-.2l1.16-1.17a.188.188 0 0 1 .26 0l.85.85a.17.17 0 0 1 0 .18.17.17 0 0 1-.14.13l-2.008.3.038.01Zm1.17-1.1-.65.65 1.119-.17-.47-.48Z" fill="#FF6C37"/><path d="m16.026 25.247-1.4.18a.18.18 0 0 1-.17-.3l.73-.73.84.85Z" fill="#fff"/><path d="M14.395 25.564a.37.37 0 0 0 .185.052l.07-.01 1.4-.18c.08-.006.125-.052.156-.12.031-.066.006-.141-.046-.19l-.85-.85a.188.188 0 0 0-.26 0l-.73.73a.36.36 0 0 0 .075.569ZM23.09 17.956a.15.15 0 0 1 .19.06h-.007a.69.69 0 0 1-.09.73.13.13 0 0 1-.13.04.111.111 0 0 1-.08 0 .13.13 0 0 1 0-.19.43.43 0 0 0 .05-.45c-.017-.033-.028-.071-.01-.108a.183.183 0 0 1 .077-.082Z" fill="#FF6C37"/><path d="m15.637 25.116-1.06.13-.01-.001.6-.6.47.471Z" fill="#fff"/></svg>