<svg width="111" height="48" fill="none" xmlns="http://www.w3.org/2000/svg"><g clip-path="url(#a)"><path d="m56.006 14.692-5.332-3.822 5.028 8.24L74.499 3.884 56.007 14.692Zm-2.288 10.105c-5.537 0-10.025-4.398-10.025-9.824 0-5.425 4.489-9.824 10.025-9.824 2.452 0 4.697.864 6.439 2.296l1.405-1.643A12.313 12.313 0 0 0 53.72 3C46.981 3 41.5 8.371 41.5 14.973s5.481 11.973 12.219 11.973c3.494 0 6.648-1.446 8.877-3.758l-1.59-1.472a10.09 10.09 0 0 1-7.287 3.08Zm0-2.847c-3.931 0-7.119-3.124-7.119-6.976 0-3.854 3.187-6.977 7.12-6.977 1.74 0 3.334.614 4.57 1.631l1.056-1.233a8.832 8.832 0 0 0-5.626-2.01c-4.834 0-8.765 3.853-8.765 8.588 0 4.736 3.931 8.589 8.765 8.589a8.823 8.823 0 0 0 6.367-2.696l-1.197-1.107a7.162 7.162 0 0 1-5.17 2.19Z" fill="#236BFD"/></g><path d="M19.6 41.176h-1.412a2.611 2.611 0 0 1-.152.703 1.524 1.524 0 0 1-.31.51 1.29 1.29 0 0 1-.481.318 1.79 1.79 0 0 1-.645.108c-.203 0-.385-.028-.545-.084a1.285 1.285 0 0 1-.416-.258 1.568 1.568 0 0 1-.305-.372 2.415 2.415 0 0 1-.205-.48 3.925 3.925 0 0 1-.158-.703 6.79 6.79 0 0 1-.047-.822V38.89a5.05 5.05 0 0 1 .152-1.333c.067-.228.15-.434.252-.618.106-.188.237-.34.393-.456.113-.096.242-.17.387-.222a1.5 1.5 0 0 1 .498-.079c.262 0 .486.04.674.12.188.077.346.189.475.337.125.148.222.328.293.54.074.208.123.442.146.702h1.407a4.125 4.125 0 0 0-.287-1.188 2.697 2.697 0 0 0-.598-.913 2.578 2.578 0 0 0-.909-.576A3.31 3.31 0 0 0 16.606 35c-.332 0-.639.046-.92.138-.277.092-.531.22-.762.384-.242.18-.457.398-.645.654a3.547 3.547 0 0 0-.45.847c-.11.28-.192.578-.247.894a5.765 5.765 0 0 0-.082.985v1.194c0 .356.027.698.082 1.026.059.329.145.633.258.913.113.284.252.546.416.786.168.236.363.438.586.606.23.18.492.32.785.42.297.097.622.145.973.145.43 0 .82-.066 1.172-.198.356-.136.663-.329.92-.577.254-.244.46-.538.616-.882.156-.348.254-.734.293-1.159ZM26.832 40.078v-1.152c0-.365-.03-.715-.093-1.05a4.576 4.576 0 0 0-.282-.955 3.671 3.671 0 0 0-.422-.763 2.87 2.87 0 0 0-.591-.606 2.666 2.666 0 0 0-.768-.402 2.921 2.921 0 0 0-.938-.144c-.336 0-.644.048-.926.144a2.43 2.43 0 0 0-.744.396 2.866 2.866 0 0 0-.592.624 3.879 3.879 0 0 0-.416.78c-.117.297-.205.611-.264.943a5.932 5.932 0 0 0-.088 1.033v1.152c0 .34.028.672.082.996.055.32.137.623.247.907.113.296.254.568.422.816.171.248.37.46.597.636.223.172.475.309.756.409.285.096.598.144.938.144a2.813 2.813 0 0 0 1.658-.517c.235-.176.442-.386.622-.63.18-.248.33-.518.45-.81.114-.292.2-.602.259-.93.062-.329.093-.669.093-1.021Zm-1.418-1.164v1.164c-.004.216-.017.43-.04.642-.02.208-.053.409-.1.6-.055.22-.13.423-.223.607a1.7 1.7 0 0 1-.34.468 1.367 1.367 0 0 1-.961.378 1.4 1.4 0 0 1-.551-.102 1.449 1.449 0 0 1-.416-.288 1.784 1.784 0 0 1-.322-.468 3.241 3.241 0 0 1-.205-.606 4.166 4.166 0 0 1-.1-.6 6.752 6.752 0 0 1-.03-.631v-1.164c0-.217.01-.43.03-.643.023-.216.059-.42.105-.612.051-.224.123-.426.217-.606.094-.184.21-.342.346-.474a1.32 1.32 0 0 1 .914-.348c.2 0 .377.032.534.096.156.064.295.152.416.264.136.128.252.284.345.468.098.18.176.38.235.6.05.192.086.394.105.606.024.212.037.428.041.649ZM28.192 43.865h2.157c.39 0 .756-.047 1.096-.144.343-.095.656-.234.937-.414a3.626 3.626 0 0 0 1.207-1.368c.15-.292.262-.614.34-.967.083-.356.124-.732.124-1.128v-.684c0-.412-.043-.8-.13-1.165a4.393 4.393 0 0 0-.363-1.002 3.425 3.425 0 0 0-.568-.793 3.02 3.02 0 0 0-.768-.588 3.579 3.579 0 0 0-.885-.354 3.946 3.946 0 0 0-1.037-.132h-2.11v8.74Zm1.424-7.563h.686c.227.005.438.032.633.085a1.95 1.95 0 0 1 1.084.696c.156.196.281.416.375.66.074.2.131.418.17.654.04.236.059.487.059.75v.697c0 .268-.02.52-.059.756-.039.236-.096.454-.17.654a2.465 2.465 0 0 1-.334.63 1.97 1.97 0 0 1-.457.45 2.028 2.028 0 0 1-.569.271c-.207.06-.435.09-.685.09h-.733v-6.392ZM40.481 39.946v-1.164h-3.528V36.32h4.091v-1.195h-5.503v8.74h5.532v-1.189h-4.12v-2.731h3.528ZM48.434 41.176h-1.412a2.607 2.607 0 0 1-.153.703 1.524 1.524 0 0 1-.31.51 1.29 1.29 0 0 1-.48.318 1.79 1.79 0 0 1-.645.108c-.204 0-.385-.028-.545-.084a1.285 1.285 0 0 1-.417-.258 1.568 1.568 0 0 1-.304-.372 2.415 2.415 0 0 1-.205-.48 3.934 3.934 0 0 1-.159-.703 6.79 6.79 0 0 1-.047-.822V38.89c0-.236.012-.467.036-.69a5.05 5.05 0 0 1 .117-.643c.066-.228.15-.434.252-.618.105-.188.236-.34.392-.456.114-.096.243-.17.387-.222a1.5 1.5 0 0 1 .498-.079c.262 0 .487.04.674.12.188.077.346.189.475.337.125.148.223.328.293.54.074.208.123.442.147.702h1.406a4.125 4.125 0 0 0-.287-1.188 2.697 2.697 0 0 0-.598-.913 2.579 2.579 0 0 0-.908-.576A3.31 3.31 0 0 0 45.44 35c-.333 0-.64.046-.92.138-.278.092-.532.22-.763.384-.242.18-.457.398-.644.654a3.543 3.543 0 0 0-.451.847c-.11.28-.192.578-.246.894a5.765 5.765 0 0 0-.083.985v1.194c0 .356.028.698.083 1.026.058.329.144.633.257.913.114.284.252.546.416.786.168.236.364.438.587.606.23.18.492.32.785.42.297.097.621.145.973.145.43 0 .82-.066 1.172-.198.355-.136.662-.329.92-.577.254-.244.459-.538.615-.882a3.62 3.62 0 0 0 .293-1.159ZM54.898 39.946v-1.164H51.37V36.32h4.09v-1.195h-5.502v8.74h5.532v-1.189h-4.12v-2.731h3.528ZM58.602 40.534h1.448c.43 0 .824-.064 1.183-.192.364-.128.676-.31.938-.546.262-.232.465-.51.61-.834.144-.329.216-.695.216-1.099 0-.42-.072-.798-.216-1.134a2.436 2.436 0 0 0-.61-.859 2.745 2.745 0 0 0-.938-.546 3.609 3.609 0 0 0-1.183-.198h-2.854v8.74h1.406v-3.332Zm0-1.176v-3.055h1.448c.238.004.45.044.638.12.192.076.354.184.487.324s.232.306.299.498c.07.188.105.398.105.63 0 .212-.035.408-.105.588-.067.18-.166.337-.3.469a1.428 1.428 0 0 1-.486.312c-.187.072-.4.11-.638.114h-1.448ZM70.352 36.32v-1.194h-6.646v1.195h2.614v7.544h1.4v-7.544h2.632ZM71.718 35.126v1.195h1.781v6.356h-1.781v1.188h5.028v-1.188h-1.823v-6.356h1.823v-1.195h-5.028ZM84.5 40.078v-1.152c0-.365-.032-.715-.094-1.05a4.57 4.57 0 0 0-.282-.955 3.671 3.671 0 0 0-.422-.763 2.87 2.87 0 0 0-.591-.606 2.668 2.668 0 0 0-.768-.402 2.92 2.92 0 0 0-.938-.144c-.336 0-.645.048-.926.144a2.43 2.43 0 0 0-.744.396 2.866 2.866 0 0 0-.592.624 3.879 3.879 0 0 0-.416.78c-.117.297-.205.611-.264.943a5.932 5.932 0 0 0-.088 1.033v1.152c0 .34.028.672.082.996.055.32.137.623.246.907.114.296.254.568.422.816a2.714 2.714 0 0 0 1.354 1.044c.285.097.598.145.938.145a2.813 2.813 0 0 0 1.658-.517c.235-.176.442-.386.621-.63.18-.248.33-.518.452-.81.113-.292.199-.602.258-.93.062-.329.093-.669.093-1.021Zm-1.419-1.164v1.164c-.004.216-.017.43-.04.642-.02.208-.054.409-.1.6a2.84 2.84 0 0 1-.223.607c-.09.18-.203.336-.34.468a1.367 1.367 0 0 1-.961.378c-.207 0-.39-.034-.551-.102a1.448 1.448 0 0 1-.416-.288 1.784 1.784 0 0 1-.323-.468 3.234 3.234 0 0 1-.205-.606 4.18 4.18 0 0 1-.1-.6 6.752 6.752 0 0 1-.029-.631v-1.164c0-.217.01-.43.03-.643a4.74 4.74 0 0 1 .105-.612c.051-.224.123-.426.217-.606.094-.184.21-.342.346-.474a1.32 1.32 0 0 1 .914-.348c.2 0 .377.032.533.096.157.064.295.152.416.264.137.128.252.284.346.468.098.18.176.38.235.6.05.192.086.394.105.606.024.212.037.428.041.649ZM91.432 43.865v-8.739h-1.418l-.012 5.99-2.754-5.99h-1.43v8.74h1.424l.006-6.015 2.772 6.014h1.412ZM98.5 45v-1.135h-5.356V45H98.5Z" fill="#236BFD"/><defs><clipPath id="a"><path fill="#fff" transform="translate(41.5 3)" d="M0 0h33v24H0z"/></clipPath></defs></svg>