<svg width="111" height="48" fill="none" xmlns="http://www.w3.org/2000/svg"><path fill-rule="evenodd" clip-rule="evenodd" d="M54.303 4.098c-1.56.138-1.491.094-2.239 1.438-.423.762-.425.782-.181 2.37.305 1.981.705 2.48 2.111 2.628 1.35.141 1.239.343-.584 1.058l-.659.26-1.406-.014c-1.59-.015-1.45-.044-2.44.508-1.197.667-2.268 1.5-2.428 1.886-.093.225-.04 3.037.063 3.403.127.448.987 1.081 1.9 1.399.38.132.505.142 2.753.199 4.5.114 4.505.125.623 1.487-2.24.787-2.283.811-2.584 1.463-.332.718-.276.82.804 1.487 1.14.701.948.647 2.434.693 4.84.154 5.025.136 5.825-.551.625-.539.637-.573.698-2.04.094-2.24-.042-2.125 1.848-1.57 1.416.416 1.167.433 3.468-.25 2.019-.6 1.893-.407 1.6-2.443-.097-.667-.175-1.318-.175-1.447 0-.513-.288-.637-.938-.403-1.81.65-1.617.697-2.383-.567-.662-1.092-.758-1.186-1.773-1.745-.907-.499-.861-.483-2.417-.806-1.907-.396-1.916-.4-1.91-1.016.004-.658.172-.937.685-1.14.739-.293.722-.235.768-2.79l.038-2.124.164-.455c.194-.535.167-.697-.146-.88-.28-.165-1.887-.182-3.52-.038Zm13.535 8.445c-.497.115-.824.658-.824 1.366 0 .687-.078.853-.505 1.068-.66.334-.706.53-.246 1.058.544.626.532.627 2.358-.146 1.837-.778 1.741-.684 1.727-1.685-.021-1.472-.163-1.612-1.705-1.68-.336-.014-.699-.006-.805.019Zm.63 1.702c.592.354.57.723-.05.828-.4.067-.59-.129-.59-.61 0-.43.183-.493.64-.218Zm-10.53 2.833c-.003.635-.232 1.153-.606 1.372-.524.307-.58.086-.181-.707.433-.864.79-1.164.787-.665Zm-9.911 8.69c-.09.082-.27.449-.474.97-.435 1.11-.72 1.522-2.844 4.105-1.548 1.883-6.07 7.992-6.435 8.695-.157.3-.116.448.24.854.428.49.4.543-.76 1.476-1.076.865-1.393 1.316-1.202 1.706.15.302.35.338 1.88.339 1.7 0 1.762-.019 2.064-.604.175-.34.11-.522-.481-1.345-.85-1.182-.789-1.263.793-1.043 1.456.202 2.39.177 2.925-.076.492-.234 5.224-4.919 7.364-7.292 1.843-2.042 1.67-1.928 2.996-1.99 1.414-.066 1.22-.142 3.75 1.469 2.736 1.742 2.294 1.218 4.025 4.768 1.53 3.139 1.647 3.34 1.993 3.431.686.182 2.152.215 3.628.083 1.633-.147 1.635-.143.798 1.168-.92 1.443-.807 1.518 2.304 1.518 2.196 0 2.36-.022 2.688-.349.527-.528.203-.778-1.973-1.522-1.965-.671-2.085-.758-1.649-1.18.434-.422.42-.517-.299-2.1l-.834-1.836a14.124 14.124 0 0 1-.583-1.513c-.42-1.443-.733-1.886-2.59-3.661-1.78-1.703-2.057-1.99-3.697-3.852-1.849-2.097-1.732-2.016-2.574-1.797-.292.076-.845.18-1.229.233-1.133.156-1.16.224-.582 1.427.581 1.21.534 1.338-.494 1.338-.886 0-.96-.068-1.044-.96-.066-.7-.165-.866-.739-1.25-.525-.352-.693-.369-1.1-.11-.769.488-.922.69-1.015 1.34-.14.993-.162 1.01-1.254 1.07-.818.043-1.073-.036-1.073-.332 0-.191.45-1.28.699-1.695.424-.704.36-.792-.792-1.085a53.019 53.019 0 0 1-1.303-.352c-.735-.212-.934-.22-1.127-.046Z" fill="#222B45"/></svg>