<svg width="111" height="48" fill="none" xmlns="http://www.w3.org/2000/svg"><path d="M38.764 26.966h.153c.441 0 .772.114.992.343.22.22.33.554.33 1.003 0 .481-.113.828-.342 1.04-.22.212-.598.318-1.133.318h-2.905c-.527 0-.909-.106-1.145-.318-.228-.212-.342-.559-.342-1.04 0-.449.11-.783.33-1.003.229-.229.567-.343 1.016-.343h.141v-3.535c0-.978-.134-1.672-.401-2.08-.26-.415-.697-.623-1.31-.623-.654 0-1.19.249-1.607.746-.409.49-.613 1.142-.613 1.957v3.535h.141c.449 0 .783.114 1.004.343.22.22.33.554.33 1.003 0 .481-.114.828-.342 1.04-.228.212-.606.318-1.133.318H29c-.528 0-.906-.106-1.134-.318-.228-.212-.342-.559-.342-1.04 0-.449.11-.783.33-1.003.22-.229.555-.343 1.004-.343H29v-5.92h-.201c-.425 0-.748-.11-.968-.33-.22-.229-.331-.559-.331-.991 0-.481.114-.828.342-1.04.229-.212.614-.318 1.158-.318h2.007c.22 0 .385.045.495.134.119.09.178.22.178.392v.954c.362-.587.822-1.027 1.381-1.321.567-.302 1.22-.453 1.96-.453 1.26 0 2.196.396 2.81 1.187.622.791.933 1.998.933 3.62v4.086ZM48.327 20.679c-.92 0-1.68.314-2.278.942-.59.62-.886 1.415-.886 2.385 0 .979.295 1.79.886 2.434.598.636 1.357.954 2.278.954s1.68-.317 2.28-.954c.597-.644.896-1.455.896-2.434 0-.97-.299-1.765-.897-2.385-.59-.628-1.35-.942-2.279-.942Zm0-2.581c1.913 0 3.464.554 4.652 1.664 1.189 1.108 1.783 2.532 1.783 4.269 0 1.745-.594 3.172-1.783 4.28-1.188 1.11-2.739 1.665-4.652 1.665-1.904 0-3.451-.555-4.64-1.664-1.188-1.11-1.783-2.536-1.783-4.281 0-1.737.595-3.16 1.783-4.27 1.197-1.109 2.743-1.663 4.64-1.663ZM59.733 29.498a2.31 2.31 0 0 1-.638.367c-.212.09-.433.135-.661.135-.338 0-.578-.094-.72-.281-.134-.188-.2-.539-.2-1.052V27.04c0-.538.086-.918.259-1.138.173-.228.472-.342.897-.342.465 0 .842.232 1.134.697.173.253.318.44.436.563.386.358.835.628 1.346.807.512.18 1.095.269 1.748.269.567 0 1.02-.114 1.358-.343.338-.228.507-.526.507-.892 0-.661-.909-1.118-2.727-1.37a18.28 18.28 0 0 1-.945-.135c-1.37-.196-2.389-.579-3.058-1.15-.669-.579-1.003-1.354-1.003-2.324 0-1.15.401-2.039 1.204-2.667.803-.628 1.948-.942 3.436-.942.512 0 1.035.045 1.57.135.543.082 1.098.212 1.665.391.165-.204.339-.354.52-.452a1.34 1.34 0 0 1 .625-.147c.323 0 .567.106.732.318.173.204.26.514.26.93v1.504c0 .351-.087.624-.26.82-.173.187-.417.281-.732.281-.322 0-.877-.29-1.665-.868-.779-.587-1.562-.881-2.349-.881-.614 0-1.09.106-1.429.318-.338.204-.507.49-.507.856 0 .571.708.954 2.125 1.15.41.05.732.09.968.122 1.779.27 2.999.673 3.66 1.212.67.53 1.004 1.32 1.004 2.373 0 1.231-.441 2.185-1.323 2.862-.873.669-2.117 1.003-3.73 1.003-.63 0-1.236-.045-1.819-.135a11.311 11.311 0 0 1-1.688-.366ZM74.16 24.74c.205.905.599 1.582 1.181 2.03.59.45 1.374.673 2.35.673s1.94-.244 2.893-.734c.952-.497 1.527-.746 1.724-.746.29 0 .527.114.708.343.189.22.283.505.283.856 0 .767-.547 1.427-1.64 1.982-1.095.554-2.449.832-4.062.832-1.905 0-3.456-.555-4.652-1.664-1.189-1.11-1.783-2.536-1.783-4.281 0-1.737.594-3.16 1.783-4.27 1.196-1.109 2.747-1.663 4.652-1.663 1.7 0 3.109.522 4.226 1.566 1.118 1.035 1.677 2.307 1.677 3.816 0 .481-.114.811-.342.99-.22.18-.681.27-1.382.27h-7.615Zm6.365-1.908c-.134-.759-.48-1.346-1.04-1.762-.55-.416-1.27-.623-2.16-.623-.858 0-1.55.2-2.078.599-.52.391-.882.987-1.086 1.786h6.364Z" fill="#222B45"/></svg>