<svg width="111" height="48" fill="none" xmlns="http://www.w3.org/2000/svg"><path d="M89.217 21.946c-1.18 0-1.927.573-2.478 1.452 0-.23.118-.497.118-.688v-.382H84.89v9.557h1.967V26.38c0-1.567.865-2.523 2.36-2.523h.393v-1.912h-.393ZM9.249 25.463c-.55-.841-1.337-1.415-2.478-1.415-1.81 0-3.108 1.338-3.108 3.02s1.298 3.02 3.108 3.02c1.14 0 1.927-.535 2.478-1.376l1.81 1.032c-.866 1.3-2.479 2.255-4.288 2.255C3.428 32 1.5 29.553 1.5 27.106c0-2.446 1.967-4.893 5.271-4.893 2.045 0 3.343.956 4.287 2.256l-1.809.994ZM12.79 22.443h2.045v5.198c0 1.377 1.022 2.332 2.32 2.332 1.26 0 2.321-.993 2.321-2.331v-5.2h2.046v5.353c0 2.599-2.085 4.166-4.366 4.166-2.282 0-4.366-1.567-4.366-4.166v-5.352ZM31.119 25.463c-.55-.841-1.337-1.415-2.478-1.415-1.81 0-3.108 1.338-3.108 3.02s1.298 3.02 3.108 3.02c1.14 0 1.928-.535 2.478-1.376l1.81 1.032c-.866 1.3-2.479 2.255-4.288 2.255-3.343 0-5.271-2.446-5.271-4.893 0-2.446 1.927-4.893 5.271-4.893 2.045 0 3.343.956 4.287 2.256l-1.809.994ZM34.66 22.443h2.045v5.198c0 1.377 1.023 2.332 2.32 2.332 1.26 0 2.322-.993 2.322-2.331v-5.2h2.045v5.353c0 2.599-2.085 4.166-4.366 4.166-2.282 0-4.366-1.567-4.366-4.166v-5.352ZM45.949 25.921c0-2.37 1.613-3.708 3.5-3.708 1.456 0 2.479.688 2.872 1.644h.04c.393-.994 1.416-1.644 2.87-1.644 1.89 0 3.502 1.376 3.502 3.708v5.81h-2.046v-5.81c0-1.108-.707-1.758-1.573-1.758-.983 0-1.691.573-1.691 2.026v5.505h-2.046v-5.505c0-1.453-.708-2.026-1.691-2.026-.866 0-1.574.65-1.574 1.758v5.773H45.95V25.92Z" fill="#222B45"/><path fill-rule="evenodd" clip-rule="evenodd" d="M63.296 19.69h-2.045v12.08h2.045v-1.146h.04c.472.764 1.77 1.376 3.107 1.376 2.478 0 4.956-1.797 4.956-4.893 0-3.097-2.478-4.893-4.956-4.893-1.337 0-2.635.611-3.107 1.376h-.04v-3.9Zm0 7.416c0-1.72 1.259-3.02 2.95-3.02 1.73 0 2.99 1.262 2.99 3.02 0 1.72-1.26 3.02-2.99 3.02-1.691 0-2.95-1.3-2.95-3.02ZM82.414 29.706Zm-4.445 2.255c1.73 0 3.304-.84 4.445-2.255l-1.731-.956c-.708.918-1.652 1.453-2.753 1.453-1.417 0-2.793-1.032-2.911-2.447h7.906v-.344c0-3.593-2.99-5.199-4.956-5.199-3.304 0-5.271 2.409-5.271 4.855 0 2.447 1.927 4.893 5.27 4.893Zm-.276-8.028c1.338 0 2.4.765 2.832 2.18H74.98c.354-1.377 1.416-2.18 2.714-2.18Z" fill="#222B45"/><path d="M105.198 32.14a7.115 7.115 0 0 1-2.03-.294c-.654-.206-1.204-.486-1.652-.84l.784-1.414c.354.289.784.522 1.288.7a4.73 4.73 0 0 0 1.582.266c.653 0 1.162-.131 1.526-.392.364-.271.546-.635.546-1.092 0-.448-.168-.803-.504-1.064-.336-.262-.878-.392-1.624-.392h-.896v-1.246l2.8-3.332.238.686h-5.264V22.2h6.678v1.218l-2.8 3.332-.952-.56h.546c1.204 0 2.104.27 2.702.812.606.532.91 1.218.91 2.058 0 .55-.14 1.059-.42 1.526-.28.466-.71.844-1.288 1.134-.57.28-1.293.42-2.17.42Z" fill="#222B45"/><path fill-rule="evenodd" clip-rule="evenodd" d="M88.75 14.26c0-3.46 2.881-6.26 6.441-6.26.7 0 1.373.109 2.004.31.086.025.17.056.253.087l.091.033.024.01a5.202 5.202 0 0 1 .837.397c2.033 1.164 3.238 3.563 3.085 5.913-.255 3.903-3.668 6.877-7.523 7.442V20.4c-2.965-.563-5.212-3.094-5.212-6.14Zm7.16-3.704a.713.713 0 0 1 .615-.238c.367.036.712.322.688.728 0 .153-.044.35-.123.502-.236.535-.703.877-1.254.992-.354-.42-.432-.994-.197-1.53l.014-.025c.074-.144.146-.284.257-.428Zm-2.954.49c0-.382.341-.66.7-.693.216-.02.441.053.603.24.112.108.184.249.259.393l.012.024a1.513 1.513 0 0 1-.16 1.53c-.55-.115-1.055-.457-1.29-.992a1.175 1.175 0 0 1-.124-.502Zm-1.227 1.148c-.62.03-.897.788-.38 1.182.156.115.309.199.466.275.551.23 1.188.15 1.66-.155-.118-.497-.519-.954-1.07-1.183a1.442 1.442 0 0 0-.553-.12.642.642 0 0 0-.11 0h-.013Zm5.038 2.604a1.84 1.84 0 0 1 1.02-.287c.217.004.433.045.64.131l.027.014c.148.071.292.141.44.25.55.381.204 1.232-.504 1.194-.197 0-.357-.043-.553-.12-.551-.229-.952-.685-1.07-1.182Zm-4.35-.251a1.742 1.742 0 0 0-.639.131c-.197.077-.35.16-.467.275-.512.42-.167 1.221.54 1.183.197 0 .397-.043.554-.12.55-.229.941-.685 1.02-1.182a1.8 1.8 0 0 0-1.008-.287Zm.737 2.162c.236-.535.703-.877 1.254-.991.315.458.396 1.032.16 1.528l-.013.025c-.074.144-.146.285-.258.43-.393.496-1.305.148-1.266-.502 0-.153.044-.337.123-.49Zm2.717-.956c-.315.42-.396.994-.16 1.53l.013.025c.074.144.146.284.257.392.433.46 1.343.12 1.303-.453 0-.153-.044-.35-.123-.502-.236-.535-.74-.877-1.29-.992Z" fill="#00A818"/></svg>