<svg width="111" height="48" fill="none" xmlns="http://www.w3.org/2000/svg"><path fill-rule="evenodd" clip-rule="evenodd" d="M23.286 22.281h-1.55l-.384-.53v-4.15h2.32v4.15l-.386.53Zm13.022 4.289c.016.689.439 1.393 1.222 1.393.47 0 .814-.22 1.05-.61.218-.392.218-.97.218-1.41v-5.618h-1.221v-1.784h4.557v1.784h-1.206v5.885c0 1.002-.063 1.784-.767 2.598-.626.72-1.644 1.127-2.615 1.127-2.005 0-3.54-1.33-3.461-3.365h2.223Zm12.934-1.08c0-1.377-1.143-2.489-2.521-2.489-1.425 0-2.522 1.174-2.522 2.583 0 1.362 1.144 2.488 2.49 2.488 1.44 0 2.553-1.158 2.553-2.582Zm-2.733 4.445c1.097 0 2.083-.423 2.694-1.346v1.127h2.991V27.93h-1.05v-4.789h1.05v-1.784h-2.991v1.19c-.58-.908-1.519-1.409-2.6-1.409-2.442 0-4.384 2.019-4.384 4.445 0 2.363 1.895 4.35 4.29 4.35Zm8.21-2.645c.063.751.564 1.252 1.347 1.252.58 0 1.143-.407 1.143-1.033 0-.77-.675-.947-1.286-1.106a22.36 22.36 0 0 1-.139-.037c-1.456-.375-3.053-.829-3.053-2.66 0-1.596 1.346-2.52 2.834-2.52.751 0 1.425.157 1.895.751v-.579h1.409v2.27h-1.848c-.031-.595-.485-.986-1.08-.986-.517 0-1.065.297-1.065.876 0 .778.758.953 1.367 1.093l.011.002c1.503.345 3.116.815 3.116 2.693 0 1.69-1.425 2.629-2.99 2.629-.847 0-1.614-.266-2.162-.908v.689h-1.456V27.29h1.958Zm5.172-4.148h1.08v4.79h-1.08v1.784h4.071V27.93h-1.08V25.35c0-.642.03-1.19.454-1.706.344-.422.799-.61 1.33-.61.565 0 1.113.266 1.38.767.25.438.25 1.064.25 1.565v2.567h-1.081v1.784h4.072V27.93h-1.08V25.24c0-.61 0-1.08.39-1.58.33-.407.893-.626 1.41-.626.532 0 1.05.234 1.362.688.251.485.251.97.251 1.518v2.692h-1.08v1.785h4.071V27.93h-1.08V24.77c0-.955 0-1.784-.658-2.551a3.227 3.227 0 0 0-2.412-1.065c-1.159 0-2.286.69-2.74 1.753-.47-1.048-1.441-1.753-2.6-1.753-1.065 0-1.879.58-2.411 1.456v-1.252h-2.82v1.784Zm18.336-2.582h-1.91v-2.02h1.91v2.02Zm1.08 7.372h-1.081v-6.574h-2.992v1.784h1.081v4.79h-1.096v1.784h4.087v-1.784Zm1.66-4.79h-1.08v-1.784h2.991v1.19c.501-.924 1.44-1.378 2.474-1.378.908 0 1.8.376 2.412 1.033.689.767.704 1.503.704 2.457v3.272h1.08v1.784h-4.07v-1.784h1.08v-2.708c0-.517 0-1.049-.33-1.503-.344-.453-.907-.672-1.471-.672-.58 0-1.175.234-1.519.704-.36.469-.36 1.189-.36 1.753v2.426h1.08v1.784h-4.071v-1.784h1.08v-4.79Zm13.14-.328c1.237 0 2.302.767 2.63 1.972h-5.073c.235-1.096 1.315-1.972 2.443-1.972Zm4.083 4.445c-.657 1.596-2.207 2.676-3.946 2.676-2.443 0-4.4-1.91-4.4-4.367 0-2.473 1.863-4.46 4.353-4.46 1.16 0 2.318.516 3.132 1.346.83.876 1.175 1.94 1.175 3.13l-.063.673h-6.765c.25 1.158 1.316 2.003 2.506 2.003.83 0 1.55-.313 2.02-1.001h1.988Zm-77.454-3.127.479-1.473-.385-.53-3.95-1.282-.716 2.205 3.95 1.282.622-.202Zm.199.611 1.254.91v.655l-2.441 3.358-1.877-1.363 2.44-3.357.624-.203Zm3.151 0-1.254.91v.655l2.44 3.358 1.878-1.363-2.441-3.358-.623-.202Zm.202-.611-.48-1.473.386-.53 3.949-1.282.717 2.205-3.95 1.282-.622-.202Z" fill="#8A4182"/><path fill-rule="evenodd" clip-rule="evenodd" d="M12.5 23.998C12.5 18.485 16.988 14 22.506 14c5.516 0 10.004 4.485 10.004 9.998C32.51 29.513 28.022 34 22.506 34 16.989 34 12.5 29.513 12.5 23.998Zm17.986 0c0-4.404-3.573-7.974-7.979-7.974-4.407 0-7.98 3.57-7.98 7.974a7.978 7.978 0 0 0 7.98 7.977 7.978 7.978 0 0 0 7.979-7.977Z" fill="#8A4182"/><path fill-rule="evenodd" clip-rule="evenodd" d="M18.445 18.829 20.3 21.38l.52-.378-1.854-2.552-.52.378Zm6.286 2.575-.52-.377 1.855-2.552.52.377-1.855 2.552Zm3.83 4.817-3.002-.975.198-.611 3.002.975-.198.611Zm-12.132-.038-.198-.612 3.001-.974.199.611-3.002.975Zm6.374 4.19h-.643V27.22h.643v3.154Z" fill="#8A4182"/></svg>