<svg width="111" height="48" fill="none" xmlns="http://www.w3.org/2000/svg"><path d="m74.28 35.856-17.56 9.825a2.492 2.492 0 0 1-2.44 0l-17.56-9.825c-.757-.425-1.22-1.204-1.22-2.03V14.174c0-.85.463-1.606 1.22-2.031l17.56-9.825a2.492 2.492 0 0 1 2.44 0l17.56 9.825c.757.425 1.22 1.204 1.22 2.03v19.651a2.454 2.454 0 0 1-1.22 2.031Z" fill="#8D6748"/><path fill-rule="evenodd" clip-rule="evenodd" d="M55.5 5.165c-.371 0-.743.094-1.066.283l-15.419 8.48a1.99 1.99 0 0 0-1.066 1.748v16.959c0 .732.397 1.394 1.066 1.748l15.42 8.48c.322.189.693.283 1.065.283s.744-.094 1.066-.283l15.42-8.48a1.99 1.99 0 0 0 1.065-1.748v-16.96c0-.731-.396-1.393-1.066-1.747l-15.419-8.48a2.114 2.114 0 0 0-1.066-.283Zm-.002.791c.246 0 .468.07.69.188l15.335 8.43c.419.235.69.682.69 1.151v16.861c0 .47-.271.916-.69 1.15l-15.335 8.43a1.448 1.448 0 0 1-.69.189 1.375 1.375 0 0 1-.69-.188l-15.335-8.43a1.34 1.34 0 0 1-.69-1.15V15.724c0-.47.27-.915.69-1.15l15.334-8.43c.222-.118.469-.189.69-.189h.001Zm1.163 14.96a.215.215 0 0 1-.169.074h-2.841a.215.215 0 0 1-.169-.075c-1.205-1.428-1.326-4.36-1.326-5.213 0-.15.12-.25.241-.25h5.349c.144 0 .24.125.24.25 0 .877-.12 3.81-1.325 5.213Zm-3.397-4.673h3.63c.137 0 .274.098.274.246 0 .688-.137 2.629-1.072 3.636a.392.392 0 0 1-.22.074h-1.622a.264.264 0 0 1-.192-.074c-.935-.982-1.045-2.948-1.073-3.636 0-.123.11-.246.275-.246Zm2.097-2.942c.43.875-.273 1.36-.273 1.36.02-.14-.059-.577-.215-.784-.414-.735-.126-1.126.122-1.462l.093-.129c-.098.162.02.553.273 1.014Zm-1.107 1.36s.71-.322.266-.918c-.253-.284-.373-.547-.281-.65l.015-.015a.116.116 0 0 0-.015.014l-.073.066c-.256.23-.543.485-.12.998.149.114.208.413.208.504Zm1.327 4.747h-1.08c-.043 0-.108-.02-.13-.059-.26-.293-.432-.683-.54-1.094 0 0 1.253.157 1.967-.078.518-.176.54-.352.54-.352-.087.528-.26 1.134-.627 1.524a.195.195 0 0 1-.13.059Zm-9.469 7.098v-4.724h-.924l-1.525 2.22-1.524-2.22h-.925v4.747h.875v-3.377l1.55 2.196h.024l1.575-2.22v3.378h.874Zm4.094-4.724c.351 0 .68.069.984.183.305.115.562.298.773.505.211.206.375.459.492.757.117.275.188.596.188.917v.023c0 .32-.07.62-.188.917-.118.284-.294.54-.515.757-.211.207-.469.39-.773.505-.305.137-.633.183-.985.183-.351 0-.68-.069-.984-.183a2.24 2.24 0 0 1-.773-.505 2.132 2.132 0 0 1-.492-.757 2.381 2.381 0 0 1-.188-.917v-.023c0-.321.07-.62.188-.917.118-.284.294-.541.515-.757.211-.207.469-.39.773-.505.305-.137.633-.183.985-.183Zm1.621 2.407c0 .199-.048.398-.121.597-.098.178-.195.355-.342.487-.15.135-.322.247-.511.332a1.574 1.574 0 0 1-.658.133c-.22 0-.463-.044-.658-.133a1.958 1.958 0 0 1-.512-.332 1.487 1.487 0 0 1-.341-.509 1.765 1.765 0 0 1-.122-.62v-.022c0-.199.049-.398.122-.597.098-.178.195-.354.341-.487a1.96 1.96 0 0 1 .512-.332c.195-.089.414-.133.658-.133.243 0 .463.044.658.133.189.085.362.197.511.332.147.155.269.31.342.509.073.199.121.398.121.62v.022Zm3.697-1.192c-.133.138-.223.321-.312.505a2.016 2.016 0 0 0-.112.62v.022c0 .23.045.436.112.642.067.206.179.367.312.528.134.137.29.275.469.344.178.068.379.137.58.137.267 0 .513-.046.691-.16.178-.115.38-.252.58-.436l.513.527a2.351 2.351 0 0 1-.328.32L58 26.07a1.927 1.927 0 0 1-.401.253 1.621 1.621 0 0 1-.469.16c-.2.046-.401.046-.602.046a2.218 2.218 0 0 1-.892-.183 2.263 2.263 0 0 1-.714-.505 2.146 2.146 0 0 1-.468-.757 2.578 2.578 0 0 1-.179-.917v-.023c.001-.315.062-.627.179-.917.113-.278.271-.534.468-.757.2-.207.446-.39.736-.505.29-.114.58-.183.937-.183.2 0 .38.023.558.046.12.03.219.061.319.092l.149.045c.134.07.268.138.379.23.112.091.223.183.335.298l-.513.596a3.22 3.22 0 0 0-.558-.413c-.2-.115-.424-.16-.691-.16-.223 0-.402.045-.58.137a1.792 1.792 0 0 0-.469.344Zm4.465-1.215v4.747h.86v-1.994h2.36v1.994h.861v-4.747h-.86v1.97h-2.361v-1.97h-.86Zm10.61 4.747h-.87l-.472-1.134h-2.213l-.495 1.134h-.847l2.072-4.747h.753l2.073 4.747Zm-3.263-2.373.817-1.583.816 1.582h-1.633Zm4.043 4.747h-31.76v-.791h31.76v.791Zm-13.357-9.891a7.732 7.732 0 0 0-.013.396h13.373v-.791H58.034c0 .143-.006.269-.012.395Zm-18.402-.395h12.512c0 .144.006.27.012.396.006.125.012.251.012.395H39.62v-.791Z" fill="#fff"/></svg>