<svg width="111" height="48" fill="none" xmlns="http://www.w3.org/2000/svg"><mask id="a" style="mask-type:luminance" maskUnits="userSpaceOnUse" x="48" y="8" width="21" height="21"><path fill-rule="evenodd" clip-rule="evenodd" d="M48.625 8.936h19.794v19.943H48.625V8.936Z" fill="#fff"/></mask><g mask="url(#a)"><path fill-rule="evenodd" clip-rule="evenodd" d="M60.188 21.945c-1.438 0-2.876-.006-4.314.005-.311.002-.735-.103-.725.436.01.542.446.41.747.412 1.557.016 3.115.007 4.673.01 1.047.002 1.047.004 1.049 1.014 0 .599-.028 1.2.006 1.797.06 1.04-.438 1.764-1.306 2.21-.631.325-1.314.625-2.007.744-2.283.395-4.584.484-6.833-.197-1.674-.507-2.965-1.489-2.845-3.678.089-1.625.014-3.259.018-4.888.006-2.556 1.258-3.858 3.825-3.905 2.037-.038 4.075.016 6.111-.024.61-.011 1.257-.099 1.817-.325 1.326-.535 1.854-1.686 1.962-3.023.077-.952.039-1.915.023-2.873-.008-.516.188-.765.719-.719.166.015.335.001.503.001 2.913-.001 4.62 1.611 4.746 4.556.057 1.34.113 2.694-.02 4.022-.19 1.908-.974 3.522-2.928 4.24-.434.16-.938.165-1.41.173-1.27.022-2.541.007-3.811.007v.005Z" fill="#FFDA5E"/></g><mask id="b" style="mask-type:luminance" maskUnits="userSpaceOnUse" x="41" y="2" width="21" height="20"><path fill-rule="evenodd" clip-rule="evenodd" d="M41.5 2h19.954v19.824H41.5V2Z" fill="#fff"/></mask><g mask="url(#b)"><path fill-rule="evenodd" clip-rule="evenodd" d="M54.223 8.925c.336-.001.728.045.736-.464.008-.516-.387-.471-.722-.472-1.679-.004-3.358-.016-5.036.011-.598.01-.843-.196-.803-.793.036-.55.007-1.102.008-1.654.002-1.535.483-2.282 1.946-2.847 2.243-.867 4.572-.805 6.905-.503 1.294.167 2.526.525 3.469 1.5.529.547.75 1.18.727 1.957-.052 1.797-.029 3.596-.034 5.394-.008 2.475-1.217 3.713-3.743 3.76-1.97.036-3.944-.044-5.91.045-.872.04-1.806.222-2.577.604-1.281.635-1.617 1.905-1.679 3.227-.033.718 0 1.439-.003 2.158-.003.971-.005.971-.954.976-3.191.016-4.707-1.321-4.99-4.677a18.76 18.76 0 0 1 .194-4.639c.325-1.93 1.796-3.766 4.366-3.6 1.236.079 6.64.023 8.1.017Z" fill="#4282AD"/></g><path fill-rule="evenodd" clip-rule="evenodd" d="M52.5 4.879a1 1 0 1 1-2 0 1 1 0 0 1 2 0ZM59.5 25.879a1 1 0 1 1-2 0 1 1 0 0 1 2 0Z" fill="#FEFEFE"/><path d="M15.62 38.402c0 .97-.316 1.712-.948 2.228-.633.517-1.533.775-2.7.775h-.961v3.472H9.5v-9.28h2.662c1.154 0 2.018.237 2.592.71.577.475.866 1.173.866 2.095ZM11.01 40.13h.803c.775 0 1.344-.136 1.707-.406.362-.271.544-.694.544-1.27 0-.533-.163-.93-.487-1.193-.325-.263-.83-.394-1.518-.394h-1.049v3.263ZM16.246 37.856h1.618l1.423 3.98c.215.568.358 1.1.43 1.6h.05c.038-.233.108-.514.209-.844.101-.334.636-1.913 1.606-4.736h1.605l-2.99 7.954c-.544 1.46-1.45 2.19-2.718 2.19-.33 0-.65-.036-.961-.108v-1.18c.223.05.478.076.765.076.716 0 1.22-.417 1.51-1.25l.26-.661-2.807-7.02ZM26.854 43.798a3.6 3.6 0 0 0 1.088-.172v1.124a2.882 2.882 0 0 1-.639.178c-.257.05-.524.076-.803.076-1.407 0-2.111-.745-2.111-2.234v-3.784h-.955v-.66l1.024-.546.506-1.485h.917v1.561h1.991v1.13h-1.991v3.758c0 .36.088.626.265.8.181.17.418.254.708.254ZM35.497 44.877h-1.492V40.56c0-.541-.11-.945-.33-1.212-.214-.267-.557-.4-1.03-.4-.623 0-1.083.189-1.378.565-.29.373-.436.999-.436 1.88v3.484h-1.486V35h1.486v2.507c0 .402-.025.832-.076 1.289h.095c.202-.339.482-.601.84-.787.363-.186.785-.28 1.265-.28 1.695 0 2.542.857 2.542 2.571v4.577ZM43.766 41.354c0 1.147-.293 2.042-.879 2.685-.586.643-1.401.965-2.446.965-.654 0-1.231-.148-1.733-.444a2.929 2.929 0 0 1-1.157-1.276c-.27-.555-.404-1.198-.404-1.93 0-1.138.29-2.027.872-2.666.582-.639 1.402-.959 2.46-.959 1.011 0 1.812.328 2.402.984.59.652.885 1.532.885 2.641Zm-5.09 0c0 1.62.597 2.431 1.79 2.431 1.18 0 1.77-.81 1.77-2.431 0-1.604-.594-2.406-1.783-2.406-.623 0-1.077.208-1.359.622-.278.415-.417 1.01-.417 1.784ZM51.63 44.877H50.14V40.56c0-.541-.11-.945-.329-1.212-.215-.267-.558-.4-1.03-.4-.628 0-1.088.186-1.379.559-.29.372-.436.996-.436 1.872v3.498H45.48v-7.02h1.164l.208.92h.076c.21-.334.51-.593.898-.775a3 3 0 0 1 1.29-.273c1.677 0 2.516.857 2.516 2.571v4.577ZM57.22 35.597h2.743c1.273 0 2.192.186 2.757.558.569.373.853.96.853 1.765 0 .542-.139.992-.417 1.352-.278.36-.678.586-1.201.68v.063c.649.122 1.125.366 1.429.73.307.36.461.848.461 1.466 0 .834-.29 1.487-.872 1.961-.578.47-1.383.705-2.415.705H57.22v-9.28Zm1.51 3.834h1.455c.632 0 1.093-.1 1.384-.299.291-.203.436-.546.436-1.028 0-.436-.158-.751-.474-.946-.312-.194-.809-.292-1.492-.292h-1.308v2.565Zm0 1.231v2.94h1.606c.633 0 1.109-.121 1.43-.363.324-.245.486-.63.486-1.155 0-.482-.164-.84-.493-1.073-.329-.233-.828-.349-1.498-.349h-1.53ZM68.663 45.004c-1.088 0-1.94-.317-2.554-.952-.612-.64-.917-1.517-.917-2.635 0-1.146.284-2.048.853-2.704.57-.656 1.351-.983 2.346-.983.923 0 1.652.28 2.187.844.536.563.803 1.337.803 2.323v.806h-4.66c.022.681.205 1.206.55 1.574.347.364.833.546 1.461.546.413 0 .797-.038 1.15-.114.36-.08.743-.212 1.151-.394v1.213c-.362.173-.729.296-1.1.368-.37.072-.794.108-1.27.108Zm-.272-6.145c-.472 0-.852.15-1.138.451-.282.3-.451.738-.506 1.314h3.174c-.009-.58-.148-1.018-.417-1.314-.27-.3-.641-.45-1.113-.45ZM79.22 44.877H77.73V40.56c0-.541-.11-.945-.33-1.212-.214-.267-.558-.4-1.03-.4-.623 0-1.083.189-1.378.565-.29.373-.436.999-.436 1.88v3.484h-1.486V35h1.486v2.507c0 .402-.025.832-.076 1.289h.095c.202-.339.483-.601.84-.787.363-.186.785-.28 1.265-.28 1.695 0 2.542.857 2.542 2.571v4.577ZM85.663 44.877l-.297-.978h-.05c-.338.428-.677.72-1.019.876-.341.153-.78.229-1.315.229-.687 0-1.224-.186-1.612-.559-.383-.372-.575-.899-.575-1.58 0-.724.268-1.27.803-1.638.535-.368 1.35-.57 2.447-.603l1.207-.038v-.375c0-.448-.105-.782-.316-1.002-.207-.225-.529-.337-.967-.337-.359 0-.702.053-1.03.159-.33.106-.646.23-.95.374l-.48-1.066c.38-.199.795-.35 1.246-.45a5.601 5.601 0 0 1 1.277-.16c.89 0 1.56.195 2.01.584.456.39.683 1.001.683 1.835v4.729h-1.062Zm-2.213-1.016c.54 0 .972-.15 1.296-.45.329-.305.493-.73.493-1.276v-.61l-.897.038c-.7.026-1.21.144-1.53.356-.316.207-.474.527-.474.958 0 .314.092.557.278.73.185.17.463.254.834.254ZM90.392 44.877l-2.655-7.02h1.568l1.422 4.081c.245.685.392 1.24.443 1.663h.05c.038-.305.186-.859.443-1.663l1.422-4.082h1.58l-2.667 7.021h-1.606ZM98.781 45.004c-1.087 0-1.938-.317-2.554-.952-.61-.64-.916-1.517-.916-2.635 0-1.146.284-2.048.853-2.704.57-.656 1.35-.983 2.346-.983.923 0 1.652.28 2.187.844.535.563.803 1.337.803 2.323v.806h-4.66c.022.681.205 1.206.55 1.574.346.364.833.546 1.461.546.413 0 .797-.038 1.151-.114.358-.08.741-.212 1.15-.394v1.213a4.539 4.539 0 0 1-1.1.368c-.37.072-.794.108-1.27.108Zm-.271-6.145c-.472 0-.852.15-1.138.451-.283.3-.451.738-.506 1.314h3.174c-.009-.58-.148-1.018-.418-1.314-.27-.3-.64-.45-1.112-.45Z" fill="#2F3C5F"/></svg>