<svg width="111" height="48" fill="none" xmlns="http://www.w3.org/2000/svg"><path d="M13.967 30.886a.998.998 0 0 1-1.035.164l-1.817-.767a1.002 1.002 0 0 1-.615-.922V18.639a1.01 1.01 0 0 1 .615-.922l1.817-.754a.995.995 0 0 1 1.035.163l.408.34a.55.55 0 0 0-.875.452v12.164a.557.557 0 0 0 .593.555.551.551 0 0 0 .282-.102l-.408.351Z" fill="#52218A"/><path d="M11.115 30.283a1.001 1.001 0 0 1-.615-.922v-.083a.582.582 0 0 0 .369.535.574.574 0 0 0 .631-.146L27 12.44a1.497 1.497 0 0 1 1.705-.291l4.945 2.392a1.503 1.503 0 0 1 .85 1.36v.058a.957.957 0 0 0-.542-.86.942.942 0 0 0-1.005.123L14.375 30.535l-.408.351a.998.998 0 0 1-1.035.164l-1.817-.767Z" fill="#6C33AF"/><path d="M11.115 17.717a1.002 1.002 0 0 0-.615.922v.083a.582.582 0 0 1 .369-.535.574.574 0 0 1 .631.146L27 35.56a1.498 1.498 0 0 0 1.705.292l4.945-2.393a1.503 1.503 0 0 0 .85-1.36v-.058a.957.957 0 0 1-.542.86.942.942 0 0 1-1.005-.123L14.375 17.466l-.408-.352a.997.997 0 0 0-1.035-.151l-1.817.754Z" fill="#854CC7"/><path d="M28.701 35.852a1.493 1.493 0 0 1-1.705-.291.878.878 0 0 0 1.5-.626V13.07a.888.888 0 0 0-.54-.82.876.876 0 0 0-.96.189 1.497 1.497 0 0 1 1.705-.291l4.945 2.39a1.503 1.503 0 0 1 .85 1.36v16.205a1.514 1.514 0 0 1-.85 1.36l-4.945 2.39Z" fill="#B179F1"/><path d="m51.603 17.182-4.446 12.645h-2.21L40.5 17.182h2.14l2.68 7.923c.082.23.169.51.262.838.098.33.188.66.27.995.087.335.153.632.2.891.046-.26.11-.556.191-.89.087-.335.177-.667.27-.996.093-.328.18-.61.26-.847l2.69-7.914h2.14ZM60.618 26.385c0 .75-.186 1.395-.557 1.937-.365.542-.893.957-1.584 1.245-.684.289-1.502.433-2.453.433-.465 0-.908-.026-1.332-.078a9.245 9.245 0 0 1-1.2-.225 6.548 6.548 0 0 1-1.019-.372v-1.954c.517.225 1.094.43 1.732.614a7.19 7.19 0 0 0 1.95.268c.539 0 .985-.07 1.34-.208.359-.144.626-.346.8-.605a1.65 1.65 0 0 0 .26-.926c0-.374-.1-.692-.304-.951-.203-.26-.51-.496-.922-.71-.406-.219-.917-.452-1.532-.7a10.427 10.427 0 0 1-1.2-.57 4.885 4.885 0 0 1-1.01-.753 3.25 3.25 0 0 1-.705-1.021c-.168-.398-.252-.865-.252-1.401 0-.715.171-1.326.513-1.834.348-.507.836-.897 1.462-1.168.633-.27 1.37-.406 2.21-.406.668 0 1.294.07 1.88.208a9.664 9.664 0 0 1 1.74.588l-.661 1.67a11.8 11.8 0 0 0-1.523-.511 5.915 5.915 0 0 0-1.496-.19c-.441 0-.816.066-1.123.198a1.57 1.57 0 0 0-.705.563 1.5 1.5 0 0 0-.235.847c0 .37.09.68.27.934.186.248.47.476.853.684.388.207.887.438 1.496.692.702.288 1.297.59 1.784.908.493.317.87.697 1.132 1.142.26.438.391.988.391 1.652ZM71.002 29.827h-2.097v-10.88H65.18v-1.765h9.537v1.764h-3.715v10.881ZM80.295 20.07c.858 0 1.595.176 2.21.528.615.352 1.088.85 1.419 1.497.33.645.495 1.418.495 2.318v1.09h-6.43c.023.928.273 1.643.748 2.144.482.502 1.155.753 2.02.753.614 0 1.165-.058 1.652-.173.493-.121 1.001-.297 1.523-.528v1.652c-.481.225-.972.39-1.47.493-.5.104-1.097.156-1.793.156-.945 0-1.778-.182-2.497-.545a3.998 3.998 0 0 1-1.68-1.643c-.4-.727-.6-1.63-.6-2.707 0-1.073.183-1.984.548-2.734.366-.75.879-1.32 1.54-1.712.662-.392 1.433-.588 2.315-.588Zm0 1.532c-.644 0-1.166.207-1.566.622-.395.415-.627 1.024-.696 1.825h4.385a3.335 3.335 0 0 0-.244-1.271 1.846 1.846 0 0 0-.696-.865c-.307-.208-.702-.311-1.183-.311ZM93.2 27.094c0 .628-.154 1.159-.462 1.591-.307.433-.757.761-1.349.986-.585.22-1.305.329-2.157.329a8.945 8.945 0 0 1-1.74-.147 5.993 5.993 0 0 1-1.367-.433v-1.755c.458.213.972.398 1.54.553a6.228 6.228 0 0 0 1.627.234c.673 0 1.158-.104 1.454-.312a.996.996 0 0 0 .443-.847.895.895 0 0 0-.182-.554c-.116-.167-.337-.337-.662-.51-.319-.179-.789-.392-1.41-.64a11.785 11.785 0 0 1-1.54-.727c-.417-.242-.733-.533-.948-.873-.215-.346-.322-.787-.322-1.324 0-.847.337-1.49 1.01-1.928.678-.444 1.574-.666 2.688-.666.592 0 1.149.06 1.67.181a7.982 7.982 0 0 1 1.55.51l-.644 1.531a9.66 9.66 0 0 0-1.314-.467 4.734 4.734 0 0 0-1.331-.19c-.528 0-.931.08-1.21.242-.273.162-.409.392-.409.692 0 .225.067.415.2.571.134.156.363.311.688.467.33.156.789.349 1.374.58.575.219 1.07.45 1.488.692.424.236.749.527.975.873.226.346.34.793.34 1.34ZM98.995 28.357c.266 0 .53-.023.791-.07.262-.052.499-.112.714-.181v1.54c-.226.097-.52.181-.879.25A5.93 5.93 0 0 1 98.5 30a3.84 3.84 0 0 1-1.47-.268c-.436-.185-.781-.499-1.036-.943-.256-.444-.383-1.058-.383-1.842V21.8h-1.314v-.908l1.41-.718.67-2.05h1.287v2.128h2.759V21.8h-2.759v5.12c0 .485.122.846.366 1.082.243.236.565.355.966.355Z" fill="#6C33AF"/></svg>