<svg width="111" height="48" fill="none" xmlns="http://www.w3.org/2000/svg"><path d="M46.912 3.702h17.646c.478 0 .865.376.865.84 0 .465-.387.841-.865.841H46.912a.853.853 0 0 1-.865-.84c0-.465.387-.841.865-.841Z" fill="#696969"/><path d="M47.063 2h3.548v.796h-3.548V2Z" fill="#009FE3"/><path d="M51.703 2h3.548v.796h-3.548V2Z" fill="#C7D302"/><path d="M56.281 2h3.548v.796h-3.548V2Z" fill="#F07E16"/><path d="M60.84 2h3.548v.796H60.84V2ZM60.84 6.259h3.548v5.831H60.84V6.26Z" fill="#DF2815"/><path d="M56.281 6.259h3.555v9.473H56.28V6.26Z" fill="#F07E16"/><path d="M51.703 6.259h3.548v14.19h-3.548V6.26Z" fill="#C7D302"/><path d="M47.063 6.259h3.548v17.295h-3.548V6.259Z" fill="#009FE3"/><path d="M35.912 41.918c-.35 0-.667-.037-.952-.112a3.441 3.441 0 0 1-.77-.299 2.805 2.805 0 0 1-.604-.436 4.113 4.113 0 0 1-.467-.528h-.107l.054.562.035.463c.012.158.018.284.018.376V46H31.5V32.25h1.316l.232 1.28h.071c.136-.202.29-.39.462-.567.172-.176.373-.328.601-.458.228-.13.485-.234.77-.311.284-.078.604-.117.96-.117.558 0 1.065.103 1.521.311.457.208.847.518 1.17.93.323.412.574.924.752 1.535.178.611.267 1.32.267 2.128 0 .813-.09 1.526-.267 2.14-.178.614-.429 1.129-.752 1.544a3.128 3.128 0 0 1-1.17.938c-.456.21-.963.316-1.52.316Zm-.311-8.536c-.45 0-.832.066-1.143.199a1.75 1.75 0 0 0-.756.605 2.804 2.804 0 0 0-.427 1.012c-.092.404-.144.88-.156 1.427v.355c0 .582.04 1.1.12 1.552.08.453.217.833.41 1.142.192.308.448.542.769.7.32.159.72.238 1.2.238.801 0 1.39-.314 1.766-.943.377-.628.565-1.53.565-2.707 0-1.199-.188-2.096-.565-2.69-.376-.593-.97-.89-1.783-.89ZM40.715 32.248h1.681l1.913 5.302c.083.231.167.473.253.727s.166.507.24.76c.075.255.138.5.192.736.053.236.092.456.115.657h.054c.03-.144.077-.34.142-.588a37.736 37.736 0 0 1 .467-1.617c.086-.271.162-.502.227-.692l1.77-5.285h1.672l-3.86 10.734c-.166.467-.346.886-.539 1.258a3.895 3.895 0 0 1-.671.947c-.255.26-.555.46-.899.601-.343.142-.753.212-1.227.212-.308 0-.575-.016-.8-.047a8.189 8.189 0 0 1-.579-.1V44.6c.125.029.282.054.471.074.19.02.389.03.596.03.285 0 .531-.033.739-.1a1.621 1.621 0 0 0 .938-.756c.11-.185.21-.395.298-.632l.507-1.384-3.7-9.583Z" fill="#696969"/><path d="M54.032 40.63c.107 0 .227-.007.36-.018.133-.012.262-.026.387-.043a4.37 4.37 0 0 0 .578-.122v1.194c-.077.035-.175.07-.293.104-.119.035-.25.065-.392.09a5.168 5.168 0 0 1-.898.083 3.62 3.62 0 0 1-1.023-.139 1.906 1.906 0 0 1-.814-.475c-.228-.225-.408-.53-.538-.913-.13-.383-.196-.866-.196-1.448v-5.51h-1.379v-.7l1.38-.675.693-1.99h.934v2.18h2.455v1.185h-2.455v5.51c0 .559.093.98.28 1.262.187.283.494.424.92.424ZM61.114 41.918a4.823 4.823 0 0 1-1.788-.32 3.838 3.838 0 0 1-1.392-.934c-.388-.41-.69-.917-.903-1.522-.213-.606-.32-1.298-.32-2.076 0-.784.098-1.485.294-2.102.195-.617.471-1.14.827-1.57.356-.429.781-.756 1.276-.981a3.923 3.923 0 0 1 1.642-.337c.587 0 1.114.102 1.583.307.468.204.866.493 1.192.865.326.372.577.818.752 1.34.174.522.262 1.1.262 1.734v.978h-6.156c.03 1.112.272 1.931.725 2.456.454.525 1.129.787 2.024.787.302 0 .583-.014.84-.043.259-.03.508-.07.748-.126a5.56 5.56 0 0 0 .698-.207c.226-.084.454-.178.685-.281v1.4c-.237.11-.47.206-.698.286a5.755 5.755 0 0 1-1.45.312 9.498 9.498 0 0 1-.84.034Zm-.4-8.536c-.676 0-1.211.224-1.606.674-.394.45-.624 1.105-.69 1.964h4.377c0-.393-.04-.751-.12-1.077a2.34 2.34 0 0 0-.373-.835c-.17-.23-.384-.41-.645-.536-.261-.127-.575-.19-.943-.19ZM72.845 39.142c0 .461-.085.865-.257 1.21-.172.347-.42.636-.743.87a3.397 3.397 0 0 1-1.17.523c-.457.116-.97.173-1.539.173-.646 0-1.2-.05-1.663-.151a4.4 4.4 0 0 1-1.22-.446v-1.435c.185.092.39.183.615.272a7.04 7.04 0 0 0 1.48.407c.265.043.527.065.788.065.386 0 .713-.032.983-.096.27-.063.49-.154.658-.272.17-.118.292-.263.37-.433.076-.17.115-.358.115-.566 0-.179-.03-.34-.089-.484a1.213 1.213 0 0 0-.325-.429 3.222 3.222 0 0 0-.644-.428 13.293 13.293 0 0 0-1.05-.484c-.427-.179-.811-.355-1.152-.528a3.98 3.98 0 0 1-.867-.58 2.232 2.232 0 0 1-.547-.738c-.128-.28-.192-.613-.192-1 0-.403.082-.762.245-1.076a2.23 2.23 0 0 1 .69-.792 3.212 3.212 0 0 1 1.067-.484c.415-.11.877-.164 1.387-.164.576 0 1.102.06 1.58.181.477.121.929.28 1.356.476l-.56 1.271a11.199 11.199 0 0 0-1.188-.436 4.231 4.231 0 0 0-1.24-.186c-.606 0-1.054.096-1.344.29a.934.934 0 0 0-.436.825c0 .202.034.378.102.528.068.15.186.291.352.424.166.132.388.266.667.402.279.135.625.287 1.04.454.427.173.808.346 1.144.519.335.173.62.367.858.584.237.216.418.462.543.74.124.276.186.607.186.994ZM78.172 40.63c.107 0 .227-.007.36-.018.134-.012.263-.026.388-.043a4.362 4.362 0 0 0 .578-.122v1.194c-.077.035-.175.07-.294.104-.118.035-.249.065-.391.09a5.168 5.168 0 0 1-.898.083 3.62 3.62 0 0 1-1.024-.139 1.906 1.906 0 0 1-.814-.475c-.228-.225-.407-.53-.538-.913-.13-.383-.195-.866-.195-1.448v-5.51h-1.38v-.7l1.38-.675.694-1.99h.934v2.18h2.455v1.185H76.97v5.51c0 .559.094.98.28 1.262.188.283.494.424.921.424Z" fill="#009FE3"/></svg>