<svg width="111" height="48" fill="none" xmlns="http://www.w3.org/2000/svg"><g clip-path="url(#a)"><path d="M33.9 30.966H21.1c-.884 0-1.6-.715-1.6-1.597v-5.588c0-.882.716-1.597 1.6-1.597.884 0 1.6.715 1.6 1.597v3.992h7.337L19.97 17.726a1.594 1.594 0 0 1 0-2.258 1.602 1.602 0 0 1 2.262 0l12.8 12.773c.458.456.595 1.143.347 1.74a1.6 1.6 0 0 1-1.478.985Zm0-7.983c-.41 0-.819-.156-1.131-.468l-4.8-4.79a1.594 1.594 0 0 1 0-2.257 1.602 1.602 0 0 1 2.262 0l4.8 4.79a1.594 1.594 0 0 1-1.131 2.725Z" fill="#222B45"/></g><path d="M43.92 18c.725 0 1.365.156 1.92.469.567.3 1.01.679 1.327 1.136v-1.443h1.955v10.096c0 .914-.182 1.725-.544 2.434a4.032 4.032 0 0 1-1.581 1.695c-.68.409-1.496.613-2.448.613-1.27 0-2.323-.319-3.162-.956-.839-.624-1.315-1.478-1.428-2.56h1.92c.148.517.46.932.936 1.244.487.325 1.065.487 1.734.487.782 0 1.41-.252 1.887-.757.487-.505.73-1.238.73-2.2V26.6c-.328.468-.776.865-1.342 1.19-.556.312-1.19.468-1.904.468a4.096 4.096 0 0 1-2.244-.649c-.669-.444-1.201-1.057-1.598-1.839-.385-.793-.578-1.688-.578-2.686 0-.997.193-1.88.578-2.65.397-.77.93-1.364 1.598-1.785A4.096 4.096 0 0 1 43.92 18Zm3.247 5.12c0-.685-.136-1.28-.408-1.785-.261-.505-.607-.89-1.037-1.154a2.616 2.616 0 0 0-1.394-.396c-.499 0-.964.132-1.394.396-.43.253-.782.631-1.054 1.136-.26.493-.391 1.082-.391 1.767 0 .685.13 1.286.39 1.803.273.517.624.913 1.055 1.19.442.264.907.397 1.394.397.498 0 .963-.133 1.394-.397.43-.265.776-.65 1.037-1.154.272-.517.408-1.118.408-1.803ZM50.313 23.084c0-.997.192-1.88.578-2.65.396-.77.929-1.364 1.598-1.785A4.096 4.096 0 0 1 54.733 18c.736 0 1.377.156 1.92.469.556.3.998.679 1.326 1.136v-1.443h1.955v9.934H57.98v-1.478c-.328.469-.776.86-1.343 1.172-.566.312-1.212.468-1.938.468a3.985 3.985 0 0 1-2.21-.649c-.668-.444-1.2-1.057-1.597-1.839-.386-.793-.578-1.688-.578-2.686Zm7.666.036c0-.685-.136-1.28-.408-1.785-.26-.505-.606-.89-1.037-1.154a2.616 2.616 0 0 0-1.393-.396c-.5 0-.964.132-1.394.396-.431.253-.782.631-1.054 1.136-.261.493-.391 1.082-.391 1.767 0 .685.13 1.286.39 1.803.273.517.624.913 1.055 1.19.441.264.906.397 1.394.397.498 0 .963-.133 1.393-.397.431-.265.777-.65 1.037-1.154.272-.517.408-1.118.408-1.803ZM70.254 18.162v9.934h-1.938v-1.172a3.227 3.227 0 0 1-1.207.974 3.64 3.64 0 0 1-1.564.342c-.736 0-1.4-.162-1.989-.486-.578-.325-1.037-.806-1.377-1.443-.328-.637-.493-1.406-.493-2.307v-5.842h1.921v5.535c0 .89.21 1.575.63 2.055.419.47.99.704 1.716.704.725 0 1.298-.235 1.717-.704.43-.48.646-1.165.646-2.055v-5.535h1.938ZM75.876 18c.726 0 1.366.156 1.921.469.567.3 1.009.679 1.326 1.136v-1.443h1.955v10.096c0 .914-.181 1.725-.544 2.434a4.032 4.032 0 0 1-1.58 1.695c-.68.409-1.497.613-2.448.613-1.27 0-2.324-.319-3.162-.956-.839-.624-1.315-1.478-1.428-2.56h1.92c.148.517.46.932.936 1.244.487.325 1.065.487 1.733.487.782 0 1.411-.252 1.887-.757.488-.505.731-1.238.731-2.2V26.6c-.328.468-.776.865-1.343 1.19-.555.312-1.19.468-1.904.468a4.096 4.096 0 0 1-2.243-.649c-.669-.444-1.202-1.057-1.598-1.839-.386-.793-.578-1.688-.578-2.686 0-.997.192-1.88.578-2.65.396-.77.929-1.364 1.598-1.785A4.096 4.096 0 0 1 75.876 18Zm3.247 5.12c0-.685-.136-1.28-.408-1.785-.26-.505-.606-.89-1.037-1.154a2.616 2.616 0 0 0-1.394-.396c-.498 0-.963.132-1.394.396-.43.253-.781.631-1.053 1.136-.261.493-.391 1.082-.391 1.767 0 .685.13 1.286.39 1.803.273.517.624.913 1.055 1.19.441.264.906.397 1.393.397.5 0 .964-.133 1.394-.397.431-.265.777-.65 1.037-1.154.272-.517.408-1.118.408-1.803ZM91.5 22.886c0 .372-.023.709-.068 1.01h-7.157c.057.793.335 1.43.833 1.91.499.481 1.11.722 1.836.722 1.043 0 1.78-.463 2.21-1.389h2.091a4.5 4.5 0 0 1-1.547 2.254c-.737.577-1.654.865-2.754.865-.895 0-1.7-.21-2.414-.63a4.597 4.597 0 0 1-1.666-1.803c-.396-.782-.595-1.683-.595-2.705 0-1.021.193-1.917.578-2.686.397-.781.947-1.382 1.65-1.803.713-.42 1.53-.631 2.447-.631.884 0 1.672.204 2.363.613.691.409 1.23.986 1.615 1.73.385.734.578 1.581.578 2.543Zm-2.023-.65c-.011-.756-.266-1.363-.765-1.82-.499-.457-1.116-.685-1.853-.685a2.39 2.39 0 0 0-1.717.685c-.476.445-.759 1.052-.85 1.82h5.185Z" fill="#222B45"/><defs><clipPath id="a"><path fill="#fff" transform="translate(19.5 15)" d="M0 0h16v16H0z"/></clipPath></defs></svg>