<svg width="111" height="48" fill="none" xmlns="http://www.w3.org/2000/svg"><mask id="a" maskUnits="userSpaceOnUse" x="2.5" y="18.285" width="87" height="13" fill="#000"><path fill="#fff" d="M2.5 18.285h87v13h-87z"/><path d="m17.901 19.286-3.367 10.64h-.371l-3.375-9.823a2.22 2.22 0 0 1-.084-.303c-.02.103-.048.204-.083.303l-3.39 9.823h-.363L3.5 19.286h.34a.16.16 0 0 1 .167.129l2.936 9.452c.053.179.095.36.129.544a5.994 5.994 0 0 1 .136-.544l3.277-9.452a.17.17 0 0 1 .182-.129h.098a.16.16 0 0 1 .166.129l3.277 9.452c.056.176.101.355.136.537.02-.1.04-.195.061-.284.02-.088.043-.173.068-.253l2.936-9.452a.17.17 0 0 1 .182-.129h.31ZM26.31 29.57l-.015.356h-6.282v-10.64h6.282v.356h-5.865v4.714h4.941v.348H20.43v4.866h5.88Zm5.388-10.284c1.16 0 2.023.232 2.588.696.565.464.848 1.123.848 1.975 0 .295-.056.586-.167.86-.111.275-.269.53-.465.752a2.78 2.78 0 0 1-.727.583c-.295.165-.616.28-.95.34.4.038.792.13 1.166.277.321.125.617.307.874.537.238.217.425.483.549.78.13.318.193.659.189 1.002.008.415-.072.826-.235 1.207a2.366 2.366 0 0 1-.685.89 3.114 3.114 0 0 1-1.1.552 5.319 5.319 0 0 1-1.484.19h-3.284V19.285h2.883Zm-2.467.333v4.76h2.52c.464.011.927-.062 1.366-.216a2.72 2.72 0 0 0 .923-.56c.23-.215.408-.478.522-.772.106-.269.16-.555.163-.843 0-.762-.249-1.347-.745-1.756-.498-.409-1.258-.613-2.282-.613H29.23Zm2.868 9.967c.994 0 1.757-.214 2.29-.64.531-.426.797-1.048.798-1.865a2.218 2.218 0 0 0-.216-.992 2.14 2.14 0 0 0-.613-.749c-.29-.219-.618-.38-.969-.477a4.586 4.586 0 0 0-1.282-.166H29.23v4.889h2.868Zm14.984-4.98a6.448 6.448 0 0 1-.363 2.236 4.736 4.736 0 0 1-1.022 1.673 4.41 4.41 0 0 1-1.574 1.048 5.433 5.433 0 0 1-2.02.363h-3.837v-10.64h3.836a5.434 5.434 0 0 1 2.02.363 4.41 4.41 0 0 1 1.575 1.048c.453.48.801 1.05 1.022 1.673.252.718.375 1.475.363 2.236Zm-.44 0a6.303 6.303 0 0 0-.328-2.115 4.364 4.364 0 0 0-.931-1.563 3.984 3.984 0 0 0-1.438-.969 4.941 4.941 0 0 0-1.843-.332h-3.42v9.959h3.42a4.941 4.941 0 0 0 1.843-.333 3.983 3.983 0 0 0 1.438-.97c.416-.449.734-.981.93-1.562a6.3 6.3 0 0 0 .33-2.115Zm10.18 5.32h-.341c-.05 0-.1-.007-.148-.023a.277.277 0 0 1-.125-.106l-3.753-4.593a.596.596 0 0 0-.269-.223.741.741 0 0 0-.19-.05 2.027 2.027 0 0 0-.268-.015h-1.551v5.01h-.416v-10.64h2.565c1.155 0 2.033.224 2.634.673.6.45.9 1.13.9 2.044.006.392-.074.78-.234 1.139a2.64 2.64 0 0 1-.659.885 3.21 3.21 0 0 1-1.029.598 4.692 4.692 0 0 1-1.34.269.98.98 0 0 1 .265.227l3.958 4.805Zm-6.645-5.328h2.028c.456.006.911-.054 1.35-.177.372-.104.719-.278 1.023-.515a2.26 2.26 0 0 0 .643-.814c.153-.337.229-.704.223-1.074 0-.822-.267-1.428-.802-1.816-.535-.389-1.307-.583-2.316-.583h-2.15v4.98Zm9.035 5.328h-.416v-10.64h.416v10.64Zm11.17-10.64-4.42 10.64h-.37l-4.42-10.64h.326a.16.16 0 0 1 .166.129l3.95 9.527a7.325 7.325 0 0 1 .167.5c.044-.17.097-.336.159-.5l3.943-9.527a.17.17 0 0 1 .181-.129h.318Zm8.256 10.284-.015.356h-6.281v-10.64h6.28v.356h-5.864v4.714H77.7v.348h-4.942v4.866h5.88Zm9.566.356h-.34c-.051 0-.1-.007-.148-.023a.277.277 0 0 1-.125-.106l-3.754-4.593a.596.596 0 0 0-.269-.223.741.741 0 0 0-.189-.05 2.028 2.028 0 0 0-.268-.015h-1.552v5.01h-.416v-10.64h2.566c1.155 0 2.033.224 2.633.673.6.45.9 1.13.9 2.044.006.392-.074.78-.234 1.139a2.64 2.64 0 0 1-.658.885 3.212 3.212 0 0 1-1.03.598 4.696 4.696 0 0 1-1.34.269.98.98 0 0 1 .266.227l3.958 4.805Zm-6.645-5.328h2.028c.457.006.912-.054 1.351-.177.371-.104.718-.278 1.022-.515a2.26 2.26 0 0 0 .643-.814c.153-.337.23-.704.223-1.074 0-.822-.267-1.428-.802-1.816-.535-.389-1.307-.583-2.316-.583H81.56v4.98Z"/></mask><path d="m17.901 19.286-3.367 10.64h-.371l-3.375-9.823a2.22 2.22 0 0 1-.084-.303c-.02.103-.048.204-.083.303l-3.39 9.823h-.363L3.5 19.286h.34a.16.16 0 0 1 .167.129l2.936 9.452c.053.179.095.36.129.544a5.994 5.994 0 0 1 .136-.544l3.277-9.452a.17.17 0 0 1 .182-.129h.098a.16.16 0 0 1 .166.129l3.277 9.452c.056.176.101.355.136.537.02-.1.04-.195.061-.284.02-.088.043-.173.068-.253l2.936-9.452a.17.17 0 0 1 .182-.129h.31ZM26.31 29.57l-.015.356h-6.282v-10.64h6.282v.356h-5.865v4.714h4.941v.348H20.43v4.866h5.88Zm5.388-10.284c1.16 0 2.023.232 2.588.696.565.464.848 1.123.848 1.975 0 .295-.056.586-.167.86-.111.275-.269.53-.465.752a2.78 2.78 0 0 1-.727.583c-.295.165-.616.28-.95.34.4.038.792.13 1.166.277.321.125.617.307.874.537.238.217.425.483.549.78.13.318.193.659.189 1.002.008.415-.072.826-.235 1.207a2.366 2.366 0 0 1-.685.89 3.114 3.114 0 0 1-1.1.552 5.319 5.319 0 0 1-1.484.19h-3.284V19.285h2.883Zm-2.467.333v4.76h2.52c.464.011.927-.062 1.366-.216a2.72 2.72 0 0 0 .923-.56c.23-.215.408-.478.522-.772.106-.269.16-.555.163-.843 0-.762-.249-1.347-.745-1.756-.498-.409-1.258-.613-2.282-.613H29.23Zm2.868 9.967c.994 0 1.757-.214 2.29-.64.531-.426.797-1.048.798-1.865a2.218 2.218 0 0 0-.216-.992 2.14 2.14 0 0 0-.613-.749c-.29-.219-.618-.38-.969-.477a4.586 4.586 0 0 0-1.282-.166H29.23v4.889h2.868Zm14.984-4.98a6.448 6.448 0 0 1-.363 2.236 4.736 4.736 0 0 1-1.022 1.673 4.41 4.41 0 0 1-1.574 1.048 5.433 5.433 0 0 1-2.02.363h-3.837v-10.64h3.836a5.434 5.434 0 0 1 2.02.363 4.41 4.41 0 0 1 1.575 1.048c.453.48.801 1.05 1.022 1.673.252.718.375 1.475.363 2.236Zm-.44 0a6.303 6.303 0 0 0-.328-2.115 4.364 4.364 0 0 0-.931-1.563 3.984 3.984 0 0 0-1.438-.969 4.941 4.941 0 0 0-1.843-.332h-3.42v9.959h3.42a4.941 4.941 0 0 0 1.843-.333 3.983 3.983 0 0 0 1.438-.97c.416-.449.734-.981.93-1.562a6.3 6.3 0 0 0 .33-2.115Zm10.18 5.32h-.341c-.05 0-.1-.007-.148-.023a.277.277 0 0 1-.125-.106l-3.753-4.593a.596.596 0 0 0-.269-.223.741.741 0 0 0-.19-.05 2.027 2.027 0 0 0-.268-.015h-1.551v5.01h-.416v-10.64h2.565c1.155 0 2.033.224 2.634.673.6.45.9 1.13.9 2.044.006.392-.074.78-.234 1.139a2.64 2.64 0 0 1-.659.885 3.21 3.21 0 0 1-1.029.598 4.692 4.692 0 0 1-1.34.269.98.98 0 0 1 .265.227l3.958 4.805Zm-6.645-5.328h2.028c.456.006.911-.054 1.35-.177.372-.104.719-.278 1.023-.515a2.26 2.26 0 0 0 .643-.814c.153-.337.229-.704.223-1.074 0-.822-.267-1.428-.802-1.816-.535-.389-1.307-.583-2.316-.583h-2.15v4.98Zm9.035 5.328h-.416v-10.64h.416v10.64Zm11.17-10.64-4.42 10.64h-.37l-4.42-10.64h.326a.16.16 0 0 1 .166.129l3.95 9.527a7.325 7.325 0 0 1 .167.5c.044-.17.097-.336.159-.5l3.943-9.527a.17.17 0 0 1 .181-.129h.318Zm8.256 10.284-.015.356h-6.281v-10.64h6.28v.356h-5.864v4.714H77.7v.348h-4.942v4.866h5.88Zm9.566.356h-.34c-.051 0-.1-.007-.148-.023a.277.277 0 0 1-.125-.106l-3.754-4.593a.596.596 0 0 0-.269-.223.741.741 0 0 0-.189-.05 2.028 2.028 0 0 0-.268-.015h-1.552v5.01h-.416v-10.64h2.566c1.155 0 2.033.224 2.633.673.6.45.9 1.13.9 2.044.006.392-.074.78-.234 1.139a2.64 2.64 0 0 1-.658.885 3.212 3.212 0 0 1-1.03.598 4.696 4.696 0 0 1-1.34.269.98.98 0 0 1 .266.227l3.958 4.805Zm-6.645-5.328h2.028c.457.006.912-.054 1.351-.177.371-.104.718-.278 1.022-.515a2.26 2.26 0 0 0 .643-.814c.153-.337.23-.704.223-1.074 0-.822-.267-1.428-.802-1.816-.535-.389-1.307-.583-2.316-.583H81.56v4.98Z" fill="#000"/><path d="m17.901 19.286-3.367 10.64h-.371l-3.375-9.823a2.22 2.22 0 0 1-.084-.303c-.02.103-.048.204-.083.303l-3.39 9.823h-.363L3.5 19.286h.34a.16.16 0 0 1 .167.129l2.936 9.452c.053.179.095.36.129.544a5.994 5.994 0 0 1 .136-.544l3.277-9.452a.17.17 0 0 1 .182-.129h.098a.16.16 0 0 1 .166.129l3.277 9.452c.056.176.101.355.136.537.02-.1.04-.195.061-.284.02-.088.043-.173.068-.253l2.936-9.452a.17.17 0 0 1 .182-.129h.31ZM26.31 29.57l-.015.356h-6.282v-10.64h6.282v.356h-5.865v4.714h4.941v.348H20.43v4.866h5.88Zm5.388-10.284c1.16 0 2.023.232 2.588.696.565.464.848 1.123.848 1.975 0 .295-.056.586-.167.86-.111.275-.269.53-.465.752a2.78 2.78 0 0 1-.727.583c-.295.165-.616.28-.95.34.4.038.792.13 1.166.277.321.125.617.307.874.537.238.217.425.483.549.78.13.318.193.659.189 1.002.008.415-.072.826-.235 1.207a2.366 2.366 0 0 1-.685.89 3.114 3.114 0 0 1-1.1.552 5.319 5.319 0 0 1-1.484.19h-3.284V19.285h2.883Zm-2.467.333v4.76h2.52c.464.011.927-.062 1.366-.216a2.72 2.72 0 0 0 .923-.56c.23-.215.408-.478.522-.772.106-.269.16-.555.163-.843 0-.762-.249-1.347-.745-1.756-.498-.409-1.258-.613-2.282-.613H29.23Zm2.868 9.967c.994 0 1.757-.214 2.29-.64.531-.426.797-1.048.798-1.865a2.218 2.218 0 0 0-.216-.992 2.14 2.14 0 0 0-.613-.749c-.29-.219-.618-.38-.969-.477a4.586 4.586 0 0 0-1.282-.166H29.23v4.889h2.868Zm14.984-4.98a6.448 6.448 0 0 1-.363 2.236 4.736 4.736 0 0 1-1.022 1.673 4.41 4.41 0 0 1-1.574 1.048 5.433 5.433 0 0 1-2.02.363h-3.837v-10.64h3.836a5.434 5.434 0 0 1 2.02.363 4.41 4.41 0 0 1 1.575 1.048c.453.48.801 1.05 1.022 1.673.252.718.375 1.475.363 2.236Zm-.44 0a6.303 6.303 0 0 0-.328-2.115 4.364 4.364 0 0 0-.931-1.563 3.984 3.984 0 0 0-1.438-.969 4.941 4.941 0 0 0-1.843-.332h-3.42v9.959h3.42a4.941 4.941 0 0 0 1.843-.333 3.983 3.983 0 0 0 1.438-.97c.416-.449.734-.981.93-1.562a6.3 6.3 0 0 0 .33-2.115Zm10.18 5.32h-.341c-.05 0-.1-.007-.148-.023a.277.277 0 0 1-.125-.106l-3.753-4.593a.596.596 0 0 0-.269-.223.741.741 0 0 0-.19-.05 2.027 2.027 0 0 0-.268-.015h-1.551v5.01h-.416v-10.64h2.565c1.155 0 2.033.224 2.634.673.6.45.9 1.13.9 2.044.006.392-.074.78-.234 1.139a2.64 2.64 0 0 1-.659.885 3.21 3.21 0 0 1-1.029.598 4.692 4.692 0 0 1-1.34.269.98.98 0 0 1 .265.227l3.958 4.805Zm-6.645-5.328h2.028c.456.006.911-.054 1.35-.177.372-.104.719-.278 1.023-.515a2.26 2.26 0 0 0 .643-.814c.153-.337.229-.704.223-1.074 0-.822-.267-1.428-.802-1.816-.535-.389-1.307-.583-2.316-.583h-2.15v4.98Zm9.035 5.328h-.416v-10.64h.416v10.64Zm11.17-10.64-4.42 10.64h-.37l-4.42-10.64h.326a.16.16 0 0 1 .166.129l3.95 9.527a7.325 7.325 0 0 1 .167.5c.044-.17.097-.336.159-.5l3.943-9.527a.17.17 0 0 1 .181-.129h.318Zm8.256 10.284-.015.356h-6.281v-10.64h6.28v.356h-5.864v4.714H77.7v.348h-4.942v4.866h5.88Zm9.566.356h-.34c-.051 0-.1-.007-.148-.023a.277.277 0 0 1-.125-.106l-3.754-4.593a.596.596 0 0 0-.269-.223.741.741 0 0 0-.189-.05 2.028 2.028 0 0 0-.268-.015h-1.552v5.01h-.416v-10.64h2.566c1.155 0 2.033.224 2.633.673.6.45.9 1.13.9 2.044.006.392-.074.78-.234 1.139a2.64 2.64 0 0 1-.658.885 3.212 3.212 0 0 1-1.03.598 4.696 4.696 0 0 1-1.34.269.98.98 0 0 1 .266.227l3.958 4.805Zm-6.645-5.328h2.028c.457.006.912-.054 1.351-.177.371-.104.718-.278 1.022-.515a2.26 2.26 0 0 0 .643-.814c.153-.337.23-.704.223-1.074 0-.822-.267-1.428-.802-1.816-.535-.389-1.307-.583-2.316-.583H81.56v4.98Z" stroke="#000" stroke-width=".6" mask="url(#a)"/><path d="M92.516 18h13.968c1.113 0 2.016 1.378 2.016 2.364v8.272c0 .986-.903 2.364-2.016 2.364H92.516c-1.113 0-2.016-1.378-2.016-2.364v-8.272c0-.986.903-2.364 2.016-2.364Z" fill="#EA5906"/><path d="M93.876 27.914h-.263v-6.723h.263v6.723Zm1.77.278a.151.151 0 0 1-.072.08.222.222 0 0 1-.1.025h-.096l3.022-7.192a.172.172 0 0 1 .163-.105h.105l-3.022 7.192Zm10.353-3.64c.007.485-.071.966-.23 1.423-.139.4-.359.768-.645 1.081a2.801 2.801 0 0 1-.995.686 3.527 3.527 0 0 1-2.553 0 2.801 2.801 0 0 1-.995-.686 3.123 3.123 0 0 1-.645-1.08 4.516 4.516 0 0 1 0-2.843c.139-.401.359-.77.645-1.083.279-.299.618-.535.995-.691a3.24 3.24 0 0 1 1.272-.244c.439-.006.874.076 1.281.241.377.155.717.39.995.689.286.313.506.682.645 1.083.159.458.236.94.23 1.425Zm-.278 0a4.05 4.05 0 0 0-.208-1.345 2.888 2.888 0 0 0-.588-1.012 2.533 2.533 0 0 0-.908-.636 3.192 3.192 0 0 0-2.329 0 2.53 2.53 0 0 0-.908.636 2.939 2.939 0 0 0-.593 1.012 4.36 4.36 0 0 0 0 2.692c.127.372.329.714.593 1.006.253.274.563.49.908.632.749.293 1.58.293 2.329 0a2.56 2.56 0 0 0 .908-.632c.264-.29.464-.634.588-1.006a4.05 4.05 0 0 0 .208-1.346Z" fill="#fff"/><path fill-rule="evenodd" clip-rule="evenodd" d="M94.175 28.214h-.862v-7.323h.862v7.323Zm1.749.09a.451.451 0 0 1-.211.235l-.004.002a.522.522 0 0 1-.236.056h-.547l3.197-7.608c.075-.177.377-.289.995-.289m6.398 2.516c.142.43.211.88.205 1.333v.008c.006.452-.063.901-.205 1.33l-.003.012c-.122.365-.317.7-.572.988l-.001.001-.015.017a2.569 2.569 0 0 1-.881.62l-.003.001-.025.01a3.192 3.192 0 0 1-2.353-.01l-.004-.001a2.557 2.557 0 0 1-.88-.62l-.015-.017-.002-.001a2.883 2.883 0 0 1-.576-.988l-.002-.006-.001-.004a4.362 4.362 0 0 1-.001-2.67l.001-.004.003-.008c.125-.364.32-.7.574-.99l.001-.002.018-.02c.246-.27.547-.482.883-.625l.025-.01c.372-.146.765-.22 1.157-.22h.006c.396 0 .791.073 1.166.22l.025.01h.001a2.543 2.543 0 0 1 .898.642l.001.002c.255.29.449.627.572.993l.003.009Zm-.288.086a2.594 2.594 0 0 0-.526-.905 2.237 2.237 0 0 0-.798-.559 2.891 2.891 0 0 0-2.105 0 2.237 2.237 0 0 0-.798.559 2.642 2.642 0 0 0-.53.905 4.052 4.052 0 0 0 0 2.502c.113.332.294.638.529.899.223.24.496.43.799.555a2.891 2.891 0 0 0 2.105 0c.304-.125.576-.314.799-.555.235-.26.414-.566.525-.9a3.77 3.77 0 0 0 .193-1.246l-.001-.009a3.744 3.744 0 0 0-.192-1.246Zm-.105-1.257a3.12 3.12 0 0 1 .645 1.083c.159.457.236.937.23 1.42V24.558c.006.483-.071.963-.23 1.418l-.002.008c-.14.397-.359.762-.643 1.073l-.015.016-.001.002a2.81 2.81 0 0 1-.979.668l-.024.01h-.003a3.527 3.527 0 0 1-2.498 0h-.004a2.797 2.797 0 0 1-1.002-.678l-.002-.002-.015-.016a3.136 3.136 0 0 1-.642-1.072l-.002-.004-.001-.005a4.516 4.516 0 0 1 0-2.842l.002-.007.002-.004a3.12 3.12 0 0 1 .641-1.072l.017-.018.001-.001a2.86 2.86 0 0 1 .977-.672l.026-.01.003-.002a3.241 3.241 0 0 1 1.243-.232c.429-.005.854.073 1.253.23l.004.002.024.01c.371.152.704.38.98.672l.001.001.014.015Zm1.175 2.508a4.459 4.459 0 0 0-.246-1.523 3.433 3.433 0 0 0-.708-1.188l-.002-.002a3.12 3.12 0 0 0-1.1-.761h-.001a3.6 3.6 0 0 0-1.394-.264 3.542 3.542 0 0 0-1.386.266 3.153 3.153 0 0 0-1.1.764l-.002.002a3.426 3.426 0 0 0-.707 1.187l-.002.004a4.815 4.815 0 0 0 0 3.032l.002.004c.153.439.393.842.707 1.185l.002.002c.307.33.683.589 1.101.759l.004.002c.892.346 1.88.346 2.771 0l.004-.002c.418-.17.794-.43 1.102-.76l.001-.001c.314-.343.555-.746.708-1.185a4.474 4.474 0 0 0 .246-1.521Zm-12.422 3.361v-6.723h-.264v6.723h.264Z" fill="#fff"/></svg>