<svg width="111" height="48" fill="none" xmlns="http://www.w3.org/2000/svg"><path d="M50.4 23.777a3.855 3.855 0 0 0-.828-2.376 3.968 3.968 0 0 0-2.131-1.385L51.238 9H32.413l3.808 11.05a3.958 3.958 0 0 0-2.06 1.4 3.848 3.848 0 0 0-.793 2.336c0 1.303.662 2.459 1.676 3.166a10.433 10.433 0 0 1-1.378 1.554c-.98.904-2.067 1.599-3.242 2.06-1.06-.704-1.52-1.946-1.105-3.058 1.61-.487 2.792-1.979 2.792-3.72a3.859 3.859 0 0 0-1.159-2.744 3.99 3.99 0 0 0-5.588.002 3.865 3.865 0 0 0-1.16 2.75c0 1.06.442 2.033 1.148 2.728l-.186.373c-.592 1.2-1.263 2.555-1.52 4.076-.512 3.033.327 5.482 2.35 6.863A6.553 6.553 0 0 0 29.743 39c2.324 0 4.682-1.147 6.961-2.258 1.625-.792 3.304-1.616 4.962-2.016.604-.148 1.246-.234 1.918-.33 1.361-.197 2.766-.39 4.028-1.111 1.476-.843 2.483-2.25 2.775-3.866a5.645 5.645 0 0 0-.566-3.587c.39-.618.596-1.332.592-2.059l-.012.004Zm-1.723 0c0 1.207-1.006 2.19-2.227 2.19a2.268 2.268 0 0 1-1.105-.3 2.221 2.221 0 0 1-.81-.797 2.174 2.174 0 0 1-.02-2.179c.071-.121.16-.244.249-.348.092-.106.196-.202.31-.286l.008-.009c.07-.053.15-.104.23-.156.044-.027.08-.053.114-.07.009 0 .017-.008.027-.008.035-.017.08-.035.123-.053.043-.018.089-.035.123-.052.01 0 .018-.01.027-.01.036-.008.07-.026.106-.034.009 0 .027-.009.036-.009l.123-.026H46l.133-.026c.008 0 .026 0 .035-.009.036 0 .07-.008.106-.008h.044c.045 0 .089-.01.135-.01h.113a.37.37 0 0 1 .098.01h.017a2.253 2.253 0 0 1 1.486.804c.324.391.5.88.502 1.385l.008.001Zm-13.8-13.04h13.897l-3.19 9.252c-.132.027-.264.07-.397.113l-3.357-6.727-3.366 6.685c-.133-.044-.274-.07-.416-.096l-3.17-9.226Zm6.317 12.284a3.835 3.835 0 0 0-1.193-2.085l1.829-3.631 1.846 3.71a3.955 3.955 0 0 0-1.105 2.006h-1.377Zm-4.425-1.373.123-.026h.027c.036-.009.07-.009.106-.017h.035c.036 0 .062-.009.098-.009h.344c.036 0 .062.009.089.009.017 0 .027 0 .044.008.036.01.062.01.097.018a.07.07 0 0 1 .036.008l.123.027a.44.44 0 0 1 .115.035c.009 0 .017.008.035.008.027.009.062.017.089.035.009 0 .017.009.027.009.035.017.07.026.106.043h.009c.04.015.08.036.114.06.044.018.08.044.114.061.009 0 .009.01.018.01.035.016.061.043.097.06l.008.008c.105.08.204.164.301.252l.009.009c.092.096.175.2.247.312.237.357.363.773.362 1.2 0 1.206-1.006 2.188-2.226 2.188a2.258 2.258 0 0 1-1.57-.645 2.184 2.184 0 0 1-.656-1.544c-.01-1.015.706-1.877 1.678-2.12v.002Zm-8.693-.06c1.227 0 2.226.989 2.226 2.19a2.185 2.185 0 0 1-.656 1.543c-.416.41-.98.642-1.57.645a2.258 2.258 0 0 1-1.57-.645 2.184 2.184 0 0 1-.656-1.544c.003-.58.239-1.134.656-1.544.416-.41.98-.642 1.57-.645Zm20.547 7.532a3.856 3.856 0 0 1-1.918 2.667c-.963.547-2.145.72-3.393.895-.68.096-1.396.2-2.079.365-1.837.443-3.604 1.319-5.317 2.146-2.191 1.068-4.258 2.077-6.17 2.077-1.005 0-1.89-.279-2.738-.86-1.954-1.328-1.856-3.798-1.62-5.153.212-1.268.804-2.458 1.369-3.597.035-.069.062-.13.097-.2.199.07.403.123.61.157-.335 1.842.619 3.744 2.482 4.682l.335.173.362-.13c1.546-.539 2.977-1.416 4.24-2.59.699-.639 1.316-1.36 1.838-2.145a4.006 4.006 0 0 0 3.02-.771 3.894 3.894 0 0 0 1.409-2.095h1.484c.442 1.677 1.987 2.91 3.825 2.91.702 0 1.392-.186 1.996-.54.23.652.3 1.33.176 2.008l-.008.002Zm14.158-.947c-.12.4-.33.767-.61 1.078-.284.313-.663.564-1.14.756-.477.191-1.06.287-1.758.287-1.167 0-2.068-.304-2.695-.904-.627-.6-.939-1.494-.939-2.657v-.751h1.668v.527c-.003.332.026.663.089.99.061.303.159.555.308.773.153.22.364.398.61.512.265.122.6.183 1.007.183.76 0 1.274-.2 1.573-.594.282-.4.433-.938.433-1.615v-9.044h1.66v9.244a4.176 4.176 0 0 1-.2 1.216h-.006Zm9.091 1.277c-.68.504-1.529.756-2.561.756-.725 0-1.352-.112-1.882-.348a3.646 3.646 0 0 1-1.343-.964 3.978 3.978 0 0 1-.812-1.485 6.914 6.914 0 0 1-.309-1.877c0-.678.106-1.295.318-1.86.197-.54.496-1.038.883-1.468a3.901 3.901 0 0 1 1.352-.964 4.243 4.243 0 0 1 1.705-.347c.805 0 1.476.165 2.012.494.537.33.954.747 1.274 1.251.319.508.543 1.066.663 1.65.117.56.167 1.132.15 1.703h-6.773c-.011.376.034.75.134 1.112.099.347.274.66.513.923.23.27.536.487.891.643.362.165.787.244 1.275.244.627 0 1.148-.147 1.555-.435.407-.287.67-.72.796-1.319h1.475c-.203 1.016-.637 1.773-1.317 2.277l.001.014Zm-.362-5.717a2.561 2.561 0 0 0-.54-.8 2.526 2.526 0 0 0-.803-.53c-.309-.13-.654-.2-1.025-.2-.389 0-.733.07-1.042.2-.31.131-.575.313-.796.54a2.77 2.77 0 0 0-.536.798 2.831 2.831 0 0 0-.23.974h5.203a3.025 3.025 0 0 0-.238-.982h.007Zm4.496 4.286c.136.218.324.4.548.53.24.134.499.231.769.287.283.06.583.087.883.087.245 0 .49-.018.733-.052a2.56 2.56 0 0 0 .707-.191c.211-.096.397-.226.536-.409a1.1 1.1 0 0 0 .212-.678c0-.382-.15-.668-.443-.86a3.871 3.871 0 0 0-1.095-.478l-1.431-.33a7.217 7.217 0 0 1-1.431-.416 2.865 2.865 0 0 1-1.096-.747c-.291-.322-.443-.774-.443-1.347 0-.452.106-.834.309-1.155.198-.316.467-.584.786-.782.319-.2.68-.348 1.087-.452a5.229 5.229 0 0 1 1.201-.148c.478-.003.954.04 1.422.13.432.088.813.236 1.149.453.335.208.6.503.795.86.201.364.318.816.353 1.355h-1.492c-.027-.287-.098-.528-.23-.713a1.63 1.63 0 0 0-.495-.46 2.374 2.374 0 0 0-.654-.252 3.425 3.425 0 0 0-.724-.079c-.225 0-.45.017-.672.052-.214.03-.422.092-.618.183-.177.08-.334.2-.46.347a.88.88 0 0 0-.175.556c0 .252.088.46.273.627.176.165.416.303.69.416.282.113.591.2.938.279l1.052.234c.37.08.735.18 1.095.296.336.104.653.26.94.46.27.187.497.43.662.712.167.287.256.643.256 1.069 0 .538-.114.99-.345 1.346-.225.351-.531.645-.892.86-.371.218-.787.373-1.246.46-.454.087-.916.13-1.378.13a6.519 6.519 0 0 1-1.44-.155 3.416 3.416 0 0 1-1.21-.513 2.644 2.644 0 0 1-.84-.923c-.213-.376-.326-.857-.353-1.407h1.492c.045.33.124.608.265.825l.01-.007ZM87.5 21.11v1.295h-1.802v5.534c0 .173.017.312.044.416a.447.447 0 0 0 .167.244c.08.062.202.096.345.113.144.016.335.026.565.026h.68v1.294h-1.14c-.389 0-.715-.026-.99-.079a1.445 1.445 0 0 1-.662-.287 1.271 1.271 0 0 1-.38-.582c-.08-.252-.123-.582-.123-.999v-5.67h-1.546V21.12h1.546v-2.676h1.493v2.667H87.5Z" fill="#99424F"/></svg>