<svg width="110" height="48" fill="none" xmlns="http://www.w3.org/2000/svg"><g clip-path="url(#a)"><path d="m33.765 18.078-7.889 11.345a.678.678 0 0 1-.775.256.666.666 0 0 1-.46-.668l.316-6.264-5.097-1.075a.68.68 0 0 1-.488-.408.664.664 0 0 1 .072-.628l7.89-11.345a.678.678 0 0 1 .775-.256.676.676 0 0 1 .459.669l-.316 6.263 5.097 1.075a.68.68 0 0 1 .488.408.664.664 0 0 1-.072.628Z" fill="#FCC72B"/><path d="M25.504 38.94a1.6 1.6 0 0 1-1.13-.465l-7.454-7.413a1.584 1.584 0 0 1 .003-2.243 1.602 1.602 0 0 1 2.256-.004l6.325 6.29 13.779-13.703a1.602 1.602 0 0 1 2.25.009 1.584 1.584 0 0 1 .009 2.237L26.633 38.475a1.592 1.592 0 0 1-1.13.466Z" fill="#729B1B"/><path d="M25.497 38.94a1.6 1.6 0 0 0 1.13-.465l7.454-7.413a1.583 1.583 0 0 0-.003-2.243 1.603 1.603 0 0 0-2.256-.004l-6.325 6.29-13.78-13.703a1.601 1.601 0 0 0-2.25.009 1.584 1.584 0 0 0-.008 2.237l14.908 14.827a1.592 1.592 0 0 0 1.13.466Z" fill="#729B1B" fill-opacity=".5"/></g><path d="M101.001 18.152v1.245h-3.119v10.485H96.39V19.397h-3.135v-1.245H101ZM87.953 30c-.755 0-1.433-.135-2.035-.404-.59-.28-1.056-.662-1.395-1.144a3.025 3.025 0 0 1-.525-1.7h1.592a2.23 2.23 0 0 0 .656 1.397c.394.37.963.555 1.707.555.712 0 1.27-.18 1.674-.538.416-.37.624-.842.624-1.414 0-.45-.12-.814-.36-1.094a2.308 2.308 0 0 0-.904-.64 13.872 13.872 0 0 0-1.46-.471c-.755-.202-1.362-.404-1.822-.606A3.038 3.038 0 0 1 84.54 23c-.318-.438-.476-1.021-.476-1.75 0-.64.158-1.207.476-1.7a3.13 3.13 0 0 1 1.329-1.145c.58-.27 1.242-.404 1.986-.404 1.072 0 1.947.275 2.626.825.69.55 1.078 1.279 1.165 2.188h-1.641c-.055-.45-.284-.842-.69-1.179-.404-.347-.94-.521-1.608-.521-.623 0-1.132.168-1.526.505-.394.325-.591.785-.591 1.38 0 .426.115.774.345 1.043.24.27.53.477.87.623.35.135.837.292 1.46.471.755.213 1.362.427 1.822.64.46.202.853.521 1.182.96.328.425.492 1.009.492 1.75a3.15 3.15 0 0 1-.443 1.615c-.296.505-.733.915-1.313 1.229-.58.314-1.264.471-2.052.471ZM77.406 19.397v3.922h4.168v1.262h-4.168v4.039h4.66v1.262h-6.154V18.135h6.155v1.262h-4.661Zm-3.333-1.245v1.245h-3.119v10.485h-1.493V19.397h-3.135v-1.245h7.747Zm-9.585 0v11.73h-1.494v-11.73h1.494Zm-3.132 0-4.316 11.73h-1.724L51 18.152h1.592l3.594 10.115 3.595-10.115h1.575Z" fill="#5F6578"/><defs><clipPath id="a"><path fill="#fff" transform="translate(9 9)" d="M0 0h33v30H0z"/></clipPath></defs></svg>