<svg width="111" height="48" fill="none" xmlns="http://www.w3.org/2000/svg"><path d="M34.74 29.904c-.797 0-1.517-.132-2.161-.398-.633-.266-1.135-.648-1.506-1.147-.371-.5-.562-1.09-.573-1.77h2.456c.032.458.196.819.49 1.084.306.266.72.399 1.245.399.534 0 .955-.122 1.26-.367.306-.255.459-.584.459-.988 0-.33-.104-.6-.311-.813a2.087 2.087 0 0 0-.786-.494 10.973 10.973 0 0 0-1.277-.414 15.552 15.552 0 0 1-1.817-.621 3.354 3.354 0 0 1-1.195-.94c-.328-.426-.491-.989-.491-1.69 0-.659.169-1.232.507-1.721.338-.489.813-.86 1.424-1.116.611-.265 1.31-.398 2.096-.398 1.178 0 2.133.281 2.864.845.743.552 1.152 1.328 1.228 2.326h-2.52a1.232 1.232 0 0 0-.508-.94c-.306-.255-.715-.382-1.228-.382-.447 0-.807.111-1.08.334-.262.223-.393.547-.393.972 0 .298.098.547.294.75.208.19.459.35.753.477.306.117.732.255 1.277.415.742.212 1.348.425 1.817.637.47.213.873.531 1.212.956.338.425.507.983.507 1.674 0 .595-.158 1.147-.474 1.657-.317.51-.78.92-1.392 1.227-.611.298-1.337.446-2.177.446ZM43.062 22.239c.295-.404.698-.738 1.211-1.004.524-.276 1.119-.414 1.785-.414.775 0 1.473.186 2.095.557.633.372 1.13.904 1.49 1.594.37.68.556 1.472.556 2.375s-.185 1.705-.556 2.406a3.992 3.992 0 0 1-1.49 1.61 3.92 3.92 0 0 1-2.095.573c-.666 0-1.255-.133-1.768-.398a3.777 3.777 0 0 1-1.228-1.004V34H40.77V20.964h2.292v1.275Zm4.796 3.108c0-.532-.114-.988-.343-1.37a2.208 2.208 0 0 0-.884-.893 2.37 2.37 0 0 0-1.179-.303c-.415 0-.808.106-1.179.319-.36.201-.655.499-.884.892-.218.393-.327.855-.327 1.386 0 .532.11.994.327 1.387.23.393.524.696.884.908a2.43 2.43 0 0 0 1.179.303c.426 0 .819-.106 1.179-.319.37-.212.665-.515.884-.908.229-.393.343-.86.343-1.402ZM55.892 29.936c-.873 0-1.66-.186-2.358-.558a4.243 4.243 0 0 1-1.653-1.61c-.393-.69-.59-1.486-.59-2.39 0-.903.203-1.7.606-2.39a4.216 4.216 0 0 1 1.687-1.594c.709-.382 1.5-.573 2.373-.573.873 0 1.664.191 2.374.573.71.372 1.266.904 1.67 1.594.414.69.622 1.487.622 2.39 0 .904-.213 1.7-.639 2.39a4.299 4.299 0 0 1-1.702 1.61c-.71.372-1.506.558-2.39.558Zm0-1.944c.414 0 .802-.096 1.162-.287.371-.202.666-.5.884-.892.218-.393.327-.871.327-1.434 0-.84-.229-1.483-.687-1.929a2.224 2.224 0 0 0-1.654-.685c-.654 0-1.206.228-1.653.685-.437.446-.655 1.09-.655 1.928 0 .84.213 1.488.639 1.945.436.446.982.669 1.637.669ZM61.714 25.378c0-.913.191-1.71.573-2.39a3.972 3.972 0 0 1 1.588-1.594c.677-.382 1.452-.573 2.325-.573 1.124 0 2.051.276 2.783.828.742.542 1.238 1.307 1.49 2.295H68a1.707 1.707 0 0 0-.672-.892c-.305-.223-.687-.335-1.146-.335-.654 0-1.173.234-1.555.701-.382.457-.573 1.11-.573 1.96 0 .84.191 1.493.573 1.96.382.457.9.686 1.555.686.928 0 1.534-.404 1.817-1.211h2.472c-.25.956-.747 1.716-1.49 2.279-.741.563-1.67.844-2.782.844-.873 0-1.648-.186-2.325-.558a4.109 4.109 0 0 1-1.588-1.593c-.382-.69-.573-1.493-.573-2.407ZM77.52 29.793l-3.077-3.761v3.76h-2.292V18h2.292v6.71l3.045-3.746h2.98l-3.995 4.43 4.027 4.399h-2.98Z" fill="#5F6578"/></svg>