<svg width="111" height="48" fill="none" xmlns="http://www.w3.org/2000/svg"><path d="M65.599 15H62.16v3.118H65.6V15Z" fill="#356388"/><path d="M80.959 15h-3.37v3.312h3.37V15ZM70.697 28.424h-3.369v3.312h3.37v-3.312ZM65.599 19.105H62.16v3.311H65.6v-3.311Z" fill="#39B54A"/><path d="M62.163 23.403v3.911c0 .916-.489 1.48-1.31 1.48-.767 0-1.326-.494-1.326-1.498V15h-.489c-2.06 0-3.16 1.339-3.16 3.946v8.456c0 3.171 1.799 4.598 4.766 4.598 2.793 0 4.975-1.62 4.958-4.668V23.42h-3.439v-.018Z" fill="#356388"/><path d="M50.22 15h-2.182c-2.06 0-3.16 1.339-3.16 3.946v12.807h3.632V25.8h1.606c3.002 0 4.276-2.114 4.276-5.62 0-3.417-1.448-5.179-4.172-5.179Zm-.663 7.822H48.51v-4.81h1.065c.855 0 1.274.652 1.274 2.273 0 1.726-.454 2.537-1.292 2.537ZM27.841 15H25.66c-2.06 0-3.16 1.339-3.16 3.946v12.807h3.63V25.8h1.607c3.002 0 4.277-2.114 4.277-5.62 0-3.417-1.45-5.179-4.173-5.179Zm-.68 7.822h-1.048v-4.81h1.065c.855 0 1.274.652 1.274 2.273.018 1.726-.453 2.537-1.291 2.537ZM42.608 15c-2.06 0-3.16 1.339-3.16 3.946v2.731h-2.583V15h-.471c-2.06 0-3.16 1.339-3.16 3.946v12.807h3.631V24.99h2.584V31.753h3.613V15.018h-.454V15Z" fill="#3C9CD7"/><path d="M88.5 21.853v-2.625h-1.693v-2.836h-1.065c-1.484 0-2.287.968-2.287 2.836h-1.1v2.625h1.1v7.399c0 1.85 1.31 2.677 2.95 2.677.646 0 1.466-.123 2.078-.334v-2.696c-.262.053-.629.07-.978.07-.541 0-.698-.263-.698-.721v-6.395H88.5ZM73.282 18.823c-1.1 0-1.972.475-2.583 1.356v-1.074h-1.1c-1.484 0-2.287.968-2.287 2.836v5.496h3.37V22.98c0-.757.366-1.321.925-1.321.75 0 .907.581.907 1.11v8.967h3.352V21.5c.035-1.655-1.135-2.677-2.584-2.677ZM79.877 19.228c-1.484 0-2.287.969-2.287 2.836v9.672h3.369V19.228h-1.082Z" fill="#356388"/></svg>