<svg width="111" height="48" fill="none" xmlns="http://www.w3.org/2000/svg"><path fill-rule="evenodd" clip-rule="evenodd" d="M70.685 16.63c0 8.633-7.204 15.631-16.092 15.631-1.854 0-3.635-.304-5.292-.865A16.415 16.415 0 0 0 56.409 33c8.887 0 16.092-6.998 16.092-15.63 0-6.833-4.512-12.64-10.8-14.766 5.323 2.549 8.984 7.872 8.984 14.027Z" fill="#607D8B"/><path fill-rule="evenodd" clip-rule="evenodd" d="M57.921 1.335A16.619 16.619 0 0 0 54.592 1a16.35 16.35 0 0 0-9.102 2.739c2.601-.994 5.868-1.111 9.715.117l.23.074-.679 1.309-.171-.05c-4.133-1.22-7.4-.43-9.66 1.364-2.267 1.8-3.543 4.627-3.644 7.513-.101 2.884.973 5.806 3.377 7.803 2.377 1.972 6.527 2.953 11.761 2.172l-.03.321-.081 1.537-.17.025c-6.24.92-10.74-.39-13.645-2.808-2.368-1.973-3.655-4.666-3.964-7.437-.02.315-.029.632-.029.952 0 8.632 7.205 15.63 16.092 15.63 8.888 0 16.092-6.998 16.092-15.63 0-5.848-3.305-10.945-8.2-13.626l-8.892 19.403-8.466-11.113.33-1.985 6.587 7.542L57.92 1.335Zm.416.09L52.19 17.652l-6.463-7.4-.156.94 7.93 10.409 8.61-18.793a16.276 16.276 0 0 0-3.774-1.383ZM38.89 13.822c.015-.33.044-.66.087-.989.782-3.044 2.483-5.735 4.8-7.778 2.67-1.707 6.397-2.32 11.062-.887l-.303.583c-4.174-1.184-7.532-.374-9.881 1.49-2.374 1.884-3.694 4.827-3.798 7.811-.104 2.986 1.007 6.034 3.523 8.122 2.48 2.058 6.292 3.16 11.572 2.391l-.05.983c-6.06.859-10.37-.438-13.132-2.738-2.791-2.324-4.03-5.695-3.88-8.988Zm21.686.14c.479-.202 1.028-.306 1.652-.306.637 0 1.182.104 1.641.306.465.203.818.481 1.07.833.212.298.339.638.377 1.023h-1.4a1.224 1.224 0 0 0-.502-.743c-.312-.22-.719-.318-1.199-.318-.325 0-.613.044-.857.14-.24.09-.436.223-.576.403l-.002.002a.985.985 0 0 0-.205.607.873.873 0 0 0 .13.508l.001.002.001.001c.093.14.218.259.37.356h.002v.002c.146.09.31.166.493.231h.002l.001.001c.18.061.37.113.57.157l.8.183h.002c.376.08.718.188 1.028.32.307.131.57.291.789.478.216.184.382.4.5.649v.001c.119.244.182.53.185.86-.003.485-.132.896-.38 1.241-.246.344-.605.617-1.09.815-.48.195-1.069.296-1.772.296-.697 0-1.294-.102-1.796-.3-.496-.198-.876-.486-1.15-.864-.234-.332-.376-.738-.416-1.227h1.41c.042.24.132.453.275.635l.001.001.001.001c.18.22.415.384.701.493h.003c.286.105.603.155.949.155.338 0 .642-.046.907-.147.265-.099.482-.241.64-.433.16-.195.241-.42.241-.67a.887.887 0 0 0-.23-.616 1.562 1.562 0 0 0-.589-.387 5.583 5.583 0 0 0-.854-.26l-.968-.232c-.728-.17-1.285-.431-1.687-.775-.383-.328-.58-.77-.577-1.35v-.002a1.972 1.972 0 0 1 .39-1.233c.269-.353.638-.633 1.118-.836Zm1.652-.711c-.673 0-1.282.112-1.823.342-.54.229-.972.55-1.289.969a2.365 2.365 0 0 0-.47 1.471c-.003.68.232 1.238.718 1.653.467.4 1.094.686 1.866.866l.051-.197-.05.197.968.233h.002c.316.073.578.153.787.239.207.084.347.179.435.278l.001.002c.082.09.126.201.126.35 0 .16-.05.297-.15.419a1.062 1.062 0 0 1-.462.307h-.001a2.125 2.125 0 0 1-.752.12 2.31 2.31 0 0 1-.797-.128 1.213 1.213 0 0 1-.521-.363 1.08 1.08 0 0 1-.213-.607l-.014-.188h-2.234l.005.207c.015.643.179 1.198.502 1.653v.001c.324.448.772.784 1.336 1.008.564.224 1.218.332 1.958.332.744 0 1.392-.107 1.937-.328.547-.224.975-.542 1.273-.958.302-.42.452-.913.455-1.47v-.003a2.375 2.375 0 0 0-.224-1.028 2.338 2.338 0 0 0-.603-.782 3.477 3.477 0 0 0-.897-.546 6.03 6.03 0 0 0-1.107-.345l-.8-.183h-.001a4.625 4.625 0 0 1-.522-.143 2.17 2.17 0 0 1-.408-.191.814.814 0 0 1-.245-.233.484.484 0 0 1-.068-.285v-.008c0-.14.042-.262.124-.37a.885.885 0 0 1 .395-.27h.002c.179-.07.409-.11.697-.11.424 0 .732.087.948.24a.843.843 0 0 1 .362.639l.02.182h2.208l-.003-.206a2.515 2.515 0 0 0-.463-1.45c-.299-.42-.716-.744-1.242-.973-.525-.231-1.133-.343-1.817-.343Zm3.19 7.878-.175-.115.174.115Zm-4.551-1.12v.001l-.168.122.167-.125v.002Zm.521.363h.002l-.078.189.075-.19h.002Zm-2.742-4.339h.211l-.211.001Z" fill="#FFE680"/><path fill-rule="evenodd" clip-rule="evenodd" d="M60.575 13.963c.479-.203 1.028-.307 1.652-.307.637 0 1.182.104 1.641.306.465.203.818.481 1.07.833.212.298.339.638.377 1.023h-1.4a1.224 1.224 0 0 0-.502-.743c-.312-.22-.719-.318-1.199-.318a2.35 2.35 0 0 0-.856.14c-.24.091-.436.224-.577.403v.001l-.002.001a.985.985 0 0 0-.205.607.872.872 0 0 0 .13.508l.001.002.001.002c.093.14.218.258.37.355h.002v.002c.146.09.31.166.493.232h.003c.18.062.37.114.57.157l.8.183h.002c.376.08.718.188 1.028.32.307.132.57.291.789.479.215.183.382.4.5.648v.001c.119.244.182.53.185.86-.003.485-.132.896-.38 1.241-.246.344-.605.617-1.09.815-.48.195-1.069.296-1.772.296-.697 0-1.294-.102-1.796-.3-.496-.198-.876-.486-1.15-.864-.234-.332-.376-.738-.416-1.227h1.41c.042.24.132.453.275.635l.001.001.001.002c.18.22.415.383.702.492h.002c.286.105.603.156.949.156.338 0 .642-.047.907-.148.265-.099.482-.241.64-.433.16-.195.241-.42.241-.67a.888.888 0 0 0-.23-.615 1.563 1.563 0 0 0-.589-.387 5.593 5.593 0 0 0-.853-.26h-.001l-.968-.233c-.728-.17-1.285-.431-1.687-.774-.383-.329-.58-.77-.576-1.35v-.002a1.972 1.972 0 0 1 .39-1.234c.268-.353.638-.632 1.117-.836Zm.124 6.168v.001Zm.612.43ZM55.954 24.565l-.051.983c-6.06.859-10.37-.438-13.132-2.738-2.79-2.324-4.03-5.696-3.88-8.988.15-3.293 1.69-6.49 4.434-8.46 2.695-1.936 6.58-2.71 11.515-1.194l-.303.583c-4.173-1.184-7.532-.374-9.881 1.49-2.374 1.884-3.694 4.827-3.798 7.81-.104 2.987 1.007 6.035 3.524 8.123 2.479 2.058 6.291 3.16 11.572 2.391Z" fill="#607D8B"/><path fill-rule="evenodd" clip-rule="evenodd" d="M52.193 17.651 58.437 1.17l4.45-.047-9.383 20.479-7.93-10.408.156-.94 6.463 7.398Z" fill="#607D8B"/><path d="M31.893 45.231a3.832 3.832 0 0 1-1.422-.25 2.838 2.838 0 0 1-1.067-.728 3.356 3.356 0 0 1-.67-1.186c-.156-.465-.234-1-.234-1.603s.088-1.138.264-1.602c.183-.465.43-.857.742-1.176a3.061 3.061 0 0 1 1.097-.74c.42-.166.87-.249 1.351-.249.291 0 .555.024.792.073.237.042.444.09.62.146.176.055.322.114.437.177.115.062.196.107.244.135L33.67 39.3a2.818 2.818 0 0 0-.701-.292 3.132 3.132 0 0 0-.975-.145c-.305 0-.59.055-.854.166a1.84 1.84 0 0 0-.69.479c-.19.215-.34.485-.448.811a3.599 3.599 0 0 0-.162 1.135c0 .381.04.732.122 1.05.088.32.22.597.396.833.176.23.4.41.67.541.271.125.596.188.976.188.454 0 .823-.046 1.107-.136a4.64 4.64 0 0 0 .66-.27l.346 1.072a1.71 1.71 0 0 1-.335.166 5.028 5.028 0 0 1-.488.166c-.19.05-.403.087-.64.115a5.267 5.267 0 0 1-.762.052ZM39.858 42.349c0 .43-.061.822-.183 1.176a2.618 2.618 0 0 1-.518.905 2.32 2.32 0 0 1-.813.583 2.52 2.52 0 0 1-1.036.208c-.38 0-.725-.07-1.036-.208a2.344 2.344 0 0 1-.803-.583 2.75 2.75 0 0 1-.528-.905 3.592 3.592 0 0 1-.183-1.176c0-.43.06-.819.183-1.166a2.75 2.75 0 0 1 .528-.905c.23-.25.501-.44.813-.572a2.494 2.494 0 0 1 1.026-.209c.372 0 .714.07 1.026.209.318.131.589.322.813.572.223.25.396.551.518.905.128.347.193.736.193 1.166Zm-1.26 0c0-.541-.115-.968-.346-1.28-.223-.32-.538-.479-.944-.479-.407 0-.725.16-.955.479-.224.312-.335.738-.335 1.28 0 .548.111.981.335 1.3.23.32.548.479.955.479.406 0 .721-.16.944-.479.23-.319.346-.752.346-1.3ZM42.09 42.338c0 .555.128.992.385 1.311.258.313.613.469 1.067.469.196 0 .362-.007.498-.021.142-.021.257-.042.345-.063v-3.121a1.744 1.744 0 0 0-.437-.208 1.538 1.538 0 0 0-.569-.105c-.447 0-.775.157-.985.469-.203.312-.305.735-.305 1.27Zm3.524 2.57a7.096 7.096 0 0 1-.924.209 6.873 6.873 0 0 1-1.158.093c-.42 0-.796-.066-1.128-.197a2.429 2.429 0 0 1-.853-.562c-.23-.25-.41-.548-.539-.895a3.626 3.626 0 0 1-.183-1.187c0-.43.051-.818.153-1.165.108-.354.264-.656.467-.905.203-.25.45-.44.742-.573a2.313 2.313 0 0 1 1.005-.208c.258 0 .485.031.681.094.197.062.366.132.508.208v-2.612l1.23-.208v7.908ZM46.881 42.38c0-.479.068-.899.203-1.26.142-.36.329-.658.559-.894.23-.243.494-.423.792-.541.298-.125.603-.188.915-.188.731 0 1.3.233 1.706.698.413.464.62 1.158.62 2.08 0 .07-.003.15-.01.24 0 .083-.003.16-.01.229H48.15c.034.437.183.777.447 1.02.27.236.66.354 1.168.354.298 0 .57-.028.813-.084.25-.055.447-.114.59-.177l.162 1.03a2.228 2.228 0 0 1-.285.115 3.62 3.62 0 0 1-.406.094 4.463 4.463 0 0 1-1.026.114c-.467 0-.874-.07-1.22-.208a2.349 2.349 0 0 1-.853-.593 2.503 2.503 0 0 1-.497-.895 3.785 3.785 0 0 1-.163-1.134Zm3.566-.562a1.64 1.64 0 0 0-.071-.49 1.097 1.097 0 0 0-.214-.405.863.863 0 0 0-.335-.27.973.973 0 0 0-.467-.105c-.19 0-.356.038-.498.115-.142.07-.264.163-.366.28-.095.119-.169.254-.223.407a2.241 2.241 0 0 0-.112.468h2.286ZM52.685 42.359c0-.402.06-.777.183-1.124.121-.354.294-.659.518-.916a2.45 2.45 0 0 1 .833-.603c.325-.146.69-.219 1.097-.219.501 0 .975.094 1.422.281l-.264 1.03a2.722 2.722 0 0 0-1.056-.218c-.481 0-.847.156-1.098.468-.25.306-.376.74-.376 1.301 0 .541.119.971.356 1.29.237.313.637.469 1.199.469.21 0 .416-.021.62-.063.203-.041.379-.093.528-.156l.172 1.04c-.135.07-.342.133-.62.188a4.2 4.2 0 0 1-.843.083c-.453 0-.85-.07-1.188-.208a2.388 2.388 0 0 1-.833-.593 2.574 2.574 0 0 1-.488-.905 3.889 3.889 0 0 1-.162-1.145ZM57.477 42.38c0-.479.067-.899.203-1.26.142-.36.328-.658.558-.894.23-.243.495-.423.793-.541.298-.125.602-.188.914-.188.731 0 1.3.233 1.707.698.413.464.62 1.158.62 2.08 0 .07-.004.15-.01.24 0 .083-.004.16-.01.229h-3.506c.034.437.183.777.447 1.02.271.236.66.354 1.169.354.298 0 .569-.028.812-.084.25-.055.447-.114.59-.177l.162 1.03a2.228 2.228 0 0 1-.284.115 3.62 3.62 0 0 1-.407.094 4.463 4.463 0 0 1-1.026.114c-.467 0-.873-.07-1.219-.208a2.349 2.349 0 0 1-.853-.593 2.503 2.503 0 0 1-.498-.895 3.785 3.785 0 0 1-.163-1.134Zm3.565-.562a1.64 1.64 0 0 0-.07-.49 1.097 1.097 0 0 0-.214-.405.863.863 0 0 0-.336-.27.974.974 0 0 0-.467-.105c-.19 0-.355.038-.498.115-.142.07-.264.163-.365.28-.095.119-.17.254-.224.407a2.241 2.241 0 0 0-.111.468h2.285ZM67.1 42.38c0-.562-.125-1-.376-1.311-.244-.313-.64-.469-1.189-.469-.115 0-.237.007-.365.021a1.686 1.686 0 0 0-.366.063v3.111c.108.076.25.15.427.218.183.063.376.094.579.094.447 0 .772-.156.975-.468.21-.312.315-.732.315-1.26Zm1.26-.021c0 .416-.055.798-.163 1.145-.102.346-.25.645-.447.895-.196.25-.444.444-.742.582a2.288 2.288 0 0 1-.995.208 2.546 2.546 0 0 1-1.209-.302V47h-1.23v-7.19c.251-.07.56-.136.925-.198a6.87 6.87 0 0 1 1.158-.094c.42 0 .796.066 1.128.198.332.132.613.322.843.572.237.243.417.541.538.895.13.347.194.739.194 1.176ZM69.565 38.197l1.23-.208v1.644h1.89v1.05h-1.89V42.9c0 .437.067.75.203.937.135.187.366.28.69.28.224 0 .42-.024.59-.072.176-.049.315-.094.416-.136l.203 1a4.078 4.078 0 0 1-.558.187 2.83 2.83 0 0 1-.813.104c-.38 0-.697-.052-.955-.156a1.426 1.426 0 0 1-.6-.448 1.86 1.86 0 0 1-.314-.718 4.638 4.638 0 0 1-.092-.968v-4.713ZM77.51 42.702c0 .354-.038.684-.112.989a1.969 1.969 0 0 1-.397.801c-.182.23-.433.41-.751.541-.312.132-.708.198-1.189.198-.447 0-.836-.062-1.168-.187-.325-.132-.576-.27-.752-.416l.457-1.03c.17.117.376.232.62.343.25.104.504.156.762.156.433 0 .748-.111.945-.333.196-.222.294-.604.294-1.145v-4.755h1.29v4.838ZM80.849 44.097c.46 0 .795-.08 1.005-.24.21-.16.315-.385.315-.676a.858.858 0 0 0-.112-.447 1 1 0 0 0-.304-.333 2.099 2.099 0 0 0-.478-.281 6.14 6.14 0 0 0-.65-.26c-.244-.09-.48-.188-.711-.292a2.626 2.626 0 0 1-.6-.406c-.169-.16-.308-.35-.416-.572a1.915 1.915 0 0 1-.152-.801c0-.652.22-1.162.66-1.53.44-.374 1.04-.562 1.798-.562.44 0 .83.052 1.168.156.346.097.617.205.813.323l-.396 1.061a2.977 2.977 0 0 0-.762-.302 3.385 3.385 0 0 0-.843-.104c-.346 0-.617.073-.813.219-.19.146-.284.35-.284.614 0 .16.03.298.091.416.068.111.16.212.274.302.122.09.261.173.417.25.162.076.338.149.528.218.332.125.627.253.884.385.264.125.484.278.66.458.183.174.322.382.417.624.095.236.142.524.142.864 0 .652-.227 1.159-.68 1.52-.448.353-1.105.53-1.971.53-.292 0-.56-.02-.803-.062a4.722 4.722 0 0 1-1.118-.302 3.55 3.55 0 0 1-.325-.167l.376-1.072c.183.105.43.209.742.313.311.104.687.156 1.127.156Z" fill="#607D8B"/></svg>