<svg width="111" height="48" fill="none" xmlns="http://www.w3.org/2000/svg"><path fill-rule="evenodd" clip-rule="evenodd" d="M24.5 27.808V17.85h1.317l3.63 6.254 1.087 2.065h.061c-.06-1.002-.153-2.126-.153-3.173V17.85h1.21v9.958h-1.317l-3.645-6.27-1.087-2.049h-.062c.077 1.002.169 2.065.169 3.112v5.207H24.5Zm9.613 0v-7.377h1.256v7.377h-1.256Zm.646-8.895c-.49 0-.873-.334-.873-.805 0-.486.383-.804.873-.804s.873.318.873.804c0 .47-.383.805-.873.805Zm5.463 12.295c-1.823 0-3.078-.713-3.078-1.988 0-.623.413-1.215 1.087-1.67v-.06a1.36 1.36 0 0 1-.659-1.2c0-.622.43-1.108.812-1.366v-.06c-.49-.396-.965-1.109-.965-1.99 0-1.608 1.287-2.625 2.803-2.625.413 0 .78.075 1.057.182h2.588v.956h-1.532c.353.334.613.896.613 1.518 0 1.579-1.21 2.565-2.726 2.565a2.62 2.62 0 0 1-1.118-.258c-.26.228-.475.47-.475.88 0 .471.306.805 1.317.805h1.44c1.73 0 2.603.532 2.603 1.761 0 1.366-1.455 2.55-3.767 2.55Zm0-6.572c.858 0 1.578-.684 1.578-1.761 0-1.078-.704-1.716-1.578-1.716-.872 0-1.577.638-1.577 1.716 0 1.077.72 1.76 1.577 1.76Zm.186 5.707c1.425 0 2.359-.729 2.359-1.503 0-.683-.536-.91-1.5-.91H39.98c-.291 0-.643-.03-.965-.122-.536.38-.766.82-.766 1.245 0 .79.812 1.29 2.16 1.29Zm4.843-2.535V17h1.256v2.945l-.046 1.518c.704-.668 1.455-1.215 2.481-1.215 1.562 0 2.267 1.002 2.267 2.885v4.675h-1.256V23.3c0-1.382-.429-1.974-1.41-1.974-.765 0-1.286.395-2.036 1.139v5.343H45.25Zm10.504.182c-1.593 0-2.129-1.002-2.129-2.459v-4.083h-1.102v-.941l1.163-.076.154-2.065h1.056v2.065h2.007v1.017h-2.007v4.098c0 .911.291 1.427 1.149 1.427.26 0 .597-.106.842-.197l.245.941c-.413.137-.919.273-1.378.273Zm3.846-.182-2.067-7.377h1.286l1.103 4.265c.169.698.306 1.366.444 2.05h.061c.169-.684.322-1.367.506-2.05l1.149-4.265h1.225l1.164 4.265c.183.698.352 1.366.52 2.05h.062c.168-.684.306-1.352.459-2.05l1.087-4.265h1.195l-1.991 7.377h-1.532L63.2 23.846c-.183-.698-.321-1.381-.505-2.125h-.061c-.169.744-.322 1.442-.52 2.14l-1.042 3.947h-1.47Zm11.21.182c-1.24 0-2.174-.774-2.174-2.095 0-1.609 1.393-2.413 4.564-2.762 0-.941-.307-1.852-1.532-1.852-.858 0-1.639.394-2.22.79l-.49-.866c.688-.44 1.73-.956 2.924-.956 1.823 0 2.589 1.199 2.589 3.036v4.523H73.43l-.107-.88h-.046c-.704.576-1.531 1.062-2.466 1.062Zm.366-1.002c.72 0 1.302-.349 2.021-.986v-2.05c-2.48.304-3.338.911-3.338 1.852 0 .835.582 1.184 1.317 1.184Zm7.591 1.002c-1.593 0-2.129-1.002-2.129-2.459v-4.083h-1.102v-.941l1.164-.076.153-2.065h1.056v2.065h2.007v1.017H77.91v4.098c0 .911.291 1.427 1.15 1.427.26 0 .596-.106.841-.197l.246.941c-.414.137-.92.273-1.379.273Zm5.385 0c-1.976 0-3.492-1.412-3.492-3.855 0-2.475 1.67-3.887 3.584-3.887.98 0 1.653.395 2.174.866l-.643.82c-.429-.38-.888-.653-1.486-.653-1.347 0-2.328 1.153-2.328 2.854 0 1.684.935 2.823 2.298 2.823.689 0 1.286-.334 1.746-.744l.551.835c-.674.592-1.516.941-2.404.941Zm3.87-.182V17h1.256v2.945l-.046 1.518c.705-.668 1.455-1.215 2.481-1.215 1.563 0 2.267 1.002 2.267 2.885v4.675h-1.256V23.3c0-1.382-.429-1.974-1.409-1.974-.766 0-1.286.395-2.037 1.139v5.343h-1.256Zm8.823.182c-.505 0-.919-.394-.919-.941 0-.577.414-.971.919-.971.49 0 .903.394.903.971 0 .547-.413.941-.903.941Zm2.61 3.112a2.98 2.98 0 0 1-1.102-.197l.26-.942c.184.061.444.122.705.122.735 0 .919-.547.919-1.442V20.43h1.255v8.212c0 1.503-.551 2.459-2.036 2.459Zm1.425-12.19c-.49 0-.873-.333-.873-.804 0-.486.383-.804.873-.804.475 0 .858.318.858.804 0 .47-.383.805-.858.805Zm4.895 9.078c-1.057 0-2.068-.44-2.773-1.017l.628-.835c.644.516 1.302.88 2.19.88.981 0 1.471-.515 1.471-1.153 0-.759-.889-1.093-1.7-1.396-1.057-.38-2.221-.88-2.221-2.126 0-1.184.95-2.095 2.558-2.095.934 0 1.746.38 2.312.835l-.597.79c-.505-.38-1.041-.653-1.7-.653-.934 0-1.363.501-1.363 1.063 0 .698.812.956 1.654 1.275 1.072.394 2.267.835 2.267 2.231 0 1.2-.965 2.201-2.726 2.201Z" fill="#FF7F2B"/><path d="M4.733 14.414a.35.35 0 0 1 .14-.324.38.38 0 0 1 .358-.054l3.521 1.258-3.534 3.307-.485-4.187ZM17.184 14.414a.351.351 0 0 0-.14-.324.377.377 0 0 0-.358-.054l-3.522 1.258 3.535 3.307.485-4.187Z" fill="#502D17"/><path d="M11 32.567c4.694 0 8.5-3.168 8.5-7.076 0-3.907-3.806-7.075-8.5-7.075s-8.5 3.168-8.5 7.075c0 3.908 3.806 7.076 8.5 7.076Z" fill="#794422"/><path d="M18.035 23.556c0 5.277-3.149 9.554-7.031 9.554-3.883 0-7.031-4.277-7.031-9.554C3.973 18.28 7.12 14 11.003 14c3.883 0 7.032 4.282 7.032 9.556Z" fill="#502D17"/><path d="M8.163 23.933c1.81 0 3.28-1.622 3.28-3.623 0-2.001-1.47-3.623-3.28-3.623-1.812 0-3.28 1.622-3.28 3.623 0 2 1.468 3.623 3.28 3.623Z" fill="#fff"/><path d="M15.898 27.508c0 2.441-2.194 4.42-4.899 4.42s-4.894-1.973-4.894-4.42c0-2.446 2.193-4.422 4.898-4.422 2.706 0 4.895 1.98 4.895 4.422Z" fill="#fff"/><path d="M17.055 20.305c0 2.001-1.468 3.623-3.28 3.623-1.812 0-3.279-1.617-3.279-3.623 0-2.006 1.468-3.624 3.279-3.624 1.81 0 3.28 1.63 3.28 3.624Z" fill="#fff"/><path d="M10.732 21.543a.78.78 0 0 1 .564.006c.52.195.981.513 1.341.926a.412.412 0 0 1 .028.485 5.52 5.52 0 0 1-1.406 1.447.406.406 0 0 1-.481 0 5.489 5.489 0 0 1-1.406-1.447.399.399 0 0 1 .029-.48 3.087 3.087 0 0 1 1.331-.937Z" fill="#FF7F2B"/><path d="M10.674 25.267c0 .169-.069.33-.192.45a.666.666 0 0 1-.927 0 .626.626 0 0 1-.192-.45h1.311ZM12.663 25.267c0 .169-.07.33-.192.45a.666.666 0 0 1-.927 0 .626.626 0 0 1-.192-.45h1.31ZM9.674 26.534c0 .169-.069.33-.192.45a.666.666 0 0 1-.927 0 .626.626 0 0 1-.192-.45h1.311ZM11.67 26.534c0 .169-.069.33-.192.45a.666.666 0 0 1-.927 0 .626.626 0 0 1-.192-.45h1.311ZM13.655 26.534c0 .169-.07.33-.192.45a.666.666 0 0 1-.927 0 .626.626 0 0 1-.192-.45h1.31ZM8.678 27.775c0 .169-.069.33-.192.45a.666.666 0 0 1-.927 0 .626.626 0 0 1-.192-.45h1.311ZM10.674 27.775c0 .169-.069.33-.192.45a.666.666 0 0 1-.927 0 .626.626 0 0 1-.192-.45h1.311ZM12.663 27.775c0 .169-.07.33-.192.45a.666.666 0 0 1-.927 0 .626.626 0 0 1-.192-.45h1.31ZM14.66 27.775a.629.629 0 0 1-.201.433.668.668 0 0 1-.91 0 .628.628 0 0 1-.201-.433h1.312ZM9.674 29.043c0 .168-.069.33-.192.449a.666.666 0 0 1-.927 0 .626.626 0 0 1-.192-.45h1.311ZM11.67 29.043c0 .168-.069.33-.192.449a.666.666 0 0 1-.927 0 .626.626 0 0 1-.192-.45h1.311ZM13.655 29.043c0 .168-.07.33-.192.449a.666.666 0 0 1-.927 0 .626.626 0 0 1-.192-.45h1.31ZM10.674 30.282c0 .169-.069.33-.192.45a.666.666 0 0 1-.927 0 .626.626 0 0 1-.192-.45h1.311ZM12.663 30.282c0 .169-.07.33-.192.45a.666.666 0 0 1-.927 0 .626.626 0 0 1-.192-.45h1.31Z" fill="#DDD"/><path d="M8.588 21.752c1.054 0 1.908-.829 1.908-1.85 0-1.023-.854-1.851-1.908-1.851-1.054 0-1.908.828-1.908 1.85 0 1.022.854 1.85 1.908 1.85Z" fill="#CED8E1"/><path d="M8.593 21.061c.66 0 1.194-.518 1.194-1.158 0-.64-.535-1.158-1.194-1.158-.66 0-1.195.519-1.195 1.158 0 .64.535 1.158 1.195 1.158Z" fill="#333"/><path d="M8.892 19.904a.436.436 0 0 0 .442-.43.436.436 0 0 0-.442-.428.436.436 0 0 0-.443.429c0 .237.198.429.443.429Z" fill="#fff"/><path d="M13.257 21.755c1.054 0 1.909-.829 1.909-1.851 0-1.023-.855-1.852-1.91-1.852-1.053 0-1.908.83-1.908 1.852 0 1.022.854 1.851 1.909 1.851Z" fill="#CED8E1"/><path d="M13.257 21.061c.66 0 1.194-.518 1.194-1.158 0-.64-.535-1.158-1.194-1.158-.66 0-1.194.519-1.194 1.158 0 .64.534 1.158 1.194 1.158Z" fill="#333"/><path d="M13.56 19.904a.436.436 0 0 0 .442-.43.436.436 0 0 0-.442-.428.436.436 0 0 0-.443.429c0 .237.198.429.443.429Z" fill="#fff"/><path d="M14.962 33.117c0 .489-.278.883-.62.883-.341 0-.62-.394-.62-.883 0 .489-.277.883-.62.883-.343 0-.62-.394-.62-.883 0 .489-.277.883-.62.883-.343 0-.62-.394-.62-.883 0-.69.83-1.248 1.854-1.248 1.025 0 1.855.559 1.855 1.248h.011ZM10.736 33.117c0 .489-.278.883-.62.883-.342 0-.621-.394-.621-.883 0 .489-.277.883-.62.883-.343 0-.62-.394-.62-.883 0 .489-.278.883-.62.883-.341 0-.62-.394-.62-.883 0-.69.83-1.248 1.855-1.248 1.024 0 1.855.559 1.855 1.248h.01Z" fill="#FF7F2B"/></svg>