<svg width="111" height="48" fill="none" xmlns="http://www.w3.org/2000/svg"><path d="M20.044 28.367A13.895 13.895 0 0 1 19.5 24.5c0-5.92 3.748-11.358 9.31-13.533l.725 1.873c-4.776 1.873-8.04 6.525-8.04 11.66 0 1.148.12 2.236.423 3.323l-1.874.544Z" fill="#69D3A7"/><path d="M45.19 18.76c-2.177-4.168-6.47-6.766-11.124-6.766-1.633 0-3.265.302-4.776.966l-.786-1.873A14.484 14.484 0 0 1 34.066 10c5.44 0 10.398 3.02 12.937 7.794l-1.814.966Z" fill="url(#a)"/><path d="M29.715 21.479c1.148 0 2.116.604 2.6 1.692l.06.06 1.995-.665-.06-.12c-.787-1.873-2.54-3.021-4.595-3.021-1.451 0-2.66.483-3.627 1.45-.968.966-1.451 2.175-1.451 3.564 0 1.39.483 2.598 1.45 3.565.968.967 2.177 1.45 3.628 1.45 2.055 0 3.808-1.148 4.594-3.02l.06-.122-1.994-.664-.06.06c-.424 1.088-1.391 1.692-2.6 1.692-.846 0-1.512-.302-2.056-.846s-.846-1.269-.846-2.115c0-.845.302-1.57.846-2.175a2.986 2.986 0 0 1 2.056-.785ZM54.02 20.935c-.907-.966-2.056-1.45-3.386-1.45s-2.418.484-3.264 1.39v-1.208h-2.116v13.291h2.116v-4.893c.846.906 1.934 1.39 3.264 1.39 1.33 0 2.479-.484 3.386-1.45.906-.968 1.33-2.115 1.33-3.505 0-1.39-.424-2.598-1.33-3.565Zm-1.693 5.68c-.544.543-1.21.845-2.055.845-.847 0-1.512-.302-2.056-.846-.544-.543-.846-1.268-.846-2.114 0-.846.302-1.57.846-2.175.544-.544 1.21-.846 2.056-.846.846 0 1.51.302 2.055.846.544.544.786 1.269.786 2.175.06.846-.242 1.57-.786 2.114ZM58.792 20.875v-1.148h-2.116v9.546h2.116v-5.377c0-.846.362-1.51 1.027-1.994.665-.423 1.512-.544 2.479-.241l.12.06v-2.054c-1.39-.363-2.72.12-3.626 1.208ZM68.045 19.546c-1.39 0-2.6.483-3.567 1.45-.967.906-1.45 2.114-1.45 3.504 0 1.39.483 2.598 1.45 3.565.968.966 2.177 1.45 3.628 1.45 1.994 0 3.687-1.027 4.534-2.659l.06-.12-1.814-.786-.06.06c-.544 1.028-1.511 1.632-2.66 1.632-1.511 0-2.66-.907-2.962-2.357h7.738v-.12c.181-1.571-.242-2.9-1.21-3.988-.906-1.087-2.176-1.631-3.687-1.631Zm-2.78 3.987c.362-1.329 1.45-2.114 2.72-2.114 1.33 0 2.418.846 2.78 2.114h-5.5ZM78.626 23.594c-1.149-.242-2.177-.423-2.177-1.209 0-.664.665-1.087 1.633-1.087 1.088 0 1.692.483 1.813 1.39v.12l2.116-.422v-.121c-.302-1.692-1.813-2.72-3.93-2.72-1.088 0-1.994.303-2.72.847-.725.544-1.088 1.268-1.088 2.114 0 1.27.786 2.175 2.116 2.477l1.088.182c1.33.241 2.54.483 2.54 1.329 0 .664-.787 1.148-1.935 1.148-1.149 0-1.814-.484-1.935-1.39v-.12l-2.116.422v.121c.302 1.692 1.814 2.719 4.111 2.719 1.149 0 2.116-.302 2.902-.846s1.209-1.269 1.209-2.115c-.06-2.175-1.995-2.537-3.627-2.84ZM87.872 23.594c-1.149-.242-2.177-.423-2.177-1.209 0-.664.666-1.087 1.633-1.087 1.088 0 1.692.483 1.813 1.39v.12l2.116-.422v-.121c-.302-1.692-1.813-2.72-3.93-2.72-1.087 0-1.994.303-2.72.847-.725.544-1.088 1.268-1.088 2.114 0 1.27.786 2.175 2.116 2.477l1.088.182c1.33.241 2.54.483 2.54 1.329 0 .664-.787 1.148-1.935 1.148-1.149 0-1.814-.484-1.935-1.39v-.12l-2.116.422v.121c.303 1.692 1.814 2.719 4.111 2.719 1.149 0 2.116-.302 2.902-.846s1.21-1.269 1.21-2.115c-.061-2.175-2.056-2.537-3.628-2.84Z" fill="#1B1E2E"/><path d="m42.048 19.727-2.78 7.13-2.842-7.13H34.13l3.99 9.727-2.902 6.767 1.995.423 6.952-16.917h-2.116Z" fill="#1B1E2E"/><path d="m35.581 35.375-.483 1.209c-.121.241-.303.422-.544.422h-.484c-5.804 0-10.942-4.108-12.212-9.727l-1.995.423c.726 3.142 2.479 6.042 5.018 8.096C27.481 37.852 30.684 39 34.01 39h.604c1.028-.06 1.995-.664 2.358-1.631l.665-1.57-2.056-.424Z" fill="url(#b)"/><defs><linearGradient id="a" x1="32.535" y1="9.058" x2="43.569" y2="20.86" gradientUnits="userSpaceOnUse"><stop offset=".094" stop-color="#58D09E"/><stop offset=".988" stop-color="#58D09E" stop-opacity="0"/></linearGradient><linearGradient id="b" x1="19.346" y1="31.096" x2="40.44" y2="36.713" gradientUnits="userSpaceOnUse"><stop offset=".077" stop-color="#58D09E"/><stop offset=".762" stop-color="#1B1E2E"/></linearGradient></defs></svg>