<svg width="111" height="48" fill="none" xmlns="http://www.w3.org/2000/svg"><path d="M33.883 35.95c-1.987-.248-3.308-1.196-4.177-2.987-.174-.346-.34-.609-.378-.571-.03.03-.234.549-.445 1.15-.25.715-.453 1.167-.59 1.302l-.203.218-1.14-.03c-1.76-.037-1.76-.037-.839-2.58 1.684-4.65 2.75-7.591 4.834-13.362 1.269-3.506 2.356-6.47 2.424-6.598.068-.128.196-.279.28-.324.256-.135 1.54-.21 2.386-.143.891.068 1.11.173 1.284.587.143.346 6.918 19.042 7.469 20.63.227.64.408 1.226.408 1.301 0 .076-.09.219-.204.324-.204.188-.212.188-1.39.165-1.586-.03-1.472.06-2.107-1.7-.272-.752-.52-1.362-.559-1.347-.037.015-.158.226-.264.474-.37.858-.71 1.347-1.36 1.987-.755.744-1.381 1.106-2.348 1.354-.733.188-2.19.256-3.081.15Zm2-2.25c1.035-.27 1.534-.864 1.534-1.835 0-.94-.529-1.444-2.538-2.43-.8-.391-1.661-.85-1.91-1.016-.597-.399-1.17-1.03-1.48-1.64l-.25-.497-.06.377c-.121.662-.068 2.866.075 3.498.506 2.212 1.382 3.122 3.444 3.581.559.12.567.12 1.186-.037Zm3.55-4.07c.068-1.24-.083-2.723-.362-3.513-.438-1.249-.982-1.896-1.964-2.355-1.065-.489-2.092-.572-2.9-.226-.74.316-1.05.79-1.05 1.618 0 1.136.423 1.55 2.704 2.67 1.035.512 1.85.971 2.122 1.19.552.436.982.985 1.156 1.467.12.346.128.353.189.15.03-.12.075-.564.105-1Zm-4.856-7.907c.695-.105 1.42-.052 2.304.158.347.083.642.143.657.136.007-.015-.491-1.49-1.125-3.28-.884-2.529-1.163-3.25-1.254-3.236-.128.03-.181.158-1.488 3.935-.483 1.407-.899 2.596-.914 2.64-.022.061.204.023.597-.09.347-.097.891-.218 1.223-.263ZM58.964 35.273c-1.556-.165-2.41-.88-2.787-2.347-.106-.391-.129-1.054-.159-3.8l-.038-3.332h-.694c-.975 0-.99-.023-.99-1.242s.015-1.241.997-1.241h.703V22.13c0-.655.022-1.264.045-1.355.083-.3.559-.414 1.669-.383.778.015 1.012.052 1.178.157l.204.128v2.634h1.269c1.586 0 1.548-.023 1.586 1.03.037.866-.015 1.182-.227 1.377-.15.136-.272.15-1.352.15H59.19l-.053.287c-.075.458-.045 4.747.03 5.311.084.55.265.918.53 1.084.309.188.852.195 1.434.022.778-.233.793-.21.793 1.046v.978l-.264.263c-.43.43-1.292.557-2.696.414ZM68.117 35.273c-2.976-.451-4.494-2.445-4.494-5.89 0-2.047.491-3.544 1.548-4.71.582-.64 1.715-1.25 2.78-1.49.838-.196 2.688-.173 3.527.037 1.752.444 2.907 1.49 3.481 3.153.468 1.37.499 3.581.053 5.1-.408 1.4-1.45 2.724-2.583 3.273-.921.452-1.352.542-2.688.572-.642.008-1.375-.007-1.624-.045Zm2.152-2.528c.778-.225 1.254-.7 1.571-1.542.46-1.234.393-3.4-.136-4.439-.234-.444-.634-.858-1.042-1.053-.287-.143-.476-.173-.997-.173-.929 0-1.352.165-1.933.737-.68.67-.937 1.482-.937 2.942.008 1.926.642 3.19 1.752 3.52.529.151 1.216.159 1.722.008ZM79.513 35.243c-1.246-.233-2.024-.594-2.235-1.023-.098-.196-.136-.444-.136-.978 0-.775.098-1.076.347-1.114.083-.015.468.136.839.324 2.076 1.038 4.1.752 4.115-.587.016-.685-.286-.948-1.79-1.55-1.948-.79-2.688-1.317-3.149-2.25-.241-.48-.249-.526-.249-1.444 0-.94 0-.948.287-1.52.672-1.361 2.017-2.039 4.056-2.046 1.072-.008 1.918.15 2.567.474.627.3.703.459.71 1.377 0 1.173-.128 1.294-.921.895-.974-.489-2.024-.655-2.847-.451-.446.112-.914.519-.96.835-.113.76.295 1.106 2.183 1.828 1.209.466 1.722.76 2.228 1.256.748.723 1.065 1.716.899 2.83-.12.812-.43 1.429-1.027 2.038-.521.542-.997.82-1.752 1.03-.59.166-2.44.212-3.165.076ZM46.986 35.01c-.159-.053-.317-.12-.34-.15-.068-.06-.114-10.812-.053-11.15.023-.143.113-.287.211-.34.257-.135 1.692-.165 2.055-.044.355.12.4.233.407 1.06l.008.587.362-.436c.552-.654 1.035-1.068 1.511-1.287.717-.338 1.964-.255 2.326.143.129.143.144.286.144 1.264-.008.693-.038 1.182-.099 1.317-.083.196-.113.21-.415.166-.8-.12-1.337-.136-1.601-.046-.166.053-.521.316-.846.625-.982.933-.883.451-.929 4.537l-.038 3.55-.188.159c-.174.135-.287.15-1.209.15-.664 0-1.117-.037-1.306-.105Z" fill="#4572C4"/></svg>