<svg width="111" height="48" fill="none" xmlns="http://www.w3.org/2000/svg"><path d="M49.707 15.686c-1.27.367-2.102 1.012-2.65 1.656.525-.47 1.229-.9 2.178-1.175.97-.28 1.8-.278 2.484-.144v-.546a5.373 5.373 0 0 0-2.012.209Zm-2.709-4.592-4.713 1.268s.086.123.245.289l3.996-1.075s-.056.745-.548 1.41c.93-.718 1.02-1.892 1.02-1.892ZM50.944 22.4c-6.633 1.823-10.143-6.021-11.205-10.093-.491-1.88-.706-3.303-.763-4.222a1.582 1.582 0 0 1 .004-.25c-.344.022-.51.204-.476.732.057.918.272 2.341.763 4.221 1.062 4.072 4.572 11.917 11.205 10.093 1.444-.396 2.529-1.12 3.343-2.042-.75.691-1.69 1.236-2.87 1.561Zm1.247-16.106v.482h2.601c-.053-.17-.107-.325-.16-.482h-2.441Z" fill="#2D4552"/><path d="M55.37 10.26c1.17.34 1.79 1.177 2.117 1.918l1.304.378s-.177-2.593-2.476-3.259c-2.15-.623-3.473 1.22-3.634 1.457.626-.454 1.539-.826 2.69-.493Zm10.386 1.93c-2.152-.626-3.474 1.22-3.633 1.455.626-.454 1.539-.826 2.69-.492 1.167.34 1.786 1.176 2.114 1.918l1.306.38s-.18-2.594-2.477-3.261Zm-1.296 6.837L53.607 15.93s.117.608.568 1.396l9.138 2.607c.752-.445 1.147-.906 1.147-.906Zm-7.525 6.665c-8.593-2.352-7.554-13.526-6.164-18.82.573-2.183 1.161-3.804 1.65-4.892-.292-.06-.533.096-.771.59-.519 1.073-1.181 2.82-1.823 5.265-1.39 5.295-2.429 16.468 6.164 18.82 4.05 1.107 7.206-.576 9.558-3.22-2.232 2.065-5.083 3.222-8.614 2.257Z" fill="#2D4552"/><path d="M52.195 19.78v-2.254l-6.14 1.776s.454-2.69 3.656-3.616c.97-.281 1.8-.28 2.484-.144V6.293h3.074c-.335-1.055-.659-1.868-.93-2.432-.45-.935-.912-.315-1.959.578-.737.629-2.6 1.97-5.405 2.74-2.804.773-5.071.568-6.017.4-1.341-.235-2.043-.536-1.977.505.057.918.271 2.342.762 4.222 1.062 4.071 4.572 11.916 11.206 10.093 1.732-.477 2.955-1.418 3.803-2.619h-2.557Zm-9.907-7.418 4.714-1.268s-.137 1.851-1.904 2.327c-1.768.474-2.81-1.06-2.81-1.06Z" fill="#E2574C"/><path d="M69.93 6.4c-1.225.219-4.165.492-7.798-.502-3.634-.993-6.045-2.73-7-3.546-1.355-1.158-1.95-1.962-2.537-.746-.518 1.074-1.181 2.82-1.822 5.265-1.39 5.295-2.43 16.469 6.164 18.82 8.591 2.35 13.165-7.858 14.555-13.153.642-2.445.923-4.296 1-5.49.089-1.352-.821-.96-2.562-.648Zm-17.265 4.38s1.354-2.149 3.65-1.483c2.3.666 2.477 3.26 2.477 3.26l-6.127-1.777Zm5.607 9.646c-4.04-1.208-4.663-4.496-4.663-4.496l10.852 3.097s-2.19 2.591-6.19 1.399Zm3.837-6.757s1.352-2.148 3.648-1.48c2.297.668 2.478 3.26 2.478 3.26l-6.126-1.78Z" fill="#2EAD33"/><path d="m50.046 18.147-3.994 1.155s.434-2.522 3.376-3.522l-2.261-8.66-.196.06c-2.804.772-5.071.567-6.017.4-1.341-.236-2.043-.537-1.977.504.057.918.271 2.341.762 4.222 1.062 4.07 4.572 11.916 11.206 10.093l.195-.063-1.094-4.19Zm-7.761-5.785 4.714-1.268s-.137 1.85-1.905 2.326c-1.767.475-2.81-1.059-2.81-1.059Z" fill="#D65348"/><path d="m58.454 20.47-.183-.044c-4.04-1.208-4.663-4.496-4.663-4.496l5.596 1.597 2.963-11.619-.036-.01c-3.634-.993-6.045-2.73-7-3.546-1.355-1.158-1.95-1.962-2.536-.746-.518 1.074-1.181 2.82-1.822 5.265-1.39 5.295-2.43 16.469 6.164 18.82l.176.04 1.34-5.26Zm-5.79-9.69s1.355-2.149 3.652-1.483c2.298.666 2.476 3.26 2.476 3.26l-6.127-1.777Z" fill="#1D8D22"/><path d="m50.247 18.087-1.071.31c.253 1.456.699 2.853 1.399 4.087.121-.027.242-.05.366-.085.326-.09.627-.2.918-.322-.782-1.184-1.3-2.548-1.612-3.99Zm-.419-10.252c-.55 2.096-1.042 5.114-.907 8.14.243-.107.499-.207.784-.29l.198-.045c-.242-3.233.28-6.527.87-8.769.149-.567.298-1.094.447-1.586-.24.156-.498.316-.793.48-.199.627-.4 1.31-.599 2.07Z" fill="#C04B41"/><path d="M26.908 32.598c1.19 0 2.056.238 2.6.715.543.477.815 1.148.815 2.015 0 .381-.064.75-.191 1.105a2.406 2.406 0 0 1-.6.936c-.28.277-.653.498-1.12.663-.468.156-1.04.234-1.72.234h-1.045v3.614H24.5v-9.282h2.408Zm-.102 1.001h-1.16v3.666h.918c.578 0 1.058-.06 1.44-.182.382-.13.667-.334.854-.611.186-.277.28-.641.28-1.092 0-.598-.187-1.044-.56-1.339-.375-.295-.965-.442-1.772-.442ZM33.183 41.88h-1.121V32h1.12v9.88ZM37.933 34.795c.833 0 1.448.186 1.848.559.399.373.598.966.598 1.781v4.745h-.815l-.217-.988h-.05c-.196.251-.4.464-.612.637a1.998 1.998 0 0 1-.714.364 3.453 3.453 0 0 1-.968.117 2.7 2.7 0 0 1-1.109-.221 1.717 1.717 0 0 1-.764-.676c-.187-.312-.28-.702-.28-1.17 0-.693.267-1.226.802-1.599.535-.381 1.36-.59 2.472-.624l1.16-.039v-.416c0-.58-.123-.984-.37-1.209-.246-.225-.595-.338-1.045-.338a3.07 3.07 0 0 0-1.019.169 6.601 6.601 0 0 0-.905.364l-.344-.858a4.85 4.85 0 0 1 1.058-.416 4.444 4.444 0 0 1 1.274-.182Zm.331 3.718c-.85.035-1.44.173-1.77.416-.324.243-.485.585-.485 1.027 0 .39.115.676.344.858.238.182.54.273.905.273.577 0 1.057-.16 1.44-.481.382-.33.573-.832.573-1.508v-.624l-1.007.039ZM41.418 34.912h1.198l1.478 3.965c.085.234.161.46.23.676.076.217.144.429.203.637.06.2.106.394.14.585h.051c.051-.217.132-.498.242-.845.11-.355.226-.71.344-1.066l1.39-3.952h1.21l-2.944 7.93c-.16.433-.352.81-.573 1.131-.212.33-.476.58-.79.754-.306.182-.68.273-1.121.273-.204 0-.382-.013-.535-.039a3.433 3.433 0 0 1-.395-.065v-.91c.093.017.204.035.331.052.136.017.276.026.42.026.264 0 .489-.052.676-.156.195-.095.36-.238.497-.429.136-.182.25-.399.344-.65l.356-.923-2.752-6.994ZM53.392 37.941c-.05-.182-.102-.36-.153-.533l-.14-.507a12.956 12.956 0 0 0-.102-.455 5.786 5.786 0 0 1-.076-.351h-.051a5.7 5.7 0 0 1-.076.351c-.026.139-.06.29-.102.455a7.765 7.765 0 0 1-.128.52 7.402 7.402 0 0 1-.153.533l-1.223 3.913h-1.274l-1.873-6.968h1.16l.942 3.718a20.312 20.312 0 0 1 .344 1.495c.051.225.085.42.102.585h.051c.026-.104.055-.234.09-.39.033-.156.067-.32.101-.494l.128-.52c.05-.173.097-.33.14-.468l1.21-3.926h1.224l1.172 3.926c.06.2.119.412.178.637.068.225.127.446.178.663.051.208.085.394.102.559h.051c.017-.147.047-.33.09-.546l.165-.728c.068-.269.136-.533.204-.793l.956-3.718h1.146l-1.898 6.968h-1.312l-1.173-3.926ZM62.186 34.782c.127 0 .263.009.407.026.153.009.285.026.395.052l-.14 1.053a3.612 3.612 0 0 0-.739-.091c-.263 0-.514.056-.752.169a2.01 2.01 0 0 0-.637.481c-.187.2-.335.442-.446.728a2.853 2.853 0 0 0-.153.962v3.718h-1.12v-6.968h.917l.127 1.274h.051c.144-.26.319-.494.522-.702.204-.217.438-.386.701-.507a1.93 1.93 0 0 1 .867-.195ZM65.385 34.912v6.968h-1.121v-6.968h1.12Zm-.548-2.613c.17 0 .319.06.446.182.136.113.204.295.204.546 0 .243-.068.425-.204.546a.627.627 0 0 1-.446.182.657.657 0 0 1-.472-.182c-.127-.121-.19-.303-.19-.546 0-.251.063-.433.19-.546a.657.657 0 0 1 .472-.182ZM69.97 34.782c.45 0 .853.087 1.21.26.365.173.675.438.93.793h.064l.152-.923h.892v7.085c0 .659-.11 1.209-.33 1.651-.222.45-.557.789-1.008 1.014-.45.225-1.023.338-1.72.338-.492 0-.947-.039-1.363-.117a4.414 4.414 0 0 1-1.096-.325v-1.053c.221.113.463.208.727.286.263.087.547.152.853.195.306.043.62.065.943.065.586 0 1.045-.178 1.376-.533.34-.347.51-.823.51-1.43v-.273c0-.104.004-.251.013-.442.008-.2.017-.338.025-.416h-.05c-.239.355-.536.62-.893.793-.348.173-.756.26-1.223.26-.883 0-1.576-.316-2.077-.949-.493-.633-.739-1.517-.739-2.652 0-.745.11-1.387.332-1.924.229-.546.552-.966.968-1.261.416-.295.917-.442 1.503-.442Zm.152.962c-.382 0-.71.104-.98.312-.264.208-.468.511-.612.91-.136.399-.204.884-.204 1.456 0 .858.153 1.517.458 1.976.315.45.77.676 1.364.676.348 0 .645-.043.892-.13a1.49 1.49 0 0 0 .611-.429c.162-.2.28-.45.357-.754.076-.303.115-.663.115-1.079v-.273c0-.633-.073-1.144-.217-1.534-.136-.39-.353-.676-.65-.858-.297-.182-.675-.273-1.134-.273ZM76.509 34.899c0 .165-.009.334-.026.507a6.49 6.49 0 0 1-.038.468h.076c.145-.243.327-.442.548-.598.221-.156.467-.273.74-.351a2.75 2.75 0 0 1 .84-.13c.552 0 1.011.091 1.376.273.374.173.654.446.841.819.187.373.28.858.28 1.456v4.537h-1.108v-4.459c0-.563-.123-.984-.37-1.261-.246-.277-.632-.416-1.159-.416-.51 0-.909.1-1.198.299-.289.19-.497.477-.624.858-.119.373-.178.832-.178 1.378v3.601h-1.122V32h1.122v2.899ZM85.544 41.074c.17 0 .344-.013.523-.039a4.12 4.12 0 0 0 .433-.104v.871c-.119.06-.289.108-.51.143a3.31 3.31 0 0 1-.637.065c-.356 0-.688-.06-.994-.182a1.581 1.581 0 0 1-.726-.663c-.187-.312-.28-.75-.28-1.313v-4.056h-.968v-.546l.98-.455.447-1.482h.662v1.599h1.975v.884h-1.975v4.03c0 .425.098.741.293.949.204.2.463.299.777.299Z" fill="#2D4552"/></svg>