<svg width="111" height="48" fill="none" xmlns="http://www.w3.org/2000/svg"><path d="m25.914 25.667-1.023 1.055h4.092l4.092 3.694H11.592l4.092-3.694h3.069l-1.023-1.055h-3.069L7.5 32h29.667l-7.16-6.333h-4.093Z" fill="#172535"/><path d="M35.016 15.559 32.47 13 21.784 23.75l-4.072-4.096-2.544 2.56 6.616 6.653L35.016 15.56Zm13.819 2.796h-8.94v1.97h3.356v9.342h2.244v-9.341h3.34v-1.971Zm5.564 4.647a2.687 2.687 0 0 0-.734-1.024 2.798 2.798 0 0 0-1.043-.546 4.437 4.437 0 0 0-1.207-.165c-1.24 0-2.201.363-2.886 1.09-.685.727-1.028 1.818-1.028 3.272 0 1.355.305 2.421.914 3.198.608.777 1.57 1.165 2.886 1.165a5.75 5.75 0 0 0 1.786-.273c.48-.14.93-.367 1.328-.67l-.698-1.404a3.417 3.417 0 0 1-2 .628c-.714 0-1.231-.176-1.551-.529a2.446 2.446 0 0 1-.528-1.57h4.876c.054-.286.095-.561.121-.826.026-.247.04-.495.041-.743a4.068 4.068 0 0 0-.277-1.603Zm-1.696 1.834h-3.017c.026-.485.192-.953.478-1.347.153-.175.343-.312.556-.4.212-.087.441-.122.67-.104.199-.016.398.019.581.103.183.084.342.213.464.377.242.413.336.897.267 1.371h.002Zm8.007.52a3.903 3.903 0 0 0-.897-.47 85.11 85.11 0 0 1-.898-.34 3.612 3.612 0 0 1-.684-.338.54.54 0 0 1-.202-.2.56.56 0 0 1-.075-.28c0-.495.315-.743.945-.743.392 0 .781.056 1.158.166.38.11.696.215.946.313l.473-1.553c-.37-.2-.765-.35-1.174-.446a6.577 6.577 0 0 0-1.68-.198 2.998 2.998 0 0 0-2.07.644c-.248.239-.44.529-.563.85a2.413 2.413 0 0 0-.155 1.018c-.018.422.078.841.277 1.214.174.302.407.566.685.777.273.204.575.366.897.48.326.115.625.227.897.338.24.093.47.215.685.363a.615.615 0 0 1 .276.529.68.68 0 0 1-.06.347.66.66 0 0 1-.224.265c-.231.131-.494.194-.759.181-.432 0-.862-.07-1.272-.206a5.577 5.577 0 0 1-.994-.422l-.587 1.603c.386.23.8.404 1.23.52a5.718 5.718 0 0 0 1.623.224c1.054 0 1.845-.24 2.373-.719.266-.25.475-.556.61-.896.137-.342.199-.71.18-1.078a2.292 2.292 0 0 0-.277-1.19 2.46 2.46 0 0 0-.684-.752Zm6.22 2.67a2.1 2.1 0 0 1-.563.066.629.629 0 0 1-.378-.082.656.656 0 0 1-.266-.29 3.178 3.178 0 0 1-.17-1.231v-3.173h1.989v-1.818h-1.99v-2.165l-2.12.612v1.553h-1.125v1.818h1.125v4.164c0 .892.177 1.534.53 1.925.22.21.481.372.767.474a2.1 2.1 0 0 0 .888.113c.401 0 .801-.05 1.19-.149a5.336 5.336 0 0 0 1.028-.363l-.375-1.653c-.172.08-.349.146-.53.199Z" fill="#1274CC"/><path d="M72.832 21.852a5.188 5.188 0 0 1 1.1-1.459c.387-.354.84-.627 1.332-.803.447-.159.917-.242 1.39-.245a4.802 4.802 0 0 1 2.208.393l.549-1.213a4.612 4.612 0 0 0-1.03-.287 9.78 9.78 0 0 0-1.61-.107 5.795 5.795 0 0 0-1.886.328 5.673 5.673 0 0 0-1.807 1.04 6.687 6.687 0 0 0-1.491 1.837 8.492 8.492 0 0 0-.93 2.73 7.692 7.692 0 0 0-.076 2.662c.098.667.355 1.3.75 1.844.364.478.85.849 1.404 1.074a4.914 4.914 0 0 0 1.898.352 9.017 9.017 0 0 0 1.656-.147c.482-.081.944-.26 1.356-.525l-.141-1.065c-.32.166-.657.293-1.007.377a5.472 5.472 0 0 1-1.331.148 3.574 3.574 0 0 1-1.485-.296 2.61 2.61 0 0 1-1.072-.885 3.459 3.459 0 0 1-.559-1.475 6.256 6.256 0 0 1 .07-2.065c.123-.77.363-1.517.712-2.213Zm12.975.45a1.497 1.497 0 0 0-.69-.597 3.207 3.207 0 0 0-1.348-.23 8.8 8.8 0 0 0-1.785.18 5.75 5.75 0 0 0-1.57.557l.236 1c.188-.096.383-.178.584-.244.223-.074.45-.137.681-.185.227-.05.456-.089.686-.118.204-.027.41-.041.615-.043.642 0 1.064.12 1.264.36.201.241.248.662.14 1.263a9.5 9.5 0 0 1-.208.885 3.15 3.15 0 0 0-.45-.033h-.458a10.882 10.882 0 0 0-1.692.123 4.875 4.875 0 0 0-1.37.41c-.38.18-.713.443-.977.77a2.64 2.64 0 0 0-.515 1.205c-.065.32-.059.65.019.968.07.27.204.521.393.729.195.209.437.369.706.467.307.113.632.168.96.164.326.003.651-.036.968-.115.27-.069.531-.165.782-.287.218-.106.423-.238.61-.393.165-.137.317-.287.455-.451h.083l.144 1.147h.98a5.102 5.102 0 0 1-.004-1c.031-.36.083-.742.156-1.147.1-.557.222-1.147.366-1.77A37.9 37.9 0 0 0 85.961 24c.053-.292.075-.588.067-.885a1.72 1.72 0 0 0-.22-.811Zm-1.816 5.188a2.572 2.572 0 0 1-.852.86 2.966 2.966 0 0 1-.688.313 2.809 2.809 0 0 1-.852.123 1.307 1.307 0 0 1-.999-.37 1.027 1.027 0 0 1-.247-.942c.041-.258.163-.496.346-.68.193-.187.423-.332.675-.426.29-.11.594-.181.902-.213a8.92 8.92 0 0 1 1.016-.058c.314 0 .628.012.942.033l-.243 1.36Zm6.198-5.884.04-.23c.059-.327.119-.614.18-.86.05-.218.132-.428.244-.622.099-.167.244-.3.418-.386.219-.096.457-.14.696-.13.211 0 .422.016.63.048.238.038.47.11.686.214l.496-1.099a3.494 3.494 0 0 0-.813-.246 5.756 5.756 0 0 0-.927-.065 3.396 3.396 0 0 0-1.144.172c-.311.11-.593.289-.825.524a2.75 2.75 0 0 0-.57.91 6.674 6.674 0 0 0-.36 1.311l-.081.46h-1.296l-.206 1.147h1.297l-1.26 7.047h1.33l1.26-7.047h2.21l.205-1.148h-2.21Zm9.229 1.37a1.94 1.94 0 0 0-.557-.977 2.06 2.06 0 0 0-.93-.467 5.008 5.008 0 0 0-1.109-.122 4.022 4.022 0 0 0-2.905 1.098c-.763.732-1.269 1.797-1.52 3.196a6.547 6.547 0 0 0-.1 1.77c.036.478.18.94.423 1.352.238.383.583.685.992.869.502.217 1.045.32 1.592.303a5.921 5.921 0 0 0 1.644-.23 4.649 4.649 0 0 0 1.367-.622l-.33-.95a2.998 2.998 0 0 1-.929.459c-.376.127-.769.193-1.165.196a3.028 3.028 0 0 1-1.202-.205 1.567 1.567 0 0 1-.717-.59 2.061 2.061 0 0 1-.297-.943 4.87 4.87 0 0 1 .079-1.278h5.335c.133-.39.238-.79.314-1.197a3.928 3.928 0 0 0 .015-1.663Zm-1.34 1.826h-4.123a3.104 3.104 0 0 1 1.017-1.737 2.7 2.7 0 0 1 1.662-.508 1.519 1.519 0 0 1 1.274.5c.261.333.318.915.17 1.745Zm1.138-6.458.06-.344h-1.478l-1.418 2.443h.781l2.055-2.099Zm2.396 3.952-.125-.062a.383.383 0 0 0 .224-.083.259.259 0 0 0 .091-.214.274.274 0 0 0-.029-.151.272.272 0 0 0-.104-.113.63.63 0 0 0-.319-.077 2.89 2.89 0 0 0-.244.011.996.996 0 0 0-.199.033v1.132h.23v-.52l.213.065.319.454h.27l-.327-.475Zm-.324-.175h-.151v-.31a.187.187 0 0 1 .071-.016c.031-.002.062-.002.093-.002.171 0 .257.05.257.153a.141.141 0 0 1-.015.078.141.141 0 0 1-.056.057.414.414 0 0 1-.199.04Z" fill="#172535"/><path d="M102.411 21.667a1.03 1.03 0 0 0-.621-.59 1.332 1.332 0 0 0-.456-.077c-.153 0-.305.025-.449.077a1.046 1.046 0 0 0-.625.59 1.276 1.276 0 0 0-.092.5c-.003.17.028.34.09.5a1.03 1.03 0 0 0 .619.59c.147.051.302.078.457.076.153.001.305-.025.45-.077a1.035 1.035 0 0 0 .624-.59c.064-.158.096-.328.093-.5.003-.17-.027-.34-.09-.5Zm-.255.902a.764.764 0 0 1-.469.45 1.102 1.102 0 0 1-.696-.003.787.787 0 0 1-.475-.451 1.026 1.026 0 0 1-.071-.398 1.1 1.1 0 0 1 .066-.398.783.783 0 0 1 .185-.283.784.784 0 0 1 .282-.17c.115-.038.235-.057.356-.056a1.03 1.03 0 0 1 .346.057c.104.036.2.094.282.17a.8.8 0 0 1 .191.281c.05.127.073.262.071.4.003.136-.02.273-.068.401Z" fill="#172535"/></svg>