<svg width="1440" height="900" fill="none" xmlns="http://www.w3.org/2000/svg"><g clip-path="url(#a)"><path fill="url(#b)" d="M0 0h1440v900H0z"/><path opacity=".3" d="M-24 254.858V-34.858c0-6.532 3.625-12.568 9.51-15.835L246.49-195.55c5.884-3.267 13.134-3.267 19.018 0L526.491-50.692C532.375-47.426 536-41.39 536-34.858v289.716c0 6.532-3.625 12.568-9.509 15.834L265.509 415.55c-5.884 3.267-13.134 3.267-19.018 0L-14.491 270.692C-20.375 267.426-24 261.39-24 254.858Z" fill="#7B68EE"/><path opacity=".7" d="M832 832.082V501.918c0-7.444 4.117-14.323 10.8-18.045l296.4-165.081c6.68-3.723 14.92-3.723 21.6 0l296.4 165.081c6.68 3.722 10.8 10.601 10.8 18.045v330.164c0 7.444-4.12 14.323-10.8 18.045l-296.4 165.083c-6.68 3.72-14.92 3.72-21.6 0L842.8 850.127c-6.683-3.722-10.8-10.601-10.8-18.045Z" fill="#7B68EE"/></g><defs><linearGradient id="b" x1="720" y1="0" x2="720" y2="1014.14" gradientUnits="userSpaceOnUse"><stop stop-color="#BB66E1"/><stop offset="1" stop-color="#7B68EE"/></linearGradient><clipPath id="a"><path fill="#fff" d="M0 0h1440v900H0z"/></clipPath></defs></svg>