<svg width="536" height="1076" fill="none" xmlns="http://www.w3.org/2000/svg"><g clip-path="url(#a)"><path fill="url(#b)" d="M0 0h536v1076H0z"/><path opacity=".3" d="M-203 182.639V-50.639c0-5.26 2.919-10.12 7.658-12.75L14.842-180.028a15.859 15.859 0 0 1 15.316 0l210.184 116.64c4.739 2.63 7.658 7.49 7.658 12.75v233.277c0 5.26-2.919 10.12-7.658 12.75L30.158 312.028a15.859 15.859 0 0 1-15.316 0l-210.184-116.639c-4.739-2.63-7.658-7.49-7.658-12.75Z" fill="#7B68EE"/><path opacity=".7" d="M280 1155.87V844.395c0-7.023 3.884-13.513 10.189-17.024l279.622-155.737c6.305-3.512 14.073-3.512 20.378 0l279.622 155.737c6.305 3.511 10.189 10.001 10.189 17.024v311.475c0 7.02-3.884 13.51-10.189 17.02l-279.622 155.74c-6.305 3.51-14.073 3.51-20.378 0l-279.622-155.74c-6.305-3.51-10.189-10-10.189-17.02Z" fill="#7B68EE"/></g><defs><linearGradient id="b" x1="268" y1="0" x2="268" y2="1212.46" gradientUnits="userSpaceOnUse"><stop stop-color="#BB66E1"/><stop offset="1" stop-color="#7B68EE"/></linearGradient><clipPath id="a"><path fill="#fff" d="M0 0h536v1076H0z"/></clipPath></defs></svg>