<svg width="1990" height="37" fill="none" xmlns="http://www.w3.org/2000/svg"><path d="M1990 12.11c0-5.847-96.46-.05-158.23-1.176-33.2-.606-51.79-1.591-84.99-2.045-21.59-.295-33.69-.254-55.28-.383-168.58-1.01-267.04-8.398-431.69-7.416-103.42.616-177.06 6.263-264.81 8-52.752 1.044-150.383 2.525-246.677.498-49.14-1.035-76.635-5.554-125.757-4.13-25.162.73-39.156 3.348-64.26 3.904-81.185 1.798-140.745-.272-207.983-.272-59.5 0-92.859 1.844-152.359 1.844C120.654 10.934 0 8.438 0 8.438v24.081s173.404-12.16 283.99-5.98c45.485 2.542 87.924 9.582 116.083 9.461 95.456-.408 161.782-14.585 245.64-14.585 81.463 0 130.068.87 213.165 4.98 15.659.774 26.78 2.065 40.077 2.18 15.201 0 25.26-1.008 41.458-1.49 91.257-2.719 169.507 9.173 278.117 9.178 140.46.006 219.03-11.638 359.65-13.926C1738.98 19.72 1939 41.263 1990 26.194V12.11Z" fill="url(#a)"/><path d="M.02 7.438H0v1l1 .02c11.717.238 123.767 2.476 196.964 2.476 29.75 0 52.964-.461 76.179-.922 23.215-.462 46.43-.922 76.18-.922 23.14 0 45.371.245 67.886.493 42.908.474 86.851.958 140.097-.221 12.916-.286 22.891-1.118 32.96-1.958 9.5-.792 19.084-1.592 31.3-1.946 29.586-.858 51.326.44 74.676 1.835 15.418.92 31.538 1.883 51.081 2.295 96.294 2.027 193.925.546 246.677-.498 36.67-.726 70.87-2.135 105.81-3.574 48.68-2.004 98.8-4.068 159-4.426 90.65-.54 161.23 1.456 234.5 3.528 59.82 1.691 121.42 3.434 197.19 3.888 6.62.04 12.35.063 17.74.085 12.17.05 22.57.093 37.54.298 18.02.246 31.74.65 45.83 1.063 11.86.349 23.98.705 39.16.982 24.2.441 53.74-.18 80.7-.748 41.86-.881 77.53-1.632 77.53 1.924v-1.542c-.23-.14-.48-.255-.74-.355-.83-.32-1.98-.571-3.38-.776-2.82-.412-6.88-.67-11.89-.819-10.03-.297-24.04-.155-39.96.134-6.89.125-14.14.278-21.59.434-26.97.568-56.47 1.189-80.65.748-15.14-.277-27.27-.633-39.13-.981-14.11-.414-27.85-.818-45.87-1.064-14.97-.205-25.38-.248-37.55-.298-5.39-.022-11.12-.046-17.73-.085-75.76-.454-137.35-2.196-197.17-3.888l-.04-.001c-6.72-.19-13.4-.38-20.09-.566-66.27-1.85-132.06-3.452-214.4-2.961-60.21.358-110.37 2.424-159.08 4.429-34.94 1.438-69.14 2.846-105.75 3.57-52.748 1.045-150.363 2.526-246.636.5-19.522-.412-35.619-1.373-51.035-2.294-3.968-.237-7.891-.471-11.815-.693-19.171-1.082-38.356-1.857-62.957-1.143-12.243.355-21.85 1.156-31.349 1.948l-.857.072c-9.779.815-19.528 1.606-32.048 1.883-53.23 1.18-97.142.695-140.039.221-22.52-.248-44.76-.494-67.921-.494-29.76 0-52.983.462-76.197.923h-.003c-23.214.46-46.42.921-76.159.921-38.647 0-88.131-.623-127.958-1.247a16737.559 16737.559 0 0 1-64.65-1.141 8392.1 8392.1 0 0 1-3.962-.08L.022 7.439l-.022 1 .02-1Z" fill="#F4F5FA"/><defs><linearGradient id="a" x1="994.999" y1="8.319" x2="994.999" y2="36.639" gradientUnits="userSpaceOnUse"><stop stop-color="#FDFDFE"/><stop offset=".693" stop-color="#DADEE8"/><stop offset="1" stop-color="#C3C8D5"/></linearGradient></defs></svg>