<svg xmlns="http://www.w3.org/2000/svg" width="3841" height="76" fill="none"><g clip-path="url(#a)" filter="url(#b)"><path fill="#fff" fill-opacity=".1" d="M.5 0h3840v76H.5z"/><path fill="#fff" d="M1270.27 36.916a.6.6 0 0 0-1.2 0v34.667a.6.6 0 0 0 1.2 0V36.917Z"/><path fill="#fff" d="m1284.39 45.067-30.03 17.33a.608.608 0 0 0-.22.817c.17.286.53.384.82.219l30.02-17.33a.59.59 0 0 0 .22-.817.59.59 0 0 0-.81-.219Z"/><path fill="#fff" d="M1254.96 45.066a.602.602 0 0 0-.82.218.608.608 0 0 0 .22.817l30.02 17.333a.6.6 0 0 0 .82-.219.59.59 0 0 0-.22-.816l-30.02-17.334Z"/><path fill="#fff" fill-opacity=".7" d="m1271.23 70.507-1.2-.896a.593.593 0 0 0-.36-.12c-.13 0-.25.042-.36.12l-1.19.896a.615.615 0 0 1-.45.114.618.618 0 0 1-.39-.233.557.557 0 0 1-.1-.21.609.609 0 0 1-.01-.233.567.567 0 0 1 .07-.22.65.65 0 0 1 .16-.174l1.55-1.166a1.208 1.208 0 0 1 1.44 0l1.55 1.166c.13.095.21.237.24.394a.591.591 0 0 1-.12.443.485.485 0 0 1-.17.155.599.599 0 0 1-.66-.036Zm-1.56-26.417c-.1 0-.21-.028-.3-.08l-3.66-2.092a.552.552 0 0 1-.28-.363c-.02-.076-.03-.155-.02-.233a.59.59 0 0 1 .08-.221.606.606 0 0 1 .36-.28.587.587 0 0 1 .45.057l3.07 1.756c.1.051.2.078.3.078.11 0 .21-.027.3-.078l3.07-1.756c.14-.078.3-.099.45-.057.16.041.29.142.37.28.07.137.09.3.05.453a.584.584 0 0 1-.28.362l-3.66 2.092a.594.594 0 0 1-.3.081Zm0 3.585a.592.592 0 0 1-.33-.1l-3.09-2.06a.598.598 0 0 1-.16-.164.445.445 0 0 1-.09-.215.461.461 0 0 1 0-.233c.01-.078.04-.15.09-.216.04-.066.1-.122.16-.165a.634.634 0 0 1 .22-.09.581.581 0 0 1 .23 0c.08.015.15.045.22.089l2.42 1.617a.591.591 0 0 0 .66 0l2.43-1.617a.564.564 0 0 1 .22-.09.582.582 0 0 1 .44.09c.07.044.12.1.17.166.04.065.07.138.09.215a.91.91 0 0 1 0 .233.794.794 0 0 1-.09.216.637.637 0 0 1-.17.165l-3.09 2.059c-.09.065-.21.1-.33.1Zm0-7.172a.615.615 0 0 1-.36-.12l-1.91-1.434a.573.573 0 0 1-.23-.394.585.585 0 0 1 .11-.443.62.62 0 0 1 .39-.233c.16-.023.32.018.45.114l1.19.896c.11.078.23.12.36.12a.59.59 0 0 0 .36-.12l1.2-.897a.58.58 0 0 1 .44-.113c.16.022.3.106.39.233.1.127.14.286.12.443a.625.625 0 0 1-.24.394l-1.91 1.434a.59.59 0 0 1-.36.12Zm3.37 27.119-3.07-1.756a.593.593 0 0 0-.59 0l-3.08 1.756c-.13.078-.3.1-.45.057a.6.6 0 0 1-.42-.734.583.583 0 0 1 .28-.36l3.37-1.926a1.214 1.214 0 0 1 1.19 0l3.36 1.925c.14.079.24.209.28.362.05.153.03.316-.05.454a.607.607 0 0 1-.36.28.61.61 0 0 1-.46-.058Zm-.61-3.643L1270 62.36a.591.591 0 0 0-.66 0l-2.43 1.618a.581.581 0 0 1-.44.089.565.565 0 0 1-.22-.09.642.642 0 0 1-.17-.165.554.554 0 0 1-.08-.216.46.46 0 0 1 0-.233c.01-.077.04-.15.09-.215.04-.066.1-.121.16-.165l2.76-1.838a1.185 1.185 0 0 1 1.32 0l2.76 1.838c.07.044.12.1.17.165.04.065.07.138.09.215a.91.91 0 0 1 0 .233.797.797 0 0 1-.09.216.642.642 0 0 1-.38.254.586.586 0 0 1-.45-.089Zm-12.65-.126-.02-3.538a.588.588 0 0 0-.3-.513l-3.05-1.783a.623.623 0 0 1-.18-.155.554.554 0 0 1-.1-.21.608.608 0 0 1-.01-.232.57.57 0 0 1 .44-.497c.15-.04.31-.019.45.061l3.35 1.955c.18.104.33.254.43.434.11.18.16.385.16.593l.02 3.88c0 .158-.06.31-.17.422a.606.606 0 0 1-.85.002.593.593 0 0 1-.17-.419Zm3.4-1.713a.625.625 0 0 1-.41-.202.613.613 0 0 1-.14-.433l.18-2.91a.65.65 0 0 0-.07-.337.597.597 0 0 0-.26-.237l-2.61-1.292a.6.6 0 0 1 .07-1.103.61.61 0 0 1 .46.029l2.97 1.469c.21.104.39.27.5.473.12.205.18.44.16.675l-.21 3.308a.854.854 0 0 1-.06.225.669.669 0 0 1-.14.186.647.647 0 0 1-.2.117.651.651 0 0 1-.24.032Zm-6.29 2.25a.6.6 0 0 1-.4-.225.627.627 0 0 1-.12-.44l.18-1.484a.601.601 0 0 0-.08-.37.566.566 0 0 0-.28-.252l-1.37-.586a.603.603 0 0 1-.32-.784.604.604 0 0 1 .79-.315l1.78.763c.24.101.44.277.57.501.13.224.18.484.15.74l-.23 1.93a.594.594 0 0 1-.08.221.508.508 0 0 1-.15.177.556.556 0 0 1-.21.106.574.574 0 0 1-.23.017Zm25.44-12.876-3.34-1.955a1.261 1.261 0 0 1-.44-.435c-.1-.18-.16-.384-.16-.592l-.01-3.88a.585.585 0 0 1 .59-.598c.16 0 .31.063.42.174.12.112.18.263.18.421l.02 3.538a.588.588 0 0 0 .3.514l3.05 1.782c.07.04.13.092.18.155a.76.76 0 0 1 .1.21c.02.075.02.154.01.232a.571.571 0 0 1-.07.22.665.665 0 0 1-.16.177.543.543 0 0 1-.21.103.626.626 0 0 1-.24.013.662.662 0 0 1-.22-.08Zm1.73-2.948-1.79-.763a1.176 1.176 0 0 1-.56-.501 1.202 1.202 0 0 1-.16-.741l.24-1.929c.02-.157.1-.3.22-.398a.6.6 0 0 1 .84.1c.1.125.14.284.12.441l-.18 1.484c-.01.129.02.258.08.37.06.112.16.2.28.251l1.38.587c.14.062.26.18.32.327.06.147.05.312-.01.457a.6.6 0 0 1-.32.32.605.605 0 0 1-.46-.005Zm-5.11 4.279-2.97-1.469a1.17 1.17 0 0 1-.51-.474 1.223 1.223 0 0 1-.16-.675l.22-3.307a.59.59 0 0 1 .63-.557c.16.01.31.083.41.202.1.119.16.274.15.432l-.19 2.91c0 .118.02.235.08.337.06.102.15.185.26.237l2.61 1.293a.6.6 0 0 1 .13.986.589.589 0 0 1-.21.117.57.57 0 0 1-.45-.032Zm.02 11.603a.586.586 0 0 1-.42-.175.571.571 0 0 1-.18-.423l.02-3.88c0-.208.05-.412.16-.592.1-.18.25-.33.43-.435l3.35-1.954c.07-.04.15-.066.22-.076a.628.628 0 0 1 .24.014c.07.02.14.054.21.102.06.048.11.107.15.175.04.068.07.142.08.22.01.078 0 .157-.02.233a.554.554 0 0 1-.1.21.745.745 0 0 1-.17.154l-3.06 1.78a.671.671 0 0 0-.22.217.615.615 0 0 0-.08.297l-.01 3.538a.607.607 0 0 1-.6.595Zm-3.44-2.868-.22-3.307c-.01-.236.04-.47.16-.675.12-.205.29-.37.51-.474l2.97-1.47c.14-.07.3-.08.45-.03.15.051.28.16.35.301a.602.602 0 0 1-.27.8l-2.62 1.294a.632.632 0 0 0-.25.237.571.571 0 0 0-.08.337l.19 2.91a.578.578 0 0 1-.15.432.585.585 0 0 1-.41.202.576.576 0 0 1-.43-.147.517.517 0 0 1-.14-.185.453.453 0 0 1-.06-.225Zm6.26 2.287-.24-1.928c-.03-.257.03-.517.16-.74.13-.225.32-.4.56-.502l1.79-.764a.604.604 0 0 1 .46-.004.6.6 0 0 1 .32.32c.06.145.07.31.01.457a.62.62 0 0 1-.32.327l-1.38.587a.566.566 0 0 0-.28.25.679.679 0 0 0-.08.37l.18 1.485a.581.581 0 0 1-.12.44.6.6 0 0 1-.84.1.616.616 0 0 1-.22-.398Zm-25.6-12.569a.57.57 0 0 1-.07-.22.608.608 0 0 1 .01-.233.554.554 0 0 1 .28-.364l3.05-1.782a.588.588 0 0 0 .3-.514l.02-3.538c0-.158.06-.31.17-.421a.603.603 0 0 1 .85.001c.11.112.17.264.17.423l-.01 3.88a1.35 1.35 0 0 1-.16.592c-.11.18-.26.33-.44.435l-3.35 1.954a.594.594 0 0 1-.66-.038.527.527 0 0 1-.16-.175Zm-1.69-3.047a.603.603 0 0 1 .32-.784l1.37-.587c.12-.05.22-.139.28-.25a.601.601 0 0 0 .08-.37l-.18-1.485a.627.627 0 0 1 .12-.44.6.6 0 0 1 .84-.101c.13.098.21.24.23.398l.23 1.929a1.192 1.192 0 0 1-.72 1.242l-1.78.763a.604.604 0 0 1-.79-.315Zm5.1 4.325a.602.602 0 0 1 .27-.8l2.61-1.293c.11-.052.2-.134.26-.236a.65.65 0 0 0 .07-.337l-.18-2.91a.613.613 0 0 1 .14-.433.626.626 0 0 1 .41-.202c.16-.01.32.043.44.148a.59.59 0 0 1 .2.41l.21 3.307c.02.236-.04.47-.16.675-.11.204-.29.369-.5.474l-2.97 1.466a.61.61 0 0 1-.46.03.587.587 0 0 1-.34-.299Z"/><path fill="#fff" fill-opacity=".7" d="M1266.09 60.825a.614.614 0 0 1-.25-.053.718.718 0 0 1-.2-.147.48.48 0 0 1-.12-.217c-.03-.08-.04-.165-.03-.25l.44-3.774-3.11-1.603a.585.585 0 0 1-.23-.22.573.573 0 0 1 0-.622c.05-.093.14-.17.23-.22l3.11-1.603-.44-3.775a.628.628 0 0 1 .06-.33.637.637 0 0 1 .22-.248.611.611 0 0 1 .65.013l3.25 2.17 3.26-2.17a.57.57 0 0 1 .32-.1.6.6 0 0 1 .32.087c.1.059.18.145.23.248a.54.54 0 0 1 .05.33l-.43 3.775 3.1 1.603c.1.05.18.127.24.22.05.094.08.201.08.311 0 .11-.03.217-.08.31a.611.611 0 0 1-.24.22l-3.1 1.604.43 3.775a.54.54 0 0 1-.05.33.591.591 0 0 1-.23.248.6.6 0 0 1-.32.088.57.57 0 0 1-.32-.1l-3.26-2.172-3.25 2.17a.617.617 0 0 1-.33.102Zm3.58-3.587c.12 0 .24.035.33.1l2.52 1.675-.33-2.904c-.02-.12 0-.242.06-.349a.656.656 0 0 1 .25-.249l2.45-1.261-2.45-1.262a.657.657 0 0 1-.25-.25c-.06-.106-.08-.228-.06-.348l.33-2.904-2.52 1.674a.591.591 0 0 1-.66 0l-2.51-1.674.33 2.904a.6.6 0 0 1-.06.349.617.617 0 0 1-.26.249l-2.44 1.262 2.44 1.262c.11.056.2.143.26.25.05.106.08.228.06.348l-.33 2.904 2.51-1.674c.1-.066.21-.101.33-.102Z"/><path fill="#fff" d="M1654.8 12.302a.298.298 0 0 0-.3-.302c-.17 0-.3.135-.3.302v17.521c0 .167.13.302.3.302.17 0 .3-.135.3-.302v-17.52Z"/><path fill="#fff" d="m1661.94 16.422-15.18 8.759a.309.309 0 0 0-.11.412.3.3 0 0 0 .41.111l15.18-8.76a.309.309 0 0 0 .11-.412.3.3 0 0 0-.41-.11Z"/><path fill="#fff" d="M1647.06 16.42a.3.3 0 0 0-.41.111.31.31 0 0 0 .11.413l15.18 8.76a.3.3 0 0 0 .41-.11.31.31 0 0 0-.11-.413l-15.18-8.76Z"/><path fill="#fff" fill-opacity=".7" d="m1655.29 29.28-.61-.453a.284.284 0 0 0-.18-.06.28.28 0 0 0-.18.06l-.61.453a.287.287 0 0 1-.22.057.308.308 0 0 1-.2-.118.39.39 0 0 1-.05-.106c-.01-.038-.01-.078-.01-.118a.401.401 0 0 1 .04-.11.33.33 0 0 1 .08-.089l.79-.589a.59.59 0 0 1 .36-.12c.13 0 .26.042.36.12l.79.59c.06.047.1.119.12.198a.3.3 0 0 1-.06.224.556.556 0 0 1-.09.079.269.269 0 0 1-.11.04.316.316 0 0 1-.12-.007.251.251 0 0 1-.1-.051Zm-.79-13.353a.29.29 0 0 1-.15-.04l-1.85-1.057a.219.219 0 0 1-.09-.078.221.221 0 0 1-.05-.106.161.161 0 0 1-.01-.117c0-.04.02-.078.04-.112.04-.07.1-.12.18-.142.08-.02.16-.01.23.03l1.55.887c.05.026.1.04.15.04.05 0 .1-.014.15-.04l1.55-.888c.07-.04.15-.05.23-.029a.306.306 0 0 1 .21.37.294.294 0 0 1-.14.184l-1.85 1.057c-.05.027-.1.04-.15.041Zm0 1.813a.31.31 0 0 1-.17-.051l-1.56-1.04a.3.3 0 0 1-.08-.084.414.414 0 0 1-.05-.109v-.118a.42.42 0 0 1 .05-.109.278.278 0 0 1 .19-.129.313.313 0 0 1 .12 0c.04.008.07.023.11.045l1.22.818a.31.31 0 0 0 .34 0l1.22-.818a.358.358 0 0 1 .11-.044.313.313 0 0 1 .23.045c.03.022.06.05.08.083.03.033.04.07.05.11.01.038.01.078 0 .117a.235.235 0 0 1-.05.109.303.303 0 0 1-.08.083l-1.56 1.04a.31.31 0 0 1-.17.052Zm0-3.625a.284.284 0 0 1-.18-.06l-.97-.726a.366.366 0 0 1-.12-.199.307.307 0 0 1 .26-.342c.08-.01.16.01.22.058l.61.453c.05.04.11.06.18.06.07 0 .13-.02.18-.06l.61-.453a.287.287 0 0 1 .22-.057.307.307 0 0 1 .26.341.37.37 0 0 1-.12.2l-.97.724a.28.28 0 0 1-.18.06Zm1.7 13.706-1.55-.887a.324.324 0 0 0-.15-.04c-.05 0-.1.014-.15.04l-1.55.887c-.07.04-.15.05-.23.03a.306.306 0 0 1-.21-.37.294.294 0 0 1 .14-.184l1.7-.973a.59.59 0 0 1 .3-.08c.11 0 .21.028.3.08l1.7.973c.07.04.12.105.14.183a.306.306 0 0 1-.21.37.302.302 0 0 1-.23-.029Zm-.31-1.841-1.22-.818a.31.31 0 0 0-.34 0l-1.22.818a.313.313 0 0 1-.34 0 .305.305 0 0 1-.08-.084.417.417 0 0 1-.05-.109.235.235 0 0 1 0-.118.417.417 0 0 1 .05-.108.303.303 0 0 1 .08-.084l1.4-.929a.565.565 0 0 1 .33-.101c.12 0 .24.035.34.101l1.39.93c.03.021.06.05.08.082.02.034.04.07.05.11.01.038.01.078 0 .117a.417.417 0 0 1-.05.11.281.281 0 0 1-.19.129.313.313 0 0 1-.23-.046Zm-6.39-.064-.01-1.788a.266.266 0 0 0-.04-.15.393.393 0 0 0-.11-.11l-1.54-.9a.22.22 0 0 1-.09-.078.222.222 0 0 1-.05-.107c-.01-.038-.02-.078-.01-.117 0-.04.02-.077.04-.112.04-.069.1-.12.18-.14.08-.02.16-.009.23.032l1.69.987a.594.594 0 0 1 .3.52l.01 1.96a.29.29 0 0 1-.09.214.283.283 0 0 1-.21.089.284.284 0 0 1-.21-.088.286.286 0 0 1-.09-.212Zm1.72-.866a.323.323 0 0 1-.21-.102.29.29 0 0 1-.07-.218l.09-1.471a.258.258 0 0 0-.04-.17.305.305 0 0 0-.12-.12l-1.32-.654a.302.302 0 0 1-.16-.173.308.308 0 0 1 .02-.231.297.297 0 0 1 .4-.138l1.5.742a.6.6 0 0 1 .34.58l-.11 1.672c0 .04-.01.079-.03.114a.338.338 0 0 1-.07.094.274.274 0 0 1-.1.06.323.323 0 0 1-.12.015Zm-3.18 1.138a.3.3 0 0 1-.26-.336l.09-.75a.403.403 0 0 0-.04-.188.284.284 0 0 0-.14-.126l-.7-.297a.308.308 0 0 1-.16-.396.29.29 0 0 1 .17-.162c.07-.03.15-.03.23.002l.9.386c.12.051.22.14.29.254.06.113.09.244.07.374l-.11.975a.43.43 0 0 1-.04.112.34.34 0 0 1-.18.142.317.317 0 0 1-.12.01Zm12.86-6.508-1.69-.988a.594.594 0 0 1-.3-.52l-.01-1.96c0-.08.03-.157.09-.214a.283.283 0 0 1 .21-.088c.08 0 .16.031.21.088.06.056.09.132.09.212l.01 1.789c0 .052.02.104.04.15a.41.41 0 0 0 .11.11l1.55.9c.03.02.06.047.08.078a.235.235 0 0 1 .06.224c0 .04-.01.077-.03.111a.333.333 0 0 1-.08.09.306.306 0 0 1-.34.018Zm.87-1.49-.9-.386a.637.637 0 0 1-.29-.253.607.607 0 0 1-.07-.374l.11-.975c.01-.08.05-.152.12-.202a.299.299 0 0 1 .48.274l-.09.75c-.01.065.01.13.04.187.03.057.08.101.14.127l.7.297a.308.308 0 0 1 .16.396.29.29 0 0 1-.17.161.3.3 0 0 1-.23-.002Zm-2.58 2.163-1.5-.743a.6.6 0 0 1-.34-.58l.11-1.672c0-.08.04-.154.1-.207a.305.305 0 0 1 .43.027c.05.06.08.14.07.22l-.09 1.47c-.01.06.01.119.04.17.03.052.07.093.13.12l1.32.653c.07.036.12.098.15.174.02.076.02.159-.02.23a.215.215 0 0 1-.07.095.27.27 0 0 1-.1.059.32.32 0 0 1-.12.015.257.257 0 0 1-.11-.031Zm.01 5.864a.324.324 0 0 1-.22-.088.325.325 0 0 1-.08-.214l.01-1.96c0-.106.02-.21.08-.3a.529.529 0 0 1 .22-.22l1.69-.988c.03-.02.07-.033.11-.038a.316.316 0 0 1 .12.007c.04.01.07.027.1.051.04.024.06.054.08.089a.23.23 0 0 1 .04.111c.01.04 0 .08-.01.118a.222.222 0 0 1-.05.106.22.22 0 0 1-.09.078l-1.54.9a.295.295 0 0 0-.11.11.266.266 0 0 0-.04.15l-.01 1.787c0 .08-.03.157-.09.213a.283.283 0 0 1-.21.088Zm-1.74-1.45-.11-1.671a.6.6 0 0 1 .34-.58l1.5-.743a.296.296 0 0 1 .4.137c.04.071.04.154.02.23a.32.32 0 0 1-.15.174l-1.33.654a.305.305 0 0 0-.12.12.258.258 0 0 0-.04.17l.09 1.47a.29.29 0 0 1-.07.22.323.323 0 0 1-.21.101.322.322 0 0 1-.12-.015.39.39 0 0 1-.1-.06.336.336 0 0 1-.07-.093.23.23 0 0 1-.03-.114Zm3.16 1.157-.11-.975a.607.607 0 0 1 .07-.374.637.637 0 0 1 .29-.254l.9-.386a.299.299 0 0 1 .23-.002c.08.03.14.088.17.162a.308.308 0 0 1-.16.396l-.7.297a.284.284 0 0 0-.14.126.307.307 0 0 0-.04.187l.09.75a.296.296 0 0 1-.26.337.292.292 0 0 1-.22-.063.286.286 0 0 1-.12-.201Zm-12.93-6.353a.231.231 0 0 1-.04-.112.233.233 0 0 1 .01-.117.222.222 0 0 1 .05-.106.22.22 0 0 1 .09-.078l1.54-.901a.295.295 0 0 0 .11-.11.266.266 0 0 0 .04-.15l.01-1.788c0-.08.03-.156.09-.213a.284.284 0 0 1 .21-.088c.08 0 .16.032.21.089a.29.29 0 0 1 .09.213l-.01 1.961c0 .106-.02.209-.08.3a.53.53 0 0 1-.22.22l-1.69.988a.267.267 0 0 1-.11.039.316.316 0 0 1-.12-.007.25.25 0 0 1-.1-.052.222.222 0 0 1-.08-.088Zm-.86-1.54a.308.308 0 0 1 .16-.396l.7-.297c.06-.026.11-.07.14-.127a.399.399 0 0 0 .04-.187l-.09-.75a.296.296 0 0 1 .26-.336c.08-.01.16.013.22.062.07.05.11.122.12.202l.11.975c.02.13-.01.26-.07.374a.637.637 0 0 1-.29.253l-.9.386a.3.3 0 0 1-.23.003.29.29 0 0 1-.17-.162Zm2.58 2.186a.308.308 0 0 1-.02-.23.302.302 0 0 1 .16-.174l1.32-.654a.305.305 0 0 0 .12-.12c.03-.051.05-.11.04-.17l-.09-1.47a.29.29 0 0 1 .07-.22c.06-.06.13-.096.21-.101.08-.005.16.021.22.074.06.053.1.128.1.207l.11 1.672a.6.6 0 0 1-.34.58l-1.5.742a.295.295 0 0 1-.4-.136Z"/><path fill="#fff" fill-opacity=".7" d="M1652.69 24.386a.345.345 0 0 1-.13-.027.45.45 0 0 1-.1-.074.243.243 0 0 1-.06-.11.268.268 0 0 1-.01-.126l.22-1.907-1.57-.81a.287.287 0 0 1-.16-.268.287.287 0 0 1 .16-.27l1.57-.81-.22-1.908a.245.245 0 0 1 .03-.167.258.258 0 0 1 .11-.125.31.31 0 0 1 .33.007l1.64 1.096 1.65-1.096a.27.27 0 0 1 .16-.051c.06-.002.11.014.16.044s.09.073.12.125c.02.052.03.11.02.167l-.22 1.908 1.57.81c.05.026.09.064.12.112.03.047.05.101.05.157 0 .055-.02.11-.05.157a.307.307 0 0 1-.12.111l-1.57.81.22 1.908c.01.058 0 .116-.02.167a.346.346 0 0 1-.12.126c-.05.03-.1.045-.16.044a.271.271 0 0 1-.16-.05l-1.65-1.098-1.64 1.096a.31.31 0 0 1-.17.052Zm1.81-1.813c.06 0 .12.018.17.051l1.27.846-.17-1.468a.352.352 0 0 1 .03-.176.343.343 0 0 1 .13-.126l1.24-.637-1.24-.638a.343.343 0 0 1-.13-.126.352.352 0 0 1-.03-.176l.17-1.468-1.27.846a.31.31 0 0 1-.34 0l-1.27-.846.17 1.468a.27.27 0 0 1-.03.176.284.284 0 0 1-.13.126l-1.23.638 1.23.638c.06.028.1.072.13.126a.27.27 0 0 1 .03.176l-.17 1.468 1.27-.846a.308.308 0 0 1 .17-.052Z"/><path fill="#fff" d="M1992.14 52.642a.643.643 0 0 0-.64-.642c-.36 0-.64.287-.64.642v37.233c0 .354.28.642.64.642.35 0 .64-.288.64-.642V52.642Z"/><path fill="#fff" d="m2007.3 61.395-32.24 18.614a.638.638 0 0 0-.24.877c.18.307.57.412.88.235l32.24-18.613c.31-.178.42-.57.24-.877a.646.646 0 0 0-.88-.236Z"/><path fill="#fff" d="M1975.7 61.394a.646.646 0 0 0-.88.235c-.18.307-.07.7.24.877l32.24 18.617c.31.177.7.072.88-.236.17-.307.07-.7-.24-.876l-32.24-18.617Z"/><path fill="#fff" fill-opacity=".7" d="M1991.5 60.345a.652.652 0 0 1-.32-.084l-3.94-2.247a.633.633 0 0 1-.3-.39.53.53 0 0 1-.01-.25.515.515 0 0 1 .08-.238.625.625 0 0 1 .38-.301.647.647 0 0 1 .49.062l3.3 1.885c.1.056.21.085.32.085.11 0 .22-.03.32-.085l3.3-1.885a.647.647 0 0 1 .49-.062c.16.045.3.153.38.3.09.148.11.324.07.488a.668.668 0 0 1-.31.388l-3.93 2.247a.662.662 0 0 1-.32.087Zm0 3.852a.626.626 0 0 1-.35-.108l-3.32-2.212a.694.694 0 0 1-.18-.176.636.636 0 0 1-.09-.231.706.706 0 0 1-.01-.251.66.66 0 0 1 .51-.505.64.64 0 0 1 .48.095l2.61 1.737c.1.07.22.108.35.108.13 0 .25-.037.36-.108l2.6-1.737a.654.654 0 0 1 .49-.095c.08.016.16.049.23.096a.54.54 0 0 1 .17.177c.05.07.08.149.1.232a.53.53 0 0 1 0 .25.657.657 0 0 1-.1.231c-.04.07-.1.13-.17.177l-3.32 2.212a.658.658 0 0 1-.36.108Zm0-7.704a.622.622 0 0 1-.38-.128l-2.06-1.54a.693.693 0 0 1-.25-.423.67.67 0 0 1 .12-.476.673.673 0 0 1 .43-.25.63.63 0 0 1 .47.121l1.29.963c.11.084.24.129.38.129s.27-.045.39-.129l1.28-.963a.655.655 0 0 1 .48-.122c.16.025.32.114.42.25.1.137.14.308.12.477a.612.612 0 0 1-.25.422l-2.05 1.541a.673.673 0 0 1-.39.128Zm-10.63 25.079-.02-3.8a.698.698 0 0 0-.08-.319.664.664 0 0 0-.24-.233l-3.28-1.914a.636.636 0 0 1-.18-.166.503.503 0 0 1-.11-.225.531.531 0 0 1-.02-.25.66.66 0 0 1 .08-.237.665.665 0 0 1 .39-.297c.17-.043.34-.02.49.066l3.6 2.099c.19.113.35.274.46.467.12.194.17.413.18.636l.01 4.167c0 .17-.06.334-.18.454a.656.656 0 0 1-.46.188.636.636 0 0 1-.45-.186.637.637 0 0 1-.19-.45Zm3.66-1.84a.636.636 0 0 1-.44-.217.657.657 0 0 1-.16-.465l.2-3.125a.65.65 0 0 0-.08-.362.64.64 0 0 0-.27-.254l-2.81-1.388a.63.63 0 0 1-.32-.37.599.599 0 0 1 .03-.49c.07-.153.21-.27.37-.325a.642.642 0 0 1 .49.03l3.19 1.579c.23.112.41.29.54.509.13.22.19.471.17.724l-.23 3.552c0 .085-.03.167-.06.243a.748.748 0 0 1-.15.2.73.73 0 0 1-.22.125.637.637 0 0 1-.25.034Zm20.57-11.412-3.6-2.1a1.28 1.28 0 0 1-.63-1.103l-.02-4.167c0-.17.06-.334.18-.454.13-.12.29-.188.46-.188a.64.64 0 0 1 .64.639l.02 3.8c0 .112.03.222.09.319.05.096.13.177.23.233l3.28 1.914a.635.635 0 0 1 .3.391.53.53 0 0 1 .01.25.661.661 0 0 1-.08.237.589.589 0 0 1-.17.19.57.57 0 0 1-.22.11.633.633 0 0 1-.49-.071Zm1.85-3.166-1.92-.82a1.32 1.32 0 0 1-.61-.539 1.37 1.37 0 0 1-.16-.795l.25-2.072a.655.655 0 0 1 .24-.427.654.654 0 0 1 .47-.133c.17.02.33.107.43.241.11.134.16.304.14.473l-.2 1.594c-.01.138.01.277.08.398.07.12.18.214.31.269l1.47.63c.16.067.28.193.35.351.06.158.06.335-.01.492a.613.613 0 0 1-.35.343.64.64 0 0 1-.49-.005Zm-5.49 4.596-3.19-1.578c-.23-.112-.42-.29-.54-.51-.13-.219-.19-.47-.17-.724l.23-3.552a.66.66 0 0 1 .21-.44c.13-.113.3-.17.47-.159.17.011.33.09.44.217.11.128.17.295.16.465l-.2 3.125c-.01.126.02.252.09.362.06.11.15.198.27.254l2.8 1.389c.16.075.27.208.33.37.05.16.04.337-.04.49a.479.479 0 0 1-.15.2.62.62 0 0 1-.22.125.63.63 0 0 1-.49-.034Zm.02 12.461a.646.646 0 0 1-.64-.642l.02-4.166c0-.224.06-.443.17-.637.12-.194.28-.355.47-.467l3.6-2.1a.614.614 0 0 1 .48-.066.62.62 0 0 1 .23.11.73.73 0 0 1 .17.188c.04.073.07.153.08.237.01.083 0 .168-.02.25a.635.635 0 0 1-.3.391l-3.27 1.912a.664.664 0 0 0-.24.233.865.865 0 0 0-.09.318l-.01 3.8a.641.641 0 0 1-.65.64Zm-3.69-3.081-.23-3.551a1.23 1.23 0 0 1 .17-.725c.12-.22.31-.397.54-.51l3.19-1.577a.642.642 0 0 1 .86.29.6.6 0 0 1 .03.49.63.63 0 0 1-.32.37l-2.81 1.39a.702.702 0 0 0-.27.254.65.65 0 0 0-.08.362l.2 3.125c.01.17-.05.337-.16.465a.636.636 0 0 1-.69.184.723.723 0 0 1-.22-.126.742.742 0 0 1-.15-.198.514.514 0 0 1-.06-.243Zm-20.77-11.042a.661.661 0 0 1-.08-.236.532.532 0 0 1 .02-.25.503.503 0 0 1 .11-.226.638.638 0 0 1 .18-.166l3.29-1.914a.725.725 0 0 0 .23-.233.601.601 0 0 0 .09-.319l.01-3.8a.64.64 0 0 1 .65-.639.646.646 0 0 1 .64.642l-.02 4.167c0 .224-.06.443-.17.637a1.4 1.4 0 0 1-.47.467l-3.6 2.099a.614.614 0 0 1-.23.083.692.692 0 0 1-.26-.015.654.654 0 0 1-.22-.109.585.585 0 0 1-.17-.188Zm-1.82-3.272a.692.692 0 0 1 0-.492.646.646 0 0 1 .34-.35l1.48-.631a.63.63 0 0 0 .3-.27c.07-.12.1-.26.08-.397l-.19-1.594a.665.665 0 0 1 .13-.473c.11-.134.26-.22.43-.24a.63.63 0 0 1 .47.132c.14.105.23.259.25.428l.25 2.071c.03.276-.03.555-.17.795s-.35.43-.6.539l-1.92.82a.64.64 0 0 1-.49.005.662.662 0 0 1-.36-.344Zm5.48 4.644a.599.599 0 0 1-.03-.49.63.63 0 0 1 .32-.369l2.81-1.388a.64.64 0 0 0 .27-.254.65.65 0 0 0 .08-.362l-.2-3.125a.657.657 0 0 1 .16-.465.635.635 0 0 1 .44-.217c.17-.011.34.046.47.158.12.112.2.27.21.44l.23 3.553c.02.253-.04.505-.17.725-.12.219-.31.396-.54.508l-3.19 1.576a.644.644 0 0 1-.86-.29Z"/><path fill="#fff" fill-opacity=".7" d="M1987.65 78.32a.64.64 0 0 1-.26-.056.586.586 0 0 1-.22-.159.68.68 0 0 1-.13-.233c-.03-.087-.04-.178-.03-.268l.47-4.053-3.33-1.723a.618.618 0 0 1-.35-.57.618.618 0 0 1 .35-.57l3.33-1.722-.47-4.054a.719.719 0 0 1 .06-.355.666.666 0 0 1 .59-.36c.13.002.24.04.35.108l3.49 2.33 3.5-2.33a.632.632 0 0 1 .69-.015.642.642 0 0 1 .3.622l-.46 4.054 3.33 1.722c.1.054.19.136.25.236.06.101.09.216.09.334a.65.65 0 0 1-.09.334c-.06.1-.15.182-.25.236l-3.33 1.722.46 4.054a.642.642 0 0 1-.65.715.632.632 0 0 1-.34-.107l-3.5-2.332-3.49 2.33a.658.658 0 0 1-.36.11Zm3.85-3.852c.13 0 .25.037.36.108l2.7 1.797-.36-3.118a.69.69 0 0 1 .07-.375.663.663 0 0 1 .27-.267l2.62-1.355-2.62-1.356a.664.664 0 0 1-.27-.267.69.69 0 0 1-.07-.375l.36-3.118-2.7 1.797a.657.657 0 0 1-.36.108.602.602 0 0 1-.35-.108l-2.7-1.797.36 3.118a.69.69 0 0 1-.07.375.687.687 0 0 1-.28.267l-2.62 1.356 2.62 1.356c.12.06.21.153.27.267.07.115.09.246.08.375l-.36 3.118 2.69-1.797a.654.654 0 0 1 .36-.11Z"/><path fill="#fff" d="M2575.92-20.067a.921.921 0 0 0-.92-.926.93.93 0 0 0-.93.925v53.66c0 .51.42.925.93.925s.92-.415.92-.925v-53.66Z"/><path fill="#fff" d="m2597.77-7.452-46.47 26.825a.933.933 0 0 0-.34 1.264c.26.443.82.594 1.27.339L2598.7-5.85a.933.933 0 0 0 .34-1.263.932.932 0 0 0-1.27-.34Z"/><path fill="#fff" d="M2552.23-7.454a.932.932 0 0 0-1.27.339.933.933 0 0 0 .34 1.263l46.47 26.83a.934.934 0 0 0 1.27-.339.933.933 0 0 0-.34-1.264l-46.47-26.83Z"/><path fill="#fff" fill-opacity=".7" d="m2577.41 31.926-1.85-1.387a.94.94 0 0 0-.56-.185.91.91 0 0 0-.55.185l-1.85 1.387c-.2.148-.45.21-.69.176a.94.94 0 0 1-.77-.686 1.09 1.09 0 0 1-.02-.36c.02-.12.06-.237.12-.341.07-.105.15-.196.25-.269l2.4-1.804a1.85 1.85 0 0 1 2.22 0l2.41 1.804a.97.97 0 0 1 .36.61.936.936 0 0 1-.79 1.046.924.924 0 0 1-.36-.02.828.828 0 0 1-.32-.156Zm2.8-4.466-4.75-2.718a.932.932 0 0 0-.92 0l-4.75 2.718a.947.947 0 0 1-.71.089.97.97 0 0 1-.56-.433.954.954 0 0 1-.09-.703.967.967 0 0 1 .44-.56l5.21-2.98a1.866 1.866 0 0 1 1.84 0l5.21 2.98a.93.93 0 0 1 .44.56c.06.237.03.49-.09.703a.97.97 0 0 1-.56.433.947.947 0 0 1-.71-.09Zm-.94-5.64-3.76-2.503a.915.915 0 0 0-1.02 0l-3.76 2.503a.92.92 0 0 1-.69.138c-.12-.024-.23-.07-.34-.138a.958.958 0 0 1-.39-.59 1.087 1.087 0 0 1 0-.36 1 1 0 0 1 .14-.334.86.86 0 0 1 .26-.255l4.26-2.845a1.866 1.866 0 0 1 2.06 0l4.27 2.845c.1.067.18.154.25.255s.12.214.14.333c.02.12.02.242 0 .361a.832.832 0 0 1-.14.334.958.958 0 0 1-.25.256.943.943 0 0 1-.7.138.894.894 0 0 1-.33-.138Zm-19.59-.194-.02-5.477a.93.93 0 0 0-.47-.795l-4.72-2.758a.827.827 0 0 1-.27-.24.818.818 0 0 1-.16-.324.877.877 0 0 1-.02-.36.83.83 0 0 1 .11-.342.949.949 0 0 1 .57-.428.919.919 0 0 1 .7.095l5.19 3.025a1.829 1.829 0 0 1 .91 1.59l.03 6.006c0 .245-.1.48-.27.654a.919.919 0 0 1-1.3.003.895.895 0 0 1-.28-.649Zm5.28-2.652a.922.922 0 0 1-.64-.313.96.96 0 0 1-.23-.67l.29-4.503a.87.87 0 0 0-.12-.522.935.935 0 0 0-.39-.366l-4.04-2.001a.936.936 0 0 1-.47-.533.913.913 0 0 1 .05-.706c.1-.22.3-.389.53-.468a.91.91 0 0 1 .7.044l4.6 2.274c.33.162.6.417.78.733.19.317.27.68.25 1.044l-.33 5.12c-.01.122-.04.24-.09.35-.06.109-.13.206-.22.287-.09.08-.2.142-.31.182a.953.953 0 0 1-.36.048Zm-9.74 3.482a.915.915 0 0 1-.62-.347.927.927 0 0 1-.19-.682l.28-2.297a.955.955 0 0 0-.12-.573.95.95 0 0 0-.44-.388l-2.13-.909a.93.93 0 0 1-.49-.506.914.914 0 0 1 .01-.707.888.888 0 0 1 .5-.495.93.93 0 0 1 .71.007l2.76 1.182a1.853 1.853 0 0 1 1.12 1.922l-.36 2.986a1.004 1.004 0 0 1-.35.617c-.1.075-.21.13-.32.163a.93.93 0 0 1-.36.027Zm39.38-19.929L2589.42-.5a1.829 1.829 0 0 1-.67-.673 1.75 1.75 0 0 1-.25-.917l-.03-6.005c0-.245.1-.48.27-.654a.942.942 0 0 1 .66-.271.921.921 0 0 1 .92.92l.03 5.477c0 .161.04.32.12.46.08.138.2.254.34.335l4.73 2.759a.942.942 0 0 1 .43.564c.03.117.04.24.02.36s-.06.236-.12.341a.87.87 0 0 1-.24.273.943.943 0 0 1-.69.179.887.887 0 0 1-.34-.122Zm-5.24 2.061-4.6-2.274c-.33-.162-.6-.417-.78-.734-.19-.316-.27-.68-.25-1.044l.33-5.12a.958.958 0 0 1 .31-.634.941.941 0 0 1 .67-.228c.25.015.48.128.64.312a.96.96 0 0 1 .23.67l-.29 4.504c-.01.182.03.363.12.521.1.159.23.286.4.367l4.04 2.001c.22.109.39.3.47.533.08.232.06.486-.05.706a.945.945 0 0 1-.53.47.941.941 0 0 1-.71-.05Zm.03 17.959a.902.902 0 0 1-.65-.27.907.907 0 0 1-.28-.655l.03-6.005c0-.322.09-.639.25-.917.16-.28.39-.511.67-.674l5.19-3.025a.925.925 0 0 1 .7-.096.83.83 0 0 1 .32.159c.1.073.18.165.24.27.06.105.1.221.12.342.02.12.01.242-.02.36a.942.942 0 0 1-.43.564l-4.73 2.755a.896.896 0 0 0-.33.336.93.93 0 0 0-.13.459l-.02 5.477a.942.942 0 0 1-.28.651.92.92 0 0 1-.65.27Zm-5.33-4.44-.33-5.118c-.02-.365.06-.729.25-1.045.18-.317.45-.572.78-.734l4.6-2.274a.91.91 0 0 1 .7-.047.95.95 0 0 1 .54.466c.1.22.12.474.04.707a.92.92 0 0 1-.46.532l-4.05 2.002a.938.938 0 0 0-.39.367.948.948 0 0 0-.12.521l.29 4.504a.96.96 0 0 1-.23.67.92.92 0 0 1-.99.265.995.995 0 0 1-.32-.18 1.06 1.06 0 0 1-.22-.287 1.042 1.042 0 0 1-.09-.349Zm9.69 3.542-.36-2.986c-.05-.397.04-.8.24-1.146.2-.347.5-.62.87-.776l2.77-1.182a.905.905 0 0 1 .7-.007c.23.091.41.27.51.495a.915.915 0 0 1-.49 1.213l-2.12.909a.904.904 0 0 0-.44.388.955.955 0 0 0-.12.573l.28 2.297a.928.928 0 0 1-.19.682.924.924 0 0 1-1.3.156.942.942 0 0 1-.35-.616Zm-39.62-19.455a.83.83 0 0 1-.11-.342.877.877 0 0 1 .02-.36.818.818 0 0 1 .16-.325.826.826 0 0 1 .27-.24l4.73-2.758c.14-.08.25-.196.34-.336a.92.92 0 0 0 .12-.459l.02-5.477a.942.942 0 0 1 .93-.92c.25 0 .48.097.65.27.18.174.28.41.28.655l-.03 6.005c0 .322-.09.638-.25.917-.16.28-.39.511-.67.674l-5.19 3.025a.922.922 0 0 1-.7.099.83.83 0 0 1-.32-.158c-.1-.074-.18-.165-.25-.27Zm5.28 1.977a.913.913 0 0 1-.05-.706.936.936 0 0 1 .47-.532l4.04-2.002a.93.93 0 0 0 .39-.366.87.87 0 0 0 .12-.522l-.29-4.503a.96.96 0 0 1 .23-.67.922.922 0 0 1 .64-.313c.24-.016.48.066.67.228.18.162.29.39.31.635l.33 5.12c.02.364-.06.728-.24 1.044a1.9 1.9 0 0 1-.79.733l-4.6 2.27a.915.915 0 0 1-1.23-.416Zm10.04 12.768a.938.938 0 0 1-.38-.081.939.939 0 0 1-.31-.229.887.887 0 0 1-.19-.336c-.04-.124-.05-.255-.04-.385l.67-5.842-4.8-2.483a.865.865 0 0 1-.36-.34.913.913 0 0 1-.14-.481c0-.17.05-.336.14-.48a.865.865 0 0 1 .36-.342l4.8-2.482-.67-5.842a.906.906 0 0 1 .09-.512c.08-.158.2-.292.35-.384a.912.912 0 0 1 .99.02L2575 .1l5.04-3.358a.935.935 0 0 1 1-.02c.15.091.27.225.35.383.07.159.1.336.08.512l-.67 5.842 4.8 2.482a.903.903 0 0 1 .5.822.904.904 0 0 1-.5.821l-4.8 2.483.67 5.842a.994.994 0 0 1-.08.512.95.95 0 0 1-.35.384.936.936 0 0 1-1-.02l-5.04-3.36-5.04 3.357a.917.917 0 0 1-.51.158Zm5.55-5.551c.19 0 .36.054.52.155l3.89 2.59-.52-4.494c-.02-.186.02-.374.1-.54a.97.97 0 0 1 .39-.385l3.78-1.952-3.78-1.954a.97.97 0 0 1-.39-.386 1.001 1.001 0 0 1-.1-.54l.52-4.494-3.89 2.59a.948.948 0 0 1-.52.156.916.916 0 0 1-.51-.155l-3.89-2.59.52 4.494c.02.186-.02.374-.1.54a.93.93 0 0 1-.4.385l-3.78 1.954 3.78 1.954c.17.086.31.22.39.386.09.165.13.353.11.539l-.52 4.494 3.89-2.59a.911.911 0 0 1 .51-.157Z"/><g filter="url(#c)"><path fill="#fff" d="M1468.72 107.972c-54.28 36.431-75.88-65.915-183.95-6.127-108.06 59.788-140.47-126.383 27.65-139.57 168.11-13.186 220.84 102.384 156.3 145.697Z"/></g><g filter="url(#d)" opacity=".7"><path fill="#fff" d="M2142.05 225.91c-124.95 83.857-174.67-151.721-423.42-14.102-248.74 137.62-323.33-290.907 63.63-321.26 386.96-30.353 508.34 235.665 359.79 335.362Z"/></g><g filter="url(#e)" opacity=".7"><path fill="#fff" d="M2613.7 109.924c-83.85-124.949 151.73-174.67 14.11-423.413-137.62-248.744 290.9-323.336 321.26 63.629 30.35 386.964-235.67 508.335-335.37 359.784Z"/></g><g filter="url(#f)" opacity=".8"><path fill="#fff" d="M2597.48 173.308c-88.64 59.489-123.91-107.632-300.37-10.003-176.46 97.628-229.38-206.372 45.13-227.905 274.52-21.532 360.62 167.182 255.24 237.908Z"/></g><g filter="url(#g)" opacity=".8"><path fill="#fff" d="M1120.46 15.683c121.5 106.109-108.65 222.949 102.87 442.322s-211.52 415.497-350.313 23.248C734.22 89.004 976.004-110.469 1120.46 15.683Z"/></g></g><defs><filter id="b" width="3872" height="108" x="-15.5" y="-16" color-interpolation-filters="sRGB" filterUnits="userSpaceOnUse"><feFlood flood-opacity="0" result="BackgroundImageFix"/><feGaussianBlur in="BackgroundImageFix" stdDeviation="8"/><feComposite in2="SourceAlpha" operator="in" result="effect1_backgroundBlur_13318_8995"/><feBlend in="SourceGraphic" in2="effect1_backgroundBlur_13318_8995" result="shape"/></filter><filter id="c" width="570.381" height="424.8" x="1060.02" y="-173.766" color-interpolation-filters="sRGB" filterUnits="userSpaceOnUse"><feFlood flood-opacity="0" result="BackgroundImageFix"/><feBlend in="SourceGraphic" in2="BackgroundImageFix" result="shape"/><feGaussianBlur result="effect1_foregroundBlur_13318_8995" stdDeviation="67.5"/></filter><filter id="d" width="961.414" height="626.317" x="1377.04" y="-246.85" color-interpolation-filters="sRGB" filterUnits="userSpaceOnUse"><feFlood flood-opacity="0" result="BackgroundImageFix"/><feBlend in="SourceGraphic" in2="BackgroundImageFix" result="shape"/><feGaussianBlur result="effect1_foregroundBlur_13318_8995" stdDeviation="67.5"/></filter><filter id="e" width="626.316" height="961.413" x="2460.15" y="-655.083" color-interpolation-filters="sRGB" filterUnits="userSpaceOnUse"><feFlood flood-opacity="0" result="BackgroundImageFix"/><feBlend in="SourceGraphic" in2="BackgroundImageFix" result="shape"/><feGaussianBlur result="effect1_foregroundBlur_13318_8995" stdDeviation="67.5"/></filter><filter id="f" width="664.493" height="426.774" x="2063.55" y="-153.301" color-interpolation-filters="sRGB" filterUnits="userSpaceOnUse"><feFlood flood-opacity="0" result="BackgroundImageFix"/><feBlend in="SourceGraphic" in2="BackgroundImageFix" result="shape"/><feGaussianBlur result="effect1_foregroundBlur_13318_8995" stdDeviation="43.5"/></filter><filter id="g" width="624" height="902" x="744.5" y="-109" color-interpolation-filters="sRGB" filterUnits="userSpaceOnUse"><feFlood flood-opacity="0" result="BackgroundImageFix"/><feBlend in="SourceGraphic" in2="BackgroundImageFix" result="shape"/><feGaussianBlur result="effect1_foregroundBlur_13318_8995" stdDeviation="43.5"/></filter><clipPath id="a"><path fill="#fff" d="M.5 0h3840v76H.5z"/></clipPath></defs></svg>