<svg width="452" height="587" fill="none" xmlns="http://www.w3.org/2000/svg"><path fill-rule="evenodd" clip-rule="evenodd" d="M6 293h64v2H6v-2Z" fill="url(#a)"/><path fill-rule="evenodd" clip-rule="evenodd" d="M446 293h-64v2h64v-2Z" fill="url(#b)"/><path d="M147.43 159.098 70.333 30.786l-69.615.638" stroke="url(#c)" stroke-width="2"/><path d="M147.43 427.902 70.065 555.947l-69.347-.371" stroke="url(#d)" stroke-width="2"/><path d="M303.713 158.583 380.81 30.271l70.472 1.153" stroke="url(#e)" stroke-width="2"/><path d="m303.713 428.417 78.321 127.49 69.248-.331" stroke="url(#f)" stroke-width="2"/><path d="m303.689 159 78.171 135-78.171 135H147.342l-78.17-135 78.17-135h156.347Z" fill="url(#g)" stroke="url(#h)" stroke-width="2"/><path fill-rule="evenodd" clip-rule="evenodd" d="m63.302 294.999 81.036 139.73h162.068l81.034-140.883-81.034-139.575H144.338L63.302 294.999Zm79.885-142.717L61.002 294.999l82.185 141.719h164.37l82.183-142.872-82.183-141.564h-164.37Z" fill="url(#i)"/><path fill-rule="evenodd" clip-rule="evenodd" d="m307.244 434.972 81.041-140.845-81.072-139.504-162.118.032-81.043 140.191 81.075 140.158 162.117-.032ZM143.973 437l164.426-.032 82.194-142.841-82.227-141.5-164.425.032-82.197 142.187L143.973 437Z" fill="url(#j)"/><path fill-rule="evenodd" clip-rule="evenodd" d="m145.091 434.473 162.118.032 81.072-140.813-81.041-139.536-162.117-.032-81.075 140.159 81.043 140.19ZM61.74 294.283l82.197 142.186 164.425.032 82.227-142.809-82.194-141.532-164.426-.032L61.74 294.283Z" fill="url(#k)"/><path fill-rule="evenodd" clip-rule="evenodd" d="m307.244 434.972 81.041-140.845-81.072-139.504-162.118.032-81.043 140.191 81.075 140.158 162.117-.032ZM143.973 437l164.426-.032 82.194-142.841-82.227-141.5-164.425.032-82.197 142.187L143.973 437Z" fill="url(#l)"/><path fill-rule="evenodd" clip-rule="evenodd" d="m307.062 154.527-162.118-.032-81.075 140.158 81.044 140.191 162.117.032 81.073-140.813-81.041-139.536Zm83.349 139.536-82.195-141.532-164.425-.032-82.23 142.154 82.197 142.187 164.426.032 82.227-142.809Z" fill="url(#m)"/><path fill-rule="evenodd" clip-rule="evenodd" d="m387.442 293.846-81.034-139.575H144.34L63.304 294.5l81.036 140.229h162.068l81.034-140.883Zm-79.883 142.872 82.183-142.872-82.183-141.564h-164.37L61.004 294.5l82.185 142.218h164.37Z" fill="url(#n)"/><path fill-rule="evenodd" clip-rule="evenodd" d="m145.502 154.028-81.043 140.19 81.074 140.159 162.118-.032L388.692 293.5 307.62 153.996l-162.118.032ZM308.773 152l-164.425.032-82.197 142.186 82.229 142.155 164.425-.032L391 293.5 308.773 152Z" fill="url(#o)"/><defs><linearGradient id="a" x1="68.5" y1="293" x2="7.463" y2="293" gradientUnits="userSpaceOnUse"><stop stop-color="#C3C8D5"/><stop offset="1" stop-color="#C3C8D5" stop-opacity="0"/></linearGradient><linearGradient id="b" x1="383" y1="294.5" x2="444.037" y2="294.5" gradientUnits="userSpaceOnUse"><stop stop-color="#39C2D7"/><stop offset="1" stop-color="#39C2D7" stop-opacity="0"/></linearGradient><linearGradient id="c" x1="103.201" y1="82.24" x2="7.4" y2="48.504" gradientUnits="userSpaceOnUse"><stop stop-color="#C3C8D5"/><stop offset="1" stop-color="#C3C8D5" stop-opacity="0"/></linearGradient><linearGradient id="d" x1="103.007" y1="504.354" x2="7.157" y2="537.646" gradientUnits="userSpaceOnUse"><stop stop-color="#C3C8D5"/><stop offset="1" stop-color="#C3C8D5" stop-opacity="0"/></linearGradient><linearGradient id="e" x1="347.918" y1="81.71" x2="444.079" y2="46.969" gradientUnits="userSpaceOnUse"><stop stop-color="#39C2D7"/><stop offset="1" stop-color="#39C2D7" stop-opacity="0"/></linearGradient><linearGradient id="f" x1="349.112" y1="504.337" x2="444.887" y2="537.534" gradientUnits="userSpaceOnUse"><stop stop-color="#C3C8D5"/><stop offset="1" stop-color="#C3C8D5" stop-opacity="0"/></linearGradient><linearGradient id="g" x1="383.016" y1="294" x2="68.016" y2="294" gradientUnits="userSpaceOnUse"><stop stop-color="#F4F5FA"/><stop offset="1" stop-color="#F4F5FA" stop-opacity="0"/></linearGradient><linearGradient id="h" x1="338.512" y1="213" x2="119.512" y2="390" gradientUnits="userSpaceOnUse"><stop stop-color="#39C2D7"/><stop offset=".295" stop-color="#C3C8D5"/><stop offset="1" stop-color="#C3C8D5"/></linearGradient><linearGradient id="i" x1="61.002" y1="294.5" x2="97.605" y2="294.5" gradientUnits="userSpaceOnUse"><stop stop-color="#C3C8D5"/><stop offset=".661" stop-color="#C3C8D5" stop-opacity="0"/></linearGradient><linearGradient id="j" x1="308.522" y1="436.968" x2="290.294" y2="405.319" gradientUnits="userSpaceOnUse"><stop stop-color="#C3C8D5"/><stop offset=".661" stop-color="#C3C8D5" stop-opacity="0"/></linearGradient><linearGradient id="k" x1="143.489" y1="436.968" x2="161.716" y2="405.319" gradientUnits="userSpaceOnUse"><stop stop-color="#C3C8D5"/><stop offset=".661" stop-color="#C3C8D5" stop-opacity="0"/></linearGradient><linearGradient id="l" x1="308.522" y1="436.968" x2="290.294" y2="405.319" gradientUnits="userSpaceOnUse"><stop stop-color="#C3C8D5"/><stop offset=".661" stop-color="#C3C8D5" stop-opacity="0"/></linearGradient><linearGradient id="m" x1="308.519" y1="152.032" x2="290.291" y2="183.681" gradientUnits="userSpaceOnUse"><stop stop-color="#39C2D7"/><stop offset=".661" stop-color="#39C2D7" stop-opacity="0"/></linearGradient><linearGradient id="n" x1="391" y1="294.5" x2="354.397" y2="294.5" gradientUnits="userSpaceOnUse"><stop stop-color="#39C2D7"/><stop offset=".661" stop-color="#39C2D7" stop-opacity="0"/></linearGradient><linearGradient id="o" x1="144.346" y1="152.032" x2="162.545" y2="183.592" gradientUnits="userSpaceOnUse"><stop stop-color="#C3C8D5"/><stop offset=".661" stop-color="#C3C8D5" stop-opacity="0"/></linearGradient></defs></svg>