<svg width="132" height="369" fill="none" xmlns="http://www.w3.org/2000/svg"><path d="M130 2v6.027c0 6.627-5.373 12-12 12H15.793C8.175 20.027 2 25.407 2 32.045V63m28 304H12c-5.523 0-10-4.477-10-10v-46m0 0h28m-28 0v-56m0 0h28m-28 0v-55.5m0 0h28m-28 0V119m0 0h28m-28 0V63m0 0h28" stroke="url(#a)" stroke-width="3" stroke-linecap="round"/><defs><linearGradient id="a" x1="66" y1="2" x2="66" y2="367" gradientUnits="userSpaceOnUse"><stop offset=".313" stop-color="#66D2E6"/><stop offset=".411" stop-color="#C4C9D6"/></linearGradient></defs></svg>