<svg width="298" height="323" fill="none" xmlns="http://www.w3.org/2000/svg"><g filter="url(#a)"><path d="M16 221.931V85.069c0-3.086 1.722-5.938 4.517-7.48L144.483 9.156a9.394 9.394 0 0 1 9.034 0l123.966 68.431c2.795 1.543 4.517 4.395 4.517 7.48v136.863c0 3.086-1.722 5.938-4.517 7.48l-123.966 68.432a9.394 9.394 0 0 1-9.034 0L20.517 229.411c-2.795-1.542-4.517-4.394-4.517-7.48Z" fill="url(#b)" shape-rendering="crispEdges"/></g><g filter="url(#c)"><path d="m91 252-54.06-30.25a7.76 7.76 0 0 1-2.857-2.75M149 26c1.36 0 2.72.341 3.939 1.023l27.03 15.125M149.001 26c-1.361 0-2.721.34-3.941 1.023L91 57.273M149.001 26v11M33.795 90.794a7.733 7.733 0 0 1 3.145-3.27L91 57.273m-57.205 33.52A7.437 7.437 0 0 0 33 94.137V155m.795-64.206L42 95.5M34.083 219A7.452 7.452 0 0 1 33 215.137V155m1.083 64L42 214m-9-59h5.5M91 57.273 94 63m112.969 189 54.06-30.25a7.759 7.759 0 0 0 2.857-2.75m.288-128.206a7.734 7.734 0 0 0-3.145-3.27l-54.06-30.25m57.205 33.52a7.434 7.434 0 0 1 .795 3.343V155m-.795-64.206-8.205 4.706m7.917 123.5a7.455 7.455 0 0 0 1.083-3.863V155m-1.083 64-7.917-5m9-59h-5.5m-52.5-97.727-3 5.727m3-5.727-27.03-15.125" stroke="#66D2E6" stroke-width="8" stroke-linecap="round"/></g><defs><filter id="a" x="0" y="0" width="298" height="323" filterUnits="userSpaceOnUse" color-interpolation-filters="sRGB"><feFlood flood-opacity="0" result="BackgroundImageFix"/><feColorMatrix in="SourceAlpha" values="0 0 0 0 0 0 0 0 0 0 0 0 0 0 0 0 0 0 127 0" result="hardAlpha"/><feOffset dy="8"/><feGaussianBlur stdDeviation="8"/><feComposite in2="hardAlpha" operator="out"/><feColorMatrix values="0 0 0 0 0 0 0 0 0 0.177273 0 0 0 0 0.216667 0 0 0 0.12 0"/><feBlend in2="BackgroundImageFix" result="effect1_dropShadow_9671_83957"/><feBlend in="SourceGraphic" in2="effect1_dropShadow_9671_83957" result="shape"/></filter><filter id="c" x="25" y="18" width="247.969" height="242.001" filterUnits="userSpaceOnUse" color-interpolation-filters="sRGB"><feFlood flood-opacity="0" result="BackgroundImageFix"/><feColorMatrix in="SourceAlpha" values="0 0 0 0 0 0 0 0 0 0 0 0 0 0 0 0 0 0 127 0" result="hardAlpha"/><feOffset/><feGaussianBlur stdDeviation="2"/><feComposite in2="hardAlpha" operator="out"/><feColorMatrix values="0 0 0 0 0.223529 0 0 0 0 0.760784 0 0 0 0 0.843137 0 0 0 1 0"/><feBlend in2="BackgroundImageFix" result="effect1_dropShadow_9671_83957"/><feBlend in="SourceGraphic" in2="effect1_dropShadow_9671_83957" result="shape"/></filter><linearGradient id="b" x1="149" y1="8" x2="149" y2="299" gradientUnits="userSpaceOnUse"><stop stop-color="#F4F5FA"/><stop offset="1" stop-color="#F4F5FA" stop-opacity="0"/></linearGradient></defs></svg>