<svg width="314" height="339" fill="none" xmlns="http://www.w3.org/2000/svg"><g filter="url(#a)"><path d="M24 231.931V95.069c0-3.086 1.722-5.938 4.517-7.48l123.966-68.432a9.395 9.395 0 0 1 9.034 0l123.966 68.431c2.795 1.543 4.517 4.395 4.517 7.48v136.863c0 3.086-1.722 5.938-4.517 7.48l-123.966 68.432a9.394 9.394 0 0 1-9.034 0L28.517 239.411c-2.795-1.542-4.517-4.394-4.517-7.48Z" fill="#F4F5FA"/></g><g filter="url(#b)"><path d="m215 262 54.06-30.25c2.438-1.364 3.94-3.885 3.94-6.613V104.136c0-2.728-1.502-5.249-3.94-6.613l-108.12-60.5a8.098 8.098 0 0 0-7.88 0l-108.12 60.5c-2.438 1.364-3.94 3.885-3.94 6.613V225.137c0 2.728 1.502 5.249 3.94 6.613L99 262" stroke="#CCF0F7" stroke-width="5" stroke-linecap="round"/></g><defs><filter id="a" x="0" y="0" width="314" height="339" filterUnits="userSpaceOnUse" color-interpolation-filters="sRGB"><feFlood flood-opacity="0" result="BackgroundImageFix"/><feColorMatrix in="SourceAlpha" values="0 0 0 0 0 0 0 0 0 0 0 0 0 0 0 0 0 0 127 0" result="hardAlpha"/><feOffset dy="6"/><feGaussianBlur stdDeviation="12"/><feComposite in2="hardAlpha" operator="out"/><feColorMatrix values="0 0 0 0 0 0 0 0 0 0.231818 0 0 0 0 0.283333 0 0 0 0.08 0"/><feBlend in2="BackgroundImageFix" result="effect1_dropShadow_743_21695"/><feBlend in="SourceGraphic" in2="effect1_dropShadow_743_21695" result="shape"/></filter><filter id="b" x="38.5" y="33.5" width="237" height="232" filterUnits="userSpaceOnUse" color-interpolation-filters="sRGB"><feFlood flood-opacity="0" result="BackgroundImageFix"/><feBlend in="SourceGraphic" in2="BackgroundImageFix" result="shape"/><feColorMatrix in="SourceAlpha" values="0 0 0 0 0 0 0 0 0 0 0 0 0 0 0 0 0 0 127 0" result="hardAlpha"/><feOffset dy="1"/><feGaussianBlur stdDeviation="1.5"/><feComposite in2="hardAlpha" operator="arithmetic" k2="-1" k3="1"/><feColorMatrix values="0 0 0 0 0.101961 0 0 0 0 0.611765 0 0 0 0 0.690196 0 0 0 0.2 0"/><feBlend in2="shape" result="effect1_innerShadow_743_21695"/></filter></defs></svg>