<svg width="33" height="32" fill="none" xmlns="http://www.w3.org/2000/svg"><path fill-rule="evenodd" clip-rule="evenodd" d="M23.5 1c.574 0 1.04.474 1.04 1.058v4.488a1.05 1.05 0 0 1-1.04 1.058h-4.413c-.575 0-1.04-.474-1.04-1.058 0-.584.465-1.058 1.04-1.058h1.844a7.219 7.219 0 0 0-4.582-1.646c-1.93 0-3.782.778-5.15 2.164a1.028 1.028 0 0 1-1.47-.002 1.07 1.07 0 0 1 .002-1.496 9.295 9.295 0 0 1 6.618-2.782c2.25 0 4.416.823 6.11 2.304V2.058A1.05 1.05 0 0 1 23.5 1Zm5.04 14.497a7.462 7.462 0 0 0-2.515-5.057 1.07 1.07 0 0 1-.11-1.492 1.028 1.028 0 0 1 1.467-.111 9.59 9.59 0 0 1 3.232 6.499 9.641 9.641 0 0 1-2.133 6.815l1.9-.147a1.046 1.046 0 0 1 1.116.974 1.052 1.052 0 0 1-.958 1.135l-4.4.342a1.046 1.046 0 0 1-1.116-.974l-.337-4.475a1.052 1.052 0 0 1 .958-1.135 1.046 1.046 0 0 1 1.116.974l.145 1.925a7.502 7.502 0 0 0 1.635-5.273ZM6.861 7.362a1.046 1.046 0 0 1 1.116.974l.337 4.475a1.052 1.052 0 0 1-.958 1.135 1.046 1.046 0 0 1-1.116-.974l-.145-1.924A7.502 7.502 0 0 0 4.46 16.32a7.462 7.462 0 0 0 2.515 5.057 1.07 1.07 0 0 1 .11 1.492 1.028 1.028 0 0 1-1.467.111 9.59 9.59 0 0 1-3.232-6.499 9.642 9.642 0 0 1 2.133-6.815l-1.9.147a1.046 1.046 0 0 1-1.116-.974 1.052 1.052 0 0 1 .958-1.135l4.4-.342Zm16.23 18.634a1.07 1.07 0 0 1-.002 1.496 9.295 9.295 0 0 1-6.618 2.782 9.283 9.283 0 0 1-6.11-2.304v1.972A1.05 1.05 0 0 1 9.32 31a1.05 1.05 0 0 1-1.041-1.058v-4.488c0-.28.11-.55.305-.748.195-.198.46-.31.735-.31h4.413c.575 0 1.04.474 1.04 1.058a1.05 1.05 0 0 1-1.04 1.058H11.89a7.219 7.219 0 0 0 4.582 1.646c1.93 0 3.782-.778 5.15-2.164a1.028 1.028 0 0 1 1.47.002Z" fill="#00B4D5"/></svg>