<svg width="452" height="587" fill="none" xmlns="http://www.w3.org/2000/svg"><path fill-rule="evenodd" clip-rule="evenodd" d="M5.5 293h64v2h-64v-2Z" fill="url(#a)"/><path fill-rule="evenodd" clip-rule="evenodd" d="M445.5 293h-64v2h64v-2Z" fill="url(#b)"/><path d="M146.93 159.098 69.833 30.786l-69.615.638" stroke="url(#c)" stroke-width="2"/><path d="M146.93 427.902 69.565 555.947l-69.347-.371" stroke="url(#d)" stroke-width="2"/><path d="M303.213 158.583 380.31 30.271l70.472 1.153" stroke="url(#e)" stroke-width="2"/><path d="m303.213 428.417 78.321 127.49 69.248-.331" stroke="url(#f)" stroke-width="2"/><path d="m303.177 159 78.171 135-78.171 135H146.83L68.66 294l78.17-135h156.347Z" fill="url(#g)" stroke="#66D2E6" stroke-width="2"/><path fill-rule="evenodd" clip-rule="evenodd" d="m387.198 293.001-81.036-139.73H144.094L63.06 294.154l81.034 139.575h162.068l81.036-140.728Zm-79.885 142.717 82.185-142.717-82.185-141.719h-164.37L60.76 294.154l82.183 141.564h164.37Z" fill="url(#h)"/><path fill-rule="evenodd" clip-rule="evenodd" d="M143.256 153.028 62.215 293.873l81.072 139.504 162.118-.032 81.043-140.191-81.075-140.158-162.117.032ZM306.527 151l-164.426.032-82.194 142.841 82.227 141.5 164.425-.032 82.197-142.187L306.527 151Z" fill="url(#i)"/><path fill-rule="evenodd" clip-rule="evenodd" d="m305.409 153.527-162.118-.032-81.072 140.813 81.041 139.536 162.117.032 81.075-140.159-81.043-140.19Zm83.351 140.19-82.197-142.186-164.425-.032-82.227 142.809 82.194 141.532 164.426.032 82.229-142.155Z" fill="url(#j)"/><path fill-rule="evenodd" clip-rule="evenodd" d="M143.256 153.028 62.215 293.873l81.072 139.504 162.118-.032 81.043-140.191-81.075-140.158-162.117.032ZM306.527 151l-164.426.032-82.194 142.841 82.227 141.5 164.425-.032 82.197-142.187L306.527 151Z" fill="url(#k)"/><path fill-rule="evenodd" clip-rule="evenodd" d="m143.438 433.473 162.118.032 81.075-140.158-81.044-140.191-162.117-.032-81.072 140.813 81.04 139.536ZM60.09 293.937l82.194 141.532 164.425.032 82.23-142.154-82.197-142.187-164.426-.032-82.227 142.809Z" fill="url(#l)"/><path fill-rule="evenodd" clip-rule="evenodd" d="m63.058 294.154 81.034 139.575H306.16L387.196 293.5 306.16 153.271H144.092L63.058 294.154Zm79.883-142.872L60.758 294.154l82.183 141.564h164.37L389.496 293.5l-82.185-142.218h-164.37Z" fill="url(#m)"/><path fill-rule="evenodd" clip-rule="evenodd" d="m304.998 433.972 81.043-140.19-81.074-140.159-162.118.032L61.808 294.5l81.072 139.504 162.118-.032ZM141.727 436l164.425-.032 82.197-142.186-82.229-142.155-164.425.032L59.5 294.5 141.727 436Z" fill="url(#n)"/><defs><linearGradient id="a" x1="68" y1="293" x2="6.963" y2="293" gradientUnits="userSpaceOnUse"><stop stop-color="#66D2E6"/><stop offset="1" stop-color="#66D2E6" stop-opacity="0"/></linearGradient><linearGradient id="b" x1="382.5" y1="294.5" x2="443.537" y2="294.5" gradientUnits="userSpaceOnUse"><stop stop-color="#66D2E6"/><stop offset="1" stop-color="#66D2E6" stop-opacity="0"/></linearGradient><linearGradient id="c" x1="102.701" y1="82.24" x2="6.9" y2="48.504" gradientUnits="userSpaceOnUse"><stop stop-color="#66D2E6"/><stop offset="1" stop-color="#66D2E6" stop-opacity="0"/></linearGradient><linearGradient id="d" x1="102.507" y1="504.354" x2="6.657" y2="537.646" gradientUnits="userSpaceOnUse"><stop stop-color="#66D2E6"/><stop offset="1" stop-color="#66D2E6" stop-opacity="0"/></linearGradient><linearGradient id="e" x1="347.418" y1="81.71" x2="443.579" y2="46.969" gradientUnits="userSpaceOnUse"><stop stop-color="#66D2E6"/><stop offset="1" stop-color="#66D2E6" stop-opacity="0"/></linearGradient><linearGradient id="f" x1="348.612" y1="504.337" x2="444.387" y2="537.534" gradientUnits="userSpaceOnUse"><stop stop-color="#66D2E6"/><stop offset="1" stop-color="#66D2E6" stop-opacity="0"/></linearGradient><linearGradient id="g" x1="382.504" y1="294" x2="67.504" y2="294" gradientUnits="userSpaceOnUse"><stop stop-color="#F4F5FA"/><stop offset="1" stop-color="#F4F5FA" stop-opacity="0"/></linearGradient><linearGradient id="h" x1="389.498" y1="293.5" x2="352.895" y2="293.5" gradientUnits="userSpaceOnUse"><stop stop-color="#66D2E6"/><stop offset=".661" stop-color="#39C2D7" stop-opacity="0"/></linearGradient><linearGradient id="i" x1="141.978" y1="151.032" x2="160.206" y2="182.681" gradientUnits="userSpaceOnUse"><stop stop-color="#66D2E6"/><stop offset=".661" stop-color="#39C2D7" stop-opacity="0"/></linearGradient><linearGradient id="j" x1="307.011" y1="151.032" x2="288.784" y2="182.681" gradientUnits="userSpaceOnUse"><stop stop-color="#66D2E6"/><stop offset=".661" stop-color="#39C2D7" stop-opacity="0"/></linearGradient><linearGradient id="k" x1="141.978" y1="151.032" x2="160.206" y2="182.681" gradientUnits="userSpaceOnUse"><stop stop-color="#66D2E6"/><stop offset=".661" stop-color="#39C2D7" stop-opacity="0"/></linearGradient><linearGradient id="l" x1="141.981" y1="435.968" x2="160.209" y2="404.319" gradientUnits="userSpaceOnUse"><stop stop-color="#66D2E6"/><stop offset=".661" stop-color="#39C2D7" stop-opacity="0"/></linearGradient><linearGradient id="m" x1="59.5" y1="293.5" x2="96.103" y2="293.5" gradientUnits="userSpaceOnUse"><stop stop-color="#66D2E6"/><stop offset=".661" stop-color="#39C2D7" stop-opacity="0"/></linearGradient><linearGradient id="n" x1="306.154" y1="435.968" x2="287.955" y2="404.408" gradientUnits="userSpaceOnUse"><stop stop-color="#66D2E6"/><stop offset=".661" stop-color="#39C2D7" stop-opacity="0"/></linearGradient></defs></svg>