<svg width="1440" height="208" fill="none" xmlns="http://www.w3.org/2000/svg"><g clip-path="url(#a)"><path fill="url(#b)" d="M0 0h1440v208H0z"/><path d="M-186 724.753V273.247c0-10.18 5.625-19.587 14.756-24.677L233.744 22.818c9.131-5.09 20.381-5.09 29.512 0L668.244 248.57c9.131 5.09 14.756 14.497 14.756 24.677V724.753c0 10.18-5.625 19.587-14.756 24.677L263.256 975.182c-9.131 5.091-20.381 5.091-29.512 0L-171.244 749.43c-9.131-5.09-14.756-14.497-14.756-24.677Z" fill="url(#c)"/><path d="M758-74.247v-451.506c0-10.18 5.625-19.587 14.756-24.677l404.984-225.752c9.13-5.091 20.39-5.091 29.52 0l404.98 225.752c9.13 5.09 14.76 14.497 14.76 24.677V-74.247c0 10.18-5.63 19.587-14.76 24.677l-404.98 225.752c-9.13 5.091-20.39 5.091-29.52 0L772.756-49.57C763.625-54.66 758-64.067 758-74.247Z" fill="url(#d)"/></g><defs><linearGradient id="b" x1="720" y1="0" x2="720" y2="208" gradientUnits="userSpaceOnUse"><stop stop-color="#EDEFF7"/><stop offset="1" stop-color="#F4F5FA"/></linearGradient><linearGradient id="c" x1="248.5" y1="19" x2="248.5" y2="979" gradientUnits="userSpaceOnUse"><stop stop-color="#ECEEF3"/><stop offset="1" stop-color="#F4F5FA"/></linearGradient><linearGradient id="d" x1="1192.5" y1="-780" x2="1192.5" y2="180" gradientUnits="userSpaceOnUse"><stop stop-color="#C3C8D5"/><stop offset="1" stop-color="#EDEFF7"/></linearGradient><clipPath id="a"><path fill="#fff" d="M0 0h1440v208H0z"/></clipPath></defs></svg>