<svg width="768" height="344" fill="none" xmlns="http://www.w3.org/2000/svg"><g clip-path="url(#a)"><path fill="url(#b)" d="M0 0h768v344H0z"/><path d="M-530 764.753V313.247c0-10.18 5.625-19.587 14.756-24.677l404.988-225.752c9.131-5.09 20.381-5.09 29.512 0L324.244 288.57c9.131 5.09 14.756 14.497 14.756 24.677V764.753c0 10.18-5.625 19.587-14.756 24.677l-404.988 225.75c-9.13 5.09-20.381 5.09-29.512 0l-404.988-225.75c-9.131-5.09-14.756-14.497-14.756-24.677Z" fill="url(#c)"/><path opacity=".5" d="M414-34.247v-451.506c0-10.18 5.625-19.587 14.756-24.677l404.988-225.752c9.131-5.091 20.381-5.091 29.512 0L1268.24-510.43c9.13 5.09 14.76 14.497 14.76 24.677V-34.247c0 10.18-5.63 19.587-14.76 24.677L863.256 216.182c-9.131 5.091-20.381 5.091-29.512 0L428.756-9.57C419.625-14.66 414-24.067 414-34.247Z" fill="url(#d)"/></g><defs><linearGradient id="b" x1="384" y1="0" x2="384" y2="344" gradientUnits="userSpaceOnUse"><stop stop-color="#EDEFF7"/><stop offset="1" stop-color="#F4F5FA"/></linearGradient><linearGradient id="c" x1="-95.5" y1="59" x2="-95.5" y2="1019" gradientUnits="userSpaceOnUse"><stop stop-color="#ECEEF3"/><stop offset="1" stop-color="#F4F5FA"/></linearGradient><linearGradient id="d" x1="848.5" y1="-740" x2="848.5" y2="220" gradientUnits="userSpaceOnUse"><stop stop-color="#C3C8D5"/><stop offset="1" stop-color="#EDEFF7"/></linearGradient><clipPath id="a"><path fill="#fff" d="M0 0h768v344H0z"/></clipPath></defs></svg>