<svg width="690" height="488" fill="none" xmlns="http://www.w3.org/2000/svg"><g clip-path="url(#a)"><ellipse opacity=".4" cx="332.786" cy="251.394" rx="314.345" ry="122.368" transform="rotate(37.662 332.786 251.394)" fill="url(#b)"/><path opacity=".1" d="M614.067 446.116c-10.146 13.498-27.055 21.449-49.72 23.756-22.671 2.308-50.684-1.094-82.262-9.9-63.13-17.604-139.674-56.57-214.531-112.838-74.857-56.269-133.562-118.967-168.019-174.716-17.235-27.886-28.289-53.85-32.373-76.27-4.084-22.413-1.145-40.866 9-54.364 10.146-13.497 27.056-21.449 49.721-23.756 22.671-2.307 50.684 1.095 82.262 9.9 63.13 17.604 139.674 56.57 214.531 112.839 74.857 56.268 133.562 118.966 168.019 174.716 17.235 27.886 28.289 53.85 32.373 76.269 4.084 22.414 1.145 40.867-9.001 54.364Z" stroke="url(#c)" stroke-width="8"/><ellipse opacity=".4" cx="339.837" cy="260.115" rx="309.683" ry="132.554" transform="rotate(-28 339.837 260.115)" fill="url(#d)"/><ellipse opacity=".4" cx="321.209" cy="265.232" rx="276.95" ry="115.877" transform="rotate(36.108 321.209 265.232)" fill="url(#e)"/><path opacity=".4" d="M571.675 101.506c8.517 12.88 10.315 29.561 5.945 48.949-4.372 19.396-14.885 41.322-30.717 64.418-31.658 46.182-84.346 96.696-150.592 140.506-66.246 43.809-133.353 72.519-188.243 83.572-27.45 5.528-51.742 6.619-71.301 3.049-19.552-3.568-34.198-11.752-42.715-24.632-8.518-12.88-10.316-29.561-5.946-48.949 4.372-19.396 14.885-41.322 30.717-64.418 31.658-46.182 84.346-96.696 150.592-140.505 66.246-43.81 133.353-72.52 188.243-83.573 27.451-5.528 51.742-6.618 71.302-3.049 19.551 3.568 34.197 11.752 42.715 24.632Z" fill="url(#f)" stroke="url(#g)" stroke-width="4"/><g filter="url(#h)"><circle cx="195.172" cy="396.459" r="33" fill="#7EBAFF" fill-opacity=".46"/></g><path d="M463.172 132.132V84.738l-44.754 25.547v47.174l44.754-25.327Z" fill="url(#i)"/><path d="M463.172 132.132V84.738l-44.754 25.547v47.174l44.754-25.327Z" fill="url(#j)"/><path d="M463.172 132.132V84.738l-44.754 25.547v47.174l44.754-25.327Z" fill="url(#k)"/><path d="M418.418 110.286v47.173l-44.246-25.296V84.99l44.246 25.296Z" fill="url(#l)"/><path d="M418.418 110.286v47.173l-44.246-25.296V84.99l44.246 25.296Z" fill="url(#m)"/><path d="M418.418 110.286v47.173l-44.246-25.296V84.99l44.246 25.296Z" fill="url(#n)"/><path opacity=".78" d="m413.586 109.901-39.414 21.892V88.009l39.414 21.892Z" fill="url(#o)"/><path d="m418.672 59.459-44.5 25.53 44.246 25.299 44.754-25.55-44.5-25.279Z" fill="url(#p)"/><path d="m418.672 59.459-44.5 25.53 44.246 25.299 44.754-25.55-44.5-25.279Z" fill="url(#q)"/><path d="m418.672 59.459-44.5 25.53 44.246 25.299 44.754-25.55-44.5-25.279Z" fill="url(#r)"/><g filter="url(#s)"><path d="m445.156 444.557-226.015-130.83a31.999 31.999 0 0 1-15.969-27.695v-187.9c0-12.309 13.316-20.008 23.982-13.867l225.983 130.088a32.001 32.001 0 0 1 16.035 27.733V430.71c0 12.325-13.349 20.022-24.016 13.847Z" fill="url(#t)"/><path d="m217.137 317.189 226.015 130.83c13.334 7.718 30.02-1.903 30.02-17.309V242.086a35.998 35.998 0 0 0-18.04-31.199L229.15 80.798c-13.333-7.675-29.978 1.948-29.978 17.333v187.901a36 36 0 0 0 17.965 31.157Z" stroke="#7681AC" stroke-width="8" stroke-linejoin="round"/></g><path d="m469.17 265.537.002 163.428c0 13.098-14.188 21.276-25.521 14.711l-224.517-130.05a32 32 0 0 1-15.96-27.69l-.002-174.477L469.17 265.537Z" fill="url(#u)"/><path d="m469.17 265.537.002 163.428c0 13.098-14.188 21.276-25.521 14.711l-224.517-130.05a32 32 0 0 1-15.96-27.69l-.002-174.477L469.17 265.537Z" fill="url(#v)"/><g filter="url(#w)"><path fill-rule="evenodd" clip-rule="evenodd" d="m353.171 214.638.001 74.321-113.999-66.179-.001-74.321 113.999 66.179Zm104 140.794.001 73.027-168.999-97.973-.001-73.027 168.999 97.973Zm-47.999-33.473v-74.825l-51-29.675v74.825l51 29.675Zm49-45.942v73.499l-44-25.557V250.46l44 25.557Zm-175 51.499v-73.499l-44-25.557v73.499l44 25.557Z" fill="url(#x)"/></g><path d="m366.1 229.564 18.424 10.555a1.289 1.289 0 0 1-1.281 2.235l-18.423-10.555a1.288 1.288 0 1 1 1.28-2.235ZM423.1 261.564l18.424 10.555a1.289 1.289 0 0 1-1.281 2.235l-18.423-10.555a1.288 1.288 0 1 1 1.28-2.235ZM245.1 159.564l18.424 10.555a1.289 1.289 0 0 1-1.281 2.235l-18.423-10.555a1.288 1.288 0 1 1 1.28-2.235ZM245.1 240.564l18.424 10.555a1.289 1.289 0 0 1-1.281 2.235l-18.423-10.555a1.288 1.288 0 1 1 1.28-2.235ZM245.087 253.556l32.442 18.586a1.28 1.28 0 0 1-1.272 2.22l-32.442-18.586a1.28 1.28 0 0 1 1.272-2.22ZM245.087 259.556l32.442 18.586a1.28 1.28 0 0 1-1.272 2.22l-32.442-18.586a1.28 1.28 0 0 1 1.272-2.22ZM245.087 265.556l32.442 18.586a1.28 1.28 0 0 1-1.272 2.22l-32.442-18.586a1.28 1.28 0 0 1 1.272-2.22ZM245.087 271.556l32.442 18.586a1.28 1.28 0 0 1-1.272 2.22l-32.442-18.586a1.28 1.28 0 0 1 1.272-2.22ZM245.087 277.556l32.442 18.586a1.28 1.28 0 0 1-1.272 2.22l-32.442-18.586a1.28 1.28 0 0 1 1.272-2.22ZM295.1 270.564l18.424 10.555a1.289 1.289 0 0 1-1.281 2.235l-18.423-10.555a1.288 1.288 0 1 1 1.28-2.235ZM298.627 325.822l9.694 5.383a1.654 1.654 0 0 1-1.605 2.891l-9.694-5.383a1.653 1.653 0 0 1 1.605-2.891ZM341.627 349.822l9.694 5.383a1.654 1.654 0 0 1-1.605 2.891l-9.694-5.383a1.653 1.653 0 0 1 1.605-2.891ZM381.627 373.822l9.694 5.383a1.654 1.654 0 0 1-1.605 2.891l-9.694-5.383a1.653 1.653 0 0 1 1.605-2.891ZM424.627 397.822l9.694 5.383a1.654 1.654 0 0 1-1.605 2.891l-9.694-5.383a1.653 1.653 0 0 1 1.605-2.891Z" fill="#D8EFF4"/><path d="M425.172 296.903c0-7.792 8.431-12.665 15.182-8.775l2.219 1.279a19.168 19.168 0 0 1 9.599 16.608c0 7.792-8.432 12.665-15.183 8.775l-1.997 3.465 1.997-3.465-2.219-1.279a19.169 19.169 0 0 1-9.598-16.608Z" stroke="#009DBB" stroke-opacity=".14" stroke-width="8"/><path d="m228.172 320.121-8.773-4.969a32.003 32.003 0 0 1-16.227-27.843V97.837c0-12.242 13.187-19.949 23.853-13.94l1.147.646V320.12Z" fill="#313E60"/><path d="m218.239 91.429.512.287a4.745 4.745 0 0 1 2.421 4.137c0 3.627-3.905 5.912-7.068 4.136l-.511-.288a4.743 4.743 0 0 1-2.421-4.136c0-3.627 3.905-5.912 7.067-4.136Z" fill="#00AECF"/><path d="m218.239 115.429.512.287a4.746 4.746 0 0 1 2.421 4.137c0 3.627-3.905 5.912-7.068 4.136l-.511-.288a4.741 4.741 0 0 1-2.421-4.136c0-3.627 3.905-5.912 7.067-4.136ZM218.239 134.429l.512.287a4.746 4.746 0 0 1 2.421 4.137c0 3.627-3.905 5.912-7.068 4.136l-.511-.288a4.741 4.741 0 0 1-2.421-4.136c0-3.627 3.905-5.912 7.067-4.136ZM218.239 153.429l.512.287a4.746 4.746 0 0 1 2.421 4.137c0 3.627-3.905 5.912-7.068 4.136l-.511-.288a4.741 4.741 0 0 1-2.421-4.136c0-3.627 3.905-5.912 7.067-4.136ZM218.239 172.429l.512.287a4.746 4.746 0 0 1 2.421 4.137c0 3.627-3.905 5.912-7.068 4.136l-.511-.288a4.741 4.741 0 0 1-2.421-4.136c0-3.627 3.905-5.912 7.067-4.136ZM218.239 191.429l.512.287a4.746 4.746 0 0 1 2.421 4.137c0 3.627-3.905 5.912-7.068 4.136l-.511-.288a4.741 4.741 0 0 1-2.421-4.136c0-3.627 3.905-5.912 7.067-4.136ZM218.239 210.429l.512.287a4.746 4.746 0 0 1 2.421 4.137c0 3.627-3.905 5.912-7.068 4.136l-.511-.288a4.741 4.741 0 0 1-2.421-4.136c0-3.627 3.905-5.912 7.067-4.136Z" fill="#BADFE6" fill-opacity=".28"/><path d="m246.329 108.501 36.404 20.561a4.797 4.797 0 0 1 2.439 4.177c0 3.673-3.959 5.984-7.157 4.178l-36.405-20.561a4.798 4.798 0 0 1-2.438-4.177c0-3.673 3.959-5.984 7.157-4.178Z" fill="#D8EFF4"/><path d="m241.531 123.797 46.841 26.576a1.58 1.58 0 1 1-1.559 2.747l-46.841-26.575a1.58 1.58 0 0 1 1.559-2.748ZM240.232 132.06l48.58 27.563a.71.71 0 1 1-.7 1.234l-48.581-27.562a.71.71 0 0 1 .701-1.235Z" fill="#009DBB"/><path d="m298.531 155.797 46.841 26.576a1.58 1.58 0 1 1-1.559 2.747l-46.841-26.575a1.58 1.58 0 0 1 1.559-2.748ZM354.531 187.797l46.841 26.576a1.58 1.58 0 1 1-1.559 2.747l-46.841-26.575a1.58 1.58 0 0 1 1.559-2.748Z" fill="#D8EFF4"/><g filter="url(#y)"><path d="M494.172 312.997v46.03c0 4.628-5.017 7.513-9.017 5.187l-38-22.106a6.001 6.001 0 0 1-2.983-5.187v-46.03c0-4.628 5.017-7.513 9.017-5.187l38 22.106a6.001 6.001 0 0 1 2.983 5.187Z" fill="#fff"/></g><path d="M471.172 318.077a1 1 0 0 1 1.447-.894l8 4a.998.998 0 0 1 .553.894v11.764a1 1 0 0 1-1.447.894l-8-4a.998.998 0 0 1-.553-.894v-11.764ZM471.172 340.841c0 .379.214.725.553.894l8 4a1 1 0 0 0 1.447-.894v-4.764a.998.998 0 0 0-.553-.894l-8-4a1 1 0 0 0-1.447.894v4.764ZM457.172 323.225a1 1 0 0 1 1.514-.857l8 4.8c.302.18.486.506.486.857v9.668a1 1 0 0 1-1.515.857l-8-4.8a.999.999 0 0 1-.485-.857v-9.668ZM457.172 310.225a1 1 0 0 1 1.514-.857l8 4.8c.302.18.486.506.486.857v6.668a1 1 0 0 1-1.515.857l-8-4.8a.999.999 0 0 1-.485-.857v-6.668Z" fill="#00B4D5"/><path d="M371.172 265.903c0-7.792 8.431-12.665 15.182-8.775l2.219 1.279a19.168 19.168 0 0 1 9.599 16.608c0 7.792-8.432 12.665-15.183 8.775l-1.997 3.465 1.997-3.465-2.219-1.279a19.169 19.169 0 0 1-9.598-16.608Z" stroke="#009DBB" stroke-opacity=".14" stroke-width="8"/><path d="m245.672 197.959 15.5-9.5 27.5 24.5 29 19.5h17l12-7" stroke="#C0DCE1" stroke-width="2" stroke-linecap="round" stroke-linejoin="round"/><path d="M297.672 286.459v35" stroke="#00B4D5" stroke-width="2" stroke-linecap="round" stroke-linejoin="round"/><path d="M303.172 297.459v26.5" stroke="#00E995" stroke-width="2" stroke-linecap="round" stroke-linejoin="round"/><path d="M308.172 315.459v11.5" stroke="#FF7272" stroke-width="2" stroke-linecap="round" stroke-linejoin="round"/><path d="m246.672 189.959 11.5 20 32.5 15.5h37.5l18 22.5" stroke="#C0DCE1" stroke-width="2" stroke-linecap="round" stroke-linejoin="round"/><path d="M340.672 325.959v19.5M380.672 334.459v35M423.672 372.459v21" stroke="#00B4D5" stroke-width="2" stroke-linecap="round" stroke-linejoin="round"/><path d="M346.172 321.459v26.5M386.172 331.959v40M429.172 383.459v13" stroke="#00E995" stroke-width="2" stroke-linecap="round" stroke-linejoin="round"/><path d="M351.172 339.459v11.5M391.172 363.459v11.5M434.172 363.959v35" stroke="#FF7272" stroke-width="2" stroke-linecap="round" stroke-linejoin="round"/><path opacity=".4" d="M196.022 98.294c-10.204.81-18.549 4.118-24.577 10.145-34.15 34.151 19.024 142.695 118.769 242.44 99.746 99.745 208.289 152.92 242.44 118.769 22.656-22.655 6.879-78.051-35.429-141.898" stroke="url(#z)" stroke-width="4"/><path d="M273.172 436.132v-47.394l-44.754 25.547v47.174l44.754-25.327Z" fill="url(#A)"/><path d="M273.172 436.132v-47.394l-44.754 25.547v47.174l44.754-25.327Z" fill="url(#B)"/><path d="M273.172 436.132v-47.394l-44.754 25.547v47.174l44.754-25.327Z" fill="url(#C)"/><path d="M228.418 414.286v47.173l-44.246-25.296V388.99l44.246 25.296Z" fill="url(#D)"/><path d="M228.418 414.286v47.173l-44.246-25.296V388.99l44.246 25.296Z" fill="url(#E)"/><path d="M228.418 414.286v47.173l-44.246-25.296V388.99l44.246 25.296Z" fill="url(#F)"/><path opacity=".78" d="m223.586 413.901-39.414 21.892v-43.784l39.414 21.892Z" fill="url(#G)"/><path d="m228.672 363.459-44.5 25.531 44.246 25.298 44.754-25.55-44.5-25.279Z" fill="url(#H)"/><path d="m228.672 363.459-44.5 25.531 44.246 25.298 44.754-25.55-44.5-25.279Z" fill="url(#I)"/><path d="m228.672 363.459-44.5 25.531 44.246 25.298 44.754-25.55-44.5-25.279Z" fill="url(#J)"/><g filter="url(#K)"><path d="M215.172 231.997v46.03c0 4.628-5.017 7.513-9.017 5.187l-38-22.106a6.001 6.001 0 0 1-2.983-5.187v-46.03c0-4.628 5.017-7.513 9.017-5.187l38 22.106a6.001 6.001 0 0 1 2.983 5.187Z" fill="#fff"/></g><g filter="url(#L)" fill="#009DBB"><path fill-rule="evenodd" clip-rule="evenodd" d="m206.965 232.915-.183.9c-1.961 8.369-7.247 14.922-14.035 18.111l-5.287 7.858a1.183 1.183 0 0 1-.496.428 1.052 1.052 0 0 1-.624.078l-.109-.022a1.06 1.06 0 0 1-.563-.386 1.22 1.22 0 0 1-.239-.674l-.193-5.177-1.221.079-.422.037-.073-.015a.358.358 0 0 1-.229-.169l-3.571-5.985a.427.427 0 0 1-.037-.374l.16-.416c.16-.416.356-.825.544-1.195l-4.326-2.264a1.112 1.112 0 0 1-.469-.49 1.275 1.275 0 0 1 .161-1.358c.152-.186.352-.319.572-.382l8.696-2.191c5.392-5.593 12.994-8.332 20.837-7.067l.869.177a.313.313 0 0 1 .229.169.422.422 0 0 1 .009.328Zm-13.452 5.946a3.892 3.892 0 0 1 1.181-1.652c.688-.55 1.514-.77 2.296-.611.783.159 1.457.683 1.877 1.458.314.58.468 1.269.443 1.981a4.284 4.284 0 0 1-.582 2.017c-.355.604-.847 1.082-1.412 1.373a2.677 2.677 0 0 1-1.765.266 2.677 2.677 0 0 1-1.522-.933c-.407-.489-.674-1.12-.765-1.814a4.3 4.3 0 0 1 .249-2.085Z"/><path d="M178.87 248.931a.392.392 0 0 0-.318.177l-4.237 5.78a1.187 1.187 0 0 0-.164 1.132 1.182 1.182 0 0 0 .873.743l.527-.014 6.985-1.641a.4.4 0 0 0 .301-.419.392.392 0 0 0-.059-.176l-3.583-5.395a.38.38 0 0 0-.139-.134.39.39 0 0 0-.186-.053Z"/></g><g filter="url(#M)"><circle cx="160.672" cy="121.959" r="18.5" fill="url(#N)"/><circle cx="160.672" cy="121.959" r="18.5" fill="url(#O)"/><circle cx="160.672" cy="121.959" r="18.5" fill="url(#P)"/></g><g filter="url(#Q)"><circle cx="525.672" cy="239.959" r="18.5" fill="url(#R)"/><circle cx="525.672" cy="239.959" r="18.5" fill="url(#S)"/><circle cx="525.672" cy="239.959" r="18.5" fill="url(#T)"/></g><g filter="url(#U)"><circle cx="541.172" cy="413.459" r="11" fill="url(#V)"/><circle cx="541.172" cy="413.459" r="11" fill="url(#W)"/><circle cx="541.172" cy="413.459" r="11" fill="url(#X)"/></g><g filter="url(#Y)"><circle cx="139.172" cy="279.459" r="11" fill="url(#Z)"/><circle cx="139.172" cy="279.459" r="11" fill="url(#aa)"/><circle cx="139.172" cy="279.459" r="11" fill="url(#ab)"/></g><g filter="url(#ac)"><circle cx="145.172" cy="155.459" r="17" fill="#FC7EFF" fill-opacity=".46"/></g><g filter="url(#ad)"><circle cx="463.172" cy="131.459" r="17" fill="#7EBAFF" fill-opacity=".46"/></g><g filter="url(#ae)"><circle cx="512.172" cy="435.459" r="17" fill="#7EBAFF" fill-opacity=".46"/></g><g filter="url(#af)"><path d="M537.605 314.55c.843-.387 1.714.483 1.326 1.327l-3.72 8.089c-.121.265-.121.57 0 .836l3.72 8.089c.388.843-.483 1.714-1.326 1.326l-8.09-3.719a.998.998 0 0 0-.835 0l-8.089 3.719c-.844.388-1.715-.483-1.327-1.326l3.72-8.089a1 1 0 0 0 0-.836l-3.72-8.089c-.388-.844.483-1.714 1.327-1.327l8.089 3.72c.265.122.57.122.835 0l8.09-3.72Z" fill="#fff"/><path d="M537.605 314.55c.843-.387 1.714.483 1.326 1.327l-3.72 8.089c-.121.265-.121.57 0 .836l3.72 8.089c.388.843-.483 1.714-1.326 1.326l-8.09-3.719a.998.998 0 0 0-.835 0l-8.089 3.719c-.844.388-1.715-.483-1.327-1.326l3.72-8.089a1 1 0 0 0 0-.836l-3.72-8.089c-.388-.844.483-1.714 1.327-1.327l8.089 3.72c.265.122.57.122.835 0l8.09-3.72Z" stroke="#fff" stroke-width="2" stroke-linecap="round"/></g><g filter="url(#ag)"><path d="M160.871 317.551c.843-.388 1.714.483 1.326 1.326l-5.85 12.723a.998.998 0 0 0 0 .835l5.85 12.723c.388.843-.483 1.714-1.326 1.326l-12.723-5.85a.998.998 0 0 0-.835 0l-12.723 5.85c-.843.388-1.714-.483-1.326-1.326l5.85-12.723a.998.998 0 0 0 0-.835l-5.85-12.723c-.388-.843.483-1.714 1.326-1.326l12.723 5.85c.265.122.57.122.835 0l12.723-5.85Z" fill="#fff"/><path d="M160.871 317.551c.843-.388 1.714.483 1.326 1.326l-5.85 12.723a.998.998 0 0 0 0 .835l5.85 12.723c.388.843-.483 1.714-1.326 1.326l-12.723-5.85a.998.998 0 0 0-.835 0l-12.723 5.85c-.843.388-1.714-.483-1.326-1.326l5.85-12.723a.998.998 0 0 0 0-.835l-5.85-12.723c-.388-.843.483-1.714 1.326-1.326l12.723 5.85c.265.122.57.122.835 0l12.723-5.85Z" stroke="#fff" stroke-width="2" stroke-linecap="round"/></g><g filter="url(#ah)"><path d="M347.504 56.184c.843-.388 1.714.483 1.326 1.326l-5.85 12.722a1 1 0 0 0 0 .836l5.85 12.722c.388.844-.483 1.714-1.326 1.327l-12.723-5.85a.999.999 0 0 0-.835 0l-12.723 5.85c-.843.387-1.714-.483-1.326-1.327l5.85-12.722a1 1 0 0 0 0-.836l-5.85-12.722c-.388-.843.483-1.714 1.326-1.326l12.723 5.85c.265.122.57.122.835 0l12.723-5.85Z" fill="#fff"/><path d="M347.504 56.184c.843-.388 1.714.483 1.326 1.326l-5.85 12.722a1 1 0 0 0 0 .836l5.85 12.722c.388.844-.483 1.714-1.326 1.327l-12.723-5.85a.999.999 0 0 0-.835 0l-12.723 5.85c-.843.387-1.714-.483-1.326-1.327l5.85-12.722a1 1 0 0 0 0-.836l-5.85-12.722c-.388-.843.483-1.714 1.326-1.326l12.723 5.85c.265.122.57.122.835 0l12.723-5.85Z" stroke="#fff" stroke-width="2" stroke-linecap="round"/></g></g><defs><linearGradient id="b" x1="332.786" y1="129.026" x2="332.786" y2="373.761" gradientUnits="userSpaceOnUse"><stop stop-color="#98FFDA" stop-opacity=".48"/><stop offset="1" stop-color="#7593FF" stop-opacity=".36"/></linearGradient><linearGradient id="c" x1="425.079" y1="137.569" x2="265.151" y2="350.331" gradientUnits="userSpaceOnUse"><stop stop-color="#FFBFF1"/><stop offset="1" stop-color="#0085FF" stop-opacity=".46"/></linearGradient><linearGradient id="d" x1="339.837" y1="127.561" x2="339.837" y2="392.669" gradientUnits="userSpaceOnUse"><stop stop-color="#98C1FF" stop-opacity=".48"/><stop offset="1" stop-color="#BFCDFF" stop-opacity=".36"/></linearGradient><linearGradient id="e" x1="321.209" y1="149.355" x2="321.209" y2="381.109" gradientUnits="userSpaceOnUse"><stop stop-color="#98C1FF" stop-opacity=".48"/><stop offset="1" stop-color="#BFCDFF" stop-opacity=".36"/></linearGradient><linearGradient id="f" x1="268.312" y1="161.827" x2="397.414" y2="357.047" gradientUnits="userSpaceOnUse"><stop stop-color="#FFBFF1"/><stop offset="1" stop-color="#FFBFF1" stop-opacity="0"/></linearGradient><linearGradient id="g" x1="268.312" y1="161.827" x2="397.414" y2="357.047" gradientUnits="userSpaceOnUse"><stop stop-color="#FFBFF1"/><stop offset="1" stop-color="#0085FF" stop-opacity=".46"/></linearGradient><linearGradient id="i" x1="463.172" y1="84.989" x2="477.839" y2="145.832" gradientUnits="userSpaceOnUse"><stop offset=".002" stop-color="#44DCFE"/><stop offset="1" stop-color="#3500D5"/></linearGradient><linearGradient id="j" x1="443.592" y1="148.652" x2="427.838" y2="117.316" gradientUnits="userSpaceOnUse"><stop stop-color="#077393" stop-opacity=".86"/><stop offset=".228" stop-color="#fff" stop-opacity=".6"/><stop offset="1" stop-color="#8CE0F0" stop-opacity="0"/></linearGradient><linearGradient id="k" x1="470.801" y1="85.493" x2="418.418" y2="85.493" gradientUnits="userSpaceOnUse"><stop stop-color="#0081A7" stop-opacity="0"/><stop offset=".209" stop-color="#EAEDFF" stop-opacity=".38"/><stop offset="1" stop-color="#D5DAFF"/></linearGradient><linearGradient id="l" x1="374.172" y1="87.757" x2="370.219" y2="158.345" gradientUnits="userSpaceOnUse"><stop offset=".002" stop-color="#fff"/><stop offset="1" stop-color="#5DE5FE"/></linearGradient><linearGradient id="m" x1="400.872" y1="149.407" x2="420.396" y2="115.259" gradientUnits="userSpaceOnUse"><stop stop-color="#57CEE4"/><stop offset=".109" stop-color="#fff" stop-opacity=".519"/><stop offset="1" stop-color="#DEF7FF"/></linearGradient><linearGradient id="n" x1="372.138" y1="122.986" x2="420.198" y2="122.986" gradientUnits="userSpaceOnUse"><stop stop-color="#7BD4E6"/><stop offset=".088" stop-color="#fff" stop-opacity=".51"/><stop offset="1" stop-color="#32C8FC" stop-opacity=".13"/></linearGradient><linearGradient id="o" x1="393.879" y1="88.009" x2="393.879" y2="131.793" gradientUnits="userSpaceOnUse"><stop offset=".05" stop-color="#F0DFF8" stop-opacity="0"/><stop offset="1" stop-color="#C2E0FC"/></linearGradient><linearGradient id="p" x1="374.172" y1="84.874" x2="461.8" y2="73.908" gradientUnits="userSpaceOnUse"><stop offset=".198" stop-color="#F2FDFF"/><stop offset="1" stop-color="#FFBFF1"/></linearGradient><linearGradient id="q" x1="395.023" y1="69.524" x2="422.302" y2="118.334" gradientUnits="userSpaceOnUse"><stop stop-color="#FEAFE7" stop-opacity=".76"/><stop offset=".083" stop-color="#fff" stop-opacity=".917"/><stop offset="1" stop-color="#E2F7FB" stop-opacity="0"/></linearGradient><linearGradient id="r" x1="445.372" y1="69.273" x2="398.073" y2="153.994" gradientUnits="userSpaceOnUse"><stop stop-color="#BB66E1"/><stop offset=".094" stop-color="#fff" stop-opacity="0"/><stop offset=".969" stop-color="#F8DBEC"/></linearGradient><linearGradient id="t" x1="514.513" y1="105.541" x2="203.172" y2="105.541" gradientUnits="userSpaceOnUse"><stop stop-color="#fff"/><stop offset=".724" stop-color="#fff"/><stop offset="1" stop-color="#fff"/></linearGradient><linearGradient id="u" x1="469.172" y1="428.922" x2="503.234" y2="198.908" gradientUnits="userSpaceOnUse"><stop offset=".002" stop-color="#F8FEFF"/><stop offset="1" stop-color="#F2EEFF"/></linearGradient><linearGradient id="v" x1="514.513" y1="427.084" x2="203.172" y2="427.084" gradientUnits="userSpaceOnUse"><stop stop-color="#fff" stop-opacity="0"/><stop offset=".724" stop-color="#EAEDFF" stop-opacity=".38"/><stop offset="1" stop-color="#EDEFFF"/></linearGradient><linearGradient id="x" x1="283.172" y1="241.238" x2="217.314" y2="245.401" gradientUnits="userSpaceOnUse"><stop offset=".002" stop-color="#fff"/><stop offset="1" stop-color="#fff"/></linearGradient><linearGradient id="z" x1="405.284" y1="235.809" x2="290.214" y2="350.879" gradientUnits="userSpaceOnUse"><stop stop-color="#FFBFF1"/><stop offset="1" stop-color="#0085FF" stop-opacity=".46"/></linearGradient><linearGradient id="A" x1="273.172" y1="388.989" x2="287.839" y2="449.832" gradientUnits="userSpaceOnUse"><stop offset=".002" stop-color="#44DCFE"/><stop offset="1" stop-color="#3500D5"/></linearGradient><linearGradient id="B" x1="253.592" y1="452.652" x2="237.838" y2="421.316" gradientUnits="userSpaceOnUse"><stop stop-color="#077393" stop-opacity=".86"/><stop offset=".228" stop-color="#fff" stop-opacity=".6"/><stop offset="1" stop-color="#8CE0F0" stop-opacity="0"/></linearGradient><linearGradient id="C" x1="280.801" y1="389.493" x2="228.418" y2="389.493" gradientUnits="userSpaceOnUse"><stop stop-color="#0081A7" stop-opacity="0"/><stop offset=".209" stop-color="#EAEDFF" stop-opacity=".38"/><stop offset="1" stop-color="#D5DAFF"/></linearGradient><linearGradient id="D" x1="184.172" y1="391.758" x2="180.219" y2="462.345" gradientUnits="userSpaceOnUse"><stop offset=".002" stop-color="#fff"/><stop offset="1" stop-color="#5DE5FE"/></linearGradient><linearGradient id="E" x1="210.872" y1="453.407" x2="230.396" y2="419.259" gradientUnits="userSpaceOnUse"><stop stop-color="#57CEE4"/><stop offset=".109" stop-color="#fff" stop-opacity=".519"/><stop offset="1" stop-color="#DEF7FF"/></linearGradient><linearGradient id="F" x1="182.138" y1="426.986" x2="230.198" y2="426.986" gradientUnits="userSpaceOnUse"><stop stop-color="#7BD4E6"/><stop offset=".088" stop-color="#fff" stop-opacity=".51"/><stop offset="1" stop-color="#32C8FC" stop-opacity=".13"/></linearGradient><linearGradient id="G" x1="203.879" y1="392.009" x2="203.879" y2="435.793" gradientUnits="userSpaceOnUse"><stop offset=".05" stop-color="#F0DFF8" stop-opacity="0"/><stop offset="1" stop-color="#C2E0FC"/></linearGradient><linearGradient id="H" x1="184.172" y1="388.874" x2="271.8" y2="377.908" gradientUnits="userSpaceOnUse"><stop offset=".198" stop-color="#F2FDFF"/><stop offset="1" stop-color="#FFBFF1"/></linearGradient><linearGradient id="I" x1="205.023" y1="373.524" x2="232.302" y2="422.334" gradientUnits="userSpaceOnUse"><stop stop-color="#FEAFE7" stop-opacity=".76"/><stop offset=".083" stop-color="#fff" stop-opacity=".917"/><stop offset="1" stop-color="#E2F7FB" stop-opacity="0"/></linearGradient><linearGradient id="J" x1="255.372" y1="373.273" x2="208.073" y2="457.994" gradientUnits="userSpaceOnUse"><stop stop-color="#BB66E1"/><stop offset=".094" stop-color="#fff" stop-opacity="0"/><stop offset=".969" stop-color="#F8DBEC"/></linearGradient><linearGradient id="N" x1="179.172" y1="103.587" x2="183.927" y2="135.637" gradientUnits="userSpaceOnUse"><stop offset=".002" stop-color="#44DCFE"/><stop offset="1" stop-color="#3500D5"/></linearGradient><linearGradient id="O" x1="162.984" y1="135.978" x2="157.344" y2="117.75" gradientUnits="userSpaceOnUse"><stop stop-color="#077393" stop-opacity=".83"/><stop offset=".228" stop-color="#fff" stop-opacity=".6"/><stop offset="1" stop-color="#8CE0F0" stop-opacity="0"/></linearGradient><linearGradient id="P" x1="185.479" y1="103.843" x2="142.172" y2="103.843" gradientUnits="userSpaceOnUse"><stop stop-color="#0081A7" stop-opacity="0"/><stop offset=".209" stop-color="#EAEDFF" stop-opacity=".38"/><stop offset="1" stop-color="#D5DAFF"/></linearGradient><linearGradient id="R" x1="544.172" y1="221.587" x2="548.927" y2="253.637" gradientUnits="userSpaceOnUse"><stop offset=".002" stop-color="#44DCFE"/><stop offset="1" stop-color="#3500D5"/></linearGradient><linearGradient id="S" x1="527.984" y1="253.978" x2="522.344" y2="235.75" gradientUnits="userSpaceOnUse"><stop stop-color="#077393" stop-opacity=".83"/><stop offset=".228" stop-color="#fff" stop-opacity=".6"/><stop offset="1" stop-color="#8CE0F0" stop-opacity="0"/></linearGradient><linearGradient id="T" x1="550.479" y1="221.843" x2="507.172" y2="221.843" gradientUnits="userSpaceOnUse"><stop stop-color="#0081A7" stop-opacity="0"/><stop offset=".209" stop-color="#EAEDFF" stop-opacity=".38"/><stop offset="1" stop-color="#D5DAFF"/></linearGradient><linearGradient id="V" x1="552.172" y1="402.535" x2="554.999" y2="421.592" gradientUnits="userSpaceOnUse"><stop offset=".002" stop-color="#44DCFE"/><stop offset="1" stop-color="#3500D5"/></linearGradient><linearGradient id="W" x1="542.547" y1="421.795" x2="539.193" y2="410.956" gradientUnits="userSpaceOnUse"><stop stop-color="#077393" stop-opacity=".83"/><stop offset=".228" stop-color="#fff" stop-opacity=".6"/><stop offset="1" stop-color="#8CE0F0" stop-opacity="0"/></linearGradient><linearGradient id="X" x1="555.922" y1="402.687" x2="530.172" y2="402.687" gradientUnits="userSpaceOnUse"><stop stop-color="#0081A7" stop-opacity="0"/><stop offset=".209" stop-color="#EAEDFF" stop-opacity=".38"/><stop offset="1" stop-color="#D5DAFF"/></linearGradient><linearGradient id="Z" x1="150.172" y1="268.535" x2="152.999" y2="287.592" gradientUnits="userSpaceOnUse"><stop offset=".002" stop-color="#44DCFE"/><stop offset="1" stop-color="#3500D5"/></linearGradient><linearGradient id="aa" x1="140.547" y1="287.795" x2="137.193" y2="276.956" gradientUnits="userSpaceOnUse"><stop stop-color="#077393" stop-opacity=".83"/><stop offset=".228" stop-color="#fff" stop-opacity=".6"/><stop offset="1" stop-color="#8CE0F0" stop-opacity="0"/></linearGradient><linearGradient id="ab" x1="153.922" y1="268.687" x2="128.172" y2="268.687" gradientUnits="userSpaceOnUse"><stop stop-color="#0081A7" stop-opacity="0"/><stop offset=".209" stop-color="#EAEDFF" stop-opacity=".38"/><stop offset="1" stop-color="#D5DAFF"/></linearGradient><filter id="h" x="137.172" y="338.459" width="116" height="116" filterUnits="userSpaceOnUse" color-interpolation-filters="sRGB"><feFlood flood-opacity="0" result="BackgroundImageFix"/><feBlend in="SourceGraphic" in2="BackgroundImageFix" result="shape"/><feGaussianBlur stdDeviation="12.5" result="effect1_foregroundBlur_5881_109569"/></filter><filter id="s" x="195.172" y="70.096" width="290" height="384.65" filterUnits="userSpaceOnUse" color-interpolation-filters="sRGB"><feFlood flood-opacity="0" result="BackgroundImageFix"/><feColorMatrix in="SourceAlpha" values="0 0 0 0 0 0 0 0 0 0 0 0 0 0 0 0 0 0 127 0" result="hardAlpha"/><feOffset dx="8" dy="-4"/><feComposite in2="hardAlpha" operator="out"/><feColorMatrix values="0 0 0 0 0.462745 0 0 0 0 0.505882 0 0 0 0 0.67451 0 0 0 1 0"/><feBlend in2="BackgroundImageFix" result="effect1_dropShadow_5881_109569"/><feBlend in="SourceGraphic" in2="effect1_dropShadow_5881_109569" result="shape"/></filter><filter id="w" x="217.172" y="119.459" width="263" height="324" filterUnits="userSpaceOnUse" color-interpolation-filters="sRGB"><feFlood flood-opacity="0" result="BackgroundImageFix"/><feColorMatrix in="SourceAlpha" values="0 0 0 0 0 0 0 0 0 0 0 0 0 0 0 0 0 0 127 0" result="hardAlpha"/><feOffset dy="-7"/><feGaussianBlur stdDeviation="11"/><feComposite in2="hardAlpha" operator="out"/><feColorMatrix values="0 0 0 0 0.06375 0 0 0 0 0.223912 0 0 0 0 0.85 0 0 0 0.22 0"/><feBlend in2="BackgroundImageFix" result="effect1_dropShadow_5881_109569"/><feBlend in="SourceGraphic" in2="effect1_dropShadow_5881_109569" result="shape"/></filter><filter id="y" x="424.172" y="261.882" width="118" height="148.154" filterUnits="userSpaceOnUse" color-interpolation-filters="sRGB"><feFlood flood-opacity="0" result="BackgroundImageFix"/><feColorMatrix in="SourceAlpha" values="0 0 0 0 0 0 0 0 0 0 0 0 0 0 0 0 0 0 127 0" result="hardAlpha"/><feOffset dx="14" dy="11"/><feGaussianBlur stdDeviation="17"/><feComposite in2="hardAlpha" operator="out"/><feColorMatrix values="0 0 0 0 0.968627 0 0 0 0 0.870588 0 0 0 0 0.933333 0 0 0 1 0"/><feBlend in2="BackgroundImageFix" result="effect1_dropShadow_5881_109569"/><feColorMatrix in="SourceAlpha" values="0 0 0 0 0 0 0 0 0 0 0 0 0 0 0 0 0 0 127 0" result="hardAlpha"/><feOffset dx="6" dy="-3"/><feComposite in2="hardAlpha" operator="out"/><feColorMatrix values="0 0 0 0 0.673771 0 0 0 0 0.574635 0 0 0 0 0.7375 0 0 0 0.66 0"/><feBlend in2="effect1_dropShadow_5881_109569" result="effect2_dropShadow_5881_109569"/><feBlend in="SourceGraphic" in2="effect2_dropShadow_5881_109569" result="shape"/></filter><filter id="K" x="145.172" y="180.882" width="118" height="148.154" filterUnits="userSpaceOnUse" color-interpolation-filters="sRGB"><feFlood flood-opacity="0" result="BackgroundImageFix"/><feColorMatrix in="SourceAlpha" values="0 0 0 0 0 0 0 0 0 0 0 0 0 0 0 0 0 0 127 0" result="hardAlpha"/><feOffset dx="14" dy="11"/><feGaussianBlur stdDeviation="17"/><feComposite in2="hardAlpha" operator="out"/><feColorMatrix values="0 0 0 0 0.968627 0 0 0 0 0.870588 0 0 0 0 0.933333 0 0 0 1 0"/><feBlend in2="BackgroundImageFix" result="effect1_dropShadow_5881_109569"/><feColorMatrix in="SourceAlpha" values="0 0 0 0 0 0 0 0 0 0 0 0 0 0 0 0 0 0 127 0" result="hardAlpha"/><feOffset dx="6" dy="-3"/><feComposite in2="hardAlpha" operator="out"/><feColorMatrix values="0 0 0 0 0.673771 0 0 0 0 0.574635 0 0 0 0 0.7375 0 0 0 0.66 0"/><feBlend in2="effect1_dropShadow_5881_109569" result="effect2_dropShadow_5881_109569"/><feBlend in="SourceGraphic" in2="effect2_dropShadow_5881_109569" result="shape"/></filter><filter id="L" x="168.176" y="220.459" width="43.148" height="47.036" filterUnits="userSpaceOnUse" color-interpolation-filters="sRGB"><feFlood flood-opacity="0" result="BackgroundImageFix"/><feBlend in="SourceGraphic" in2="BackgroundImageFix" result="shape"/><feColorMatrix in="SourceAlpha" values="0 0 0 0 0 0 0 0 0 0 0 0 0 0 0 0 0 0 127 0" result="hardAlpha"/><feOffset dy="-2"/><feGaussianBlur stdDeviation="1"/><feComposite in2="hardAlpha" operator="arithmetic" k2="-1" k3="1"/><feColorMatrix values="0 0 0 0 0 0 0 0 0 0 0 0 0 0 0 0 0 0 0.12 0"/><feBlend in2="shape" result="effect1_innerShadow_5881_109569"/></filter><filter id="M" x="139.172" y="99.459" width="44" height="45" filterUnits="userSpaceOnUse" color-interpolation-filters="sRGB"><feFlood flood-opacity="0" result="BackgroundImageFix"/><feBlend in="SourceGraphic" in2="BackgroundImageFix" result="shape"/><feColorMatrix in="SourceAlpha" values="0 0 0 0 0 0 0 0 0 0 0 0 0 0 0 0 0 0 127 0" result="hardAlpha"/><feOffset dx="-3" dy="-4"/><feGaussianBlur stdDeviation="2"/><feComposite in2="hardAlpha" operator="arithmetic" k2="-1" k3="1"/><feColorMatrix values="0 0 0 0 0.208333 0 0 0 0 0 0 0 0 0 0.833333 0 0 0 0.17 0"/><feBlend in2="shape" result="effect1_innerShadow_5881_109569"/><feColorMatrix in="SourceAlpha" values="0 0 0 0 0 0 0 0 0 0 0 0 0 0 0 0 0 0 127 0" result="hardAlpha"/><feOffset dx="5" dy="4"/><feGaussianBlur stdDeviation="2"/><feComposite in2="hardAlpha" operator="arithmetic" k2="-1" k3="1"/><feColorMatrix values="0 0 0 0 1 0 0 0 0 0.891667 0 0 0 0 0.955172 0 0 0 0.62 0"/><feBlend in2="effect1_innerShadow_5881_109569" result="effect2_innerShadow_5881_109569"/></filter><filter id="Q" x="504.172" y="217.459" width="44" height="45" filterUnits="userSpaceOnUse" color-interpolation-filters="sRGB"><feFlood flood-opacity="0" result="BackgroundImageFix"/><feBlend in="SourceGraphic" in2="BackgroundImageFix" result="shape"/><feColorMatrix in="SourceAlpha" values="0 0 0 0 0 0 0 0 0 0 0 0 0 0 0 0 0 0 127 0" result="hardAlpha"/><feOffset dx="-3" dy="-4"/><feGaussianBlur stdDeviation="2"/><feComposite in2="hardAlpha" operator="arithmetic" k2="-1" k3="1"/><feColorMatrix values="0 0 0 0 0.208333 0 0 0 0 0 0 0 0 0 0.833333 0 0 0 0.17 0"/><feBlend in2="shape" result="effect1_innerShadow_5881_109569"/><feColorMatrix in="SourceAlpha" values="0 0 0 0 0 0 0 0 0 0 0 0 0 0 0 0 0 0 127 0" result="hardAlpha"/><feOffset dx="5" dy="4"/><feGaussianBlur stdDeviation="2"/><feComposite in2="hardAlpha" operator="arithmetic" k2="-1" k3="1"/><feColorMatrix values="0 0 0 0 1 0 0 0 0 0.891667 0 0 0 0 0.955172 0 0 0 0.62 0"/><feBlend in2="effect1_innerShadow_5881_109569" result="effect2_innerShadow_5881_109569"/></filter><filter id="U" x="527.172" y="398.459" width="29" height="30" filterUnits="userSpaceOnUse" color-interpolation-filters="sRGB"><feFlood flood-opacity="0" result="BackgroundImageFix"/><feBlend in="SourceGraphic" in2="BackgroundImageFix" result="shape"/><feColorMatrix in="SourceAlpha" values="0 0 0 0 0 0 0 0 0 0 0 0 0 0 0 0 0 0 127 0" result="hardAlpha"/><feOffset dx="-3" dy="-4"/><feGaussianBlur stdDeviation="2"/><feComposite in2="hardAlpha" operator="arithmetic" k2="-1" k3="1"/><feColorMatrix values="0 0 0 0 0.208333 0 0 0 0 0 0 0 0 0 0.833333 0 0 0 0.17 0"/><feBlend in2="shape" result="effect1_innerShadow_5881_109569"/><feColorMatrix in="SourceAlpha" values="0 0 0 0 0 0 0 0 0 0 0 0 0 0 0 0 0 0 127 0" result="hardAlpha"/><feOffset dx="5" dy="4"/><feGaussianBlur stdDeviation="2"/><feComposite in2="hardAlpha" operator="arithmetic" k2="-1" k3="1"/><feColorMatrix values="0 0 0 0 1 0 0 0 0 0.891667 0 0 0 0 0.955172 0 0 0 0.62 0"/><feBlend in2="effect1_innerShadow_5881_109569" result="effect2_innerShadow_5881_109569"/></filter><filter id="Y" x="125.172" y="264.459" width="29" height="30" filterUnits="userSpaceOnUse" color-interpolation-filters="sRGB"><feFlood flood-opacity="0" result="BackgroundImageFix"/><feBlend in="SourceGraphic" in2="BackgroundImageFix" result="shape"/><feColorMatrix in="SourceAlpha" values="0 0 0 0 0 0 0 0 0 0 0 0 0 0 0 0 0 0 127 0" result="hardAlpha"/><feOffset dx="-3" dy="-4"/><feGaussianBlur stdDeviation="2"/><feComposite in2="hardAlpha" operator="arithmetic" k2="-1" k3="1"/><feColorMatrix values="0 0 0 0 0.208333 0 0 0 0 0 0 0 0 0 0.833333 0 0 0 0.17 0"/><feBlend in2="shape" result="effect1_innerShadow_5881_109569"/><feColorMatrix in="SourceAlpha" values="0 0 0 0 0 0 0 0 0 0 0 0 0 0 0 0 0 0 127 0" result="hardAlpha"/><feOffset dx="5" dy="4"/><feGaussianBlur stdDeviation="2"/><feComposite in2="hardAlpha" operator="arithmetic" k2="-1" k3="1"/><feColorMatrix values="0 0 0 0 1 0 0 0 0 0.891667 0 0 0 0 0.955172 0 0 0 0.62 0"/><feBlend in2="effect1_innerShadow_5881_109569" result="effect2_innerShadow_5881_109569"/></filter><filter id="ac" x="103.172" y="113.459" width="84" height="84" filterUnits="userSpaceOnUse" color-interpolation-filters="sRGB"><feFlood flood-opacity="0" result="BackgroundImageFix"/><feBlend in="SourceGraphic" in2="BackgroundImageFix" result="shape"/><feGaussianBlur stdDeviation="12.5" result="effect1_foregroundBlur_5881_109569"/></filter><filter id="ad" x="421.172" y="89.459" width="84" height="84" filterUnits="userSpaceOnUse" color-interpolation-filters="sRGB"><feFlood flood-opacity="0" result="BackgroundImageFix"/><feBlend in="SourceGraphic" in2="BackgroundImageFix" result="shape"/><feGaussianBlur stdDeviation="12.5" result="effect1_foregroundBlur_5881_109569"/></filter><filter id="ae" x="470.172" y="393.459" width="84" height="84" filterUnits="userSpaceOnUse" color-interpolation-filters="sRGB"><feFlood flood-opacity="0" result="BackgroundImageFix"/><feBlend in="SourceGraphic" in2="BackgroundImageFix" result="shape"/><feGaussianBlur stdDeviation="12.5" result="effect1_foregroundBlur_5881_109569"/></filter><filter id="af" x="507.164" y="304.452" width="43.867" height="43.864" filterUnits="userSpaceOnUse" color-interpolation-filters="sRGB"><feFlood flood-opacity="0" result="BackgroundImageFix"/><feColorMatrix in="SourceAlpha" values="0 0 0 0 0 0 0 0 0 0 0 0 0 0 0 0 0 0 127 0" result="hardAlpha"/><feOffset dy="2"/><feGaussianBlur stdDeviation="5.5"/><feComposite in2="hardAlpha" operator="out"/><feColorMatrix values="0 0 0 0 0.6815 0 0 0 0 0.675 0 0 0 0 1 0 0 0 0.6 0"/><feBlend in2="BackgroundImageFix" result="effect1_dropShadow_5881_109569"/><feBlend in="SourceGraphic" in2="effect1_dropShadow_5881_109569" result="shape"/></filter><filter id="ag" x="121.164" y="307.452" width="53.133" height="53.13" filterUnits="userSpaceOnUse" color-interpolation-filters="sRGB"><feFlood flood-opacity="0" result="BackgroundImageFix"/><feColorMatrix in="SourceAlpha" values="0 0 0 0 0 0 0 0 0 0 0 0 0 0 0 0 0 0 127 0" result="hardAlpha"/><feOffset dy="2"/><feGaussianBlur stdDeviation="5.5"/><feComposite in2="hardAlpha" operator="out"/><feColorMatrix values="0 0 0 0 0.6815 0 0 0 0 0.675 0 0 0 0 1 0 0 0 0.6 0"/><feBlend in2="BackgroundImageFix" result="effect1_dropShadow_5881_109569"/><feBlend in="SourceGraphic" in2="effect1_dropShadow_5881_109569" result="shape"/></filter><filter id="ah" x="307.797" y="46.085" width="53.133" height="53.13" filterUnits="userSpaceOnUse" color-interpolation-filters="sRGB"><feFlood flood-opacity="0" result="BackgroundImageFix"/><feColorMatrix in="SourceAlpha" values="0 0 0 0 0 0 0 0 0 0 0 0 0 0 0 0 0 0 127 0" result="hardAlpha"/><feOffset dy="2"/><feGaussianBlur stdDeviation="5.5"/><feComposite in2="hardAlpha" operator="out"/><feColorMatrix values="0 0 0 0 0.6815 0 0 0 0 0.675 0 0 0 0 1 0 0 0 0.6 0"/><feBlend in2="BackgroundImageFix" result="effect1_dropShadow_5881_109569"/><feBlend in="SourceGraphic" in2="effect1_dropShadow_5881_109569" result="shape"/></filter><clipPath id="a"><path fill="#fff" d="M0 0h690v488H0z"/></clipPath></defs></svg>