<svg xmlns="http://www.w3.org/2000/svg" width="100" height="24" fill="none"><g fill="#fff" clip-path="url(#a)"><path d="M58.001 12.772c0-2.37-1.014-4.464-4.441-4.464-1.76 0-3.157.501-3.914.94l.555 1.902c.698-.438 1.81-.799 2.86-.799 1.736-.002 2.02.98 2.02 1.612v.153c-3.788-.007-6.183 1.304-6.183 3.972 0 1.63 1.216 3.159 3.341 3.159 1.297 0 2.393-.524 3.047-1.35h.064s.432 1.806 2.818 1.116c-.121-.758-.167-1.555-.167-2.524v-3.717Zm-2.826 2.502c0 .192-.016.39-.072.561-.219.73-.971 1.341-1.908 1.341-.79 0-1.41-.448-1.41-1.386 0-1.436 1.583-1.83 3.39-1.82M0 5.083s2.475 10.133 2.868 11.774c.463 1.919 1.293 2.628 3.688 2.156l1.547-6.284c.39-1.556.656-2.673.909-4.26h.043c.175 1.603.428 2.704.748 4.265 0 0 .63 2.855.958 4.35.319 1.496 1.216 2.44 3.565 1.929l3.682-13.93h-2.972l-1.264 6.026c-.334 1.745-.638 3.12-.875 4.72h-.043c-.213-1.582-.484-2.901-.832-4.611l-1.309-6.135h-3.1L6.214 11.06c-.398 1.825-.77 3.289-1.005 4.838h-.04a176.64 176.64 0 0 0-.916-5.061s-.83-4.28-1.123-5.755m23.163 7.69c0-2.37-1.017-4.464-4.444-4.464-1.754 0-3.154.501-3.911.94l.555 1.902c.695-.438 1.806-.799 2.86-.799 1.736-.002 2.02.98 2.02 1.612v.153c-3.788-.007-6.186 1.304-6.186 3.972 0 1.63 1.221 3.159 3.337 3.159 1.308 0 2.395-.524 3.049-1.35h.066s.434 1.806 2.818 1.116c-.123-.758-.164-1.555-.164-2.524v-3.717Zm-2.83 2.502c0 .192-.015.39-.069.561-.22.73-.973 1.341-1.912 1.341-.786 0-1.408-.448-1.408-1.386 0-1.436 1.583-1.83 3.39-1.82m4.368-8.887v13.925h2.829V5.083h-2.829Zm38.852 0v10.274c0 1.418.266 2.407.838 3.013.502.531 1.325.877 2.304.877.84 0 1.663-.162 2.052-.303l-.035-2.212c-.29.068-.622.125-1.078.125-.966 0-1.285-.612-1.285-1.885v-3.933h2.464V8.378H69.48V5.083M59.371 8.549v10.463h2.924v-5.358c0-.289.019-.538.064-.768.218-1.13 1.075-1.845 2.31-1.845.344 0 .578.038.838.078V8.376a3.093 3.093 0 0 0-.635-.06c-1.095 0-2.335.695-2.858 2.21h-.073V8.55m-29.636-.001v10.463h2.85v-6.141c0-.288.031-.583.133-.849.232-.622.806-1.342 1.73-1.342 1.146 0 1.688.97 1.688 2.368v5.964h2.842v-6.215c0-.27.038-.603.118-.844.228-.705.85-1.273 1.711-1.273 1.16 0 1.72.948 1.72 2.597v5.735h2.84v-6.17c0-3.24-1.647-4.526-3.517-4.526-.822 0-1.477.202-2.065.565-.498.306-.934.737-1.325 1.3h-.043c-.45-1.127-1.506-1.865-2.886-1.865-1.77 0-2.574.894-3.047 1.65h-.043V8.549m52.235-.469c.56 0 1.03-.292 1.091-.668l.554-6.28C88.891.508 88.16 0 87.246 0c-.918 0-1.644.51-1.644 1.131l.558 6.281c.06.376.528.668 1.086.668Zm-3.396 1.965c.276-.49.26-1.035-.039-1.278l-5.172-3.62c-.538-.314-1.343.06-1.804.852-.46.791-.367 1.68.16 1.988l5.727 2.657c.366.137.845-.118 1.127-.604m6.795 0c.292.486.772.74 1.128.61l5.726-2.664c.532-.314.612-1.193.162-1.985-.46-.792-1.27-1.164-1.806-.856L90.68 8.761c-.287.247-.307.794-.03 1.284m-3.404 5.88c.56 0 1.03.293 1.091.668l.554 6.281c0 .622-.732 1.126-1.645 1.126-.918 0-1.644-.504-1.644-1.126l.558-6.281c.06-.375.528-.668 1.086-.668Zm3.398-1.959c.292-.487.772-.748 1.128-.606l5.726 2.66c.532.307.612 1.194.162 1.986-.46.787-1.27 1.161-1.806.853l-5.174-3.621c-.287-.244-.307-.79-.03-1.272m-6.8-.006c.276.49.26 1.033-.039 1.279l-5.172 3.615c-.538.314-1.343-.061-1.804-.848-.46-.791-.367-1.68.16-1.987l5.727-2.66c.366-.14.845.118 1.127.601Zm15.324 4.348h.071c.097 0 .136.03.147.108.021.086.032.143.053.168h.184c-.016-.018-.037-.065-.048-.173-.02-.093-.069-.146-.136-.165v-.017c.093-.02.147-.083.147-.16 0-.07-.032-.12-.064-.152a.499.499 0 0 0-.25-.053c-.115 0-.2.01-.267.026v.694h.163v-.276Zm.005-.317.083-.01c.098 0 .151.045.151.108 0 .072-.071.105-.162.105h-.072v-.203Zm.104-.47a.708.708 0 0 0-.72.698c0 .395.318.71.72.71a.703.703 0 0 0 .716-.71.7.7 0 0 0-.716-.699Zm0 .14a.54.54 0 0 1 .538.558c0 .31-.229.569-.538.564a.548.548 0 0 1-.543-.564c0-.307.234-.558.538-.558"/></g><defs><clipPath id="a"><path fill="#fff" d="M0 0h100v24H0z"/></clipPath></defs></svg>