<svg width="96" height="96" viewBox="0 0 96 96" fill="none" xmlns="http://www.w3.org/2000/svg">
<path fill-rule="evenodd" clip-rule="evenodd" d="M58.5226 52.883C58.2233 52.8792 57.9248 52.8491 57.6308 52.7933L53.2335 60.4766H53.2343C52.7706 61.2862 51.7386 61.5666 50.9282 61.103C50.1186 60.6394 49.8381 59.6074 50.3018 58.7978L54.7029 51.1075V51.1068C53.6007 49.8524 53.1967 48.1305 53.6241 46.5165C54.0523 44.9025 55.2555 43.6074 56.8341 43.0624V32.6192C56.8341 31.6867 57.5902 30.9305 58.5228 30.9305C59.4553 30.9305 60.2114 31.6867 60.2114 32.6192V43.0624C61.7252 43.5946 62.8967 44.8144 63.3664 46.3492C63.8368 47.8833 63.5503 49.5501 62.5944 50.8393C61.6385 52.1284 60.1277 52.8867 58.5226 52.883ZM58.5215 46.1284C57.8385 46.1284 57.2226 46.54 56.9618 47.1709C56.7002 47.8019 56.8442 48.5279 57.3274 49.0111C57.8106 49.4944 58.5366 49.6384 59.1676 49.3768C59.7986 49.1159 60.2102 48.5 60.2102 47.817C60.2094 46.8845 59.454 46.1291 58.5215 46.1284Z" fill="url(#paint0_linear_9786_45329)"/>
<path d="M58.5728 78.2128C66.6345 78.2128 74.3655 75.0103 80.066 69.3104C85.7659 63.6096 88.9684 55.8787 88.9684 47.8172C88.9684 39.7556 85.7659 32.0245 80.066 26.3239C74.3653 20.624 66.6343 17.4216 58.5728 17.4216C50.5113 17.4216 42.7801 20.624 37.0796 26.3239C31.3797 32.0247 28.1772 39.7556 28.1772 47.8172C28.1862 55.876 31.3916 63.6015 37.0902 69.3007C42.7888 74.9999 50.5143 78.2047 58.5738 78.2137L58.5728 78.2128ZM58.5728 20.7985C65.7383 20.7985 72.6104 23.6451 77.678 28.7118C82.7447 33.7793 85.5913 40.6515 85.5913 47.817C85.5913 54.9825 82.7447 61.8546 77.678 66.9221C72.6104 71.9889 65.7383 74.8354 58.5728 74.8354C51.4073 74.8354 44.5351 71.9889 39.4676 66.9221C34.4009 61.8546 31.5543 54.9825 31.5543 47.817C31.5626 40.6538 34.4115 33.7861 39.4767 28.7209C44.5419 23.6557 51.4096 20.8068 58.5728 20.7985ZM56.8841 25.8644V24.1758C56.8841 23.2433 57.6403 22.4871 58.5728 22.4871C59.5053 22.4871 60.2615 23.2433 60.2615 24.1758V25.8644C60.2615 26.797 59.5053 27.5531 58.5728 27.5531C57.6403 27.5531 56.8841 26.797 56.8841 25.8644ZM45.2905 28.1878C45.0538 27.7996 44.9837 27.3322 45.096 26.892C45.2083 26.4509 45.4941 26.074 45.8876 25.8463C46.2819 25.6194 46.7508 25.5599 47.188 25.6828C47.626 25.8056 47.9961 26.1004 48.214 26.4992L49.0583 27.9602C49.2951 28.3484 49.3652 28.8158 49.2528 29.2568C49.1405 29.6979 48.8548 30.074 48.4613 30.3017C48.067 30.5294 47.5981 30.5882 47.1608 30.4653C46.7229 30.3424 46.3527 30.0484 46.1348 29.6488L45.2905 28.1878ZM36.6361 35.152C36.8592 34.7638 37.2286 34.4804 37.6614 34.3643C38.0941 34.2482 38.5554 34.3092 38.9429 34.5339L40.4054 35.3782C41.2136 35.8441 41.4902 36.8769 41.0243 37.685C40.5577 38.4932 39.5249 38.7698 38.7168 38.3032L37.2543 37.4588C36.4469 36.9922 36.1702 35.9602 36.6361 35.152ZM36.6203 49.5056H34.9316C33.9991 49.5056 33.243 48.7495 33.243 47.817C33.243 46.8844 33.9991 46.1283 34.9316 46.1283H36.6203C37.5528 46.1283 38.3089 46.8844 38.3089 47.817C38.3089 48.7495 37.5528 49.5056 36.6203 49.5056ZM40.4054 60.2557L38.9429 61.1C38.1355 61.5667 37.1019 61.29 36.6361 60.4819C36.1694 59.6737 36.4469 58.6409 37.2542 58.1751L38.7167 57.3307C39.5249 56.8641 40.5577 57.1408 41.0243 57.9489C41.4902 58.757 41.2135 59.7898 40.4054 60.2557ZM45.2897 67.4453L46.1341 65.9843L46.1348 65.9851C46.3527 65.5855 46.7228 65.2915 47.1608 65.1686C47.5981 65.0458 48.067 65.1046 48.4612 65.3322C48.8548 65.5599 49.1405 65.9361 49.2528 66.3771C49.3651 66.8181 49.295 67.2855 49.0583 67.6737L48.214 69.1347C47.9961 69.5335 47.626 69.8283 47.188 69.9512C46.7507 70.0741 46.2818 70.0145 45.8876 69.7876C45.494 69.5599 45.2083 69.183 45.096 68.742C44.9837 68.3017 45.0538 67.8343 45.2905 67.4461L45.2897 67.4453ZM60.2614 69.7695V71.4581C60.2614 72.3907 59.5053 73.1468 58.5728 73.1468C57.6403 73.1468 56.8841 72.3907 56.8841 71.4581V69.7695C56.8841 68.837 57.6403 68.0808 58.5728 68.0808C59.5053 68.0808 60.2614 68.837 60.2614 69.7695ZM68.0873 67.6738C67.8506 67.2856 67.7805 66.8182 67.8929 66.3772C68.0052 65.9361 68.2909 65.56 68.6844 65.3323C69.0787 65.1046 69.5476 65.0458 69.9848 65.1687C70.4228 65.2916 70.793 65.5856 71.0108 65.9851L71.8552 67.4461C72.0919 67.8344 72.162 68.3018 72.0497 68.742C71.9373 69.183 71.6516 69.56 71.2581 69.7876C70.8638 70.0146 70.3949 70.0741 69.9577 69.9512C69.5197 69.8283 69.1495 69.5336 68.9317 69.1348L68.0873 67.6738ZM76.1213 57.9489C76.3452 57.5607 76.7146 57.278 77.1473 57.1619C77.5793 57.0458 78.0406 57.1068 78.4289 57.3307L79.8914 58.1751C80.6988 58.641 80.9762 59.6737 80.5095 60.4819C80.0436 61.29 79.0101 61.5667 78.2027 61.1L76.7402 60.2557C75.9328 59.789 75.6554 58.757 76.1213 57.9489ZM80.5253 46.1283H82.214C83.1465 46.1283 83.9026 46.8844 83.9026 47.817C83.9026 48.7495 83.1465 49.5056 82.214 49.5056H80.5253C79.5928 49.5056 78.8366 48.7495 78.8366 47.817C78.8366 46.8844 79.5928 46.1283 80.5253 46.1283ZM76.1213 37.685C75.6554 36.8769 75.9328 35.8448 76.7402 35.3782L78.2027 34.5339C79.0101 34.0673 80.0436 34.3439 80.5095 35.1521C80.9762 35.9602 80.6987 36.993 79.8913 37.4589L78.4288 38.3032C77.6207 38.7691 76.5879 38.4924 76.1213 37.685ZM68.0873 27.9601L68.9317 26.4991C69.1495 26.1003 69.5197 25.8056 69.9577 25.6827C70.3949 25.5598 70.8638 25.6194 71.2581 25.8463C71.6516 26.0739 71.9373 26.4509 72.0497 26.8919C72.162 27.3321 72.0919 27.7995 71.8552 28.1878L71.0108 29.6488C70.793 30.0483 70.4228 30.3423 69.9848 30.4652C69.5476 30.5881 69.0787 30.5293 68.6844 30.3016C68.2909 30.0739 68.0052 29.6978 67.8929 29.2567C67.7805 28.8157 67.8506 28.3484 68.0873 27.9601ZM95.7234 47.8168C95.7226 56.3203 92.8044 64.5661 87.4573 71.1781C82.1094 77.7895 74.6559 82.3663 66.3404 84.1452C58.0253 85.9236 49.3514 84.7958 41.7671 80.9503C34.1824 77.1048 28.1471 70.774 24.6679 63.0143H13.042C12.1095 63.0143 11.3534 62.2582 11.3534 61.3256C11.3534 60.3931 12.1095 59.637 13.042 59.637H25.7799C26.4644 59.637 27.0811 60.0501 27.3419 60.6826C30.3205 67.9122 35.7151 73.8834 42.6062 77.579C49.4965 81.2751 57.4557 82.4647 65.1261 80.9464C72.7959 79.4282 79.702 75.2963 84.6643 69.254C89.6278 63.2117 92.3408 55.6355 92.3408 47.8168C92.3408 39.998 89.6276 32.4214 84.6643 26.3795C79.7016 20.3372 72.7955 16.2053 65.1261 14.6871C57.4555 13.1688 49.4963 14.3584 42.6062 18.0546C35.7151 21.7499 30.3205 27.7214 27.3419 34.951C27.0811 35.5834 26.4644 35.9966 25.7799 35.9966H2.84891C1.91639 35.9966 1.16026 35.2404 1.16026 34.3079C1.16026 33.3754 1.91639 32.6193 2.84891 32.6193H24.6683C28.1473 24.8597 34.1828 18.5287 41.7675 14.6832C49.3521 10.8377 58.0261 9.7099 66.3408 11.4883C74.6567 13.2674 82.1101 17.8442 87.4577 24.4554C92.8048 31.0676 95.7226 39.3133 95.7234 47.8168Z" fill="url(#paint1_linear_9786_45329)"/>
<path d="M8.63838 54.1206H22.1476C23.0801 54.1206 23.8363 53.3645 23.8363 52.4319C23.8363 51.4994 23.0801 50.7433 22.1476 50.7433H8.63838C7.70586 50.7433 6.94973 51.4994 6.94973 52.4319C6.94973 53.3645 7.70586 54.1206 8.63838 54.1206Z" fill="url(#paint2_linear_9786_45329)"/>
<path d="M11.08 28.3772H18.7995C19.732 28.3772 20.4882 27.6211 20.4882 26.6885C20.4882 25.756 19.732 24.9999 18.7995 24.9999H11.08C10.1474 24.9999 9.3913 25.756 9.3913 26.6885C9.3913 27.6211 10.1474 28.3772 11.08 28.3772Z" fill="url(#paint3_linear_9786_45329)"/>
<path d="M1.68866 45.1164H19.5402C20.4727 45.1164 21.2288 44.3603 21.2288 43.4278C21.2288 42.4952 20.4727 41.7391 19.5402 41.7391H1.68866C0.756132 41.7391 0 42.4952 0 43.4278C0 44.3603 0.756132 45.1164 1.68866 45.1164Z" fill="url(#paint4_linear_9786_45329)"/>
<defs>
<linearGradient id="paint0_linear_9786_45329" x1="56.8332" y1="30.9305" x2="56.8332" y2="61.3267" gradientUnits="userSpaceOnUse">
<stop stop-color="#00B4D5"/>
<stop offset="1" stop-color="#66D2E6"/>
</linearGradient>
<linearGradient id="paint1_linear_9786_45329" x1="47.8617" y1="10.6666" x2="47.8617" y2="84.9669" gradientUnits="userSpaceOnUse">
<stop stop-color="#00B4D5"/>
<stop offset="1" stop-color="#66D2E6"/>
</linearGradient>
<linearGradient id="paint2_linear_9786_45329" x1="47.8617" y1="10.6666" x2="47.8617" y2="84.9669" gradientUnits="userSpaceOnUse">
<stop stop-color="#00B4D5"/>
<stop offset="1" stop-color="#66D2E6"/>
</linearGradient>
<linearGradient id="paint3_linear_9786_45329" x1="47.8617" y1="10.6666" x2="47.8617" y2="84.9669" gradientUnits="userSpaceOnUse">
<stop stop-color="#00B4D5"/>
<stop offset="1" stop-color="#66D2E6"/>
</linearGradient>
<linearGradient id="paint4_linear_9786_45329" x1="47.8617" y1="10.6666" x2="47.8617" y2="84.9669" gradientUnits="userSpaceOnUse">
<stop stop-color="#00B4D5"/>
<stop offset="1" stop-color="#66D2E6"/>
</linearGradient>
</defs>
</svg>
