<svg width="96" height="96" viewBox="0 0 96 96" fill="none" xmlns="http://www.w3.org/2000/svg">
<path d="M77.1052 32.2659V20.3207C77.1052 19.4737 76.4191 18.7955 75.561 18.7955H63.3798C62.5221 18.7955 61.8355 19.4731 61.8355 20.3207C61.8355 21.1677 62.5216 21.8458 63.3798 21.8458H71.9583L58.7473 34.9774C58.1467 35.5706 58.1467 36.5869 58.7473 37.1801C59.0904 37.5189 59.4335 37.6039 59.8625 37.6039C60.2916 37.6039 60.6347 37.4345 60.9777 37.1801L73.9311 24.3874V32.3514C73.9311 33.1984 74.6172 33.8766 75.4754 33.8766C76.4191 33.876 77.1052 33.1134 77.1052 32.2659Z" fill="url(#paint0_linear_5406_113233)"/>
<path fill-rule="evenodd" clip-rule="evenodd" d="M60.9705 37.1801C60.6274 37.4344 60.2844 37.6038 59.8553 37.6038C59.4262 37.6038 59.0831 37.5189 58.7401 37.1801C58.1394 36.5868 58.1394 35.5705 58.7401 34.9773L71.951 21.8457H63.3725C62.5143 21.8457 61.8282 21.1676 61.8282 20.3206C61.8282 19.4731 62.5148 18.7955 63.3725 18.7955H75.5537C76.4119 18.7955 77.098 19.4736 77.098 20.3206V32.2659C77.098 33.1134 76.4118 33.876 75.4681 33.8765C74.6099 33.8765 73.9238 33.1984 73.9238 32.3514V24.3873L60.9705 37.1801ZM73.6108 25.1364L61.1747 37.4184L61.1569 37.4315C60.7861 37.7065 60.3781 37.9169 59.8553 37.9169C59.3698 37.9169 58.9379 37.8154 58.5201 37.4028C57.7955 36.6871 57.7954 35.4706 58.5198 34.7549L71.1921 22.1588H63.3725C62.345 22.1588 61.5152 21.3441 61.5152 20.3206C61.5152 19.2964 62.3457 18.4824 63.3725 18.4824H75.5537C76.5811 18.4824 77.411 19.2971 77.411 20.3206V32.2659C77.411 33.2791 76.5918 34.1889 75.4683 34.1895C74.4409 34.1895 73.6108 33.3749 73.6108 32.3514V25.1364Z" fill="url(#paint1_linear_5406_113233)"/>
<path fill-rule="evenodd" clip-rule="evenodd" d="M9 9H20.125C21.2296 9 22.125 9.89543 22.125 11C22.125 12.1046 21.2296 13 20.125 13H13V20.125C13 21.2296 12.1046 22.125 11 22.125C9.89543 22.125 9 21.2296 9 20.125V9ZM36.375 11C36.375 9.89543 37.2704 9 38.375 9H56.625C57.7296 9 58.625 9.89543 58.625 11C58.625 12.1046 57.7296 13 56.625 13H38.375C37.2704 13 36.375 12.1046 36.375 11ZM72.875 11C72.875 9.89543 73.7704 9 74.875 9H86V20.125C86 21.2296 85.1046 22.125 84 22.125C82.8954 22.125 82 21.2296 82 20.125V13H74.875C73.7704 13 72.875 12.1046 72.875 11ZM11 36.375C12.1046 36.375 13 37.2704 13 38.375V56.625C13 57.7296 12.1046 58.625 11 58.625C9.89543 58.625 9 57.7296 9 56.625V38.375C9 37.2704 9.89543 36.375 11 36.375ZM84 36.375C85.1046 36.375 86 37.2704 86 38.375V56.625C86 57.7296 85.1046 58.625 84 58.625C82.8954 58.625 82 57.7296 82 56.625V38.375C82 37.2704 82.8954 36.375 84 36.375ZM11 72.875C12.1046 72.875 13 73.7704 13 74.875V82H20.125C21.2296 82 22.125 82.8954 22.125 84C22.125 85.1046 21.2296 86 20.125 86H9V74.875C9 73.7704 9.89543 72.875 11 72.875ZM84 72.875C85.1046 72.875 86 73.7704 86 74.875V86H74.875C73.7704 86 72.875 85.1046 72.875 84C72.875 82.8954 73.7704 82 74.875 82H82V74.875C82 73.7704 82.8954 72.875 84 72.875ZM36.375 84C36.375 82.8954 37.2704 82 38.375 82H56.625C57.7296 82 58.625 82.8954 58.625 84C58.625 85.1046 57.7296 86 56.625 86H38.375C37.2704 86 36.375 85.1046 36.375 84Z" fill="url(#paint2_linear_5406_113233)"/>
<path fill-rule="evenodd" clip-rule="evenodd" d="M23 57H13V82H23V57ZM11 53C9.89543 53 9 53.8954 9 55V86H27V53H11Z" fill="url(#paint3_linear_5406_113233)"/>
<path fill-rule="evenodd" clip-rule="evenodd" d="M37 49H27V82H37V49ZM25 45C23.8954 45 23 45.8954 23 47V86H41V45H25Z" fill="url(#paint4_linear_5406_113233)"/>
<path fill-rule="evenodd" clip-rule="evenodd" d="M51 41H41V82H51V41ZM39 37C37.8954 37 37 37.8954 37 39V86H55V39C55 37.8954 54.1046 37 53 37H39Z" fill="url(#paint5_linear_5406_113233)"/>
<defs>
<linearGradient id="paint0_linear_5406_113233" x1="67.7011" y1="18.7955" x2="67.7011" y2="37.6039" gradientUnits="userSpaceOnUse">
<stop stop-color="#00B4D5"/>
<stop offset="1" stop-color="#66D2E6"/>
</linearGradient>
<linearGradient id="paint1_linear_5406_113233" x1="67.6938" y1="18.4824" x2="67.6938" y2="37.9169" gradientUnits="userSpaceOnUse">
<stop stop-color="#00B4D5"/>
<stop offset="1" stop-color="#66D2E6"/>
</linearGradient>
<linearGradient id="paint2_linear_5406_113233" x1="47.5" y1="9" x2="47.5" y2="86" gradientUnits="userSpaceOnUse">
<stop stop-color="#00B4D5"/>
<stop offset="1" stop-color="#66D2E6"/>
</linearGradient>
<linearGradient id="paint3_linear_5406_113233" x1="47.5" y1="9" x2="47.5" y2="86" gradientUnits="userSpaceOnUse">
<stop stop-color="#00B4D5"/>
<stop offset="1" stop-color="#66D2E6"/>
</linearGradient>
<linearGradient id="paint4_linear_5406_113233" x1="47.5" y1="9" x2="47.5" y2="86" gradientUnits="userSpaceOnUse">
<stop stop-color="#00B4D5"/>
<stop offset="1" stop-color="#66D2E6"/>
</linearGradient>
<linearGradient id="paint5_linear_5406_113233" x1="47.5" y1="9" x2="47.5" y2="86" gradientUnits="userSpaceOnUse">
<stop stop-color="#00B4D5"/>
<stop offset="1" stop-color="#66D2E6"/>
</linearGradient>
</defs>
</svg>
