<svg width="96" height="96" viewBox="0 0 96 96" fill="none" xmlns="http://www.w3.org/2000/svg">
<path d="M73.8622 64.5278C68.7623 64.5278 64.5363 68.6809 64.5363 73.8536C64.5363 79.0268 68.6895 83.1795 73.8622 83.1795C78.9621 83.1795 83.1881 79.0263 83.1881 73.8536C83.1881 68.6809 79.0349 64.5278 73.8622 64.5278ZM73.8622 80.6294C70.1466 80.6294 67.0866 77.5694 67.0866 73.8539C67.0866 70.1382 70.1467 67.0783 73.8622 67.0783C77.5777 67.0783 80.6378 70.1384 80.6378 73.8539C80.6378 77.5695 77.651 80.6294 73.8622 80.6294Z" fill="url(#paint0_linear_9786_50492)"/>
<path fill-rule="evenodd" clip-rule="evenodd" d="M64.2233 73.8536C64.2233 68.5065 68.591 64.2147 73.8622 64.2147C79.2078 64.2147 83.5011 68.508 83.5011 73.8536C83.5011 79.2008 79.1334 83.4925 73.8622 83.4925C68.5166 83.4925 64.2233 79.1997 64.2233 73.8536ZM67.3997 73.8539C67.3997 77.3965 70.3195 80.3164 73.8622 80.3164C77.4759 80.3164 80.3247 77.3988 80.3247 73.8539C80.3247 70.3112 77.4048 67.3914 73.8622 67.3914C70.3196 67.3914 67.3997 70.3111 67.3997 73.8539ZM64.5363 73.8536C64.5363 68.6809 68.7623 64.5278 73.8622 64.5278C79.0349 64.5278 83.1881 68.6809 83.1881 73.8536C83.1881 79.0263 78.9621 83.1795 73.8622 83.1795C68.6895 83.1795 64.5363 79.0268 64.5363 73.8536ZM67.0866 73.8539C67.0866 77.5694 70.1466 80.6294 73.8622 80.6294C77.651 80.6294 80.6378 77.5695 80.6378 73.8539C80.6378 70.1384 77.5777 67.0783 73.8622 67.0783C70.1467 67.0783 67.0866 70.1382 67.0866 73.8539Z" fill="url(#paint1_linear_9786_50492)"/>
<path d="M93.9157 75.4272L91.2928 73.9702V73.2414L93.7699 72.2214C94.2801 72.0029 94.644 71.4199 94.5713 70.9102C94.2801 68.9429 93.7699 67.0487 92.8957 65.2273C92.6772 64.7902 92.2401 64.4985 91.7299 64.4985L88.7426 64.5712L88.3055 63.9156L89.8358 61.8755C90.2002 61.4384 90.127 60.7829 89.7631 60.3452C88.3787 58.7424 86.7758 57.3579 85.0276 56.1921C84.5905 55.9008 84.0076 55.9735 83.5705 56.2647L81.4579 57.9403L80.7291 57.7218V54.9531C80.7291 54.3701 80.3647 53.9331 79.855 53.7872C77.8877 53.2043 75.9209 52.9131 73.8803 52.9131C73.3701 52.9131 72.8603 53.2775 72.7145 53.7145L71.6945 56.4102H70.9657L69.5812 54.2243C69.29 53.714 68.7071 53.4955 68.1968 53.714C66.3026 54.2243 64.4812 55.0252 62.8052 56.1184C62.3681 56.4096 62.1496 56.8471 62.2222 57.3569L62.7325 60.4169L62.1496 60.9272L59.8911 59.6897C59.3808 59.3985 58.7252 59.5438 58.3608 59.9809C56.9764 61.5112 55.8105 63.2594 55.0091 65.1541C54.7905 65.6643 54.8632 66.2467 55.3003 66.6111L57.2676 68.5053L57.1217 69.2341L54.353 69.6712C53.8427 69.7438 53.4057 70.1814 53.333 70.6911C53.1144 71.857 53.0418 72.9496 53.0418 73.897C53.0418 74.7712 53.1144 75.6458 53.2603 76.7385C53.333 77.2488 53.7706 77.6858 54.2803 77.8312L57.049 78.3414L57.3403 79.0702L55.2276 80.9644C54.7905 81.3288 54.7174 81.9117 54.9364 82.4214C55.7379 84.2429 56.7579 85.9185 58.0691 87.4488C58.4335 87.8858 59.0164 88.0317 59.5261 87.8132L62.2948 86.6473L62.8778 87.0844L62.0036 90.0717C61.8578 90.582 62.0763 91.1644 62.5139 91.4561C64.2626 92.5488 66.0841 93.4234 68.051 94.0064C68.5612 94.1523 69.1436 93.9338 69.4354 93.4962L70.9657 91.0191H71.6945L72.7871 94.0792C72.933 94.5894 73.4427 94.8807 73.953 94.8807C75.8472 94.8807 77.7418 94.5894 79.636 94.0792C80.1462 93.9333 80.5101 93.4963 80.5101 92.9865L80.7286 89.8539L81.3843 89.4895L83.4969 91.4568C83.934 91.8212 84.5169 91.8939 85.0272 91.6026C86.7759 90.4368 88.3789 89.0524 89.7627 87.5227C90.1271 87.0856 90.1271 86.5027 89.8354 85.9924L88.3056 83.369L88.5968 82.7134L91.8027 82.9319C92.313 83.0046 92.8227 82.6407 93.0412 82.2032C93.77 80.4544 94.2798 78.633 94.5715 76.7388C94.6447 76.1564 94.3528 75.7189 93.9157 75.4272ZM91.0742 80.3818L87.9416 80.1633C87.4313 80.0906 86.9216 80.3818 86.7031 80.8921L85.7558 83.0047C85.6099 83.3691 85.6099 83.8789 85.8284 84.2432L87.2855 86.4291C86.484 87.3033 85.5367 88.1047 84.5167 88.8334L82.4767 86.9392C82.1123 86.5749 81.5294 86.5022 81.0197 86.7207L78.9796 87.8134C78.6152 88.0319 78.324 88.3963 78.324 88.8334L78.1055 91.7474C77.0128 92.0387 75.9196 92.1845 74.827 92.2577L73.7338 89.1245C73.5879 88.6143 73.0782 88.3231 72.5679 88.3231H70.2362C69.7991 88.3231 69.4347 88.5416 69.1436 88.906L67.7591 91.1645C66.6665 90.8001 65.5732 90.2903 64.5532 89.7074L65.3547 86.7934C65.5006 86.2831 65.282 85.7734 64.9176 85.4089L63.0234 84.0245C62.659 83.806 62.222 83.7333 61.7849 83.8786L59.2346 84.9713C58.579 84.0972 57.9234 83.0771 57.4132 82.0572L59.5258 80.2358C59.8902 79.8714 60.036 79.3616 59.8902 78.8513L59.016 76.6655C58.8702 76.2284 58.5058 75.9367 58.0687 75.864L55.5184 75.4269C55.5189 74.844 55.5189 74.3343 55.5189 73.8241C55.5189 73.2411 55.5916 72.5855 55.6648 71.8568L58.3604 71.4924C58.8707 71.4197 59.3077 71.0553 59.3804 70.4724L59.8175 68.2139C59.8902 67.7768 59.7448 67.3397 59.4531 67.048L57.6316 65.2993C58.2146 64.2793 58.7975 63.2593 59.5989 62.312L61.7848 63.5505C62.2219 63.8417 62.8048 63.7691 63.2418 63.4047L64.9906 61.8744C65.355 61.5832 65.5008 61.1456 65.4276 60.7085L64.9906 57.7945C66.0106 57.2115 67.0306 56.7745 68.1232 56.41L69.3617 58.3773C69.5803 58.7417 70.0173 58.9603 70.4544 58.9603H72.7861C73.2964 58.9603 73.8061 58.5959 73.952 58.1588L74.972 55.4632C76.1378 55.5358 77.3037 55.6817 78.4691 55.9734V58.669C78.4691 59.1793 78.8335 59.689 79.3432 59.8349L81.5291 60.6364C81.9662 60.7822 82.4032 60.709 82.6949 60.4178L84.6622 58.8149C85.6822 59.5437 86.6295 60.3452 87.431 61.2193L85.974 63.1866C85.6827 63.6236 85.6096 64.2066 85.9013 64.6436L87.2125 66.6109C87.431 66.9753 87.8681 67.1938 88.3051 67.1938L91.1466 67.1212C91.5837 68.1412 91.8754 69.2338 92.0939 70.3997L89.5436 71.2011C89.0334 71.4196 88.7421 71.8567 88.7421 72.4396L88.8148 74.7714C88.8148 75.2084 89.106 75.5728 89.4704 75.7914L91.9475 77.1758C91.7294 78.2685 91.4386 79.3618 91.0742 80.3818Z" fill="url(#paint2_linear_9786_50492)"/>
<path fill-rule="evenodd" clip-rule="evenodd" d="M94.1614 75.2171C94.6312 75.5574 94.9696 76.0814 94.8821 76.7778L94.881 76.7865C94.5855 78.7053 94.0688 80.5512 93.3302 82.3236L93.3261 82.3335L93.3213 82.343C93.0624 82.8615 92.4461 83.3331 91.7707 83.2435L88.794 83.0406L88.6567 83.3497L90.1071 85.8371C90.4498 86.4364 90.468 87.1656 90.0031 87.7232L89.995 87.7329C88.5938 89.2818 86.971 90.683 85.2008 91.8631L85.1918 91.8691L85.1823 91.8745C84.5521 92.2342 83.828 92.1404 83.2964 91.6972L83.2898 91.6917L81.3374 89.8736L81.0291 90.045L80.8231 92.9981C80.8177 93.6598 80.3454 94.202 79.722 94.3802L79.7174 94.3815C77.8016 94.8976 75.8794 95.1937 73.953 95.1937C73.3434 95.1937 72.6865 94.8462 72.4891 94.1755L71.4739 91.3322H71.1403L69.696 93.67C69.3295 94.2196 68.6074 94.4911 67.9649 94.3074L67.962 94.3066C65.9633 93.7141 64.1161 92.8264 62.348 91.7216L62.3401 91.7167C61.7905 91.3502 61.519 90.6282 61.7026 89.9857L61.7032 89.9838L62.5164 87.2047L62.2508 87.0055L59.6494 88.1009L59.6482 88.1014C59.0076 88.3754 58.2796 88.1888 57.83 87.6509C56.4976 86.0956 55.4623 84.3938 54.6499 82.5475L54.6488 82.545C54.3882 81.9386 54.4609 81.1997 55.0226 80.7278L56.9684 78.9832L56.8224 78.618L54.2088 78.1363L54.1945 78.1322C53.5876 77.9592 53.0435 77.4362 52.9504 76.7826L52.95 76.7799C52.803 75.6788 52.7287 74.7895 52.7287 73.897C52.7287 72.9356 52.8023 71.8255 53.0241 70.6398C53.1193 69.9963 53.6616 69.4546 54.3064 69.3616L56.8575 68.9589L56.927 68.6119L55.0908 66.8439C54.5332 66.3719 54.4623 65.6362 54.721 65.0315C55.537 63.1026 56.7217 61.327 58.1247 59.7753C58.58 59.2342 59.3955 59.0481 60.0438 59.4164L62.1081 60.5475L62.395 60.2963L61.9122 57.4011C61.8208 56.7599 61.8682 56.271 62.395 55.92L62.998 55.5001C64.6965 54.3923 66.1775 53.936 68.0952 53.4172C68.7594 53.1458 69.4905 53.4407 69.8494 54.0626L71.138 56.0971H71.4782L72.4197 53.6091C72.5189 53.3171 72.7306 53.0678 72.9819 52.8929C73.2362 52.716 73.5525 52.6 73.8803 52.6C75.9512 52.6 77.9475 52.8957 79.9425 53.4867C80.5799 53.6697 81.0422 54.2248 81.0422 54.9531V57.4889L81.3914 57.5936L83.3862 56.0114L83.3969 56.0042C83.9079 55.6638 84.6309 55.5516 85.2011 55.9315C86.971 57.1118 88.5957 58.5147 90 60.1406L90.0038 60.1451C90.4383 60.6676 90.5588 61.4897 90.0817 62.0694L88.6888 63.9262L88.9073 64.254L91.7299 64.1853C92.3652 64.1853 92.9071 64.5501 93.1757 65.0873L93.178 65.0918C94.0686 66.9475 94.5863 68.8732 94.881 70.8644L94.8812 70.866C94.93 71.2082 94.831 71.5543 94.6558 71.839C94.48 72.1247 94.2139 72.3718 93.8931 72.5092L93.8891 72.5109L91.6059 73.451V73.786L94.1536 75.2013L94.1614 75.2171ZM91.2928 73.9702L93.9157 75.4272C94.3528 75.7189 94.6447 76.1564 94.5715 76.7388C94.2798 78.633 93.77 80.4544 93.0412 82.2032C92.8227 82.6407 92.313 83.0046 91.8027 82.9319L88.5968 82.7134L88.3056 83.369L89.8354 85.9924C90.1271 86.5027 90.1271 87.0856 89.7627 87.5227C88.3789 89.0524 86.7759 90.4368 85.0272 91.6026C84.5169 91.8939 83.934 91.8212 83.4969 91.4568L81.3843 89.4895L80.7286 89.8539L80.5101 92.9865C80.5101 93.4963 80.1462 93.9333 79.636 94.0792C77.7418 94.5894 75.8472 94.8807 73.953 94.8807C73.4427 94.8807 72.933 94.5894 72.7871 94.0792L71.6945 91.0191H70.9657L69.4354 93.4962C69.1436 93.9338 68.5612 94.1523 68.051 94.0064C66.0841 93.4234 64.2626 92.5488 62.5139 91.4561C62.0763 91.1644 61.8578 90.582 62.0036 90.0717L62.8778 87.0844L62.2948 86.6473L59.5261 87.8132C59.0164 88.0317 58.4335 87.8858 58.0691 87.4488C56.7579 85.9185 55.7379 84.2429 54.9364 82.4214C54.7174 81.9117 54.7905 81.3288 55.2276 80.9644L57.3403 79.0702L57.049 78.3414L54.2803 77.8312C53.7706 77.6858 53.333 77.2488 53.2603 76.7385C53.1144 75.6458 53.0418 74.7712 53.0418 73.897C53.0418 72.9496 53.1144 71.857 53.333 70.6911C53.4057 70.1814 53.8427 69.7438 54.353 69.6712L57.1217 69.2341L57.2676 68.5053L55.3003 66.6111C54.8632 66.2467 54.7905 65.6643 55.0091 65.1541C55.8105 63.2594 56.9764 61.5112 58.3608 59.9809C58.7252 59.5438 59.3808 59.3985 59.8911 59.6897L62.1496 60.9272L62.7325 60.4169L62.2222 57.3569C62.1496 56.8471 62.3681 56.4096 62.8052 56.1184C64.4812 55.0252 66.3026 54.2243 68.1968 53.714C68.7071 53.4955 69.29 53.714 69.5812 54.2243L70.9657 56.4102H71.6945L72.7145 53.7145C72.8603 53.2775 73.3701 52.9131 73.8803 52.9131C75.9209 52.9131 77.8877 53.2043 79.855 53.7872C80.3647 53.9331 80.7291 54.3701 80.7291 54.9531V57.7218L81.4579 57.9403L83.5705 56.2647C84.0076 55.9735 84.5905 55.9008 85.0276 56.1921C86.7758 57.3579 88.3787 58.7424 89.7631 60.3452C90.127 60.7829 90.2002 61.4384 89.8358 61.8755L88.3055 63.9156L88.7426 64.5712L91.7299 64.4985C92.2401 64.4985 92.6772 64.7902 92.8957 65.2273C93.7699 67.0487 94.2801 68.9429 94.5713 70.9102C94.644 71.4199 94.2801 72.0029 93.7699 72.2214L91.2928 73.2414V73.9702ZM85.7558 83.0047L86.7031 80.8921C86.9216 80.3818 87.4313 80.0906 87.9416 80.1633L91.0742 80.3818L91.0743 80.3803C91.4385 79.3607 91.7295 78.268 91.9475 77.1758L89.4704 75.7914C89.106 75.5728 88.8148 75.2084 88.8148 74.7714L88.7421 72.4396C88.7421 71.8567 89.0334 71.4196 89.5436 71.2011L92.0939 70.3997C91.8754 69.2338 91.5837 68.1412 91.1466 67.1212L88.3051 67.1938C87.8681 67.1938 87.431 66.9753 87.2125 66.6109L85.9013 64.6436C85.6096 64.2066 85.6827 63.6236 85.974 63.1866L87.431 61.2193C86.6295 60.3452 85.6822 59.5437 84.6622 58.8149L82.6949 60.4178C82.4032 60.709 81.9662 60.7822 81.5291 60.6364L79.3432 59.8349C78.8335 59.689 78.4691 59.1793 78.4691 58.669V55.9734C77.3037 55.6817 76.1378 55.5358 74.972 55.4632L73.952 58.1588C73.8061 58.5959 73.2964 58.9603 72.7861 58.9603H70.4544C70.0173 58.9603 69.5803 58.7417 69.3617 58.3773L68.1232 56.41C67.0306 56.7745 66.0106 57.2115 64.9906 57.7945L65.4276 60.7085C65.5008 61.1456 65.355 61.5832 64.9906 61.8744L63.2418 63.4047C62.8048 63.7691 62.2219 63.8417 61.7848 63.5505L59.5989 62.312C58.7975 63.2593 58.2146 64.2793 57.6316 65.2993L59.4531 67.048C59.7448 67.3397 59.8902 67.7768 59.8175 68.2139L59.3804 70.4724C59.3077 71.0553 58.8707 71.4197 58.3604 71.4924L55.6648 71.8568C55.6578 71.9264 55.6508 71.9954 55.6439 72.0638C55.5784 72.7102 55.5189 73.2969 55.5189 73.8241C55.5189 74.3343 55.5189 74.844 55.5184 75.4269L58.0687 75.864C58.5058 75.9367 58.8702 76.2284 59.016 76.6655L59.8902 78.8513C60.036 79.3616 59.8902 79.8714 59.5258 80.2358L57.4132 82.0572C57.9234 83.0771 58.579 84.0972 59.2346 84.9713L61.7849 83.8786C62.222 83.7333 62.659 83.806 63.0234 84.0245L64.9176 85.4089C65.282 85.7734 65.5006 86.2831 65.3547 86.7934L64.5532 89.7074C65.5732 90.2903 66.6665 90.8001 67.7591 91.1645L69.1436 88.906C69.4347 88.5416 69.7991 88.3231 70.2362 88.3231H72.5679C73.0782 88.3231 73.5879 88.6143 73.7338 89.1245L74.827 92.2577C75.9196 92.1845 77.0128 92.0387 78.1055 91.7474L78.324 88.8334C78.324 88.3963 78.6152 88.0319 78.9796 87.8134L81.0197 86.7207C81.5294 86.5022 82.1123 86.5749 82.4767 86.9392L84.5167 88.8334C85.5367 88.1047 86.484 87.3033 87.2855 86.4291L85.8284 84.2432C85.6099 83.8789 85.6099 83.3691 85.7558 83.0047ZM86.8876 86.3966L85.5638 84.4107L85.56 84.4043C85.2823 83.9413 85.2898 83.3265 85.4651 82.8884L85.4699 82.8765L86.4164 80.7662C86.6864 80.139 87.3205 79.7642 87.9739 79.8517L90.8573 80.0529C91.1557 79.1833 91.4017 78.2629 91.595 77.3374L89.3093 76.06C88.8892 75.808 88.5041 75.3586 88.5018 74.7766L88.4289 72.4396C88.4289 71.7341 88.7926 71.1822 89.4204 70.9134L89.4348 70.9072L91.7335 70.1848C91.5389 69.2107 91.2888 68.297 90.9403 67.4396L88.3051 67.507C87.7767 67.507 87.2322 67.2462 86.9481 66.7787L85.6409 64.8174M86.8876 86.3966C86.1957 87.1241 85.399 87.8019 84.5415 88.4293L82.6937 86.7135C82.222 86.2459 81.4986 86.1748 80.8963 86.433L80.8838 86.4384L78.8251 87.541L78.8186 87.5449C78.4003 87.7958 78.0165 88.2424 78.011 88.8208L77.8101 91.5003C76.8919 91.7289 75.9702 91.8568 75.0436 91.9283L74.0321 89.0293C73.8352 88.3579 73.1778 88.01 72.5679 88.01H70.2362C69.6802 88.01 69.2329 88.2927 68.899 88.7106L68.8868 88.7258L67.6234 90.7869C66.7061 90.4634 65.7895 90.038 64.9199 89.5547L65.6557 86.8794L65.6561 86.8777C65.8422 86.2242 65.5543 85.603 65.139 85.1876L65.1219 85.1705L63.1967 83.7634L63.1844 83.756C62.7499 83.4954 62.2184 83.4046 61.6861 83.5816L61.6737 83.5857L59.3389 84.5861C58.7887 83.8337 58.2474 82.9862 57.8037 82.1338L59.739 80.4653L59.7471 80.4571C60.1886 80.0157 60.3696 79.3894 60.1912 78.7653L60.1868 78.7499L59.3099 76.5572C59.1236 76.0102 58.6633 75.6459 58.1212 75.5554L58.1201 75.5552L55.8317 75.163C55.832 74.6872 55.832 74.2558 55.832 73.8241C55.832 73.3245 55.8873 72.7675 55.9514 72.1339L58.4024 71.8026L58.4046 71.8023C59.0333 71.7127 59.5932 71.2562 59.6896 70.5221L60.1248 68.2734L60.1263 68.2652C60.2153 67.7296 60.0384 67.1906 59.6744 66.8267L58.0247 65.2427C58.5261 64.3672 59.028 63.5147 59.6731 62.7138L61.6213 63.8177C62.1944 64.1926 62.9238 64.0774 63.4423 63.6451L65.1917 62.1143C65.6461 61.7479 65.826 61.1974 65.7368 60.6595L65.3322 57.9614C66.1978 57.482 67.0677 57.1058 67.99 56.786L69.0951 58.5414C69.3786 59.0113 69.9247 59.2733 70.4544 59.2733H72.7861C73.1139 59.2733 73.4302 59.1573 73.6845 58.9804C73.9359 58.8055 74.1475 58.5563 74.2468 58.2642L75.1826 55.7909C76.1784 55.8616 77.1689 55.9895 78.156 56.2198V58.669C78.156 59.3102 78.6029 59.9426 79.2455 60.1325L81.4213 60.9303L81.43 60.9333C81.9493 61.1066 82.512 61.0328 82.9041 60.6512L84.6737 59.2094C85.5326 59.8369 86.3308 60.5149 87.0242 61.2425L85.7177 63.0065L85.7134 63.013C85.3732 63.5236 85.2602 64.2469 85.6409 64.8174" fill="url(#paint3_linear_9786_50492)"/>
<path fill-rule="evenodd" clip-rule="evenodd" d="M64.1654 9.45491C63.8814 9.17168 63.4347 9.00012 62.998 9.00012L18.6023 9.02931C17.7005 9.02931 16.9048 9.82512 16.9048 10.7268L16.998 80.2936C16.998 81.1954 17.7939 82.0292 18.6955 82.0292L46.4981 82.002C47.6027 82.0009 48.4976 81.1046 48.4976 80C48.4976 78.8955 47.6022 78 46.4976 78H21.0004L21.0007 13.0001H62.3809L73.998 24.4929V45.5001C73.998 46.4018 75.0964 47.0001 75.998 47.0001C76.8998 47.0001 77.998 46.2042 77.998 45.3026V23.5806C77.998 23.3255 77.9551 23.0988 77.8618 22.8887C77.769 22.68 77.6334 22.5033 77.4693 22.3392L64.1667 9.45621L64.1654 9.45491Z" fill="url(#paint4_linear_9786_50492)"/>
<path fill-rule="evenodd" clip-rule="evenodd" d="M12.9985 19.0292H16.998V15.0292L10.998 15C10.0963 15 9 15.8714 9 16.7731V88.3026C9 89.2043 9.79581 90 10.6975 90H41.9985C43.1031 90 43.9985 89.1046 43.9985 88V82H39.9985V86L12.9985 86.0292V19.0292Z" fill="url(#paint5_linear_9786_50492)"/>
<path d="M47.0008 65H28.2259C27.3465 65 26.6134 64.318 26.6134 63.5C26.6134 62.682 27.3466 62 28.2259 62H47.0008C47.8802 62 48.6134 62.682 48.6134 63.5C48.6134 64.3185 47.8807 65 47.0008 65Z" fill="url(#paint6_linear_9786_50492)"/>
<path d="M51.0008 57H28.2259C27.3465 57 26.6134 56.318 26.6134 55.5C26.6134 54.682 27.3466 54 28.2259 54H51.0008C51.8802 54 52.6134 54.682 52.6134 55.5C52.6134 56.3185 51.8807 57 51.0008 57Z" fill="url(#paint7_linear_9786_50492)"/>
<path d="M57.3875 49H42.5001C41.6207 49 40.8875 48.318 40.8875 47.5C40.8875 46.682 41.6207 46 42.5001 46H57.3875C58.267 46 59.0001 46.682 59.0001 47.5C59.0001 48.3185 58.2674 49 57.3875 49Z" fill="url(#paint8_linear_9786_50492)"/>
<path d="M35.8875 41.0001H28.1126C27.2332 41.0001 26.5 40.318 26.5 39.5001C26.5 38.6821 27.2332 38.0001 28.1126 38.0001H35.8875C36.7669 38.0001 37.5 38.6821 37.5 39.5001C37.5 40.3186 36.7673 41.0001 35.8875 41.0001Z" fill="url(#paint9_linear_9786_50492)"/>
<path d="M66.7747 41.0001H55C54.1206 41.0001 53.3875 40.318 53.3875 39.5001C53.3875 38.6821 54.1207 38.0001 55 38.0001H66.7747C67.6541 38.0001 68.3873 38.6821 68.3873 39.5001C68.3873 40.3186 67.6546 41.0001 66.7747 41.0001Z" fill="url(#paint10_linear_9786_50492)"/>
<path d="M50.8875 41.0001H40.2252C39.3457 41.0001 38.6126 40.318 38.6126 39.5001C38.6126 38.6821 39.3458 38.0001 40.2252 38.0001H50.8875C51.7669 38.0001 52.5 38.6821 52.5 39.5001C52.5 40.3186 51.7673 41.0001 50.8875 41.0001Z" fill="url(#paint11_linear_9786_50492)"/>
<path d="M38.7749 33H28.1126C27.2332 33 26.5 32.318 26.5 31.5C26.5 30.682 27.2332 30 28.1126 30H38.7749C39.6543 30 40.3875 30.682 40.3875 31.5C40.3875 32.3185 39.6548 33 38.7749 33Z" fill="url(#paint12_linear_9786_50492)"/>
<path d="M38 49H28.1126C27.2332 49 26.5 48.318 26.5 47.5C26.5 46.682 27.2332 46 28.1126 46H38C38.8795 46 39.6126 46.682 39.6126 47.5C39.6126 48.3185 38.8799 49 38 49Z" fill="url(#paint13_linear_9786_50492)"/>
<path d="M63.7749 33H43.1126C42.2332 33 41.5 32.318 41.5 31.5C41.5 30.682 42.2332 30 43.1126 30H63.7749C64.6543 30 65.3875 30.682 65.3875 31.5C65.3875 32.3185 64.6548 33 63.7749 33Z" fill="url(#paint14_linear_9786_50492)"/>
<path d="M54 25H28.1126C27.2331 25 26.5 24.318 26.5 23.5C26.5 22.682 27.2332 22 28.1126 22H54C54.8794 22 55.6126 22.682 55.6126 23.5C55.6126 24.3185 54.8799 25 54 25Z" fill="url(#paint15_linear_9786_50492)"/>
<defs>
<linearGradient id="paint0_linear_9786_50492" x1="51.948" y1="9.00012" x2="51.948" y2="95.1937" gradientUnits="userSpaceOnUse">
<stop stop-color="#00B4D5"/>
<stop offset="1" stop-color="#66D2E6"/>
</linearGradient>
<linearGradient id="paint1_linear_9786_50492" x1="51.948" y1="9.00012" x2="51.948" y2="95.1937" gradientUnits="userSpaceOnUse">
<stop stop-color="#00B4D5"/>
<stop offset="1" stop-color="#66D2E6"/>
</linearGradient>
<linearGradient id="paint2_linear_9786_50492" x1="51.948" y1="9.00012" x2="51.948" y2="95.1937" gradientUnits="userSpaceOnUse">
<stop stop-color="#00B4D5"/>
<stop offset="1" stop-color="#66D2E6"/>
</linearGradient>
<linearGradient id="paint3_linear_9786_50492" x1="51.948" y1="9.00012" x2="51.948" y2="95.1937" gradientUnits="userSpaceOnUse">
<stop stop-color="#00B4D5"/>
<stop offset="1" stop-color="#66D2E6"/>
</linearGradient>
<linearGradient id="paint4_linear_9786_50492" x1="51.948" y1="9.00012" x2="51.948" y2="95.1937" gradientUnits="userSpaceOnUse">
<stop stop-color="#00B4D5"/>
<stop offset="1" stop-color="#66D2E6"/>
</linearGradient>
<linearGradient id="paint5_linear_9786_50492" x1="51.948" y1="9.00012" x2="51.948" y2="95.1937" gradientUnits="userSpaceOnUse">
<stop stop-color="#00B4D5"/>
<stop offset="1" stop-color="#66D2E6"/>
</linearGradient>
<linearGradient id="paint6_linear_9786_50492" x1="47.4436" y1="22" x2="47.4436" y2="65" gradientUnits="userSpaceOnUse">
<stop stop-color="#00B4D5"/>
<stop offset="1" stop-color="#66D2E6"/>
</linearGradient>
<linearGradient id="paint7_linear_9786_50492" x1="47.4436" y1="22" x2="47.4436" y2="65" gradientUnits="userSpaceOnUse">
<stop stop-color="#00B4D5"/>
<stop offset="1" stop-color="#66D2E6"/>
</linearGradient>
<linearGradient id="paint8_linear_9786_50492" x1="47.4436" y1="22" x2="47.4436" y2="65" gradientUnits="userSpaceOnUse">
<stop stop-color="#00B4D5"/>
<stop offset="1" stop-color="#66D2E6"/>
</linearGradient>
<linearGradient id="paint9_linear_9786_50492" x1="47.4436" y1="22" x2="47.4436" y2="65" gradientUnits="userSpaceOnUse">
<stop stop-color="#00B4D5"/>
<stop offset="1" stop-color="#66D2E6"/>
</linearGradient>
<linearGradient id="paint10_linear_9786_50492" x1="47.4436" y1="22" x2="47.4436" y2="65" gradientUnits="userSpaceOnUse">
<stop stop-color="#00B4D5"/>
<stop offset="1" stop-color="#66D2E6"/>
</linearGradient>
<linearGradient id="paint11_linear_9786_50492" x1="47.4436" y1="22" x2="47.4436" y2="65" gradientUnits="userSpaceOnUse">
<stop stop-color="#00B4D5"/>
<stop offset="1" stop-color="#66D2E6"/>
</linearGradient>
<linearGradient id="paint12_linear_9786_50492" x1="47.4436" y1="22" x2="47.4436" y2="65" gradientUnits="userSpaceOnUse">
<stop stop-color="#00B4D5"/>
<stop offset="1" stop-color="#66D2E6"/>
</linearGradient>
<linearGradient id="paint13_linear_9786_50492" x1="47.4436" y1="22" x2="47.4436" y2="65" gradientUnits="userSpaceOnUse">
<stop stop-color="#00B4D5"/>
<stop offset="1" stop-color="#66D2E6"/>
</linearGradient>
<linearGradient id="paint14_linear_9786_50492" x1="47.4436" y1="22" x2="47.4436" y2="65" gradientUnits="userSpaceOnUse">
<stop stop-color="#00B4D5"/>
<stop offset="1" stop-color="#66D2E6"/>
</linearGradient>
<linearGradient id="paint15_linear_9786_50492" x1="47.4436" y1="22" x2="47.4436" y2="65" gradientUnits="userSpaceOnUse">
<stop stop-color="#00B4D5"/>
<stop offset="1" stop-color="#66D2E6"/>
</linearGradient>
</defs>
</svg>
