<svg width="311" height="311" viewBox="0 0 311 311" fill="none" xmlns="http://www.w3.org/2000/svg">
<g filter="url(#filter0_d_5028_119489)">
<rect x="295" y="8" width="279" height="279" rx="139.5" transform="rotate(90 295 8)" fill="url(#paint0_linear_5028_119489)" shape-rendering="crispEdges"/>
<g filter="url(#filter1_d_5028_119489)">
<path fill-rule="evenodd" clip-rule="evenodd" d="M74.2735 65.1641L76.9191 67.8097C78.4502 69.3408 78.4502 71.8232 76.9191 73.3543C75.388 74.8854 72.9056 74.8854 71.3745 73.3543L68.8784 70.8582C51.6135 90.3559 40.8342 115.717 39.9064 143.579H47.1925C49.3578 143.579 51.1131 145.335 51.1131 147.5C51.1131 149.665 49.3578 151.421 47.1925 151.421H39.9064C40.8426 179.537 51.8108 205.106 69.3523 224.674L71.8658 222.16C73.3969 220.629 75.8793 220.629 77.4104 222.16C78.9415 223.691 78.9415 226.174 77.4104 227.705L74.7813 230.334C94.7548 249.801 121.733 262.1 151.579 263.094V257.768C151.579 255.603 153.335 253.847 155.5 253.847C157.665 253.847 159.421 255.603 159.421 257.768V263.094C189.267 262.1 216.245 249.801 236.219 230.334L233.59 227.705C232.059 226.174 232.059 223.691 233.59 222.16C235.121 220.629 237.603 220.629 239.134 222.16L241.648 224.674C259.189 205.106 270.157 179.537 271.094 151.421H261.357C259.192 151.421 257.437 149.665 257.437 147.5C257.437 145.335 259.192 143.579 261.357 143.579H271.094C270.166 115.717 259.387 90.3559 242.122 70.8582L239.625 73.3543C238.094 74.8854 235.612 74.8854 234.081 73.3543C232.55 71.8232 232.55 69.3408 234.081 67.8097L236.726 65.1641C216.704 45.409 189.521 32.9087 159.421 31.9065V39.6825C159.421 41.8478 157.665 43.6032 155.5 43.6032C153.335 43.6032 151.579 41.8478 151.579 39.6825V31.9065C121.479 32.9087 94.2964 45.409 74.2735 65.1641ZM65.9123 62.492C88.4111 38.7886 120.232 24 155.5 24C190.768 24 222.589 38.7886 245.088 62.492C266.101 84.6307 279 114.563 279 147.5C279 180.701 265.893 210.849 244.58 233.039C222.112 256.432 190.504 271 155.5 271C120.496 271 88.8881 256.432 66.4196 233.039C45.1065 210.849 32 180.701 32 147.5C32 114.563 44.8987 84.6307 65.9123 62.492Z" fill="#66D2E6"/>
</g>
</g>
<defs>
<filter id="filter0_d_5028_119489" x="0" y="0" width="311" height="311" filterUnits="userSpaceOnUse" color-interpolation-filters="sRGB">
<feFlood flood-opacity="0" result="BackgroundImageFix"/>
<feColorMatrix in="SourceAlpha" type="matrix" values="0 0 0 0 0 0 0 0 0 0 0 0 0 0 0 0 0 0 127 0" result="hardAlpha"/>
<feOffset dy="8"/>
<feGaussianBlur stdDeviation="8"/>
<feComposite in2="hardAlpha" operator="out"/>
<feColorMatrix type="matrix" values="0 0 0 0 0 0 0 0 0 0.177273 0 0 0 0 0.216667 0 0 0 0.12 0"/>
<feBlend mode="normal" in2="BackgroundImageFix" result="effect1_dropShadow_5028_119489"/>
<feBlend mode="normal" in="SourceGraphic" in2="effect1_dropShadow_5028_119489" result="shape"/>
</filter>
<filter id="filter1_d_5028_119489" x="28" y="20" width="255" height="255" filterUnits="userSpaceOnUse" color-interpolation-filters="sRGB">
<feFlood flood-opacity="0" result="BackgroundImageFix"/>
<feColorMatrix in="SourceAlpha" type="matrix" values="0 0 0 0 0 0 0 0 0 0 0 0 0 0 0 0 0 0 127 0" result="hardAlpha"/>
<feOffset/>
<feGaussianBlur stdDeviation="2"/>
<feComposite in2="hardAlpha" operator="out"/>
<feColorMatrix type="matrix" values="0 0 0 0 0.223529 0 0 0 0 0.760784 0 0 0 0 0.843137 0 0 0 1 0"/>
<feBlend mode="normal" in2="BackgroundImageFix" result="effect1_dropShadow_5028_119489"/>
<feBlend mode="normal" in="SourceGraphic" in2="effect1_dropShadow_5028_119489" result="shape"/>
</filter>
<linearGradient id="paint0_linear_5028_119489" x1="434.5" y1="8" x2="434.5" y2="287" gradientUnits="userSpaceOnUse">
<stop stop-color="#F4F5FA"/>
<stop offset="1" stop-color="#F4F5FA" stop-opacity="0"/>
</linearGradient>
</defs>
</svg>
