<svg width="1440" height="542" viewBox="0 0 1440 542" fill="none" xmlns="http://www.w3.org/2000/svg">
<mask id="mask0_993_14167" style="mask-type:alpha" maskUnits="userSpaceOnUse" x="-2" y="-26" width="1442" height="568">
<path d="M-2 -24C-2 -25.1046 -1.10457 -26 0 -26H1440V542H-3.18289e-05C-1.1046 542 -2 541.105 -2 540V-24Z" fill="white"/>
</mask>
<g mask="url(#mask0_993_14167)">
<path opacity="0.3" d="M-2 -24C-2 -25.1046 -1.10457 -26 0 -26H1440V485.013L1195.98 476.928C1127.17 474.649 1058.79 465.307 991.894 449.051L843.205 412.917C771.147 395.406 696.86 388.862 622.851 393.505C442.963 404.793 265.139 438.104 93.3631 492.694L-0.590644 522.552C-1.28823 522.774 -2 522.253 -2 521.521V-24Z" fill="#D7F3F4"/>
<circle opacity="0.25" cx="103" cy="-67" r="233" stroke="#39C2D7" stroke-dasharray="3 4"/>
<circle opacity="0.25" cx="103" cy="95" r="233" stroke="#39C2D7" stroke-dasharray="3 4"/>
<circle opacity="0.25" cx="1325" cy="219" r="233" stroke="#39C2D7" stroke-dasharray="3 4"/>
<circle opacity="0.25" cx="1412" cy="53" r="233" stroke="#39C2D7" stroke-dasharray="3 4"/>
<circle opacity="0.25" cx="406.5" cy="-1.5" r="256.5" stroke="#39C2D7" stroke-dasharray="3 4"/>
<circle opacity="0.25" cx="1018" cy="13" r="233" stroke="#39C2D7" stroke-dasharray="3 4"/>
<circle opacity="0.25" cx="684" cy="134" r="233" stroke="#39C2D7" stroke-dasharray="3 4"/>
<g opacity="0.4">
<circle cx="195" cy="145" r="23" fill="#D0F0F1"/>
<mask id="mask1_993_14167" style="mask-type:alpha" maskUnits="userSpaceOnUse" x="172" y="122" width="46" height="46">
<circle cx="195" cy="145" r="23" fill="white"/>
</mask>
<g mask="url(#mask1_993_14167)">
<rect x="180" y="135" width="27" height="5" rx="2" fill="white"/>
<rect x="180" y="143" width="33" height="5" rx="2" fill="white"/>
<path fill-rule="evenodd" clip-rule="evenodd" d="M180 153C180 151.895 180.895 151 182 151H198C199.105 151 200 151.895 200 153V154C200 155.105 199.105 156 198 156H182C180.895 156 180 155.105 180 154V153Z" fill="white"/>
</g>
</g>
<g opacity="0.4">
<circle cx="1086" cy="236" r="23" fill="#D0F0F1"/>
<mask id="mask2_993_14167" style="mask-type:alpha" maskUnits="userSpaceOnUse" x="1063" y="213" width="46" height="46">
<circle cx="1086" cy="236" r="23" fill="white"/>
</mask>
<g mask="url(#mask2_993_14167)">
<rect x="1071" y="226" width="27" height="5" rx="2" fill="white"/>
<rect x="1071" y="234" width="33" height="5" rx="2" fill="white"/>
<path fill-rule="evenodd" clip-rule="evenodd" d="M1071 244C1071 242.895 1071.9 242 1073 242H1089C1090.1 242 1091 242.895 1091 244V245C1091 246.105 1090.1 247 1089 247H1073C1071.9 247 1071 246.105 1071 245V244Z" fill="white"/>
</g>
</g>
<g opacity="0.4">
<circle cx="74" cy="321" r="23" fill="#D0F0F1"/>
<circle r="11.5" transform="matrix(-1 0 0 1 74 321)" stroke="url(#paint0_angular_993_14167)" stroke-width="7"/>
<mask id="mask3_993_14167" style="mask-type:alpha" maskUnits="userSpaceOnUse" x="59" y="306" width="30" height="30">
<circle r="11.5" transform="matrix(-1 0 0 1 74 321)" fill="white" stroke="white" stroke-width="7"/>
</mask>
<g mask="url(#mask3_993_14167)">
</g>
</g>
<g opacity="0.4">
<circle cx="412" cy="258" r="23" fill="#D0F0F1"/>
<mask id="mask4_993_14167" style="mask-type:alpha" maskUnits="userSpaceOnUse" x="389" y="235" width="46" height="46">
<circle cx="412" cy="258" r="23" fill="white"/>
</mask>
<g mask="url(#mask4_993_14167)">
<path d="M430.5 266.5L422 254L416 259L405 245L393.5 267" stroke="white" stroke-width="2"/>
<path d="M431 267L422 261L415 265L406 255L393.5 267" stroke="white" stroke-width="2"/>
</g>
</g>
<g opacity="0.4">
<circle cx="1255" cy="438" r="23" fill="#D0F0F1"/>
<mask id="mask5_993_14167" style="mask-type:alpha" maskUnits="userSpaceOnUse" x="1232" y="415" width="46" height="46">
<circle cx="1255" cy="438" r="23" fill="white"/>
</mask>
<g mask="url(#mask5_993_14167)">
<path d="M1273.5 446.5L1265 434L1259 439L1248 425L1236.5 447" stroke="white" stroke-width="2"/>
<path d="M1274 447L1265 441L1258 445L1249 435L1236.5 447" stroke="white" stroke-width="2"/>
</g>
</g>
<g opacity="0.4">
<circle cx="387" cy="115" r="23" fill="#D0F0F1"/>
<mask id="mask6_993_14167" style="mask-type:alpha" maskUnits="userSpaceOnUse" x="364" y="92" width="46" height="46">
<circle cx="387" cy="115" r="23" fill="white"/>
</mask>
<g mask="url(#mask6_993_14167)">
<rect x="380" y="104" width="3" height="25" rx="1.5" fill="white"/>
<rect x="374" y="114" width="3" height="15" rx="1.5" fill="white"/>
<rect x="386" y="99" width="3" height="30" rx="1.5" fill="white"/>
<rect x="392" y="109" width="3" height="20" rx="1.5" fill="white"/>
<rect x="398" y="119" width="3" height="10" rx="1.5" fill="white"/>
</g>
</g>
<g opacity="0.4">
<circle cx="1203" cy="155" r="23" fill="#D0F0F1"/>
<mask id="mask7_993_14167" style="mask-type:alpha" maskUnits="userSpaceOnUse" x="1180" y="132" width="46" height="46">
<circle cx="1203" cy="155" r="23" fill="white"/>
</mask>
<g mask="url(#mask7_993_14167)">
<rect x="1196" y="144" width="3" height="25" rx="1.5" fill="white"/>
<rect x="1190" y="154" width="3" height="15" rx="1.5" fill="white"/>
<rect x="1202" y="139" width="3" height="30" rx="1.5" fill="white"/>
<rect x="1208" y="149" width="3" height="20" rx="1.5" fill="white"/>
<rect x="1214" y="159" width="3" height="10" rx="1.5" fill="white"/>
</g>
</g>
</g>
<defs>
<radialGradient id="paint0_angular_993_14167" cx="0" cy="0" r="1" gradientUnits="userSpaceOnUse" gradientTransform="translate(15 15) scale(15)">
<stop offset="0.25" stop-color="white"/>
<stop offset="0.250107" stop-color="white" stop-opacity="0.502349"/>
<stop offset="0.744369" stop-color="white" stop-opacity="0.499915"/>
<stop offset="0.750556" stop-color="white"/>
</radialGradient>
</defs>
</svg>
