<svg xmlns="http://www.w3.org/2000/svg" width="60" height="60" fill="none"><rect width="60" height="60" fill="#7B68EE" fill-opacity=".1" rx="30"/><path fill="#7B68EE" fill-rule="evenodd" d="M29.999 18.917c.443 0 .847.25 1.045.647l2.972 5.98 6.65.966a1.167 1.167 0 0 1 .644 1.993l-4.807 4.65 1.134 6.565a1.167 1.167 0 0 1-1.69 1.233L30 37.844l-5.95 3.107a1.167 1.167 0 0 1-1.689-1.233l1.134-6.566-4.806-4.65a1.167 1.167 0 0 1 .643-1.992l6.65-.966 2.973-5.98a1.167 1.167 0 0 1 1.045-.647Zm0 3.788-2.2 4.425c-.17.343-.498.58-.877.636l-4.904.712 3.542 3.426c.277.268.404.657.338 1.037l-.837 4.85 4.398-2.297a1.167 1.167 0 0 1 1.08 0l4.398 2.296-.838-4.849c-.066-.38.061-.769.339-1.037l3.542-3.426-4.904-.712a1.167 1.167 0 0 1-.877-.636l-2.2-4.425Z" clip-rule="evenodd"/></svg>