<svg xmlns="http://www.w3.org/2000/svg" width="60" height="60" fill="none"><rect width="60" height="60" fill="#00B884" fill-opacity=".1" rx="30"/><mask id="a" fill="#fff"><rect width="7" height="7" x="19" y="34" rx="1"/></mask><rect width="7" height="7" x="19" y="34" stroke="#00B884" stroke-linejoin="round" stroke-width="4" mask="url(#a)" rx="1"/><mask id="b" fill="#fff"><rect width="7" height="7" x="24" y="34" rx="1"/></mask><rect width="7" height="7" x="24" y="34" stroke="#00B884" stroke-linejoin="round" stroke-width="4" mask="url(#b)" rx="1"/><mask id="c" fill="#fff"><rect width="7" height="7" x="24" y="29" rx="1"/></mask><rect width="7" height="7" x="24" y="29" stroke="#00B884" stroke-linejoin="round" stroke-width="4" mask="url(#c)" rx="1"/><mask id="d" fill="#fff"><rect width="7" height="7" x="24" y="24" rx="1"/></mask><rect width="7" height="7" x="24" y="24" stroke="#00B884" stroke-linejoin="round" stroke-width="4" mask="url(#d)" rx="1"/><mask id="e" fill="#fff"><rect width="7" height="7" x="34" y="19" rx="1"/></mask><rect width="7" height="7" x="34" y="19" stroke="#00B884" stroke-linejoin="round" stroke-width="4" mask="url(#e)" rx="1"/><mask id="f" fill="#fff"><rect width="7" height="7" x="29" y="34" rx="1"/></mask><rect width="7" height="7" x="29" y="34" stroke="#00B884" stroke-linejoin="round" stroke-width="4" mask="url(#f)" rx="1"/><mask id="g" fill="#fff"><rect width="7" height="7" x="34" y="34" rx="1"/></mask><rect width="7" height="7" x="34" y="34" stroke="#00B884" stroke-linejoin="round" stroke-width="4" mask="url(#g)" rx="1"/><mask id="h" fill="#fff"><rect width="7" height="7" x="29" y="29" rx="1"/></mask><rect width="7" height="7" x="29" y="29" stroke="#00B884" stroke-linejoin="round" stroke-width="4" mask="url(#h)" rx="1"/></svg>