<svg xmlns="http://www.w3.org/2000/svg" width="60" height="60" fill="none"><rect width="60" height="60" fill="#BB66E1" fill-opacity=".1" rx="30"/><path fill="#BB66E1" fill-rule="evenodd" d="M40 30c0 5.523-4.477 10-10 10s-10-4.477-10-10 4.477-10 10-10 10 4.477 10 10Zm-2.23 9.146A11.953 11.953 0 0 1 30 42c-6.627 0-12-5.373-12-12s5.373-12 12-12 12 5.373 12 12c0 2.963-1.074 5.676-2.854 7.77.064.04.125.087.181.143l4.38 4.379a1 1 0 0 1-1.415 1.414l-4.379-4.379a1.002 1.002 0 0 1-.144-.181Z" clip-rule="evenodd"/><path fill="#BB66E1" fill-rule="evenodd" d="M30 31c2 0 3 .79 3 3h-6c0-2.21 1-3 3-3Zm-5 3c0-4 3-5 5-5s5 1 5 5a2 2 0 0 1-2 2h-6a2 2 0 0 1-2-2Zm6-8c0 1-1 1-1 1s-1 0-1-1 1-1 1-1 1 0 1 1Zm2 0c0 1.5-1 3-3 3s-3-1.5-3-3 1-3 3-3 3 1.5 3 3Z" clip-rule="evenodd"/></svg>