<svg width="156" height="30" viewBox="0 0 156 30" fill="none" xmlns="http://www.w3.org/2000/svg">
    <path d="M23.7411 16.3675C23.7411 18.3283 25.015 19.928 27.121 19.928C29.1489 19.928 30.5009 18.4057 30.5009 16.3675C30.5009 14.3292 29.1489 12.807 27.121 12.807C25.015 12.807 23.7411 14.4324 23.7411 16.3675ZM32.7888 21.9404H30.3449V20.5988C29.5649 21.5792 28.4209 22.2242 26.835 22.2242C23.6891 22.2242 21.2191 19.7732 21.2191 16.3675C21.2191 12.9618 23.6891 10.5107 26.835 10.5107C28.4209 10.5107 29.5909 11.1558 30.3449 12.1362V10.7945H32.7888V21.9404ZM42.8506 13.0134H38.5607V17.8639C38.5607 19.3604 39.3667 19.9538 40.3287 19.9538C41.0827 19.9538 41.9146 19.6184 42.5906 19.2056L43.5526 21.1406C42.6426 21.734 41.5246 22.25 40.1207 22.25C37.5727 22.25 36.0908 20.8826 36.0908 17.9413V13.065H33.8548V10.8719H36.0908V7.51786H38.5347V10.8719H42.8246V13.0134H42.8506ZM47.0105 12.1362C47.9205 10.872 49.2985 10.5107 50.4164 10.5107C53.0944 10.5107 54.9663 12.3426 54.9663 14.9227V21.9146H52.5224V15.7225C52.5224 13.8648 51.5604 12.807 49.9224 12.807C48.3365 12.807 47.0105 13.839 47.0105 15.7483V21.9146H44.5666V5.1958H47.0105V12.1362ZM59.1782 15.4129H65.0021C64.7421 13.6842 63.7281 12.678 62.1682 12.678C60.4002 12.678 59.4382 13.7874 59.1782 15.4129ZM67.498 16.3675C67.498 16.6771 67.472 16.9867 67.446 17.2705H59.1522C59.4902 19.2572 60.8942 20.1086 62.4801 20.1086C63.5981 20.1086 64.7941 19.67 65.7301 18.9476L66.952 20.6762C65.5741 21.8372 64.0401 22.25 62.3502 22.25C58.9962 22.25 56.6303 19.928 56.6303 16.3933C56.6303 12.9102 58.9182 10.5365 62.2202 10.5365C65.3401 10.5365 67.472 12.8844 67.498 16.3675ZM79.6398 14.9485V21.9404H77.1958V15.7483C77.1958 13.8906 76.2338 12.8328 74.5959 12.8328C73.0099 12.8328 71.6839 13.8648 71.6839 15.7741V21.9404H69.24V10.8203H71.6839V12.1878C72.5939 10.8719 73.9719 10.5365 75.1159 10.5365C77.7678 10.5365 79.6398 12.3426 79.6398 14.9485ZM83.7737 16.3675C83.7737 18.3283 85.0476 19.928 87.1536 19.928C89.1815 19.928 90.5335 18.4057 90.5335 16.3675C90.5335 14.3292 89.1815 12.807 87.1536 12.807C85.0476 12.807 83.7737 14.4324 83.7737 16.3675ZM92.8214 21.9404H90.3775V20.5988C89.5975 21.5792 88.4536 22.2242 86.8676 22.2242C83.7217 22.2242 81.2517 19.7732 81.2517 16.3675C81.2517 12.9618 83.7217 10.5107 86.8676 10.5107C88.4536 10.5107 89.6235 11.1558 90.3775 12.1362V10.7945H92.8214V21.9404ZM96.6693 12.9102C97.5273 11.4654 99.0873 10.8462 100.595 10.8462C103.351 10.8462 105.223 12.549 105.223 15.2581V21.9662H103.897V15.6709C103.897 13.4778 102.623 12.1104 100.361 12.1104C98.2813 12.1104 96.6693 13.581 96.6693 15.7225V21.9404H95.3434V5.2216H96.6693V12.9102ZM108.473 15.8257H116.351C116.143 13.5552 114.583 12.0072 112.529 12.0072C110.293 12.0072 108.733 13.6068 108.473 15.8257ZM117.703 16.4191C117.703 16.6255 117.703 16.8061 117.677 16.9609H108.447C108.655 19.5152 110.449 20.96 112.711 20.96C114.245 20.96 115.467 20.3666 116.429 19.412L117.131 20.315C115.727 21.7082 114.219 22.121 112.607 22.121C109.383 22.121 107.069 19.8248 107.069 16.4965C107.069 13.194 109.409 10.8462 112.529 10.8462C115.493 10.8462 117.677 13.1424 117.703 16.4191ZM120.251 16.4707C120.251 18.9218 122.045 20.8568 124.541 20.8568C127.037 20.8568 128.831 18.9734 128.831 16.4707C128.831 13.968 127.037 12.0588 124.541 12.0588C122.019 12.0846 120.251 14.0196 120.251 16.4707ZM130.079 21.9404H128.753V19.8248C127.869 21.1922 126.387 22.0952 124.385 22.0952C121.291 22.0952 118.899 19.7216 118.899 16.4707C118.899 13.2198 121.317 10.8203 124.385 10.8203C126.387 10.8203 127.869 11.7234 128.753 13.0908V11.0009H130.079V21.9404ZM134.16 21.9404H132.835V5.2216H134.16V21.9404ZM144.378 12.2136H139.308V18.1735C139.308 20.0312 140.296 20.8568 141.752 20.8568C142.688 20.8568 143.572 20.5214 144.196 20.0312L144.82 21.0116C144.04 21.6566 142.948 22.0952 141.622 22.0952C139.334 22.0952 137.956 20.831 137.956 18.1735V12.1878H135.434V10.9752H137.956V7.44046H139.282V11.0009H144.352V12.2136H144.378ZM147.446 12.9102C148.304 11.4654 149.864 10.8462 151.372 10.8462C154.128 10.8462 156 12.549 156 15.2581V21.9662H154.674V15.6709C154.674 13.4778 153.4 12.1104 151.138 12.1104C149.058 12.1104 147.446 13.581 147.446 15.7225V21.9404H146.12V5.2216H147.446V12.9102Z" fill="#C3C8D5"/>
    <path d="M11.5993 6.87292C11.5993 7.62114 12.2233 8.24036 12.9773 8.24036C13.7313 8.24036 14.3553 7.62114 14.3553 6.87292C14.3553 6.12471 13.7313 5.50549 12.9773 5.50549C12.2233 5.53129 11.5993 6.12471 11.5993 6.87292ZM19.6071 7.56955C19.6071 7.56955 19.8411 13.2973 16.9812 17.2448C14.0953 21.1923 9.18139 21.8373 9.18139 21.8373C9.18139 21.8373 8.94739 16.1096 11.8073 12.1621C14.6933 8.21456 19.6071 7.56955 19.6071 7.56955Z" fill="#C3C8D5"/>
    <path d="M8.11545 10.8203C8.11545 10.8203 5.9575 8.21439 5.9055 5.37632C5.8535 2.53825 7.93345 0.5 7.93345 0.5C7.93345 0.5 10.0914 3.10587 10.1434 5.94394C10.1954 8.78201 8.11545 10.8203 8.11545 10.8203ZM8.01145 16.7286V16.677C8.01145 15.5676 7.80346 12.1103 5.9835 9.60763C3.77355 6.58895 0.00363955 6.09874 0.00363955 6.09874C0.00363955 6.09874 -0.178356 10.5107 2.03159 13.5293C3.61755 15.6708 5.9575 16.548 7.20547 16.8834V21.6307C7.20547 21.8629 7.38747 22.0435 7.62146 22.0435C7.85546 22.0435 8.03745 21.8629 8.03745 21.6307V16.8834C8.01145 16.806 8.01145 16.7802 8.01145 16.7286Z" fill="#C3C8D5"/>
</svg>
