<svg xmlns="http://www.w3.org/2000/svg" width="42" height="33" fill="none"><path fill="#C3C8D5" d="M26 2H15v20h11V2Z"/><path fill="#C3C8D5" d="M16.057 13c0-4.152 1.95-7.838 4.943-10.22A12.912 12.912 0 0 0 12.988 0C5.81 0 0 5.814 0 13s5.81 13 12.988 13c3.031 0 5.81-1.048 8.012-2.78A12.978 12.978 0 0 1 16.057 13Z"/><path fill="#EDEFF7" d="M42 13c0 7.186-5.809 13-12.988 13-3.031 0-5.81-1.048-8.012-2.78A12.933 12.933 0 0 0 25.943 13c0-4.152-1.95-7.838-4.943-10.22A12.89 12.89 0 0 1 29.007 0C36.191 0 42 5.852 42 13Z"/><path fill="#C3C8D5" d="M6.681 32.177V29.97c0-.844-.519-1.396-1.41-1.396-.446 0-.93.145-1.264.625-.26-.402-.631-.625-1.19-.625-.372 0-.744.111-1.038.514v-.442H1v3.531h.779v-1.95c0-.625.333-.92.852-.92.52 0 .78.33.78.92v1.95h.778v-1.95c0-.625.372-.92.853-.92.519 0 .778.33.778.92v1.95h.861Zm11.554-3.53H16.97V27.58h-.779v1.067h-.705v.698h.705v1.62c0 .81.334 1.285 1.225 1.285.333 0 .705-.112.965-.257l-.225-.664a1.255 1.255 0 0 1-.67.184c-.373 0-.52-.223-.52-.587v-1.581h1.263v-.698h.005Zm6.612-.078c-.446 0-.745.223-.93.515v-.442h-.78v3.53h.78v-1.987c0-.587.259-.921.743-.921.148 0 .334.038.485.072l.225-.737c-.156-.03-.376-.03-.523-.03Zm-9.992.369c-.372-.257-.891-.369-1.45-.369-.89 0-1.483.442-1.483 1.14 0 .587.445.921 1.224 1.028l.372.039c.407.073.632.184.632.368 0 .258-.299.442-.818.442-.52 0-.93-.184-1.19-.369l-.372.587c.407.296.965.442 1.523.442 1.039 0 1.636-.48 1.636-1.14 0-.626-.485-.956-1.225-1.067L13.332 30c-.333-.038-.593-.111-.593-.33 0-.257.26-.402.671-.402.446 0 .892.184 1.117.295l.328-.625Zm20.723-.369c-.446 0-.745.223-.93.515v-.442h-.78v3.53h.78v-1.987c0-.587.259-.921.744-.921.147 0 .333.038.484.072l.225-.728c-.151-.039-.372-.039-.523-.039Zm-9.953 1.843c0 1.067.745 1.838 1.896 1.838.519 0 .891-.112 1.263-.403l-.372-.626c-.299.223-.593.33-.93.33-.632 0-1.078-.44-1.078-1.14 0-.663.446-1.105 1.078-1.139.333 0 .631.112.93.33l.372-.626c-.372-.295-.744-.402-1.263-.402-1.151-.005-1.896.77-1.896 1.838Zm7.205 0v-1.765h-.779v.44c-.26-.33-.632-.513-1.116-.513-1.004 0-1.783.77-1.783 1.838 0 1.067.779 1.838 1.783 1.838.519 0 .891-.184 1.116-.514v.441h.779v-1.765Zm-2.86 0c0-.626.407-1.14 1.077-1.14.632 0 1.078.48 1.078 1.14 0 .625-.446 1.14-1.078 1.14-.666-.04-1.077-.519-1.077-1.14Zm-9.32-1.843c-1.04 0-1.784.737-1.784 1.838 0 1.106.745 1.838 1.822 1.838.52 0 1.039-.145 1.45-.48l-.372-.552a1.78 1.78 0 0 1-1.039.368c-.485 0-.965-.222-1.077-.844h2.635v-.295c.035-1.136-.636-1.873-1.636-1.873Zm0 .665c.484 0 .817.295.89.844h-1.856c.074-.476.407-.845.965-.845ZM40 30.412V27.25h-.779v1.838c-.26-.33-.632-.514-1.116-.514-1.004 0-1.783.77-1.783 1.838 0 1.067.779 1.838 1.783 1.838.519 0 .891-.184 1.116-.514v.441H40v-1.765Zm-2.86 0c0-.626.407-1.14 1.077-1.14.632 0 1.078.48 1.078 1.14 0 .625-.446 1.14-1.078 1.14-.67-.04-1.077-.519-1.077-1.14Zm-26.075 0v-1.765h-.78v.44c-.259-.33-.63-.513-1.115-.513-1.004 0-1.783.77-1.783 1.838 0 1.067.779 1.838 1.783 1.838.519 0 .89-.184 1.116-.514v.441h.779v-1.765Zm-2.895 0c0-.626.407-1.14 1.077-1.14.632 0 1.078.48 1.078 1.14 0 .625-.446 1.14-1.078 1.14-.67-.04-1.077-.519-1.077-1.14Z"/></svg>
