<svg xmlns="http://www.w3.org/2000/svg" width="72" height="16" fill="none"><g fill="#C3C8D5" clip-path="url(#a)"><path d="M15.487 13.138v3.238L3 5.666V15.5H.608V.417h.033l14.846 12.721ZM24.54.22c-4.506 0-8.152 3.214-8.152 7.776 0 4.758 3.654 7.775 8.152 7.775 4.498 0 8.152-3.017 8.152-7.775 0-4.309-3.646-7.775-8.152-7.775Zm0 13.409c-3.187 0-5.768-2.183-5.768-5.625 0-3.303 2.58-5.625 5.768-5.625 3.457 0 5.784 2.502 5.784 5.625 0 3.377-2.548 5.625-5.784 5.625ZM37.952 8.004l8.75 7.497H43.17l-8.734-7.497L43.171.5h3.539l-8.758 7.505ZM52.036.499h-2.368V15.5h2.368V.5ZM71.609 15.501h-2.622l-1.868-3.311H58.54l-1.884 3.311h-2.614l3.146-5.551h8.668L61.54 2.28 62.826 0 71.609 15.5Z"/></g><defs><clipPath id="a"><path fill="#fff" d="M.608 0h71v16h-71z"/></clipPath></defs></svg>