<svg xmlns="http://www.w3.org/2000/svg" width="71" height="16" fill="none"><g fill="#C3C8D5" clip-path="url(#a)"><path d="M14.878 13.138v3.238L2.392 5.666V15.5H0V.417h.033l14.845 12.721ZM23.931.22c-4.506 0-8.152 3.214-8.152 7.776 0 4.758 3.654 7.775 8.152 7.775 4.498 0 8.152-3.017 8.152-7.775 0-4.309-3.646-7.775-8.152-7.775Zm0 13.409c-3.187 0-5.768-2.183-5.768-5.625 0-3.303 2.581-5.625 5.768-5.625 3.458 0 5.784 2.502 5.784 5.625 0 3.377-2.547 5.625-5.784 5.625ZM37.343 8.004l8.75 7.497h-3.53l-8.734-7.497L42.562.5h3.54l-8.759 7.505ZM51.427.499H49.06V15.5h2.367V.5ZM71 15.501H68.38L66.51 12.19h-8.578l-1.884 3.311h-2.613L56.58 9.95h8.668L60.93 2.28 62.217 0 71 15.5Z"/></g><defs><clipPath id="a"><path fill="#fff" d="M0 0h71v16H0z"/></clipPath></defs></svg>
