<svg xmlns="http://www.w3.org/2000/svg" width="184" height="26" fill="none"><path fill="#C3C8D5" d="M184 16.211c0-1.399-.816-2.122-2.078-2.619-.995-.39-1.867-.721-2.531-.976-.662-.255-1.226-.698-1.226-1.178 0-.655.834-1.035 1.937-1.035 1.302 0 2.326.177 3.315.265h.029a.253.253 0 0 0 .182-.077.259.259 0 0 0 .071-.185v-1.08c0-.145-.117-.248-.268-.276a15.08 15.08 0 0 0-3.238-.383c-2.781 0-4.106 1.166-4.106 2.771 0 1.019.462 2.024 1.764 2.549 1.306.526 3.98 1.131 3.98 2.224 0 .846-.404 1.31-1.736 1.31-1.382 0-2.782-.19-3.381-.264h-.028a.279.279 0 0 0-.199.08.284.284 0 0 0-.085.198v1.05c0 .16.133.262.283.29.719.162 2.06.384 3.381.384 2.993 0 3.934-1.576 3.934-3.048Zm-96.342 0c0-1.399-.815-2.122-2.078-2.619-.994-.39-1.867-.721-2.531-.976-.662-.255-1.224-.698-1.224-1.178 0-.655.832-1.035 1.935-1.035 1.303 0 2.326.177 3.315.265h.03a.25.25 0 0 0 .235-.162.255.255 0 0 0 .017-.1v-1.08c0-.145-.117-.248-.267-.276a15.115 15.115 0 0 0-3.24-.383c-2.78 0-4.105 1.166-4.105 2.771 0 1.019.46 2.024 1.763 2.549 1.306.526 3.98 1.131 3.98 2.224 0 .846-.403 1.31-1.735 1.31-1.382 0-2.782-.19-3.381-.264h-.029a.279.279 0 0 0-.199.08.285.285 0 0 0-.085.198v1.05c0 .16.134.262.283.29.72.162 2.06.384 3.38.384 2.995 0 3.936-1.576 3.936-3.048Zm22.195 2.347V9.061c0-.161-.12-.277-.284-.277h-1.287c-.166 0-.285.116-.285.277v7.194c0 .085-.042.132-.073.132-.048 0-.09-.047-.119-.118l-4.219-7.017c-.181-.381-.345-.468-.658-.468h-1.616a.59.59 0 0 0-.595.583v9.484c0 .159.13.292.298.292h1.268a.286.286 0 0 0 .286-.292v-6.86c0-.086.032-.117.074-.117.045 0 .092.032.134.118l4.057 6.626c.235.525.551.525.909.525h1.513a.596.596 0 0 0 .598-.585h-.001Zm-32.06.366V9.366a.598.598 0 0 0-.18-.416.586.586 0 0 0-.419-.167h-1.227a.625.625 0 0 0-.553.35l-2.867 5.697c-.077.131-.107.204-.165.204-.063 0-.094-.073-.167-.204l-2.87-5.696a.634.634 0 0 0-.552-.35h-1.227a.586.586 0 0 0-.418.167.598.598 0 0 0-.18.416v9.556c0 .145.12.22.256.22h1.508c.136 0 .24-.149.24-.292v-6.306c0-.102.016-.144.045-.144.014 0 .044.042.077.087l2.43 5.212c.085.16.28.249.476.249h.777c.195 0 .388-.089.476-.249l2.414-5.212c.032-.045.062-.087.073-.087.033 0 .048.042.048.144v6.306c0 .143.105.292.238.292h1.51c.136 0 .257-.075.257-.22v.001Zm18.833-5.707c0-1.924-1.192-2.785-2.658-2.785s-2.66.86-2.66 2.785v1.492c0 1.925 1.194 2.783 2.66 2.783 1.465 0 2.658-.858 2.658-2.783v-1.492Zm2.095 0v1.492c0 3.208-2.285 4.55-4.753 4.55-2.467 0-4.75-1.342-4.75-4.55v-1.492c0-3.207 2.283-4.548 4.75-4.548 2.468 0 4.753 1.34 4.753 4.548Zm-35.68 0c0-1.924-1.192-2.785-2.658-2.785s-2.66.86-2.66 2.785v1.492c0 1.925 1.194 2.783 2.66 2.783 1.466 0 2.657-.858 2.657-2.783v-1.492Zm2.096 0v1.492c0 3.208-2.286 4.55-4.754 4.55-2.467 0-4.75-1.342-4.75-4.55v-1.492c0-3.207 2.283-4.548 4.75-4.548 2.468 0 4.754 1.34 4.754 4.548ZM53.594 18.85V9.06c0-.161-.137-.277-.3-.277h-1.477c-.168 0-.303.116-.303.277v3.787h-4.736V9.06c0-.161-.135-.277-.297-.277H45c-.167 0-.3.116-.3.277v9.79c0 .159.133.292.3.292h1.48a.3.3 0 0 0 .297-.292v-4.225h4.736v4.225c0 .159.134.292.302.292h1.478a.3.3 0 0 0 .3-.292v-.001Zm101.103-8.376h-2.982v8.377a.297.297 0 0 1-.302.292h-1.478a.293.293 0 0 1-.298-.292v-8.377h-2.986c-.164 0-.3-.1-.3-.26V9.061c0-.161.136-.277.3-.277h8.046c.164 0 .3.116.3.277v1.152c0 .161-.136.261-.3.261Zm-112.03 0h-2.982v8.377a.3.3 0 0 1-.301.292h-1.478a.293.293 0 0 1-.209-.084.3.3 0 0 1-.09-.208v-8.377h-2.986c-.163 0-.3-.1-.3-.26V9.061c0-.161.137-.277.3-.277h8.046c.165 0 .3.116.3.277v1.152c0 .161-.135.261-.299.261Zm102.361 4.656V9.061c0-.161-.135-.277-.301-.277h-1.481c-.164 0-.297.116-.297.277v6.069c0 1.663-.788 2.45-2.402 2.45s-2.402-.787-2.402-2.45V9.061c0-.161-.134-.277-.299-.277h-1.478c-.164 0-.3.116-.3.277v6.069c0 3.107 2.072 4.128 4.479 4.128 2.408 0 4.48-1.02 4.48-4.128h.001Zm13.408-.504h4.786a.295.295 0 0 0 .3-.29v-1.053a.295.295 0 0 0-.3-.29h-4.786v-1.338c0-1.22.048-1.252 1.179-1.252h3.787a.303.303 0 0 0 .299-.293v-.933c0-.205-.075-.28-.299-.307-.48-.071-1.453-.202-3.232-.202-2.482 0-3.8-.018-3.8 2.987v4.613c0 3.005 1.318 2.99 3.8 2.99 1.779 0 2.752-.132 3.232-.205.224-.029.299-.102.299-.308v-.93a.3.3 0 0 0-.091-.208.293.293 0 0 0-.208-.083h-3.787c-1.131 0-1.179-.034-1.179-1.256v-1.642Zm-29.546 0h4.786a.296.296 0 0 0 .3-.29v-1.053a.296.296 0 0 0-.3-.29h-4.786v-1.338c0-1.22.047-1.252 1.179-1.252h3.786a.299.299 0 0 0 .3-.293v-.933c0-.205-.076-.28-.3-.307-.479-.071-1.453-.202-3.232-.202-2.482 0-3.798-.018-3.798 2.987v4.613c0 3.005 1.316 2.99 3.799 2.99 1.778 0 2.752-.132 3.231-.205.224-.029.3-.102.3-.308v-.93a.301.301 0 0 0-.091-.208.293.293 0 0 0-.209-.083h-3.786c-1.132 0-1.179-.034-1.179-1.256v-1.642Zm43.549-2.663c0-1.094-.87-1.56-2.366-1.56-.314 0-1.676.029-1.943.058v3.161c.238.015 1.687.045 1.943.045 1.539 0 2.366-.289 2.366-1.571v-.133Zm2.422 7.005c0 .1-.059.174-.178.174h-1.827c-.164 0-.224-.148-.298-.291l-2.154-3.536h-.331c-.391 0-1.599-.042-1.943-.06v3.596a.284.284 0 0 1-.286.292h-1.495a.294.294 0 0 1-.208-.084.3.3 0 0 1-.09-.208V9.293c0-.292.177-.395.479-.438.778-.115 2.45-.188 3.543-.188 2.303 0 4.429.803 4.429 3.295v.133c0 1.542-.792 2.388-2.018 2.852l2.347 3.903a.184.184 0 0 1 .031.117l-.001.001Zm-52.059-7.005c0-1.094-.87-1.56-2.365-1.56-.315 0-1.676.029-1.943.058v3.161c.238.015 1.687.045 1.943.045 1.539 0 2.364-.289 2.364-1.571l.001-.133Zm2.423 7.005c0 .1-.06.174-.178.174h-1.827c-.163 0-.224-.148-.298-.291l-2.154-3.536h-.331c-.391 0-1.599-.042-1.943-.06v3.596a.285.285 0 0 1-.286.292h-1.495a.296.296 0 0 1-.297-.292V9.293c0-.292.176-.395.477-.438.779-.115 2.451-.188 3.544-.188 2.302 0 4.429.803 4.429 3.295v.133c0 1.542-.792 2.388-2.018 2.852l2.345 3.903a.18.18 0 0 1 .032.117v.001ZM26.488 15.722c-.723 0-1.31.583-1.31 1.303 0 .719.587 1.302 1.31 1.302.724 0 1.311-.584 1.311-1.302 0-.72-.586-1.303-1.31-1.303Zm-1.662 3.381c-.614 0-1.112.495-1.112 1.105s.498 1.105 1.112 1.105c.613 0 1.11-.495 1.11-1.105s-.497-1.105-1.11-1.105Zm-2.47 2.65a.944.944 0 0 0-.677.276.962.962 0 0 0-.21 1.047.964.964 0 0 0 .52.517c.117.048.241.072.366.07a.945.945 0 0 0 .678-.276.965.965 0 0 0 .284-.68.971.971 0 0 0-.285-.678.952.952 0 0 0-.677-.277h.002Zm-2.772 1.782a.77.77 0 0 0-.72.477.79.79 0 0 0-.062.299c0 .428.35.776.782.776a.777.777 0 1 0 0-1.552Zm-2.726.944a.66.66 0 0 0-.471.192.674.674 0 0 0-.199.472c0 .369.3.667.67.667a.669.669 0 0 0 .617-.923.671.671 0 0 0-.617-.41v.002Zm-2.554.374a.568.568 0 0 0-.531.352.585.585 0 0 0-.046.221.584.584 0 0 0 .358.532c.07.028.144.043.22.042a.568.568 0 0 0 .53-.353.583.583 0 0 0 .045-.22.58.58 0 0 0-.17-.408.569.569 0 0 0-.406-.166Zm-2.558-.375a.658.658 0 0 0-.471.193.672.672 0 0 0-.199.474c0 .368.3.666.67.666a.669.669 0 0 0 .618-.923.672.672 0 0 0-.363-.36.658.658 0 0 0-.255-.05Zm-2.726-.943a.775.775 0 0 0-.778.772.777.777 0 0 0 1.556 0 .775.775 0 0 0-.778-.773Zm-2.774-1.78a.948.948 0 0 0-.676.277.968.968 0 0 0-.285.677c.002.256.105.5.285.679.18.179.423.279.676.277a.946.946 0 0 0 .885-.587.972.972 0 0 0 .076-.369.968.968 0 0 0-.285-.677.949.949 0 0 0-.676-.277Zm-2.467-2.65a1.11 1.11 0 0 0-1.112 1.106c0 .61.498 1.105 1.112 1.105a1.11 1.11 0 0 0 1.113-1.105 1.11 1.11 0 0 0-1.113-1.107Zm-1.663-3.386c-.723 0-1.31.583-1.31 1.302 0 .72.587 1.302 1.31 1.302.724 0 1.31-.582 1.31-1.302 0-.719-.587-1.302-1.31-1.302Zm-.601-4.223A1.51 1.51 0 0 0 0 13.002a1.51 1.51 0 0 0 1.516 1.506 1.51 1.51 0 0 0 1.514-1.506 1.51 1.51 0 0 0-1.515-1.506Zm.6-3.815c-.722 0-1.308.582-1.308 1.3 0 .719.586 1.302 1.309 1.302.722 0 1.308-.583 1.308-1.3 0-.72-.586-1.302-1.308-1.302Zm1.662-2.995a1.11 1.11 0 0 0-1.112 1.107c0 .612.498 1.106 1.112 1.106.615 0 1.113-.495 1.113-1.107 0-.611-.498-1.106-1.113-1.106Zm2.47-2.349a.948.948 0 0 0-.675.277.968.968 0 0 0-.285.677c.002.256.105.5.285.679.18.179.423.278.675.277a.945.945 0 0 0 .677-.277.963.963 0 0 0 .284-.679.968.968 0 0 0-.285-.678.948.948 0 0 0-.676-.276ZM9.021.92a.768.768 0 0 0-.548.224.784.784 0 0 0-.23.549.784.784 0 0 0 .23.55.768.768 0 0 0 .548.223.768.768 0 0 0 .547-.224.784.784 0 0 0 .23-.55.786.786 0 0 0-.482-.715.765.765 0 0 0-.295-.057Zm2.723-.73c-.37 0-.67.3-.67.667 0 .368.3.666.67.666a.668.668 0 0 0 .672-.666c0-.368-.3-.666-.671-.666ZM14.3 0a.574.574 0 0 0-.576.572.575.575 0 0 0 1.152 0A.574.574 0 0 0 14.298 0Zm2.561.193a.658.658 0 0 0-.617.409.668.668 0 0 0 .617.922.667.667 0 0 0 .669-.665.674.674 0 0 0-.198-.473.661.661 0 0 0-.47-.193Zm2.724.728a.776.776 0 0 0-.778.772c0 .426.348.772.778.772a.775.775 0 0 0 .777-.772.783.783 0 0 0-.23-.549.767.767 0 0 0-.547-.223Zm2.77 1.419a.943.943 0 0 0-.676.276.963.963 0 0 0-.284.678c0 .527.429.954.96.954a.948.948 0 0 0 .674-.277.967.967 0 0 0 .285-.677.956.956 0 0 0-.96-.953V2.34Zm2.469 2.347a1.1 1.1 0 0 0-.784.32c-.209.208-.327.491-.33.787 0 .612.5 1.108 1.115 1.108a1.1 1.1 0 0 0 .783-.321c.21-.208.328-.49.33-.787a1.123 1.123 0 0 0-.33-.786 1.1 1.1 0 0 0-.783-.321h-.001Zm1.664 2.99c-.721 0-1.308.582-1.308 1.3 0 .72.587 1.302 1.308 1.302.724 0 1.31-.583 1.31-1.301 0-.719-.586-1.301-1.31-1.301Zm-6.004 7.313a.58.58 0 0 0-.413.17.586.586 0 0 0 .413 1 .586.586 0 1 0 0-1.17Zm-1.468 2.167a.58.58 0 0 0-.542.36.586.586 0 0 0 .542.81.586.586 0 0 0 .542-.81.59.59 0 0 0-.318-.317.58.58 0 0 0-.224-.043Zm-2.177 1.392a.637.637 0 0 0-.638.634c0 .35.286.635.638.635a.637.637 0 0 0 .64-.636.636.636 0 0 0-.64-.633Zm-2.574.378a.845.845 0 0 0-.606.247.862.862 0 0 0-.255.608c0 .472.386.854.86.854.475 0 .86-.383.86-.854a.868.868 0 0 0-.532-.792.844.844 0 0 0-.328-.063h.001Zm-2.567-.51a.972.972 0 0 0-.976.97c0 .535.436.97.976.97a.972.972 0 0 0 .975-.97.972.972 0 0 0-.975-.97Zm-2.331-1.635c-.598 0-1.082.482-1.082 1.077 0 .594.484 1.076 1.082 1.076.598 0 1.082-.482 1.082-1.076a1.08 1.08 0 0 0-1.082-1.077ZM7.83 14.597a.892.892 0 0 0-.64.26.91.91 0 0 0-.27.643c0 .499.408.902.909.902a.906.906 0 0 0 .909-.902.915.915 0 0 0-.27-.642.897.897 0 0 0-.639-.261h.001Zm-.36-2.404a.693.693 0 0 0-.649.43.702.702 0 0 0 1.143.766.708.708 0 0 0 .208-.496.71.71 0 0 0-.435-.648.693.693 0 0 0-.267-.052Zm.618-2.349a.581.581 0 0 0-.544.362.59.59 0 0 0 1.089.451.596.596 0 0 0 .045-.226.596.596 0 0 0-.366-.544.58.58 0 0 0-.225-.043h.001ZM9.558 7.7a.58.58 0 0 0-.414.17.586.586 0 0 0 .414.999.585.585 0 0 0 .414-1 .58.58 0 0 0-.414-.17Zm2.173-1.502a.637.637 0 0 0-.638.635c0 .35.286.635.64.635a.636.636 0 1 0 0-1.27h-.002Zm2.574-.82a.84.84 0 0 0-.6.246.857.857 0 0 0-.253.603c0 .468.381.849.853.849a.84.84 0 0 0 .602-.246.856.856 0 0 0 .252-.603.85.85 0 0 0-.854-.849Zm2.574.281a.97.97 0 0 0-.972.967.97.97 0 0 0 .972.967.97.97 0 0 0 .973-.967.97.97 0 0 0-.973-.967Zm2.32 1.418c-.599 0-1.084.483-1.084 1.078 0 .595.485 1.079 1.084 1.079.599 0 1.085-.484 1.085-1.079s-.486-1.078-1.085-1.078Zm1.538 2.532a.892.892 0 0 0-.64.262.911.911 0 0 0-.268.64c0 .498.406.902.908.902.5 0 .906-.404.906-.901a.918.918 0 0 0-.268-.641.897.897 0 0 0-.638-.262Zm-2.363 3.962c-.3 0-.543.242-.543.54 0 .297.243.538.543.538.3 0 .543-.24.543-.539a.54.54 0 0 0-.544-.539h.001Zm-1.053 1.668a.792.792 0 0 0-.568.232.809.809 0 0 0-.24.57c0 .443.363.802.808.802.445 0 .806-.359.806-.802a.813.813 0 0 0-.239-.57.796.796 0 0 0-.567-.232Zm-2.076 1.09a.835.835 0 0 0-.594.244.852.852 0 0 0-.25.597c0 .464.378.84.844.84a.843.843 0 0 0 .846-.84.852.852 0 0 0-.25-.597.834.834 0 0 0-.596-.243Zm-2.428-.06a.737.737 0 0 0-.69.458.76.76 0 0 0-.06.287c.002.199.082.389.223.528.14.14.33.217.527.216a.74.74 0 0 0 .527-.216c.14-.14.22-.33.222-.528a.756.756 0 0 0-.464-.69.737.737 0 0 0-.285-.056Zm-1.805-1.217a.54.54 0 0 0-.506.336.548.548 0 0 0 .716.717.545.545 0 0 0 .177-.895.546.546 0 0 0-.387-.158Zm-.717-1.576a.392.392 0 0 0-.367.244.398.398 0 1 0 .52-.215.393.393 0 0 0-.153-.03Zm-.04-2.054a.532.532 0 0 0-.501.331.541.541 0 0 0 .5.747.54.54 0 1 0 0-1.078Zm1.056-2.199a.795.795 0 0 0-.566.232.811.811 0 0 0-.239.568c0 .443.36.8.805.8a.795.795 0 0 0 .566-.231.811.811 0 0 0 .238-.569.811.811 0 0 0-.238-.568.795.795 0 0 0-.566-.232Zm2.063-1.169a.844.844 0 0 0-.847.842c0 .465.379.84.847.84a.843.843 0 0 0 .845-.84.843.843 0 0 0-.845-.842Zm2.435.269a.738.738 0 0 0-.692.458.756.756 0 0 0-.06.287.749.749 0 0 0 1.037.691.743.743 0 0 0 .406-.403.758.758 0 0 0 .059-.288.757.757 0 0 0-.465-.69.738.738 0 0 0-.285-.055Zm1.794 1.587a.543.543 0 0 0-.386.158.548.548 0 0 0 .386.935.549.549 0 0 0 .507-.758.55.55 0 0 0-.507-.335Zm.756 1.89a.394.394 0 0 0-.369.244.399.399 0 0 0 .369.55.4.4 0 0 0 .368-.55.401.401 0 0 0-.369-.245h.001Zm2.731.623a.704.704 0 0 0-.705.703c0 .387.316.701.705.701a.703.703 0 1 0 0-1.404Zm2.914.85a.73.73 0 0 0-.524.215.747.747 0 0 0-.22.525c0 .408.332.74.744.74a.742.742 0 0 0 .685-1.025.747.747 0 0 0-.402-.4.73.73 0 0 0-.283-.054Zm-.738 2.612a.695.695 0 0 0-.65.43.702.702 0 0 0 .65.97.702.702 0 0 0 .267-1.349.691.691 0 0 0-.268-.051h.001Zm-1.268 2.192a.585.585 0 0 0-.548.363.593.593 0 0 0 .966.648.595.595 0 0 0 .13-.648.596.596 0 0 0-.549-.363h.001Zm-1.523 1.628a.507.507 0 0 0-.36.148.512.512 0 0 0 .556.836.508.508 0 0 0 .279-.276.519.519 0 0 0 .04-.197.52.52 0 0 0-.319-.473.504.504 0 0 0-.195-.037Zm-1.607 1.188a.432.432 0 0 0-.406.27.44.44 0 0 0 .812.337.445.445 0 0 0 .035-.169.444.444 0 0 0-.273-.405.432.432 0 0 0-.168-.033Zm-1.819.672a.506.506 0 0 0-.473.313.51.51 0 0 0 .833.558.514.514 0 0 0 .152-.362.51.51 0 0 0-.512-.51Zm-2.138.346a.584.584 0 0 0-.545.363.59.59 0 0 0 .77.772.587.587 0 0 0 .321-.773.593.593 0 0 0-.546-.362Zm-2.446-.24a.758.758 0 0 0-.71.47.768.768 0 0 0 .71 1.06.768.768 0 0 0 .71-1.059.773.773 0 0 0-.417-.414.757.757 0 0 0-.293-.056v-.002Zm-2.571-.918a.898.898 0 0 0-.64.262c-.17.17-.267.4-.27.642 0 .5.408.905.91.905a.907.907 0 0 0 .838-1.253.91.91 0 0 0-.492-.49.895.895 0 0 0-.346-.067Zm-2.279-1.699c-.589 0-1.067.476-1.067 1.062 0 .588.478 1.062 1.067 1.062.592 0 1.07-.475 1.07-1.062 0-.587-.478-1.062-1.069-1.062Zm-1.89-2.563c-.638 0-1.156.515-1.156 1.15 0 .635.518 1.15 1.157 1.15s1.157-.515 1.157-1.15c0-.636-.517-1.15-1.157-1.15Zm-1.073-2.668a.895.895 0 0 0-.64.262.915.915 0 0 0-.271.643c0 .501.408.906.911.906a.9.9 0 0 0 .641-.263.919.919 0 0 0 .27-.643c0-.5-.407-.905-.91-.905Zm-.051-2.578a.738.738 0 0 0-.526.216.753.753 0 0 0-.221.527c0 .411.333.743.747.743a.734.734 0 0 0 .526-.215.75.75 0 0 0 .221-.528.753.753 0 0 0-.221-.527.738.738 0 0 0-.526-.216Zm.734-2.53a.693.693 0 0 0-.65.43.702.702 0 0 0 .65.97.703.703 0 0 0 .65-.97.707.707 0 0 0-.382-.379.694.694 0 0 0-.268-.051Zm1.272-1.97a.583.583 0 0 0-.547.364.591.591 0 0 0 1.093.454.6.6 0 0 0 .047-.227.6.6 0 0 0-.367-.547.583.583 0 0 0-.226-.043Zm1.52-1.467a.504.504 0 0 0-.472.313.51.51 0 0 0 .944.392.518.518 0 0 0 .04-.196.518.518 0 0 0-.318-.471.504.504 0 0 0-.194-.038Zm1.607-1.049a.436.436 0 0 0-.31.128.445.445 0 0 0-.132.311.445.445 0 0 0 .132.312.436.436 0 0 0 .31.127.436.436 0 0 0 .31-.127.445.445 0 0 0 .131-.312.445.445 0 0 0-.13-.311.436.436 0 0 0-.311-.128Zm1.82-.808a.503.503 0 0 0-.47.313.51.51 0 1 0 .666-.275.503.503 0 0 0-.194-.038h-.001Zm2.133-.51a.587.587 0 0 0-.418.171.6.6 0 0 0-.176.42c0 .326.267.59.594.59a.587.587 0 0 0 .418-.171.6.6 0 0 0 .176-.42.603.603 0 0 0-.176-.42.59.59 0 0 0-.418-.17Zm2.45-.108a.768.768 0 0 0-.772.766.77.77 0 0 0 .772.767.77.77 0 0 0 .771-.767.768.768 0 0 0-.771-.766Zm2.5.588a.9.9 0 0 0-.641.262.92.92 0 0 0-.271.643.91.91 0 0 0 1.258.84.905.905 0 0 0 .493-.491c.047-.11.071-.23.072-.35a.918.918 0 0 0-.27-.642.9.9 0 0 0-.642-.262Zm2.36 1.424c-.591 0-1.07.476-1.07 1.063 0 .586.48 1.064 1.07 1.064.591 0 1.07-.477 1.07-1.064 0-.587-.479-1.063-1.07-1.063Zm1.876 2.396c-.639 0-1.157.515-1.157 1.15 0 .635.517 1.15 1.157 1.15s1.158-.515 1.158-1.15c0-.636-.518-1.15-1.158-1.15Zm1.075 3.157a.907.907 0 0 0-.91.905c0 .501.407.905.91.905.503 0 .91-.405.91-.906 0-.5-.407-.905-.91-.905v.001Zm4.653 2.634a1.51 1.51 0 0 1-1.516 1.506 1.51 1.51 0 0 1-1.514-1.506 1.51 1.51 0 0 1 1.515-1.506 1.51 1.51 0 0 1 1.515 1.506Z"/></svg>
