<svg width="40" height="40" viewBox="0 0 40 40" fill="none" xmlns="http://www.w3.org/2000/svg">
    <g clip-path="url(#clip0_10747_102316)">
        <path d="M7.04084 34.9481C6.76113 34.9542 6.48162 34.988 6.30569 35.0476C5.94038 35.1711 5.56323 35.4831 5.39073 35.8046C5.27333 36.0234 5.25974 36.1435 5.24195 37.1206C5.22907 37.8276 5.24579 38.2734 5.29063 38.4225C5.44097 38.9222 5.83069 39.3102 6.35141 39.4786C6.51619 39.5319 6.79668 39.5544 7.1585 39.5432C8.02865 39.5164 8.52218 39.2357 8.80074 38.6095C8.91441 38.354 8.9364 38.1883 8.95659 37.4348C8.98364 36.4258 8.92038 36.0198 8.68034 35.6639C8.49036 35.3823 8.11997 35.1167 7.77691 35.0158C7.60041 34.9639 7.32055 34.9421 7.04084 34.9481ZM7.11814 35.8169C7.36747 35.8238 7.61343 35.9103 7.77805 36.0812L7.94656 36.2562L7.96309 37.1969C7.98183 38.2628 7.93847 38.4095 7.55059 38.5927C7.1293 38.7918 6.572 38.6697 6.31618 38.3222C6.20605 38.1727 6.19532 38.0769 6.19532 37.247C6.19532 36.4493 6.20899 36.3158 6.30569 36.1737C6.47145 35.9303 6.79757 35.8079 7.11814 35.8169Z" fill="#C3C8D5"/>
        <path d="M19.111 39.5035C18.6343 39.3606 18.3336 39.0145 18.2548 38.5179L18.2082 38.2247H18.6886C19.1686 38.2247 19.169 38.2248 19.2424 38.4012C19.3705 38.7092 19.7406 38.7893 20.0208 38.5698L20.1738 38.4501L20.1892 36.7245L20.2047 34.999H20.6717H21.1387L21.1542 36.7101C21.1723 38.7117 21.1425 38.9016 20.7593 39.2282C20.6313 39.3373 20.4249 39.4569 20.3005 39.494C20.0449 39.5702 19.352 39.5758 19.111 39.5035Z" fill="#C3C8D5"/>
        <path d="M24.1452 34.9457C23.6615 34.9452 23.5459 34.9657 23.2405 35.1063C22.808 35.3055 22.6585 35.4414 22.4631 35.8129C22.3188 36.0872 22.3088 36.1597 22.2879 37.1009C22.2702 37.9017 22.2846 38.1627 22.3614 38.4255C22.5121 38.9418 22.9781 39.3722 23.5323 39.5072C23.8674 39.5888 24.5894 39.5647 24.9119 39.4612C25.3579 39.3181 25.7955 38.8842 25.9202 38.4614C26.0463 38.0335 26.0506 36.4538 25.9269 36.0389C25.8054 35.6315 25.5103 35.3133 25.0683 35.1131C24.7456 34.967 24.6308 34.9462 24.1452 34.9457ZM24.1584 35.8202C24.3544 35.8239 24.5509 35.8667 24.6816 35.9471C24.9883 36.1358 25.0208 36.2642 25.0208 37.2899C25.0208 38.145 25.012 38.2204 24.8943 38.3694C24.8247 38.4575 24.681 38.5656 24.575 38.6097C24.1412 38.7902 23.59 38.6603 23.3877 38.3299C23.2833 38.1593 23.2698 38.0375 23.2698 37.2458C23.2698 36.2587 23.3078 36.1219 23.6387 35.9274C23.7671 35.8518 23.9625 35.8165 24.1584 35.8202Z" fill="#C3C8D5"/>
        <path d="M37.1727 39.4751C36.8363 39.3706 36.5043 39.135 36.3253 38.8738C36.1668 38.6425 36.0268 38.1984 36.0835 38.1071C36.1029 38.0758 36.3226 38.0503 36.5717 38.0503C37.0243 38.0503 37.0248 38.0504 37.1083 38.235C37.2496 38.5478 37.4645 38.6605 37.9196 38.6605C38.3914 38.6605 38.5636 38.5517 38.5636 38.2537C38.5636 37.9811 38.4134 37.8846 37.7067 37.7034C36.8933 37.4949 36.8071 37.4585 36.5238 37.2037C36.0218 36.7521 35.9819 35.9395 36.4373 35.4377C37.1113 34.6949 38.6957 34.7876 39.2367 35.6016C39.3185 35.7247 39.401 35.9206 39.42 36.037L39.4544 36.2486H38.9847C38.5491 36.2486 38.5071 36.2378 38.4071 36.1012C38.0748 35.647 37.1042 35.7553 37.1042 36.2466C37.1042 36.4958 37.3091 36.6194 38.0144 36.7953C38.725 36.9726 38.9239 37.0602 39.1927 37.3142C39.3918 37.5024 39.5562 37.926 39.5556 38.2497C39.5546 38.8107 39.1774 39.3046 38.6255 39.4678C38.2448 39.5803 37.523 39.584 37.1727 39.4751Z" fill="#C3C8D5"/>
        <path d="M0.474403 34.999L0.459125 37.2512L0.443848 39.5033H1.56436C2.90369 39.5033 3.22292 39.4381 3.62982 39.0815C4.10089 38.6686 4.1483 38.5186 4.17104 37.3677C4.18698 36.5608 4.17243 36.3104 4.09647 36.0827C3.96072 35.6758 3.66992 35.3675 3.23625 35.1704C2.86897 35.0035 2.86367 35.0029 1.67108 35.001L0.474403 34.999ZM1.43758 35.8999H2.05815C2.57331 35.8999 2.71045 35.9194 2.86456 36.0142C3.17818 36.2072 3.218 36.3488 3.218 37.2706C3.218 38.2012 3.17343 38.3279 2.77598 38.5297C2.62599 38.6058 2.43321 38.6313 2.00673 38.6314L1.43758 38.6315V37.2657V35.8999Z" fill="#C3C8D5"/>
        <path d="M10.6898 39.3726C10.5939 38.9727 9.84338 35.1614 9.84338 35.0741C9.84338 34.9828 9.90033 34.97 10.3055 34.97H10.7677L10.8246 35.2461C10.8559 35.3979 10.9812 36.0643 11.103 36.727C11.2248 37.3897 11.3323 37.924 11.342 37.9144C11.3517 37.9047 11.4931 37.4541 11.6563 36.9129C11.8194 36.3717 12.0187 35.7119 12.0992 35.4466L12.2456 34.9642L12.5445 34.9816L12.8434 34.9991L13.2795 36.4666C13.5193 37.2737 13.723 37.9266 13.7322 37.9175C13.7414 37.9083 13.8686 37.2648 14.0148 36.4874C14.161 35.71 14.2951 35.0505 14.3129 35.022C14.3517 34.9593 15.1957 34.9516 15.2337 35.0136C15.2484 35.0376 15.0599 36.0576 14.8147 37.2803L14.3689 39.5033H13.8414H13.3138L12.9415 38.3119C12.7367 37.6566 12.5535 37.1209 12.5343 37.1215C12.5151 37.1222 12.4161 37.3902 12.3143 37.7173C12.2124 38.0443 12.0447 38.58 11.9416 38.9076L11.7541 39.5033H11.2377C10.7503 39.5033 10.7195 39.496 10.6898 39.3726Z" fill="#C3C8D5"/>
        <path d="M27.1362 37.2512L27.1515 34.9991L27.6185 34.9832L28.0855 34.9673L28.9903 36.4066L29.8951 37.8459L29.9107 36.408L29.9264 34.9701H30.3923H30.8583V37.2367V39.5034L30.3767 39.5031L29.8951 39.5029L29.0195 38.111L28.1439 36.7191L28.1283 38.1112L28.1126 39.5033H27.6168H27.121L27.1362 37.2512Z" fill="#C3C8D5"/>
        <path d="M32.0841 37.2359V34.9683L33.5872 34.9838L35.0904 34.9993V35.4352V35.8711L34.0834 35.887L33.0765 35.9029V36.3359V36.7689L33.9667 36.7849L34.8569 36.801L34.874 37.2224L34.8912 37.6437H33.9838H33.0765V38.1377V38.6318H34.098H35.1196V39.0677V39.5036H33.6018H32.0841V37.2359Z" fill="#C3C8D5"/>
        <path d="M9.1427 13.4062V0.44397L16.3082 0.461827L23.4736 0.479684L24.0866 0.63253C27.0584 1.37361 29.2382 3.26351 30.3048 6.02395C30.5616 6.68844 30.7971 7.76506 30.8404 8.4721L30.8756 9.04875H28.7105H26.5454L26.5118 8.77269C26.3998 7.85529 26.1092 7.12446 25.5884 6.45057C25.0675 5.77655 24.2837 5.23008 23.4153 4.93542L22.9483 4.77697L18.2345 4.76048L13.5208 4.74399V13.4058V22.0675H15.6806H17.8405V24.218V26.3684H13.4916H9.1427V13.4062Z" fill="#C3C8D5"/>
        <path d="M21.1096 24.2352V22.0852L21.8831 22.0461C22.3085 22.0246 22.8229 21.9681 23.0261 21.9206C24.274 21.629 25.4824 20.6789 26.0452 19.5471C26.5159 18.6003 26.4989 18.7496 26.5233 15.3402L26.5451 12.3035H28.7051H30.8651L30.8431 15.6018L30.8211 18.9L30.67 19.5103C30.2456 21.2253 29.5091 22.5376 28.289 23.7524C27.2987 24.7383 26.2045 25.4246 24.9132 25.8696C23.9489 26.2019 23.3142 26.3122 22.1458 26.3508L21.1096 26.3851V24.2352Z" fill="#C3C8D5"/>
    </g>
    <defs>
        <clipPath id="clip0_10747_102316">
            <rect width="40" height="40" fill="white"/>
        </clipPath>
    </defs>
</svg>
