<svg xmlns="http://www.w3.org/2000/svg" width="43" height="34" fill="none"><path fill="#C3C8D5" fill-rule="evenodd" d="M21.608 3.287c-2.993 2.386-4.943 6.079-4.943 10.24 0 4.16 1.946 7.887 4.943 10.239a12.97 12.97 0 0 0 4.944-10.24c0-4.16-1.95-7.853-4.944-10.24Z" clip-rule="evenodd" opacity=".8"/><path fill="#C3C8D5" d="M16.665 13.526c0-4.16 1.95-7.853 4.943-10.24A12.895 12.895 0 0 0 13.597.5C6.417.5.608 6.326.608 13.526s5.81 13.027 12.989 13.027c3.03 0 5.809-1.05 8.011-2.787-2.997-2.352-4.943-6.079-4.943-10.24Z"/><path fill="#C3C8D5" d="M42.608 13.526c0 7.2-5.809 13.027-12.988 13.027-3.03 0-5.809-1.05-8.012-2.787a12.97 12.97 0 0 0 4.944-10.24c0-4.16-1.95-7.853-4.944-10.24A12.874 12.874 0 0 1 29.616.5c7.183 0 12.992 5.864 12.992 13.026Z" opacity=".5"/><path fill="#C3C8D5" d="M7.282 33.424v-2.3c0-.879-.515-1.455-1.4-1.455-.441 0-.922.152-1.252.652-.258-.42-.627-.652-1.18-.652-.37 0-.738.116-1.03.536v-.46h-.773v3.679h.773v-2.032c0-.651.33-.96.845-.96.515 0 .773.344.773.96v2.032h.772v-2.032c0-.651.37-.96.845-.96.515 0 .773.344.773.96v2.032h.854Zm11.457-3.679h-1.253v-1.112h-.772v1.112h-.7v.728h.7v1.688c0 .843.33 1.339 1.214 1.339.33 0 .7-.116.957-.268l-.223-.692a1.2 1.2 0 0 1-.665.192c-.37 0-.515-.232-.515-.612v-1.647h1.253v-.728h.004Zm6.557-.08c-.442 0-.738.232-.922.535v-.46H23.6v3.68h.773v-2.072c0-.612.257-.96.738-.96.146 0 .33.04.48.076l.224-.768c-.155-.031-.374-.031-.52-.031Zm-9.908.384c-.37-.268-.884-.384-1.438-.384-.884 0-1.472.46-1.472 1.187 0 .612.442.96 1.215 1.072l.369.04c.403.076.626.192.626.384 0 .268-.296.46-.81.46-.516 0-.923-.192-1.18-.384l-.37.612c.404.308.957.46 1.51.46 1.03 0 1.623-.5 1.623-1.188 0-.652-.48-.996-1.215-1.112l-.369-.04c-.33-.04-.588-.116-.588-.344 0-.268.258-.42.666-.42.442 0 .884.192 1.107.308l.326-.651Zm20.55-.384c-.442 0-.738.232-.922.535v-.46h-.773v3.68h.773v-2.072c0-.612.257-.96.738-.96.146 0 .33.04.48.076l.224-.76c-.15-.04-.37-.04-.52-.04Zm-9.87 1.92c0 1.111.739 1.915 1.88 1.915.515 0 .884-.116 1.253-.42l-.369-.652c-.296.233-.588.344-.922.344-.627 0-1.069-.46-1.069-1.188 0-.692.442-1.151 1.069-1.187.33 0 .626.116.922.344l.37-.652c-.37-.308-.739-.42-1.254-.42-1.141-.004-1.88.804-1.88 1.915Zm7.146 0v-1.84h-.773v.46c-.257-.344-.626-.536-1.107-.536-.996 0-1.768.804-1.768 1.915 0 1.112.772 1.916 1.768 1.916.515 0 .884-.192 1.107-.536v.46h.773v-1.84Zm-2.837 0c0-.652.403-1.188 1.069-1.188.626 0 1.068.5 1.068 1.188 0 .651-.442 1.187-1.069 1.187-.66-.04-1.068-.54-1.068-1.188Zm-9.243-1.92c-1.03 0-1.768.768-1.768 1.915 0 1.152.738 1.916 1.806 1.916.515 0 1.03-.152 1.438-.5l-.37-.577c-.295.233-.664.384-1.029.384-.48 0-.957-.232-1.069-.88h2.614v-.307c.034-1.183-.631-1.951-1.622-1.951Zm0 .692c.48 0 .81.308.884.88h-1.841c.073-.496.403-.88.957-.88Zm19.19 1.227V28.29h-.772v1.916c-.258-.344-.627-.536-1.108-.536-.995 0-1.768.804-1.768 1.915 0 1.112.773 1.916 1.768 1.916.515 0 .884-.192 1.108-.536v.46h.772v-1.84Zm-2.837 0c0-.651.404-1.187 1.069-1.187.627 0 1.069.5 1.069 1.188 0 .651-.443 1.187-1.069 1.187-.665-.04-1.069-.54-1.069-1.188Zm-25.858 0v-1.839h-.773v.46c-.257-.344-.626-.536-1.107-.536-.995 0-1.768.804-1.768 1.915 0 1.112.773 1.916 1.768 1.916.515 0 .884-.192 1.107-.536v.46h.773v-1.84Zm-2.871 0c0-.651.403-1.187 1.068-1.187.627 0 1.069.5 1.069 1.188 0 .651-.442 1.187-1.069 1.187-.665-.04-1.068-.54-1.068-1.188Z"/></svg>