<svg xmlns="http://www.w3.org/2000/svg" width="101" height="24" fill="none"><g fill="#C3C8D5" clip-path="url(#a)"><path d="M58.392 12.772c0-2.37-1.014-4.464-4.442-4.464-1.759 0-3.156.501-3.913.94l.555 1.902c.697-.438 1.81-.799 2.86-.799 1.736-.002 2.02.98 2.02 1.612v.153c-3.788-.007-6.183 1.303-6.183 3.972 0 1.63 1.216 3.159 3.341 3.159 1.297 0 2.392-.524 3.047-1.351h.064s.431 1.807 2.817 1.116c-.12-.756-.166-1.554-.166-2.523v-3.717Zm-2.827 2.502c0 .192-.015.39-.072.561-.218.73-.97 1.34-1.907 1.34-.79 0-1.41-.447-1.41-1.385 0-1.436 1.583-1.83 3.39-1.82M.392 5.083S2.866 15.216 3.26 16.857c.463 1.919 1.293 2.628 3.687 2.156l1.547-6.284c.391-1.557.657-2.673.91-4.26h.042c.176 1.603.428 2.703.748 4.265 0 0 .631 2.855.959 4.35.318 1.496 1.215 2.439 3.565 1.929L18.4 5.083h-2.972l-1.264 6.026c-.335 1.745-.639 3.12-.875 4.72h-.043c-.213-1.582-.484-2.901-.832-4.611l-1.31-6.135h-3.1L6.607 11.06c-.399 1.825-.771 3.289-1.005 4.838h-.04a176.605 176.605 0 0 0-.916-5.061s-.83-4.28-1.123-5.755M26.682 12.772c0-2.37-1.016-4.464-4.444-4.464-1.754 0-3.153.501-3.91.94l.554 1.902c.695-.438 1.807-.799 2.861-.799 1.736-.002 2.02.98 2.02 1.612v.153c-3.789-.007-6.186 1.303-6.186 3.972 0 1.63 1.22 3.159 3.336 3.159 1.31 0 2.395-.524 3.05-1.351h.066s.434 1.807 2.817 1.116c-.122-.756-.164-1.554-.164-2.523v-3.717Zm-2.828 2.502c0 .192-.016.39-.07.561-.221.73-.973 1.34-1.912 1.34-.786 0-1.409-.447-1.409-1.385 0-1.436 1.584-1.83 3.39-1.82M28.225 5.083v13.925h2.828V5.083h-2.828ZM67.074 5.083v10.274c0 1.418.266 2.407.838 3.013.502.531 1.325.877 2.304.877.841 0 1.663-.162 2.052-.303l-.034-2.212c-.29.068-.623.125-1.079.125-.966 0-1.284-.612-1.284-1.885v-3.933h2.463V8.378h-2.463V5.083M59.762 8.55v10.462h2.925v-5.358c0-.289.018-.538.063-.768.218-1.13 1.075-1.845 2.31-1.845.344 0 .578.038.838.078V8.376a3.095 3.095 0 0 0-.635-.06c-1.095 0-2.335.696-2.858 2.21h-.073V8.55M32.696 8.55v10.462h2.85v-6.141c0-.288.032-.583.133-.849.232-.622.807-1.342 1.73-1.342 1.147 0 1.689.97 1.689 2.368v5.964h2.842v-6.215c0-.27.038-.603.117-.844.228-.705.851-1.273 1.712-1.273 1.159 0 1.72.948 1.72 2.597v5.735h2.84v-6.17c0-3.24-1.647-4.526-3.517-4.526-.823 0-1.477.202-2.066.566-.497.305-.934.736-1.325 1.299h-.042c-.45-1.126-1.507-1.865-2.887-1.865-1.77 0-2.574.894-3.047 1.65h-.043V8.549M87.638 8.08c.559 0 1.03-.292 1.09-.668l.555-6.28C89.283.508 88.55 0 87.638 0c-.918 0-1.645.51-1.645 1.131l.559 6.281c.059.376.527.668 1.086.668ZM84.239 10.045c.277-.49.26-1.035-.038-1.278l-5.172-3.62c-.538-.315-1.344.06-1.804.852-.46.791-.367 1.68.16 1.987l5.726 2.658c.367.137.846-.118 1.128-.604M91.036 10.04c.293.486.772.74 1.129.61l5.726-2.664c.532-.314.612-1.193.162-1.985-.46-.792-1.27-1.164-1.807-.856l-5.173 3.617c-.287.246-.308.793-.03 1.283M87.638 15.925c.559 0 1.03.293 1.09.668l.555 6.281c0 .622-.732 1.126-1.645 1.126-.918 0-1.645-.504-1.645-1.126l.559-6.281c.059-.375.527-.668 1.086-.668ZM91.036 13.966c.293-.487.772-.747 1.129-.606l5.726 2.66c.532.307.612 1.194.162 1.987-.46.786-1.27 1.16-1.807.852l-5.173-3.621c-.287-.244-.308-.79-.03-1.272M84.239 13.96c.277.49.26 1.033-.038 1.279l-5.172 3.615c-.538.314-1.344-.061-1.804-.848-.46-.791-.367-1.68.16-1.987l5.726-2.66c.367-.14.846.118 1.128.601ZM99.567 18.308h.07c.098 0 .137.03.148.108.02.086.032.143.053.168h.183c-.016-.018-.036-.065-.047-.173-.021-.093-.07-.146-.136-.165v-.017c.093-.02.147-.083.147-.16 0-.07-.032-.12-.064-.152a.499.499 0 0 0-.25-.053c-.115 0-.2.01-.267.026v.694h.163v-.276Zm.005-.317.083-.01c.098 0 .15.045.15.108 0 .072-.07.105-.161.105h-.072v-.203Zm.104-.47a.708.708 0 0 0-.72.698c0 .395.318.71.72.71a.703.703 0 1 0 0-1.409Zm0 .14c.309 0 .538.25.538.558 0 .31-.23.569-.538.564a.548.548 0 0 1-.543-.564c0-.307.234-.558.538-.558"/></g><defs><clipPath id="a"><path fill="#fff" d="M.392 0h100v24h-100z"/></clipPath></defs></svg>