<svg xmlns="http://www.w3.org/2000/svg" width="156" height="30" fill="none"><path fill="#fff" d="M23.74 16.367c0 1.961 1.275 3.561 3.38 3.561 2.029 0 3.38-1.522 3.38-3.56 0-2.039-1.351-3.561-3.38-3.561-2.105 0-3.38 1.625-3.38 3.56Zm9.049 5.573h-2.445V20.6c-.78.98-1.923 1.625-3.51 1.625-3.145 0-5.615-2.45-5.615-5.857 0-3.405 2.47-5.856 5.616-5.856 1.586 0 2.756.645 3.51 1.625v-1.341h2.444V21.94Zm10.061-8.927h-4.29v4.85c0 1.497.806 2.09 1.768 2.09.754 0 1.586-.335 2.262-.747l.962 1.935c-.91.593-2.028 1.109-3.432 1.109-2.548 0-4.03-1.367-4.03-4.309v-4.876h-2.236v-2.193h2.236V7.518h2.444v3.354h4.29v2.141h.026Zm4.16-.877c.91-1.264 2.288-1.625 3.406-1.625 2.678 0 4.55 1.832 4.55 4.412v6.992h-2.444v-6.192c0-1.858-.962-2.916-2.6-2.916-1.586 0-2.912 1.032-2.912 2.941v6.167h-2.444V5.195h2.444v6.941Zm12.168 3.277h5.824c-.26-1.729-1.274-2.735-2.834-2.735-1.768 0-2.73 1.11-2.99 2.735Zm8.32.954c0 .31-.026.62-.052.903h-8.294c.338 1.987 1.742 2.839 3.328 2.839 1.118 0 2.314-.439 3.25-1.161l1.222 1.728c-1.378 1.161-2.912 1.574-4.602 1.574-3.354 0-5.72-2.322-5.72-5.857 0-3.483 2.288-5.857 5.59-5.857 3.12 0 5.252 2.348 5.278 5.832Zm12.141-1.419v6.992h-2.444v-6.192c0-1.857-.961-2.915-2.6-2.915-1.585 0-2.911 1.032-2.911 2.941v6.166H69.24V10.82h2.444v1.368c.91-1.316 2.288-1.652 3.431-1.652 2.652 0 4.524 1.807 4.524 4.412Zm4.134 1.42c0 1.96 1.274 3.56 3.38 3.56 2.028 0 3.38-1.522 3.38-3.56 0-2.039-1.352-3.561-3.38-3.561-2.106 0-3.38 1.625-3.38 3.56Zm9.048 5.572h-2.444V20.6c-.78.98-1.924 1.625-3.51 1.625-3.146 0-5.616-2.45-5.616-5.857 0-3.405 2.47-5.856 5.616-5.856 1.586 0 2.756.645 3.51 1.625v-1.341h2.444V21.94Zm3.848-9.03c.858-1.445 2.418-2.064 3.926-2.064 2.756 0 4.628 1.703 4.628 4.412v6.708h-1.326v-6.295c0-2.193-1.274-3.56-3.536-3.56-2.08 0-3.692 1.47-3.692 3.611v6.218h-1.326V5.222h1.326v7.688Zm11.804 2.916h7.878c-.208-2.27-1.768-3.819-3.822-3.819-2.236 0-3.796 1.6-4.056 3.819Zm9.229.593c0 .206 0 .387-.026.542h-9.229c.208 2.554 2.002 3.999 4.264 3.999 1.534 0 2.756-.593 3.718-1.548l.702.903c-1.404 1.393-2.912 1.806-4.524 1.806-3.224 0-5.538-2.296-5.538-5.624 0-3.303 2.34-5.65 5.46-5.65 2.964 0 5.148 2.295 5.173 5.572Zm2.548.052c0 2.45 1.794 4.386 4.29 4.386s4.29-1.884 4.29-4.386c0-2.503-1.794-4.412-4.29-4.412-2.522.026-4.29 1.96-4.29 4.412Zm9.828 5.47h-1.326v-2.116c-.884 1.367-2.366 2.27-4.368 2.27-3.094 0-5.486-2.373-5.486-5.624 0-3.251 2.418-5.65 5.486-5.65 2.002 0 3.484.902 4.368 2.27V11h1.326v10.94Zm4.082 0h-1.326V5.22h1.326v16.72Zm10.218-9.727h-5.07v5.96c0 1.857.988 2.683 2.444 2.683a4.03 4.03 0 0 0 2.444-.826l.624.98c-.78.646-1.872 1.084-3.198 1.084-2.288 0-3.666-1.264-3.666-3.921v-5.986h-2.522v-1.213h2.522V7.44h1.326V11h5.07v1.214h.026Zm3.068.696c.858-1.445 2.418-2.064 3.926-2.064 2.756 0 4.628 1.703 4.628 4.412v6.708h-1.326v-6.295c0-2.193-1.274-3.56-3.536-3.56-2.08 0-3.692 1.47-3.692 3.611v6.218h-1.326V5.222h1.326v7.688ZM11.598 6.873c0 .748.624 1.367 1.378 1.367.754 0 1.378-.619 1.378-1.367s-.624-1.368-1.378-1.368c-.754.026-1.378.62-1.378 1.368Zm8.008.696s.234 5.728-2.626 9.676c-2.886 3.947-7.8 4.592-7.8 4.592s-.234-5.728 2.626-9.675c2.886-3.948 7.8-4.593 7.8-4.593ZM8.115 10.82s-2.158-2.606-2.21-5.444C5.854 2.538 7.934.5 7.934.5s2.158 2.606 2.21 5.444c.052 2.838-2.028 4.876-2.028 4.876Zm-.104 5.909v-.052c0-1.11-.208-4.567-2.027-7.07C3.774 6.59.003 6.1.003 6.1s-.182 4.412 2.028 7.43c1.586 2.142 3.925 3.019 5.173 3.354v4.748a.41.41 0 0 0 .416.413.41.41 0 0 0 .416-.413v-4.748c-.026-.077-.026-.103-.026-.154Z"/></svg>