<svg width="29" height="28" viewBox="0 0 29 28" fill="none" xmlns="http://www.w3.org/2000/svg"><path fill-rule="evenodd" clip-rule="evenodd" d="M16.5 6C16.5 7.10457 15.6046 8 14.5 8C13.3954 8 12.5 7.10457 12.5 6C12.5 4.89543 13.3954 4 14.5 4C15.6046 4 16.5 4.89543 16.5 6ZM18.5 6C18.5 8.20914 16.7091 10 14.5 10C12.2909 10 10.5 8.20914 10.5 6C10.5 3.79086 12.2909 2 14.5 2C16.7091 2 18.5 3.79086 18.5 6ZM7.5 20C9.70914 20 11.5 21.7909 11.5 24H3.5C3.5 21.7909 5.29086 20 7.5 20ZM1.5 24C1.5 20.6863 4.18629 18 7.5 18C10.8137 18 13.5 20.6863 13.5 24C13.5 25.1046 12.6046 26 11.5 26H3.5C2.39543 26 1.5 25.1046 1.5 24ZM25.5 24C25.5 21.7909 23.7091 20 21.5 20C19.2909 20 17.5 21.7909 17.5 24H25.5ZM21.5 18C18.1863 18 15.5 20.6863 15.5 24C15.5 25.1046 16.3954 26 17.5 26H25.5C26.6046 26 27.5 25.1046 27.5 24C27.5 20.6863 24.8137 18 21.5 18ZM9.5 14C9.5 15.1046 8.60457 16 7.5 16C6.39543 16 5.5 15.1046 5.5 14C5.5 12.8954 6.39543 12 7.5 12C8.60457 12 9.5 12.8954 9.5 14ZM11.5 14C11.5 16.2091 9.70914 18 7.5 18C5.29086 18 3.5 16.2091 3.5 14C3.5 11.7909 5.29086 10 7.5 10C9.70914 10 11.5 11.7909 11.5 14ZM10.585 11.4534C11.0372 12.0005 11.3466 12.6701 11.4563 13.4049C12.1899 12.5451 13.2814 12 14.5002 12C15.7189 12 16.8103 12.545 17.544 13.4046C17.515 13.5989 17.5 13.7977 17.5 14C17.5 16.2091 19.2909 18 21.5 18C23.7091 18 25.5 16.2091 25.5 14C25.5 11.7909 23.7091 10 21.5 10C20.2585 10 19.149 10.5656 18.4154 11.4533C17.3645 10.5476 15.9961 10 14.5 10C13.0038 10 11.6358 10.5476 10.585 11.4534ZM21.5 16C22.6046 16 23.5 15.1046 23.5 14C23.5 12.8954 22.6046 12 21.5 12C20.3954 12 19.5 12.8954 19.5 14C19.5 15.1046 20.3954 16 21.5 16Z" fill="currentColor"/></svg>
