<svg xmlns="http://www.w3.org/2000/svg" width="68" height="30" fill="none"><g clip-path="url(#a)"><path fill="#fff" d="M58.496 13.104c-1.136.275-4.138.428-4.138.428l-.369 1.243s1.486-.133 2.574-.02c0 0 .35-.031.389.407.02.448-.03.917-.03.917s-.028.275-.388.346c-.418.072-3.234.204-3.234.204l-.457 1.61s-.165.367.214.265c.35-.102 3.302-.693 3.69-.611.409.102.875.693.739 1.223-.155.641-3.108 2.618-4.896 2.486 0 0-.942.06-1.729-1.274-.757-1.274.263-3.668.263-3.668s-.457-1.121-.117-1.529c0 0 .194-.173.777-.224l.729-1.569s-.826.051-1.312-.58c-.446-.612-.485-.877-.136-1.04.37-.204 3.789-.846 6.14-.764 0 0 .825-.102 1.553 1.396 0 0 .33.611-.252.754m-8.868 6.032c-.292.744-1.098 1.528-2.07 1.05-.99-.49-2.554-3.832-2.554-3.832s-.583-1.243-.7-1.202c0 0-.126-.245-.194 1.12-.097 1.356.02 3.995-.515 4.413-.485.407-1.068.234-1.398-.245-.272-.479-.389-1.63-.233-3.638.174-2.007.612-4.147 1.165-4.809.583-.673 1.05-.183 1.224 0 0 0 .748.713 2.01 2.822l.215.388s1.146 2.007 1.262 1.997c0 0 .097.102.175.02.117-.03.078-.682.078-.682s-.214-2.17-1.282-5.839c0 0-.156-.469-.049-.917.097-.408.515-.204.515-.204s1.612.815 2.4 3.566c.776 2.752.252 5.248-.04 5.992m-7.916-7.061c-.156.285-.224.682-.894.794 0 0-6.508.48-6.829.958 0 0-.213.285.136.357.37.081 1.846.285 2.545.326.758 0 3.303.02 4.236 1.223 0 0 .534.57.514 1.864-.02 1.325-.243 1.794-.738 2.272-.515.449-4.925 2.527-7.77-.652 0 0-1.302-1.528.456-2.69 0 0 1.263-.815 4.497.133 0 0 .971.367.933.744-.059.407-.807.815-1.895.794-1.049-.03-1.826-.56-1.67-.468.145.05-1.137-.652-1.535-.174-.389.449-.291.714.097.989.971.59 4.789.377 5.925-.958 0 0 .457-.54-.233-.978-.68-.408-2.661-.663-3.429-.693-.728-.04-3.458 0-3.866-.744 0 0-.388-.53.04-1.977.446-1.528 3.622-2.119 5.002-2.241 0 0 3.788-.163 4.497.652 0 0 .097.183-.02.458m-10.742 8.967c-.457.357-1.428.204-1.71-.204-.272-.356-.37-1.763-.32-3.974.067-2.262.097-5.033.582-5.482.486-.438.777-.05.972.245.194.306.446.642.485 1.345.058.713.224 4.382.224 4.382s.213 3.342-.224 3.688M31.96 9.11c-1.34.48-2.254.326-3.03-.03-.34.642-.545.835-.797.876-.389.04-.729-.611-.777-.815-.078-.153-.263-.428-.04-1.05-.757-.713-.815-1.67-.68-2.313.176-.754 1.458-3.586 5.343-3.922 0 0 1.904-.143 2.234.917h.059s1.845 0 1.806 1.732c0 1.732-2.04 3.892-4.118 4.636m1.729-4.962c-1.224.204-3.109 1.915-4.012 3.332 1.39.265 3.818.163 4.905-2.14 0 0 .515-1.447-.893-1.192Zm-5.372 1.12c-.388.663-.408 1.06-.223 1.325.456-.713 1.263-1.834 2.477-2.71-.933.102-1.72.51-2.254 1.386ZM61.41 20.96c-.893 2.303-1.651 4.636-2.088 8.13 0 0-.097.684-.632.46-.534-.204-1.408-1.121-1.602-2.416-.194-1.69.524-4.544 1.991-7.825-.427-.713-.728-1.773-.486-3.26 0 0 .389-2.752 3.012-5.238 0 0 .31-.275.485-.183.214.101.127.978-.048 1.426-.156.428-1.321 2.547-1.321 2.547s-.729 1.447-.525 2.579c1.38-2.222 4.517-6.726 6.46-5.299 1.233.917 1.233 3.872.31 5.584-.728 1.355-2.787 4.157-5.536 3.505m4.04-6.929c-.718.815-2 2.364-3.01 4.463 1.068-.122 2.107-.744 2.428-1.06.515-.479 1.7-1.773 1.515-3.484 0 0-.117-.897-.932.081Zm-43.516 8.121c-3.439 1.1-6.683.591-8.45.102-.05.754-.127 1.07-.244 1.192-.136.163-1.262.836-1.884-.122-.272-.459-.408-1.284-.486-2.038-3.982-1.895-5.828-4.687-5.886-4.789-.097-.102-1-1.09-.097-2.313.845-1.1 3.642-2.211 6.148-2.65.098-2.241.33-3.973.632-4.737.36-.917.816-.102 1.224.51.33.458.534 2.424.553 3.993 1.632-.081 2.623.041 4.44.408 2.389.428 3.982 1.712 3.856 3.159-.117 1.426-1.36 2.017-1.846 2.058-.486.04-1.263-.336-1.263-.336-.544-.265-.048-.51.583-.795.7-.357.544-.713.544-.713-.252-.816-3.351-1.356-6.43-1.356 0 1.784.068 4.739.116 6.46 2.157.428 3.77.337 3.77.337s7.867-.235 8.09-5.502c.243-5.279-7.868-10.333-13.841-11.922-5.964-1.64-9.345-.48-9.636-.326-.32.163-.03.224-.03.224s.321.05.904.255c.583.203.117.51.117.51-1.02.366-2.157.152-2.38-.337-.224-.479.146-.917.583-1.56.408-.661.874-.641.874-.641 7.382-2.7 16.396 2.14 16.396 2.14 8.432 4.463 9.87 9.71 9.714 11.748-.136 2.007-.874 5.4-6.071 7.051M5.732 14.877c-.835.407-.252 1.06-.252 1.06 1.573 1.762 3.497 2.873 5.342 3.566.214-3.057.195-4.148.195-5.686-2.856.204-4.508.693-5.285 1.06Z"/></g><defs><clipPath id="a"><path fill="#fff" d="M0 0h68v30H0z"/></clipPath></defs></svg>