<svg xmlns="http://www.w3.org/2000/svg" width="40" height="40" fill="none"><g fill="#fff" clip-path="url(#a)"><path d="M7.041 34.948c-.28.006-.559.04-.735.1-.365.123-.742.435-.915.757-.117.218-.13.339-.149 1.316-.012.707.004 1.152.05 1.302.15.5.54.887 1.06 1.056.165.053.445.075.807.064.87-.026 1.364-.307 1.642-.933.114-.256.136-.422.156-1.175.027-1.01-.036-1.415-.276-1.77a1.79 1.79 0 0 0-.904-.65c-.176-.051-.456-.073-.736-.067Zm.078.869c.249.007.495.093.66.264l.168.175.017.941c.018 1.066-.025 1.213-.413 1.396-.421.199-.978.077-1.234-.27-.11-.15-.121-.246-.121-1.076 0-.798.014-.931.11-1.073.166-.244.492-.366.813-.357ZM19.114 39.504c-.477-.143-.778-.49-.857-.986l-.046-.293h.48c.48 0 .48 0 .554.176.128.308.498.388.779.169l.152-.12.016-1.726.015-1.725h.934l.016 1.711c.018 2.002-.012 2.192-.395 2.518-.128.11-.334.229-.459.266-.255.076-.948.082-1.19.01ZM24.145 34.946c-.483 0-.599.02-.904.16-.433.2-.582.335-.778.707-.144.274-.154.347-.175 1.288-.018.8-.003 1.062.073 1.324.151.517.617.947 1.171 1.082.335.082 1.058.058 1.38-.046.446-.143.884-.577 1.008-1 .126-.428.13-2.007.007-2.422-.122-.408-.417-.726-.859-.926-.322-.146-.437-.167-.923-.167Zm.014.874c.196.004.392.047.523.127.306.189.339.317.339 1.343 0 .855-.009.93-.127 1.08a.944.944 0 0 1-.319.24c-.434.18-.985.05-1.187-.28-.105-.17-.118-.293-.118-1.084 0-.988.038-1.124.369-1.319.128-.075.324-.11.52-.107ZM37.172 39.475c-.336-.104-.668-.34-.847-.601-.159-.232-.299-.676-.242-.767.02-.031.24-.057.488-.057.453 0 .454 0 .537.185.141.313.356.425.811.425.472 0 .644-.108.644-.406 0-.273-.15-.37-.857-.55-.813-.21-.9-.245-1.183-.5a1.267 1.267 0 0 1-.086-1.766c.674-.743 2.258-.65 2.8.164.081.123.164.319.183.435l.034.212h-.47c-.435 0-.477-.011-.577-.148-.332-.454-1.303-.346-1.303.146 0 .249.205.372.91.548.71.178.91.265 1.178.52.2.187.364.611.363.935a1.28 1.28 0 0 1-.93 1.218c-.38.112-1.102.116-1.453.007ZM.476 34.999.46 37.251l-.016 2.252h1.12c1.34 0 1.66-.065 2.066-.422.471-.412.519-.562.542-1.713.015-.807 0-1.058-.075-1.285-.136-.407-.427-.715-.86-.913-.368-.166-.373-.167-1.565-.169l-1.197-.002Zm.963.9h.62c.516 0 .653.02.807.115.314.193.353.335.353 1.257 0 .93-.044 1.057-.442 1.259-.15.076-.342.101-.769.101H1.44V35.9ZM10.69 39.373c-.096-.4-.846-4.211-.846-4.299 0-.091.057-.104.462-.104h.462l.057.276c.031.152.157.819.278 1.481.122.663.23 1.197.24 1.188.01-.01.15-.46.314-1.002l.443-1.466.146-.483.299.018.299.017.436 1.468c.24.807.443 1.46.453 1.45.009-.009.136-.652.282-1.43.146-.777.28-1.436.298-1.465.04-.063.883-.07.921-.008.015.024-.174 1.044-.419 2.266l-.446 2.224H13.314l-.372-1.192c-.205-.655-.388-1.19-.407-1.19-.02 0-.119.268-.22.595l-.373 1.19-.188.597h-.516c-.487 0-.518-.008-.548-.131ZM27.136 37.251 27.152 35l.467-.016.467-.016.905 1.44.904 1.439.016-1.438.015-1.438h.932V39.503h-.963l-.875-1.392-.876-1.392-.016 1.392-.015 1.392h-.992l.015-2.252ZM32.086 37.236v-2.268l1.503.016 1.503.015v.872l-1.007.016-1.007.016v.866l.89.016.89.016.018.421.017.422h-1.815v.988h2.043v.872h-3.035v-2.268ZM9.145 13.406V.444l7.165.018 7.166.018.612.153c2.972.74 5.152 2.63 6.219 5.391.256.665.492 1.741.535 2.448l.036.577H26.547l-.033-.276c-.112-.918-.403-1.648-.924-2.322-.52-.674-1.305-1.22-2.173-1.515l-.467-.159-4.714-.016-4.713-.017v17.324h4.32v4.3H9.144V13.407Z"/><path d="M21.11 24.235v-2.15l.773-.039c.425-.021.94-.078 1.143-.125 1.248-.292 2.456-1.242 3.019-2.374.47-.947.454-.797.478-4.207l.022-3.037h4.32l-.022 3.299-.022 3.298-.151.61c-.425 1.715-1.161 3.028-2.381 4.242a8.679 8.679 0 0 1-3.376 2.118c-.964.332-1.6.442-2.768.48l-1.036.035v-2.15Z"/></g><defs><clipPath id="a"><path fill="#fff" d="M0 0h40v40H0z"/></clipPath></defs></svg>