<svg width="29" height="28" viewBox="0 0 29 28" fill="none" xmlns="http://www.w3.org/2000/svg">
<path d="M14.5 17.5C16.9162 17.5 18.875 15.5412 18.875 13.125C18.875 10.7088 16.9162 8.75 14.5 8.75C12.0838 8.75 10.125 10.7088 10.125 13.125C10.125 15.5412 12.0838 17.5 14.5 17.5ZM14.5 17.5C13.0457 17.5 11.6198 17.9018 10.3804 18.6626C9.141 19.4234 8.13644 20.5125 7.4781 21.8092M14.5 17.5C15.9543 17.5 17.3801 17.9018 18.6195 18.6626C19.859 19.4234 20.8635 20.5125 21.5219 21.8092M25 14C25 19.799 20.299 24.5 14.5 24.5C8.70101 24.5 4 19.799 4 14C4 8.20101 8.70101 3.5 14.5 3.5C20.299 3.5 25 8.20101 25 14Z" stroke="currentColor" stroke-width="2" stroke-linecap="round" stroke-linejoin="round"/>
</svg>
