<svg xmlns="http://www.w3.org/2000/svg" width="36" height="36" fill="none"><path fill="#2684FF" d="m28.932 17.731-9.967-9.966L18 6.8 7.068 17.73a.917.917 0 0 0 0 1.296l6.854 6.854 4.077 4.079 10.933-10.933a.917.917 0 0 0 0-1.296Zm-10.933 4.072-3.423-3.423 3.423-3.424 3.424 3.424L18 21.803Z"/><path fill="url(#a)" d="M18 14.955a5.766 5.766 0 0 1-.025-8.129l-7.493 7.49 4.079 4.079 3.438-3.44Z"/><path fill="url(#b)" d="m21.433 18.37-3.434 3.433a5.766 5.766 0 0 1 0 8.157l7.51-7.512-4.076-4.078Z"/><defs><linearGradient id="a" x1="16.528" x2="12.607" y1="12.352" y2="16.272" gradientUnits="userSpaceOnUse"><stop stop-color="#0052CC"/><stop offset="1" stop-color="#2684FF"/></linearGradient><linearGradient id="b" x1="19.513" x2="23.426" y1="24.369" y2="20.456" gradientUnits="userSpaceOnUse"><stop stop-color="#0052CC"/><stop offset="1" stop-color="#2684FF"/></linearGradient></defs></svg>
