<svg xmlns="http://www.w3.org/2000/svg" width="36" height="36" fill="none"><path fill="url(#a)" fill-rule="evenodd" d="M10 9.095c-.552 0-1 .47-1 1.048 0 .578.448 1.047 1 1.047s1-.469 1-1.047c0-.579-.448-1.048-1-1.048Zm-3 1.048C7 8.407 8.343 7 10 7s3 1.407 3 3.143c0 1.736-1.343 3.143-3 3.143s-3-1.407-3-3.143Zm15 5.238a4.887 4.887 0 0 0-3.535 1.534A5.367 5.367 0 0 0 17 20.62v6.286h2v-6.286c0-.834.316-1.633.879-2.222a2.932 2.932 0 0 1 2.121-.92c.796 0 1.559.33 2.121.92A3.22 3.22 0 0 1 25 20.619v6.286h2v-6.286c0-1.39-.527-2.721-1.465-3.704A4.887 4.887 0 0 0 22 15.381Zm-4.95.053c1.313-1.376 3.093-2.148 4.95-2.148 1.857 0 3.637.772 4.95 2.148 1.313 1.375 2.05 3.24 2.05 5.185v7.333c0 .579-.448 1.048-1 1.048h-4c-.552 0-1-.469-1-1.048V20.62c0-.278-.105-.544-.293-.74A.977.977 0 0 0 22 19.57c-.265 0-.52.11-.707.307a1.073 1.073 0 0 0-.293.741v7.333c0 .579-.448 1.048-1 1.048h-4c-.552 0-1-.469-1-1.048V20.62c0-1.945.738-3.81 2.05-5.185ZM7 15.38c0-.579.448-1.048 1-1.048h4c.552 0 1 .47 1 1.048v12.571c0 .579-.448 1.048-1 1.048H8c-.552 0-1-.469-1-1.048V15.381Zm2 1.048v10.476h2V16.429H9Z" clip-rule="evenodd"/><defs><linearGradient id="a" x1="18" x2="18" y1="7" y2="29" gradientUnits="userSpaceOnUse"><stop stop-color="#C3C8D5"/><stop offset="1" stop-color="#8791AB"/></linearGradient></defs></svg>
