<svg xmlns="http://www.w3.org/2000/svg" width="36" height="36" fill="none"><path fill="url(#a)" fill-rule="evenodd" d="M10 9a1 1 0 1 0 0 2 1 1 0 0 0 0-2Zm-3 1a3 3 0 1 1 6 0 3 3 0 0 1-6 0Zm15 5a5 5 0 0 0-5 5v6h2v-6a3 3 0 0 1 6 0v6h2v-6a5 5 0 0 0-5-5Zm-4.95.05A7 7 0 0 1 29 20v7a1 1 0 0 1-1 1h-4a1 1 0 0 1-1-1v-7a1 1 0 0 0-2 0v7a1 1 0 0 1-1 1h-4a1 1 0 0 1-1-1v-7a7 7 0 0 1 2.05-4.95ZM7 15a1 1 0 0 1 1-1h4a1 1 0 0 1 1 1v12a1 1 0 0 1-1 1H8a1 1 0 0 1-1-1V15Zm2 1v10h2V16H9Z" clip-rule="evenodd"/><defs><linearGradient id="a" x1="18" x2="18" y1="7" y2="28" gradientUnits="userSpaceOnUse"><stop stop-color="#C3C8D5"/><stop offset="1" stop-color="#8791AB"/></linearGradient></defs></svg>
