<svg xmlns="http://www.w3.org/2000/svg" width="36" height="36" fill="none"><path fill="#E53E4B" fill-rule="evenodd" d="M17.298 7.017c-.13.008-.383.032-.561.053-3.225.377-6.11 2.161-7.923 4.9a10.967 10.967 0 0 0-1.76 7.117 11.051 11.051 0 0 0 8.46 9.627c2.516.583 5.13.268 7.421-.894a11.02 11.02 0 0 0 4.909-4.937c.262-.529.412-.89.592-1.432.628-1.885.733-3.872.308-5.804a11.069 11.069 0 0 0-4.166-6.451 10.967 10.967 0 0 0-5.92-2.18 14.17 14.17 0 0 0-1.36.001Zm1.688 2.452c1.032.129 1.892.382 2.764.815a8.934 8.934 0 0 1 3.956 3.951c.494.99.764 1.988.852 3.146.028.363.012 1.233-.028 1.579-.23 1.963-1.06 3.666-2.483 5.09a8.855 8.855 0 0 1-1.403 1.151 7.52 7.52 0 0 1-.958.546c-.882.435-1.725.678-2.764.796-.275.032-1.261.043-1.606.019-1.812-.126-3.375-.752-4.716-1.888a14.915 14.915 0 0 1-1.11-1.121c-1.152-1.343-1.815-2.854-2.019-4.593a10.258 10.258 0 0 1 .021-2.08c.3-2.36 1.607-4.485 3.65-5.938a8.324 8.324 0 0 1 3.883-1.471c.392-.043.379-.043 1.067-.038.473.003.714.013.894.036Zm-1.296.952c-.297.025-.664.07-.875.109a7.408 7.408 0 0 0-3.357 1.516 9.552 9.552 0 0 0-.984.947c-1.753 2.028-2.309 4.947-1.433 7.527a7.287 7.287 0 0 0 1.475 2.535c.198.226.797.814.996.98.2.164.303.24.283.207l-.092-.145a4.887 4.887 0 0 1-.739-2.124 6.98 6.98 0 0 1 .028-1.198c.29-1.855 1.466-3.35 3.195-4.058 1.184-.485 2.622-.489 3.824-.01a5.175 5.175 0 0 1 2.716 2.49c.26.517.405.971.501 1.57.04.247.056.948.028 1.215-.077.754-.374 1.585-.774 2.17l-.056.082.09-.08.365-.309a7.04 7.04 0 0 0 1.209-1.27 7.738 7.738 0 0 0 1.481-4.053c.124-1.705-.379-3.59-1.363-5.11a11.04 11.04 0 0 0-.546-.745 6.412 6.412 0 0 0-.58-.541c-1.123-.933-2.434-1.485-3.969-1.672a14.842 14.842 0 0 0-1.423-.034Zm-.009 6.843a4.18 4.18 0 0 0-2.805 1.641 4.14 4.14 0 0 0-.622 3.79 4.139 4.139 0 0 0 1.633 2.132c.193.127.545.324.545.304a.802.802 0 0 0-.074-.097c-.177-.214-.298-.544-.325-.889-.031-.385.024-.703.18-1.029.229-.482.606-.859 1.083-1.083.643-.301 1.454-.215 2.043.217.713.524 1.029 1.43.77 2.205a2.656 2.656 0 0 1-.267.565c-.085.14-.086.14.156.027.561-.26 1.103-.744 1.487-1.326.643-.974.85-2.193.571-3.374-.287-1.22-1.066-2.224-2.121-2.732-.36-.174-.79-.3-1.192-.352a5.506 5.506 0 0 0-1.062 0Z" clip-rule="evenodd"/></svg>
