<svg xmlns="http://www.w3.org/2000/svg" width="36" height="36" fill="none"><path fill="url(#a)" fill-rule="evenodd" d="M18.694 23.423c-3.36.418-10.315 1.153-11.894.106 0-1.071 1.907-5.085 3.363-8.054 1.098-2.237 2.6-4.261 3.934-6.056.435-.586.853-1.149 1.232-1.686-2.293 3.412-6.402 10.946-5.001 13.483.645 1.614 6.285 2.436 8.366 2.207Zm1.248-15.125c-1.705.828-4.61 7.188-5.96 10.294.86-1.908 4.439-6.346 6.156-6.08 2.897.085 7.292 7.456 9.062 11.166-.27-.6-.541-1.245-.824-1.919-.867-2.06-1.844-4.384-3.212-6.467-1.815-2.764-4.3-6.448-5.222-6.994ZM27.34 27.58c.18-1.886-3.742-7.676-5.692-10.444 1.181 1.728 3.111 7.092 1.991 8.42-1.58 2.43-10.16 2.352-14.25 1.934.652.082 1.345.185 2.068.294 2.21.33 4.703.704 7.194.62 3.305-.113 7.744-.32 8.69-.824Z" clip-rule="evenodd"/><defs><linearGradient id="a" x1="18" x2="18" y1="7.733" y2="28.416" gradientUnits="userSpaceOnUse"><stop stop-color="#C3C8D5"/><stop offset="1" stop-color="#8791AB"/></linearGradient></defs></svg>
