<svg xmlns="http://www.w3.org/2000/svg" width="36" height="36" fill="none"><path fill="#009DC4" d="m21.247 26.13 8.65-10.56c.277-.339-.047-.832-.469-.715l-2.648.737a.449.449 0 0 0-.227.147l-8 9.728a.447.447 0 0 0-.102.284v1.606c0 .15.075.29.2.373l1.797 1.194a.45.45 0 0 0 .698-.372v-2.139a.45.45 0 0 1 .101-.283Zm-6.494 0-8.65-10.56c-.277-.339.047-.832.469-.715l2.648.737a.449.449 0 0 1 .227.147l8 9.728a.44.44 0 0 1 .102.284v1.606c0 .15-.075.29-.2.373l-1.797 1.194a.45.45 0 0 1-.698-.372v-2.139a.447.447 0 0 0-.101-.283Zm2.544-18.803a.92.92 0 0 1 1.406 0l2.24 2.697a.87.87 0 0 1 0 1.116l-2.24 2.697a.92.92 0 0 1-1.406 0l-2.24-2.697a.87.87 0 0 1 0-1.116l2.24-2.697Zm0 9.851a.919.919 0 0 1 1.406 0l2.24 2.697a.87.87 0 0 1 0 1.116l-2.24 2.697a.919.919 0 0 1-1.406 0l-2.24-2.697a.87.87 0 0 1 0-1.116l2.24-2.697Zm4.043-4.925a.92.92 0 0 1 1.407 0l2.24 2.697a.87.87 0 0 1 0 1.116l-2.24 2.696a.92.92 0 0 1-1.407 0l-2.239-2.697a.87.87 0 0 1 0-1.116l2.24-2.696Zm-8.087 0a.92.92 0 0 1 1.406 0l2.24 2.697a.87.87 0 0 1 0 1.116l-2.24 2.696a.92.92 0 0 1-1.406 0l-2.24-2.697a.87.87 0 0 1 0-1.116l2.24-2.696Z"/></svg>
