<svg xmlns="http://www.w3.org/2000/svg" width="36" height="36" fill="none"><path fill="url(#a)" fill-rule="evenodd" d="M7.542 10.257C6.485 8.949 7.416 7 9.098 7h3.265a2 2 0 0 1 1.555.743l14.547 18C29.522 27.05 28.591 29 26.91 29h-3.265a2 2 0 0 1-1.556-.743l-14.547-18ZM12.362 9H9.099l7.183 8.888 1.793 2.22L23.644 27h3.266l-7.075-8.754-1.794-2.22L12.363 9Z" clip-rule="evenodd"/><path fill="url(#b)" fill-rule="evenodd" d="M7.833 28.881a1.414 1.414 0 0 1-.056-2l8.504-8.993 1.793 2.22 1.76-1.862-1.793-2.22 8.412-8.897a1.414 1.414 0 0 1 2.055 1.943l-8.673 9.174-1.76 1.862-8.243 8.717a1.414 1.414 0 0 1-1.999.056Z" clip-rule="evenodd"/><defs><linearGradient id="a" x1="18.004" x2="18.004" y1="6.687" y2="29.268" gradientUnits="userSpaceOnUse"><stop stop-color="#C3C8D5"/><stop offset="1" stop-color="#8791AB"/></linearGradient><linearGradient id="b" x1="18.004" x2="18.004" y1="6.687" y2="29.268" gradientUnits="userSpaceOnUse"><stop stop-color="#C3C8D5"/><stop offset="1" stop-color="#8791AB"/></linearGradient></defs></svg>
