<svg xmlns="http://www.w3.org/2000/svg" width="36" height="36" fill="none"><path fill="url(#a)" fill-rule="evenodd" d="M20.526 8.35a5.48 5.48 0 0 1 5.607 1.034 9.9 9.9 0 0 0 2.29-1.202 1 1 0 0 1 1.549 1.054 8.719 8.719 0 0 1-1.995 3.774c.015.162.023.324.023.486v.003c0 6.1-2.937 10.575-7.155 12.82-4.194 2.233-9.554 2.208-14.33-.445A1 1 0 0 1 7.04 24a10.64 10.64 0 0 0 4.875-.968c-1.503-.927-2.586-2.028-3.338-3.216-1.004-1.585-1.382-3.264-1.451-4.771-.068-1.503.17-2.857.421-3.827a13.088 13.088 0 0 1 .483-1.492l.039-.092.011-.027.004-.009.001-.003-.001.003.002-.005a1 1 0 0 1 1.732-.168A9.66 9.66 0 0 0 17 13.505a5.48 5.48 0 0 1 3.526-5.155ZM9.405 12.043c-.184.801-.33 1.818-.281 2.91.056 1.243.365 2.565 1.143 3.793.773 1.221 2.05 2.41 4.14 3.34a1 1 0 0 1 .155 1.74 12.64 12.64 0 0 1-3.602 1.689c3.17.808 6.347.422 8.945-.96C23.436 22.674 26 18.9 26 13.5c0-.216-.022-.432-.062-.644a1 1 0 0 1 .28-.9c.223-.22.429-.454.618-.7-.227.083-.456.16-.688.23a1 1 0 0 1-1.043-.301A3.48 3.48 0 0 0 19 13.516v1.013a1 1 0 0 1-.974 1 11.66 11.66 0 0 1-8.621-3.486Z" clip-rule="evenodd"/><defs><linearGradient id="a" x1="18" x2="18" y1="7.989" y2="27.933" gradientUnits="userSpaceOnUse"><stop stop-color="#C3C8D5"/><stop offset="1" stop-color="#8791AB"/></linearGradient></defs></svg>
