<svg xmlns="http://www.w3.org/2000/svg" width="36" height="36" fill="none"><path fill="url(#a)" fill-rule="evenodd" d="M29 13.28v9.44c0 .97-.66 1.67-1.47 1.764-2.19.252-5.46.516-9.53.516-4.07 0-7.34-.264-9.53-.516C7.66 24.39 7 23.689 7 22.72v-9.442c0-.968.66-1.67 1.47-1.763C10.66 11.264 13.93 11 18 11c4.07 0 7.34.264 9.53.516.81.093 1.47.795 1.47 1.763Zm-24 0c0-1.907 1.348-3.533 3.242-3.75C10.498 9.27 13.844 9 18 9c4.156 0 7.502.27 9.758.53C29.653 9.746 31 11.372 31 13.28v9.44c0 1.908-1.348 3.533-3.242 3.75-2.256.26-5.602.53-9.758.53-4.156 0-7.502-.27-9.758-.53C6.348 26.254 5 24.629 5 22.72v-9.44Zm11.555-.112A1 1 0 0 0 15 14v8a1 1 0 0 0 1.555.832l6-4a1 1 0 0 0 0-1.664l-6-4ZM17 20.131v-4.263L20.197 18 17 20.131Z" clip-rule="evenodd"/><defs><linearGradient id="a" x1="18" x2="18" y1="9" y2="27" gradientUnits="userSpaceOnUse"><stop stop-color="#C3C8D5"/><stop offset="1" stop-color="#8791AB"/></linearGradient></defs></svg>
