<svg xmlns="http://www.w3.org/2000/svg" width="106" height="18" viewBox="0 0 106 18">
  <path fill="#5B7073" d="M3.86607229,8.824165 L2.57604817,8.824165 L2.57604817,13.5002524 L0,13.5002524 L0,0.700013089 L4.12207708,0.700013089 C5.41676795,0.700013089 6.41678665,1.03335266 7.12213317,1.70003179 C7.8274797,2.36671092 8.1788196,3.32339548 8.17615288,4.57008545 C8.17615288,6.26878388 7.55814133,7.45813946 6.32211821,8.13815217 L8.57616036,13.3782502 L8.57616036,13.5022525 L5.7921083,13.5022525 L3.86607229,8.824165 Z M2.57604817,6.67212476 L4.04407562,6.67212476 C4.49187799,6.70270469 4.92593206,6.51037384 5.20409731,6.15811515 C5.47996299,5.75407862 5.61557387,5.27065743 5.59010453,4.78208942 C5.59543796,3.49273198 5.09742865,2.84805325 4.09607659,2.84805325 L2.57604817,2.84805325 L2.57604817,6.67212476 Z M13.1922467,13.6722557 C11.9148895,13.6722557 10.9188708,13.2915819 10.2041908,12.5302343 C9.48951077,11.7688867 9.13217076,10.6788663 9.13217076,9.26017315 L9.13217076,8.50815909 C9.13217076,7.00813104 9.46017689,5.85077607 10.1161892,5.03609417 C10.7722014,4.22141227 11.7128857,3.81407132 12.9382419,3.81407132 C14.1382644,3.81407132 15.0376145,4.19607846 15.6362924,4.96009275 C16.2349702,5.72410703 16.5423093,6.85746156 16.5583096,8.36015632 L16.5583096,9.58017913 L11.6182172,9.58017913 C11.6528846,10.2921924 11.8082208,10.8128689 12.084226,11.1422083 C12.3602311,11.4715478 12.7849057,11.6362176 13.3582498,11.6362176 C14.1450231,11.6556665 14.9028789,11.3392872 15.4422887,10.7662013 L16.418307,12.2682294 C16.0741188,12.7211436 15.6158241,13.0745275 15.0902822,13.2922485 C14.4948919,13.5536583 13.8504431,13.684594 13.2002468,13.6762557 L13.1922467,13.6722557 Z M11.6362176,7.84814675 L14.1242641,7.84814675 L14.1242641,7.6101423 C14.14074,7.1587287 14.0437827,6.7103874 13.8422588,6.30611791 C13.6662555,6.01011238 13.3615832,5.86210961 12.9282417,5.86210961 C12.5484681,5.83101213 12.1824598,6.0117095 11.9762239,6.3321184 C11.7842203,6.64545759 11.6708849,7.15080038 11.6362176,7.84814675 Z M25.1764708,9.04816919 C25.1764708,10.5428638 24.9197993,11.6882186 24.4064564,12.4842334 C23.8931134,13.2802483 23.1297658,13.6802558 22.1164135,13.6842559 C21.3770681,13.701904 20.6777301,13.3492335 20.2523787,12.7442383 L20.2523787,17.1643209 L17.7763324,17.1643209 L17.7763324,3.99007461 L20.0783754,3.99007461 L20.1763773,4.86009088 C20.5941677,4.19355913 21.3319705,3.79616382 22.1184136,3.81407132 C23.1317659,3.81407132 23.8951135,4.18341156 24.4084564,4.92209204 C24.9217993,5.66077251 25.1838042,6.79412704 25.1944711,8.32215561 L25.1944711,9.04816919 L25.1764708,9.04816919 Z M22.6984244,8.43215767 C22.6984244,7.50947375 22.5970892,6.85679488 22.3944187,6.47412106 C22.2005123,6.09609088 21.8003058,5.86964791 21.3763997,5.89811029 C20.909802,5.87332933 20.4723975,6.12573834 20.2603788,6.54212233 L20.2603788,11.0122059 C20.4828698,11.4243816 20.9274274,11.6666537 21.3944,11.6302175 C21.8346133,11.6625147 22.2464721,11.4107338 22.4184192,11.0042058 C22.6090894,10.5868646 22.7044245,9.93751915 22.7044245,9.05616934 L22.7044245,8.42815759 L22.6984244,8.43215767 Z M26.1784895,8.43215767 C26.1784895,6.99079738 26.5184959,5.85744286 27.1985086,5.03209409 C27.8785213,4.20674533 28.8192055,3.79673766 30.0205613,3.80207109 C31.2339174,3.80207109 32.179935,4.21207876 32.8586144,5.03209409 C33.5372938,5.85210943 33.8773001,6.98879735 33.8786335,8.44215786 L33.8786335,9.04216907 C33.8786335,10.4888628 33.5419605,11.6222173 32.8686146,12.4422327 C32.1952687,13.262248 31.2519177,13.6695889 30.0385617,13.6642555 C28.8198722,13.6642555 27.8718545,13.2555812 27.1945085,12.4382326 C26.5171625,11.620884 26.1784895,10.4875294 26.1784895,9.038169 L26.1784895,8.43815778 L26.1784895,8.43215767 Z M28.6745362,9.05816937 C28.6745362,10.7675347 29.1285447,11.6222173 30.0365616,11.6222173 C30.8739106,11.6222173 31.3252524,10.9088706 31.390587,9.4821773 L31.390587,8.43015763 C31.390587,7.55814133 31.2705847,6.91079589 31.0305802,6.48812132 C30.8412465,6.09806438 30.4441218,5.85200275 30.0105612,5.8561095 C29.5865781,5.85752954 29.2015908,6.10379666 29.0225427,6.48812132 C28.7852049,6.90946253 28.666536,7.55680797 28.666536,8.43015763 L28.666536,9.05816937 L28.6745362,9.05816937 Z M39.8527452,6.38411937 L39.0267297,6.31411806 C38.346717,6.31411806 37.8867084,6.61279032 37.6467039,7.21013482 L37.6467039,13.4942523 L35.1586574,13.4942523 L35.1586574,3.99007461 L37.5047013,3.99007461 L37.5767026,5.01809383 C37.96871,4.21807887 38.5107201,3.81807139 39.202733,3.81807139 C39.4367384,3.80963404 39.6700467,3.84840539 39.8887459,3.93207352 L39.8527452,6.38411937 Z M44.1168249,1.64803082 L44.1168249,3.99007461 L45.3908487,3.99007461 L45.3908487,5.84810935 L44.1168249,5.84810935 L44.1168249,10.5761978 C44.0928747,10.8436323 44.1463332,11.1123132 44.2708278,11.3502122 C44.3734964,11.4915482 44.5735001,11.5622162 44.870839,11.5622162 C45.068683,11.5666682 45.2662855,11.5458326 45.45885,11.500215 L45.4348496,13.4482515 C44.9956369,13.6098044 44.5307871,13.6904416 44.0628239,13.6862559 C42.462794,13.6862559 41.6514455,12.765572 41.6287784,10.9242043 L41.6287784,5.84810935 L40.5307579,5.84810935 L40.5307579,3.99007461 L41.6287784,3.99007461 L41.6287784,1.64803082 L44.1168249,1.64803082 Z M50.3609417,8.99616821 L50.3609417,13.4962524 L47.7768934,13.4962524 L47.7768934,0.696013014 L52.1369749,0.696013014 C53.4023319,0.696013014 54.4116841,1.08868702 55.1650315,1.87403504 C55.9183789,2.65938306 56.2950526,3.67873545 56.2950526,4.93209222 C56.2950526,6.18544899 55.9230457,7.1754675 55.1790318,7.90214776 C54.4350179,8.62882801 53.4036652,8.99216814 52.0849739,8.99216814 L50.3629417,8.99216814 L50.3609417,8.99616821 Z M50.3609417,6.84212794 L52.1369749,6.84212794 C52.5722478,6.86742203 52.9944572,6.68848214 53.2789962,6.35811889 C53.5456679,6.03544619 53.6790037,5.56877079 53.6790037,4.95809271 C53.7067253,4.41896727 53.5616879,3.88506157 53.264996,3.43406421 C53.0181508,3.06638537 52.6038271,2.84646355 52.1609753,2.84805325 L50.3609417,2.84805325 L50.3609417,6.84812805 L50.3609417,6.84212794 Z M56.9470648,8.44215786 C56.9470648,7.00079757 57.2870712,5.86744305 57.9670839,5.04209428 C58.6470966,4.21674551 59.5877809,3.80673785 60.7891367,3.81207128 C62.0024927,3.81207128 62.9485104,4.22207895 63.6271897,5.04209428 C64.3058691,5.86210961 64.6458754,6.99879753 64.6472088,8.45215804 L64.6472088,9.05216926 C64.6472088,10.498863 64.3105358,11.6322175 63.6371899,12.4522328 C62.963844,13.2722482 62.020493,13.6795891 60.807137,13.6742557 C59.5884475,13.6742557 58.6404298,13.2655814 57.9630838,12.4482328 C57.2857378,11.6308841 56.9470648,10.4975296 56.9470648,9.04816919 L56.9470648,8.44815797 L56.9470648,8.44215786 Z M59.4431115,9.06816956 C59.4431115,10.7775349 59.89712,11.6322175 60.805137,11.6322175 C61.642486,11.6322175 62.0938277,10.9188708 62.1591623,9.49217749 L62.1591623,8.44015782 C62.1591623,7.56814151 62.03916,6.92079607 61.7991555,6.4981215 C61.6098219,6.10806457 61.2126971,5.86200294 60.7791365,5.86610969 C60.3551534,5.86752973 59.9701662,6.11379685 59.791118,6.4981215 C59.5537802,6.91946272 59.4351113,7.56680815 59.4351113,8.44015782 L59.4351113,9.06816956 L59.4431115,9.06816956 Z M70.6213205,6.39411956 L69.7953051,6.32411825 C69.1152923,6.32411825 68.6552837,6.6227905 68.4152793,7.22013501 L68.4152793,13.5042525 L65.9192326,13.5042525 L65.9192326,3.99007461 L68.2652765,3.99007461 L68.3352778,5.01809383 C68.7272851,4.21807887 69.2692952,3.81807139 69.9613082,3.81807139 C70.1953135,3.80963404 70.4286218,3.84840539 70.647321,3.93207352 L70.6213205,6.39411956 Z M74.8754001,1.64803082 L74.8754001,3.99007461 L76.1494239,3.99007461 L76.1494239,5.84810935 L74.8754001,5.84810935 L74.8754001,10.5761978 C74.8514498,10.8436323 74.9049083,11.1123132 75.0294029,11.3502122 C75.1320715,11.4915482 75.3320753,11.5622162 75.6294142,11.5622162 C75.8272581,11.5666682 76.0248606,11.5458326 76.2174251,11.500215 L76.1954247,13.4482515 C75.7562121,13.6098044 75.2913623,13.6904416 74.8233991,13.6862559 C73.2233692,13.6862559 72.4120207,12.765572 72.3893536,10.9242043 L72.3893536,5.84810935 L71.291333,5.84810935 L71.291333,3.99007461 L72.3893536,3.99007461 L72.3893536,1.64803082 L74.8774001,1.64803082 L74.8754001,1.64803082 Z M81.8555306,13.4962524 C81.7584778,13.258762 81.6880465,13.0112464 81.6455266,12.7582386 C81.2356953,13.3495404 80.5546242,13.6934625 79.8354928,13.6722557 C79.0924163,13.6922173 78.3744727,13.4024318 77.8534557,12.8722407 C77.3215926,12.3262935 77.0374002,11.5858022 77.067441,10.8242024 C77.067441,9.82818377 77.385447,9.05750269 78.0214589,8.51215916 C78.6574708,7.96681563 79.5728212,7.68881044 80.7675102,7.67814357 L81.5235244,7.67814357 L81.5235244,6.92612951 C81.5235244,6.4981215 81.4501897,6.19611586 81.3035203,6.02011257 C81.1418929,5.83751411 80.9048335,5.74003176 80.6615082,5.75610763 C80.0401633,5.75610763 79.7294908,6.11944776 79.7294908,6.84612801 L77.2414443,6.84612801 C77.2225216,6.00823022 77.5861739,5.20731188 78.2294628,4.67008732 C78.9281875,4.08523909 79.8189496,3.78024214 80.7295095,3.81407132 C81.7721957,3.81407132 82.5795441,4.08474305 83.1515548,4.6260865 C83.7235655,5.16742996 84.0095708,5.94211111 84.0095708,6.95012996 L84.0095708,11.4242136 C84.0215711,12.2442289 84.1389066,12.8855743 84.3615774,13.3482496 L84.3615774,13.4982524 L81.8555306,13.4982524 L81.8555306,13.4962524 Z M80.3875031,11.7202191 C80.6327211,11.728077 80.8756405,11.6707977 81.0915163,11.554216 C81.2662724,11.4592498 81.4141895,11.3216526 81.5215243,11.1542086 L81.5215243,9.17617158 L80.9215131,9.17617158 C80.5454772,9.15539996 80.179471,9.30180241 79.9214944,9.57617906 C79.6670998,9.87750893 79.5369513,10.2643788 79.5574876,10.6581993 C79.5601543,11.3688792 79.8368262,11.7242192 80.3875031,11.7242192 L80.3875031,11.7202191 Z M88.1076475,13.4962524 L85.6116008,13.4962524 L85.6116008,0 L88.1076475,0 L88.1076475,13.5002524 L88.1076475,13.4962524 Z M89.8056792,12.2302287 C89.7940887,11.8604553 89.9393874,11.5030203 90.2056867,11.2462103 C90.4870317,10.9827254 90.8626042,10.8435978 91.2477062,10.8602031 C91.6302843,10.8473347 92.0027575,10.9844106 92.2857256,11.2422102 C92.5608578,11.4956617 92.7119965,11.8563504 92.6997333,12.2302287 C92.7142796,12.6053467 92.5610739,12.9674692 92.2817255,13.2182472 C91.9977439,13.4695288 91.6287405,13.6032568 91.2497062,13.5922542 C90.8696293,13.6052708 90.4994374,13.4696773 90.2176869,13.2142471 C89.9455126,12.9623866 89.7959393,12.6048697 89.8076793,12.2342288 L89.8056792,12.2302287 Z M94.2997633,1.5240285 C94.2867054,1.16986301 94.4206116,0.826049844 94.6697702,0.574010733 C95.2337756,0.0826550795 96.0738015,0.0826550795 96.637807,0.574010733 C96.8869655,0.826049844 97.0208717,1.16986301 97.0078139,1.5240285 C97.0279462,2.01976266 96.775339,2.48680821 96.349438,2.74129986 C95.923537,2.99579151 95.3925562,2.99696885 94.9655308,2.74436839 C94.5385054,2.49176792 94.2838295,2.02584717 94.3017633,1.53002861 L94.2997633,1.5240285 Z M96.9098121,13.4942523 L94.4157654,13.4942523 L94.4157654,3.99007461 L96.9118121,3.99007461 L96.9118121,13.5002524 L96.9098121,13.4942523 Z M98.189836,8.43215767 C98.189836,6.99079738 98.5298424,5.85744286 99.2098551,5.03209409 C99.8898678,4.20674533 100.830552,3.79673766 102.031908,3.80207109 C103.245264,3.80207109 104.191282,4.21207876 104.869961,5.03209409 C105.54864,5.85210943 105.888647,6.98879735 105.88998,8.44215786 L105.88998,9.04216907 C105.88998,10.4888628 105.553307,11.6222173 104.879961,12.4422327 C104.206615,13.262248 103.263264,13.6695889 102.049908,13.6642555 C100.831219,13.6642555 99.883201,13.2555812 99.205855,12.4382326 C98.528509,11.620884 98.189836,10.4875294 98.189836,9.038169 L98.189836,8.43815778 L98.189836,8.43215767 Z M100.685883,9.05816937 C100.685883,10.7675347 101.139891,11.6222173 102.047908,11.6222173 C102.885257,11.6222173 103.336599,10.9088706 103.401933,9.4821773 L103.401933,8.43015763 C103.401933,7.55814133 103.281931,6.91079589 103.041927,6.48812132 C102.852593,6.09806438 102.455468,5.85200275 102.021908,5.8561095 C101.597925,5.85752954 101.212937,6.10379666 101.033889,6.48812132 C100.796551,6.90946253 100.677883,7.55680797 100.677883,8.43015763 L100.677883,9.05816937 L100.685883,9.05816937 Z"/>
</svg>
