<svg preserveAspectRatio="none" xmlns="http://www.w3.org/2000/svg" width="2000" height="196" viewBox="0 0 2000 196"
      xmlns:xlink="http://www.w3.org/1999/xlink">
  <defs>
    <rect id="a" width="2110" height="196"/>
  </defs>
  <g fill="none" fill-rule="evenodd" transform="translate(-56)">
    <mask id="b" fill="white">
      <use xlink:href="#a"/>
    </mask>
    <g transform="translate(-722 18)" opacity=".701" mask="url(#b)">
      <path fill="#BBEAEC" d="M1683.98648,308.941256 C1391.99616,307.19663 1142.1016,303.411695 1101.97982,298.264063 C1043.59583,290.773384 962.377715,278.817 970.3125,244.869141 C972.746368,234.456181 981.287128,223.613516 992.92298,213.00728 L931.8125,185.869141 C931.8125,185.869141 976.460938,179.5 1005.24316,166.469278 C1118.32558,109.363505 1196.30692,3.5 1350.47982,3.5 C1561.59292,3.5 1590.47982,159.5 1801.47982,159.5 C2012.47982,159.5 2084.97982,1.13686838e-13 2356.47982,1.13686838e-13 C2627.97982,1.13686838e-13 2743.97982,179.5 2893.97982,179.5 C2934.15718,179.5 2939.3239,220.178339 2925.35266,279.74371 C2905.89145,362.715231 2205.3919,338.598524 1683.98648,308.941256 Z M1683.98648,308.941256 C2160.09265,311.785965 2748.11916,309.206088 2721.15774,298.264063 C2573.07367,238.165631 2427.66529,118 2300.47982,118 C2141.47982,118 2034.47982,206 1864.97982,206 C1695.47982,206 1677.09292,86.5 1465.97982,86.5 C1254.86672,86.5 1182.51562,100.535156 1084.47852,152.40625 C1061.33128,166.271572 1019.2218,189.035548 992.92298,213.00728 L1124.65625,271.507812 C1124.65625,271.507812 1372.32816,291.214295 1683.98648,308.941256 Z" opacity=".701"/>
      <path stroke="#39C2D7" d="M2243.99219,44.515625 C2102.24093,44.515625 1999.64062,154.402344 1830.14062,154.402344 C1660.64062,154.402344 1447.47638,16.9609375 1236.36328,16.9609375 C1025.25018,16.9609375 915.039063,164.140625 693,169.625 C470.960937,175.109375 469.615612,69.5 322.292969,69.5 C173.8125,69.5 259.407505,69.5 109.407505,69.5 C-40.5924949,69.5 7.90750511,656.5 7.90750511,656.5 L2716.90751,656.5 C2692.53402,515.656079 3334.77651,248.773438 2923.36328,248.773438 C2607.91797,248.773438 2487.69531,44.515625 2243.99219,44.515625 Z" opacity=".3" stroke-dasharray="3 4"/>
      <path stroke="#39C2D7" d="M2295.36328,67 C2136.36328,67 2034.3392,164.035156 1863.25391,164.035156 C1692.16861,164.035156 1545.9069,22.4023438 1368.4375,22.4023438 C1247.77664,22.4023438 1150.04878,108.416932 1030.06203,165.207711 C973.570879,191.945468 694.644316,254 1008.72656,254 L2775.47982,254 C2751.10634,113.156079 2770.3175,215.068291 2680.51379,170.504499 C2582.93492,122.082395 2473.82482,70.6818423 2295.36328,67 Z" opacity=".3" stroke-dasharray="3 4"/>
    </g>
  </g>
</svg>
