<!DOCTYPE svg PUBLIC "-//W3C//DTD SVG 20010904//EN" "http://www.w3.org/TR/2001/REC-SVG-20010904/DTD/svg10.dtd">
<svg version="1.0" xmlns="http://www.w3.org/2000/svg" width="770px" height="300px" viewBox="0 0 9400 4300" preserveAspectRatio="xMidYMid meet">
    <g id="layer101" fill="#4572c4" stroke="none">
        <path d="M1612 3770 c-263 -33 -438 -159 -553 -397 -23 -46 -45 -81 -50 -76 -4 4 -31 73 -59 153 -33 95 -60 155 -78 173 l-27 29 -151 -4 c-233 -5 -233 -5 -111 -343 223 -618 364 -1009 640 -1776 168 -466 312 -860 321 -877 9 -17 26 -37 37 -43 34 -18 204 -28 316 -19 118 9 147 23 170 78 19 46 916 2531 989 2742 30 85 54 163 54 173 0 10 -12 29 -27 43 -27 25 -28 25 -184 22 -210 -4 -195 8 -279 -226 -36 -100 -69 -181 -74 -179 -5 2 -21 30 -35 63 -49 114 -94 179 -180 264 -100 99 -183 147 -311 180 -97 25 -290 34 -408 20z m265 -299 c137 -36 203 -115 203 -244 0 -125 -70 -192 -336 -323 -106 -52 -220 -113 -253 -135 -79 -53 -155 -137 -196 -218 l-33 -66 -8 50 c-16 88 -9 381 10 465 67 294 183 415 456 476 74 16 75 16 157 -5z m470 -541 c9 -165 -11 -362 -48 -467 -58 -166 -130 -252 -260 -313 -141 -65 -277 -76 -384 -30 -98 42 -139 105 -139 215 0 151 56 206 358 355 137 68 245 129 281 158 73 58 130 131 153 195 16 46 17 47 25 20 4 -16 10 -75 14 -133z m-643 -1051 c92 -14 188 -7 305 21 46 11 85 19 87 18 1 -2 -65 -198 -149 -436 -117 -336 -154 -432 -166 -430 -17 4 -24 21 -197 523 -64 187 -119 345 -121 351 -3 8 27 3 79 -12 46 -13 118 -29 162 -35z"/>
        <path d="M4933 3680 c-206 -22 -319 -117 -369 -312 -14 -52 -17 -140 -21 -505 l-5 -443 -92 0 c-129 0 -131 -3 -131 -165 0 -162 2 -165 132 -165 l93 0 0 -157 c0 -87 3 -168 6 -180 11 -40 74 -55 221 -51 103 2 134 7 156 21 l27 17 0 175 0 175 168 0 c210 0 205 -3 210 137 5 115 -2 157 -30 183 -20 18 -36 20 -179 20 l-156 0 -7 38 c-10 61 -6 631 4 706 11 73 35 122 70 144 41 25 113 26 190 3 103 -31 105 -28 105 139 l0 130 -35 35 c-57 57 -171 74 -357 55z"/>
        <path d="M6145 3680 c-394 -60 -595 -325 -595 -783 0 -272 65 -471 205 -626 77 -85 227 -166 368 -198 111 -26 356 -23 467 5 232 59 385 198 461 419 62 182 66 476 7 678 -54 186 -192 362 -342 435 -122 60 -179 72 -356 76 -85 1 -182 -1 -215 -6z m285 -336 c103 -30 166 -93 208 -205 61 -164 52 -452 -18 -590 -31 -59 -84 -114 -138 -140 -38 -19 -63 -23 -132 -23 -123 0 -179 22 -256 98 -90 89 -124 197 -124 391 1 256 85 424 232 468 70 20 161 21 228 1z"/>
        <path d="M7654 3676 c-165 -31 -268 -79 -296 -136 -13 -26 -18 -59 -18 -130 0 -103 13 -143 46 -148 11 -2 62 18 111 43 275 138 543 100 545 -78 2 -91 -38 -126 -237 -206 -258 -105 -356 -175 -417 -299 -32 -64 -33 -70 -33 -192 0 -125 0 -126 38 -202 89 -181 267 -271 537 -272 142 -1 254 20 340 63 83 40 93 61 94 183 0 156 -17 172 -122 119 -129 -65 -268 -87 -377 -60 -59 15 -121 69 -127 111 -15 101 39 147 289 243 160 62 228 101 295 167 99 96 141 228 119 376 -16 108 -57 190 -136 271 -69 72 -132 109 -232 137 -78 22 -323 28 -419 10z"/>
        <path d="M3347 3645 c-21 -7 -42 -16 -45 -20 -9 -8 -15 -1437 -7 -1482 3 -19 15 -38 28 -45 34 -18 224 -22 272 -6 47 16 53 31 54 141 l1 78 48 -58 c73 -87 137 -142 200 -171 95 -45 260 -34 308 19 17 19 19 38 19 168 -1 92 -5 157 -13 175 -11 26 -15 28 -55 22 -106 -16 -177 -18 -212 -6 -22 7 -69 42 -112 83 -130 124 -117 60 -123 603 l-5 472 -25 21 c-23 18 -38 20 -160 20 -88 0 -148 -5 -173 -14z"/>
    </g>
</svg>
