<svg id="svg" version="1.1" xmlns="http://www.w3.org/2000/svg" xmlns:xlink="http://www.w3.org/1999/xlink" width="400" height="154.8" viewBox="0, 0, 400,154.8">
    <g id="svgg">
        <path id="path0" transform="translate(0,-20)"
              d="M193.700 36.183 C 188.336 36.658,188.574 36.505,186.004 41.125 C 184.550 43.741,184.544 43.812,185.382 49.266 C 186.429 56.076,187.806 57.790,192.640 58.297 C 197.283 58.784,196.899 59.479,190.633 61.936 L 188.366 62.825 183.533 62.779 C 178.066 62.727,178.545 62.628,175.143 64.525 C 171.030 66.817,167.347 69.679,166.797 71.008 C 166.478 71.778,166.657 81.443,167.013 82.700 C 167.450 84.241,170.405 86.416,173.547 87.508 C 174.854 87.963,175.282 87.994,183.008 88.190 C 198.483 88.582,198.499 88.620,185.153 93.303 C 177.448 96.007,177.303 96.089,176.268 98.328 C 175.127 100.798,175.318 101.150,179.034 103.438 C 182.951 105.849,182.292 105.661,187.400 105.822 C 204.039 106.348,204.676 106.288,207.424 103.926 C 209.575 102.076,209.615 101.959,209.825 96.918 C 210.147 89.218,209.680 89.615,216.178 91.521 C 221.047 92.950,220.192 93.011,228.100 90.663 C 235.041 88.602,234.608 89.264,233.600 82.267 C 233.270 79.975,233.000 77.738,233.000 77.295 C 233.000 75.532,232.010 75.107,229.776 75.910 C 223.554 78.147,224.215 78.304,221.582 73.963 C 219.306 70.210,218.976 69.885,215.488 67.967 C 212.368 66.252,212.527 66.305,207.179 65.195 C 200.621 63.834,200.593 63.819,200.609 61.705 C 200.625 59.442,201.202 58.483,202.966 57.785 C 205.506 56.779,205.450 56.981,205.607 48.200 L 205.738 40.900 206.303 39.337 C 206.968 37.497,206.876 36.943,205.799 36.311 C 204.836 35.745,199.313 35.687,193.700 36.183 M240.232 65.202 C 238.525 65.598,237.400 67.465,237.400 69.898 C 237.400 72.258,237.131 72.827,235.664 73.568 C 233.395 74.715,233.239 75.386,234.820 77.204 C 236.688 79.352,236.648 79.355,242.926 76.699 C 249.242 74.027,248.911 74.350,248.862 70.909 C 248.790 65.851,248.302 65.371,243.000 65.138 C 241.845 65.088,240.599 65.116,240.232 65.202 M242.402 71.050 C 244.436 72.269,244.357 73.536,242.227 73.896 C 240.851 74.128,240.200 73.455,240.200 71.801 C 240.200 70.320,240.828 70.106,242.402 71.050 M206.198 80.788 C 206.188 82.967,205.401 84.748,204.115 85.502 C 202.314 86.557,202.119 85.797,203.491 83.070 C 204.983 80.104,206.207 79.073,206.198 80.788 M172.124 110.650 C 171.814 110.930,171.197 112.191,170.496 113.981 C 168.999 117.798,168.020 119.211,160.719 128.089 C 155.398 134.560,139.853 155.552,138.594 157.967 C 138.055 159.001,138.197 159.505,139.419 160.903 C 140.892 162.585,140.798 162.767,136.808 165.975 C 133.110 168.948,132.019 170.497,132.677 171.836 C 133.188 172.874,133.881 172.999,139.137 173.000 C 144.981 173.000,145.197 172.937,146.235 170.924 C 146.836 169.758,146.612 169.133,144.580 166.304 C 141.660 162.240,141.869 161.965,147.306 162.719 C 152.314 163.413,155.525 163.329,157.362 162.457 C 159.054 161.654,175.321 145.556,182.681 137.400 C 189.015 130.382,188.421 130.776,192.980 130.563 C 197.841 130.336,197.174 130.075,205.870 135.609 C 215.278 141.597,213.758 139.797,219.709 151.995 C 224.971 162.781,225.372 163.472,226.561 163.786 C 228.918 164.409,233.959 164.524,239.035 164.069 C 244.647 163.566,244.656 163.578,241.778 168.084 C 238.612 173.043,239.002 173.300,249.700 173.300 C 257.246 173.300,257.814 173.226,258.938 172.102 C 260.752 170.288,259.636 169.427,252.155 166.871 C 245.400 164.563,244.987 164.267,246.487 162.813 C 247.980 161.365,247.934 161.039,245.460 155.600 C 244.634 153.785,243.344 150.946,242.592 149.291 C 241.840 147.636,240.939 145.296,240.588 144.091 C 239.147 139.132,238.069 137.609,231.686 131.509 C 225.564 125.659,224.613 124.669,218.973 118.274 C 212.618 111.067,213.019 111.347,210.125 112.098 C 209.121 112.359,207.220 112.720,205.900 112.901 C 202.006 113.434,201.911 113.667,203.897 117.801 C 205.896 121.962,205.735 122.400,202.200 122.400 C 199.155 122.400,198.900 122.166,198.610 119.102 C 198.383 116.698,198.045 116.127,196.071 114.806 C 194.264 113.598,193.688 113.540,192.291 114.426 C 189.645 116.104,189.118 116.800,188.801 119.031 C 188.316 122.445,188.243 122.507,184.489 122.707 C 181.676 122.857,180.800 122.587,180.800 121.570 C 180.800 120.912,182.344 117.168,183.202 115.746 C 184.661 113.326,184.441 113.023,180.481 112.016 C 179.171 111.682,177.155 111.138,176.000 110.805 C 173.474 110.077,172.789 110.050,172.124 110.650 "
              stroke="none" fill="#000000" fill-rule="evenodd"/>
        <path id="path1"
              d="M0.000 100.000 L 0.000 200.000 200.000 200.000 L 400.000 200.000 400.000 100.000 L 400.000 0.000 200.000 0.000 L 0.000 0.000 0.000 100.000 M205.799 36.311 C 206.876 36.943,206.968 37.497,206.303 39.337 L 205.738 40.900 205.607 48.200 C 205.450 56.981,205.506 56.779,202.966 57.785 C 201.202 58.483,200.625 59.442,200.609 61.705 C 200.593 63.819,200.621 63.834,207.179 65.195 C 212.527 66.305,212.368 66.252,215.488 67.967 C 218.976 69.885,219.306 70.210,221.582 73.963 C 224.215 78.304,223.554 78.147,229.776 75.910 C 232.010 75.107,233.000 75.532,233.000 77.295 C 233.000 77.738,233.270 79.975,233.600 82.267 C 234.608 89.264,235.041 88.602,228.100 90.663 C 220.192 93.011,221.047 92.950,216.178 91.521 C 209.680 89.615,210.147 89.218,209.825 96.918 C 209.615 101.959,209.575 102.076,207.424 103.926 C 204.676 106.288,204.039 106.348,187.400 105.822 C 182.292 105.661,182.951 105.849,179.034 103.438 C 175.318 101.150,175.127 100.798,176.268 98.328 C 177.303 96.089,177.448 96.007,185.153 93.303 C 192.638 90.676,194.800 89.784,194.800 89.320 C 194.800 88.542,194.042 88.469,183.008 88.190 C 175.282 87.994,174.854 87.963,173.547 87.508 C 170.405 86.416,167.450 84.241,167.013 82.700 C 166.657 81.443,166.478 71.778,166.797 71.008 C 167.347 69.679,171.030 66.817,175.143 64.525 C 178.545 62.628,178.066 62.727,183.533 62.779 L 188.366 62.825 190.633 61.936 C 196.899 59.479,197.283 58.784,192.640 58.297 C 189.081 57.924,188.056 57.242,186.575 54.266 C 185.918 52.945,184.806 46.756,184.802 44.395 C 184.799 42.715,187.711 37.567,189.059 36.869 C 190.851 35.941,204.401 35.489,205.799 36.311 M246.152 65.430 C 248.352 65.847,248.803 66.759,248.862 70.909 C 248.911 74.350,249.242 74.027,242.926 76.699 C 236.648 79.355,236.688 79.352,234.820 77.204 C 233.239 75.386,233.395 74.715,235.664 73.568 C 237.131 72.827,237.400 72.258,237.400 69.898 C 237.400 65.650,240.084 64.279,246.152 65.430 M240.514 70.714 C 239.885 71.343,240.209 73.377,241.005 73.803 C 242.196 74.440,244.337 73.257,243.793 72.262 C 243.184 71.146,241.077 70.151,240.514 70.714 M205.025 80.525 C 203.467 82.399,202.091 86.000,202.932 86.000 C 204.269 86.000,205.670 84.346,205.987 82.395 C 206.386 79.935,206.054 79.289,205.025 80.525 M176.000 110.805 C 177.155 111.138,179.171 111.682,180.481 112.016 C 184.441 113.023,184.661 113.326,183.202 115.746 C 182.344 117.168,180.800 120.912,180.800 121.570 C 180.800 122.587,181.676 122.857,184.489 122.707 C 188.243 122.507,188.316 122.445,188.801 119.031 C 189.118 116.800,189.645 116.104,192.291 114.426 C 193.688 113.540,194.264 113.598,196.071 114.806 C 198.045 116.127,198.383 116.698,198.610 119.102 C 198.900 122.166,199.155 122.400,202.200 122.400 C 205.735 122.400,205.896 121.962,203.897 117.801 C 201.911 113.667,202.006 113.434,205.900 112.901 C 207.220 112.720,209.121 112.359,210.125 112.098 C 213.019 111.347,212.618 111.067,218.973 118.274 C 224.613 124.669,225.564 125.659,231.686 131.509 C 238.069 137.609,239.147 139.132,240.588 144.091 C 240.939 145.296,241.840 147.636,242.592 149.291 C 243.344 150.946,244.634 153.785,245.460 155.600 C 247.934 161.039,247.980 161.365,246.487 162.813 C 244.987 164.267,245.400 164.563,252.155 166.871 C 259.636 169.427,260.752 170.288,258.938 172.102 C 257.814 173.226,257.246 173.300,249.700 173.300 C 239.002 173.300,238.612 173.043,241.778 168.084 C 244.656 163.578,244.647 163.566,239.035 164.069 C 233.959 164.524,228.918 164.409,226.561 163.786 C 225.372 163.472,224.971 162.781,219.709 151.995 C 213.758 139.797,215.278 141.597,205.870 135.609 C 197.174 130.075,197.841 130.336,192.980 130.563 C 188.421 130.776,189.015 130.382,182.681 137.400 C 175.321 145.556,159.054 161.654,157.362 162.457 C 155.525 163.329,152.314 163.413,147.306 162.719 C 141.869 161.965,141.660 162.240,144.580 166.304 C 146.612 169.133,146.836 169.758,146.235 170.924 C 145.197 172.937,144.981 173.000,139.137 173.000 C 133.881 172.999,133.188 172.874,132.677 171.836 C 132.019 170.497,133.110 168.948,136.808 165.975 C 140.798 162.767,140.892 162.585,139.419 160.903 C 138.197 159.505,138.055 159.001,138.594 157.967 C 139.853 155.552,155.398 134.560,160.719 128.089 C 168.020 119.211,168.999 117.798,170.496 113.981 C 172.122 109.832,172.289 109.736,176.000 110.805 "
              stroke="none" fill="#ffffff" transform="translate(0,-20)" fill-rule="evenodd"/>
    </g>
</svg>
