<?xml version="1.0" encoding="UTF-8"?>
<svg width="155px" height="60px" viewBox="0 0 155 60" version="1.1" xmlns="http://www.w3.org/2000/svg" xmlns:xlink="http://www.w3.org/1999/xlink">
    <!-- Generator: Sketch 53 (72520) - https://sketchapp.com -->
    <title>Group 11</title>
    <desc>Created with Sketch.</desc>
    <defs>
        <polygon id="path-1" points="0.126841664 0.0567427358 19.9207194 0.0567427358 19.9207194 19.9999791 0.126841664 19.9999791"></polygon>
        <polygon id="path-3" points="0 0.120968631 19.9543269 0.120968631 19.9543269 19.9450765 0 19.9450765"></polygon>
    </defs>
    <g id="#Download" stroke="none" stroke-width="1" fill="none" fill-rule="evenodd">
        <g id="Landing_Download" transform="translate(-955.000000, -2877.000000)">
            <g id="4" transform="translate(585.000000, 1935.000000)">
                <g id="Pythone" transform="translate(20.000000, 903.000000)">
                    <g id="Group-2-Copy-16" transform="translate(350.000000, 42.000000)">
                        <g id="Group-11" transform="translate(41.000000, 8.000000)">
                            <g id="Group-3" transform="translate(30.000000, 7.000000)">
                                <mask id="mask-2" fill="white">
                                    <use xlink:href="#path-1"></use>
                                </mask>
                                <g id="Clip-2"></g>
                                <path d="M11.6896835,13.0664892 C10.2518417,13.0664892 8.814,13.0605899 7.37615827,13.0710935 C7.0645036,13.0733957 6.64047482,12.9682158 6.65054676,13.5070647 C6.66047482,14.0487914 7.0968777,13.9164173 7.39774101,13.9194388 C8.95529496,13.9346906 10.5129928,13.9264892 12.0706906,13.929223 C13.117741,13.9310935 13.1181727,13.9332518 13.1194676,14.9427482 C13.1200432,15.5418849 13.091554,16.1426043 13.1259424,16.7397266 C13.1857986,17.7807338 12.6883885,18.5043309 11.8200432,18.9508058 C11.1883885,19.2756978 10.5057986,19.5749784 9.81299281,19.6945468 C7.52982734,20.0886475 5.22853237,20.178 2.9797554,19.4971367 C1.30579856,18.9902302 0.0145755396,18.0082158 0.13457554,15.8187194 C0.223640288,14.1939712 0.148820144,12.5603022 0.152705036,10.9308058 C0.158748201,8.37541007 1.41083453,7.07339568 3.97817266,7.02605755 C6.01457554,6.9885036 8.05256115,7.04188489 10.0888201,7.00260432 C10.6987482,6.99094964 11.3455108,6.90317986 11.9057986,6.67728058 C13.2318417,6.14246043 13.7603309,4.99138129 13.8682446,3.65397122 C13.945223,2.70188489 13.906518,1.73886331 13.8912662,0.781309353 C13.8829209,0.265194245 14.0784604,0.0159856115 14.6096835,0.0621726619 C14.7760144,0.0768489209 14.9449353,0.063323741 15.112705,0.0631798561 C18.0253669,0.062028777 19.7322734,1.67469065 19.8584604,4.61886331 C19.9158705,5.95843165 19.9719856,7.31310791 19.8388921,8.64174101 C19.6479568,10.5489353 18.8650791,12.1634676 16.9109784,12.8810216 C16.4770216,13.0403022 15.9729928,13.0457698 15.4998993,13.0539712 C14.2301151,13.0761295 12.9597554,13.0615971 11.6896835,13.0615971 L11.6896835,13.0664892 Z" id="Fill-1" fill="#FFDA5E" mask="url(#mask-2)"></path>
                            </g>
                            <g id="Group-6" transform="translate(23.000000, 0.000000)">
                                <mask id="mask-4" fill="white">
                                    <use xlink:href="#path-3"></use>
                                </mask>
                                <g id="Clip-5"></g>
                                <path d="M12.7231387,7.04608633 C13.0589051,7.04479137 13.4510219,7.0911223 13.4587591,6.58205755 C13.4666423,6.06623022 13.0720438,6.11097842 12.7365693,6.11025899 C11.0580292,6.10608633 9.37905109,6.094 7.70094891,6.12133813 C7.10270073,6.1311223 6.85846715,5.92522302 6.8980292,5.32795683 C6.93437956,4.77889209 6.90459854,4.22551079 6.90547445,3.674 C6.90810219,2.13889209 7.38912409,1.39184173 8.85160584,0.826661871 C11.0946715,-0.0402446043 13.4235766,0.0223453237 15.7567153,0.324071942 C17.0513139,0.491410072 18.2824088,0.848820144 19.2257664,1.82378417 C19.7546715,2.37054676 19.9752555,3.00407194 19.9527737,3.78061871 C19.9013869,5.57759712 19.9241606,7.37658993 19.9186131,9.17471942 C19.9108759,11.6498273 18.7016788,12.8882446 16.1754015,12.9348633 C14.2054745,12.9714101 12.2318978,12.8906906 10.2653285,12.9801871 C9.39364964,13.0200432 8.45948905,13.2023453 7.68854015,13.5842158 C6.40766423,14.2187482 6.07160584,15.4886763 6.01029197,16.8112662 C5.9770073,17.528964 6.00912409,18.2495396 6.00708029,18.9688201 C6.00430657,19.9401871 6.00240876,19.9401871 5.05277372,19.9449353 C1.86182482,19.9609065 0.346350365,18.6236403 0.0638686131,15.2678129 C-0.0651824818,13.7342878 0.00211678832,12.1470935 0.25729927,10.6293957 C0.582116788,8.69802878 2.05262774,6.86263309 4.62313869,7.0282446 C5.85846715,7.10781295 11.2635766,7.05169784 12.7231387,7.04608633" id="Fill-4" fill="#4282AD" mask="url(#mask-4)"></path>
                            </g>
                            <path d="M34,3 C34,3.55225 33.55225,4 33,4 C32.44775,4 32,3.55225 32,3 C32,2.44775 32.44775,2 33,2 C33.55225,2 34,2.44775 34,3" id="Fill-7" fill="#FEFEFE"></path>
                            <path d="M41,24 C41,24.55225 40.55225,25 40,25 C39.44775,25 39,24.55225 39,24 C39,23.44775 39.44775,23 40,23 C40.55225,23 41,23.44775 41,24" id="Fill-9" fill="#FEFEFE"></path>
                            <text id="Python-Behave" letter-spacing="1" font-family="OpenSans-Semibold, Open Sans" font-size="14" font-weight="800" fill="#575658">
                                <tspan x="-13" y="40">Python Behave</tspan>
                            </text>
                        </g>
                    </g>
                </g>
            </g>
        </g>
    </g>
</svg>
