<svg xmlns="http://www.w3.org/2000/svg" width="1991" height="1078" fill="none"><path stroke="#CCF0F7" d="M893 857.387V465.612c0-8.646 4.777-16.644 12.547-20.975l351.393-195.888c7.77-4.332 17.35-4.332 25.12 0l351.39 195.888c7.77 4.331 12.55 12.329 12.55 20.975v391.775c0 8.647-4.78 16.645-12.55 20.976l-351.39 195.887c-7.77 4.33-17.35 4.33-25.12 0L905.547 878.363c-7.77-4.331-12.547-12.329-12.547-20.976ZM396 1001.13V933.872c0-1.33.732-2.567 1.935-3.239l60.119-33.628-.245-.436.245.436a4.004 4.004 0 0 1 3.892 0l60.119 33.628c1.203.672 1.935 1.909 1.935 3.239v67.258c0 1.33-.732 2.56-1.935 3.24l-60.119 33.62a3.968 3.968 0 0 1-3.892 0l-60.119-33.62c-1.203-.68-1.935-1.91-1.935-3.24Z"/><path fill="url(#a)" d="M.5 0h1990v564L.5 967V0Z"/><mask id="c" width="1991" height="967" x="0" y="0" maskUnits="userSpaceOnUse" style="mask-type:alpha"><path fill="url(#b)" d="M.5 0h1990v564L.5 967V0Z"/></mask><g mask="url(#c)"><g filter="url(#d)" opacity=".5"><path fill="url(#e)" d="M833.856 860.582c488.074-186.749 328.454 159.938 626.064 193.258 297.6 33.33 525.53-326.542-135.37-598.293C663.655 183.796-.228 1179.72 833.856 860.582Z"/></g><g filter="url(#f)" opacity=".6"><path fill="url(#g)" d="M981.461-88.404c103.699 211.375 355.369-68.936 584.759 312.131 229.38 381.068 665.69-141.23 165.1-485.082-500.59-343.853-873.15-78.35-749.859 172.951Z"/></g><g filter="url(#h)" opacity=".6"><path fill="url(#i)" d="M431.155 2.42c393.191 40.799 709.775-385.478 840.465-194.487C1402.31-1.077 750.556-44.916 275.555 428.327-199.447 901.571-240.784-67.303 431.155 2.42Z"/></g><path fill="url(#j)" d="M1422.5 115.831V-63.831c0-4.05 2.24-7.794 5.88-9.82l161.24-89.83a12.142 12.142 0 0 1 11.76 0l161.24 89.83c3.64 2.026 5.88 5.77 5.88 9.82V115.831c0 4.051-2.24 7.794-5.88 9.819l-161.24 89.831a12.142 12.142 0 0 1-11.76 0l-161.24-89.831c-3.64-2.025-5.88-5.768-5.88-9.819Z" opacity=".1"/><path fill="url(#k)" d="M-37.5 169.748v-467.496c0-10.541 5.832-20.281 15.3-25.551l419.9-233.748c9.468-5.271 21.132-5.271 30.6 0l419.9 233.748c9.468 5.27 15.3 15.01 15.3 25.551v467.496c0 10.541-5.832 20.281-15.3 25.551L428.3 429.047c-9.468 5.271-21.132 5.271-30.6 0L-22.2 195.299c-9.468-5.27-15.3-15.01-15.3-25.551Z" opacity=".15"/><path fill="url(#l)" d="M892.5 857.652V466.348c0-8.823 4.881-16.976 12.804-21.387L1256.7 249.309c7.92-4.412 17.68-4.412 25.6 0l351.4 195.652c7.92 4.411 12.8 12.564 12.8 21.387v391.304c0 8.823-4.88 16.976-12.8 21.387l-351.4 195.651c-7.92 4.41-17.68 4.41-25.6 0L905.304 879.039c-7.923-4.411-12.804-12.564-12.804-21.387Z" opacity=".05"/></g><defs><linearGradient id="a" x1="-898.5" x2="1890.98" y1="904.88" y2="-29.552" gradientUnits="userSpaceOnUse"><stop stop-color="#009DBB"/><stop offset="1" stop-color="#0081A7"/></linearGradient><linearGradient id="b" x1=".5" x2="1809.18" y1="384.562" y2="-296.632" gradientUnits="userSpaceOnUse"><stop stop-color="#009DBB"/><stop offset="1" stop-color="#0081A7"/></linearGradient><linearGradient id="e" x1="136.441" x2="1289.66" y1="1014.67" y2="172.883" gradientUnits="userSpaceOnUse"><stop stop-color="#66D2E6"/><stop offset="1" stop-color="#009DBB"/></linearGradient><linearGradient id="g" x1="637.578" x2="1832.37" y1="19.418" y2="-307.697" gradientUnits="userSpaceOnUse"><stop stop-color="#0081A7"/><stop offset="1" stop-color="#66D2E6"/></linearGradient><linearGradient id="i" x1="-487.398" x2="651.789" y1="231.906" y2="951.263" gradientUnits="userSpaceOnUse"><stop stop-color="#0081A7"/><stop offset="1" stop-color="#66D2E6"/></linearGradient><linearGradient id="j" x1="1596.55" x2="1896.22" y1="312.5" y2="122.456" gradientUnits="userSpaceOnUse"><stop offset=".5" stop-color="#0081A7"/><stop offset="1" stop-color="#7AEAFF"/></linearGradient><linearGradient id="k" x1="415.73" x2="1195.76" y1="681.5" y2="186.458" gradientUnits="userSpaceOnUse"><stop offset=".5" stop-color="#0081A7"/><stop offset="1" stop-color="#7AEAFF"/></linearGradient><linearGradient id="l" x1="1716.5" x2="2073.45" y1="1078" y2="358.138" gradientUnits="userSpaceOnUse"><stop offset="0" stop-color="#0081A7"/><stop offset="1" stop-color="#63E0F8"/></linearGradient><filter id="d" width="1579" height="918" x="308.5" y="273" color-interpolation-filters="sRGB" filterUnits="userSpaceOnUse"><feFlood flood-opacity="0" result="BackgroundImageFix"/><feBlend in="SourceGraphic" in2="BackgroundImageFix" result="shape"/><feGaussianBlur result="effect1_foregroundBlur_5381_110934" stdDeviation="67.5"/></filter><filter id="f" width="1274.28" height="1052.33" x="822.709" y="-560.273" color-interpolation-filters="sRGB" filterUnits="userSpaceOnUse"><feFlood flood-opacity="0" result="BackgroundImageFix"/><feBlend in="SourceGraphic" in2="BackgroundImageFix" result="shape"/><feGaussianBlur result="effect1_foregroundBlur_5381_110934" stdDeviation="67.5"/></filter><filter id="h" width="1636.42" height="1070.64" x="-212.819" y="-376.555" color-interpolation-filters="sRGB" filterUnits="userSpaceOnUse"><feFlood flood-opacity="0" result="BackgroundImageFix"/><feBlend in="SourceGraphic" in2="BackgroundImageFix" result="shape"/><feGaussianBlur result="effect1_foregroundBlur_5381_110934" stdDeviation="67.5"/></filter></defs></svg>
