<svg width="282" height="328" viewBox="0 0 282 328" fill="none" xmlns="http://www.w3.org/2000/svg">
<g clip-path="url(#clip0_9327_31622)">
<rect width="282" height="328" rx="16" fill="url(#paint0_linear_9327_31622)"/>
<path opacity="0.3" d="M134 75.0958L134 52.2722L134 30.12V-1.09577C134 -2.81367 133.048 -4.40108 131.504 -5.26003L62.9962 -43.3558C61.4515 -44.2147 59.5485 -44.2147 58.0038 -43.3558L-10.5038 -5.26003C-12.0485 -4.40108 -13 -2.81367 -13 -1.09577V22.113V44.4121V75.0958C-13 76.8137 -12.0485 78.4011 -10.5038 79.26L58.0038 117.356C59.5485 118.215 61.4515 118.215 62.9962 117.356L131.504 79.26C133.048 78.4011 134 76.8137 134 75.0958Z" fill="#FF9900"/>
<path opacity="0.9" d="M384 460.192L384 414.544L384 370.24L384 307.808C384 304.373 382.097 301.198 379.008 299.48L241.992 223.288C238.903 221.571 235.097 221.571 232.008 223.288L94.9924 299.48C91.9031 301.198 90 304.373 90 307.808V354.226V398.824V460.192C90 463.627 91.9031 466.802 94.9924 468.52L232.008 544.712C235.097 546.429 238.903 546.429 241.992 544.712L379.008 468.52C382.097 466.802 384 463.627 384 460.192Z" fill="#FF9900"/>
</g>
<defs>
<linearGradient id="paint0_linear_9327_31622" x1="141" y1="0" x2="141" y2="328" gradientUnits="userSpaceOnUse">
<stop stop-color="#FFC800"/>
<stop offset="1" stop-color="#FF9900"/>
</linearGradient>
<clipPath id="clip0_9327_31622">
<rect width="282" height="328" rx="16" fill="white"/>
</clipPath>
</defs>
</svg>
