
<svg viewBox="0 0 24 24" fill="none" xmlns="http://www.w3.org/2000/svg"><path fill-rule="evenodd" clip-rule="evenodd" d="M1.6 5A1.1 1.1 0 0 0 .5 6.1v10.8A1.1 1.1 0 0 0 1.6 18h1.824a1.1 1.1 0 0 0 1.06-.81l.462-1.69 6.394 4.262a1.2 1.2 0 0 0 1.283.03l6.533-3.92.36 1.317a1.1 1.1 0 0 0 1.06.811H22.4a1.1 1.1 0 0 0 1.1-1.1V6.1A1.1 1.1 0 0 0 22.4 5h-4.77a1.1 1.1 0 0 0-1.093 1.218l-3.775-.687a1.2 1.2 0 0 0-.912.204l-1.397.998-3.072-.162.05-.182A1.1 1.1 0 0 0 6.368 5H1.6Zm5.242 3.546-1.341 4.92 6.527 4.35 3.869-2.32-2.609-3.587-1.117.837a1.2 1.2 0 0 1-.955.217l-2.252-.45A1.2 1.2 0 0 1 8 11.336V9.103a1.2 1.2 0 0 1 .105-.49l-1.263-.067Zm10.776 5.917.991-.595-1.504-5.514-4.368-.794L10 9.515v1.165l1.258.252 1.48-1.11a1.2 1.2 0 0 1 1.69.254l3.19 4.387ZM2.5 16V7h2.69l-2.454 9H2.5Zm19 0V7h-2.69l2.454 9h.236Z" fill="#8791AB"/></svg>
