<svg width="588" height="472" viewBox="0 0 588 472" fill="none" xmlns="http://www.w3.org/2000/svg">
<g clip-path="url(#clip0_4563_107796)">
<rect width="588" height="472" fill="white"/>
<path d="M163.993 406.66C127.513 424.612 31.4477 350.041 14.6019 315.807C-25.2042 254.299 58.9357 216.703 111.762 205.39C136.983 199.989 165.768 209.034 182.614 243.267C211.012 300.977 200.474 388.708 163.993 406.66Z" fill="url(#paint0_linear_4563_107796)"/>
<path d="M579.145 194.256C572.001 52.2309 434.329 51.0122 345.523 94.9544C105.269 213.836 606.575 739.565 579.145 194.256Z" fill="url(#paint1_linear_4563_107796)"/>
<path d="M281.5 196L52 328.5L281.5 461L511 328.5L281.5 196Z" fill="url(#paint2_linear_4563_107796)"/>
<path d="M281.5 180L52 312.5L281.5 445L511 312.5L281.5 180Z" fill="#E1FEFF"/>
<g opacity="0.8">
<path d="M397 250L175 379L217.5 404.5L435.5 272.5L397 250Z" fill="url(#paint3_linear_4563_107796)"/>
<path d="M397 250L175 379L217.5 404.5L435.5 272.5L397 250Z" fill="url(#paint4_linear_4563_107796)"/>
<path d="M397 250L175 379L217.5 404.5L435.5 272.5L397 250Z" fill="url(#paint5_linear_4563_107796)"/>
</g>
<g opacity="0.2">
<path d="M285 186L63 315L105.5 340.5L323.5 208.5L285 186Z" fill="url(#paint6_linear_4563_107796)"/>
<path d="M285 186L63 315L105.5 340.5L323.5 208.5L285 186Z" fill="url(#paint7_linear_4563_107796)"/>
<path d="M285 186L63 315L105.5 340.5L323.5 208.5L285 186Z" fill="url(#paint8_linear_4563_107796)"/>
</g>
<g opacity="0.2">
<path d="M453 281L231 410L273.5 435.5L491.5 303.5L453 281Z" fill="url(#paint9_linear_4563_107796)"/>
<path d="M453 281L231 410L273.5 435.5L491.5 303.5L453 281Z" fill="url(#paint10_linear_4563_107796)"/>
<path d="M453 281L231 410L273.5 435.5L491.5 303.5L453 281Z" fill="url(#paint11_linear_4563_107796)"/>
</g>
<g opacity="0.2">
<path d="M341 217L119 346L161.5 371.5L379.5 239.5L341 217Z" fill="url(#paint12_linear_4563_107796)"/>
<path d="M341 217L119 346L161.5 371.5L379.5 239.5L341 217Z" fill="url(#paint13_linear_4563_107796)"/>
<path d="M341 217L119 346L161.5 371.5L379.5 239.5L341 217Z" fill="url(#paint14_linear_4563_107796)"/>
</g>
<path d="M200 386.5L415 262" stroke="white" stroke-width="3" stroke-dasharray="8 8"/>
<path d="M142 356.5L357 232" stroke="white" stroke-width="3" stroke-dasharray="8 8"/>
<path d="M90 320.5L305 196" stroke="white" stroke-width="3" stroke-dasharray="8 8"/>
<path d="M261 419.5L476 295" stroke="white" stroke-width="3" stroke-dasharray="8 8"/>
<g filter="url(#filter0_d_4563_107796)">
<path d="M169 363.734L169.774 315.663L213.5 291L258 316.266V363.734L213.113 389L169 363.734Z" stroke="white" stroke-width="4" stroke-linecap="round" shape-rendering="crispEdges"/>
</g>
<path d="M399 204.5L403.5 207.5V375.5L399 373V204.5Z" fill="#DCE3FF"/>
<path d="M403.5 207.5L447 182V350.5L403.5 375.5V207.5Z" fill="url(#paint15_linear_4563_107796)"/>
<path d="M403.5 207.5L447 182V350.5L403.5 375.5V207.5Z" fill="url(#paint16_linear_4563_107796)" fill-opacity="0.53"/>
<path d="M403.5 207.5L447 182V350.5L403.5 375.5V207.5Z" fill="url(#paint17_linear_4563_107796)" fill-opacity="0.62"/>
<path d="M174 73.5L178.5 76.5V244.5L174 242V73.5Z" fill="#DCE3FF"/>
<path d="M178.5 76.5L222 51V219.5L178.5 244.5V76.5Z" fill="url(#paint18_linear_4563_107796)"/>
<path d="M178.5 76.5L222 51V219.5L178.5 244.5V76.5Z" fill="url(#paint19_linear_4563_107796)" fill-opacity="0.53"/>
<path d="M178.5 76.5L222 51V219.5L178.5 244.5V76.5Z" fill="url(#paint20_linear_4563_107796)" fill-opacity="0.62"/>
<path d="M258 236.674V189.279L213.246 214.827L213.246 262L258 236.674Z" fill="url(#paint21_linear_4563_107796)"/>
<path d="M258 236.674V189.279L213.246 214.827L213.246 262L258 236.674Z" fill="url(#paint22_linear_4563_107796)"/>
<path d="M258 236.674V189.279L213.246 214.827L213.246 262L258 236.674Z" fill="url(#paint23_linear_4563_107796)"/>
<path d="M213.246 214.827V262L169 236.704V189.531L213.246 214.827Z" fill="url(#paint24_linear_4563_107796)"/>
<path d="M213.246 214.827V262L169 236.704V189.531L213.246 214.827Z" fill="url(#paint25_linear_4563_107796)"/>
<path d="M213.246 214.827V262L169 236.704V189.531L213.246 214.827Z" fill="url(#paint26_linear_4563_107796)"/>
<path opacity="0.78" d="M208.414 214.442L169 236.334V192.55L208.414 214.442Z" fill="url(#paint27_linear_4563_107796)"/>
<path d="M213.5 164L169 189.531L213.246 214.829L258 189.279L213.5 164Z" fill="url(#paint28_linear_4563_107796)"/>
<path d="M213.5 164L169 189.531L213.246 214.829L258 189.279L213.5 164Z" fill="url(#paint29_linear_4563_107796)"/>
<path d="M213.5 164L169 189.531L213.246 214.829L258 189.279L213.5 164Z" fill="url(#paint30_linear_4563_107796)"/>
<g filter="url(#filter1_d_4563_107796)">
<path d="M187 79.9997L223 100.666L223 114.97C223 119.582 218.013 122.47 214.013 120.174L193.026 108.125C189.298 105.986 187 102.016 187 97.7184L187 79.9997Z" fill="#DCE3FF"/>
</g>
<g filter="url(#filter2_i_4563_107796)">
<path d="M188.999 83.3356L220.332 101.406L220.332 115.476C220.332 117.784 217.833 119.228 215.833 118.074L194.003 105.485C190.906 103.699 188.999 100.396 188.999 96.822L188.999 83.3356Z" fill="#FF7272"/>
</g>
<path d="M229 105.5L233.5 108.5V276.5L229 274V105.5Z" fill="#DCE3FF"/>
<path d="M233.5 108.5L277 83V251.5L233.5 276.5V108.5Z" fill="url(#paint31_linear_4563_107796)"/>
<path d="M233.5 108.5L277 83V251.5L233.5 276.5V108.5Z" fill="url(#paint32_linear_4563_107796)" fill-opacity="0.53"/>
<path d="M233.5 108.5L277 83V251.5L233.5 276.5V108.5Z" fill="url(#paint33_linear_4563_107796)" fill-opacity="0.62"/>
<g filter="url(#filter3_d_4563_107796)">
<path d="M242 112L278 132.666L278 146.97C278 151.582 273.013 154.47 269.013 152.174L248.026 140.125C244.298 137.986 242 134.016 242 129.718L242 112Z" fill="#DCE3FF"/>
</g>
<g filter="url(#filter4_i_4563_107796)">
<path d="M243.999 115.336L275.332 133.406L275.332 147.476C275.332 149.784 272.833 151.228 270.833 150.074L249.003 137.485C245.906 135.699 243.999 132.396 243.999 128.822L243.999 115.336Z" fill="#5577FF"/>
</g>
<path d="M284 137.5L288.5 140.5V308.5L284 306V137.5Z" fill="#DCE3FF"/>
<path d="M288.5 140.5L332 115V283.5L288.5 308.5V140.5Z" fill="url(#paint34_linear_4563_107796)"/>
<path d="M288.5 140.5L332 115V283.5L288.5 308.5V140.5Z" fill="url(#paint35_linear_4563_107796)" fill-opacity="0.53"/>
<path d="M288.5 140.5L332 115V283.5L288.5 308.5V140.5Z" fill="url(#paint36_linear_4563_107796)" fill-opacity="0.62"/>
<g filter="url(#filter5_d_4563_107796)">
<path d="M297 145L333 165.666L333 179.97C333 184.582 328.013 187.47 324.013 185.174L303.026 173.125C299.298 170.986 297 167.016 297 162.718L297 145Z" fill="#DCE3FF"/>
</g>
<g filter="url(#filter6_i_4563_107796)">
<path d="M298.999 148.336L330.332 166.406L330.332 180.476C330.332 182.784 327.833 184.228 325.833 183.074L304.003 170.485C300.906 168.699 298.999 165.396 298.999 161.822L298.999 148.336Z" fill="#FFC800"/>
</g>
<path d="M339 168.5L343.5 171.5V339.5L339 337V168.5Z" fill="#DCE3FF"/>
<path d="M343.5 171.5L387 146V314.5L343.5 339.5V171.5Z" fill="url(#paint37_linear_4563_107796)"/>
<path d="M343.5 171.5L387 146V314.5L343.5 339.5V171.5Z" fill="url(#paint38_linear_4563_107796)" fill-opacity="0.53"/>
<path d="M343.5 171.5L387 146V314.5L343.5 339.5V171.5Z" fill="url(#paint39_linear_4563_107796)" fill-opacity="0.62"/>
<path d="M258 363.674V316.279L213.246 341.827L213.246 389L258 363.674Z" fill="url(#paint40_linear_4563_107796)"/>
<path d="M258 363.674V316.279L213.246 341.827L213.246 389L258 363.674Z" fill="url(#paint41_linear_4563_107796)"/>
<path d="M258 363.674V316.279L213.246 341.827L213.246 389L258 363.674Z" fill="url(#paint42_linear_4563_107796)"/>
<path d="M213.246 341.827V389L169 363.704V316.531L213.246 341.827Z" fill="url(#paint43_linear_4563_107796)"/>
<path d="M213.246 341.827V389L169 363.704V316.531L213.246 341.827Z" fill="url(#paint44_linear_4563_107796)"/>
<path d="M213.246 341.827V389L169 363.704V316.531L213.246 341.827Z" fill="url(#paint45_linear_4563_107796)"/>
<path opacity="0.78" d="M208.414 341.442L169 363.334V319.55L208.414 341.442Z" fill="url(#paint46_linear_4563_107796)"/>
<path d="M213.5 291L169 316.531L213.246 341.829L258 316.279L213.5 291Z" fill="url(#paint47_linear_4563_107796)"/>
<path d="M213.5 291L169 316.531L213.246 341.829L258 316.279L213.5 291Z" fill="url(#paint48_linear_4563_107796)"/>
<path d="M213.5 291L169 316.531L213.246 341.829L258 316.279L213.5 291Z" fill="url(#paint49_linear_4563_107796)"/>
<g filter="url(#filter7_d_4563_107796)">
<path d="M354 178L390 198.666L390 212.97C390 217.582 385.013 220.47 381.013 218.174L360.026 206.125C356.298 203.986 354 200.016 354 195.718L354 178Z" fill="#DCE3FF"/>
</g>
<g filter="url(#filter8_i_4563_107796)">
<path d="M355.999 181.336L387.332 199.406L387.332 213.476C387.332 215.784 384.833 217.228 382.833 216.074L361.003 203.485C357.906 201.699 355.999 198.396 355.999 194.822L355.999 181.336Z" fill="#C3C8D5"/>
</g>
<g opacity="0.8">
<path d="M403.5 207.5L174 73.5L217.5 48.5L447 182L403.5 207.5Z" fill="url(#paint50_linear_4563_107796)"/>
<path d="M403.5 207.5L174 73.5L217.5 48.5L447 182L403.5 207.5Z" fill="url(#paint51_linear_4563_107796)"/>
<path d="M403.5 207.5L174 73.5L217.5 48.5L447 182L403.5 207.5Z" fill="url(#paint52_linear_4563_107796)"/>
</g>
</g>
<defs>
<filter id="filter0_d_4563_107796" x="140.98" y="286.702" width="145.02" height="154.598" filterUnits="userSpaceOnUse" color-interpolation-filters="sRGB">
<feFlood flood-opacity="0" result="BackgroundImageFix"/>
<feColorMatrix in="SourceAlpha" type="matrix" values="0 0 0 0 0 0 0 0 0 0 0 0 0 0 0 0 0 0 127 0" result="hardAlpha"/>
<feOffset dy="24"/>
<feGaussianBlur stdDeviation="13"/>
<feComposite in2="hardAlpha" operator="out"/>
<feColorMatrix type="matrix" values="0 0 0 0 0.514323 0 0 0 0 0.537982 0 0 0 0 0.9875 0 0 0 1 0"/>
<feBlend mode="normal" in2="BackgroundImageFix" result="effect1_dropShadow_4563_107796"/>
<feBlend mode="normal" in="SourceGraphic" in2="effect1_dropShadow_4563_107796" result="shape"/>
</filter>
<filter id="filter1_d_4563_107796" x="187" y="79.9996" width="42" height="40.9795" filterUnits="userSpaceOnUse" color-interpolation-filters="sRGB">
<feFlood flood-opacity="0" result="BackgroundImageFix"/>
<feColorMatrix in="SourceAlpha" type="matrix" values="0 0 0 0 0 0 0 0 0 0 0 0 0 0 0 0 0 0 127 0" result="hardAlpha"/>
<feOffset dx="6"/>
<feComposite in2="hardAlpha" operator="out"/>
<feColorMatrix type="matrix" values="0 0 0 0 0.529412 0 0 0 0 0.568627 0 0 0 0 0.670588 0 0 0 1 0"/>
<feBlend mode="normal" in2="BackgroundImageFix" result="effect1_dropShadow_4563_107796"/>
<feBlend mode="normal" in="SourceGraphic" in2="effect1_dropShadow_4563_107796" result="shape"/>
</filter>
<filter id="filter2_i_4563_107796" x="189" y="83.3356" width="31.332" height="35.1445" filterUnits="userSpaceOnUse" color-interpolation-filters="sRGB">
<feFlood flood-opacity="0" result="BackgroundImageFix"/>
<feBlend mode="normal" in="SourceGraphic" in2="BackgroundImageFix" result="shape"/>
<feColorMatrix in="SourceAlpha" type="matrix" values="0 0 0 0 0 0 0 0 0 0 0 0 0 0 0 0 0 0 127 0" result="hardAlpha"/>
<feOffset dx="2" dy="-1"/>
<feComposite in2="hardAlpha" operator="arithmetic" k2="-1" k3="1"/>
<feColorMatrix type="matrix" values="0 0 0 0 0 0 0 0 0 0 0 0 0 0 0 0 0 0 0.25 0"/>
<feBlend mode="normal" in2="shape" result="effect1_innerShadow_4563_107796"/>
</filter>
<filter id="filter3_d_4563_107796" x="242" y="112" width="42" height="40.9795" filterUnits="userSpaceOnUse" color-interpolation-filters="sRGB">
<feFlood flood-opacity="0" result="BackgroundImageFix"/>
<feColorMatrix in="SourceAlpha" type="matrix" values="0 0 0 0 0 0 0 0 0 0 0 0 0 0 0 0 0 0 127 0" result="hardAlpha"/>
<feOffset dx="6"/>
<feComposite in2="hardAlpha" operator="out"/>
<feColorMatrix type="matrix" values="0 0 0 0 0.529412 0 0 0 0 0.568627 0 0 0 0 0.670588 0 0 0 1 0"/>
<feBlend mode="normal" in2="BackgroundImageFix" result="effect1_dropShadow_4563_107796"/>
<feBlend mode="normal" in="SourceGraphic" in2="effect1_dropShadow_4563_107796" result="shape"/>
</filter>
<filter id="filter4_i_4563_107796" x="244" y="115.336" width="31.332" height="35.1445" filterUnits="userSpaceOnUse" color-interpolation-filters="sRGB">
<feFlood flood-opacity="0" result="BackgroundImageFix"/>
<feBlend mode="normal" in="SourceGraphic" in2="BackgroundImageFix" result="shape"/>
<feColorMatrix in="SourceAlpha" type="matrix" values="0 0 0 0 0 0 0 0 0 0 0 0 0 0 0 0 0 0 127 0" result="hardAlpha"/>
<feOffset dx="2" dy="-1"/>
<feComposite in2="hardAlpha" operator="arithmetic" k2="-1" k3="1"/>
<feColorMatrix type="matrix" values="0 0 0 0 0 0 0 0 0 0 0 0 0 0 0 0 0 0 0.25 0"/>
<feBlend mode="normal" in2="shape" result="effect1_innerShadow_4563_107796"/>
</filter>
<filter id="filter5_d_4563_107796" x="297" y="145" width="42" height="40.9795" filterUnits="userSpaceOnUse" color-interpolation-filters="sRGB">
<feFlood flood-opacity="0" result="BackgroundImageFix"/>
<feColorMatrix in="SourceAlpha" type="matrix" values="0 0 0 0 0 0 0 0 0 0 0 0 0 0 0 0 0 0 127 0" result="hardAlpha"/>
<feOffset dx="6"/>
<feComposite in2="hardAlpha" operator="out"/>
<feColorMatrix type="matrix" values="0 0 0 0 0.529412 0 0 0 0 0.568627 0 0 0 0 0.670588 0 0 0 1 0"/>
<feBlend mode="normal" in2="BackgroundImageFix" result="effect1_dropShadow_4563_107796"/>
<feBlend mode="normal" in="SourceGraphic" in2="effect1_dropShadow_4563_107796" result="shape"/>
</filter>
<filter id="filter6_i_4563_107796" x="299" y="148.336" width="31.332" height="35.1445" filterUnits="userSpaceOnUse" color-interpolation-filters="sRGB">
<feFlood flood-opacity="0" result="BackgroundImageFix"/>
<feBlend mode="normal" in="SourceGraphic" in2="BackgroundImageFix" result="shape"/>
<feColorMatrix in="SourceAlpha" type="matrix" values="0 0 0 0 0 0 0 0 0 0 0 0 0 0 0 0 0 0 127 0" result="hardAlpha"/>
<feOffset dx="2" dy="-1"/>
<feComposite in2="hardAlpha" operator="arithmetic" k2="-1" k3="1"/>
<feColorMatrix type="matrix" values="0 0 0 0 0 0 0 0 0 0 0 0 0 0 0 0 0 0 0.25 0"/>
<feBlend mode="normal" in2="shape" result="effect1_innerShadow_4563_107796"/>
</filter>
<filter id="filter7_d_4563_107796" x="354" y="178" width="42" height="40.9795" filterUnits="userSpaceOnUse" color-interpolation-filters="sRGB">
<feFlood flood-opacity="0" result="BackgroundImageFix"/>
<feColorMatrix in="SourceAlpha" type="matrix" values="0 0 0 0 0 0 0 0 0 0 0 0 0 0 0 0 0 0 127 0" result="hardAlpha"/>
<feOffset dx="6"/>
<feComposite in2="hardAlpha" operator="out"/>
<feColorMatrix type="matrix" values="0 0 0 0 0.529412 0 0 0 0 0.568627 0 0 0 0 0.670588 0 0 0 1 0"/>
<feBlend mode="normal" in2="BackgroundImageFix" result="effect1_dropShadow_4563_107796"/>
<feBlend mode="normal" in="SourceGraphic" in2="effect1_dropShadow_4563_107796" result="shape"/>
</filter>
<filter id="filter8_i_4563_107796" x="356" y="181.336" width="31.332" height="35.1445" filterUnits="userSpaceOnUse" color-interpolation-filters="sRGB">
<feFlood flood-opacity="0" result="BackgroundImageFix"/>
<feBlend mode="normal" in="SourceGraphic" in2="BackgroundImageFix" result="shape"/>
<feColorMatrix in="SourceAlpha" type="matrix" values="0 0 0 0 0 0 0 0 0 0 0 0 0 0 0 0 0 0 127 0" result="hardAlpha"/>
<feOffset dx="2" dy="-1"/>
<feComposite in2="hardAlpha" operator="arithmetic" k2="-1" k3="1"/>
<feColorMatrix type="matrix" values="0 0 0 0 0 0 0 0 0 0 0 0 0 0 0 0 0 0 0.25 0"/>
<feBlend mode="normal" in2="shape" result="effect1_innerShadow_4563_107796"/>
</filter>
<linearGradient id="paint0_linear_4563_107796" x1="197.105" y1="272.715" x2="0.197495" y2="334.494" gradientUnits="userSpaceOnUse">
<stop stop-color="#CEEFFF"/>
<stop offset="0.0260417" stop-color="#CFECFD" stop-opacity="0.83"/>
<stop offset="1" stop-color="#FD71AF" stop-opacity="0.01"/>
</linearGradient>
<linearGradient id="paint1_linear_4563_107796" x1="517.658" y1="84.3711" x2="283.088" y2="388.807" gradientUnits="userSpaceOnUse">
<stop offset="0.0260417" stop-color="#CFECFD" stop-opacity="0.99"/>
<stop offset="0.226457" stop-color="#D9D3ED" stop-opacity="0.788342"/>
<stop offset="1" stop-color="#FD71AF" stop-opacity="0.01"/>
</linearGradient>
<linearGradient id="paint2_linear_4563_107796" x1="149.893" y1="-57" x2="336.552" y2="475.373" gradientUnits="userSpaceOnUse">
<stop stop-color="#00B4D5"/>
<stop offset="1" stop-color="#DCE3FF"/>
</linearGradient>
<linearGradient id="paint3_linear_4563_107796" x1="216.5" y1="317" x2="388.857" y2="295.657" gradientUnits="userSpaceOnUse">
<stop offset="0.197917" stop-color="#F2FDFF"/>
<stop offset="1" stop-color="#FFBFF1"/>
</linearGradient>
<linearGradient id="paint4_linear_4563_107796" x1="257.5" y1="286.5" x2="312" y2="383" gradientUnits="userSpaceOnUse">
<stop stop-color="#FEAFE7" stop-opacity="0.76"/>
<stop offset="0.0833333" stop-color="white" stop-opacity="0.916667"/>
<stop offset="1" stop-color="#E2F7FB" stop-opacity="0"/>
</linearGradient>
<linearGradient id="paint5_linear_4563_107796" x1="305.75" y1="246.5" x2="305.75" y2="406.5" gradientUnits="userSpaceOnUse">
<stop stop-color="#8892AC"/>
<stop offset="1" stop-color="#ADACF2"/>
</linearGradient>
<linearGradient id="paint6_linear_4563_107796" x1="104.5" y1="253" x2="276.857" y2="231.657" gradientUnits="userSpaceOnUse">
<stop offset="0.197917" stop-color="#F2FDFF"/>
<stop offset="1" stop-color="#FFBFF1"/>
</linearGradient>
<linearGradient id="paint7_linear_4563_107796" x1="145.5" y1="222.5" x2="200" y2="319" gradientUnits="userSpaceOnUse">
<stop stop-color="#FEAFE7" stop-opacity="0.76"/>
<stop offset="0.0833333" stop-color="white" stop-opacity="0.916667"/>
<stop offset="1" stop-color="#E2F7FB" stop-opacity="0"/>
</linearGradient>
<linearGradient id="paint8_linear_4563_107796" x1="193.75" y1="182.5" x2="193.75" y2="342.5" gradientUnits="userSpaceOnUse">
<stop stop-color="#8892AC"/>
<stop offset="1" stop-color="#ADACF2"/>
</linearGradient>
<linearGradient id="paint9_linear_4563_107796" x1="272.5" y1="348" x2="444.857" y2="326.657" gradientUnits="userSpaceOnUse">
<stop offset="0.197917" stop-color="#F2FDFF"/>
<stop offset="1" stop-color="#FFBFF1"/>
</linearGradient>
<linearGradient id="paint10_linear_4563_107796" x1="313.5" y1="317.5" x2="368" y2="414" gradientUnits="userSpaceOnUse">
<stop stop-color="#FEAFE7" stop-opacity="0.76"/>
<stop offset="0.0833333" stop-color="white" stop-opacity="0.916667"/>
<stop offset="1" stop-color="#E2F7FB" stop-opacity="0"/>
</linearGradient>
<linearGradient id="paint11_linear_4563_107796" x1="361.75" y1="277.5" x2="361.75" y2="437.5" gradientUnits="userSpaceOnUse">
<stop stop-color="#8892AC"/>
<stop offset="1" stop-color="#ADACF2"/>
</linearGradient>
<linearGradient id="paint12_linear_4563_107796" x1="160.5" y1="284" x2="332.857" y2="262.657" gradientUnits="userSpaceOnUse">
<stop offset="0.197917" stop-color="#F2FDFF"/>
<stop offset="1" stop-color="#FFBFF1"/>
</linearGradient>
<linearGradient id="paint13_linear_4563_107796" x1="201.5" y1="253.5" x2="256" y2="350" gradientUnits="userSpaceOnUse">
<stop stop-color="#FEAFE7" stop-opacity="0.76"/>
<stop offset="0.0833333" stop-color="white" stop-opacity="0.916667"/>
<stop offset="1" stop-color="#E2F7FB" stop-opacity="0"/>
</linearGradient>
<linearGradient id="paint14_linear_4563_107796" x1="249.75" y1="213.5" x2="249.75" y2="373.5" gradientUnits="userSpaceOnUse">
<stop stop-color="#8892AC"/>
<stop offset="1" stop-color="#ADACF2"/>
</linearGradient>
<linearGradient id="paint15_linear_4563_107796" x1="416.5" y1="136.33" x2="488.253" y2="157.984" gradientUnits="userSpaceOnUse">
<stop offset="0.0015505" stop-color="#44DCFE"/>
<stop offset="1" stop-color="#3500D5"/>
</linearGradient>
<linearGradient id="paint16_linear_4563_107796" x1="454" y1="375.5" x2="406.159" y2="243.458" gradientUnits="userSpaceOnUse">
<stop stop-color="#077393" stop-opacity="0.86"/>
<stop offset="0.22806" stop-color="white" stop-opacity="0.6"/>
<stop offset="1" stop-color="#8CE0F0" stop-opacity="0"/>
</linearGradient>
<linearGradient id="paint17_linear_4563_107796" x1="479" y1="123" x2="403.5" y2="137.991" gradientUnits="userSpaceOnUse">
<stop stop-color="#0081A7" stop-opacity="0"/>
<stop offset="0.20902" stop-color="#EAEDFF" stop-opacity="0.38"/>
<stop offset="1" stop-color="#D5DAFF"/>
</linearGradient>
<linearGradient id="paint18_linear_4563_107796" x1="191.5" y1="5.33038" x2="263.253" y2="26.9835" gradientUnits="userSpaceOnUse">
<stop offset="0.0015505" stop-color="#44DCFE"/>
<stop offset="1" stop-color="#3500D5"/>
</linearGradient>
<linearGradient id="paint19_linear_4563_107796" x1="229" y1="244.5" x2="181.159" y2="112.458" gradientUnits="userSpaceOnUse">
<stop stop-color="#077393" stop-opacity="0.86"/>
<stop offset="0.22806" stop-color="white" stop-opacity="0.6"/>
<stop offset="1" stop-color="#8CE0F0" stop-opacity="0"/>
</linearGradient>
<linearGradient id="paint20_linear_4563_107796" x1="254" y1="-8" x2="178.5" y2="6.99141" gradientUnits="userSpaceOnUse">
<stop stop-color="#0081A7" stop-opacity="0"/>
<stop offset="0.20902" stop-color="#EAEDFF" stop-opacity="0.38"/>
<stop offset="1" stop-color="#D5DAFF"/>
</linearGradient>
<linearGradient id="paint21_linear_4563_107796" x1="258" y1="189.531" x2="272.667" y2="250.373" gradientUnits="userSpaceOnUse">
<stop offset="0.0015505" stop-color="#44DCFE"/>
<stop offset="1" stop-color="#3500D5"/>
</linearGradient>
<linearGradient id="paint22_linear_4563_107796" x1="238.42" y1="253.193" x2="222.666" y2="221.857" gradientUnits="userSpaceOnUse">
<stop stop-color="#077393" stop-opacity="0.86"/>
<stop offset="0.22806" stop-color="white" stop-opacity="0.6"/>
<stop offset="1" stop-color="#8CE0F0" stop-opacity="0"/>
</linearGradient>
<linearGradient id="paint23_linear_4563_107796" x1="265.629" y1="190.034" x2="213.246" y2="190.034" gradientUnits="userSpaceOnUse">
<stop stop-color="#0081A7" stop-opacity="0"/>
<stop offset="0.20902" stop-color="#EAEDFF" stop-opacity="0.38"/>
<stop offset="1" stop-color="#D5DAFF"/>
</linearGradient>
<linearGradient id="paint24_linear_4563_107796" x1="169" y1="192.299" x2="165.047" y2="262.886" gradientUnits="userSpaceOnUse">
<stop offset="0.0015505" stop-color="white"/>
<stop offset="1" stop-color="#5DE5FE"/>
</linearGradient>
<linearGradient id="paint25_linear_4563_107796" x1="195.7" y1="253.948" x2="215.224" y2="219.8" gradientUnits="userSpaceOnUse">
<stop stop-color="#57CEE4"/>
<stop offset="0.109375" stop-color="white" stop-opacity="0.51886"/>
<stop offset="1" stop-color="#DEF7FF"/>
</linearGradient>
<linearGradient id="paint26_linear_4563_107796" x1="166.966" y1="227.527" x2="215.026" y2="227.527" gradientUnits="userSpaceOnUse">
<stop stop-color="#7BD4E6"/>
<stop offset="0.0880419" stop-color="white" stop-opacity="0.51"/>
<stop offset="1" stop-color="#32C8FC" stop-opacity="0.13"/>
</linearGradient>
<linearGradient id="paint27_linear_4563_107796" x1="188.707" y1="192.55" x2="188.707" y2="236.334" gradientUnits="userSpaceOnUse">
<stop offset="0.0495103" stop-color="#F0DFF8" stop-opacity="0"/>
<stop offset="1" stop-color="#C2E0FC"/>
</linearGradient>
<linearGradient id="paint28_linear_4563_107796" x1="169" y1="189.415" x2="256.628" y2="178.449" gradientUnits="userSpaceOnUse">
<stop offset="0.197917" stop-color="#F2FDFF"/>
<stop offset="1" stop-color="#FFBFF1"/>
</linearGradient>
<linearGradient id="paint29_linear_4563_107796" x1="189.851" y1="174.065" x2="217.13" y2="222.875" gradientUnits="userSpaceOnUse">
<stop stop-color="#FEAFE7" stop-opacity="0.76"/>
<stop offset="0.0833333" stop-color="white" stop-opacity="0.916667"/>
<stop offset="1" stop-color="#E2F7FB" stop-opacity="0"/>
</linearGradient>
<linearGradient id="paint30_linear_4563_107796" x1="240.2" y1="173.814" x2="192.901" y2="258.535" gradientUnits="userSpaceOnUse">
<stop stop-color="#BB66E1"/>
<stop offset="0.09375" stop-color="white" stop-opacity="0"/>
<stop offset="0.96875" stop-color="#F8DBEC"/>
</linearGradient>
<linearGradient id="paint31_linear_4563_107796" x1="246.5" y1="37.3304" x2="318.253" y2="58.9835" gradientUnits="userSpaceOnUse">
<stop offset="0.0015505" stop-color="#44DCFE"/>
<stop offset="1" stop-color="#3500D5"/>
</linearGradient>
<linearGradient id="paint32_linear_4563_107796" x1="284" y1="276.5" x2="236.159" y2="144.458" gradientUnits="userSpaceOnUse">
<stop stop-color="#077393" stop-opacity="0.86"/>
<stop offset="0.22806" stop-color="white" stop-opacity="0.6"/>
<stop offset="1" stop-color="#8CE0F0" stop-opacity="0"/>
</linearGradient>
<linearGradient id="paint33_linear_4563_107796" x1="309" y1="24" x2="233.5" y2="38.9914" gradientUnits="userSpaceOnUse">
<stop stop-color="#0081A7" stop-opacity="0"/>
<stop offset="0.20902" stop-color="#EAEDFF" stop-opacity="0.38"/>
<stop offset="1" stop-color="#D5DAFF"/>
</linearGradient>
<linearGradient id="paint34_linear_4563_107796" x1="301.5" y1="69.3304" x2="373.253" y2="90.9835" gradientUnits="userSpaceOnUse">
<stop offset="0.0015505" stop-color="#44DCFE"/>
<stop offset="1" stop-color="#3500D5"/>
</linearGradient>
<linearGradient id="paint35_linear_4563_107796" x1="339" y1="308.5" x2="291.159" y2="176.458" gradientUnits="userSpaceOnUse">
<stop stop-color="#077393" stop-opacity="0.86"/>
<stop offset="0.22806" stop-color="white" stop-opacity="0.6"/>
<stop offset="1" stop-color="#8CE0F0" stop-opacity="0"/>
</linearGradient>
<linearGradient id="paint36_linear_4563_107796" x1="364" y1="56" x2="288.5" y2="70.9914" gradientUnits="userSpaceOnUse">
<stop stop-color="#0081A7" stop-opacity="0"/>
<stop offset="0.20902" stop-color="#EAEDFF" stop-opacity="0.38"/>
<stop offset="1" stop-color="#D5DAFF"/>
</linearGradient>
<linearGradient id="paint37_linear_4563_107796" x1="356.5" y1="100.33" x2="428.253" y2="121.984" gradientUnits="userSpaceOnUse">
<stop offset="0.0015505" stop-color="#44DCFE"/>
<stop offset="1" stop-color="#3500D5"/>
</linearGradient>
<linearGradient id="paint38_linear_4563_107796" x1="394" y1="339.5" x2="346.159" y2="207.458" gradientUnits="userSpaceOnUse">
<stop stop-color="#077393" stop-opacity="0.86"/>
<stop offset="0.22806" stop-color="white" stop-opacity="0.6"/>
<stop offset="1" stop-color="#8CE0F0" stop-opacity="0"/>
</linearGradient>
<linearGradient id="paint39_linear_4563_107796" x1="419" y1="87" x2="343.5" y2="101.991" gradientUnits="userSpaceOnUse">
<stop stop-color="#0081A7" stop-opacity="0"/>
<stop offset="0.20902" stop-color="#EAEDFF" stop-opacity="0.38"/>
<stop offset="1" stop-color="#D5DAFF"/>
</linearGradient>
<linearGradient id="paint40_linear_4563_107796" x1="258" y1="316.531" x2="272.667" y2="377.373" gradientUnits="userSpaceOnUse">
<stop offset="0.0015505" stop-color="#44DCFE"/>
<stop offset="1" stop-color="#3500D5"/>
</linearGradient>
<linearGradient id="paint41_linear_4563_107796" x1="238.42" y1="380.193" x2="222.666" y2="348.857" gradientUnits="userSpaceOnUse">
<stop stop-color="#077393" stop-opacity="0.86"/>
<stop offset="0.22806" stop-color="white" stop-opacity="0.6"/>
<stop offset="1" stop-color="#8CE0F0" stop-opacity="0"/>
</linearGradient>
<linearGradient id="paint42_linear_4563_107796" x1="265.629" y1="317.034" x2="213.246" y2="317.034" gradientUnits="userSpaceOnUse">
<stop stop-color="#0081A7" stop-opacity="0"/>
<stop offset="0.20902" stop-color="#EAEDFF" stop-opacity="0.38"/>
<stop offset="1" stop-color="#D5DAFF"/>
</linearGradient>
<linearGradient id="paint43_linear_4563_107796" x1="169" y1="319.299" x2="165.047" y2="389.886" gradientUnits="userSpaceOnUse">
<stop offset="0.0015505" stop-color="white"/>
<stop offset="1" stop-color="#5DE5FE"/>
</linearGradient>
<linearGradient id="paint44_linear_4563_107796" x1="195.7" y1="380.948" x2="215.224" y2="346.8" gradientUnits="userSpaceOnUse">
<stop stop-color="#57CEE4"/>
<stop offset="0.109375" stop-color="white" stop-opacity="0.51886"/>
<stop offset="1" stop-color="#DEF7FF"/>
</linearGradient>
<linearGradient id="paint45_linear_4563_107796" x1="166.966" y1="354.527" x2="215.026" y2="354.527" gradientUnits="userSpaceOnUse">
<stop stop-color="#7BD4E6"/>
<stop offset="0.0880419" stop-color="white" stop-opacity="0.51"/>
<stop offset="1" stop-color="#32C8FC" stop-opacity="0.13"/>
</linearGradient>
<linearGradient id="paint46_linear_4563_107796" x1="188.707" y1="319.55" x2="188.707" y2="363.334" gradientUnits="userSpaceOnUse">
<stop offset="0.0495103" stop-color="#F0DFF8" stop-opacity="0"/>
<stop offset="1" stop-color="#C2E0FC"/>
</linearGradient>
<linearGradient id="paint47_linear_4563_107796" x1="169" y1="316.415" x2="256.628" y2="305.449" gradientUnits="userSpaceOnUse">
<stop offset="0.197917" stop-color="#F2FDFF"/>
<stop offset="1" stop-color="#FFBFF1"/>
</linearGradient>
<linearGradient id="paint48_linear_4563_107796" x1="189.851" y1="301.065" x2="217.13" y2="349.875" gradientUnits="userSpaceOnUse">
<stop stop-color="#FEAFE7" stop-opacity="0.76"/>
<stop offset="0.0833333" stop-color="white" stop-opacity="0.916667"/>
<stop offset="1" stop-color="#E2F7FB" stop-opacity="0"/>
</linearGradient>
<linearGradient id="paint49_linear_4563_107796" x1="240.2" y1="300.814" x2="192.901" y2="385.535" gradientUnits="userSpaceOnUse">
<stop stop-color="#BB66E1"/>
<stop offset="0.09375" stop-color="white" stop-opacity="0"/>
<stop offset="0.96875" stop-color="#F8DBEC"/>
</linearGradient>
<linearGradient id="paint50_linear_4563_107796" x1="387" y1="195.75" x2="412.632" y2="192.677" gradientUnits="userSpaceOnUse">
<stop offset="0.197917" stop-color="#F2FDFF"/>
<stop offset="1" stop-color="#FFBFF1"/>
</linearGradient>
<linearGradient id="paint51_linear_4563_107796" x1="386.5" y1="181.5" x2="401.854" y2="205.453" gradientUnits="userSpaceOnUse">
<stop stop-color="#FEAFE7" stop-opacity="0.76"/>
<stop offset="0.0833333" stop-color="white" stop-opacity="0.916667"/>
<stop offset="1" stop-color="#E2F7FB" stop-opacity="0"/>
</linearGradient>
<linearGradient id="paint52_linear_4563_107796" x1="429" y1="158" x2="392.16" y2="215.676" gradientUnits="userSpaceOnUse">
<stop stop-color="#BB66E1"/>
<stop offset="0.09375" stop-color="white" stop-opacity="0"/>
<stop offset="0.96875" stop-color="#F8DBEC"/>
</linearGradient>
<clipPath id="clip0_4563_107796">
<rect width="588" height="472" fill="white"/>
</clipPath>
</defs>
</svg>
