<svg xmlns="http://www.w3.org/2000/svg" width="328" height="232" fill="none"><g clip-path="url(#a)"><path fill="url(#b)" d="M79.236 173.635C66.543 139.32 164.077 52.134 203.919 37.397c39.843-14.738 88.401 58.709 101.094 93.023 12.693 34.315-13.689 50.013-53.532 64.75-67.166 24.844-159.553 12.78-172.245-21.535Z"/><path fill="url(#c)" d="M148.437 47.113c6.479 15.463-48.902 62.485-71.193 71.824-41.147 21.068-53.826-14.794-54.479-37.945-.311-11.053 8.376-24.455 30.666-33.794 37.577-15.745 88.527-15.548 95.006-.085Z"/><path fill="url(#d)" d="M163.762 92.707 54.667 155.693l109.095 62.985 109.096-62.985-109.096-62.986Z"/><path fill="#F3F5FA" d="M163.762 85.102 54.667 148.087l109.095 62.985 109.096-62.985-109.096-62.985Z"/><path fill="url(#e)" d="m201.791 183.977-94.834-54.905 17.35-10.22 95.548 54.905-18.064 10.22Z"/><path fill="url(#f)" d="m201.791 181.125-94.834-54.905 17.35-10.22 95.548 54.904-18.064 10.221Z"/><path fill="url(#g)" d="m201.791 181.125-94.834-54.905 17.35-10.22 95.548 54.904-18.064 10.221Z"/><path fill="url(#h)" d="m201.791 181.125-94.834-54.905 17.35-10.22 95.548 54.904-18.064 10.221Z"/><path fill="#DCE3FF" d="m197.038 144.046 6.179 3.803v28.522l-6.179-3.565v-28.76ZM116.464 97.936l6.179 3.803v28.522l-6.179-3.565v-28.76Z"/><path fill="url(#i)" d="m203.217 147.849 6.18-3.803v28.522l-6.18 3.565v-28.284Z"/><path fill="url(#j)" fill-opacity=".53" d="m203.217 147.849 6.18-3.803v28.522l-6.18 3.565v-28.284Z"/><path fill="url(#k)" fill-opacity=".62" d="m203.217 147.849 6.18-3.803v28.522l-6.18 3.565v-28.284Z"/><path fill="url(#l)" d="m122.643 101.739 6.18-3.803v28.522l-6.18 3.565v-28.284Z"/><path fill="url(#m)" fill-opacity=".53" d="m122.643 101.739 6.18-3.803v28.522l-6.18 3.565v-28.284Z"/><path fill="url(#n)" fill-opacity=".62" d="m122.643 101.739 6.18-3.803v28.522l-6.18 3.565v-28.284Z"/><path fill="#8791AB" d="M231.501 94.133 91.269 13.322l2.853-1.426L234.354 92.47l-2.853 1.663Z"/><path fill="url(#o)" d="M234.354 92.47v87.942l-2.853 1.426-6.655-19.047L94.122 87.18l-.476-75.284L234.354 92.47Z"/><path fill="url(#p)" d="m231.501 181.838-140.232-81.11V13.322l140.232 80.662v87.854Z"/><path fill="url(#q)" d="m231.501 181.838-140.232-81.11V13.322l140.232 80.662v87.854Z"/><path fill="url(#r)" d="m231.501 181.838-140.232-81.11V13.322l140.232 80.662v87.854Z"/><path fill="url(#s)" d="m231.501 181.838-140.232-81.11V13.322l140.232 80.662v87.854Z"/><path fill="#fff" d="M161.354 60.284c.88.51 1.422 1.45 1.422 2.468l.001 69.215c0 2.198-2.381 3.57-4.282 2.468L96.97 98.795a2.852 2.852 0 0 1-1.422-2.468V27.112c0-2.198 2.38-3.57 4.281-2.468l61.525 35.64Z" opacity=".7"/><path fill="#B1B9D4" fill-rule="evenodd" d="m102.978 33.266 17.305 9.774a2.281 2.281 0 0 1 1.159 1.986c0 1.746-1.882 2.844-3.402 1.986l-17.306-9.774a2.28 2.28 0 0 1-1.159-1.986c0-1.746 1.882-2.844 3.403-1.986Zm21.316 48.22v19.842c0 2.183-2.353 3.557-4.255 2.483l-16.162-9.128a2.85 2.85 0 0 1-1.449-2.483V72.359c0-2.184 2.353-3.558 4.254-2.484l16.163 9.128a2.853 2.853 0 0 1 1.449 2.484Zm26.145 33.627v-19.84a2.853 2.853 0 0 0-1.449-2.484l-16.163-9.128c-1.901-1.074-4.255.3-4.255 2.483v19.841c0 1.029.554 1.978 1.45 2.484l16.162 9.128c1.902 1.074 4.255-.3 4.255-2.484Zm-48.891-72.2L156.42 73.8a1.325 1.325 0 0 1-1.299 2.307L100.25 45.22a1.323 1.323 0 1 1 1.298-2.307ZM156.42 79.03l-54.872-30.887a1.324 1.324 0 1 0-1.298 2.307l54.871 30.887a1.324 1.324 0 1 0 1.299-2.307ZM101.548 53.37l54.872 30.886a1.325 1.325 0 0 1-1.299 2.308L100.25 55.678a1.323 1.323 0 1 1 1.298-2.307Zm54.872 36.116L101.548 58.6a1.323 1.323 0 1 0-1.298 2.307l54.871 30.887a1.324 1.324 0 1 0 1.299-2.307Z" clip-rule="evenodd"/><g filter="url(#t)"><path fill="#fff" d="M219.695 75.853v47.558c0 2.198-2.381 3.57-4.282 2.468l-26.698-15.466a2.852 2.852 0 0 1-1.422-2.468V60.387c0-2.198 2.38-3.57 4.282-2.468l26.697 15.466a2.852 2.852 0 0 1 1.423 2.468Z"/></g><path fill="#DADEE8" d="m193.887 65.03 11.639 6.64a1.549 1.549 0 0 1-1.534 2.69l-11.64-6.639a1.549 1.549 0 0 1 1.535-2.69Z"/><g filter="url(#u)"><path fill="#fff" d="M104.639 76.245v37.122c0 2.197-2.38 3.57-4.282 2.468l-34.76-20.136a2.852 2.852 0 0 1-1.423-2.468V56.109c0-2.198 2.38-3.57 4.282-2.468l34.761 20.136c.88.51 1.422 1.45 1.422 2.468Z"/></g><path fill="#DADEE8" d="m87.88 70.736 11.64 6.638a1.549 1.549 0 0 1-1.534 2.69l-11.64-6.638a1.548 1.548 0 1 1 1.535-2.69Z"/><g filter="url(#v)"><path stroke="#5CEAB7" stroke-linecap="round" stroke-linejoin="round" stroke-width="3.803" d="M70.829 66.562V90.33m5.467-18.539v22.105M82 80.11v16.638m5.229-4.516v7.13m5.229-14.736v18.539m5.704-1.664v5.705"/></g><g filter="url(#w)"><path stroke="#32C8FC" stroke-linecap="round" stroke-linejoin="round" stroke-width="3.803" d="m193.71 106.73.432-3.131a7.065 7.065 0 0 1 3.941-5.404v0a7.063 7.063 0 0 0 3.53-3.815l2.195-5.661a4.48 4.48 0 0 1 4.889-2.803v0a4.479 4.479 0 0 0 4.974-3.04l1.668-5.143"/></g><path fill="#B1B9D4" d="M181.12 117.932v7.463l-5.709-3.286a1.9 1.9 0 0 1-.953-1.648v-3.074c0-1.463 1.582-2.378 2.85-1.648l3.812 2.193Z"/><path fill="#B1B9D4" d="M186.623 122.218v3.074c0 1.463-1.582 2.378-2.85 1.648l-3.812-2.193v-7.462l5.709 3.285c.589.339.953.967.953 1.648ZM181.12 126.332v7.462l-5.709-3.285a1.9 1.9 0 0 1-.953-1.648v-3.075c0-1.462 1.582-2.377 2.85-1.648l3.812 2.194Z"/><path fill="#B1B9D4" d="M186.623 130.617v3.075c0 1.462-1.583 2.377-2.85 1.648l-3.812-2.194v-7.462l5.709 3.285c.589.34.953.968.953 1.648ZM181.12 134.731v7.462l-5.709-3.285a1.9 1.9 0 0 1-.953-1.648v-3.074c0-1.463 1.582-2.378 2.85-1.648l3.812 2.193Z"/><path fill="#B1B9D4" d="M186.623 139.017v3.074c0 1.463-1.583 2.378-2.85 1.648l-3.812-2.193v-7.462l5.709 3.285c.589.339.953.967.953 1.648ZM181.12 143.131v7.462l-5.709-3.285a1.902 1.902 0 0 1-.953-1.648v-3.075c0-1.463 1.582-2.378 2.85-1.648l3.812 2.194Z"/><path fill="#B1B9D4" d="M186.623 147.416v3.075c0 1.462-1.583 2.377-2.85 1.648l-3.812-2.194v-7.462l5.709 3.285c.589.339.953.968.953 1.648ZM194.154 125.463v7.462l-5.709-3.285a1.9 1.9 0 0 1-.953-1.648v-3.075c0-1.462 1.582-2.377 2.85-1.648l3.812 2.194Z"/><path fill="#B1B9D4" d="M199.657 129.748v3.075c0 1.463-1.582 2.378-2.85 1.648l-3.812-2.193v-7.463l5.709 3.285c.589.34.953.968.953 1.648ZM194.154 133.862v7.463l-5.709-3.286a1.9 1.9 0 0 1-.953-1.648v-3.074c0-1.463 1.582-2.378 2.85-1.648l3.812 2.193Z"/><path fill="#B1B9D4" d="M199.657 138.148v3.075c0 1.462-1.582 2.377-2.85 1.648l-3.812-2.194v-7.462l5.709 3.285c.589.339.953.968.953 1.648ZM194.153 142.262l.001 7.462-5.709-3.285a1.9 1.9 0 0 1-.953-1.648v-3.075c0-1.462 1.582-2.377 2.85-1.648l3.811 2.194Z"/><path fill="#B1B9D4" d="M199.657 146.547v3.075c0 1.463-1.583 2.378-2.85 1.648l-3.812-2.194v-7.462l5.709 3.285c.589.34.953.968.953 1.648ZM194.153 150.661l.001 7.463-5.709-3.286a1.9 1.9 0 0 1-.953-1.648v-3.074c0-1.463 1.582-2.378 2.85-1.648l3.811 2.193Z"/><path fill="#B1B9D4" d="M199.657 154.947v3.074c0 1.463-1.583 2.378-2.85 1.649l-3.812-2.194v-7.462l5.709 3.285c.589.339.953.968.953 1.648ZM207.187 132.993v7.463l-5.709-3.285a1.904 1.904 0 0 1-.953-1.648v-3.075c0-1.463 1.583-2.378 2.85-1.648l3.812 2.193Z"/><path fill="#B1B9D4" d="M212.69 137.279v3.075c0 1.462-1.582 2.377-2.85 1.648l-3.811-2.194v-7.462l5.708 3.285a1.9 1.9 0 0 1 .953 1.648ZM207.187 141.393v7.462l-5.709-3.285a1.903 1.903 0 0 1-.953-1.648v-3.075c0-1.462 1.583-2.377 2.85-1.648l3.812 2.194Z"/><path fill="#B1B9D4" d="M212.69 145.679v3.074c0 1.463-1.582 2.378-2.85 1.648l-3.811-2.193v-7.463l5.708 3.286a1.9 1.9 0 0 1 .953 1.648ZM207.187 149.792v7.463l-5.709-3.285a1.904 1.904 0 0 1-.953-1.648v-3.075c0-1.463 1.583-2.378 2.85-1.648l3.812 2.193Z"/><path fill="#B1B9D4" d="M212.69 154.078v3.075c0 1.462-1.582 2.377-2.85 1.648l-3.811-2.194v-7.462l5.708 3.285a1.9 1.9 0 0 1 .953 1.648ZM207.187 158.192v7.462l-5.709-3.285a1.903 1.903 0 0 1-.953-1.648v-3.075c0-1.462 1.583-2.377 2.85-1.648l3.812 2.194Z"/><path fill="#B1B9D4" d="M212.69 162.477v3.075c0 1.463-1.582 2.378-2.85 1.648l-3.812-2.193v-7.463l5.709 3.285c.59.34.953.968.953 1.648ZM220.221 140.524v7.462l-5.709-3.285a1.901 1.901 0 0 1-.953-1.648v-3.074c0-1.463 1.583-2.378 2.85-1.648l3.812 2.193Z"/><path fill="#B1B9D4" d="M225.724 144.81v3.074c0 1.463-1.582 2.378-2.85 1.648l-3.812-2.193v-7.462l5.709 3.285a1.9 1.9 0 0 1 .953 1.648ZM220.221 148.924v7.462l-5.709-3.285a1.904 1.904 0 0 1-.953-1.648v-3.075c0-1.462 1.583-2.377 2.85-1.648l3.812 2.194Z"/><path fill="#B1B9D4" d="M225.724 153.209v3.075c0 1.462-1.582 2.377-2.85 1.648l-3.812-2.194v-7.462l5.709 3.285a1.9 1.9 0 0 1 .953 1.648ZM220.221 157.323v7.462l-5.709-3.285a1.903 1.903 0 0 1-.953-1.648v-3.074c0-1.463 1.583-2.378 2.85-1.649l3.812 2.194Z"/><path fill="#B1B9D4" d="M225.724 161.609v3.074c0 1.463-1.582 2.378-2.85 1.648l-3.812-2.193v-7.462l5.709 3.285a1.9 1.9 0 0 1 .953 1.648ZM220.221 165.723v7.462l-5.709-3.285a1.904 1.904 0 0 1-.953-1.648v-3.075c0-1.463 1.583-2.378 2.85-1.648l3.812 2.194Z"/><path fill="#B1B9D4" d="M225.724 170.008v3.075c0 1.462-1.582 2.377-2.85 1.648l-3.812-2.194v-7.462l5.709 3.285a1.9 1.9 0 0 1 .953 1.648Z"/><path fill="#fff" d="M176.366 120.309v7.462l-5.709-3.285a1.903 1.903 0 0 1-.953-1.648v-3.075c0-1.462 1.583-2.377 2.85-1.648l3.812 2.194Z"/><path fill="#fff" d="M181.869 124.595v3.074c0 1.463-1.582 2.378-2.85 1.648l-3.811-2.193-.001-7.463 5.709 3.286a1.9 1.9 0 0 1 .953 1.648ZM176.366 128.708v7.463l-5.709-3.285a1.904 1.904 0 0 1-.953-1.648v-3.075c0-1.463 1.583-2.378 2.85-1.648l3.812 2.193Z"/><path fill="#fff" d="M181.869 132.994v3.075c0 1.462-1.582 2.377-2.85 1.648l-3.811-2.194-.001-7.462 5.709 3.285a1.9 1.9 0 0 1 .953 1.648ZM176.366 137.108v7.462l-5.709-3.285a1.903 1.903 0 0 1-.953-1.648v-3.075c0-1.462 1.583-2.377 2.85-1.648l3.812 2.194Z"/><path fill="#fff" d="M181.869 141.394v3.074c0 1.463-1.582 2.378-2.85 1.648l-3.811-2.193-.001-7.463 5.709 3.286a1.9 1.9 0 0 1 .953 1.648ZM176.366 145.507v7.463l-5.709-3.285a1.904 1.904 0 0 1-.953-1.648v-3.075c0-1.463 1.583-2.378 2.85-1.648l3.812 2.193Z"/><path fill="#fff" d="M181.869 149.793v3.075c0 1.462-1.582 2.377-2.85 1.648l-3.811-2.194-.001-7.462 5.709 3.285a1.9 1.9 0 0 1 .953 1.648ZM189.4 127.84v7.462l-5.709-3.285a1.903 1.903 0 0 1-.953-1.648v-3.075c0-1.462 1.583-2.377 2.85-1.648l3.812 2.194Z"/><path fill="#fff" d="M194.903 132.125v3.075c0 1.463-1.582 2.378-2.85 1.648l-3.811-2.194v-7.462l5.708 3.285c.59.34.953.968.953 1.648ZM189.4 136.239v7.462l-5.709-3.285a1.901 1.901 0 0 1-.953-1.648v-3.074c0-1.463 1.583-2.378 2.85-1.648l3.812 2.193Z"/><path fill="#fff" d="M194.903 140.525v3.074c0 1.463-1.582 2.378-2.85 1.648l-3.811-2.193v-7.462l5.708 3.285a1.9 1.9 0 0 1 .953 1.648Z"/><path fill="#FFD8F0" d="M189.4 144.639v7.462l-5.709-3.285a1.904 1.904 0 0 1-.953-1.648v-3.075c0-1.463 1.583-2.378 2.85-1.648l3.812 2.194Z"/><path fill="#FFD8F0" d="M194.903 148.924v3.075c0 1.462-1.582 2.377-2.85 1.648l-3.812-2.194v-7.462l5.709 3.285a1.9 1.9 0 0 1 .953 1.648Z"/><path fill="#fff" d="M189.4 153.038v7.462l-5.709-3.285a1.901 1.901 0 0 1-.953-1.648v-3.074c0-1.463 1.583-2.378 2.85-1.648l3.812 2.193Z"/><path fill="#fff" d="M194.903 157.324v3.074c0 1.463-1.582 2.378-2.85 1.648l-3.812-2.193v-7.463l5.709 3.286a1.9 1.9 0 0 1 .953 1.648Z"/><path fill="#5CEAB7" d="M202.433 135.37v7.463l-5.708-3.286a1.9 1.9 0 0 1-.953-1.648v-3.074c0-1.463 1.582-2.378 2.849-1.648l3.812 2.193Z"/><path fill="#5CEAB7" d="M207.937 139.656v3.075c0 1.462-1.583 2.377-2.85 1.648l-3.812-2.194v-7.462l5.708 3.285c.59.339.954.968.954 1.648Z"/><path fill="#fff" d="M202.433 143.77v7.462l-5.708-3.285a1.9 1.9 0 0 1-.953-1.648v-3.075c0-1.462 1.582-2.377 2.849-1.648l3.812 2.194Z"/><path fill="#fff" d="M207.937 148.055v3.075c0 1.463-1.583 2.378-2.85 1.648l-3.812-2.193v-7.463l5.708 3.285c.59.34.954.968.954 1.648ZM202.433 152.169v7.463l-5.708-3.286a1.9 1.9 0 0 1-.953-1.648v-3.074c0-1.463 1.582-2.378 2.849-1.648l3.812 2.193Z"/><path fill="#fff" d="M207.937 156.455v3.075c0 1.462-1.583 2.377-2.85 1.648l-3.812-2.194v-7.462l5.708 3.285c.59.339.954.968.954 1.648ZM202.433 160.569v7.462l-5.708-3.285a1.9 1.9 0 0 1-.953-1.648v-3.075c0-1.462 1.582-2.377 2.85-1.648l3.811 2.194Z"/><path fill="#fff" d="M207.937 164.854v3.075c0 1.463-1.583 2.378-2.85 1.648l-3.812-2.194v-7.462l5.709 3.285c.589.34.953.968.953 1.648ZM215.467 142.901v7.462l-5.708-3.285a1.9 1.9 0 0 1-.953-1.648v-3.075c0-1.462 1.582-2.377 2.85-1.648l3.811 2.194Z"/><path fill="#fff" d="M220.97 147.187v3.074c0 1.463-1.582 2.378-2.849 1.648l-3.812-2.193v-7.463l5.708 3.286a1.9 1.9 0 0 1 .953 1.648Z"/><path fill="#FFF3C9" d="M215.467 151.3v7.463l-5.708-3.285a1.902 1.902 0 0 1-.953-1.648v-3.075c0-1.463 1.582-2.378 2.85-1.648l3.811 2.193Z"/><path fill="#FFF3C9" d="M220.97 155.586v3.075c0 1.462-1.582 2.377-2.849 1.648l-3.812-2.194v-7.462l5.708 3.285a1.9 1.9 0 0 1 .953 1.648Z"/><path fill="#fff" d="M215.467 159.7v7.462l-5.708-3.285a1.9 1.9 0 0 1-.953-1.648v-3.075c0-1.462 1.582-2.377 2.85-1.648l3.811 2.194Z"/><path fill="#fff" d="M220.97 163.986v3.074c0 1.463-1.582 2.378-2.849 1.648l-3.812-2.193v-7.463l5.708 3.285c.59.34.953.968.953 1.649ZM215.467 168.099v7.463l-5.708-3.285a1.902 1.902 0 0 1-.953-1.648v-3.075c0-1.463 1.582-2.378 2.85-1.648l3.811 2.193Z"/><path fill="#fff" d="M220.97 172.385v3.075c0 1.462-1.582 2.377-2.849 1.648l-3.812-2.194v-7.462l5.708 3.285a1.9 1.9 0 0 1 .953 1.648Z"/></g><defs><linearGradient id="b" x1="213.306" x2="171.682" y1="209.291" y2="28.215" gradientUnits="userSpaceOnUse"><stop offset=".026" stop-color="#CFECFD" stop-opacity=".99"/><stop offset=".226" stop-color="#D9D3ED" stop-opacity=".788"/><stop offset="1" stop-color="#FD71AF" stop-opacity=".01"/></linearGradient><linearGradient id="c" x1="72.606" x2="97.642" y1="39.163" y2="121.099" gradientUnits="userSpaceOnUse"><stop stop-color="#CEEFFF"/><stop offset=".026" stop-color="#CFECFD" stop-opacity=".83"/><stop offset="1" stop-color="#FD71AF" stop-opacity=".01"/></linearGradient><linearGradient id="d" x1="101.201" x2="189.932" y1="-27.559" y2="225.511" gradientUnits="userSpaceOnUse"><stop stop-color="#00B4D5"/><stop offset="1" stop-color="#DCE3FF"/></linearGradient><linearGradient id="e" x1="170.158" x2="179.794" y1="155.916" y2="179.666" gradientUnits="userSpaceOnUse"><stop stop-color="#8791AB"/><stop offset=".844" stop-color="#BEC6E1" stop-opacity=".75"/></linearGradient><linearGradient id="f" x1="106.957" x2="218.148" y1="148.562" y2="134.786" gradientUnits="userSpaceOnUse"><stop offset=".198" stop-color="#F2FDFF"/><stop offset="1" stop-color="#FFBFF1"/></linearGradient><linearGradient id="g" x1="133.815" x2="168.537" y1="123.368" y2="191.135" gradientUnits="userSpaceOnUse"><stop stop-color="#FEAFE7" stop-opacity=".76"/><stop offset=".362" stop-color="#fff" stop-opacity=".917"/><stop offset="1" stop-color="#E2F7FB" stop-opacity="0"/></linearGradient><linearGradient id="h" x1="197.275" x2="136.358" y1="128.574" y2="236.604" gradientUnits="userSpaceOnUse"><stop stop-color="#BB66E1"/><stop offset=".094" stop-color="#fff" stop-opacity="0"/><stop offset=".969" stop-color="#F8DBEC"/></linearGradient><linearGradient id="i" x1="209.397" x2="241.935" y1="62.441" y2="74.321" gradientUnits="userSpaceOnUse"><stop offset=".002" stop-color="#44DCFE"/><stop offset="1" stop-color="#3500D5"/></linearGradient><linearGradient id="j" x1="207.733" x2="193.697" y1="178.986" y2="176.591" gradientUnits="userSpaceOnUse"><stop stop-color="#077393" stop-opacity=".86"/><stop offset=".228" stop-color="#fff" stop-opacity=".6"/><stop offset="1" stop-color="#8CE0F0" stop-opacity="0"/></linearGradient><linearGradient id="k" x1="210.45" x2="203.217" y1="63.231" y2="63.231" gradientUnits="userSpaceOnUse"><stop stop-color="#0081A7" stop-opacity="0"/><stop offset=".209" stop-color="#EAEDFF" stop-opacity=".38"/><stop offset="1" stop-color="#D5DAFF"/></linearGradient><linearGradient id="l" x1="128.823" x2="161.361" y1="16.331" y2="28.211" gradientUnits="userSpaceOnUse"><stop offset=".002" stop-color="#44DCFE"/><stop offset="1" stop-color="#3500D5"/></linearGradient><linearGradient id="m" x1="127.159" x2="113.123" y1="132.875" y2="130.481" gradientUnits="userSpaceOnUse"><stop stop-color="#077393" stop-opacity=".86"/><stop offset=".228" stop-color="#fff" stop-opacity=".6"/><stop offset="1" stop-color="#8CE0F0" stop-opacity="0"/></linearGradient><linearGradient id="n" x1="129.877" x2="122.643" y1="17.12" y2="17.12" gradientUnits="userSpaceOnUse"><stop stop-color="#0081A7" stop-opacity="0"/><stop offset=".209" stop-color="#EAEDFF" stop-opacity=".38"/><stop offset="1" stop-color="#D5DAFF"/></linearGradient><linearGradient id="o" x1="231.739" x2="138.899" y1="158.307" y2="112.556" gradientUnits="userSpaceOnUse"><stop stop-color="#8791AB"/><stop offset=".844" stop-color="#BEC6E1" stop-opacity=".75"/></linearGradient><linearGradient id="p" x1="231.501" x2="253.798" y1="13.863" y2="148.625" gradientUnits="userSpaceOnUse"><stop offset=".002" stop-color="#F8FEFF"/><stop offset="1" stop-color="#D6C8FF"/></linearGradient><linearGradient id="q" x1="231.501" x2="253.798" y1="13.863" y2="148.625" gradientUnits="userSpaceOnUse"><stop offset=".002" stop-color="#F8FEFF"/><stop offset="1" stop-color="#D6C8FF"/></linearGradient><linearGradient id="r" x1="202.98" x2="163.998" y1="208.696" y2="71.186" gradientUnits="userSpaceOnUse"><stop stop-color="#077393" stop-opacity=".86"/><stop offset=".228" stop-color="#fff" stop-opacity=".6"/><stop offset="1" stop-color="#8CE0F0" stop-opacity="0"/></linearGradient><linearGradient id="s" x1="255.405" x2="91.269" y1="14.945" y2="14.945" gradientUnits="userSpaceOnUse"><stop stop-color="#0081A7" stop-opacity="0"/><stop offset=".209" stop-color="#EAEDFF" stop-opacity=".38"/><stop offset="1" stop-color="#D5DAFF"/></linearGradient><filter id="t" width="64.727" height="101.062" x="177.785" y="46.597" color-interpolation-filters="sRGB" filterUnits="userSpaceOnUse"><feFlood flood-opacity="0" result="BackgroundImageFix"/><feColorMatrix in="SourceAlpha" result="hardAlpha" values="0 0 0 0 0 0 0 0 0 0 0 0 0 0 0 0 0 0 127 0"/><feOffset dx="6.655" dy="5.229"/><feGaussianBlur stdDeviation="8.081"/><feComposite in2="hardAlpha" operator="out"/><feColorMatrix values="0 0 0 0 0.968627 0 0 0 0 0.870588 0 0 0 0 0.933333 0 0 0 1 0"/><feBlend in2="BackgroundImageFix" result="effect1_dropShadow_8646_14579"/><feColorMatrix in="SourceAlpha" result="hardAlpha" values="0 0 0 0 0 0 0 0 0 0 0 0 0 0 0 0 0 0 127 0"/><feOffset dx="1.901" dy="-.475"/><feComposite in2="hardAlpha" operator="out"/><feColorMatrix values="0 0 0 0 0.533333 0 0 0 0 0.572549 0 0 0 0 0.67451 0 0 0 1 0"/><feBlend in2="effect1_dropShadow_8646_14579" result="effect2_dropShadow_8646_14579"/><feBlend in="SourceGraphic" in2="effect2_dropShadow_8646_14579" result="shape"/></filter><filter id="u" width="72.79" height="95.296" x="54.667" y="42.319" color-interpolation-filters="sRGB" filterUnits="userSpaceOnUse"><feFlood flood-opacity="0" result="BackgroundImageFix"/><feColorMatrix in="SourceAlpha" result="hardAlpha" values="0 0 0 0 0 0 0 0 0 0 0 0 0 0 0 0 0 0 127 0"/><feOffset dx="6.655" dy="5.229"/><feGaussianBlur stdDeviation="8.081"/><feComposite in2="hardAlpha" operator="out"/><feColorMatrix values="0 0 0 0 0.513726 0 0 0 0 0.815686 0 0 0 0 0.933333 0 0 0 1 0"/><feBlend in2="BackgroundImageFix" result="effect1_dropShadow_8646_14579"/><feColorMatrix in="SourceAlpha" result="hardAlpha" values="0 0 0 0 0 0 0 0 0 0 0 0 0 0 0 0 0 0 127 0"/><feOffset dx="1.901" dy="-.475"/><feComposite in2="hardAlpha" operator="out"/><feColorMatrix values="0 0 0 0 0.533333 0 0 0 0 0.572549 0 0 0 0 0.67451 0 0 0 1 0"/><feBlend in2="effect1_dropShadow_8646_14579" result="effect2_dropShadow_8646_14579"/><feBlend in="SourceGraphic" in2="effect2_dropShadow_8646_14579" result="shape"/></filter><filter id="v" width="32.087" height="45.873" x="67.977" y="63.235" color-interpolation-filters="sRGB" filterUnits="userSpaceOnUse"><feFlood flood-opacity="0" result="BackgroundImageFix"/><feBlend in="SourceGraphic" in2="BackgroundImageFix" result="shape"/><feColorMatrix in="SourceAlpha" result="hardAlpha" values="0 0 0 0 0 0 0 0 0 0 0 0 0 0 0 0 0 0 127 0"/><feOffset dx="-.475" dy=".475"/><feComposite in2="hardAlpha" k2="-1" k3="1" operator="arithmetic"/><feColorMatrix values="0 0 0 0 1 0 0 0 0 1 0 0 0 0 1 0 0 0 1 0"/><feBlend in2="shape" result="effect1_innerShadow_8646_14579"/><feColorMatrix in="SourceAlpha" result="hardAlpha" values="0 0 0 0 0 0 0 0 0 0 0 0 0 0 0 0 0 0 127 0"/><feOffset dx="-.951" dy="-1.426"/><feGaussianBlur stdDeviation=".713"/><feComposite in2="hardAlpha" k2="-1" k3="1" operator="arithmetic"/><feColorMatrix values="0 0 0 0 0.02 0 0 0 0 0 0 0 0 0 1 0 0 0 0.25 0"/><feBlend in2="effect1_innerShadow_8646_14579" result="effect2_innerShadow_8646_14579"/></filter><filter id="w" width="26.383" height="34.227" x="190.858" y="74.405" color-interpolation-filters="sRGB" filterUnits="userSpaceOnUse"><feFlood flood-opacity="0" result="BackgroundImageFix"/><feBlend in="SourceGraphic" in2="BackgroundImageFix" result="shape"/><feColorMatrix in="SourceAlpha" result="hardAlpha" values="0 0 0 0 0 0 0 0 0 0 0 0 0 0 0 0 0 0 127 0"/><feOffset dx="-.475" dy=".475"/><feComposite in2="hardAlpha" k2="-1" k3="1" operator="arithmetic"/><feColorMatrix values="0 0 0 0 1 0 0 0 0 1 0 0 0 0 1 0 0 0 1 0"/><feBlend in2="shape" result="effect1_innerShadow_8646_14579"/><feColorMatrix in="SourceAlpha" result="hardAlpha" values="0 0 0 0 0 0 0 0 0 0 0 0 0 0 0 0 0 0 127 0"/><feOffset dx="-.951" dy="-1.426"/><feGaussianBlur stdDeviation=".713"/><feComposite in2="hardAlpha" k2="-1" k3="1" operator="arithmetic"/><feColorMatrix values="0 0 0 0 0.02 0 0 0 0 0 0 0 0 0 1 0 0 0 0.25 0"/><feBlend in2="effect1_innerShadow_8646_14579" result="effect2_innerShadow_8646_14579"/></filter><clipPath id="a"><path fill="#fff" d="M0 0h328v232H0z"/></clipPath></defs></svg>
