<svg xmlns="http://www.w3.org/2000/svg" width="328" height="263" fill="none"><g clip-path="url(#a)"><path d="M0 0h328v263H0z"/><path fill="url(#b)" d="M84.61 216.058c-20.469 10.061-70.225-23.316-78.23-39.566-19.575-28.871 27.507-50.207 56.649-57.562 13.913-3.512 29.275-.046 37.28 16.204 13.495 27.392 4.772 70.862-15.698 80.924Z"/><path fill="url(#c)" d="M323.797 103.619c22.187-73.967-111.644-88.396-167.93-69.095C3.59 86.743 231.133 412.546 323.797 103.62Z"/><path fill="url(#d)" d="m153.122 97.575-128.02 73.912 128.02 73.912 128.02-73.912-128.02-73.912Z"/><path fill="#E1FEFF" d="m153.122 88.65-128.02 73.912 128.02 73.911 128.02-73.911-128.02-73.912Z"/><path fill="url(#e)" d="M198.742 170.759v-16.247l-45.801 26.115v16.022l45.801-25.89Z"/><path fill="url(#f)" fill-opacity=".53" d="M198.742 170.759v-16.247l-45.801 26.115v16.022l45.801-25.89Z"/><path fill="url(#g)" fill-opacity=".62" d="M198.742 170.759v-16.247l-45.801 26.115v16.022l45.801-25.89Z"/><path fill="#DCE3FF" d="M152.944 180.627v16.022l-45.28-25.858v-16.022l45.28 25.858Z"/><path fill="url(#h)" d="m153.204 128.67-45.54 26.099 45.28 25.861 45.8-26.119-45.54-25.841Z"/><path fill="url(#i)" d="m153.204 128.67-45.54 26.099 45.28 25.861 45.8-26.119-45.54-25.841Z"/><path fill="url(#j)" d="m153.204 128.67-45.54 26.099 45.28 25.861 45.8-26.119-45.54-25.841Z"/><g filter="url(#k)"><path fill="#FFDCFE" d="m112.205 164.331-18.193 9.753c-2.315 1.241-2.363 4.543-.086 5.851l25.873 14.869a6.695 6.695 0 0 0 6.481.105l20.433-10.876-34.508-19.702Z"/></g><g filter="url(#l)"><path fill="#FF7272" d="m110.623 167.117-14.496 7.777c-1.539.826-1.576 3.019-.065 3.896l23.701 13.76a6.694 6.694 0 0 0 6.51.117l14.863-7.924-30.513-17.626Z"/></g><g filter="url(#m)"><path stroke="#fff" stroke-linecap="round" stroke-linejoin="round" stroke-width="2.231" d="m113.844 177.178-.296 5.08 10.137-3.161"/></g><g filter="url(#n)"><path fill="#8791AB" d="m153.407 142.043-21.755 12.594 21.631 12.48 21.88-12.604-21.756-12.47Z"/></g><path stroke="#7F9FC8" stroke-dasharray="4.46 4.46" stroke-width="1.673" d="M153.407 16.672 63.597 68.73l89.297 51.583 90.323-52.096-89.81-51.544Z" opacity=".8"/><path stroke="#7F9FC8" stroke-dasharray="4.46 4.46" stroke-width="1.673" d="m153.406 78.522-56.898 33.025 56.573 32.725 57.223-33.05-56.898-32.7Z" opacity=".8"/><path fill="url(#o)" d="M153.125 166.745V16.412l90.367 52.157-68.612 86.183-21.755 11.993Z" opacity=".2"/><path fill="url(#p)" d="M153.122 166.745V16.691l-89.81 51.878 68.334 86.183 21.476 11.993Z" opacity=".2"/><path fill="url(#q)" d="M153.125 166.745v-46.299l90.367-51.877-68.612 86.183-21.755 11.993Z" opacity=".2"/><path fill="url(#r)" d="M153.124 166.745v-46.299L63.035 68.29l68.612 86.462 21.477 11.993Z" opacity=".2"/><g filter="url(#s)"><path stroke="#fff" stroke-linecap="round" stroke-width="3.347" d="m116.068 135.728 38.025 21.845 39.018-21.846"/></g><g filter="url(#t)"><path stroke="#fff" stroke-linecap="round" stroke-width="2.231" d="m128.859 74.556.432-26.815 24.392-13.758 24.823 14.094v26.48L153.467 88.65l-24.608-14.094Z" shape-rendering="crispEdges"/></g><path fill="url(#u)" d="M178.504 74.522V48.085l-24.965 14.25V88.65l24.965-14.128Z"/><path fill="url(#v)" d="M178.504 74.522V48.085l-24.965 14.25V88.65l24.965-14.128Z"/><path fill="url(#w)" d="M178.504 74.522V48.085l-24.965 14.25V88.65l24.965-14.128Z"/><path fill="url(#x)" d="M153.541 62.336V88.65l-24.682-14.11V48.225l24.682 14.11Z"/><path fill="url(#y)" d="M153.541 62.336V88.65l-24.682-14.11V48.225l24.682 14.11Z"/><path fill="url(#z)" d="M153.541 62.336V88.65l-24.682-14.11V48.225l24.682 14.11Z"/><path fill="url(#A)" d="m150.846 62.121-21.987 12.212V49.909l21.987 12.212Z" opacity=".78"/><path fill="url(#B)" d="m153.683 33.983-24.824 14.242 24.682 14.112 24.965-14.252-24.823-14.102Z"/><path fill="url(#C)" d="m153.683 33.983-24.824 14.242 24.682 14.112 24.965-14.252-24.823-14.102Z"/><path fill="url(#D)" d="m153.683 33.983-24.824 14.242 24.682 14.112 24.965-14.252-24.823-14.102Z"/></g><defs><linearGradient id="b" x1="107.195" x2="-3.667" y1="149.112" y2="180.648" gradientUnits="userSpaceOnUse"><stop stop-color="#CEEFFF"/><stop offset=".026" stop-color="#CFECFD" stop-opacity=".83"/><stop offset="1" stop-color="#FD71AF" stop-opacity=".01"/></linearGradient><linearGradient id="c" x1="321.872" x2="201.346" y1="37.846" y2="207.972" gradientUnits="userSpaceOnUse"><stop offset=".026" stop-color="#CFECFD" stop-opacity=".99"/><stop offset=".226" stop-color="#D9D3ED" stop-opacity=".788"/><stop offset="1" stop-color="#FD71AF" stop-opacity=".01"/></linearGradient><linearGradient id="d" x1="79.709" x2="183.831" y1="-43.554" y2="253.416" gradientUnits="userSpaceOnUse"><stop stop-color="#00B4D5"/><stop offset="1" stop-color="#DCE3FF"/></linearGradient><linearGradient id="e" x1="198.742" x2="203.74" y1="154.658" y2="191.278" gradientUnits="userSpaceOnUse"><stop offset=".002" stop-color="#44DCFE"/><stop offset="1" stop-color="#3500D5"/></linearGradient><linearGradient id="f" x1="186.411" x2="177.992" y1="197.703" y2="168.885" gradientUnits="userSpaceOnUse"><stop stop-color="#077393" stop-opacity=".86"/><stop offset=".228" stop-color="#fff" stop-opacity=".6"/><stop offset="1" stop-color="#8CE0F0" stop-opacity="0"/></linearGradient><linearGradient id="g" x1="206.549" x2="152.941" y1="154.949" y2="154.949" gradientUnits="userSpaceOnUse"><stop stop-color="#0081A7" stop-opacity="0"/><stop offset=".209" stop-color="#EAEDFF" stop-opacity=".38"/><stop offset="1" stop-color="#D5DAFF"/></linearGradient><linearGradient id="h" x1="107.664" x2="197.337" y1="154.65" y2="143.416" gradientUnits="userSpaceOnUse"><stop offset=".198" stop-color="#F2FDFF"/><stop offset="1" stop-color="#FFBFF1"/></linearGradient><linearGradient id="i" x1="129.332" x2="156.855" y1="134.549" y2="188.864" gradientUnits="userSpaceOnUse"><stop stop-color="#FEAFE7" stop-opacity=".76"/><stop offset=".362" stop-color="#fff" stop-opacity=".917"/><stop offset="1" stop-color="#E2F7FB" stop-opacity="0"/></linearGradient><linearGradient id="j" x1="180.528" x2="132.206" y1="138.702" y2="225.353" gradientUnits="userSpaceOnUse"><stop stop-color="#BB66E1"/><stop offset=".094" stop-color="#fff" stop-opacity="0"/><stop offset=".969" stop-color="#F8DBEC"/></linearGradient><linearGradient id="o" x1="198.309" x2="179.343" y1="16.412" y2="160.33" gradientUnits="userSpaceOnUse"><stop stop-color="#FFAACA"/><stop offset="1" stop-color="#00A1FF"/></linearGradient><linearGradient id="p" x1="108.217" x2="108.217" y1="16.691" y2="166.745" gradientUnits="userSpaceOnUse"><stop stop-color="#00B4D5" stop-opacity=".63"/><stop offset="1" stop-color="#5707FF"/></linearGradient><linearGradient id="q" x1="210.023" x2="168.465" y1="145.548" y2="125.745" gradientUnits="userSpaceOnUse"><stop stop-color="#00B4D5"/><stop offset="1" stop-color="#00B4D5" stop-opacity="0"/></linearGradient><linearGradient id="r" x1="155.634" x2="126.348" y1="127.14" y2="154.473" gradientUnits="userSpaceOnUse"><stop stop-color="#00B4D5"/><stop offset="1" stop-color="#00B4D5" stop-opacity="0"/></linearGradient><linearGradient id="u" x1="178.504" x2="186.686" y1="48.225" y2="82.164" gradientUnits="userSpaceOnUse"><stop offset=".002" stop-color="#44DCFE"/><stop offset="1" stop-color="#3500D5"/></linearGradient><linearGradient id="v" x1="167.582" x2="158.794" y1="83.737" y2="66.258" gradientUnits="userSpaceOnUse"><stop stop-color="#077393" stop-opacity=".86"/><stop offset=".228" stop-color="#fff" stop-opacity=".6"/><stop offset="1" stop-color="#8CE0F0" stop-opacity="0"/></linearGradient><linearGradient id="w" x1="182.759" x2="153.539" y1="48.506" y2="48.506" gradientUnits="userSpaceOnUse"><stop stop-color="#0081A7" stop-opacity="0"/><stop offset=".209" stop-color="#EAEDFF" stop-opacity=".38"/><stop offset="1" stop-color="#D5DAFF"/></linearGradient><linearGradient id="x" x1="128.859" x2="126.654" y1="49.769" y2="89.144" gradientUnits="userSpaceOnUse"><stop offset=".002" stop-color="#fff"/><stop offset="1" stop-color="#5DE5FE"/></linearGradient><linearGradient id="y" x1="143.753" x2="154.644" y1="84.159" y2="65.11" gradientUnits="userSpaceOnUse"><stop stop-color="#57CEE4"/><stop offset=".109" stop-color="#fff" stop-opacity=".519"/><stop offset="1" stop-color="#DEF7FF"/></linearGradient><linearGradient id="z" x1="127.725" x2="154.534" y1="69.42" y2="69.42" gradientUnits="userSpaceOnUse"><stop stop-color="#7BD4E6"/><stop offset=".088" stop-color="#fff" stop-opacity=".51"/><stop offset="1" stop-color="#32C8FC" stop-opacity=".13"/></linearGradient><linearGradient id="A" x1="139.852" x2="139.852" y1="49.909" y2="74.333" gradientUnits="userSpaceOnUse"><stop offset=".05" stop-color="#F0DFF8" stop-opacity="0"/><stop offset="1" stop-color="#C2E0FC"/></linearGradient><linearGradient id="B" x1="128.859" x2="177.74" y1="48.16" y2="42.044" gradientUnits="userSpaceOnUse"><stop offset=".198" stop-color="#F2FDFF"/><stop offset="1" stop-color="#FFBFF1"/></linearGradient><linearGradient id="C" x1="140.491" x2="155.707" y1="39.598" y2="66.825" gradientUnits="userSpaceOnUse"><stop stop-color="#FEAFE7" stop-opacity=".76"/><stop offset=".083" stop-color="#fff" stop-opacity=".917"/><stop offset="1" stop-color="#E2F7FB" stop-opacity="0"/></linearGradient><linearGradient id="D" x1="168.576" x2="142.192" y1="39.458" y2="86.717" gradientUnits="userSpaceOnUse"><stop stop-color="#BB66E1"/><stop offset=".094" stop-color="#fff" stop-opacity="0"/><stop offset=".969" stop-color="#F8DBEC"/></linearGradient><filter id="k" width="54.465" height="33.594" x="92.246" y="164.331" color-interpolation-filters="sRGB" filterUnits="userSpaceOnUse"><feFlood flood-opacity="0" result="BackgroundImageFix"/><feColorMatrix in="SourceAlpha" result="hardAlpha" values="0 0 0 0 0 0 0 0 0 0 0 0 0 0 0 0 0 0 127 0"/><feOffset dy="2.231"/><feComposite in2="hardAlpha" operator="out"/><feColorMatrix values="0 0 0 0 0.529412 0 0 0 0 0.568627 0 0 0 0 0.670588 0 0 0 1 0"/><feBlend in2="BackgroundImageFix" result="effect1_dropShadow_5409_114292"/><feBlend in="SourceGraphic" in2="effect1_dropShadow_5409_114292" result="shape"/></filter><filter id="l" width="46.188" height="26.337" x="94.949" y="167.117" color-interpolation-filters="sRGB" filterUnits="userSpaceOnUse"><feFlood flood-opacity="0" result="BackgroundImageFix"/><feBlend in="SourceGraphic" in2="BackgroundImageFix" result="shape"/><feColorMatrix in="SourceAlpha" result="hardAlpha" values="0 0 0 0 0 0 0 0 0 0 0 0 0 0 0 0 0 0 127 0"/><feOffset dx="1.116" dy="-.558"/><feComposite in2="hardAlpha" k2="-1" k3="1" operator="arithmetic"/><feColorMatrix values="0 0 0 0 0 0 0 0 0 0 0 0 0 0 0 0 0 0 0.25 0"/><feBlend in2="shape" result="effect1_innerShadow_5409_114292"/></filter><filter id="m" width="12.367" height="7.31" x="112.434" y="176.063" color-interpolation-filters="sRGB" filterUnits="userSpaceOnUse"><feFlood flood-opacity="0" result="BackgroundImageFix"/><feBlend in="SourceGraphic" in2="BackgroundImageFix" result="shape"/><feColorMatrix in="SourceAlpha" result="hardAlpha" values="0 0 0 0 0 0 0 0 0 0 0 0 0 0 0 0 0 0 127 0"/><feOffset dx="-1.116"/><feComposite in2="hardAlpha" k2="-1" k3="1" operator="arithmetic"/><feColorMatrix values="0 0 0 0 0.5125 0 0 0 0 0.91236 0 0 0 0 1 0 0 0 1 0"/><feBlend in2="shape" result="effect1_innerShadow_5409_114292"/></filter><filter id="n" width="43.512" height="25.074" x="131.652" y="142.043" color-interpolation-filters="sRGB" filterUnits="userSpaceOnUse"><feFlood flood-opacity="0" result="BackgroundImageFix"/><feBlend in="SourceGraphic" in2="BackgroundImageFix" result="shape"/><feColorMatrix in="SourceAlpha" result="hardAlpha" values="0 0 0 0 0 0 0 0 0 0 0 0 0 0 0 0 0 0 127 0"/><feOffset dy="1.116"/><feComposite in2="hardAlpha" k2="-1" k3="1" operator="arithmetic"/><feColorMatrix values="0 0 0 0 0 0 0 0 0 0 0 0 0 0 0 0 0 0 0.25 0"/><feBlend in2="shape" result="effect1_innerShadow_5409_114292"/></filter><filter id="s" width="93.778" height="38.83" x="107.701" y="128.476" color-interpolation-filters="sRGB" filterUnits="userSpaceOnUse"><feFlood flood-opacity="0" result="BackgroundImageFix"/><feColorMatrix in="SourceAlpha" result="hardAlpha" values="0 0 0 0 0 0 0 0 0 0 0 0 0 0 0 0 0 0 127 0"/><feOffset dy="1.116"/><feGaussianBlur stdDeviation="3.347"/><feComposite in2="hardAlpha" operator="out"/><feColorMatrix values="0 0 0 0 0.817908 0 0 0 0 1 0 0 0 0 0.675 0 0 0 1 0"/><feBlend in2="BackgroundImageFix" result="effect1_dropShadow_5409_114292"/><feBlend in="SourceGraphic" in2="effect1_dropShadow_5409_114292" result="shape"/></filter><filter id="t" width="84.24" height="89.585" x="111.558" y="19.314" color-interpolation-filters="sRGB" filterUnits="userSpaceOnUse"><feFlood flood-opacity="0" result="BackgroundImageFix"/><feColorMatrix in="SourceAlpha" result="hardAlpha" values="0 0 0 0 0 0 0 0 0 0 0 0 0 0 0 0 0 0 127 0"/><feOffset dy="2.789"/><feGaussianBlur stdDeviation="8.088"/><feComposite in2="hardAlpha" operator="out"/><feColorMatrix values="0 0 0 0 0.16349 0 0 0 0 0.20094 0 0 0 0 0.9125 0 0 0 1 0"/><feBlend in2="BackgroundImageFix" result="effect1_dropShadow_5409_114292"/><feBlend in="SourceGraphic" in2="effect1_dropShadow_5409_114292" result="shape"/></filter><clipPath id="a"><path fill="#fff" d="M0 0h328v263H0z"/></clipPath></defs></svg>
