<svg xmlns="http://www.w3.org/2000/svg" width="328" height="232" fill="none"><g clip-path="url(#a)"><path fill="url(#b)" d="M271.907 96.127c0 36.587-121.723 84.522-164.204 84.522-42.48 0-62.544-85.73-62.544-122.318 0-36.587 30.19-42.157 72.671-42.157 71.613 0 154.077 43.366 154.077 79.953Z"/><path fill="url(#c)" d="M212.113 182.517c-4.339-16.194 34.77-49.414 50.403-53.603 28.901-11.397 37.33 25.659 37.524 47.974.092 10.654-6.11 21.636-21.744 25.825-26.353 7.062-61.844-4.002-66.183-20.196Z"/><path fill="url(#d)" d="m71.78 161.16 110.997-64.174 107.432 62.034-111.235 63.937L71.78 161.16Z"/><path fill="#F3F5FA" d="M71.78 153.554 182.777 89.38l107.432 62.034-111.235 63.937L71.78 153.554Z"/><g opacity=".8"><path fill="url(#e)" d="m213.913 187.067-94.835-54.905 17.351-10.22 95.548 54.904-18.064 10.221Z"/><path fill="url(#f)" d="m213.913 187.067-94.835-54.905 17.351-10.22 95.548 54.904-18.064 10.221Z"/><path fill="url(#g)" d="m213.913 187.067-94.835-54.905 17.351-10.22 95.548 54.904-18.064 10.221Z"/></g><path fill="#8791AB" d="m210.348 174.945-74.394-42.783 1.188-.95 73.206 41.832v1.901Z"/><path fill="#DCE3FF" d="m128.823 21.64 6.18 3.803v110.285l-6.18-3.566V21.641Z"/><path fill="url(#h)" d="m135.003 25.444 6.18-3.803v110.521l-6.18 3.566V25.443Z"/><path fill="url(#i)" fill-opacity=".53" d="m135.003 25.444 6.18-3.803v110.521l-6.18 3.566V25.443Z"/><path fill="url(#j)" fill-opacity=".62" d="m135.003 25.444 6.18-3.803v110.521l-6.18 3.566V25.443Z"/><g opacity=".8"><path fill="url(#k)" d="m135.003 25.444-6.18-3.803 6.18-3.566 6.18 3.566-6.18 3.803Z"/><path fill="url(#l)" d="m135.003 25.444-6.18-3.803 6.18-3.566 6.18 3.566-6.18 3.803Z"/><path fill="url(#m)" d="m135.003 25.444-6.18-3.803 6.18-3.566 6.18 3.566-6.18 3.803Z"/></g><path fill="#00B4D5" d="m211.774 159.733-74.394-43.02V75.594l74.394 43.021v41.118Z" opacity=".4"/><path fill="#32C8FC" d="M211.774 78.446 137.38 35.664l1.426-.713 72.968 41.594v1.901ZM211.774 159.496l-74.394-42.783 1.426-.713 72.968 41.594v1.902Z" opacity=".5"/><mask id="n" width="358" height="211" x="-15" y="8" maskUnits="userSpaceOnUse" style="mask-type:alpha"><path fill="#D9D9D9" d="M251.704 8.568-14.736 159.02l96.26 59.896L342.5 59.907 251.704 8.568Z"/></mask><g mask="url(#n)"><g filter="url(#o)"><path fill="#fff" d="m191.816 60.238 60.604-34.991a5.704 5.704 0 0 1 5.702-.001L295.9 47.033c1.905 1.099 1.902 3.848-.004 4.944l-60.72 34.887a5.704 5.704 0 0 1-5.687-.003l-37.67-21.681c-1.904-1.097-1.906-3.844-.003-4.942Z"/></g><path fill="#C3C8D5" fill-rule="evenodd" d="m252.411 30.448.955-.553a2.852 2.852 0 0 1 2.858 0l19.019 11.011c.949.55.949 1.92 0 2.468l-.955.553a2.852 2.852 0 0 1-2.858 0l-19.019-11.01a1.426 1.426 0 0 1 0-2.469ZM225.56 77.029l.953-.551a2.853 2.853 0 0 1 2.851-.004l5.938 3.414c.952.547.954 1.92.003 2.47l-.953.552a2.851 2.851 0 0 1-2.85.004l-5.938-3.414a1.426 1.426 0 0 1-.004-2.47Zm51.52-21.67-32.491-18.935a2.659 2.659 0 0 0-2.464-.112c-.973.454-1.035 1.814-.108 2.355L274.508 57.6a2.66 2.66 0 0 0 2.465.113 1.33 1.33 0 0 0 .107-2.355Zm-43.899-12.28 32.49 18.935c.928.54.866 1.9-.107 2.355a2.661 2.661 0 0 1-2.465-.112l-32.49-18.936a1.33 1.33 0 0 1 .107-2.354 2.661 2.661 0 0 1 2.465.112Zm-10.717 4.88-13.314 7.688a1.426 1.426 0 0 0-.005 2.467l32.336 18.845a2.853 2.853 0 0 0 2.863.006l13.313-7.688a1.426 1.426 0 0 0 .005-2.467l-32.336-18.845a2.851 2.851 0 0 0-2.862-.006Zm16.421-8.208 32.491 18.935c.927.541.865 1.901-.108 2.355a2.659 2.659 0 0 1-2.464-.112l-32.491-18.935a1.33 1.33 0 0 1 .107-2.355 2.661 2.661 0 0 1 2.465.112Z" clip-rule="evenodd" opacity=".7"/><g filter="url(#p)"><path fill="#fff" d="m108.448 108.37 60.604-34.99a5.704 5.704 0 0 1 5.702-.002l37.778 21.787c1.905 1.099 1.903 3.849-.004 4.944l-60.72 34.887a5.703 5.703 0 0 1-5.687-.002l-37.67-21.682c-1.904-1.096-1.906-3.843-.003-4.942Z"/></g><path fill="#C3C8D5" fill-rule="evenodd" d="m169.043 78.58.955-.553a2.852 2.852 0 0 1 2.858 0l19.019 11.011c.949.55.949 1.92 0 2.469l-.955.553a2.852 2.852 0 0 1-2.858 0l-19.019-11.011a1.426 1.426 0 0 1 0-2.469Zm-26.851 46.582.953-.552a2.852 2.852 0 0 1 2.851-.004l5.938 3.414c.952.548.954 1.92.003 2.471l-.952.551a2.852 2.852 0 0 1-2.851.004l-5.938-3.414a1.426 1.426 0 0 1-.004-2.47Zm51.52-21.671-32.491-18.935a2.66 2.66 0 0 0-2.464-.112c-.973.454-1.035 1.814-.108 2.355l32.491 18.935a2.66 2.66 0 0 0 2.465.112 1.33 1.33 0 0 0 .107-2.355Zm-43.899-12.28 32.49 18.935a1.33 1.33 0 0 1-.107 2.355 2.661 2.661 0 0 1-2.465-.112l-32.49-18.935a1.33 1.33 0 0 1 .107-2.355 2.661 2.661 0 0 1 2.465.112Zm-10.717 4.88-13.314 7.688a1.427 1.427 0 0 0-.005 2.468l32.336 18.845a2.853 2.853 0 0 0 2.863.005l13.313-7.688a1.425 1.425 0 0 0 .005-2.467l-32.336-18.845a2.852 2.852 0 0 0-2.862-.006Zm16.421-8.207 32.491 18.935c.927.54.865 1.9-.108 2.355a2.662 2.662 0 0 1-2.464-.113l-32.491-18.935a1.33 1.33 0 0 1 .107-2.355 2.661 2.661 0 0 1 2.465.113Z" clip-rule="evenodd" opacity=".7"/><g filter="url(#q)"><path fill="#fff" d="m25.08 156.502 60.604-34.99a5.705 5.705 0 0 1 5.702-.002l37.778 21.788c1.905 1.098 1.903 3.848-.004 4.943l-60.72 34.887a5.704 5.704 0 0 1-5.687-.002l-37.67-21.682c-1.904-1.096-1.905-3.843-.003-4.942Z"/></g><path fill="#C3C8D5" fill-rule="evenodd" d="m85.675 126.713.955-.553a2.851 2.851 0 0 1 2.858 0l19.019 11.011a1.426 1.426 0 0 1 0 2.468l-.955.553a2.85 2.85 0 0 1-2.858 0l-19.019-11.011a1.426 1.426 0 0 1 0-2.468Zm-26.85 46.581.952-.551a2.852 2.852 0 0 1 2.85-.005l5.939 3.415c.952.547.954 1.92.004 2.47l-.953.552a2.852 2.852 0 0 1-2.851.004l-5.938-3.414a1.427 1.427 0 0 1-.004-2.471Zm51.519-21.67-32.49-18.935a2.66 2.66 0 0 0-2.465-.112c-.973.454-1.035 1.814-.107 2.354l32.49 18.935a2.664 2.664 0 0 0 2.465.113c.973-.454 1.035-1.815.107-2.355Zm-43.9-12.28 32.492 18.935c.927.54.865 1.901-.108 2.355a2.66 2.66 0 0 1-2.465-.113l-32.49-18.935c-.928-.54-.866-1.9.107-2.354a2.66 2.66 0 0 1 2.465.112Zm-10.716 4.88-13.314 7.688a1.426 1.426 0 0 0-.005 2.467l32.337 18.845a2.854 2.854 0 0 0 2.862.006l13.314-7.688a1.426 1.426 0 0 0 .005-2.467L58.59 144.229a2.852 2.852 0 0 0-2.862-.005Zm16.421-8.208 32.491 18.935a1.33 1.33 0 0 1-.107 2.355 2.66 2.66 0 0 1-2.465-.112l-32.49-18.935c-.928-.541-.867-1.901.106-2.355a2.66 2.66 0 0 1 2.465.112Z" clip-rule="evenodd" opacity=".7"/></g><path fill="#00B4D5" d="m211.774 118.615-74.394-43.02V35.663l74.394 42.782v40.169Z" opacity=".4"/><path fill="#DCE3FF" d="m209.16 67.513 6.179 3.803V181.6l-6.179-3.565V67.513Z"/><path fill="url(#r)" d="m215.339 71.316 6.18-3.803v110.522l-6.18 3.565V71.316Z"/><path fill="url(#s)" fill-opacity=".53" d="m215.339 71.316 6.18-3.803v110.522l-6.18 3.565V71.316Z"/><path fill="url(#t)" fill-opacity=".62" d="m215.339 71.316 6.18-3.803v110.522l-6.18 3.565V71.316Z"/><g opacity=".8"><path fill="url(#u)" d="m215.339 71.316-6.179-3.803 6.179-3.565 6.18 3.565-6.18 3.803Z"/><path fill="url(#v)" d="m215.339 71.316-6.179-3.803 6.179-3.565 6.18 3.565-6.18 3.803Z"/><path fill="url(#w)" d="m215.339 71.316-6.179-3.803 6.179-3.565 6.18 3.565-6.18 3.803Z"/></g><g filter="url(#x)"><path fill="#DCE3FF" d="m238.638 146.11-21.397-12.284v-39.93l22.805 13.092a5.703 5.703 0 0 1 2.864 4.947v31.701c0 2.193-2.37 3.565-4.272 2.474Z"/></g><g filter="url(#y)"><path fill="#00B4D5" d="m236.737 140.517-16.644-9.52v-30.209l17.096 9.78a4.753 4.753 0 0 1 2.394 4.126v24.173c0 1.46-1.578 2.375-2.846 1.65Z"/></g><g filter="url(#z)"><path stroke="#fff" stroke-linecap="round" stroke-width="2.852" d="m137.599 58.1 70.976 40.978"/></g><g filter="url(#A)"><path stroke="#fff" stroke-linecap="round" stroke-linejoin="round" stroke-width="1.901" d="m225.322 122.578 1.948 3.88 6.133-6.655"/></g></g><defs><linearGradient id="b" x1="158.533" x2="134.753" y1="16.174" y2="200.444" gradientUnits="userSpaceOnUse"><stop offset=".026" stop-color="#CFECFD" stop-opacity=".99"/><stop offset=".226" stop-color="#D9D3ED" stop-opacity=".788"/><stop offset="1" stop-color="#FD71AF" stop-opacity=".01"/></linearGradient><linearGradient id="c" x1="264.849" x2="255.27" y1="206.317" y2="121.704" gradientUnits="userSpaceOnUse"><stop stop-color="#CEEFFF"/><stop offset=".026" stop-color="#CFECFD" stop-opacity=".83"/><stop offset="1" stop-color="#FD71AF" stop-opacity=".01"/></linearGradient><linearGradient id="d" x1="118.365" x2="207.02" y1="-23.281" y2="229.849" gradientUnits="userSpaceOnUse"><stop stop-color="#00B4D5"/><stop offset="1" stop-color="#DCE3FF"/></linearGradient><linearGradient id="e" x1="119.078" x2="230.27" y1="154.504" y2="140.728" gradientUnits="userSpaceOnUse"><stop offset=".198" stop-color="#F2FDFF"/><stop offset="1" stop-color="#FFBFF1"/></linearGradient><linearGradient id="f" x1="145.529" x2="180.661" y1="134.838" y2="197.077" gradientUnits="userSpaceOnUse"><stop stop-color="#FEAFE7" stop-opacity=".76"/><stop offset=".083" stop-color="#fff" stop-opacity=".917"/><stop offset="1" stop-color="#E2F7FB" stop-opacity="0"/></linearGradient><linearGradient id="g" x1="209.397" x2="148.48" y1="134.516" y2="242.547" gradientUnits="userSpaceOnUse"><stop stop-color="#BB66E1"/><stop offset=".094" stop-color="#fff" stop-opacity="0"/><stop offset=".969" stop-color="#F8DBEC"/></linearGradient><linearGradient id="h" x1="141.183" x2="173.721" y1="22.035" y2="33.916" gradientUnits="userSpaceOnUse"><stop offset=".002" stop-color="#44DCFE"/><stop offset="1" stop-color="#3500D5"/></linearGradient><linearGradient id="i" x1="139.519" x2="125.482" y1="138.58" y2="136.185" gradientUnits="userSpaceOnUse"><stop stop-color="#077393" stop-opacity=".86"/><stop offset=".228" stop-color="#fff" stop-opacity=".6"/><stop offset="1" stop-color="#8CE0F0" stop-opacity="0"/></linearGradient><linearGradient id="j" x1="142.236" x2="135.003" y1="22.825" y2="22.825" gradientUnits="userSpaceOnUse"><stop stop-color="#0081A7" stop-opacity="0"/><stop offset=".209" stop-color="#EAEDFF" stop-opacity=".38"/><stop offset="1" stop-color="#D5DAFF"/></linearGradient><linearGradient id="k" x1="128.823" x2="141.008" y1="21.759" y2="20.299" gradientUnits="userSpaceOnUse"><stop offset=".198" stop-color="#F2FDFF"/><stop offset="1" stop-color="#FFBFF1"/></linearGradient><linearGradient id="l" x1="131.719" x2="135.76" y1="19.535" y2="26.462" gradientUnits="userSpaceOnUse"><stop stop-color="#FEAFE7" stop-opacity=".76"/><stop offset=".083" stop-color="#fff" stop-opacity=".917"/><stop offset="1" stop-color="#E2F7FB" stop-opacity="0"/></linearGradient><linearGradient id="m" x1="138.711" x2="131.703" y1="19.498" y2="31.523" gradientUnits="userSpaceOnUse"><stop stop-color="#BB66E1"/><stop offset=".094" stop-color="#fff" stop-opacity="0"/><stop offset=".969" stop-color="#F8DBEC"/></linearGradient><linearGradient id="r" x1="221.519" x2="254.057" y1="67.908" y2="79.788" gradientUnits="userSpaceOnUse"><stop offset=".002" stop-color="#44DCFE"/><stop offset="1" stop-color="#3500D5"/></linearGradient><linearGradient id="s" x1="219.855" x2="205.818" y1="184.452" y2="182.058" gradientUnits="userSpaceOnUse"><stop stop-color="#077393" stop-opacity=".86"/><stop offset=".228" stop-color="#fff" stop-opacity=".6"/><stop offset="1" stop-color="#8CE0F0" stop-opacity="0"/></linearGradient><linearGradient id="t" x1="222.572" x2="215.339" y1="68.697" y2="68.697" gradientUnits="userSpaceOnUse"><stop stop-color="#0081A7" stop-opacity="0"/><stop offset=".209" stop-color="#EAEDFF" stop-opacity=".38"/><stop offset="1" stop-color="#D5DAFF"/></linearGradient><linearGradient id="u" x1="209.16" x2="221.344" y1="67.632" y2="66.171" gradientUnits="userSpaceOnUse"><stop offset=".198" stop-color="#F2FDFF"/><stop offset="1" stop-color="#FFBFF1"/></linearGradient><linearGradient id="v" x1="212.055" x2="216.097" y1="65.407" y2="72.334" gradientUnits="userSpaceOnUse"><stop stop-color="#FEAFE7" stop-opacity=".76"/><stop offset=".083" stop-color="#fff" stop-opacity=".917"/><stop offset="1" stop-color="#E2F7FB" stop-opacity="0"/></linearGradient><linearGradient id="w" x1="219.047" x2="212.039" y1="65.37" y2="77.395" gradientUnits="userSpaceOnUse"><stop stop-color="#BB66E1"/><stop offset=".094" stop-color="#fff" stop-opacity="0"/><stop offset=".969" stop-color="#F8DBEC"/></linearGradient><filter id="o" width="106.937" height="65.041" x="190.39" y="24.483" color-interpolation-filters="sRGB" filterUnits="userSpaceOnUse"><feFlood flood-opacity="0" result="BackgroundImageFix"/><feColorMatrix in="SourceAlpha" result="hardAlpha" values="0 0 0 0 0 0 0 0 0 0 0 0 0 0 0 0 0 0 127 0"/><feOffset dy="1.901"/><feComposite in2="hardAlpha" operator="out"/><feColorMatrix values="0 0 0 0 0.663542 0 0 0 0 0.710657 0 0 0 0 0.816667 0 0 0 1 0"/><feBlend in2="BackgroundImageFix" result="effect1_dropShadow_8589_14028"/><feBlend in="SourceGraphic" in2="effect1_dropShadow_8589_14028" result="shape"/></filter><filter id="p" width="106.937" height="65.041" x="107.022" y="72.615" color-interpolation-filters="sRGB" filterUnits="userSpaceOnUse"><feFlood flood-opacity="0" result="BackgroundImageFix"/><feColorMatrix in="SourceAlpha" result="hardAlpha" values="0 0 0 0 0 0 0 0 0 0 0 0 0 0 0 0 0 0 127 0"/><feOffset dy="1.901"/><feComposite in2="hardAlpha" operator="out"/><feColorMatrix values="0 0 0 0 0.663542 0 0 0 0 0.710657 0 0 0 0 0.816667 0 0 0 1 0"/><feBlend in2="BackgroundImageFix" result="effect1_dropShadow_8589_14028"/><feBlend in="SourceGraphic" in2="effect1_dropShadow_8589_14028" result="shape"/></filter><filter id="q" width="106.937" height="65.041" x="23.654" y="120.747" color-interpolation-filters="sRGB" filterUnits="userSpaceOnUse"><feFlood flood-opacity="0" result="BackgroundImageFix"/><feColorMatrix in="SourceAlpha" result="hardAlpha" values="0 0 0 0 0 0 0 0 0 0 0 0 0 0 0 0 0 0 127 0"/><feOffset dy="1.901"/><feComposite in2="hardAlpha" operator="out"/><feColorMatrix values="0 0 0 0 0.663542 0 0 0 0 0.710657 0 0 0 0 0.816667 0 0 0 1 0"/><feBlend in2="BackgroundImageFix" result="effect1_dropShadow_8589_14028"/><feBlend in="SourceGraphic" in2="effect1_dropShadow_8589_14028" result="shape"/></filter><filter id="x" width="28.522" height="52.597" x="217.241" y="93.896" color-interpolation-filters="sRGB" filterUnits="userSpaceOnUse"><feFlood flood-opacity="0" result="BackgroundImageFix"/><feColorMatrix in="SourceAlpha" result="hardAlpha" values="0 0 0 0 0 0 0 0 0 0 0 0 0 0 0 0 0 0 127 0"/><feOffset dx="2.852"/><feComposite in2="hardAlpha" operator="out"/><feColorMatrix values="0 0 0 0 0.529412 0 0 0 0 0.568627 0 0 0 0 0.670588 0 0 0 1 0"/><feBlend in2="BackgroundImageFix" result="effect1_dropShadow_8589_14028"/><feBlend in="SourceGraphic" in2="effect1_dropShadow_8589_14028" result="shape"/></filter><filter id="y" width="19.49" height="39.983" x="220.093" y="100.788" color-interpolation-filters="sRGB" filterUnits="userSpaceOnUse"><feFlood flood-opacity="0" result="BackgroundImageFix"/><feBlend in="SourceGraphic" in2="BackgroundImageFix" result="shape"/><feColorMatrix in="SourceAlpha" result="hardAlpha" values="0 0 0 0 0 0 0 0 0 0 0 0 0 0 0 0 0 0 127 0"/><feOffset dx=".951" dy="-.475"/><feComposite in2="hardAlpha" k2="-1" k3="1" operator="arithmetic"/><feColorMatrix values="0 0 0 0 0 0 0 0 0 0 0 0 0 0 0 0 0 0 0.25 0"/><feBlend in2="shape" result="effect1_innerShadow_8589_14028"/></filter><filter id="z" width="84.287" height="54.288" x="130.943" y="52.395" color-interpolation-filters="sRGB" filterUnits="userSpaceOnUse"><feFlood flood-opacity="0" result="BackgroundImageFix"/><feColorMatrix in="SourceAlpha" result="hardAlpha" values="0 0 0 0 0 0 0 0 0 0 0 0 0 0 0 0 0 0 127 0"/><feOffset dy=".951"/><feGaussianBlur stdDeviation="2.614"/><feComposite in2="hardAlpha" operator="out"/><feColorMatrix values="0 0 0 0 0.817908 0 0 0 0 1 0 0 0 0 0.675 0 0 0 1 0"/><feBlend in2="BackgroundImageFix" result="effect1_dropShadow_8589_14028"/><feBlend in="SourceGraphic" in2="effect1_dropShadow_8589_14028" result="shape"/></filter><filter id="A" width="9.983" height="8.556" x="224.371" y="118.852" color-interpolation-filters="sRGB" filterUnits="userSpaceOnUse"><feFlood flood-opacity="0" result="BackgroundImageFix"/><feBlend in="SourceGraphic" in2="BackgroundImageFix" result="shape"/><feColorMatrix in="SourceAlpha" result="hardAlpha" values="0 0 0 0 0 0 0 0 0 0 0 0 0 0 0 0 0 0 127 0"/><feOffset dx="-.951"/><feComposite in2="hardAlpha" k2="-1" k3="1" operator="arithmetic"/><feColorMatrix values="0 0 0 0 0.5125 0 0 0 0 0.91236 0 0 0 0 1 0 0 0 1 0"/><feBlend in2="shape" result="effect1_innerShadow_8589_14028"/></filter><clipPath id="a"><path fill="#fff" d="M0 0h328v232H0z"/></clipPath></defs></svg>
