<svg width="588" height="472" viewBox="0 0 588 472" fill="none" xmlns="http://www.w3.org/2000/svg">
<g clip-path="url(#clip0_4563_108080)">
<rect width="588" height="472" fill="white"/>
<path d="M475.185 80.6758C513.387 145.965 342.425 360.822 265.293 405.953C188.162 451.084 62.2196 319.412 24.0177 254.123C-14.1842 188.833 34.8153 146.82 111.947 101.69C241.974 25.6085 436.983 15.3863 475.185 80.6758Z" fill="url(#paint0_linear_4563_108080)"/>
<path d="M300.942 392.49C286.026 360.53 398.496 257.048 444.567 235.547C529.291 187.814 558.949 262.132 562.262 310.74C563.843 333.947 546.707 362.845 500.636 384.347C422.97 420.593 315.857 424.45 300.942 392.49Z" fill="url(#paint1_linear_4563_108080)"/>
<path d="M300.781 175.241L71.2812 307.741L300.781 440.241L530.281 307.741L300.781 175.241Z" fill="url(#paint2_linear_4563_108080)"/>
<path d="M300.781 159.241L71.2812 291.741L300.781 424.241L530.281 291.741L300.781 159.241Z" fill="#F3F5FA"/>
<path d="M303.731 402.718L121.011 296.324C117.076 294.033 117.027 288.366 120.921 286.007L232.781 218.241L433.781 333.741L315.826 402.707C312.091 404.891 307.469 404.895 303.731 402.718Z" fill="url(#paint3_linear_4563_108080)"/>
<path d="M305.776 397.264L121.202 290.406C117.221 288.101 117.208 282.358 121.178 280.035L226.781 218.241L427.781 333.741L317.79 397.271C314.073 399.418 309.491 399.415 305.776 397.264Z" fill="url(#paint4_linear_4563_108080)"/>
<path d="M305.776 397.264L121.202 290.406C117.221 288.101 117.208 282.358 121.178 280.035L226.781 218.241L427.781 333.741L317.79 397.271C314.073 399.418 309.491 399.415 305.776 397.264Z" fill="url(#paint5_linear_4563_108080)"/>
<path d="M305.776 397.264L121.202 290.406C117.221 288.101 117.208 282.358 121.178 280.035L226.781 218.241L427.781 333.741L317.79 397.271C314.073 399.418 309.491 399.415 305.776 397.264Z" fill="url(#paint6_linear_4563_108080)"/>
<path d="M329.584 369.815L163.399 272.576C159.38 270.224 159.455 264.39 163.533 262.143L225.952 227.741L407.781 333.741L341.395 369.99C337.7 372.007 333.217 371.941 329.584 369.815Z" fill="url(#paint7_linear_4563_108080)"/>
<path d="M329.584 369.815L163.399 272.576C159.38 270.224 159.455 264.39 163.533 262.143L225.952 227.741L407.781 333.741L341.395 369.99C337.7 372.007 333.217 371.941 329.584 369.815Z" fill="url(#paint8_linear_4563_108080)"/>
<path d="M329.584 369.815L163.399 272.576C159.38 270.224 159.455 264.39 163.533 262.143L225.952 227.741L407.781 333.741L341.395 369.99C337.7 372.007 333.217 371.941 329.584 369.815Z" fill="url(#paint9_linear_4563_108080)"/>
<g filter="url(#filter0_d_4563_108080)">
<path fill-rule="evenodd" clip-rule="evenodd" d="M213.306 239.342L228.097 247.743C229.893 248.763 232.087 248.788 233.905 247.809L242.983 242.921C244.369 242.175 244.389 240.192 243.017 239.418L228.124 231.016C226.324 230 224.127 229.982 222.311 230.97L213.339 235.846C211.961 236.595 211.942 238.567 213.306 239.342ZM178.306 257.342L193.097 265.743C194.893 266.763 197.087 266.788 198.905 265.809L207.983 260.921C209.369 260.175 209.389 258.192 208.017 257.418L193.124 249.016C191.324 248 189.127 247.982 187.311 248.97L178.339 253.846C176.961 254.595 176.942 256.567 178.306 257.342ZM223.091 263.727L196.787 248.664C195.429 247.886 195.451 245.919 196.826 245.171L205.795 240.296C207.62 239.305 209.828 239.327 211.632 240.356L238.042 255.414C239.407 256.192 239.383 258.167 238 258.912L228.917 263.803C227.092 264.786 224.889 264.757 223.091 263.727ZM161.287 267.346L187.591 282.408C189.389 283.438 191.592 283.467 193.417 282.485L202.5 277.594C203.883 276.849 203.907 274.874 202.542 274.096L176.132 259.037C174.328 258.009 172.12 257.986 170.295 258.978L161.326 263.853C159.951 264.6 159.929 266.567 161.287 267.346ZM250.097 260.743L235.306 252.342C233.942 251.567 233.961 249.595 235.339 248.846L244.311 243.97C246.127 242.982 248.324 243 250.124 244.016L265.017 252.418C266.389 253.192 266.369 255.175 264.983 255.921L255.905 260.809C254.087 261.788 251.893 261.763 250.097 260.743ZM200.306 270.342L215.097 278.743C216.893 279.763 219.087 279.788 220.905 278.809L229.983 273.921C231.369 273.175 231.389 271.192 230.017 270.418L215.124 262.016C213.324 261 211.127 260.982 209.311 261.97L200.339 266.846C198.961 267.595 198.942 269.567 200.306 270.342ZM245.097 276.743L230.306 268.342C228.942 267.567 228.961 265.595 230.339 264.846L239.311 259.97C241.127 258.982 243.324 259 245.124 260.016L260.017 268.418C261.389 269.192 261.369 271.175 259.983 271.921L250.905 276.809C249.087 277.788 246.893 277.763 245.097 276.743ZM194.806 287.024L209.597 295.425C211.393 296.445 213.587 296.47 215.405 295.491L224.483 290.603C225.869 289.856 225.889 287.874 224.517 287.1L209.624 278.697C207.824 277.681 205.627 277.664 203.811 278.651L194.839 283.527C193.461 284.276 193.442 286.249 194.806 287.024ZM273.097 273.743L258.306 265.342C256.942 264.567 256.961 262.595 258.339 261.846L267.311 256.97C269.127 255.982 271.324 256 273.124 257.016L288.017 265.418C289.389 266.192 289.369 268.175 287.983 268.921L278.905 273.809C277.087 274.788 274.893 274.763 273.097 273.743ZM223.306 283.342L238.097 291.743C239.893 292.763 242.087 292.788 243.905 291.809L252.983 286.921C254.369 286.175 254.389 284.192 253.017 283.418L238.124 275.016C236.324 274 234.127 273.982 232.311 274.97L223.339 279.846C221.961 280.595 221.942 282.567 223.306 283.342ZM268.097 289.743L253.306 281.342C251.942 280.567 251.961 278.595 253.339 277.846L262.311 272.97C264.127 271.982 266.324 272 268.124 273.016L283.017 281.418C284.389 282.192 284.369 284.175 282.983 284.921L273.905 289.809C272.087 290.788 269.893 290.763 268.097 289.743ZM217.779 300.029L277.282 334.219C279.082 335.254 281.289 335.284 283.116 334.3L292.203 329.407C293.584 328.663 293.61 326.692 292.249 325.911L232.637 291.731C230.83 290.695 228.616 290.67 226.787 291.664L217.821 296.537C216.446 297.284 216.423 299.249 217.779 300.029ZM296.097 286.743L281.306 278.342C279.942 277.567 279.961 275.595 281.339 274.846L290.311 269.97C292.127 268.982 294.324 269 296.124 270.016L311.017 278.418C312.389 279.192 312.369 281.175 310.983 281.921L301.905 286.809C300.087 287.788 297.893 287.763 296.097 286.743ZM246.306 296.342L261.097 304.743C262.893 305.763 265.087 305.788 266.905 304.809L275.983 299.921C277.369 299.175 277.389 297.192 276.017 296.418L261.124 288.016C259.324 287 257.127 286.982 255.311 287.97L246.339 292.846C244.961 293.595 244.942 295.567 246.306 296.342ZM291.097 302.743L276.306 294.342C274.942 293.567 274.961 291.595 276.339 290.846L285.311 285.97C287.127 284.982 289.324 285 291.124 286.016L306.017 294.418C307.389 295.192 307.369 297.175 305.983 297.921L296.905 302.809C295.087 303.788 292.893 303.763 291.097 302.743ZM303.306 291.342L318.097 299.743C319.893 300.763 322.087 300.788 323.905 299.809L332.983 294.921C334.369 294.175 334.389 292.192 333.017 291.418L318.124 283.016C316.324 282 314.127 281.982 312.311 282.97L303.339 287.846C301.961 288.595 301.942 290.567 303.306 291.342ZM283.097 317.743L268.306 309.342C266.942 308.567 266.961 306.595 268.339 305.846L277.311 300.97C279.127 299.982 281.324 300 283.124 301.016L298.017 309.418C299.389 310.192 299.369 312.175 297.983 312.921L288.905 317.809C287.087 318.788 284.893 318.763 283.097 317.743ZM298.306 307.342L313.097 315.743C314.893 316.763 317.087 316.788 318.905 315.809L327.983 310.921C329.369 310.175 329.389 308.192 328.017 307.418L313.124 299.016C311.324 298 309.127 297.982 307.311 298.97L298.339 303.846C296.961 304.595 296.942 306.567 298.306 307.342ZM363.097 325.743L348.306 317.342C346.942 316.567 346.961 314.595 348.339 313.846L357.311 308.97C359.127 307.982 361.324 308 363.124 309.016L378.017 317.418C379.389 318.192 379.369 320.175 377.983 320.921L368.905 325.809C367.087 326.788 364.893 326.763 363.097 325.743ZM313.306 335.342L328.097 343.743C329.893 344.763 332.087 344.788 333.905 343.809L342.983 338.921C344.369 338.175 344.389 336.192 343.017 335.418L328.124 327.016C326.324 326 324.127 325.982 322.311 326.97L313.339 331.846C311.961 332.595 311.942 334.567 313.306 335.342ZM368.282 347.719L343.279 333.347C341.922 332.568 341.946 330.603 343.32 329.856L352.29 324.981C354.118 323.987 356.33 324.012 358.135 325.045L383.245 339.412C384.607 340.192 384.581 342.165 383.199 342.909L374.117 347.8C372.289 348.784 370.082 348.753 368.282 347.719ZM307.779 352.029L332.782 366.4C334.582 367.435 336.789 367.466 338.617 366.481L347.699 361.591C349.081 360.847 349.107 358.873 347.745 358.094L322.635 343.726C320.83 342.693 318.618 342.669 316.79 343.662L307.82 348.538C306.446 349.285 306.422 351.249 307.779 352.029ZM341.097 312.743L326.306 304.342C324.942 303.567 324.961 301.595 326.339 300.846L335.311 295.97C337.127 294.982 339.324 295 341.124 296.016L356.017 304.418C357.389 305.192 357.369 307.175 355.983 307.921L346.905 312.809C345.087 313.788 342.893 313.763 341.097 312.743ZM291.306 322.342L306.097 330.743C307.893 331.763 310.087 331.788 311.905 330.809L320.983 325.921C322.369 325.175 322.389 323.192 321.017 322.418L306.124 314.016C304.324 313 302.127 312.982 300.311 313.97L291.339 318.846C289.961 319.595 289.942 321.567 291.306 322.342ZM336.097 328.743L321.306 320.342C319.942 319.567 319.961 317.595 321.339 316.846L330.311 311.97C332.127 310.982 334.324 311 336.124 312.016L351.017 320.418C352.389 321.192 352.369 323.175 350.983 323.921L341.905 328.809C340.087 329.788 337.893 329.763 336.097 328.743ZM285.806 339.024L300.597 347.425C302.393 348.445 304.587 348.47 306.405 347.491L315.483 342.603C316.869 341.856 316.889 339.874 315.517 339.1L300.624 330.697C298.824 329.681 296.627 329.664 294.811 330.651L285.839 335.527C284.461 336.276 284.442 338.249 285.806 339.024ZM386.097 338.743L371.306 330.342C369.942 329.567 369.961 327.595 371.339 326.846L380.311 321.97C382.127 320.982 384.324 321 386.124 322.016L401.017 330.418C402.389 331.192 402.369 333.175 400.983 333.921L391.905 338.809C390.087 339.788 387.893 339.763 386.097 338.743ZM336.306 348.342L351.097 356.743C352.893 357.763 355.087 357.788 356.905 356.809L365.983 351.921C367.369 351.175 367.389 349.192 366.017 348.418L351.124 340.016C349.324 339 347.127 338.982 345.311 339.97L336.339 344.846C334.961 345.595 334.942 347.567 336.306 348.342Z" fill="url(#paint10_linear_4563_108080)"/>
<path fill-rule="evenodd" clip-rule="evenodd" d="M213.306 239.342L228.097 247.743C229.893 248.763 232.087 248.788 233.905 247.809L242.983 242.921C244.369 242.175 244.389 240.192 243.017 239.418L228.124 231.016C226.324 230 224.127 229.982 222.311 230.97L213.339 235.846C211.961 236.595 211.942 238.567 213.306 239.342ZM178.306 257.342L193.097 265.743C194.893 266.763 197.087 266.788 198.905 265.809L207.983 260.921C209.369 260.175 209.389 258.192 208.017 257.418L193.124 249.016C191.324 248 189.127 247.982 187.311 248.97L178.339 253.846C176.961 254.595 176.942 256.567 178.306 257.342ZM223.091 263.727L196.787 248.664C195.429 247.886 195.451 245.919 196.826 245.171L205.795 240.296C207.62 239.305 209.828 239.327 211.632 240.356L238.042 255.414C239.407 256.192 239.383 258.167 238 258.912L228.917 263.803C227.092 264.786 224.889 264.757 223.091 263.727ZM161.287 267.346L187.591 282.408C189.389 283.438 191.592 283.467 193.417 282.485L202.5 277.594C203.883 276.849 203.907 274.874 202.542 274.096L176.132 259.037C174.328 258.009 172.12 257.986 170.295 258.978L161.326 263.853C159.951 264.6 159.929 266.567 161.287 267.346ZM250.097 260.743L235.306 252.342C233.942 251.567 233.961 249.595 235.339 248.846L244.311 243.97C246.127 242.982 248.324 243 250.124 244.016L265.017 252.418C266.389 253.192 266.369 255.175 264.983 255.921L255.905 260.809C254.087 261.788 251.893 261.763 250.097 260.743ZM200.306 270.342L215.097 278.743C216.893 279.763 219.087 279.788 220.905 278.809L229.983 273.921C231.369 273.175 231.389 271.192 230.017 270.418L215.124 262.016C213.324 261 211.127 260.982 209.311 261.97L200.339 266.846C198.961 267.595 198.942 269.567 200.306 270.342ZM245.097 276.743L230.306 268.342C228.942 267.567 228.961 265.595 230.339 264.846L239.311 259.97C241.127 258.982 243.324 259 245.124 260.016L260.017 268.418C261.389 269.192 261.369 271.175 259.983 271.921L250.905 276.809C249.087 277.788 246.893 277.763 245.097 276.743ZM194.806 287.024L209.597 295.425C211.393 296.445 213.587 296.47 215.405 295.491L224.483 290.603C225.869 289.856 225.889 287.874 224.517 287.1L209.624 278.697C207.824 277.681 205.627 277.664 203.811 278.651L194.839 283.527C193.461 284.276 193.442 286.249 194.806 287.024ZM273.097 273.743L258.306 265.342C256.942 264.567 256.961 262.595 258.339 261.846L267.311 256.97C269.127 255.982 271.324 256 273.124 257.016L288.017 265.418C289.389 266.192 289.369 268.175 287.983 268.921L278.905 273.809C277.087 274.788 274.893 274.763 273.097 273.743ZM223.306 283.342L238.097 291.743C239.893 292.763 242.087 292.788 243.905 291.809L252.983 286.921C254.369 286.175 254.389 284.192 253.017 283.418L238.124 275.016C236.324 274 234.127 273.982 232.311 274.97L223.339 279.846C221.961 280.595 221.942 282.567 223.306 283.342ZM268.097 289.743L253.306 281.342C251.942 280.567 251.961 278.595 253.339 277.846L262.311 272.97C264.127 271.982 266.324 272 268.124 273.016L283.017 281.418C284.389 282.192 284.369 284.175 282.983 284.921L273.905 289.809C272.087 290.788 269.893 290.763 268.097 289.743ZM217.779 300.029L277.282 334.219C279.082 335.254 281.289 335.284 283.116 334.3L292.203 329.407C293.584 328.663 293.61 326.692 292.249 325.911L232.637 291.731C230.83 290.695 228.616 290.67 226.787 291.664L217.821 296.537C216.446 297.284 216.423 299.249 217.779 300.029ZM296.097 286.743L281.306 278.342C279.942 277.567 279.961 275.595 281.339 274.846L290.311 269.97C292.127 268.982 294.324 269 296.124 270.016L311.017 278.418C312.389 279.192 312.369 281.175 310.983 281.921L301.905 286.809C300.087 287.788 297.893 287.763 296.097 286.743ZM246.306 296.342L261.097 304.743C262.893 305.763 265.087 305.788 266.905 304.809L275.983 299.921C277.369 299.175 277.389 297.192 276.017 296.418L261.124 288.016C259.324 287 257.127 286.982 255.311 287.97L246.339 292.846C244.961 293.595 244.942 295.567 246.306 296.342ZM291.097 302.743L276.306 294.342C274.942 293.567 274.961 291.595 276.339 290.846L285.311 285.97C287.127 284.982 289.324 285 291.124 286.016L306.017 294.418C307.389 295.192 307.369 297.175 305.983 297.921L296.905 302.809C295.087 303.788 292.893 303.763 291.097 302.743ZM303.306 291.342L318.097 299.743C319.893 300.763 322.087 300.788 323.905 299.809L332.983 294.921C334.369 294.175 334.389 292.192 333.017 291.418L318.124 283.016C316.324 282 314.127 281.982 312.311 282.97L303.339 287.846C301.961 288.595 301.942 290.567 303.306 291.342ZM283.097 317.743L268.306 309.342C266.942 308.567 266.961 306.595 268.339 305.846L277.311 300.97C279.127 299.982 281.324 300 283.124 301.016L298.017 309.418C299.389 310.192 299.369 312.175 297.983 312.921L288.905 317.809C287.087 318.788 284.893 318.763 283.097 317.743ZM298.306 307.342L313.097 315.743C314.893 316.763 317.087 316.788 318.905 315.809L327.983 310.921C329.369 310.175 329.389 308.192 328.017 307.418L313.124 299.016C311.324 298 309.127 297.982 307.311 298.97L298.339 303.846C296.961 304.595 296.942 306.567 298.306 307.342ZM363.097 325.743L348.306 317.342C346.942 316.567 346.961 314.595 348.339 313.846L357.311 308.97C359.127 307.982 361.324 308 363.124 309.016L378.017 317.418C379.389 318.192 379.369 320.175 377.983 320.921L368.905 325.809C367.087 326.788 364.893 326.763 363.097 325.743ZM313.306 335.342L328.097 343.743C329.893 344.763 332.087 344.788 333.905 343.809L342.983 338.921C344.369 338.175 344.389 336.192 343.017 335.418L328.124 327.016C326.324 326 324.127 325.982 322.311 326.97L313.339 331.846C311.961 332.595 311.942 334.567 313.306 335.342ZM368.282 347.719L343.279 333.347C341.922 332.568 341.946 330.603 343.32 329.856L352.29 324.981C354.118 323.987 356.33 324.012 358.135 325.045L383.245 339.412C384.607 340.192 384.581 342.165 383.199 342.909L374.117 347.8C372.289 348.784 370.082 348.753 368.282 347.719ZM307.779 352.029L332.782 366.4C334.582 367.435 336.789 367.466 338.617 366.481L347.699 361.591C349.081 360.847 349.107 358.873 347.745 358.094L322.635 343.726C320.83 342.693 318.618 342.669 316.79 343.662L307.82 348.538C306.446 349.285 306.422 351.249 307.779 352.029ZM341.097 312.743L326.306 304.342C324.942 303.567 324.961 301.595 326.339 300.846L335.311 295.97C337.127 294.982 339.324 295 341.124 296.016L356.017 304.418C357.389 305.192 357.369 307.175 355.983 307.921L346.905 312.809C345.087 313.788 342.893 313.763 341.097 312.743ZM291.306 322.342L306.097 330.743C307.893 331.763 310.087 331.788 311.905 330.809L320.983 325.921C322.369 325.175 322.389 323.192 321.017 322.418L306.124 314.016C304.324 313 302.127 312.982 300.311 313.97L291.339 318.846C289.961 319.595 289.942 321.567 291.306 322.342ZM336.097 328.743L321.306 320.342C319.942 319.567 319.961 317.595 321.339 316.846L330.311 311.97C332.127 310.982 334.324 311 336.124 312.016L351.017 320.418C352.389 321.192 352.369 323.175 350.983 323.921L341.905 328.809C340.087 329.788 337.893 329.763 336.097 328.743ZM285.806 339.024L300.597 347.425C302.393 348.445 304.587 348.47 306.405 347.491L315.483 342.603C316.869 341.856 316.889 339.874 315.517 339.1L300.624 330.697C298.824 329.681 296.627 329.664 294.811 330.651L285.839 335.527C284.461 336.276 284.442 338.249 285.806 339.024ZM386.097 338.743L371.306 330.342C369.942 329.567 369.961 327.595 371.339 326.846L380.311 321.97C382.127 320.982 384.324 321 386.124 322.016L401.017 330.418C402.389 331.192 402.369 333.175 400.983 333.921L391.905 338.809C390.087 339.788 387.893 339.763 386.097 338.743ZM336.306 348.342L351.097 356.743C352.893 357.763 355.087 357.788 356.905 356.809L365.983 351.921C367.369 351.175 367.389 349.192 366.017 348.418L351.124 340.016C349.324 339 347.127 338.982 345.311 339.97L336.339 344.846C334.961 345.595 334.942 347.567 336.306 348.342Z" fill="url(#paint11_linear_4563_108080)"/>
<path fill-rule="evenodd" clip-rule="evenodd" d="M213.306 239.342L228.097 247.743C229.893 248.763 232.087 248.788 233.905 247.809L242.983 242.921C244.369 242.175 244.389 240.192 243.017 239.418L228.124 231.016C226.324 230 224.127 229.982 222.311 230.97L213.339 235.846C211.961 236.595 211.942 238.567 213.306 239.342ZM178.306 257.342L193.097 265.743C194.893 266.763 197.087 266.788 198.905 265.809L207.983 260.921C209.369 260.175 209.389 258.192 208.017 257.418L193.124 249.016C191.324 248 189.127 247.982 187.311 248.97L178.339 253.846C176.961 254.595 176.942 256.567 178.306 257.342ZM223.091 263.727L196.787 248.664C195.429 247.886 195.451 245.919 196.826 245.171L205.795 240.296C207.62 239.305 209.828 239.327 211.632 240.356L238.042 255.414C239.407 256.192 239.383 258.167 238 258.912L228.917 263.803C227.092 264.786 224.889 264.757 223.091 263.727ZM161.287 267.346L187.591 282.408C189.389 283.438 191.592 283.467 193.417 282.485L202.5 277.594C203.883 276.849 203.907 274.874 202.542 274.096L176.132 259.037C174.328 258.009 172.12 257.986 170.295 258.978L161.326 263.853C159.951 264.6 159.929 266.567 161.287 267.346ZM250.097 260.743L235.306 252.342C233.942 251.567 233.961 249.595 235.339 248.846L244.311 243.97C246.127 242.982 248.324 243 250.124 244.016L265.017 252.418C266.389 253.192 266.369 255.175 264.983 255.921L255.905 260.809C254.087 261.788 251.893 261.763 250.097 260.743ZM200.306 270.342L215.097 278.743C216.893 279.763 219.087 279.788 220.905 278.809L229.983 273.921C231.369 273.175 231.389 271.192 230.017 270.418L215.124 262.016C213.324 261 211.127 260.982 209.311 261.97L200.339 266.846C198.961 267.595 198.942 269.567 200.306 270.342ZM245.097 276.743L230.306 268.342C228.942 267.567 228.961 265.595 230.339 264.846L239.311 259.97C241.127 258.982 243.324 259 245.124 260.016L260.017 268.418C261.389 269.192 261.369 271.175 259.983 271.921L250.905 276.809C249.087 277.788 246.893 277.763 245.097 276.743ZM194.806 287.024L209.597 295.425C211.393 296.445 213.587 296.47 215.405 295.491L224.483 290.603C225.869 289.856 225.889 287.874 224.517 287.1L209.624 278.697C207.824 277.681 205.627 277.664 203.811 278.651L194.839 283.527C193.461 284.276 193.442 286.249 194.806 287.024ZM273.097 273.743L258.306 265.342C256.942 264.567 256.961 262.595 258.339 261.846L267.311 256.97C269.127 255.982 271.324 256 273.124 257.016L288.017 265.418C289.389 266.192 289.369 268.175 287.983 268.921L278.905 273.809C277.087 274.788 274.893 274.763 273.097 273.743ZM223.306 283.342L238.097 291.743C239.893 292.763 242.087 292.788 243.905 291.809L252.983 286.921C254.369 286.175 254.389 284.192 253.017 283.418L238.124 275.016C236.324 274 234.127 273.982 232.311 274.97L223.339 279.846C221.961 280.595 221.942 282.567 223.306 283.342ZM268.097 289.743L253.306 281.342C251.942 280.567 251.961 278.595 253.339 277.846L262.311 272.97C264.127 271.982 266.324 272 268.124 273.016L283.017 281.418C284.389 282.192 284.369 284.175 282.983 284.921L273.905 289.809C272.087 290.788 269.893 290.763 268.097 289.743ZM217.779 300.029L277.282 334.219C279.082 335.254 281.289 335.284 283.116 334.3L292.203 329.407C293.584 328.663 293.61 326.692 292.249 325.911L232.637 291.731C230.83 290.695 228.616 290.67 226.787 291.664L217.821 296.537C216.446 297.284 216.423 299.249 217.779 300.029ZM296.097 286.743L281.306 278.342C279.942 277.567 279.961 275.595 281.339 274.846L290.311 269.97C292.127 268.982 294.324 269 296.124 270.016L311.017 278.418C312.389 279.192 312.369 281.175 310.983 281.921L301.905 286.809C300.087 287.788 297.893 287.763 296.097 286.743ZM246.306 296.342L261.097 304.743C262.893 305.763 265.087 305.788 266.905 304.809L275.983 299.921C277.369 299.175 277.389 297.192 276.017 296.418L261.124 288.016C259.324 287 257.127 286.982 255.311 287.97L246.339 292.846C244.961 293.595 244.942 295.567 246.306 296.342ZM291.097 302.743L276.306 294.342C274.942 293.567 274.961 291.595 276.339 290.846L285.311 285.97C287.127 284.982 289.324 285 291.124 286.016L306.017 294.418C307.389 295.192 307.369 297.175 305.983 297.921L296.905 302.809C295.087 303.788 292.893 303.763 291.097 302.743ZM303.306 291.342L318.097 299.743C319.893 300.763 322.087 300.788 323.905 299.809L332.983 294.921C334.369 294.175 334.389 292.192 333.017 291.418L318.124 283.016C316.324 282 314.127 281.982 312.311 282.97L303.339 287.846C301.961 288.595 301.942 290.567 303.306 291.342ZM283.097 317.743L268.306 309.342C266.942 308.567 266.961 306.595 268.339 305.846L277.311 300.97C279.127 299.982 281.324 300 283.124 301.016L298.017 309.418C299.389 310.192 299.369 312.175 297.983 312.921L288.905 317.809C287.087 318.788 284.893 318.763 283.097 317.743ZM298.306 307.342L313.097 315.743C314.893 316.763 317.087 316.788 318.905 315.809L327.983 310.921C329.369 310.175 329.389 308.192 328.017 307.418L313.124 299.016C311.324 298 309.127 297.982 307.311 298.97L298.339 303.846C296.961 304.595 296.942 306.567 298.306 307.342ZM363.097 325.743L348.306 317.342C346.942 316.567 346.961 314.595 348.339 313.846L357.311 308.97C359.127 307.982 361.324 308 363.124 309.016L378.017 317.418C379.389 318.192 379.369 320.175 377.983 320.921L368.905 325.809C367.087 326.788 364.893 326.763 363.097 325.743ZM313.306 335.342L328.097 343.743C329.893 344.763 332.087 344.788 333.905 343.809L342.983 338.921C344.369 338.175 344.389 336.192 343.017 335.418L328.124 327.016C326.324 326 324.127 325.982 322.311 326.97L313.339 331.846C311.961 332.595 311.942 334.567 313.306 335.342ZM368.282 347.719L343.279 333.347C341.922 332.568 341.946 330.603 343.32 329.856L352.29 324.981C354.118 323.987 356.33 324.012 358.135 325.045L383.245 339.412C384.607 340.192 384.581 342.165 383.199 342.909L374.117 347.8C372.289 348.784 370.082 348.753 368.282 347.719ZM307.779 352.029L332.782 366.4C334.582 367.435 336.789 367.466 338.617 366.481L347.699 361.591C349.081 360.847 349.107 358.873 347.745 358.094L322.635 343.726C320.83 342.693 318.618 342.669 316.79 343.662L307.82 348.538C306.446 349.285 306.422 351.249 307.779 352.029ZM341.097 312.743L326.306 304.342C324.942 303.567 324.961 301.595 326.339 300.846L335.311 295.97C337.127 294.982 339.324 295 341.124 296.016L356.017 304.418C357.389 305.192 357.369 307.175 355.983 307.921L346.905 312.809C345.087 313.788 342.893 313.763 341.097 312.743ZM291.306 322.342L306.097 330.743C307.893 331.763 310.087 331.788 311.905 330.809L320.983 325.921C322.369 325.175 322.389 323.192 321.017 322.418L306.124 314.016C304.324 313 302.127 312.982 300.311 313.97L291.339 318.846C289.961 319.595 289.942 321.567 291.306 322.342ZM336.097 328.743L321.306 320.342C319.942 319.567 319.961 317.595 321.339 316.846L330.311 311.97C332.127 310.982 334.324 311 336.124 312.016L351.017 320.418C352.389 321.192 352.369 323.175 350.983 323.921L341.905 328.809C340.087 329.788 337.893 329.763 336.097 328.743ZM285.806 339.024L300.597 347.425C302.393 348.445 304.587 348.47 306.405 347.491L315.483 342.603C316.869 341.856 316.889 339.874 315.517 339.1L300.624 330.697C298.824 329.681 296.627 329.664 294.811 330.651L285.839 335.527C284.461 336.276 284.442 338.249 285.806 339.024ZM386.097 338.743L371.306 330.342C369.942 329.567 369.961 327.595 371.339 326.846L380.311 321.97C382.127 320.982 384.324 321 386.124 322.016L401.017 330.418C402.389 331.192 402.369 333.175 400.983 333.921L391.905 338.809C390.087 339.788 387.893 339.763 386.097 338.743ZM336.306 348.342L351.097 356.743C352.893 357.763 355.087 357.788 356.905 356.809L365.983 351.921C367.369 351.175 367.389 349.192 366.017 348.418L351.124 340.016C349.324 339 347.127 338.982 345.311 339.97L336.339 344.846C334.961 345.595 334.942 347.567 336.306 348.342Z" fill="url(#paint12_linear_4563_108080)"/>
</g>
<path d="M240.277 351.763L187.3 320.495C183.307 318.139 183.382 312.337 187.434 310.084L205.14 300.241L273.281 340.31L252.166 351.94C248.45 353.986 243.93 353.919 240.277 351.763Z" fill="url(#paint13_linear_4563_108080)"/>
<path d="M240.277 351.763L187.3 320.495C183.307 318.139 183.382 312.337 187.434 310.084L205.14 300.241L273.281 340.31L252.166 351.94C248.45 353.986 243.93 353.919 240.277 351.763Z" fill="url(#paint14_linear_4563_108080)"/>
<path d="M240.277 351.763L187.3 320.495C183.307 318.139 183.382 312.337 187.434 310.084L205.14 300.241L273.281 340.31L252.166 351.94C248.45 353.986 243.93 353.919 240.277 351.763Z" fill="url(#paint15_linear_4563_108080)"/>
<g filter="url(#filter1_d_4563_108080)">
<path d="M427.281 333.556L226.281 218.114L292.763 76.4965C295.738 70.1598 303.482 67.7041 309.565 71.1691L489.669 173.766C495.099 176.859 497.246 183.603 494.604 189.266L427.281 333.556Z" fill="#DCE3FF"/>
</g>
<g filter="url(#filter2_i_4563_108080)">
<path d="M421.732 327.982L234.281 218.708L295.833 87.0049C298.797 80.6635 306.537 78.1943 312.625 81.648L481.072 177.201C486.544 180.305 488.69 187.108 485.989 192.79L421.732 327.982Z" fill="#E1FEFF"/>
</g>
<path fill-rule="evenodd" clip-rule="evenodd" d="M378.933 146.655L382.614 138.212C383.844 135.389 382.738 132.093 380.054 130.584L314.068 93.4942C310.971 91.7533 307.048 93.0701 305.628 96.3271L301.947 104.77C300.717 107.593 301.823 110.889 304.508 112.398L370.493 149.488C373.591 151.229 377.514 149.912 378.933 146.655ZM390.583 171.405L299.87 119.303C297.922 118.184 295.434 118.934 294.43 120.943C293.504 122.795 294.183 125.047 295.978 126.078L386.692 178.18C388.639 179.299 391.127 178.548 392.132 176.539C393.057 174.688 392.378 172.436 390.583 171.405ZM467.976 204.243L423.016 301.805C421.545 304.998 417.655 306.247 414.6 304.508L363.567 275.465C360.86 273.925 359.782 270.568 361.086 267.739L406.045 170.178C407.516 166.985 411.406 165.735 414.462 167.474L465.494 196.517C468.201 198.058 469.279 201.414 467.976 204.243ZM384.083 183.405L293.37 131.303C291.422 130.184 288.934 130.934 287.93 132.943C287.004 134.795 287.683 137.047 289.478 138.078L380.192 190.18C382.139 191.299 384.627 190.548 385.632 188.539C386.557 186.688 385.878 184.436 384.083 183.405ZM288.37 144.303L379.083 196.405C380.878 197.436 381.557 199.688 380.632 201.539C379.627 203.548 377.139 204.299 375.192 203.18L284.478 151.078C282.683 150.047 282.004 147.795 282.93 145.943C283.934 143.934 286.422 143.184 288.37 144.303ZM353.989 259.677L372.07 219.191C373.326 216.38 372.25 213.075 369.58 211.541L282.539 161.549C279.458 159.779 275.522 161.06 274.073 164.305L255.991 204.792C254.736 207.603 255.812 210.908 258.481 212.441L345.522 262.434C348.604 264.204 352.54 262.922 353.989 259.677Z" fill="url(#paint16_linear_4563_108080)"/>
<path fill-rule="evenodd" clip-rule="evenodd" d="M378.933 146.655L382.614 138.212C383.844 135.389 382.738 132.093 380.054 130.584L314.068 93.4942C310.971 91.7533 307.048 93.0701 305.628 96.3271L301.947 104.77C300.717 107.593 301.823 110.889 304.508 112.398L370.493 149.488C373.591 151.229 377.514 149.912 378.933 146.655ZM390.583 171.405L299.87 119.303C297.922 118.184 295.434 118.934 294.43 120.943C293.504 122.795 294.183 125.047 295.978 126.078L386.692 178.18C388.639 179.299 391.127 178.548 392.132 176.539C393.057 174.688 392.378 172.436 390.583 171.405ZM467.976 204.243L423.016 301.805C421.545 304.998 417.655 306.247 414.6 304.508L363.567 275.465C360.86 273.925 359.782 270.568 361.086 267.739L406.045 170.178C407.516 166.985 411.406 165.735 414.462 167.474L465.494 196.517C468.201 198.058 469.279 201.414 467.976 204.243ZM384.083 183.405L293.37 131.303C291.422 130.184 288.934 130.934 287.93 132.943C287.004 134.795 287.683 137.047 289.478 138.078L380.192 190.18C382.139 191.299 384.627 190.548 385.632 188.539C386.557 186.688 385.878 184.436 384.083 183.405ZM288.37 144.303L379.083 196.405C380.878 197.436 381.557 199.688 380.632 201.539C379.627 203.548 377.139 204.299 375.192 203.18L284.478 151.078C282.683 150.047 282.004 147.795 282.93 145.943C283.934 143.934 286.422 143.184 288.37 144.303ZM353.989 259.677L372.07 219.191C373.326 216.38 372.25 213.075 369.58 211.541L282.539 161.549C279.458 159.779 275.522 161.06 274.073 164.305L255.991 204.792C254.736 207.603 255.812 210.908 258.481 212.441L345.522 262.434C348.604 264.204 352.54 262.922 353.989 259.677Z" fill="url(#paint17_linear_4563_108080)"/>
<path fill-rule="evenodd" clip-rule="evenodd" d="M378.933 146.655L382.614 138.212C383.844 135.389 382.738 132.093 380.054 130.584L314.068 93.4942C310.971 91.7533 307.048 93.0701 305.628 96.3271L301.947 104.77C300.717 107.593 301.823 110.889 304.508 112.398L370.493 149.488C373.591 151.229 377.514 149.912 378.933 146.655ZM390.583 171.405L299.87 119.303C297.922 118.184 295.434 118.934 294.43 120.943C293.504 122.795 294.183 125.047 295.978 126.078L386.692 178.18C388.639 179.299 391.127 178.548 392.132 176.539C393.057 174.688 392.378 172.436 390.583 171.405ZM467.976 204.243L423.016 301.805C421.545 304.998 417.655 306.247 414.6 304.508L363.567 275.465C360.86 273.925 359.782 270.568 361.086 267.739L406.045 170.178C407.516 166.985 411.406 165.735 414.462 167.474L465.494 196.517C468.201 198.058 469.279 201.414 467.976 204.243ZM384.083 183.405L293.37 131.303C291.422 130.184 288.934 130.934 287.93 132.943C287.004 134.795 287.683 137.047 289.478 138.078L380.192 190.18C382.139 191.299 384.627 190.548 385.632 188.539C386.557 186.688 385.878 184.436 384.083 183.405ZM288.37 144.303L379.083 196.405C380.878 197.436 381.557 199.688 380.632 201.539C379.627 203.548 377.139 204.299 375.192 203.18L284.478 151.078C282.683 150.047 282.004 147.795 282.93 145.943C283.934 143.934 286.422 143.184 288.37 144.303ZM353.989 259.677L372.07 219.191C373.326 216.38 372.25 213.075 369.58 211.541L282.539 161.549C279.458 159.779 275.522 161.06 274.073 164.305L255.991 204.792C254.736 207.603 255.812 210.908 258.481 212.441L345.522 262.434C348.604 264.204 352.54 262.922 353.989 259.677Z" fill="url(#paint18_linear_4563_108080)"/>
<g filter="url(#filter3_i_4563_108080)">
<path d="M429.933 285.92L427.021 292.106C422.045 302.682 409.099 306.754 398.964 300.933L336.265 264.922C327.234 259.735 323.696 248.486 328.13 239.063L331.041 232.876C336.018 222.301 348.964 218.228 359.099 224.049L421.797 260.061C430.828 265.248 434.367 276.497 429.933 285.92Z" fill="#00B884"/>
</g>
<path d="M365.424 243.872L355.871 260.616L367.714 267.373L369.481 264.277L361.319 259.621L369.106 245.972L365.424 243.872ZM379.326 251.803L369.773 268.547L373.455 270.648L383.008 253.903L379.326 251.803ZM384.475 276.935L399.586 263.362L395.787 261.194L385.295 270.813L385.248 270.786L388.236 256.886L384.46 254.732L380.324 274.567L384.475 276.935ZM401.014 264.176L391.461 280.921L404.172 288.173L405.938 285.077L396.909 279.926L399.251 275.822L407.365 280.451L408.997 277.59L400.883 272.961L402.93 269.372L411.771 274.417L413.538 271.321L401.014 264.176Z" fill="white"/>
<circle cx="342.781" cy="240.741" r="4.5" fill="white"/>
</g>
<defs>
<filter id="filter0_d_4563_108080" x="160.281" y="230.241" width="241.754" height="138.957" filterUnits="userSpaceOnUse" color-interpolation-filters="sRGB">
<feFlood flood-opacity="0" result="BackgroundImageFix"/>
<feColorMatrix in="SourceAlpha" type="matrix" values="0 0 0 0 0 0 0 0 0 0 0 0 0 0 0 0 0 0 127 0" result="hardAlpha"/>
<feOffset dy="2"/>
<feComposite in2="hardAlpha" operator="out"/>
<feColorMatrix type="matrix" values="0 0 0 0 0 0 0 0 0 0 0 0 0 0 0 0 0 0 0.21 0"/>
<feBlend mode="normal" in2="BackgroundImageFix" result="effect1_dropShadow_4563_108080"/>
<feBlend mode="normal" in="SourceGraphic" in2="effect1_dropShadow_4563_108080" result="shape"/>
</filter>
<filter id="filter1_d_4563_108080" x="226.281" y="69.5928" width="275.449" height="263.964" filterUnits="userSpaceOnUse" color-interpolation-filters="sRGB">
<feFlood flood-opacity="0" result="BackgroundImageFix"/>
<feColorMatrix in="SourceAlpha" type="matrix" values="0 0 0 0 0 0 0 0 0 0 0 0 0 0 0 0 0 0 127 0" result="hardAlpha"/>
<feOffset dx="6"/>
<feComposite in2="hardAlpha" operator="out"/>
<feColorMatrix type="matrix" values="0 0 0 0 0.529412 0 0 0 0 0.568627 0 0 0 0 0.670588 0 0 0 1 0"/>
<feBlend mode="normal" in2="BackgroundImageFix" result="effect1_dropShadow_4563_108080"/>
<feBlend mode="normal" in="SourceGraphic" in2="effect1_dropShadow_4563_108080" result="shape"/>
</filter>
<filter id="filter2_i_4563_108080" x="234.281" y="80.0825" width="252.871" height="247.899" filterUnits="userSpaceOnUse" color-interpolation-filters="sRGB">
<feFlood flood-opacity="0" result="BackgroundImageFix"/>
<feBlend mode="normal" in="SourceGraphic" in2="BackgroundImageFix" result="shape"/>
<feColorMatrix in="SourceAlpha" type="matrix" values="0 0 0 0 0 0 0 0 0 0 0 0 0 0 0 0 0 0 127 0" result="hardAlpha"/>
<feOffset dx="2" dy="-1"/>
<feComposite in2="hardAlpha" operator="arithmetic" k2="-1" k3="1"/>
<feColorMatrix type="matrix" values="0 0 0 0 0.360784 0 0 0 0 0.917647 0 0 0 0 0.717647 0 0 0 1 0"/>
<feBlend mode="normal" in2="shape" result="effect1_innerShadow_4563_108080"/>
</filter>
<filter id="filter3_i_4563_108080" x="326.223" y="221.387" width="105.617" height="82.2086" filterUnits="userSpaceOnUse" color-interpolation-filters="sRGB">
<feFlood flood-opacity="0" result="BackgroundImageFix"/>
<feBlend mode="normal" in="SourceGraphic" in2="BackgroundImageFix" result="shape"/>
<feColorMatrix in="SourceAlpha" type="matrix" values="0 0 0 0 0 0 0 0 0 0 0 0 0 0 0 0 0 0 127 0" result="hardAlpha"/>
<feOffset dx="2" dy="-1"/>
<feComposite in2="hardAlpha" operator="arithmetic" k2="-1" k3="1"/>
<feColorMatrix type="matrix" values="0 0 0 0 0 0 0 0 0 0 0 0 0 0 0 0 0 0 0.25 0"/>
<feBlend mode="normal" in2="shape" result="effect1_innerShadow_4563_108080"/>
</filter>
<linearGradient id="paint0_linear_4563_108080" x1="51.7798" y1="-115.259" x2="344.939" y2="404.777" gradientUnits="userSpaceOnUse">
<stop offset="0.0260417" stop-color="#CFECFD" stop-opacity="0.99"/>
<stop offset="1" stop-color="#FD71AF" stop-opacity="0.01"/>
</linearGradient>
<linearGradient id="paint1_linear_4563_108080" x1="461.005" y1="402.842" x2="401.509" y2="232.713" gradientUnits="userSpaceOnUse">
<stop stop-color="#CEEFFF"/>
<stop offset="0.0260417" stop-color="#CFECFD" stop-opacity="0.83"/>
<stop offset="1" stop-color="#FD71AF" stop-opacity="0.01"/>
</linearGradient>
<linearGradient id="paint2_linear_4563_108080" x1="169.175" y1="-77.7588" x2="355.833" y2="454.614" gradientUnits="userSpaceOnUse">
<stop stop-color="#00B4D5"/>
<stop offset="1" stop-color="#DCE3FF"/>
</linearGradient>
<linearGradient id="paint3_linear_4563_108080" x1="245.235" y1="347.712" x2="265.506" y2="397.672" gradientUnits="userSpaceOnUse">
<stop stop-color="#8791AB"/>
<stop offset="0.84375" stop-color="#BEC6E1" stop-opacity="0.75"/>
</linearGradient>
<linearGradient id="paint4_linear_4563_108080" x1="162.543" y1="297.384" x2="371.129" y2="270.9" gradientUnits="userSpaceOnUse">
<stop offset="0.197917" stop-color="#F2FDFF"/>
<stop offset="1" stop-color="#FFBFF1"/>
</linearGradient>
<linearGradient id="paint5_linear_4563_108080" x1="212.2" y1="261.356" x2="275.737" y2="376.705" gradientUnits="userSpaceOnUse">
<stop stop-color="#FEAFE7" stop-opacity="0.76"/>
<stop offset="0.0833333" stop-color="white" stop-opacity="0.916667"/>
<stop offset="1" stop-color="#E2F7FB" stop-opacity="0"/>
</linearGradient>
<linearGradient id="paint6_linear_4563_108080" x1="270.637" y1="214.107" x2="270.637" y2="403.104" gradientUnits="userSpaceOnUse">
<stop stop-color="#8892AC"/>
<stop offset="1" stop-color="#ADACF2"/>
</linearGradient>
<linearGradient id="paint7_linear_4563_108080" x1="198.744" y1="265.801" x2="291.979" y2="254.027" gradientUnits="userSpaceOnUse">
<stop offset="0.197917" stop-color="#F2FDFF"/>
<stop offset="1" stop-color="#FFBFF1"/>
</linearGradient>
<linearGradient id="paint8_linear_4563_108080" x1="220.936" y1="249.613" x2="249.566" y2="301.312" gradientUnits="userSpaceOnUse">
<stop stop-color="#FEAFE7" stop-opacity="0.76"/>
<stop offset="0.0833333" stop-color="white" stop-opacity="0.916667"/>
<stop offset="1" stop-color="#E2F7FB" stop-opacity="0"/>
</linearGradient>
<linearGradient id="paint9_linear_4563_108080" x1="247.052" y1="228.384" x2="247.052" y2="313.303" gradientUnits="userSpaceOnUse">
<stop stop-color="#616776"/>
<stop offset="1" stop-color="#7979A4"/>
</linearGradient>
<linearGradient id="paint10_linear_4563_108080" x1="342.516" y1="346.266" x2="362.09" y2="343.759" gradientUnits="userSpaceOnUse">
<stop offset="0.197917" stop-color="#F2FDFF"/>
<stop offset="1" stop-color="#FFBFF1"/>
</linearGradient>
<linearGradient id="paint11_linear_4563_108080" x1="347.177" y1="342.913" x2="353.063" y2="353.691" gradientUnits="userSpaceOnUse">
<stop stop-color="#FEAFE7" stop-opacity="0.76"/>
<stop offset="0.0833333" stop-color="white" stop-opacity="0.916667"/>
<stop offset="1" stop-color="#E2F7FB" stop-opacity="0"/>
</linearGradient>
<linearGradient id="paint12_linear_4563_108080" x1="372.677" y1="437.383" x2="308.677" y2="213.883" gradientUnits="userSpaceOnUse">
<stop stop-color="#7B68EE"/>
<stop offset="1" stop-color="#F7DAF4"/>
</linearGradient>
<linearGradient id="paint13_linear_4563_108080" x1="194.944" y1="314.628" x2="229.893" y2="310.252" gradientUnits="userSpaceOnUse">
<stop offset="0.197917" stop-color="#F2FDFF"/>
<stop offset="1" stop-color="#FFBFF1"/>
</linearGradient>
<linearGradient id="paint14_linear_4563_108080" x1="203.26" y1="308.509" x2="214.132" y2="327.972" gradientUnits="userSpaceOnUse">
<stop stop-color="#FEAFE7" stop-opacity="0.76"/>
<stop offset="0.0833333" stop-color="white" stop-opacity="0.916667"/>
<stop offset="1" stop-color="#E2F7FB" stop-opacity="0"/>
</linearGradient>
<linearGradient id="paint15_linear_4563_108080" x1="213.047" y1="300.484" x2="213.047" y2="332.584" gradientUnits="userSpaceOnUse">
<stop stop-color="#616776"/>
<stop offset="1" stop-color="#7979A4"/>
</linearGradient>
<linearGradient id="paint16_linear_4563_108080" x1="255.469" y1="199.009" x2="549.625" y2="432.523" gradientUnits="userSpaceOnUse">
<stop offset="0.197917" stop-color="#F2FDFF"/>
<stop offset="1" stop-color="#FFC800"/>
</linearGradient>
<linearGradient id="paint17_linear_4563_108080" x1="305.385" y1="134.816" x2="439.288" y2="271.967" gradientUnits="userSpaceOnUse">
<stop stop-color="#FEAFE7" stop-opacity="0.76"/>
<stop offset="0.821782" stop-color="white" stop-opacity="0.916667"/>
<stop offset="1" stop-color="#E2F7FB" stop-opacity="0"/>
</linearGradient>
<linearGradient id="paint18_linear_4563_108080" x1="425.916" y1="133.764" x2="193.616" y2="371.945" gradientUnits="userSpaceOnUse">
<stop stop-color="#FF9900"/>
<stop offset="0.09375" stop-color="white" stop-opacity="0"/>
<stop offset="0.96875" stop-color="#F8F4E9"/>
</linearGradient>
<clipPath id="clip0_4563_108080">
<rect width="588" height="472" fill="white"/>
</clipPath>
</defs>
</svg>
