<svg width="588" height="472" viewBox="0 0 588 472" fill="none" xmlns="http://www.w3.org/2000/svg">
<rect width="588" height="472" fill="white"/>
<path d="M481.312 95.8565C398.035 -38.3264 256.215 30.1542 188.653 117.725C5.87154 354.637 801.054 611.056 481.312 95.8565Z" fill="url(#paint0_linear_4563_108361)"/>
<path d="M65.5091 378.316C105.154 442.366 172.671 409.678 204.835 367.877C291.852 254.791 -86.7109 132.394 65.5091 378.316Z" fill="url(#paint1_linear_4563_108361)"/>
<path d="M308.5 186.355L79 318.855L308.5 451.355L538 318.855L308.5 186.355Z" fill="url(#paint2_linear_4563_108361)"/>
<path d="M308.5 170.355L79 302.855L308.5 435.355L538 302.855L308.5 170.355Z" fill="#F3F5FA"/>
<path d="M404 368.354L203 251.779V32.3547L404 148.355V368.354Z" fill="url(#paint3_linear_4563_108361)"/>
<path d="M404 368.354L203 251.779V32.3547L404 148.355V368.354Z" fill="url(#paint4_linear_4563_108361)"/>
<path d="M404 368.354L203 251.779V32.3547L404 148.355V368.354Z" fill="url(#paint5_linear_4563_108361)"/>
<path d="M404 368.354L203 251.779V32.3547L404 148.355V368.354Z" fill="url(#paint6_linear_4563_108361)"/>
<mask id="mask0_4563_108361" style="mask-type:alpha" maskUnits="userSpaceOnUse" x="203" y="32" width="201" height="337">
<path d="M404 368.355L203 251.779V32.355L404 148.355V368.355Z" fill="url(#paint7_linear_4563_108361)"/>
<path d="M404 368.355L203 251.779V32.355L404 148.355V368.355Z" fill="url(#paint8_linear_4563_108361)"/>
<path d="M404 368.355L203 251.779V32.355L404 148.355V368.355Z" fill="url(#paint9_linear_4563_108361)"/>
<path d="M404 368.355L203 251.779V32.355L404 148.355V368.355Z" fill="url(#paint10_linear_4563_108361)"/>
<path d="M404 368.355L203 251.779V32.355L404 148.355V368.355Z" fill="url(#paint11_linear_4563_108361)"/>
</mask>
<g mask="url(#mask0_4563_108361)">
<g opacity="0.8">
<path d="M424.998 274.901V211.938L366.164 245.877L366.164 308.546L424.998 274.901Z" fill="url(#paint12_linear_4563_108361)"/>
<path d="M424.998 274.901V211.938L366.164 245.877L366.164 308.546L424.998 274.901Z" fill="url(#paint13_linear_4563_108361)"/>
<path d="M424.998 274.901V211.938L366.164 245.877L366.164 308.546L424.998 274.901Z" fill="url(#paint14_linear_4563_108361)"/>
</g>
<g opacity="0.8">
<path d="M366.166 245.877V308.546L308 274.941V212.272L366.166 245.877Z" fill="url(#paint15_linear_4563_108361)"/>
<path d="M366.166 245.877V308.546L308 274.941V212.272L366.166 245.877Z" fill="url(#paint16_linear_4563_108361)"/>
<path d="M366.166 245.877V308.546L308 274.941V212.272L366.166 245.877Z" fill="url(#paint17_linear_4563_108361)"/>
</g>
<path opacity="0.78" d="M359.814 245.366L308 274.449V216.283L359.814 245.366Z" fill="url(#paint18_linear_4563_108361)"/>
<g opacity="0.8">
<path d="M366.5 178.355L308 212.272L366.166 245.881L425 211.938L366.5 178.355Z" fill="url(#paint19_linear_4563_108361)"/>
<path d="M366.5 178.355L308 212.272L366.166 245.881L425 211.938L366.5 178.355Z" fill="url(#paint20_linear_4563_108361)"/>
<path d="M366.5 178.355L308 212.272L366.166 245.881L425 211.938L366.5 178.355Z" fill="url(#paint21_linear_4563_108361)"/>
</g>
<g opacity="0.8">
<path d="M424.998 207.901V144.938L366.164 178.877L366.164 241.546L424.998 207.901Z" fill="url(#paint22_linear_4563_108361)"/>
<path d="M424.998 207.901V144.938L366.164 178.877L366.164 241.546L424.998 207.901Z" fill="url(#paint23_linear_4563_108361)"/>
<path d="M424.998 207.901V144.938L366.164 178.877L366.164 241.546L424.998 207.901Z" fill="url(#paint24_linear_4563_108361)"/>
</g>
<g opacity="0.8">
<path d="M366.166 178.877V241.546L308 207.941V145.272L366.166 178.877Z" fill="url(#paint25_linear_4563_108361)"/>
<path d="M366.166 178.877V241.546L308 207.941V145.272L366.166 178.877Z" fill="url(#paint26_linear_4563_108361)"/>
<path d="M366.166 178.877V241.546L308 207.941V145.272L366.166 178.877Z" fill="url(#paint27_linear_4563_108361)"/>
</g>
<path opacity="0.78" d="M359.814 178.366L308 207.449V149.283L359.814 178.366Z" fill="url(#paint28_linear_4563_108361)"/>
<g opacity="0.8">
<path d="M366.5 111.355L308 145.272L366.166 178.881L425 144.938L366.5 111.355Z" fill="url(#paint29_linear_4563_108361)"/>
<path d="M366.5 111.355L308 145.272L366.166 178.881L425 144.938L366.5 111.355Z" fill="url(#paint30_linear_4563_108361)"/>
<path d="M366.5 111.355L308 145.272L366.166 178.881L425 144.938L366.5 111.355Z" fill="url(#paint31_linear_4563_108361)"/>
</g>
<g opacity="0.8">
<path d="M424.998 109.901V46.9379L366.164 80.8774L366.164 143.546L424.998 109.901Z" fill="url(#paint32_linear_4563_108361)"/>
<path d="M424.998 109.901V46.9379L366.164 80.8774L366.164 143.546L424.998 109.901Z" fill="url(#paint33_linear_4563_108361)"/>
<path d="M424.998 109.901V46.9379L366.164 80.8774L366.164 143.546L424.998 109.901Z" fill="url(#paint34_linear_4563_108361)"/>
<path d="M424.998 109.901V46.9379L366.164 80.8774L366.164 143.546L424.998 109.901Z" stroke="url(#paint35_linear_4563_108361)" stroke-width="3" stroke-linecap="round" stroke-linejoin="round" stroke-dasharray="6 6"/>
</g>
<g opacity="0.8">
<path d="M366.166 80.8773V143.546L308 109.941V47.2721L366.166 80.8773Z" fill="url(#paint36_linear_4563_108361)"/>
<path d="M366.166 80.8773V143.546L308 109.941V47.2721L366.166 80.8773Z" fill="url(#paint37_linear_4563_108361)"/>
<path d="M366.166 80.8773V143.546L308 109.941V47.2721L366.166 80.8773Z" fill="url(#paint38_linear_4563_108361)"/>
<path d="M366.166 80.8773V143.546L308 109.941V47.2721L366.166 80.8773Z" stroke="url(#paint39_linear_4563_108361)" stroke-width="3" stroke-linecap="round" stroke-linejoin="round" stroke-dasharray="6 6"/>
</g>
<path opacity="0.78" d="M359.814 80.3661L308 109.449V51.2832L359.814 80.3661Z" fill="url(#paint40_linear_4563_108361)"/>
<g opacity="0.8">
<path d="M366.5 13.355L308 47.2719L366.166 80.8807L425 46.9376L366.5 13.355Z" fill="url(#paint41_linear_4563_108361)"/>
<path d="M366.5 13.355L308 47.2719L366.166 80.8807L425 46.9376L366.5 13.355Z" fill="url(#paint42_linear_4563_108361)"/>
<path d="M366.5 13.355L308 47.2719L366.166 80.8807L425 46.9376L366.5 13.355Z" fill="url(#paint43_linear_4563_108361)"/>
<path d="M366.5 13.355L308 47.2719L366.166 80.8807L425 46.9376L366.5 13.355Z" stroke="url(#paint44_linear_4563_108361)" stroke-width="3" stroke-linecap="round" stroke-linejoin="round" stroke-dasharray="6 6"/>
</g>
</g>
<path d="M404 368.355L203 251.779V32.355L404 148.355V368.355Z" fill="url(#paint45_linear_4563_108361)"/>
<path d="M404 368.355L203 251.779V32.355L404 148.355V368.355Z" fill="url(#paint46_linear_4563_108361)"/>
<path d="M203.148 32.855V249.29L205.001 248.356V35.855L203.148 32.855Z" fill="white"/>
<path d="M404 150.355L196 30.355V24.355L404 143.355V150.355Z" fill="#8892AC"/>
<path d="M404 371.355L196 251.355V245.355L404 364.355V371.355Z" fill="#8892AC"/>
<path d="M404.001 364.355L203.148 249.29L205.001 248.355L402.001 360.197L404.001 364.355Z" fill="white"/>
<path d="M397 143.355L404 147.955L404 371.355L397 367.042L397 143.355Z" fill="#8892AC"/>
<path d="M196 29.355L203 33.355V255.355L196 251.042L196 29.355Z" fill="#8892AC"/>
<path d="M404 143.355L412 138.68V367.043L404 371.355V143.355Z" fill="url(#paint47_linear_4563_108361)"/>
<path d="M404 143.355L412 138.68V367.043L404 371.355V143.355Z" fill="url(#paint48_linear_4563_108361)" fill-opacity="0.53"/>
<path d="M404 143.355L412 138.68V367.043L404 371.355V143.355Z" fill="url(#paint49_linear_4563_108361)" fill-opacity="0.62"/>
<g opacity="0.8">
<path d="M404 143.354L196 24.3548L203.5 20L412 138.709L404 143.354Z" fill="url(#paint50_linear_4563_108361)"/>
<path d="M404 143.354L196 24.3548L203.5 20L412 138.709L404 143.354Z" fill="url(#paint51_linear_4563_108361)"/>
<path d="M404 143.354L196 24.3548L203.5 20L412 138.709L404 143.354Z" fill="url(#paint52_linear_4563_108361)"/>
</g>
<g opacity="0.8">
<path d="M294.998 348.901V285.938L236.164 319.877L236.164 382.546L294.998 348.901Z" fill="url(#paint53_linear_4563_108361)"/>
<path d="M294.998 348.901V285.938L236.164 319.877L236.164 382.546L294.998 348.901Z" fill="url(#paint54_linear_4563_108361)"/>
<path d="M294.998 348.901V285.938L236.164 319.877L236.164 382.546L294.998 348.901Z" fill="url(#paint55_linear_4563_108361)"/>
</g>
<g opacity="0.8">
<path d="M236.166 319.877V382.546L178 348.941V286.272L236.166 319.877Z" fill="url(#paint56_linear_4563_108361)"/>
<path d="M236.166 319.877V382.546L178 348.941V286.272L236.166 319.877Z" fill="url(#paint57_linear_4563_108361)"/>
<path d="M236.166 319.877V382.546L178 348.941V286.272L236.166 319.877Z" fill="url(#paint58_linear_4563_108361)"/>
</g>
<path opacity="0.78" d="M229.814 319.366L178 348.449V290.283L229.814 319.366Z" fill="url(#paint59_linear_4563_108361)"/>
<g opacity="0.8">
<path d="M236.5 252.355L178 286.272L236.166 319.881L295 285.938L236.5 252.355Z" fill="url(#paint60_linear_4563_108361)"/>
<path d="M236.5 252.355L178 286.272L236.166 319.881L295 285.938L236.5 252.355Z" fill="url(#paint61_linear_4563_108361)"/>
<path d="M236.5 252.355L178 286.272L236.166 319.881L295 285.938L236.5 252.355Z" fill="url(#paint62_linear_4563_108361)"/>
</g>
<g opacity="0.8">
<path d="M294.998 281.901V218.938L236.164 252.877L236.164 315.546L294.998 281.901Z" fill="url(#paint63_linear_4563_108361)"/>
<path d="M294.998 281.901V218.938L236.164 252.877L236.164 315.546L294.998 281.901Z" fill="url(#paint64_linear_4563_108361)"/>
<path d="M294.998 281.901V218.938L236.164 252.877L236.164 315.546L294.998 281.901Z" fill="url(#paint65_linear_4563_108361)"/>
</g>
<g opacity="0.8">
<path d="M236.166 252.877V315.546L178 281.941V219.272L236.166 252.877Z" fill="url(#paint66_linear_4563_108361)"/>
<path d="M236.166 252.877V315.546L178 281.941V219.272L236.166 252.877Z" fill="url(#paint67_linear_4563_108361)"/>
<path d="M236.166 252.877V315.546L178 281.941V219.272L236.166 252.877Z" fill="url(#paint68_linear_4563_108361)"/>
</g>
<path opacity="0.78" d="M229.814 252.366L178 281.449V223.283L229.814 252.366Z" fill="url(#paint69_linear_4563_108361)"/>
<g opacity="0.8">
<path d="M236.5 185.355L178 219.272L236.166 252.881L295 218.938L236.5 185.355Z" fill="url(#paint70_linear_4563_108361)"/>
<path d="M236.5 185.355L178 219.272L236.166 252.881L295 218.938L236.5 185.355Z" fill="url(#paint71_linear_4563_108361)"/>
<path d="M236.5 185.355L178 219.272L236.166 252.881L295 218.938L236.5 185.355Z" fill="url(#paint72_linear_4563_108361)"/>
</g>
<g opacity="0.8">
<path d="M294.998 183.901V120.938L236.164 154.877L236.164 217.546L294.998 183.901Z" fill="url(#paint73_linear_4563_108361)"/>
<path d="M294.998 183.901V120.938L236.164 154.877L236.164 217.546L294.998 183.901Z" fill="url(#paint74_linear_4563_108361)"/>
<path d="M294.998 183.901V120.938L236.164 154.877L236.164 217.546L294.998 183.901Z" fill="url(#paint75_linear_4563_108361)"/>
<path d="M294.998 183.901V120.938L236.164 154.877L236.164 217.546L294.998 183.901Z" stroke="url(#paint76_linear_4563_108361)" stroke-width="3" stroke-linecap="round" stroke-linejoin="round" stroke-dasharray="6 6"/>
</g>
<g opacity="0.8">
<path d="M236.166 154.877V217.546L178 183.941V121.272L236.166 154.877Z" fill="url(#paint77_linear_4563_108361)"/>
<path d="M236.166 154.877V217.546L178 183.941V121.272L236.166 154.877Z" fill="url(#paint78_linear_4563_108361)"/>
<path d="M236.166 154.877V217.546L178 183.941V121.272L236.166 154.877Z" fill="url(#paint79_linear_4563_108361)"/>
<path d="M236.166 154.877V217.546L178 183.941V121.272L236.166 154.877Z" stroke="url(#paint80_linear_4563_108361)" stroke-width="3" stroke-linecap="round" stroke-linejoin="round" stroke-dasharray="6 6"/>
</g>
<path opacity="0.78" d="M229.814 154.366L178 183.449V125.283L229.814 154.366Z" fill="url(#paint81_linear_4563_108361)"/>
<g opacity="0.8">
<path d="M236.5 87.355L178 121.272L236.166 154.881L295 120.938L236.5 87.355Z" fill="url(#paint82_linear_4563_108361)"/>
<path d="M236.5 87.355L178 121.272L236.166 154.881L295 120.938L236.5 87.355Z" fill="url(#paint83_linear_4563_108361)"/>
<path d="M236.5 87.355L178 121.272L236.166 154.881L295 120.938L236.5 87.355Z" fill="url(#paint84_linear_4563_108361)"/>
<path d="M236.5 87.355L178 121.272L236.166 154.881L295 120.938L236.5 87.355Z" stroke="url(#paint85_linear_4563_108361)" stroke-width="3" stroke-linecap="round" stroke-linejoin="round" stroke-dasharray="6 6"/>
</g>
<defs>
<linearGradient id="paint0_linear_4563_108361" x1="311.004" y1="68.0871" x2="270.737" y2="411.964" gradientUnits="userSpaceOnUse">
<stop offset="0.0260417" stop-color="#D7FFF4"/>
<stop offset="0.8125" stop-color="#FFDADA"/>
</linearGradient>
<linearGradient id="paint1_linear_4563_108361" x1="146.587" y1="391.571" x2="165.858" y2="227.439" gradientUnits="userSpaceOnUse">
<stop offset="0.0260417" stop-color="#D7FFF4"/>
<stop offset="0.8125" stop-color="#FFDADA"/>
</linearGradient>
<linearGradient id="paint2_linear_4563_108361" x1="176.893" y1="-66.645" x2="363.552" y2="465.728" gradientUnits="userSpaceOnUse">
<stop stop-color="#00B4D5"/>
<stop offset="1" stop-color="#DCE3FF"/>
</linearGradient>
<linearGradient id="paint3_linear_4563_108361" x1="404" y1="33.4338" x2="464.34" y2="295.601" gradientUnits="userSpaceOnUse">
<stop offset="0.0015505" stop-color="#DBF3F9"/>
<stop offset="1" stop-color="#997BF3"/>
</linearGradient>
<linearGradient id="paint4_linear_4563_108361" x1="404" y1="33.4338" x2="464.34" y2="295.601" gradientUnits="userSpaceOnUse">
<stop offset="0.0015505" stop-color="#99E3F3"/>
<stop offset="1" stop-color="#CEBDFF"/>
</linearGradient>
<linearGradient id="paint5_linear_4563_108361" x1="363.119" y1="421.906" x2="262.029" y2="165.56" gradientUnits="userSpaceOnUse">
<stop stop-color="#077393" stop-opacity="0.86"/>
<stop offset="0.22806" stop-color="white" stop-opacity="0.6"/>
<stop offset="1" stop-color="#8CE0F0" stop-opacity="0"/>
</linearGradient>
<linearGradient id="paint6_linear_4563_108361" x1="438.261" y1="35.5917" x2="203" y2="35.5917" gradientUnits="userSpaceOnUse">
<stop stop-color="#0081A7" stop-opacity="0"/>
<stop offset="0.208975" stop-color="white" stop-opacity="0.38"/>
<stop offset="1" stop-color="#D5DAFF"/>
</linearGradient>
<linearGradient id="paint7_linear_4563_108361" x1="404" y1="33.434" x2="464.34" y2="295.601" gradientUnits="userSpaceOnUse">
<stop offset="0.0015505" stop-color="#F8FEFF"/>
<stop offset="1" stop-color="#D6C8FF"/>
</linearGradient>
<linearGradient id="paint8_linear_4563_108361" x1="404" y1="33.434" x2="464.34" y2="295.601" gradientUnits="userSpaceOnUse">
<stop offset="0.0015505" stop-color="#F8FEFF"/>
<stop offset="1" stop-color="#D6C8FF"/>
</linearGradient>
<linearGradient id="paint9_linear_4563_108361" x1="363.119" y1="421.906" x2="262.029" y2="165.56" gradientUnits="userSpaceOnUse">
<stop stop-color="#077393" stop-opacity="0.86"/>
<stop offset="0.22806" stop-color="white" stop-opacity="0.6"/>
<stop offset="1" stop-color="#8CE0F0" stop-opacity="0"/>
</linearGradient>
<linearGradient id="paint10_linear_4563_108361" x1="438.261" y1="35.592" x2="203" y2="35.592" gradientUnits="userSpaceOnUse">
<stop stop-color="#0081A7" stop-opacity="0"/>
<stop offset="0.208975" stop-color="white" stop-opacity="0.38"/>
<stop offset="1" stop-color="#D5DAFF"/>
</linearGradient>
<linearGradient id="paint11_linear_4563_108361" x1="357" y1="56.355" x2="303.5" y2="368.355" gradientUnits="userSpaceOnUse">
<stop/>
<stop offset="0.265625" stop-color="white" stop-opacity="0.734375"/>
<stop offset="1" stop-opacity="0"/>
</linearGradient>
<linearGradient id="paint12_linear_4563_108361" x1="424.998" y1="212.272" x2="444.666" y2="293.006" gradientUnits="userSpaceOnUse">
<stop offset="0.0015505" stop-color="#44DCFE"/>
<stop offset="1" stop-color="#3500D5"/>
</linearGradient>
<linearGradient id="paint13_linear_4563_108361" x1="399.258" y1="296.846" x2="378.198" y2="255.395" gradientUnits="userSpaceOnUse">
<stop stop-color="#077393" stop-opacity="0.86"/>
<stop offset="0.22806" stop-color="white" stop-opacity="0.6"/>
<stop offset="1" stop-color="#8CE0F0" stop-opacity="0"/>
</linearGradient>
<linearGradient id="paint14_linear_4563_108361" x1="435.027" y1="212.941" x2="366.164" y2="212.941" gradientUnits="userSpaceOnUse">
<stop stop-color="#0081A7" stop-opacity="0"/>
<stop offset="0.20902" stop-color="#EAEDFF" stop-opacity="0.38"/>
<stop offset="1" stop-color="#D5DAFF"/>
</linearGradient>
<linearGradient id="paint15_linear_4563_108361" x1="308" y1="215.949" x2="302.694" y2="309.717" gradientUnits="userSpaceOnUse">
<stop offset="0.0015505" stop-color="white"/>
<stop offset="1" stop-color="#5DE5FE"/>
</linearGradient>
<linearGradient id="paint16_linear_4563_108361" x1="343.1" y1="297.849" x2="369.174" y2="252.721" gradientUnits="userSpaceOnUse">
<stop stop-color="#57CEE4"/>
<stop offset="0.109375" stop-color="white" stop-opacity="0.51886"/>
<stop offset="1" stop-color="#DEF7FF"/>
</linearGradient>
<linearGradient id="paint17_linear_4563_108361" x1="305.326" y1="262.749" x2="368.506" y2="262.749" gradientUnits="userSpaceOnUse">
<stop stop-color="#7BD4E6"/>
<stop offset="0.0880419" stop-color="white" stop-opacity="0.51"/>
<stop offset="1" stop-color="#32C8FC" stop-opacity="0.13"/>
</linearGradient>
<linearGradient id="paint18_linear_4563_108361" x1="333.907" y1="216.283" x2="333.907" y2="274.449" gradientUnits="userSpaceOnUse">
<stop offset="0.0495103" stop-color="#F0DFF8" stop-opacity="0"/>
<stop offset="1" stop-color="#C2E0FC"/>
</linearGradient>
<linearGradient id="paint19_linear_4563_108361" x1="308" y1="212.118" x2="423.233" y2="197.848" gradientUnits="userSpaceOnUse">
<stop offset="0.197917" stop-color="#F2FDFF"/>
<stop offset="1" stop-color="#FFBFF1"/>
</linearGradient>
<linearGradient id="paint20_linear_4563_108361" x1="335.411" y1="191.726" x2="371.849" y2="256.244" gradientUnits="userSpaceOnUse">
<stop stop-color="#FEAFE7" stop-opacity="0.76"/>
<stop offset="0.0833333" stop-color="white" stop-opacity="0.916667"/>
<stop offset="1" stop-color="#E2F7FB" stop-opacity="0"/>
</linearGradient>
<linearGradient id="paint21_linear_4563_108361" x1="401.6" y1="191.392" x2="338.42" y2="303.378" gradientUnits="userSpaceOnUse">
<stop stop-color="#BB66E1"/>
<stop offset="0.09375" stop-color="white" stop-opacity="0"/>
<stop offset="0.96875" stop-color="#F8DBEC"/>
</linearGradient>
<linearGradient id="paint22_linear_4563_108361" x1="424.998" y1="145.272" x2="444.666" y2="226.006" gradientUnits="userSpaceOnUse">
<stop offset="0.0015505" stop-color="#44DCFE"/>
<stop offset="1" stop-color="#3500D5"/>
</linearGradient>
<linearGradient id="paint23_linear_4563_108361" x1="399.258" y1="229.846" x2="378.198" y2="188.395" gradientUnits="userSpaceOnUse">
<stop stop-color="#077393" stop-opacity="0.86"/>
<stop offset="0.22806" stop-color="white" stop-opacity="0.6"/>
<stop offset="1" stop-color="#8CE0F0" stop-opacity="0"/>
</linearGradient>
<linearGradient id="paint24_linear_4563_108361" x1="435.027" y1="145.941" x2="366.164" y2="145.941" gradientUnits="userSpaceOnUse">
<stop stop-color="#0081A7" stop-opacity="0"/>
<stop offset="0.20902" stop-color="#EAEDFF" stop-opacity="0.38"/>
<stop offset="1" stop-color="#D5DAFF"/>
</linearGradient>
<linearGradient id="paint25_linear_4563_108361" x1="308" y1="148.949" x2="302.694" y2="242.717" gradientUnits="userSpaceOnUse">
<stop offset="0.0015505" stop-color="white"/>
<stop offset="1" stop-color="#5DE5FE"/>
</linearGradient>
<linearGradient id="paint26_linear_4563_108361" x1="343.1" y1="230.849" x2="369.174" y2="185.721" gradientUnits="userSpaceOnUse">
<stop stop-color="#57CEE4"/>
<stop offset="0.109375" stop-color="white" stop-opacity="0.51886"/>
<stop offset="1" stop-color="#DEF7FF"/>
</linearGradient>
<linearGradient id="paint27_linear_4563_108361" x1="305.326" y1="195.749" x2="368.506" y2="195.749" gradientUnits="userSpaceOnUse">
<stop stop-color="#7BD4E6"/>
<stop offset="0.0880419" stop-color="white" stop-opacity="0.51"/>
<stop offset="1" stop-color="#32C8FC" stop-opacity="0.13"/>
</linearGradient>
<linearGradient id="paint28_linear_4563_108361" x1="333.907" y1="149.283" x2="333.907" y2="207.449" gradientUnits="userSpaceOnUse">
<stop offset="0.0495103" stop-color="#F0DFF8" stop-opacity="0"/>
<stop offset="1" stop-color="#C2E0FC"/>
</linearGradient>
<linearGradient id="paint29_linear_4563_108361" x1="308" y1="145.118" x2="423.233" y2="130.848" gradientUnits="userSpaceOnUse">
<stop offset="0.197917" stop-color="#F2FDFF"/>
<stop offset="1" stop-color="#FFBFF1"/>
</linearGradient>
<linearGradient id="paint30_linear_4563_108361" x1="335.411" y1="124.726" x2="371.849" y2="189.244" gradientUnits="userSpaceOnUse">
<stop stop-color="#FEAFE7" stop-opacity="0.76"/>
<stop offset="0.0833333" stop-color="white" stop-opacity="0.916667"/>
<stop offset="1" stop-color="#E2F7FB" stop-opacity="0"/>
</linearGradient>
<linearGradient id="paint31_linear_4563_108361" x1="401.6" y1="124.392" x2="338.42" y2="236.378" gradientUnits="userSpaceOnUse">
<stop stop-color="#BB66E1"/>
<stop offset="0.09375" stop-color="white" stop-opacity="0"/>
<stop offset="0.96875" stop-color="#F8DBEC"/>
</linearGradient>
<linearGradient id="paint32_linear_4563_108361" x1="424.998" y1="47.2722" x2="444.666" y2="128.006" gradientUnits="userSpaceOnUse">
<stop offset="0.0015505" stop-color="#44DCFE"/>
<stop offset="1" stop-color="#3500D5"/>
</linearGradient>
<linearGradient id="paint33_linear_4563_108361" x1="399.258" y1="131.846" x2="378.198" y2="90.395" gradientUnits="userSpaceOnUse">
<stop stop-color="#077393" stop-opacity="0.86"/>
<stop offset="0.22806" stop-color="white" stop-opacity="0.6"/>
<stop offset="1" stop-color="#8CE0F0" stop-opacity="0"/>
</linearGradient>
<linearGradient id="paint34_linear_4563_108361" x1="435.027" y1="47.9407" x2="366.164" y2="47.9407" gradientUnits="userSpaceOnUse">
<stop stop-color="#0081A7" stop-opacity="0"/>
<stop offset="0.20902" stop-color="#EAEDFF" stop-opacity="0.38"/>
<stop offset="1" stop-color="#D5DAFF"/>
</linearGradient>
<linearGradient id="paint35_linear_4563_108361" x1="395.581" y1="46.9379" x2="395.581" y2="143.546" gradientUnits="userSpaceOnUse">
<stop stop-color="#8791AB"/>
<stop offset="1" stop-color="#6DD1F0"/>
</linearGradient>
<linearGradient id="paint36_linear_4563_108361" x1="308" y1="50.9492" x2="302.694" y2="144.717" gradientUnits="userSpaceOnUse">
<stop offset="0.0015505" stop-color="white"/>
<stop offset="1" stop-color="#5DE5FE"/>
</linearGradient>
<linearGradient id="paint37_linear_4563_108361" x1="343.1" y1="132.849" x2="369.174" y2="87.7207" gradientUnits="userSpaceOnUse">
<stop stop-color="#57CEE4"/>
<stop offset="0.109375" stop-color="white" stop-opacity="0.51886"/>
<stop offset="1" stop-color="#DEF7FF"/>
</linearGradient>
<linearGradient id="paint38_linear_4563_108361" x1="305.326" y1="97.7492" x2="368.506" y2="97.7492" gradientUnits="userSpaceOnUse">
<stop stop-color="#7BD4E6"/>
<stop offset="0.0880419" stop-color="white" stop-opacity="0.51"/>
<stop offset="1" stop-color="#32C8FC" stop-opacity="0.13"/>
</linearGradient>
<linearGradient id="paint39_linear_4563_108361" x1="337.083" y1="143.546" x2="337.083" y2="47.2721" gradientUnits="userSpaceOnUse">
<stop stop-color="#8791AB"/>
<stop offset="1" stop-color="#6DD1F0"/>
</linearGradient>
<linearGradient id="paint40_linear_4563_108361" x1="333.907" y1="51.2832" x2="333.907" y2="109.449" gradientUnits="userSpaceOnUse">
<stop offset="0.0495103" stop-color="#F0DFF8" stop-opacity="0"/>
<stop offset="1" stop-color="#C2E0FC"/>
</linearGradient>
<linearGradient id="paint41_linear_4563_108361" x1="308" y1="47.1178" x2="423.233" y2="32.8484" gradientUnits="userSpaceOnUse">
<stop offset="0.197917" stop-color="#F2FDFF"/>
<stop offset="1" stop-color="#FFBFF1"/>
</linearGradient>
<linearGradient id="paint42_linear_4563_108361" x1="335.411" y1="26.7264" x2="371.849" y2="91.2435" gradientUnits="userSpaceOnUse">
<stop stop-color="#FEAFE7" stop-opacity="0.76"/>
<stop offset="0.0833333" stop-color="white" stop-opacity="0.916667"/>
<stop offset="1" stop-color="#E2F7FB" stop-opacity="0"/>
</linearGradient>
<linearGradient id="paint43_linear_4563_108361" x1="401.6" y1="26.3921" x2="338.42" y2="138.378" gradientUnits="userSpaceOnUse">
<stop stop-color="#BB66E1"/>
<stop offset="0.09375" stop-color="white" stop-opacity="0"/>
<stop offset="0.96875" stop-color="#F8DBEC"/>
</linearGradient>
<linearGradient id="paint44_linear_4563_108361" x1="366.5" y1="13.355" x2="366.5" y2="80.8807" gradientUnits="userSpaceOnUse">
<stop stop-color="#8791AB"/>
<stop offset="1" stop-color="#6DD1F0"/>
</linearGradient>
<linearGradient id="paint45_linear_4563_108361" x1="190" y1="-42.145" x2="421.5" y2="354.855" gradientUnits="userSpaceOnUse">
<stop offset="0.45518" stop-color="white" stop-opacity="0"/>
<stop offset="0.45528" stop-color="white" stop-opacity="0.86"/>
<stop offset="0.479741" stop-color="white" stop-opacity="0.1"/>
<stop offset="1" stop-color="white" stop-opacity="0"/>
</linearGradient>
<linearGradient id="paint46_linear_4563_108361" x1="168" y1="36.855" x2="384.5" y2="422.355" gradientUnits="userSpaceOnUse">
<stop offset="0.588442" stop-color="white" stop-opacity="0"/>
<stop offset="0.588542" stop-color="white"/>
<stop offset="0.648666" stop-color="white" stop-opacity="0"/>
</linearGradient>
<linearGradient id="paint47_linear_4563_108361" x1="412" y1="233.833" x2="453.414" y2="250.015" gradientUnits="userSpaceOnUse">
<stop offset="0.0015505" stop-color="#44DCFE"/>
<stop offset="1" stop-color="#3500D5"/>
</linearGradient>
<linearGradient id="paint48_linear_4563_108361" x1="409.846" y1="374.805" x2="391.749" y2="371.501" gradientUnits="userSpaceOnUse">
<stop stop-color="#077393" stop-opacity="0.86"/>
<stop offset="0.22806" stop-color="white" stop-opacity="0.6"/>
<stop offset="1" stop-color="#8CE0F0" stop-opacity="0"/>
</linearGradient>
<linearGradient id="paint49_linear_4563_108361" x1="413.364" y1="234.788" x2="404" y2="234.788" gradientUnits="userSpaceOnUse">
<stop stop-color="#0081A7" stop-opacity="0"/>
<stop offset="0.20902" stop-color="#EAEDFF" stop-opacity="0.38"/>
<stop offset="1" stop-color="#D5DAFF"/>
</linearGradient>
<linearGradient id="paint50_linear_4563_108361" x1="208" y1="27.8545" x2="422.183" y2="113.343" gradientUnits="userSpaceOnUse">
<stop offset="0.197917" stop-color="#F2FDFF"/>
<stop offset="1" stop-color="#FFBFF1"/>
</linearGradient>
<linearGradient id="paint51_linear_4563_108361" x1="201" y1="44.8545" x2="408.279" y2="137.84" gradientUnits="userSpaceOnUse">
<stop stop-color="#FEAFE7" stop-opacity="0.76"/>
<stop offset="0.0833333" stop-color="white" stop-opacity="0.916667"/>
<stop offset="1" stop-color="#E2F7FB" stop-opacity="0"/>
</linearGradient>
<linearGradient id="paint52_linear_4563_108361" x1="409" y1="136.092" x2="400.413" y2="150.732" gradientUnits="userSpaceOnUse">
<stop stop-color="#BB66E1"/>
<stop offset="0.09375" stop-color="white" stop-opacity="0"/>
<stop offset="0.96875" stop-color="#F8DBEC"/>
</linearGradient>
<linearGradient id="paint53_linear_4563_108361" x1="294.998" y1="286.272" x2="314.666" y2="367.006" gradientUnits="userSpaceOnUse">
<stop offset="0.0015505" stop-color="#44DCFE"/>
<stop offset="1" stop-color="#3500D5"/>
</linearGradient>
<linearGradient id="paint54_linear_4563_108361" x1="269.258" y1="370.846" x2="248.198" y2="329.395" gradientUnits="userSpaceOnUse">
<stop stop-color="#077393" stop-opacity="0.86"/>
<stop offset="0.22806" stop-color="white" stop-opacity="0.6"/>
<stop offset="1" stop-color="#8CE0F0" stop-opacity="0"/>
</linearGradient>
<linearGradient id="paint55_linear_4563_108361" x1="305.027" y1="286.941" x2="236.164" y2="286.941" gradientUnits="userSpaceOnUse">
<stop stop-color="#0081A7" stop-opacity="0"/>
<stop offset="0.20902" stop-color="#EAEDFF" stop-opacity="0.38"/>
<stop offset="1" stop-color="#D5DAFF"/>
</linearGradient>
<linearGradient id="paint56_linear_4563_108361" x1="178" y1="289.949" x2="172.694" y2="383.717" gradientUnits="userSpaceOnUse">
<stop offset="0.0015505" stop-color="white"/>
<stop offset="1" stop-color="#5DE5FE"/>
</linearGradient>
<linearGradient id="paint57_linear_4563_108361" x1="213.1" y1="371.849" x2="239.174" y2="326.721" gradientUnits="userSpaceOnUse">
<stop stop-color="#57CEE4"/>
<stop offset="0.109375" stop-color="white" stop-opacity="0.51886"/>
<stop offset="1" stop-color="#DEF7FF"/>
</linearGradient>
<linearGradient id="paint58_linear_4563_108361" x1="175.326" y1="336.749" x2="238.506" y2="336.749" gradientUnits="userSpaceOnUse">
<stop stop-color="#7BD4E6"/>
<stop offset="0.0880419" stop-color="white" stop-opacity="0.51"/>
<stop offset="1" stop-color="#32C8FC" stop-opacity="0.13"/>
</linearGradient>
<linearGradient id="paint59_linear_4563_108361" x1="203.907" y1="290.283" x2="203.907" y2="348.449" gradientUnits="userSpaceOnUse">
<stop offset="0.0495103" stop-color="#F0DFF8" stop-opacity="0"/>
<stop offset="1" stop-color="#C2E0FC"/>
</linearGradient>
<linearGradient id="paint60_linear_4563_108361" x1="178" y1="286.118" x2="293.233" y2="271.848" gradientUnits="userSpaceOnUse">
<stop offset="0.197917" stop-color="#F2FDFF"/>
<stop offset="1" stop-color="#FFBFF1"/>
</linearGradient>
<linearGradient id="paint61_linear_4563_108361" x1="205.411" y1="265.726" x2="241.849" y2="330.244" gradientUnits="userSpaceOnUse">
<stop stop-color="#FEAFE7" stop-opacity="0.76"/>
<stop offset="0.0833333" stop-color="white" stop-opacity="0.916667"/>
<stop offset="1" stop-color="#E2F7FB" stop-opacity="0"/>
</linearGradient>
<linearGradient id="paint62_linear_4563_108361" x1="271.6" y1="265.392" x2="208.42" y2="377.378" gradientUnits="userSpaceOnUse">
<stop stop-color="#BB66E1"/>
<stop offset="0.09375" stop-color="white" stop-opacity="0"/>
<stop offset="0.96875" stop-color="#F8DBEC"/>
</linearGradient>
<linearGradient id="paint63_linear_4563_108361" x1="294.998" y1="219.272" x2="314.666" y2="300.006" gradientUnits="userSpaceOnUse">
<stop offset="0.0015505" stop-color="#44DCFE"/>
<stop offset="1" stop-color="#3500D5"/>
</linearGradient>
<linearGradient id="paint64_linear_4563_108361" x1="269.258" y1="303.846" x2="248.198" y2="262.395" gradientUnits="userSpaceOnUse">
<stop stop-color="#077393" stop-opacity="0.86"/>
<stop offset="0.22806" stop-color="white" stop-opacity="0.6"/>
<stop offset="1" stop-color="#8CE0F0" stop-opacity="0"/>
</linearGradient>
<linearGradient id="paint65_linear_4563_108361" x1="305.027" y1="219.941" x2="236.164" y2="219.941" gradientUnits="userSpaceOnUse">
<stop stop-color="#0081A7" stop-opacity="0"/>
<stop offset="0.20902" stop-color="#EAEDFF" stop-opacity="0.38"/>
<stop offset="1" stop-color="#D5DAFF"/>
</linearGradient>
<linearGradient id="paint66_linear_4563_108361" x1="178" y1="222.949" x2="172.694" y2="316.717" gradientUnits="userSpaceOnUse">
<stop offset="0.0015505" stop-color="white"/>
<stop offset="1" stop-color="#5DE5FE"/>
</linearGradient>
<linearGradient id="paint67_linear_4563_108361" x1="213.1" y1="304.849" x2="239.174" y2="259.721" gradientUnits="userSpaceOnUse">
<stop stop-color="#57CEE4"/>
<stop offset="0.109375" stop-color="white" stop-opacity="0.51886"/>
<stop offset="1" stop-color="#DEF7FF"/>
</linearGradient>
<linearGradient id="paint68_linear_4563_108361" x1="175.326" y1="269.749" x2="238.506" y2="269.749" gradientUnits="userSpaceOnUse">
<stop stop-color="#7BD4E6"/>
<stop offset="0.0880419" stop-color="white" stop-opacity="0.51"/>
<stop offset="1" stop-color="#32C8FC" stop-opacity="0.13"/>
</linearGradient>
<linearGradient id="paint69_linear_4563_108361" x1="203.907" y1="223.283" x2="203.907" y2="281.449" gradientUnits="userSpaceOnUse">
<stop offset="0.0495103" stop-color="#F0DFF8" stop-opacity="0"/>
<stop offset="1" stop-color="#C2E0FC"/>
</linearGradient>
<linearGradient id="paint70_linear_4563_108361" x1="178" y1="219.118" x2="293.233" y2="204.848" gradientUnits="userSpaceOnUse">
<stop offset="0.197917" stop-color="#F2FDFF"/>
<stop offset="1" stop-color="#FFBFF1"/>
</linearGradient>
<linearGradient id="paint71_linear_4563_108361" x1="205.411" y1="198.726" x2="241.849" y2="263.244" gradientUnits="userSpaceOnUse">
<stop stop-color="#FEAFE7" stop-opacity="0.76"/>
<stop offset="0.0833333" stop-color="white" stop-opacity="0.916667"/>
<stop offset="1" stop-color="#E2F7FB" stop-opacity="0"/>
</linearGradient>
<linearGradient id="paint72_linear_4563_108361" x1="271.6" y1="198.392" x2="208.42" y2="310.378" gradientUnits="userSpaceOnUse">
<stop stop-color="#BB66E1"/>
<stop offset="0.09375" stop-color="white" stop-opacity="0"/>
<stop offset="0.96875" stop-color="#F8DBEC"/>
</linearGradient>
<linearGradient id="paint73_linear_4563_108361" x1="294.998" y1="121.272" x2="314.666" y2="202.006" gradientUnits="userSpaceOnUse">
<stop offset="0.0015505" stop-color="#44DCFE"/>
<stop offset="1" stop-color="#3500D5"/>
</linearGradient>
<linearGradient id="paint74_linear_4563_108361" x1="269.258" y1="205.846" x2="248.198" y2="164.395" gradientUnits="userSpaceOnUse">
<stop stop-color="#077393" stop-opacity="0.86"/>
<stop offset="0.22806" stop-color="white" stop-opacity="0.6"/>
<stop offset="1" stop-color="#8CE0F0" stop-opacity="0"/>
</linearGradient>
<linearGradient id="paint75_linear_4563_108361" x1="305.027" y1="121.941" x2="236.164" y2="121.941" gradientUnits="userSpaceOnUse">
<stop stop-color="#0081A7" stop-opacity="0"/>
<stop offset="0.20902" stop-color="#EAEDFF" stop-opacity="0.38"/>
<stop offset="1" stop-color="#D5DAFF"/>
</linearGradient>
<linearGradient id="paint76_linear_4563_108361" x1="265.581" y1="120.938" x2="265.581" y2="217.546" gradientUnits="userSpaceOnUse">
<stop stop-color="#8791AB"/>
<stop offset="1" stop-color="#6DD1F0"/>
</linearGradient>
<linearGradient id="paint77_linear_4563_108361" x1="178" y1="124.949" x2="172.694" y2="218.717" gradientUnits="userSpaceOnUse">
<stop offset="0.0015505" stop-color="white"/>
<stop offset="1" stop-color="#5DE5FE"/>
</linearGradient>
<linearGradient id="paint78_linear_4563_108361" x1="213.1" y1="206.849" x2="239.174" y2="161.721" gradientUnits="userSpaceOnUse">
<stop stop-color="#57CEE4"/>
<stop offset="0.109375" stop-color="white" stop-opacity="0.51886"/>
<stop offset="1" stop-color="#DEF7FF"/>
</linearGradient>
<linearGradient id="paint79_linear_4563_108361" x1="175.326" y1="171.749" x2="238.506" y2="171.749" gradientUnits="userSpaceOnUse">
<stop stop-color="#7BD4E6"/>
<stop offset="0.0880419" stop-color="white" stop-opacity="0.51"/>
<stop offset="1" stop-color="#32C8FC" stop-opacity="0.13"/>
</linearGradient>
<linearGradient id="paint80_linear_4563_108361" x1="207.083" y1="217.546" x2="207.083" y2="121.272" gradientUnits="userSpaceOnUse">
<stop stop-color="#8791AB"/>
<stop offset="1" stop-color="#6DD1F0"/>
</linearGradient>
<linearGradient id="paint81_linear_4563_108361" x1="203.907" y1="125.283" x2="203.907" y2="183.449" gradientUnits="userSpaceOnUse">
<stop offset="0.0495103" stop-color="#F0DFF8" stop-opacity="0"/>
<stop offset="1" stop-color="#C2E0FC"/>
</linearGradient>
<linearGradient id="paint82_linear_4563_108361" x1="178" y1="121.118" x2="293.233" y2="106.848" gradientUnits="userSpaceOnUse">
<stop offset="0.197917" stop-color="#F2FDFF"/>
<stop offset="1" stop-color="#FFBFF1"/>
</linearGradient>
<linearGradient id="paint83_linear_4563_108361" x1="205.411" y1="100.726" x2="241.849" y2="165.244" gradientUnits="userSpaceOnUse">
<stop stop-color="#FEAFE7" stop-opacity="0.76"/>
<stop offset="0.0833333" stop-color="white" stop-opacity="0.916667"/>
<stop offset="1" stop-color="#E2F7FB" stop-opacity="0"/>
</linearGradient>
<linearGradient id="paint84_linear_4563_108361" x1="271.6" y1="100.392" x2="208.42" y2="212.378" gradientUnits="userSpaceOnUse">
<stop stop-color="#BB66E1"/>
<stop offset="0.09375" stop-color="white" stop-opacity="0"/>
<stop offset="0.96875" stop-color="#F8DBEC"/>
</linearGradient>
<linearGradient id="paint85_linear_4563_108361" x1="236.5" y1="87.355" x2="236.5" y2="154.881" gradientUnits="userSpaceOnUse">
<stop stop-color="#8791AB"/>
<stop offset="1" stop-color="#6DD1F0"/>
</linearGradient>
</defs>
</svg>
