<svg xmlns="http://www.w3.org/2000/svg" width="328" height="263" fill="none"><g clip-path="url(#a)"><path d="M0 0h328v263H0z"/><path fill="url(#b)" d="M58.398 200.172C43.504 159.95 157.957 57.752 204.711 40.478c46.754-17.275 103.736 68.817 118.631 109.04 14.894 40.222-16.065 58.623-62.819 75.897-78.817 29.122-187.23 14.98-202.125-25.243Z"/><path fill="url(#c)" d="M148.528 51.867c7.603 18.126-57.385 73.243-83.542 84.191C16.7 160.752 1.822 118.716 1.056 91.58c-.365-12.957 9.829-28.666 35.986-39.613 44.095-18.456 103.883-18.225 111.486-.1Z"/><path fill="url(#d)" d="M162.048 105.429 34.028 179.34l128.02 73.912 128.02-73.912-128.02-73.911Z"/><path fill="#F3F5FA" d="m162.048 96.503-128.02 73.912 128.02 73.912 128.02-73.912-128.02-73.912Z"/><path fill="url(#e)" d="M206.672 212.295 95.387 147.938l20.36-11.98 112.123 64.357-21.198 11.98Z"/><path fill="url(#f)" d="M206.672 208.951 95.387 144.594l20.36-11.98 112.123 64.357-21.198 11.98Z"/><path fill="url(#g)" d="M206.672 208.951 95.387 144.594l20.36-11.98 112.123 64.357-21.198 11.98Z"/><path fill="url(#h)" d="M206.672 208.951 95.387 144.594l20.36-11.98 112.123 64.357-21.198 11.98Z"/><path fill="#DCE3FF" d="m201.098 165.489 7.251 4.458v33.432l-7.251-4.179v-33.711ZM106.543 111.441l7.252 4.457v33.433l-7.252-4.18v-33.71Z"/><path fill="url(#i)" d="m208.348 169.947 7.251-4.458v33.433l-7.251 4.179v-33.154Z"/><path fill="url(#j)" fill-opacity=".53" d="m208.348 169.947 7.251-4.458v33.433l-7.251 4.179v-33.154Z"/><path fill="url(#k)" fill-opacity=".62" d="m208.348 169.947 7.251-4.458v33.433l-7.251 4.179v-33.154Z"/><path fill="url(#l)" d="m113.797 115.898 7.252-4.457v33.432l-7.252 4.179v-33.154Z"/><path fill="url(#m)" fill-opacity=".53" d="m113.797 115.898 7.252-4.457v33.432l-7.252 4.179v-33.154Z"/><path fill="url(#n)" fill-opacity=".62" d="m113.797 115.898 7.252-4.457v33.432l-7.252 4.179v-33.154Z"/><path fill="#8791AB" d="M241.534 106.983 76.977 12.258l3.346-1.671 164.558 94.446-3.347 1.95Z"/><path fill="url(#o)" d="M244.885 105.033v103.083l-3.347 1.671-7.809-22.326L80.327 98.833l-.558-88.246 165.116 94.446Z"/><path fill="url(#p)" d="M241.534 209.787 76.977 114.713V12.259l164.557 94.548v102.98Z"/><path fill="url(#q)" d="M241.534 209.787 76.977 114.713V12.259l164.557 94.548v102.98Z"/><path fill="url(#r)" d="M241.534 209.787 76.977 114.713V12.259l164.557 94.548v102.98Z"/><path fill="url(#s)" d="M241.534 209.787 76.977 114.713V12.259l164.557 94.548v102.98Z"/><path fill="#fff" d="M159.222 67.38a3.347 3.347 0 0 1 1.669 2.897v81.222c0 2.579-2.793 4.189-5.024 2.896L83.67 112.573a3.347 3.347 0 0 1-1.67-2.896V28.454c0-2.579 2.793-4.189 5.025-2.896l72.197 41.823Z" opacity=".7"/><path fill="#B1B9D4" fill-rule="evenodd" d="m90.719 35.676 20.307 11.47a2.675 2.675 0 0 1 1.36 2.33c0 2.049-2.208 3.338-3.992 2.33L88.087 40.337a2.676 2.676 0 0 1-1.36-2.33c0-2.05 2.208-3.338 3.992-2.33Zm25.014 56.586v23.283c0 2.562-2.762 4.174-4.993 2.914l-18.966-10.712a3.346 3.346 0 0 1-1.7-2.914V81.55c0-2.562 2.761-4.174 4.992-2.914l18.966 10.712a3.347 3.347 0 0 1 1.701 2.914Zm30.68 39.459v-23.282c0-1.207-.65-2.321-1.701-2.915l-18.966-10.711c-2.231-1.26-4.993.352-4.993 2.914v23.283c0 1.207.65 2.321 1.701 2.914l18.966 10.712c2.231 1.26 4.993-.352 4.993-2.915ZM89.042 46.997l64.39 36.244a1.553 1.553 0 0 1-1.524 2.707l-64.39-36.244a1.553 1.553 0 0 1 1.524-2.707Zm64.39 42.38-64.39-36.244a1.553 1.553 0 0 0-1.524 2.707l64.39 36.244a1.553 1.553 0 0 0 1.524-2.707Zm-64.39-30.108 64.39 36.244a1.553 1.553 0 0 1-1.524 2.707l-64.39-36.244a1.553 1.553 0 1 1 1.524-2.707Zm64.39 42.38-64.39-36.244a1.553 1.553 0 0 0-1.524 2.707l64.39 36.244a1.553 1.553 0 1 0 1.524-2.707Z" clip-rule="evenodd"/><g filter="url(#t)"><path fill="#fff" d="M227.679 85.65v55.809c0 2.578-2.793 4.188-5.024 2.896l-31.329-18.149a3.345 3.345 0 0 1-1.67-2.896V67.502c0-2.579 2.794-4.189 5.025-2.896l31.329 18.148a3.347 3.347 0 0 1 1.669 2.896Z"/></g><path fill="#DADEE8" d="m197.397 72.951 13.658 7.79c.567.324.917.927.917 1.58 0 1.394-1.506 2.269-2.717 1.578l-13.658-7.79a1.817 1.817 0 0 1-.917-1.58c0-1.394 1.506-2.269 2.717-1.578Z"/><g filter="url(#u)"><path fill="#fff" d="M92.672 86.11v43.562c0 2.579-2.793 4.189-5.024 2.896l-40.791-23.629a3.347 3.347 0 0 1-1.67-2.896V62.481c0-2.578 2.794-4.188 5.025-2.896l40.791 23.63a3.347 3.347 0 0 1 1.67 2.896Z"/></g><path fill="#DADEE8" d="m73.007 79.645 13.658 7.79c.567.324.917.927.917 1.58 0 1.394-1.506 2.269-2.718 1.578l-13.658-7.79a1.817 1.817 0 0 1-.917-1.58c0-1.394 1.506-2.269 2.718-1.578Z"/><g filter="url(#v)"><path stroke="#5CEAB7" stroke-linecap="round" stroke-linejoin="round" stroke-width="4.463" d="M52.992 74.748v27.892m6.415-21.756v25.939m6.694-16.177v19.524m6.136-5.299v8.367m6.136-17.292V117.7m6.694-1.953v6.694"/></g><g filter="url(#w)"><path stroke="#32C8FC" stroke-linecap="round" stroke-linejoin="round" stroke-width="4.463" d="m197.191 121.884.507-3.675a8.29 8.29 0 0 1 4.625-6.341v0a8.285 8.285 0 0 0 4.142-4.477l2.576-6.643a5.257 5.257 0 0 1 5.738-3.288v0a5.256 5.256 0 0 0 5.836-3.568l1.957-6.035"/></g><path fill="#B1B9D4" d="M182.411 135.029v8.757l-6.699-3.855a2.231 2.231 0 0 1-1.118-1.934v-3.608c0-1.716 1.856-2.79 3.344-1.934l4.473 2.574Z"/><path fill="#B1B9D4" d="M188.868 140.058v3.608c0 1.717-1.857 2.79-3.344 1.934l-4.473-2.574v-8.757l6.699 3.855a2.232 2.232 0 0 1 1.118 1.934ZM182.411 144.886v8.757l-6.699-3.855a2.232 2.232 0 0 1-1.118-1.934v-3.608c0-1.717 1.856-2.79 3.344-1.934l4.473 2.574Z"/><path fill="#B1B9D4" d="M188.868 149.915v3.608c0 1.716-1.857 2.79-3.344 1.934l-4.473-2.574v-8.757l6.699 3.855a2.231 2.231 0 0 1 1.118 1.934ZM182.411 154.742v8.757l-6.699-3.855a2.231 2.231 0 0 1-1.118-1.934v-3.608c0-1.716 1.856-2.79 3.344-1.934l4.473 2.574Z"/><path fill="#B1B9D4" d="M188.868 159.771v3.608c0 1.717-1.857 2.79-3.344 1.934l-4.473-2.574v-8.757l6.699 3.855a2.232 2.232 0 0 1 1.118 1.934ZM182.411 164.599v8.757l-6.699-3.855a2.232 2.232 0 0 1-1.118-1.934v-3.608c0-1.717 1.856-2.79 3.344-1.934l4.473 2.574Z"/><path fill="#B1B9D4" d="M188.868 169.628v3.608c0 1.716-1.857 2.79-3.344 1.934l-4.473-2.574v-8.757l6.699 3.855a2.231 2.231 0 0 1 1.118 1.934ZM197.708 143.866v8.757l-6.699-3.855a2.231 2.231 0 0 1-1.118-1.934v-3.608c0-1.716 1.856-2.79 3.344-1.934l4.473 2.574Z"/><path fill="#B1B9D4" d="M204.165 148.895v3.608c0 1.717-1.857 2.79-3.344 1.934l-4.473-2.574v-8.757l6.699 3.855a2.234 2.234 0 0 1 1.118 1.934ZM197.708 153.723v8.757l-6.699-3.855a2.232 2.232 0 0 1-1.118-1.934v-3.608c0-1.717 1.856-2.79 3.344-1.934l4.473 2.574Z"/><path fill="#B1B9D4" d="M204.165 158.752v3.608c0 1.716-1.857 2.79-3.344 1.934l-4.473-2.574v-8.757l6.699 3.855a2.233 2.233 0 0 1 1.118 1.934ZM197.708 163.579v8.757l-6.699-3.855a2.23 2.23 0 0 1-1.118-1.934v-3.608c0-1.716 1.856-2.79 3.344-1.934l4.473 2.574Z"/><path fill="#B1B9D4" d="M204.165 168.608v3.608c0 1.717-1.857 2.79-3.344 1.934l-4.473-2.574v-8.757l6.699 3.855a2.234 2.234 0 0 1 1.118 1.934ZM197.708 173.436v8.757l-6.699-3.855a2.232 2.232 0 0 1-1.118-1.934v-3.608c0-1.717 1.856-2.79 3.344-1.934l4.473 2.574Z"/><path fill="#B1B9D4" d="M204.165 178.465v3.608c0 1.716-1.857 2.79-3.344 1.934l-4.473-2.574v-8.757l6.699 3.855a2.233 2.233 0 0 1 1.118 1.934ZM213.005 152.703v8.757l-6.699-3.855a2.231 2.231 0 0 1-1.118-1.934v-3.608c0-1.716 1.856-2.79 3.344-1.934l4.473 2.574Z"/><path fill="#B1B9D4" d="M219.462 157.732v3.608c0 1.717-1.857 2.79-3.344 1.934l-4.473-2.574v-8.757l6.698 3.855a2.233 2.233 0 0 1 1.119 1.934ZM213.005 162.56v8.757l-6.699-3.855a2.232 2.232 0 0 1-1.118-1.934v-3.608c0-1.717 1.856-2.79 3.344-1.934l4.473 2.574Z"/><path fill="#B1B9D4" d="M219.462 167.589v3.608c0 1.716-1.857 2.79-3.344 1.934l-4.473-2.574V161.8l6.698 3.855a2.232 2.232 0 0 1 1.119 1.934ZM213.005 172.416v8.757l-6.699-3.855a2.231 2.231 0 0 1-1.118-1.934v-3.608c0-1.716 1.856-2.79 3.344-1.934l4.473 2.574Z"/><path fill="#B1B9D4" d="M219.462 177.445v3.608c0 1.717-1.857 2.79-3.344 1.934l-4.473-2.574v-8.757l6.698 3.855a2.233 2.233 0 0 1 1.119 1.934ZM213.005 182.273v8.757l-6.699-3.855a2.232 2.232 0 0 1-1.118-1.934v-3.608c0-1.717 1.856-2.79 3.344-1.934l4.473 2.574Z"/><path fill="#B1B9D4" d="M219.462 187.302v3.608c0 1.716-1.857 2.79-3.344 1.934l-4.473-2.574v-8.757l6.698 3.855a2.232 2.232 0 0 1 1.119 1.934ZM228.298 161.54v8.757l-6.699-3.855a2.231 2.231 0 0 1-1.118-1.934l-.001-3.608c0-1.716 1.857-2.79 3.345-1.934l4.473 2.574Z"/><path fill="#B1B9D4" d="M234.755 166.569v3.608c0 1.717-1.857 2.79-3.344 1.934l-4.473-2.574v-8.757l6.698 3.855a2.233 2.233 0 0 1 1.119 1.934ZM228.298 171.397v8.757l-6.699-3.855a2.232 2.232 0 0 1-1.118-1.934l-.001-3.608c0-1.717 1.857-2.79 3.345-1.934l4.473 2.574Z"/><path fill="#B1B9D4" d="M234.755 176.426v3.608c0 1.716-1.857 2.79-3.344 1.934l-4.473-2.574v-8.757l6.698 3.855a2.232 2.232 0 0 1 1.119 1.934ZM228.298 181.253v8.757l-6.699-3.855a2.231 2.231 0 0 1-1.118-1.934l-.001-3.608c0-1.716 1.857-2.79 3.345-1.934l4.473 2.574Z"/><path fill="#B1B9D4" d="M234.755 186.282v3.608c0 1.717-1.857 2.79-3.344 1.934l-4.473-2.574v-8.757l6.698 3.855a2.233 2.233 0 0 1 1.119 1.934ZM228.298 191.11v8.757l-6.699-3.855a2.232 2.232 0 0 1-1.118-1.934l-.001-3.608c0-1.717 1.857-2.79 3.345-1.934l4.473 2.574Z"/><path fill="#B1B9D4" d="M234.755 196.139v3.608c0 1.716-1.857 2.79-3.344 1.934l-4.473-2.574v-8.757l6.698 3.855a2.232 2.232 0 0 1 1.119 1.934Z"/><path fill="#fff" d="M176.833 137.818v8.757l-6.699-3.855a2.23 2.23 0 0 1-1.118-1.934v-3.608c0-1.716 1.856-2.79 3.344-1.934l4.473 2.574Z"/><path fill="#fff" d="M183.29 142.847v3.608c0 1.717-1.857 2.79-3.344 1.934l-4.473-2.574v-8.757l6.699 3.855a2.234 2.234 0 0 1 1.118 1.934ZM176.833 147.675v8.757l-6.699-3.855a2.231 2.231 0 0 1-1.118-1.934v-3.608c0-1.717 1.856-2.79 3.344-1.934l4.473 2.574Z"/><path fill="#fff" d="M183.29 152.704v3.608c0 1.716-1.857 2.79-3.344 1.934l-4.473-2.574v-8.757l6.699 3.855a2.233 2.233 0 0 1 1.118 1.934ZM176.833 157.531v8.757l-6.699-3.855a2.23 2.23 0 0 1-1.118-1.934v-3.608c0-1.716 1.856-2.79 3.344-1.934l4.473 2.574Z"/><path fill="#fff" d="M183.29 162.56v3.608c0 1.717-1.857 2.79-3.344 1.934l-4.473-2.574v-8.757l6.699 3.856a2.231 2.231 0 0 1 1.118 1.933ZM176.833 167.388v8.757l-6.699-3.855a2.231 2.231 0 0 1-1.118-1.934v-3.608c0-1.716 1.856-2.79 3.344-1.934l4.473 2.574Z"/><path fill="#fff" d="M183.29 172.417v3.608c0 1.716-1.857 2.79-3.344 1.934l-4.473-2.574v-8.757l6.699 3.855a2.233 2.233 0 0 1 1.118 1.934ZM192.13 146.655v8.757l-6.699-3.855a2.23 2.23 0 0 1-1.118-1.934v-3.608c0-1.716 1.856-2.79 3.344-1.934l4.473 2.574Z"/><path fill="#fff" d="M198.587 151.684v3.608c0 1.717-1.857 2.79-3.344 1.934l-4.473-2.574v-8.756l6.698 3.855a2.23 2.23 0 0 1 1.119 1.933ZM192.13 156.512v8.757l-6.699-3.855a2.232 2.232 0 0 1-1.118-1.934v-3.608c0-1.717 1.856-2.79 3.344-1.934l4.473 2.574Z"/><path fill="#fff" d="M198.587 161.541v3.608c0 1.716-1.857 2.79-3.344 1.934l-4.473-2.574v-8.757l6.698 3.855a2.232 2.232 0 0 1 1.119 1.934Z"/><path fill="#FFD8F0" d="M192.13 166.368v8.757l-6.699-3.855a2.23 2.23 0 0 1-1.118-1.934v-3.608c0-1.716 1.856-2.79 3.344-1.934l4.473 2.574Z"/><path fill="#FFD8F0" d="M198.587 171.397v3.608c0 1.717-1.857 2.79-3.344 1.934l-4.473-2.574v-8.756l6.698 3.855a2.23 2.23 0 0 1 1.119 1.933Z"/><path fill="#fff" d="M192.13 176.225v8.757l-6.699-3.855a2.231 2.231 0 0 1-1.118-1.934v-3.608c0-1.716 1.856-2.79 3.344-1.934l4.473 2.574Z"/><path fill="#fff" d="M198.587 181.254v3.608c0 1.716-1.857 2.79-3.344 1.934l-4.473-2.574v-8.757l6.698 3.855a2.232 2.232 0 0 1 1.119 1.934Z"/><path fill="#5CEAB7" d="M207.427 155.492v8.757l-6.699-3.855a2.23 2.23 0 0 1-1.119-1.934v-3.608c0-1.716 1.857-2.79 3.345-1.934l4.473 2.574Z"/><path fill="#5CEAB7" d="M213.884 160.521v3.608c0 1.717-1.857 2.79-3.345 1.934l-4.473-2.574v-8.757l6.699 3.856a2.23 2.23 0 0 1 1.119 1.933Z"/><path fill="#fff" d="M207.427 165.349v8.757l-6.699-3.855a2.232 2.232 0 0 1-1.119-1.934v-3.608c0-1.717 1.857-2.79 3.345-1.934l4.473 2.574Z"/><path fill="#fff" d="M213.884 170.378v3.608c0 1.716-1.857 2.79-3.345 1.934l-4.473-2.574v-8.757l6.699 3.855a2.232 2.232 0 0 1 1.119 1.934ZM207.427 175.205v8.757l-6.699-3.855a2.23 2.23 0 0 1-1.119-1.934v-3.608c0-1.716 1.857-2.79 3.345-1.934l4.473 2.574Z"/><path fill="#fff" d="M213.884 180.234v3.609c0 1.716-1.857 2.79-3.345 1.933l-4.473-2.574v-8.756l6.699 3.855a2.23 2.23 0 0 1 1.119 1.933ZM207.427 185.062v8.757l-6.699-3.855a2.232 2.232 0 0 1-1.119-1.934v-3.608c0-1.716 1.857-2.79 3.345-1.934l4.473 2.574Z"/><path fill="#fff" d="M213.884 190.091v3.608c0 1.716-1.857 2.79-3.345 1.934l-4.473-2.574v-8.757l6.699 3.855a2.232 2.232 0 0 1 1.119 1.934ZM222.72 164.329v8.757l-6.699-3.855a2.23 2.23 0 0 1-1.119-1.934v-3.608c0-1.716 1.857-2.79 3.345-1.934l4.473 2.574Z"/><path fill="#fff" d="M229.177 169.358v3.608c0 1.717-1.857 2.79-3.345 1.934l-4.473-2.574v-8.757l6.699 3.855a2.233 2.233 0 0 1 1.119 1.934Z"/><path fill="#FFF3C9" d="M222.72 174.186v8.757l-6.699-3.855a2.233 2.233 0 0 1-1.119-1.934v-3.608c0-1.717 1.857-2.79 3.345-1.934l4.473 2.574Z"/><path fill="#FFF3C9" d="M229.177 179.215v3.608c0 1.716-1.857 2.79-3.345 1.934l-4.473-2.574v-8.757l6.699 3.855a2.232 2.232 0 0 1 1.119 1.934Z"/><path fill="#fff" d="M222.72 184.042v8.757l-6.699-3.855a2.23 2.23 0 0 1-1.119-1.934v-3.608c0-1.716 1.857-2.79 3.345-1.934l4.473 2.574Z"/><path fill="#fff" d="M229.177 189.071v3.608c0 1.717-1.857 2.79-3.345 1.934l-4.473-2.574v-8.757l6.699 3.855a2.233 2.233 0 0 1 1.119 1.934ZM222.72 193.899v8.757l-6.699-3.855a2.232 2.232 0 0 1-1.119-1.934v-3.608c0-1.717 1.857-2.79 3.345-1.934l4.473 2.574Z"/><path fill="#fff" d="M229.177 198.928v3.608c0 1.716-1.857 2.79-3.345 1.934l-4.473-2.574v-8.757l6.699 3.855a2.232 2.232 0 0 1 1.119 1.934Z"/></g><defs><linearGradient id="b" x1="215.726" x2="166.985" y1="241.967" y2="29.692" gradientUnits="userSpaceOnUse"><stop offset=".026" stop-color="#CFECFD" stop-opacity=".99"/><stop offset=".226" stop-color="#D9D3ED" stop-opacity=".788"/><stop offset="1" stop-color="#FD71AF" stop-opacity=".01"/></linearGradient><linearGradient id="c" x1="59.543" x2="88.862" y1="42.549" y2="138.61" gradientUnits="userSpaceOnUse"><stop stop-color="#CEEFFF"/><stop offset=".026" stop-color="#CFECFD" stop-opacity=".83"/><stop offset="1" stop-color="#FD71AF" stop-opacity=".01"/></linearGradient><linearGradient id="d" x1="88.635" x2="192.757" y1="-35.701" y2="261.269" gradientUnits="userSpaceOnUse"><stop stop-color="#00B4D5"/><stop offset="1" stop-color="#DCE3FF"/></linearGradient><linearGradient id="e" x1="169.552" x2="180.837" y1="179.403" y2="207.25" gradientUnits="userSpaceOnUse"><stop stop-color="#8791AB"/><stop offset=".844" stop-color="#BEC6E1" stop-opacity=".75"/></linearGradient><linearGradient id="f" x1="95.387" x2="225.862" y1="170.783" y2="154.6" gradientUnits="userSpaceOnUse"><stop offset=".198" stop-color="#F2FDFF"/><stop offset="1" stop-color="#FFBFF1"/></linearGradient><linearGradient id="g" x1="126.904" x2="167.577" y1="141.251" y2="220.721" gradientUnits="userSpaceOnUse"><stop stop-color="#FEAFE7" stop-opacity=".76"/><stop offset=".362" stop-color="#fff" stop-opacity=".917"/><stop offset="1" stop-color="#E2F7FB" stop-opacity="0"/></linearGradient><linearGradient id="h" x1="201.373" x2="130.009" y1="147.353" y2="274.051" gradientUnits="userSpaceOnUse"><stop stop-color="#BB66E1"/><stop offset=".094" stop-color="#fff" stop-opacity="0"/><stop offset=".969" stop-color="#F8DBEC"/></linearGradient><linearGradient id="i" x1="215.599" x2="253.772" y1="69.835" y2="83.787" gradientUnits="userSpaceOnUse"><stop offset=".002" stop-color="#44DCFE"/><stop offset="1" stop-color="#3500D5"/></linearGradient><linearGradient id="j" x1="213.647" x2="197.176" y1="206.444" y2="203.631" gradientUnits="userSpaceOnUse"><stop stop-color="#077393" stop-opacity=".86"/><stop offset=".228" stop-color="#fff" stop-opacity=".6"/><stop offset="1" stop-color="#8CE0F0" stop-opacity="0"/></linearGradient><linearGradient id="k" x1="216.835" x2="208.348" y1="70.76" y2="70.76" gradientUnits="userSpaceOnUse"><stop stop-color="#0081A7" stop-opacity="0"/><stop offset=".209" stop-color="#EAEDFF" stop-opacity=".38"/><stop offset="1" stop-color="#D5DAFF"/></linearGradient><linearGradient id="l" x1="121.049" x2="159.221" y1="15.786" y2="29.739" gradientUnits="userSpaceOnUse"><stop offset=".002" stop-color="#44DCFE"/><stop offset="1" stop-color="#3500D5"/></linearGradient><linearGradient id="m" x1="119.096" x2="102.626" y1="152.395" y2="149.583" gradientUnits="userSpaceOnUse"><stop stop-color="#077393" stop-opacity=".86"/><stop offset=".228" stop-color="#fff" stop-opacity=".6"/><stop offset="1" stop-color="#8CE0F0" stop-opacity="0"/></linearGradient><linearGradient id="n" x1="122.285" x2="113.797" y1="16.711" y2="16.711" gradientUnits="userSpaceOnUse"><stop stop-color="#0081A7" stop-opacity="0"/><stop offset=".209" stop-color="#EAEDFF" stop-opacity=".38"/><stop offset="1" stop-color="#D5DAFF"/></linearGradient><linearGradient id="o" x1="241.817" x2="132.919" y1="182.206" y2="128.481" gradientUnits="userSpaceOnUse"><stop stop-color="#8791AB"/><stop offset=".844" stop-color="#BEC6E1" stop-opacity=".75"/></linearGradient><linearGradient id="p" x1="241.534" x2="267.643" y1="12.893" y2="170.866" gradientUnits="userSpaceOnUse"><stop offset=".002" stop-color="#F8FEFF"/><stop offset="1" stop-color="#D6C8FF"/></linearGradient><linearGradient id="q" x1="241.534" x2="267.643" y1="12.893" y2="170.866" gradientUnits="userSpaceOnUse"><stop offset=".002" stop-color="#F8FEFF"/><stop offset="1" stop-color="#D6C8FF"/></linearGradient><linearGradient id="r" x1="208.065" x2="162.415" y1="241.269" y2="80.058" gradientUnits="userSpaceOnUse"><stop stop-color="#077393" stop-opacity=".86"/><stop offset=".228" stop-color="#fff" stop-opacity=".6"/><stop offset="1" stop-color="#8CE0F0" stop-opacity="0"/></linearGradient><linearGradient id="s" x1="269.584" x2="76.977" y1="14.162" y2="14.162" gradientUnits="userSpaceOnUse"><stop stop-color="#0081A7" stop-opacity="0"/><stop offset=".209" stop-color="#EAEDFF" stop-opacity=".38"/><stop offset="1" stop-color="#D5DAFF"/></linearGradient><filter id="t" width="75.955" height="118.593" x="178.5" y="51.32" color-interpolation-filters="sRGB" filterUnits="userSpaceOnUse"><feFlood flood-opacity="0" result="BackgroundImageFix"/><feColorMatrix in="SourceAlpha" result="hardAlpha" values="0 0 0 0 0 0 0 0 0 0 0 0 0 0 0 0 0 0 127 0"/><feOffset dx="7.81" dy="6.136"/><feGaussianBlur stdDeviation="9.483"/><feComposite in2="hardAlpha" operator="out"/><feColorMatrix values="0 0 0 0 0.968627 0 0 0 0 0.870588 0 0 0 0 0.933333 0 0 0 1 0"/><feBlend in2="BackgroundImageFix" result="effect1_dropShadow_5409_114431"/><feColorMatrix in="SourceAlpha" result="hardAlpha" values="0 0 0 0 0 0 0 0 0 0 0 0 0 0 0 0 0 0 127 0"/><feOffset dx="2.231" dy="-.558"/><feComposite in2="hardAlpha" operator="out"/><feColorMatrix values="0 0 0 0 0.533333 0 0 0 0 0.572549 0 0 0 0 0.67451 0 0 0 1 0"/><feBlend in2="effect1_dropShadow_5409_114431" result="effect2_dropShadow_5409_114431"/><feBlend in="SourceGraphic" in2="effect2_dropShadow_5409_114431" result="shape"/></filter><filter id="u" width="85.416" height="111.827" x="34.031" y="46.299" color-interpolation-filters="sRGB" filterUnits="userSpaceOnUse"><feFlood flood-opacity="0" result="BackgroundImageFix"/><feColorMatrix in="SourceAlpha" result="hardAlpha" values="0 0 0 0 0 0 0 0 0 0 0 0 0 0 0 0 0 0 127 0"/><feOffset dx="7.81" dy="6.136"/><feGaussianBlur stdDeviation="9.483"/><feComposite in2="hardAlpha" operator="out"/><feColorMatrix values="0 0 0 0 0.513726 0 0 0 0 0.815686 0 0 0 0 0.933333 0 0 0 1 0"/><feBlend in2="BackgroundImageFix" result="effect1_dropShadow_5409_114431"/><feColorMatrix in="SourceAlpha" result="hardAlpha" values="0 0 0 0 0 0 0 0 0 0 0 0 0 0 0 0 0 0 127 0"/><feOffset dx="2.231" dy="-.558"/><feComposite in2="hardAlpha" operator="out"/><feColorMatrix values="0 0 0 0 0.533333 0 0 0 0 0.572549 0 0 0 0 0.67451 0 0 0 1 0"/><feBlend in2="effect1_dropShadow_5409_114431" result="effect2_dropShadow_5409_114431"/><feBlend in="SourceGraphic" in2="effect2_dropShadow_5409_114431" result="shape"/></filter><filter id="v" width="37.651" height="53.83" x="49.646" y="70.844" color-interpolation-filters="sRGB" filterUnits="userSpaceOnUse"><feFlood flood-opacity="0" result="BackgroundImageFix"/><feBlend in="SourceGraphic" in2="BackgroundImageFix" result="shape"/><feColorMatrix in="SourceAlpha" result="hardAlpha" values="0 0 0 0 0 0 0 0 0 0 0 0 0 0 0 0 0 0 127 0"/><feOffset dx="-.558" dy=".558"/><feComposite in2="hardAlpha" k2="-1" k3="1" operator="arithmetic"/><feColorMatrix values="0 0 0 0 1 0 0 0 0 1 0 0 0 0 1 0 0 0 1 0"/><feBlend in2="shape" result="effect1_innerShadow_5409_114431"/><feColorMatrix in="SourceAlpha" result="hardAlpha" values="0 0 0 0 0 0 0 0 0 0 0 0 0 0 0 0 0 0 127 0"/><feOffset dx="-1.116" dy="-1.673"/><feGaussianBlur stdDeviation=".837"/><feComposite in2="hardAlpha" k2="-1" k3="1" operator="arithmetic"/><feColorMatrix values="0 0 0 0 0.02 0 0 0 0 0 0 0 0 0 1 0 0 0 0.25 0"/><feBlend in2="effect1_innerShadow_5409_114431" result="effect2_innerShadow_5409_114431"/></filter><filter id="w" width="30.959" height="40.164" x="193.845" y="83.952" color-interpolation-filters="sRGB" filterUnits="userSpaceOnUse"><feFlood flood-opacity="0" result="BackgroundImageFix"/><feBlend in="SourceGraphic" in2="BackgroundImageFix" result="shape"/><feColorMatrix in="SourceAlpha" result="hardAlpha" values="0 0 0 0 0 0 0 0 0 0 0 0 0 0 0 0 0 0 127 0"/><feOffset dx="-.558" dy=".558"/><feComposite in2="hardAlpha" k2="-1" k3="1" operator="arithmetic"/><feColorMatrix values="0 0 0 0 1 0 0 0 0 1 0 0 0 0 1 0 0 0 1 0"/><feBlend in2="shape" result="effect1_innerShadow_5409_114431"/><feColorMatrix in="SourceAlpha" result="hardAlpha" values="0 0 0 0 0 0 0 0 0 0 0 0 0 0 0 0 0 0 127 0"/><feOffset dx="-1.116" dy="-1.673"/><feGaussianBlur stdDeviation=".837"/><feComposite in2="hardAlpha" k2="-1" k3="1" operator="arithmetic"/><feColorMatrix values="0 0 0 0 0.02 0 0 0 0 0 0 0 0 0 1 0 0 0 0.25 0"/><feBlend in2="effect1_innerShadow_5409_114431" result="effect2_innerShadow_5409_114431"/></filter><clipPath id="a"><path fill="#fff" d="M0 0h328v263H0z"/></clipPath></defs></svg>
