<svg xmlns="http://www.w3.org/2000/svg" width="328" height="263" fill="none"><g clip-path="url(#a)"><path d="M0 0h328v263H0z"/><path fill="url(#b)" d="M91.478 226.592c-20.35 10.003-73.937-31.548-83.334-50.623-22.204-34.273 24.73-55.221 54.198-61.525 14.07-3.009 30.126 2.03 39.523 21.105 15.841 32.156 9.963 81.04-10.387 91.043Z"/><path fill="url(#c)" d="M322.663 108.226c-3.98-79.127-80.682-79.806-130.158-55.324-133.853 66.232 145.44 359.132 130.158 55.324Z"/><path fill="url(#d)" d="M156.838 109.198 28.977 183.017l127.861 73.82 127.861-73.82-127.861-73.819Z"/><path fill="#E1FEFF" d="m156.838 100.283-127.861 73.82 127.861 73.82 127.861-73.82-127.861-73.82Z"/><g opacity=".8"><path fill="url(#e)" d="m221.187 139.283-123.683 71.87 23.678 14.206 121.454-73.541-21.449-12.535Z"/><path fill="url(#f)" d="m221.187 139.283-123.683 71.87 23.678 14.206 121.454-73.541-21.449-12.535Z"/><path fill="url(#g)" d="m221.187 139.283-123.683 71.87 23.678 14.206 121.454-73.541-21.449-12.535Z"/></g><g opacity=".2"><path fill="url(#h)" d="m158.788 103.626-123.683 71.87 23.678 14.207 121.455-73.541-21.45-12.536Z"/><path fill="url(#i)" d="m158.788 103.626-123.683 71.87 23.678 14.207 121.455-73.541-21.45-12.536Z"/><path fill="url(#j)" d="m158.788 103.626-123.683 71.87 23.678 14.207 121.455-73.541-21.45-12.536Z"/></g><g opacity=".2"><path fill="url(#k)" d="m252.378 156.554-123.683 71.87 23.678 14.206 121.455-73.541-21.45-12.535Z"/><path fill="url(#l)" d="m252.378 156.554-123.683 71.87 23.678 14.206 121.455-73.541-21.45-12.535Z"/><path fill="url(#m)" d="m252.378 156.554-123.683 71.87 23.678 14.206 121.455-73.541-21.45-12.535Z"/></g><g opacity=".2"><path fill="url(#n)" d="m189.984 120.897-123.683 71.87 23.678 14.207 121.454-73.541-21.449-12.536Z"/><path fill="url(#o)" d="m189.984 120.897-123.683 71.87 23.678 14.207 121.454-73.541-21.449-12.536Z"/><path fill="url(#p)" d="m189.984 120.897-123.683 71.87 23.678 14.207 121.454-73.541-21.449-12.536Z"/></g><path stroke="#fff" stroke-dasharray="4.46 4.46" stroke-width="1.671" d="m111.43 215.331 119.783-69.363M79.117 198.617 198.9 129.254M50.14 178.56l119.784-69.362M145.41 233.716l119.783-69.362"/><g filter="url(#q)"><path stroke="#fff" stroke-linecap="round" stroke-width="2.229" d="m94.156 202.647.431-26.782 24.362-13.74 24.792 14.076v26.446l-25.008 14.077-24.577-14.077Z" shape-rendering="crispEdges"/></g><path fill="#DCE3FF" d="m222.566 113.948 2.511 1.672v93.609l-2.511-1.393v-93.888Z"/><path fill="url(#r)" d="m225.078 115.62 24.265-14.209V195.3l-24.265 13.93v-93.61Z"/><path fill="url(#s)" fill-opacity=".53" d="m225.078 115.62 24.265-14.209V195.3l-24.265 13.93v-93.61Z"/><path fill="url(#t)" fill-opacity=".62" d="m225.078 115.62 24.265-14.209V195.3l-24.265 13.93v-93.61Z"/><path fill="#DCE3FF" d="m97.063 40.955 2.51 1.671v93.61l-2.51-1.393V40.955Z"/><path fill="url(#u)" d="m99.57 42.626 24.266-14.208v93.888l-24.266 13.93v-93.61Z"/><path fill="url(#v)" fill-opacity=".53" d="m99.57 42.626 24.266-14.208v93.888l-24.266 13.93v-93.61Z"/><path fill="url(#w)" fill-opacity=".62" d="m99.57 42.626 24.266-14.208v93.888l-24.266 13.93v-93.61Z"/><path fill="url(#x)" d="M143.743 131.858v-26.405l-24.934 14.233v26.282l24.934-14.11Z"/><path fill="url(#y)" d="M143.743 131.858v-26.405l-24.934 14.233v26.282l24.934-14.11Z"/><path fill="url(#z)" d="M143.743 131.858v-26.405l-24.934 14.233v26.282l24.934-14.11Z"/><path fill="url(#A)" d="M118.807 119.686v26.282l-24.65-14.093v-26.282l24.65 14.093Z"/><path fill="url(#B)" d="M118.807 119.686v26.282l-24.65-14.093v-26.282l24.65 14.093Z"/><path fill="url(#C)" d="M118.807 119.686v26.282l-24.65-14.093v-26.282l24.65 14.093Z"/><path fill="url(#D)" d="m116.115 119.472-21.959 12.197v-24.394l21.959 12.197Z" opacity=".78"/><path fill="url(#E)" d="m118.949 91.37-24.793 14.223 24.651 14.095 24.934-14.235-24.792-14.084Z"/><path fill="url(#F)" d="m118.949 91.37-24.793 14.223 24.651 14.095 24.934-14.235-24.792-14.084Z"/><path fill="url(#G)" d="m118.949 91.37-24.793 14.223 24.651 14.095 24.934-14.235-24.792-14.084Z"/><g filter="url(#H)"><path fill="#DCE3FF" d="m104.313 44.576 20.082 11.516v7.974c0 2.569-2.778 4.177-5.006 2.9l-11.716-6.719a6.686 6.686 0 0 1-3.36-5.8v-9.871Z"/></g><g filter="url(#I)"><path fill="#FF7272" d="m105.428 46.435 17.478 10.069v7.841a1.67 1.67 0 0 1-2.505 1.449l-12.183-7.018a5.572 5.572 0 0 1-2.79-4.828v-7.513Z"/></g><path fill="#DCE3FF" d="m127.738 58.785 2.51 1.672v93.609l-2.51-1.393V58.785Z"/><path fill="url(#J)" d="m130.25 60.456 24.265-14.208v93.889l-24.265 13.93v-93.61Z"/><path fill="url(#K)" fill-opacity=".53" d="m130.25 60.456 24.265-14.208v93.889l-24.265 13.93v-93.61Z"/><path fill="url(#L)" fill-opacity=".62" d="m130.25 60.456 24.265-14.208v93.889l-24.265 13.93v-93.61Z"/><g filter="url(#M)"><path fill="#DCE3FF" d="m134.996 62.407 20.082 11.516v7.974c0 2.569-2.777 4.177-5.006 2.9l-11.716-6.719a6.686 6.686 0 0 1-3.36-5.8v-9.87Z"/></g><g filter="url(#N)"><path fill="#57F" d="m136.111 64.266 17.479 10.069v7.841a1.672 1.672 0 0 1-2.506 1.449l-12.182-7.018a5.57 5.57 0 0 1-2.791-4.828v-7.513Z"/></g><path fill="#DCE3FF" d="m158.43 76.615 2.51 1.672v93.61l-2.51-1.393V76.615Z"/><path fill="url(#O)" d="m160.941 78.287 24.266-14.209v93.889l-24.266 13.93v-93.61Z"/><path fill="url(#P)" fill-opacity=".53" d="m160.941 78.287 24.266-14.209v93.889l-24.266 13.93v-93.61Z"/><path fill="url(#Q)" fill-opacity=".62" d="m160.941 78.287 24.266-14.209v93.889l-24.266 13.93v-93.61Z"/><g filter="url(#R)"><path fill="#DCE3FF" d="m165.676 80.794 20.082 11.516v7.974c0 2.569-2.777 4.178-5.006 2.9l-11.716-6.719a6.686 6.686 0 0 1-3.36-5.8v-9.87Z"/></g><g filter="url(#S)"><path fill="#FFC800" d="m166.791 82.653 17.479 10.069v7.842a1.671 1.671 0 0 1-2.506 1.448l-12.183-7.018a5.572 5.572 0 0 1-2.79-4.828v-7.513Z"/></g><path fill="#DCE3FF" d="m189.102 93.889 2.51 1.672v93.609l-2.51-1.393V93.889Z"/><path fill="url(#T)" d="m191.613 95.56 24.266-14.208v93.889l-24.266 13.93v-93.61Z"/><path fill="url(#U)" fill-opacity=".53" d="m191.613 95.56 24.266-14.208v93.889l-24.266 13.93v-93.61Z"/><path fill="url(#V)" fill-opacity=".62" d="m191.613 95.56 24.266-14.208v93.889l-24.266 13.93v-93.61Z"/><path fill="url(#W)" d="M143.743 202.613v-26.405l-24.934 14.234v26.282l24.934-14.111Z"/><path fill="url(#X)" d="M143.743 202.613v-26.405l-24.934 14.234v26.282l24.934-14.111Z"/><path fill="url(#Y)" d="M143.743 202.613v-26.405l-24.934 14.234v26.282l24.934-14.111Z"/><path fill="url(#Z)" d="M118.807 190.442v26.282l-24.65-14.093v-26.282l24.65 14.093Z"/><path fill="url(#aa)" d="M118.807 190.442v26.282l-24.65-14.093v-26.282l24.65 14.093Z"/><path fill="url(#ab)" d="M118.807 190.442v26.282l-24.65-14.093v-26.282l24.65 14.093Z"/><path fill="url(#ac)" d="m116.115 190.227-21.959 12.197v-24.393l21.959 12.196Z" opacity=".78"/><path fill="url(#ad)" d="m118.949 162.125-24.793 14.224 24.651 14.094 24.934-14.235-24.792-14.083Z"/><path fill="url(#ae)" d="m118.949 162.125-24.793 14.224 24.651 14.094 24.934-14.235-24.792-14.083Z"/><path fill="url(#af)" d="m118.949 162.125-24.793 14.224 24.651 14.094 24.934-14.235-24.792-14.083Z"/><g filter="url(#ag)"><path fill="#DCE3FF" d="m197.469 99.182 20.082 11.516v7.974c0 2.569-2.777 4.178-5.006 2.9l-11.716-6.719a6.685 6.685 0 0 1-3.36-5.799v-9.872Z"/></g><g filter="url(#ah)"><path fill="#C3C8D5" d="m198.584 101.041 17.479 10.069v7.842c0 1.285-1.392 2.09-2.506 1.448l-12.183-7.018a5.572 5.572 0 0 1-2.79-4.828v-7.513Z"/></g><g opacity=".8"><path fill="url(#ai)" d="M225.087 115.62 97.067 40.954l24.265-13.93 128.02 74.387-24.265 14.209Z"/><path fill="url(#aj)" d="M225.087 115.62 97.067 40.954l24.265-13.93 128.02 74.387-24.265 14.209Z"/><path fill="url(#ak)" d="M225.087 115.62 97.067 40.954l24.265-13.93 128.02 74.387-24.265 14.209Z"/></g></g><defs><linearGradient id="b" x1="109.949" x2=".131" y1="151.958" y2="186.451" gradientUnits="userSpaceOnUse"><stop stop-color="#CEEFFF"/><stop offset=".026" stop-color="#CFECFD" stop-opacity=".83"/><stop offset="1" stop-color="#FD71AF" stop-opacity=".01"/></linearGradient><linearGradient id="c" x1="288.407" x2="157.72" y1="47.006" y2="216.616" gradientUnits="userSpaceOnUse"><stop offset=".026" stop-color="#CFECFD" stop-opacity=".99"/><stop offset=".226" stop-color="#D9D3ED" stop-opacity=".788"/><stop offset="1" stop-color="#FD71AF" stop-opacity=".01"/></linearGradient><linearGradient id="d" x1="83.516" x2="187.509" y1="-31.756" y2="264.845" gradientUnits="userSpaceOnUse"><stop stop-color="#00B4D5"/><stop offset="1" stop-color="#DCE3FF"/></linearGradient><linearGradient id="e" x1="120.625" x2="216.65" y1="176.61" y2="164.719" gradientUnits="userSpaceOnUse"><stop offset=".198" stop-color="#F2FDFF"/><stop offset="1" stop-color="#FFBFF1"/></linearGradient><linearGradient id="f" x1="143.467" x2="173.831" y1="159.618" y2="213.381" gradientUnits="userSpaceOnUse"><stop stop-color="#FEAFE7" stop-opacity=".76"/><stop offset=".083" stop-color="#fff" stop-opacity=".917"/><stop offset="1" stop-color="#E2F7FB" stop-opacity="0"/></linearGradient><linearGradient id="g" x1="170.349" x2="170.349" y1="137.333" y2="226.474" gradientUnits="userSpaceOnUse"><stop stop-color="#8892AC"/><stop offset="1" stop-color="#ADACF2"/></linearGradient><linearGradient id="h" x1="58.226" x2="154.252" y1="140.954" y2="129.063" gradientUnits="userSpaceOnUse"><stop offset=".198" stop-color="#F2FDFF"/><stop offset="1" stop-color="#FFBFF1"/></linearGradient><linearGradient id="i" x1="81.069" x2="111.432" y1="123.961" y2="177.725" gradientUnits="userSpaceOnUse"><stop stop-color="#FEAFE7" stop-opacity=".76"/><stop offset=".083" stop-color="#fff" stop-opacity=".917"/><stop offset="1" stop-color="#E2F7FB" stop-opacity="0"/></linearGradient><linearGradient id="j" x1="107.95" x2="107.95" y1="101.676" y2="190.817" gradientUnits="userSpaceOnUse"><stop stop-color="#8892AC"/><stop offset="1" stop-color="#ADACF2"/></linearGradient><linearGradient id="k" x1="151.816" x2="247.842" y1="193.881" y2="181.99" gradientUnits="userSpaceOnUse"><stop offset=".198" stop-color="#F2FDFF"/><stop offset="1" stop-color="#FFBFF1"/></linearGradient><linearGradient id="l" x1="174.659" x2="205.022" y1="176.889" y2="230.652" gradientUnits="userSpaceOnUse"><stop stop-color="#FEAFE7" stop-opacity=".76"/><stop offset=".083" stop-color="#fff" stop-opacity=".917"/><stop offset="1" stop-color="#E2F7FB" stop-opacity="0"/></linearGradient><linearGradient id="m" x1="201.54" x2="201.54" y1="154.604" y2="243.745" gradientUnits="userSpaceOnUse"><stop stop-color="#8892AC"/><stop offset="1" stop-color="#ADACF2"/></linearGradient><linearGradient id="n" x1="89.422" x2="185.447" y1="158.225" y2="146.334" gradientUnits="userSpaceOnUse"><stop offset=".198" stop-color="#F2FDFF"/><stop offset="1" stop-color="#FFBFF1"/></linearGradient><linearGradient id="o" x1="112.264" x2="142.628" y1="141.232" y2="194.996" gradientUnits="userSpaceOnUse"><stop stop-color="#FEAFE7" stop-opacity=".76"/><stop offset=".083" stop-color="#fff" stop-opacity=".917"/><stop offset="1" stop-color="#E2F7FB" stop-opacity="0"/></linearGradient><linearGradient id="p" x1="139.146" x2="139.146" y1="118.947" y2="208.088" gradientUnits="userSpaceOnUse"><stop stop-color="#8892AC"/><stop offset="1" stop-color="#ADACF2"/></linearGradient><linearGradient id="r" x1="232.33" x2="272.348" y1="75.964" y2="88.053" gradientUnits="userSpaceOnUse"><stop offset=".002" stop-color="#44DCFE"/><stop offset="1" stop-color="#3500D5"/></linearGradient><linearGradient id="s" x1="253.248" x2="226.614" y1="209.23" y2="135.637" gradientUnits="userSpaceOnUse"><stop stop-color="#077393" stop-opacity=".86"/><stop offset=".228" stop-color="#fff" stop-opacity=".6"/><stop offset="1" stop-color="#8CE0F0" stop-opacity="0"/></linearGradient><linearGradient id="t" x1="267.194" x2="225.082" y1="68.536" y2="76.907" gradientUnits="userSpaceOnUse"><stop stop-color="#0081A7" stop-opacity="0"/><stop offset=".209" stop-color="#EAEDFF" stop-opacity=".38"/><stop offset="1" stop-color="#D5DAFF"/></linearGradient><linearGradient id="u" x1="106.822" x2="146.84" y1="2.97" y2="15.06" gradientUnits="userSpaceOnUse"><stop offset=".002" stop-color="#44DCFE"/><stop offset="1" stop-color="#3500D5"/></linearGradient><linearGradient id="v" x1="127.74" x2="101.106" y1="136.236" y2="62.643" gradientUnits="userSpaceOnUse"><stop stop-color="#077393" stop-opacity=".86"/><stop offset=".228" stop-color="#fff" stop-opacity=".6"/><stop offset="1" stop-color="#8CE0F0" stop-opacity="0"/></linearGradient><linearGradient id="w" x1="141.686" x2="99.574" y1="-4.458" y2="3.914" gradientUnits="userSpaceOnUse"><stop stop-color="#0081A7" stop-opacity="0"/><stop offset=".209" stop-color="#EAEDFF" stop-opacity=".38"/><stop offset="1" stop-color="#D5DAFF"/></linearGradient><linearGradient id="x" x1="143.743" x2="151.914" y1="105.593" y2="139.49" gradientUnits="userSpaceOnUse"><stop offset=".002" stop-color="#44DCFE"/><stop offset="1" stop-color="#3500D5"/></linearGradient><linearGradient id="y" x1="132.834" x2="124.057" y1="141.062" y2="123.603" gradientUnits="userSpaceOnUse"><stop stop-color="#077393" stop-opacity=".86"/><stop offset=".228" stop-color="#fff" stop-opacity=".6"/><stop offset="1" stop-color="#8CE0F0" stop-opacity="0"/></linearGradient><linearGradient id="z" x1="147.993" x2="118.809" y1="105.874" y2="105.874" gradientUnits="userSpaceOnUse"><stop stop-color="#0081A7" stop-opacity="0"/><stop offset=".209" stop-color="#EAEDFF" stop-opacity=".38"/><stop offset="1" stop-color="#D5DAFF"/></linearGradient><linearGradient id="A" x1="94.156" x2="91.954" y1="107.135" y2="146.462" gradientUnits="userSpaceOnUse"><stop offset=".002" stop-color="#fff"/><stop offset="1" stop-color="#5DE5FE"/></linearGradient><linearGradient id="B" x1="109.032" x2="119.909" y1="141.482" y2="122.457" gradientUnits="userSpaceOnUse"><stop stop-color="#57CEE4"/><stop offset=".109" stop-color="#fff" stop-opacity=".519"/><stop offset="1" stop-color="#DEF7FF"/></linearGradient><linearGradient id="C" x1="93.023" x2="119.799" y1="126.762" y2="126.762" gradientUnits="userSpaceOnUse"><stop stop-color="#7BD4E6"/><stop offset=".088" stop-color="#fff" stop-opacity=".51"/><stop offset="1" stop-color="#32C8FC" stop-opacity=".13"/></linearGradient><linearGradient id="D" x1="105.136" x2="105.136" y1="107.275" y2="131.669" gradientUnits="userSpaceOnUse"><stop offset=".05" stop-color="#F0DFF8" stop-opacity="0"/><stop offset="1" stop-color="#C2E0FC"/></linearGradient><linearGradient id="E" x1="94.156" x2="142.976" y1="105.529" y2="99.419" gradientUnits="userSpaceOnUse"><stop offset=".198" stop-color="#F2FDFF"/><stop offset="1" stop-color="#FFBFF1"/></linearGradient><linearGradient id="F" x1="105.773" x2="120.971" y1="96.977" y2="124.17" gradientUnits="userSpaceOnUse"><stop stop-color="#FEAFE7" stop-opacity=".76"/><stop offset=".083" stop-color="#fff" stop-opacity=".917"/><stop offset="1" stop-color="#E2F7FB" stop-opacity="0"/></linearGradient><linearGradient id="G" x1="133.824" x2="107.472" y1="96.837" y2="144.037" gradientUnits="userSpaceOnUse"><stop stop-color="#BB66E1"/><stop offset=".094" stop-color="#fff" stop-opacity="0"/><stop offset=".969" stop-color="#F8DBEC"/></linearGradient><linearGradient id="J" x1="137.502" x2="177.52" y1="20.8" y2="32.89" gradientUnits="userSpaceOnUse"><stop offset=".002" stop-color="#44DCFE"/><stop offset="1" stop-color="#3500D5"/></linearGradient><linearGradient id="K" x1="158.42" x2="131.786" y1="154.067" y2="80.474" gradientUnits="userSpaceOnUse"><stop stop-color="#077393" stop-opacity=".86"/><stop offset=".228" stop-color="#fff" stop-opacity=".6"/><stop offset="1" stop-color="#8CE0F0" stop-opacity="0"/></linearGradient><linearGradient id="L" x1="172.366" x2="130.254" y1="13.373" y2="21.744" gradientUnits="userSpaceOnUse"><stop stop-color="#0081A7" stop-opacity="0"/><stop offset=".209" stop-color="#EAEDFF" stop-opacity=".38"/><stop offset="1" stop-color="#D5DAFF"/></linearGradient><linearGradient id="O" x1="168.193" x2="208.211" y1="38.631" y2="50.721" gradientUnits="userSpaceOnUse"><stop offset=".002" stop-color="#44DCFE"/><stop offset="1" stop-color="#3500D5"/></linearGradient><linearGradient id="P" x1="189.111" x2="162.477" y1="171.897" y2="98.304" gradientUnits="userSpaceOnUse"><stop stop-color="#077393" stop-opacity=".86"/><stop offset=".228" stop-color="#fff" stop-opacity=".6"/><stop offset="1" stop-color="#8CE0F0" stop-opacity="0"/></linearGradient><linearGradient id="Q" x1="203.057" x2="160.945" y1="31.203" y2="39.574" gradientUnits="userSpaceOnUse"><stop stop-color="#0081A7" stop-opacity="0"/><stop offset=".209" stop-color="#EAEDFF" stop-opacity=".38"/><stop offset="1" stop-color="#D5DAFF"/></linearGradient><linearGradient id="T" x1="198.865" x2="238.883" y1="55.905" y2="67.995" gradientUnits="userSpaceOnUse"><stop offset=".002" stop-color="#44DCFE"/><stop offset="1" stop-color="#3500D5"/></linearGradient><linearGradient id="U" x1="219.783" x2="193.149" y1="189.171" y2="115.578" gradientUnits="userSpaceOnUse"><stop stop-color="#077393" stop-opacity=".86"/><stop offset=".228" stop-color="#fff" stop-opacity=".6"/><stop offset="1" stop-color="#8CE0F0" stop-opacity="0"/></linearGradient><linearGradient id="V" x1="233.729" x2="191.617" y1="48.477" y2="56.848" gradientUnits="userSpaceOnUse"><stop stop-color="#0081A7" stop-opacity="0"/><stop offset=".209" stop-color="#EAEDFF" stop-opacity=".38"/><stop offset="1" stop-color="#D5DAFF"/></linearGradient><linearGradient id="W" x1="143.743" x2="151.914" y1="176.349" y2="210.246" gradientUnits="userSpaceOnUse"><stop offset=".002" stop-color="#44DCFE"/><stop offset="1" stop-color="#3500D5"/></linearGradient><linearGradient id="X" x1="132.834" x2="124.057" y1="211.817" y2="194.359" gradientUnits="userSpaceOnUse"><stop stop-color="#077393" stop-opacity=".86"/><stop offset=".228" stop-color="#fff" stop-opacity=".6"/><stop offset="1" stop-color="#8CE0F0" stop-opacity="0"/></linearGradient><linearGradient id="Y" x1="147.993" x2="118.809" y1="176.629" y2="176.629" gradientUnits="userSpaceOnUse"><stop stop-color="#0081A7" stop-opacity="0"/><stop offset=".209" stop-color="#EAEDFF" stop-opacity=".38"/><stop offset="1" stop-color="#D5DAFF"/></linearGradient><linearGradient id="Z" x1="94.156" x2="91.954" y1="177.891" y2="217.217" gradientUnits="userSpaceOnUse"><stop offset=".002" stop-color="#fff"/><stop offset="1" stop-color="#5DE5FE"/></linearGradient><linearGradient id="aa" x1="109.032" x2="119.909" y1="212.238" y2="193.213" gradientUnits="userSpaceOnUse"><stop stop-color="#57CEE4"/><stop offset=".109" stop-color="#fff" stop-opacity=".519"/><stop offset="1" stop-color="#DEF7FF"/></linearGradient><linearGradient id="ab" x1="93.023" x2="119.799" y1="197.518" y2="197.518" gradientUnits="userSpaceOnUse"><stop stop-color="#7BD4E6"/><stop offset=".088" stop-color="#fff" stop-opacity=".51"/><stop offset="1" stop-color="#32C8FC" stop-opacity=".13"/></linearGradient><linearGradient id="ac" x1="105.136" x2="105.136" y1="178.031" y2="202.424" gradientUnits="userSpaceOnUse"><stop offset=".05" stop-color="#F0DFF8" stop-opacity="0"/><stop offset="1" stop-color="#C2E0FC"/></linearGradient><linearGradient id="ad" x1="94.156" x2="142.976" y1="176.284" y2="170.175" gradientUnits="userSpaceOnUse"><stop offset=".198" stop-color="#F2FDFF"/><stop offset="1" stop-color="#FFBFF1"/></linearGradient><linearGradient id="ae" x1="105.773" x2="120.971" y1="167.732" y2="194.926" gradientUnits="userSpaceOnUse"><stop stop-color="#FEAFE7" stop-opacity=".76"/><stop offset=".083" stop-color="#fff" stop-opacity=".917"/><stop offset="1" stop-color="#E2F7FB" stop-opacity="0"/></linearGradient><linearGradient id="af" x1="133.824" x2="107.472" y1="167.592" y2="214.793" gradientUnits="userSpaceOnUse"><stop stop-color="#BB66E1"/><stop offset=".094" stop-color="#fff" stop-opacity="0"/><stop offset=".969" stop-color="#F8DBEC"/></linearGradient><linearGradient id="ai" x1="215.883" x2="230.18" y1="109.073" y2="107.357" gradientUnits="userSpaceOnUse"><stop offset=".198" stop-color="#F2FDFF"/><stop offset="1" stop-color="#FFBFF1"/></linearGradient><linearGradient id="aj" x1="215.604" x2="224.155" y1="101.132" y2="114.488" gradientUnits="userSpaceOnUse"><stop stop-color="#FEAFE7" stop-opacity=".76"/><stop offset=".083" stop-color="#fff" stop-opacity=".917"/><stop offset="1" stop-color="#E2F7FB" stop-opacity="0"/></linearGradient><linearGradient id="ak" x1="239.311" x2="218.793" y1="88.038" y2="120.196" gradientUnits="userSpaceOnUse"><stop stop-color="#BB66E1"/><stop offset=".094" stop-color="#fff" stop-opacity="0"/><stop offset=".969" stop-color="#F8DBEC"/></linearGradient><filter id="q" width="80.795" height="86.131" x="78.546" y="159.73" color-interpolation-filters="sRGB" filterUnits="userSpaceOnUse"><feFlood flood-opacity="0" result="BackgroundImageFix"/><feColorMatrix in="SourceAlpha" result="hardAlpha" values="0 0 0 0 0 0 0 0 0 0 0 0 0 0 0 0 0 0 127 0"/><feOffset dy="13.371"/><feGaussianBlur stdDeviation="7.243"/><feComposite in2="hardAlpha" operator="out"/><feColorMatrix values="0 0 0 0 0.514323 0 0 0 0 0.537982 0 0 0 0 0.9875 0 0 0 1 0"/><feBlend in2="BackgroundImageFix" result="effect1_dropShadow_5409_114239"/><feBlend in="SourceGraphic" in2="effect1_dropShadow_5409_114239" result="shape"/></filter><filter id="H" width="23.425" height="22.837" x="104.312" y="44.576" color-interpolation-filters="sRGB" filterUnits="userSpaceOnUse"><feFlood flood-opacity="0" result="BackgroundImageFix"/><feColorMatrix in="SourceAlpha" result="hardAlpha" values="0 0 0 0 0 0 0 0 0 0 0 0 0 0 0 0 0 0 127 0"/><feOffset dx="3.343"/><feComposite in2="hardAlpha" operator="out"/><feColorMatrix values="0 0 0 0 0.529412 0 0 0 0 0.568627 0 0 0 0 0.670588 0 0 0 1 0"/><feBlend in2="BackgroundImageFix" result="effect1_dropShadow_5409_114239"/><feBlend in="SourceGraphic" in2="effect1_dropShadow_5409_114239" result="shape"/></filter><filter id="I" width="17.477" height="19.584" x="105.43" y="46.435" color-interpolation-filters="sRGB" filterUnits="userSpaceOnUse"><feFlood flood-opacity="0" result="BackgroundImageFix"/><feBlend in="SourceGraphic" in2="BackgroundImageFix" result="shape"/><feColorMatrix in="SourceAlpha" result="hardAlpha" values="0 0 0 0 0 0 0 0 0 0 0 0 0 0 0 0 0 0 127 0"/><feOffset dx="1.114" dy="-.557"/><feComposite in2="hardAlpha" k2="-1" k3="1" operator="arithmetic"/><feColorMatrix values="0 0 0 0 0 0 0 0 0 0 0 0 0 0 0 0 0 0 0.25 0"/><feBlend in2="shape" result="effect1_innerShadow_5409_114239"/></filter><filter id="M" width="23.425" height="22.837" x="134.996" y="62.407" color-interpolation-filters="sRGB" filterUnits="userSpaceOnUse"><feFlood flood-opacity="0" result="BackgroundImageFix"/><feColorMatrix in="SourceAlpha" result="hardAlpha" values="0 0 0 0 0 0 0 0 0 0 0 0 0 0 0 0 0 0 127 0"/><feOffset dx="3.343"/><feComposite in2="hardAlpha" operator="out"/><feColorMatrix values="0 0 0 0 0.529412 0 0 0 0 0.568627 0 0 0 0 0.670588 0 0 0 1 0"/><feBlend in2="BackgroundImageFix" result="effect1_dropShadow_5409_114239"/><feBlend in="SourceGraphic" in2="effect1_dropShadow_5409_114239" result="shape"/></filter><filter id="N" width="17.477" height="19.584" x="136.113" y="64.266" color-interpolation-filters="sRGB" filterUnits="userSpaceOnUse"><feFlood flood-opacity="0" result="BackgroundImageFix"/><feBlend in="SourceGraphic" in2="BackgroundImageFix" result="shape"/><feColorMatrix in="SourceAlpha" result="hardAlpha" values="0 0 0 0 0 0 0 0 0 0 0 0 0 0 0 0 0 0 127 0"/><feOffset dx="1.114" dy="-.557"/><feComposite in2="hardAlpha" k2="-1" k3="1" operator="arithmetic"/><feColorMatrix values="0 0 0 0 0 0 0 0 0 0 0 0 0 0 0 0 0 0 0.25 0"/><feBlend in2="shape" result="effect1_innerShadow_5409_114239"/></filter><filter id="R" width="23.425" height="22.837" x="165.676" y="80.794" color-interpolation-filters="sRGB" filterUnits="userSpaceOnUse"><feFlood flood-opacity="0" result="BackgroundImageFix"/><feColorMatrix in="SourceAlpha" result="hardAlpha" values="0 0 0 0 0 0 0 0 0 0 0 0 0 0 0 0 0 0 127 0"/><feOffset dx="3.343"/><feComposite in2="hardAlpha" operator="out"/><feColorMatrix values="0 0 0 0 0.529412 0 0 0 0 0.568627 0 0 0 0 0.670588 0 0 0 1 0"/><feBlend in2="BackgroundImageFix" result="effect1_dropShadow_5409_114239"/><feBlend in="SourceGraphic" in2="effect1_dropShadow_5409_114239" result="shape"/></filter><filter id="S" width="17.477" height="19.584" x="166.793" y="82.653" color-interpolation-filters="sRGB" filterUnits="userSpaceOnUse"><feFlood flood-opacity="0" result="BackgroundImageFix"/><feBlend in="SourceGraphic" in2="BackgroundImageFix" result="shape"/><feColorMatrix in="SourceAlpha" result="hardAlpha" values="0 0 0 0 0 0 0 0 0 0 0 0 0 0 0 0 0 0 127 0"/><feOffset dx="1.114" dy="-.557"/><feComposite in2="hardAlpha" k2="-1" k3="1" operator="arithmetic"/><feColorMatrix values="0 0 0 0 0 0 0 0 0 0 0 0 0 0 0 0 0 0 0.25 0"/><feBlend in2="shape" result="effect1_innerShadow_5409_114239"/></filter><filter id="ag" width="23.425" height="22.837" x="197.469" y="99.182" color-interpolation-filters="sRGB" filterUnits="userSpaceOnUse"><feFlood flood-opacity="0" result="BackgroundImageFix"/><feColorMatrix in="SourceAlpha" result="hardAlpha" values="0 0 0 0 0 0 0 0 0 0 0 0 0 0 0 0 0 0 127 0"/><feOffset dx="3.343"/><feComposite in2="hardAlpha" operator="out"/><feColorMatrix values="0 0 0 0 0.529412 0 0 0 0 0.568627 0 0 0 0 0.670588 0 0 0 1 0"/><feBlend in2="BackgroundImageFix" result="effect1_dropShadow_5409_114239"/><feBlend in="SourceGraphic" in2="effect1_dropShadow_5409_114239" result="shape"/></filter><filter id="ah" width="17.477" height="19.584" x="198.586" y="101.041" color-interpolation-filters="sRGB" filterUnits="userSpaceOnUse"><feFlood flood-opacity="0" result="BackgroundImageFix"/><feBlend in="SourceGraphic" in2="BackgroundImageFix" result="shape"/><feColorMatrix in="SourceAlpha" result="hardAlpha" values="0 0 0 0 0 0 0 0 0 0 0 0 0 0 0 0 0 0 127 0"/><feOffset dx="1.114" dy="-.557"/><feComposite in2="hardAlpha" k2="-1" k3="1" operator="arithmetic"/><feColorMatrix values="0 0 0 0 0 0 0 0 0 0 0 0 0 0 0 0 0 0 0.25 0"/><feBlend in2="shape" result="effect1_innerShadow_5409_114239"/></filter><clipPath id="a"><path fill="#fff" d="M0 0h328v263H0z"/></clipPath></defs></svg>
