<svg xmlns="http://www.w3.org/2000/svg" width="328" height="263" fill="none"><path d="M0 0h328v263H0z"/><path fill="url(#a)" d="M257.002 59.739C193.231-13.715 84.628 23.772 32.891 71.709c-139.97 129.689 468.963 270.055 224.111-11.97Z"/><path fill="url(#b)" d="m162.048 96.504-128.02 73.911 128.02 73.912 128.02-73.912-128.02-73.911Z"/><path fill="#F3F5FA" d="m162.048 87.02-128.02 73.912 128.02 73.912 128.02-73.912-128.02-73.912Z"/><g fill-rule="evenodd" clip-rule="evenodd" opacity=".8"><path fill="url(#c)" d="m206.389 126.224 24.823-14.226 24.823 14.086-24.965 14.236-24.681-14.096Zm-29.565 16.159 24.823-14.226 24.824 14.085-24.965 14.237-24.682-14.096Zm-4.741 2.49-24.823 14.226 24.681 14.096 24.965-14.236-24.823-14.086Zm-54.388 30.385 24.823-14.226 24.824 14.085-24.965 14.237-24.682-14.096Zm-4.741 1.933-24.823 14.226 24.681 14.096 24.965-14.237-24.823-14.085Zm-54.388 30.384L83.39 193.35l24.824 14.085-24.965 14.237-24.682-14.097Z"/><path fill="url(#d)" d="m206.389 126.224 24.823-14.226 24.823 14.086-24.965 14.236-24.681-14.096Zm-29.565 16.159 24.823-14.226 24.824 14.085-24.965 14.237-24.682-14.096Zm-4.741 2.49-24.823 14.226 24.681 14.096 24.965-14.236-24.823-14.086Zm-54.388 30.385 24.823-14.226 24.824 14.085-24.965 14.237-24.682-14.096Zm-4.741 1.933-24.823 14.226 24.681 14.096 24.965-14.237-24.823-14.085Zm-54.388 30.384L83.39 193.35l24.824 14.085-24.965 14.237-24.682-14.097Z"/><path fill="url(#e)" d="m206.389 126.224 24.823-14.226 24.823 14.086-24.965 14.236-24.681-14.096Zm-29.565 16.159 24.823-14.226 24.824 14.085-24.965 14.237-24.682-14.096Zm-4.741 2.49-24.823 14.226 24.681 14.096 24.965-14.236-24.823-14.086Zm-54.388 30.385 24.823-14.226 24.824 14.085-24.965 14.237-24.682-14.096Zm-4.741 1.933-24.823 14.226 24.681 14.096 24.965-14.237-24.823-14.085Zm-54.388 30.384L83.39 193.35l24.824 14.085-24.965 14.237-24.682-14.097Z"/></g><path fill="url(#f)" d="M256.035 122.539V96.101l-24.965 14.251v26.315l24.965-14.128Z"/><path fill="url(#g)" d="M256.035 122.539V96.101l-24.965 14.251v26.315l24.965-14.128Z"/><path fill="url(#h)" d="M256.035 122.539V96.101l-24.965 14.251v26.315l24.965-14.128Z"/><path fill="url(#i)" d="M231.072 110.352v26.315l-24.681-14.111V96.242l24.681 14.11Z"/><path fill="url(#j)" d="M231.072 110.352v26.315l-24.681-14.111V96.242l24.681 14.11Z"/><path fill="url(#k)" d="M231.072 110.352v26.315l-24.681-14.111V96.242l24.681 14.11Z"/><path fill="url(#l)" d="m228.377 110.138-21.986 12.212V97.926l21.986 12.212Z" opacity=".78"/><path fill="url(#m)" d="m231.214 82-24.823 14.242 24.681 14.112 24.965-14.253-24.823-14.1Z"/><path fill="url(#n)" d="m231.214 82-24.823 14.242 24.681 14.112 24.965-14.253-24.823-14.1Z"/><path fill="url(#o)" d="m231.214 82-24.823 14.242 24.681 14.112 24.965-14.253-24.823-14.1Z"/><path fill="url(#p)" d="M226.469 138.716v-26.438l-24.965 14.251v26.315l24.965-14.128Z"/><path fill="url(#q)" d="M226.469 138.716v-26.438l-24.965 14.251v26.315l24.965-14.128Z"/><path fill="url(#r)" d="M226.469 138.716v-26.438l-24.965 14.251v26.315l24.965-14.128Z"/><path fill="url(#s)" d="M201.506 126.529v26.315l-24.682-14.111v-26.315l24.682 14.111Z"/><path fill="url(#t)" d="M201.506 126.529v26.315l-24.682-14.111v-26.315l24.682 14.111Z"/><path fill="url(#u)" d="M201.506 126.529v26.315l-24.682-14.111v-26.315l24.682 14.111Z"/><path fill="url(#v)" d="m198.81 126.315-21.986 12.211v-24.423l21.986 12.212Z" opacity=".78"/><path fill="url(#w)" d="m201.647 98.177-24.823 14.241 24.681 14.113 24.965-14.253-24.823-14.101Z"/><path fill="url(#x)" d="m201.647 98.177-24.823 14.241 24.681 14.113 24.965-14.253-24.823-14.101Z"/><path fill="url(#y)" d="m201.647 98.177-24.823 14.241 24.681 14.113 24.965-14.253-24.823-14.101Z"/><path fill="url(#z)" d="M196.906 155.451v-26.438l-24.965 14.251v26.314l24.965-14.127Z"/><path fill="url(#A)" d="M196.906 155.451v-26.438l-24.965 14.251v26.314l24.965-14.127Z"/><path fill="url(#B)" d="M196.906 155.451v-26.438l-24.965 14.251v26.314l24.965-14.127Z"/><path fill="url(#C)" d="M171.943 143.264v26.314l-24.681-14.11v-26.315l24.681 14.111Z"/><path fill="url(#D)" d="M171.943 143.264v26.314l-24.681-14.11v-26.315l24.681 14.111Z"/><path fill="url(#E)" d="M171.943 143.264v26.314l-24.681-14.11v-26.315l24.681 14.111Z"/><path fill="url(#F)" d="m169.248 143.049-21.986 12.212v-24.423l21.986 12.211Z" opacity=".78"/><path fill="url(#G)" d="m172.085 114.912-24.823 14.241 24.681 14.112 24.965-14.252-24.823-14.101Z"/><path fill="url(#H)" d="m172.085 114.912-24.823 14.241 24.681 14.112 24.965-14.252-24.823-14.101Z"/><path fill="url(#I)" d="m172.085 114.912-24.823 14.241 24.681 14.112 24.965-14.252-24.823-14.101Z"/><path fill="url(#J)" d="M167.34 171.628V145.19l-24.965 14.251v26.314l24.965-14.127Z"/><path fill="url(#K)" d="M167.34 171.628V145.19l-24.965 14.251v26.314l24.965-14.127Z"/><path fill="url(#L)" d="M167.34 171.628V145.19l-24.965 14.251v26.314l24.965-14.127Z"/><path fill="url(#M)" d="M142.377 159.441v26.314l-24.682-14.11V145.33l24.682 14.111Z"/><path fill="url(#N)" d="M142.377 159.441v26.314l-24.682-14.11V145.33l24.682 14.111Z"/><path fill="url(#O)" d="M142.377 159.441v26.314l-24.682-14.11V145.33l24.682 14.111Z"/><path fill="url(#P)" d="m139.682 159.226-21.987 12.212v-24.424l21.987 12.212Z" opacity=".78"/><path fill="url(#Q)" d="m142.518 131.089-24.823 14.241 24.682 14.112 24.965-14.252-24.824-14.101Z"/><path fill="url(#R)" d="m142.518 131.089-24.823 14.241 24.682 14.112 24.965-14.252-24.824-14.101Z"/><path fill="url(#S)" d="m142.518 131.089-24.823 14.241 24.682 14.112 24.965-14.252-24.824-14.101Z"/><path fill="url(#T)" d="M137.777 187.804v-26.437l-24.965 14.251.001 26.314 24.964-14.128Z"/><path fill="url(#U)" d="M137.777 187.804v-26.437l-24.965 14.251.001 26.314 24.964-14.128Z"/><path fill="url(#V)" d="M137.777 187.804v-26.437l-24.965 14.251.001 26.314 24.964-14.128Z"/><path fill="url(#W)" d="M112.814 175.618v26.314l-24.681-14.111v-26.314l24.681 14.111Z"/><path fill="url(#X)" d="M112.814 175.618v26.314l-24.681-14.111v-26.314l24.681 14.111Z"/><path fill="url(#Y)" d="M112.814 175.618v26.314l-24.681-14.111v-26.314l24.681 14.111Z"/><path fill="url(#Z)" d="m110.119 175.403-21.986 12.212v-24.424l21.986 12.212Z" opacity=".78"/><path fill="url(#aa)" d="m112.956 147.265-24.823 14.242 24.681 14.112 24.965-14.252-24.823-14.102Z"/><path fill="url(#ab)" d="m112.956 147.265-24.823 14.242 24.681 14.112 24.965-14.252-24.823-14.102Z"/><path fill="url(#ac)" d="m112.956 147.265-24.823 14.242 24.681 14.112 24.965-14.252-24.823-14.102Z"/><path fill="url(#ad)" d="M108.211 203.981v-26.438l-24.965 14.251v26.315l24.965-14.128Z"/><path fill="url(#ae)" d="M108.211 203.981v-26.438l-24.965 14.251v26.315l24.965-14.128Z"/><path fill="url(#af)" d="M108.211 203.981v-26.438l-24.965 14.251v26.315l24.965-14.128Z"/><path fill="url(#ag)" d="M83.248 191.794v26.315l-24.682-14.111v-26.314l24.682 14.11Z"/><path fill="url(#ah)" d="M83.248 191.794v26.315l-24.682-14.111v-26.314l24.682 14.11Z"/><path fill="url(#ai)" d="M83.248 191.794v26.315l-24.682-14.111v-26.314l24.682 14.11Z"/><path fill="url(#aj)" d="m80.553 191.58-21.987 12.212v-24.424l21.987 12.212Z" opacity=".78"/><path fill="url(#ak)" d="m83.39 163.442-24.824 14.242 24.682 14.112 24.965-14.253-24.823-14.101Z"/><path fill="url(#al)" d="m83.39 163.442-24.824 14.242 24.682 14.112 24.965-14.253-24.823-14.101Z"/><path fill="url(#am)" d="m83.39 163.442-24.824 14.242 24.682 14.112 24.965-14.253-24.823-14.101Z"/><path fill="url(#an)" d="m97.49 206.189 1.517-.847a11.437 11.437 0 0 0 5.861-9.985c0-4.802-5.165-7.833-9.358-5.492l-1.517.848a11.437 11.437 0 0 0-5.86 9.985c0 4.802 5.164 7.833 9.357 5.491Z"/><path fill="url(#ao)" d="m126.498 190.012 1.517-.847a11.438 11.438 0 0 0 5.86-9.985c0-4.802-5.164-7.833-9.357-5.491l-1.517.847a11.438 11.438 0 0 0-5.86 9.985c0 4.802 5.164 7.833 9.357 5.491Z"/><path fill="url(#ap)" d="m156.056 173.835 1.518-.847a11.438 11.438 0 0 0 5.86-9.985c0-4.802-5.164-7.833-9.357-5.491l-1.518.847a11.438 11.438 0 0 0-5.86 9.985c0 4.802 5.165 7.833 9.357 5.491Z"/><path fill="url(#aq)" d="m185.623 156.543 1.517-.848a11.435 11.435 0 0 0 5.86-9.984c0-4.803-5.164-7.833-9.357-5.492l-1.517.848a11.435 11.435 0 0 0-5.86 9.984c0 4.803 5.164 7.834 9.357 5.492Z"/><path fill="url(#ar)" d="m215.748 140.366 1.517-.848a11.435 11.435 0 0 0 5.86-9.984c0-4.802-5.164-7.833-9.357-5.492l-1.517.848a11.436 11.436 0 0 0-5.86 9.985c0 4.802 5.164 7.833 9.357 5.491Z"/><path fill="url(#as)" d="m244.755 124.189 1.518-.847a11.438 11.438 0 0 0 5.86-9.985c0-4.802-5.164-7.833-9.357-5.492l-1.518.848a11.438 11.438 0 0 0-5.86 9.985c0 4.802 5.165 7.833 9.357 5.491Z"/><g filter="url(#at)"><path fill="url(#au)" d="m101.243 195.578-9.204 5.294 38.769 22.553 9.483-5.28-39.048-22.567Z"/><path fill="url(#av)" d="m101.243 195.578-9.204 5.294 38.769 22.553 9.483-5.28-39.048-22.567Z"/><path fill="url(#aw)" d="m101.243 195.578-9.204 5.294 38.769 22.553 9.483-5.28-39.048-22.567Z"/></g><g filter="url(#ax)"><path fill="url(#ay)" d="m130.251 179.42-9.204 5.293 66.66 38.433 9.483-5.279-66.939-38.447Z"/><path fill="url(#az)" d="m130.251 179.42-9.204 5.293 66.66 38.433 9.483-5.279-66.939-38.447Z"/><path fill="url(#aA)" d="m130.251 179.42-9.204 5.293 66.66 38.433 9.483-5.279-66.939-38.447Z"/></g><g filter="url(#aB)"><path fill="url(#aC)" d="m158.7 163.261-9.204 5.293 48.531 28.139 9.483-5.28-48.81-28.152Z"/><path fill="url(#aD)" d="m158.7 163.261-9.204 5.293 48.531 28.139 9.483-5.28-48.81-28.152Z"/><path fill="url(#aE)" d="m158.7 163.261-9.204 5.293 48.531 28.139 9.483-5.28-48.81-28.152Z"/></g><g filter="url(#aF)"><path fill="url(#aG)" d="m247.95 113.112-9.204 5.294 48.531 28.139 9.483-5.28-48.81-28.153Z"/><path fill="url(#aH)" d="m247.95 113.112-9.204 5.294 48.531 28.139 9.483-5.28-48.81-28.153Z"/><path fill="url(#aI)" d="m247.95 113.112-9.204 5.294 48.531 28.139 9.483-5.28-48.81-28.153Z"/></g><g filter="url(#aJ)"><path fill="url(#aK)" d="m190.497 145.43-9.204 5.294 31.517 18.387 9.483-5.279-31.796-18.402Z"/><path fill="url(#aL)" d="m190.497 145.43-9.204 5.294 31.517 18.387 9.483-5.279-31.796-18.402Z"/><path fill="url(#aM)" d="m190.497 145.43-9.204 5.294 31.517 18.387 9.483-5.279-31.796-18.402Z"/></g><g filter="url(#aN)"><path fill="url(#aO)" d="m219.505 129.271-9.204 5.294 31.517 18.387 9.483-5.279-31.796-18.402Z"/><path fill="url(#aP)" d="m219.505 129.271-9.204 5.294 31.517 18.387 9.483-5.279-31.796-18.402Z"/><path fill="url(#aQ)" d="m219.505 129.271-9.204 5.294 31.517 18.387 9.483-5.279-31.796-18.402Z"/></g><path fill="#7F9FC8" d="M78.655 177.109a4.463 4.463 0 1 0 8.925-.001 4.463 4.463 0 0 0-8.925.001Zm3.626-78.095a.837.837 0 1 0 1.673 0H82.28Zm1.673 4.462a.837.837 0 0 0-1.673 0h1.673Zm-1.673 4.463a.837.837 0 0 0 1.673 0H82.28Zm1.673 4.462a.836.836 0 0 0-1.673 0h1.673Zm-1.673 4.463a.837.837 0 0 0 1.673 0H82.28Zm1.673 4.463a.836.836 0 1 0-1.673 0h1.673Zm-1.673 4.462a.837.837 0 0 0 1.673 0H82.28Zm1.673 4.463a.837.837 0 0 0-1.673 0h1.673Zm-1.673 4.462a.837.837 0 0 0 1.673 0H82.28Zm1.673 4.463a.837.837 0 0 0-1.673 0h1.673Zm-1.673 4.462a.836.836 0 1 0 1.673 0H82.28Zm1.673 4.463a.837.837 0 0 0-1.673 0h1.673Zm-1.673 4.463a.836.836 0 0 0 1.673 0H82.28Zm1.673 4.462a.836.836 0 0 0-1.673 0h1.673Zm-1.673 4.463a.837.837 0 0 0 1.673 0H82.28Zm1.673 4.462a.836.836 0 0 0-1.673 0h1.673Zm-1.673 4.463a.837.837 0 0 0 1.673 0H82.28Zm1.673 4.463a.836.836 0 1 0-1.673 0h1.673ZM82.28 96.782v2.232h1.673v-2.232H82.28Zm0 6.694v4.463h1.673v-4.463H82.28Zm0 8.925v4.463h1.673v-4.463H82.28Zm0 8.926v4.462h1.673v-4.462H82.28Zm0 8.925v4.462h1.673v-4.462H82.28Zm0 8.925v4.462h1.673v-4.462H82.28Zm0 8.925v4.463h1.673v-4.463H82.28Zm0 8.925v4.463h1.673v-4.463H82.28Zm0 8.925v4.463h1.673v-4.463H82.28Zm0 8.926v2.231h1.673v-2.231H82.28ZM108.217 161.49a4.463 4.463 0 1 0 8.925-.001 4.463 4.463 0 0 0-8.925.001Zm3.626-47.043a.837.837 0 0 0 1.673 0h-1.673Zm1.673 4.09a.836.836 0 1 0-1.673 0h1.673Zm-1.673 4.091a.837.837 0 0 0 1.673 0h-1.673Zm1.673 4.091a.836.836 0 1 0-1.673 0h1.673Zm-1.673 4.091a.836.836 0 0 0 1.673 0h-1.673Zm1.673 4.09a.836.836 0 1 0-1.673 0h1.673Zm-1.673 4.091a.837.837 0 0 0 1.673 0h-1.673Zm1.673 4.091a.836.836 0 1 0-1.673 0h1.673Zm-1.673 4.09a.837.837 0 1 0 1.673 0h-1.673Zm1.673 4.091a.836.836 0 1 0-1.673 0h1.673Zm-1.673 4.091a.837.837 0 0 0 1.673 0h-1.673Zm1.673 4.091a.836.836 0 1 0-1.673 0h1.673Zm-1.673-47.044v2.046h1.673v-2.046h-1.673Zm0 6.136v4.091h1.673v-4.091h-1.673Zm0 8.182v4.091h1.673v-4.091h-1.673Zm0 8.181v4.091h1.673V134.9h-1.673Zm0 8.182v4.09h1.673v-4.09h-1.673Zm0 8.181v4.091h1.673v-4.091h-1.673Zm0 8.182v2.045h1.673v-2.045h-1.673ZM137.784 144.755a4.462 4.462 0 1 0 8.924.002 4.462 4.462 0 0 0-8.924-.002Zm5.299-2.179a.837.837 0 0 0-1.674 0h1.674Zm-1.674-4.358a.837.837 0 0 0 1.674 0h-1.674Zm1.674-4.358a.837.837 0 0 0-1.674 0h1.674Zm-1.674-4.358a.837.837 0 0 0 1.674 0h-1.674Zm1.674-4.358a.837.837 0 0 0-1.674 0h1.674Zm-1.674-4.358a.837.837 0 0 0 1.674 0h-1.674Zm1.674-4.358a.837.837 0 0 0-1.674 0h1.674Zm-1.674-4.358a.837.837 0 0 0 1.674 0h-1.674Zm1.674 32.685v-2.179h-1.674v2.179h1.674Zm0-6.537v-4.358h-1.674v4.358h1.674Zm0-8.716v-4.358h-1.674v4.358h1.674Zm0-8.716v-4.358h-1.674v4.358h1.674Zm0-8.716v-2.179h-1.674v2.179h1.674ZM167.346 129.136a4.463 4.463 0 1 0 8.926 0 4.463 4.463 0 0 0-8.926 0Zm3.626-71.061a.836.836 0 1 0 1.673 0h-1.673Zm1.673 4.584a.836.836 0 1 0-1.673 0h1.673Zm-1.673 4.585a.836.836 0 1 0 1.673 0h-1.673Zm1.673 4.585a.836.836 0 1 0-1.673 0h1.673Zm-1.673 4.584a.836.836 0 1 0 1.673 0h-1.673Zm1.673 4.585a.836.836 0 1 0-1.673 0h1.673Zm-1.673 4.584a.836.836 0 1 0 1.673 0h-1.673Zm1.673 4.585a.836.836 0 1 0-1.673 0h1.673Zm-1.673 4.585a.836.836 0 1 0 1.673 0h-1.673Zm1.673 4.584a.836.836 0 1 0-1.673 0h1.673Zm-1.673 4.585a.837.837 0 1 0 1.673 0h-1.673Zm1.673 4.584a.836.836 0 1 0-1.673 0h1.673Zm-1.673 4.585a.837.837 0 1 0 1.673 0h-1.673Zm1.673 4.585a.836.836 0 1 0-1.673 0h1.673Zm-1.673 4.584a.837.837 0 1 0 1.673 0h-1.673Zm1.673 4.585a.836.836 0 1 0-1.673 0h1.673Zm-1.673-71.062v2.293h1.673v-2.293h-1.673Zm0 6.877v4.585h1.673v-4.585h-1.673Zm0 9.17v4.584h1.673V71.83h-1.673Zm0 9.169v4.584h1.673v-4.584h-1.673Zm0 9.169v4.585h1.673v-4.585h-1.673Zm0 9.17v4.584h1.673v-4.585h-1.673Zm0 9.168v4.585h1.673v-4.585h-1.673Zm0 9.17v4.584h1.673v-4.584h-1.673Zm0 9.169v2.292h1.673v-2.292h-1.673ZM196.916 112.401a4.463 4.463 0 1 0 8.926 0 4.463 4.463 0 0 0-8.926 0Zm3.626-75.383a.837.837 0 0 0 1.674 0h-1.674Zm1.674 4.307a.837.837 0 0 0-1.674 0h1.674Zm-1.674 4.308a.837.837 0 0 0 1.674 0h-1.674Zm1.674 4.308a.837.837 0 0 0-1.674 0h1.674Zm-1.674 4.307a.837.837 0 0 0 1.674 0h-1.674Zm1.674 4.308a.837.837 0 0 0-1.674 0h1.674Zm-1.674 4.308a.837.837 0 0 0 1.674 0h-1.674Zm1.674 4.307a.837.837 0 0 0-1.674 0h1.674Zm-1.674 4.308a.837.837 0 0 0 1.674 0h-1.674Zm1.674 4.308a.837.837 0 0 0-1.674 0h1.674Zm-1.674 4.307a.837.837 0 0 0 1.674 0h-1.674Zm1.674 4.308a.837.837 0 0 0-1.674 0h1.674Zm-1.674 4.307a.837.837 0 0 0 1.674 0h-1.674Zm1.674 4.308a.837.837 0 0 0-1.674 0h1.674Zm-1.674 4.308a.837.837 0 0 0 1.674 0h-1.674Zm1.674 4.307a.836.836 0 0 0-1.674 0h1.674Zm-1.674 4.308a.837.837 0 0 0 1.674 0h-1.674Zm1.674 4.308a.837.837 0 1 0-1.674 0h1.674Zm-1.674-75.384v2.154h1.674v-2.154h-1.674Zm0 6.461v4.308h1.674v-4.308h-1.674Zm0 8.616v4.307h1.674v-4.307h-1.674Zm0 8.615v4.308h1.674v-4.308h-1.674Zm0 8.615v4.308h1.674V67.17h-1.674Zm0 8.615v4.308h1.674v-4.307h-1.674Zm0 8.616v4.307h1.674v-4.307h-1.674Zm0 8.615v4.308h1.674v-4.308h-1.674Zm0 8.615v4.308h1.674v-4.308h-1.674Zm0 8.616v2.153h1.674v-2.153h-1.674ZM226.475 96.225a4.463 4.463 0 1 0 8.925 0 4.463 4.463 0 0 0-8.925 0Zm3.626-41.335a.836.836 0 1 0 1.673 0h-1.673Zm1.673 4.35a.836.836 0 1 0-1.673 0h1.673Zm-1.673 4.352a.836.836 0 1 0 1.673 0h-1.673Zm1.673 4.351a.836.836 0 1 0-1.673 0h1.673Zm-1.673 4.351a.836.836 0 1 0 1.673 0h-1.673Zm1.673 4.351a.836.836 0 1 0-1.673 0h1.673Zm-1.673 4.351a.836.836 0 1 0 1.673 0h-1.673Zm1.673 4.351a.836.836 0 1 0-1.673 0h1.673Zm-1.673 4.351a.836.836 0 1 0 1.673 0h-1.673Zm1.673 4.351a.836.836 0 1 0-1.673 0h1.673Zm-1.673-41.335v2.176h1.673v-2.176h-1.673Zm0 6.527v4.351h1.673v-4.351h-1.673Zm0 8.702v4.351h1.673v-4.351h-1.673Zm0 8.702v4.351h1.673v-4.351h-1.673Zm0 8.702v4.351h1.673v-4.35h-1.673Zm0 8.702v2.176h1.673v-2.176h-1.673Z"/><g filter="url(#aR)"><path stroke="#E1FEFF" stroke-linecap="round" stroke-linejoin="round" stroke-width="8.925" d="m264.687 35.143-33.47 12.551-30.122-19.803-30.402 23.987-28.727 67.775-29.286-9.204-30.402-11.156H25.102"/></g><defs><linearGradient id="a" x1="126.585" x2="110.723" y1="44.537" y2="234.032" gradientUnits="userSpaceOnUse"><stop offset=".026" stop-color="#DAF6FF"/><stop offset=".333" stop-color="#DBD1FD" stop-opacity=".788"/></linearGradient><linearGradient id="b" x1="177.667" x2="192.611" y1="170.694" y2="252.405" gradientUnits="userSpaceOnUse"><stop stop-color="#8791AB"/><stop offset="1" stop-color="#DCE3FF"/></linearGradient><linearGradient id="c" x1="90.025" x2="220.402" y1="159.559" y2="142.318" gradientUnits="userSpaceOnUse"><stop offset=".198" stop-color="#F2FDFF"/><stop offset="1" stop-color="#FFBFF1"/></linearGradient><linearGradient id="d" x1="121.104" x2="158.445" y1="137.908" y2="208.511" gradientUnits="userSpaceOnUse"><stop stop-color="#FEAFE7" stop-opacity=".76"/><stop offset=".083" stop-color="#fff" stop-opacity=".917"/><stop offset="1" stop-color="#E2F7FB" stop-opacity="0"/></linearGradient><linearGradient id="e" x1="157.68" x2="157.68" y1="109.514" y2="223.092" gradientUnits="userSpaceOnUse"><stop stop-color="#8892AC"/><stop offset="1" stop-color="#8180CE"/></linearGradient><linearGradient id="f" x1="256.035" x2="264.217" y1="96.242" y2="130.181" gradientUnits="userSpaceOnUse"><stop offset=".002" stop-color="#44DCFE"/><stop offset="1" stop-color="#3500D5"/></linearGradient><linearGradient id="g" x1="245.113" x2="236.325" y1="131.754" y2="114.274" gradientUnits="userSpaceOnUse"><stop stop-color="#077393" stop-opacity=".86"/><stop offset=".228" stop-color="#fff" stop-opacity=".6"/><stop offset="1" stop-color="#8CE0F0" stop-opacity="0"/></linearGradient><linearGradient id="h" x1="260.291" x2="231.07" y1="96.522" y2="96.522" gradientUnits="userSpaceOnUse"><stop stop-color="#0081A7" stop-opacity="0"/><stop offset=".209" stop-color="#EAEDFF" stop-opacity=".38"/><stop offset="1" stop-color="#D5DAFF"/></linearGradient><linearGradient id="i" x1="206.391" x2="204.186" y1="97.786" y2="137.161" gradientUnits="userSpaceOnUse"><stop offset=".002" stop-color="#fff"/><stop offset="1" stop-color="#5DE5FE"/></linearGradient><linearGradient id="j" x1="221.285" x2="232.175" y1="132.175" y2="113.127" gradientUnits="userSpaceOnUse"><stop stop-color="#57CEE4"/><stop offset=".109" stop-color="#fff" stop-opacity=".519"/><stop offset="1" stop-color="#DEF7FF"/></linearGradient><linearGradient id="k" x1="205.256" x2="232.065" y1="117.437" y2="117.437" gradientUnits="userSpaceOnUse"><stop stop-color="#7BD4E6"/><stop offset=".088" stop-color="#fff" stop-opacity=".51"/><stop offset="1" stop-color="#32C8FC" stop-opacity=".13"/></linearGradient><linearGradient id="l" x1="217.384" x2="217.384" y1="97.926" y2="122.35" gradientUnits="userSpaceOnUse"><stop offset=".05" stop-color="#F0DFF8" stop-opacity="0"/><stop offset="1" stop-color="#C2E0FC"/></linearGradient><linearGradient id="m" x1="206.391" x2="255.271" y1="96.177" y2="90.06" gradientUnits="userSpaceOnUse"><stop offset=".198" stop-color="#F2FDFF"/><stop offset="1" stop-color="#FFBFF1"/></linearGradient><linearGradient id="n" x1="218.022" x2="233.238" y1="87.615" y2="114.842" gradientUnits="userSpaceOnUse"><stop stop-color="#FEAFE7" stop-opacity=".76"/><stop offset=".083" stop-color="#fff" stop-opacity=".917"/><stop offset="1" stop-color="#E2F7FB" stop-opacity="0"/></linearGradient><linearGradient id="o" x1="246.108" x2="219.723" y1="87.474" y2="134.734" gradientUnits="userSpaceOnUse"><stop stop-color="#BB66E1"/><stop offset=".094" stop-color="#fff" stop-opacity="0"/><stop offset=".969" stop-color="#F8DBEC"/></linearGradient><linearGradient id="p" x1="226.469" x2="234.65" y1="112.418" y2="146.358" gradientUnits="userSpaceOnUse"><stop offset=".002" stop-color="#44DCFE"/><stop offset="1" stop-color="#3500D5"/></linearGradient><linearGradient id="q" x1="215.547" x2="206.759" y1="147.931" y2="130.451" gradientUnits="userSpaceOnUse"><stop stop-color="#077393" stop-opacity=".86"/><stop offset=".228" stop-color="#fff" stop-opacity=".6"/><stop offset="1" stop-color="#8CE0F0" stop-opacity="0"/></linearGradient><linearGradient id="r" x1="230.724" x2="201.504" y1="112.699" y2="112.699" gradientUnits="userSpaceOnUse"><stop stop-color="#0081A7" stop-opacity="0"/><stop offset=".209" stop-color="#EAEDFF" stop-opacity=".38"/><stop offset="1" stop-color="#D5DAFF"/></linearGradient><linearGradient id="s" x1="176.824" x2="174.619" y1="113.962" y2="153.338" gradientUnits="userSpaceOnUse"><stop offset=".002" stop-color="#fff"/><stop offset="1" stop-color="#5DE5FE"/></linearGradient><linearGradient id="t" x1="191.718" x2="202.609" y1="148.352" y2="129.304" gradientUnits="userSpaceOnUse"><stop stop-color="#57CEE4"/><stop offset=".109" stop-color="#fff" stop-opacity=".519"/><stop offset="1" stop-color="#DEF7FF"/></linearGradient><linearGradient id="u" x1="175.689" x2="202.498" y1="133.614" y2="133.614" gradientUnits="userSpaceOnUse"><stop stop-color="#7BD4E6"/><stop offset=".088" stop-color="#fff" stop-opacity=".51"/><stop offset="1" stop-color="#32C8FC" stop-opacity=".13"/></linearGradient><linearGradient id="v" x1="187.817" x2="187.817" y1="114.103" y2="138.526" gradientUnits="userSpaceOnUse"><stop offset=".05" stop-color="#F0DFF8" stop-opacity="0"/><stop offset="1" stop-color="#C2E0FC"/></linearGradient><linearGradient id="w" x1="176.824" x2="225.705" y1="112.354" y2="106.237" gradientUnits="userSpaceOnUse"><stop offset=".198" stop-color="#F2FDFF"/><stop offset="1" stop-color="#FFBFF1"/></linearGradient><linearGradient id="x" x1="188.456" x2="203.672" y1="103.791" y2="131.019" gradientUnits="userSpaceOnUse"><stop stop-color="#FEAFE7" stop-opacity=".76"/><stop offset=".083" stop-color="#fff" stop-opacity=".917"/><stop offset="1" stop-color="#E2F7FB" stop-opacity="0"/></linearGradient><linearGradient id="y" x1="216.541" x2="190.157" y1="103.651" y2="150.91" gradientUnits="userSpaceOnUse"><stop stop-color="#BB66E1"/><stop offset=".094" stop-color="#fff" stop-opacity="0"/><stop offset=".969" stop-color="#F8DBEC"/></linearGradient><linearGradient id="z" x1="196.906" x2="205.088" y1="129.153" y2="163.092" gradientUnits="userSpaceOnUse"><stop offset=".002" stop-color="#44DCFE"/><stop offset="1" stop-color="#3500D5"/></linearGradient><linearGradient id="A" x1="185.984" x2="177.196" y1="164.666" y2="147.186" gradientUnits="userSpaceOnUse"><stop stop-color="#077393" stop-opacity=".86"/><stop offset=".228" stop-color="#fff" stop-opacity=".6"/><stop offset="1" stop-color="#8CE0F0" stop-opacity="0"/></linearGradient><linearGradient id="B" x1="201.162" x2="171.941" y1="129.434" y2="129.434" gradientUnits="userSpaceOnUse"><stop stop-color="#0081A7" stop-opacity="0"/><stop offset=".209" stop-color="#EAEDFF" stop-opacity=".38"/><stop offset="1" stop-color="#D5DAFF"/></linearGradient><linearGradient id="C" x1="147.262" x2="145.057" y1="130.697" y2="170.072" gradientUnits="userSpaceOnUse"><stop offset=".002" stop-color="#fff"/><stop offset="1" stop-color="#5DE5FE"/></linearGradient><linearGradient id="D" x1="162.156" x2="173.046" y1="165.087" y2="146.038" gradientUnits="userSpaceOnUse"><stop stop-color="#57CEE4"/><stop offset=".109" stop-color="#fff" stop-opacity=".519"/><stop offset="1" stop-color="#DEF7FF"/></linearGradient><linearGradient id="E" x1="146.127" x2="172.936" y1="150.348" y2="150.348" gradientUnits="userSpaceOnUse"><stop stop-color="#7BD4E6"/><stop offset=".088" stop-color="#fff" stop-opacity=".51"/><stop offset="1" stop-color="#32C8FC" stop-opacity=".13"/></linearGradient><linearGradient id="F" x1="158.255" x2="158.255" y1="130.838" y2="155.261" gradientUnits="userSpaceOnUse"><stop offset=".05" stop-color="#F0DFF8" stop-opacity="0"/><stop offset="1" stop-color="#C2E0FC"/></linearGradient><linearGradient id="G" x1="147.262" x2="196.143" y1="129.088" y2="122.972" gradientUnits="userSpaceOnUse"><stop offset=".198" stop-color="#F2FDFF"/><stop offset="1" stop-color="#FFBFF1"/></linearGradient><linearGradient id="H" x1="158.893" x2="174.11" y1="120.526" y2="147.753" gradientUnits="userSpaceOnUse"><stop stop-color="#FEAFE7" stop-opacity=".76"/><stop offset=".083" stop-color="#fff" stop-opacity=".917"/><stop offset="1" stop-color="#E2F7FB" stop-opacity="0"/></linearGradient><linearGradient id="I" x1="186.979" x2="160.594" y1="120.386" y2="167.645" gradientUnits="userSpaceOnUse"><stop stop-color="#BB66E1"/><stop offset=".094" stop-color="#fff" stop-opacity="0"/><stop offset=".969" stop-color="#F8DBEC"/></linearGradient><linearGradient id="J" x1="167.34" x2="175.521" y1="145.33" y2="179.269" gradientUnits="userSpaceOnUse"><stop offset=".002" stop-color="#44DCFE"/><stop offset="1" stop-color="#3500D5"/></linearGradient><linearGradient id="K" x1="156.418" x2="147.63" y1="180.842" y2="163.363" gradientUnits="userSpaceOnUse"><stop stop-color="#077393" stop-opacity=".86"/><stop offset=".228" stop-color="#fff" stop-opacity=".6"/><stop offset="1" stop-color="#8CE0F0" stop-opacity="0"/></linearGradient><linearGradient id="L" x1="171.595" x2="142.375" y1="145.611" y2="145.611" gradientUnits="userSpaceOnUse"><stop stop-color="#0081A7" stop-opacity="0"/><stop offset=".209" stop-color="#EAEDFF" stop-opacity=".38"/><stop offset="1" stop-color="#D5DAFF"/></linearGradient><linearGradient id="M" x1="117.695" x2="115.49" y1="146.874" y2="186.249" gradientUnits="userSpaceOnUse"><stop offset=".002" stop-color="#fff"/><stop offset="1" stop-color="#5DE5FE"/></linearGradient><linearGradient id="N" x1="132.589" x2="143.48" y1="181.264" y2="162.215" gradientUnits="userSpaceOnUse"><stop stop-color="#57CEE4"/><stop offset=".109" stop-color="#fff" stop-opacity=".519"/><stop offset="1" stop-color="#DEF7FF"/></linearGradient><linearGradient id="O" x1="116.561" x2="143.37" y1="166.525" y2="166.525" gradientUnits="userSpaceOnUse"><stop stop-color="#7BD4E6"/><stop offset=".088" stop-color="#fff" stop-opacity=".51"/><stop offset="1" stop-color="#32C8FC" stop-opacity=".13"/></linearGradient><linearGradient id="P" x1="128.688" x2="128.688" y1="147.014" y2="171.438" gradientUnits="userSpaceOnUse"><stop offset=".05" stop-color="#F0DFF8" stop-opacity="0"/><stop offset="1" stop-color="#C2E0FC"/></linearGradient><linearGradient id="Q" x1="117.695" x2="166.576" y1="145.265" y2="139.149" gradientUnits="userSpaceOnUse"><stop offset=".198" stop-color="#F2FDFF"/><stop offset="1" stop-color="#FFBFF1"/></linearGradient><linearGradient id="R" x1="129.327" x2="144.543" y1="136.703" y2="163.93" gradientUnits="userSpaceOnUse"><stop stop-color="#FEAFE7" stop-opacity=".76"/><stop offset=".083" stop-color="#fff" stop-opacity=".917"/><stop offset="1" stop-color="#E2F7FB" stop-opacity="0"/></linearGradient><linearGradient id="S" x1="157.412" x2="131.028" y1="136.563" y2="183.822" gradientUnits="userSpaceOnUse"><stop stop-color="#BB66E1"/><stop offset=".094" stop-color="#fff" stop-opacity="0"/><stop offset=".969" stop-color="#F8DBEC"/></linearGradient><linearGradient id="T" x1="137.777" x2="145.959" y1="161.507" y2="195.446" gradientUnits="userSpaceOnUse"><stop offset=".002" stop-color="#44DCFE"/><stop offset="1" stop-color="#3500D5"/></linearGradient><linearGradient id="U" x1="126.855" x2="118.067" y1="197.019" y2="179.539" gradientUnits="userSpaceOnUse"><stop stop-color="#077393" stop-opacity=".86"/><stop offset=".228" stop-color="#fff" stop-opacity=".6"/><stop offset="1" stop-color="#8CE0F0" stop-opacity="0"/></linearGradient><linearGradient id="V" x1="142.033" x2="112.812" y1="161.788" y2="161.788" gradientUnits="userSpaceOnUse"><stop stop-color="#0081A7" stop-opacity="0"/><stop offset=".209" stop-color="#EAEDFF" stop-opacity=".38"/><stop offset="1" stop-color="#D5DAFF"/></linearGradient><linearGradient id="W" x1="88.133" x2="85.928" y1="163.051" y2="202.426" gradientUnits="userSpaceOnUse"><stop offset=".002" stop-color="#fff"/><stop offset="1" stop-color="#5DE5FE"/></linearGradient><linearGradient id="X" x1="103.027" x2="113.917" y1="197.44" y2="178.392" gradientUnits="userSpaceOnUse"><stop stop-color="#57CEE4"/><stop offset=".109" stop-color="#fff" stop-opacity=".519"/><stop offset="1" stop-color="#DEF7FF"/></linearGradient><linearGradient id="Y" x1="86.998" x2="113.807" y1="182.702" y2="182.702" gradientUnits="userSpaceOnUse"><stop stop-color="#7BD4E6"/><stop offset=".088" stop-color="#fff" stop-opacity=".51"/><stop offset="1" stop-color="#32C8FC" stop-opacity=".13"/></linearGradient><linearGradient id="Z" x1="99.126" x2="99.126" y1="163.191" y2="187.615" gradientUnits="userSpaceOnUse"><stop offset=".05" stop-color="#F0DFF8" stop-opacity="0"/><stop offset="1" stop-color="#C2E0FC"/></linearGradient><linearGradient id="aa" x1="88.133" x2="137.014" y1="161.442" y2="155.325" gradientUnits="userSpaceOnUse"><stop offset=".198" stop-color="#F2FDFF"/><stop offset="1" stop-color="#FFBFF1"/></linearGradient><linearGradient id="ab" x1="99.764" x2="114.981" y1="152.88" y2="180.107" gradientUnits="userSpaceOnUse"><stop stop-color="#FEAFE7" stop-opacity=".76"/><stop offset=".083" stop-color="#fff" stop-opacity=".917"/><stop offset="1" stop-color="#E2F7FB" stop-opacity="0"/></linearGradient><linearGradient id="ac" x1="127.85" x2="101.466" y1="152.74" y2="199.999" gradientUnits="userSpaceOnUse"><stop stop-color="#BB66E1"/><stop offset=".094" stop-color="#fff" stop-opacity="0"/><stop offset=".969" stop-color="#F8DBEC"/></linearGradient><linearGradient id="ad" x1="108.211" x2="116.393" y1="177.684" y2="211.623" gradientUnits="userSpaceOnUse"><stop offset=".002" stop-color="#44DCFE"/><stop offset="1" stop-color="#3500D5"/></linearGradient><linearGradient id="ae" x1="97.289" x2="88.501" y1="213.196" y2="195.716" gradientUnits="userSpaceOnUse"><stop stop-color="#077393" stop-opacity=".86"/><stop offset=".228" stop-color="#fff" stop-opacity=".6"/><stop offset="1" stop-color="#8CE0F0" stop-opacity="0"/></linearGradient><linearGradient id="af" x1="112.466" x2="83.246" y1="177.964" y2="177.964" gradientUnits="userSpaceOnUse"><stop stop-color="#0081A7" stop-opacity="0"/><stop offset=".209" stop-color="#EAEDFF" stop-opacity=".38"/><stop offset="1" stop-color="#D5DAFF"/></linearGradient><linearGradient id="ag" x1="58.566" x2="56.361" y1="179.228" y2="218.603" gradientUnits="userSpaceOnUse"><stop offset=".002" stop-color="#fff"/><stop offset="1" stop-color="#5DE5FE"/></linearGradient><linearGradient id="ah" x1="73.46" x2="84.351" y1="213.617" y2="194.569" gradientUnits="userSpaceOnUse"><stop stop-color="#57CEE4"/><stop offset=".109" stop-color="#fff" stop-opacity=".519"/><stop offset="1" stop-color="#DEF7FF"/></linearGradient><linearGradient id="ai" x1="57.432" x2="84.241" y1="198.879" y2="198.879" gradientUnits="userSpaceOnUse"><stop stop-color="#7BD4E6"/><stop offset=".088" stop-color="#fff" stop-opacity=".51"/><stop offset="1" stop-color="#32C8FC" stop-opacity=".13"/></linearGradient><linearGradient id="aj" x1="69.559" x2="69.559" y1="179.368" y2="203.792" gradientUnits="userSpaceOnUse"><stop offset=".05" stop-color="#F0DFF8" stop-opacity="0"/><stop offset="1" stop-color="#C2E0FC"/></linearGradient><linearGradient id="ak" x1="58.566" x2="107.447" y1="177.619" y2="171.502" gradientUnits="userSpaceOnUse"><stop offset=".198" stop-color="#F2FDFF"/><stop offset="1" stop-color="#FFBFF1"/></linearGradient><linearGradient id="al" x1="70.198" x2="85.414" y1="169.057" y2="196.284" gradientUnits="userSpaceOnUse"><stop stop-color="#FEAFE7" stop-opacity=".76"/><stop offset=".083" stop-color="#fff" stop-opacity=".917"/><stop offset="1" stop-color="#E2F7FB" stop-opacity="0"/></linearGradient><linearGradient id="am" x1="98.283" x2="71.899" y1="168.916" y2="216.176" gradientUnits="userSpaceOnUse"><stop stop-color="#BB66E1"/><stop offset=".094" stop-color="#fff" stop-opacity="0"/><stop offset=".969" stop-color="#F8DBEC"/></linearGradient><linearGradient id="au" x1="83.114" x2="136.373" y1="194.743" y2="208.262" gradientUnits="userSpaceOnUse"><stop offset=".198" stop-color="#F2FDFF"/><stop offset="1" stop-color="#FFBFF1"/></linearGradient><linearGradient id="av" x1="97.338" x2="131.957" y1="198.922" y2="218.364" gradientUnits="userSpaceOnUse"><stop stop-color="#BDF2FF"/><stop offset=".425" stop-color="#FFFDEA"/><stop offset="1" stop-color="#E2F7FB" stop-opacity="0"/></linearGradient><linearGradient id="aw" x1="132.76" x2="126.852" y1="212.852" y2="223.075" gradientUnits="userSpaceOnUse"><stop stop-color="#BB66E1"/><stop offset=".094" stop-color="#fff" stop-opacity="0"/><stop offset=".969" stop-color="#F8DBEC"/></linearGradient><linearGradient id="ay" x1="112.122" x2="165.38" y1="178.584" y2="192.103" gradientUnits="userSpaceOnUse"><stop offset=".198" stop-color="#F2FDFF"/><stop offset="1" stop-color="#FFBFF1"/></linearGradient><linearGradient id="az" x1="126.346" x2="160.965" y1="182.763" y2="202.205" gradientUnits="userSpaceOnUse"><stop stop-color="#BDF2FF"/><stop offset=".425" stop-color="#FFFDEA"/><stop offset="1" stop-color="#E2F7FB" stop-opacity="0"/></linearGradient><linearGradient id="aA" x1="161.768" x2="155.86" y1="196.693" y2="206.917" gradientUnits="userSpaceOnUse"><stop stop-color="#BB66E1"/><stop offset=".094" stop-color="#fff" stop-opacity="0"/><stop offset=".969" stop-color="#F8DBEC"/></linearGradient><linearGradient id="aC" x1="140.571" x2="193.83" y1="162.425" y2="175.944" gradientUnits="userSpaceOnUse"><stop offset=".198" stop-color="#F2FDFF"/><stop offset="1" stop-color="#FFBFF1"/></linearGradient><linearGradient id="aD" x1="154.795" x2="189.414" y1="166.604" y2="186.046" gradientUnits="userSpaceOnUse"><stop stop-color="#BDF2FF"/><stop offset=".425" stop-color="#FFFDEA"/><stop offset="1" stop-color="#E2F7FB" stop-opacity="0"/></linearGradient><linearGradient id="aE" x1="190.217" x2="184.309" y1="180.534" y2="190.758" gradientUnits="userSpaceOnUse"><stop stop-color="#BB66E1"/><stop offset=".094" stop-color="#fff" stop-opacity="0"/><stop offset=".969" stop-color="#F8DBEC"/></linearGradient><linearGradient id="aG" x1="229.821" x2="283.08" y1="112.277" y2="125.796" gradientUnits="userSpaceOnUse"><stop offset=".198" stop-color="#F2FDFF"/><stop offset="1" stop-color="#FFBFF1"/></linearGradient><linearGradient id="aH" x1="244.045" x2="278.664" y1="116.456" y2="135.898" gradientUnits="userSpaceOnUse"><stop stop-color="#BDF2FF"/><stop offset=".425" stop-color="#FFFDEA"/><stop offset="1" stop-color="#E2F7FB" stop-opacity="0"/></linearGradient><linearGradient id="aI" x1="279.467" x2="273.559" y1="130.386" y2="140.609" gradientUnits="userSpaceOnUse"><stop stop-color="#BB66E1"/><stop offset=".094" stop-color="#fff" stop-opacity="0"/><stop offset=".969" stop-color="#F8DBEC"/></linearGradient><linearGradient id="aK" x1="172.368" x2="225.627" y1="144.594" y2="158.114" gradientUnits="userSpaceOnUse"><stop offset=".198" stop-color="#F2FDFF"/><stop offset="1" stop-color="#FFBFF1"/></linearGradient><linearGradient id="aL" x1="186.592" x2="221.211" y1="148.773" y2="168.216" gradientUnits="userSpaceOnUse"><stop stop-color="#BDF2FF"/><stop offset=".425" stop-color="#FFFDEA"/><stop offset="1" stop-color="#E2F7FB" stop-opacity="0"/></linearGradient><linearGradient id="aM" x1="222.014" x2="216.106" y1="162.703" y2="172.927" gradientUnits="userSpaceOnUse"><stop stop-color="#BB66E1"/><stop offset=".094" stop-color="#fff" stop-opacity="0"/><stop offset=".969" stop-color="#F8DBEC"/></linearGradient><linearGradient id="aO" x1="201.376" x2="254.634" y1="128.435" y2="141.955" gradientUnits="userSpaceOnUse"><stop offset=".198" stop-color="#F2FDFF"/><stop offset="1" stop-color="#FFBFF1"/></linearGradient><linearGradient id="aP" x1="215.6" x2="250.219" y1="132.614" y2="152.057" gradientUnits="userSpaceOnUse"><stop stop-color="#BDF2FF"/><stop offset=".425" stop-color="#FFFDEA"/><stop offset="1" stop-color="#E2F7FB" stop-opacity="0"/></linearGradient><linearGradient id="aQ" x1="251.022" x2="245.114" y1="146.545" y2="156.768" gradientUnits="userSpaceOnUse"><stop stop-color="#BB66E1"/><stop offset=".094" stop-color="#fff" stop-opacity="0"/><stop offset=".969" stop-color="#F8DBEC"/></linearGradient><filter id="at" width="48.25" height="30.078" x="92.039" y="195.578" color-interpolation-filters="sRGB" filterUnits="userSpaceOnUse"><feFlood flood-opacity="0" result="BackgroundImageFix"/><feColorMatrix in="SourceAlpha" result="hardAlpha" values="0 0 0 0 0 0 0 0 0 0 0 0 0 0 0 0 0 0 127 0"/><feOffset dy="2.231"/><feComposite in2="hardAlpha" operator="out"/><feColorMatrix values="0 0 0 0 0.733333 0 0 0 0 0.4 0 0 0 0 0.882353 0 0 0 0.43 0"/><feBlend in2="BackgroundImageFix" result="effect1_dropShadow_5409_114319"/><feColorMatrix in="SourceAlpha" result="hardAlpha" values="0 0 0 0 0 0 0 0 0 0 0 0 0 0 0 0 0 0 127 0"/><feOffset dy=".558"/><feComposite in2="hardAlpha" operator="out"/><feColorMatrix values="0 0 0 0 0.478431 0 0 0 0 0.47451 0 0 0 0 0.643137 0 0 0 1 0"/><feBlend in2="effect1_dropShadow_5409_114319" result="effect2_dropShadow_5409_114319"/><feBlend in="SourceGraphic" in2="effect2_dropShadow_5409_114319" result="shape"/></filter><filter id="ax" width="76.144" height="45.958" x="121.047" y="179.42" color-interpolation-filters="sRGB" filterUnits="userSpaceOnUse"><feFlood flood-opacity="0" result="BackgroundImageFix"/><feColorMatrix in="SourceAlpha" result="hardAlpha" values="0 0 0 0 0 0 0 0 0 0 0 0 0 0 0 0 0 0 127 0"/><feOffset dy="2.231"/><feComposite in2="hardAlpha" operator="out"/><feColorMatrix values="0 0 0 0 0.733333 0 0 0 0 0.4 0 0 0 0 0.882353 0 0 0 0.43 0"/><feBlend in2="BackgroundImageFix" result="effect1_dropShadow_5409_114319"/><feColorMatrix in="SourceAlpha" result="hardAlpha" values="0 0 0 0 0 0 0 0 0 0 0 0 0 0 0 0 0 0 127 0"/><feOffset dy=".558"/><feComposite in2="hardAlpha" operator="out"/><feColorMatrix values="0 0 0 0 0.478431 0 0 0 0 0.47451 0 0 0 0 0.643137 0 0 0 1 0"/><feBlend in2="effect1_dropShadow_5409_114319" result="effect2_dropShadow_5409_114319"/><feBlend in="SourceGraphic" in2="effect2_dropShadow_5409_114319" result="shape"/></filter><filter id="aB" width="58.012" height="35.663" x="149.496" y="163.261" color-interpolation-filters="sRGB" filterUnits="userSpaceOnUse"><feFlood flood-opacity="0" result="BackgroundImageFix"/><feColorMatrix in="SourceAlpha" result="hardAlpha" values="0 0 0 0 0 0 0 0 0 0 0 0 0 0 0 0 0 0 127 0"/><feOffset dy="2.231"/><feComposite in2="hardAlpha" operator="out"/><feColorMatrix values="0 0 0 0 0.733333 0 0 0 0 0.4 0 0 0 0 0.882353 0 0 0 0.43 0"/><feBlend in2="BackgroundImageFix" result="effect1_dropShadow_5409_114319"/><feColorMatrix in="SourceAlpha" result="hardAlpha" values="0 0 0 0 0 0 0 0 0 0 0 0 0 0 0 0 0 0 127 0"/><feOffset dy=".558"/><feComposite in2="hardAlpha" operator="out"/><feColorMatrix values="0 0 0 0 0.478431 0 0 0 0 0.47451 0 0 0 0 0.643137 0 0 0 1 0"/><feBlend in2="effect1_dropShadow_5409_114319" result="effect2_dropShadow_5409_114319"/><feBlend in="SourceGraphic" in2="effect2_dropShadow_5409_114319" result="shape"/></filter><filter id="aF" width="58.012" height="35.663" x="238.746" y="113.112" color-interpolation-filters="sRGB" filterUnits="userSpaceOnUse"><feFlood flood-opacity="0" result="BackgroundImageFix"/><feColorMatrix in="SourceAlpha" result="hardAlpha" values="0 0 0 0 0 0 0 0 0 0 0 0 0 0 0 0 0 0 127 0"/><feOffset dy="2.231"/><feComposite in2="hardAlpha" operator="out"/><feColorMatrix values="0 0 0 0 0.733333 0 0 0 0 0.4 0 0 0 0 0.882353 0 0 0 0.43 0"/><feBlend in2="BackgroundImageFix" result="effect1_dropShadow_5409_114319"/><feColorMatrix in="SourceAlpha" result="hardAlpha" values="0 0 0 0 0 0 0 0 0 0 0 0 0 0 0 0 0 0 127 0"/><feOffset dy=".558"/><feComposite in2="hardAlpha" operator="out"/><feColorMatrix values="0 0 0 0 0.478431 0 0 0 0 0.47451 0 0 0 0 0.643137 0 0 0 1 0"/><feBlend in2="effect1_dropShadow_5409_114319" result="effect2_dropShadow_5409_114319"/><feBlend in="SourceGraphic" in2="effect2_dropShadow_5409_114319" result="shape"/></filter><filter id="aJ" width="41" height="25.912" x="181.293" y="145.43" color-interpolation-filters="sRGB" filterUnits="userSpaceOnUse"><feFlood flood-opacity="0" result="BackgroundImageFix"/><feColorMatrix in="SourceAlpha" result="hardAlpha" values="0 0 0 0 0 0 0 0 0 0 0 0 0 0 0 0 0 0 127 0"/><feOffset dy="2.231"/><feComposite in2="hardAlpha" operator="out"/><feColorMatrix values="0 0 0 0 0.733333 0 0 0 0 0.4 0 0 0 0 0.882353 0 0 0 0.43 0"/><feBlend in2="BackgroundImageFix" result="effect1_dropShadow_5409_114319"/><feColorMatrix in="SourceAlpha" result="hardAlpha" values="0 0 0 0 0 0 0 0 0 0 0 0 0 0 0 0 0 0 127 0"/><feOffset dy=".558"/><feComposite in2="hardAlpha" operator="out"/><feColorMatrix values="0 0 0 0 0.478431 0 0 0 0 0.47451 0 0 0 0 0.643137 0 0 0 1 0"/><feBlend in2="effect1_dropShadow_5409_114319" result="effect2_dropShadow_5409_114319"/><feBlend in="SourceGraphic" in2="effect2_dropShadow_5409_114319" result="shape"/></filter><filter id="aN" width="41" height="25.912" x="210.301" y="129.271" color-interpolation-filters="sRGB" filterUnits="userSpaceOnUse"><feFlood flood-opacity="0" result="BackgroundImageFix"/><feColorMatrix in="SourceAlpha" result="hardAlpha" values="0 0 0 0 0 0 0 0 0 0 0 0 0 0 0 0 0 0 127 0"/><feOffset dy="2.231"/><feComposite in2="hardAlpha" operator="out"/><feColorMatrix values="0 0 0 0 0.733333 0 0 0 0 0.4 0 0 0 0 0.882353 0 0 0 0.43 0"/><feBlend in2="BackgroundImageFix" result="effect1_dropShadow_5409_114319"/><feColorMatrix in="SourceAlpha" result="hardAlpha" values="0 0 0 0 0 0 0 0 0 0 0 0 0 0 0 0 0 0 127 0"/><feOffset dy=".558"/><feComposite in2="hardAlpha" operator="out"/><feColorMatrix values="0 0 0 0 0.478431 0 0 0 0 0.47451 0 0 0 0 0.643137 0 0 0 1 0"/><feBlend in2="effect1_dropShadow_5409_114319" result="effect2_dropShadow_5409_114319"/><feBlend in="SourceGraphic" in2="effect2_dropShadow_5409_114319" result="shape"/></filter><filter id="aR" width="250.181" height="107.94" x="20.641" y="21.755" color-interpolation-filters="sRGB" filterUnits="userSpaceOnUse"><feFlood flood-opacity="0" result="BackgroundImageFix"/><feColorMatrix in="SourceAlpha" result="hardAlpha" values="0 0 0 0 0 0 0 0 0 0 0 0 0 0 0 0 0 0 127 0"/><feOffset dx="1.673" dy="5.578"/><feComposite in2="hardAlpha" operator="out"/><feColorMatrix values="0 0 0 0 0.498039 0 0 0 0 0.623529 0 0 0 0 0.784314 0 0 0 0.24 0"/><feBlend in2="BackgroundImageFix" result="effect1_dropShadow_5409_114319"/><feBlend in="SourceGraphic" in2="effect1_dropShadow_5409_114319" result="shape"/><feColorMatrix in="SourceAlpha" result="hardAlpha" values="0 0 0 0 0 0 0 0 0 0 0 0 0 0 0 0 0 0 127 0"/><feOffset dx=".558" dy=".558"/><feComposite in2="hardAlpha" k2="-1" k3="1" operator="arithmetic"/><feColorMatrix values="0 0 0 0 1 0 0 0 0 1 0 0 0 0 1 0 0 0 1 0"/><feBlend in2="shape" result="effect2_innerShadow_5409_114319"/><feColorMatrix in="SourceAlpha" result="hardAlpha" values="0 0 0 0 0 0 0 0 0 0 0 0 0 0 0 0 0 0 127 0"/><feOffset dx="1.116" dy="-1.673"/><feGaussianBlur stdDeviation=".837"/><feComposite in2="hardAlpha" k2="-1" k3="1" operator="arithmetic"/><feColorMatrix values="0 0 0 0 0.02 0 0 0 0 0 0 0 0 0 1 0 0 0 0.25 0"/><feBlend in2="effect2_innerShadow_5409_114319" result="effect3_innerShadow_5409_114319"/></filter><radialGradient id="an" cx="0" cy="0" r="1" gradientTransform="rotate(-139.633 87.202 82.085) scale(11.162 15.4337)" gradientUnits="userSpaceOnUse"><stop offset=".002" stop-color="#fff" stop-opacity="0"/><stop offset="1" stop-color="#B4C3FF"/></radialGradient><radialGradient id="ao" cx="0" cy="0" r="1" gradientTransform="rotate(-139.633 98.733 68.665) scale(11.162 15.4337)" gradientUnits="userSpaceOnUse"><stop offset=".002" stop-color="#fff" stop-opacity="0"/><stop offset="1" stop-color="#B4C3FF"/></radialGradient><radialGradient id="ap" cx="0" cy="0" r="1" gradientTransform="rotate(-139.633 110.539 55.144) scale(11.162 15.4337)" gradientUnits="userSpaceOnUse"><stop offset=".002" stop-color="#fff" stop-opacity="0"/><stop offset="1" stop-color="#B4C3FF"/></radialGradient><radialGradient id="aq" cx="0" cy="0" r="1" gradientTransform="rotate(-139.633 122.144 41.063) scale(11.162 15.4337)" gradientUnits="userSpaceOnUse"><stop offset=".002" stop-color="#fff" stop-opacity="0"/><stop offset="1" stop-color="#B4C3FF"/></radialGradient><radialGradient id="ar" cx="0" cy="0" r="1" gradientTransform="rotate(-139.633 134.233 27.438) scale(11.162 15.4337)" gradientUnits="userSpaceOnUse"><stop offset=".002" stop-color="#fff" stop-opacity="0"/><stop offset="1" stop-color="#B4C3FF"/></radialGradient><radialGradient id="as" cx="0" cy="0" r="1" gradientTransform="rotate(-139.633 145.764 14.017) scale(11.162 15.4337)" gradientUnits="userSpaceOnUse"><stop offset=".002" stop-color="#fff" stop-opacity="0"/><stop offset="1" stop-color="#B4C3FF"/></radialGradient></defs></svg>
