<svg width="588" height="472" viewBox="0 0 588 472" fill="none" xmlns="http://www.w3.org/2000/svg">
<g clip-path="url(#clip0_4563_107716)">
<rect width="588" height="472" fill="white"/>
<path d="M151.683 387.753C114.987 405.811 25.7905 345.909 11.44 316.746C-23.6524 264.931 60.7517 226.641 112.993 213.441C137.936 207.139 165.474 213.359 179.825 242.521C204.017 291.682 188.379 369.696 151.683 387.753Z" fill="url(#paint0_linear_4563_107716)"/>
<path d="M580.473 185.756C620.247 53.1569 380.33 27.2898 279.426 61.8913C6.44157 155.502 414.355 739.564 580.473 185.756Z" fill="url(#paint1_linear_4563_107716)"/>
<path d="M274.5 174.922L45 307.422L274.5 439.922L504 307.422L274.5 174.922Z" fill="url(#paint2_linear_4563_107716)"/>
<path d="M274.5 158.922L45 291.422L274.5 423.922L504 291.422L274.5 158.922Z" fill="#E1FEFF"/>
<path d="M356.277 306.458V277.299L274.172 324.168L274.172 352.922L356.277 306.458Z" fill="url(#paint3_linear_4563_107716)"/>
<path d="M356.277 306.458V277.299L274.172 324.168L274.172 352.922L356.277 306.458Z" fill="url(#paint4_linear_4563_107716)" fill-opacity="0.53"/>
<path d="M356.277 306.458V277.299L274.172 324.168L274.172 352.922L356.277 306.458Z" fill="url(#paint5_linear_4563_107716)" fill-opacity="0.62"/>
<path d="M274.173 324.168V352.922L193 306.514V277.76L274.173 324.168Z" fill="#DCE3FF"/>
<path d="M274.639 230.922L193 277.76L274.173 324.172L356.278 277.298L274.639 230.922Z" fill="url(#paint6_linear_4563_107716)"/>
<path d="M274.639 230.922L193 277.76L274.173 324.172L356.278 277.298L274.639 230.922Z" fill="url(#paint7_linear_4563_107716)"/>
<path d="M274.639 230.922L193 277.76L274.173 324.172L356.278 277.298L274.639 230.922Z" fill="url(#paint8_linear_4563_107716)"/>
<g filter="url(#filter0_d_4563_107716)">
<path d="M201.138 294.922L168.512 312.431C164.365 314.656 164.278 320.572 168.357 322.918L214.748 349.607C218.332 351.669 222.725 351.741 226.375 349.796L263 330.28L201.138 294.922Z" fill="#FFDCFE"/>
</g>
<g filter="url(#filter1_i_4563_107716)">
<path d="M198.299 299.922L172.305 313.884C169.548 315.364 169.482 319.294 172.187 320.866L214.68 345.562C218.274 347.65 222.693 347.73 226.36 345.773L253 331.554L198.299 299.922Z" fill="#FF7272"/>
</g>
<g filter="url(#filter2_i_4563_107716)">
<path d="M204.081 317.978L203.549 327.095L221.722 321.422" stroke="white" stroke-width="4" stroke-linecap="round" stroke-linejoin="round"/>
</g>
<g filter="url(#filter3_i_4563_107716)">
<path d="M275 254.922L236 277.524L274.777 299.922L314 277.302L275 254.922Z" fill="#8791AB"/>
</g>
<path opacity="0.8" d="M275 29.9216L114 123.346L274.08 215.922L436 122.425L275 29.9216Z" stroke="#7F9FC8" stroke-width="3" stroke-dasharray="8 8"/>
<path opacity="0.8" d="M275 140.922L173 200.191L274.417 258.922L377 199.607L275 140.922Z" stroke="#7F9FC8" stroke-width="3" stroke-dasharray="8 8"/>
<path opacity="0.2" d="M274.5 298.922V29.4216L436.5 122.922L313.5 277.422L274.5 298.922Z" fill="url(#paint9_linear_4563_107716)"/>
<path opacity="0.2" d="M274.5 298.922V29.9216L113.5 122.922L236 277.422L274.5 298.922Z" fill="url(#paint10_linear_4563_107716)"/>
<path opacity="0.2" d="M274.5 298.922V215.922L436.5 122.922L313.5 277.422L274.5 298.922Z" fill="url(#paint11_linear_4563_107716)"/>
<path opacity="0.2" d="M274.5 298.922V215.922L113 122.422L236 277.422L274.5 298.922Z" fill="url(#paint12_linear_4563_107716)"/>
<g filter="url(#filter4_d_4563_107716)">
<path d="M208.074 243.588L276.241 282.792L346.188 243.587" stroke="white" stroke-width="6" stroke-linecap="round"/>
</g>
<g filter="url(#filter5_d_4563_107716)">
<path d="M231 133.656L231.774 85.585L275.5 60.9216L320 86.1873V133.656L275.113 158.922L231 133.656Z" stroke="white" stroke-width="4" stroke-linecap="round" shape-rendering="crispEdges"/>
</g>
<path d="M320 133.595V86.2007L275.246 111.748L275.246 158.922L320 133.595Z" fill="url(#paint13_linear_4563_107716)"/>
<path d="M320 133.595V86.2007L275.246 111.748L275.246 158.922L320 133.595Z" fill="url(#paint14_linear_4563_107716)"/>
<path d="M320 133.595V86.2007L275.246 111.748L275.246 158.922L320 133.595Z" fill="url(#paint15_linear_4563_107716)"/>
<path d="M275.246 111.748V158.922L231 133.626V86.4522L275.246 111.748Z" fill="url(#paint16_linear_4563_107716)"/>
<path d="M275.246 111.748V158.922L231 133.626V86.4522L275.246 111.748Z" fill="url(#paint17_linear_4563_107716)"/>
<path d="M275.246 111.748V158.922L231 133.626V86.4522L275.246 111.748Z" fill="url(#paint18_linear_4563_107716)"/>
<path opacity="0.78" d="M270.414 111.363L231 133.255V89.4717L270.414 111.363Z" fill="url(#paint19_linear_4563_107716)"/>
<path d="M275.5 60.9216L231 86.4522L275.246 111.751L320 86.2006L275.5 60.9216Z" fill="url(#paint20_linear_4563_107716)"/>
<path d="M275.5 60.9216L231 86.4522L275.246 111.751L320 86.2006L275.5 60.9216Z" fill="url(#paint21_linear_4563_107716)"/>
<path d="M275.5 60.9216L231 86.4522L275.246 111.751L320 86.2006L275.5 60.9216Z" fill="url(#paint22_linear_4563_107716)"/>
</g>
<defs>
<filter id="filter0_d_4563_107716" x="165.348" y="294.922" width="97.6523" height="60.2839" filterUnits="userSpaceOnUse" color-interpolation-filters="sRGB">
<feFlood flood-opacity="0" result="BackgroundImageFix"/>
<feColorMatrix in="SourceAlpha" type="matrix" values="0 0 0 0 0 0 0 0 0 0 0 0 0 0 0 0 0 0 127 0" result="hardAlpha"/>
<feOffset dy="4"/>
<feComposite in2="hardAlpha" operator="out"/>
<feColorMatrix type="matrix" values="0 0 0 0 0.529412 0 0 0 0 0.568627 0 0 0 0 0.670588 0 0 0 1 0"/>
<feBlend mode="normal" in2="BackgroundImageFix" result="effect1_dropShadow_4563_107716"/>
<feBlend mode="normal" in="SourceGraphic" in2="effect1_dropShadow_4563_107716" result="shape"/>
</filter>
<filter id="filter1_i_4563_107716" x="170.195" y="299.922" width="82.8047" height="47.2651" filterUnits="userSpaceOnUse" color-interpolation-filters="sRGB">
<feFlood flood-opacity="0" result="BackgroundImageFix"/>
<feBlend mode="normal" in="SourceGraphic" in2="BackgroundImageFix" result="shape"/>
<feColorMatrix in="SourceAlpha" type="matrix" values="0 0 0 0 0 0 0 0 0 0 0 0 0 0 0 0 0 0 127 0" result="hardAlpha"/>
<feOffset dx="2" dy="-1"/>
<feComposite in2="hardAlpha" operator="arithmetic" k2="-1" k3="1"/>
<feColorMatrix type="matrix" values="0 0 0 0 0 0 0 0 0 0 0 0 0 0 0 0 0 0 0.25 0"/>
<feBlend mode="normal" in2="shape" result="effect1_innerShadow_4563_107716"/>
</filter>
<filter id="filter2_i_4563_107716" x="201.551" y="315.978" width="22.1719" height="13.1169" filterUnits="userSpaceOnUse" color-interpolation-filters="sRGB">
<feFlood flood-opacity="0" result="BackgroundImageFix"/>
<feBlend mode="normal" in="SourceGraphic" in2="BackgroundImageFix" result="shape"/>
<feColorMatrix in="SourceAlpha" type="matrix" values="0 0 0 0 0 0 0 0 0 0 0 0 0 0 0 0 0 0 127 0" result="hardAlpha"/>
<feOffset dx="-2"/>
<feComposite in2="hardAlpha" operator="arithmetic" k2="-1" k3="1"/>
<feColorMatrix type="matrix" values="0 0 0 0 0.5125 0 0 0 0 0.91236 0 0 0 0 1 0 0 0 1 0"/>
<feBlend mode="normal" in2="shape" result="effect1_innerShadow_4563_107716"/>
</filter>
<filter id="filter3_i_4563_107716" x="236" y="254.922" width="78" height="45" filterUnits="userSpaceOnUse" color-interpolation-filters="sRGB">
<feFlood flood-opacity="0" result="BackgroundImageFix"/>
<feBlend mode="normal" in="SourceGraphic" in2="BackgroundImageFix" result="shape"/>
<feColorMatrix in="SourceAlpha" type="matrix" values="0 0 0 0 0 0 0 0 0 0 0 0 0 0 0 0 0 0 127 0" result="hardAlpha"/>
<feOffset dy="2"/>
<feComposite in2="hardAlpha" operator="arithmetic" k2="-1" k3="1"/>
<feColorMatrix type="matrix" values="0 0 0 0 0 0 0 0 0 0 0 0 0 0 0 0 0 0 0.25 0"/>
<feBlend mode="normal" in2="shape" result="effect1_innerShadow_4563_107716"/>
</filter>
<filter id="filter4_d_4563_107716" x="193.074" y="230.586" width="168.113" height="69.6553" filterUnits="userSpaceOnUse" color-interpolation-filters="sRGB">
<feFlood flood-opacity="0" result="BackgroundImageFix"/>
<feColorMatrix in="SourceAlpha" type="matrix" values="0 0 0 0 0 0 0 0 0 0 0 0 0 0 0 0 0 0 127 0" result="hardAlpha"/>
<feOffset dy="2"/>
<feGaussianBlur stdDeviation="6"/>
<feComposite in2="hardAlpha" operator="out"/>
<feColorMatrix type="matrix" values="0 0 0 0 0.817908 0 0 0 0 1 0 0 0 0 0.675 0 0 0 1 0"/>
<feBlend mode="normal" in2="BackgroundImageFix" result="effect1_dropShadow_4563_107716"/>
<feBlend mode="normal" in="SourceGraphic" in2="effect1_dropShadow_4563_107716" result="shape"/>
</filter>
<filter id="filter5_d_4563_107716" x="199.98" y="34.6235" width="151.02" height="160.598" filterUnits="userSpaceOnUse" color-interpolation-filters="sRGB">
<feFlood flood-opacity="0" result="BackgroundImageFix"/>
<feColorMatrix in="SourceAlpha" type="matrix" values="0 0 0 0 0 0 0 0 0 0 0 0 0 0 0 0 0 0 127 0" result="hardAlpha"/>
<feOffset dy="5"/>
<feGaussianBlur stdDeviation="14.5"/>
<feComposite in2="hardAlpha" operator="out"/>
<feColorMatrix type="matrix" values="0 0 0 0 0.16349 0 0 0 0 0.20094 0 0 0 0 0.9125 0 0 0 1 0"/>
<feBlend mode="normal" in2="BackgroundImageFix" result="effect1_dropShadow_4563_107716"/>
<feBlend mode="normal" in="SourceGraphic" in2="effect1_dropShadow_4563_107716" result="shape"/>
</filter>
<linearGradient id="paint0_linear_4563_107716" x1="192.169" y1="267.607" x2="-6.60322" y2="324.089" gradientUnits="userSpaceOnUse">
<stop stop-color="#CEEFFF"/>
<stop offset="0.0260417" stop-color="#CFECFD" stop-opacity="0.83"/>
<stop offset="1" stop-color="#FD71AF" stop-opacity="0.01"/>
</linearGradient>
<linearGradient id="paint1_linear_4563_107716" x1="577.021" y1="67.8453" x2="360.956" y2="372.828" gradientUnits="userSpaceOnUse">
<stop offset="0.0260417" stop-color="#CFECFD" stop-opacity="0.99"/>
<stop offset="0.226457" stop-color="#D9D3ED" stop-opacity="0.788342"/>
<stop offset="1" stop-color="#FD71AF" stop-opacity="0.01"/>
</linearGradient>
<linearGradient id="paint2_linear_4563_107716" x1="142.893" y1="-78.0784" x2="329.552" y2="454.295" gradientUnits="userSpaceOnUse">
<stop stop-color="#00B4D5"/>
<stop offset="1" stop-color="#DCE3FF"/>
</linearGradient>
<linearGradient id="paint3_linear_4563_107716" x1="356.277" y1="277.561" x2="365.258" y2="343.28" gradientUnits="userSpaceOnUse">
<stop offset="0.0015505" stop-color="#44DCFE"/>
<stop offset="1" stop-color="#3500D5"/>
</linearGradient>
<linearGradient id="paint4_linear_4563_107716" x1="334.172" y1="354.812" x2="319.048" y2="303.103" gradientUnits="userSpaceOnUse">
<stop stop-color="#077393" stop-opacity="0.86"/>
<stop offset="0.22806" stop-color="white" stop-opacity="0.6"/>
<stop offset="1" stop-color="#8CE0F0" stop-opacity="0"/>
</linearGradient>
<linearGradient id="paint5_linear_4563_107716" x1="370.273" y1="278.084" x2="274.172" y2="278.084" gradientUnits="userSpaceOnUse">
<stop stop-color="#0081A7" stop-opacity="0"/>
<stop offset="0.20902" stop-color="#EAEDFF" stop-opacity="0.38"/>
<stop offset="1" stop-color="#D5DAFF"/>
</linearGradient>
<linearGradient id="paint6_linear_4563_107716" x1="193" y1="277.547" x2="353.761" y2="257.43" gradientUnits="userSpaceOnUse">
<stop offset="0.197917" stop-color="#F2FDFF"/>
<stop offset="1" stop-color="#FFBFF1"/>
</linearGradient>
<linearGradient id="paint7_linear_4563_107716" x1="231.843" y1="241.472" x2="281.27" y2="338.905" gradientUnits="userSpaceOnUse">
<stop stop-color="#FEAFE7" stop-opacity="0.76"/>
<stop offset="0.362262" stop-color="white" stop-opacity="0.916667"/>
<stop offset="1" stop-color="#E2F7FB" stop-opacity="0"/>
</linearGradient>
<linearGradient id="paint8_linear_4563_107716" x1="323.623" y1="248.925" x2="236.849" y2="404.354" gradientUnits="userSpaceOnUse">
<stop stop-color="#BB66E1"/>
<stop offset="0.09375" stop-color="white" stop-opacity="0"/>
<stop offset="0.96875" stop-color="#F8DBEC"/>
</linearGradient>
<linearGradient id="paint9_linear_4563_107716" x1="355.5" y1="29.4216" x2="321.5" y2="287.422" gradientUnits="userSpaceOnUse">
<stop stop-color="#FFAACA"/>
<stop offset="1" stop-color="#00A1FF"/>
</linearGradient>
<linearGradient id="paint10_linear_4563_107716" x1="194" y1="29.9216" x2="194" y2="298.922" gradientUnits="userSpaceOnUse">
<stop stop-color="#00B4D5" stop-opacity="0.63"/>
<stop offset="1" stop-color="#5707FF"/>
</linearGradient>
<linearGradient id="paint11_linear_4563_107716" x1="376.5" y1="260.922" x2="302" y2="225.422" gradientUnits="userSpaceOnUse">
<stop stop-color="#00B4D5"/>
<stop offset="1" stop-color="#00B4D5" stop-opacity="0"/>
</linearGradient>
<linearGradient id="paint12_linear_4563_107716" x1="279" y1="227.922" x2="226.5" y2="276.922" gradientUnits="userSpaceOnUse">
<stop stop-color="#00B4D5"/>
<stop offset="1" stop-color="#00B4D5" stop-opacity="0"/>
</linearGradient>
<linearGradient id="paint13_linear_4563_107716" x1="320" y1="86.4523" x2="334.667" y2="147.295" gradientUnits="userSpaceOnUse">
<stop offset="0.0015505" stop-color="#44DCFE"/>
<stop offset="1" stop-color="#3500D5"/>
</linearGradient>
<linearGradient id="paint14_linear_4563_107716" x1="300.42" y1="150.115" x2="284.666" y2="118.779" gradientUnits="userSpaceOnUse">
<stop stop-color="#077393" stop-opacity="0.86"/>
<stop offset="0.22806" stop-color="white" stop-opacity="0.6"/>
<stop offset="1" stop-color="#8CE0F0" stop-opacity="0"/>
</linearGradient>
<linearGradient id="paint15_linear_4563_107716" x1="327.629" y1="86.9556" x2="275.246" y2="86.9556" gradientUnits="userSpaceOnUse">
<stop stop-color="#0081A7" stop-opacity="0"/>
<stop offset="0.20902" stop-color="#EAEDFF" stop-opacity="0.38"/>
<stop offset="1" stop-color="#D5DAFF"/>
</linearGradient>
<linearGradient id="paint16_linear_4563_107716" x1="231" y1="89.2202" x2="227.047" y2="159.807" gradientUnits="userSpaceOnUse">
<stop offset="0.0015505" stop-color="white"/>
<stop offset="1" stop-color="#5DE5FE"/>
</linearGradient>
<linearGradient id="paint17_linear_4563_107716" x1="257.7" y1="150.869" x2="277.224" y2="116.722" gradientUnits="userSpaceOnUse">
<stop stop-color="#57CEE4"/>
<stop offset="0.109375" stop-color="white" stop-opacity="0.51886"/>
<stop offset="1" stop-color="#DEF7FF"/>
</linearGradient>
<linearGradient id="paint18_linear_4563_107716" x1="228.966" y1="124.448" x2="277.026" y2="124.448" gradientUnits="userSpaceOnUse">
<stop stop-color="#7BD4E6"/>
<stop offset="0.0880419" stop-color="white" stop-opacity="0.51"/>
<stop offset="1" stop-color="#32C8FC" stop-opacity="0.13"/>
</linearGradient>
<linearGradient id="paint19_linear_4563_107716" x1="250.707" y1="89.4717" x2="250.707" y2="133.255" gradientUnits="userSpaceOnUse">
<stop offset="0.0495103" stop-color="#F0DFF8" stop-opacity="0"/>
<stop offset="1" stop-color="#C2E0FC"/>
</linearGradient>
<linearGradient id="paint20_linear_4563_107716" x1="231" y1="86.3362" x2="318.628" y2="75.3707" gradientUnits="userSpaceOnUse">
<stop offset="0.197917" stop-color="#F2FDFF"/>
<stop offset="1" stop-color="#FFBFF1"/>
</linearGradient>
<linearGradient id="paint21_linear_4563_107716" x1="251.851" y1="70.9868" x2="279.13" y2="119.797" gradientUnits="userSpaceOnUse">
<stop stop-color="#FEAFE7" stop-opacity="0.76"/>
<stop offset="0.0833333" stop-color="white" stop-opacity="0.916667"/>
<stop offset="1" stop-color="#E2F7FB" stop-opacity="0"/>
</linearGradient>
<linearGradient id="paint22_linear_4563_107716" x1="302.2" y1="70.7352" x2="254.901" y2="155.456" gradientUnits="userSpaceOnUse">
<stop stop-color="#BB66E1"/>
<stop offset="0.09375" stop-color="white" stop-opacity="0"/>
<stop offset="0.96875" stop-color="#F8DBEC"/>
</linearGradient>
<clipPath id="clip0_4563_107716">
<rect width="588" height="472" fill="white"/>
</clipPath>
</defs>
</svg>
