<svg xmlns="http://www.w3.org/2000/svg" width="328" height="232" fill="none"><g clip-path="url(#a)"><path fill="url(#b)" d="M105.381 193.88c-17.444 8.583-59.845-19.892-66.667-33.755-16.681-24.631 23.441-42.832 48.275-49.107 11.857-2.996 24.947-.039 31.769 13.823 11.5 23.37 4.067 60.455-13.377 69.039Z"/><path fill="url(#c)" d="M309.21 97.858c18.907-63.033-95.14-75.33-143.106-58.881-129.767 44.5 64.14 322.14 143.106 58.88Z"/><path fill="url(#d)" d="M163.762 92.707 54.667 155.693l109.095 62.985 109.096-62.985-109.096-62.986Z"/><path fill="#E1FEFF" d="M163.762 85.102 54.667 148.087l109.095 62.986 109.096-62.986-109.096-62.985Z"/><path fill="url(#e)" d="M202.637 155.235v-13.861l-39.03 22.279v13.669l39.03-22.087Z"/><path fill="url(#f)" fill-opacity=".53" d="M202.637 155.235v-13.861l-39.03 22.279v13.669l39.03-22.087Z"/><path fill="url(#g)" fill-opacity=".62" d="M202.637 155.235v-13.861l-39.03 22.279v13.669l39.03-22.087Z"/><path fill="#DCE3FF" d="M163.607 163.653v13.669l-38.587-22.061v-13.668l38.587 22.06Z"/><path fill="url(#h)" d="m163.828 119.328-38.808 22.265 38.587 22.062 39.03-22.282-38.809-22.045Z"/><path fill="url(#i)" d="m163.828 119.328-38.808 22.265 38.587 22.062 39.03-22.282-38.809-22.045Z"/><path fill="url(#j)" d="m163.828 119.328-38.808 22.265 38.587 22.062 39.03-22.282-38.809-22.045Z"/><g filter="url(#k)"><path fill="#FFDCFE" d="m128.889 149.751-15.51 8.323c-1.971 1.058-2.012 3.87-.073 4.985l22.052 12.687a5.706 5.706 0 0 0 5.527.09l17.411-9.277-29.407-16.808Z"/></g><g filter="url(#l)"><path fill="#FF7272" d="m127.539 152.128-12.357 6.637c-1.31.704-1.341 2.571-.055 3.319l20.199 11.739a5.705 5.705 0 0 0 5.552.101l12.664-6.759-26.003-15.037Z"/></g><g filter="url(#m)"><path stroke="#fff" stroke-linecap="round" stroke-linejoin="round" stroke-width="1.901" d="m130.288 160.711-.253 4.334 8.639-2.697"/></g><g filter="url(#n)"><path fill="#8791AB" d="m164 130.736-18.539 10.745 18.433 10.647 18.645-10.753L164 130.736Z"/></g><path fill="url(#o)" d="M163.762 151.652V23.542l77.009 44.446-58.47 73.444-18.539 10.22Z" opacity=".2"/><path fill="url(#p)" d="M163.762 151.652V23.78L87.229 67.989l58.232 73.443 18.301 10.22Z" opacity=".2"/><path fill="url(#q)" d="M163.762 151.652v-39.455l77.009-44.209-58.47 73.444-18.539 10.22Z" opacity=".2"/><path fill="url(#r)" d="M163.762 151.652v-39.455l-76.77-44.446 58.469 73.681 18.301 10.22Z" opacity=".2"/><g filter="url(#s)"><path stroke="#fff" stroke-linecap="round" stroke-width="2.852" d="m117.75 106.334 45.733 26.302 46.927-26.303"/></g><g filter="url(#t)"><path stroke="#fff" stroke-linecap="round" stroke-width="1.901" d="m143.084 73.091.368-22.851 20.786-11.724 21.153 12.01v22.565l-21.337 12.01-20.97-12.01Z" shape-rendering="crispEdges"/></g><path fill="url(#u)" d="M185.391 73.062v-22.53l-21.274 12.145V85.1l21.274-12.039Z"/><path fill="url(#v)" d="M185.391 73.062v-22.53l-21.274 12.145V85.1l21.274-12.039Z"/><path fill="url(#w)" d="M185.391 73.062v-22.53l-21.274 12.145V85.1l21.274-12.039Z"/><path fill="url(#x)" d="M164.117 62.677V85.1l-21.033-12.024V50.652l21.033 12.025Z"/><path fill="url(#y)" d="M164.117 62.677V85.1l-21.033-12.024V50.652l21.033 12.025Z"/><path fill="url(#z)" d="M164.117 62.677V85.1l-21.033-12.024V50.652l21.033 12.025Z"/><path fill="url(#A)" d="m161.82 62.494-18.736 10.407V52.088l18.736 10.406Z" opacity=".78"/><path fill="url(#B)" d="m164.238 38.516-21.154 12.136 21.033 12.026 21.274-12.145-21.153-12.017Z"/><path fill="url(#C)" d="m164.238 38.516-21.154 12.136 21.033 12.026 21.274-12.145-21.153-12.017Z"/><path fill="url(#D)" d="m164.238 38.516-21.154 12.136 21.033 12.026 21.274-12.145-21.153-12.017Z"/><path fill="#fff" d="m164 80.823 46.586 25.432L164 133.351l-47.061-27.096L164 80.823Z" opacity=".34"/></g><defs><linearGradient id="b" x1="124.626" x2="30.137" y1="136.766" y2="163.616" gradientUnits="userSpaceOnUse"><stop stop-color="#CEEFFF"/><stop offset=".026" stop-color="#CFECFD" stop-opacity=".83"/><stop offset="1" stop-color="#FD71AF" stop-opacity=".01"/></linearGradient><linearGradient id="c" x1="307.57" x2="204.86" y1="41.807" y2="186.785" gradientUnits="userSpaceOnUse"><stop offset=".026" stop-color="#CFECFD" stop-opacity=".99"/><stop offset=".226" stop-color="#D9D3ED" stop-opacity=".788"/><stop offset="1" stop-color="#FD71AF" stop-opacity=".01"/></linearGradient><linearGradient id="d" x1="101.201" x2="189.932" y1="-27.559" y2="225.511" gradientUnits="userSpaceOnUse"><stop stop-color="#00B4D5"/><stop offset="1" stop-color="#DCE3FF"/></linearGradient><linearGradient id="e" x1="202.637" x2="206.905" y1="141.498" y2="172.739" gradientUnits="userSpaceOnUse"><stop offset=".002" stop-color="#44DCFE"/><stop offset="1" stop-color="#3500D5"/></linearGradient><linearGradient id="f" x1="192.129" x2="184.939" y1="178.221" y2="153.64" gradientUnits="userSpaceOnUse"><stop stop-color="#077393" stop-opacity=".86"/><stop offset=".228" stop-color="#fff" stop-opacity=".6"/><stop offset="1" stop-color="#8CE0F0" stop-opacity="0"/></linearGradient><linearGradient id="g" x1="209.289" x2="163.607" y1="141.747" y2="141.747" gradientUnits="userSpaceOnUse"><stop stop-color="#0081A7" stop-opacity="0"/><stop offset=".209" stop-color="#EAEDFF" stop-opacity=".38"/><stop offset="1" stop-color="#D5DAFF"/></linearGradient><linearGradient id="h" x1="125.02" x2="201.44" y1="141.492" y2="131.929" gradientUnits="userSpaceOnUse"><stop offset=".198" stop-color="#F2FDFF"/><stop offset="1" stop-color="#FFBFF1"/></linearGradient><linearGradient id="i" x1="143.485" x2="166.981" y1="124.343" y2="170.659" gradientUnits="userSpaceOnUse"><stop stop-color="#FEAFE7" stop-opacity=".76"/><stop offset=".362" stop-color="#fff" stop-opacity=".917"/><stop offset="1" stop-color="#E2F7FB" stop-opacity="0"/></linearGradient><linearGradient id="j" x1="187.113" x2="145.865" y1="127.886" y2="201.771" gradientUnits="userSpaceOnUse"><stop stop-color="#BB66E1"/><stop offset=".094" stop-color="#fff" stop-opacity="0"/><stop offset=".969" stop-color="#F8DBEC"/></linearGradient><linearGradient id="o" x1="202.267" x2="186.104" y1="23.542" y2="146.185" gradientUnits="userSpaceOnUse"><stop stop-color="#FFAACA"/><stop offset="1" stop-color="#00A1FF"/></linearGradient><linearGradient id="p" x1="125.496" x2="125.496" y1="23.78" y2="151.652" gradientUnits="userSpaceOnUse"><stop stop-color="#00B4D5" stop-opacity=".63"/><stop offset="1" stop-color="#5707FF"/></linearGradient><linearGradient id="q" x1="212.249" x2="176.835" y1="133.589" y2="116.713" gradientUnits="userSpaceOnUse"><stop stop-color="#00B4D5"/><stop offset="1" stop-color="#00B4D5" stop-opacity="0"/></linearGradient><linearGradient id="r" x1="165.901" x2="140.945" y1="117.901" y2="141.194" gradientUnits="userSpaceOnUse"><stop stop-color="#00B4D5"/><stop offset="1" stop-color="#00B4D5" stop-opacity="0"/></linearGradient><linearGradient id="u" x1="185.391" x2="192.363" y1="50.652" y2="79.574" gradientUnits="userSpaceOnUse"><stop offset=".002" stop-color="#44DCFE"/><stop offset="1" stop-color="#3500D5"/></linearGradient><linearGradient id="v" x1="176.084" x2="168.595" y1="80.915" y2="66.019" gradientUnits="userSpaceOnUse"><stop stop-color="#077393" stop-opacity=".86"/><stop offset=".228" stop-color="#fff" stop-opacity=".6"/><stop offset="1" stop-color="#8CE0F0" stop-opacity="0"/></linearGradient><linearGradient id="w" x1="189.018" x2="164.117" y1="50.891" y2="50.891" gradientUnits="userSpaceOnUse"><stop stop-color="#0081A7" stop-opacity="0"/><stop offset=".209" stop-color="#EAEDFF" stop-opacity=".38"/><stop offset="1" stop-color="#D5DAFF"/></linearGradient><linearGradient id="x" x1="143.084" x2="141.205" y1="51.968" y2="85.522" gradientUnits="userSpaceOnUse"><stop offset=".002" stop-color="#fff"/><stop offset="1" stop-color="#5DE5FE"/></linearGradient><linearGradient id="y" x1="155.776" x2="165.057" y1="81.274" y2="65.041" gradientUnits="userSpaceOnUse"><stop stop-color="#57CEE4"/><stop offset=".109" stop-color="#fff" stop-opacity=".519"/><stop offset="1" stop-color="#DEF7FF"/></linearGradient><linearGradient id="z" x1="142.117" x2="164.963" y1="68.714" y2="68.714" gradientUnits="userSpaceOnUse"><stop stop-color="#7BD4E6"/><stop offset=".088" stop-color="#fff" stop-opacity=".51"/><stop offset="1" stop-color="#32C8FC" stop-opacity=".13"/></linearGradient><linearGradient id="A" x1="152.452" x2="152.452" y1="52.088" y2="72.901" gradientUnits="userSpaceOnUse"><stop offset=".05" stop-color="#F0DFF8" stop-opacity="0"/><stop offset="1" stop-color="#C2E0FC"/></linearGradient><linearGradient id="B" x1="143.084" x2="184.739" y1="50.597" y2="45.384" gradientUnits="userSpaceOnUse"><stop offset=".198" stop-color="#F2FDFF"/><stop offset="1" stop-color="#FFBFF1"/></linearGradient><linearGradient id="C" x1="152.996" x2="165.963" y1="43.3" y2="66.503" gradientUnits="userSpaceOnUse"><stop stop-color="#FEAFE7" stop-opacity=".76"/><stop offset=".083" stop-color="#fff" stop-opacity=".917"/><stop offset="1" stop-color="#E2F7FB" stop-opacity="0"/></linearGradient><linearGradient id="D" x1="176.93" x2="154.446" y1="43.181" y2="83.454" gradientUnits="userSpaceOnUse"><stop stop-color="#BB66E1"/><stop offset=".094" stop-color="#fff" stop-opacity="0"/><stop offset=".969" stop-color="#F8DBEC"/></linearGradient><filter id="k" width="46.42" height="28.657" x="111.876" y="149.751" color-interpolation-filters="sRGB" filterUnits="userSpaceOnUse"><feFlood flood-opacity="0" result="BackgroundImageFix"/><feColorMatrix in="SourceAlpha" result="hardAlpha" values="0 0 0 0 0 0 0 0 0 0 0 0 0 0 0 0 0 0 127 0"/><feOffset dy="1.901"/><feComposite in2="hardAlpha" operator="out"/><feColorMatrix values="0 0 0 0 0.529412 0 0 0 0 0.568627 0 0 0 0 0.670588 0 0 0 1 0"/><feBlend in2="BackgroundImageFix" result="effect1_dropShadow_8646_14308"/><feBlend in="SourceGraphic" in2="effect1_dropShadow_8646_14308" result="shape"/></filter><filter id="l" width="39.361" height="22.468" x="114.181" y="152.128" color-interpolation-filters="sRGB" filterUnits="userSpaceOnUse"><feFlood flood-opacity="0" result="BackgroundImageFix"/><feBlend in="SourceGraphic" in2="BackgroundImageFix" result="shape"/><feColorMatrix in="SourceAlpha" result="hardAlpha" values="0 0 0 0 0 0 0 0 0 0 0 0 0 0 0 0 0 0 127 0"/><feOffset dx=".951" dy="-.475"/><feComposite in2="hardAlpha" k2="-1" k3="1" operator="arithmetic"/><feColorMatrix values="0 0 0 0 0 0 0 0 0 0 0 0 0 0 0 0 0 0 0.25 0"/><feBlend in2="shape" result="effect1_innerShadow_8646_14308"/></filter><filter id="m" width="10.541" height="6.235" x="129.084" y="159.76" color-interpolation-filters="sRGB" filterUnits="userSpaceOnUse"><feFlood flood-opacity="0" result="BackgroundImageFix"/><feBlend in="SourceGraphic" in2="BackgroundImageFix" result="shape"/><feColorMatrix in="SourceAlpha" result="hardAlpha" values="0 0 0 0 0 0 0 0 0 0 0 0 0 0 0 0 0 0 127 0"/><feOffset dx="-.951"/><feComposite in2="hardAlpha" k2="-1" k3="1" operator="arithmetic"/><feColorMatrix values="0 0 0 0 0.5125 0 0 0 0 0.91236 0 0 0 0 1 0 0 0 1 0"/><feBlend in2="shape" result="effect1_innerShadow_8646_14308"/></filter><filter id="n" width="37.078" height="21.391" x="145.461" y="130.736" color-interpolation-filters="sRGB" filterUnits="userSpaceOnUse"><feFlood flood-opacity="0" result="BackgroundImageFix"/><feBlend in="SourceGraphic" in2="BackgroundImageFix" result="shape"/><feColorMatrix in="SourceAlpha" result="hardAlpha" values="0 0 0 0 0 0 0 0 0 0 0 0 0 0 0 0 0 0 127 0"/><feOffset dy=".951"/><feComposite in2="hardAlpha" k2="-1" k3="1" operator="arithmetic"/><feColorMatrix values="0 0 0 0 0 0 0 0 0 0 0 0 0 0 0 0 0 0 0.25 0"/><feBlend in2="shape" result="effect1_innerShadow_8646_14308"/></filter><filter id="s" width="106.922" height="40.778" x="110.619" y="100.153" color-interpolation-filters="sRGB" filterUnits="userSpaceOnUse"><feFlood flood-opacity="0" result="BackgroundImageFix"/><feColorMatrix in="SourceAlpha" result="hardAlpha" values="0 0 0 0 0 0 0 0 0 0 0 0 0 0 0 0 0 0 127 0"/><feOffset dy=".951"/><feGaussianBlur stdDeviation="2.852"/><feComposite in2="hardAlpha" operator="out"/><feColorMatrix values="0 0 0 0 0.817908 0 0 0 0 1 0 0 0 0 0.675 0 0 0 1 0"/><feBlend in2="BackgroundImageFix" result="effect1_dropShadow_8646_14308"/><feBlend in="SourceGraphic" in2="effect1_dropShadow_8646_14308" result="shape"/></filter><filter id="t" width="71.789" height="76.342" x="128.339" y="26.015" color-interpolation-filters="sRGB" filterUnits="userSpaceOnUse"><feFlood flood-opacity="0" result="BackgroundImageFix"/><feColorMatrix in="SourceAlpha" result="hardAlpha" values="0 0 0 0 0 0 0 0 0 0 0 0 0 0 0 0 0 0 127 0"/><feOffset dy="2.377"/><feGaussianBlur stdDeviation="6.893"/><feComposite in2="hardAlpha" operator="out"/><feColorMatrix values="0 0 0 0 0.16349 0 0 0 0 0.20094 0 0 0 0 0.9125 0 0 0 1 0"/><feBlend in2="BackgroundImageFix" result="effect1_dropShadow_8646_14308"/><feBlend in="SourceGraphic" in2="effect1_dropShadow_8646_14308" result="shape"/></filter><clipPath id="a"><path fill="#fff" d="M0 0h328v232H0z"/></clipPath></defs></svg>
