<svg width="588" height="472" viewBox="0 0 588 472" fill="none" xmlns="http://www.w3.org/2000/svg">
<g clip-path="url(#clip0_4563_108131)">
<rect width="588" height="472" fill="white"/>
<path d="M104.684 359.245C77.9829 287.058 283.162 103.648 366.977 72.6451C450.791 41.6426 552.942 196.149 579.644 268.336C606.345 340.523 550.845 373.545 467.03 404.547C325.737 456.811 131.386 431.432 104.684 359.245Z" fill="url(#paint0_linear_4563_108131)"/>
<path d="M266.261 93.0853C279.891 125.614 163.386 224.531 116.495 244.179C29.9358 288.498 3.26279 213.057 1.89022 164.356C1.23489 141.103 19.5096 112.911 66.4009 93.2632C145.45 60.1409 252.631 60.5562 266.261 93.0853Z" fill="url(#paint1_linear_4563_108131)"/>
<path d="M290.5 189L61 321.5L290.5 454L520 321.5L290.5 189Z" fill="url(#paint2_linear_4563_108131)"/>
<path d="M290.5 173L61 305.5L290.5 438L520 305.5L290.5 173Z" fill="#F3F5FA"/>
<path d="M370.5 381L171 265.5L207.5 244L408.5 359.5L370.5 381Z" fill="url(#paint3_linear_4563_108131)"/>
<path d="M370.5 375L171 259.5L207.5 238L408.5 353.5L370.5 375Z" fill="url(#paint4_linear_4563_108131)"/>
<path d="M370.5 375L171 259.5L207.5 238L408.5 353.5L370.5 375Z" fill="url(#paint5_linear_4563_108131)"/>
<path d="M370.5 375L171 259.5L207.5 238L408.5 353.5L370.5 375Z" fill="url(#paint6_linear_4563_108131)"/>
<path d="M360.5 297L373.5 305V365L360.5 357.5V297Z" fill="#DCE3FF"/>
<path d="M191 200L204 208V268L191 260.5V200Z" fill="#DCE3FF"/>
<path d="M373.5 305L386.5 297V357L373.5 364.5V305Z" fill="url(#paint7_linear_4563_108131)"/>
<path d="M373.5 305L386.5 297V357L373.5 364.5V305Z" fill="url(#paint8_linear_4563_108131)" fill-opacity="0.53"/>
<path d="M373.5 305L386.5 297V357L373.5 364.5V305Z" fill="url(#paint9_linear_4563_108131)" fill-opacity="0.62"/>
<path d="M204 208L217 200V260L204 267.5V208Z" fill="url(#paint10_linear_4563_108131)"/>
<path d="M204 208L217 200V260L204 267.5V208Z" fill="url(#paint11_linear_4563_108131)" fill-opacity="0.53"/>
<path d="M204 208L217 200V260L204 267.5V208Z" fill="url(#paint12_linear_4563_108131)" fill-opacity="0.62"/>
<path d="M433 192L138 22L144 19L439 188.5L433 192Z" fill="#8791AB"/>
<path d="M439 188.5V373.5L433 376.5L419 336.432L144 177.372L143 19L439 188.5Z" fill="url(#paint13_linear_4563_108131)"/>
<path d="M433 376.5L138 205.872V22L433 191.685V376.5Z" fill="url(#paint14_linear_4563_108131)"/>
<path d="M433 376.5L138 205.872V22L433 191.685V376.5Z" fill="url(#paint15_linear_4563_108131)"/>
<path d="M433 376.5L138 205.872V22L433 191.685V376.5Z" fill="url(#paint16_linear_4563_108131)"/>
<path d="M433 376.5L138 205.872V22L433 191.685V376.5Z" fill="url(#paint17_linear_4563_108131)"/>
<path opacity="0.7" d="M285.434 120.792C287.286 121.865 288.426 123.843 288.426 125.984L288.427 271.59C288.427 276.213 283.42 279.099 279.42 276.782L149.993 201.807C148.141 200.734 147.001 198.756 147.001 196.615L147 51.009C147 46.3863 152.008 43.5 156.008 45.8171L285.434 120.792Z" fill="white"/>
<path fill-rule="evenodd" clip-rule="evenodd" d="M162.63 63.9563L199.034 84.5167C200.541 85.3677 201.473 86.964 201.473 88.6943C201.473 92.3675 197.514 94.6782 194.315 92.8719L157.911 72.3115C156.404 71.4605 155.473 69.8642 155.473 68.1339C155.473 64.4608 159.432 62.15 162.63 63.9563ZM207.473 165.396V207.135C207.473 211.728 202.522 214.618 198.522 212.359L164.522 193.157C162.638 192.092 161.473 190.096 161.473 187.932V146.194C161.473 141.6 166.424 138.71 170.423 140.969L204.423 160.172C206.307 161.236 207.473 163.232 207.473 165.396ZM262.473 236.135V194.396C262.473 192.232 261.307 190.236 259.423 189.172L225.423 169.969C221.424 167.71 216.473 170.6 216.473 175.194V216.932C216.473 219.096 217.638 221.092 219.522 222.157L253.522 241.359C257.522 243.618 262.473 240.728 262.473 236.135ZM159.623 84.2503L275.054 149.225C275.93 149.718 276.473 150.646 276.473 151.651C276.473 153.781 274.178 155.123 272.322 154.078L156.891 89.1034C156.015 88.6101 155.473 87.6826 155.473 86.6769C155.473 84.5468 157.767 83.2055 159.623 84.2503ZM275.054 160.225L159.623 95.2503C157.767 94.2055 155.473 95.5468 155.473 97.6769C155.473 98.6826 156.015 99.6101 156.891 100.103L272.322 165.078C274.178 166.123 276.473 164.781 276.473 162.651C276.473 161.646 275.93 160.718 275.054 160.225ZM159.623 106.25L275.054 171.225C275.93 171.718 276.473 172.646 276.473 173.651C276.473 175.781 274.178 177.123 272.322 176.078L156.891 111.103C156.015 110.61 155.473 109.683 155.473 108.677C155.473 106.547 157.767 105.206 159.623 106.25ZM275.054 182.225L159.623 117.25C157.767 116.206 155.473 117.547 155.473 119.677C155.473 120.683 156.015 121.61 156.891 122.103L272.322 187.078C274.178 188.123 276.473 186.781 276.473 184.651C276.473 183.646 275.93 182.718 275.054 182.225Z" fill="#B1B9D4"/>
<g filter="url(#filter0_dd_4563_108131)">
<path d="M408.163 153.543V253.591C408.163 258.213 403.155 261.099 399.156 258.782L342.992 226.248C341.14 225.175 340 223.197 340 221.056V121.009C340 116.386 345.008 113.5 349.008 115.817L405.171 148.352C407.023 149.425 408.163 151.403 408.163 153.543Z" fill="white"/>
</g>
<path d="M353.871 130.779L378.356 144.744C379.373 145.324 380 146.404 380 147.574C380 150.074 377.3 151.642 375.128 150.403L350.644 136.438C349.627 135.858 349 134.778 349 133.608C349 131.108 351.7 129.54 353.871 130.779Z" fill="#DADEE8"/>
<g filter="url(#filter1_dd_4563_108131)">
<path d="M166.125 154.369V232.461C166.125 237.084 161.118 239.97 157.118 237.653L83.9925 195.293C82.1403 194.22 81 192.241 81 190.101V112.009C81 107.386 86.0075 104.5 90.0075 106.817L163.133 149.178C164.985 150.25 166.125 152.229 166.125 154.369Z" fill="white"/>
</g>
<path d="M130.871 142.779L155.356 156.745C156.373 157.324 157 158.404 157 159.574C157 162.074 154.3 163.643 152.128 162.404L127.644 148.438C126.627 147.859 126 146.779 126 145.609C126 143.109 128.7 141.54 130.871 142.779Z" fill="#DADEE8"/>
<g filter="url(#filter2_ii_4563_108131)">
<path d="M95 134V184M106.5 145V191.5M118.5 162.5V197.5M129.5 188V203M140.5 172V211M152.5 207.5V219.5" stroke="#5CEAB7" stroke-width="8" stroke-linecap="round" stroke-linejoin="round"/>
</g>
<g filter="url(#filter3_ii_4563_108131)">
<path d="M353.5 218.5L354.409 211.912C355.09 206.971 358.204 202.702 362.7 200.544V200.544C366.105 198.91 368.76 196.04 370.125 192.519L374.743 180.61C376.351 176.464 380.638 174.006 385.028 174.714V174.714C389.616 175.454 394.058 172.739 395.491 168.319L399 157.5" stroke="#32C8FC" stroke-width="8" stroke-linecap="round" stroke-linejoin="round"/>
</g>
<path d="M327.014 242.065L327.014 257.763L315.005 250.852C313.765 250.138 313 248.816 313 247.385L313 240.917C313 237.84 316.328 235.915 318.995 237.45L327.014 242.065Z" fill="#B1B9D4"/>
<path d="M338.592 251.08L338.592 257.548C338.592 260.625 335.264 262.55 332.597 261.015L324.578 256.4L324.578 240.702L336.587 247.613C337.827 248.327 338.592 249.649 338.592 251.08Z" fill="#B1B9D4"/>
<path d="M327.014 259.734L327.014 275.432L315.005 268.522C313.765 267.808 313 266.486 313 265.055L313 258.587C313 255.51 316.328 253.585 318.995 255.12L327.014 259.734Z" fill="#B1B9D4"/>
<path d="M338.592 268.75L338.592 275.218C338.592 278.294 335.264 280.219 332.597 278.685L324.578 274.07L324.578 258.372L336.587 265.283C337.827 265.997 338.592 267.319 338.592 268.75Z" fill="#B1B9D4"/>
<path d="M327.014 277.404L327.014 293.102L315.005 286.191C313.765 285.477 313 284.155 313 282.724L313 276.256C313 273.18 316.328 271.255 318.995 272.789L327.014 277.404Z" fill="#B1B9D4"/>
<path d="M338.592 286.419L338.592 292.887C338.592 295.964 335.264 297.889 332.597 296.354L324.578 291.74L324.578 276.042L336.587 282.952C337.827 283.666 338.592 284.988 338.592 286.419Z" fill="#B1B9D4"/>
<path d="M327.014 295.073L327.014 310.772L315.005 303.861C313.765 303.147 313 301.825 313 300.394L313 293.926C313 290.849 316.328 288.924 318.995 290.459L327.014 295.073Z" fill="#B1B9D4"/>
<path d="M338.592 304.089L338.592 310.557C338.592 313.634 335.264 315.558 332.597 314.024L324.578 309.409L324.578 293.711L336.587 300.622C337.827 301.336 338.592 302.658 338.592 304.089Z" fill="#B1B9D4"/>
<path d="M354.432 257.907L354.432 273.605L342.423 266.694C341.183 265.98 340.418 264.658 340.418 263.227L340.418 256.759C340.418 253.682 343.746 251.757 346.413 253.292L354.432 257.907Z" fill="#B1B9D4"/>
<path d="M366.01 266.922L366.01 273.39C366.01 276.467 362.682 278.392 360.015 276.857L351.996 272.243L351.996 256.544L364.005 263.455C365.245 264.169 366.01 265.491 366.01 266.922Z" fill="#B1B9D4"/>
<path d="M354.432 275.576L354.432 291.274L342.423 284.363C341.183 283.65 340.418 282.328 340.418 280.897L340.418 274.428C340.418 271.352 343.746 269.427 346.413 270.962L354.432 275.576Z" fill="#B1B9D4"/>
<path d="M366.01 284.592L366.01 291.06C366.01 294.136 362.682 296.061 360.015 294.527L351.996 289.912L351.996 274.214L364.005 281.125C365.245 281.838 366.01 283.16 366.01 284.592Z" fill="#B1B9D4"/>
<path d="M354.432 293.246L354.432 308.944L342.423 302.033C341.183 301.319 340.418 299.997 340.418 298.566L340.418 292.098C340.418 289.021 343.746 287.097 346.413 288.631L354.432 293.246Z" fill="#B1B9D4"/>
<path d="M366.01 302.261L366.01 308.729C366.01 311.806 362.682 313.731 360.015 312.196L351.996 307.582L351.996 291.883L364.005 298.794C365.245 299.508 366.01 300.83 366.01 302.261Z" fill="#B1B9D4"/>
<path d="M354.432 310.915L354.432 326.614L342.423 319.703C341.183 318.989 340.418 317.667 340.418 316.236L340.418 309.768C340.418 306.691 343.746 304.766 346.413 306.301L354.432 310.915Z" fill="#B1B9D4"/>
<path d="M366.01 319.931L366.01 326.399C366.01 329.476 362.682 331.4 360.015 329.866L351.996 325.251L351.996 309.553L364.005 316.464C365.245 317.178 366.01 318.5 366.01 319.931Z" fill="#B1B9D4"/>
<path d="M381.85 273.748L381.85 289.447L369.841 282.536C368.601 281.822 367.836 280.5 367.836 279.069L367.836 272.601C367.836 269.524 371.164 267.599 373.831 269.134L381.85 273.748Z" fill="#B1B9D4"/>
<path d="M393.428 282.764L393.428 289.232C393.428 292.309 390.1 294.233 387.433 292.699L379.414 288.084L379.414 272.386L391.423 279.297C392.663 280.011 393.428 281.333 393.428 282.764Z" fill="#B1B9D4"/>
<path d="M381.85 291.418L381.85 307.116L369.841 300.205C368.601 299.492 367.836 298.17 367.836 296.739L367.836 290.271C367.836 287.194 371.164 285.269 373.831 286.804L381.85 291.418Z" fill="#B1B9D4"/>
<path d="M393.428 300.434L393.428 306.902C393.428 309.978 390.1 311.903 387.433 310.369L379.414 305.754L379.414 290.056L391.423 296.967C392.663 297.68 393.428 299.002 393.428 300.434Z" fill="#B1B9D4"/>
<path d="M381.85 309.088L381.85 324.786L369.841 317.875C368.601 317.161 367.836 315.839 367.836 314.408L367.836 307.94C367.836 304.863 371.164 302.938 373.831 304.473L381.85 309.088Z" fill="#B1B9D4"/>
<path d="M393.428 318.103L393.428 324.571C393.428 327.648 390.1 329.573 387.433 328.038L379.414 323.424L379.414 307.725L391.423 314.636C392.663 315.35 393.428 316.672 393.428 318.103Z" fill="#B1B9D4"/>
<path d="M381.85 326.757L381.85 342.455L369.841 335.545C368.601 334.831 367.836 333.509 367.836 332.078L367.836 325.61C367.836 322.533 371.164 320.608 373.831 322.143L381.85 326.757Z" fill="#B1B9D4"/>
<path d="M393.428 335.773L393.428 342.241C393.428 345.317 390.1 347.242 387.433 345.708L379.414 341.093L379.414 325.395L391.423 332.306C392.663 333.02 393.428 334.342 393.428 335.773Z" fill="#B1B9D4"/>
<path d="M409.268 289.59L409.268 305.289L397.259 298.378C396.019 297.664 395.254 296.342 395.254 294.911L395.254 288.443C395.254 285.366 398.582 283.441 401.249 284.976L409.268 289.59Z" fill="#B1B9D4"/>
<path d="M420.846 298.606L420.846 305.074C420.846 308.151 417.517 310.076 414.851 308.541L406.832 303.926L406.832 288.228L418.841 295.139C420.081 295.853 420.846 297.175 420.846 298.606Z" fill="#B1B9D4"/>
<path d="M409.268 307.26L409.268 322.958L397.259 316.047C396.019 315.333 395.254 314.011 395.254 312.58L395.254 306.112C395.254 303.036 398.582 301.111 401.249 302.645L409.268 307.26Z" fill="#B1B9D4"/>
<path d="M420.846 316.275L420.846 322.744C420.846 325.82 417.517 327.745 414.851 326.21L406.832 321.596L406.832 305.898L418.841 312.809C420.081 313.522 420.846 314.844 420.846 316.275Z" fill="#B1B9D4"/>
<path d="M409.268 324.93L409.268 340.628L397.259 333.717C396.019 333.003 395.254 331.681 395.254 330.25L395.254 323.782C395.254 320.705 398.582 318.78 401.249 320.315L409.268 324.93Z" fill="#B1B9D4"/>
<path d="M420.846 333.945L420.846 340.413C420.846 343.49 417.517 345.415 414.851 343.88L406.832 339.265L406.832 323.567L418.841 330.478C420.081 331.192 420.846 332.514 420.846 333.945Z" fill="#B1B9D4"/>
<path d="M409.268 342.599L409.268 358.297L397.259 351.387C396.019 350.673 395.254 349.351 395.254 347.92L395.254 341.452C395.254 338.375 398.582 336.45 401.249 337.985L409.268 342.599Z" fill="#B1B9D4"/>
<path d="M420.846 351.615L420.846 358.083C420.846 361.159 417.517 363.084 414.851 361.55L406.832 356.935L406.832 341.237L418.841 348.148C420.081 348.862 420.846 350.184 420.846 351.615Z" fill="#B1B9D4"/>
<path d="M317.014 247.065L317.014 262.763L305.005 255.852C303.765 255.138 303 253.816 303 252.385L303 245.917C303 242.84 306.328 240.915 308.995 242.45L317.014 247.065Z" fill="white"/>
<path d="M328.592 256.08L328.592 262.548C328.592 265.625 325.264 267.55 322.597 266.015L314.578 261.4L314.578 245.702L326.587 252.613C327.827 253.327 328.592 254.649 328.592 256.08Z" fill="white"/>
<path d="M317.014 264.734L317.014 280.432L305.005 273.522C303.765 272.808 303 271.486 303 270.055L303 263.587C303 260.51 306.328 258.585 308.995 260.12L317.014 264.734Z" fill="white"/>
<path d="M328.592 273.75L328.592 280.218C328.592 283.294 325.264 285.219 322.597 283.685L314.578 279.07L314.578 263.372L326.587 270.283C327.827 270.997 328.592 272.319 328.592 273.75Z" fill="white"/>
<path d="M317.014 282.404L317.014 298.102L305.005 291.191C303.765 290.477 303 289.155 303 287.724L303 281.256C303 278.18 306.328 276.255 308.995 277.789L317.014 282.404Z" fill="white"/>
<path d="M328.592 291.419L328.592 297.887C328.592 300.964 325.264 302.889 322.597 301.354L314.578 296.74L314.578 281.042L326.587 287.952C327.827 288.666 328.592 289.988 328.592 291.419Z" fill="white"/>
<path d="M317.014 300.073L317.014 315.772L305.005 308.861C303.765 308.147 303 306.825 303 305.394L303 298.926C303 295.849 306.328 293.924 308.995 295.459L317.014 300.073Z" fill="white"/>
<path d="M328.592 309.089L328.592 315.557C328.592 318.634 325.264 320.558 322.597 319.024L314.578 314.409L314.578 298.711L326.587 305.622C327.827 306.336 328.592 307.658 328.592 309.089Z" fill="white"/>
<path d="M344.432 262.907L344.432 278.605L332.423 271.694C331.183 270.98 330.418 269.658 330.418 268.227L330.418 261.759C330.418 258.682 333.746 256.757 336.413 258.292L344.432 262.907Z" fill="white"/>
<path d="M356.01 271.922L356.01 278.39C356.01 281.467 352.682 283.392 350.015 281.857L341.996 277.243L341.996 261.544L354.005 268.455C355.245 269.169 356.01 270.491 356.01 271.922Z" fill="white"/>
<path d="M344.432 280.576L344.432 296.274L332.423 289.363C331.183 288.65 330.418 287.328 330.418 285.897L330.418 279.428C330.418 276.352 333.746 274.427 336.413 275.962L344.432 280.576Z" fill="white"/>
<path d="M356.01 289.592L356.01 296.06C356.01 299.136 352.682 301.061 350.015 299.527L341.996 294.912L341.996 279.214L354.005 286.125C355.245 286.838 356.01 288.16 356.01 289.592Z" fill="white"/>
<path d="M344.432 298.246L344.432 313.944L332.423 307.033C331.183 306.319 330.418 304.997 330.418 303.566L330.418 297.098C330.418 294.021 333.746 292.097 336.413 293.631L344.432 298.246Z" fill="#FFD8F0"/>
<path d="M356.01 307.261L356.01 313.729C356.01 316.806 352.682 318.731 350.015 317.196L341.996 312.582L341.996 296.883L354.005 303.794C355.245 304.508 356.01 305.83 356.01 307.261Z" fill="#FFD8F0"/>
<path d="M344.432 315.915L344.432 331.614L332.423 324.703C331.183 323.989 330.418 322.667 330.418 321.236L330.418 314.768C330.418 311.691 333.746 309.766 336.413 311.301L344.432 315.915Z" fill="white"/>
<path d="M356.01 324.931L356.01 331.399C356.01 334.476 352.682 336.4 350.015 334.866L341.996 330.251L341.996 314.553L354.005 321.464C355.245 322.178 356.01 323.5 356.01 324.931Z" fill="white"/>
<path d="M371.85 278.748L371.85 294.447L359.841 287.536C358.601 286.822 357.836 285.5 357.836 284.069L357.836 277.601C357.836 274.524 361.164 272.599 363.831 274.134L371.85 278.748Z" fill="#5CEAB7"/>
<path d="M383.428 287.764L383.428 294.232C383.428 297.309 380.1 299.233 377.433 297.699L369.414 293.084L369.414 277.386L381.423 284.297C382.663 285.011 383.428 286.333 383.428 287.764Z" fill="#5CEAB7"/>
<path d="M371.85 296.418L371.85 312.116L359.841 305.205C358.601 304.492 357.836 303.17 357.836 301.739L357.836 295.271C357.836 292.194 361.164 290.269 363.831 291.804L371.85 296.418Z" fill="white"/>
<path d="M383.428 305.434L383.428 311.902C383.428 314.978 380.1 316.903 377.433 315.369L369.414 310.754L369.414 295.056L381.423 301.967C382.663 302.68 383.428 304.002 383.428 305.434Z" fill="white"/>
<path d="M371.85 314.088L371.85 329.786L359.841 322.875C358.601 322.161 357.836 320.839 357.836 319.408L357.836 312.94C357.836 309.863 361.164 307.938 363.831 309.473L371.85 314.088Z" fill="white"/>
<path d="M383.428 323.103L383.428 329.571C383.428 332.648 380.1 334.573 377.433 333.038L369.414 328.424L369.414 312.725L381.423 319.636C382.663 320.35 383.428 321.672 383.428 323.103Z" fill="white"/>
<path d="M371.85 331.757L371.85 347.455L359.841 340.545C358.601 339.831 357.836 338.509 357.836 337.078L357.836 330.61C357.836 327.533 361.164 325.608 363.831 327.143L371.85 331.757Z" fill="white"/>
<path d="M383.428 340.773L383.428 347.241C383.428 350.317 380.1 352.242 377.433 350.708L369.414 346.093L369.414 330.395L381.423 337.306C382.663 338.02 383.428 339.342 383.428 340.773Z" fill="white"/>
<path d="M399.268 294.59L399.268 310.289L387.259 303.378C386.019 302.664 385.254 301.342 385.254 299.911L385.254 293.443C385.254 290.366 388.582 288.441 391.249 289.976L399.268 294.59Z" fill="white"/>
<path d="M410.846 303.606L410.846 310.074C410.846 313.151 407.517 315.076 404.851 313.541L396.832 308.926L396.832 293.228L408.841 300.139C410.081 300.853 410.846 302.175 410.846 303.606Z" fill="white"/>
<path d="M399.268 312.26L399.268 327.958L387.259 321.047C386.019 320.333 385.254 319.011 385.254 317.58L385.254 311.112C385.254 308.036 388.582 306.111 391.249 307.645L399.268 312.26Z" fill="#FFF3C9"/>
<path d="M410.846 321.275L410.846 327.744C410.846 330.82 407.517 332.745 404.851 331.21L396.832 326.596L396.832 310.898L408.841 317.809C410.081 318.522 410.846 319.844 410.846 321.275Z" fill="#FFF3C9"/>
<path d="M399.268 329.93L399.268 345.628L387.259 338.717C386.019 338.003 385.254 336.681 385.254 335.25L385.254 328.782C385.254 325.705 388.582 323.78 391.249 325.315L399.268 329.93Z" fill="white"/>
<path d="M410.846 338.945L410.846 345.413C410.846 348.49 407.517 350.415 404.851 348.88L396.832 344.265L396.832 328.567L408.841 335.478C410.081 336.192 410.846 337.514 410.846 338.945Z" fill="white"/>
<path d="M399.268 347.599L399.268 363.297L387.259 356.387C386.019 355.673 385.254 354.351 385.254 352.92L385.254 346.452C385.254 343.375 388.582 341.45 391.249 342.985L399.268 347.599Z" fill="white"/>
<path d="M410.846 356.615L410.846 363.083C410.846 366.159 407.517 368.084 404.851 366.55L396.832 361.935L396.832 346.237L408.841 353.148C410.081 353.862 410.846 355.184 410.846 356.615Z" fill="white"/>
</g>
<defs>
<filter id="filter0_dd_4563_108131" x="320" y="92.0001" width="136.164" height="212.599" filterUnits="userSpaceOnUse" color-interpolation-filters="sRGB">
<feFlood flood-opacity="0" result="BackgroundImageFix"/>
<feColorMatrix in="SourceAlpha" type="matrix" values="0 0 0 0 0 0 0 0 0 0 0 0 0 0 0 0 0 0 127 0" result="hardAlpha"/>
<feOffset dx="14" dy="11"/>
<feGaussianBlur stdDeviation="17"/>
<feComposite in2="hardAlpha" operator="out"/>
<feColorMatrix type="matrix" values="0 0 0 0 0.968627 0 0 0 0 0.870588 0 0 0 0 0.933333 0 0 0 1 0"/>
<feBlend mode="normal" in2="BackgroundImageFix" result="effect1_dropShadow_4563_108131"/>
<feColorMatrix in="SourceAlpha" type="matrix" values="0 0 0 0 0 0 0 0 0 0 0 0 0 0 0 0 0 0 127 0" result="hardAlpha"/>
<feOffset dx="4" dy="-1"/>
<feComposite in2="hardAlpha" operator="out"/>
<feColorMatrix type="matrix" values="0 0 0 0 0.533333 0 0 0 0 0.572549 0 0 0 0 0.67451 0 0 0 1 0"/>
<feBlend mode="normal" in2="effect1_dropShadow_4563_108131" result="effect2_dropShadow_4563_108131"/>
<feBlend mode="normal" in="SourceGraphic" in2="effect2_dropShadow_4563_108131" result="shape"/>
</filter>
<filter id="filter1_dd_4563_108131" x="61" y="83" width="153.125" height="200.47" filterUnits="userSpaceOnUse" color-interpolation-filters="sRGB">
<feFlood flood-opacity="0" result="BackgroundImageFix"/>
<feColorMatrix in="SourceAlpha" type="matrix" values="0 0 0 0 0 0 0 0 0 0 0 0 0 0 0 0 0 0 127 0" result="hardAlpha"/>
<feOffset dx="14" dy="11"/>
<feGaussianBlur stdDeviation="17"/>
<feComposite in2="hardAlpha" operator="out"/>
<feColorMatrix type="matrix" values="0 0 0 0 0.513726 0 0 0 0 0.815686 0 0 0 0 0.933333 0 0 0 1 0"/>
<feBlend mode="normal" in2="BackgroundImageFix" result="effect1_dropShadow_4563_108131"/>
<feColorMatrix in="SourceAlpha" type="matrix" values="0 0 0 0 0 0 0 0 0 0 0 0 0 0 0 0 0 0 127 0" result="hardAlpha"/>
<feOffset dx="4" dy="-1"/>
<feComposite in2="hardAlpha" operator="out"/>
<feColorMatrix type="matrix" values="0 0 0 0 0.533333 0 0 0 0 0.572549 0 0 0 0 0.67451 0 0 0 1 0"/>
<feBlend mode="normal" in2="effect1_dropShadow_4563_108131" result="effect2_dropShadow_4563_108131"/>
<feBlend mode="normal" in="SourceGraphic" in2="effect2_dropShadow_4563_108131" result="shape"/>
</filter>
<filter id="filter2_ii_4563_108131" x="89" y="127" width="67.5" height="96.5" filterUnits="userSpaceOnUse" color-interpolation-filters="sRGB">
<feFlood flood-opacity="0" result="BackgroundImageFix"/>
<feBlend mode="normal" in="SourceGraphic" in2="BackgroundImageFix" result="shape"/>
<feColorMatrix in="SourceAlpha" type="matrix" values="0 0 0 0 0 0 0 0 0 0 0 0 0 0 0 0 0 0 127 0" result="hardAlpha"/>
<feOffset dx="-1" dy="1"/>
<feComposite in2="hardAlpha" operator="arithmetic" k2="-1" k3="1"/>
<feColorMatrix type="matrix" values="0 0 0 0 1 0 0 0 0 1 0 0 0 0 1 0 0 0 1 0"/>
<feBlend mode="normal" in2="shape" result="effect1_innerShadow_4563_108131"/>
<feColorMatrix in="SourceAlpha" type="matrix" values="0 0 0 0 0 0 0 0 0 0 0 0 0 0 0 0 0 0 127 0" result="hardAlpha"/>
<feOffset dx="-2" dy="-3"/>
<feGaussianBlur stdDeviation="1.5"/>
<feComposite in2="hardAlpha" operator="arithmetic" k2="-1" k3="1"/>
<feColorMatrix type="matrix" values="0 0 0 0 0.02 0 0 0 0 0 0 0 0 0 1 0 0 0 0.25 0"/>
<feBlend mode="normal" in2="effect1_innerShadow_4563_108131" result="effect2_innerShadow_4563_108131"/>
</filter>
<filter id="filter3_ii_4563_108131" x="347.5" y="150.499" width="55.5" height="72.0016" filterUnits="userSpaceOnUse" color-interpolation-filters="sRGB">
<feFlood flood-opacity="0" result="BackgroundImageFix"/>
<feBlend mode="normal" in="SourceGraphic" in2="BackgroundImageFix" result="shape"/>
<feColorMatrix in="SourceAlpha" type="matrix" values="0 0 0 0 0 0 0 0 0 0 0 0 0 0 0 0 0 0 127 0" result="hardAlpha"/>
<feOffset dx="-1" dy="1"/>
<feComposite in2="hardAlpha" operator="arithmetic" k2="-1" k3="1"/>
<feColorMatrix type="matrix" values="0 0 0 0 1 0 0 0 0 1 0 0 0 0 1 0 0 0 1 0"/>
<feBlend mode="normal" in2="shape" result="effect1_innerShadow_4563_108131"/>
<feColorMatrix in="SourceAlpha" type="matrix" values="0 0 0 0 0 0 0 0 0 0 0 0 0 0 0 0 0 0 127 0" result="hardAlpha"/>
<feOffset dx="-2" dy="-3"/>
<feGaussianBlur stdDeviation="1.5"/>
<feComposite in2="hardAlpha" operator="arithmetic" k2="-1" k3="1"/>
<feColorMatrix type="matrix" values="0 0 0 0 0.02 0 0 0 0 0 0 0 0 0 1 0 0 0 0.25 0"/>
<feBlend mode="normal" in2="effect1_innerShadow_4563_108131" result="effect2_innerShadow_4563_108131"/>
</filter>
<linearGradient id="paint0_linear_4563_108131" x1="386.722" y1="434.253" x2="299.161" y2="53.3297" gradientUnits="userSpaceOnUse">
<stop offset="0.0260417" stop-color="#CFECFD" stop-opacity="0.99"/>
<stop offset="0.226457" stop-color="#D9D3ED" stop-opacity="0.788342"/>
<stop offset="1" stop-color="#FD71AF" stop-opacity="0.01"/>
</linearGradient>
<linearGradient id="paint1_linear_4563_108131" x1="106.738" y1="76.3616" x2="159.406" y2="248.727" gradientUnits="userSpaceOnUse">
<stop stop-color="#CEEFFF"/>
<stop offset="0.0260417" stop-color="#CFECFD" stop-opacity="0.83"/>
<stop offset="1" stop-color="#FD71AF" stop-opacity="0.01"/>
</linearGradient>
<linearGradient id="paint2_linear_4563_108131" x1="158.893" y1="-64" x2="345.552" y2="468.373" gradientUnits="userSpaceOnUse">
<stop stop-color="#00B4D5"/>
<stop offset="1" stop-color="#DCE3FF"/>
</linearGradient>
<linearGradient id="paint3_linear_4563_108131" x1="303.954" y1="321.97" x2="324.224" y2="371.931" gradientUnits="userSpaceOnUse">
<stop stop-color="#8791AB"/>
<stop offset="0.84375" stop-color="#BEC6E1" stop-opacity="0.75"/>
</linearGradient>
<linearGradient id="paint4_linear_4563_108131" x1="171" y1="306.5" x2="404.909" y2="277.52" gradientUnits="userSpaceOnUse">
<stop offset="0.197917" stop-color="#F2FDFF"/>
<stop offset="1" stop-color="#FFBFF1"/>
</linearGradient>
<linearGradient id="paint5_linear_4563_108131" x1="227.5" y1="253.5" x2="300.543" y2="396.057" gradientUnits="userSpaceOnUse">
<stop stop-color="#FEAFE7" stop-opacity="0.76"/>
<stop offset="0.362262" stop-color="white" stop-opacity="0.916667"/>
<stop offset="1" stop-color="#E2F7FB" stop-opacity="0"/>
</linearGradient>
<linearGradient id="paint6_linear_4563_108131" x1="361" y1="264.451" x2="232.851" y2="491.711" gradientUnits="userSpaceOnUse">
<stop stop-color="#BB66E1"/>
<stop offset="0.09375" stop-color="white" stop-opacity="0"/>
<stop offset="0.96875" stop-color="#F8DBEC"/>
</linearGradient>
<linearGradient id="paint7_linear_4563_108131" x1="386.5" y1="125.331" x2="454.949" y2="150.322" gradientUnits="userSpaceOnUse">
<stop offset="0.0015505" stop-color="#44DCFE"/>
<stop offset="1" stop-color="#3500D5"/>
</linearGradient>
<linearGradient id="paint8_linear_4563_108131" x1="383" y1="370.5" x2="353.472" y2="365.463" gradientUnits="userSpaceOnUse">
<stop stop-color="#077393" stop-opacity="0.86"/>
<stop offset="0.22806" stop-color="white" stop-opacity="0.6"/>
<stop offset="1" stop-color="#8CE0F0" stop-opacity="0"/>
</linearGradient>
<linearGradient id="paint9_linear_4563_108131" x1="388.716" y1="126.991" x2="373.5" y2="126.991" gradientUnits="userSpaceOnUse">
<stop stop-color="#0081A7" stop-opacity="0"/>
<stop offset="0.20902" stop-color="#EAEDFF" stop-opacity="0.38"/>
<stop offset="1" stop-color="#D5DAFF"/>
</linearGradient>
<linearGradient id="paint10_linear_4563_108131" x1="217" y1="28.3305" x2="285.449" y2="53.3221" gradientUnits="userSpaceOnUse">
<stop offset="0.0015505" stop-color="#44DCFE"/>
<stop offset="1" stop-color="#3500D5"/>
</linearGradient>
<linearGradient id="paint11_linear_4563_108131" x1="213.5" y1="273.5" x2="183.972" y2="268.463" gradientUnits="userSpaceOnUse">
<stop stop-color="#077393" stop-opacity="0.86"/>
<stop offset="0.22806" stop-color="white" stop-opacity="0.6"/>
<stop offset="1" stop-color="#8CE0F0" stop-opacity="0"/>
</linearGradient>
<linearGradient id="paint12_linear_4563_108131" x1="219.216" y1="29.9913" x2="204" y2="29.9913" gradientUnits="userSpaceOnUse">
<stop stop-color="#0081A7" stop-opacity="0"/>
<stop offset="0.20902" stop-color="#EAEDFF" stop-opacity="0.38"/>
<stop offset="1" stop-color="#D5DAFF"/>
</linearGradient>
<linearGradient id="paint13_linear_4563_108131" x1="433.5" y1="327" x2="238.196" y2="230.754" gradientUnits="userSpaceOnUse">
<stop stop-color="#8791AB"/>
<stop offset="0.84375" stop-color="#BEC6E1" stop-opacity="0.75"/>
</linearGradient>
<linearGradient id="paint14_linear_4563_108131" x1="433" y1="23.1384" x2="479.905" y2="306.633" gradientUnits="userSpaceOnUse">
<stop offset="0.0015505" stop-color="#F8FEFF"/>
<stop offset="1" stop-color="#D6C8FF"/>
</linearGradient>
<linearGradient id="paint15_linear_4563_108131" x1="433" y1="23.1384" x2="479.905" y2="306.633" gradientUnits="userSpaceOnUse">
<stop offset="0.0015505" stop-color="#F8FEFF"/>
<stop offset="1" stop-color="#D6C8FF"/>
</linearGradient>
<linearGradient id="paint16_linear_4563_108131" x1="373" y1="433" x2="290.995" y2="143.727" gradientUnits="userSpaceOnUse">
<stop stop-color="#077393" stop-opacity="0.86"/>
<stop offset="0.22806" stop-color="white" stop-opacity="0.6"/>
<stop offset="1" stop-color="#8CE0F0" stop-opacity="0"/>
</linearGradient>
<linearGradient id="paint17_linear_4563_108131" x1="483.284" y1="25.4152" x2="138" y2="25.4152" gradientUnits="userSpaceOnUse">
<stop stop-color="#0081A7" stop-opacity="0"/>
<stop offset="0.20902" stop-color="#EAEDFF" stop-opacity="0.38"/>
<stop offset="1" stop-color="#D5DAFF"/>
</linearGradient>
<clipPath id="clip0_4563_108131">
<rect width="588" height="472" fill="white"/>
</clipPath>
</defs>
</svg>
