<svg xmlns="http://www.w3.org/2000/svg" width="328" height="232" fill="none"><path fill="url(#a)" d="M244.68 58.525C190.336-4.07 97.787 27.875 53.698 68.726-65.581 179.243 453.336 298.86 244.68 58.525Z"/><path fill="url(#b)" d="M163.762 89.855 54.667 152.84l109.095 62.986 109.096-62.986-109.096-62.985Z"/><path fill="#F3F5FA" d="M163.762 81.774 54.667 144.759l109.095 62.986 109.096-62.986-109.096-62.985Z"/><path fill="url(#c)" fill-rule="evenodd" d="m167.803 132.51 41.594-24.116 41.594 23.878-41.832 24.134-41.356-23.896Zm-52.765 27.571 41.594-24.116 41.594 23.878-41.832 24.134-41.356-23.896Z" clip-rule="evenodd"/><g opacity=".8"><path fill="url(#d)" d="M253.368 117.143V72.376l-41.832 24.131v44.559l41.832-23.923Z"/><path fill="url(#e)" d="M253.368 117.143V72.376l-41.832 24.131v44.559l41.832-23.923Z"/><path fill="url(#f)" d="M253.368 117.143V72.376l-41.832 24.131v44.559l41.832-23.923Z"/></g><g opacity=".8"><path fill="url(#g)" d="M211.536 96.507v44.559l-41.356-23.894V72.614l41.356 23.893Z"/><path fill="url(#h)" d="M211.536 96.507v44.559l-41.356-23.894V72.614l41.356 23.893Z"/><path fill="url(#i)" d="M211.536 96.507v44.559l-41.356-23.894V72.614l41.356 23.893Z"/></g><path fill="url(#j)" d="m207.02 96.144-36.84 20.679V75.466l36.84 20.678Z" opacity=".78"/><g opacity=".8"><path fill="url(#k)" d="M211.774 48.498 170.18 72.614l41.356 23.896 41.832-24.134-41.594-23.878Z"/><path fill="url(#l)" d="M211.774 48.498 170.18 72.614l41.356 23.896 41.832-24.134-41.594-23.878Z"/><path fill="url(#m)" d="M211.774 48.498 170.18 72.614l41.356 23.896 41.832-24.134-41.594-23.878Z"/></g><g opacity=".8"><path fill="url(#n)" d="M200.603 146.616v-44.768l-41.832 24.132v44.558l41.832-23.922Z"/><path fill="url(#o)" d="M200.603 146.616v-44.768l-41.832 24.132v44.558l41.832-23.922Z"/><path fill="url(#p)" d="M200.603 146.616v-44.768l-41.832 24.132v44.558l41.832-23.922Z"/></g><g opacity=".8"><path fill="url(#q)" d="M158.771 125.98v44.558l-41.357-23.893v-44.559l41.357 23.894Z"/><path fill="url(#r)" d="M158.771 125.98v44.558l-41.357-23.893v-44.559l41.357 23.894Z"/><path fill="url(#s)" d="M158.771 125.98v44.558l-41.357-23.893v-44.559l41.357 23.894Z"/></g><path fill="url(#t)" d="m154.255 125.617-36.841 20.678v-41.357l36.841 20.679Z" opacity=".78"/><g opacity=".8"><path fill="url(#u)" d="m159.009 77.97-41.595 24.116 41.357 23.897 41.832-24.134-41.594-23.878Z"/><path fill="url(#v)" d="m159.009 77.97-41.595 24.116 41.357 23.897 41.832-24.134-41.594-23.878Z"/><path fill="url(#w)" d="m159.009 77.97-41.595 24.116 41.357 23.897 41.832-24.134-41.594-23.878Z"/></g><g opacity=".8"><path fill="url(#x)" d="M200.603 87.196V42.428L158.771 66.56v44.558l41.832-23.922Z"/><path fill="url(#y)" d="M200.603 87.196V42.428L158.771 66.56v44.558l41.832-23.922Z"/><path fill="url(#z)" d="M200.603 87.196V42.428L158.771 66.56v44.558l41.832-23.922Z"/></g><g opacity=".8"><path fill="url(#A)" d="M158.771 66.56v44.558l-41.357-23.893V42.666l41.357 23.894Z"/><path fill="url(#B)" d="M158.771 66.56v44.558l-41.357-23.893V42.666l41.357 23.894Z"/><path fill="url(#C)" d="M158.771 66.56v44.558l-41.357-23.893V42.666l41.357 23.894Z"/></g><path fill="url(#D)" d="m154.255 66.197-36.841 20.678V45.518l36.841 20.679Z" opacity=".78"/><g opacity=".8"><path fill="url(#E)" d="m159.009 18.55-41.595 24.116 41.357 23.896 41.832-24.133-41.594-23.878Z"/><path fill="url(#F)" d="m159.009 18.55-41.595 24.116 41.357 23.896 41.832-24.133-41.594-23.878Z"/><path fill="url(#G)" d="m159.009 18.55-41.595 24.116 41.357 23.896 41.832-24.133-41.594-23.878Z"/></g><g opacity=".8"><path fill="url(#H)" d="M145.936 179.891v-44.767l-41.832 24.131v44.559l41.832-23.923Z"/><path fill="url(#I)" d="M145.936 179.891v-44.767l-41.832 24.131v44.559l41.832-23.923Z"/><path fill="url(#J)" d="M145.936 179.891v-44.767l-41.832 24.131v44.559l41.832-23.923Z"/></g><g opacity=".8"><path fill="url(#K)" d="M104.104 159.255v44.559L62.748 179.92v-44.558l41.356 23.893Z"/><path fill="url(#L)" d="M104.104 159.255v44.559L62.748 179.92v-44.558l41.356 23.893Z"/><path fill="url(#M)" d="M104.104 159.255v44.559L62.748 179.92v-44.558l41.356 23.893Z"/></g><path fill="url(#N)" d="m99.588 158.892-36.84 20.678v-41.356l36.84 20.678Z" opacity=".78"/><g opacity=".8"><path fill="url(#O)" d="m104.342 111.246-41.594 24.116 41.356 23.896 41.832-24.134-41.594-23.878Z"/><path fill="url(#P)" d="m104.342 111.246-41.594 24.116 41.356 23.896 41.832-24.134-41.594-23.878Z"/><path fill="url(#Q)" d="m104.342 111.246-41.594 24.116 41.356 23.896 41.832-24.134-41.594-23.878Z"/></g><path fill="url(#R)" d="m183.043 89.826 2.14-1.225a20.248 20.248 0 0 0 10.191-17.573c0-8.553-9.243-13.913-16.666-9.665l-2.14 1.224a20.246 20.246 0 0 0-10.191 17.573c0 8.554 9.242 13.914 16.666 9.666Z"/><path fill="url(#S)" d="m183.043 149.246 2.14-1.225a20.246 20.246 0 0 0 10.191-17.573c0-8.553-9.243-13.913-16.666-9.665l-2.14 1.225a20.244 20.244 0 0 0-10.191 17.573c0 8.553 9.242 13.913 16.666 9.665Z"/><path fill="url(#T)" d="m236.284 120.724 2.14-1.224a20.248 20.248 0 0 0 10.19-17.573c0-8.554-9.242-13.914-16.666-9.666l-2.14 1.225a20.248 20.248 0 0 0-10.191 17.573c0 8.553 9.243 13.913 16.667 9.665Z"/><path fill="url(#U)" d="m127.426 183.472 2.14-1.225a20.246 20.246 0 0 0 10.191-17.573c0-8.553-9.243-13.913-16.667-9.665l-2.14 1.225a20.246 20.246 0 0 0-10.191 17.573c0 8.553 9.243 13.913 16.667 9.665Z"/><g filter="url(#V)"><path stroke="#00E995" stroke-linecap="round" stroke-linejoin="round" stroke-width="7.606" d="m187.768 85.577 4.754 6.18 10.22-14.737"/></g><g filter="url(#W)"><path stroke="#00E995" stroke-linecap="round" stroke-linejoin="round" stroke-width="7.606" d="m187.768 145.473 4.754 6.179 10.22-14.736"/></g><g filter="url(#X)"><path stroke="#FF7272" stroke-linecap="round" stroke-linejoin="round" stroke-width="7.606" d="m242.435 111.75 11.884 6.037m-.974-11.294-9.157 16.162"/></g><g filter="url(#Y)"><path stroke="#00B4D5" stroke-linecap="round" stroke-linejoin="round" stroke-width="7.606" d="M135.716 173.756v12.835m8.794-17.351v12.835"/></g><defs><linearGradient id="a" x1="133.541" x2="120.024" y1="45.571" y2="207.054" gradientUnits="userSpaceOnUse"><stop offset=".026" stop-color="#DAF6FF"/><stop offset=".333" stop-color="#DBD1FD" stop-opacity=".788"/></linearGradient><linearGradient id="b" x1="177.072" x2="189.807" y1="153.078" y2="222.71" gradientUnits="userSpaceOnUse"><stop stop-color="#8791AB"/><stop offset="1" stop-color="#DCE3FF"/></linearGradient><linearGradient id="c" x1="191.146" x2="202.033" y1="151.41" y2="179.253" gradientUnits="userSpaceOnUse"><stop stop-color="#8791AB"/><stop offset=".844" stop-color="#BEC6E1" stop-opacity=".75"/></linearGradient><linearGradient id="d" x1="253.368" x2="267.352" y1="72.614" y2="130.016" gradientUnits="userSpaceOnUse"><stop offset=".002" stop-color="#44DCFE"/><stop offset="1" stop-color="#3500D5"/></linearGradient><linearGradient id="e" x1="235.067" x2="220.093" y1="132.747" y2="103.275" gradientUnits="userSpaceOnUse"><stop stop-color="#077393" stop-opacity=".86"/><stop offset=".228" stop-color="#fff" stop-opacity=".6"/><stop offset="1" stop-color="#8CE0F0" stop-opacity="0"/></linearGradient><linearGradient id="f" x1="260.499" x2="211.536" y1="73.089" y2="73.089" gradientUnits="userSpaceOnUse"><stop stop-color="#0081A7" stop-opacity="0"/><stop offset=".209" stop-color="#EAEDFF" stop-opacity=".38"/><stop offset="1" stop-color="#D5DAFF"/></linearGradient><linearGradient id="g" x1="170.18" x2="166.407" y1="75.228" y2="141.898" gradientUnits="userSpaceOnUse"><stop offset=".002" stop-color="#fff"/><stop offset="1" stop-color="#5DE5FE"/></linearGradient><linearGradient id="h" x1="195.136" x2="213.675" y1="133.46" y2="101.373" gradientUnits="userSpaceOnUse"><stop stop-color="#57CEE4"/><stop offset=".109" stop-color="#fff" stop-opacity=".519"/><stop offset="1" stop-color="#DEF7FF"/></linearGradient><linearGradient id="i" x1="168.278" x2="213.2" y1="108.504" y2="108.504" gradientUnits="userSpaceOnUse"><stop stop-color="#7BD4E6"/><stop offset=".088" stop-color="#fff" stop-opacity=".51"/><stop offset="1" stop-color="#32C8FC" stop-opacity=".13"/></linearGradient><linearGradient id="j" x1="188.6" x2="188.6" y1="75.466" y2="116.823" gradientUnits="userSpaceOnUse"><stop offset=".05" stop-color="#F0DFF8" stop-opacity="0"/><stop offset="1" stop-color="#C2E0FC"/></linearGradient><linearGradient id="k" x1="170.18" x2="252.112" y1="72.504" y2="62.359" gradientUnits="userSpaceOnUse"><stop offset=".198" stop-color="#F2FDFF"/><stop offset="1" stop-color="#FFBFF1"/></linearGradient><linearGradient id="l" x1="189.67" x2="215.577" y1="58.006" y2="103.878" gradientUnits="userSpaceOnUse"><stop stop-color="#FEAFE7" stop-opacity=".76"/><stop offset=".083" stop-color="#fff" stop-opacity=".917"/><stop offset="1" stop-color="#E2F7FB" stop-opacity="0"/></linearGradient><linearGradient id="m" x1="236.73" x2="191.809" y1="57.768" y2="137.391" gradientUnits="userSpaceOnUse"><stop stop-color="#BB66E1"/><stop offset=".094" stop-color="#fff" stop-opacity="0"/><stop offset=".969" stop-color="#F8DBEC"/></linearGradient><linearGradient id="n" x1="200.603" x2="214.587" y1="102.086" y2="159.489" gradientUnits="userSpaceOnUse"><stop offset=".002" stop-color="#44DCFE"/><stop offset="1" stop-color="#3500D5"/></linearGradient><linearGradient id="o" x1="182.301" x2="167.327" y1="162.219" y2="132.747" gradientUnits="userSpaceOnUse"><stop stop-color="#077393" stop-opacity=".86"/><stop offset=".228" stop-color="#fff" stop-opacity=".6"/><stop offset="1" stop-color="#8CE0F0" stop-opacity="0"/></linearGradient><linearGradient id="p" x1="207.733" x2="158.771" y1="102.561" y2="102.561" gradientUnits="userSpaceOnUse"><stop stop-color="#0081A7" stop-opacity="0"/><stop offset=".209" stop-color="#EAEDFF" stop-opacity=".38"/><stop offset="1" stop-color="#D5DAFF"/></linearGradient><linearGradient id="q" x1="117.414" x2="113.642" y1="104.701" y2="171.37" gradientUnits="userSpaceOnUse"><stop offset=".002" stop-color="#fff"/><stop offset="1" stop-color="#5DE5FE"/></linearGradient><linearGradient id="r" x1="142.371" x2="160.91" y1="162.933" y2="130.846" gradientUnits="userSpaceOnUse"><stop stop-color="#57CEE4"/><stop offset=".109" stop-color="#fff" stop-opacity=".519"/><stop offset="1" stop-color="#DEF7FF"/></linearGradient><linearGradient id="s" x1="115.513" x2="160.435" y1="137.976" y2="137.976" gradientUnits="userSpaceOnUse"><stop stop-color="#7BD4E6"/><stop offset=".088" stop-color="#fff" stop-opacity=".51"/><stop offset="1" stop-color="#32C8FC" stop-opacity=".13"/></linearGradient><linearGradient id="t" x1="135.835" x2="135.835" y1="104.938" y2="146.295" gradientUnits="userSpaceOnUse"><stop offset=".05" stop-color="#F0DFF8" stop-opacity="0"/><stop offset="1" stop-color="#C2E0FC"/></linearGradient><linearGradient id="u" x1="117.414" x2="199.346" y1="101.977" y2="91.831" gradientUnits="userSpaceOnUse"><stop offset=".198" stop-color="#F2FDFF"/><stop offset="1" stop-color="#FFBFF1"/></linearGradient><linearGradient id="v" x1="136.904" x2="162.812" y1="87.478" y2="133.351" gradientUnits="userSpaceOnUse"><stop stop-color="#FEAFE7" stop-opacity=".76"/><stop offset=".083" stop-color="#fff" stop-opacity=".917"/><stop offset="1" stop-color="#E2F7FB" stop-opacity="0"/></linearGradient><linearGradient id="w" x1="183.965" x2="139.043" y1="87.24" y2="166.864" gradientUnits="userSpaceOnUse"><stop stop-color="#BB66E1"/><stop offset=".094" stop-color="#fff" stop-opacity="0"/><stop offset=".969" stop-color="#F8DBEC"/></linearGradient><linearGradient id="x" x1="200.603" x2="214.587" y1="42.666" y2="100.069" gradientUnits="userSpaceOnUse"><stop offset=".002" stop-color="#44DCFE"/><stop offset="1" stop-color="#3500D5"/></linearGradient><linearGradient id="y" x1="182.301" x2="167.327" y1="102.799" y2="73.327" gradientUnits="userSpaceOnUse"><stop stop-color="#077393" stop-opacity=".86"/><stop offset=".228" stop-color="#fff" stop-opacity=".6"/><stop offset="1" stop-color="#8CE0F0" stop-opacity="0"/></linearGradient><linearGradient id="z" x1="207.733" x2="158.771" y1="43.141" y2="43.141" gradientUnits="userSpaceOnUse"><stop stop-color="#0081A7" stop-opacity="0"/><stop offset=".209" stop-color="#EAEDFF" stop-opacity=".38"/><stop offset="1" stop-color="#D5DAFF"/></linearGradient><linearGradient id="A" x1="117.414" x2="113.642" y1="45.281" y2="111.95" gradientUnits="userSpaceOnUse"><stop offset=".002" stop-color="#fff"/><stop offset="1" stop-color="#5DE5FE"/></linearGradient><linearGradient id="B" x1="142.371" x2="160.91" y1="103.512" y2="71.425" gradientUnits="userSpaceOnUse"><stop stop-color="#57CEE4"/><stop offset=".109" stop-color="#fff" stop-opacity=".519"/><stop offset="1" stop-color="#DEF7FF"/></linearGradient><linearGradient id="C" x1="115.513" x2="160.435" y1="78.556" y2="78.556" gradientUnits="userSpaceOnUse"><stop stop-color="#7BD4E6"/><stop offset=".088" stop-color="#fff" stop-opacity=".51"/><stop offset="1" stop-color="#32C8FC" stop-opacity=".13"/></linearGradient><linearGradient id="D" x1="135.835" x2="135.835" y1="45.518" y2="86.875" gradientUnits="userSpaceOnUse"><stop offset=".05" stop-color="#F0DFF8" stop-opacity="0"/><stop offset="1" stop-color="#C2E0FC"/></linearGradient><linearGradient id="E" x1="117.414" x2="199.346" y1="42.557" y2="32.411" gradientUnits="userSpaceOnUse"><stop offset=".198" stop-color="#F2FDFF"/><stop offset="1" stop-color="#FFBFF1"/></linearGradient><linearGradient id="F" x1="136.904" x2="162.812" y1="28.058" y2="73.93" gradientUnits="userSpaceOnUse"><stop stop-color="#FEAFE7" stop-opacity=".76"/><stop offset=".083" stop-color="#fff" stop-opacity=".917"/><stop offset="1" stop-color="#E2F7FB" stop-opacity="0"/></linearGradient><linearGradient id="G" x1="183.965" x2="139.043" y1="27.82" y2="107.444" gradientUnits="userSpaceOnUse"><stop stop-color="#BB66E1"/><stop offset=".094" stop-color="#fff" stop-opacity="0"/><stop offset=".969" stop-color="#F8DBEC"/></linearGradient><linearGradient id="H" x1="145.936" x2="159.92" y1="135.361" y2="192.764" gradientUnits="userSpaceOnUse"><stop offset=".002" stop-color="#44DCFE"/><stop offset="1" stop-color="#3500D5"/></linearGradient><linearGradient id="I" x1="127.635" x2="112.661" y1="195.495" y2="166.022" gradientUnits="userSpaceOnUse"><stop stop-color="#077393" stop-opacity=".86"/><stop offset=".228" stop-color="#fff" stop-opacity=".6"/><stop offset="1" stop-color="#8CE0F0" stop-opacity="0"/></linearGradient><linearGradient id="J" x1="153.067" x2="104.104" y1="135.837" y2="135.837" gradientUnits="userSpaceOnUse"><stop stop-color="#0081A7" stop-opacity="0"/><stop offset=".209" stop-color="#EAEDFF" stop-opacity=".38"/><stop offset="1" stop-color="#D5DAFF"/></linearGradient><linearGradient id="K" x1="62.748" x2="58.975" y1="137.976" y2="204.646" gradientUnits="userSpaceOnUse"><stop offset=".002" stop-color="#fff"/><stop offset="1" stop-color="#5DE5FE"/></linearGradient><linearGradient id="L" x1="87.704" x2="106.244" y1="196.208" y2="164.121" gradientUnits="userSpaceOnUse"><stop stop-color="#57CEE4"/><stop offset=".109" stop-color="#fff" stop-opacity=".519"/><stop offset="1" stop-color="#DEF7FF"/></linearGradient><linearGradient id="M" x1="60.846" x2="105.768" y1="171.251" y2="171.251" gradientUnits="userSpaceOnUse"><stop stop-color="#7BD4E6"/><stop offset=".088" stop-color="#fff" stop-opacity=".51"/><stop offset="1" stop-color="#32C8FC" stop-opacity=".13"/></linearGradient><linearGradient id="N" x1="81.168" x2="81.168" y1="138.214" y2="179.57" gradientUnits="userSpaceOnUse"><stop offset=".05" stop-color="#F0DFF8" stop-opacity="0"/><stop offset="1" stop-color="#C2E0FC"/></linearGradient><linearGradient id="O" x1="62.748" x2="144.68" y1="135.252" y2="125.106" gradientUnits="userSpaceOnUse"><stop offset=".198" stop-color="#F2FDFF"/><stop offset="1" stop-color="#FFBFF1"/></linearGradient><linearGradient id="P" x1="82.238" x2="108.145" y1="120.754" y2="166.626" gradientUnits="userSpaceOnUse"><stop stop-color="#FEAFE7" stop-opacity=".76"/><stop offset=".083" stop-color="#fff" stop-opacity=".917"/><stop offset="1" stop-color="#E2F7FB" stop-opacity="0"/></linearGradient><linearGradient id="Q" x1="129.299" x2="84.377" y1="120.516" y2="200.139" gradientUnits="userSpaceOnUse"><stop stop-color="#BB66E1"/><stop offset=".094" stop-color="#fff" stop-opacity="0"/><stop offset=".969" stop-color="#F8DBEC"/></linearGradient><radialGradient id="R" cx="0" cy="0" r="1" gradientTransform="rotate(-138.945 109.06 5.377) scale(19.542 27.1187)" gradientUnits="userSpaceOnUse"><stop offset=".002" stop-color="#fff" stop-opacity="0"/><stop offset="1" stop-color="#B4C3FF"/></radialGradient><radialGradient id="S" cx="0" cy="0" r="1" gradientTransform="rotate(-138.945 120.184 35.087) scale(19.542 27.1187)" gradientUnits="userSpaceOnUse"><stop offset=".002" stop-color="#fff" stop-opacity="0"/><stop offset="1" stop-color="#B4C3FF"/></radialGradient><radialGradient id="T" cx="0" cy="0" r="1" gradientTransform="rotate(-138.945 141.465 10.859) scale(19.542 27.1187)" gradientUnits="userSpaceOnUse"><stop offset=".002" stop-color="#fff" stop-opacity="0"/><stop offset="1" stop-color="#B4C3FF"/></radialGradient><radialGradient id="U" cx="0" cy="0" r="1" gradientTransform="rotate(-138.945 98.783 62.613) scale(19.542 27.1187)" gradientUnits="userSpaceOnUse"><stop offset=".002" stop-color="#fff" stop-opacity="0"/><stop offset="1" stop-color="#B4C3FF"/></radialGradient><filter id="V" width="37.792" height="30.423" x="169.704" y="65.136" color-interpolation-filters="sRGB" filterUnits="userSpaceOnUse"><feFlood flood-opacity="0" result="BackgroundImageFix"/><feColorMatrix in="SourceAlpha" result="hardAlpha" values="0 0 0 0 0 0 0 0 0 0 0 0 0 0 0 0 0 0 127 0"/><feOffset dx="-14.261" dy="-8.081"/><feComposite in2="hardAlpha" operator="out"/><feColorMatrix values="0 0 0 0 1 0 0 0 0 1 0 0 0 0 1 0 0 0 0.49 0"/><feBlend in2="BackgroundImageFix" result="effect1_dropShadow_8590_12937"/><feBlend in="SourceGraphic" in2="effect1_dropShadow_8590_12937" result="shape"/><feColorMatrix in="SourceAlpha" result="hardAlpha" values="0 0 0 0 0 0 0 0 0 0 0 0 0 0 0 0 0 0 127 0"/><feOffset dx=".475" dy=".475"/><feComposite in2="hardAlpha" k2="-1" k3="1" operator="arithmetic"/><feColorMatrix values="0 0 0 0 1 0 0 0 0 1 0 0 0 0 1 0 0 0 1 0"/><feBlend in2="shape" result="effect2_innerShadow_8590_12937"/><feColorMatrix in="SourceAlpha" result="hardAlpha" values="0 0 0 0 0 0 0 0 0 0 0 0 0 0 0 0 0 0 127 0"/><feOffset dx=".951" dy="-1.426"/><feGaussianBlur stdDeviation=".713"/><feComposite in2="hardAlpha" k2="-1" k3="1" operator="arithmetic"/><feColorMatrix values="0 0 0 0 0.02 0 0 0 0 0 0 0 0 0 1 0 0 0 0.25 0"/><feBlend in2="effect2_innerShadow_8590_12937" result="effect3_innerShadow_8590_12937"/></filter><filter id="W" width="37.792" height="30.423" x="169.704" y="125.032" color-interpolation-filters="sRGB" filterUnits="userSpaceOnUse"><feFlood flood-opacity="0" result="BackgroundImageFix"/><feColorMatrix in="SourceAlpha" result="hardAlpha" values="0 0 0 0 0 0 0 0 0 0 0 0 0 0 0 0 0 0 127 0"/><feOffset dx="-14.261" dy="-8.081"/><feComposite in2="hardAlpha" operator="out"/><feColorMatrix values="0 0 0 0 1 0 0 0 0 1 0 0 0 0 1 0 0 0 0.49 0"/><feBlend in2="BackgroundImageFix" result="effect1_dropShadow_8590_12937"/><feBlend in="SourceGraphic" in2="effect1_dropShadow_8590_12937" result="shape"/><feColorMatrix in="SourceAlpha" result="hardAlpha" values="0 0 0 0 0 0 0 0 0 0 0 0 0 0 0 0 0 0 127 0"/><feOffset dx=".475" dy=".475"/><feComposite in2="hardAlpha" k2="-1" k3="1" operator="arithmetic"/><feColorMatrix values="0 0 0 0 1 0 0 0 0 1 0 0 0 0 1 0 0 0 1 0"/><feBlend in2="shape" result="effect2_innerShadow_8590_12937"/><feColorMatrix in="SourceAlpha" result="hardAlpha" values="0 0 0 0 0 0 0 0 0 0 0 0 0 0 0 0 0 0 127 0"/><feOffset dx=".951" dy="-1.426"/><feGaussianBlur stdDeviation=".713"/><feComposite in2="hardAlpha" k2="-1" k3="1" operator="arithmetic"/><feColorMatrix values="0 0 0 0 0.02 0 0 0 0 0 0 0 0 0 1 0 0 0 0.25 0"/><feBlend in2="effect2_innerShadow_8590_12937" result="effect3_innerShadow_8590_12937"/></filter><filter id="X" width="34.703" height="31.85" x="224.37" y="94.608" color-interpolation-filters="sRGB" filterUnits="userSpaceOnUse"><feFlood flood-opacity="0" result="BackgroundImageFix"/><feColorMatrix in="SourceAlpha" result="hardAlpha" values="0 0 0 0 0 0 0 0 0 0 0 0 0 0 0 0 0 0 127 0"/><feOffset dx="-14.261" dy="-8.081"/><feComposite in2="hardAlpha" operator="out"/><feColorMatrix values="0 0 0 0 1 0 0 0 0 1 0 0 0 0 1 0 0 0 0.49 0"/><feBlend in2="BackgroundImageFix" result="effect1_dropShadow_8590_12937"/><feBlend in="SourceGraphic" in2="effect1_dropShadow_8590_12937" result="shape"/><feColorMatrix in="SourceAlpha" result="hardAlpha" values="0 0 0 0 0 0 0 0 0 0 0 0 0 0 0 0 0 0 127 0"/><feOffset dx=".475" dy=".475"/><feComposite in2="hardAlpha" k2="-1" k3="1" operator="arithmetic"/><feColorMatrix values="0 0 0 0 1 0 0 0 0 1 0 0 0 0 1 0 0 0 1 0"/><feBlend in2="shape" result="effect2_innerShadow_8590_12937"/><feColorMatrix in="SourceAlpha" result="hardAlpha" values="0 0 0 0 0 0 0 0 0 0 0 0 0 0 0 0 0 0 127 0"/><feOffset dx=".951" dy="-1.426"/><feGaussianBlur stdDeviation=".713"/><feComposite in2="hardAlpha" k2="-1" k3="1" operator="arithmetic"/><feColorMatrix values="0 0 0 0 0.02 0 0 0 0 0 0 0 0 0 1 0 0 0 0.25 0"/><feBlend in2="effect2_innerShadow_8590_12937" result="effect3_innerShadow_8590_12937"/></filter><filter id="Y" width="31.612" height="33.038" x="117.652" y="157.356" color-interpolation-filters="sRGB" filterUnits="userSpaceOnUse"><feFlood flood-opacity="0" result="BackgroundImageFix"/><feColorMatrix in="SourceAlpha" result="hardAlpha" values="0 0 0 0 0 0 0 0 0 0 0 0 0 0 0 0 0 0 127 0"/><feOffset dx="-14.261" dy="-8.081"/><feComposite in2="hardAlpha" operator="out"/><feColorMatrix values="0 0 0 0 1 0 0 0 0 1 0 0 0 0 1 0 0 0 0.49 0"/><feBlend in2="BackgroundImageFix" result="effect1_dropShadow_8590_12937"/><feBlend in="SourceGraphic" in2="effect1_dropShadow_8590_12937" result="shape"/><feColorMatrix in="SourceAlpha" result="hardAlpha" values="0 0 0 0 0 0 0 0 0 0 0 0 0 0 0 0 0 0 127 0"/><feOffset dx=".475" dy=".475"/><feComposite in2="hardAlpha" k2="-1" k3="1" operator="arithmetic"/><feColorMatrix values="0 0 0 0 1 0 0 0 0 1 0 0 0 0 1 0 0 0 1 0"/><feBlend in2="shape" result="effect2_innerShadow_8590_12937"/><feColorMatrix in="SourceAlpha" result="hardAlpha" values="0 0 0 0 0 0 0 0 0 0 0 0 0 0 0 0 0 0 127 0"/><feOffset dx=".951" dy="-1.426"/><feGaussianBlur stdDeviation=".713"/><feComposite in2="hardAlpha" k2="-1" k3="1" operator="arithmetic"/><feColorMatrix values="0 0 0 0 0.02 0 0 0 0 0 0 0 0 0 1 0 0 0 0.25 0"/><feBlend in2="effect2_innerShadow_8590_12937" result="effect3_innerShadow_8590_12937"/></filter></defs></svg>
