<svg xmlns="http://www.w3.org/2000/svg" width="328" height="263" fill="none"><g clip-path="url(#a)"><path d="M0 0h328v263H0z"/><path fill="url(#b)" d="M265.069 44.953c21.31 36.38-74.056 156.098-117.082 181.245-43.026 25.147-113.28-48.22-134.59-84.6-21.31-36.38 6.024-59.79 49.05-84.936 72.532-42.393 181.312-48.089 202.622-11.71Z"/><path fill="url(#c)" d="M167.87 218.697c-8.32-17.809 54.418-75.469 80.118-87.449 47.261-26.597 63.805 14.813 65.653 41.897.882 12.932-8.677 29.034-34.377 41.014-43.324 20.197-103.073 22.346-111.394 4.538Z"/><path fill="url(#d)" d="m167.786 97.754-128.02 73.911 128.02 73.912 128.02-73.912-128.02-73.911Z"/><path fill="#F3F5FA" d="M167.786 88.828 39.766 162.74l128.02 73.912 128.02-73.912-128.02-73.912Z"/><path fill="url(#e)" d="m169.43 224.397-101.921-59.28c-2.197-1.278-2.224-4.441-.05-5.757l62.392-37.755 112.122 64.357-65.801 38.429a6.693 6.693 0 0 1-6.742.006Z"/><path fill="url(#f)" d="m170.571 221.359-102.955-59.54c-2.222-1.285-2.23-4.491-.013-5.787l58.901-34.427 112.122 64.357-61.358 35.4a6.696 6.696 0 0 1-6.697-.003Z"/><path fill="url(#g)" d="m170.571 221.359-102.955-59.54c-2.222-1.285-2.23-4.491-.013-5.787l58.901-34.427 112.122 64.357-61.358 35.4a6.696 6.696 0 0 1-6.697-.003Z"/><path fill="url(#h)" d="m170.571 221.359-102.955-59.54c-2.222-1.285-2.23-4.491-.013-5.787l58.901-34.427 112.122 64.357-61.358 35.4a6.696 6.696 0 0 1-6.697-.003Z"/><path fill="url(#i)" d="m183.853 206.064-92.698-54.18c-2.243-1.311-2.201-4.568.075-5.821l34.812-19.165 101.429 59.064-37.035 20.199a6.697 6.697 0 0 1-6.583-.097Z"/><path fill="url(#j)" d="m183.853 206.064-92.698-54.18c-2.243-1.311-2.201-4.568.075-5.821l34.812-19.165 101.429 59.064-37.035 20.199a6.697 6.697 0 0 1-6.583-.097Z"/><path fill="url(#k)" d="m183.853 206.064-92.698-54.18c-2.243-1.311-2.201-4.568.075-5.821l34.812-19.165 101.429 59.064-37.035 20.199a6.697 6.697 0 0 1-6.583-.097Z"/><g fill-rule="evenodd" clip-rule="evenodd" filter="url(#l)"><path fill="url(#m)" d="m118.991 133.363 8.25 4.681a3.347 3.347 0 0 0 3.237.037l5.062-2.723a1.116 1.116 0 0 0 .02-1.955l-8.307-4.681a3.347 3.347 0 0 0-3.24-.026l-5.004 2.717a1.115 1.115 0 0 0-.018 1.95Zm-19.524 10.03 8.249 4.681a3.347 3.347 0 0 0 3.237.037l5.063-2.724a1.115 1.115 0 0 0 .019-1.954l-8.306-4.681a3.345 3.345 0 0 0-3.24-.026l-5.004 2.716a1.116 1.116 0 0 0-.018 1.951Zm24.981 3.557-14.672-8.392a1.116 1.116 0 0 1 .022-1.949l5.002-2.716a3.347 3.347 0 0 1 3.253.033l14.731 8.39a1.116 1.116 0 0 1-.023 1.952l-5.066 2.725a3.345 3.345 0 0 1-3.247-.043Zm-34.472 2.017 14.671 8.393a3.35 3.35 0 0 0 3.248.042l5.065-2.724a1.116 1.116 0 0 0 .024-1.952l-14.731-8.39a3.345 3.345 0 0 0-3.253-.033l-5.003 2.715a1.116 1.116 0 0 0-.021 1.949Zm49.54-3.679-8.25-4.681a1.116 1.116 0 0 1 .018-1.951l5.004-2.716a3.345 3.345 0 0 1 3.24.026l8.307 4.681a1.115 1.115 0 0 1-.02 1.954l-5.062 2.724a3.347 3.347 0 0 1-3.237-.037Zm-27.774 5.349 8.249 4.681a3.35 3.35 0 0 0 3.237.036l5.063-2.723a1.115 1.115 0 0 0 .019-1.954l-8.306-4.682a3.347 3.347 0 0 0-3.24-.025l-5.004 2.716a1.116 1.116 0 0 0-.018 1.951Zm24.983 3.566-8.25-4.681a1.115 1.115 0 0 1 .019-1.95l5.003-2.717a3.345 3.345 0 0 1 3.24.026l8.307 4.681a1.116 1.116 0 0 1-.019 1.955l-5.063 2.723a3.347 3.347 0 0 1-3.237-.037Zm-28.054 5.729 8.25 4.681a3.347 3.347 0 0 0 3.237.036l5.063-2.723a1.115 1.115 0 0 0 .019-1.954l-8.307-4.682a3.347 3.347 0 0 0-3.24-.025l-5.003 2.716a1.116 1.116 0 0 0-.019 1.951Zm43.672-7.4-8.25-4.681a1.116 1.116 0 0 1 .019-1.951l5.003-2.717a3.35 3.35 0 0 1 3.24.026l8.307 4.682a1.115 1.115 0 0 1-.019 1.954l-5.063 2.723a3.35 3.35 0 0 1-3.237-.036Zm-27.77 5.348 8.249 4.681a3.347 3.347 0 0 0 3.237.037l5.063-2.723a1.116 1.116 0 0 0 .019-1.955l-8.306-4.681a3.345 3.345 0 0 0-3.24-.026l-5.004 2.717a1.115 1.115 0 0 0-.018 1.95Zm24.983 3.567-8.25-4.681a1.116 1.116 0 0 1 .019-1.951l5.003-2.716a3.347 3.347 0 0 1 3.24.025l8.307 4.682a1.115 1.115 0 0 1-.019 1.954l-5.063 2.723a3.344 3.344 0 0 1-3.237-.036Zm-28.069 5.731 33.191 19.051a3.347 3.347 0 0 0 3.252.045l5.067-2.726a1.116 1.116 0 0 0 .026-1.951l-33.252-19.044a3.347 3.347 0 0 0-3.26-.038l-5.001 2.715a1.116 1.116 0 0 0-.023 1.948Zm43.687-7.403-8.25-4.681a1.115 1.115 0 0 1 .019-1.95l5.003-2.717a3.345 3.345 0 0 1 3.24.026l8.307 4.681a1.116 1.116 0 0 1-.019 1.955l-5.063 2.723a3.347 3.347 0 0 1-3.237-.037Zm-27.774 5.349 8.249 4.681a3.346 3.346 0 0 0 3.238.036l5.062-2.723a1.116 1.116 0 0 0 .02-1.954l-8.307-4.682a3.347 3.347 0 0 0-3.24-.025l-5.004 2.716a1.116 1.116 0 0 0-.018 1.951Zm24.987 3.566-8.25-4.68a1.116 1.116 0 0 1 .019-1.951l5.003-2.717a3.347 3.347 0 0 1 3.24.026l8.307 4.682a1.115 1.115 0 0 1-.019 1.954l-5.063 2.723a3.347 3.347 0 0 1-3.237-.037Zm6.809-6.352 8.249 4.681a3.344 3.344 0 0 0 3.237.036l5.063-2.723a1.115 1.115 0 0 0 .019-1.954l-8.306-4.682a3.35 3.35 0 0 0-3.241-.025l-5.003 2.716a1.115 1.115 0 0 0-.018 1.951Zm-11.275 14.71-8.25-4.68a1.116 1.116 0 0 1 .019-1.951l5.003-2.717a3.347 3.347 0 0 1 3.24.026l8.307 4.682a1.115 1.115 0 0 1-.019 1.954l-5.063 2.723a3.347 3.347 0 0 1-3.237-.037Zm8.484-5.795 8.249 4.681a3.347 3.347 0 0 0 3.237.037l5.063-2.723a1.116 1.116 0 0 0 .019-1.955l-8.306-4.681a3.345 3.345 0 0 0-3.24-.026l-5.004 2.716a1.116 1.116 0 0 0-.018 1.951Zm36.142 10.253-8.249-4.681a1.115 1.115 0 0 1 .018-1.95l5.004-2.717a3.345 3.345 0 0 1 3.24.026l8.306 4.681a1.116 1.116 0 0 1-.019 1.955l-5.063 2.723a3.347 3.347 0 0 1-3.237-.037Zm-27.774 5.349 8.25 4.681a3.344 3.344 0 0 0 3.237.036l5.063-2.723a1.115 1.115 0 0 0 .019-1.954l-8.306-4.682a3.35 3.35 0 0 0-3.241-.025l-5.003 2.716a1.116 1.116 0 0 0-.019 1.951Zm30.669 6.896-13.947-8.008a1.115 1.115 0 0 1 .023-1.947l5.003-2.716a3.348 3.348 0 0 1 3.258.035l14.005 8.005a1.115 1.115 0 0 1-.025 1.951l-5.065 2.725a3.347 3.347 0 0 1-3.252-.045Zm-33.751 2.402 13.947 8.007a3.345 3.345 0 0 0 3.251.045l5.066-2.724a1.115 1.115 0 0 0 .025-1.951l-14.005-8.005a3.346 3.346 0 0 0-3.258-.036l-5.003 2.716a1.116 1.116 0 0 0-.023 1.948Zm18.581-21.891-8.249-4.68a1.116 1.116 0 0 1 .018-1.951l5.004-2.717a3.347 3.347 0 0 1 3.24.026l8.306 4.682a1.115 1.115 0 0 1-.019 1.954l-5.063 2.723a3.347 3.347 0 0 1-3.237-.037Zm-27.77 5.349 8.25 4.681a3.347 3.347 0 0 0 3.237.037l5.062-2.723a1.116 1.116 0 0 0 .02-1.955l-8.307-4.681a3.345 3.345 0 0 0-3.24-.026l-5.004 2.717a1.115 1.115 0 0 0-.018 1.95Zm24.983 3.567-8.249-4.681a1.115 1.115 0 0 1 .018-1.951l5.004-2.716a3.347 3.347 0 0 1 3.24.025l8.306 4.682a1.115 1.115 0 0 1-.019 1.954l-5.063 2.723a3.347 3.347 0 0 1-3.237-.036Zm-28.05 5.728 8.25 4.681a3.347 3.347 0 0 0 3.237.037l5.063-2.723a1.116 1.116 0 0 0 .019-1.955l-8.307-4.681a3.345 3.345 0 0 0-3.24-.026l-5.003 2.717a1.115 1.115 0 0 0-.019 1.95Zm55.943-.156-8.249-4.681a1.115 1.115 0 0 1 .018-1.951l5.004-2.716a3.347 3.347 0 0 1 3.24.025l8.306 4.682a1.115 1.115 0 0 1-.019 1.954l-5.063 2.723a3.344 3.344 0 0 1-3.237-.036Zm-27.774 5.349 8.25 4.68a3.347 3.347 0 0 0 3.237.037l5.063-2.723a1.115 1.115 0 0 0 .019-1.954l-8.307-4.682a3.347 3.347 0 0 0-3.24-.026l-5.003 2.717a1.116 1.116 0 0 0-.019 1.951Z"/><path fill="url(#n)" d="m118.991 133.363 8.25 4.681a3.347 3.347 0 0 0 3.237.037l5.062-2.723a1.116 1.116 0 0 0 .02-1.955l-8.307-4.681a3.347 3.347 0 0 0-3.24-.026l-5.004 2.717a1.115 1.115 0 0 0-.018 1.95Zm-19.524 10.03 8.249 4.681a3.347 3.347 0 0 0 3.237.037l5.063-2.724a1.115 1.115 0 0 0 .019-1.954l-8.306-4.681a3.345 3.345 0 0 0-3.24-.026l-5.004 2.716a1.116 1.116 0 0 0-.018 1.951Zm24.981 3.557-14.672-8.392a1.116 1.116 0 0 1 .022-1.949l5.002-2.716a3.347 3.347 0 0 1 3.253.033l14.731 8.39a1.116 1.116 0 0 1-.023 1.952l-5.066 2.725a3.345 3.345 0 0 1-3.247-.043Zm-34.472 2.017 14.671 8.393a3.35 3.35 0 0 0 3.248.042l5.065-2.724a1.116 1.116 0 0 0 .024-1.952l-14.731-8.39a3.345 3.345 0 0 0-3.253-.033l-5.003 2.715a1.116 1.116 0 0 0-.021 1.949Zm49.54-3.679-8.25-4.681a1.116 1.116 0 0 1 .018-1.951l5.004-2.716a3.345 3.345 0 0 1 3.24.026l8.307 4.681a1.115 1.115 0 0 1-.02 1.954l-5.062 2.724a3.347 3.347 0 0 1-3.237-.037Zm-27.774 5.349 8.249 4.681a3.35 3.35 0 0 0 3.237.036l5.063-2.723a1.115 1.115 0 0 0 .019-1.954l-8.306-4.682a3.347 3.347 0 0 0-3.24-.025l-5.004 2.716a1.116 1.116 0 0 0-.018 1.951Zm24.983 3.566-8.25-4.681a1.115 1.115 0 0 1 .019-1.95l5.003-2.717a3.345 3.345 0 0 1 3.24.026l8.307 4.681a1.116 1.116 0 0 1-.019 1.955l-5.063 2.723a3.347 3.347 0 0 1-3.237-.037Zm-28.054 5.729 8.25 4.681a3.347 3.347 0 0 0 3.237.036l5.063-2.723a1.115 1.115 0 0 0 .019-1.954l-8.307-4.682a3.347 3.347 0 0 0-3.24-.025l-5.003 2.716a1.116 1.116 0 0 0-.019 1.951Zm43.672-7.4-8.25-4.681a1.116 1.116 0 0 1 .019-1.951l5.003-2.717a3.35 3.35 0 0 1 3.24.026l8.307 4.682a1.115 1.115 0 0 1-.019 1.954l-5.063 2.723a3.35 3.35 0 0 1-3.237-.036Zm-27.77 5.348 8.249 4.681a3.347 3.347 0 0 0 3.237.037l5.063-2.723a1.116 1.116 0 0 0 .019-1.955l-8.306-4.681a3.345 3.345 0 0 0-3.24-.026l-5.004 2.717a1.115 1.115 0 0 0-.018 1.95Zm24.983 3.567-8.25-4.681a1.116 1.116 0 0 1 .019-1.951l5.003-2.716a3.347 3.347 0 0 1 3.24.025l8.307 4.682a1.115 1.115 0 0 1-.019 1.954l-5.063 2.723a3.344 3.344 0 0 1-3.237-.036Zm-28.069 5.731 33.191 19.051a3.347 3.347 0 0 0 3.252.045l5.067-2.726a1.116 1.116 0 0 0 .026-1.951l-33.252-19.044a3.347 3.347 0 0 0-3.26-.038l-5.001 2.715a1.116 1.116 0 0 0-.023 1.948Zm43.687-7.403-8.25-4.681a1.115 1.115 0 0 1 .019-1.95l5.003-2.717a3.345 3.345 0 0 1 3.24.026l8.307 4.681a1.116 1.116 0 0 1-.019 1.955l-5.063 2.723a3.347 3.347 0 0 1-3.237-.037Zm-27.774 5.349 8.249 4.681a3.346 3.346 0 0 0 3.238.036l5.062-2.723a1.116 1.116 0 0 0 .02-1.954l-8.307-4.682a3.347 3.347 0 0 0-3.24-.025l-5.004 2.716a1.116 1.116 0 0 0-.018 1.951Zm24.987 3.566-8.25-4.68a1.116 1.116 0 0 1 .019-1.951l5.003-2.717a3.347 3.347 0 0 1 3.24.026l8.307 4.682a1.115 1.115 0 0 1-.019 1.954l-5.063 2.723a3.347 3.347 0 0 1-3.237-.037Zm6.809-6.352 8.249 4.681a3.344 3.344 0 0 0 3.237.036l5.063-2.723a1.115 1.115 0 0 0 .019-1.954l-8.306-4.682a3.35 3.35 0 0 0-3.241-.025l-5.003 2.716a1.115 1.115 0 0 0-.018 1.951Zm-11.275 14.71-8.25-4.68a1.116 1.116 0 0 1 .019-1.951l5.003-2.717a3.347 3.347 0 0 1 3.24.026l8.307 4.682a1.115 1.115 0 0 1-.019 1.954l-5.063 2.723a3.347 3.347 0 0 1-3.237-.037Zm8.484-5.795 8.249 4.681a3.347 3.347 0 0 0 3.237.037l5.063-2.723a1.116 1.116 0 0 0 .019-1.955l-8.306-4.681a3.345 3.345 0 0 0-3.24-.026l-5.004 2.716a1.116 1.116 0 0 0-.018 1.951Zm36.142 10.253-8.249-4.681a1.115 1.115 0 0 1 .018-1.95l5.004-2.717a3.345 3.345 0 0 1 3.24.026l8.306 4.681a1.116 1.116 0 0 1-.019 1.955l-5.063 2.723a3.347 3.347 0 0 1-3.237-.037Zm-27.774 5.349 8.25 4.681a3.344 3.344 0 0 0 3.237.036l5.063-2.723a1.115 1.115 0 0 0 .019-1.954l-8.306-4.682a3.35 3.35 0 0 0-3.241-.025l-5.003 2.716a1.116 1.116 0 0 0-.019 1.951Zm30.669 6.896-13.947-8.008a1.115 1.115 0 0 1 .023-1.947l5.003-2.716a3.348 3.348 0 0 1 3.258.035l14.005 8.005a1.115 1.115 0 0 1-.025 1.951l-5.065 2.725a3.347 3.347 0 0 1-3.252-.045Zm-33.751 2.402 13.947 8.007a3.345 3.345 0 0 0 3.251.045l5.066-2.724a1.115 1.115 0 0 0 .025-1.951l-14.005-8.005a3.346 3.346 0 0 0-3.258-.036l-5.003 2.716a1.116 1.116 0 0 0-.023 1.948Zm18.581-21.891-8.249-4.68a1.116 1.116 0 0 1 .018-1.951l5.004-2.717a3.347 3.347 0 0 1 3.24.026l8.306 4.682a1.115 1.115 0 0 1-.019 1.954l-5.063 2.723a3.347 3.347 0 0 1-3.237-.037Zm-27.77 5.349 8.25 4.681a3.347 3.347 0 0 0 3.237.037l5.062-2.723a1.116 1.116 0 0 0 .02-1.955l-8.307-4.681a3.345 3.345 0 0 0-3.24-.026l-5.004 2.717a1.115 1.115 0 0 0-.018 1.95Zm24.983 3.567-8.249-4.681a1.115 1.115 0 0 1 .018-1.951l5.004-2.716a3.347 3.347 0 0 1 3.24.025l8.306 4.682a1.115 1.115 0 0 1-.019 1.954l-5.063 2.723a3.347 3.347 0 0 1-3.237-.036Zm-28.05 5.728 8.25 4.681a3.347 3.347 0 0 0 3.237.037l5.063-2.723a1.116 1.116 0 0 0 .019-1.955l-8.307-4.681a3.345 3.345 0 0 0-3.24-.026l-5.003 2.717a1.115 1.115 0 0 0-.019 1.95Zm55.943-.156-8.249-4.681a1.115 1.115 0 0 1 .018-1.951l5.004-2.716a3.347 3.347 0 0 1 3.24.025l8.306 4.682a1.115 1.115 0 0 1-.019 1.954l-5.063 2.723a3.344 3.344 0 0 1-3.237-.036Zm-27.774 5.349 8.25 4.68a3.347 3.347 0 0 0 3.237.037l5.063-2.723a1.115 1.115 0 0 0 .019-1.954l-8.307-4.682a3.347 3.347 0 0 0-3.24-.026l-5.003 2.717a1.116 1.116 0 0 0-.019 1.951Z"/><path fill="url(#o)" d="m118.991 133.363 8.25 4.681a3.347 3.347 0 0 0 3.237.037l5.062-2.723a1.116 1.116 0 0 0 .02-1.955l-8.307-4.681a3.347 3.347 0 0 0-3.24-.026l-5.004 2.717a1.115 1.115 0 0 0-.018 1.95Zm-19.524 10.03 8.249 4.681a3.347 3.347 0 0 0 3.237.037l5.063-2.724a1.115 1.115 0 0 0 .019-1.954l-8.306-4.681a3.345 3.345 0 0 0-3.24-.026l-5.004 2.716a1.116 1.116 0 0 0-.018 1.951Zm24.981 3.557-14.672-8.392a1.116 1.116 0 0 1 .022-1.949l5.002-2.716a3.347 3.347 0 0 1 3.253.033l14.731 8.39a1.116 1.116 0 0 1-.023 1.952l-5.066 2.725a3.345 3.345 0 0 1-3.247-.043Zm-34.472 2.017 14.671 8.393a3.35 3.35 0 0 0 3.248.042l5.065-2.724a1.116 1.116 0 0 0 .024-1.952l-14.731-8.39a3.345 3.345 0 0 0-3.253-.033l-5.003 2.715a1.116 1.116 0 0 0-.021 1.949Zm49.54-3.679-8.25-4.681a1.116 1.116 0 0 1 .018-1.951l5.004-2.716a3.345 3.345 0 0 1 3.24.026l8.307 4.681a1.115 1.115 0 0 1-.02 1.954l-5.062 2.724a3.347 3.347 0 0 1-3.237-.037Zm-27.774 5.349 8.249 4.681a3.35 3.35 0 0 0 3.237.036l5.063-2.723a1.115 1.115 0 0 0 .019-1.954l-8.306-4.682a3.347 3.347 0 0 0-3.24-.025l-5.004 2.716a1.116 1.116 0 0 0-.018 1.951Zm24.983 3.566-8.25-4.681a1.115 1.115 0 0 1 .019-1.95l5.003-2.717a3.345 3.345 0 0 1 3.24.026l8.307 4.681a1.116 1.116 0 0 1-.019 1.955l-5.063 2.723a3.347 3.347 0 0 1-3.237-.037Zm-28.054 5.729 8.25 4.681a3.347 3.347 0 0 0 3.237.036l5.063-2.723a1.115 1.115 0 0 0 .019-1.954l-8.307-4.682a3.347 3.347 0 0 0-3.24-.025l-5.003 2.716a1.116 1.116 0 0 0-.019 1.951Zm43.672-7.4-8.25-4.681a1.116 1.116 0 0 1 .019-1.951l5.003-2.717a3.35 3.35 0 0 1 3.24.026l8.307 4.682a1.115 1.115 0 0 1-.019 1.954l-5.063 2.723a3.35 3.35 0 0 1-3.237-.036Zm-27.77 5.348 8.249 4.681a3.347 3.347 0 0 0 3.237.037l5.063-2.723a1.116 1.116 0 0 0 .019-1.955l-8.306-4.681a3.345 3.345 0 0 0-3.24-.026l-5.004 2.717a1.115 1.115 0 0 0-.018 1.95Zm24.983 3.567-8.25-4.681a1.116 1.116 0 0 1 .019-1.951l5.003-2.716a3.347 3.347 0 0 1 3.24.025l8.307 4.682a1.115 1.115 0 0 1-.019 1.954l-5.063 2.723a3.344 3.344 0 0 1-3.237-.036Zm-28.069 5.731 33.191 19.051a3.347 3.347 0 0 0 3.252.045l5.067-2.726a1.116 1.116 0 0 0 .026-1.951l-33.252-19.044a3.347 3.347 0 0 0-3.26-.038l-5.001 2.715a1.116 1.116 0 0 0-.023 1.948Zm43.687-7.403-8.25-4.681a1.115 1.115 0 0 1 .019-1.95l5.003-2.717a3.345 3.345 0 0 1 3.24.026l8.307 4.681a1.116 1.116 0 0 1-.019 1.955l-5.063 2.723a3.347 3.347 0 0 1-3.237-.037Zm-27.774 5.349 8.249 4.681a3.346 3.346 0 0 0 3.238.036l5.062-2.723a1.116 1.116 0 0 0 .02-1.954l-8.307-4.682a3.347 3.347 0 0 0-3.24-.025l-5.004 2.716a1.116 1.116 0 0 0-.018 1.951Zm24.987 3.566-8.25-4.68a1.116 1.116 0 0 1 .019-1.951l5.003-2.717a3.347 3.347 0 0 1 3.24.026l8.307 4.682a1.115 1.115 0 0 1-.019 1.954l-5.063 2.723a3.347 3.347 0 0 1-3.237-.037Zm6.809-6.352 8.249 4.681a3.344 3.344 0 0 0 3.237.036l5.063-2.723a1.115 1.115 0 0 0 .019-1.954l-8.306-4.682a3.35 3.35 0 0 0-3.241-.025l-5.003 2.716a1.115 1.115 0 0 0-.018 1.951Zm-11.275 14.71-8.25-4.68a1.116 1.116 0 0 1 .019-1.951l5.003-2.717a3.347 3.347 0 0 1 3.24.026l8.307 4.682a1.115 1.115 0 0 1-.019 1.954l-5.063 2.723a3.347 3.347 0 0 1-3.237-.037Zm8.484-5.795 8.249 4.681a3.347 3.347 0 0 0 3.237.037l5.063-2.723a1.116 1.116 0 0 0 .019-1.955l-8.306-4.681a3.345 3.345 0 0 0-3.24-.026l-5.004 2.716a1.116 1.116 0 0 0-.018 1.951Zm36.142 10.253-8.249-4.681a1.115 1.115 0 0 1 .018-1.95l5.004-2.717a3.345 3.345 0 0 1 3.24.026l8.306 4.681a1.116 1.116 0 0 1-.019 1.955l-5.063 2.723a3.347 3.347 0 0 1-3.237-.037Zm-27.774 5.349 8.25 4.681a3.344 3.344 0 0 0 3.237.036l5.063-2.723a1.115 1.115 0 0 0 .019-1.954l-8.306-4.682a3.35 3.35 0 0 0-3.241-.025l-5.003 2.716a1.116 1.116 0 0 0-.019 1.951Zm30.669 6.896-13.947-8.008a1.115 1.115 0 0 1 .023-1.947l5.003-2.716a3.348 3.348 0 0 1 3.258.035l14.005 8.005a1.115 1.115 0 0 1-.025 1.951l-5.065 2.725a3.347 3.347 0 0 1-3.252-.045Zm-33.751 2.402 13.947 8.007a3.345 3.345 0 0 0 3.251.045l5.066-2.724a1.115 1.115 0 0 0 .025-1.951l-14.005-8.005a3.346 3.346 0 0 0-3.258-.036l-5.003 2.716a1.116 1.116 0 0 0-.023 1.948Zm18.581-21.891-8.249-4.68a1.116 1.116 0 0 1 .018-1.951l5.004-2.717a3.347 3.347 0 0 1 3.24.026l8.306 4.682a1.115 1.115 0 0 1-.019 1.954l-5.063 2.723a3.347 3.347 0 0 1-3.237-.037Zm-27.77 5.349 8.25 4.681a3.347 3.347 0 0 0 3.237.037l5.062-2.723a1.116 1.116 0 0 0 .02-1.955l-8.307-4.681a3.345 3.345 0 0 0-3.24-.026l-5.004 2.717a1.115 1.115 0 0 0-.018 1.95Zm24.983 3.567-8.249-4.681a1.115 1.115 0 0 1 .018-1.951l5.004-2.716a3.347 3.347 0 0 1 3.24.025l8.306 4.682a1.115 1.115 0 0 1-.019 1.954l-5.063 2.723a3.347 3.347 0 0 1-3.237-.036Zm-28.05 5.728 8.25 4.681a3.347 3.347 0 0 0 3.237.037l5.063-2.723a1.116 1.116 0 0 0 .019-1.955l-8.307-4.681a3.345 3.345 0 0 0-3.24-.026l-5.003 2.717a1.115 1.115 0 0 0-.019 1.95Zm55.943-.156-8.249-4.681a1.115 1.115 0 0 1 .018-1.951l5.004-2.716a3.347 3.347 0 0 1 3.24.025l8.306 4.682a1.115 1.115 0 0 1-.019 1.954l-5.063 2.723a3.344 3.344 0 0 1-3.237-.036Zm-27.774 5.349 8.25 4.68a3.347 3.347 0 0 0 3.237.037l5.063-2.723a1.115 1.115 0 0 0 .019-1.954l-8.307-4.682a3.347 3.347 0 0 0-3.24-.026l-5.003 2.717a1.116 1.116 0 0 0-.019 1.951Z"/></g><path fill="url(#p)" d="m134.039 196.005-29.548-17.42c-2.229-1.314-2.187-4.553.075-5.809l9.87-5.481 38.01 22.327-11.781 6.481a6.694 6.694 0 0 1-6.626-.098Z"/><path fill="url(#q)" d="m134.039 196.005-29.548-17.42c-2.229-1.314-2.187-4.553.075-5.809l9.87-5.481 38.01 22.327-11.781 6.481a6.694 6.694 0 0 1-6.626-.098Z"/><path fill="url(#r)" d="m134.039 196.005-29.548-17.42c-2.229-1.314-2.187-4.553.075-5.809l9.87-5.481 38.01 22.327-11.781 6.481a6.694 6.694 0 0 1-6.626-.098Z"/><g filter="url(#s)"><path fill="#DCE3FF" d="m238.349 185.859-112.122-64.325 37.084-78.91a6.694 6.694 0 0 1 9.369-2.97l100.464 57.165a6.693 6.693 0 0 1 2.754 8.651l-37.549 80.389Z"/></g><g filter="url(#t)"><path fill="#E1FEFF" d="m235.252 182.752-104.564-60.887 34.334-73.386a6.695 6.695 0 0 1 9.364-2.987l93.961 53.241a6.693 6.693 0 0 1 2.744 8.7l-35.839 75.319Z"/></g><path fill="url(#u)" fill-rule="evenodd" d="m211.374 81.808 2.053-4.71a3.348 3.348 0 0 0-1.428-4.255l-36.809-20.69a3.347 3.347 0 0 0-4.708 1.58l-2.053 4.71a3.348 3.348 0 0 0 1.428 4.255l36.809 20.69a3.347 3.347 0 0 0 4.708-1.58Zm6.5 13.805L167.272 66.55a2.179 2.179 0 0 0-2.171 3.78l50.602 29.063a2.18 2.18 0 0 0 2.171-3.78Zm43.173 18.318-25.08 54.423a3.347 3.347 0 0 1-4.695 1.508l-28.467-16.201a3.348 3.348 0 0 1-1.384-4.31L226.5 94.929a3.347 3.347 0 0 1 4.695-1.508l28.468 16.201a3.346 3.346 0 0 1 1.384 4.309Zm-46.799-11.624-50.602-29.063a2.18 2.18 0 1 0-2.171 3.779l50.602 29.064a2.18 2.18 0 0 0 2.171-3.78Zm-53.39-21.812 50.603 29.064a2.178 2.178 0 1 1-2.171 3.779l-50.602-29.063a2.179 2.179 0 1 1 2.17-3.78Zm36.603 64.359 10.086-22.584c.7-1.568.1-3.412-1.389-4.267l-48.553-27.887a3.347 3.347 0 0 0-4.723 1.537l-10.087 22.584a3.348 3.348 0 0 0 1.389 4.268l48.554 27.887a3.348 3.348 0 0 0 4.723-1.538Z" clip-rule="evenodd"/><path fill="url(#v)" fill-rule="evenodd" d="m211.374 81.808 2.053-4.71a3.348 3.348 0 0 0-1.428-4.255l-36.809-20.69a3.347 3.347 0 0 0-4.708 1.58l-2.053 4.71a3.348 3.348 0 0 0 1.428 4.255l36.809 20.69a3.347 3.347 0 0 0 4.708-1.58Zm6.5 13.805L167.272 66.55a2.179 2.179 0 0 0-2.171 3.78l50.602 29.063a2.18 2.18 0 0 0 2.171-3.78Zm43.173 18.318-25.08 54.423a3.347 3.347 0 0 1-4.695 1.508l-28.467-16.201a3.348 3.348 0 0 1-1.384-4.31L226.5 94.929a3.347 3.347 0 0 1 4.695-1.508l28.468 16.201a3.346 3.346 0 0 1 1.384 4.309Zm-46.799-11.624-50.602-29.063a2.18 2.18 0 1 0-2.171 3.779l50.602 29.064a2.18 2.18 0 0 0 2.171-3.78Zm-53.39-21.812 50.603 29.064a2.178 2.178 0 1 1-2.171 3.779l-50.602-29.063a2.179 2.179 0 1 1 2.17-3.78Zm36.603 64.359 10.086-22.584c.7-1.568.1-3.412-1.389-4.267l-48.553-27.887a3.347 3.347 0 0 0-4.723 1.537l-10.087 22.584a3.348 3.348 0 0 0 1.389 4.268l48.554 27.887a3.348 3.348 0 0 0 4.723-1.538Z" clip-rule="evenodd"/><path fill="url(#w)" fill-rule="evenodd" d="m211.374 81.808 2.053-4.71a3.348 3.348 0 0 0-1.428-4.255l-36.809-20.69a3.347 3.347 0 0 0-4.708 1.58l-2.053 4.71a3.348 3.348 0 0 0 1.428 4.255l36.809 20.69a3.347 3.347 0 0 0 4.708-1.58Zm6.5 13.805L167.272 66.55a2.179 2.179 0 0 0-2.171 3.78l50.602 29.063a2.18 2.18 0 0 0 2.171-3.78Zm43.173 18.318-25.08 54.423a3.347 3.347 0 0 1-4.695 1.508l-28.467-16.201a3.348 3.348 0 0 1-1.384-4.31L226.5 94.929a3.347 3.347 0 0 1 4.695-1.508l28.468 16.201a3.346 3.346 0 0 1 1.384 4.309Zm-46.799-11.624-50.602-29.063a2.18 2.18 0 1 0-2.171 3.779l50.602 29.064a2.18 2.18 0 0 0 2.171-3.78Zm-53.39-21.812 50.603 29.064a2.178 2.178 0 1 1-2.171 3.779l-50.602-29.063a2.179 2.179 0 1 1 2.17-3.78Zm36.603 64.359 10.086-22.584c.7-1.568.1-3.412-1.389-4.267l-48.553-27.887a3.347 3.347 0 0 0-4.723 1.537l-10.087 22.584a3.348 3.348 0 0 0 1.389 4.268l48.554 27.887a3.348 3.348 0 0 0 4.723-1.538Z" clip-rule="evenodd"/><g filter="url(#x)"><path fill="#00B884" d="m239.822 159.493-1.624 3.451c-2.776 5.899-9.997 8.171-15.651 4.923l-34.975-20.088a11.157 11.157 0 0 1-4.538-14.424l1.624-3.451c2.777-5.899 9.998-8.171 15.652-4.924l34.974 20.088a11.156 11.156 0 0 1 4.538 14.425Z"/></g><path fill="#fff" d="m203.873 135.984-5.329 9.341 6.606 3.769.985-1.727-4.552-2.598 4.344-7.613-2.054-1.172Zm7.754 4.424-5.329 9.341 2.054 1.171 5.329-9.34-2.054-1.172Zm2.873 14.02 8.429-7.572-2.119-1.209-5.853 5.365-.026-.014 1.666-7.754-2.106-1.202-2.307 11.065 2.316 1.321Zm9.226-7.118-5.329 9.341 7.09 4.045.985-1.727-5.036-2.873 1.306-2.289 4.526 2.582.911-1.596-4.527-2.582 1.142-2.002 4.932 2.814.985-1.727-6.985-3.986Z"/><circle cx="191.21" cy="134.291" r="2.511" fill="#fff"/></g><defs><linearGradient id="b" x1="28.884" x2="192.14" y1="-64.222" y2="225.698" gradientUnits="userSpaceOnUse"><stop offset=".026" stop-color="#CFECFD" stop-opacity=".99"/><stop offset="1" stop-color="#FD71AF" stop-opacity=".01"/></linearGradient><linearGradient id="c" x1="257.157" x2="224.035" y1="224.465" y2="129.646" gradientUnits="userSpaceOnUse"><stop stop-color="#CEEFFF"/><stop offset=".026" stop-color="#CFECFD" stop-opacity=".83"/><stop offset="1" stop-color="#FD71AF" stop-opacity=".01"/></linearGradient><linearGradient id="d" x1="94.373" x2="198.495" y1="-43.376" y2="253.594" gradientUnits="userSpaceOnUse"><stop stop-color="#00B4D5"/><stop offset="1" stop-color="#DCE3FF"/></linearGradient><linearGradient id="e" x1="136.798" x2="148.083" y1="193.746" y2="221.593" gradientUnits="userSpaceOnUse"><stop stop-color="#8791AB"/><stop offset=".844" stop-color="#BEC6E1" stop-opacity=".75"/></linearGradient><linearGradient id="f" x1="90.67" x2="207.02" y1="165.703" y2="150.914" gradientUnits="userSpaceOnUse"><stop offset=".198" stop-color="#F2FDFF"/><stop offset="1" stop-color="#FFBFF1"/></linearGradient><linearGradient id="g" x1="118.37" x2="153.752" y1="145.628" y2="209.935" gradientUnits="userSpaceOnUse"><stop stop-color="#FEAFE7" stop-opacity=".76"/><stop offset=".083" stop-color="#fff" stop-opacity=".917"/><stop offset="1" stop-color="#E2F7FB" stop-opacity="0"/></linearGradient><linearGradient id="h" x1="150.967" x2="150.967" y1="119.301" y2="224.611" gradientUnits="userSpaceOnUse"><stop stop-color="#8892AC"/><stop offset="1" stop-color="#ADACF2"/></linearGradient><linearGradient id="i" x1="110.865" x2="162.872" y1="148.105" y2="141.53" gradientUnits="userSpaceOnUse"><stop offset=".198" stop-color="#F2FDFF"/><stop offset="1" stop-color="#FFBFF1"/></linearGradient><linearGradient id="j" x1="123.244" x2="139.187" y1="139.085" y2="167.907" gradientUnits="userSpaceOnUse"><stop stop-color="#FEAFE7" stop-opacity=".76"/><stop offset=".083" stop-color="#fff" stop-opacity=".917"/><stop offset="1" stop-color="#E2F7FB" stop-opacity="0"/></linearGradient><linearGradient id="k" x1="137.812" x2="137.812" y1="127.256" y2="174.573" gradientUnits="userSpaceOnUse"><stop stop-color="#616776"/><stop offset="1" stop-color="#7979A4"/></linearGradient><linearGradient id="m" x1="191.065" x2="201.983" y1="192.941" y2="191.541" gradientUnits="userSpaceOnUse"><stop offset=".198" stop-color="#F2FDFF"/><stop offset="1" stop-color="#FFBFF1"/></linearGradient><linearGradient id="n" x1="193.665" x2="196.943" y1="191.073" y2="197.081" gradientUnits="userSpaceOnUse"><stop stop-color="#FEAFE7" stop-opacity=".76"/><stop offset=".083" stop-color="#fff" stop-opacity=".917"/><stop offset="1" stop-color="#E2F7FB" stop-opacity="0"/></linearGradient><linearGradient id="o" x1="207.889" x2="172.26" y1="243.712" y2="119.156" gradientUnits="userSpaceOnUse"><stop stop-color="#7B68EE"/><stop offset="1" stop-color="#F7DAF4"/></linearGradient><linearGradient id="p" x1="108.748" x2="128.243" y1="175.312" y2="172.868" gradientUnits="userSpaceOnUse"><stop offset=".198" stop-color="#F2FDFF"/><stop offset="1" stop-color="#FFBFF1"/></linearGradient><linearGradient id="q" x1="113.387" x2="119.441" y1="171.902" y2="182.753" gradientUnits="userSpaceOnUse"><stop stop-color="#FEAFE7" stop-opacity=".76"/><stop offset=".083" stop-color="#fff" stop-opacity=".917"/><stop offset="1" stop-color="#E2F7FB" stop-opacity="0"/></linearGradient><linearGradient id="r" x1="118.846" x2="118.846" y1="167.431" y2="185.317" gradientUnits="userSpaceOnUse"><stop stop-color="#616776"/><stop offset="1" stop-color="#7979A4"/></linearGradient><linearGradient id="u" x1="142.504" x2="306.591" y1="111.012" y2="241.274" gradientUnits="userSpaceOnUse"><stop offset=".198" stop-color="#F2FDFF"/><stop offset="1" stop-color="#FFC800"/></linearGradient><linearGradient id="v" x1="170.349" x2="245.043" y1="75.204" y2="151.71" gradientUnits="userSpaceOnUse"><stop stop-color="#FEAFE7" stop-opacity=".76"/><stop offset=".822" stop-color="#fff" stop-opacity=".917"/><stop offset="1" stop-color="#E2F7FB" stop-opacity="0"/></linearGradient><linearGradient id="w" x1="237.584" x2="108.002" y1="74.617" y2="207.481" gradientUnits="userSpaceOnUse"><stop stop-color="#F90"/><stop offset=".094" stop-color="#fff" stop-opacity="0"/><stop offset=".969" stop-color="#F8F4E9"/></linearGradient><filter id="l" width="134.852" height="77.43" x="89.414" y="128.291" color-interpolation-filters="sRGB" filterUnits="userSpaceOnUse"><feFlood flood-opacity="0" result="BackgroundImageFix"/><feColorMatrix in="SourceAlpha" result="hardAlpha" values="0 0 0 0 0 0 0 0 0 0 0 0 0 0 0 0 0 0 127 0"/><feOffset dy="1.116"/><feComposite in2="hardAlpha" operator="out"/><feColorMatrix values="0 0 0 0 0 0 0 0 0 0 0 0 0 0 0 0 0 0 0.21 0"/><feBlend in2="BackgroundImageFix" result="effect1_dropShadow_5409_114380"/><feBlend in="SourceGraphic" in2="effect1_dropShadow_5409_114380" result="shape"/></filter><filter id="s" width="153.648" height="147.083" x="126.227" y="38.776" color-interpolation-filters="sRGB" filterUnits="userSpaceOnUse"><feFlood flood-opacity="0" result="BackgroundImageFix"/><feColorMatrix in="SourceAlpha" result="hardAlpha" values="0 0 0 0 0 0 0 0 0 0 0 0 0 0 0 0 0 0 127 0"/><feOffset dx="3.347"/><feComposite in2="hardAlpha" operator="out"/><feColorMatrix values="0 0 0 0 0.529412 0 0 0 0 0.568627 0 0 0 0 0.670588 0 0 0 1 0"/><feBlend in2="BackgroundImageFix" result="effect1_dropShadow_5409_114380"/><feBlend in="SourceGraphic" in2="effect1_dropShadow_5409_114380" result="shape"/></filter><filter id="t" width="141.055" height="138.132" x="130.688" y="44.62" color-interpolation-filters="sRGB" filterUnits="userSpaceOnUse"><feFlood flood-opacity="0" result="BackgroundImageFix"/><feBlend in="SourceGraphic" in2="BackgroundImageFix" result="shape"/><feColorMatrix in="SourceAlpha" result="hardAlpha" values="0 0 0 0 0 0 0 0 0 0 0 0 0 0 0 0 0 0 127 0"/><feOffset dx="1.116" dy="-.558"/><feComposite in2="hardAlpha" k2="-1" k3="1" operator="arithmetic"/><feColorMatrix values="0 0 0 0 0.360784 0 0 0 0 0.917647 0 0 0 0 0.717647 0 0 0 1 0"/><feBlend in2="shape" result="effect1_innerShadow_5409_114380"/></filter><filter id="x" width="58.914" height="45.858" x="181.973" y="123.495" color-interpolation-filters="sRGB" filterUnits="userSpaceOnUse"><feFlood flood-opacity="0" result="BackgroundImageFix"/><feBlend in="SourceGraphic" in2="BackgroundImageFix" result="shape"/><feColorMatrix in="SourceAlpha" result="hardAlpha" values="0 0 0 0 0 0 0 0 0 0 0 0 0 0 0 0 0 0 127 0"/><feOffset dx="1.116" dy="-.558"/><feComposite in2="hardAlpha" k2="-1" k3="1" operator="arithmetic"/><feColorMatrix values="0 0 0 0 0 0 0 0 0 0 0 0 0 0 0 0 0 0 0.25 0"/><feBlend in2="shape" result="effect1_innerShadow_5409_114380"/></filter><clipPath id="a"><path fill="#fff" d="M0 0h328v263H0z"/></clipPath></defs></svg>
