<svg viewBox="0 0 24 24" fill="none" xmlns="http://www.w3.org/2000/svg"><path fill-rule="evenodd" clip-rule="evenodd" d="M3.139 8.586c-.025.147-.045.285-.062.414H3a2 2 0 0 0-2 2v3a2 2 0 0 0 2 2h2a2 2 0 0 0 2-2v-3a2 2 0 0 0-1.903-1.998 8.833 8.833 0 0 1 .797-2.555c.441-.881 1.086-1.732 2.036-2.365C8.873 3.453 10.175 3 12 3c1.825 0 3.127.453 4.07 1.082.95.633 1.595 1.484 2.036 2.365a8.834 8.834 0 0 1 .797 2.555A2 2 0 0 0 17 11v3a2 2 0 0 0 1.94 2c-.114.845-.38 1.488-.71 1.982-.445.668-1.046 1.126-1.678 1.442a6.372 6.372 0 0 1-1.78.564l-.042.007A2 2 0 0 0 13 19h-2a2 2 0 1 0 0 4h2a2 2 0 0 0 1.723-.984 8.375 8.375 0 0 0 2.724-.803c.869-.434 1.768-1.102 2.447-2.121.552-.828.933-1.849 1.06-3.092H21a2 2 0 0 0 2-2v-3a2 2 0 0 0-2-2h-.077a10.828 10.828 0 0 0-1.028-3.447c-.56-1.119-1.415-2.268-2.715-3.135C15.873 1.547 14.175 1 12 1s-3.873.547-5.18 1.418c-1.3.867-2.155 2.016-2.714 3.135a10.83 10.83 0 0 0-.967 3.033ZM5 11H3v3h2v-3Zm14 3v-3h2v3h-2Z" fill="#8791AB"/></svg>
