<svg width="111" height="48" viewBox="0 0 111 48" fill="none" xmlns="http://www.w3.org/2000/svg">
<mask id="mask0_5894_47596" style="mask-type:luminance" maskUnits="userSpaceOnUse" x="48" y="8" width="21" height="21">
<path fill-rule="evenodd" clip-rule="evenodd" d="M48.625 8.93555H68.4189V28.8788H48.625V8.93555Z" fill="white"/>
</mask>
<g mask="url(#mask0_5894_47596)">
<path fill-rule="evenodd" clip-rule="evenodd" d="M60.1878 21.9453C58.75 21.9453 57.3122 21.9394 55.8743 21.9499C55.5627 21.9522 55.1386 21.847 55.1487 22.3859C55.1586 22.9276 55.595 22.7952 55.8959 22.7982C57.4535 22.8135 59.0112 22.8053 60.5688 22.808C61.6159 22.8099 61.6163 22.8121 61.6176 23.8216C61.6182 24.4207 61.5897 25.0214 61.6241 25.6185C61.684 26.6595 61.1865 27.3831 60.3182 27.8296C59.6865 28.1545 59.004 28.4538 58.3112 28.5734C56.028 28.9675 53.7267 29.0568 51.4779 28.3759C49.804 27.869 48.5127 26.887 48.6327 24.6975C48.7218 23.0728 48.647 21.4391 48.6509 19.8096C48.6569 17.2542 49.909 15.9522 52.4763 15.9049C54.5127 15.8673 56.5507 15.9207 58.587 15.8814C59.1969 15.8698 59.8437 15.782 60.404 15.5561C61.73 15.0213 62.2585 13.8702 62.3664 12.5328C62.4434 11.5807 62.4047 10.6177 62.3894 9.66011C62.3811 9.144 62.5766 8.89479 63.1078 8.94098C63.2742 8.95565 63.4431 8.94213 63.6109 8.94198C66.5235 8.94083 68.2304 10.5535 68.3566 13.4977C68.414 14.8372 68.4701 16.1919 68.337 17.5205C68.1461 19.4277 67.3632 21.0423 65.4091 21.7598C64.9752 21.9191 64.4712 21.9246 63.9981 21.9328C62.7283 21.9549 61.4579 21.9404 60.1878 21.9404V21.9453Z" fill="#FFDA5E"/>
</g>
<mask id="mask1_5894_47596" style="mask-type:luminance" maskUnits="userSpaceOnUse" x="41" y="2" width="21" height="20">
<path fill-rule="evenodd" clip-rule="evenodd" d="M41.5 2H61.4543V21.8241H41.5V2Z" fill="white"/>
</mask>
<g mask="url(#mask1_5894_47596)">
<path fill-rule="evenodd" clip-rule="evenodd" d="M54.2232 8.92512C54.559 8.92382 54.9511 8.97015 54.9588 8.46109C54.9667 7.94526 54.5721 7.99001 54.2366 7.98929C52.5581 7.98512 50.8791 7.97303 49.201 8.00037C48.6027 8.01015 48.3585 7.80425 48.3981 7.20699C48.4344 6.65792 48.4046 6.10454 48.4055 5.55303C48.4082 4.01792 48.8892 3.27087 50.3517 2.70569C52.5947 1.83879 54.9236 1.90138 57.2568 2.2031C58.5514 2.37044 59.7825 2.72785 60.7258 3.70282C61.2547 4.24958 61.4753 4.8831 61.4528 5.65965C61.4014 7.45663 61.4242 9.25562 61.4187 11.0538C61.4109 13.5289 60.2017 14.7673 57.6755 14.8139C55.7055 14.8504 53.7319 14.7697 51.7654 14.8592C50.8937 14.8991 49.9595 15.0814 49.1886 15.4632C47.9077 16.0978 47.5717 17.3677 47.5103 18.6903C47.4771 19.408 47.5092 20.1286 47.5071 20.8479C47.5044 21.8192 47.5025 21.8192 46.5528 21.824C43.3619 21.8399 41.8464 20.5027 41.5639 17.1468C41.4349 15.6133 41.5022 14.0261 41.7573 12.5084C42.0822 10.5771 43.5527 8.74166 46.1232 8.90728C47.3585 8.98684 52.7636 8.93073 54.2232 8.92512Z" fill="#4282AD"/>
</g>
<path fill-rule="evenodd" clip-rule="evenodd" d="M52.5 4.87891C52.5 5.43116 52.0523 5.87891 51.5 5.87891C50.9477 5.87891 50.5 5.43116 50.5 4.87891C50.5 4.32666 50.9477 3.87891 51.5 3.87891C52.0523 3.87891 52.5 4.32666 52.5 4.87891Z" fill="#FEFEFE"/>
<path fill-rule="evenodd" clip-rule="evenodd" d="M59.5 25.8789C59.5 26.4312 59.0523 26.8789 58.5 26.8789C57.9477 26.8789 57.5 26.4312 57.5 25.8789C57.5 25.3267 57.9477 24.8789 58.5 24.8789C59.0523 24.8789 59.5 25.3267 59.5 25.8789Z" fill="#FEFEFE"/>
<path d="M15.6198 38.4023C15.6198 39.3714 15.3037 40.1141 14.6715 40.6304C14.0393 41.1466 13.1395 41.4048 11.972 41.4048H11.011V44.877H9.5V35.5967H12.1616C13.3165 35.5967 14.1805 35.8337 14.7537 36.3076C15.3311 36.7816 15.6198 37.4798 15.6198 38.4023ZM11.011 40.1289H11.8139C12.5894 40.1289 13.1584 39.9935 13.5209 39.7227C13.8834 39.4518 14.0646 39.0286 14.0646 38.4531C14.0646 37.9199 13.9023 37.5221 13.5778 37.2598C13.2533 36.9974 12.7475 36.8662 12.0605 36.8662H11.011V40.1289Z" fill="#2F3C5F"/>
<path d="M16.2457 37.8564H17.8642L19.2867 41.8364C19.5016 42.4035 19.645 42.9367 19.7166 43.436H19.7672C19.8051 43.2033 19.8747 42.9219 19.9758 42.5918C20.077 42.2575 20.6122 40.679 21.5816 37.8564H23.1875L20.1971 45.8101C19.6534 47.27 18.7472 48 17.4786 48C17.1498 48 16.8295 47.964 16.5176 47.8921V46.7114C16.741 46.7622 16.996 46.7876 17.2826 46.7876C17.9991 46.7876 18.5027 46.3708 18.7936 45.5371L19.0528 44.877L16.2457 37.8564Z" fill="#2F3C5F"/>
<path d="M26.8543 43.7979C27.2168 43.7979 27.5793 43.7407 27.9417 43.6265V44.75C27.7774 44.8219 27.5645 44.8812 27.3032 44.9277C27.0461 44.9785 26.7785 45.0039 26.5003 45.0039C25.0925 45.0039 24.3887 44.2591 24.3887 42.7695V38.9863H23.434V38.3262L24.4582 37.7803L24.964 36.2949H25.8807V37.8564H27.8722V38.9863H25.8807V42.7441C25.8807 43.1038 25.9692 43.3704 26.1462 43.5439C26.3275 43.7132 26.5635 43.7979 26.8543 43.7979Z" fill="#2F3C5F"/>
<path d="M35.4967 44.877H34.0047V40.5605C34.0047 40.0189 33.8951 39.6147 33.6759 39.3481C33.461 39.0815 33.1175 38.9482 32.6454 38.9482C32.0216 38.9482 31.5622 39.1366 31.2672 39.5132C30.9764 39.8856 30.831 40.5119 30.831 41.3921V44.877H29.3452V35H30.831V37.5073C30.831 37.9093 30.8057 38.3389 30.7551 38.7959H30.8499C31.0522 38.4574 31.3325 38.195 31.6908 38.0088C32.0532 37.8226 32.4747 37.7295 32.9552 37.7295C34.6495 37.7295 35.4967 38.5864 35.4967 40.3003V44.877Z" fill="#2F3C5F"/>
<path d="M43.7661 41.354C43.7661 42.5008 43.4732 43.3958 42.8873 44.0391C42.3014 44.6823 41.4859 45.0039 40.4406 45.0039C39.7873 45.0039 39.2099 44.8558 38.7084 44.5596C38.2068 44.2633 37.8211 43.8381 37.5514 43.2837C37.2817 42.7293 37.1468 42.0861 37.1468 41.354C37.1468 40.2157 37.4376 39.327 38.0192 38.688C38.6009 38.049 39.4207 37.7295 40.4786 37.7295C41.4901 37.7295 42.2909 38.0575 42.881 38.7134C43.471 39.3651 43.7661 40.2453 43.7661 41.354ZM38.6767 41.354C38.6767 42.9748 39.2731 43.7852 40.4659 43.7852C41.6461 43.7852 42.2361 42.9748 42.2361 41.354C42.2361 39.7502 41.6418 38.9482 40.4533 38.9482C39.8295 38.9482 39.3764 39.1556 39.094 39.5703C38.8158 39.985 38.6767 40.5796 38.6767 41.354Z" fill="#2F3C5F"/>
<path d="M51.6308 44.877H50.1388V40.5605C50.1388 40.0189 50.0292 39.6147 49.8101 39.3481C49.5951 39.0815 49.2516 38.9482 48.7795 38.9482C48.1516 38.9482 47.6921 39.1344 47.4013 39.5068C47.1105 39.8792 46.9651 40.5034 46.9651 41.3794V44.877H45.4794V37.8564H46.6427L46.8513 38.7769H46.9272C47.1379 38.4425 47.4371 38.1844 47.8249 38.0024C48.2127 37.8205 48.6426 37.7295 49.1146 37.7295C50.7921 37.7295 51.6308 38.5864 51.6308 40.3003V44.877Z" fill="#2F3C5F"/>
<path d="M57.2196 35.5967H59.9634C61.2363 35.5967 62.1551 35.7829 62.7199 36.1553C63.2889 36.5277 63.5734 37.1159 63.5734 37.9199C63.5734 38.4616 63.4343 38.9123 63.1561 39.272C62.878 39.6317 62.4776 39.8581 61.9549 39.9512V40.0146C62.604 40.1374 63.0803 40.3807 63.3837 40.7446C63.6914 41.1043 63.8452 41.5931 63.8452 42.2109C63.8452 43.0446 63.5544 43.6984 62.9728 44.1724C62.3954 44.6421 61.5903 44.877 60.5577 44.877H57.2196V35.5967ZM58.7306 39.4307H60.1847C60.8169 39.4307 61.2785 39.3312 61.5693 39.1323C61.8601 38.9292 62.0055 38.5864 62.0055 38.104C62.0055 37.6681 61.8474 37.3529 61.5313 37.1582C61.2194 36.9635 60.7221 36.8662 60.0393 36.8662H58.7306V39.4307ZM58.7306 40.6621V43.6011H60.3364C60.9687 43.6011 61.4449 43.4805 61.7653 43.2393C62.0898 42.9938 62.2521 42.6087 62.2521 42.084C62.2521 41.6016 62.0877 41.244 61.7589 41.0112C61.4302 40.7785 60.9307 40.6621 60.2606 40.6621H58.7306Z" fill="#2F3C5F"/>
<path d="M68.6627 45.0039C67.5753 45.0039 66.7239 44.6865 66.1086 44.0518C65.4974 43.4128 65.1919 42.5347 65.1919 41.4175C65.1919 40.2707 65.4764 39.3693 66.0454 38.7134C66.6143 38.0575 67.3962 37.7295 68.3909 37.7295C69.3139 37.7295 70.0431 38.0109 70.5783 38.5737C71.1136 39.1366 71.3813 39.911 71.3813 40.897V41.7031H66.7218C66.7429 42.3844 66.9262 42.9092 67.2719 43.2773C67.6175 43.6413 68.1043 43.8232 68.7323 43.8232C69.1453 43.8232 69.5289 43.7852 69.8829 43.709C70.2412 43.6286 70.6247 43.4974 71.0335 43.3154V44.5278C70.6711 44.7013 70.3044 44.8241 69.9335 44.896C69.5626 44.9679 69.139 45.0039 68.6627 45.0039ZM68.3909 38.8594C67.9188 38.8594 67.5395 39.0096 67.2529 39.3101C66.9705 39.6105 66.8019 40.0485 66.7471 40.624H69.9208C69.9124 40.0443 69.7733 39.6063 69.5036 39.3101C69.2338 39.0096 68.8629 38.8594 68.3909 38.8594Z" fill="#2F3C5F"/>
<path d="M79.2207 44.877H77.7287V40.5605C77.7287 40.0189 77.6191 39.6147 77.3999 39.3481C77.185 39.0815 76.8415 38.9482 76.3694 38.9482C75.7457 38.9482 75.2862 39.1366 74.9912 39.5132C74.7004 39.8856 74.555 40.5119 74.555 41.3921V44.877H73.0693V35H74.555V37.5073C74.555 37.9093 74.5297 38.3389 74.4791 38.7959H74.5739C74.7763 38.4574 75.0565 38.195 75.4148 38.0088C75.7773 37.8226 76.1987 37.7295 76.6792 37.7295C78.3736 37.7295 79.2207 38.5864 79.2207 40.3003V44.877Z" fill="#2F3C5F"/>
<path d="M85.663 44.877L85.3659 43.8994H85.3153C84.9781 44.3268 84.6388 44.6188 84.2974 44.7754C83.956 44.9277 83.5177 45.0039 82.9824 45.0039C82.2954 45.0039 81.758 44.8177 81.3703 44.4453C80.9867 44.0729 80.7949 43.5461 80.7949 42.8647C80.7949 42.1411 81.0626 41.5952 81.5979 41.2271C82.1331 40.8589 82.9487 40.6579 84.0445 40.624L85.2521 40.5859V40.2114C85.2521 39.7629 85.1467 39.4285 84.936 39.2085C84.7294 38.9842 84.407 38.8721 83.9687 38.8721C83.6104 38.8721 83.2669 38.925 82.9382 39.0308C82.6094 39.1366 82.2933 39.2614 81.9898 39.4053L81.5093 38.3389C81.8887 38.14 82.3038 37.9897 82.7548 37.8882C83.2058 37.7824 83.6315 37.7295 84.0319 37.7295C84.9212 37.7295 85.5914 37.9242 86.0423 38.3135C86.4975 38.7028 86.7251 39.3143 86.7251 40.1479V44.877H85.663ZM83.4502 43.8613C83.9897 43.8613 84.4218 43.7111 84.7463 43.4106C85.075 43.106 85.2394 42.6807 85.2394 42.1348V41.5254L84.3417 41.5635C83.642 41.5889 83.132 41.7074 82.8117 41.9189C82.4956 42.1263 82.3375 42.4458 82.3375 42.8774C82.3375 43.1906 82.4303 43.4339 82.6157 43.6074C82.8012 43.7767 83.0794 43.8613 83.4502 43.8613Z" fill="#2F3C5F"/>
<path d="M90.392 44.877L87.7367 37.8564H89.3046L90.7271 41.938C90.9715 42.6235 91.119 43.1779 91.1696 43.6011H91.2202C91.2581 43.2964 91.4056 42.742 91.6627 41.938L93.0852 37.8564H94.6658L91.9978 44.877H90.392Z" fill="#2F3C5F"/>
<path d="M98.7815 45.0039C97.6941 45.0039 96.8427 44.6865 96.2273 44.0518C95.6162 43.4128 95.3106 42.5347 95.3106 41.4175C95.3106 40.2707 95.5951 39.3693 96.1641 38.7134C96.7331 38.0575 97.5149 37.7295 98.5096 37.7295C99.4327 37.7295 100.162 38.0109 100.697 38.5737C101.232 39.1366 101.5 39.911 101.5 40.897V41.7031H96.8406C96.8616 42.3844 97.045 42.9092 97.3906 43.2773C97.7362 43.6413 98.223 43.8232 98.851 43.8232C99.2641 43.8232 99.6476 43.7852 100.002 43.709C100.36 43.6286 100.743 43.4974 101.152 43.3154V44.5278C100.79 44.7013 100.423 44.8241 100.052 44.896C99.6813 44.9679 99.2577 45.0039 98.7815 45.0039ZM98.5096 38.8594C98.0376 38.8594 97.6582 39.0096 97.3716 39.3101C97.0892 39.6105 96.9207 40.0485 96.8659 40.624H100.04C100.031 40.0443 99.8921 39.6063 99.6223 39.3101C99.3526 39.0096 98.9817 38.8594 98.5096 38.8594Z" fill="#2F3C5F"/>
</svg>
