<svg width="111" height="48" viewBox="0 0 111 48" fill="none" xmlns="http://www.w3.org/2000/svg">
<path d="M38.7638 26.9664H38.9172C39.358 26.9664 39.6886 27.0805 39.909 27.3089C40.1294 27.5291 40.2396 27.8634 40.2396 28.3119C40.2396 28.7931 40.1255 29.1397 39.8972 29.3517C39.6768 29.5637 39.299 29.6697 38.7638 29.6697H35.8593C35.3319 29.6697 34.9501 29.5637 34.714 29.3517C34.4857 29.1397 34.3716 28.7931 34.3716 28.3119C34.3716 27.8634 34.4818 27.5291 34.7022 27.3089C34.9305 27.0805 35.2689 26.9664 35.7176 26.9664H35.8593V23.4312C35.8593 22.4526 35.7255 21.7594 35.4578 21.3517C35.1981 20.9358 34.7612 20.7278 34.1473 20.7278C33.494 20.7278 32.9587 20.9766 32.5415 21.474C32.1322 21.9633 31.9276 22.6157 31.9276 23.4312V26.9664H32.0693C32.5179 26.9664 32.8524 27.0805 33.0728 27.3089C33.2932 27.5291 33.4034 27.8634 33.4034 28.3119C33.4034 28.7931 33.2893 29.1397 33.061 29.3517C32.8328 29.5637 32.455 29.6697 31.9276 29.6697H28.9995C28.4721 29.6697 28.0943 29.5637 27.866 29.3517C27.6377 29.1397 27.5236 28.7931 27.5236 28.3119C27.5236 27.8634 27.6338 27.5291 27.8542 27.3089C28.0746 27.0805 28.4091 26.9664 28.8578 26.9664H28.9995V21.0459H28.7988C28.3737 21.0459 28.051 20.9358 27.8306 20.7156C27.6102 20.4873 27.5 20.157 27.5 19.7248C27.5 19.2436 27.6141 18.897 27.8424 18.685C28.0707 18.473 28.4564 18.367 28.9995 18.367H31.0066C31.227 18.367 31.3923 18.4118 31.5025 18.5015C31.6206 18.5912 31.6796 18.7217 31.6796 18.893V19.8471C32.0417 19.2599 32.5022 18.8196 33.061 18.526C33.6278 18.2243 34.2811 18.0734 35.021 18.0734C36.2804 18.0734 37.2171 18.4689 37.831 19.2599C38.4528 20.051 38.7638 21.2579 38.7638 22.8807V26.9664Z" fill="#222B45"/>
<path d="M48.3273 20.6789C47.4064 20.6789 46.6468 20.9929 46.0486 21.6208C45.4583 22.2406 45.1631 23.0357 45.1631 24.0061C45.1631 24.9847 45.4583 25.7961 46.0486 26.4404C46.6468 27.0765 47.4064 27.3945 48.3273 27.3945C49.2483 27.3945 50.0078 27.0765 50.6061 26.4404C51.2043 25.7961 51.5034 24.9847 51.5034 24.0061C51.5034 23.0357 51.2043 22.2406 50.6061 21.6208C50.0157 20.9929 49.2561 20.6789 48.3273 20.6789ZM48.3273 18.0979C50.24 18.0979 51.7907 18.6524 52.9792 19.7615C54.1678 20.8705 54.7621 22.2936 54.7621 24.0306C54.7621 25.7757 54.1678 27.2029 52.9792 28.3119C51.7907 29.421 50.24 29.9755 48.3273 29.9755C46.4225 29.9755 44.8758 29.421 43.6872 28.3119C42.4987 27.2029 41.9044 25.7757 41.9044 24.0306C41.9044 22.2936 42.4987 20.8705 43.6872 19.7615C44.8837 18.6524 46.4304 18.0979 48.3273 18.0979Z" fill="#222B45"/>
<path d="M59.7328 29.4985C59.5281 29.6616 59.3156 29.7839 59.0952 29.8654C58.8827 29.9551 58.6623 30 58.434 30C58.0955 30 57.8555 29.9062 57.7138 29.7187C57.58 29.5311 57.5131 29.1804 57.5131 28.6667V27.0398C57.5131 26.5015 57.5997 26.1223 57.7728 25.9021C57.946 25.6738 58.2451 25.5596 58.6701 25.5596C59.1345 25.5596 59.5124 25.792 59.8036 26.2569C59.9768 26.5097 60.1224 26.6972 60.2405 26.8196C60.6262 27.1784 61.0748 27.4475 61.5864 27.6269C62.0981 27.8063 62.6805 27.896 63.3339 27.896C63.9006 27.896 64.3532 27.7819 64.6917 27.5535C65.0301 27.3252 65.1993 27.0275 65.1993 26.6606C65.1993 26 64.2902 25.5433 62.472 25.2905C62.0705 25.2416 61.7557 25.1967 61.5274 25.156C60.1578 24.9602 59.1385 24.577 58.4694 24.0061C57.8004 23.4271 57.4658 22.6524 57.4658 21.682C57.4658 20.5321 57.8673 19.6432 58.6701 19.0153C59.473 18.3874 60.6183 18.0734 62.1059 18.0734C62.6176 18.0734 63.141 18.1182 63.6763 18.208C64.2194 18.2895 64.7743 18.42 65.341 18.5994C65.5063 18.3955 65.6795 18.2446 65.8605 18.1468C66.0494 18.0489 66.258 18 66.4863 18C66.809 18 67.053 18.106 67.2183 18.318C67.3915 18.5219 67.4781 18.8318 67.4781 19.2477V20.7523C67.4781 21.103 67.3915 21.3761 67.2183 21.5719C67.0452 21.7594 66.8011 21.8532 66.4863 21.8532C66.1636 21.8532 65.6087 21.5637 64.8215 20.9847C64.0423 20.3976 63.2591 20.104 62.472 20.104C61.858 20.104 61.3818 20.21 61.0433 20.422C60.7049 20.6259 60.5356 20.9113 60.5356 21.2783C60.5356 21.8491 61.244 22.2324 62.6609 22.4281C63.0702 22.4771 63.3929 22.5178 63.629 22.5505C65.4079 22.8196 66.628 23.2232 67.2892 23.7615C67.9582 24.2915 68.2927 25.0826 68.2927 26.1346C68.2927 27.366 67.852 28.3201 66.9704 28.9969C66.0967 29.6656 64.853 30 63.2394 30C62.6097 30 62.0036 29.9551 61.4211 29.8654C60.8387 29.7839 60.2759 29.6616 59.7328 29.4985Z" fill="#222B45"/>
<path d="M74.1608 24.7401C74.3654 25.6453 74.759 26.3221 75.3414 26.7706C75.9318 27.2192 76.715 27.4434 77.691 27.4434C78.6671 27.4434 79.6313 27.1988 80.5837 26.7095C81.5361 26.212 82.1107 25.9633 82.3075 25.9633C82.5987 25.9633 82.8349 26.0775 83.0159 26.3058C83.2048 26.526 83.2993 26.8114 83.2993 27.1621C83.2993 27.9286 82.7522 28.5892 81.6581 29.1437C80.564 29.6983 79.2102 29.9755 77.5966 29.9755C75.6917 29.9755 74.1411 29.421 72.9447 28.3119C71.7561 27.2029 71.1618 25.7757 71.1618 24.0306C71.1618 22.2936 71.7561 20.8705 72.9447 19.7615C74.1411 18.6524 75.6917 18.0979 77.5966 18.0979C79.2968 18.0979 80.7057 18.6198 81.8234 19.6636C82.9411 20.6993 83.5 21.9715 83.5 23.4801C83.5 23.9613 83.3859 24.2915 83.1576 24.4709C82.9372 24.6504 82.4767 24.7401 81.7762 24.7401H74.1608ZM80.5247 22.8318C80.3909 22.0734 80.0445 21.4862 79.4857 21.0703C78.9347 20.6544 78.2145 20.4465 77.325 20.4465C76.467 20.4465 75.7744 20.6463 75.247 21.0459C74.7275 21.4373 74.3654 22.0326 74.1608 22.8318H80.5247Z" fill="#222B45"/>
</svg>
