<svg width="111" height="48" viewBox="0 0 111 48" fill="none" xmlns="http://www.w3.org/2000/svg">
<path fill-rule="evenodd" clip-rule="evenodd" d="M23.2863 22.2812H21.7364L21.3516 21.7519V17.6018H23.6712V21.7515L23.2863 22.2812ZM36.3082 26.5698C36.3239 27.2587 36.7468 27.9627 37.5298 27.9627C37.9995 27.9627 38.344 27.7437 38.5792 27.3524C38.7983 26.961 38.7983 26.3821 38.7983 25.9439V20.3253H37.5769V18.5409H42.1339V20.3253H40.9283V26.2099C40.9283 27.2117 40.8654 27.994 40.161 28.8079C39.5346 29.528 38.5167 29.9349 37.5456 29.9349C35.5411 29.9349 34.0064 28.6045 34.0849 26.5698H36.3082ZM49.2418 25.4901C49.2418 24.1126 48.0985 23.0013 46.7205 23.0013C45.2955 23.0013 44.1992 24.1753 44.1992 25.5838C44.1992 26.9456 45.3425 28.0724 46.6893 28.0724C48.1296 28.0724 49.2418 26.9143 49.2418 25.4901ZM46.5094 29.9348C47.6057 29.9348 48.5921 29.5123 49.203 28.5888V29.7156H52.1941V27.9315H51.1448V23.1421H52.1941V21.358H49.203V22.5474C48.6236 21.6397 47.684 21.139 46.6034 21.139C44.1606 21.139 42.2188 23.1578 42.2188 25.5838C42.2188 27.9472 44.1135 29.9348 46.5094 29.9348ZM54.7196 27.2898C54.7822 28.0411 55.2833 28.5418 56.0663 28.5418C56.6457 28.5418 57.2093 28.135 57.2093 27.5091C57.2093 26.7385 56.5336 26.5623 55.9227 26.403C55.876 26.3908 55.8297 26.3787 55.7842 26.3665C54.3279 25.991 52.7305 25.537 52.7305 23.706C52.7305 22.1095 54.0772 21.1862 55.565 21.1862C56.3164 21.1862 56.9899 21.3428 57.4596 21.9373V21.3584H58.869V23.6279H57.021C56.9897 23.033 56.5357 22.6418 55.9407 22.6418C55.424 22.6418 54.8759 22.9392 54.8759 23.5181C54.8759 24.296 55.6339 24.4706 56.2429 24.611L56.254 24.6135C57.7572 24.9577 59.3703 25.4276 59.3703 27.3058C59.3703 28.9961 57.9453 29.935 56.3793 29.935C55.5335 29.935 54.766 29.669 54.2182 29.0274V29.716H52.7619V27.29L54.7196 27.2898ZM59.8909 23.1422H60.9709V27.9315H59.8906V29.7156H63.962V27.9315H62.8816V25.3491C62.8816 24.7073 62.9128 24.1596 63.3359 23.6432C63.6802 23.2205 64.1345 23.0326 64.6669 23.0326C65.2306 23.0326 65.7789 23.2988 66.0451 23.7996C66.2956 24.2377 66.2956 24.8637 66.2956 25.3647V27.9315H65.2149V29.7156H69.2866V27.9315H68.2061V25.2394C68.2061 24.6289 68.2061 24.1596 68.5976 23.6585C68.9263 23.2517 69.4904 23.0326 70.007 23.0326C70.5394 23.0326 71.0563 23.2674 71.3695 23.7212C71.6201 24.2065 71.6201 24.6916 71.6201 25.2394V27.9315H70.5394V29.7156H74.611V27.9315H73.5305V24.7699C73.5305 23.8151 73.5305 22.9857 72.8728 22.2188C72.2624 21.53 71.3695 21.1545 70.4611 21.1545C69.3024 21.1545 68.1748 21.8431 67.7206 22.9074C67.251 21.8587 66.2799 21.1545 65.1212 21.1545C64.0564 21.1545 63.2422 21.7337 62.7097 22.6101V21.3581H59.8909V23.1422ZM78.2268 20.56H76.3164V18.5409H78.2268V20.56ZM79.3061 27.9316H78.2256L78.2257 21.3581H75.2345V23.1422H76.315V27.9316H75.2188V29.7157H79.3061V27.9316ZM80.9671 23.1422H79.8867V21.3581H82.878V22.5476C83.3791 21.6241 84.3185 21.1702 85.3518 21.1702C86.2602 21.1702 87.1528 21.546 87.7638 22.2033C88.4525 22.9703 88.4682 23.7059 88.4682 24.6603V27.9316H89.5487V29.7157H85.4774V27.9316H86.5578V25.2239C86.5578 24.7075 86.5578 24.1753 86.2288 23.7213C85.8844 23.2676 85.3205 23.0485 84.757 23.0485C84.1774 23.0485 83.5823 23.2833 83.2381 23.7526C82.8778 24.222 82.8778 24.942 82.8778 25.5057V27.9316H83.958V29.7157H79.8867V27.9316H80.9671V23.1422ZM94.1072 22.8136C95.3443 22.8136 96.4093 23.5807 96.7379 24.7857H91.6641C91.8989 23.6899 92.9793 22.8136 94.1072 22.8136ZM98.1903 27.2588C97.5327 28.8549 95.9827 29.9349 94.2444 29.9349C91.801 29.9349 89.8438 28.0256 89.8438 25.5683C89.8438 23.0954 91.7073 21.1078 94.1972 21.1078C95.3561 21.1078 96.515 21.6242 97.3291 22.4539C98.1594 23.3303 98.5038 24.3945 98.5038 25.584L98.4413 26.257H91.676C91.9266 27.4153 92.9916 28.2603 94.1817 28.2603C95.0116 28.2603 95.7319 27.9475 96.2017 27.2588H98.1903ZM20.7359 24.1322L21.2148 22.6591L20.8296 22.1293L16.8809 20.847L16.1641 23.052L20.1135 24.3345L20.7359 24.1322ZM20.9348 24.743L22.1886 25.6537L22.1884 26.3081L19.7476 29.6655L17.8711 28.3029L20.3116 24.9456L20.9348 24.743ZM24.0861 24.743L22.832 25.6534L22.8323 26.3082L25.2727 29.6655L27.1495 28.3029L24.7086 24.9453L24.0861 24.743ZM24.2877 24.132L23.8086 22.6587L24.1939 22.1294L28.143 20.8469L28.8597 23.0518L24.9109 24.334L24.2877 24.132Z" fill="#8A4182"/>
<path fill-rule="evenodd" clip-rule="evenodd" d="M12.5 23.9984C12.5 18.4852 16.9885 14 22.5056 14C28.022 14 32.5099 18.4852 32.51 23.9984C32.51 29.5135 28.022 34 22.5056 34C16.9887 34 12.5 29.5133 12.5 23.9984ZM30.4858 23.9982C30.4858 19.5939 26.9128 16.0245 22.5072 16.0245C18.0997 16.0245 14.5273 19.5939 14.5273 23.9982C14.5273 28.4041 18.0997 31.975 22.5072 31.975C26.9128 31.975 30.4858 28.4041 30.4858 23.9982Z" fill="#8A4182"/>
<path fill-rule="evenodd" clip-rule="evenodd" d="M18.4453 18.8288L20.3001 21.3809L20.8204 21.0034L18.9656 18.451L18.4453 18.8288ZM24.7312 21.4044L24.2109 21.0268L26.066 18.4746L26.5863 18.8521L24.7312 21.4044ZM28.5605 26.221L25.5586 25.246L25.7572 24.6347L28.7589 25.6098L28.5605 26.221ZM16.429 26.1826L16.2305 25.5714L19.2321 24.597L19.4306 25.2081L16.429 26.1826ZM22.803 30.3735H22.1602V27.219H22.803V30.3735Z" fill="#8A4182"/>
</svg>
