<svg width="111" height="48" viewBox="0 0 111 48" fill="none" xmlns="http://www.w3.org/2000/svg">
<path d="M42.8506 47.8684L41.7586 45.9393C41.3218 45.1973 41.0306 44.7336 40.7576 44.2142H40.7394C40.5029 44.715 40.2663 45.1788 39.8113 45.9578L38.7739 47.8684H37.5L40.1389 43.4536L37.6274 39.1316H38.9013L40.0297 41.1721C40.3391 41.7471 40.5939 42.1923 40.8122 42.656H40.8486C41.0852 42.1366 41.3036 41.7285 41.6312 41.1721L42.8142 39.1316H44.0517L41.4492 43.3795L44.1245 47.8684H42.8506Z" fill="#58AC3D"/>
<path d="M51.0232 47.5902C50.3135 47.887 49.5309 48.0168 48.7665 47.9983C46.3461 47.9983 44.5261 46.4401 44.5261 43.5835C44.5261 40.8567 46.3461 39.0017 49.0031 39.0017C49.6947 38.9832 50.4045 39.113 51.0414 39.4098L50.7684 40.3373C50.2225 40.0962 49.6401 39.9663 49.0395 39.9663C47.0376 39.9663 45.6909 41.2648 45.6909 43.5649C45.6909 45.6981 46.892 47.0708 48.9849 47.0708C49.6037 47.0708 50.2225 46.9595 50.7866 46.6998L51.0232 47.5902Z" fill="#58AC3D"/>
<path d="M51.7848 40.0962V39.1316H58.1363V40.0962H55.5156V47.8684H54.4055V40.0962H51.7848Z" fill="#58AC3D"/>
<path d="M58.7797 44.9376C58.8161 46.4772 59.7807 47.1079 60.8908 47.1079C61.4732 47.1264 62.0556 47.0151 62.6015 46.7925L62.8017 47.5901C62.1466 47.8684 61.455 47.9982 60.7634 47.9982C58.8707 47.9982 57.7424 46.7183 57.7424 44.8448C57.7424 42.9528 58.8343 41.4688 60.636 41.4688C62.6379 41.4688 63.1839 43.2681 63.1839 44.4182C63.1839 44.6037 63.1657 44.7706 63.1475 44.9561L58.7797 44.9376ZM62.0556 44.1399C62.0556 43.4165 61.7644 42.285 60.4904 42.285C59.3621 42.285 58.8707 43.3423 58.7797 44.1399H62.0556Z" fill="#58AC3D"/>
<path d="M64.3644 46.6998C64.8012 46.978 65.3108 47.145 65.8386 47.145C66.6575 47.145 67.0215 46.7369 67.0215 46.2175C67.0215 45.6981 66.7121 45.3828 65.875 45.0674C64.7648 44.6594 64.2552 44.0472 64.2552 43.2867C64.2552 42.2665 65.0378 41.4503 66.3845 41.4503C66.9123 41.4503 67.4401 41.5801 67.8951 41.8584L67.6221 42.6931C67.2399 42.4519 66.8031 42.3221 66.3663 42.3221C65.7112 42.3221 65.329 42.7302 65.329 43.1754C65.329 43.6206 65.693 43.9359 66.5119 44.2327C67.5857 44.6408 68.1316 45.1973 68.1316 46.1248C68.1316 47.2192 67.2945 47.9983 65.8386 47.9983C65.238 48.0168 64.6374 47.8684 64.1096 47.5716L64.3644 46.6998Z" fill="#58AC3D"/>
<path d="M70.8985 39.7994V41.5987H72.5V42.4706H70.8985V45.8466C70.8985 46.6257 71.1169 47.0523 71.7356 47.0523C71.954 47.0523 72.1724 47.0337 72.3908 46.9781L72.4454 47.8314C72.136 47.9427 71.7902 47.9983 71.4444 47.9798C70.9895 47.9983 70.5527 47.8314 70.2433 47.4975C69.9339 47.1636 69.8065 46.6071 69.8065 45.8651V42.452H68.8602V41.5802H69.8065V40.0962L70.8985 39.7994Z" fill="#58AC3D"/>
<path fill-rule="evenodd" clip-rule="evenodd" d="M59.7904 1.80906C58.5996 0.59646 57.5 1.82637e-09 55.565 8.16644e-10C54 0 52.6456 0.29976 51.6469 1.38336C50.9682 2.06451 50.289 2.74514 49.6099 3.42578C46.8933 6.14817 44.1768 8.87056 41.493 11.626C38.7913 14.3995 38.8553 17.4955 41.5698 20.2561C41.9806 20.6715 42.3913 21.0871 42.8021 21.5028C45.6826 24.4175 48.5668 27.336 51.4804 30.2149C53.9004 32.6143 57.1783 32.5885 59.5856 30.1762C62.9531 26.7964 66.3206 23.4037 69.6754 20.011C72.1082 17.5471 72.1082 14.2447 69.6754 11.7808C68.3591 10.4495 67.0387 9.12231 65.7183 7.79514C63.7377 5.80443 61.7572 3.81371 59.7904 1.80906ZM46.4187 14.7736H46.3971L53.7468 25.8418L53.7635 25.8152L53.7727 25.8289L63.107 10.9681L60.5462 8.28486C60.5425 8.28993 60.5389 8.295 60.5353 8.30007L60.5331 8.29777C59.1687 10.1988 57.9277 12.1702 56.675 14.1604C55.7208 15.6762 54.7598 17.2029 53.7322 18.7176C53.3683 18.1087 53.0274 17.533 52.6963 16.9736C52.3757 16.4322 52.0642 15.906 51.7496 15.3799C51.7231 15.3333 51.6986 15.2843 51.674 15.2353C51.5556 14.9994 51.4358 14.7607 51.0965 14.7607H46.4102L46.4187 14.7736Z" fill="url(#paint0_linear_5916_47726)"/>
<defs>
<linearGradient id="paint0_linear_5916_47726" x1="55.5" y1="0" x2="55.5" y2="32" gradientUnits="userSpaceOnUse">
<stop stop-color="#7AE855"/>
<stop offset="1" stop-color="#58AC3E"/>
</linearGradient>
</defs>
</svg>
