<svg width="111" height="48" viewBox="0 0 111 48" fill="none" xmlns="http://www.w3.org/2000/svg">
<path d="M88.2171 21.9456C87.0368 21.9456 86.2896 22.5191 85.7389 23.3982C85.7389 23.1688 85.8569 22.9013 85.8569 22.7101V22.3278H83.8903V31.8849H85.8569V26.3802C85.8569 24.8128 86.7222 23.8571 88.2171 23.8571H88.6104V21.9452L88.2171 21.9456Z" fill="#222B45"/>
<path d="M8.24896 25.4626C7.69829 24.6215 6.91158 24.0482 5.77096 24.0482C3.96148 24.0482 2.66322 25.386 2.66322 27.0682C2.66322 28.75 3.96148 30.0883 5.77096 30.0883C6.91158 30.0883 7.69846 29.5529 8.24896 28.7119L10.0584 29.744C9.19315 31.0438 7.58027 31.9993 5.77096 31.9993C2.4275 31.9993 0.5 29.5528 0.5 27.1063C0.5 24.6599 2.46679 22.2134 5.77096 22.2134C7.81632 22.2134 9.11442 23.1688 10.0584 24.4687L8.24896 25.4626Z" fill="#222B45"/>
<path d="M11.7894 22.4426H13.8349V27.6414C13.8349 29.0176 14.8575 29.9734 16.1556 29.9734C17.4144 29.9734 18.4764 28.9795 18.4764 27.6416V22.4425H20.522V27.7946C20.522 30.394 18.4373 31.9613 16.1558 31.9613C13.8744 31.9613 11.7895 30.394 11.7895 27.7946L11.7894 22.4426Z" fill="#222B45"/>
<path d="M30.119 25.4626C29.5683 24.6215 28.7816 24.0482 27.641 24.0482C25.8315 24.0482 24.5332 25.386 24.5332 27.0682C24.5332 28.75 25.8315 30.0883 27.641 30.0883C28.7816 30.0883 29.5685 29.5529 30.119 28.7119L31.9284 29.744C31.0632 31.0438 29.4503 31.9993 27.641 31.9993C24.2975 31.9993 22.37 29.5528 22.37 27.1063C22.37 24.6599 24.2975 22.2134 27.641 22.2134C29.6863 22.2134 30.9844 23.1688 31.9284 24.4687L30.119 25.4626Z" fill="#222B45"/>
<path d="M33.6594 22.4426H35.7049V27.6414C35.7049 29.0176 36.7277 29.9734 38.0258 29.9734C39.2846 29.9734 40.3466 28.9795 40.3466 27.6416V22.4425H42.392V27.7946C42.392 30.394 40.3073 31.9613 38.0259 31.9613C35.7445 31.9613 33.6597 30.394 33.6597 27.7946L33.6594 22.4426Z" fill="#222B45"/>
<path d="M44.9489 25.9212C44.9489 23.5512 46.5616 22.2133 48.4499 22.2133C49.9053 22.2133 50.9279 22.9013 51.3212 23.8569H51.3607C51.7539 22.8629 52.7766 22.2131 54.2319 22.2131C56.1201 22.2131 57.7328 23.5893 57.7328 25.921V31.7318H55.6873V25.9212C55.6873 24.8127 54.9795 24.1628 54.1142 24.1628C53.1307 24.1628 52.4227 24.7364 52.4227 26.1888V31.6937H50.3772V26.1885C50.3772 24.7359 49.6692 24.1625 48.6859 24.1625C47.8203 24.1625 47.1123 24.8122 47.1123 25.9209V31.6936H44.9487L44.9489 25.9212Z" fill="#222B45"/>
<path fill-rule="evenodd" clip-rule="evenodd" d="M62.2962 19.6899H60.2511V31.7706H62.2963V30.6235H62.3354C62.8077 31.3881 64.1058 31.9997 65.4432 31.9997C67.9214 31.9997 70.3994 30.2031 70.3994 27.1065C70.3994 24.0103 67.9214 22.2135 65.4434 22.2135C64.106 22.2135 62.8077 22.825 62.3356 23.5897H62.2962V19.6899ZM62.2957 27.1063C62.2957 25.386 63.5545 24.0863 65.2458 24.0863C66.9767 24.0863 68.2355 25.3478 68.2355 27.1063C68.2355 28.8266 66.9768 30.1263 65.2459 30.1263C63.5545 30.1263 62.2957 28.8266 62.2957 27.1063Z" fill="#222B45"/>
<path fill-rule="evenodd" clip-rule="evenodd" d="M81.4136 29.7059C81.4136 29.7059 81.4137 29.7059 81.4136 29.7059V29.7059ZM76.9688 31.9612C78.6995 31.9612 80.273 31.1202 81.4136 29.7059L79.6829 28.7502C78.9749 29.6675 78.0309 30.2026 76.9296 30.2026C75.5133 30.2026 74.1368 29.1706 74.0188 27.7562H81.925V27.4121C81.925 23.8188 78.9356 22.2132 76.9688 22.2132C73.6647 22.2132 71.6979 24.6215 71.6979 27.0682C71.6979 29.5147 73.6254 31.9612 76.9688 31.9612ZM76.6932 23.9332C78.0306 23.9332 79.0927 24.698 79.5251 26.1124H73.979C74.3331 24.7362 75.3951 23.9332 76.6932 23.9332Z" fill="#222B45"/>
<path d="M100.977 29.7737V28.5137L105.807 22.1997H107.753L102.993 28.5137L102.083 28.2337H109.853V29.7737H100.977ZM106.353 31.9997V29.7737L106.409 28.2337V26.2597H108.117V31.9997H106.353Z" fill="#222B45"/>
<path fill-rule="evenodd" clip-rule="evenodd" d="M87.75 14.2599C87.75 10.8 90.6312 8 94.1912 8C94.8908 8 95.5645 8.10855 96.1947 8.31043C96.2806 8.33478 96.3648 8.36594 96.4483 8.3968C96.4787 8.40802 96.5089 8.4192 96.5391 8.42999C96.5471 8.43305 96.555 8.43608 96.5629 8.43909C96.5961 8.45174 96.6287 8.46418 96.6618 8.47779C96.7914 8.52769 96.9189 8.58553 97.043 8.64515C97.1648 8.70316 97.283 8.76942 97.3995 8.83634C99.4327 10.0009 100.638 12.3999 100.485 14.7497C100.23 18.6533 96.817 21.6273 92.9619 22.1923V20.4003C89.9968 19.837 87.75 17.3058 87.75 14.2599ZM94.9099 10.5565C95.0722 10.3702 95.3039 10.2957 95.5246 10.3177C95.892 10.3542 96.2374 10.64 96.2128 11.0463C96.2128 11.1993 96.1685 11.3952 96.09 11.5481C95.8539 12.0832 95.3868 12.4249 94.8362 12.5396C94.4823 12.1192 94.4037 11.5457 94.6394 11.0105L94.6528 10.9845C94.7267 10.8407 94.7986 10.7008 94.9099 10.5565ZM91.9564 11.0463C91.9564 10.6641 92.2974 10.3867 92.6568 10.3534C92.8723 10.3334 93.0971 10.406 93.2593 10.5923C93.3712 10.7009 93.4434 10.8418 93.5176 10.9865L93.5298 11.0103C93.7657 11.5455 93.6846 12.119 93.37 12.5395C92.8193 12.4248 92.3153 12.0831 92.0791 11.5479C92.0003 11.395 91.9564 11.1991 91.9564 11.0463ZM90.7293 12.1936C90.109 12.2244 89.8319 12.982 90.3481 13.3763C90.5052 13.4909 90.6579 13.5745 90.8152 13.6509C91.366 13.8803 92.0026 13.8016 92.4747 13.4957C92.3567 12.9986 91.956 12.5424 91.4053 12.313C91.2085 12.2365 91.0487 12.1936 90.852 12.1936C90.8121 12.1892 90.7779 12.191 90.7412 12.193L90.7293 12.1936ZM95.7672 14.7978C96.0623 14.6067 96.4272 14.5046 96.7875 14.5111C97.0038 14.515 97.2203 14.5564 97.4269 14.6423L97.4542 14.6555C97.6019 14.7272 97.7458 14.797 97.8939 14.9051C98.4445 15.2875 98.0978 16.1381 97.39 16.1C97.1932 16.1 97.0334 16.0567 96.8367 15.9806C96.286 15.7512 95.8853 15.2948 95.7672 14.7978ZM91.4171 14.5467C91.2009 14.551 90.9844 14.5921 90.778 14.6783C90.5812 14.7548 90.4289 14.8384 90.3109 14.9531C89.7994 15.3737 90.1437 16.1741 90.8517 16.1358C91.0483 16.1358 91.2476 16.0927 91.405 16.0164C91.9555 15.787 92.3462 15.3306 92.4251 14.8337C92.1301 14.6425 91.7775 14.5403 91.4171 14.5467ZM92.154 16.7091C92.3901 16.1738 92.8572 15.8321 93.4078 15.7176C93.7226 16.1764 93.8039 16.7495 93.5678 17.2464L93.5553 17.2709C93.4812 17.415 93.4091 17.5556 93.2973 17.7005C92.9038 18.1974 91.9919 17.8485 92.0312 17.1988C92.0312 17.0458 92.0755 16.8619 92.154 16.7091ZM94.8705 15.7533C94.5559 16.1739 94.4748 16.7473 94.7108 17.2824L94.7241 17.3083C94.7979 17.4522 94.8696 17.5923 94.9812 17.7004C95.4138 18.1592 96.3236 17.82 96.2841 17.2468C96.2841 17.0937 96.24 16.8978 96.1612 16.7448C95.9252 16.2097 95.4212 15.868 94.8705 15.7533Z" fill="#00A818"/>
</svg>
