<svg width="29" height="28" viewBox="0 0 29 28" fill="none" xmlns="http://www.w3.org/2000/svg">
<path fill-rule="evenodd" clip-rule="evenodd" d="M15.1938 19.4227C11.8335 19.8404 4.87931 20.5757 3.2998 19.5292C3.30024 18.4575 5.20696 14.4443 6.66314 11.4751C7.76055 9.23755 9.26366 7.21372 10.5964 5.41924C11.0321 4.83258 11.4497 4.27043 11.8288 3.73334C9.53545 7.14447 5.42685 14.679 6.82775 17.2164C7.47242 18.8299 13.1131 19.6518 15.1938 19.4227ZM16.4418 4.2983C14.7372 5.12552 11.8316 11.4862 10.4813 14.5915C11.3428 12.6837 14.9205 8.24615 16.6376 8.51222C19.5347 8.59736 23.9303 15.9682 25.6998 19.6782C25.4304 19.0784 25.1588 18.4329 24.8755 17.7592L24.8755 17.7592C24.0089 15.6988 23.0316 13.3752 21.6638 11.2919C19.8488 8.52753 17.3642 4.84399 16.4418 4.2983ZM23.8402 23.58C24.02 21.6938 20.098 15.9042 18.1478 13.1361C19.3293 14.864 21.2591 20.2276 20.139 21.5559C18.5596 23.9862 9.978 23.9076 5.88893 23.4898C6.54127 23.5715 7.23376 23.6753 7.95644 23.7836L7.95658 23.7836C10.1671 24.1148 12.6602 24.4884 15.1509 24.4035C18.456 24.2908 22.8944 24.0841 23.8402 23.58Z" fill="#CB3939"/>
</svg>
