<svg width="111" height="48" viewBox="0 0 111 48" fill="none" xmlns="http://www.w3.org/2000/svg">
<path d="M20.0441 28.3668C19.6814 27.0981 19.5 25.8293 19.5 24.5001C19.5 18.5793 23.2481 13.1418 28.8099 10.9668L29.5353 12.8397C24.7595 14.7126 21.495 19.3647 21.495 24.5001C21.495 25.6481 21.6159 26.7356 21.9182 27.8231L20.0441 28.3668Z" fill="#69D3A7"/>
<path d="M45.1892 18.7604C43.0128 14.5917 38.7206 11.9938 34.0657 11.9938C32.4334 11.9938 30.8012 12.2958 29.2898 12.9604L28.5039 11.0875C30.2571 10.3625 32.1311 10 34.0657 10C39.5065 10 44.4637 13.0208 47.0028 17.7938L45.1892 18.7604Z" fill="url(#paint0_linear_5894_43532)"/>
<path d="M29.7148 21.479C30.8635 21.479 31.8307 22.0831 32.3144 23.1706L32.3748 23.2311L34.3698 22.5665L34.3093 22.4456C33.5234 20.5727 31.7703 19.4248 29.7148 19.4248C28.2639 19.4248 27.0549 19.9081 26.0876 20.8748C25.1203 21.8415 24.6367 23.0498 24.6367 24.4394C24.6367 25.829 25.1203 27.0373 26.0876 28.004C27.0549 28.9706 28.2639 29.454 29.7148 29.454C31.7703 29.454 33.5234 28.3061 34.3093 26.4331L34.3698 26.3123L32.3748 25.6477L32.3144 25.7081C31.8912 26.7956 30.9239 27.3998 29.7148 27.3998C28.8685 27.3998 28.2035 27.0977 27.6594 26.554C27.1153 26.0102 26.8131 25.2852 26.8131 24.4394C26.8131 23.5936 27.1153 22.8686 27.6594 22.2644C28.2035 21.7811 28.8685 21.479 29.7148 21.479Z" fill="#1B1E2E"/>
<path d="M54.0197 20.9354C53.1129 19.9687 51.9643 19.4854 50.6343 19.4854C49.3043 19.4854 48.2161 19.9687 47.3698 20.8749V19.6666H45.2539V32.9583H47.3698V28.0645C48.2161 28.9708 49.3043 29.4541 50.6343 29.4541C51.9643 29.4541 53.1129 28.9708 54.0197 28.0041C54.9265 27.0374 55.3497 25.8895 55.3497 24.4999C55.3497 23.1104 54.9265 21.902 54.0197 20.9354ZM52.327 26.6145C51.7829 27.1583 51.1179 27.4604 50.2716 27.4604C49.4252 27.4604 48.7602 27.1583 48.2161 26.6145C47.6721 26.0708 47.3698 25.3458 47.3698 24.4999C47.3698 23.6541 47.6721 22.9291 48.2161 22.3249C48.7602 21.7812 49.4252 21.4791 50.2716 21.4791C51.1179 21.4791 51.7829 21.7812 52.327 22.3249C52.8711 22.8687 53.1129 23.5937 53.1129 24.4999C53.1734 25.3458 52.8711 26.0708 52.327 26.6145Z" fill="#1B1E2E"/>
<path d="M58.7917 20.8752V19.7273H56.6758V29.2731H58.7917V23.896C58.7917 23.0502 59.1544 22.3856 59.8194 21.9023C60.4844 21.4794 61.3307 21.3585 62.298 21.6606L62.4189 21.721V19.6669C61.0285 19.3044 59.6985 19.7877 58.7917 20.8752Z" fill="#1B1E2E"/>
<path d="M68.045 19.5459C66.6546 19.5459 65.4455 20.0292 64.4782 20.9959C63.511 21.9021 63.0273 23.1105 63.0273 24.5001C63.0273 25.8897 63.511 27.098 64.4782 28.0647C65.4455 29.0313 66.6546 29.5147 68.1055 29.5147C70.1004 29.5147 71.7932 28.4876 72.6395 26.8563L72.7 26.7355L70.8863 25.9501L70.8259 26.0105C70.2818 27.0376 69.3145 27.6417 68.1659 27.6417C66.6546 27.6417 65.506 26.7355 65.2037 25.2855H72.9418V25.1647C73.1231 23.5938 72.7 22.2646 71.7327 21.1771C70.8259 20.0896 69.5564 19.5459 68.045 19.5459ZM65.2641 23.5334C65.6269 22.2042 66.715 21.4188 67.9846 21.4188C69.3145 21.4188 70.4027 22.2646 70.7654 23.5334H65.2641Z" fill="#1B1E2E"/>
<path d="M78.6257 23.5938C77.4771 23.3522 76.4494 23.1709 76.4494 22.3855C76.4494 21.7209 77.1144 21.298 78.0817 21.298C79.1698 21.298 79.7744 21.7813 79.8953 22.6876V22.8084L82.0112 22.3855V22.2646C81.7089 20.573 80.1975 19.5459 78.0817 19.5459C76.9935 19.5459 76.0867 19.848 75.3612 20.3917C74.6358 20.9355 74.2731 21.6605 74.2731 22.5063C74.2731 23.7751 75.059 24.6813 76.389 24.9834C76.7517 25.0438 77.1144 25.1042 77.4771 25.1647C78.8071 25.4063 80.0162 25.648 80.0162 26.4938C80.0162 27.1584 79.2303 27.6417 78.0817 27.6417C76.933 27.6417 76.268 27.1584 76.1471 26.2522V26.1313L74.0312 26.5542V26.6751C74.3335 28.3667 75.8449 29.3938 78.1421 29.3938C79.2907 29.3938 80.258 29.0917 81.0439 28.548C81.8298 28.0042 82.253 27.2792 82.253 26.4334C82.1925 24.2584 80.258 23.8959 78.6257 23.5938Z" fill="#1B1E2E"/>
<path d="M87.8718 23.5938C86.7232 23.3522 85.6955 23.1709 85.6955 22.3855C85.6955 21.7209 86.3605 21.298 87.3278 21.298C88.4159 21.298 89.0205 21.7813 89.1414 22.6876V22.8084L91.2573 22.3855V22.2646C90.955 20.573 89.4436 19.5459 87.3278 19.5459C86.2396 19.5459 85.3328 19.848 84.6073 20.3917C83.8819 20.9355 83.5192 21.6605 83.5192 22.5063C83.5192 23.7751 84.3051 24.6813 85.635 24.9834C85.9978 25.0438 86.3605 25.1042 86.7232 25.1647C88.0532 25.4063 89.2623 25.648 89.2623 26.4938C89.2623 27.1584 88.4764 27.6417 87.3278 27.6417C86.1791 27.6417 85.5141 27.1584 85.3932 26.2522V26.1313L83.2773 26.5542V26.6751C83.5796 28.3667 85.091 29.3938 87.3882 29.3938C88.5368 29.3938 89.5041 29.0917 90.29 28.548C91.0759 28.0042 91.4991 27.2792 91.4991 26.4334C91.4386 24.2584 89.4436 23.8959 87.8718 23.5938Z" fill="#1B1E2E"/>
<path d="M42.0484 19.7271L39.2675 26.8562L36.4262 19.7271H34.1289L38.1189 29.4541L35.2171 36.2208L37.2121 36.6437L44.1642 19.7271H42.0484Z" fill="#1B1E2E"/>
<path d="M35.5813 35.3751L35.0977 36.5835C34.9767 36.8251 34.7954 37.0064 34.5536 37.0064C34.3722 37.0064 34.1908 37.0064 34.0699 37.0064C28.2664 37.0064 23.1278 32.898 21.8583 27.2793L19.8633 27.7022C20.5887 30.8439 22.3419 33.7439 24.881 35.7981C27.4805 37.8522 30.6845 39.0001 34.0095 39.0001C34.1908 39.0001 34.3722 39.0001 34.614 39.0001C35.6417 38.9397 36.609 38.3356 36.9717 37.3689L37.6367 35.7981L35.5813 35.3751Z" fill="url(#paint1_linear_5894_43532)"/>
<defs>
<linearGradient id="paint0_linear_5894_43532" x1="32.5346" y1="9.05841" x2="43.5693" y2="20.8595" gradientUnits="userSpaceOnUse">
<stop offset="0.0939" stop-color="#58D09E"/>
<stop offset="0.9883" stop-color="#58D09E" stop-opacity="0"/>
</linearGradient>
<linearGradient id="paint1_linear_5894_43532" x1="19.3463" y1="31.0955" x2="40.4397" y2="36.7132" gradientUnits="userSpaceOnUse">
<stop offset="0.0774" stop-color="#58D09E"/>
<stop offset="0.7617" stop-color="#1B1E2E"/>
</linearGradient>
</defs>
</svg>
