<svg width="111" height="48" viewBox="0 0 111 48" fill="none" xmlns="http://www.w3.org/2000/svg">
<mask id="path-1-outside-1_5894_47394" maskUnits="userSpaceOnUse" x="2.5" y="18.2852" width="87" height="13" fill="black">
<rect fill="white" x="2.5" y="18.2852" width="87" height="13"/>
<path d="M17.9012 19.286L14.5336 29.9261H14.1628L10.7876 20.1033C10.7527 20.0044 10.7249 19.9033 10.7043 19.8005C10.6836 19.9032 10.6558 20.0044 10.6211 20.1033L7.23081 29.9261H6.8676L3.5 19.286H3.84052C3.92028 19.2815 3.99123 19.3363 4.00697 19.4146L6.94329 28.8666C6.99553 29.0459 7.03848 29.2278 7.07198 29.4115C7.09207 29.3106 7.11352 29.2148 7.13632 29.1239C7.15896 29.0331 7.18292 28.9473 7.2082 28.8666L10.485 19.4146C10.5051 19.3325 10.5825 19.2777 10.6666 19.286H10.765C10.8448 19.2815 10.9157 19.3363 10.9315 19.4146L14.2083 28.8666C14.2638 29.043 14.3092 29.2224 14.3445 29.4039C14.3646 29.3031 14.3847 29.2085 14.405 29.1201C14.4251 29.0319 14.4478 28.9474 14.4731 28.8666L17.4094 19.4146C17.4295 19.3325 17.5069 19.2777 17.591 19.286H17.9012ZM26.3087 29.5704L26.2936 29.9261H20.0124V19.286H26.2936V19.6416H20.4287V24.3563H25.3704V24.7043H20.4287V29.5704H26.3087ZM31.6969 19.286C32.8572 19.286 33.7199 19.5181 34.285 19.9822C34.8499 20.4464 35.1325 21.1048 35.1326 21.9573C35.1332 22.2517 35.0767 22.5434 34.9661 22.8162C34.8547 23.0918 34.6974 23.3464 34.5007 23.5692C34.293 23.8029 34.0474 23.9999 33.7742 24.1519C33.4786 24.3173 33.1577 24.4324 32.8244 24.4925C33.2239 24.5297 33.6162 24.6227 33.9899 24.7688C34.3111 24.894 34.6071 25.076 34.8639 25.306C35.1015 25.5227 35.2888 25.7887 35.4125 26.0855C35.5421 26.4037 35.6064 26.7446 35.6018 27.0881C35.6096 27.5026 35.5297 27.914 35.3672 28.2953C35.2135 28.6423 34.9786 28.9473 34.6823 29.1844C34.3557 29.4401 33.9813 29.6279 33.5812 29.7369C33.0981 29.8695 32.5988 29.9332 32.0979 29.9261H28.8137V19.286H31.6969ZM29.2298 19.6189V24.379H31.7498C32.2144 24.3905 32.6773 24.3174 33.1158 24.1633C33.4579 24.0402 33.7718 23.8498 34.039 23.6033C34.2687 23.3884 34.4472 23.1246 34.5612 22.8314C34.6666 22.5624 34.7217 22.2764 34.7239 21.9875C34.7239 21.2258 34.4754 20.6406 33.9785 20.2319C33.4815 19.8233 32.721 19.619 31.6969 19.6189H29.2298ZM32.0979 29.5856C33.0918 29.5856 33.8548 29.3724 34.3871 28.9461C34.9193 28.5198 35.1855 27.898 35.1856 27.0807C35.1912 26.738 35.1174 26.3986 34.9698 26.0893C34.8254 25.796 34.6157 25.5397 34.3569 25.3401C34.0673 25.121 33.7385 24.9592 33.3882 24.8633C32.9707 24.7475 32.5388 24.6915 32.1055 24.6969H29.2298V29.5856H32.0979ZM47.0818 24.606C47.0937 25.367 46.9707 26.1241 46.7186 26.8423C46.4984 27.4649 46.1504 28.0346 45.697 28.5147C45.2543 28.9738 44.7172 29.3314 44.1229 29.5628C43.4786 29.8112 42.7928 29.9345 42.1023 29.9261H38.2655V19.286H42.1023C42.7928 19.2776 43.4785 19.4008 44.1229 19.6492C44.7172 19.8806 45.2542 20.2382 45.697 20.6973C46.1504 21.1775 46.4984 21.7472 46.7186 22.3698C46.9707 23.0879 47.0937 23.845 47.0818 24.606ZM46.6429 24.606C46.6546 23.8874 46.5432 23.172 46.3137 22.4909C46.1166 21.9103 45.7995 21.3779 45.3829 20.9281C44.9805 20.5036 44.4896 20.1728 43.945 19.9594C43.3576 19.732 42.7321 19.619 42.1023 19.6265H38.6817V29.5856H42.1023C42.7321 29.5931 43.3576 29.4801 43.945 29.2527C44.4896 29.0393 44.9805 28.7085 45.3829 28.2839C45.7995 27.8342 46.1167 27.3017 46.3137 26.7212C46.5433 26.0401 46.6546 25.3247 46.6429 24.606ZM56.8213 29.9261H56.4807C56.4306 29.9269 56.3807 29.9192 56.3331 29.9033C56.2818 29.8814 56.2383 29.8445 56.2083 29.7974L52.4548 25.2038C52.419 25.1534 52.377 25.1077 52.3299 25.0676C52.2863 25.032 52.2379 25.0027 52.1861 24.9807C52.1255 24.956 52.0619 24.9394 51.9969 24.9314C51.9078 24.9204 51.818 24.9154 51.7283 24.9163H50.1769V29.9261H49.7607V19.286H52.3261C53.4813 19.286 54.3592 19.5105 54.9596 19.9594C55.56 20.4086 55.8601 21.0897 55.8601 22.0027C55.8656 22.3949 55.7856 22.7836 55.6255 23.1417C55.4709 23.4799 55.2465 23.7816 54.9672 24.0271C54.6644 24.2888 54.3153 24.4916 53.938 24.625C53.507 24.7794 53.0557 24.8699 52.5985 24.8936C52.6997 24.9528 52.7893 25.0297 52.8634 25.1206L56.8213 29.9261ZM50.1769 24.5984H52.205C52.6615 24.6042 53.1164 24.5443 53.5558 24.4205C53.9267 24.3174 54.2738 24.1426 54.5775 23.906C54.852 23.6884 55.0722 23.4098 55.2207 23.0924C55.3736 22.7551 55.4499 22.3881 55.444 22.0179C55.444 21.1957 55.1766 20.5902 54.6417 20.2016C54.1069 19.8132 53.335 19.619 52.3261 19.6189H50.1769V24.5984ZM59.2124 29.9261H58.7961V19.286H59.2124V29.9261ZM70.3822 19.286L65.9625 29.9261H65.5918L61.1722 19.286H61.4977C61.5774 19.2814 61.6484 19.3363 61.6641 19.4146L65.6144 28.9423C65.6446 29.023 65.6736 29.105 65.7014 29.1882C65.7291 29.2715 65.7556 29.356 65.7809 29.4417C65.8255 29.2727 65.8785 29.106 65.9398 28.9423L69.8826 19.4146C69.9026 19.3325 69.98 19.2776 70.0642 19.286H70.3822ZM78.6381 29.5704L78.6229 29.9261H72.3419V19.286H78.6229V19.6416H72.7581V24.3563H77.6998V24.7043H72.7581V29.5704H78.6381ZM88.2037 29.9261H87.8631C87.813 29.9269 87.7631 29.9192 87.7155 29.9033C87.6642 29.8814 87.6207 29.8445 87.5907 29.7974L83.8371 25.2038C83.8013 25.1534 83.7593 25.1076 83.7122 25.0676C83.6686 25.032 83.6202 25.0027 83.5684 24.9807C83.5078 24.956 83.4442 24.9394 83.3793 24.9314C83.2902 24.9204 83.2004 24.9154 83.1106 24.9163H81.5593V29.9261H81.1431V19.286H83.7085C84.8638 19.286 85.7416 19.5105 86.342 19.9594C86.9424 20.4086 87.2425 21.0897 87.2425 22.0027C87.248 22.3949 87.168 22.7836 87.0079 23.1417C86.8532 23.4799 86.6289 23.7816 86.3496 24.027C86.0467 24.2887 85.6977 24.4915 85.3204 24.6249C84.8894 24.7793 84.4381 24.8698 83.9808 24.8936C84.082 24.9528 84.1718 25.0297 84.2458 25.1206L88.2037 29.9261ZM81.5593 24.5984H83.5873C84.0438 24.6042 84.4988 24.5443 84.9382 24.4205C85.3091 24.3174 85.6562 24.1426 85.9599 23.906C86.2344 23.6884 86.4546 23.4098 86.6031 23.0924C86.756 22.7551 86.8323 22.3881 86.8264 22.0179C86.8264 21.1957 86.559 20.5902 86.0241 20.2016C85.4893 19.8132 84.7174 19.619 83.7085 19.6189H81.5593V24.5984Z"/>
</mask>
<path d="M17.9012 19.286L14.5336 29.9261H14.1628L10.7876 20.1033C10.7527 20.0044 10.7249 19.9033 10.7043 19.8005C10.6836 19.9032 10.6558 20.0044 10.6211 20.1033L7.23081 29.9261H6.8676L3.5 19.286H3.84052C3.92028 19.2815 3.99123 19.3363 4.00697 19.4146L6.94329 28.8666C6.99553 29.0459 7.03848 29.2278 7.07198 29.4115C7.09207 29.3106 7.11352 29.2148 7.13632 29.1239C7.15896 29.0331 7.18292 28.9473 7.2082 28.8666L10.485 19.4146C10.5051 19.3325 10.5825 19.2777 10.6666 19.286H10.765C10.8448 19.2815 10.9157 19.3363 10.9315 19.4146L14.2083 28.8666C14.2638 29.043 14.3092 29.2224 14.3445 29.4039C14.3646 29.3031 14.3847 29.2085 14.405 29.1201C14.4251 29.0319 14.4478 28.9474 14.4731 28.8666L17.4094 19.4146C17.4295 19.3325 17.5069 19.2777 17.591 19.286H17.9012ZM26.3087 29.5704L26.2936 29.9261H20.0124V19.286H26.2936V19.6416H20.4287V24.3563H25.3704V24.7043H20.4287V29.5704H26.3087ZM31.6969 19.286C32.8572 19.286 33.7199 19.5181 34.285 19.9822C34.8499 20.4464 35.1325 21.1048 35.1326 21.9573C35.1332 22.2517 35.0767 22.5434 34.9661 22.8162C34.8547 23.0918 34.6974 23.3464 34.5007 23.5692C34.293 23.8029 34.0474 23.9999 33.7742 24.1519C33.4786 24.3173 33.1577 24.4324 32.8244 24.4925C33.2239 24.5297 33.6162 24.6227 33.9899 24.7688C34.3111 24.894 34.6071 25.076 34.8639 25.306C35.1015 25.5227 35.2888 25.7887 35.4125 26.0855C35.5421 26.4037 35.6064 26.7446 35.6018 27.0881C35.6096 27.5026 35.5297 27.914 35.3672 28.2953C35.2135 28.6423 34.9786 28.9473 34.6823 29.1844C34.3557 29.4401 33.9813 29.6279 33.5812 29.7369C33.0981 29.8695 32.5988 29.9332 32.0979 29.9261H28.8137V19.286H31.6969ZM29.2298 19.6189V24.379H31.7498C32.2144 24.3905 32.6773 24.3174 33.1158 24.1633C33.4579 24.0402 33.7718 23.8498 34.039 23.6033C34.2687 23.3884 34.4472 23.1246 34.5612 22.8314C34.6666 22.5624 34.7217 22.2764 34.7239 21.9875C34.7239 21.2258 34.4754 20.6406 33.9785 20.2319C33.4815 19.8233 32.721 19.619 31.6969 19.6189H29.2298ZM32.0979 29.5856C33.0918 29.5856 33.8548 29.3724 34.3871 28.9461C34.9193 28.5198 35.1855 27.898 35.1856 27.0807C35.1912 26.738 35.1174 26.3986 34.9698 26.0893C34.8254 25.796 34.6157 25.5397 34.3569 25.3401C34.0673 25.121 33.7385 24.9592 33.3882 24.8633C32.9707 24.7475 32.5388 24.6915 32.1055 24.6969H29.2298V29.5856H32.0979ZM47.0818 24.606C47.0937 25.367 46.9707 26.1241 46.7186 26.8423C46.4984 27.4649 46.1504 28.0346 45.697 28.5147C45.2543 28.9738 44.7172 29.3314 44.1229 29.5628C43.4786 29.8112 42.7928 29.9345 42.1023 29.9261H38.2655V19.286H42.1023C42.7928 19.2776 43.4785 19.4008 44.1229 19.6492C44.7172 19.8806 45.2542 20.2382 45.697 20.6973C46.1504 21.1775 46.4984 21.7472 46.7186 22.3698C46.9707 23.0879 47.0937 23.845 47.0818 24.606ZM46.6429 24.606C46.6546 23.8874 46.5432 23.172 46.3137 22.4909C46.1166 21.9103 45.7995 21.3779 45.3829 20.9281C44.9805 20.5036 44.4896 20.1728 43.945 19.9594C43.3576 19.732 42.7321 19.619 42.1023 19.6265H38.6817V29.5856H42.1023C42.7321 29.5931 43.3576 29.4801 43.945 29.2527C44.4896 29.0393 44.9805 28.7085 45.3829 28.2839C45.7995 27.8342 46.1167 27.3017 46.3137 26.7212C46.5433 26.0401 46.6546 25.3247 46.6429 24.606ZM56.8213 29.9261H56.4807C56.4306 29.9269 56.3807 29.9192 56.3331 29.9033C56.2818 29.8814 56.2383 29.8445 56.2083 29.7974L52.4548 25.2038C52.419 25.1534 52.377 25.1077 52.3299 25.0676C52.2863 25.032 52.2379 25.0027 52.1861 24.9807C52.1255 24.956 52.0619 24.9394 51.9969 24.9314C51.9078 24.9204 51.818 24.9154 51.7283 24.9163H50.1769V29.9261H49.7607V19.286H52.3261C53.4813 19.286 54.3592 19.5105 54.9596 19.9594C55.56 20.4086 55.8601 21.0897 55.8601 22.0027C55.8656 22.3949 55.7856 22.7836 55.6255 23.1417C55.4709 23.4799 55.2465 23.7816 54.9672 24.0271C54.6644 24.2888 54.3153 24.4916 53.938 24.625C53.507 24.7794 53.0557 24.8699 52.5985 24.8936C52.6997 24.9528 52.7893 25.0297 52.8634 25.1206L56.8213 29.9261ZM50.1769 24.5984H52.205C52.6615 24.6042 53.1164 24.5443 53.5558 24.4205C53.9267 24.3174 54.2738 24.1426 54.5775 23.906C54.852 23.6884 55.0722 23.4098 55.2207 23.0924C55.3736 22.7551 55.4499 22.3881 55.444 22.0179C55.444 21.1957 55.1766 20.5902 54.6417 20.2016C54.1069 19.8132 53.335 19.619 52.3261 19.6189H50.1769V24.5984ZM59.2124 29.9261H58.7961V19.286H59.2124V29.9261ZM70.3822 19.286L65.9625 29.9261H65.5918L61.1722 19.286H61.4977C61.5774 19.2814 61.6484 19.3363 61.6641 19.4146L65.6144 28.9423C65.6446 29.023 65.6736 29.105 65.7014 29.1882C65.7291 29.2715 65.7556 29.356 65.7809 29.4417C65.8255 29.2727 65.8785 29.106 65.9398 28.9423L69.8826 19.4146C69.9026 19.3325 69.98 19.2776 70.0642 19.286H70.3822ZM78.6381 29.5704L78.6229 29.9261H72.3419V19.286H78.6229V19.6416H72.7581V24.3563H77.6998V24.7043H72.7581V29.5704H78.6381ZM88.2037 29.9261H87.8631C87.813 29.9269 87.7631 29.9192 87.7155 29.9033C87.6642 29.8814 87.6207 29.8445 87.5907 29.7974L83.8371 25.2038C83.8013 25.1534 83.7593 25.1076 83.7122 25.0676C83.6686 25.032 83.6202 25.0027 83.5684 24.9807C83.5078 24.956 83.4442 24.9394 83.3793 24.9314C83.2902 24.9204 83.2004 24.9154 83.1106 24.9163H81.5593V29.9261H81.1431V19.286H83.7085C84.8638 19.286 85.7416 19.5105 86.342 19.9594C86.9424 20.4086 87.2425 21.0897 87.2425 22.0027C87.248 22.3949 87.168 22.7836 87.0079 23.1417C86.8532 23.4799 86.6289 23.7816 86.3496 24.027C86.0467 24.2887 85.6977 24.4915 85.3204 24.6249C84.8894 24.7793 84.4381 24.8698 83.9808 24.8936C84.082 24.9528 84.1718 25.0297 84.2458 25.1206L88.2037 29.9261ZM81.5593 24.5984H83.5873C84.0438 24.6042 84.4988 24.5443 84.9382 24.4205C85.3091 24.3174 85.6562 24.1426 85.9599 23.906C86.2344 23.6884 86.4546 23.4098 86.6031 23.0924C86.756 22.7551 86.8323 22.3881 86.8264 22.0179C86.8264 21.1957 86.559 20.5902 86.0241 20.2016C85.4893 19.8132 84.7174 19.619 83.7085 19.6189H81.5593V24.5984Z" fill="black"/>
<path d="M17.9012 19.286L14.5336 29.9261H14.1628L10.7876 20.1033C10.7527 20.0044 10.7249 19.9033 10.7043 19.8005C10.6836 19.9032 10.6558 20.0044 10.6211 20.1033L7.23081 29.9261H6.8676L3.5 19.286H3.84052C3.92028 19.2815 3.99123 19.3363 4.00697 19.4146L6.94329 28.8666C6.99553 29.0459 7.03848 29.2278 7.07198 29.4115C7.09207 29.3106 7.11352 29.2148 7.13632 29.1239C7.15896 29.0331 7.18292 28.9473 7.2082 28.8666L10.485 19.4146C10.5051 19.3325 10.5825 19.2777 10.6666 19.286H10.765C10.8448 19.2815 10.9157 19.3363 10.9315 19.4146L14.2083 28.8666C14.2638 29.043 14.3092 29.2224 14.3445 29.4039C14.3646 29.3031 14.3847 29.2085 14.405 29.1201C14.4251 29.0319 14.4478 28.9474 14.4731 28.8666L17.4094 19.4146C17.4295 19.3325 17.5069 19.2777 17.591 19.286H17.9012ZM26.3087 29.5704L26.2936 29.9261H20.0124V19.286H26.2936V19.6416H20.4287V24.3563H25.3704V24.7043H20.4287V29.5704H26.3087ZM31.6969 19.286C32.8572 19.286 33.7199 19.5181 34.285 19.9822C34.8499 20.4464 35.1325 21.1048 35.1326 21.9573C35.1332 22.2517 35.0767 22.5434 34.9661 22.8162C34.8547 23.0918 34.6974 23.3464 34.5007 23.5692C34.293 23.8029 34.0474 23.9999 33.7742 24.1519C33.4786 24.3173 33.1577 24.4324 32.8244 24.4925C33.2239 24.5297 33.6162 24.6227 33.9899 24.7688C34.3111 24.894 34.6071 25.076 34.8639 25.306C35.1015 25.5227 35.2888 25.7887 35.4125 26.0855C35.5421 26.4037 35.6064 26.7446 35.6018 27.0881C35.6096 27.5026 35.5297 27.914 35.3672 28.2953C35.2135 28.6423 34.9786 28.9473 34.6823 29.1844C34.3557 29.4401 33.9813 29.6279 33.5812 29.7369C33.0981 29.8695 32.5988 29.9332 32.0979 29.9261H28.8137V19.286H31.6969ZM29.2298 19.6189V24.379H31.7498C32.2144 24.3905 32.6773 24.3174 33.1158 24.1633C33.4579 24.0402 33.7718 23.8498 34.039 23.6033C34.2687 23.3884 34.4472 23.1246 34.5612 22.8314C34.6666 22.5624 34.7217 22.2764 34.7239 21.9875C34.7239 21.2258 34.4754 20.6406 33.9785 20.2319C33.4815 19.8233 32.721 19.619 31.6969 19.6189H29.2298ZM32.0979 29.5856C33.0918 29.5856 33.8548 29.3724 34.3871 28.9461C34.9193 28.5198 35.1855 27.898 35.1856 27.0807C35.1912 26.738 35.1174 26.3986 34.9698 26.0893C34.8254 25.796 34.6157 25.5397 34.3569 25.3401C34.0673 25.121 33.7385 24.9592 33.3882 24.8633C32.9707 24.7475 32.5388 24.6915 32.1055 24.6969H29.2298V29.5856H32.0979ZM47.0818 24.606C47.0937 25.367 46.9707 26.1241 46.7186 26.8423C46.4984 27.4649 46.1504 28.0346 45.697 28.5147C45.2543 28.9738 44.7172 29.3314 44.1229 29.5628C43.4786 29.8112 42.7928 29.9345 42.1023 29.9261H38.2655V19.286H42.1023C42.7928 19.2776 43.4785 19.4008 44.1229 19.6492C44.7172 19.8806 45.2542 20.2382 45.697 20.6973C46.1504 21.1775 46.4984 21.7472 46.7186 22.3698C46.9707 23.0879 47.0937 23.845 47.0818 24.606ZM46.6429 24.606C46.6546 23.8874 46.5432 23.172 46.3137 22.4909C46.1166 21.9103 45.7995 21.3779 45.3829 20.9281C44.9805 20.5036 44.4896 20.1728 43.945 19.9594C43.3576 19.732 42.7321 19.619 42.1023 19.6265H38.6817V29.5856H42.1023C42.7321 29.5931 43.3576 29.4801 43.945 29.2527C44.4896 29.0393 44.9805 28.7085 45.3829 28.2839C45.7995 27.8342 46.1167 27.3017 46.3137 26.7212C46.5433 26.0401 46.6546 25.3247 46.6429 24.606ZM56.8213 29.9261H56.4807C56.4306 29.9269 56.3807 29.9192 56.3331 29.9033C56.2818 29.8814 56.2383 29.8445 56.2083 29.7974L52.4548 25.2038C52.419 25.1534 52.377 25.1077 52.3299 25.0676C52.2863 25.032 52.2379 25.0027 52.1861 24.9807C52.1255 24.956 52.0619 24.9394 51.9969 24.9314C51.9078 24.9204 51.818 24.9154 51.7283 24.9163H50.1769V29.9261H49.7607V19.286H52.3261C53.4813 19.286 54.3592 19.5105 54.9596 19.9594C55.56 20.4086 55.8601 21.0897 55.8601 22.0027C55.8656 22.3949 55.7856 22.7836 55.6255 23.1417C55.4709 23.4799 55.2465 23.7816 54.9672 24.0271C54.6644 24.2888 54.3153 24.4916 53.938 24.625C53.507 24.7794 53.0557 24.8699 52.5985 24.8936C52.6997 24.9528 52.7893 25.0297 52.8634 25.1206L56.8213 29.9261ZM50.1769 24.5984H52.205C52.6615 24.6042 53.1164 24.5443 53.5558 24.4205C53.9267 24.3174 54.2738 24.1426 54.5775 23.906C54.852 23.6884 55.0722 23.4098 55.2207 23.0924C55.3736 22.7551 55.4499 22.3881 55.444 22.0179C55.444 21.1957 55.1766 20.5902 54.6417 20.2016C54.1069 19.8132 53.335 19.619 52.3261 19.6189H50.1769V24.5984ZM59.2124 29.9261H58.7961V19.286H59.2124V29.9261ZM70.3822 19.286L65.9625 29.9261H65.5918L61.1722 19.286H61.4977C61.5774 19.2814 61.6484 19.3363 61.6641 19.4146L65.6144 28.9423C65.6446 29.023 65.6736 29.105 65.7014 29.1882C65.7291 29.2715 65.7556 29.356 65.7809 29.4417C65.8255 29.2727 65.8785 29.106 65.9398 28.9423L69.8826 19.4146C69.9026 19.3325 69.98 19.2776 70.0642 19.286H70.3822ZM78.6381 29.5704L78.6229 29.9261H72.3419V19.286H78.6229V19.6416H72.7581V24.3563H77.6998V24.7043H72.7581V29.5704H78.6381ZM88.2037 29.9261H87.8631C87.813 29.9269 87.7631 29.9192 87.7155 29.9033C87.6642 29.8814 87.6207 29.8445 87.5907 29.7974L83.8371 25.2038C83.8013 25.1534 83.7593 25.1076 83.7122 25.0676C83.6686 25.032 83.6202 25.0027 83.5684 24.9807C83.5078 24.956 83.4442 24.9394 83.3793 24.9314C83.2902 24.9204 83.2004 24.9154 83.1106 24.9163H81.5593V29.9261H81.1431V19.286H83.7085C84.8638 19.286 85.7416 19.5105 86.342 19.9594C86.9424 20.4086 87.2425 21.0897 87.2425 22.0027C87.248 22.3949 87.168 22.7836 87.0079 23.1417C86.8532 23.4799 86.6289 23.7816 86.3496 24.027C86.0467 24.2887 85.6977 24.4915 85.3204 24.6249C84.8894 24.7793 84.4381 24.8698 83.9808 24.8936C84.082 24.9528 84.1718 25.0297 84.2458 25.1206L88.2037 29.9261ZM81.5593 24.5984H83.5873C84.0438 24.6042 84.4988 24.5443 84.9382 24.4205C85.3091 24.3174 85.6562 24.1426 85.9599 23.906C86.2344 23.6884 86.4546 23.4098 86.6031 23.0924C86.756 22.7551 86.8323 22.3881 86.8264 22.0179C86.8264 21.1957 86.559 20.5902 86.0241 20.2016C85.4893 19.8132 84.7174 19.619 83.7085 19.6189H81.5593V24.5984Z" stroke="black" stroke-width="0.6" mask="url(#path-1-outside-1_5894_47394)"/>
<path d="M92.5159 18H106.484C107.597 18 108.5 19.3776 108.5 20.3636V28.6364C108.5 29.6224 107.597 31 106.484 31H92.5159C91.4026 31 90.5 29.6224 90.5 28.6364V20.3636C90.5 19.3776 91.4026 18 92.5159 18Z" fill="#EA5906"/>
<path d="M93.8763 27.9143H93.6133V21.1913H93.8763V27.9143ZM95.646 28.1916C95.6329 28.2266 95.6074 28.2555 95.5743 28.2728C95.5432 28.2886 95.5088 28.2968 95.4739 28.2968H95.3782L98.4002 21.1053C98.4276 21.0401 98.4921 20.9984 98.5627 21H98.6679L95.646 28.1916ZM105.999 24.5528C106.006 25.0367 105.928 25.5181 105.769 25.9753C105.63 26.3756 105.41 26.7433 105.124 27.056C104.846 27.3543 104.507 27.5885 104.129 27.7421C103.308 28.0609 102.397 28.0609 101.576 27.7421C101.198 27.5885 100.859 27.3543 100.581 27.056C100.295 26.7433 100.075 26.3756 99.9357 25.9753C99.6297 25.0525 99.6297 24.0556 99.9357 23.1327C100.075 22.7316 100.295 22.3631 100.581 22.0497C100.86 21.751 101.199 21.5153 101.576 21.3588C101.979 21.1927 102.412 21.1098 102.848 21.1149C103.287 21.1092 103.722 21.1913 104.129 21.3564C104.506 21.5115 104.846 21.7464 105.124 22.0448C105.41 22.3583 105.63 22.7269 105.769 23.128C105.928 23.586 106.005 24.0681 105.999 24.5528ZM105.721 24.5528C105.728 24.0956 105.658 23.6406 105.513 23.2068C105.388 22.8331 105.188 22.489 104.925 22.1955C104.673 21.9191 104.363 21.7019 104.017 21.5595C103.268 21.2662 102.437 21.2662 101.688 21.5595C101.342 21.7018 101.032 21.919 100.78 22.1955C100.516 22.4895 100.315 22.8334 100.187 23.2068C99.903 24.0817 99.903 25.0239 100.187 25.8988C100.314 26.2711 100.516 26.6135 100.78 26.9053C101.033 27.1794 101.343 27.3948 101.688 27.5366C102.437 27.8298 103.268 27.8298 104.017 27.5366C104.362 27.3948 104.672 27.1794 104.925 26.9053C105.189 26.6141 105.389 26.2713 105.513 25.8988C105.658 25.465 105.728 25.01 105.721 24.5528Z" fill="white"/>
<path fill-rule="evenodd" clip-rule="evenodd" d="M94.1755 28.2143H93.3125V20.8914H94.1755V28.2143ZM95.9235 28.3038C95.8838 28.4049 95.8089 28.4883 95.7126 28.5387L95.7092 28.5405C95.6361 28.5776 95.5552 28.5969 95.4731 28.5969H94.926L98.1228 20.9891C98.1975 20.8116 98.5 20.7002 99.1185 20.7002M105.516 23.2159C105.658 23.6457 105.727 24.0963 105.721 24.549L105.721 24.5529L105.721 24.5568C105.727 25.0087 105.658 25.4584 105.516 25.8875C105.515 25.8912 105.514 25.8952 105.513 25.8989C105.391 26.2636 105.196 26.5997 104.941 26.8869L104.94 26.8884C104.935 26.8941 104.93 26.8997 104.925 26.9054C104.678 27.172 104.378 27.3832 104.044 27.5249L104.041 27.5264C104.032 27.5298 104.024 27.5333 104.016 27.5366C103.268 27.8299 102.436 27.8299 101.687 27.5366C101.679 27.5333 101.671 27.5299 101.663 27.5264L101.659 27.525C101.325 27.3832 101.025 27.172 100.779 26.9054C100.774 26.8997 100.769 26.8941 100.764 26.8884L100.762 26.8868C100.506 26.5992 100.31 26.2633 100.186 25.8989C100.185 25.8969 100.185 25.8948 100.184 25.8928L100.183 25.8889C99.9035 25.0208 99.9033 24.0869 100.182 23.2187L100.183 23.2152C100.184 23.2124 100.185 23.2096 100.186 23.2068C100.311 22.8425 100.506 22.5062 100.76 22.217L100.761 22.2152C100.767 22.2087 100.773 22.2021 100.779 22.1956C101.025 21.9259 101.326 21.7126 101.662 21.5702C101.67 21.5667 101.679 21.563 101.687 21.5596C102.059 21.4138 102.452 21.3405 102.844 21.3396L102.85 21.3396C103.246 21.3394 103.641 21.4127 104.016 21.5596C104.024 21.5629 104.032 21.5664 104.041 21.5698L104.042 21.5703C104.377 21.7127 104.679 21.926 104.925 22.1956C104.93 22.2012 104.935 22.2068 104.94 22.2125L104.941 22.2143C105.196 22.5036 105.39 22.8411 105.513 23.2068C105.514 23.2098 105.515 23.2129 105.516 23.2159ZM105.228 23.3018C105.116 22.9675 104.937 22.6595 104.702 22.3967C104.48 22.1541 104.208 21.9633 103.904 21.838C103.228 21.5735 102.476 21.5735 101.799 21.838C101.495 21.9633 101.223 22.1541 101.001 22.3967C100.766 22.66 100.585 22.9677 100.471 23.3018C100.207 24.1151 100.207 24.9907 100.471 25.804C100.584 26.1364 100.765 26.4422 101 26.7029C101.223 26.9438 101.496 27.1333 101.799 27.2582C102.476 27.5227 103.227 27.5227 103.904 27.2582C104.208 27.1333 104.48 26.9438 104.703 26.7029C104.938 26.4427 105.117 26.1366 105.228 25.8039C105.362 25.4022 105.427 24.9808 105.421 24.5574L105.42 24.5484C105.427 24.125 105.362 23.7036 105.228 23.3018ZM105.123 22.0449C105.408 22.3568 105.627 22.7232 105.766 23.122C105.767 23.1239 105.768 23.1262 105.768 23.1281C105.927 23.5848 106.004 24.0654 105.998 24.5487L105.998 24.5529L105.998 24.557C106.004 25.0396 105.927 25.5195 105.768 25.9754C105.767 25.978 105.767 25.9806 105.766 25.9832C105.626 26.3804 105.407 26.7454 105.123 27.0561C105.118 27.0613 105.113 27.0665 105.108 27.0717L105.107 27.0735C104.832 27.3635 104.498 27.5915 104.128 27.7422C104.12 27.7453 104.112 27.7484 104.104 27.7515L104.101 27.7528C103.296 28.0575 102.407 28.0575 101.603 27.7528L101.599 27.7514C101.591 27.7484 101.583 27.7453 101.575 27.7422C101.205 27.5915 100.871 27.3635 100.597 27.0735L100.595 27.0717C100.59 27.0665 100.585 27.0613 100.58 27.0561C100.296 26.7455 100.078 26.3807 99.9378 25.9837L99.9364 25.9798L99.9349 25.9754C99.6289 25.0526 99.6289 24.0556 99.9349 23.1328C99.9357 23.1306 99.9364 23.1284 99.9372 23.1262L99.9387 23.1221C100.078 22.7251 100.296 22.3604 100.58 22.0498C100.586 22.044 100.591 22.0382 100.597 22.0325L100.598 22.0308C100.873 21.741 101.206 21.5121 101.575 21.3588C101.584 21.3553 101.592 21.3519 101.601 21.3484L101.604 21.347C101.999 21.1889 102.421 21.11 102.847 21.115C103.276 21.1095 103.701 21.1877 104.1 21.3451L104.104 21.3466C104.112 21.3498 104.12 21.3531 104.128 21.3564C104.499 21.5087 104.832 21.7378 105.108 22.0286L105.109 22.0302C105.114 22.0351 105.118 22.04 105.123 22.0449ZM106.298 24.5528C106.305 24.0348 106.222 23.5195 106.052 23.0299C105.899 22.5902 105.658 22.1861 105.344 21.8425L105.342 21.8404C105.035 21.5103 104.66 21.2506 104.242 21.079L104.241 21.0784C103.798 20.8989 103.324 20.8093 102.847 20.8149C102.372 20.8099 101.9 20.9005 101.461 21.0814C101.044 21.2544 100.668 21.5152 100.361 21.8453L100.359 21.8474C100.045 22.1909 99.8043 22.5947 99.6515 23.0344L99.6502 23.0384C99.3238 24.0225 99.3238 25.0857 99.6502 26.0698L99.6517 26.0742C99.8048 26.5129 100.045 26.9159 100.359 27.2586L100.361 27.2605C100.668 27.5908 101.044 27.85 101.462 28.02L101.466 28.0218C102.358 28.3678 103.346 28.3678 104.237 28.0218L104.241 28.02C104.659 27.85 105.035 27.5907 105.343 27.2605L105.344 27.2586C105.658 26.9159 105.899 26.5129 106.052 26.0742C106.221 25.5853 106.305 25.0703 106.298 24.5528ZM93.8755 27.9143V21.1914H93.6125V27.9143H93.8755Z" fill="white"/>
</svg>
