<svg width="29" height="28" viewBox="0 0 29 28" fill="none" xmlns="http://www.w3.org/2000/svg">
<path d="M6.02915 17.2455C5.62705 16.2069 5.42283 15.1022 5.42705 13.9884C5.43283 12.7912 5.6743 11.607 6.13767 10.5032C6.60104 9.39951 7.27722 8.39794 8.12758 7.55574C8.97794 6.71354 9.98582 6.04722 11.0936 5.59485C12.2015 5.14249 13.3875 4.91293 14.584 4.9193C15.0129 4.92094 15.4411 4.95081 15.866 5.00871L14.8399 6.04697H14.5612C12.0628 6.04557 9.70904 7.21742 8.20204 9.21189C6.69503 11.2064 6.20999 13.792 6.89129 16.1967H13.8708L10.9052 21.6513L17.9292 14.5347H8.34047L19.1436 3.8039C17.6917 3.13976 16.1135 2.79731 14.5171 2.8C12.0712 2.80254 9.69298 3.60404 7.74403 5.08266C5.79507 6.56127 4.38196 8.63614 3.7195 10.9918C3.05705 13.3475 3.18148 15.8552 4.07388 18.1337C4.96629 20.4121 6.57786 22.3367 8.6636 23.615L12.0085 17.29L6.02915 17.2455ZM20.3702 4.40596L17.0257 10.7316H23.0127C23.5407 12.1086 23.7259 13.5935 23.5524 15.0582C23.3789 16.5228 22.8519 17.9232 22.0168 19.1386C21.1818 20.354 20.0637 21.348 18.7591 22.0346C17.4544 22.7213 16.0024 23.0802 14.5283 23.0802C14.0846 23.0786 13.6414 23.0487 13.2014 22.9908L14.216 21.9645H14.5315C16.6458 21.9645 18.6733 21.1243 20.1684 19.6285C21.6634 18.1326 22.5032 16.1045 22.5032 13.9887C22.4938 13.2576 22.3926 12.5305 22.2021 11.8245H15.2194L18.1293 6.32503L10.9718 13.4526H20.5826L9.9018 24.2279C12.5032 25.3873 15.4478 25.5144 18.1393 24.5835C20.8309 23.6527 23.0684 21.7334 24.3989 19.2142C25.7294 16.695 26.0535 13.7641 25.3056 11.0148C24.5577 8.26558 22.7937 5.90333 20.3706 4.40631L20.3702 4.40596Z" fill="#E1251B"/>
</svg>
