<svg width="111" height="48" viewBox="0 0 111 48" fill="none" xmlns="http://www.w3.org/2000/svg">
<path d="M25.9143 25.667L24.8912 26.7224H28.9833L33.0754 30.4165H11.5921L15.6843 26.7224H18.7528L17.7301 25.667H14.6611L7.5 32.0002H37.1666L30.0065 25.667H25.9143V25.667Z" fill="#172535"/>
<path d="M35.0159 15.5588L32.4713 13L21.7838 23.7493L17.7125 19.6543L15.168 22.2136L21.7838 28.8674L35.0159 15.5588ZM48.835 18.3547H39.8951V20.3259H43.2514V29.6668H45.4948V20.3259H48.8346V18.3547H48.835ZM54.3992 23.0016C54.2392 22.6069 53.9876 22.2559 53.6653 21.9775C53.3601 21.7238 53.0044 21.5379 52.6217 21.4322C52.2291 21.3219 51.8231 21.2663 51.4152 21.2669C50.1755 21.2669 49.2136 21.6303 48.5287 22.3575C47.8437 23.0843 47.5012 24.1749 47.5012 25.6293C47.5012 26.9845 47.8057 28.0504 48.4147 28.827C49.0231 29.6036 49.9855 29.9917 51.3008 29.9917C51.9068 29.9955 52.5095 29.9035 53.0868 29.7191C53.5665 29.5783 54.0167 29.3515 54.4154 29.0498L53.7166 27.6452C53.1325 28.0587 52.4334 28.2783 51.7178 28.2732C51.0029 28.2732 50.4857 28.0974 50.166 27.7445C49.8127 27.2985 49.626 26.7434 49.6378 26.1746H54.5137C54.5678 25.8882 54.6087 25.6127 54.6353 25.3481C54.6614 25.1011 54.6752 24.8532 54.6761 24.6047C54.6927 24.0572 54.5985 23.5119 54.3992 23.0016V23.0016ZM52.7035 24.8361H49.6862C49.7123 24.3505 49.8783 23.8828 50.1641 23.4894C50.317 23.3137 50.507 23.1769 50.7198 23.0895C50.9317 23.0021 51.1611 22.9665 51.3891 22.985C51.5886 22.9688 51.7881 23.004 51.971 23.0881C52.1539 23.1717 52.313 23.3009 52.4351 23.4647C52.6771 23.8783 52.7714 24.3619 52.7025 24.8361H52.7035ZM60.7096 25.3567C60.4324 25.1615 60.1309 25.0032 59.8128 24.8859C59.4865 24.7643 59.1877 24.6518 58.9155 24.5468C58.676 24.4584 58.4466 24.3449 58.231 24.2081C58.1469 24.1606 58.077 24.0914 58.0287 24.0077C57.9797 23.9229 57.9539 23.8267 57.9536 23.7288C57.9536 23.2334 58.269 22.9855 58.8994 22.9855C59.2908 22.9855 59.6803 23.041 60.0574 23.1508C60.4374 23.261 60.7528 23.3655 61.0031 23.4643L61.4758 21.911C61.1055 21.7118 60.7107 21.5618 60.3016 21.465C59.7527 21.327 59.1883 21.2604 58.6224 21.2669C57.8759 21.2156 57.1372 21.4453 56.5514 21.911C56.3037 22.1497 56.1115 22.44 55.9886 22.7613C55.8644 23.0853 55.8116 23.4324 55.8337 23.7787C55.8163 24.201 55.9121 24.6204 56.1111 24.9933C56.2852 25.2953 56.5181 25.5594 56.7961 25.7699C57.0688 25.9744 57.3712 26.1361 57.6929 26.2492C58.0187 26.3646 58.318 26.4772 58.5897 26.5879C58.8305 26.6814 59.0604 26.8035 59.2746 26.9512C59.3606 27.0078 59.4314 27.0857 59.4803 27.1783C59.5287 27.2709 59.5534 27.3749 59.5515 27.4799C59.562 27.5987 59.5411 27.7188 59.4907 27.8267C59.4404 27.934 59.363 28.0257 59.2665 28.0917C59.036 28.223 58.7729 28.286 58.508 28.2732C58.0757 28.2737 57.6462 28.2039 57.2364 28.0665C56.892 27.9586 56.5589 27.8175 56.2417 27.6452L55.6546 29.2483C56.0408 29.4773 56.4545 29.6521 56.8858 29.7689C57.4136 29.9209 57.9598 29.996 58.508 29.9922C59.5625 29.9922 60.3533 29.7523 60.8806 29.273C61.1474 29.0228 61.3559 28.7169 61.4914 28.3772C61.6283 28.0347 61.6897 27.6668 61.6715 27.2985C61.6884 26.884 61.5925 26.4728 61.3941 26.1086C61.2207 25.813 60.9876 25.5569 60.7096 25.3567V25.3567ZM66.9297 28.0257C66.7459 28.0732 66.5568 28.095 66.3673 28.0917C66.2357 28.105 66.1032 28.0764 65.9887 28.01C65.8726 27.9427 65.7799 27.8414 65.7232 27.7198C65.5857 27.3247 65.5276 26.9062 65.5522 26.4886V23.3156H67.5415V21.4982H65.5522V19.3332L63.4323 19.9445V21.4978H62.307V23.3161H63.4323V27.4799C63.4323 28.3724 63.609 29.0142 63.9624 29.4051C64.1817 29.6154 64.4432 29.7768 64.7295 29.8787C65.0145 29.9798 65.3171 30.0183 65.6173 29.9917C66.0182 29.9917 66.4181 29.9418 66.8076 29.843C67.161 29.7575 67.5049 29.6359 67.8351 29.4797L67.4598 27.8271C67.2884 27.9066 67.1112 27.9729 66.9297 28.0257V28.0257Z" fill="#1274CC"/>
<path d="M72.8319 21.8519C73.11 21.3039 73.4825 20.8101 73.9322 20.3935C74.3188 20.0392 74.7717 19.7661 75.2643 19.5903C75.7109 19.431 76.1808 19.3479 76.6546 19.3445C77.4107 19.2996 78.1666 19.4343 78.8615 19.7378L79.4105 18.5247C79.0796 18.3895 78.7343 18.2933 78.3815 18.2379C77.8486 18.1581 77.3101 18.1225 76.7715 18.1314C76.1289 18.1353 75.4914 18.246 74.8846 18.4593C74.224 18.6912 73.6117 19.044 73.0782 19.4999C72.4765 20.0176 71.9714 20.6393 71.5866 21.3359C71.124 22.1853 70.8099 23.1084 70.6579 24.0651C70.4775 24.9414 70.4514 25.8428 70.5808 26.7282C70.679 27.395 70.9364 28.0278 71.331 28.5721C71.6953 29.05 72.1801 29.4209 72.7349 29.646C73.3382 29.8878 73.9836 30.0075 74.6334 29.9982C75.1884 30.0001 75.7424 29.9507 76.2885 29.8507C76.7712 29.7699 77.2328 29.5916 77.6453 29.3264L77.5037 28.2609C77.1846 28.4275 76.8466 28.554 76.497 28.638C76.0611 28.7416 75.614 28.791 75.1659 28.7856C74.6557 28.7944 74.1496 28.6939 73.681 28.4905C73.251 28.2983 72.8807 27.9924 72.6093 27.6052C72.312 27.1637 72.1206 26.6586 72.0502 26.1297C71.9591 25.4424 71.9828 24.7445 72.1205 24.0651C72.2428 23.2947 72.4828 22.5482 72.8319 21.8519ZM85.8072 22.3028C85.6444 22.0359 85.403 21.8269 85.1167 21.7048C84.689 21.5323 84.2297 21.454 83.7695 21.4752C83.1698 21.4743 82.5716 21.5347 81.984 21.6555C81.436 21.7639 80.907 21.9515 80.4133 22.2124L80.65 23.2125C80.8381 23.1158 81.0331 23.0337 81.2338 22.9682C81.4574 22.894 81.6848 22.8314 81.9151 22.7826C82.1421 22.7336 82.371 22.6943 82.6013 22.6648C82.805 22.6375 83.0101 22.6238 83.2157 22.6223C83.8583 22.6223 84.2797 22.7425 84.4804 22.9829C84.6812 23.2233 84.7282 23.6444 84.6206 24.2453C84.5654 24.5435 84.4959 24.8387 84.4125 25.1301C84.2632 25.1084 84.1125 25.0975 83.9616 25.0974H83.5043C82.9378 25.0943 82.372 25.1355 81.8119 25.2205C81.3376 25.2889 80.8764 25.4267 80.4419 25.6299C80.0629 25.8093 79.729 26.0727 79.4653 26.4004C79.1954 26.7518 79.0182 27.1663 78.9503 27.6052C78.8848 27.925 78.8911 28.2555 78.9687 28.5726C79.0385 28.8437 79.1733 29.0944 79.362 29.3015C79.5574 29.5106 79.7989 29.6709 80.0676 29.7686C80.375 29.8817 80.7004 29.9373 81.0277 29.9327C81.3539 29.936 81.6791 29.8974 81.9956 29.8179C82.2653 29.7492 82.5274 29.6531 82.7778 29.5311C82.9961 29.4246 83.2012 29.2927 83.3884 29.1379C83.5532 29.0011 83.705 28.8506 83.8427 28.6869H83.9262L84.0702 29.8345H85.0507C85.0165 29.5021 85.0151 29.1671 85.0464 28.8344C85.0774 28.4739 85.1293 28.0918 85.202 27.6873C85.3014 27.1303 85.4236 26.5397 85.5681 25.9172C85.7126 25.2943 85.8441 24.6548 85.9609 23.9991C86.0137 23.7073 86.0361 23.4108 86.0278 23.1143C86.0225 22.8297 85.9467 22.5504 85.8072 22.3028ZM83.9907 27.4904C83.8961 27.6507 83.7831 27.7993 83.6541 27.933C83.5009 28.0943 83.3273 28.2345 83.1386 28.3508C82.9235 28.4836 82.6924 28.5884 82.451 28.6625C82.1747 28.7471 81.8872 28.7887 81.5985 28.7856C81.4158 28.7974 81.2327 28.7707 81.0609 28.7072C80.889 28.6437 80.7322 28.5447 80.6005 28.4167C80.4847 28.2926 80.4015 28.1414 80.3583 27.9768C80.3151 27.8122 80.3134 27.6393 80.3532 27.4738C80.3945 27.216 80.5157 26.978 80.6994 26.7937C80.8924 26.6066 81.1223 26.4615 81.374 26.3677C81.6645 26.2586 81.9676 26.187 82.2759 26.1547C82.6134 26.1163 82.9527 26.0972 83.2924 26.0975C83.6064 26.0977 83.9203 26.1086 84.2336 26.1302L83.9907 27.4904ZM90.1886 21.6061L90.2298 21.3765C90.288 21.0491 90.3476 20.7619 90.4082 20.5166C90.4582 20.2978 90.5406 20.0878 90.6526 19.8937C90.7519 19.7271 90.8971 19.5931 91.0706 19.5082C91.29 19.4122 91.5281 19.3674 91.767 19.3773C91.9782 19.3781 92.1891 19.3944 92.3979 19.4261C92.6355 19.4642 92.8664 19.5361 93.0831 19.6396L93.5787 18.5413C93.3188 18.4265 93.0461 18.3438 92.7665 18.2951C92.4596 18.2483 92.1496 18.2264 91.8393 18.2296C91.4508 18.2212 91.0638 18.2795 90.6948 18.4021C90.3837 18.5114 90.1015 18.6906 89.8695 18.9263C89.6219 19.1888 89.4282 19.4979 89.2997 19.836C89.1358 20.2596 89.0155 20.699 88.9408 21.1473L88.8589 21.6066H87.5627L87.357 22.7538H88.6538L87.3934 29.8013H88.7231L89.9834 22.7538H92.1942L92.3994 21.6061H90.1886ZM99.4178 22.9751C99.3322 22.6015 99.1384 22.2619 98.8611 21.9994C98.5955 21.7663 98.2752 21.6055 97.9305 21.5323C97.5668 21.4503 97.1951 21.4092 96.8224 21.4097C96.2902 21.3913 95.7596 21.4788 95.261 21.6673C94.7624 21.8558 94.3056 22.1414 93.9167 22.508C93.1544 23.2399 92.6481 24.3054 92.3979 25.7037C92.2843 26.2865 92.2505 26.8822 92.2975 27.4743C92.3329 27.9516 92.4774 28.4143 92.7204 28.8261C92.958 29.2085 93.3032 29.5109 93.7121 29.6948C94.2143 29.9116 94.7575 30.0151 95.3036 29.9982C95.8599 29.9993 96.4135 29.9221 96.9485 29.7686C97.4342 29.6367 97.8955 29.4265 98.3146 29.1462L97.9858 28.1954C97.7046 28.4015 97.3901 28.5569 97.0562 28.6547C96.6804 28.7816 96.2871 28.8479 95.8909 28.8511C95.4807 28.8649 95.0719 28.7951 94.6892 28.6459C94.3965 28.5267 94.1465 28.3211 93.972 28.0562C93.798 27.771 93.6959 27.4473 93.6747 27.1132C93.6447 26.6856 93.6713 26.2558 93.7538 25.8351H99.0895C99.2219 25.4443 99.3266 25.0442 99.4032 24.6382C99.5267 24.0913 99.5317 23.524 99.4178 22.9751ZM98.0774 24.8023H93.9555C94.0927 24.1252 94.4507 23.5137 94.9724 23.065C95.456 22.7169 96.0397 22.5384 96.6338 22.5569C96.87 22.5349 97.1081 22.5687 97.3292 22.6554C97.5503 22.7422 97.7484 22.8795 97.9077 23.0567C98.1691 23.3904 98.2258 23.9722 98.0774 24.8023ZM99.2156 18.3444L99.2767 18H97.7976L96.3802 20.4428H97.1614L99.2156 18.3444ZM101.612 22.2956L101.487 22.234C101.569 22.2309 101.647 22.2018 101.711 22.151C101.742 22.1249 101.766 22.092 101.782 22.0548C101.798 22.0177 101.805 21.9773 101.802 21.937C101.807 21.8848 101.797 21.8324 101.773 21.7856C101.75 21.7389 101.714 21.6997 101.669 21.6727C101.571 21.6194 101.461 21.5929 101.35 21.596C101.273 21.596 101.192 21.5999 101.106 21.6072C101.039 21.6113 100.972 21.6223 100.907 21.6399V22.7719H101.137V22.2516L101.35 22.3171L101.669 22.7715H101.939L101.612 22.2956ZM101.288 22.1207H101.137V21.8104C101.16 21.8005 101.184 21.7952 101.208 21.7948C101.239 21.7934 101.27 21.7928 101.301 21.7929C101.472 21.7929 101.558 21.8437 101.558 21.9458C101.561 21.9728 101.555 22 101.543 22.024C101.53 22.048 101.511 22.0679 101.487 22.0811C101.425 22.1104 101.357 22.1243 101.288 22.1207Z" fill="#172535"/>
<path d="M102.411 21.6669C102.356 21.5296 102.272 21.4058 102.165 21.304C102.058 21.2021 101.93 21.1247 101.79 21.077C101.644 21.025 101.49 20.999 101.334 21C101.181 20.9991 101.029 21.0252 100.885 21.077C100.745 21.1253 100.617 21.2029 100.509 21.3046C100.402 21.4063 100.317 21.5298 100.26 21.6669C100.196 21.8256 100.165 21.9956 100.168 22.1666C100.165 22.3376 100.196 22.5077 100.258 22.6663C100.313 22.8032 100.397 22.9268 100.504 23.0285C100.61 23.1303 100.738 23.208 100.877 23.2563C101.024 23.3085 101.179 23.3347 101.334 23.3332C101.487 23.3342 101.639 23.3081 101.784 23.2563C101.921 23.2069 102.047 23.1309 102.156 23.0316C102.265 22.93 102.351 22.8055 102.408 22.6663C102.472 22.5082 102.504 22.3381 102.501 22.1666C102.504 21.9957 102.474 21.8259 102.411 21.6669V21.6669ZM102.156 22.5694C102.114 22.6758 102.051 22.7719 101.968 22.8511C101.887 22.9271 101.791 22.9841 101.687 23.0188C101.573 23.0563 101.454 23.0748 101.334 23.0739C101.217 23.0739 101.102 23.0549 100.991 23.0164C100.886 22.9803 100.789 22.9225 100.707 22.8468C100.624 22.7681 100.558 22.6719 100.516 22.5652C100.466 22.4383 100.442 22.3028 100.445 22.1666C100.442 22.0308 100.465 21.8959 100.511 21.7686C100.552 21.6612 100.615 21.5653 100.696 21.4864C100.777 21.4106 100.873 21.3528 100.978 21.3169C101.093 21.2778 101.213 21.2585 101.334 21.2599C101.452 21.2589 101.569 21.2784 101.68 21.3169C101.784 21.3534 101.88 21.4114 101.962 21.4864C102.045 21.5653 102.11 21.6612 102.153 21.7681C102.203 21.8949 102.226 22.0303 102.224 22.1671C102.227 22.3043 102.204 22.4409 102.156 22.5694V22.5694Z" fill="#172535"/>
</svg>
