<svg width="111" height="48" viewBox="0 0 111 48" fill="none" xmlns="http://www.w3.org/2000/svg">
<path d="M83.3669 22.4555L81.9066 25.2714C81.773 25.5089 81.6842 25.8252 81.4294 25.8252C81.0744 25.8252 81.0314 25.5072 80.8978 25.2312L79.7029 22.8922C79.6141 22.7725 79.6141 22.5358 79.4375 22.5742C79.2151 22.6144 79.261 22.8511 79.261 23.0015V27.7984C79.261 28.036 79.261 28.2744 79.2161 28.512C79.1712 28.7496 78.9937 28.9086 78.7389 28.9086C78.4736 28.8684 78.3838 28.7094 78.3409 28.512V21.0582C78.3409 20.7403 78.2521 20.3061 78.6501 20.1865C79.093 20.0668 79.3583 20.3856 79.5349 20.7403L80.8949 23.4365C81.0286 23.6741 81.0715 24.1006 81.4265 24.1501C81.8245 24.1501 81.8694 23.6741 82.003 23.4365L83.3631 20.8197C83.5396 20.4634 83.7611 20.1061 84.2478 20.1856C84.725 20.3053 84.6029 20.7394 84.6029 21.0975V27.9967C84.6029 28.3531 84.7365 28.9086 84.16 28.9086C83.5415 28.9086 83.6828 28.3548 83.6828 27.9565V23.3964C83.6379 23.0785 83.7277 22.7623 83.3736 22.4443L83.3669 22.4555ZM102.363 22.6546C102.097 22.8922 102.186 23.2084 102.186 23.487V28.2044C102.186 28.4813 102.275 28.918 101.831 28.918C101.354 28.9581 101.354 28.5214 101.354 28.2044V20.8992C101.354 20.6223 101.309 20.2651 101.663 20.1856C102.061 20.066 102.282 20.3437 102.46 20.6616L104.629 24.9842C104.763 25.3021 104.939 25.5782 105.072 25.8961C105.161 26.0542 105.161 26.2926 105.427 26.214C105.65 26.1345 105.604 25.8961 105.604 25.738V21.0889C105.604 20.8898 105.604 20.7326 105.649 20.5352C105.694 20.2583 105.871 20.1386 106.126 20.1386C106.391 20.1788 106.481 20.3762 106.481 20.6146V27.9497C106.481 28.2676 106.615 28.7017 106.172 28.8214C105.695 28.9795 105.509 28.5445 105.332 28.1873L102.852 23.2707C102.719 23.0332 102.676 22.7546 102.375 22.6366L102.363 22.6546ZM52.1058 24.5176C52.0609 25.3893 52.1506 26.2225 52.017 27.0942C51.7946 28.312 51.0435 28.918 49.6691 28.918C48.2088 28.918 47.3661 28.3642 47.1895 27.1335C46.9671 25.3491 46.9242 23.5254 47.1895 21.7495C47.3661 20.5984 48.2528 20.0446 49.5804 20.0446C50.908 20.0446 51.7498 20.6386 51.9712 21.7495C52.1936 22.7016 52.0599 23.6126 52.1048 24.5244L52.1058 24.5176ZM51.221 24.5176V22.4973C51.1761 21.4684 50.5577 20.8702 49.5412 20.9112C48.5677 20.9112 47.9912 21.465 47.934 22.4973V26.5926C47.9788 27.6215 48.5524 28.1787 49.5412 28.2197C50.5596 28.2197 51.179 27.666 51.221 26.5926C51.2659 25.9286 51.221 25.2449 51.221 24.5304V24.5176ZM95.845 28.3633C95.845 28.6402 95.8001 28.8393 95.5358 28.8795C95.3134 28.9197 95.1378 28.8795 95.0586 28.6419C95.0137 28.4838 94.9249 28.2856 94.882 28.1257C94.484 26.9079 94.484 26.9079 93.2747 26.9079H92.8863C91.3812 26.9079 91.3812 26.9079 90.8496 28.3471C90.7608 28.624 90.7159 29.0111 90.2731 28.9009C89.8302 28.7428 89.9639 28.3471 90.0507 28.0292L92.2201 20.8522C92.3537 20.4958 92.3967 19.9805 92.9617 20.0198C93.4389 20.06 93.5382 20.4958 93.625 20.8522L95.6617 27.6702C95.7505 27.9078 95.7954 28.1463 95.8383 28.3838L95.845 28.3633ZM92.8787 26.1431H93.3215C94.295 26.1431 94.3399 26.1029 94.0297 25.1141L93.1898 22.2991C93.1449 22.0999 93.1898 21.823 92.9245 21.823C92.6591 21.823 92.6152 22.0999 92.5694 22.3392L91.8612 24.7193C91.4184 26.1584 91.4632 26.1584 92.8796 26.1584L92.8787 26.1431ZM36.52 24.5193V20.8445C36.52 20.2506 36.7424 20.0523 37.2616 20.0523H38.7668C40.8035 20.0925 41.5565 20.924 41.5107 23.0263C41.4659 24.4655 40.6708 25.2868 39.2869 25.3654C38.8889 25.3654 38.5453 25.4055 38.1378 25.3654C37.5193 25.3252 37.2979 25.603 37.3408 26.1978C37.3857 26.9113 37.3408 27.6369 37.3408 28.3001C37.3408 28.577 37.296 28.894 36.898 28.894C36.5 28.894 36.5 28.5761 36.5 28.2599V24.5313L36.52 24.5193ZM38.6007 24.639C39.8863 24.639 40.3721 24.3621 40.5935 23.528C40.8149 22.6939 40.8159 21.9008 40.1507 21.2676C39.4425 20.6334 38.5129 20.9112 37.6711 20.9496C37.3618 20.9496 37.3618 21.306 37.3618 21.5838V23.3682C37.3618 24.6364 37.3618 24.6364 38.6026 24.6364L38.6007 24.639ZM59.9855 29C59.0559 29 58.3057 28.8419 57.7273 28.2078C57.5507 28.0087 57.3293 27.7318 57.5937 27.4557C57.8161 27.2182 58.0709 27.3763 58.257 27.5754C58.7886 28.0916 59.3641 28.2394 60.0742 28.2095C60.7375 28.1693 61.2233 27.8916 61.4906 27.2182C61.753 26.6045 61.5984 25.9106 61.0926 25.4337C60.6154 24.9577 59.9855 24.7697 59.3651 24.4817C58.4803 24.1253 57.8151 23.61 57.7273 22.5392C57.5937 21.1001 58.3038 20.3189 59.8538 20.0412C60.5171 19.9216 61.1394 20.0814 61.713 20.2788C62.0222 20.3583 62.2894 20.5967 62.1558 20.9428C62.0222 21.3393 61.713 21.1804 61.4476 21.0625C60.8712 20.7856 60.2527 20.7856 59.6762 20.8633C59.199 20.9428 58.7466 21.2197 58.6579 21.7752C58.5691 22.3307 58.6579 22.8041 59.1007 23.1631C59.6772 23.5904 60.3415 23.757 60.9599 24.0348C61.9334 24.4621 62.4651 25.2244 62.4651 26.3336C62.4651 27.3626 62.1997 28.1574 61.2243 28.6727C60.7814 28.9496 60.2947 28.9103 59.9835 28.9906L59.9855 29ZM69.6843 24.8364V21.7837C69.7291 21.0317 69.419 20.7924 68.7547 20.8719C68.4894 20.912 68.1782 20.8719 67.9148 20.8719C67.6514 20.8719 67.4719 20.7522 67.4719 20.4446C67.4719 20.207 67.6485 20.048 67.8699 20.048H72.3863C72.6086 20.048 72.7843 20.1677 72.7843 20.4044C72.7843 20.6813 72.6077 20.8317 72.3414 20.8317C72.0322 20.8317 71.6781 20.8719 71.3679 20.8317C70.7494 20.7915 70.5709 21.0693 70.5709 21.6641V28.1676C70.5709 28.4855 70.5261 28.8316 70.1281 28.8316C69.6852 28.8316 69.6852 28.4753 69.6852 28.1676V24.8475L69.6843 24.8364Z" fill="#5F6578"/>
<path d="M25.9977 16.6657C23.0312 12.8239 18.0419 11.1485 13.3583 12.4193C8.67467 13.6901 5.21563 17.6594 4.59794 22.4733C3.98025 27.2872 6.32283 32.0007 10.5354 34.4127C14.7481 36.8247 19.9976 36.4634 23.8389 33.4955C29.0892 29.4436 30.0389 21.9097 25.9992 16.6665L25.9977 16.6657Z" fill="#FF6C37"/>
<path d="M20.5482 19.6459L15.4885 24.7455L14.0586 23.2754C19.0387 18.2955 19.5382 18.7457 20.5582 19.6467L20.5482 19.6459Z" fill="white"/>
<path d="M15.485 24.8862C15.4403 24.8854 15.3978 24.8669 15.3654 24.836L13.9254 23.3961C13.8582 23.3189 13.8582 23.2162 13.9254 23.1459C18.8252 18.2463 19.5054 18.4671 20.6659 19.5172C20.7045 19.5481 20.7276 19.5967 20.7261 19.6469C20.7338 19.6963 20.7145 19.7457 20.6759 19.7766L15.6163 24.836C15.5808 24.8684 15.5345 24.8862 15.4866 24.8862H15.485ZM14.3053 23.2865L15.485 24.4662L20.2852 19.6662C20.1194 19.4587 19.883 19.3195 19.6211 19.2753C19.3592 19.231 19.0902 19.2847 18.8653 19.4261C17.9952 19.826 16.5953 21.0057 14.3053 23.2865Z" fill="#FF6C37"/>
<path d="M16.9337 26.1563L15.5547 24.7573L20.6143 19.7573C21.9732 21.0876 19.9542 23.3073 16.9344 26.1579L16.9337 26.1563Z" fill="white"/>
<path d="M16.9336 26.3358C16.8896 26.332 16.8471 26.315 16.8139 26.2857L15.4141 24.906C15.3932 24.855 15.3932 24.7979 15.4141 24.7461C15.3986 24.7044 15.3986 24.6581 15.4141 24.6164L20.4737 19.557C20.547 19.4875 20.6605 19.4875 20.7339 19.557C21.0659 19.862 21.2481 20.2966 21.2342 20.746C21.2342 22.0956 19.6939 23.7957 17.0741 26.2756C17.0394 26.3104 16.993 26.3312 16.9444 26.3358H16.9336ZM15.814 24.7361L16.9444 25.8664C18.9519 23.9671 20.8435 22.0269 20.8644 20.7066C20.8752 20.4264 20.7825 20.1523 20.6042 19.9369L15.814 24.7361Z" fill="#FF6C37"/>
<path d="M14.0976 23.3057L15.0975 24.3056C15.1106 24.3171 15.1175 24.3334 15.1175 24.3503C15.1175 24.3673 15.1098 24.3843 15.0975 24.3951L12.9973 24.8452C12.955 24.8536 12.9111 24.848 12.8722 24.8295C12.8333 24.8109 12.8013 24.7803 12.7812 24.7422C12.761 24.7041 12.7536 24.6605 12.7601 24.6179C12.7667 24.5752 12.7868 24.5359 12.8174 24.5055L14.0474 23.2856C14.0474 23.2856 14.0875 23.2856 14.1076 23.3057H14.0976Z" fill="white"/>
<path d="M12.9369 25.0464C12.801 25.0448 12.6767 24.973 12.6072 24.8565C12.5685 24.784 12.5543 24.7008 12.567 24.6196C12.5797 24.5384 12.6185 24.4635 12.6775 24.4063L13.8974 23.1764C13.9414 23.137 13.9983 23.1152 14.0573 23.1152C14.1163 23.1152 14.1732 23.137 14.2171 23.1764L15.217 24.1763C15.2764 24.2326 15.2996 24.3175 15.2772 24.3963C15.2548 24.475 15.1884 24.5376 15.1073 24.5561L13.0072 25.0062L12.9369 25.0464ZM14.0565 23.5254L12.9261 24.6557L14.7962 24.2558L14.0565 23.5254Z" fill="#FF6C37"/>
<path d="M23.2404 16.8372C22.5169 16.1408 21.3812 16.1114 20.6152 16.7708C19.8493 17.4301 19.7273 18.5581 20.3156 19.3727C20.904 20.1872 22.0205 20.415 22.8829 19.8977L21.524 18.5388L23.2404 16.8372Z" fill="white"/>
<path d="M21.8806 20.3561C21.0313 20.3453 20.2692 19.8272 19.9473 19.0405C19.6253 18.2537 19.8037 17.3511 20.4013 16.7458C20.8013 16.3524 21.34 16.1318 21.9011 16.1318C22.4622 16.1318 23.0009 16.3524 23.4009 16.7458C23.4199 16.7618 23.4352 16.7817 23.4457 16.8042C23.4561 16.8266 23.4616 16.8511 23.4616 16.8759C23.4616 16.9007 23.4561 16.9252 23.4457 16.9477C23.4352 16.9702 23.4199 16.9901 23.4009 17.006L21.781 18.5363L23.011 19.7361C23.0309 19.7551 23.0458 19.7787 23.0546 19.8048C23.0633 19.8309 23.0656 19.8587 23.0612 19.8859C23.055 19.9399 23.0257 19.9863 22.9809 20.0156C22.6504 20.2223 22.2703 20.3362 21.8806 20.3453V20.3561ZM21.8806 16.4764C21.534 16.4784 21.1957 16.5827 20.9081 16.7762C20.6205 16.9698 20.3965 17.2439 20.264 17.5642C20.1316 17.8845 20.0967 18.2368 20.1637 18.5769C20.2307 18.917 20.3966 19.2297 20.6406 19.4759C21.1502 19.987 21.9192 20.1337 22.5809 19.8465L21.4011 18.6668C21.3625 18.6359 21.3409 18.5896 21.3409 18.5417C21.3409 18.4938 21.3641 18.4467 21.4011 18.4166L22.9608 16.847C22.6507 16.6092 22.2714 16.4793 21.8806 16.4772V16.4764Z" fill="#FF6C37"/>
<path d="M23.2666 16.8663L21.5664 18.5664L22.9253 19.9253C23.0622 19.8466 23.1897 19.7526 23.3052 19.645C23.6618 19.2682 23.858 18.7676 23.8524 18.2488C23.8468 17.73 23.6398 17.2337 23.2751 16.8647L23.2666 16.8663Z" fill="white"/>
<path d="M22.8865 20.0765C22.8401 20.0788 22.7969 20.061 22.7668 20.0263L21.4079 18.6674C21.3693 18.6366 21.3477 18.5902 21.3477 18.5424C21.3477 18.4945 21.3708 18.4474 21.4079 18.4173L23.1081 16.7473C23.1413 16.6971 23.1976 16.667 23.2579 16.667C23.3181 16.667 23.3737 16.6979 23.4076 16.7473C23.6071 16.9428 23.7656 17.1762 23.8738 17.4337C23.982 17.6912 24.0377 17.9677 24.0377 18.247C24.0377 18.5264 23.982 18.8029 23.8738 19.0604C23.7656 19.3179 23.6071 19.5513 23.4076 19.7468C23.2903 19.8719 23.1552 19.9784 23.0077 20.0665C22.9706 20.085 22.9274 20.0896 22.888 20.0765H22.8865ZM21.7862 18.5362L22.9166 19.6665C22.9938 19.6125 23.0679 19.5522 23.1366 19.4866C23.3011 19.3226 23.4317 19.1278 23.5208 18.9133C23.61 18.6988 23.656 18.4689 23.6563 18.2366C23.6566 17.8171 23.5036 17.4118 23.2262 17.097L21.7862 18.5362Z" fill="#FF6C37"/>
<path d="M20.7564 19.8567C20.4754 19.5927 20.0383 19.5927 19.7565 19.8567L15.2266 24.3765L15.9755 25.1362L20.7757 20.9361C20.8488 20.8661 20.9068 20.7819 20.9461 20.6886C20.9854 20.5954 21.0052 20.4951 21.0043 20.3939C21.0033 20.2927 20.9817 20.1927 20.9406 20.1002C20.8996 20.0077 20.8401 19.9246 20.7657 19.856L20.7564 19.8567Z" fill="white"/>
<path d="M15.9376 25.316C15.8928 25.3152 15.8504 25.2967 15.8179 25.2658L15.0582 24.506C14.991 24.4288 14.991 24.3261 15.0582 24.2559L19.5881 19.7562C19.7184 19.6253 19.8851 19.5366 20.0664 19.5018C20.2478 19.467 20.4355 19.4877 20.6049 19.5611C20.7744 19.6345 20.9178 19.7573 21.0164 19.9135C21.1151 20.0696 21.1643 20.2519 21.1578 20.4364C21.1478 20.6889 21.0359 20.9267 20.849 21.0965L16.0488 25.2967C16.0141 25.3213 15.9714 25.3321 15.9291 25.3268L15.9376 25.316ZM15.408 24.3763L15.9083 24.8766L20.6081 20.7846C20.6658 20.7348 20.7125 20.6735 20.7452 20.6047C20.778 20.5358 20.7959 20.4609 20.798 20.3847C20.8042 20.2303 20.7417 20.0797 20.6282 19.9755C20.4097 19.7578 20.0568 19.7578 19.8383 19.9755L15.408 24.3763Z" fill="#FF6C37"/>
<path d="M11.7149 29.5264C11.7021 29.5437 11.6951 29.5647 11.6951 29.5863C11.6951 29.6078 11.7021 29.6288 11.7149 29.6461L11.9157 30.5162C11.9326 30.6197 11.8832 30.7231 11.7921 30.7749C11.701 30.8266 11.586 30.815 11.5064 30.7463L10.1367 29.4338L14.4065 25.1333H15.8866L16.8865 26.1331C15.3268 27.4974 13.5873 28.6409 11.7165 29.5334L11.7149 29.5264Z" fill="white"/>
<path d="M11.6225 30.9957C11.509 30.9934 11.4017 30.9471 11.3214 30.866L10.0212 29.5658C9.98256 29.5349 9.96094 29.4886 9.96094 29.4408C9.96094 29.3929 9.9841 29.3458 10.0212 29.3157L14.3218 25.0152C14.346 24.9895 14.3775 24.972 14.4121 24.965H15.9123C15.9509 24.9511 15.9934 24.9511 16.032 24.965L17.0319 25.9649C17.0705 26.0004 17.089 26.0529 17.0821 26.1038C17.0836 26.154 17.0612 26.2027 17.0219 26.2335L16.9416 26.303C15.3752 27.6089 13.6519 28.714 11.8117 29.5928L12.0124 30.3927C12.0433 30.5193 12.014 30.6529 11.9352 30.7556C11.8565 30.8583 11.7345 30.9201 11.6032 30.9224L11.6225 30.9957ZM10.4026 29.4261L11.5824 30.6259C11.6055 30.646 11.6395 30.646 11.6627 30.6259C11.6781 30.605 11.6781 30.5765 11.6627 30.5564L11.4619 29.6863C11.4295 29.5573 11.4928 29.4238 11.6117 29.3666C13.4025 28.4997 15.0815 27.4186 16.6119 26.1471L15.7842 25.3263H14.4438L10.4026 29.4261Z" fill="#FF6C37"/>
<path d="M9.10146 30.4549L10.1013 29.4551L11.6417 30.9954L9.1918 30.8255C9.14986 30.822 9.11009 30.8054 9.0781 30.778C9.04611 30.7507 9.02353 30.714 9.01355 30.6731C9.00356 30.6322 9.00668 30.5892 9.02245 30.5502C9.03823 30.5112 9.06587 30.4781 9.10146 30.4557V30.4549Z" fill="white"/>
<path d="M11.6771 31.1463L9.23719 30.9764C9.16585 30.9704 9.09769 30.9443 9.04061 30.9011C8.98353 30.8579 8.93988 30.7993 8.91473 30.7323C8.88959 30.6653 8.88397 30.5925 8.89855 30.5224C8.91312 30.4523 8.94729 30.3878 8.99707 30.3364L9.99695 29.3365C10.0742 29.2693 10.1768 29.2693 10.2471 29.3365L11.7774 30.8668C11.7986 30.8958 11.81 30.9308 11.81 30.9668C11.81 31.0027 11.7986 31.0377 11.7774 31.0667C11.7543 31.1038 11.7187 31.1324 11.6771 31.147V31.1463ZM9.23719 30.5865L11.2447 30.7162L10.1444 29.6863L9.23719 30.5865Z" fill="#FF6C37"/>
<path d="M16.0237 25.2467L14.0039 25.5478L15.1736 24.3882L16.0237 25.2467Z" fill="white"/>
<path d="M14.0088 25.7453C13.9752 25.7462 13.9421 25.7372 13.9136 25.7194C13.8852 25.7015 13.8627 25.6756 13.849 25.6449C13.8278 25.6159 13.8164 25.5809 13.8164 25.5449C13.8164 25.509 13.8278 25.474 13.849 25.445L15.0087 24.2753C15.082 24.2058 15.1955 24.2058 15.2689 24.2753L16.1182 25.1245C16.135 25.1515 16.1439 25.1827 16.1439 25.2145C16.1439 25.2463 16.135 25.2775 16.1182 25.3044C16.1105 25.3376 16.0931 25.3676 16.0682 25.3908C16.0433 25.4139 16.012 25.429 15.9784 25.4341L13.9709 25.7353L14.0088 25.7453ZM15.1785 24.6451L14.5284 25.2952L15.648 25.1253L15.1785 24.6451Z" fill="#FF6C37"/>
<path d="M16.0265 25.2467L14.6267 25.4266C14.5495 25.4444 14.4692 25.4089 14.4298 25.3402C14.3904 25.2715 14.4012 25.1842 14.4561 25.1271L15.1857 24.3975L16.0265 25.2467Z" fill="white"/>
<path d="M14.3949 25.5645C14.451 25.5979 14.515 25.6158 14.5803 25.6165L14.6505 25.6057L16.0503 25.4258C16.1291 25.4204 16.1754 25.374 16.2063 25.3069C16.2372 25.2397 16.2117 25.1648 16.16 25.1162L15.3107 24.2669C15.2373 24.1974 15.1238 24.1974 15.0505 24.2669L14.3208 24.9965C14.2066 25.1177 14.1818 25.286 14.2606 25.4265C14.2924 25.4836 14.3388 25.5311 14.3949 25.5645Z" fill="#FF6C37"/>
<path d="M23.0904 17.9559C23.1599 17.925 23.2418 17.9505 23.2804 18.0161L23.2734 18.0169C23.3861 18.257 23.3514 18.5412 23.1831 18.7465C23.1506 18.7836 23.0997 18.799 23.0534 18.7867C23.0271 18.7967 22.9985 18.7967 22.9731 18.7867C22.9476 18.7612 22.9321 18.728 22.9321 18.6917C22.9321 18.6554 22.9468 18.6214 22.9731 18.5967C23.0742 18.4686 23.0927 18.2933 23.0233 18.1466C23.0055 18.1126 22.9947 18.0748 23.0132 18.0385C23.0317 18.0022 23.0572 17.9729 23.0904 17.9559Z" fill="#FF6C37"/>
<path d="M15.6373 25.116L14.5772 25.2457L14.5664 25.2449L15.1663 24.645L15.6373 25.116Z" fill="white"/>
</svg>
