<svg width="111" height="48" viewBox="0 0 111 48" fill="none" xmlns="http://www.w3.org/2000/svg">
<g clip-path="url(#clip0_5894_47630)">
<path d="M56.0061 14.692L50.6744 10.8704L55.7018 19.1104L74.4992 3.884L56.0066 14.692H56.0061ZM53.7181 24.7968C48.1815 24.7968 43.6931 20.3988 43.6931 14.9732C43.6931 9.54801 48.1815 5.1492 53.7181 5.1492C56.1699 5.1492 58.4151 6.0132 60.1568 7.4452L61.5624 5.802C59.3658 3.98994 56.588 2.99761 53.719 3C46.9809 3 41.5 8.37121 41.5 14.9732C41.5 21.5752 46.9813 26.9464 53.7186 26.9464C57.2129 26.9464 60.3666 25.4996 62.596 23.188L61.0054 21.716C59.1778 23.612 56.59 24.7968 53.7186 24.7968H53.7181ZM53.7181 21.9496C49.7867 21.9496 46.5991 18.826 46.5991 14.9736C46.5991 11.1204 49.7863 7.9968 53.7181 7.9968C55.4594 7.9968 57.0528 8.6112 58.2897 9.6284L59.3449 8.3948C57.7692 7.09487 55.7766 6.38301 53.7186 6.3848C48.8855 6.3848 44.9536 10.2376 44.9536 14.9732C44.9536 19.7092 48.8855 23.5616 53.7186 23.5616C56.2245 23.5616 58.4869 22.5236 60.0855 20.8656L58.8894 19.7588C57.5914 21.1048 55.7576 21.9496 53.7186 21.9496H53.7181Z" fill="#236BFD"/>
</g>
<path d="M19.6007 41.1765H18.1884C18.1649 41.4406 18.1141 41.6747 18.036 41.8788C17.9579 42.0828 17.8543 42.2529 17.7254 42.389C17.5925 42.529 17.4324 42.6351 17.2448 42.7071C17.0573 42.7791 16.8424 42.8151 16.6002 42.8151C16.397 42.8151 16.2153 42.7871 16.0552 42.7311C15.8989 42.6711 15.7602 42.585 15.6391 42.473C15.5219 42.3689 15.4203 42.2449 15.3343 42.1008C15.2523 41.9568 15.1839 41.7967 15.1292 41.6206C15.0589 41.4086 15.0061 41.1745 14.971 40.9184C14.9397 40.6623 14.9241 40.3882 14.9241 40.096V38.8896C14.9241 38.6535 14.9358 38.4234 14.9593 38.1993C14.9866 37.9712 15.0257 37.7571 15.0765 37.557C15.1429 37.3289 15.2269 37.1228 15.3285 36.9388C15.4339 36.7507 15.5648 36.5986 15.7211 36.4826C15.8344 36.3866 15.9633 36.3125 16.1079 36.2605C16.2564 36.2085 16.4224 36.1825 16.606 36.1825C16.8678 36.1825 17.0925 36.2225 17.28 36.3025C17.4675 36.3786 17.6258 36.4906 17.7547 36.6387C17.8797 36.7867 17.9774 36.9668 18.0477 37.1789C18.1219 37.387 18.1708 37.621 18.1942 37.8812H19.6007C19.5578 37.445 19.462 37.0488 19.3136 36.6927C19.169 36.3365 18.9698 36.0324 18.7158 35.7803C18.4658 35.5322 18.163 35.3401 17.8074 35.2041C17.4558 35.068 17.0553 35 16.606 35C16.2739 35 15.9673 35.046 15.6859 35.1381C15.4086 35.2301 15.1546 35.3581 14.9241 35.5222C14.6819 35.7023 14.467 35.9204 14.2794 36.1765C14.0958 36.4286 13.9454 36.7107 13.8282 37.0228C13.7188 37.3029 13.6367 37.601 13.582 37.9172C13.5273 38.2333 13.5 38.5614 13.5 38.9016V40.096C13.5 40.4522 13.5273 40.7943 13.582 41.1224C13.6407 41.4506 13.7266 41.7547 13.8399 42.0348C13.9532 42.3189 14.0919 42.581 14.256 42.8211C14.424 43.0572 14.6193 43.2593 14.842 43.4274C15.0726 43.6074 15.3343 43.7475 15.6273 43.8475C15.9243 43.9436 16.2486 43.9916 16.6002 43.9916C17.0299 43.9916 17.4206 43.9256 17.7723 43.7935C18.1278 43.6575 18.4345 43.4654 18.6924 43.2173C18.9463 42.9732 19.1514 42.6791 19.3077 42.3349C19.464 41.9868 19.5617 41.6006 19.6007 41.1765Z" fill="#236BFD"/>
<path d="M26.8325 40.078V38.9256C26.8325 38.5614 26.8013 38.2113 26.7388 37.8751C26.6762 37.535 26.5825 37.2169 26.4575 36.9208C26.3442 36.6447 26.2035 36.3906 26.0355 36.1585C25.8675 35.9264 25.6702 35.7243 25.4436 35.5522C25.217 35.3802 24.9611 35.2461 24.6759 35.1501C24.3907 35.054 24.0781 35.006 23.7382 35.006C23.4022 35.006 23.0936 35.054 22.8123 35.1501C22.5349 35.2421 22.2868 35.3741 22.068 35.5462C21.8414 35.7223 21.6441 35.9304 21.4761 36.1705C21.312 36.4066 21.1733 36.6667 21.06 36.9508C20.9428 37.2469 20.8549 37.561 20.7963 37.8932C20.7377 38.2253 20.7084 38.5694 20.7084 38.9256V40.078C20.7084 40.4182 20.7357 40.7503 20.7904 41.0744C20.8451 41.3946 20.9271 41.6967 21.0365 41.9808C21.1498 42.2769 21.2905 42.549 21.4585 42.7971C21.6304 43.0452 21.8297 43.2573 22.0563 43.4334C22.279 43.6054 22.531 43.7415 22.8123 43.8415C23.0975 43.9376 23.41 43.9856 23.7499 43.9856C24.0781 43.9856 24.379 43.9396 24.6524 43.8475C24.9298 43.7555 25.1818 43.6295 25.4084 43.4694C25.6429 43.2933 25.8499 43.0832 26.0296 42.8391C26.2094 42.591 26.3598 42.3209 26.4809 42.0288C26.5942 41.7367 26.6802 41.4266 26.7388 41.0984C26.8013 40.7703 26.8325 40.4302 26.8325 40.078ZM25.4143 38.9136V40.078C25.4104 40.2941 25.3967 40.5082 25.3733 40.7203C25.3537 40.9284 25.3205 41.1285 25.2736 41.3205C25.219 41.5406 25.1447 41.7427 25.051 41.9268C24.9611 42.1068 24.8478 42.2629 24.711 42.395C24.5938 42.511 24.4532 42.603 24.2891 42.6711C24.1289 42.7391 23.9492 42.7731 23.7499 42.7731C23.5429 42.7731 23.3592 42.7391 23.199 42.6711C23.0428 42.599 22.9041 42.503 22.783 42.383C22.6579 42.2549 22.5505 42.0988 22.4606 41.9148C22.3747 41.7267 22.3063 41.5246 22.2555 41.3085C22.2086 41.1164 22.1754 40.9164 22.1559 40.7083C22.1364 40.5002 22.1266 40.2901 22.1266 40.078V38.9136C22.1266 38.6975 22.1364 38.4834 22.1559 38.2713C22.1793 38.0552 22.2145 37.8511 22.2614 37.6591C22.3122 37.435 22.3844 37.2329 22.4782 37.0528C22.572 36.8687 22.6872 36.7107 22.824 36.5786C22.9373 36.4706 23.0701 36.3866 23.2225 36.3265C23.3749 36.2625 23.5468 36.2305 23.7382 36.2305C23.9375 36.2305 24.1152 36.2625 24.2715 36.3265C24.4278 36.3906 24.5665 36.4786 24.6876 36.5906C24.8243 36.7187 24.9396 36.8747 25.0334 37.0588C25.131 37.2389 25.2092 37.439 25.2678 37.6591C25.3186 37.8511 25.3537 38.0532 25.3733 38.2653C25.3967 38.4774 25.4104 38.6935 25.4143 38.9136Z" fill="#236BFD"/>
<path d="M28.1922 43.8655H30.3488C30.7395 43.8655 31.1048 43.8175 31.4447 43.7215C31.7885 43.6255 32.1011 43.4874 32.3824 43.3073C32.6324 43.1433 32.859 42.9452 33.0622 42.7131C33.2693 42.481 33.4451 42.2229 33.5896 41.9388C33.7381 41.6467 33.8514 41.3245 33.9295 40.9724C34.0116 40.6162 34.0526 40.2401 34.0526 39.8439V39.1597C34.0526 38.7475 34.0096 38.3593 33.9237 37.9952C33.8377 37.6311 33.7166 37.2969 33.5603 36.9928C33.408 36.7007 33.2185 36.4366 32.9919 36.2005C32.7692 35.9644 32.5133 35.7683 32.2241 35.6122C31.9585 35.4602 31.6635 35.3421 31.3392 35.2581C31.0149 35.1701 30.6692 35.1261 30.3019 35.1261H28.1922V43.8655ZM29.6162 36.3025H30.3019C30.5285 36.3065 30.7395 36.3345 30.9348 36.3866C31.1302 36.4346 31.306 36.5046 31.4623 36.5966C31.6772 36.7207 31.8627 36.8828 32.019 37.0828C32.1753 37.2789 32.3003 37.499 32.3941 37.7431C32.4683 37.9432 32.525 38.1613 32.5641 38.3974C32.6031 38.6335 32.6227 38.8836 32.6227 39.1477V39.8439C32.6227 40.112 32.6031 40.3641 32.5641 40.6002C32.525 40.8363 32.4683 41.0544 32.3941 41.2545C32.3081 41.4906 32.1968 41.7007 32.0601 41.8848C31.9272 42.0648 31.7748 42.2149 31.6029 42.3349C31.4349 42.451 31.2454 42.541 31.0345 42.605C30.8274 42.6651 30.5988 42.6951 30.3488 42.6951H29.6162V36.3025Z" fill="#236BFD"/>
<path d="M40.4815 39.946V38.7815H36.9535V36.3205H41.0441V35.1261H35.5412V43.8655H41.0734V42.6771H36.9535V39.946H40.4815Z" fill="#236BFD"/>
<path d="M48.4342 41.1765H47.0218C46.9983 41.4406 46.9476 41.6747 46.8694 41.8788C46.7913 42.0828 46.6877 42.2529 46.5588 42.389C46.426 42.529 46.2658 42.6351 46.0783 42.7071C45.8907 42.7791 45.6758 42.8151 45.4336 42.8151C45.2304 42.8151 45.0488 42.7871 44.8886 42.7311C44.7323 42.6711 44.5936 42.585 44.4725 42.473C44.3553 42.3689 44.2537 42.2449 44.1677 42.1008C44.0857 41.9568 44.0173 41.7967 43.9626 41.6206C43.8923 41.4086 43.8396 41.1745 43.8044 40.9184C43.7731 40.6623 43.7575 40.3882 43.7575 40.096V38.8896C43.7575 38.6535 43.7692 38.4234 43.7927 38.1993C43.82 37.9712 43.8591 37.7571 43.9099 37.557C43.9763 37.3289 44.0603 37.1228 44.1619 36.9388C44.2674 36.7507 44.3983 36.5986 44.5545 36.4826C44.6678 36.3866 44.7968 36.3125 44.9413 36.2605C45.0898 36.2085 45.2558 36.1825 45.4395 36.1825C45.7012 36.1825 45.9259 36.2225 46.1134 36.3025C46.3009 36.3786 46.4592 36.4906 46.5881 36.6387C46.7131 36.7867 46.8108 36.9668 46.8811 37.1789C46.9554 37.387 47.0042 37.621 47.0276 37.8812H48.4342C48.3912 37.445 48.2955 37.0488 48.147 36.6927C48.0024 36.3365 47.8032 36.0324 47.5492 35.7803C47.2992 35.5322 46.9964 35.3401 46.6409 35.2041C46.2892 35.068 45.8888 35 45.4395 35C45.1074 35 44.8007 35.046 44.5194 35.1381C44.242 35.2301 43.988 35.3581 43.7575 35.5222C43.5153 35.7023 43.3004 35.9204 43.1129 36.1765C42.9292 36.4286 42.7788 36.7107 42.6616 37.0228C42.5522 37.3029 42.4702 37.601 42.4155 37.9172C42.3608 38.2333 42.3334 38.5614 42.3334 38.9016V40.096C42.3334 40.4522 42.3608 40.7943 42.4155 41.1224C42.4741 41.4506 42.56 41.7547 42.6733 42.0348C42.7866 42.3189 42.9253 42.581 43.0894 42.8211C43.2574 43.0572 43.4528 43.2593 43.6755 43.4274C43.906 43.6074 44.1677 43.7475 44.4608 43.8475C44.7577 43.9436 45.082 43.9916 45.4336 43.9916C45.8634 43.9916 46.2541 43.9256 46.6057 43.7935C46.9612 43.6575 47.2679 43.4654 47.5258 43.2173C47.7797 42.9732 47.9849 42.6791 48.1411 42.3349C48.2974 41.9868 48.3951 41.6006 48.4342 41.1765Z" fill="#236BFD"/>
<path d="M54.8982 39.946V38.7815H51.3702V36.3205H55.4608V35.1261H49.9579V43.8655H55.4901V42.6771H51.3702V39.946H54.8982Z" fill="#236BFD"/>
<path d="M58.602 40.5342H60.0496C60.4793 40.5342 60.8739 40.4702 61.2334 40.3421C61.5967 40.2141 61.9093 40.032 62.1711 39.7959C62.4328 39.5638 62.636 39.2857 62.7805 38.9616C62.9251 38.6335 62.9974 38.2673 62.9974 37.8631C62.9974 37.443 62.9251 37.0648 62.7805 36.7287C62.636 36.3926 62.4328 36.1064 62.1711 35.8703C61.9093 35.6343 61.5967 35.4522 61.2334 35.3241C60.8739 35.1961 60.4793 35.1301 60.0496 35.1261H57.1955V43.8655H58.602V40.5342ZM58.602 39.3577V36.3025H60.0496C60.2879 36.3065 60.5008 36.3465 60.6884 36.4226C60.8798 36.4986 61.0419 36.6066 61.1748 36.7467C61.3076 36.8868 61.4072 37.0528 61.4737 37.2449C61.544 37.433 61.5791 37.6431 61.5791 37.8751C61.5791 38.0872 61.544 38.2833 61.4737 38.4634C61.4072 38.6435 61.3076 38.7995 61.1748 38.9316C61.0419 39.0636 60.8798 39.1677 60.6884 39.2437C60.5008 39.3157 60.2879 39.3537 60.0496 39.3577H58.602Z" fill="#236BFD"/>
<path d="M70.3522 36.3205V35.1261H63.7065V36.3205H66.3203V43.8655H67.7209V36.3205H70.3522Z" fill="#236BFD"/>
<path d="M71.7177 35.1261V36.3205H73.4993V42.6771H71.7177V43.8655H76.746V42.6771H74.9234V36.3205H76.746V35.1261H71.7177Z" fill="#236BFD"/>
<path d="M84.4994 40.078V38.9256C84.4994 38.5614 84.4681 38.2113 84.4056 37.8751C84.3431 37.535 84.2493 37.2169 84.1243 36.9208C84.011 36.6447 83.8704 36.3906 83.7024 36.1585C83.5344 35.9264 83.3371 35.7243 83.1105 35.5522C82.8838 35.3802 82.6279 35.2461 82.3427 35.1501C82.0575 35.054 81.745 35.006 81.4051 35.006C81.0691 35.006 80.7604 35.054 80.4791 35.1501C80.2017 35.2421 79.9536 35.3741 79.7348 35.5462C79.5082 35.7223 79.3109 35.9304 79.1429 36.1705C78.9788 36.4066 78.8401 36.6667 78.7268 36.9508C78.6096 37.2469 78.5217 37.561 78.4631 37.8932C78.4045 38.2253 78.3752 38.5694 78.3752 38.9256V40.078C78.3752 40.4182 78.4025 40.7503 78.4573 41.0744C78.5119 41.3946 78.594 41.6967 78.7034 41.9808C78.8167 42.2769 78.9573 42.549 79.1253 42.7971C79.2972 43.0452 79.4965 43.2573 79.7231 43.4334C79.9458 43.6054 80.1978 43.7415 80.4791 43.8415C80.7643 43.9376 81.0769 43.9856 81.4168 43.9856C81.745 43.9856 82.0458 43.9396 82.3193 43.8475C82.5967 43.7555 82.8487 43.6295 83.0753 43.4694C83.3097 43.2933 83.5168 43.0832 83.6965 42.8391C83.8762 42.591 84.0266 42.3209 84.1478 42.0288C84.2611 41.7367 84.347 41.4266 84.4056 41.0984C84.4681 40.7703 84.4994 40.4302 84.4994 40.078ZM83.0811 38.9136V40.078C83.0772 40.2941 83.0636 40.5082 83.0401 40.7203C83.0206 40.9284 82.9874 41.1285 82.9405 41.3205C82.8858 41.5406 82.8116 41.7427 82.7178 41.9268C82.6279 42.1068 82.5146 42.2629 82.3779 42.395C82.2607 42.511 82.12 42.603 81.9559 42.6711C81.7958 42.7391 81.616 42.7731 81.4168 42.7731C81.2097 42.7731 81.0261 42.7391 80.8659 42.6711C80.7096 42.599 80.5709 42.503 80.4498 42.383C80.3248 42.2549 80.2173 42.0988 80.1275 41.9148C80.0415 41.7267 79.9732 41.5246 79.9224 41.3085C79.8755 41.1164 79.8423 40.9164 79.8227 40.7083C79.8032 40.5002 79.7934 40.2901 79.7934 40.078V38.9136C79.7934 38.6975 79.8032 38.4834 79.8227 38.2713C79.8462 38.0552 79.8813 37.8511 79.9282 37.6591C79.979 37.435 80.0513 37.2329 80.1451 37.0528C80.2388 36.8687 80.3541 36.7107 80.4908 36.5786C80.6041 36.4706 80.737 36.3866 80.8893 36.3265C81.0417 36.2625 81.2136 36.2305 81.4051 36.2305C81.6043 36.2305 81.7821 36.2625 81.9384 36.3265C82.0946 36.3906 82.2333 36.4786 82.3545 36.5906C82.4912 36.7187 82.6065 36.8747 82.7002 37.0588C82.7979 37.2389 82.876 37.439 82.9346 37.6591C82.9854 37.8511 83.0206 38.0532 83.0401 38.2653C83.0636 38.4774 83.0772 38.6935 83.0811 38.9136Z" fill="#236BFD"/>
<path d="M91.4323 43.8655V35.1261H90.0141L90.0023 41.1164L87.2479 35.1261H85.818V43.8655H87.2421L87.2479 37.8511L90.0199 43.8655H91.4323Z" fill="#236BFD"/>
<path d="M98.5 45V43.8655H93.1435V45H98.5Z" fill="#236BFD"/>
<defs>
<clipPath id="clip0_5894_47630">
<rect width="33" height="24" fill="white" transform="translate(41.5 3)"/>
</clipPath>
</defs>
</svg>
