<svg width="111" height="48" viewBox="0 0 111 48" fill="none" xmlns="http://www.w3.org/2000/svg">
<path d="M17.4176 25.6567L9.5 22.4833V21.0833L18.8148 25.0733V26.3333L9.5 30.3V28.9L17.4176 25.75V25.6567Z" fill="#4D8B2C"/>
<path d="M24.3543 31C23.1279 31 21.9014 30.7433 20.675 30.23V27.2667H22.0722V29.3667C22.7863 29.6 23.6247 29.7167 24.5872 29.7167C25.5652 29.7167 26.3182 29.53 26.846 29.1567C27.3894 28.7833 27.6611 28.3167 27.6611 27.7567C27.6611 27.4456 27.599 27.1811 27.4748 26.9633C27.3661 26.7456 27.1876 26.5511 26.9392 26.38C26.6908 26.2089 26.3725 26.0456 25.9844 25.89C25.5963 25.7344 25.1306 25.5711 24.5872 25.4C24.1215 25.2444 23.648 25.0733 23.1667 24.8867C22.701 24.7 22.2663 24.4744 21.8626 24.21C21.4745 23.9456 21.1563 23.6189 20.9079 23.23C20.675 22.8256 20.5586 22.3433 20.5586 21.7833C20.5586 20.7722 20.97 19.9556 21.7928 19.3333C22.6311 18.7111 23.7411 18.4 25.1228 18.4C26.3958 18.4 27.5524 18.6644 28.5925 19.1933V22.1333H27.1953V20.0567C26.6054 19.8078 25.8524 19.6833 24.9365 19.6833C24.005 19.6833 23.2909 19.8778 22.7941 20.2667C22.3128 20.64 22.0722 21.0911 22.0722 21.62C22.0722 21.9622 22.1343 22.25 22.2585 22.4833C22.3982 22.7011 22.6 22.9033 22.864 23.09C23.1279 23.2611 23.4539 23.4244 23.842 23.58C24.2301 23.72 24.6881 23.8756 25.2159 24.0467C25.6817 24.2022 26.1474 24.3733 26.6132 24.56C27.0944 24.7467 27.5213 24.9722 27.8939 25.2367C28.2821 25.4856 28.5925 25.8044 28.8254 26.1933C29.0583 26.5667 29.1747 27.0256 29.1747 27.57C29.1747 28.6589 28.7478 29.5067 27.8939 30.1133C27.0401 30.7044 25.8602 31 24.3543 31Z" fill="#4D8B2C"/>
<path d="M38.832 30.2533C37.8539 30.7511 36.7982 31 35.6649 31C34.2522 31 33.1034 30.58 32.2185 29.74C31.3491 28.9 30.9144 27.7256 30.9144 26.2167C30.9144 24.63 31.3724 23.4011 32.2883 22.53C33.2198 21.6433 34.4074 21.2 35.8512 21.2C36.8914 21.2 37.885 21.4022 38.832 21.8067V24H37.4347V22.6933C36.9845 22.5378 36.4257 22.46 35.7581 22.46C34.6869 22.46 33.8641 22.7633 33.2897 23.37C32.7153 23.9611 32.4281 24.8167 32.4281 25.9367C32.4281 27.1811 32.7153 28.1144 33.2897 28.7367C33.8641 29.3589 34.7102 29.67 35.828 29.67C36.8371 29.67 37.8384 29.3978 38.832 28.8533V30.2533Z" fill="#4D8B2C"/>
<path d="M40.6881 22.0167C41.8524 21.4722 43.0401 21.2 44.251 21.2C45.3067 21.2 46.0984 21.4411 46.6263 21.9233C47.1696 22.4056 47.4413 23.1833 47.4413 24.2567V29.7167H48.8385V31H46.1372L46.0441 29.5767H45.9742C45.1359 30.5256 44.1423 31 42.9935 31C42.062 31 41.3479 30.7667 40.8511 30.3C40.3543 29.8178 40.1059 29.1567 40.1059 28.3167C40.1059 26.2322 41.7593 25.19 45.066 25.19H46.0441V24.21C46.0441 23.65 45.8811 23.2222 45.5551 22.9267C45.2446 22.6311 44.74 22.4833 44.0414 22.4833C43.0168 22.4833 41.899 22.7556 40.6881 23.3V22.0167ZM44.8332 26.4733C42.6908 26.4733 41.6196 27.0567 41.6196 28.2233C41.6196 28.7211 41.7593 29.0944 42.0387 29.3433C42.3337 29.5922 42.7529 29.7167 43.2962 29.7167C44.2898 29.7167 45.2058 29.2422 46.0441 28.2933V26.4733H44.8332Z" fill="#4D8B2C"/>
<path d="M49.996 29.7167H51.3933V18.2833H49.996V17H52.7905V29.7167H54.1877V31H49.996V29.7167Z" fill="#4D8B2C"/>
<path d="M56.0493 22.0167C57.2136 21.4722 58.4013 21.2 59.6122 21.2C60.6678 21.2 61.4596 21.4411 61.9874 21.9233C62.5308 22.4056 62.8025 23.1833 62.8025 24.2567V29.7167H64.1997V31H61.4984L61.4053 29.5767H61.3354C60.4971 30.5256 59.5035 31 58.3547 31C57.4232 31 56.7091 30.7667 56.2123 30.3C55.7155 29.8178 55.4671 29.1567 55.4671 28.3167C55.4671 26.2322 57.1205 25.19 60.4272 25.19H61.4053V24.21C61.4053 23.65 61.2423 23.2222 60.9162 22.9267C60.6057 22.6311 60.1012 22.4833 59.4026 22.4833C58.378 22.4833 57.2602 22.7556 56.0493 23.3V22.0167ZM60.1943 26.4733C58.0519 26.4733 56.9808 27.0567 56.9808 28.2233C56.9808 28.7211 57.1205 29.0944 57.3999 29.3433C57.6949 29.5922 58.114 29.7167 58.6574 29.7167C59.651 29.7167 60.5669 29.2422 61.4053 28.2933V26.4733H60.1943Z" fill="#4D8B2C"/>
<path d="M68.1516 29.7167H69.5489V19.6833H66.7544V22.1333H65.3572V18.4H75.1377V22.1333H73.7405V19.6833H70.9461V29.7167H72.3433V31H68.1516V29.7167Z" fill="#4D8B2C"/>
<path d="M80.3006 29.7167C81.3097 29.7167 82.3033 29.3978 83.2813 28.76V30.1367C82.2722 30.7122 81.2165 31 80.1143 31C78.7171 31 77.6148 30.5644 76.8076 29.6933C76.0003 28.8067 75.5966 27.6556 75.5966 26.24C75.5966 24.6533 75.9925 23.4167 76.7843 22.53C77.5915 21.6433 78.6472 21.2 79.9513 21.2C81.0846 21.2 81.9617 21.5889 82.5827 22.3667C83.2037 23.1289 83.5142 24.1944 83.5142 25.5633V26.2867H77.1103C77.1569 27.36 77.4285 28.2 77.9253 28.8067C78.4376 29.4133 79.2294 29.7167 80.3006 29.7167ZM82.117 25.0033C82.0394 23.3233 81.2631 22.4833 79.7883 22.4833C79.0121 22.4833 78.4066 22.7089 77.9719 23.16C77.5527 23.5956 77.2888 24.21 77.1801 25.0033H82.117Z" fill="#4D8B2C"/>
<path d="M85.6032 23.8833C85.6032 23.0278 85.9525 22.3667 86.6511 21.9C87.3652 21.4333 88.2889 21.2 89.4222 21.2C90.3848 21.2 91.4016 21.3711 92.4728 21.7133V24H91.0756V22.67C90.5323 22.53 89.9423 22.46 89.3058 22.46C88.6848 22.46 88.1648 22.5611 87.7456 22.7633C87.3264 22.9656 87.1168 23.2767 87.1168 23.6967C87.1168 23.9456 87.1634 24.1556 87.2566 24.3267C87.3652 24.4822 87.5205 24.6222 87.7223 24.7467C87.9241 24.8556 88.1803 24.9644 88.4908 25.0733C88.8013 25.1822 89.1583 25.2989 89.562 25.4233C89.9501 25.5478 90.3382 25.68 90.7263 25.82C91.1144 25.96 91.4637 26.1311 91.7742 26.3333C92.0847 26.5356 92.3331 26.7922 92.5194 27.1033C92.7212 27.3989 92.8221 27.7722 92.8221 28.2233C92.8221 29.0944 92.4573 29.7789 91.7276 30.2767C90.998 30.7589 90.0355 31 88.8401 31C87.7689 31 86.7287 30.79 85.7196 30.37V28.2H87.1168V29.53C87.6912 29.67 88.3045 29.74 88.9565 29.74C89.6085 29.74 90.1597 29.6389 90.6099 29.4367C91.0756 29.2189 91.3085 28.8844 91.3085 28.4333C91.3085 27.9511 91.0989 27.6011 90.6797 27.3833C90.2761 27.1656 89.7017 26.9478 88.9565 26.73C88.5684 26.6211 88.1725 26.4967 87.7689 26.3567C87.3808 26.2167 87.0237 26.0456 86.6977 25.8433C86.3717 25.6256 86.1077 25.3611 85.9059 25.05C85.7041 24.7389 85.6032 24.35 85.6032 23.8833Z" fill="#4D8B2C"/>
<path d="M98.7069 31C97.9462 31 97.3174 30.8133 96.8207 30.44C96.3239 30.0667 96.0755 29.4911 96.0755 28.7133V22.4833H94.6783V21.2H96.0755V18.6567L97.4727 18.4V21.2H100.5V22.4833H97.4727V28.48C97.4727 28.9156 97.6124 29.2344 97.8919 29.4367C98.1713 29.6233 98.5128 29.7167 98.9165 29.7167C99.4288 29.7167 99.9566 29.5767 100.5 29.2967V30.5333C99.9256 30.8444 99.3279 31 98.7069 31Z" fill="#4D8B2C"/>
</svg>
