<svg width="111" height="48" viewBox="0 0 111 48" fill="none" xmlns="http://www.w3.org/2000/svg">
<g clip-path="url(#clip0_5916_47729)">
<path d="M33.9 30.9661H21.1C20.2164 30.9661 19.5 30.2512 19.5 29.3694V23.7806C19.5 22.8989 20.2164 22.1841 21.1 22.1841C21.9837 22.1841 22.7 22.8989 22.7 23.7806V27.7728H30.0373L19.9686 17.7255C19.3438 17.1021 19.3438 16.0912 19.9686 15.4676C20.5935 14.8441 21.6065 14.8441 22.2313 15.4676L35.0313 28.2405C35.4889 28.697 35.6258 29.3839 35.3781 29.9805C35.1305 30.577 34.5471 30.9661 33.9 30.9661ZM33.9 22.9831C33.4905 22.9831 33.081 22.8272 32.7686 22.5154L27.9686 17.7257C27.3438 17.1021 27.3438 16.0912 27.9686 15.4677C28.5935 14.8442 29.6065 14.8442 30.2313 15.4677L35.0313 20.2575C35.6561 20.881 35.6561 21.8919 35.0313 22.5154C34.7189 22.8272 34.3094 22.9831 33.9 22.9831Z" fill="#222B45"/>
</g>
<path d="M43.9198 18C44.6451 18 45.2854 18.1562 45.8407 18.4687C46.4074 18.7692 46.8494 19.1478 47.1667 19.6046V18.1623H49.1216V28.2584C49.1216 29.1719 48.9403 29.9832 48.5776 30.6923C48.215 31.4135 47.688 31.9784 46.9967 32.387C46.3167 32.7957 45.5008 33 44.5488 33C43.2795 33 42.2256 32.6815 41.3869 32.0445C40.5483 31.4195 40.0723 30.5661 39.959 29.4844H41.8799C42.0272 30.0012 42.3389 30.4159 42.8149 30.7284C43.3022 31.0529 43.8802 31.2151 44.5488 31.2151C45.3308 31.2151 45.9597 30.9627 46.4357 30.4579C46.923 29.9531 47.1667 29.22 47.1667 28.2584V26.5998C46.838 27.0685 46.3904 27.4651 45.8237 27.7897C45.2684 28.1022 44.6338 28.2584 43.9198 28.2584C43.1039 28.2584 42.3559 28.0421 41.6759 27.6094C41.0073 27.1647 40.4746 26.5517 40.078 25.7704C39.6927 24.9772 39.5 24.0817 39.5 23.0841C39.5 22.0865 39.6927 21.2031 40.078 20.4339C40.4746 19.6647 41.0073 19.0697 41.6759 18.649C42.3559 18.2163 43.1039 18 43.9198 18ZM47.1667 23.1202C47.1667 22.4351 47.0307 21.8401 46.7587 21.3353C46.498 20.8305 46.1524 20.4459 45.7217 20.1815C45.2911 19.9171 44.8264 19.7849 44.3278 19.7849C43.8292 19.7849 43.3645 19.9171 42.9339 20.1815C42.5032 20.4339 42.1519 20.8125 41.8799 21.3173C41.6192 21.8101 41.4889 22.399 41.4889 23.0841C41.4889 23.7692 41.6192 24.3702 41.8799 24.887C42.1519 25.4038 42.5032 25.8005 42.9339 26.0769C43.3758 26.3413 43.8405 26.4736 44.3278 26.4736C44.8264 26.4736 45.2911 26.3413 45.7217 26.0769C46.1524 25.8125 46.498 25.4279 46.7587 24.9231C47.0307 24.4062 47.1667 23.8053 47.1667 23.1202Z" fill="#222B45"/>
<path d="M50.3127 23.0841C50.3127 22.0865 50.5054 21.2031 50.8907 20.4339C51.2873 19.6647 51.82 19.0697 52.4886 18.649C53.1686 18.2163 53.9166 18 54.7325 18C55.4692 18 56.1095 18.1562 56.6534 18.4687C57.2087 18.7692 57.6507 19.1478 57.9794 19.6046V18.1623H59.9343V28.0962H57.9794V26.6178C57.6507 27.0865 57.2031 27.4772 56.6364 27.7897C56.0698 28.1022 55.4238 28.2584 54.6985 28.2584C53.8939 28.2584 53.1573 28.0421 52.4886 27.6094C51.82 27.1647 51.2873 26.5517 50.8907 25.7704C50.5054 24.9772 50.3127 24.0817 50.3127 23.0841ZM57.9794 23.1202C57.9794 22.4351 57.8434 21.8401 57.5714 21.3353C57.3107 20.8305 56.9651 20.4459 56.5344 20.1815C56.1038 19.9171 55.6391 19.7849 55.1405 19.7849C54.6419 19.7849 54.1772 19.9171 53.7466 20.1815C53.3159 20.4339 52.9646 20.8125 52.6926 21.3173C52.4319 21.8101 52.3016 22.399 52.3016 23.0841C52.3016 23.7692 52.4319 24.3702 52.6926 24.887C52.9646 25.4038 53.3159 25.8005 53.7466 26.0769C54.1885 26.3413 54.6532 26.4736 55.1405 26.4736C55.6391 26.4736 56.1038 26.3413 56.5344 26.0769C56.9651 25.8125 57.3107 25.4279 57.5714 24.9231C57.8434 24.4062 57.9794 23.8053 57.9794 23.1202Z" fill="#222B45"/>
<path d="M70.254 18.1623V28.0962H68.3161V26.9243C68.0101 27.3329 67.6078 27.6575 67.1092 27.8978C66.6218 28.1262 66.1005 28.2404 65.5452 28.2404C64.8086 28.2404 64.1456 28.0781 63.5563 27.7536C62.9783 27.4291 62.5193 26.9483 62.1794 26.3113C61.8507 25.6743 61.6864 24.905 61.6864 24.0036V18.1623H63.6073V23.6971C63.6073 24.5865 63.817 25.2716 64.2363 25.7524C64.6556 26.2212 65.2279 26.4555 65.9532 26.4555C66.6785 26.4555 67.2508 26.2212 67.6701 25.7524C68.1008 25.2716 68.3161 24.5865 68.3161 23.6971V18.1623H70.254Z" fill="#222B45"/>
<path d="M75.8765 18C76.6018 18 77.2421 18.1562 77.7974 18.4687C78.3641 18.7692 78.806 19.1478 79.1234 19.6046V18.1623H81.0783V28.2584C81.0783 29.1719 80.897 29.9832 80.5343 30.6923C80.1717 31.4135 79.6447 31.9784 78.9534 32.387C78.2734 32.7957 77.4574 33 76.5055 33C75.2362 33 74.1822 32.6815 73.3436 32.0445C72.505 31.4195 72.029 30.5661 71.9157 29.4844H73.8366C73.9839 30.0012 74.2956 30.4159 74.7715 30.7284C75.2589 31.0529 75.8368 31.2151 76.5055 31.2151C77.2874 31.2151 77.9164 30.9627 78.3924 30.4579C78.8797 29.9531 79.1234 29.22 79.1234 28.2584V26.5998C78.7947 27.0685 78.3471 27.4651 77.7804 27.7897C77.2251 28.1022 76.5905 28.2584 75.8765 28.2584C75.0605 28.2584 74.3126 28.0421 73.6326 27.6094C72.964 27.1647 72.4313 26.5517 72.0347 25.7704C71.6493 24.9772 71.4567 24.0817 71.4567 23.0841C71.4567 22.0865 71.6493 21.2031 72.0347 20.4339C72.4313 19.6647 72.964 19.0697 73.6326 18.649C74.3126 18.2163 75.0605 18 75.8765 18ZM79.1234 23.1202C79.1234 22.4351 78.9874 21.8401 78.7154 21.3353C78.4547 20.8305 78.1091 20.4459 77.6784 20.1815C77.2478 19.9171 76.7831 19.7849 76.2845 19.7849C75.7858 19.7849 75.3212 19.9171 74.8905 20.1815C74.4599 20.4339 74.1086 20.8125 73.8366 21.3173C73.5759 21.8101 73.4456 22.399 73.4456 23.0841C73.4456 23.7692 73.5759 24.3702 73.8366 24.887C74.1086 25.4038 74.4599 25.8005 74.8905 26.0769C75.3325 26.3413 75.7972 26.4736 76.2845 26.4736C76.7831 26.4736 77.2478 26.3413 77.6784 26.0769C78.1091 25.8125 78.4547 25.4279 78.7154 24.9231C78.9874 24.4062 79.1234 23.8053 79.1234 23.1202Z" fill="#222B45"/>
<path d="M91.5 22.8858C91.5 23.2584 91.4773 23.595 91.432 23.8954H84.2753C84.332 24.6887 84.6096 25.3257 85.1083 25.8065C85.6069 26.2873 86.2189 26.5276 86.9442 26.5276C87.9868 26.5276 88.7234 26.0649 89.1541 25.1394H91.245C90.9617 26.0529 90.446 26.8041 89.6981 27.393C88.9614 27.97 88.0435 28.2584 86.9442 28.2584C86.0489 28.2584 85.2443 28.0481 84.5303 27.6274C83.8277 27.1947 83.2723 26.5938 82.8644 25.8245C82.4677 25.0433 82.2694 24.1418 82.2694 23.1202C82.2694 22.0986 82.462 21.2031 82.8474 20.4339C83.244 19.6526 83.7937 19.0517 84.4963 18.631C85.2103 18.2103 86.0262 18 86.9442 18C87.8282 18 88.6158 18.2043 89.3071 18.613C89.9984 19.0216 90.5367 19.5986 90.922 20.3438C91.3073 21.0769 91.5 21.9243 91.5 22.8858ZM89.4771 22.2368C89.4658 21.4796 89.2108 20.8726 88.7121 20.4159C88.2135 19.9591 87.5958 19.7308 86.8592 19.7308C86.1906 19.7308 85.6182 19.9591 85.1423 20.4159C84.6663 20.8606 84.383 21.4675 84.2923 22.2368H89.4771Z" fill="#222B45"/>
<defs>
<clipPath id="clip0_5916_47729">
<rect width="16" height="16" fill="white" transform="translate(19.5 15)"/>
</clipPath>
</defs>
</svg>
