<svg width="111" height="48" viewBox="0 0 111 48" fill="none" xmlns="http://www.w3.org/2000/svg">
<path d="M93.2171 21.9456C92.0368 21.9456 91.2896 22.5191 90.7389 23.3982C90.7389 23.1688 90.8569 22.9013 90.8569 22.7101V22.3278H88.8903V31.8849H90.8569V26.3802C90.8569 24.8128 91.7222 23.8571 93.2171 23.8571H93.6104V21.9452L93.2171 21.9456Z" fill="#222B45"/>
<path d="M13.249 25.4626C12.6983 24.6215 11.9116 24.0482 10.771 24.0482C8.96148 24.0482 7.66322 25.386 7.66322 27.0682C7.66322 28.75 8.96148 30.0883 10.771 30.0883C11.9116 30.0883 12.6985 29.5529 13.249 28.7119L15.0584 29.744C14.1932 31.0438 12.5803 31.9993 10.771 31.9993C7.4275 31.9993 5.5 29.5528 5.5 27.1063C5.5 24.6599 7.46679 22.2134 10.771 22.2134C12.8163 22.2134 14.1144 23.1688 15.0584 24.4687L13.249 25.4626Z" fill="#222B45"/>
<path d="M16.7894 22.4426H18.8349V27.6414C18.8349 29.0176 19.8575 29.9734 21.1556 29.9734C22.4144 29.9734 23.4764 28.9795 23.4764 27.6416V22.4425H25.522V27.7946C25.522 30.394 23.4373 31.9613 21.1558 31.9613C18.8744 31.9613 16.7895 30.394 16.7895 27.7946L16.7894 22.4426Z" fill="#222B45"/>
<path d="M35.119 25.4626C34.5683 24.6215 33.7816 24.0482 32.641 24.0482C30.8315 24.0482 29.5332 25.386 29.5332 27.0682C29.5332 28.75 30.8315 30.0883 32.641 30.0883C33.7816 30.0883 34.5685 29.5529 35.119 28.7119L36.9284 29.744C36.0632 31.0438 34.4503 31.9993 32.641 31.9993C29.2975 31.9993 27.37 29.5528 27.37 27.1063C27.37 24.6599 29.2975 22.2134 32.641 22.2134C34.6863 22.2134 35.9844 23.1688 36.9284 24.4687L35.119 25.4626Z" fill="#222B45"/>
<path d="M38.6594 22.4426H40.7049V27.6414C40.7049 29.0176 41.7277 29.9734 43.0258 29.9734C44.2846 29.9734 45.3466 28.9795 45.3466 27.6416V22.4425H47.392V27.7946C47.392 30.394 45.3073 31.9613 43.0259 31.9613C40.7445 31.9613 38.6597 30.394 38.6597 27.7946L38.6594 22.4426Z" fill="#222B45"/>
<path d="M49.9489 25.9212C49.9489 23.5512 51.5616 22.2133 53.4499 22.2133C54.9053 22.2133 55.9279 22.9013 56.3212 23.8569H56.3607C56.7539 22.8629 57.7766 22.2131 59.2319 22.2131C61.1201 22.2131 62.7328 23.5893 62.7328 25.921V31.7318H60.6873V25.9212C60.6873 24.8127 59.9795 24.1628 59.1142 24.1628C58.1307 24.1628 57.4227 24.7364 57.4227 26.1888V31.6937H55.3772V26.1885C55.3772 24.7359 54.6692 24.1625 53.6859 24.1625C52.8203 24.1625 52.1123 24.8122 52.1123 25.9209V31.6936H49.9487L49.9489 25.9212Z" fill="#222B45"/>
<path fill-rule="evenodd" clip-rule="evenodd" d="M67.2962 19.6899H65.2511V31.7706H67.2963V30.6235H67.3354C67.8077 31.3881 69.1058 31.9997 70.4432 31.9997C72.9214 31.9997 75.3994 30.2031 75.3994 27.1065C75.3994 24.0103 72.9214 22.2135 70.4434 22.2135C69.106 22.2135 67.8077 22.825 67.3356 23.5897H67.2962V19.6899ZM67.2957 27.1063C67.2957 25.386 68.5545 24.0863 70.2458 24.0863C71.9767 24.0863 73.2355 25.3478 73.2355 27.1063C73.2355 28.8266 71.9768 30.1263 70.2459 30.1263C68.5545 30.1263 67.2957 28.8266 67.2957 27.1063Z" fill="#222B45"/>
<path fill-rule="evenodd" clip-rule="evenodd" d="M86.4136 29.7059C86.4136 29.7059 86.4137 29.7059 86.4136 29.7059V29.7059ZM81.9688 31.9612C83.6995 31.9612 85.273 31.1202 86.4136 29.7059L84.6829 28.7502C83.9749 29.6675 83.0309 30.2026 81.9296 30.2026C80.5133 30.2026 79.1368 29.1706 79.0188 27.7562H86.925V27.4121C86.925 23.8188 83.9356 22.2132 81.9688 22.2132C78.6647 22.2132 76.6979 24.6215 76.6979 27.0682C76.6979 29.5147 78.6254 31.9612 81.9688 31.9612ZM81.6932 23.9332C83.0306 23.9332 84.0927 24.698 84.5251 26.1124H78.979C79.3331 24.7362 80.3951 23.9332 81.6932 23.9332Z" fill="#222B45"/>
<path fill-rule="evenodd" clip-rule="evenodd" d="M92.75 14.2599C92.75 10.8 95.6312 8 99.1912 8C99.8908 8 100.564 8.10855 101.195 8.31043C101.281 8.33478 101.365 8.36594 101.448 8.3968C101.479 8.40802 101.509 8.4192 101.539 8.42999C101.547 8.43305 101.555 8.43608 101.563 8.43909C101.596 8.45174 101.629 8.46418 101.662 8.47779C101.791 8.52769 101.919 8.58553 102.043 8.64515C102.165 8.70316 102.283 8.76942 102.4 8.83634C104.433 10.0009 105.638 12.3999 105.485 14.7497C105.23 18.6533 101.817 21.6273 97.9619 22.1923V20.4003C94.9968 19.837 92.75 17.3058 92.75 14.2599ZM99.9099 10.5565C100.072 10.3702 100.304 10.2957 100.525 10.3177C100.892 10.3542 101.237 10.64 101.213 11.0463C101.213 11.1993 101.169 11.3952 101.09 11.5481C100.854 12.0832 100.387 12.4249 99.8362 12.5396C99.4823 12.1192 99.4037 11.5457 99.6394 11.0105L99.6528 10.9845C99.7267 10.8407 99.7986 10.7008 99.9099 10.5565ZM96.9564 11.0463C96.9564 10.6641 97.2974 10.3867 97.6568 10.3534C97.8723 10.3334 98.0971 10.406 98.2593 10.5923C98.3712 10.7009 98.4434 10.8418 98.5176 10.9865L98.5298 11.0103C98.7657 11.5455 98.6846 12.119 98.37 12.5395C97.8193 12.4248 97.3153 12.0831 97.0791 11.5479C97.0003 11.395 96.9564 11.1991 96.9564 11.0463ZM95.7293 12.1936C95.109 12.2244 94.8319 12.982 95.3481 13.3763C95.5052 13.4909 95.6579 13.5745 95.8152 13.6509C96.366 13.8803 97.0026 13.8016 97.4747 13.4957C97.3567 12.9986 96.956 12.5424 96.4053 12.313C96.2085 12.2365 96.0487 12.1936 95.852 12.1936C95.8121 12.1892 95.7779 12.191 95.7412 12.193L95.7293 12.1936ZM100.767 14.7978C101.062 14.6067 101.427 14.5046 101.788 14.5111C102.004 14.515 102.22 14.5564 102.427 14.6423L102.454 14.6555C102.602 14.7272 102.746 14.797 102.894 14.9051C103.445 15.2875 103.098 16.1381 102.39 16.1C102.193 16.1 102.033 16.0567 101.837 15.9806C101.286 15.7512 100.885 15.2948 100.767 14.7978ZM96.4171 14.5467C96.2009 14.551 95.9844 14.5921 95.778 14.6783C95.5812 14.7548 95.4289 14.8384 95.3109 14.9531C94.7994 15.3737 95.1437 16.1741 95.8517 16.1358C96.0483 16.1358 96.2476 16.0927 96.405 16.0164C96.9555 15.787 97.3462 15.3306 97.4251 14.8337C97.1301 14.6425 96.7775 14.5403 96.4171 14.5467ZM97.154 16.7091C97.3901 16.1738 97.8572 15.8321 98.4078 15.7176C98.7226 16.1764 98.8039 16.7495 98.5678 17.2464L98.5553 17.2709C98.4812 17.415 98.4091 17.5556 98.2973 17.7005C97.9038 18.1974 96.9919 17.8485 97.0312 17.1988C97.0312 17.0458 97.0755 16.8619 97.154 16.7091ZM99.8705 15.7533C99.5559 16.1739 99.4748 16.7473 99.7108 17.2824L99.7241 17.3083C99.7979 17.4522 99.8696 17.5923 99.9812 17.7004C100.414 18.1592 101.324 17.82 101.284 17.2468C101.284 17.0937 101.24 16.8978 101.161 16.7448C100.925 16.2097 100.421 15.868 99.8705 15.7533Z" fill="#00A818"/>
</svg>
