<svg width="111" height="48" viewBox="0 0 111 48" fill="none" xmlns="http://www.w3.org/2000/svg">
<path fill-rule="evenodd" clip-rule="evenodd" d="M39.5 8H71.5V40H39.5V8ZM49.1644 18.947C49.1644 19.6133 49.0102 20.1925 48.7018 20.6846C48.3934 21.1766 47.943 21.5559 47.3507 21.8224C46.7633 22.089 46.0486 22.2222 45.2066 22.2222C44.8346 22.2222 44.4699 22.1966 44.1125 22.1453C43.7601 22.0941 43.4198 22.0198 43.0919 21.9224C42.7688 21.8199 42.4604 21.6943 42.1667 21.5456V19.3314C42.6758 19.5672 43.2045 19.7799 43.7527 19.9695C44.301 20.1592 44.8443 20.254 45.3828 20.254C45.7549 20.254 46.0535 20.2028 46.2786 20.1002C46.5087 19.9977 46.6752 19.8568 46.778 19.6774C46.8808 19.498 46.9322 19.293 46.9322 19.0623C46.9322 18.7804 46.8416 18.5395 46.6605 18.3396C46.4793 18.1397 46.2297 17.9526 45.9115 17.7784C45.5982 17.6041 45.2433 17.417 44.8468 17.2171C44.5971 17.0941 44.3255 16.9455 44.0317 16.7712C43.738 16.5918 43.459 16.374 43.1947 16.1177C42.9303 15.8614 42.7125 15.5513 42.5412 15.1874C42.3747 14.8184 42.2915 14.3776 42.2915 13.865C42.2915 13.1936 42.4383 12.6195 42.7321 12.1428C43.0258 11.6661 43.4443 11.3022 43.9877 11.0511C44.5359 10.7948 45.1821 10.6667 45.9262 10.6667C46.4842 10.6667 47.0154 10.7359 47.5196 10.8743C48.0287 11.0075 48.5598 11.2023 49.113 11.4586L48.3787 13.3115C47.8843 13.1013 47.4413 12.9398 47.0496 12.8271C46.658 12.7092 46.2591 12.6503 45.8528 12.6503C45.5688 12.6503 45.3265 12.6989 45.1258 12.7963C44.9251 12.8886 44.7734 13.0219 44.6706 13.1961C44.5678 13.3653 44.5164 13.5626 44.5164 13.7881C44.5164 14.0547 44.5898 14.2802 44.7367 14.4647C44.8884 14.6441 45.1136 14.8184 45.4122 14.9875C45.7157 15.1566 46.0926 15.354 46.543 15.5795C47.0912 15.8512 47.5587 16.1356 47.9455 16.4329C48.3371 16.7251 48.6381 17.071 48.8486 17.4708C49.0591 17.8655 49.1644 18.3576 49.1644 18.947ZM55.2516 22.0685H52.9753V12.8117H50.0602V10.8281H58.1667V12.8117H55.2516V22.0685ZM68.8322 18.7147L68.7801 18.6667L54.0791 34.6277L47.5 29.2096V32.6642L54.3314 38.29L68.8322 22.5463V18.7147Z" fill="#779736"/>
</svg>
