<svg width="111" height="48" viewBox="0 0 111 48" fill="none" xmlns="http://www.w3.org/2000/svg">
<path d="M74.2805 35.8562L56.7195 45.6812C55.9657 46.1063 55.0343 46.1063 54.2805 45.6812L36.7195 35.8562C35.9634 35.431 35.5 34.6518 35.5 33.8251V14.1749C35.5 13.3248 35.9634 12.569 36.7195 12.1438L54.2805 2.31876C55.0343 1.89375 55.9657 1.89375 56.7195 2.31876L74.2805 12.1438C75.0367 12.569 75.5 13.3484 75.5 14.1749V33.8251C75.4756 34.6516 75.0122 35.431 74.2805 35.8562Z" fill="#8D6748"/>
<path fill-rule="evenodd" clip-rule="evenodd" d="M55.5002 5.16504C55.1285 5.16504 54.7565 5.25946 54.4343 5.44845L39.0151 13.928C38.3458 14.2824 37.9492 14.9673 37.9492 15.6757V32.635C37.9492 33.3673 38.3458 34.0287 39.0151 34.383L54.4343 42.8626C54.7565 43.0516 55.1283 43.146 55.5002 43.146C55.8719 43.146 56.2439 43.0516 56.5662 42.8626L71.9853 34.3829C72.6547 34.0287 73.0513 33.3437 73.0513 32.6352V15.6757C73.0513 14.9437 72.6547 14.2824 71.9853 13.928L56.5662 5.4483C56.2438 5.25946 55.872 5.16504 55.5002 5.16504ZM55.498 5.95645C55.7444 5.95645 55.9664 6.02685 56.1882 6.14434L71.5229 14.5747C71.942 14.8093 72.2131 15.2557 72.2131 15.7254V32.586C72.2131 33.0557 71.942 33.5017 71.5229 33.7365L56.1883 42.1669C55.9664 42.2842 55.7445 42.3548 55.498 42.3548C55.2541 42.3538 55.0152 42.2887 54.8076 42.1667L39.4729 33.7367C39.0537 33.5019 38.7826 33.0558 38.7826 32.5862V15.7254C38.7826 15.2557 39.0537 14.8095 39.4727 14.5745L54.8075 6.14434C55.0294 6.02685 55.2759 5.9563 55.4977 5.9563L55.498 5.95645ZM56.6608 20.9151C56.6126 20.9652 56.5644 20.9904 56.492 20.9904H53.6506C53.5784 20.9904 53.5302 20.9652 53.482 20.9151C52.2766 19.4867 52.1559 16.5542 52.1559 15.7022C52.1559 15.5517 52.2766 15.4515 52.397 15.4515H57.7458C57.8903 15.4515 57.9869 15.5769 57.9869 15.7022C57.9869 16.5793 57.8662 19.5117 56.6608 20.9151ZM53.2642 16.2428H56.8932C57.0305 16.2428 57.1681 16.3411 57.1681 16.4886C57.1681 17.1767 57.0305 19.1178 56.0959 20.1254C56.0135 20.1746 55.9585 20.1992 55.8759 20.1992H54.254C54.1714 20.1992 54.1165 20.1746 54.0615 20.1254C53.1267 19.1426 53.0168 17.1767 52.9893 16.4886C52.9893 16.3658 53.0992 16.2428 53.2642 16.2428ZM55.3607 13.3005C55.7901 14.1762 55.0876 14.6603 55.0876 14.6603V14.6601C55.1071 14.5218 55.0292 14.084 54.873 13.8766C54.4586 13.1424 54.747 12.7512 54.9947 12.4153C55.0269 12.3716 55.0584 12.3289 55.0876 12.2864C54.9901 12.4478 55.1071 12.8395 55.3607 13.3005ZM54.2539 14.6603C54.2539 14.6603 54.9644 14.3392 54.5204 13.7429C54.2666 13.4589 54.1472 13.1958 54.2386 13.0921L54.2539 13.0777C54.2483 13.0821 54.2432 13.0869 54.2386 13.0921C54.215 13.114 54.1904 13.136 54.1655 13.1583L54.1654 13.1584C53.9095 13.3871 53.6232 13.6431 54.0466 14.1557C54.1947 14.2703 54.2539 14.5686 54.2539 14.6603ZM55.5814 19.4079H54.5007C54.4575 19.4079 54.3925 19.3884 54.3709 19.3493C54.1117 19.0562 53.9386 18.6655 53.8306 18.2552C53.8306 18.2552 55.0845 18.4115 55.7976 18.1771C56.3163 18.0012 56.3379 17.8254 56.3379 17.8254C56.2515 18.3529 56.0786 18.9586 55.7111 19.3493C55.6679 19.3884 55.6247 19.4079 55.5814 19.4079ZM46.1124 26.5057V21.7817H45.1879L43.6635 24.002L42.1391 21.7817H41.2144V26.5293H42.089V23.1516L43.6384 25.3483H43.6633L45.2378 23.128V26.5057H46.1124ZM50.2057 21.7817C50.5572 21.7817 50.8852 21.8506 51.1899 21.9652C51.4945 22.0798 51.7523 22.2633 51.9632 22.4699C52.1742 22.6762 52.3381 22.9285 52.4552 23.2266C52.5723 23.5019 52.6429 23.8228 52.6429 24.144V24.1669C52.6429 24.4879 52.5724 24.7862 52.4553 25.0845C52.3365 25.3677 52.1612 25.6249 51.9397 25.8411C51.7289 26.0476 51.4711 26.2311 51.1665 26.3457C50.8618 26.4833 50.5338 26.5293 50.1822 26.5293C49.8307 26.5293 49.5025 26.4604 49.1978 26.3457C48.8933 26.2311 48.6356 26.0476 48.4247 25.8411C48.2137 25.6347 48.0496 25.3826 47.9325 25.0843C47.8154 24.8091 47.7449 24.4879 47.7449 24.1669V24.144C47.7449 23.8228 47.8154 23.5248 47.9325 23.2266C48.0513 22.9433 48.2266 22.686 48.4481 22.4698C48.659 22.2633 48.9166 22.08 49.2214 21.9654C49.5261 21.8275 49.8541 21.7817 50.2057 21.7817ZM51.8275 24.1887C51.8275 24.3879 51.7788 24.5872 51.7056 24.7864L51.7053 24.7869C51.608 24.9637 51.5106 25.1406 51.3645 25.2733C51.2148 25.4084 51.042 25.5205 50.8528 25.6052C50.6576 25.6938 50.4385 25.7381 50.1948 25.7381C49.9756 25.7381 49.7319 25.6938 49.5369 25.6052C49.3477 25.5205 49.1749 25.4084 49.0252 25.2734C48.8789 25.1183 48.7572 24.9633 48.684 24.7644C48.6109 24.565 48.5622 24.366 48.5622 24.1445V24.1224C48.5622 23.9231 48.6109 23.7239 48.684 23.5247L48.6843 23.5241C48.7817 23.3472 48.8791 23.1705 49.0252 23.0378C49.1749 22.9027 49.3477 22.7905 49.5369 22.7057C49.7319 22.6172 49.9511 22.573 50.1948 22.573C50.4383 22.573 50.6578 22.6172 50.8528 22.7057C51.042 22.7905 51.2148 22.9027 51.3645 23.0378C51.5108 23.1928 51.6325 23.3476 51.7056 23.5468C51.7788 23.746 51.8273 23.9453 51.8273 24.1666V24.1887H51.8275ZM55.5243 22.9972C55.3906 23.1347 55.3013 23.3183 55.2121 23.5018C55.1452 23.7082 55.1005 23.9146 55.1005 24.1211V24.144C55.1005 24.3733 55.1452 24.5798 55.2121 24.786C55.279 24.9925 55.3906 25.1531 55.5243 25.3138C55.6582 25.4512 55.8143 25.5888 55.9927 25.6576C56.1711 25.7264 56.3719 25.7953 56.5726 25.7953C56.8403 25.7953 57.0856 25.7494 57.2641 25.6347C57.4425 25.5201 57.6433 25.3826 57.844 25.1989L58.357 25.7264C58.2536 25.854 58.1503 25.9422 58.0291 26.0456L58 26.0705C57.8663 26.1851 57.7324 26.254 57.5985 26.3227C57.4648 26.3915 57.2863 26.4604 57.1302 26.4833C56.9294 26.5293 56.7288 26.5293 56.5281 26.5293C56.2217 26.5306 55.9182 26.4681 55.6359 26.3457C55.3683 26.2311 55.1229 26.0475 54.9222 25.8411C54.7214 25.6347 54.5653 25.3826 54.4538 25.0843C54.3422 24.786 54.2753 24.4879 54.2753 24.1669V24.144C54.2763 23.8292 54.3369 23.5175 54.4538 23.2266C54.5669 22.9487 54.7253 22.6928 54.9222 22.4698C55.1229 22.2633 55.3683 22.0798 55.6582 21.9651C55.9481 21.8505 56.238 21.7817 56.5949 21.7817C56.7957 21.7817 56.9741 21.8046 57.1525 21.8275C57.2723 21.8583 57.372 21.8891 57.4719 21.9199L57.4721 21.92L57.4721 21.92C57.5209 21.9351 57.5697 21.9501 57.621 21.9652L57.6219 21.9657L57.6219 21.9657C57.7553 22.0343 57.8888 22.1029 58 22.1944C58.1116 22.2863 58.2231 22.3781 58.3347 22.4927L57.8216 23.0889C57.6433 22.9285 57.4648 22.7908 57.2641 22.676C57.0633 22.5614 56.8403 22.5156 56.5726 22.5156C56.3496 22.5156 56.1711 22.5614 55.9927 22.6531C55.8195 22.7411 55.6613 22.8573 55.5243 22.9972ZM59.9885 21.7819V26.5293H60.849V24.5354H63.2096V26.5293H64.0701V21.7817H63.2096V23.7521H60.849V21.7817H59.9885V21.7819ZM70.5996 26.5293H69.7284L69.2574 25.3954H67.0438L66.5494 26.5292H65.7016L67.7738 21.7817H68.5274L70.5996 26.5293ZM67.3362 24.1555L68.1526 22.573L68.9689 24.1555H67.3362ZM71.3789 28.9032H39.6199V28.1119H71.3789V28.9032ZM58.0217 19.0119V19.0119C58.0155 19.1379 58.0093 19.2639 58.0093 19.4079H71.3815V18.6166H58.0341C58.0341 18.7602 58.0279 18.886 58.0217 19.0119ZM39.6199 18.6166H52.1317C52.1317 18.7606 52.1378 18.8866 52.144 19.0126C52.1502 19.1384 52.1563 19.2642 52.1563 19.4079H39.6199V18.6166Z" fill="white"/>
</svg>
