<svg width="111" height="48" viewBox="0 0 111 48" fill="none" xmlns="http://www.w3.org/2000/svg">
<path fill-rule="evenodd" clip-rule="evenodd" d="M27.7202 12.2857L32.1913 16.7288L33.6951 29.7761L26.5676 36.8585L22.23 36.4813L11.6713 25.9895L14.2821 19.4155L21.9707 11.7753L27.7202 12.2857Z" fill="#FFFFFE"/>
<path fill-rule="evenodd" clip-rule="evenodd" d="M24.7851 12.377C25.9755 12.377 27.0811 12.4876 28.1499 12.71L26.009 10.5825C25.2253 9.80583 23.9558 9.80583 23.1735 10.5825L20.1864 13.5507C21.5637 12.7817 23.205 12.377 24.7851 12.377Z" fill="#363C3B"/>
<path fill-rule="evenodd" clip-rule="evenodd" d="M17.7946 30.6391C17.8914 30.317 18.0533 30.0278 18.4741 30.0278C18.6359 30.0278 18.7978 30.0607 19.0246 30.1572C20.6093 30.7684 22.4216 31.1531 24.0717 31.1531C25.4309 31.1531 27.1453 30.4467 27.1453 28.8704C27.1453 27.6486 26.1747 27.0374 25.1712 26.5877L20.8365 24.5953C18.4419 23.5015 16.8562 21.508 16.8562 18.8068C16.8562 17.8579 17.0784 17.006 17.4636 16.2551L11.0872 22.5912C10.3043 23.3693 10.3043 24.6314 11.0872 25.4084L17.4339 31.7148L17.7946 30.6391Z" fill="#363C3B"/>
<path fill-rule="evenodd" clip-rule="evenodd" d="M38.0919 22.5912L31.3411 15.8824L30.7369 17.3927C30.5758 17.8112 30.3818 17.9707 30.0899 17.9707C29.9281 17.9707 29.7345 17.9067 29.5076 17.8112C28.1812 17.2315 26.4343 16.7814 25.1072 16.7814C23.8133 16.7814 22.3572 17.2644 22.3572 18.7753C22.3572 19.8033 23.6511 20.4471 24.4602 20.8002L28.1812 22.472C30.7369 23.6298 32.387 25.3659 32.387 28.292C32.387 29.7722 32.0054 31.0541 31.3432 32.115L38.0919 25.4084C38.8746 24.6313 38.8746 23.3693 38.0919 22.5912Z" fill="#363C3B"/>
<path fill-rule="evenodd" clip-rule="evenodd" d="M21.1 35.3582L23.1713 37.4167C23.9535 38.1945 25.2231 38.1945 26.0068 37.4167L29.1518 34.2913C27.7752 35.1602 26.0654 35.623 24.2327 35.623C23.2564 35.623 22.1812 35.5293 21.1 35.3582Z" fill="#363C3B"/>
<path fill-rule="evenodd" clip-rule="evenodd" d="M49.5541 29.0132C48.4517 29.0132 47.1115 28.7926 46.0091 28.4027C45.7381 28.3175 45.6529 28.1987 45.6529 28.046C45.6529 27.9612 45.6868 27.8593 45.7211 27.7575L46.179 26.3831C46.2296 26.213 46.3144 26.0606 46.5349 26.0606C46.62 26.0606 46.7048 26.0773 46.8235 26.1282C47.6542 26.4506 48.6043 26.6542 49.4693 26.6542C50.182 26.6542 51.0809 26.2812 51.0809 25.4494C51.0809 24.8046 50.5717 24.4822 50.0463 24.2446L47.7733 23.1926C46.5182 22.6156 45.6868 21.5632 45.6868 20.1378C45.6868 17.9658 47.8581 16.7437 49.8428 16.7437C51.0639 16.7437 52.1155 16.9643 53.1839 17.4224C53.4553 17.5412 53.5571 17.66 53.5571 17.8127C53.5571 17.8806 53.5235 17.9658 53.4892 18.0676L52.9635 19.3912C52.879 19.6118 52.7769 19.6966 52.6243 19.6966C52.5395 19.6966 52.438 19.6627 52.319 19.6118C51.6236 19.3063 50.7078 19.0688 50.012 19.0688C49.3336 19.0688 48.5704 19.3233 48.5704 20.1208C48.5704 20.6638 49.2488 21.0032 49.6728 21.1899L51.6236 22.0726C52.9635 22.6835 53.8284 23.5998 53.8284 25.144C53.8284 27.5878 51.878 29.0132 49.5541 29.0132Z" fill="#363C3B"/>
<path fill-rule="evenodd" clip-rule="evenodd" d="M58.9503 22.2759C57.6953 22.2759 57.2882 23.3623 57.2882 24.601C57.2882 25.8567 57.6444 26.9939 58.8998 26.9939C60.1545 26.9939 60.5619 25.8736 60.5619 24.6349C60.5619 23.3792 60.2057 22.2759 58.9503 22.2759ZM58.8668 28.9963C56.0005 28.9963 54.6607 27.1467 54.6607 24.618C54.6607 22.1235 56.238 20.2736 58.9859 20.2736C61.8521 20.2736 63.192 22.1235 63.192 24.6519C63.192 27.1467 61.6147 28.9963 58.8668 28.9963Z" fill="#363C3B"/>
<path fill-rule="evenodd" clip-rule="evenodd" d="M69.4473 22.955C69.1421 22.6835 68.5824 22.3781 68.0736 22.3781C67.2425 22.3781 66.4624 23.0568 66.4624 24.6349C66.4624 25.687 66.7334 26.943 68.0227 26.943C68.6333 26.943 69.2438 26.4849 69.4473 26.23V22.955ZM72.7375 28.3854C72.7375 28.6399 72.5676 28.7757 72.3301 28.7757H71.4313C70.4302 28.7757 70.0236 28.4872 69.8031 27.9951H69.7688C69.3109 28.5215 68.2254 28.9963 67.3944 28.9963C64.9518 28.9963 63.8154 27.0615 63.8154 24.8046C63.8154 21.8011 65.6814 20.2736 67.547 20.2736C68.4971 20.2736 69.2604 20.7148 69.6165 21.2238L69.667 20.8505C69.684 20.6639 69.837 20.5111 70.0575 20.5111H71.5839C71.8213 20.5111 71.9909 20.6469 71.9909 20.9184V26.7734C71.9909 26.9431 72.0588 27.0615 72.2453 27.0615H72.381C72.6185 27.0615 72.7375 27.1467 72.7375 27.4012V28.3854Z" fill="#363C3B"/>
<path fill-rule="evenodd" clip-rule="evenodd" d="M78.8586 22.9719C78.5699 22.5307 78.129 22.361 77.671 22.361C77.1792 22.361 76.5517 22.6834 76.2803 22.9719V26.4335C76.5856 26.7223 77.1283 26.9765 77.6202 26.9765C78.112 26.9765 78.5364 26.7223 78.7568 26.4165C79.096 25.9584 79.2483 25.4323 79.2483 24.6518C79.2483 23.8882 79.096 23.3282 78.8586 22.9719ZM80.8078 27.8423C80.1803 28.5889 79.2811 29.0301 78.1787 29.0301C77.4324 29.0301 76.737 28.7756 76.2791 28.3513V31.9321C76.2791 32.3224 76.0926 32.4582 75.7534 32.4582H74.2096C73.9043 32.4582 73.7347 32.2885 73.7347 31.9491V20.9865C73.7347 20.6468 73.9043 20.511 74.2266 20.511H75.5329C75.8551 20.511 76.0244 20.5959 76.0586 20.8674L76.0926 21.2071C76.5335 20.7146 77.4494 20.2904 78.3316 20.2904C79.5019 20.2904 80.2651 20.7486 80.8078 21.3255C81.5541 22.1064 81.8936 23.3282 81.8936 24.4991C81.8936 25.823 81.5202 27.0108 80.8078 27.8423Z" fill="#363C3B"/>
<path fill-rule="evenodd" clip-rule="evenodd" d="M88.2366 28.9962C84.7425 28.9962 83.1648 27.0957 83.1648 23.498V17.4394C83.1648 17.1 83.3853 16.9982 83.6909 16.9982H85.37C85.6926 16.9982 85.8618 17.0834 85.8618 17.4394V23.294C85.8618 25.9754 86.7781 26.7224 88.3553 26.7224C89.8478 26.7224 90.7637 25.9418 90.7637 23.311V17.4394C90.7637 17.1 90.9672 16.9982 91.2728 16.9982H92.9515C93.2741 16.9982 93.4437 17.0834 93.4437 17.4394V23.481C93.4437 27.299 91.4933 28.9962 88.2366 28.9962Z" fill="#363C3B"/>
<path fill-rule="evenodd" clip-rule="evenodd" d="M100.498 18.2882C100.498 18.5933 100.328 18.7294 100.074 18.7294H99.1577V27.0448H100.005C100.277 27.0448 100.413 27.2485 100.413 27.486V28.3854C100.413 28.589 100.277 28.7757 100.04 28.7757H95.6805C95.4257 28.7757 95.2565 28.589 95.2565 28.4027V27.486C95.2565 27.1806 95.4257 27.0448 95.6805 27.0448H96.4607V18.7294H95.5618C95.2904 18.7294 95.1547 18.5257 95.1547 18.2882V17.3885C95.1547 17.1852 95.2904 16.9982 95.5275 16.9982H100.074C100.328 16.9982 100.498 17.1852 100.498 17.3715V18.2882Z" fill="#363C3B"/>
</svg>
