<svg width="29" height="28" viewBox="0 0 29 28" fill="none" xmlns="http://www.w3.org/2000/svg">
<g clip-path="url(#clip0_3529_72534)">
<path d="M10.741 15.268C10.545 15.0601 10.209 15.2012 10.209 15.4981H10.202V17.6585C10.202 17.7996 10.083 17.9406 9.901 17.9406H8.725C8.585 17.9406 8.417 17.8812 8.417 17.6659V8.26726C8.417 8.14105 8.515 8 8.718 8H9.894C10.027 8 10.195 8.08166 10.195 8.29696V12.536C10.195 12.8404 10.545 12.9889 10.741 12.7661C11.2908 12.143 12.1022 11.2161 12.4494 10.8194L12.4502 10.8184L12.4506 10.8181C12.5535 10.7004 12.6154 10.6298 12.617 10.6281C12.638 10.5984 12.673 10.5687 12.757 10.539C12.799 10.5241 12.841 10.5241 12.897 10.5241H14.339C14.633 10.5241 14.717 10.8656 14.584 11.0438L12.498 13.516C12.155 13.902 12.12 14.0505 12.421 14.4291L12.561 14.5776L15.193 17.4358C15.326 17.614 15.242 17.9629 14.955 17.9629H13.366C13.303 17.9629 13.247 17.9629 13.212 17.948C13.141 17.9229 13.115 17.8925 13.096 17.8703C13.0939 17.8679 13.0919 17.8655 13.09 17.8633C13.0886 17.8618 13.0873 17.8603 13.086 17.8589C13.0853 17.8582 13.0715 17.8427 13.0461 17.8144C12.8062 17.5459 11.5388 16.1275 10.741 15.268Z" fill="#007DC1"/>
<path fill-rule="evenodd" clip-rule="evenodd" d="M0.5 14.2435C0.5 12.1797 2.075 10.5093 4.021 10.5093C5.967 10.5093 7.542 12.1797 7.542 14.2435C7.542 16.3073 5.967 17.9777 4.021 17.9777C2.075 17.9777 0.5 16.3073 0.5 14.2435ZM2.257 14.2435C2.257 15.2754 3.048 16.1143 4.021 16.1143C4.994 16.1143 5.785 15.2754 5.785 14.2435C5.785 13.2116 4.994 12.3727 4.021 12.3727C3.048 12.3727 2.257 13.2116 2.257 14.2435Z" fill="#007DC1"/>
<path d="M19.813 17.6214L19.687 16.3742C19.673 16.2034 19.519 16.0846 19.358 16.1143C19.267 16.1292 19.176 16.1366 19.085 16.1366C18.147 16.1366 17.384 15.3571 17.328 14.3697V12.7365C17.328 12.536 17.468 12.3727 17.657 12.3727H19.232C19.344 12.3727 19.512 12.2687 19.512 12.0535V10.8731C19.512 10.6429 19.372 10.5241 19.246 10.5241H17.657C17.475 10.5241 17.328 10.3831 17.321 10.1901V8.29696C17.321 8.17817 17.237 8 17.02 8H15.851C15.704 8 15.564 8.09651 15.564 8.28953V14.3697C15.613 16.389 17.174 18 19.085 18C19.246 18 19.4 17.9852 19.554 17.9629C19.722 17.9406 19.834 17.7921 19.813 17.6214Z" fill="#007DC1"/>
<path fill-rule="evenodd" clip-rule="evenodd" d="M27.149 14.2583C27.149 15.6763 27.303 16.0549 28.297 16.0549C28.416 16.0549 28.5 16.1811 28.5 16.2925V17.6214C28.5 17.9788 27.8264 17.9723 27.6331 17.9705C27.6216 17.9704 27.6118 17.9703 27.604 17.9703C26.771 17.9629 26.239 17.6065 25.91 17.072C25.294 17.6288 24.496 17.9703 23.621 17.9703C21.675 17.9703 20.1 16.2999 20.1 14.2361C20.1 12.1722 21.675 10.5019 23.621 10.5019C24.251 10.5019 24.846 10.68 25.357 10.9918V10.8359C25.357 10.6429 25.518 10.5167 25.665 10.5167H26.841C27.065 10.5167 27.149 10.7171 27.149 10.8359V14.2583ZM21.864 14.2435C21.864 15.2754 22.655 16.1143 23.628 16.1143C24.594 16.1143 25.385 15.2754 25.392 14.2435C25.392 13.2116 24.601 12.3727 23.628 12.3727C22.655 12.3727 21.864 13.2116 21.864 14.2435Z" fill="#007DC1"/>
</g>
<defs>
<clipPath id="clip0_3529_72534">
<rect width="28" height="28" fill="white" transform="translate(0.5)"/>
</clipPath>
</defs>
</svg>
