<svg width="29" height="28" viewBox="0 0 29 28" fill="none" xmlns="http://www.w3.org/2000/svg">
<path d="M24.7639 2.79999H13.9771C13.9771 4.09142 14.4901 5.32996 15.4032 6.24314C16.3164 7.15632 17.555 7.66933 18.8464 7.66933H20.8335V9.58788C20.8352 12.2747 23.0128 14.4524 25.6996 14.4542V3.73575C25.6996 3.21909 25.2808 2.79999 24.7639 2.79999Z" fill="#2684FF"/>
<path d="M19.4269 8.17444H8.64014C8.6418 10.8613 10.8194 13.039 13.5063 13.0407H15.4934V14.9654C15.4968 17.6522 17.6759 19.8284 20.3627 19.8284V9.11037C20.3627 8.59354 19.9437 8.17453 19.4269 8.17453V8.17444Z" fill="url(#paint0_linear_3529_72528)"/>
<path d="M14.0866 13.546H3.2998C3.2998 16.2353 5.47996 18.4154 8.16915 18.4154H10.1624V20.3338C10.1642 23.0182 12.338 25.1949 15.0225 25.2V14.4819C15.0225 13.965 14.6035 13.546 14.0866 13.546Z" fill="url(#paint1_linear_3529_72528)"/>
<defs>
<linearGradient id="paint0_linear_3529_72528" x1="20.1319" y1="8.1932" x2="15.5713" y2="12.9521" gradientUnits="userSpaceOnUse">
<stop offset="0.18" stop-color="#0052CC"/>
<stop offset="1" stop-color="#2684FF"/>
</linearGradient>
<linearGradient id="paint1_linear_3529_72528" x1="15.1004" y1="13.599" x2="9.8249" y2="18.7895" gradientUnits="userSpaceOnUse">
<stop offset="0.18" stop-color="#0052CC"/>
<stop offset="1" stop-color="#2684FF"/>
</linearGradient>
</defs>
</svg>
