<svg width="111" height="48" viewBox="0 0 111 48" fill="none" xmlns="http://www.w3.org/2000/svg">
<path d="M34.7398 29.9044C33.9432 29.9044 33.2229 29.7716 32.579 29.506C31.946 29.2404 31.444 28.8579 31.073 28.3586C30.7019 27.8592 30.5109 27.2696 30.5 26.5896H32.9555C32.9882 27.0465 33.1519 27.4077 33.4466 27.6733C33.7522 27.9389 34.1669 28.0717 34.6907 28.0717C35.2255 28.0717 35.6456 27.9495 35.9512 27.7052C36.2568 27.4502 36.4096 27.1209 36.4096 26.7171C36.4096 26.3878 36.3059 26.1169 36.0985 25.9044C35.8912 25.6919 35.6293 25.5272 35.3128 25.4104C35.0072 25.2829 34.5816 25.1448 34.0359 24.996C33.2938 24.7835 32.6881 24.5764 32.2189 24.3745C31.7605 24.162 31.3622 23.8486 31.0238 23.4343C30.6964 23.0093 30.5327 22.4462 30.5327 21.745C30.5327 21.0863 30.7019 20.5126 31.0402 20.0239C31.3785 19.5352 31.8533 19.1633 32.4644 18.9084C33.0755 18.6428 33.774 18.51 34.5598 18.51C35.7384 18.51 36.6933 18.7915 37.4245 19.3546C38.1666 19.907 38.5759 20.6826 38.6523 21.6813H36.1313C36.1095 21.2988 35.9403 20.9854 35.6238 20.741C35.3182 20.4861 34.909 20.3586 34.3961 20.3586C33.9486 20.3586 33.5885 20.4701 33.3156 20.6932C33.0537 20.9163 32.9228 21.2404 32.9228 21.6653C32.9228 21.9628 33.021 22.2125 33.2174 22.4143C33.4248 22.6056 33.6758 22.7649 33.9704 22.8924C34.276 23.0093 34.7016 23.1474 35.2473 23.3068C35.9894 23.5193 36.5951 23.7317 37.0644 23.9442C37.5336 24.1567 37.9374 24.4754 38.2758 24.9004C38.6141 25.3254 38.7832 25.8831 38.7832 26.5737C38.7832 27.1687 38.625 27.7211 38.3085 28.2311C37.992 28.741 37.5282 29.1501 36.917 29.4582C36.3059 29.7556 35.5802 29.9044 34.7398 29.9044Z" fill="#5F6578"/>
<path d="M43.0619 22.239C43.3566 21.8353 43.7604 21.5007 44.2733 21.2351C44.7972 20.9588 45.3919 20.8207 46.0576 20.8207C46.8325 20.8207 47.5309 21.0066 48.153 21.3785C48.786 21.7503 49.2825 22.2815 49.6427 22.9721C50.0137 23.6521 50.1993 24.4436 50.1993 25.3466C50.1993 26.2497 50.0137 27.0518 49.6427 27.753C49.2825 28.4436 48.786 28.9801 48.153 29.3626C47.5309 29.745 46.8325 29.9363 46.0576 29.9363C45.3919 29.9363 44.8026 29.8035 44.2897 29.5378C43.7877 29.2722 43.3784 28.9376 43.0619 28.5339V34H40.7701V20.9641H43.0619V22.239ZM47.8583 25.3466C47.8583 24.8154 47.7438 24.3586 47.5146 23.9761C47.2963 23.583 47.0016 23.2855 46.6306 23.0837C46.2705 22.8818 45.8776 22.7809 45.452 22.7809C45.0372 22.7809 44.6444 22.8871 44.2733 23.0996C43.9132 23.3015 43.6185 23.5989 43.3893 23.992C43.1711 24.3851 43.0619 24.8473 43.0619 25.3785C43.0619 25.9097 43.1711 26.3718 43.3893 26.7649C43.6185 27.158 43.9132 27.4608 44.2733 27.6733C44.6444 27.8752 45.0372 27.9761 45.452 27.9761C45.8776 27.9761 46.2705 27.8699 46.6306 27.6574C47.0016 27.4449 47.2963 27.1421 47.5146 26.749C47.7438 26.3559 47.8583 25.8884 47.8583 25.3466Z" fill="#5F6578"/>
<path d="M55.8917 29.9363C55.0186 29.9363 54.2328 29.7503 53.5344 29.3785C52.8359 28.996 52.2848 28.4595 51.881 27.7689C51.4881 27.0784 51.2917 26.2815 51.2917 25.3785C51.2917 24.4754 51.4936 23.6786 51.8974 22.988C52.3121 22.2975 52.8741 21.7663 53.5835 21.3944C54.2929 21.012 55.0841 20.8207 55.9571 20.8207C56.8302 20.8207 57.6214 21.012 58.3308 21.3944C59.0402 21.7663 59.5967 22.2975 60.0005 22.988C60.4152 23.6786 60.6226 24.4754 60.6226 25.3785C60.6226 26.2815 60.4098 27.0784 59.9842 27.7689C59.5695 28.4595 59.002 28.996 58.2817 29.3785C57.5723 29.7503 56.7756 29.9363 55.8917 29.9363ZM55.8917 27.992C56.3064 27.992 56.6938 27.8964 57.0539 27.7052C57.425 27.5033 57.7196 27.2058 57.9379 26.8127C58.1562 26.4197 58.2653 25.9416 58.2653 25.3785C58.2653 24.5392 58.0361 23.8964 57.5778 23.4502C57.1303 22.9934 56.5792 22.7649 55.9244 22.7649C55.2696 22.7649 54.7185 22.9934 54.271 23.4502C53.8345 23.8964 53.6162 24.5392 53.6162 25.3785C53.6162 26.2178 53.829 26.8659 54.2547 27.3227C54.6912 27.7689 55.2369 27.992 55.8917 27.992Z" fill="#5F6578"/>
<path d="M61.7144 25.3785C61.7144 24.4648 61.9054 23.668 62.2873 22.988C62.6693 22.2975 63.1986 21.7663 63.8752 21.3944C64.5519 21.012 65.3267 20.8207 66.1998 20.8207C67.3238 20.8207 68.2515 21.0969 68.9827 21.6494C69.7248 22.1912 70.2213 22.9562 70.4723 23.9442H68.0005C67.8695 23.5618 67.6458 23.2643 67.3293 23.0518C67.0237 22.8287 66.6418 22.7171 66.1834 22.7171C65.5286 22.7171 65.0102 22.9509 64.6283 23.4183C64.2463 23.8752 64.0553 24.5286 64.0553 25.3785C64.0553 26.2178 64.2463 26.8712 64.6283 27.3386C65.0102 27.7955 65.5286 28.0239 66.1834 28.0239C67.111 28.0239 67.7167 27.6202 68.0005 26.8127H70.4723C70.2213 27.7689 69.7248 28.5286 68.9827 29.0916C68.2406 29.6547 67.3129 29.9363 66.1998 29.9363C65.3267 29.9363 64.5519 29.7503 63.8752 29.3785C63.1986 28.996 62.6693 28.4648 62.2873 27.7849C61.9054 27.0943 61.7144 26.2922 61.7144 25.3785Z" fill="#5F6578"/>
<path d="M77.5207 29.7928L74.4431 26.0319V29.7928H72.1513V18H74.4431V24.7092L77.4879 20.9641H80.4673L76.473 25.3944L80.5 29.7928H77.5207Z" fill="#5F6578"/>
</svg>
