<svg width="111" height="48" viewBox="0 0 111 48" fill="none" xmlns="http://www.w3.org/2000/svg">
<path d="M13.9675 30.8864C13.8269 31.0071 13.6557 31.0864 13.473 31.1152C13.2903 31.144 13.1032 31.1214 12.9325 31.0497L11.115 30.2832C10.9337 30.2071 10.7787 30.0791 10.6693 29.9151C10.56 29.7511 10.5011 29.5583 10.5 29.3608V18.6392C10.5011 18.4418 10.56 18.249 10.6693 18.085C10.7787 17.9209 10.9337 17.7929 11.115 17.7169L12.9325 16.9629C13.1032 16.8912 13.2903 16.8686 13.473 16.8974C13.6557 16.9263 13.8269 17.0055 13.9675 17.1263L14.375 17.4656C14.2924 17.4058 14.1949 17.3702 14.0934 17.3626C13.9919 17.3551 13.8903 17.3758 13.7998 17.4226C13.7093 17.4694 13.6334 17.5404 13.5805 17.6278C13.5276 17.7152 13.4997 17.8156 13.5 17.9179V30.0821C13.4997 30.1844 13.5276 30.2848 13.5805 30.3722C13.6334 30.4596 13.7093 30.5307 13.7998 30.5774C13.8903 30.6242 13.9919 30.645 14.0934 30.6374C14.1949 30.6298 14.2924 30.5942 14.375 30.5345L13.9675 30.8864Z" fill="#52218A"/>
<path d="M11.115 30.2831C10.9337 30.2071 10.7787 30.0791 10.6693 29.9151C10.56 29.751 10.5011 29.5583 10.5 29.3608V29.2778C10.5012 29.3939 10.537 29.5069 10.6028 29.6023C10.6685 29.6977 10.7612 29.7711 10.8688 29.813C10.9764 29.8549 11.0941 29.8635 11.2066 29.8375C11.3191 29.8116 11.4213 29.7523 11.5 29.6674L27 12.439C27.2195 12.2194 27.5012 12.0736 27.8065 12.0214C28.1118 11.9692 28.4256 12.0132 28.705 12.1475L33.65 14.5401C33.9047 14.6632 34.1196 14.8562 34.27 15.0967C34.4204 15.3373 34.5001 15.6157 34.5 15.8998V15.9576C34.4998 15.7773 34.4488 15.6008 34.3529 15.4486C34.2569 15.2963 34.1199 15.1746 33.9579 15.0975C33.7958 15.0203 33.6153 14.991 33.4374 15.0129C33.2594 15.0348 33.0913 15.1071 32.9525 15.2212L14.375 30.5345L13.9675 30.8863C13.8269 31.0071 13.6557 31.0863 13.473 31.1152C13.2903 31.144 13.1032 31.1213 12.9325 31.0497L11.115 30.2831Z" fill="#6C33AF"/>
<path d="M11.115 17.7169C10.9337 17.793 10.7787 17.921 10.6693 18.085C10.56 18.249 10.5011 18.4418 10.5 18.6393V18.7222C10.5012 18.6062 10.537 18.4932 10.6028 18.3978C10.6685 18.3024 10.7612 18.229 10.8688 18.1871C10.9764 18.1452 11.0941 18.1366 11.2066 18.1626C11.3191 18.1885 11.4213 18.2478 11.5 18.3327L27 35.5611C27.2195 35.7806 27.5012 35.9265 27.8065 35.9787C28.1118 36.0309 28.4256 35.9869 28.705 35.8526L33.65 33.46C33.9047 33.3369 34.1196 33.1439 34.27 32.9034C34.4204 32.6628 34.5001 32.3844 34.5 32.1003V32.0425C34.4998 32.2228 34.4488 32.3993 34.3529 32.5515C34.2569 32.7038 34.1199 32.8255 33.9579 32.9026C33.7958 32.9797 33.6153 33.0091 33.4374 32.9871C33.2594 32.9652 33.0913 32.893 32.9525 32.7789L14.375 17.4656L13.9675 17.1138C13.8256 16.995 13.6538 16.9181 13.4712 16.8915C13.2885 16.8649 13.1021 16.8896 12.9325 16.963L11.115 17.7169Z" fill="#854CC7"/>
<path d="M28.7011 35.8525C28.4217 35.9868 28.1079 36.0309 27.8026 35.9787C27.4973 35.9265 27.2156 35.7806 26.9961 35.561C27.1193 35.684 27.2759 35.7675 27.4463 35.8012C27.6166 35.8349 27.7931 35.8172 27.9534 35.7503C28.1138 35.6834 28.2508 35.5703 28.3474 35.4253C28.444 35.2802 28.4957 35.1097 28.4961 34.9352V13.0698C28.4967 12.8949 28.4457 12.7237 28.3495 12.5779C28.2533 12.4321 28.1163 12.3182 27.9557 12.2507C27.7952 12.1832 27.6183 12.165 27.4475 12.1985C27.2767 12.2321 27.1196 12.3158 26.9961 12.439C27.2156 12.2194 27.4973 12.0736 27.8026 12.0214C28.1079 11.9692 28.4217 12.0132 28.7011 12.1475L33.6461 14.5376C33.9008 14.6607 34.1157 14.8537 34.2661 15.0942C34.4165 15.3348 34.4962 15.6131 34.4961 15.8973V32.1027C34.4962 32.3869 34.4165 32.6652 34.2661 32.9058C34.1157 33.1464 33.9008 33.3393 33.6461 33.4624L28.7011 35.8525Z" fill="#B179F1"/>
<path d="M51.6032 17.1816L47.1567 29.827H44.9465L40.5 17.1816H42.6406L45.3207 25.1045C45.4019 25.3351 45.4889 25.6148 45.5817 25.9434C45.6803 26.2721 45.7703 26.6037 45.8515 26.9381C45.9385 27.2726 46.0052 27.5695 46.0516 27.829C46.098 27.5695 46.1618 27.2726 46.243 26.9381C46.3301 26.6037 46.42 26.2721 46.5128 25.9434C46.6056 25.6148 46.6926 25.3322 46.7738 25.0958L49.4626 17.1816H51.6032Z" fill="#6C33AF"/>
<path d="M60.618 26.3846C60.618 27.1342 60.4324 27.78 60.0611 28.322C59.6957 28.864 59.1678 29.2792 58.4774 29.5675C57.7929 29.8558 56.975 30 56.0236 30C55.5595 30 55.1157 29.9741 54.6923 29.9222C54.2688 29.8703 53.8685 29.7953 53.4914 29.6973C53.1202 29.5935 52.7808 29.4695 52.4734 29.3253V27.3706C52.9897 27.5955 53.5669 27.8002 54.205 27.9847C54.8431 28.1635 55.4928 28.2528 56.1541 28.2528C56.6936 28.2528 57.1403 28.1836 57.4942 28.0452C57.8538 27.9011 58.1207 27.6993 58.2947 27.4398C58.4687 27.1745 58.5558 26.866 58.5558 26.5143C58.5558 26.1395 58.4542 25.8224 58.2512 25.5629C58.0482 25.3034 57.7407 25.067 57.3288 24.8536C56.9228 24.6345 56.4123 24.401 55.7974 24.153C55.3797 23.9858 54.9794 23.7955 54.5965 23.5822C54.2195 23.3688 53.883 23.118 53.5872 22.8297C53.2913 22.5414 53.0564 22.2012 52.8823 21.809C52.7141 21.4112 52.63 20.9441 52.63 20.4079C52.63 19.6928 52.8011 19.0816 53.1434 18.5742C53.4914 18.0668 53.9787 17.6775 54.6052 17.4065C55.2376 17.1355 55.9743 17 56.8154 17C57.4826 17 58.1091 17.0692 58.695 17.2076C59.2867 17.346 59.8668 17.542 60.4353 17.7957L59.774 19.4651C59.2519 19.2517 58.7443 19.0816 58.2512 18.9548C57.7639 18.8279 57.265 18.7645 56.7545 18.7645C56.3137 18.7645 55.9395 18.8308 55.632 18.9634C55.3246 19.096 55.0896 19.2834 54.9272 19.5256C54.7706 19.762 54.6923 20.0446 54.6923 20.3733C54.6923 20.7423 54.7822 21.0537 54.962 21.3074C55.1476 21.5553 55.4319 21.7831 55.8148 21.9907C56.2034 22.1983 56.7023 22.4289 57.3114 22.6826C58.0134 22.9709 58.608 23.2737 59.0953 23.5908C59.5883 23.908 59.9654 24.2885 60.2265 24.7325C60.4875 25.1708 60.618 25.7214 60.618 26.3846Z" fill="#6C33AF"/>
<path d="M71.0017 29.827H68.9046V18.9461H65.1803V17.1816H74.7173V18.9461H71.0017V29.827Z" fill="#6C33AF"/>
<path d="M80.295 20.0705C81.1535 20.0705 81.8902 20.2464 82.5052 20.5981C83.1201 20.9499 83.5929 21.4487 83.9235 22.0945C84.2542 22.7403 84.4195 23.513 84.4195 24.4125V25.5023H77.989C78.0122 26.4307 78.2617 27.1457 78.7374 27.6474C79.2189 28.149 79.8918 28.3999 80.7561 28.3999C81.3711 28.3999 81.9222 28.3422 82.4094 28.2269C82.9025 28.1058 83.4101 27.9299 83.9322 27.6993V29.3513C83.4507 29.5762 82.9605 29.7405 82.4617 29.8443C81.9628 29.9481 81.3653 30 80.6691 30C79.7236 30 78.8911 29.8184 78.1718 29.4551C77.4582 29.0861 76.8985 28.5383 76.4924 27.8117C76.0921 27.0852 75.892 26.1827 75.892 25.1045C75.892 24.0319 76.0747 23.1209 76.4402 22.3713C76.8056 21.6216 77.319 21.0508 77.9803 20.6587C78.6417 20.2666 79.4132 20.0705 80.295 20.0705ZM80.295 21.6015C79.651 21.6015 79.129 21.809 78.7287 22.2242C78.3342 22.6394 78.1022 23.2477 78.0326 24.0492H82.4181C82.4123 23.5706 82.3311 23.1468 82.1745 22.7778C82.0237 22.4087 81.7916 22.1204 81.4784 21.9128C81.1709 21.7053 80.7764 21.6015 80.295 21.6015Z" fill="#6C33AF"/>
<path d="M93.1994 27.0938C93.1994 27.7223 93.0457 28.2528 92.7382 28.6853C92.4307 29.1178 91.9812 29.4464 91.3895 29.6713C90.8036 29.8904 90.0842 30 89.2315 30C88.5586 30 87.9784 29.951 87.4912 29.853C87.0097 29.7607 86.5543 29.6165 86.125 29.4205V27.6647C86.5833 27.878 87.0967 28.0625 87.6652 28.2182C88.2395 28.3739 88.7819 28.4518 89.2924 28.4518C89.9653 28.4518 90.4497 28.348 90.7455 28.1404C91.0414 27.927 91.1893 27.6445 91.1893 27.2927C91.1893 27.0852 91.1284 26.9006 91.0066 26.7392C90.8906 26.572 90.6701 26.4019 90.3453 26.2289C90.0262 26.0501 89.5563 25.8368 88.9356 25.5888C88.3265 25.3466 87.8131 25.1045 87.3954 24.8623C86.9778 24.6201 86.6616 24.3289 86.447 23.9887C86.2323 23.6427 86.125 23.2016 86.125 22.6653C86.125 21.8177 86.4615 21.1748 87.1344 20.7365C87.8131 20.2925 88.7094 20.0705 89.8232 20.0705C90.4149 20.0705 90.9718 20.1311 91.4939 20.2522C92.0218 20.3675 92.5381 20.5376 93.0428 20.7625L92.3988 22.2934C91.9638 22.1031 91.5258 21.9474 91.0849 21.8263C90.6498 21.6995 90.2061 21.6361 89.7536 21.6361C89.2257 21.6361 88.8225 21.7168 88.544 21.8782C88.2714 22.0397 88.1351 22.2703 88.1351 22.5702C88.1351 22.7951 88.2018 22.9854 88.3352 23.1411C88.4686 23.2967 88.6978 23.4524 89.0226 23.6081C89.3533 23.7638 89.8116 23.957 90.3975 24.1876C90.9718 24.4067 91.4678 24.6374 91.8854 24.8796C92.3089 25.116 92.6338 25.4072 92.86 25.7532C93.0863 26.0991 93.1994 26.546 93.1994 27.0938Z" fill="#6C33AF"/>
<path d="M98.9946 28.3566C99.2615 28.3566 99.5254 28.3336 99.7865 28.2874C100.048 28.2355 100.285 28.175 100.5 28.1058V29.6454C100.274 29.7434 99.9808 29.827 99.6211 29.8962C99.2615 29.9654 98.8873 30 98.4986 30C97.9533 30 97.4632 29.9106 97.0281 29.7319C96.593 29.5473 96.2478 29.2331 95.9926 28.7891C95.7373 28.3451 95.6097 27.731 95.6097 26.9468V21.8004H94.2958V20.8922L95.7054 20.1743L96.3755 18.1244H97.6633V20.2522H100.422V21.8004H97.6633V26.9208C97.6633 27.4052 97.7851 27.7656 98.0288 28.002C98.2724 28.2384 98.5944 28.3566 98.9946 28.3566Z" fill="#6C33AF"/>
</svg>
