<svg width="111" height="48" viewBox="0 0 111 48" fill="none" xmlns="http://www.w3.org/2000/svg">
<path fill-rule="evenodd" clip-rule="evenodd" d="M24.5 27.808V17.85H25.8171L29.4468 24.1041L30.5341 26.1686H30.5954C30.5341 25.1667 30.4423 24.0434 30.4423 22.996V17.85H31.6522V27.808H30.3351L26.6901 21.5387L25.6027 19.4895H25.5414C25.618 20.4913 25.7099 21.5539 25.7099 22.6013V27.808H24.5ZM34.113 27.808V20.4306H35.3688V27.808H34.113ZM34.7586 18.9126C34.2685 18.9126 33.8856 18.5787 33.8856 18.1081C33.8856 17.6223 34.2685 17.3036 34.7586 17.3036C35.2486 17.3036 35.6315 17.6223 35.6315 18.1081C35.6315 18.5787 35.2486 18.9126 34.7586 18.9126ZM40.2219 31.2084C38.3994 31.2084 37.1435 30.4949 37.1435 29.2198C37.1435 28.5974 37.557 28.0054 38.2309 27.55V27.4893C37.8633 27.2616 37.5723 26.8669 37.5723 26.2901C37.5723 25.6677 38.0012 25.182 38.384 24.9239V24.8632C37.894 24.4685 37.4192 23.7551 37.4192 22.8746C37.4192 21.2656 38.7057 20.2485 40.2219 20.2485C40.6354 20.2485 41.0029 20.3244 41.2786 20.4307H43.8668V21.387H42.3353C42.6876 21.721 42.9479 22.2826 42.9479 22.905C42.9479 24.4837 41.738 25.4704 40.2219 25.4704C39.8543 25.4704 39.4408 25.3793 39.1038 25.2123C38.8435 25.44 38.6291 25.6829 38.6291 26.0928C38.6291 26.5633 38.9354 26.8973 39.9462 26.8973H41.3858C43.1164 26.8973 43.9894 27.4286 43.9894 28.6581C43.9894 30.0243 42.5344 31.2084 40.2219 31.2084ZM40.2225 24.6355C41.0802 24.6355 41.8 23.9524 41.8 22.8746C41.8 21.7968 41.0955 21.1593 40.2225 21.1593C39.3496 21.1593 38.6451 21.7968 38.6451 22.8746C38.6451 23.9524 39.3649 24.6355 40.2225 24.6355ZM40.4085 30.3431C41.8328 30.3431 42.767 29.6144 42.767 28.8403C42.767 28.1572 42.231 27.9295 41.2662 27.9295H39.9797C39.6887 27.9295 39.3365 27.8991 39.0148 27.808C38.4788 28.1875 38.2491 28.6277 38.2491 29.0528C38.2491 29.8421 39.0608 30.3431 40.4085 30.3431ZM45.251 27.808V17H46.5069V19.9449L46.4609 21.4629C47.1654 20.795 47.9159 20.2485 48.942 20.2485C50.5041 20.2485 51.2086 21.2504 51.2086 23.1327V27.808H49.9528V23.2996C49.9528 21.9183 49.524 21.3263 48.5438 21.3263C47.778 21.3263 47.2573 21.7209 46.5069 22.4647V27.808H45.251ZM55.755 27.9902C54.1622 27.9902 53.6262 26.9884 53.6262 25.5311V21.4477H52.5235V20.5066L53.6875 20.4307L53.8406 18.3662H54.8974V20.4307H56.9036V21.4477H54.8974V25.5463C54.8974 26.4571 55.1883 26.9732 56.046 26.9732C56.3064 26.9732 56.6433 26.8669 56.8883 26.7758L57.1334 27.717C56.7199 27.8536 56.2145 27.9902 55.755 27.9902ZM59.6014 27.808L57.5339 20.4306H58.8204L59.923 24.6961C60.0915 25.3944 60.2293 26.0623 60.3672 26.7454H60.4284C60.5969 26.0623 60.7501 25.3792 60.9338 24.6961L62.0825 20.4306H63.3077L64.4716 24.6961C64.6554 25.3944 64.8239 26.0623 64.9923 26.7454H65.0536C65.2221 26.0623 65.3599 25.3944 65.513 24.6961L66.6004 20.4306H67.795L65.804 27.808H64.2725L63.2005 23.8461C63.0167 23.1478 62.8789 22.4647 62.6951 21.7209H62.6338C62.4653 22.4647 62.3122 23.163 62.1131 23.8613L61.0717 27.808H59.6014ZM70.8114 27.9902C69.5709 27.9902 68.6367 27.2161 68.6367 25.8954C68.6367 24.2864 70.0303 23.4818 73.2006 23.1327C73.2006 22.1915 72.8943 21.2807 71.669 21.2807C70.8114 21.2807 70.0303 21.6754 69.4484 22.0701L68.9583 21.2048C69.6475 20.7646 70.6889 20.2485 71.8835 20.2485C73.706 20.2485 74.4717 21.4477 74.4717 23.2845V27.8081H73.4303L73.3231 26.9276H73.2771C72.5726 27.5045 71.7456 27.9902 70.8114 27.9902ZM71.1769 26.9883C71.8967 26.9883 72.4787 26.6392 73.1985 26.0016V23.9524C70.7175 24.256 69.8598 24.8631 69.8598 25.8043C69.8598 26.6392 70.4418 26.9883 71.1769 26.9883ZM78.7682 27.9902C77.1754 27.9902 76.6394 26.9884 76.6394 25.5311V21.4477H75.5367V20.5066L76.7006 20.4307L76.8538 18.3662H77.9105V20.4307H79.9168V21.4477H77.9105V25.5463C77.9105 26.4571 78.2015 26.9732 79.0592 26.9732C79.3195 26.9732 79.6564 26.8669 79.9015 26.7758L80.1465 27.717C79.733 27.8536 79.2276 27.9902 78.7682 27.9902ZM84.1526 27.9902C82.1769 27.9902 80.6607 26.5785 80.6607 24.1346C80.6607 21.6602 82.3301 20.2485 84.2445 20.2485C85.2246 20.2485 85.8985 20.6432 86.4192 21.1138L85.776 21.9335C85.3472 21.554 84.8877 21.2807 84.2904 21.2807C82.9427 21.2807 81.9625 22.4344 81.9625 24.1346C81.9625 25.8195 82.8967 26.958 84.2598 26.958C84.949 26.958 85.5463 26.624 86.0057 26.2142L86.557 27.0491C85.8832 27.6411 85.0409 27.9902 84.1526 27.9902ZM88.0234 27.808V17H89.2792V19.9449L89.2333 21.4629C89.9378 20.795 90.6882 20.2485 91.7143 20.2485C93.2765 20.2485 93.9809 21.2504 93.9809 23.1327V27.808H92.7251V23.2996C92.7251 21.9183 92.2963 21.3263 91.3161 21.3263C90.5504 21.3263 90.0297 21.7209 89.2792 22.4647V27.808H88.0234ZM96.846 27.9902C96.3406 27.9902 95.927 27.5955 95.927 27.049C95.927 26.4722 96.3406 26.0775 96.846 26.0775C97.336 26.0775 97.7495 26.4722 97.7495 27.049C97.7495 27.5955 97.336 27.9902 96.846 27.9902ZM99.4565 31.102C98.9971 31.102 98.6142 31.011 98.3538 30.9047L98.6142 29.9635C98.798 30.0243 99.0583 30.085 99.3187 30.085C100.054 30.085 100.238 29.5385 100.238 28.6429V20.4306H101.493V28.6429C101.493 30.1457 100.942 31.102 99.4565 31.102ZM100.881 18.9126C100.391 18.9126 100.008 18.5787 100.008 18.1081C100.008 17.6223 100.391 17.3036 100.881 17.3036C101.356 17.3036 101.739 17.6223 101.739 18.1081C101.739 18.5787 101.356 18.9126 100.881 18.9126ZM105.776 27.9902C104.719 27.9902 103.708 27.55 103.003 26.9732L103.631 26.1383C104.275 26.6544 104.933 27.0187 105.821 27.0187C106.802 27.0187 107.292 26.5026 107.292 25.8651C107.292 25.1061 106.403 24.7721 105.592 24.4685C104.535 24.089 103.371 23.5881 103.371 22.3433C103.371 21.1593 104.321 20.2485 105.929 20.2485C106.863 20.2485 107.675 20.628 108.241 21.0834L107.644 21.8728C107.139 21.4933 106.603 21.22 105.944 21.22C105.01 21.22 104.581 21.721 104.581 22.2826C104.581 22.9809 105.393 23.2389 106.235 23.5577C107.307 23.9524 108.502 24.3926 108.502 25.7892C108.502 26.9884 107.537 27.9902 105.776 27.9902Z" fill="#FF7F2B"/>
<path d="M4.73278 14.4142C4.72572 14.353 4.73487 14.2911 4.75948 14.2344C4.78403 14.1776 4.82314 14.1279 4.87316 14.0899C4.92313 14.052 4.9823 14.0271 5.045 14.0175C5.1077 14.008 5.1719 14.0142 5.23144 14.0355L8.75238 15.2943L5.21844 18.6007L4.73278 14.4142Z" fill="#502D17"/>
<path d="M17.1837 14.4143C17.1909 14.3532 17.1819 14.2913 17.1575 14.2345C17.1331 14.1777 17.094 14.1279 17.0441 14.0899C16.9942 14.052 16.9351 14.027 16.8724 14.0175C16.8098 14.008 16.7456 14.0142 16.6861 14.0356L13.1641 15.2944L16.6991 18.6008L17.1837 14.4143Z" fill="#502D17"/>
<path d="M11 32.5668C15.6945 32.5668 19.5 29.399 19.5 25.4914C19.5 21.5838 15.6945 18.416 11 18.416C6.30556 18.416 2.5 21.5838 2.5 25.4914C2.5 29.399 6.30556 32.5668 11 32.5668Z" fill="#794422"/>
<path d="M18.0348 23.5562C18.0348 28.8326 14.886 33.1103 11.0037 33.1103C7.12148 33.1103 3.97266 28.8326 3.97266 23.5562C3.97266 18.2798 7.12148 14 11.0037 14C14.886 14 18.0348 18.2819 18.0348 23.5562Z" fill="#502D17"/>
<path d="M8.16252 23.9329C9.97387 23.9329 11.4422 22.3107 11.4422 20.3097C11.4422 18.3087 9.97387 16.6865 8.16252 16.6865C6.35118 16.6865 4.88281 18.3087 4.88281 20.3097C4.88281 22.3107 6.35118 23.9329 8.16252 23.9329Z" fill="white"/>
<path d="M15.8981 27.5084C15.8981 29.9494 13.7044 31.9289 10.9991 31.9289C8.29376 31.9289 6.10547 29.9547 6.10547 27.5084C6.10547 25.0622 8.29804 23.0859 11.0034 23.0859C13.7088 23.0859 15.8981 25.0654 15.8981 27.5084Z" fill="white"/>
<path d="M17.0555 20.3049C17.0555 22.3064 15.5866 23.9281 13.7747 23.9281C11.9629 23.9281 10.4961 22.3106 10.4961 20.3049C10.4961 18.2992 11.964 16.6807 13.7747 16.6807C15.5855 16.6807 17.0555 18.3118 17.0555 20.3049Z" fill="white"/>
<path d="M10.7324 21.5433C10.914 21.4747 11.1158 21.4766 11.296 21.5486C11.816 21.7436 12.2772 22.0621 12.6373 22.4748C12.6935 22.5429 12.7263 22.6263 12.7313 22.7133C12.7364 22.8004 12.7134 22.8867 12.6654 22.9605C12.2922 23.5223 11.8155 24.0126 11.2592 24.4071C11.19 24.458 11.1055 24.4856 11.0185 24.4856C10.9316 24.4856 10.8471 24.458 10.7778 24.4071C10.2211 24.0132 9.74431 23.5227 9.37165 22.9605C9.32339 22.8878 9.30017 22.802 9.30541 22.7156C9.31071 22.6293 9.34409 22.5468 9.40086 22.48C9.74924 22.0568 10.2094 21.7331 10.7324 21.5433Z" fill="#FF7F2B"/>
<path d="M10.6743 25.2671C10.6743 25.4357 10.6052 25.5974 10.4823 25.7166C10.3594 25.8358 10.1927 25.9028 10.0188 25.9028C9.84493 25.9028 9.67823 25.8358 9.55529 25.7166C9.43235 25.5974 9.36328 25.4357 9.36328 25.2671H10.6743Z" fill="#DDDDDD"/>
<path d="M12.6626 25.2671C12.6626 25.4357 12.5935 25.5974 12.4706 25.7166C12.3476 25.8358 12.1809 25.9028 12.0071 25.9028C11.8332 25.9028 11.6665 25.8358 11.5436 25.7166C11.4206 25.5974 11.3516 25.4357 11.3516 25.2671H12.6626Z" fill="#DDDDDD"/>
<path d="M9.67426 26.5342C9.67426 26.7028 9.60524 26.8645 9.4823 26.9837C9.35937 27.1029 9.19261 27.1698 9.0188 27.1698C8.84493 27.1698 8.67817 27.1029 8.55523 26.9837C8.43235 26.8645 8.36328 26.7028 8.36328 26.5342H9.67426Z" fill="#DDDDDD"/>
<path d="M11.6703 26.5342C11.6703 26.7028 11.6013 26.8645 11.4784 26.9837C11.3555 27.1029 11.1887 27.1698 11.0149 27.1698C10.841 27.1698 10.6743 27.1029 10.5513 26.9837C10.4284 26.8645 10.3594 26.7028 10.3594 26.5342H11.6703Z" fill="#DDDDDD"/>
<path d="M13.6548 26.5342C13.6548 26.7028 13.5857 26.8645 13.4628 26.9837C13.3398 27.1029 13.1731 27.1698 12.9993 27.1698C12.8254 27.1698 12.6587 27.1029 12.5358 26.9837C12.4128 26.8645 12.3438 26.7028 12.3438 26.5342H13.6548Z" fill="#DDDDDD"/>
<path d="M8.67822 27.7749C8.67822 27.9435 8.60915 28.1052 8.48621 28.2244C8.36327 28.3436 8.19652 28.4106 8.0227 28.4106C7.84883 28.4106 7.68213 28.3436 7.55919 28.2244C7.43625 28.1052 7.36719 27.9435 7.36719 27.7749H8.67822Z" fill="#DDDDDD"/>
<path d="M10.6743 27.7749C10.6743 27.9435 10.6052 28.1052 10.4823 28.2244C10.3594 28.3436 10.1927 28.4106 10.0188 28.4106C9.84493 28.4106 9.67823 28.3436 9.55529 28.2244C9.43235 28.1052 9.36328 27.9435 9.36328 27.7749H10.6743Z" fill="#DDDDDD"/>
<path d="M12.6626 27.7749C12.6626 27.9435 12.5935 28.1052 12.4706 28.2244C12.3476 28.3436 12.1809 28.4106 12.0071 28.4106C11.8332 28.4106 11.6665 28.3436 11.5436 28.2244C11.4206 28.1052 11.3516 27.9435 11.3516 27.7749H12.6626Z" fill="#DDDDDD"/>
<path d="M14.6598 27.7749C14.6529 27.9392 14.5807 28.0945 14.4585 28.2084C14.3362 28.3222 14.1732 28.3858 14.0037 28.3858C13.8342 28.3858 13.6712 28.3222 13.549 28.2084C13.4267 28.0945 13.3546 27.9392 13.3477 27.7749H14.6598Z" fill="#DDDDDD"/>
<path d="M9.67426 29.0425C9.67426 29.2111 9.60524 29.3728 9.4823 29.492C9.35937 29.6112 9.19261 29.6782 9.0188 29.6782C8.84493 29.6782 8.67817 29.6112 8.55523 29.492C8.43235 29.3728 8.36328 29.2111 8.36328 29.0425H9.67426Z" fill="#DDDDDD"/>
<path d="M11.6703 29.0425C11.6703 29.2111 11.6013 29.3728 11.4784 29.492C11.3555 29.6112 11.1887 29.6782 11.0149 29.6782C10.841 29.6782 10.6743 29.6112 10.5513 29.492C10.4284 29.3728 10.3594 29.2111 10.3594 29.0425H11.6703Z" fill="#DDDDDD"/>
<path d="M13.6548 29.0425C13.6548 29.2111 13.5857 29.3728 13.4628 29.492C13.3398 29.6112 13.1731 29.6782 12.9993 29.6782C12.8254 29.6782 12.6587 29.6112 12.5358 29.492C12.4128 29.3728 12.3438 29.2111 12.3438 29.0425H13.6548Z" fill="#DDDDDD"/>
<path d="M10.6743 30.2822C10.6743 30.4508 10.6052 30.6125 10.4823 30.7317C10.3594 30.8509 10.1927 30.9179 10.0188 30.9179C9.84493 30.9179 9.67823 30.8509 9.55529 30.7317C9.43235 30.6125 9.36328 30.4508 9.36328 30.2822H10.6743Z" fill="#DDDDDD"/>
<path d="M12.6626 30.2822C12.6626 30.4508 12.5935 30.6125 12.4706 30.7317C12.3476 30.8509 12.1809 30.9179 12.0071 30.9179C11.8332 30.9179 11.6665 30.8509 11.5436 30.7317C11.4206 30.6125 11.3516 30.4508 11.3516 30.2822H12.6626Z" fill="#DDDDDD"/>
<path d="M8.58781 21.7516C9.64162 21.7516 10.4959 20.9232 10.4959 19.9012C10.4959 18.8792 9.64162 18.0508 8.58781 18.0508C7.534 18.0508 6.67969 18.8792 6.67969 19.9012C6.67969 20.9232 7.534 21.7516 8.58781 21.7516Z" fill="#CED8E1"/>
<path d="M8.59268 21.0613C9.25221 21.0613 9.78687 20.5428 9.78687 19.9032C9.78687 19.2636 9.25221 18.7451 8.59268 18.7451C7.9331 18.7451 7.39844 19.2636 7.39844 19.9032C7.39844 20.5428 7.9331 21.0613 8.59268 21.0613Z" fill="#333333"/>
<path d="M8.89165 19.904C9.13598 19.904 9.33408 19.7119 9.33408 19.4749C9.33408 19.238 9.13598 19.0459 8.89165 19.0459C8.64732 19.0459 8.44922 19.238 8.44922 19.4749C8.44922 19.7119 8.64732 19.904 8.89165 19.904Z" fill="white"/>
<path d="M13.2568 21.7551C14.3113 21.7551 15.166 20.9262 15.166 19.9037C15.166 18.8812 14.3113 18.0522 13.2568 18.0522C12.2025 18.0522 11.3477 18.8812 11.3477 19.9037C11.3477 20.9262 12.2025 21.7551 13.2568 21.7551Z" fill="#CED8E1"/>
<path d="M13.2567 21.0613C13.9163 21.0613 14.4509 20.5428 14.4509 19.9032C14.4509 19.2636 13.9163 18.7451 13.2567 18.7451C12.5972 18.7451 12.0625 19.2636 12.0625 19.9032C12.0625 20.5428 12.5972 21.0613 13.2567 21.0613Z" fill="#333333"/>
<path d="M13.5596 19.904C13.8039 19.904 14.002 19.7119 14.002 19.4749C14.002 19.238 13.8039 19.0459 13.5596 19.0459C13.3152 19.0459 13.1172 19.238 13.1172 19.4749C13.1172 19.7119 13.3152 19.904 13.5596 19.904Z" fill="white"/>
<path d="M14.9621 33.1169C14.9621 33.6058 14.6842 34.0002 14.3423 34.0002C14.0005 34.0002 13.7225 33.6058 13.7225 33.1169C13.7225 33.6058 13.4445 34.0002 13.1016 34.0002C12.7587 34.0002 12.4818 33.6058 12.4818 33.1169C12.4818 33.6058 12.2049 34.0002 11.862 34.0002C11.5191 34.0002 11.2422 33.6058 11.2422 33.1169C11.2422 32.4278 12.0718 31.8687 13.0962 31.8687C14.1206 31.8687 14.9513 32.4278 14.9513 33.1169H14.9621Z" fill="#FF7F2B"/>
<path d="M10.7356 33.1169C10.7356 33.6058 10.4576 34.0002 10.1157 34.0002C9.77394 34.0002 9.49484 33.6058 9.49484 33.1169C9.49484 33.6058 9.21794 34.0002 8.87506 34.0002C8.53214 34.0002 8.25523 33.6058 8.25523 33.1169C8.25523 33.6058 7.97726 34.0002 7.6354 34.0002C7.2936 34.0002 7.01562 33.6058 7.01562 33.1169C7.01562 32.4278 7.84528 31.8687 8.86966 31.8687C9.89399 31.8687 10.7248 32.4278 10.7248 33.1169H10.7356Z" fill="#FF7F2B"/>
</svg>
