<svg width="111" height="48" viewBox="0 0 111 48" fill="none" xmlns="http://www.w3.org/2000/svg">
<path d="M49.7069 15.6857C48.4377 16.0533 47.605 16.6978 47.0564 17.3418C47.5818 16.8726 48.2856 16.442 49.2349 16.1674C50.2059 15.8866 51.0342 15.8886 51.7187 16.0234V15.4772C51.1348 15.4227 50.4654 15.4661 49.7069 15.6857ZM46.9984 11.0942L42.2847 12.3615C42.2847 12.3615 42.3706 12.4853 42.5297 12.6506L46.5263 11.5759C46.5263 11.5759 46.4697 12.3206 45.9779 12.9868C46.9082 12.2685 46.9984 11.0942 46.9984 11.0942ZM50.9441 22.3993C44.3107 24.2225 40.8011 16.3775 39.7386 12.3056C39.2477 10.4261 39.0334 9.00257 38.9763 8.08395C38.9701 7.98856 38.973 7.90815 38.9796 7.83447C38.6355 7.85568 38.4707 8.03822 38.5043 8.56572C38.5614 9.48383 38.7757 10.9072 39.2666 12.7874C40.3287 16.8587 43.8387 24.7037 50.4721 22.8804C51.916 22.4835 53.0007 21.7605 53.815 20.8376C53.0644 21.5293 52.1251 22.0741 50.9441 22.3993ZM52.1907 6.29297V6.77474H54.7925C54.7392 6.60416 54.6854 6.45048 54.632 6.29297H52.1907Z" fill="#2D4552"/>
<path d="M55.3707 10.2608C56.5408 10.6 57.1597 11.4372 57.4868 12.1781L58.7915 12.5562C58.7915 12.5562 58.6135 9.96319 56.3152 9.29698C54.1651 8.67358 52.842 10.5161 52.6811 10.7545C53.3065 10.2998 54.2199 9.92751 55.3707 10.2608ZM65.7563 12.19C63.6042 11.5638 62.2816 13.4102 62.123 13.6453C62.749 13.191 63.6618 12.8186 64.8122 13.1535C65.9804 13.4931 66.5988 14.3293 66.9269 15.0707L68.2335 15.4502C68.2335 15.4502 68.0526 12.8567 65.7563 12.19ZM64.4601 19.0269L53.6067 15.9305C53.6067 15.9305 53.7242 16.5384 54.1751 17.3255L63.3131 19.9325C64.0654 19.4883 64.4601 19.0269 64.4601 19.0269ZM56.9354 25.6918C48.3417 23.3405 49.3806 12.1665 50.7712 6.87154C51.3438 4.68945 51.9324 3.06756 52.4205 1.98035C52.1293 1.91917 51.8881 2.07573 51.6497 2.57044C51.1314 3.64318 50.4686 5.38984 49.8272 7.83498C48.437 13.1298 47.3981 24.3034 55.9914 26.6547C60.0419 27.7621 63.1973 26.079 65.5495 23.4359C63.3168 25.4996 60.4662 26.6566 56.9354 25.6918Z" fill="#2D4552"/>
<path d="M52.1947 19.7809V17.526L46.0555 19.3025C46.0555 19.3025 46.5092 16.6127 49.7109 15.6859C50.6819 15.405 51.5103 15.4069 52.1947 15.5418V6.2931H55.2686C54.9339 5.23769 54.6101 4.42512 54.3382 3.86052C53.8883 2.92603 53.4272 3.54551 52.3802 4.43909C51.6429 5.06771 49.7794 6.40879 46.9751 7.17995C44.1707 7.9516 41.9036 7.74695 40.9576 7.5798C39.6166 7.34369 38.9152 7.04315 38.9808 8.08408C39.0379 9.00219 39.2522 10.4257 39.7431 12.3057C40.8052 16.3771 44.3152 24.2221 50.9486 22.3989C52.6814 21.9225 53.9044 20.9807 54.7521 19.7804H52.1947V19.7809ZM42.2883 12.3616L47.0024 11.0943C47.0024 11.0943 46.865 12.945 45.0978 13.4205C43.33 13.8954 42.2883 12.3616 42.2883 12.3616Z" fill="#E2574C"/>
<path d="M69.9302 6.39978C68.7048 6.619 65.765 6.89211 62.1319 5.89831C58.4977 4.90511 56.0866 3.16805 55.1312 2.35156C53.777 1.19402 53.1813 0.389578 52.595 1.60637C52.0768 2.6796 51.414 4.42626 50.7725 6.8714C49.3824 12.1663 48.3435 23.3399 56.9367 25.6911C65.5281 28.0404 70.102 17.833 71.4922 12.5377C72.1337 10.093 72.415 8.24183 72.4924 7.04821C72.5807 5.69607 71.6706 6.08858 69.9302 6.39978ZM52.6649 10.7804C52.6649 10.7804 54.0191 8.63102 56.3159 9.29724C58.6143 9.96346 58.7922 12.5565 58.7922 12.5565L52.6649 10.7804ZM58.2716 20.4256C54.2316 19.2179 53.6085 15.9303 53.6085 15.9303L64.4613 19.0267C64.4613 19.0262 62.2706 21.6182 58.2716 20.4256ZM62.1087 13.6692C62.1087 13.6692 63.4611 11.5212 65.7575 12.1894C68.0539 12.8566 68.2347 15.4496 68.2347 15.4496L62.1087 13.6692Z" fill="#2EAD33"/>
<path d="M50.0459 18.1467L46.0521 19.3018C46.0521 19.3018 46.4859 16.7797 49.428 15.7802L47.1665 7.11914L46.9711 7.17975C44.1668 7.95151 41.8997 7.74676 40.9537 7.5796C39.6127 7.34359 38.9113 7.04295 38.9769 8.08399C39.034 9.0021 39.2483 10.4255 39.7392 12.3056C40.8013 16.3769 44.3113 24.222 50.9447 22.3987L51.1401 22.3361L50.0459 18.1467ZM42.2848 12.3615L46.999 11.0941C46.999 11.0941 46.8616 12.9448 45.0944 13.4203C43.3266 13.8952 42.2848 12.3615 42.2848 12.3615Z" fill="#D65348"/>
<path d="M58.4538 20.4708L58.2711 20.4255C54.2311 19.2179 53.608 15.9303 53.608 15.9303L59.2044 17.5266L62.1672 5.90796L62.1314 5.89831C58.4973 4.90511 56.0862 3.16805 55.1307 2.35156C53.7765 1.19402 53.1808 0.389578 52.5946 1.60637C52.0768 2.6796 51.414 4.42626 50.7725 6.8714C49.3824 12.1663 48.3435 23.3399 56.9367 25.691L57.1128 25.7315L58.4538 20.4708ZM52.6649 10.7804C52.6649 10.7804 54.0191 8.63102 56.3159 9.29724C58.6143 9.96346 58.7922 12.5565 58.7922 12.5565L52.6649 10.7804Z" fill="#1D8D22"/>
<path d="M50.2466 18.0874L49.1756 18.3976C49.4286 19.8533 49.8746 21.2502 50.5746 22.4844C50.6965 22.4569 50.8173 22.4333 50.9414 22.3986C51.2666 22.3091 51.5682 22.1982 51.8586 22.0773C51.0765 20.8928 50.559 19.5286 50.2466 18.0874ZM49.8284 7.83483C49.278 9.93118 48.7856 12.9486 48.9212 15.9751C49.1637 15.8676 49.42 15.7675 49.7047 15.6851L49.903 15.6399C49.6613 12.4071 50.1838 9.11279 50.7724 6.87139C50.9216 6.30438 51.0712 5.77698 51.2204 5.28516C50.9801 5.44116 50.7215 5.60108 50.4269 5.76582C50.2282 6.39163 50.0276 7.07564 49.8284 7.83483Z" fill="#C04B41"/>
<path d="M26.9081 32.598C28.0973 32.598 28.9637 32.8363 29.5074 33.313C30.051 33.7897 30.3228 34.4613 30.3228 35.328C30.3228 35.7093 30.2591 36.0777 30.1317 36.433C30.0128 36.7797 29.8132 37.0917 29.5329 37.369C29.2525 37.6463 28.8788 37.8673 28.4116 38.032C27.9444 38.188 27.3711 38.266 26.6915 38.266H25.6467V41.88H24.5V32.598H26.9081ZM26.8062 33.599H25.6467V37.265H26.5641C27.1417 37.265 27.6216 37.2043 28.0039 37.083C28.3861 36.953 28.6707 36.7493 28.8576 36.472C29.0444 36.1947 29.1379 35.8307 29.1379 35.38C29.1379 34.782 28.951 34.3357 28.5773 34.041C28.2035 33.7463 27.6132 33.599 26.8062 33.599Z" fill="#2D4552"/>
<path d="M33.1829 41.88H32.0616V32H33.1829V41.88Z" fill="#2D4552"/>
<path d="M37.933 34.795C38.7655 34.795 39.3813 34.9813 39.7805 35.354C40.1798 35.7267 40.3794 36.3203 40.3794 37.135V41.88H39.5639L39.3473 40.892H39.2964C39.101 41.1433 38.8971 41.3557 38.6848 41.529C38.4809 41.6937 38.2431 41.815 37.9713 41.893C37.7079 41.971 37.3851 42.01 37.0029 42.01C36.5952 42.01 36.2257 41.9363 35.8944 41.789C35.5716 41.6417 35.3168 41.4163 35.1299 41.113C34.943 40.801 34.8496 40.411 34.8496 39.943C34.8496 39.2497 35.1172 38.7167 35.6523 38.344C36.1875 37.9627 37.0114 37.7547 38.1242 37.72L39.2836 37.681V37.265C39.2836 36.6843 39.1605 36.2813 38.9141 36.056C38.6678 35.8307 38.3195 35.718 37.8693 35.718C37.5126 35.718 37.1728 35.7743 36.85 35.887C36.5272 35.991 36.2257 36.1123 35.9454 36.251L35.6014 35.393C35.8987 35.2283 36.2512 35.0897 36.6589 34.977C37.0666 34.8557 37.4913 34.795 37.933 34.795ZM38.2643 38.513C37.4149 38.5477 36.8245 38.6863 36.4933 38.929C36.1705 39.1717 36.0091 39.514 36.0091 39.956C36.0091 40.346 36.1237 40.632 36.3531 40.814C36.5909 40.996 36.8925 41.087 37.2577 41.087C37.8353 41.087 38.3153 40.9267 38.6975 40.606C39.0798 40.2767 39.2709 39.774 39.2709 39.098V38.474L38.2643 38.513Z" fill="#2D4552"/>
<path d="M41.4184 34.912H42.6161L44.0941 38.877C44.179 39.111 44.2555 39.3363 44.3234 39.553C44.3999 39.7697 44.4678 39.982 44.5273 40.19C44.5868 40.3893 44.6335 40.5843 44.6675 40.775H44.7184C44.7694 40.5583 44.8501 40.2767 44.9605 39.93C45.0709 39.5747 45.1856 39.2193 45.3045 38.864L46.6933 34.912H47.9038L44.9605 42.842C44.7991 43.2753 44.608 43.6523 44.3872 43.973C44.1748 44.3023 43.9115 44.5537 43.5972 44.727C43.2914 44.909 42.9176 45 42.4759 45C42.2721 45 42.0937 44.987 41.9408 44.961C41.7879 44.9437 41.6562 44.922 41.5458 44.896V43.986C41.6393 44.0033 41.7497 44.0207 41.8771 44.038C42.013 44.0553 42.1532 44.064 42.2976 44.064C42.5609 44.064 42.786 44.012 42.9729 43.908C43.1682 43.8127 43.3339 43.6697 43.4698 43.479C43.6057 43.297 43.7204 43.0803 43.8138 42.829L44.1705 41.906L41.4184 34.912Z" fill="#2D4552"/>
<path d="M53.3923 37.941C53.3414 37.759 53.2904 37.5813 53.2394 37.408C53.1885 37.226 53.1418 37.057 53.0993 36.901C53.0653 36.7363 53.0313 36.5847 52.9974 36.446C52.9634 36.3073 52.9379 36.1903 52.9209 36.095H52.8699C52.853 36.1903 52.8275 36.3073 52.7935 36.446C52.768 36.5847 52.734 36.7363 52.6916 36.901C52.6576 37.0657 52.6151 37.239 52.5642 37.421C52.5217 37.5943 52.4707 37.772 52.4113 37.954L51.1881 41.867H49.9139L48.041 34.899H49.2004L50.1433 38.617C50.2112 38.8683 50.2749 39.124 50.3344 39.384C50.3939 39.6353 50.4448 39.878 50.4873 40.112C50.5383 40.3373 50.5722 40.5323 50.5892 40.697H50.6402C50.6657 40.593 50.6954 40.463 50.7294 40.307C50.7634 40.151 50.7973 39.9863 50.8313 39.813C50.8738 39.6397 50.9163 39.4663 50.9587 39.293C51.0097 39.1197 51.0564 38.9637 51.0989 38.825L52.3093 34.899H53.5325L54.7047 38.825C54.7642 39.0243 54.8236 39.2367 54.8831 39.462C54.951 39.6873 55.0105 39.9083 55.0615 40.125C55.1124 40.333 55.1464 40.5193 55.1634 40.684H55.2144C55.2314 40.5367 55.2611 40.3547 55.3036 40.138C55.3545 39.9127 55.4097 39.67 55.4692 39.41C55.5371 39.1413 55.6051 38.877 55.6731 38.617L56.6287 34.899H57.7754L55.8769 41.867H54.5646L53.3923 37.941Z" fill="#2D4552"/>
<path d="M62.1856 34.782C62.313 34.782 62.4489 34.7907 62.5933 34.808C62.7462 34.8167 62.8779 34.834 62.9883 34.86L62.8482 35.913C62.7377 35.887 62.6146 35.8653 62.4787 35.848C62.3512 35.8307 62.2281 35.822 62.1092 35.822C61.8458 35.822 61.5953 35.8783 61.3574 35.991C61.1196 36.1037 60.9072 36.264 60.7203 36.472C60.5335 36.6713 60.3848 36.914 60.2744 37.2C60.1725 37.486 60.1215 37.8067 60.1215 38.162V41.88H59.0003V34.912H59.9176L60.0451 36.186H60.096C60.2404 35.926 60.4146 35.692 60.6184 35.484C60.8223 35.2673 61.0559 35.0983 61.3192 34.977C61.5825 34.847 61.8713 34.782 62.1856 34.782Z" fill="#2D4552"/>
<path d="M65.3848 34.912V41.88H64.2636V34.912H65.3848ZM64.8369 32.299C65.0068 32.299 65.1555 32.3597 65.2829 32.481C65.4188 32.5937 65.4867 32.7757 65.4867 33.027C65.4867 33.2697 65.4188 33.4517 65.2829 33.573C65.1555 33.6943 65.0068 33.755 64.8369 33.755C64.65 33.755 64.4929 33.6943 64.3655 33.573C64.2381 33.4517 64.1744 33.2697 64.1744 33.027C64.1744 32.7757 64.2381 32.5937 64.3655 32.481C64.4929 32.3597 64.65 32.299 64.8369 32.299Z" fill="#2D4552"/>
<path d="M69.9693 34.782C70.4195 34.782 70.823 34.8687 71.1798 35.042C71.545 35.2153 71.855 35.4797 72.1099 35.835H72.1736L72.3265 34.912H73.2184V41.997C73.2184 42.6557 73.108 43.206 72.8871 43.648C72.6663 44.0987 72.3307 44.4367 71.8805 44.662C71.4303 44.8873 70.857 45 70.1604 45C69.6678 45 69.2133 44.961 68.7971 44.883C68.3894 44.8137 68.0241 44.7053 67.7013 44.558V43.505C67.9222 43.6177 68.1643 43.713 68.4276 43.791C68.6909 43.8777 68.9755 43.9427 69.2813 43.986C69.5871 44.0293 69.9014 44.051 70.2241 44.051C70.8102 44.051 71.2689 43.8733 71.6002 43.518C71.94 43.1713 72.1099 42.6947 72.1099 42.088V41.815C72.1099 41.711 72.1141 41.5637 72.1226 41.373C72.1311 41.1737 72.1396 41.035 72.1481 40.957H72.0971C71.8593 41.3123 71.562 41.5767 71.2052 41.75C70.857 41.9233 70.4492 42.01 69.9821 42.01C69.0987 42.01 68.4064 41.6937 67.9052 41.061C67.4125 40.4283 67.1662 39.5443 67.1662 38.409C67.1662 37.6637 67.2766 37.0223 67.4975 36.485C67.7268 35.939 68.0496 35.5187 68.4658 35.224C68.882 34.9293 69.3832 34.782 69.9693 34.782ZM70.1222 35.744C69.74 35.744 69.4129 35.848 69.1411 36.056C68.8778 36.264 68.6739 36.5673 68.5295 36.966C68.3936 37.3647 68.3257 37.85 68.3257 38.422C68.3257 39.28 68.4786 39.9387 68.7844 40.398C69.0987 40.8487 69.5531 41.074 70.1477 41.074C70.496 41.074 70.7933 41.0307 71.0396 40.944C71.2859 40.8487 71.4898 40.7057 71.6512 40.515C71.8126 40.3157 71.9315 40.0643 72.0079 39.761C72.0844 39.4577 72.1226 39.098 72.1226 38.682V38.409C72.1226 37.7763 72.0504 37.265 71.906 36.875C71.7701 36.485 71.5535 36.199 71.2562 36.017C70.9589 35.835 70.5809 35.744 70.1222 35.744Z" fill="#2D4552"/>
<path d="M76.5086 34.899C76.5086 35.0637 76.5001 35.2327 76.4832 35.406C76.4747 35.5793 76.4619 35.7353 76.4449 35.874H76.5214C76.6658 35.6313 76.8484 35.432 77.0693 35.276C77.2901 35.12 77.5364 35.003 77.8083 34.925C78.0801 34.8383 78.3604 34.795 78.6492 34.795C79.2013 34.795 79.66 34.886 80.0253 35.068C80.399 35.2413 80.6793 35.5143 80.8662 35.887C81.0531 36.2597 81.1465 36.745 81.1465 37.343V41.88H80.038V37.421C80.038 36.8577 79.9149 36.4373 79.6685 36.16C79.4222 35.8827 79.0357 35.744 78.509 35.744C77.9994 35.744 77.6002 35.8437 77.3114 36.043C77.0225 36.2337 76.8144 36.5197 76.687 36.901C76.5681 37.2737 76.5086 37.733 76.5086 38.279V41.88H75.3874V32H76.5086V34.899Z" fill="#2D4552"/>
<path d="M85.5444 41.074C85.7143 41.074 85.8884 41.061 86.0668 41.035C86.2452 41.0003 86.3896 40.9657 86.5 40.931V41.802C86.3811 41.8627 86.2112 41.9103 85.9903 41.945C85.7695 41.9883 85.5571 42.01 85.3533 42.01C84.9965 42.01 84.6652 41.9493 84.3594 41.828C84.0621 41.698 83.8201 41.477 83.6332 41.165C83.4463 40.853 83.3529 40.4153 83.3529 39.852V35.796H82.3845V35.25L83.3656 34.795L83.8116 33.313H84.4741V34.912H86.449V35.796H84.4741V39.826C84.4741 40.2507 84.5718 40.567 84.7672 40.775C84.971 40.9743 85.2301 41.074 85.5444 41.074Z" fill="#2D4552"/>
</svg>
