<svg width="29" height="28" viewBox="0 0 29 28" fill="none" xmlns="http://www.w3.org/2000/svg">
<path d="M17.5353 13.5583C18.0642 13.5611 18.5932 13.5639 19.1222 13.5639C19.6521 13.5639 20.182 13.5611 20.7109 13.5583H20.711C21.7661 13.5527 22.8175 13.5471 23.8577 13.5639C24.2985 13.5639 24.4748 13.4375 24.4496 12.97C24.4328 12.4729 24.4384 11.9758 24.444 11.4787C24.4468 11.2302 24.4496 10.9816 24.4496 10.7331C24.4664 9.38368 24.4608 8.01739 24.4552 6.65676V6.65669C24.4524 5.97847 24.4496 5.30166 24.4496 4.62905C24.4496 4.58753 24.4514 4.54492 24.4531 4.5024C24.4646 4.22132 24.4759 3.94394 23.9836 4.0098C21.5466 4.37946 19.1096 4.72778 16.6725 5.07611C15.8602 5.19222 15.0479 5.30833 14.2355 5.42523C13.8199 5.50105 13.6688 5.65271 13.6688 6.09503C13.694 8.35718 13.694 10.6067 13.6688 12.8941C13.6688 13.4628 13.8703 13.5639 14.3615 13.5639C15.4194 13.5471 16.4773 13.5527 17.5353 13.5583Z" fill="#00AAF2"/>
<path d="M24.4748 23.4593V19.2509C24.4748 18.9003 24.4732 18.5504 24.4717 18.2007V18.1999C24.4669 17.151 24.4622 16.1039 24.5 15.0425C24.5 14.5749 24.3741 14.3727 23.8577 14.3727C20.6965 14.3727 17.5227 14.3727 14.2985 14.3475C13.8073 14.3475 13.6562 14.4991 13.6562 14.992L13.6563 15.0047C13.6815 17.2626 13.7065 19.5078 13.6562 21.7405C13.6562 22.3598 13.8577 22.562 14.4244 22.6378C15.2116 22.7484 15.9996 22.8582 16.7875 22.968C19.1513 23.2973 21.5151 23.6267 23.8577 23.9774C24.3237 24.0532 24.4748 23.9521 24.4748 23.4593Z" fill="#00AAF2"/>
<path d="M8.61839 14.4107H12.17C12.5479 14.4107 12.7116 14.537 12.7116 14.9288V21.9554C12.7116 22.3598 12.5353 22.3977 12.17 22.3598C9.81486 22.0059 7.4597 21.6647 5.11713 21.3361C4.65113 21.2603 4.5 21.1087 4.5 20.6158C4.52519 18.7454 4.52519 16.875 4.5 14.9667C4.5 14.4991 4.62594 14.3727 5.09194 14.3727C6.28841 14.4107 7.43451 14.4107 8.61839 14.4107Z" fill="#00AAF2"/>
<path d="M5.11712 13.5639H8.61838C9.18831 13.5639 9.76759 13.5577 10.35 13.5514C10.9388 13.545 11.5308 13.5386 12.1196 13.5386C12.5604 13.5386 12.762 13.4628 12.762 12.9699V6.24668C12.762 5.80436 12.7116 5.62743 12.17 5.70325C9.82745 6.08239 7.47229 6.4236 5.11712 6.72691C4.65113 6.80274 4.52518 6.95439 4.52518 7.39671C4.55037 9.25446 4.55037 11.0996 4.52518 12.9447C4.52518 13.4123 4.67632 13.5639 5.11712 13.5639Z" fill="#00AAF2"/>
</svg>
