<svg width="110" height="48" viewBox="0 0 110 48" fill="none" xmlns="http://www.w3.org/2000/svg">
<path d="M7.01932 19.1394C8.51907 19.1394 9.76483 19.9152 10.3575 20.7515V19.3455H12.6434V29.7818H10.9985C10.9126 29.7822 10.8275 29.7655 10.7481 29.7327C10.6687 29.6999 10.5966 29.6517 10.5359 29.5909C10.4752 29.53 10.4271 29.4577 10.3944 29.3782C10.3617 29.2986 10.345 29.2133 10.3454 29.1273V28.3758C9.76482 29.2242 8.51907 30 7.01932 30C4.16496 30 2 27.5515 2 24.5697C2 21.5879 4.16496 19.1394 7.01932 19.1394ZM7.43054 21.2242C5.58004 21.2242 4.32219 22.6909 4.32219 24.5697C4.32219 26.4485 5.56795 27.9152 7.43054 27.9152C9.28103 27.9152 10.5389 26.4485 10.5389 24.5697C10.5389 22.6909 9.29313 21.2242 7.43054 21.2242ZM15.2437 19.3455H17.5417V20.7636C18.1707 19.7212 19.356 19.1394 20.7106 19.1394C23.1295 19.1394 24.6897 20.8485 24.6897 23.503V29.7818H23.0449C22.959 29.7822 22.8739 29.7655 22.7945 29.7327C22.7151 29.6999 22.643 29.6517 22.5822 29.5909C22.5215 29.53 22.4734 29.4577 22.4407 29.3782C22.408 29.2986 22.3914 29.2133 22.3917 29.1273V23.8788C22.3917 22.2303 21.5572 21.2242 20.2268 21.2242C18.7028 21.2242 17.5417 22.4121 17.5417 24.6424V29.7818H15.8969C15.811 29.7822 15.7259 29.7655 15.6465 29.7327C15.5671 29.6999 15.495 29.6517 15.4343 29.5909C15.3735 29.53 15.3254 29.4577 15.2927 29.3782C15.26 29.2986 15.2434 29.2133 15.2437 29.1273V19.3455ZM31.5233 19.1394C33.023 19.1394 34.2688 19.9152 34.8614 20.7515V14.1333H37.1473V29.7939H35.5024C35.4166 29.7943 35.3315 29.7776 35.2521 29.7448C35.1727 29.7121 35.1005 29.6639 35.0398 29.603C34.9791 29.5422 34.931 29.4699 34.8983 29.3903C34.8656 29.3107 34.849 29.2254 34.8493 29.1394V28.3879C34.2688 29.2242 33.0109 30 31.5112 30C28.6568 30 26.4919 27.5515 26.4919 24.5697C26.5039 21.5879 28.6689 19.1394 31.5233 19.1394ZM31.9345 21.2242C30.084 21.2242 28.8261 22.6909 28.8261 24.5697C28.8261 26.4485 30.0719 27.9152 31.9345 27.9152C33.785 27.9152 35.0428 26.4485 35.0428 24.5697C35.0428 22.6909 33.785 21.2242 31.9345 21.2242ZM39.7477 19.3455H42.0336V21.2C42.2341 20.6294 42.6054 20.1347 43.0967 19.7833C43.588 19.4319 44.1755 19.2409 44.7791 19.2364C45.0795 19.2357 45.3792 19.2641 45.6741 19.3212V21.6848C45.3038 21.5597 44.9159 21.4942 44.5251 21.4909C43.2068 21.4909 42.0215 22.5939 42.0215 24.6909V29.7818H40.3766C40.2908 29.7822 40.2057 29.7655 40.1263 29.7327C40.0469 29.6999 39.9747 29.6517 39.914 29.5909C39.8533 29.53 39.8052 29.4577 39.7725 29.3782C39.7398 29.2986 39.7232 29.2133 39.7235 29.1273V19.3455H39.7477ZM51.8666 30C48.7825 30 46.4119 27.6 46.4119 24.5697C46.4119 21.5394 48.7825 19.1394 51.8666 19.1394C54.9508 19.1394 57.3214 21.5394 57.3214 24.5697C57.3214 27.6 54.9508 30 51.8666 30ZM51.8666 27.8667C53.705 27.8667 54.9871 26.4242 54.9871 24.5697C54.9871 22.7152 53.6929 21.2727 51.8666 21.2727C50.0161 21.2727 48.722 22.7152 48.722 24.5697C48.722 26.4242 50.0161 27.8667 51.8666 27.8667ZM60.3208 17.0667C59.9143 17.064 59.5251 16.901 59.2376 16.6129C58.9501 16.3248 58.7874 15.9347 58.7848 15.5273C58.792 15.1224 58.9565 14.7363 59.2434 14.451C59.5302 14.1658 59.9168 14.004 60.3208 14C60.7266 14 61.1158 14.1615 61.4027 14.4491C61.6896 14.7367 61.8508 15.1267 61.8508 15.5333C61.8508 15.94 61.6896 16.33 61.4027 16.6176C61.1158 16.9051 60.7266 17.0667 60.3208 17.0667ZM59.1839 19.3455H61.4698V29.7818H59.8371C59.7512 29.7822 59.6661 29.7655 59.5867 29.7327C59.5073 29.6999 59.4352 29.6517 59.3745 29.5909C59.3137 29.53 59.2656 29.4577 59.2329 29.3782C59.2002 29.2986 59.1836 29.2133 59.1839 29.1273V19.3455ZM68.3759 19.1394C69.8757 19.1394 71.1215 19.9152 71.7141 20.7515V14.1333H74V29.7939H72.3551C72.2692 29.7943 72.1842 29.7776 72.1048 29.7448C72.0254 29.7121 71.9532 29.6639 71.8925 29.603C71.8318 29.5422 71.7837 29.4699 71.751 29.3903C71.7183 29.3107 71.7016 29.2254 71.702 29.1394V28.3879C71.1214 29.2242 69.8636 30 68.3639 30C65.5095 30 63.3445 27.5515 63.3445 24.5697C63.3566 21.5879 65.5216 19.1394 68.3759 19.1394ZM68.7993 21.2242C66.9488 21.2242 65.6909 22.6909 65.6909 24.5697C65.6909 26.4485 66.9367 27.9152 68.7993 27.9152C70.6498 27.9152 71.9076 26.4485 71.9076 24.5697C71.9076 22.6909 70.6498 21.2242 68.7993 21.2242Z" fill="#222B45"/>
<path d="M100.455 25.9566C100.223 25.9566 99.9968 25.887 99.8044 25.7566C99.6119 25.6261 99.4619 25.4407 99.3734 25.2238C99.2848 25.0069 99.2616 24.7682 99.3068 24.538C99.3519 24.3077 99.4634 24.0962 99.627 23.9302C99.7907 23.7642 99.9992 23.6511 100.226 23.6053C100.453 23.5595 100.689 23.583 100.902 23.6729C101.116 23.7627 101.299 23.9149 101.428 24.1101C101.556 24.3053 101.625 24.5348 101.625 24.7696C101.625 25.0844 101.501 25.3863 101.282 25.6089C101.063 25.8315 100.765 25.9566 100.455 25.9566M87.5699 25.9566C87.3384 25.9566 87.1122 25.887 86.9197 25.7566C86.7273 25.6261 86.5773 25.4407 86.4887 25.2238C86.4002 25.0069 86.377 24.7682 86.4221 24.538C86.4673 24.3077 86.5787 24.0962 86.7424 23.9302C86.9061 23.7642 87.1146 23.6511 87.3416 23.6053C87.5686 23.5595 87.8039 23.583 88.0177 23.6729C88.2315 23.7627 88.4143 23.9149 88.5429 24.1101C88.6715 24.3053 88.7401 24.5348 88.7401 24.7696C88.7401 25.0844 88.6168 25.3863 88.3973 25.6089C88.1779 25.8315 87.8802 25.9566 87.5699 25.9566M100.869 18.8343L103.209 14.7414C103.241 14.6854 103.261 14.6236 103.269 14.5595C103.277 14.4955 103.273 14.4305 103.256 14.3683C103.239 14.306 103.21 14.2478 103.171 14.1969C103.132 14.146 103.083 14.1034 103.028 14.0717C102.972 14.0399 102.911 14.0195 102.848 14.0118C102.785 14.004 102.721 14.009 102.66 14.0264C102.598 14.0439 102.541 14.0734 102.491 14.1133C102.441 14.1533 102.399 14.2029 102.368 14.2592L100.003 18.4015C98.1253 17.5309 96.0833 17.0837 94.0183 17.0908C91.9508 17.0857 89.9061 17.5283 88.0209 18.3892L85.6561 14.2468C85.5927 14.1344 85.488 14.0519 85.3648 14.0176C85.2417 13.9832 85.1102 13.9997 84.999 14.0634C84.8878 14.1272 84.806 14.233 84.7715 14.3577C84.7371 14.4825 84.7527 14.616 84.815 14.7291L87.1432 18.8219C85.1301 19.9356 83.4227 21.5411 82.1754 23.4929C80.9281 25.4447 80.1804 27.6812 80 30H108C107.825 27.6828 107.081 25.447 105.835 23.4966C104.59 21.5462 102.882 19.9433 100.869 18.8343" fill="#3DDC84"/>
</svg>
