<svg width="29" height="28" viewBox="0 0 29 28" fill="none" xmlns="http://www.w3.org/2000/svg">
<path d="M25.4316 13.7315L15.4653 3.76518L14.4993 2.79999L3.56782 13.7315C3.21047 14.0899 3.21047 14.6699 3.56782 15.0275L10.422 21.8814L14.4993 25.9598L25.4316 15.0275C25.7892 14.6699 25.7892 14.0899 25.4316 13.7315ZM14.4993 17.8031L11.076 14.38L14.4993 10.9557L17.9234 14.38L14.4993 17.8031Z" fill="#2684FF"/>
<path d="M14.4992 10.9556C12.2579 8.71344 12.2465 5.08201 14.4753 2.82666L6.98242 10.3166L11.0608 14.395L14.4992 10.9556Z" fill="url(#paint0_linear_3529_72527)"/>
<path d="M17.9326 14.3702L14.499 17.803C15.5811 18.8841 16.1896 20.3515 16.1896 21.8814C16.1896 23.4113 15.5811 24.8777 14.499 25.9598L22.0099 18.4486L17.9326 14.3702Z" fill="url(#paint1_linear_3529_72527)"/>
<defs>
<linearGradient id="paint0_linear_3529_72527" x1="13.0277" y1="8.35288" x2="9.10696" y2="12.2726" gradientUnits="userSpaceOnUse">
<stop stop-color="#0052CC"/>
<stop offset="1" stop-color="#2684FF"/>
</linearGradient>
<linearGradient id="paint1_linear_3529_72527" x1="16.0129" y1="20.3686" x2="19.9257" y2="16.4558" gradientUnits="userSpaceOnUse">
<stop stop-color="#0052CC"/>
<stop offset="1" stop-color="#2684FF"/>
</linearGradient>
</defs>
</svg>
