<svg width="111" height="48" viewBox="0 0 111 48" fill="none" xmlns="http://www.w3.org/2000/svg">
<path d="M9.45838 22.225C9.47543 21.3346 9.84116 20.4864 10.477 19.8627C11.1127 19.239 11.9679 18.8897 12.8585 18.8897C13.7492 18.8897 14.6043 19.239 15.2401 19.8627C15.8759 20.4864 16.2416 21.3346 16.2587 22.225C16.2587 22.5524 16.1286 22.8664 15.8971 23.0979C15.6655 23.3294 15.3515 23.4594 15.0241 23.4594C14.6966 23.4594 14.3826 23.3294 14.1511 23.0979C13.9195 22.8664 13.7895 22.5524 13.7895 22.225C13.7895 21.9783 13.6915 21.7417 13.517 21.5672C13.3425 21.3927 13.1059 21.2947 12.8592 21.2947C12.6124 21.2947 12.3758 21.3927 12.2013 21.5672C12.0268 21.7417 11.9288 21.9783 11.9288 22.225C11.9288 22.5524 11.7988 22.8664 11.5672 23.0979C11.3357 23.3294 11.0217 23.4594 10.6942 23.4594C10.3668 23.4594 10.0528 23.3294 9.82123 23.0979C9.5897 22.8664 9.45962 22.5524 9.45962 22.225M23.5516 27.9435C23.5517 28.106 23.5199 28.2669 23.4578 28.417C23.3956 28.5672 23.3045 28.7036 23.1896 28.8185C23.0747 28.9334 22.9383 29.0245 22.7881 29.0866C22.6379 29.1487 22.477 29.1806 22.3145 29.1804H10.8563C10.5282 29.1804 10.2136 29.0501 9.98159 28.8181C9.74959 28.5862 9.61925 28.2715 9.61925 27.9435C9.61925 27.6154 9.74959 27.3008 9.98159 27.0688C10.2136 26.8368 10.5282 26.7065 10.8563 26.7065H22.3095C22.6374 26.7072 22.9517 26.8377 23.1835 27.0695C23.4154 27.3014 23.5459 27.6156 23.5466 27.9435M18.1929 22.9233C18.0105 22.6511 17.9436 22.3178 18.0067 21.9964C18.0698 21.6749 18.2579 21.3917 18.5296 21.2087L21.3892 19.2747C21.523 19.1787 21.6748 19.1104 21.8355 19.074C21.9961 19.0376 22.1625 19.0337 22.3247 19.0626C22.4869 19.0916 22.6417 19.1527 22.7798 19.2424C22.918 19.3321 23.0368 19.4486 23.1292 19.585C23.2217 19.7214 23.2858 19.8749 23.3179 20.0365C23.35 20.1981 23.3494 20.3645 23.3161 20.5258C23.2828 20.6872 23.2175 20.8402 23.1241 20.9759C23.0307 21.1116 22.911 21.2272 22.7722 21.3159L19.9039 23.25C19.7021 23.3899 19.4623 23.4647 19.2167 23.4644C19.0143 23.465 18.8148 23.416 18.6356 23.3216C18.4565 23.2273 18.3032 23.0905 18.1892 22.9233M26.032 30.5222C26.032 30.6379 26.0093 30.7526 25.965 30.8596C25.9207 30.9665 25.8557 31.0637 25.7739 31.1456L23.6451 33.2742C23.5632 33.356 23.466 33.421 23.359 33.4652C23.252 33.5095 23.1374 33.5323 23.0216 33.5323H9.97342C9.85762 33.5323 9.74296 33.5095 9.63597 33.4652C9.52899 33.421 9.43177 33.356 9.34988 33.2742L7.22985 31.1456C7.14798 31.0637 7.08305 30.9665 7.03876 30.8596C6.99447 30.7526 6.97168 30.6379 6.9717 30.5222V17.4866C6.97168 17.3708 6.99447 17.2561 7.03876 17.1492C7.08305 17.0422 7.14798 16.945 7.22985 16.8631L9.34988 14.7358C9.43177 14.6539 9.52899 14.589 9.63597 14.5447C9.74296 14.5004 9.85762 14.4777 9.97342 14.4777H23.0253C23.1411 14.4777 23.2558 14.5004 23.3628 14.5447C23.4698 14.589 23.567 14.6539 23.6489 14.7358L25.7776 16.8631C25.8595 16.945 25.9244 17.0422 25.9687 17.1492C26.013 17.2561 26.0358 17.3708 26.0358 17.4866L26.032 30.5222ZM27.8428 15.4416L25.063 12.6609C24.6426 12.24 24.0729 12.0025 23.478 12H9.52198C8.92677 12.0008 8.35606 12.2371 7.93445 12.6571L5.15721 15.4416C4.73719 15.8617 4.50085 16.4312 4.5 17.0252V30.9798C4.49993 31.2746 4.55794 31.5665 4.6707 31.8388C4.78347 32.1112 4.94878 32.3587 5.15721 32.5671L7.93445 35.3478C8.3571 35.7658 8.92756 36.0001 9.52198 36H23.478C24.0727 36.0015 24.6436 35.7669 25.0655 35.3478L27.8428 32.5671C28.0521 32.3593 28.218 32.112 28.3308 31.8395C28.4436 31.5669 28.5011 31.2747 28.5 30.9798V17.0302C28.5011 16.7352 28.4436 16.443 28.3308 16.1705C28.218 15.898 28.0521 15.6506 27.8428 15.4428" fill="#222B45"/>
<path d="M36.5743 19.1038C36.7025 19.2662 36.8628 19.4814 37.0551 19.7494C37.2554 20.0093 37.4597 20.3016 37.668 20.6264C37.8763 20.9432 38.0806 21.2761 38.281 21.6253C38.4893 21.9745 38.6655 22.3115 38.8098 22.6363H37.5358C37.3755 22.3277 37.1993 22.0151 37.007 21.6984C36.8227 21.3817 36.6344 21.0812 36.4421 20.797C36.2498 20.5046 36.0575 20.2326 35.8652 19.9809C35.6809 19.7291 35.5127 19.5099 35.3604 19.3231C35.2563 19.3312 35.1481 19.3353 35.0359 19.3353C34.9318 19.3353 34.8236 19.3353 34.7114 19.3353H33.6658V22.6363H32.5V14.3167C32.8285 14.2355 33.1931 14.1827 33.5937 14.1584C34.0023 14.1259 34.3749 14.1096 34.7114 14.1096C35.8812 14.1096 36.7706 14.3329 37.3796 14.7796C37.9965 15.2262 38.305 15.8921 38.305 16.7773C38.305 17.3376 38.1568 17.8167 37.8603 18.2146C37.5719 18.6125 37.1432 18.9089 36.5743 19.1038ZM34.8076 15.145C34.3108 15.145 33.9302 15.1572 33.6658 15.1816V18.3608H34.4951C34.8957 18.3608 35.2563 18.3405 35.5768 18.2999C35.8973 18.2593 36.1657 18.1821 36.382 18.0684C36.6064 17.9548 36.7786 17.7964 36.8988 17.5934C37.019 17.3823 37.0791 17.1061 37.0791 16.7651C37.0791 16.4484 37.019 16.1845 36.8988 15.9733C36.7786 15.7622 36.6144 15.5957 36.406 15.4739C36.2057 15.3521 35.9654 15.2668 35.6849 15.2181C35.4125 15.1694 35.1201 15.145 34.8076 15.145Z" fill="#222B45"/>
<path d="M39.593 18.4095C39.593 17.6868 39.6971 17.0493 39.9054 16.4971C40.1218 15.9449 40.4102 15.4861 40.7708 15.1206C41.1393 14.7471 41.564 14.4669 42.0447 14.2802C42.5335 14.0934 43.0503 14 43.5951 14C44.132 14 44.6368 14.0934 45.1095 14.2802C45.5902 14.4669 46.0109 14.7471 46.3715 15.1206C46.732 15.4861 47.0164 15.9449 47.2248 16.4971C47.4411 17.0493 47.5493 17.6868 47.5493 18.4095C47.5493 19.1323 47.4411 19.7697 47.2248 20.3219C47.0164 20.8741 46.732 21.337 46.3715 21.7106C46.0109 22.076 45.5902 22.3521 45.1095 22.5389C44.6368 22.7256 44.132 22.819 43.5951 22.819C43.0503 22.819 42.5335 22.7256 42.0447 22.5389C41.564 22.3521 41.1393 22.076 40.7708 21.7106C40.4102 21.337 40.1218 20.8741 39.9054 20.3219C39.6971 19.7697 39.593 19.1323 39.593 18.4095ZM40.8189 18.4095C40.8189 18.9211 40.8829 19.3881 41.0111 19.8103C41.1393 20.2245 41.3196 20.5777 41.552 20.8701C41.7924 21.1624 42.0808 21.3898 42.4173 21.5522C42.7619 21.7065 43.1465 21.7836 43.5711 21.7836C43.9958 21.7836 44.3764 21.7065 44.7129 21.5522C45.0494 21.3898 45.3338 21.1624 45.5662 20.8701C45.8066 20.5777 45.9909 20.2245 46.1191 19.8103C46.2473 19.3881 46.3114 18.9211 46.3114 18.4095C46.3114 17.8979 46.2473 17.435 46.1191 17.0209C45.9909 16.5986 45.8066 16.2413 45.5662 15.949C45.3338 15.6566 45.0494 15.4333 44.7129 15.279C44.3764 15.1166 43.9958 15.0354 43.5711 15.0354C43.1465 15.0354 42.7619 15.1166 42.4173 15.279C42.0808 15.4333 41.7924 15.6566 41.552 15.949C41.3196 16.2413 41.1393 16.5986 41.0111 17.0209C40.8829 17.435 40.8189 17.8979 40.8189 18.4095Z" fill="#222B45"/>
<path d="M51.5313 22.7094C51.363 22.7094 51.1787 22.7053 50.9784 22.6972C50.7861 22.6891 50.5898 22.6769 50.3895 22.6607C50.1972 22.6444 50.0049 22.6241 49.8126 22.5998C49.6203 22.5754 49.444 22.5429 49.2838 22.5023V14.3167C49.444 14.2761 49.6203 14.2436 49.8126 14.2193C50.0049 14.1949 50.1972 14.1746 50.3895 14.1584C50.5898 14.1421 50.7861 14.1299 50.9784 14.1218C51.1707 14.1137 51.351 14.1096 51.5193 14.1096C52 14.1096 52.4487 14.1462 52.8653 14.2193C53.29 14.2923 53.6546 14.4182 53.959 14.5969C54.2715 14.7674 54.5159 14.9948 54.6922 15.279C54.8685 15.5632 54.9566 15.9124 54.9566 16.3266C54.9566 16.7894 54.8484 17.1711 54.6321 17.4716C54.4157 17.7639 54.1273 17.9832 53.7667 18.1294C54.2555 18.2755 54.6441 18.507 54.9326 18.8237C55.221 19.1404 55.3652 19.587 55.3652 20.1636C55.3652 21.0081 55.0567 21.6456 54.4398 22.076C53.8308 22.4983 52.8613 22.7094 51.5313 22.7094ZM50.4376 18.7019V21.674C50.5257 21.6821 50.6299 21.6903 50.7501 21.6984C50.8542 21.7065 50.9744 21.7146 51.1106 21.7227C51.2549 21.7227 51.4191 21.7227 51.6034 21.7227C51.9479 21.7227 52.2724 21.7024 52.5769 21.6618C52.8894 21.6131 53.1618 21.5319 53.3942 21.4182C53.6265 21.3045 53.8108 21.1462 53.947 20.9432C54.0912 20.7401 54.1634 20.4843 54.1634 20.1758C54.1634 19.8997 54.1113 19.6682 54.0071 19.4814C53.903 19.2865 53.7507 19.1323 53.5504 19.0186C53.3581 18.9049 53.1258 18.8237 52.8533 18.7749C52.5809 18.7262 52.2764 18.7019 51.9399 18.7019H50.4376ZM50.4376 17.7517H51.6635C51.9519 17.7517 52.2244 17.7314 52.4808 17.6908C52.7372 17.6502 52.9575 17.5771 53.1418 17.4716C53.3341 17.366 53.4823 17.228 53.5865 17.0574C53.6986 16.8869 53.7547 16.6717 53.7547 16.4118C53.7547 16.1682 53.6986 15.9652 53.5865 15.8028C53.4743 15.6323 53.3181 15.4983 53.1177 15.4008C52.9254 15.2952 52.6971 15.2181 52.4327 15.1694C52.1683 15.1206 51.8878 15.0963 51.5914 15.0963C51.2949 15.0963 51.0626 15.1003 50.8943 15.1085C50.726 15.1166 50.5738 15.1288 50.4376 15.145V17.7517Z" fill="#222B45"/>
<path d="M56.6702 18.4095C56.6702 17.6868 56.7743 17.0493 56.9827 16.4971C57.199 15.9449 57.4874 15.4861 57.848 15.1206C58.2166 14.7471 58.6412 14.4669 59.122 14.2802C59.6107 14.0934 60.1275 14 60.6724 14C61.2092 14 61.714 14.0934 62.1867 14.2802C62.6675 14.4669 63.0881 14.7471 63.4487 15.1206C63.8092 15.4861 64.0937 15.9449 64.302 16.4971C64.5183 17.0493 64.6265 17.6868 64.6265 18.4095C64.6265 19.1323 64.5183 19.7697 64.302 20.3219C64.0937 20.8741 63.8092 21.337 63.4487 21.7106C63.0881 22.076 62.6675 22.3521 62.1867 22.5389C61.714 22.7256 61.2092 22.819 60.6724 22.819C60.1275 22.819 59.6107 22.7256 59.122 22.5389C58.6412 22.3521 58.2166 22.076 57.848 21.7106C57.4874 21.337 57.199 20.8741 56.9827 20.3219C56.7743 19.7697 56.6702 19.1323 56.6702 18.4095ZM57.8961 18.4095C57.8961 18.9211 57.9602 19.3881 58.0884 19.8103C58.2166 20.2245 58.3969 20.5777 58.6292 20.8701C58.8696 21.1624 59.158 21.3898 59.4946 21.5522C59.8391 21.7065 60.2237 21.7836 60.6483 21.7836C61.073 21.7836 61.4536 21.7065 61.7901 21.5522C62.1266 21.3898 62.4111 21.1624 62.6434 20.8701C62.8838 20.5777 63.0681 20.2245 63.1963 19.8103C63.3245 19.3881 63.3886 18.9211 63.3886 18.4095C63.3886 17.8979 63.3245 17.435 63.1963 17.0209C63.0681 16.5986 62.8838 16.2413 62.6434 15.949C62.4111 15.6566 62.1266 15.4333 61.7901 15.279C61.4536 15.1166 61.073 15.0354 60.6483 15.0354C60.2237 15.0354 59.8391 15.1166 59.4946 15.279C59.158 15.4333 58.8696 15.6566 58.6292 15.949C58.3969 16.2413 58.2166 16.5986 58.0884 17.0209C57.9602 17.435 57.8961 17.8979 57.8961 18.4095Z" fill="#222B45"/>
<path d="M71.597 14.1949V15.2181H68.977V22.6363H67.8111V15.2181H65.1911V14.1949H71.597Z" fill="#222B45"/>
<path d="M32.5 34.8173V26.3759H37.5238V27.3869H33.6658V29.9327H37.0911V30.9316H33.6658V34.8173H32.5Z" fill="#222B45"/>
<path d="M43.0296 31.2848C43.1578 31.4472 43.3181 31.6624 43.5104 31.9304C43.7107 32.1903 43.915 32.4826 44.1233 32.8074C44.3316 33.1241 44.536 33.4571 44.7363 33.8063C44.9446 34.1555 45.1209 34.4925 45.2651 34.8173H43.9911C43.8309 34.5087 43.6546 34.1961 43.4623 33.8794C43.278 33.5626 43.0897 33.2622 42.8974 32.978C42.7051 32.6856 42.5128 32.4136 42.3205 32.1618C42.1362 31.9101 41.968 31.6908 41.8157 31.5041C41.7116 31.5122 41.6034 31.5162 41.4912 31.5162C41.3871 31.5162 41.2789 31.5162 41.1667 31.5162H40.1211V34.8173H38.9553V26.4977C39.2838 26.4165 39.6484 26.3637 40.049 26.3393C40.4576 26.3068 40.8302 26.2906 41.1667 26.2906C42.3365 26.2906 43.2259 26.5139 43.8349 26.9606C44.4518 27.4072 44.7603 28.0731 44.7603 28.9582C44.7603 29.5186 44.6121 29.9977 44.3156 30.3956C44.0272 30.7935 43.5985 31.0899 43.0296 31.2848ZM41.2629 27.326C40.7661 27.326 40.3855 27.3382 40.1211 27.3625V30.5418H40.9504C41.351 30.5418 41.7116 30.5215 42.0321 30.4809C42.3526 30.4403 42.621 30.3631 42.8373 30.2494C43.0617 30.1357 43.2339 29.9774 43.3541 29.7744C43.4743 29.5632 43.5344 29.2871 43.5344 28.9461C43.5344 28.6293 43.4743 28.3654 43.3541 28.1543C43.2339 27.9432 43.0697 27.7767 42.8614 27.6549C42.661 27.5331 42.4207 27.4478 42.1402 27.3991C41.8678 27.3503 41.5754 27.326 41.2629 27.326Z" fill="#222B45"/>
<path d="M52.4189 34.8173C52.2827 34.4519 52.1545 34.0945 52.0343 33.7454C51.9141 33.3881 51.7899 33.0267 51.6617 32.6613H47.8879L47.1307 34.8173H45.9168C46.2373 33.924 46.5378 33.0998 46.8182 32.3445C47.0986 31.5812 47.3711 30.8585 47.6355 30.1763C47.9079 29.4942 48.1763 28.8445 48.4407 28.2274C48.7051 27.6021 48.9816 26.9849 49.27 26.3759H50.3397C50.6281 26.9849 50.9045 27.6021 51.1689 28.2274C51.4333 28.8445 51.6978 29.4942 51.9622 30.1763C52.2346 30.8585 52.511 31.5812 52.7915 32.3445C53.0719 33.0998 53.3724 33.924 53.6929 34.8173H52.4189ZM51.3252 31.6868C51.0688 30.9803 50.8124 30.2981 50.556 29.6404C50.3076 28.9745 50.0472 28.337 49.7748 27.728C49.4943 28.337 49.2259 28.9745 48.9695 29.6404C48.7212 30.2981 48.4728 30.9803 48.2244 31.6868H51.3252Z" fill="#222B45"/>
<path d="M58.5614 33.6479C58.4813 33.453 58.3731 33.2053 58.2369 32.9049C58.1087 32.6044 57.9685 32.2796 57.8163 31.9304C57.664 31.5812 57.4998 31.2239 57.3235 30.8585C57.1552 30.4849 56.995 30.1357 56.8428 29.8109C56.6905 29.478 56.5463 29.1816 56.4101 28.9217C56.2819 28.6618 56.1777 28.4629 56.0976 28.3248C56.0095 29.2831 55.9374 30.3225 55.8813 31.4432C55.8252 32.5557 55.7771 33.6804 55.737 34.8173H54.5953C54.6273 34.0864 54.6634 33.3515 54.7034 32.6125C54.7435 31.8654 54.7876 31.1346 54.8357 30.42C54.8917 29.6972 54.9478 28.9948 55.0039 28.3126C55.068 27.6305 55.1361 26.9849 55.2082 26.3759H56.2298C56.4461 26.7332 56.6785 27.1555 56.9269 27.6427C57.1753 28.1299 57.4237 28.6415 57.672 29.1775C57.9204 29.7053 58.1608 30.2372 58.3932 30.7732C58.6255 31.301 58.8378 31.7842 59.0301 32.2227C59.2224 31.7842 59.4348 31.301 59.6671 30.7732C59.8995 30.2372 60.1399 29.7053 60.3883 29.1775C60.6366 28.6415 60.885 28.1299 61.1334 27.6427C61.3818 27.1555 61.6141 26.7332 61.8305 26.3759H62.8521C63.1245 29.0963 63.3288 31.9101 63.465 34.8173H62.3232C62.2832 33.6804 62.2351 32.5557 62.179 31.4432C62.1229 30.3225 62.0508 29.2831 61.9627 28.3248C61.8826 28.4629 61.7744 28.6618 61.6382 28.9217C61.51 29.1816 61.3698 29.478 61.2175 29.8109C61.0653 30.1357 60.901 30.4849 60.7248 30.8585C60.5565 31.2239 60.3963 31.5812 60.244 31.9304C60.0918 32.2796 59.9476 32.6044 59.8114 32.9049C59.6832 33.2053 59.579 33.453 59.4989 33.6479H58.5614Z" fill="#222B45"/>
<path d="M65.293 34.8173V26.3759H70.3768V27.3869H66.4588V29.8962H69.9442V30.8828H66.4588V33.8063H70.6773V34.8173H65.293Z" fill="#222B45"/>
<path d="M76.7141 29.0922C76.3776 30.1804 76.0371 31.1874 75.6925 32.1131C75.348 33.0389 75.0035 33.9403 74.6589 34.8173H73.4931C73.0685 33.5748 72.6919 32.2633 72.3634 30.8828C72.0429 29.5023 71.7424 28 71.462 26.3759H72.6879C72.8001 27.0093 72.9162 27.6427 73.0364 28.2761C73.1566 28.9095 73.2808 29.5267 73.409 30.1276C73.5372 30.7204 73.6654 31.2889 73.7936 31.8329C73.9218 32.377 74.054 32.8805 74.1902 33.3434C74.5107 32.4907 74.8512 31.5568 75.2118 30.5418C75.5724 29.5186 75.9089 28.4629 76.2214 27.3747H77.2309C77.5434 28.4629 77.8839 29.5186 78.2525 30.5418C78.6211 31.5568 78.9656 32.4907 79.2861 33.3434C79.4143 32.8886 79.5425 32.3892 79.6707 31.8451C79.7989 31.301 79.9231 30.7326 80.0433 30.1398C80.1715 29.5389 80.2957 28.9217 80.4159 28.2883C80.536 27.6468 80.6522 27.0093 80.7644 26.3759H81.9542C81.6658 28 81.3573 29.5023 81.0288 30.8828C80.7083 32.2633 80.3397 33.5748 79.9231 34.8173H78.7573C78.4047 33.9403 78.0602 33.0389 77.7237 32.1131C77.3872 31.1874 77.0506 30.1804 76.7141 29.0922Z" fill="#222B45"/>
<path d="M82.7966 30.5905C82.7966 29.8678 82.9007 29.2303 83.1091 28.6781C83.3254 28.1259 83.6138 27.6671 83.9744 27.3016C84.343 26.9281 84.7676 26.6479 85.2484 26.4611C85.7371 26.2744 86.2539 26.181 86.7988 26.181C87.3356 26.181 87.8404 26.2744 88.3131 26.4611C88.7939 26.6479 89.2145 26.9281 89.5751 27.3016C89.9356 27.6671 90.2201 28.1259 90.4284 28.6781C90.6447 29.2303 90.7529 29.8678 90.7529 30.5905C90.7529 31.3132 90.6447 31.9507 90.4284 32.5029C90.2201 33.0551 89.9356 33.518 89.5751 33.8915C89.2145 34.257 88.7939 34.5331 88.3131 34.7198C87.8404 34.9066 87.3356 35 86.7988 35C86.2539 35 85.7371 34.9066 85.2484 34.7198C84.7676 34.5331 84.343 34.257 83.9744 33.8915C83.6138 33.518 83.3254 33.0551 83.1091 32.5029C82.9007 31.9507 82.7966 31.3132 82.7966 30.5905ZM84.0225 30.5905C84.0225 31.1021 84.0866 31.569 84.2148 31.9913C84.343 32.4055 84.5232 32.7587 84.7556 33.051C84.996 33.3434 85.2844 33.5708 85.6209 33.7332C85.9655 33.8875 86.3501 33.9646 86.7747 33.9646C87.1994 33.9646 87.58 33.8875 87.9165 33.7332C88.253 33.5708 88.5375 33.3434 88.7698 33.051C89.0102 32.7587 89.1945 32.4055 89.3227 31.9913C89.4509 31.569 89.515 31.1021 89.515 30.5905C89.515 30.0789 89.4509 29.616 89.3227 29.2019C89.1945 28.7796 89.0102 28.4223 88.7698 28.1299C88.5375 27.8376 88.253 27.6143 87.9165 27.46C87.58 27.2976 87.1994 27.2164 86.7747 27.2164C86.3501 27.2164 85.9655 27.2976 85.6209 27.46C85.2844 27.6143 84.996 27.8376 84.7556 28.1299C84.5232 28.4223 84.343 28.7796 84.2148 29.2019C84.0866 29.616 84.0225 30.0789 84.0225 30.5905Z" fill="#222B45"/>
<path d="M96.5617 31.2848C96.6899 31.4472 96.8502 31.6624 97.0425 31.9304C97.2428 32.1903 97.4471 32.4826 97.6554 32.8074C97.8638 33.1241 98.0681 33.4571 98.2684 33.8063C98.4767 34.1555 98.653 34.4925 98.7972 34.8173H97.5232C97.363 34.5087 97.1867 34.1961 96.9944 33.8794C96.8101 33.5626 96.6218 33.2622 96.4295 32.978C96.2372 32.6856 96.0449 32.4136 95.8526 32.1618C95.6683 31.9101 95.5001 31.6908 95.3479 31.5041C95.2437 31.5122 95.1355 31.5162 95.0233 31.5162C94.9192 31.5162 94.811 31.5162 94.6988 31.5162H93.6532V34.8173H92.4874V26.4977C92.8159 26.4165 93.1805 26.3637 93.5811 26.3393C93.9897 26.3068 94.3623 26.2906 94.6988 26.2906C95.8687 26.2906 96.758 26.5139 97.367 26.9606C97.9839 27.4072 98.2924 28.0731 98.2924 28.9582C98.2924 29.5186 98.1442 29.9977 97.8477 30.3956C97.5593 30.7935 97.1306 31.0899 96.5617 31.2848ZM94.795 27.326C94.2982 27.326 93.9176 27.3382 93.6532 27.3625V30.5418H94.4825C94.8831 30.5418 95.2437 30.5215 95.5642 30.4809C95.8847 30.4403 96.1531 30.3631 96.3694 30.2494C96.5938 30.1357 96.7661 29.9774 96.8862 29.7744C97.0064 29.5632 97.0665 29.2871 97.0665 28.9461C97.0665 28.6293 97.0064 28.3654 96.8862 28.1543C96.7661 27.9432 96.6018 27.7767 96.3935 27.6549C96.1932 27.5331 95.9528 27.4478 95.6724 27.3991C95.3999 27.3503 95.1075 27.326 94.795 27.326Z" fill="#222B45"/>
<path d="M106.212 26.3759C105.963 26.652 105.683 26.9606 105.37 27.3016C105.058 27.6346 104.729 27.9797 104.385 28.337C104.048 28.6862 103.712 29.0313 103.375 29.3724C103.039 29.7135 102.722 30.0302 102.426 30.3225C102.77 30.5661 103.135 30.8666 103.519 31.2239C103.904 31.5812 104.281 31.9629 104.649 32.3689C105.018 32.7749 105.362 33.1891 105.683 33.6114C106.011 34.0336 106.284 34.4356 106.5 34.8173H105.13C104.89 34.4356 104.613 34.0539 104.301 33.6723C103.988 33.2825 103.656 32.913 103.303 32.5638C102.959 32.2065 102.606 31.8776 102.245 31.5771C101.893 31.2767 101.548 31.0209 101.212 30.8097V34.8173H100.046V26.3759H101.212V30.1032C101.492 29.8353 101.801 29.5348 102.137 29.2019C102.474 28.8608 102.806 28.5197 103.135 28.1787C103.463 27.8376 103.772 27.5128 104.06 27.2042C104.357 26.8875 104.605 26.6114 104.805 26.3759H106.212Z" fill="#222B45"/>
</svg>
