<svg width="111" height="48" viewBox="0 0 111 48" fill="none" xmlns="http://www.w3.org/2000/svg">
<path fill-rule="evenodd" clip-rule="evenodd" d="M70.6853 16.6305C70.6853 25.2631 63.4806 32.2611 54.5932 32.2611C52.7391 32.2611 50.9583 31.9566 49.3008 31.3961C51.4444 32.423 53.8573 32.9998 56.409 32.9998C65.2965 32.9998 72.5011 26.0018 72.5011 17.3692C72.5011 10.5375 67.989 4.72949 61.7014 2.60352C67.0238 5.15304 70.6853 10.4764 70.6853 16.6305Z" fill="#607D8B"/>
<path fill-rule="evenodd" clip-rule="evenodd" d="M57.9214 1.33493C56.8472 1.11543 55.7335 1 54.5921 1C51.214 1 48.079 2.01106 45.4904 3.73863C48.0914 2.74465 51.358 2.62764 55.2048 3.85643L55.4355 3.93014L54.7564 5.23881L54.5848 5.18816C50.4524 3.9682 47.1852 4.75939 44.9253 6.55297C42.6579 8.35257 41.3815 11.1798 41.2806 14.0657C41.1797 16.9501 42.2535 19.8725 44.6582 21.8685C47.0345 23.8409 51.1852 24.8215 56.4195 24.0409L56.3885 24.3623L56.3077 25.8986L56.1374 25.9238C49.8973 26.8445 45.3971 25.5336 42.4935 23.1157C40.1251 21.1435 38.8378 18.4504 38.5293 15.6789C38.5099 15.9937 38.5 16.3111 38.5 16.6307C38.5 25.2632 45.7047 32.2613 54.5921 32.2613C63.4795 32.2613 70.6842 25.2632 70.6842 16.6307C70.6842 10.7832 67.3785 5.6857 62.4832 3.00516L53.5922 22.4082L45.126 11.2955L45.4551 9.31009L52.0429 16.8523L57.9214 1.33493ZM58.3369 1.42546L52.1898 17.6517L45.727 10.2525L45.5711 11.1927L53.5004 21.6008L62.1118 2.80801C60.9328 2.2016 59.6669 1.73335 58.3369 1.42546ZM38.8909 13.8223C38.9061 13.4912 38.9352 13.1611 38.9782 12.8331C39.7605 9.78898 41.4615 7.0982 43.7787 5.05479C46.4489 3.34844 50.1748 2.73567 54.8399 4.16808L54.5372 4.75141C50.3633 3.56744 47.0045 4.37679 44.6555 6.24111C42.2819 8.12497 40.9624 11.0677 40.858 14.052C40.7536 17.0378 41.865 20.0858 44.3814 22.1744C46.8604 24.232 50.6732 25.3344 55.9534 24.5651L55.9026 25.5482C49.8434 26.4067 45.5331 25.1103 42.7707 22.8101C39.9799 20.4863 38.7407 17.1145 38.8909 13.8223ZM60.5772 13.9628C61.0559 13.7596 61.6053 13.6556 62.2293 13.6556C62.8657 13.6556 63.4108 13.7599 63.8702 13.9617L63.8706 13.9619C64.335 14.1648 64.6884 14.4432 64.9394 14.7949C65.1521 15.093 65.2787 15.4326 65.3166 15.8181H63.9169C63.8462 15.5133 63.6793 15.2619 63.4146 15.0752C63.1032 14.8556 62.6964 14.757 62.2163 14.757C61.8911 14.757 61.6032 14.8008 61.3595 14.8966C61.1199 14.9879 60.9235 15.1204 60.783 15.2999L60.7822 15.3009L60.7814 15.3019C60.6449 15.4808 60.5764 15.6853 60.5756 15.9087C60.5692 16.0936 60.6101 16.2659 60.7064 16.4173L60.7074 16.4188L60.7084 16.4203C60.8012 16.5606 60.926 16.6787 61.0781 16.7758L61.0795 16.7767L61.0808 16.7776C61.226 16.8671 61.3906 16.944 61.5733 17.0093L61.5748 17.0098L61.5763 17.0103C61.7555 17.0714 61.9458 17.1235 62.1469 17.1667L62.9462 17.3497L62.9477 17.3501C63.3237 17.4307 63.6663 17.5377 63.9764 17.6703C64.2833 17.8015 64.5453 17.9613 64.7648 18.1484C64.9805 18.3324 65.1466 18.548 65.2647 18.7967L65.265 18.7975L65.2654 18.7983C65.3837 19.0422 65.447 19.3273 65.4499 19.6578C65.447 20.1433 65.3181 20.5543 65.0701 20.8993L65.0699 20.8995C64.824 21.2429 64.4645 21.5158 63.9799 21.7141C63.5 21.9089 62.9113 22.0101 62.2076 22.0101C61.5106 22.0101 60.9136 21.9077 60.4119 21.7093C59.916 21.512 59.5358 21.2236 59.2627 20.8455C59.0276 20.514 58.8859 20.1075 58.8457 19.6187H60.2559C60.298 19.8583 60.3881 20.0718 60.5313 20.2538L60.5323 20.2551L60.5334 20.2564C60.7122 20.4762 60.9483 20.6396 61.2345 20.7487L61.2359 20.7492L61.2372 20.7497C61.5229 20.8542 61.8401 20.9045 62.1859 20.9045C62.5242 20.9045 62.8282 20.8575 63.093 20.7573C63.3578 20.6582 63.5753 20.5157 63.7333 20.324C63.8936 20.1294 63.9742 19.9033 63.9742 19.6534C63.9742 19.419 63.9003 19.2096 63.7448 19.0385C63.6014 18.8774 63.3998 18.7508 63.155 18.6515C62.9182 18.5543 62.6329 18.468 62.3015 18.3915L62.3006 18.3913L61.333 18.1585L61.3322 18.1583C60.6053 17.989 60.0477 17.7278 59.6463 17.3843C59.2631 17.0564 59.0669 16.614 59.0695 16.034L59.0695 16.033L59.0695 16.032C59.0668 15.5551 59.1985 15.1471 59.4595 14.7993C59.7276 14.4461 60.0975 14.1665 60.5772 13.9628ZM62.2293 13.2506C61.5558 13.2506 60.9467 13.363 60.4059 13.5926C59.8664 13.8216 59.4341 14.1439 59.1172 14.5617L59.1166 14.5624C58.7988 14.9856 58.6438 15.4787 58.6467 16.0332C58.6438 16.7122 58.8792 17.271 59.3646 17.6863C59.8318 18.0861 60.4586 18.3715 61.2315 18.5516L61.2308 18.5515L61.2822 18.3551L61.2323 18.5518L62.2005 18.7847L62.2015 18.785C62.5183 18.8581 62.7799 18.9381 62.9888 19.0239L62.9897 19.0243C63.196 19.1078 63.3357 19.2028 63.4237 19.3019L63.4246 19.3029L63.4254 19.3038C63.5069 19.3933 63.5514 19.5053 63.5514 19.6534C63.5514 19.8141 63.5017 19.9514 63.4014 20.073C63.2989 20.1975 63.1486 20.3018 62.9388 20.3802L62.9379 20.3805C62.7336 20.4578 62.4846 20.4995 62.1859 20.4995C61.8834 20.4995 61.619 20.4557 61.3895 20.3719C61.1672 20.287 60.9957 20.1653 60.8679 20.0088C60.7471 19.8546 60.6727 19.656 60.6547 19.4025L60.6413 19.2137H58.4073L58.4122 19.4208C58.4274 20.0643 58.5907 20.619 58.9136 21.0739L58.914 21.0745L58.9145 21.0752C59.238 21.5235 59.6859 21.859 60.2498 22.0833L60.2501 22.0834C60.8141 22.3066 61.4682 22.415 62.2076 22.415C62.9518 22.415 63.5998 22.3082 64.1451 22.0869L64.1456 22.0867C64.6918 21.8633 65.12 21.5454 65.4185 21.1287C65.7205 20.7085 65.8696 20.2156 65.8727 19.6586L65.8727 19.6573L65.8727 19.656C65.8696 19.2772 65.7969 18.9333 65.6492 18.6284C65.5066 18.3281 65.305 18.0669 65.0459 17.846C64.7905 17.6281 64.4907 17.4467 64.1488 17.3005C63.8105 17.1558 63.4412 17.041 63.0416 16.9552L62.2422 16.7721L62.2407 16.7718C62.0548 16.7319 61.8812 16.6844 61.7195 16.6293C61.5618 16.5729 61.4262 16.5088 61.3113 16.438C61.204 16.3693 61.1239 16.2913 61.0665 16.205C61.0193 16.1302 60.9938 16.0379 60.9982 15.9198L60.9984 15.9161V15.9124C60.9984 15.7716 61.0396 15.6503 61.122 15.5419C61.2071 15.4336 61.3344 15.3419 61.5167 15.2725L61.5178 15.2721L61.519 15.2716C61.6978 15.2012 61.9279 15.162 62.2163 15.162C62.6398 15.162 62.9483 15.2492 63.164 15.4014C63.3753 15.5504 63.4971 15.7571 63.5264 16.0406L63.5453 16.2231H65.7545L65.751 16.0173C65.7417 15.4736 65.589 14.9876 65.2884 14.5664C64.9891 14.147 64.5723 13.8234 64.0462 13.5936C63.5209 13.3627 62.9134 13.2506 62.2293 13.2506ZM65.4185 21.1287L65.4184 21.1289L65.2442 21.0141L65.4185 21.1287ZM60.8679 20.0088L60.8689 20.0101L60.7001 20.1319L60.8668 20.0074L60.8679 20.0088ZM61.3895 20.3719L61.3908 20.3724L61.3127 20.5605L61.3881 20.3714L61.3895 20.3719ZM58.6467 16.0332L58.6467 16.0322L58.8581 16.0331L58.6467 16.0342L58.6467 16.0332Z" fill="#FFE680"/>
<path fill-rule="evenodd" clip-rule="evenodd" d="M60.5753 13.963C61.054 13.7598 61.6033 13.6558 62.2273 13.6558C62.8638 13.6558 63.4089 13.76 63.8682 13.9619L63.8686 13.9621C64.333 14.165 64.6865 14.4434 64.9374 14.7951C65.1501 15.0932 65.2767 15.4328 65.3146 15.8183H63.9149C63.8442 15.5134 63.6773 15.262 63.4127 15.0754C63.1013 14.8558 62.6944 14.7572 62.2143 14.7572C61.8892 14.7572 61.6013 14.801 61.3575 14.8967C61.118 14.9881 60.9215 15.1206 60.781 15.3001L60.7802 15.3011L60.7794 15.3021C60.643 15.4809 60.5744 15.6854 60.5736 15.9089C60.5672 16.0938 60.6081 16.2661 60.7045 16.4175L60.7054 16.419L60.7064 16.4205C60.7993 16.5607 60.924 16.6789 61.0761 16.776L61.0775 16.7769L61.0789 16.7777C61.224 16.8673 61.3886 16.9442 61.5713 17.0095L61.5728 17.01L61.5743 17.0105C61.7536 17.0716 61.9438 17.1236 62.1449 17.1668L62.9442 17.3499L62.9457 17.3502C63.3217 17.4308 63.6643 17.5378 63.9744 17.6704C64.2813 17.8016 64.5434 17.9614 64.7628 18.1486C64.9785 18.3325 65.1447 18.5482 65.2627 18.7969L65.2631 18.7977L65.2634 18.7984C65.3818 19.0423 65.4451 19.3274 65.4479 19.658C65.445 20.1434 65.3161 20.5544 65.0681 20.8994L65.068 20.8997C64.822 21.243 64.4626 21.516 63.9779 21.7143C63.498 21.909 62.9093 22.0102 62.2056 22.0102C61.5086 22.0102 60.9117 21.9079 60.4099 21.7094C59.914 21.5122 59.5338 21.2237 59.2608 20.8457C59.0256 20.5141 58.884 20.1077 58.8438 19.6188H60.2539C60.296 19.8585 60.3862 20.072 60.5293 20.2539L60.5304 20.2553L60.5314 20.2566C60.7102 20.4763 60.9463 20.6398 61.2326 20.7488L61.2339 20.7493L61.2352 20.7498C61.5209 20.8544 61.8382 20.9047 62.1839 20.9047C62.5222 20.9047 62.8262 20.8576 63.091 20.7574C63.3559 20.6584 63.5733 20.5158 63.7313 20.3241C63.8917 20.1295 63.9723 19.9034 63.9723 19.6535C63.9723 19.4192 63.8983 19.2097 63.7429 19.0386C63.5994 18.8776 63.3978 18.7509 63.153 18.6517C62.9162 18.5545 62.6309 18.4682 62.2995 18.3916L62.2986 18.3914L61.331 18.1587L61.3302 18.1585C60.6033 17.9891 60.0458 17.728 59.6443 17.3845C59.2611 17.0565 59.0649 16.6142 59.0676 16.0341L59.0676 16.0331L59.0676 16.0322C59.0649 15.5553 59.1965 15.1472 59.4576 14.7995C59.7256 14.4463 60.0956 14.1666 60.5753 13.963ZM60.6993 20.1312C60.6993 20.1312 60.6993 20.1312 60.6993 20.1312L60.6981 20.1321L60.6993 20.1312ZM61.3109 20.5601C61.3109 20.5601 61.3109 20.5601 61.3109 20.5601L61.3107 20.5607L61.3109 20.5601Z" fill="#607D8B"/>
<path fill-rule="evenodd" clip-rule="evenodd" d="M55.9536 24.565L55.9027 25.548C49.8436 26.4065 45.5332 25.1102 42.7709 22.81C39.9801 20.4861 38.7408 17.1144 38.8911 13.8222C39.0414 10.5286 40.5816 7.33287 43.3253 5.36206C46.0205 3.42618 49.9046 2.65255 54.84 4.16795L54.5373 4.75128C50.3635 3.56731 47.0046 4.37666 44.6556 6.24098C42.282 8.12484 40.9625 11.0675 40.8582 14.0518C40.7537 17.0377 41.8652 20.0857 44.3815 22.1743C46.8605 24.2319 50.6733 25.3343 55.9536 24.565Z" fill="#607D8B"/>
<path fill-rule="evenodd" clip-rule="evenodd" d="M52.1929 17.6515L58.4372 1.16895L62.8875 1.12207L53.5035 21.6007L45.5742 11.1926L45.7301 10.2523L52.1929 17.6515Z" fill="#607D8B"/>
<path d="M31.8931 45.231C31.3648 45.231 30.8907 45.1478 30.4708 44.9813C30.0509 44.8148 29.6954 44.572 29.4041 44.2529C29.1129 43.9268 28.8894 43.5314 28.7337 43.0666C28.5779 42.6018 28.5 42.0676 28.5 41.4641C28.5 40.8606 28.588 40.3264 28.7641 39.8616C28.947 39.3968 29.1942 39.0049 29.5057 38.6857C29.8173 38.3597 30.183 38.1134 30.6029 37.9469C31.0228 37.7804 31.4732 37.6972 31.954 37.6972C32.2452 37.6972 32.5094 37.7215 32.7464 37.77C32.9835 37.8117 33.19 37.8602 33.3661 37.9157C33.5422 37.9712 33.6878 38.0302 33.8029 38.0926C33.9181 38.155 33.9993 38.2001 34.0467 38.2279L33.6709 39.2997C33.5083 39.1956 33.2747 39.0985 32.9699 39.0083C32.6719 38.9112 32.3468 38.8626 31.9947 38.8626C31.6899 38.8626 31.4054 38.9181 31.1413 39.0291C30.8772 39.1332 30.6469 39.2928 30.4505 39.5078C30.2609 39.7229 30.1119 39.9934 30.0035 40.3195C29.8952 40.6455 29.841 41.0236 29.841 41.4537C29.841 41.8352 29.8816 42.1856 29.9629 42.5047C30.0509 42.8238 30.183 43.1013 30.3591 43.3371C30.5352 43.5661 30.7587 43.7464 31.0296 43.8783C31.3005 44.0031 31.6255 44.0656 32.0048 44.0656C32.4586 44.0656 32.8277 44.0205 33.1121 43.9303C33.3966 43.8332 33.6167 43.743 33.7725 43.6597L34.1179 44.7315C34.0366 44.787 33.9248 44.8425 33.7826 44.898C33.6472 44.9535 33.4846 45.009 33.295 45.0645C33.1054 45.1131 32.892 45.1512 32.655 45.179C32.4179 45.2137 32.164 45.231 31.8931 45.231Z" fill="#607D8B"/>
<path d="M39.8576 42.3486C39.8576 42.7787 39.7967 43.1707 39.6748 43.5245C39.5529 43.8783 39.3802 44.18 39.1567 44.4298C38.9332 44.6795 38.6623 44.8737 38.344 45.0125C38.0324 45.1512 37.687 45.2206 37.3077 45.2206C36.9285 45.2206 36.5831 45.1512 36.2715 45.0125C35.96 44.8737 35.6925 44.6795 35.469 44.4298C35.2455 44.18 35.0694 43.8783 34.9407 43.5245C34.8188 43.1707 34.7579 42.7787 34.7579 42.3486C34.7579 41.9185 34.8188 41.53 34.9407 41.1831C35.0694 40.8293 35.2455 40.5276 35.469 40.2778C35.6993 40.0281 35.9702 39.8373 36.2817 39.7055C36.5932 39.5668 36.9353 39.4974 37.3077 39.4974C37.6802 39.4974 38.0223 39.5668 38.3338 39.7055C38.6521 39.8373 38.923 40.0281 39.1465 40.2778C39.37 40.5276 39.5427 40.8293 39.6646 41.1831C39.7933 41.53 39.8576 41.9185 39.8576 42.3486ZM38.5979 42.3486C38.5979 41.8075 38.4828 41.3809 38.2525 41.0687C38.029 40.7496 37.7141 40.59 37.3077 40.59C36.9014 40.59 36.5831 40.7496 36.3528 41.0687C36.1293 41.3809 36.0176 41.8075 36.0176 42.3486C36.0176 42.8966 36.1293 43.3302 36.3528 43.6493C36.5831 43.9684 36.9014 44.128 37.3077 44.128C37.7141 44.128 38.029 43.9684 38.2525 43.6493C38.4828 43.3302 38.5979 42.8966 38.5979 42.3486Z" fill="#607D8B"/>
<path d="M42.0891 42.3382C42.0891 42.8932 42.2178 43.3302 42.4751 43.6493C42.7325 43.9615 43.088 44.1176 43.5418 44.1176C43.7382 44.1176 43.9041 44.1106 44.0396 44.0968C44.1818 44.076 44.2969 44.0552 44.385 44.0343V40.9126C44.2766 40.8363 44.131 40.7669 43.9482 40.7045C43.7721 40.6351 43.5824 40.6004 43.3793 40.6004C42.9323 40.6004 42.6038 40.7565 42.3939 41.0687C42.1907 41.3809 42.0891 41.804 42.0891 42.3382ZM45.6142 44.9084C45.3704 44.9847 45.0623 45.0541 44.6898 45.1165C44.324 45.179 43.938 45.2102 43.5316 45.2102C43.1117 45.2102 42.7359 45.1443 42.404 45.0125C42.0722 44.8807 41.7877 44.6934 41.5507 44.4506C41.3204 44.2008 41.1409 43.9025 41.0122 43.5557C40.8903 43.2019 40.8294 42.8065 40.8294 42.3694C40.8294 41.9393 40.8802 41.5508 40.9818 41.204C41.0901 40.8502 41.2459 40.5484 41.4491 40.2986C41.6523 40.0489 41.8995 39.8581 42.1907 39.7263C42.4819 39.5876 42.8171 39.5182 43.1964 39.5182C43.4538 39.5182 43.6806 39.5494 43.877 39.6119C44.0735 39.6743 44.2428 39.7437 44.385 39.82V37.2081L45.6142 37V44.9084Z" fill="#607D8B"/>
<path d="M46.8811 42.3798C46.8811 41.9011 46.9488 41.4814 47.0842 41.1207C47.2265 40.76 47.4127 40.4617 47.643 40.2258C47.8732 39.983 48.1374 39.8026 48.4354 39.6847C48.7334 39.5598 49.0381 39.4974 49.3497 39.4974C50.0811 39.4974 50.65 39.7298 51.0564 40.1946C51.4695 40.6594 51.6761 41.3531 51.6761 42.2758C51.6761 42.3451 51.6727 42.4249 51.6659 42.5151C51.6659 42.5983 51.6625 42.6746 51.6557 42.744H48.1509C48.1848 43.1811 48.3338 43.521 48.5979 43.7638C48.8688 43.9997 49.2582 44.1176 49.7662 44.1176C50.0642 44.1176 50.3351 44.0898 50.5789 44.0343C50.8295 43.9788 51.0259 43.9199 51.1681 43.8574L51.3306 44.8876C51.2629 44.9223 51.1681 44.9605 51.0462 45.0021C50.9311 45.0368 50.7956 45.068 50.6398 45.0957C50.4908 45.1304 50.3283 45.1582 50.1522 45.179C49.9761 45.1998 49.7967 45.2102 49.6138 45.2102C49.1465 45.2102 48.7401 45.1408 48.3947 45.0021C48.0493 44.8564 47.7649 44.6587 47.5414 44.4089C47.3179 44.1523 47.152 43.854 47.0436 43.514C46.9352 43.1672 46.8811 42.7891 46.8811 42.3798ZM50.4468 41.8179C50.4468 41.6445 50.4231 41.4814 50.3757 41.3288C50.3283 41.1693 50.2572 41.034 50.1624 40.923C50.0743 40.8051 49.9626 40.7149 49.8271 40.6524C49.6985 40.5831 49.5427 40.5484 49.3598 40.5484C49.1702 40.5484 49.0043 40.5865 48.862 40.6629C48.7198 40.7322 48.5979 40.8259 48.4963 40.9438C48.4015 41.0617 48.327 41.197 48.2728 41.3496C48.2186 41.5023 48.1814 41.6583 48.1611 41.8179H50.4468Z" fill="#607D8B"/>
<path d="M52.6847 42.359C52.6847 41.9566 52.7457 41.582 52.8676 41.2352C52.9895 40.8814 53.1622 40.5761 53.3857 40.3195C53.6159 40.0628 53.8936 39.8616 54.2187 39.7159C54.5438 39.5702 54.9095 39.4974 55.3159 39.4974C55.817 39.4974 56.2911 39.5911 56.7381 39.7784L56.474 40.8085C56.3318 40.7461 56.1692 40.6941 55.9864 40.6524C55.8103 40.6108 55.6206 40.59 55.4175 40.59C54.9366 40.59 54.5709 40.7461 54.3203 41.0583C54.0697 41.3635 53.9444 41.7971 53.9444 42.359C53.9444 42.9001 54.0629 43.3302 54.3 43.6493C54.537 43.9615 54.9366 44.1176 55.4987 44.1176C55.7087 44.1176 55.9152 44.0968 56.1184 44.0552C56.3216 44.0135 56.4977 43.9615 56.6467 43.8991L56.8194 44.9396C56.6839 45.009 56.4774 45.0715 56.1997 45.127C55.9288 45.1824 55.6477 45.2102 55.3565 45.2102C54.9027 45.2102 54.5065 45.1408 54.1679 45.0021C53.8361 44.8564 53.5584 44.6587 53.3349 44.4089C53.1182 44.1523 52.9556 43.8505 52.8473 43.5036C52.7389 43.1498 52.6847 42.7683 52.6847 42.359Z" fill="#607D8B"/>
<path d="M57.4765 42.3798C57.4765 41.9011 57.5442 41.4814 57.6796 41.1207C57.8219 40.76 58.0081 40.4617 58.2384 40.2258C58.4686 39.983 58.7328 39.8026 59.0308 39.6847C59.3288 39.5598 59.6335 39.4974 59.9451 39.4974C60.6765 39.4974 61.2454 39.7298 61.6518 40.1946C62.0649 40.6594 62.2714 41.3531 62.2714 42.2758C62.2714 42.3451 62.2681 42.4249 62.2613 42.5151C62.2613 42.5983 62.2579 42.6746 62.2511 42.744H58.7463C58.7802 43.1811 58.9292 43.521 59.1933 43.7638C59.4642 43.9997 59.8536 44.1176 60.3616 44.1176C60.6596 44.1176 60.9305 44.0898 61.1743 44.0343C61.4249 43.9788 61.6213 43.9199 61.7635 43.8574L61.926 44.8876C61.8583 44.9223 61.7635 44.9605 61.6416 45.0021C61.5265 45.0368 61.391 45.068 61.2352 45.0957C61.0862 45.1304 60.9237 45.1582 60.7476 45.179C60.5715 45.1998 60.392 45.2102 60.2092 45.2102C59.7419 45.2102 59.3355 45.1408 58.9901 45.0021C58.6447 44.8564 58.3603 44.6587 58.1368 44.4089C57.9133 44.1523 57.7474 43.854 57.639 43.514C57.5306 43.1672 57.4765 42.7891 57.4765 42.3798ZM61.0422 41.8179C61.0422 41.6445 61.0185 41.4814 60.9711 41.3288C60.9237 41.1693 60.8526 41.034 60.7578 40.923C60.6697 40.8051 60.558 40.7149 60.4225 40.6524C60.2938 40.5831 60.1381 40.5484 59.9552 40.5484C59.7656 40.5484 59.5997 40.5865 59.4574 40.6629C59.3152 40.7322 59.1933 40.8259 59.0917 40.9438C58.9969 41.0617 58.9224 41.197 58.8682 41.3496C58.814 41.5023 58.7768 41.6583 58.7565 41.8179H61.0422Z" fill="#607D8B"/>
<path d="M67.0998 42.3798C67.0998 41.8179 66.9746 41.3809 66.724 41.0687C66.4802 40.7565 66.084 40.6004 65.5354 40.6004C65.4202 40.6004 65.2983 40.6074 65.1697 40.6212C65.0478 40.6282 64.9258 40.649 64.8039 40.6837V43.795C64.9123 43.8713 65.0545 43.9442 65.2306 44.0135C65.4135 44.076 65.6065 44.1072 65.8097 44.1072C66.2567 44.1072 66.5817 43.9511 66.7849 43.6389C66.9949 43.3267 67.0998 42.907 67.0998 42.3798ZM68.3595 42.359C68.3595 42.7752 68.3054 43.1568 68.197 43.5036C68.0954 43.8505 67.9464 44.1488 67.75 44.3985C67.5536 44.6483 67.3064 44.8425 67.0084 44.9813C66.7172 45.12 66.3853 45.1894 66.0128 45.1894C65.7623 45.1894 65.532 45.1582 65.322 45.0957C65.1121 45.0333 64.9394 44.9639 64.8039 44.8876V47H63.5747V39.8096C63.8253 39.7402 64.1335 39.6743 64.4992 39.6119C64.8649 39.5494 65.2509 39.5182 65.6573 39.5182C66.0772 39.5182 66.4531 39.5841 66.7849 39.7159C67.1168 39.8477 67.3978 40.0385 67.6281 40.2882C67.8651 40.531 68.0446 40.8293 68.1665 41.1831C68.2952 41.53 68.3595 41.922 68.3595 42.359Z" fill="#607D8B"/>
<path d="M69.5654 38.1967L70.7947 37.9886V39.6327H72.6842V40.6837H70.7947V42.9001C70.7947 43.3371 70.8624 43.6493 70.9978 43.8366C71.1333 44.0239 71.3636 44.1176 71.6886 44.1176C71.9121 44.1176 72.1085 44.0933 72.2779 44.0447C72.4539 43.9962 72.5928 43.9511 72.6944 43.9095L72.8975 44.9084C72.7553 44.9709 72.5691 45.0333 72.3388 45.0957C72.1085 45.1651 71.8376 45.1998 71.5261 45.1998C71.1468 45.1998 70.8285 45.1478 70.5712 45.0437C70.3206 44.9396 70.1208 44.7905 69.9718 44.5963C69.8228 44.3951 69.7178 44.1557 69.6569 43.8783C69.5959 43.5938 69.5654 43.2712 69.5654 42.9105V38.1967Z" fill="#607D8B"/>
<path d="M77.5094 42.7024C77.5094 43.0562 77.4721 43.3857 77.3976 43.6909C77.3231 43.9962 77.191 44.2633 77.0014 44.4922C76.8186 44.7211 76.568 44.9015 76.2497 45.0333C75.9381 45.1651 75.5419 45.231 75.0611 45.231C74.6141 45.231 74.2247 45.1686 73.8928 45.0437C73.5677 44.9119 73.3171 44.7732 73.141 44.6275L73.5982 43.5973C73.7675 43.7152 73.9741 43.8297 74.2179 43.9407C74.4685 44.0447 74.7224 44.0968 74.9798 44.0968C75.4132 44.0968 75.7282 43.9858 75.9246 43.7638C76.121 43.5418 76.2192 43.1602 76.2192 42.6191V37.8637H77.5094V42.7024Z" fill="#607D8B"/>
<path d="M80.8485 44.0968C81.3091 44.0968 81.6443 44.017 81.8543 43.8574C82.0642 43.6979 82.1692 43.4724 82.1692 43.1811C82.1692 43.0076 82.1319 42.8585 82.0574 42.7336C81.9897 42.6087 81.8881 42.4977 81.7527 42.4006C81.624 42.2966 81.4648 42.2029 81.2752 42.1197C81.0856 42.0295 80.8689 41.9428 80.625 41.8595C80.3812 41.7693 80.1442 41.6722 79.9139 41.5682C79.6904 41.4572 79.4906 41.3219 79.3145 41.1623C79.1452 41.0028 79.0064 40.812 78.898 40.59C78.7964 40.368 78.7456 40.1009 78.7456 39.7888C78.7456 39.1367 78.9658 38.6268 79.406 38.2591C79.8462 37.8845 80.4456 37.6972 81.2041 37.6972C81.6443 37.6972 82.0337 37.7492 82.3724 37.8533C82.7178 37.9504 82.9887 38.0579 83.1851 38.1759L82.7889 39.2373C82.5586 39.1054 82.3046 39.0049 82.027 38.9355C81.7561 38.8661 81.475 38.8314 81.1838 38.8314C80.8384 38.8314 80.5675 38.9043 80.3711 39.0499C80.1814 39.1956 80.0866 39.4003 80.0866 39.6639C80.0866 39.8234 80.1171 39.9622 80.1781 40.0801C80.2458 40.1911 80.3372 40.2917 80.4523 40.3819C80.5742 40.4721 80.7131 40.5553 80.8689 40.6316C81.0314 40.7079 81.2075 40.7808 81.3971 40.8502C81.729 40.975 82.0236 41.1034 82.2809 41.2352C82.5451 41.36 82.7652 41.5127 82.9413 41.693C83.1241 41.8665 83.263 42.0746 83.3578 42.3174C83.4526 42.5532 83.5 42.8411 83.5 43.1811C83.5 43.8332 83.2731 44.3396 82.8194 44.7003C82.3724 45.0541 81.7154 45.231 80.8485 45.231C80.5573 45.231 80.2898 45.2102 80.046 45.1686C79.8089 45.1339 79.5956 45.0888 79.406 45.0333C79.2231 44.9778 79.064 44.9223 78.9285 44.8668C78.7931 44.8044 78.6847 44.7489 78.6034 44.7003L78.9793 43.6285C79.1622 43.7326 79.4094 43.8366 79.7209 43.9407C80.0324 44.0447 80.4083 44.0968 80.8485 44.0968Z" fill="#607D8B"/>
</svg>
