<svg width="111" height="48" viewBox="0 0 111 48" fill="none" xmlns="http://www.w3.org/2000/svg">
<path d="M50.4002 23.7771C50.3983 22.9169 50.107 22.0815 49.5717 21.4011C49.0364 20.7207 48.2872 20.2336 47.441 20.0157L51.2385 9H32.4133L36.2209 20.0507C35.3981 20.2856 34.6751 20.7768 34.1605 21.4505C33.646 22.1241 33.3677 22.9438 33.3676 23.7863C33.3676 25.0894 34.0301 26.2447 35.044 26.9516C34.6463 27.5075 34.187 28.0199 33.666 28.5065C32.6856 29.4099 31.5986 30.105 30.4237 30.5653C29.3642 29.8617 28.9042 28.62 29.3193 27.5075C30.9287 27.0208 32.1109 25.5292 32.1109 23.7883C32.1091 22.7588 31.6924 21.7718 30.9521 21.0438C30.2118 20.3158 29.2082 19.906 28.1612 19.9043C27.112 19.9057 26.1061 20.3162 25.3642 21.0458C24.6223 21.7753 24.2048 22.7645 24.2034 23.7962C24.2034 24.8559 24.646 25.8293 25.3521 26.5243L25.1664 26.8975C24.5743 28.0964 23.903 29.4515 23.6468 30.9728C23.1345 34.0062 23.9734 36.4546 25.9966 37.8361C27.1365 38.609 28.3905 39 29.7424 39C32.066 39 34.4244 37.8526 36.703 36.7415C38.3285 35.9501 40.0069 35.1259 41.6653 34.7263C42.2688 34.5785 42.9112 34.4915 43.5831 34.3965C44.9444 34.1987 46.3486 34.0055 47.6113 33.2847C49.0866 32.442 50.0938 31.0348 50.3855 29.4192C50.6068 28.1768 50.3855 26.9265 49.8202 25.8319C50.2103 25.214 50.4156 24.5005 50.4123 23.7732L50.4002 23.7771ZM48.6769 23.7771C48.6769 24.9839 47.671 25.9664 46.4505 25.9664C46.062 25.9628 45.6811 25.8598 45.3453 25.6676C45.0095 25.4754 44.7303 25.2006 44.5352 24.8702C44.34 24.5398 44.2356 24.1652 44.2322 23.7831C44.2289 23.4011 44.3266 23.0247 44.5159 22.691C44.5863 22.5697 44.6748 22.447 44.764 22.3435C44.8561 22.2371 44.9598 22.1409 45.0732 22.0567L45.0819 22.0481C45.1523 21.9953 45.2321 21.9439 45.3119 21.8918C45.3562 21.8654 45.3924 21.8391 45.4259 21.8226C45.4346 21.8226 45.4433 21.814 45.4527 21.814C45.4883 21.7969 45.5332 21.779 45.5761 21.7612C45.619 21.7434 45.6646 21.7263 45.6995 21.7085C45.7082 21.7085 45.7169 21.6999 45.7263 21.6999C45.7619 21.6913 45.7967 21.6735 45.8323 21.665C45.841 21.665 45.8591 21.6564 45.8678 21.6564L45.9912 21.63H45.9999L46.1327 21.6036C46.1414 21.6036 46.1595 21.6036 46.1682 21.5951C46.2038 21.5951 46.2386 21.5865 46.2742 21.5865H46.3184C46.3627 21.5865 46.407 21.5779 46.4526 21.5779H46.5665C46.5992 21.5765 46.6319 21.5793 46.6638 21.5865H46.6812C46.7525 21.5937 46.8233 21.6054 46.8931 21.6214C47.3948 21.7272 47.8445 21.9986 48.1676 22.3905C48.4906 22.7824 48.6675 23.2713 48.6688 23.7758L48.6769 23.7771ZM34.8777 10.7376H48.7741L45.5848 19.9894C45.452 20.0157 45.3199 20.0586 45.1872 20.1015L41.8302 13.3753L38.4639 20.0599C38.3312 20.0164 38.1904 19.9907 38.0482 19.9643L34.8777 10.7376ZM41.1945 23.0214C41.0319 22.2194 40.6138 21.4891 40.0009 20.9363L41.8296 17.3048L43.6757 21.0141C43.1278 21.5529 42.7369 22.2393 42.5712 23.0208L41.1945 23.0214ZM36.7687 21.6485L36.8921 21.6221H36.9189C36.9545 21.6135 36.9893 21.6135 37.0249 21.605H37.0604C37.096 21.605 37.1221 21.5964 37.1577 21.5964H37.5023C37.5379 21.5964 37.564 21.605 37.5909 21.605C37.6083 21.605 37.6177 21.605 37.6351 21.6135C37.6707 21.6221 37.6968 21.6221 37.7323 21.6307C37.7411 21.6307 37.7498 21.6307 37.7679 21.6392L37.8913 21.6656C37.931 21.672 37.9695 21.6838 38.0059 21.7006C38.0147 21.7006 38.0234 21.7091 38.0415 21.7091C38.0683 21.7177 38.1032 21.7263 38.13 21.7441C38.1387 21.7441 38.1474 21.7527 38.1568 21.7527C38.1924 21.7698 38.2272 21.779 38.2628 21.7962H38.2715C38.3124 21.8114 38.3513 21.8318 38.3862 21.8569C38.4304 21.874 38.4666 21.9004 38.5002 21.9175C38.5089 21.9175 38.5089 21.9261 38.5176 21.9261C38.5531 21.9432 38.5793 21.9696 38.6148 21.9868L38.6235 21.9953C38.7275 22.0751 38.8274 22.1589 38.924 22.2472L38.9327 22.2558C39.0246 22.3521 39.1077 22.4569 39.1801 22.5684C39.4172 22.9247 39.543 23.3414 39.5422 23.7672C39.5422 24.974 38.5364 25.9565 37.3159 25.9565C36.7265 25.9531 36.1623 25.7213 35.7456 25.3115C35.3288 24.9016 35.0931 24.3468 35.0896 23.7672C35.0809 22.7517 35.7964 21.8905 36.7681 21.6478L36.7687 21.6485ZM28.076 21.5878C29.3032 21.5878 30.3023 22.577 30.3023 23.7771C30.2988 24.3567 30.0631 24.9115 29.6464 25.3214C29.2296 25.7312 28.6654 25.963 28.076 25.9664C27.4866 25.963 26.9224 25.7312 26.5057 25.3214C26.0889 24.9115 25.8532 24.3567 25.8497 23.7771C25.8532 23.1975 26.0889 22.6427 26.5057 22.2329C26.9224 21.823 27.4866 21.5913 28.076 21.5878ZM48.6232 29.1205C48.422 30.2323 47.7313 31.2056 46.7054 31.7872C45.7424 32.3345 44.5595 32.5079 43.3122 32.682C42.6323 32.7776 41.9161 32.8818 41.2334 33.0467C39.3961 33.4898 37.6291 34.3655 35.9157 35.1925C33.725 36.2607 31.6576 37.2697 29.7464 37.2697C28.7406 37.2697 27.8554 36.9914 27.0078 36.4098C25.0544 35.0817 25.1516 32.6121 25.3877 31.257C25.5996 29.9889 26.1924 28.7987 26.757 27.6605C26.7925 27.5912 26.8187 27.5299 26.8542 27.4607C27.0527 27.5299 27.2566 27.5827 27.4644 27.617C27.1292 29.4587 28.0827 31.3612 29.9456 32.2989L30.2809 32.4723L30.643 32.3418C32.1887 31.803 33.6204 30.926 34.8837 29.7528C35.5818 29.1132 36.1987 28.3924 36.7211 27.6071C36.9203 27.6387 37.1228 27.6532 37.3246 27.6506C38.1994 27.6487 39.0489 27.3622 39.7408 26.8358C40.4327 26.3094 40.928 25.5727 41.1496 24.7405H42.6336C43.0762 26.4175 44.6212 27.6506 46.4586 27.6506C47.1612 27.6507 47.8508 27.4646 48.4549 27.1118C48.6849 27.7634 48.7553 28.4412 48.6313 29.1185L48.6232 29.1205ZM62.7811 28.1735C62.6602 28.5722 62.4519 28.94 62.1709 29.251C61.8873 29.5636 61.5084 29.8155 61.0309 30.0067C60.5535 30.198 59.9714 30.2936 59.2727 30.2936C58.1059 30.2936 57.2053 29.9902 56.5783 29.3902C55.9513 28.7901 55.6395 27.8959 55.6395 26.7327V25.9816H57.3072V26.5091C57.3036 26.8409 57.3333 27.1722 57.3957 27.4983C57.4574 27.8016 57.5546 28.0542 57.7042 28.2718C57.8574 28.4929 58.0678 28.6697 58.3137 28.7841C58.5786 28.9055 58.9146 28.9668 59.3209 28.9668C60.0807 28.9668 60.5951 28.767 60.8935 28.3733C61.1764 27.9737 61.3267 27.435 61.3267 26.7577V17.7137H62.9877V26.9575C62.9812 27.3703 62.9134 27.78 62.7865 28.1735H62.7811ZM71.8722 29.4502C71.1922 29.954 70.3433 30.2059 69.3106 30.2059C68.5863 30.2059 67.9587 30.0938 67.4289 29.8584C66.9119 29.6429 66.4525 29.313 66.0864 28.8943C65.7243 28.4775 65.4494 27.9909 65.2737 27.4086C65.0879 26.8349 64.9907 26.2097 64.9652 25.5319C64.9652 24.854 65.0712 24.2374 65.2831 23.6723C65.4797 23.1321 65.7794 22.6339 66.1662 22.2044C66.5408 21.7909 67.002 21.462 67.5181 21.2403C68.0398 21.0148 68.6044 20.8928 69.2234 20.8928C70.0281 20.8928 70.6987 21.0576 71.2351 21.3873C71.7716 21.7171 72.1894 22.1345 72.5092 22.6383C72.8275 23.1456 73.0518 23.7045 73.1717 24.2888C73.2891 24.8487 73.3394 25.4204 73.322 25.9915H66.5491C66.5377 26.3667 66.5833 26.7412 66.6832 27.1033C66.7818 27.4501 66.9568 27.7627 67.1956 28.0265C67.4256 28.2955 67.732 28.5131 68.0874 28.6694C68.4495 28.8343 68.874 28.9134 69.3615 28.9134C69.9885 28.9134 70.5102 28.7657 70.9173 28.4782C71.3243 28.1907 71.5878 27.7574 71.7126 27.1593H73.1878C72.9847 28.1748 72.5508 28.9319 71.8715 29.4357L71.8722 29.4502ZM71.5101 23.7329C71.3773 23.4204 71.1922 23.1592 70.9709 22.9337C70.7402 22.7076 70.4672 22.5275 70.1669 22.4035C69.8584 22.273 69.5131 22.2037 69.1422 22.2037C68.7533 22.2037 68.4093 22.273 68.0995 22.4035C67.7897 22.5341 67.5255 22.7161 67.3042 22.9423C67.0796 23.1761 66.8981 23.4465 66.7677 23.7415C66.6289 24.0462 66.5645 24.368 66.5377 24.7148H71.7414C71.7175 24.3768 71.6369 24.045 71.5027 23.7329H71.5101ZM76.0063 28.0192C76.1423 28.2372 76.3303 28.4192 76.5541 28.5494C76.7937 28.6835 77.0529 28.7802 77.3226 28.8362C77.6056 28.8969 77.906 28.9233 78.2058 28.9233C78.451 28.9223 78.6959 28.9049 78.9387 28.8712C79.1825 28.8416 79.4206 28.7772 79.6455 28.68C79.8574 28.5843 80.0432 28.4538 80.182 28.2711C80.3161 28.0977 80.3939 27.8623 80.3939 27.5932C80.3939 27.2108 80.2437 26.9246 79.9513 26.7333C79.6589 26.5421 79.2975 26.3772 78.8556 26.2552L77.4246 25.9255C76.9122 25.8299 76.4348 25.6908 75.9935 25.5088C75.5736 25.348 75.1982 25.092 74.8978 24.7616C74.6068 24.4405 74.4552 23.9881 74.4552 23.4151C74.4552 22.9634 74.5612 22.5809 74.7637 22.2598C74.9623 21.9439 75.2313 21.6765 75.5503 21.4777C75.8688 21.2779 76.2303 21.1302 76.6366 21.026C77.0296 20.9304 77.4333 20.8809 77.8383 20.8783C78.3158 20.875 78.7919 20.9185 79.2599 21.0088C79.6918 21.0959 80.0727 21.2436 80.4086 21.4605C80.7439 21.6689 81.0095 21.9643 81.2039 22.3204C81.4051 22.6851 81.5218 23.1368 81.5573 23.6756H80.0646C80.0378 23.3887 79.9674 23.148 79.8346 22.9634C79.7042 22.7776 79.5356 22.6208 79.3397 22.5031C79.1386 22.391 78.924 22.3033 78.6859 22.2512C78.4479 22.1991 78.1997 22.1721 77.9617 22.1721C77.737 22.1721 77.5124 22.1892 77.2904 22.2242C77.0763 22.2548 76.868 22.3164 76.6722 22.4068C76.4945 22.4874 76.3376 22.6062 76.2128 22.7543C76.0988 22.9021 76.0365 23.0841 76.0365 23.3102C76.0365 23.5621 76.125 23.7705 76.3101 23.9367C76.4864 24.1016 76.7258 24.24 76.9994 24.3535C77.2824 24.4656 77.5915 24.5533 77.9382 24.6317L78.9897 24.8665C79.3598 24.9463 79.7253 25.0452 80.0854 25.1619C80.421 25.266 80.7378 25.4213 81.0242 25.6222C81.2955 25.809 81.5216 26.0521 81.6868 26.3344C81.8544 26.6212 81.9429 26.9773 81.9429 27.4026C81.9429 27.9414 81.8289 28.3931 81.5982 28.7492C81.3725 29.1 81.067 29.3944 80.7057 29.6091C80.3349 29.8267 79.9191 29.9823 79.4598 30.0694C79.0057 30.1558 78.5442 30.1995 78.0817 30.1999C77.5976 30.2013 77.1141 30.1492 76.642 30.0437C76.2083 29.9525 75.7971 29.7784 75.4316 29.5313C75.0782 29.2965 74.8046 28.984 74.592 28.6081C74.3795 28.2322 74.2655 27.7508 74.2386 27.2009H75.7313C75.7756 27.5306 75.8547 27.8089 75.9962 28.0265L76.0063 28.0192ZM87.5 21.1104V22.4048H85.6975V27.9388C85.6975 28.1122 85.7149 28.2513 85.7417 28.3555C85.7686 28.4597 85.8303 28.5382 85.9094 28.5995C85.9885 28.6608 86.1106 28.6951 86.2541 28.7116C86.3976 28.7281 86.5894 28.738 86.8194 28.738H87.4993V30.0324H86.3593C85.9704 30.0324 85.6438 30.0061 85.3696 29.9533C85.0953 29.9006 84.8747 29.8056 84.707 29.6665C84.5394 29.5273 84.4153 29.3367 84.3275 29.0842C84.247 28.8323 84.2041 28.5019 84.2041 28.0852V22.4141H82.6584V21.1196H84.2041V18.4443H85.6968V21.111L87.5 21.1104Z" fill="#99424F"/>
</svg>
