<svg width="111" height="48" viewBox="0 0 111 48" fill="none" xmlns="http://www.w3.org/2000/svg">
<path d="M36.6683 25.729C36.6683 26.5682 36.3706 27.2132 35.7753 27.6639C35.1799 28.1094 34.3273 28.3322 33.2173 28.3322C32.1024 28.3322 31.2068 28.1586 30.5308 27.8116V26.2341C31.5146 26.7003 32.4303 26.9335 33.2779 26.9335C34.3727 26.9335 34.9201 26.5941 34.9201 25.9155C34.9201 25.6979 34.8596 25.5166 34.7384 25.3715C34.6174 25.2265 34.4181 25.0762 34.1406 24.9209C33.8631 24.7654 33.4772 24.5893 32.9827 24.3924C32.0191 24.0091 31.3657 23.6257 31.0227 23.2423C30.6846 22.859 30.5156 22.3617 30.5156 21.7504C30.5156 21.0147 30.8032 20.4449 31.3783 20.0408C31.9586 19.6315 32.7456 19.4269 33.7395 19.4269C34.7233 19.4269 35.6542 19.6315 36.532 20.0408L35.9569 21.4162C35.0538 21.0329 34.2945 20.8412 33.6789 20.8412C32.7406 20.8412 32.2714 21.1158 32.2714 21.6649C32.2714 21.9343 32.3924 22.1622 32.6346 22.3487C32.8818 22.5352 33.4166 22.7917 34.239 23.118C34.9302 23.3926 35.4322 23.6439 35.745 23.8718C36.0578 24.0997 36.2899 24.3639 36.4412 24.6644C36.5926 24.9597 36.6683 25.3145 36.6683 25.729ZM42.8436 28.3322C41.7841 28.3322 40.9617 27.9411 40.3765 27.1588H40.2705C40.3412 27.8841 40.3765 28.3244 40.3765 28.4799V32H38.5981V19.5823H40.036C40.0763 19.7429 40.1595 20.1263 40.2857 20.7324H40.3765C40.9314 19.8621 41.7639 19.4269 42.8739 19.4269C43.9182 19.4269 44.7305 19.8155 45.3107 20.5925C45.8959 21.3696 46.1885 22.4601 46.1885 23.864C46.1885 25.2679 45.8909 26.3636 45.2956 27.1511C44.7053 27.9385 43.8879 28.3322 42.8436 28.3322ZM42.4122 20.9189C41.7059 20.9189 41.1888 21.1313 40.8608 21.5561C40.5379 21.9809 40.3765 22.6595 40.3765 23.5921V23.864C40.3765 24.9105 40.5379 25.6694 40.8608 26.1409C41.1837 26.6071 41.7109 26.8402 42.4425 26.8402C43.058 26.8402 43.5323 26.5812 43.8653 26.0632C44.1982 25.5451 44.3647 24.8069 44.3647 23.8485C44.3647 22.8849 44.1982 22.157 43.8653 21.6649C43.5373 21.1676 43.053 20.9189 42.4122 20.9189ZM51.9098 28.3322C50.6081 28.3322 49.589 27.9437 48.8524 27.1666C48.1209 26.3843 47.7551 25.3094 47.7551 23.9417C47.7551 22.5378 48.0957 21.4343 48.7767 20.6314C49.4578 19.8284 50.3937 19.4269 51.5844 19.4269C52.6893 19.4269 53.5621 19.7714 54.2029 20.4604C54.8436 21.1494 55.164 22.0974 55.164 23.3045V24.2914H49.5865C49.6117 25.1254 49.8312 25.7679 50.2449 26.2185C50.6586 26.6641 51.2414 26.8868 51.9931 26.8868C52.4875 26.8868 52.9466 26.8402 53.3704 26.747C53.7992 26.6485 54.2584 26.488 54.7478 26.2652V27.7494C54.3139 27.9618 53.875 28.112 53.4309 28.2001C52.987 28.2882 52.4799 28.3322 51.9098 28.3322ZM51.5844 20.8101C51.0193 20.8101 50.5653 20.994 50.2222 21.3618C49.8842 21.7296 49.6823 22.2658 49.6168 22.9704H53.4158C53.4057 22.2607 53.2392 21.7245 52.9163 21.3618C52.5934 20.994 52.1495 20.8101 51.5844 20.8101ZM60.5599 28.3322C59.2935 28.3322 58.3299 27.9541 57.6689 27.1977C57.013 26.4362 56.6851 25.3457 56.6851 23.9262C56.6851 22.4808 57.0282 21.3696 57.7143 20.5925C58.4055 19.8155 59.402 19.4269 60.7036 19.4269C61.5865 19.4269 62.3812 19.5953 63.0875 19.932L62.5501 21.4007C61.7984 21.1002 61.1779 20.95 60.6885 20.95C59.2405 20.95 58.5165 21.9369 58.5165 23.9106C58.5165 24.8742 58.6956 25.5995 59.0538 26.0865C59.4171 26.5682 59.9468 26.8091 60.6431 26.8091C61.4352 26.8091 62.1844 26.6071 62.8907 26.203V27.796C62.5729 27.9877 62.2323 28.125 61.8691 28.2079C61.5109 28.2908 61.0744 28.3322 60.5599 28.3322ZM69.0585 20.9655H67.0152V28.1768H65.2292V20.9655H63.8518V20.1107L65.2292 19.5512V18.9918C65.2292 17.9763 65.4612 17.2252 65.9254 16.7382C66.3896 16.2461 67.0984 16 68.052 16C68.6776 16 69.2931 16.1062 69.8985 16.3186L69.4293 17.7018C68.9904 17.5567 68.5716 17.4842 68.1731 17.4842C67.7694 17.4842 67.4743 17.6137 67.2876 17.8728C67.106 18.1266 67.0152 18.51 67.0152 19.0228V19.5823H69.0585V20.9655ZM72.2597 28.1768H70.4813V16.0855H72.2597V28.1768ZM82.2417 23.864C82.2417 25.2679 81.891 26.3636 81.1895 27.1511C80.4886 27.9385 79.5122 28.3322 78.2608 28.3322C77.479 28.3322 76.7878 28.1509 76.1874 27.7882C75.5869 27.4256 75.1254 26.905 74.8022 26.2263C74.4796 25.5477 74.3183 24.7602 74.3183 23.864C74.3183 22.4704 74.6662 21.3825 75.3625 20.6003C76.0588 19.818 77.0398 19.4269 78.3061 19.4269C79.5173 19.4269 80.476 19.8284 81.182 20.6314C81.8887 21.4292 82.2417 22.5067 82.2417 23.864ZM76.1495 23.864C76.1495 25.8481 76.8636 26.8402 78.2912 26.8402C79.7039 26.8402 80.41 25.8481 80.41 23.864C80.41 21.9006 79.6987 20.9189 78.2763 20.9189C77.5295 20.9189 76.987 21.1727 76.6489 21.6804C76.316 22.1881 76.1495 22.916 76.1495 23.864ZM91.1564 28.1768L90.0744 24.1671C89.9429 23.7423 89.7058 22.7554 89.3631 21.2064H89.2948C89.0021 22.6052 88.7702 23.5972 88.5985 24.1826L87.4861 28.1768H85.5183L83.1722 19.5823H84.989L86.0556 23.8174C86.2978 24.8639 86.4694 25.7601 86.5705 26.5061H86.6158C86.6663 26.1279 86.7421 25.6953 86.8426 25.2084C86.9488 24.7162 87.0395 24.3484 87.1152 24.1049L88.3867 19.5823H90.339L91.5726 24.1049C91.6484 24.3588 91.7419 24.7473 91.8527 25.2705C91.9687 25.7937 92.037 26.2004 92.0571 26.4906H92.1174C92.1931 25.8533 92.3699 24.9623 92.6472 23.8174L93.7298 19.5823H95.5156L93.1546 28.1768H91.1564Z" fill="#574897"/>
<path fill-rule="evenodd" clip-rule="evenodd" d="M15.992 20.5725C16.8116 20.5725 17.4761 21.2576 17.4761 22.1026V30.4507C17.4761 31.2957 16.8116 31.9808 15.992 31.9808C15.1723 31.9808 14.5078 31.2957 14.5078 30.4507V22.1026C14.5078 21.2576 15.1723 20.5725 15.992 20.5725Z" fill="#004C97"/>
<path fill-rule="evenodd" clip-rule="evenodd" d="M25.1066 23.1221C25.6112 23.788 25.4967 24.7496 24.8508 25.2699L16.898 31.6756C16.252 32.1959 15.3193 32.0778 14.8147 31.4119C14.31 30.746 14.4246 29.7844 15.0705 29.2641L23.0233 22.8584C23.6692 22.3381 24.602 22.4562 25.1066 23.1221Z" fill="#574897"/>
<path fill-rule="evenodd" clip-rule="evenodd" d="M14.8967 16.637C15.4014 15.9711 16.3341 15.853 16.98 16.3733L24.9328 22.779C25.5787 23.2993 25.6933 24.2609 25.1886 24.9268C24.684 25.5927 23.7513 25.7108 23.1053 25.1905L15.1525 18.7847C14.5066 18.2645 14.3921 17.3029 14.8967 16.637Z" fill="#45B9D9"/>
<path fill-rule="evenodd" clip-rule="evenodd" d="M15.992 16C16.8116 16 17.4761 16.6851 17.4761 17.5301V24.5752C17.4761 25.4203 16.8116 26.1053 15.992 26.1053C15.1723 26.1053 14.5078 25.4203 14.5078 24.5752V17.5301C14.5078 16.6851 15.1723 16 15.992 16Z" fill="#004C97"/>
</svg>
