<svg width="111" height="48" viewBox="0 0 111 48" fill="none" xmlns="http://www.w3.org/2000/svg">
<path d="M65.599 15H62.1602V18.1181H65.599V15Z" fill="#356388"/>
<path d="M80.9588 15H77.5898V18.3119H80.9588V15Z" fill="#39B54A"/>
<path d="M70.6971 28.4238H67.3281V31.7357H70.6971V28.4238Z" fill="#39B54A"/>
<path d="M65.599 19.1045H62.1602V22.4164H65.599V19.1045Z" fill="#39B54A"/>
<path d="M62.1631 23.4031V27.314C62.1631 28.2301 61.6743 28.7938 60.8539 28.7938C60.0858 28.7938 59.5272 28.3005 59.5272 27.2964V15H59.0384C56.9786 15 55.8789 16.3389 55.8789 18.9461V27.4021C55.8789 30.5731 57.6769 32 60.6444 32C63.4373 32 65.6193 30.3793 65.6019 27.3316V23.4207H62.1631V23.4031Z" fill="#356388"/>
<path d="M50.2204 15H48.0384C45.9786 15 44.8789 16.3389 44.8789 18.9461V31.7534H48.5097V25.799H50.1157C53.1181 25.799 54.3924 23.685 54.3924 20.1793C54.3924 16.7617 52.9436 15 50.2204 15ZM49.5571 22.8218H48.5097V18.0124H49.5746C50.4299 18.0124 50.8488 18.6642 50.8488 20.285C50.8488 22.0114 50.395 22.8218 49.5571 22.8218Z" fill="#3C9CD7"/>
<path d="M27.8415 15H25.6595C23.5997 15 22.5 16.3389 22.5 18.9461V31.7534H26.1308V25.799H27.7368C30.7392 25.799 32.0135 23.685 32.0135 20.1793C32.0135 16.7617 30.5647 15 27.8415 15ZM27.1607 22.8218H26.1134V18.0124H27.1782C28.0335 18.0124 28.4525 18.6642 28.4525 20.285C28.4699 22.0114 27.9986 22.8218 27.1607 22.8218Z" fill="#3C9CD7"/>
<path d="M42.6082 15C40.5484 15 39.4487 16.3389 39.4487 18.9461V21.342V21.6767H36.8652V21.342V15H36.3939C34.3341 15 33.2344 16.3389 33.2344 18.9461V31.7534H36.8652V25.3233V24.9886H39.4487V25.3233V31.7534H43.0621V15.0176H42.6082V15Z" fill="#3C9CD7"/>
<path d="M88.5 21.8527V19.2279H86.8067V16.3916H85.7419C84.2582 16.3916 83.4552 17.3605 83.4552 19.2279H82.3555V21.8527H83.4552V29.2517C83.4552 31.1014 84.7644 31.9294 86.4053 31.9294C87.0511 31.9294 87.8715 31.8061 88.4825 31.5947V28.8994C88.2207 28.9522 87.8541 28.9698 87.505 28.9698C86.9638 28.9698 86.8067 28.7056 86.8067 28.2476V21.8527H88.5Z" fill="#356388"/>
<path d="M73.2824 18.8228C72.1827 18.8228 71.3099 19.2984 70.699 20.1792V19.1046H69.5992C68.1155 19.1046 67.3125 20.0735 67.3125 21.9409V27.4373H70.6815V22.9803C70.6815 22.2228 71.0481 21.659 71.6067 21.659C72.3573 21.659 72.5144 22.2404 72.5144 22.7689V31.7357H75.8659V21.5005C75.9008 19.8445 74.7313 18.8228 73.2824 18.8228Z" fill="#356388"/>
<path d="M79.8766 19.228C78.3928 19.228 77.5898 20.1969 77.5898 22.0643V31.7358H80.9588V19.228H79.8766Z" fill="#356388"/>
</svg>
