<svg width="111" height="48" viewBox="0 0 111 48" fill="none" xmlns="http://www.w3.org/2000/svg">
<path d="M33.8825 35.9503C31.8963 35.702 30.5746 34.7541 29.7061 32.9634C29.5324 32.6174 29.3663 32.354 29.3285 32.3917C29.2983 32.4218 29.0944 32.9409 28.8829 33.5428C28.6337 34.2575 28.4298 34.7089 28.2938 34.8443L28.0899 35.0625L26.9495 35.0324C25.1899 34.9948 25.1899 34.9948 26.1112 32.4518C27.7954 27.8023 28.8603 24.8605 30.9447 19.0899C32.2135 15.5839 33.301 12.6197 33.369 12.4917C33.4369 12.3638 33.5653 12.2134 33.6484 12.1682C33.9052 12.0328 35.1891 11.9576 36.0349 12.0253C36.9261 12.093 37.1451 12.1983 37.3188 12.6121C37.4623 12.9582 44.2367 31.6543 44.788 33.2418C45.0145 33.8813 45.1958 34.4682 45.1958 34.5434C45.1958 34.6186 45.1052 34.7616 44.9919 34.8669C44.788 35.055 44.7804 35.055 43.6023 35.0324C42.0163 35.0023 42.1296 35.0926 41.4952 33.3321C41.2233 32.5797 40.9741 31.9703 40.9363 31.9854C40.8986 32.0004 40.7777 32.2111 40.672 32.4594C40.3019 33.3171 39.9621 33.8061 39.3126 34.4456C38.5574 35.1904 37.9305 35.5516 36.9638 35.7998C36.2313 35.9879 34.7737 36.0556 33.8825 35.9503ZM35.8839 33.7008C36.9185 33.4299 37.417 32.8355 37.417 31.865C37.417 30.9246 36.8883 30.4205 34.8794 29.4349C34.0789 29.0437 33.2179 28.5847 32.9687 28.4192C32.3721 28.0204 31.7981 27.3885 31.4884 26.7791L31.2392 26.2825L31.1788 26.6587C31.058 27.3208 31.1108 29.5252 31.2543 30.1571C31.7603 32.3691 32.6364 33.2794 34.6982 33.7384C35.257 33.8588 35.2646 33.8588 35.8839 33.7008ZM39.4334 29.6305C39.5014 28.3891 39.3503 26.907 39.0709 26.117C38.6329 24.8681 38.0891 24.221 37.1073 23.7621C36.0425 23.2731 35.0153 23.1903 34.2073 23.5364C33.4671 23.8524 33.1575 24.3264 33.1575 25.154C33.1575 26.29 33.5804 26.7038 35.8612 27.8248C36.8959 28.3364 37.7115 28.7954 37.9834 29.0136C38.5347 29.4499 38.9652 29.9992 39.1389 30.4807C39.2597 30.8267 39.2673 30.8343 39.3277 30.6311C39.3579 30.5108 39.4032 30.0669 39.4334 29.6305ZM34.5773 21.7232C35.2721 21.6179 35.9971 21.6705 36.8808 21.8812C37.2282 21.964 37.5227 22.0241 37.5378 22.0166C37.5454 22.0016 37.0469 20.5269 36.4125 18.7363C35.5289 16.2084 35.2495 15.4861 35.1588 15.5012C35.0305 15.5313 34.9776 15.6592 33.671 19.436C33.1877 20.8429 32.7723 22.0317 32.7572 22.0768C32.7346 22.137 32.9611 22.0994 33.3539 21.9865C33.7013 21.8887 34.245 21.7683 34.5773 21.7232Z" fill="#4572C4"/>
<path d="M58.9636 35.2732C57.4078 35.1077 56.5544 34.3929 56.1768 32.9258C56.071 32.5346 56.0484 31.8725 56.0182 29.1264L55.9804 25.7935H55.2856C54.3114 25.7935 54.2963 25.7709 54.2963 24.5521C54.2963 23.3332 54.3114 23.3107 55.2932 23.3107H55.9955V22.1295C55.9955 21.4749 56.0182 20.8655 56.0408 20.7752C56.1239 20.4743 56.5997 20.3614 57.7099 20.3915C58.4878 20.4066 58.7219 20.4442 58.888 20.5495L59.092 20.6774V23.3107H60.3607C61.9467 23.3107 61.9089 23.2881 61.9467 24.3414C61.9845 25.2066 61.9316 25.5226 61.7201 25.7182C61.5691 25.8537 61.4483 25.8687 60.3683 25.8687H59.1901L59.1373 26.1546C59.0617 26.6135 59.092 30.902 59.1675 31.4663C59.2506 32.0155 59.4318 32.3841 59.6961 32.5497C60.0058 32.7377 60.5495 32.7453 61.1311 32.5722C61.9089 32.339 61.9241 32.3616 61.9241 33.618V34.5961L61.6597 34.8594C61.2292 35.2882 60.3683 35.4161 58.9636 35.2732Z" fill="#4572C4"/>
<path d="M68.1169 35.2732C65.1413 34.8218 63.6233 32.828 63.6233 29.3822C63.6233 27.3358 64.1142 25.8386 65.1715 24.6724C65.753 24.0329 66.8859 23.4235 67.9508 23.1828C68.7891 22.9872 70.6394 23.0097 71.4777 23.2204C73.2298 23.6643 74.3853 24.7101 74.9593 26.3728C75.4275 27.7421 75.4577 29.954 75.0121 31.4738C74.6043 32.8732 73.5621 34.1973 72.4292 34.7465C71.5079 35.198 71.0774 35.2882 69.7406 35.3183C69.0987 35.3259 68.3661 35.3108 68.1169 35.2732ZM70.2693 32.7453C71.0472 32.5196 71.523 32.0456 71.8402 31.2029C72.3009 29.9691 72.2329 27.8023 71.7042 26.764C71.4701 26.3201 71.0698 25.9063 70.662 25.7107C70.375 25.5678 70.1862 25.5377 69.6651 25.5377C68.7362 25.5377 68.3133 25.7032 67.7317 26.275C67.052 26.9446 66.7953 27.7571 66.7953 29.2167C66.8028 31.1427 67.4372 32.4067 68.5474 32.7377C69.076 32.8882 69.7633 32.8957 70.2693 32.7453Z" fill="#4572C4"/>
<path d="M79.5133 35.2431C78.2671 35.0099 77.4893 34.6487 77.2778 34.2199C77.1796 34.0243 77.1419 33.776 77.1419 33.2418C77.1419 32.4669 77.24 32.1659 77.4893 32.1283C77.5723 32.1133 77.9575 32.2638 78.3276 32.4518C80.4044 33.4901 82.4284 33.2042 82.4435 31.865C82.4586 31.1804 82.1566 30.917 80.6537 30.3151C78.7052 29.5252 77.9651 28.9985 77.5044 28.0656C77.2627 27.5841 77.2551 27.5389 77.2551 26.6211C77.2551 25.6806 77.2551 25.6731 77.5421 25.1013C78.2143 23.7395 79.5586 23.0624 81.5977 23.0549C82.6701 23.0474 83.516 23.2053 84.1655 23.5289C84.7923 23.8298 84.8678 23.9878 84.8754 24.9057C84.8754 26.0794 84.747 26.1997 83.954 25.801C82.9798 25.312 81.93 25.1464 81.1068 25.3496C80.6612 25.4624 80.193 25.8687 80.1477 26.1847C80.0344 26.9446 80.4422 27.2907 82.3303 28.0129C83.5386 28.4794 84.0522 28.7728 84.5582 29.2694C85.3059 29.9916 85.623 30.9847 85.4569 32.0982C85.3361 32.9108 85.0264 33.5277 84.4298 34.1371C83.9087 34.6788 83.4329 34.9572 82.6777 35.1679C82.0886 35.3334 80.2383 35.3785 79.5133 35.2431Z" fill="#4572C4"/>
<path d="M46.9857 35.0099C46.8271 34.9572 46.6685 34.8895 46.6458 34.8594C46.5779 34.7992 46.5325 24.048 46.593 23.7094C46.6156 23.5665 46.7062 23.4235 46.8044 23.3709C47.0612 23.2354 48.4961 23.2053 48.8586 23.3257C49.2136 23.4461 49.2589 23.559 49.2665 24.3866L49.274 24.9734L49.6365 24.537C50.1878 23.8825 50.6712 23.4687 51.147 23.2505C51.8644 22.9119 53.1106 22.9947 53.4731 23.3934C53.6015 23.5364 53.6166 23.6793 53.6166 24.6574C53.609 25.3496 53.5788 25.8386 53.5184 25.974C53.4353 26.1696 53.4051 26.1847 53.103 26.1396C52.3025 26.0192 51.7663 26.0041 51.5019 26.0944C51.3358 26.1471 50.9808 26.4104 50.6561 26.7189C49.6743 27.6518 49.7725 27.1703 49.7272 31.2556L49.6894 34.8067L49.5006 34.9647C49.3269 35.1002 49.2136 35.1152 48.2922 35.1152C47.6276 35.1152 47.1745 35.0776 46.9857 35.0099Z" fill="#4572C4"/>
</svg>
