<svg width="29" height="28" viewBox="0 0 29 28" fill="none" xmlns="http://www.w3.org/2000/svg">
<path fill-rule="evenodd" clip-rule="evenodd" d="M13.7982 3.01701C13.6677 3.02526 13.4151 3.04906 13.2368 3.0699C10.0124 3.44671 7.12669 5.23146 5.31408 7.96983C3.9313 10.0589 3.30157 12.6067 3.55489 15.0873C3.85577 18.0338 5.32583 20.7274 7.64995 22.5906C8.91971 23.6085 10.4442 24.3501 12.0158 24.7144C14.5304 25.2973 17.1437 24.9824 19.4355 23.8203C21.574 22.736 23.2826 21.0173 24.3435 18.8833C24.6064 18.3544 24.7558 17.9936 24.9364 17.4507C25.5635 15.5657 25.6689 13.5794 25.2444 11.6472C24.6818 9.08695 23.2001 6.79298 21.0775 5.19604C19.3628 3.906 17.3089 3.14956 15.1573 3.01562C14.8136 2.99424 14.1477 2.99491 13.7982 3.01701ZM15.4857 5.46851C16.5184 5.59759 17.3781 5.85107 18.2497 6.28346C19.9323 7.11825 21.3652 8.54945 22.2064 10.2355C22.6998 11.2243 22.9702 12.2227 23.0583 13.3809C23.086 13.744 23.0703 14.614 23.0299 14.9596C22.8003 16.9235 21.9695 18.6263 20.5467 20.0496C20.0995 20.497 19.6497 20.8661 19.1436 21.201C18.8052 21.4249 18.5918 21.5466 18.1858 21.747C17.3044 22.1823 16.461 22.4253 15.4219 22.5434C15.1472 22.5746 14.1608 22.5861 13.8164 22.562C12.0038 22.4356 10.4414 21.8101 9.10034 20.6742C8.85695 20.468 8.24189 19.847 7.98952 19.5526C6.83842 18.2097 6.17458 16.699 5.97121 14.9596C5.9063 14.4045 5.9156 13.4806 5.99216 12.8791C6.2923 10.5207 7.59932 8.39511 9.64275 6.94223C10.772 6.13932 12.1283 5.62526 13.5245 5.47094C13.9166 5.42761 13.9037 5.42807 14.5918 5.43305C15.0654 5.43646 15.3056 5.44599 15.4857 5.46851ZM14.1904 6.42052C13.8934 6.44585 13.5258 6.4918 13.3147 6.53C12.0574 6.7575 10.928 7.26744 9.95781 8.0457C9.67574 8.27194 9.20599 8.72401 8.97393 8.99254C7.22077 11.0212 6.66521 13.9398 7.54108 16.5199C7.86309 17.4685 8.33393 18.2779 9.01558 19.0546C9.21447 19.2812 9.81288 19.8692 10.0125 20.0341C10.2124 20.1993 10.3148 20.2745 10.2948 20.2417C10.2861 20.2273 10.2447 20.1622 10.2028 20.0969C9.79908 19.4684 9.5388 18.72 9.46402 17.9729C9.43619 17.6949 9.45163 17.0341 9.492 16.7754C9.7817 14.9195 10.9579 13.4254 12.6867 12.7172C13.8713 12.2319 15.309 12.2281 16.5106 12.707C17.6942 13.1787 18.653 14.0575 19.2269 15.1968C19.4873 15.7136 19.6324 16.1681 19.7281 16.7663C19.7677 17.0142 19.7841 17.7148 19.7565 17.9822C19.6789 18.7356 19.3823 19.5666 18.9822 20.1517L18.9261 20.2338L19.0166 20.1549C19.0664 20.1114 19.2303 19.972 19.3808 19.8451C19.8906 19.4151 20.232 19.0562 20.5896 18.5742C21.4485 17.4165 21.9628 16.0098 22.0713 14.5216C22.1955 12.817 21.6923 10.9315 20.7076 9.41158C20.5868 9.22503 20.2927 8.82395 20.162 8.66731C20.0793 8.56816 19.798 8.30578 19.5815 8.12578C18.4593 7.19291 17.1481 6.64058 15.6134 6.45423C15.3802 6.4259 14.3997 6.40267 14.1904 6.42052ZM14.1813 13.2635C13.0512 13.4168 12.0517 14.0017 11.3761 14.905C10.5582 15.9985 10.3268 17.4083 10.754 18.6952C11.0414 19.5609 11.6229 20.3196 12.3875 20.8266C12.5799 20.9542 12.9316 21.1509 12.9316 21.1309C12.9316 21.1265 12.8986 21.083 12.8583 21.0342C12.6812 20.82 12.5602 20.4895 12.5327 20.1452C12.5019 19.76 12.5575 19.4417 12.7125 19.1161C12.942 18.634 13.3194 18.2571 13.7964 18.0334C14.4395 17.732 15.2502 17.8181 15.8386 18.2504C16.5515 18.7741 16.8676 19.6798 16.6081 20.4554C16.5416 20.6542 16.4598 20.828 16.3421 21.0203C16.2568 21.1597 16.2562 21.1596 16.4983 21.0471C17.059 20.7864 17.601 20.3031 17.9852 19.7211C18.6282 18.7471 18.8345 17.5284 18.5564 16.3466C18.2695 15.127 17.4899 14.1231 16.4349 13.6148C16.0744 13.4411 15.6449 13.3141 15.2431 13.2626C14.9786 13.2286 14.4345 13.2291 14.1813 13.2635Z" fill="#E53E4B"/>
</svg>
