<svg width="111" height="48" viewBox="0 0 111 48" fill="none" xmlns="http://www.w3.org/2000/svg">
<path d="M89.2171 21.9456C88.0368 21.9456 87.2896 22.5191 86.7389 23.3982C86.7389 23.1688 86.8569 22.9013 86.8569 22.7101V22.3278H84.8903V31.8849H86.8569V26.3802C86.8569 24.8128 87.7222 23.8571 89.2171 23.8571H89.6104V21.9452L89.2171 21.9456Z" fill="#222B45"/>
<path d="M9.24896 25.4626C8.69829 24.6215 7.91158 24.0482 6.77096 24.0482C4.96148 24.0482 3.66322 25.386 3.66322 27.0682C3.66322 28.75 4.96148 30.0883 6.77096 30.0883C7.91158 30.0883 8.69846 29.5529 9.24896 28.7119L11.0584 29.744C10.1932 31.0438 8.58027 31.9993 6.77096 31.9993C3.4275 31.9993 1.5 29.5528 1.5 27.1063C1.5 24.6599 3.46679 22.2134 6.77096 22.2134C8.81632 22.2134 10.1144 23.1688 11.0584 24.4687L9.24896 25.4626Z" fill="#222B45"/>
<path d="M12.7894 22.4426H14.8349V27.6414C14.8349 29.0176 15.8575 29.9734 17.1556 29.9734C18.4144 29.9734 19.4764 28.9795 19.4764 27.6416V22.4425H21.522V27.7946C21.522 30.394 19.4373 31.9613 17.1558 31.9613C14.8744 31.9613 12.7895 30.394 12.7895 27.7946L12.7894 22.4426Z" fill="#222B45"/>
<path d="M31.119 25.4626C30.5683 24.6215 29.7816 24.0482 28.641 24.0482C26.8315 24.0482 25.5332 25.386 25.5332 27.0682C25.5332 28.75 26.8315 30.0883 28.641 30.0883C29.7816 30.0883 30.5685 29.5529 31.119 28.7119L32.9284 29.744C32.0632 31.0438 30.4503 31.9993 28.641 31.9993C25.2975 31.9993 23.37 29.5528 23.37 27.1063C23.37 24.6599 25.2975 22.2134 28.641 22.2134C30.6863 22.2134 31.9844 23.1688 32.9284 24.4687L31.119 25.4626Z" fill="#222B45"/>
<path d="M34.6594 22.4426H36.7049V27.6414C36.7049 29.0176 37.7277 29.9734 39.0258 29.9734C40.2846 29.9734 41.3466 28.9795 41.3466 27.6416V22.4425H43.392V27.7946C43.392 30.394 41.3073 31.9613 39.0259 31.9613C36.7445 31.9613 34.6597 30.394 34.6597 27.7946L34.6594 22.4426Z" fill="#222B45"/>
<path d="M45.9489 25.9212C45.9489 23.5512 47.5616 22.2133 49.4499 22.2133C50.9053 22.2133 51.9279 22.9013 52.3212 23.8569H52.3607C52.7539 22.8629 53.7766 22.2131 55.2319 22.2131C57.1201 22.2131 58.7328 23.5893 58.7328 25.921V31.7318H56.6873V25.9212C56.6873 24.8127 55.9795 24.1628 55.1142 24.1628C54.1307 24.1628 53.4227 24.7364 53.4227 26.1888V31.6937H51.3772V26.1885C51.3772 24.7359 50.6692 24.1625 49.6859 24.1625C48.8203 24.1625 48.1123 24.8122 48.1123 25.9209V31.6936H45.9487L45.9489 25.9212Z" fill="#222B45"/>
<path fill-rule="evenodd" clip-rule="evenodd" d="M63.2962 19.6899H61.2511V31.7706H63.2963V30.6235H63.3354C63.8077 31.3881 65.1058 31.9997 66.4432 31.9997C68.9214 31.9997 71.3994 30.2031 71.3994 27.1065C71.3994 24.0103 68.9214 22.2135 66.4434 22.2135C65.106 22.2135 63.8077 22.825 63.3356 23.5897H63.2962V19.6899ZM63.2957 27.1063C63.2957 25.386 64.5545 24.0863 66.2458 24.0863C67.9767 24.0863 69.2355 25.3478 69.2355 27.1063C69.2355 28.8266 67.9768 30.1263 66.2459 30.1263C64.5545 30.1263 63.2957 28.8266 63.2957 27.1063Z" fill="#222B45"/>
<path fill-rule="evenodd" clip-rule="evenodd" d="M82.4136 29.7059C82.4136 29.7059 82.4137 29.7059 82.4136 29.7059V29.7059ZM77.9688 31.9612C79.6995 31.9612 81.273 31.1202 82.4136 29.7059L80.6829 28.7502C79.9749 29.6675 79.0309 30.2026 77.9296 30.2026C76.5133 30.2026 75.1368 29.1706 75.0188 27.7562H82.925V27.4121C82.925 23.8188 79.9356 22.2132 77.9688 22.2132C74.6647 22.2132 72.6979 24.6215 72.6979 27.0682C72.6979 29.5147 74.6254 31.9612 77.9688 31.9612ZM77.6932 23.9332C79.0306 23.9332 80.0927 24.698 80.5251 26.1124H74.979C75.3331 24.7362 76.3951 23.9332 77.6932 23.9332Z" fill="#222B45"/>
<path d="M106.359 32.1401C105.473 32.1401 104.712 31.9534 104.077 31.5801C103.443 31.1974 102.957 30.6467 102.621 29.9281C102.285 29.2094 102.117 28.3227 102.117 27.2681C102.117 26.1481 102.318 25.2007 102.719 24.4261C103.13 23.6514 103.695 23.0634 104.413 22.6621C105.141 22.2607 105.977 22.0601 106.919 22.0601C107.414 22.0601 107.885 22.1114 108.333 22.2141C108.791 22.3167 109.178 22.4754 109.495 22.6901L108.823 24.0621C108.553 23.8847 108.259 23.7634 107.941 23.6981C107.633 23.6234 107.307 23.5861 106.961 23.5861C106.037 23.5861 105.305 23.8707 104.763 24.4401C104.222 25.0094 103.951 25.8494 103.951 26.9601C103.951 27.1374 103.956 27.3474 103.965 27.5901C103.975 27.8234 104.007 28.0614 104.063 28.3041L103.503 27.6881C103.671 27.3054 103.9 26.9881 104.189 26.7361C104.488 26.4747 104.838 26.2787 105.239 26.1481C105.65 26.0174 106.093 25.9521 106.569 25.9521C107.213 25.9521 107.787 26.0781 108.291 26.3301C108.795 26.5727 109.197 26.9227 109.495 27.3801C109.794 27.8281 109.943 28.3554 109.943 28.9621C109.943 29.6061 109.785 30.1661 109.467 30.6421C109.15 31.1181 108.721 31.4867 108.179 31.7481C107.638 32.0094 107.031 32.1401 106.359 32.1401ZM106.261 30.7121C106.635 30.7121 106.966 30.6467 107.255 30.5161C107.545 30.3761 107.769 30.1801 107.927 29.9281C108.095 29.6761 108.179 29.3821 108.179 29.0461C108.179 28.5327 108.002 28.1267 107.647 27.8281C107.293 27.5294 106.817 27.3801 106.219 27.3801C105.827 27.3801 105.482 27.4547 105.183 27.6041C104.894 27.7441 104.661 27.9401 104.483 28.1921C104.315 28.4441 104.231 28.7334 104.231 29.0601C104.231 29.3587 104.311 29.6341 104.469 29.8861C104.628 30.1381 104.857 30.3387 105.155 30.4881C105.463 30.6374 105.832 30.7121 106.261 30.7121Z" fill="#222B45"/>
<path fill-rule="evenodd" clip-rule="evenodd" d="M88.75 14.2599C88.75 10.8 91.6312 8 95.1912 8C95.8908 8 96.5645 8.10855 97.1947 8.31043C97.2806 8.33478 97.3648 8.36594 97.4483 8.3968C97.4787 8.40802 97.5089 8.4192 97.5391 8.42999C97.5471 8.43305 97.555 8.43608 97.5629 8.43909C97.5961 8.45174 97.6287 8.46418 97.6618 8.47779C97.7914 8.52769 97.9189 8.58553 98.043 8.64515C98.1648 8.70316 98.283 8.76942 98.3995 8.83634C100.433 10.0009 101.638 12.3999 101.485 14.7497C101.23 18.6533 97.817 21.6273 93.9619 22.1923V20.4003C90.9968 19.837 88.75 17.3058 88.75 14.2599ZM95.9099 10.5565C96.0722 10.3702 96.3039 10.2957 96.5246 10.3177C96.892 10.3542 97.2374 10.64 97.2128 11.0463C97.2128 11.1993 97.1685 11.3952 97.09 11.5481C96.8539 12.0832 96.3868 12.4249 95.8362 12.5396C95.4823 12.1192 95.4037 11.5457 95.6394 11.0105L95.6528 10.9845C95.7267 10.8407 95.7986 10.7008 95.9099 10.5565ZM92.9564 11.0463C92.9564 10.6641 93.2974 10.3867 93.6568 10.3534C93.8723 10.3334 94.0971 10.406 94.2593 10.5923C94.3712 10.7009 94.4434 10.8418 94.5176 10.9865L94.5298 11.0103C94.7657 11.5455 94.6846 12.119 94.37 12.5395C93.8193 12.4248 93.3153 12.0831 93.0791 11.5479C93.0003 11.395 92.9564 11.1991 92.9564 11.0463ZM91.7293 12.1936C91.109 12.2244 90.8319 12.982 91.3481 13.3763C91.5052 13.4909 91.6579 13.5745 91.8152 13.6509C92.366 13.8803 93.0026 13.8016 93.4747 13.4957C93.3567 12.9986 92.956 12.5424 92.4053 12.313C92.2085 12.2365 92.0487 12.1936 91.852 12.1936C91.8121 12.1892 91.7779 12.191 91.7412 12.193L91.7293 12.1936ZM96.7672 14.7978C97.0623 14.6067 97.4272 14.5046 97.7875 14.5111C98.0038 14.515 98.2203 14.5564 98.4269 14.6423L98.4542 14.6555C98.6019 14.7272 98.7458 14.797 98.8939 14.9051C99.4445 15.2875 99.0978 16.1381 98.39 16.1C98.1932 16.1 98.0334 16.0567 97.8367 15.9806C97.286 15.7512 96.8853 15.2948 96.7672 14.7978ZM92.4171 14.5467C92.2009 14.551 91.9844 14.5921 91.778 14.6783C91.5812 14.7548 91.4289 14.8384 91.3109 14.9531C90.7994 15.3737 91.1437 16.1741 91.8517 16.1358C92.0483 16.1358 92.2476 16.0927 92.405 16.0164C92.9555 15.787 93.3462 15.3306 93.4251 14.8337C93.1301 14.6425 92.7775 14.5403 92.4171 14.5467ZM93.154 16.7091C93.3901 16.1738 93.8572 15.8321 94.4078 15.7176C94.7226 16.1764 94.8039 16.7495 94.5678 17.2464L94.5553 17.2709C94.4812 17.415 94.4091 17.5556 94.2973 17.7005C93.9038 18.1974 92.9919 17.8485 93.0312 17.1988C93.0312 17.0458 93.0755 16.8619 93.154 16.7091ZM95.8705 15.7533C95.5559 16.1739 95.4748 16.7473 95.7108 17.2824L95.7241 17.3083C95.7979 17.4522 95.8696 17.5923 95.9812 17.7004C96.4138 18.1592 97.3236 17.82 97.2841 17.2468C97.2841 17.0937 97.24 16.8978 97.1612 16.7448C96.9252 16.2097 96.4212 15.868 95.8705 15.7533Z" fill="#00A818"/>
</svg>
