<svg width="111" height="48" viewBox="0 0 111 48" fill="none" xmlns="http://www.w3.org/2000/svg">
<path fill-rule="evenodd" clip-rule="evenodd" d="M54.3025 4.09816C52.7423 4.23638 52.8115 4.19186 52.064 5.53631C51.641 6.29758 51.6393 6.31824 51.883 7.90539C52.1876 9.88714 52.5881 10.3859 53.9942 10.5335C55.3447 10.6752 55.233 10.8774 53.4104 11.5924L52.751 11.8511L51.3452 11.8377C49.755 11.8226 49.8943 11.7938 48.9048 12.3458C47.7084 13.0128 46.6371 13.8457 46.4771 14.2324C46.3843 14.4565 46.4364 17.2691 46.5399 17.6349C46.6671 18.0833 47.5266 18.7163 48.4405 19.034C48.8207 19.1664 48.9452 19.1755 51.1925 19.2325C55.6938 19.3466 55.6984 19.3576 51.8164 20.7204C49.5752 21.5073 49.533 21.5312 49.232 22.1827C48.9001 22.9015 48.9557 23.0039 50.0365 23.6698C51.1759 24.3714 50.9842 24.3167 52.47 24.3635C57.3099 24.5166 57.4952 24.4991 58.2945 23.8118C58.9202 23.2734 58.9318 23.2394 58.9929 21.7724C59.0866 19.5316 58.9507 19.6472 60.8408 20.2018C62.2571 20.6177 62.0084 20.6354 64.3086 19.9522C66.3276 19.3524 66.2017 19.545 65.9085 17.5089C65.8125 16.8419 65.7339 16.1909 65.7339 16.062C65.7339 15.5489 65.446 15.4253 64.7961 15.6589C62.9863 16.3099 63.1786 16.3556 62.4127 15.0924C61.7507 14.0002 61.6547 13.9056 60.6401 13.3475C59.7326 12.8484 59.7788 12.8638 58.2232 12.5408C56.3157 12.1448 56.3075 12.1404 56.3122 11.5252C56.3168 10.8667 56.4847 10.5876 56.9978 10.3845C57.7366 10.0917 57.7203 10.1505 57.766 7.59517L57.8041 5.47083L57.9684 5.01599C58.1619 4.48054 58.1351 4.31932 57.8218 4.13541C57.5417 3.9707 55.9352 3.95382 54.3025 4.09816ZM67.8375 12.5429C67.341 12.6581 67.0138 13.2014 67.0138 13.9094C67.0138 14.5962 66.9355 14.7618 66.5088 14.9774C65.8488 15.3112 65.8034 15.5065 66.2633 16.0355C66.8067 16.6606 66.795 16.6615 68.6212 15.8885C70.4583 15.111 70.362 15.205 70.3478 14.2036C70.3268 12.7317 70.1849 12.592 68.6427 12.5242C68.3067 12.5097 67.9443 12.5178 67.8375 12.5429ZM68.4687 14.2447C69.0604 14.5994 69.0374 14.9681 68.4178 15.0729C68.0176 15.1404 67.8282 14.9445 67.8282 14.4632C67.8282 14.0322 68.0109 13.9699 68.4687 14.2447ZM57.9379 17.0785C57.935 17.7126 57.7061 18.2309 57.332 18.4503C56.8081 18.7573 56.7514 18.5361 57.1505 17.7425C57.5845 16.8794 57.9405 16.5794 57.9379 17.0785ZM48.0266 25.7685C47.9364 25.85 47.757 26.2169 47.5531 26.7378C47.1176 27.8486 46.8328 28.2598 44.7092 30.8433C43.1614 32.7264 38.6398 38.8352 38.2736 39.538C38.1168 39.8389 38.1581 39.9856 38.5135 40.3924C38.942 40.8819 38.9146 40.9348 37.7541 41.8684C36.6784 42.7335 36.3611 43.1843 36.5524 43.574C36.7011 43.876 36.9027 43.9124 38.4315 43.9127C40.1314 43.9127 40.1942 43.8944 40.4961 43.3086C40.671 42.9693 40.6058 42.7874 40.0147 41.9641C39.1654 40.7815 39.2262 40.7014 40.8077 40.9209C42.2644 41.1228 43.1984 41.0984 43.7327 40.8446C44.2249 40.6109 48.9565 35.9263 51.0974 33.5529C52.9398 31.5106 52.767 31.6253 54.0931 31.5633C55.507 31.4972 55.313 31.4213 57.8425 33.0317C60.579 34.7742 60.1369 34.2504 61.8679 37.8001C63.3985 40.9389 63.5151 41.14 63.861 41.2314C64.5466 41.4127 66.0129 41.4461 67.4894 41.3137C69.1217 41.1674 69.1244 41.1708 68.2872 42.4821C67.3663 43.9252 67.4798 44 70.5915 44C72.7865 44 72.9517 43.9785 73.2786 43.6514C73.8063 43.1235 73.4817 42.8729 71.3056 42.1291C69.3408 41.4575 69.2206 41.3713 69.657 40.9482C70.0912 40.5268 70.0779 40.432 69.3582 38.8492C69.118 38.321 68.7427 37.4949 68.524 37.0132C68.3053 36.5316 68.0432 35.8507 67.9411 35.5C67.5219 34.0569 67.2084 33.6137 65.3517 31.8386C63.571 30.1362 63.2944 29.8481 61.6538 27.9871C59.8053 25.8898 59.9219 25.9713 59.0802 26.1899C58.7881 26.2658 58.2352 26.3709 57.8512 26.4235C56.7185 26.5786 56.6909 26.6465 57.2686 27.8495C57.85 29.0603 57.8032 29.1878 56.775 29.1878C55.8892 29.1878 55.8151 29.1197 55.7307 28.2281C55.6647 27.5285 55.5664 27.3623 54.9922 26.9779C54.4666 26.6264 54.299 26.6095 53.8927 26.8673C53.123 27.3556 52.9697 27.5582 52.8775 28.2074C52.7365 29.2009 52.7152 29.2189 51.6233 29.2771C50.805 29.3208 50.5502 29.2422 50.5502 28.9463C50.5502 28.7548 50.9993 27.6653 51.2489 27.2515C51.6733 26.5472 51.6093 26.459 50.4574 26.166C50.0764 26.0688 49.49 25.9105 49.154 25.8136C48.4193 25.6017 48.22 25.5939 48.0266 25.7685Z" fill="#222B45"/>
</svg>
