<svg width="29" height="28" viewBox="0 0 29 28" fill="none" xmlns="http://www.w3.org/2000/svg">
<path d="M19.3154 20.3973C19.2858 20.4036 16.7108 20.8562 13.5931 21.4031L7.92451 22.3976L17.2789 22.3988L26.6334 22.4L26.595 22.3335C26.5739 22.2968 24.3048 18.3908 21.5526 13.6534C18.6128 8.59316 16.5444 5.04676 16.5387 5.05665C16.5216 5.08622 13.4823 13.3983 13.4823 13.4155C13.4823 13.4245 14.8069 14.9966 16.4257 16.909L19.3692 20.386L19.3154 20.3973Z" fill="#0089D6"/>
<path d="M5.44876 15.0294C3.75363 17.9469 2.3667 20.3379 2.3667 20.3428C2.3667 20.3477 3.62017 20.3501 5.15219 20.3482L7.93768 20.3448L11.7683 12.1857C13.8751 7.69817 15.6302 3.9596 15.6684 3.87775C15.7067 3.7959 15.7327 3.73095 15.7262 3.73341C15.7197 3.73587 14.0981 5.08495 12.1226 6.73138L8.53081 9.72488L5.44876 15.0294Z" fill="#0089D6"/>
</svg>
