<svg width="111" height="48" viewBox="0 0 111 48" fill="none" xmlns="http://www.w3.org/2000/svg">
<path d="M46.9117 3.70166H64.5582C65.0358 3.70166 65.423 4.07813 65.423 4.54253C65.423 5.00693 65.0358 5.3834 64.5582 5.3834H46.9117C46.4341 5.3834 46.0469 5.00693 46.0469 4.54253C46.0469 4.07813 46.4341 3.70166 46.9117 3.70166Z" fill="#696969"/>
<path d="M47.0625 2H50.6106V2.79609H47.0625V2Z" fill="#009FE3"/>
<path d="M51.7031 2H55.2512V2.79609H51.7031V2Z" fill="#C7D302"/>
<path d="M56.2812 2H59.8293V2.79609H56.2812V2Z" fill="#F07E16"/>
<path d="M60.8398 2H64.3879V2.79609H60.8398V2Z" fill="#DF2815"/>
<path d="M60.8398 6.25879H64.3879V12.0901H60.8398V6.25879Z" fill="#DF2815"/>
<path d="M56.2812 6.25879H59.8359V15.7322H56.2812V6.25879Z" fill="#F07E16"/>
<path d="M51.7031 6.25879H55.251V20.4491H51.7031V6.25879Z" fill="#C7D302"/>
<path d="M47.0625 6.25879H50.6106V23.5538H47.0625V6.25879Z" fill="#009FE3"/>
<path d="M35.9121 41.9182C35.5622 41.9182 35.245 41.8807 34.9603 41.8057C34.6757 41.7308 34.4192 41.6313 34.1909 41.5073C33.9625 41.3834 33.7609 41.2378 33.586 41.0706C33.411 40.9033 33.2554 40.7275 33.119 40.543H33.0122C33.03 40.739 33.0478 40.9264 33.0656 41.1052C33.0774 41.2551 33.0893 41.4093 33.1012 41.5679C33.113 41.7264 33.119 41.8519 33.119 41.9441V46.0004H31.5V32.2487H32.8165L33.0478 33.5287H33.119C33.2554 33.3269 33.4095 33.1381 33.5815 32.9622C33.7535 32.7864 33.9537 32.6336 34.182 32.5038C34.4103 32.3741 34.6668 32.2703 34.9514 32.1925C35.2361 32.1146 35.5563 32.0757 35.9121 32.0757C36.4696 32.0757 36.9766 32.1795 37.4333 32.387C37.8899 32.5946 38.2798 32.9046 38.603 33.3168C38.9262 33.7291 39.1768 34.2408 39.3547 34.852C39.5326 35.4632 39.6216 36.1724 39.6216 36.9796C39.6216 37.7926 39.5326 38.5062 39.3547 39.1202C39.1768 39.7343 38.9262 40.2489 38.603 40.664C38.2798 41.0792 37.8899 41.392 37.4333 41.6025C36.9766 41.8129 36.4696 41.9182 35.9121 41.9182ZM35.6008 33.3817C35.1501 33.3817 34.7691 33.448 34.4577 33.5806C34.1464 33.7132 33.8943 33.915 33.7016 34.186C33.5089 34.457 33.3666 34.7943 33.2746 35.1979C33.1827 35.6016 33.1308 36.0772 33.119 36.625V36.9796C33.119 37.562 33.159 38.0795 33.2391 38.5321C33.3191 38.9847 33.4555 39.3653 33.6482 39.6738C33.841 39.9822 34.0975 40.2158 34.4177 40.3743C34.738 40.5329 35.1383 40.6122 35.6186 40.6122C36.4192 40.6122 37.0078 40.2979 37.3844 39.6695C37.7609 39.0409 37.9492 38.1386 37.9492 36.9623C37.9492 35.763 37.7609 34.8664 37.3844 34.2725C37.0078 33.6786 36.4133 33.3817 35.6008 33.3817Z" fill="#696969"/>
<path d="M40.7148 32.2485H42.3961L44.3086 37.5503C44.3916 37.781 44.4761 38.0231 44.5621 38.2768C44.6481 38.5305 44.7282 38.7842 44.8023 39.0379C44.8765 39.2916 44.9402 39.5367 44.9936 39.7731C45.0469 40.0095 45.0855 40.2286 45.1092 40.4304H45.1626C45.1922 40.2863 45.2397 40.0902 45.3049 39.8423C45.3701 39.5943 45.4428 39.3306 45.5229 39.0509C45.6029 38.7712 45.6859 38.4959 45.7719 38.2249C45.8579 37.9539 45.9335 37.7233 45.9987 37.533L47.769 32.2485H49.4413L45.5807 42.9818C45.4146 43.4489 45.2352 43.8684 45.0425 44.2403C44.8498 44.6122 44.6259 44.9278 44.3709 45.1873C44.1159 45.4468 43.8164 45.6471 43.4724 45.7884C43.1285 45.9297 42.7193 46.0003 42.2449 46.0003C41.9365 46.0003 41.6696 45.9844 41.4443 45.9527C41.2189 45.921 41.0262 45.8879 40.8661 45.8533V44.5992C40.9906 44.628 41.1478 44.6525 41.3375 44.6727C41.5273 44.6929 41.726 44.703 41.9335 44.703C42.2182 44.703 42.4643 44.6698 42.6719 44.6035C42.8794 44.5372 43.0603 44.4406 43.2145 44.3138C43.3687 44.1869 43.5006 44.0312 43.6103 43.8467C43.72 43.6622 43.8194 43.4517 43.9083 43.2153L44.4154 41.8315L40.7148 32.2485Z" fill="#696969"/>
<path d="M54.0318 40.6292C54.1385 40.6292 54.2586 40.6234 54.3921 40.6119C54.5255 40.6003 54.6545 40.5859 54.779 40.5686C54.9035 40.5513 55.0177 40.5311 55.1215 40.5081C55.2253 40.485 55.3039 40.4648 55.3572 40.4475V41.6411C55.2801 41.6757 55.1823 41.7103 55.0637 41.7449C54.9451 41.7795 54.8146 41.8098 54.6723 41.8357C54.53 41.8616 54.3817 41.8818 54.2275 41.8962C54.0733 41.9107 53.9221 41.9179 53.7738 41.9179C53.4061 41.9179 53.0651 41.8717 52.7508 41.7795C52.4365 41.6872 52.1652 41.5287 51.9369 41.3038C51.7086 41.0789 51.5292 40.7748 51.3987 40.3913C51.2683 40.0079 51.2031 39.525 51.2031 38.9427V33.4333H49.8242V32.7327L51.2031 32.0581L51.8969 30.0688H52.8309V32.2484H55.2861V33.4333H52.8309V38.9427C52.8309 39.5019 52.9243 39.9228 53.1111 40.2054C53.2979 40.4879 53.6048 40.6292 54.0318 40.6292Z" fill="#009FE3"/>
<path d="M61.1142 41.9182C60.4619 41.9182 59.8659 41.8115 59.3262 41.5981C58.7866 41.3848 58.3225 41.0734 57.9341 40.664C57.5456 40.2547 57.2447 39.7473 57.0312 39.1418C56.8177 38.5364 56.7109 37.8445 56.7109 37.0661C56.7109 36.2819 56.8088 35.5814 57.0045 34.9644C57.2002 34.3475 57.476 33.8242 57.8318 33.3946C58.1876 32.9651 58.6131 32.6379 59.1083 32.413C59.6035 32.1881 60.1505 32.0757 60.7495 32.0757C61.3366 32.0757 61.8644 32.178 62.3329 32.3827C62.8014 32.5874 63.1987 32.8757 63.5249 33.2476C63.851 33.6195 64.1016 34.0664 64.2765 34.5882C64.4515 35.11 64.539 35.6881 64.539 36.3223V37.2996H58.3833C58.4129 38.4124 58.6546 39.2312 59.1083 39.7559C59.5619 40.2806 60.2365 40.543 61.132 40.543C61.4344 40.543 61.7146 40.5286 61.9726 40.4997C62.2306 40.4709 62.4797 40.4291 62.7198 40.3743C62.96 40.3195 63.1928 40.2503 63.4181 40.1667C63.6435 40.0831 63.8718 39.9895 64.1031 39.8857V41.2868C63.8659 41.3963 63.6331 41.4915 63.4048 41.5722C63.1765 41.6529 62.9422 41.7192 62.7021 41.7711C62.4619 41.823 62.2128 41.8605 61.9548 41.8836C61.6969 41.9066 61.4167 41.9182 61.1142 41.9182ZM60.7139 33.3817C60.0378 33.3817 59.5026 33.6065 59.1083 34.0563C58.7139 34.506 58.4841 35.1605 58.4189 36.0196H62.7954C62.7954 35.6275 62.7554 35.2686 62.6754 34.9428C62.5953 34.617 62.4708 34.3388 62.3018 34.1082C62.1327 33.8776 61.9178 33.6988 61.6568 33.572C61.3959 33.4451 61.0816 33.3817 60.7139 33.3817Z" fill="#009FE3"/>
<path d="M72.8454 39.1418C72.8454 39.6031 72.7595 40.0067 72.5875 40.3527C72.4155 40.6986 72.1679 40.9884 71.8447 41.2219C71.5215 41.4554 71.1316 41.6298 70.675 41.7452C70.2183 41.8605 69.7054 41.9182 69.136 41.9182C68.4896 41.9182 67.9351 41.8677 67.4726 41.7668C67.01 41.6659 66.6038 41.5174 66.2539 41.3214V39.8857C66.4378 39.9779 66.6424 40.0687 66.8677 40.1581C67.0931 40.2475 67.3303 40.3268 67.5794 40.396C67.8284 40.4651 68.0849 40.5214 68.3488 40.5646C68.6127 40.6078 68.8751 40.6295 69.136 40.6295C69.5215 40.6295 69.8492 40.5977 70.119 40.5343C70.3888 40.4709 70.6083 40.3801 70.7773 40.2619C70.9463 40.1437 71.0693 39.9995 71.1464 39.8294C71.2235 39.6593 71.2621 39.4705 71.2621 39.2629C71.2621 39.0842 71.2324 38.9227 71.1731 38.7786C71.1138 38.6344 71.0056 38.4917 70.8484 38.3505C70.6913 38.2092 70.4763 38.0665 70.2035 37.9224C69.9307 37.7782 69.5808 37.6168 69.1538 37.438C68.7268 37.2593 68.3429 37.0834 68.0019 36.9104C67.6609 36.7375 67.3718 36.5443 67.1346 36.3309C66.8973 36.1176 66.715 35.8711 66.5875 35.5915C66.46 35.3118 66.3963 34.9788 66.3963 34.5925C66.3963 34.1889 66.4778 33.83 66.6409 33.5157C66.8039 33.2015 67.0337 32.9377 67.3303 32.7244C67.6268 32.511 67.9826 32.3496 68.3977 32.24C68.8129 32.1305 69.2754 32.0757 69.7854 32.0757C70.3607 32.0757 70.887 32.1362 71.3643 32.2573C71.8418 32.3784 72.2939 32.537 72.7209 32.733L72.1605 34.0044C71.775 33.8372 71.3792 33.6916 70.973 33.5676C70.5667 33.4437 70.1531 33.3817 69.7321 33.3817C69.1271 33.3817 68.6794 33.4782 68.3888 33.6714C68.0982 33.8646 67.953 34.1399 67.953 34.4974C67.953 34.6992 67.9871 34.875 68.0552 35.025C68.1234 35.1749 68.2406 35.3161 68.4066 35.4487C68.5727 35.5814 68.795 35.7154 69.0738 35.8509C69.3525 35.9864 69.6994 36.1378 70.1146 36.305C70.5415 36.478 70.9225 36.651 71.2576 36.824C71.5927 36.9969 71.8788 37.1915 72.116 37.4077C72.3532 37.624 72.5341 37.8705 72.6586 38.1472C72.7832 38.424 72.8454 38.7555 72.8454 39.1418Z" fill="#009FE3"/>
<path d="M78.1724 40.6292C78.2792 40.6292 78.3992 40.6234 78.5327 40.6119C78.6661 40.6003 78.7951 40.5859 78.9196 40.5686C79.0442 40.5513 79.1583 40.5311 79.2621 40.5081C79.3659 40.485 79.4445 40.4648 79.4979 40.4475V41.6411C79.4208 41.6757 79.3229 41.7103 79.2043 41.7449C79.0857 41.7795 78.9552 41.8098 78.8129 41.8357C78.6706 41.8616 78.5223 41.8818 78.3681 41.8962C78.2139 41.9107 78.0627 41.9179 77.9145 41.9179C77.5468 41.9179 77.2058 41.8717 76.8915 41.7795C76.5772 41.6872 76.3058 41.5287 76.0775 41.3038C75.8492 41.0789 75.6698 40.7748 75.5394 40.3913C75.4089 40.0079 75.3436 39.525 75.3436 38.9427V33.4333H73.9648V32.7327L75.3436 32.0581L76.0375 30.0688H76.9715V32.2484H79.4267V33.4333H76.9715V38.9427C76.9715 39.5019 77.0649 39.9228 77.2517 40.2054C77.4385 40.4879 77.7454 40.6292 78.1724 40.6292Z" fill="#009FE3"/>
</svg>
