<svg width="111" height="48" viewBox="0 0 111 48" fill="none" xmlns="http://www.w3.org/2000/svg">
<path d="M34.2601 24.141C37.8218 18.816 34.9561 13.3451 30.8964 11.5582C26.4683 9.60921 20.7246 12.9156 20.5 19.1108V37H30.1441C34.7964 35.4699 34.5338 31.2384 33.1667 28.9777C29.5701 24.1457 22.9708 28.5078 25.0624 34.0006L26.3875 33.1956L25.0137 36.652L21.6125 36.0875L22.8103 35.3642C21.2059 32.0578 22.1044 27.4115 25.5963 25.1777C20.7781 22.9856 20.4773 13.81 27.6877 12.7532C31.6452 12.1731 36.6493 17.8212 32.863 23.2739L33.6087 23.8855L30.9606 23.8905L30.268 21.1234L31.1531 21.8254C34.1213 17.0747 28.1369 12.6546 25.1206 16.7266C24.0643 18.1527 23.6927 21.0945 26.1956 22.887C26.9883 23.4364 29.1817 23.784 30.9596 24.2675C31.9025 24.524 33.1214 25.2705 33.5597 25.6539C37.0573 28.8559 37.7023 33.1144 34.9913 37H37.0894C39.8168 32.7887 38.4371 26.6632 34.2601 24.141Z" fill="#5F6578"/>
<path d="M44.5 26.3031V20.1108C44.5 19.4973 44.9973 19 45.6108 19C46.2243 19 46.7216 19.4973 46.7216 20.1108V22.4012C47.5456 21.8712 48.4686 21.6062 49.4908 21.6062C50.8676 21.6062 52.0409 22.0675 53.0109 22.9902C53.9914 23.9031 54.4816 25.0074 54.4816 26.3031C54.4816 27.5988 53.9914 28.708 53.0109 29.6307C52.0409 30.5436 50.8676 31 49.4908 31C48.114 31 46.9354 30.5436 45.955 29.6307C44.985 28.708 44.5 27.5988 44.5 26.3031ZM47.5195 28.1436C48.0619 28.654 48.719 28.9092 49.4908 28.9092C50.2626 28.9092 50.9145 28.654 51.4464 28.1436C51.9888 27.6331 52.26 27.0196 52.26 26.3031C52.26 25.5865 51.9888 24.973 51.4464 24.4626C50.9145 23.9522 50.2626 23.6969 49.4908 23.6969C48.719 23.6969 48.0619 23.9522 47.5195 24.4626C46.9876 24.973 46.7216 25.5865 46.7216 26.3031C46.7216 27.0196 46.9876 27.6331 47.5195 28.1436Z" fill="#5F6578"/>
<path d="M56.4589 22.9902C57.4393 22.0675 58.6179 21.6061 59.9947 21.6061C61.3715 21.6061 62.5448 22.0675 63.5148 22.9902C64.4953 23.9031 64.9855 25.0074 64.9855 26.3031C64.9855 26.6685 64.6685 26.9362 64.3031 26.9362H57.3037C57.4498 27.5055 57.7731 27.9767 58.2737 28.3497C58.7744 28.7227 59.348 28.9092 59.9947 28.9092C60.6622 28.9092 61.2567 28.7031 61.7782 28.2908C63.0293 28.2908 63.7355 29.6081 62.67 30.2638C61.8669 30.7546 60.9751 31 59.9947 31C58.6179 31 57.4393 30.5435 56.4589 29.6307C55.4889 28.708 55.0039 27.5988 55.0039 26.3031C55.0039 25.0074 55.4889 23.9031 56.4589 22.9902ZM57.3976 25.3755H62.5761C62.378 24.8749 62.0442 24.4675 61.5748 24.1534C61.1055 23.8393 60.5788 23.6822 59.9947 23.6822C59.4106 23.6822 58.8787 23.8393 58.3989 24.1534C57.9295 24.4675 57.5958 24.8749 57.3976 25.3755Z" fill="#5F6578"/>
<path d="M74.6307 25.773V29.897C74.6307 30.5062 74.1368 31 73.5277 31C72.9185 31 72.4247 30.5062 72.4247 29.897V25.773C72.4247 25.2037 72.2057 24.7178 71.7676 24.3153C71.34 23.9031 70.8185 23.6969 70.2031 23.6969C69.5877 23.6969 69.061 23.9031 68.6229 24.3153C68.1953 24.7178 67.9815 25.2037 67.9815 25.773V29.8892C67.9815 30.5027 67.4842 31 66.8707 31C66.2572 31 65.7599 30.5027 65.7599 29.8892V20.1108C65.7599 19.4973 66.2572 19 66.8707 19C67.4842 19 67.9815 19.4973 67.9815 20.1108V22.1656C68.6803 21.7926 69.4209 21.6061 70.2031 21.6061C71.4234 21.6061 72.4664 22.0135 73.3321 22.8282C74.1978 23.6429 74.6307 24.6245 74.6307 25.773Z" fill="#5F6578"/>
<path d="M85.4534 26.3031V29.8631C85.4534 30.491 84.9871 31 84.3593 31C83.8743 31 83.4 30.6924 83.2418 30.234L83.2318 30.2049C82.387 30.7349 81.4639 31 80.4626 31C79.0858 31 77.9072 30.5435 76.9268 29.6307C75.9568 28.708 75.4718 27.5988 75.4718 26.3031C75.4718 25.0073 75.9568 23.9031 76.9268 22.9902C77.9072 22.0675 79.0858 21.6061 80.4626 21.6061C81.8394 21.6061 83.0128 22.0675 83.9828 22.9902C84.9632 23.9031 85.4534 25.0073 85.4534 26.3031ZM82.4183 24.4478C81.8759 23.9374 81.224 23.6822 80.4626 23.6822C79.7012 23.6822 79.0493 23.9374 78.507 24.4478C77.9646 24.9583 77.6934 25.5767 77.6934 26.3031C77.6934 27.0196 77.9646 27.6331 78.507 28.1435C79.0493 28.654 79.7012 28.9092 80.4626 28.9092C81.224 28.9092 81.8759 28.654 82.4183 28.1435C82.9606 27.6331 83.2318 27.0196 83.2318 26.3031C83.2318 25.5767 82.9606 24.9583 82.4183 24.4478Z" fill="#5F6578"/>
<path d="M87.7308 19C88.3443 19 88.8416 19.4973 88.8416 20.1108V21.5031L89.2196 21.5031C89.6506 21.5031 90 21.8524 90 22.2834C90 22.7144 89.6506 23.0638 89.2196 23.0638H88.8416V27.8638C88.8416 28.1583 88.9459 28.4086 89.1545 28.6147C89.3736 28.811 89.6343 28.9092 89.9368 28.9092C90.2478 28.9092 90.5 29.1613 90.5 29.4724V29.9546V30.4367C90.5 30.7478 90.2478 31 89.9368 31C89.0189 31 88.2367 30.6957 87.59 30.0871C86.9434 29.4687 86.62 28.7276 86.62 27.8638V23.0638L86.2338 23.0638C85.8028 23.0638 85.4534 22.7144 85.4534 22.2834C85.4534 21.8524 85.8028 21.5031 86.2338 21.5031L86.62 21.5031V20.1108C86.62 19.4973 87.1173 19 87.7308 19Z" fill="#5F6578"/>
</svg>
