<svg xmlns="http://www.w3.org/2000/svg" width="111" height="48" fill="none"><path fill="#58AC3D" d="M42.85 47.868 41.76 45.94c-.437-.742-.728-1.205-1.001-1.725h-.019c-.236.501-.473.965-.928 1.744l-1.037 1.91H37.5l2.639-4.414-2.512-4.322h1.274l1.129 2.04c.31.575.564 1.02.782 1.484h.037c.236-.52.455-.928.782-1.484l1.183-2.04h1.238l-2.603 4.248 2.675 4.488h-1.273ZM51.023 47.59a5.538 5.538 0 0 1-2.257.408c-2.42 0-4.24-1.558-4.24-4.414 0-2.727 1.82-4.582 4.477-4.582a4.563 4.563 0 0 1 2.038.408l-.273.927a4.262 4.262 0 0 0-1.729-.37c-2.001 0-3.348 1.298-3.348 3.598 0 2.133 1.201 3.506 3.294 3.506a4.3 4.3 0 0 0 1.802-.371l.236.89ZM51.785 40.096v-.964h6.351v.964h-2.62v7.772h-1.11v-7.772h-2.621ZM58.78 44.938c.036 1.54 1 2.17 2.11 2.17a4.184 4.184 0 0 0 1.712-.316l.2.798a5.196 5.196 0 0 1-2.039.408c-1.892 0-3.02-1.28-3.02-3.153 0-1.892 1.091-3.376 2.893-3.376 2.002 0 2.548 1.8 2.548 2.95 0 .185-.018.352-.036.537l-4.368-.018Zm3.276-.798c0-.724-.292-1.855-1.566-1.855-1.128 0-1.62 1.057-1.71 1.855h3.276ZM64.364 46.7c.437.278.947.445 1.475.445.819 0 1.183-.408 1.183-.928 0-.519-.31-.834-1.147-1.15-1.11-.408-1.62-1.02-1.62-1.78 0-1.02.783-1.837 2.13-1.837.527 0 1.055.13 1.51.408l-.273.835a2.362 2.362 0 0 0-1.256-.37c-.655 0-1.037.407-1.037.852 0 .446.364.76 1.183 1.058 1.074.408 1.62.964 1.62 1.892 0 1.094-.838 1.873-2.293 1.873-.601.019-1.202-.13-1.73-.426l.255-.872ZM70.898 39.8v1.799H72.5v.872h-1.602v3.376c0 .779.219 1.205.838 1.205.218 0 .436-.018.655-.074l.054.853c-.309.112-.655.167-1 .149a1.536 1.536 0 0 1-1.202-.482c-.31-.334-.436-.89-.436-1.633v-3.413h-.947v-.872h.947v-1.484l1.091-.297Z"/><path fill="url(#a)" fill-rule="evenodd" d="M59.79 1.81C58.6.595 57.5 0 55.565 0 54 0 52.645.3 51.647 1.383L49.61 3.426a953.069 953.069 0 0 0-8.117 8.2c-2.702 2.774-2.638 5.87.077 8.63l1.232 1.247c2.88 2.915 5.765 5.833 8.678 8.712 2.42 2.4 5.698 2.374 8.106-.039a3777.55 3777.55 0 0 0 10.09-10.165c2.432-2.464 2.432-5.766 0-8.23a1806.846 1806.846 0 0 0-3.958-3.986c-1.98-1.99-3.96-3.981-5.928-5.986ZM46.42 14.773h-.022l7.35 11.068.017-.027.009.014 9.334-14.86-2.56-2.684-.012.015-.002-.002c-1.364 1.9-2.605 3.872-3.858 5.862-.954 1.516-1.915 3.043-2.943 4.558-.364-.61-.705-1.185-1.036-1.744-.32-.542-.632-1.068-.946-1.594-.027-.047-.051-.096-.076-.145-.118-.236-.238-.474-.578-.474H46.41l.009.013Z" clip-rule="evenodd"/><defs><linearGradient id="a" x1="55.5" x2="55.5" y1="0" y2="32" gradientUnits="userSpaceOnUse"><stop stop-color="#7AE855"/><stop offset="1" stop-color="#58AC3E"/></linearGradient></defs></svg>