<svg viewBox="0 0 17 16" fill="none" xmlns="http://www.w3.org/2000/svg">
    <path fill-rule="evenodd" clip-rule="evenodd" d="M8.28203 1.5C4.71979 1.5 1.83203 4.38776 1.83203 7.95C1.83203 11.5122 4.71979 14.4 8.28203 14.4C11.8443 14.4 14.732 11.5122 14.732 7.95C14.732 4.38776 11.8443 1.5 8.28203 1.5ZM0.332031 7.95C0.332031 3.55934 3.89137 0 8.28203 0C12.6727 0 16.232 3.55934 16.232 7.95C16.232 12.3407 12.6727 15.9 8.28203 15.9C3.89137 15.9 0.332031 12.3407 0.332031 7.95Z" fill="#8791AB"/>
    <path d="M9.28174 4.94995C9.28174 5.50224 8.83402 5.94995 8.28174 5.94995C7.72945 5.94995 7.28174 5.50224 7.28174 4.94995C7.28174 4.39767 7.72945 3.94995 8.28174 3.94995C8.83402 3.94995 9.28174 4.39767 9.28174 4.94995Z" fill="#8791AB"/>
    <path d="M7.34424 6.94995C7.03358 6.94995 6.78174 7.17381 6.78174 7.44995C6.78174 7.72609 7.03358 7.94995 7.34424 7.94995H7.71924L7.71924 11.45C7.71924 11.7261 7.97108 11.95 8.28174 11.95H9.28174C9.5924 11.95 9.84424 11.7261 9.84424 11.45C9.84424 11.1738 9.5924 10.95 9.28174 10.95H8.90674L8.90674 7.44995C8.90674 7.17381 8.6549 6.94995 8.34424 6.94995H7.34424Z" fill="#8791AB"/>
</svg>
