<svg viewBox="0 0 24 24" fill="none" xmlns="http://www.w3.org/2000/svg"><path fill-rule="evenodd" clip-rule="evenodd" d="M12 1.5a1 1 0 0 1 .896.555L16 8.18l6.144.827a1 1 0 0 1 .551 1.709l-5.12 3.985 1.972 6.628a1 1 0 0 1-1.448 1.056L12 18.723l-6.099 3.663a1 1 0 0 1-1.448-1.056l1.972-6.628-5.12-3.985a1 1 0 0 1 .551-1.709L8 8.181l3.104-6.126A1 1 0 0 1 12 1.5Zm0 3.247L9.558 9.54a1 1 0 0 1-.752.545l-4.647.61 4.036 2.937a1 1 0 0 1 .29.889l-1.717 5.156 4.77-2.968a1 1 0 0 1 .925 0l4.77 2.968-1.718-5.156a1 1 0 0 1 .29-.89l4.036-2.936-4.647-.61a1 1 0 0 1-.752-.545L12 4.747Z" fill="#8791AB"/></svg>
