<svg viewBox="0 0 24 24" fill="none" xmlns="http://www.w3.org/2000/svg"><path fill-rule="evenodd" clip-rule="evenodd" d="M17.227 3.028a5 5 0 0 0-5.117 7.03 1 1 0 0 1-.204 1.119l-6.91 6.91a1.121 1.121 0 0 0 1.586 1.586l6.91-6.91a1 1 0 0 1 1.12-.204 5 5 0 0 0 7.03-5.117l-2.573 2.572a2 2 0 0 1-2.8 0l-.007-.007L14.655 8.4a2 2 0 0 1 0-2.8l.007-.007 2.565-2.565Zm-1.816-1.919a7 7 0 0 1 4.14.51 1 1 0 0 1 .295 1.618L16.084 7l1.585 1.586 3.763-3.763a1 1 0 0 1 1.618.294 7 7 0 0 1-8.606 9.522l-6.448 6.448a3.121 3.121 0 1 1-4.414-4.414l6.448-6.448a7 7 0 0 1 5.38-9.116Z" fill="#8791AB"/></svg>
