<svg xmlns="http://www.w3.org/2000/svg" width="28" height="28" fill="none"><path fill="currentColor" d="M10.713 3.503a15.82 15.82 0 0 1 7.19 0c1.364-.843 2.409-1.232 3.171-1.396.416-.09.747-.113.996-.106a2.461 2.461 0 0 1 .419.047 1.306 1.306 0 0 1 .06.015l.005.001h.003l.004.002h.002l.002.001a1 1 0 0 1 .638.557 6.165 6.165 0 0 1 .31 4.112A6.59 6.59 0 0 1 25 10.896c0 3.082-.971 5.138-2.567 6.441-1.09.891-2.396 1.366-3.685 1.635a4.433 4.433 0 0 1 .329 2.017V25a1 1 0 0 1-2 0v-4.05l.003-.08a2.433 2.433 0 0 0-.144-1.043 2.513 2.513 0 0 0-.579-.9 1 1 0 0 1 .6-1.701c1.638-.177 3.13-.555 4.211-1.437 1.027-.84 1.832-2.262 1.832-4.893m0 0c0-1.195-.473-2.35-1.33-3.224a1 1 0 0 1-.219-1.058 4.163 4.163 0 0 0 .137-2.57c-.03.005-.06.01-.092.018-.54.116-1.48.446-2.873 1.353a1 1 0 0 1-.8.129 13.817 13.817 0 0 0-7.03 0 1 1 0 0 1-.8-.13C8.6 4.509 7.66 4.179 7.12 4.063a3.48 3.48 0 0 0-.092-.019 4.162 4.162 0 0 0 .137 2.571 1 1 0 0 1-.22 1.058 4.606 4.606 0 0 0-1.33 3.25v.005c0 2.607.804 4.021 1.833 4.862 1.084.885 2.58 1.271 4.223 1.47a1 1 0 0 1 .588 1.698 2.51 2.51 0 0 0-.574.89c-.124.331-.174.682-.149 1.032l.003.072V25a1 1 0 1 1-2 0v-1.886c-.896.143-1.677.125-2.369-.033-1.016-.23-1.745-.74-2.309-1.287a9.578 9.578 0 0 1-.721-.8l-.195-.239c-.13-.16-.245-.302-.367-.442-.353-.402-.586-.563-.814-.619a1 1 0 1 1 .472-1.943c.849.206 1.424.764 1.845 1.244.15.17.303.36.445.534l.159.195c.192.235.375.446.57.635.378.368.793.644 1.359.772.458.105 1.075.125 1.925-.05v-.096a4.434 4.434 0 0 1 .336-1.996c-1.29-.279-2.6-.76-3.692-1.652-1.593-1.3-2.567-3.344-2.567-6.407a6.59 6.59 0 0 1 1.487-4.194 6.165 6.165 0 0 1 .31-4.112 1 1 0 0 1 .638-.557l.004-.001h.002l.002-.001a1.06 1.06 0 0 1 .068-.017A2.462 2.462 0 0 1 6.545 2c.25-.007.58.016.997.106.762.164 1.807.553 3.171 1.396"/></svg>
