<svg xmlns="http://www.w3.org/2000/svg" width="28" height="28" fill="none"><path fill="currentColor" fill-rule="evenodd" d="M6 3a1 1 0 1 0 0 2 1 1 0 0 0 0-2ZM3 4a3 3 0 1 1 6 0 3 3 0 0 1-6 0Zm15 6a5 5 0 0 0-5 5v6h2v-6a3 3 0 0 1 6 0v6h2v-6a5 5 0 0 0-5-5Zm-4.95.05A7 7 0 0 1 25 15v7a1 1 0 0 1-1 1h-4a1 1 0 0 1-1-1v-7a1 1 0 0 0-2 0v7a1 1 0 0 1-1 1h-4a1 1 0 0 1-1-1v-7a7 7 0 0 1 2.05-4.95ZM3 10a1 1 0 0 1 1-1h4a1 1 0 0 1 1 1v12a1 1 0 0 1-1 1H4a1 1 0 0 1-1-1V10Zm2 1v10h2V11H5Z" clip-rule="evenodd"/></svg>
