<svg width="2110" height="298" viewBox="0 0 2110 298" xmlns="http://www.w3.org/2000/svg" xmlns:xlink="http://www.w3.org/1999/xlink"><title>C83DC1CB-38AD-4655-9DCE-206DAA62534E</title><defs><linearGradient x1="50%" y1="100%" x2="50%" y2="7.52%" id="b"><stop stop-color="#4CC7DA" stop-opacity="0" offset="0%"/><stop stop-color="#48C6DA" offset="100%"/></linearGradient><linearGradient x1="100%" y1="100%" x2="0%" y2="0%" id="c"><stop stop-color="#BEE8DE" offset="0%"/><stop stop-color="#7CC57A" stop-opacity=".398" offset="15.187%"/><stop stop-color="#39C2D7" stop-opacity=".597" offset="100%"/></linearGradient><path id="a" d="M0 0h2110v298H0z"/></defs><g fill="none" fill-rule="evenodd"><mask id="d" fill="#fff"><use xlink:href="#a"/></mask><use fill-opacity=".2" fill="#39C2D7" xlink:href="#a"/><use fill-opacity=".4" fill="url(#b)" xlink:href="#a"/><use fill="url(#c)" xlink:href="#a"/><use fill-opacity=".7" fill="#79D6D9" xlink:href="#a"/><g opacity=".9" mask="url(#d)" stroke="#39C2D7" stroke-dasharray="3,4"><path d="M2183.534-121.287c-317.043 0-325.763 398.068-618.583 398.068s-291.422-238.91-544.073-238.91c-252.65 0-235.531 134.43-489.065 134.43S83.253-169-125.775-169C-334.802-169-421.314-6.36-571.334-6.36-721.354-6.36-374.808 484-374.808 484h2709.362c0-220.453 166.022-605.287-151.02-605.287z"/><path d="M2193-70c-317.042 0-330.68 311.5-623.5 311.5S1275.15 18 1022.5 18C769.85 18 791.534 187 538 187S121.028-241.5-88-241.5c-209.028 0-333.314 235.14-483.334 235.14C-721.354-6.36-374.808 484-374.808 484h2709.362c0-220.453 175.488-554-141.554-554z"/><path d="M2269.5-76.5c-190 0-310 397.5-509 397.5S1276.65 4 1024 4C771.35 4 799.534 203 546 203S164.528-312.5-44.5-312.5c-209.028 0-376.814 306.64-526.834 306.64-150.02 0 196.526 490.36 196.526 490.36h2709.362c0-220.453 124.946-561-65.054-561z"/><path d="M1876.407 138.784c-194.632 0-210.825 104.19-421.925 104.19-211.1 0-211.35-125.028-422.426-125.028-211.075 0-210.962 97.244-421.925 97.244-210.963 0-261.09-104.19-471.917-104.19-210.826 0-300.28 104.19-450.253 104.19-149.974 0-101.482 268.81-101.482 268.81H2295c0-219.84-223.96-345.216-418.593-345.216z"/><path d="M1876.407 138.784c-194.632 0-210.825 104.19-421.925 104.19-211.1 0-211.35-125.028-422.426-125.028-211.075 0-210.962 97.244-421.925 97.244-210.963 0-261.09-104.19-471.917-104.19-210.826 0-300.28 104.19-450.253 104.19-149.974 0-101.482 268.81-101.482 268.81H2295c0-219.84-223.96-345.216-418.593-345.216z"/><path d="M1881.5 162c-194.632 0-215.4 95-426.5 95s-210.424-148-421.5-148-205.037 87-416 87S347.826 92 137 92c-210.826 0-299.066 123.19-449.04 123.19C-462.012 215.19-413.52 484-413.52 484H2295c0-219.84-218.868-322-413.5-322z"/><path d="M1889 184.5c-194.632 0-219.4 87.5-430.5 87.5S1243.076 126.5 1032 126.5 820.463 234 609.5 234 349.826 73 139 73c-210.826 0-301.066 142.19-451.04 142.19C-462.012 215.19-413.52 484-413.52 484H2295c0-219.84-211.368-299.5-406-299.5z"/><path d="M77.14 144.676c192.819 0 210.847 104.515 421.968 104.515s211.37-104.515 422.468-104.515c211.097 0 210.94 93.824 421.924 93.824 210.984 0 291.158-163.5 502.005-163.5 210.847 0 212.817 152.243 444.8 152.243 231.981 0 76.993 256.757 76.993 256.757H-266s150.322-339.324 343.14-339.324z"/><path d="M46 174.5c113.5 0 158.5 109 343.5 109S640 152.497 810.574 152.497C981.15 152.497 1040 246.5 1230 246.5S1498.481 37 1692.5 37s233.719 191.945 383.738 191.945c44.115 0 101.262-32.445 127.262-47.445S2150 473 2150 473L-33.702 484S-173.028 174.5 46 174.5z"/></g></g></svg>