<svg width="27" height="27" viewBox="0 0 27 27" fill="none" xmlns="http://www.w3.org/2000/svg">
    <path d="M22.9252 9.86879L22.9252 9.86878L22.9236 9.86726C22.5381 9.50388 21.9311 9.51072 21.554 9.88777C21.17 10.2718 21.17 10.8944 21.554 11.2784C21.554 11.2784 21.554 11.2784 21.554 11.2784L23.7753 13.4998L21.554 15.7211L21.554 15.7211L21.5525 15.7227L21.5351 15.7406L21.535 15.7406L21.5335 15.7422C21.1701 16.1277 21.177 16.7347 21.554 17.1118C21.9311 17.4888 22.5381 17.4956 22.9236 17.1323L22.9236 17.1323L22.9252 17.1307L22.9431 17.1133L22.9431 17.1133L22.9447 17.1118L25.8613 14.1951L25.8614 14.1951L25.8629 14.1935L25.8803 14.1756L25.8803 14.1756L25.8818 14.174C26.2452 13.7885 26.2384 13.1815 25.8613 12.8044L22.9447 9.88777L22.9447 9.88776L22.9431 9.88622L22.9252 9.86879Z" fill="currentColor" stroke="white" stroke-width="0.3"/>
    <path d="M4.0758 9.86726L4.07579 9.86725L4.0742 9.86879L4.05625 9.88622L4.05624 9.88621L4.05468 9.88777L1.13801 12.8044C0.753996 13.1885 0.753996 13.8111 1.13801 14.1951L4.05468 17.1118L4.05467 17.1118L4.05625 17.1133L4.0742 17.1307L4.07419 17.1307L4.0758 17.1323C4.46126 17.4956 5.06827 17.4888 5.44533 17.1118C5.82934 16.7277 5.82934 16.1051 5.44533 15.7211L3.22405 13.4998L5.44533 11.2784L5.44534 11.2784L5.44687 11.2768L5.4643 11.2589L5.46431 11.2589L5.46583 11.2573C5.82922 10.8718 5.82238 10.2648 5.44533 9.88777C5.06827 9.51072 4.46126 9.50388 4.0758 9.86726Z" fill="currentColor" stroke="white" stroke-width="0.3"/>
    <path d="M11.2591 15.7023L11.2591 15.7023L11.2575 15.7008C10.8721 15.3374 10.2651 15.3442 9.88801 15.7213C9.51096 16.0983 9.50412 16.7053 9.8675 17.0908L9.86749 17.0908L9.86903 17.0924L9.88646 17.1104L9.88645 17.1104L9.88801 17.1119L15.026 22.2499L13.5 23.7759L11.2787 21.5546L11.2787 21.5546L11.2771 21.5531L11.2591 21.5356L11.2591 21.5356L11.2575 21.5341C10.8721 21.1707 10.2651 21.1776 9.88801 21.5546C9.51096 21.9317 9.50412 22.5387 9.8675 22.9241L9.86749 22.9242L9.86903 22.9257L9.88646 22.9437L9.88645 22.9437L9.88801 22.9453L12.8047 25.8619L12.8047 25.8619L12.8065 25.8637L12.8276 25.8841L12.8276 25.8842L12.8295 25.8859C13.0146 26.0586 13.2502 26.1466 13.4863 26.1499H13.4884H13.5116V26.1499L13.5158 26.1498L13.5391 26.1492L13.5411 26.1491C13.7787 26.1392 14.0139 26.0434 14.1953 25.8619L17.112 22.9453L17.112 22.9453L17.1135 22.9437L17.131 22.9257L17.131 22.9257L17.1325 22.9241C17.4959 22.5387 17.489 21.9317 17.112 21.5546L11.2787 15.7213L11.2787 15.7213L11.2771 15.7197L11.2591 15.7023ZM11.2591 9.86896L11.2591 9.86895L11.2575 9.86743C10.8721 9.50405 10.2651 9.51089 9.88801 9.88794C9.51096 10.265 9.50412 10.872 9.8675 11.2575L9.86749 11.2575L9.86904 11.2591L9.88647 11.277L9.88645 11.277L9.88801 11.2786L15.7214 17.1119L15.7213 17.1119L15.7229 17.1135L15.7409 17.1309L15.7409 17.1309L15.7425 17.1324C16.1279 17.4958 16.7349 17.489 17.112 17.1119C17.489 16.7349 17.4959 16.1279 17.1325 15.7424L17.1325 15.7424L17.131 15.7408L17.1135 15.7229L17.1136 15.7228L17.112 15.7213L11.2787 9.88794L11.2787 9.88793L11.2771 9.88639L11.2591 9.86896ZM13.5137 0.850014V0.85H13.5116H13.4884V0.849986L13.4863 0.850014C13.2394 0.853439 12.9932 0.949453 12.8047 1.13793L9.88801 4.0546L9.888 4.05459L9.88646 4.05617L9.86903 4.07412L9.86902 4.07411L9.8675 4.07572C9.51083 4.45406 9.51083 5.04578 9.8675 5.42412L9.86749 5.42414L9.86903 5.42572L9.88646 5.44367L9.88645 5.44368L9.88801 5.44525L15.7214 11.2786L15.7213 11.2786L15.7229 11.2801L15.7409 11.2976L15.7409 11.2976L15.7425 11.2991C16.1279 11.6625 16.7349 11.6556 17.112 11.2786C17.489 10.9015 17.4959 10.2945 17.1325 9.90906L17.1325 9.90905L17.131 9.90746L17.1135 9.88951L17.1136 9.8895L17.112 9.88794L11.974 4.74992L13.5 3.22397L15.7214 5.44525L15.7213 5.44526L15.7229 5.4468L15.7409 5.46422L15.7409 5.46424L15.7425 5.46575C16.1279 5.82914 16.7349 5.8223 17.112 5.44525C17.489 5.06819 17.4959 4.46118 17.1325 4.07572L17.1325 4.07571L17.131 4.07412L17.1135 4.05617L17.1136 4.05616L17.112 4.0546L14.1953 1.13793L14.1953 1.13792L14.1935 1.13611L14.1724 1.11572L14.1724 1.11571L14.1705 1.11393C13.9854 0.941246 13.7498 0.85329 13.5137 0.850014Z" fill="currentColor" stroke="white" stroke-width="0.3"/>
</svg>
