<svg width="148" height="32" viewBox="0 0 148 32" fill="none" xmlns="http://www.w3.org/2000/svg">
<path d="M1.45215 18.9203L1.45215 23.2845C1.45215 23.6129 1.63387 23.9165 1.92885 24.0807L15.0118 31.3652C15.3068 31.5294 15.6702 31.5294 15.9652 31.3652L29.0481 24.0807C29.3431 23.9165 29.5248 23.6129 29.5248 23.2845V17.4173L15.4885 25.2605L7.17254 20.6302L7.17254 15.7352L1.45215 18.9203Z" fill="#009BB9"/>
<path d="M15.4885 6.73951L23.8044 11.3698V16.3385L29.5248 13.1534V8.71554C29.5248 8.38705 29.3431 8.08351 29.0481 7.91927L15.9652 0.634811C15.6702 0.470566 15.3068 0.470566 15.0118 0.634811L1.92885 7.91927C1.63387 8.08351 1.45215 8.38705 1.45215 8.71554L1.45215 14.6844L15.4885 6.73951Z" fill="#009BB9"/>
<path fill-rule="evenodd" clip-rule="evenodd" d="M138.411 7.82559V20.7859H141.116V7.82559H138.411ZM113.178 11.3888V20.7859H115.884V16.3494C115.884 15.4527 116.109 14.7948 116.56 14.3756C117.022 13.9448 117.624 13.7294 118.364 13.7294C118.468 13.7294 118.566 13.7352 118.658 13.7468C118.751 13.7468 118.855 13.7526 118.97 13.7643V11.2491C118.092 11.2491 117.346 11.4237 116.733 11.7731C116.341 11.9894 116.017 12.2726 115.762 12.6227V11.3888H113.178ZM107.022 20.9256C106.028 20.9256 105.143 20.716 104.368 20.2968C103.605 19.8776 102.998 19.307 102.548 18.5851C102.108 17.8515 101.889 17.0189 101.889 16.0874C101.889 15.1442 102.108 14.3116 102.548 13.5896C102.998 12.856 103.605 12.2854 104.368 11.8779C105.143 11.4587 106.028 11.2491 107.022 11.2491C108.005 11.2491 108.883 11.4587 109.658 11.8779C110.432 12.2854 111.039 12.8502 111.479 13.5722C111.918 14.2941 112.138 15.1325 112.138 16.0874C112.138 17.0189 111.918 17.8515 111.479 18.5851C111.039 19.307 110.432 19.8776 109.658 20.2968C108.883 20.716 108.005 20.9256 107.022 20.9256ZM107.022 18.6899C107.473 18.6899 107.877 18.5851 108.236 18.3755C108.594 18.1659 108.877 17.869 109.086 17.4847C109.294 17.0888 109.398 16.623 109.398 16.0874C109.398 15.5401 109.294 15.0743 109.086 14.69C108.877 14.3058 108.594 14.0088 108.236 13.7992C107.877 13.5896 107.473 13.4848 107.022 13.4848C106.571 13.4848 106.166 13.5896 105.808 13.7992C105.449 14.0088 105.16 14.3058 104.941 14.69C104.733 15.0743 104.629 15.5401 104.629 16.0874C104.629 16.623 104.733 17.0888 104.941 17.4847C105.16 17.869 105.449 18.1659 105.808 18.3755C106.166 18.5851 106.571 18.6899 107.022 18.6899ZM94.6568 20.4016C95.2465 20.751 95.9344 20.9256 96.7206 20.9256C97.5993 20.9256 98.3854 20.7277 99.0791 20.3318C99.7844 19.9358 100.339 19.3769 100.744 18.655C101.16 17.933 101.368 17.0771 101.368 16.0874C101.368 15.1092 101.16 14.2592 100.744 13.5372C100.339 12.8153 99.7844 12.2563 99.0791 11.8604C98.3854 11.4529 97.5993 11.2491 96.7206 11.2491C95.8997 11.2491 95.1945 11.4237 94.6048 11.7731C94.2948 11.9568 94.0231 12.1904 93.7897 12.4739V11.3888H91.2057V24.1744H93.9111V19.791C94.1317 20.0342 94.3803 20.2378 94.6568 20.4016ZM97.4489 18.3755C97.1021 18.5851 96.7032 18.6899 96.2523 18.6899C95.8014 18.6899 95.3968 18.5851 95.0384 18.3755C94.68 18.1659 94.3967 17.869 94.1886 17.4847C93.9805 17.0888 93.8764 16.623 93.8764 16.0874C93.8764 15.5401 93.9805 15.0743 94.1886 14.69C94.3967 14.3058 94.68 14.0088 95.0384 13.7992C95.3968 13.5896 95.8014 13.4848 96.2523 13.4848C96.7032 13.4848 97.1021 13.5896 97.4489 13.7992C97.8074 14.0088 98.0906 14.3058 98.2987 14.69C98.5184 15.0743 98.6282 15.5401 98.6282 16.0874C98.6282 16.623 98.5184 17.0888 98.2987 17.4847C98.0906 17.869 97.8074 18.1659 97.4489 18.3755ZM131.024 20.9256C131.81 20.9256 132.498 20.751 133.087 20.4016C133.364 20.2378 133.612 20.0342 133.833 19.791V20.7946H136.538V11.3888H133.954V12.4739C133.721 12.1904 133.449 11.9568 133.139 11.7731C132.55 11.4237 131.844 11.2491 131.024 11.2491C130.145 11.2491 129.359 11.4529 128.665 11.8604C127.96 12.2563 127.405 12.8153 127 13.5372C126.584 14.2592 126.376 15.1092 126.376 16.0874C126.376 17.0771 126.584 17.933 127 18.655C127.405 19.3769 127.96 19.9358 128.665 20.3318C129.359 20.7277 130.145 20.9256 131.024 20.9256ZM131.492 18.6899C131.041 18.6899 130.642 18.5851 130.295 18.3755C129.937 18.1659 129.653 17.869 129.445 17.4847C129.226 17.0888 129.116 16.623 129.116 16.0874C129.116 15.5401 129.226 15.0743 129.445 14.69C129.653 14.3058 129.937 14.0088 130.295 13.7992C130.642 13.5896 131.041 13.4848 131.492 13.4848C131.943 13.4848 132.347 13.5896 132.706 13.7992C133.064 14.0088 133.347 14.3058 133.555 14.69C133.764 15.0743 133.868 15.5401 133.868 16.0874C133.868 16.623 133.764 17.0888 133.555 17.4847C133.347 17.869 133.064 18.1659 132.706 18.3755C132.347 18.5851 131.943 18.6899 131.492 18.6899ZM58.6017 20.4016C59.1913 20.751 59.8792 20.9256 60.6654 20.9256C61.5441 20.9256 62.3302 20.7277 63.0239 20.3318C63.7292 19.9358 64.2841 19.3769 64.6888 18.655C65.105 17.933 65.3131 17.0771 65.3131 16.0874C65.3131 15.1092 65.105 14.2592 64.6888 13.5372C64.2841 12.8153 63.7292 12.2563 63.0239 11.8604C62.3302 11.4529 61.5441 11.2491 60.6654 11.2491C59.8445 11.2491 59.1393 11.4237 58.5496 11.7731C58.2396 11.9568 57.9679 12.1904 57.7345 12.4739V11.3888H55.1505V24.1744H57.8559V19.791C58.0765 20.0342 58.3251 20.2378 58.6017 20.4016ZM61.3938 18.3755C61.0469 18.5851 60.648 18.6899 60.1971 18.6899C59.7462 18.6899 59.3416 18.5851 58.9832 18.3755C58.6248 18.1659 58.3415 17.869 58.1334 17.4847C57.9253 17.0888 57.8212 16.623 57.8212 16.0874C57.8212 15.5401 57.9253 15.0743 58.1334 14.69C58.3415 14.3058 58.6248 14.0088 58.9832 13.7992C59.3416 13.5896 59.7462 13.4848 60.1971 13.4848C60.648 13.4848 61.0469 13.5896 61.3938 13.7992C61.7522 14.0088 62.0354 14.3058 62.2435 14.69C62.4632 15.0743 62.573 15.5401 62.573 16.0874C62.573 16.623 62.4632 17.0888 62.2435 17.4847C62.0354 17.869 61.7522 18.1659 61.3938 18.3755ZM87.5459 20.9256C86.4476 20.9256 85.592 20.6461 84.9793 20.0872C84.3665 19.5166 84.0601 18.6724 84.0601 17.5545V13.7643V11.6683V9.31025H86.7655V11.6683H89.7831V13.7643H86.7655V17.5196C86.7655 17.9155 86.8696 18.2241 87.0777 18.4453C87.2858 18.6549 87.5691 18.7597 87.9275 18.7597H89.7831V20.9256H87.5459ZM121.017 20.0872C121.63 20.6461 122.485 20.9256 123.584 20.9256H125.821V18.7597H123.965C123.607 18.7597 123.323 18.6549 123.115 18.4453C122.907 18.2241 122.803 17.9155 122.803 17.5196V13.7643H125.821V11.6683H122.803V9.31025H120.098V11.6683V13.7643V17.5545C120.098 18.6724 120.404 19.5166 121.017 20.0872ZM77.1406 20.7859V11.3888H79.7246V12.6227C79.9795 12.2726 80.3032 11.9894 80.6957 11.7731C81.3085 11.4237 82.0542 11.2491 82.9329 11.2491V13.7643C82.8173 13.7526 82.7132 13.7468 82.6207 13.7468C82.5282 13.7352 82.43 13.7294 82.3259 13.7294C81.586 13.7294 80.9848 13.9448 80.5223 14.3756C80.0714 14.7948 79.8459 15.4527 79.8459 16.3494V20.7859H77.1406ZM68.3158 20.2968C69.0904 20.716 69.9749 20.9256 70.9692 20.9256C71.9519 20.9256 72.8306 20.716 73.6052 20.2968C74.3798 19.8776 74.9868 19.307 75.4261 18.5851C75.8655 17.8515 76.0851 17.0189 76.0851 16.0874C76.0851 15.1325 75.8655 14.2941 75.4261 13.5722C74.9868 12.8502 74.3798 12.2854 73.6052 11.8779C72.8306 11.4587 71.9519 11.2491 70.9692 11.2491C69.9749 11.2491 69.0904 11.4587 68.3158 11.8779C67.5527 12.2854 66.9458 12.856 66.4949 13.5896C66.0555 14.3116 65.8358 15.1442 65.8358 16.0874C65.8358 17.0189 66.0555 17.8515 66.4949 18.5851C66.9458 19.307 67.5527 19.8776 68.3158 20.2968ZM72.1831 18.3755C71.8247 18.5851 71.4201 18.6899 70.9692 18.6899C70.5183 18.6899 70.1136 18.5851 69.7552 18.3755C69.3968 18.1659 69.1078 17.869 68.8881 17.4847C68.68 17.0888 68.5759 16.623 68.5759 16.0874C68.5759 15.5401 68.68 15.0743 68.8881 14.69C69.1078 14.3058 69.3968 14.0088 69.7552 13.7992C70.1136 13.5896 70.5183 13.4848 70.9692 13.4848C71.4201 13.4848 71.8247 13.5896 72.1831 13.7992C72.5415 14.0088 72.8248 14.3058 73.0329 14.69C73.241 15.0743 73.3451 15.5401 73.3451 16.0874C73.3451 16.623 73.241 17.0888 73.0329 17.4847C72.8248 17.869 72.5415 18.1659 72.1831 18.3755ZM49.4428 20.9256C48.3791 20.9256 47.4426 20.716 46.6333 20.2968C45.8356 19.8776 45.217 19.307 44.7777 18.5851C44.3384 17.8515 44.1187 17.0189 44.1187 16.0874C44.1187 15.1442 44.3326 14.3116 44.7604 13.5896C45.1997 12.856 45.7951 12.2854 46.5466 11.8779C47.2981 11.4587 48.1479 11.2491 49.0959 11.2491C50.0093 11.2491 50.8302 11.447 51.5585 11.8429C52.2985 12.2272 52.8823 12.7862 53.3101 13.5198C53.7379 14.2417 53.9518 15.1092 53.9518 16.1223C53.9518 16.2271 53.946 16.3494 53.9344 16.4891C53.9229 16.6172 53.9113 16.7394 53.8998 16.8559H46.8404C46.8949 17.106 46.9819 17.3389 47.1016 17.5546C47.3328 17.9388 47.6507 18.2358 48.0554 18.4454C48.4716 18.6433 48.9572 18.7423 49.5122 18.7423C50.0093 18.7423 50.4429 18.6666 50.8128 18.5152C51.1944 18.3638 51.5412 18.1368 51.8534 17.834L53.2928 19.406C52.865 19.8951 52.3274 20.2735 51.6799 20.5414C51.0325 20.7975 50.2868 20.9256 49.4428 20.9256ZM47.0669 14.4804C46.9401 14.7133 46.8542 14.9753 46.8092 15.2664H51.4038C51.36 14.9704 51.2728 14.7026 51.1423 14.463C50.9458 14.102 50.6741 13.8225 50.3272 13.6246C49.9804 13.415 49.5757 13.3102 49.1133 13.3102C48.6508 13.3102 48.2404 13.415 47.882 13.6246C47.5351 13.8225 47.2634 14.1078 47.0669 14.4804ZM40.4444 12.6227C40.6993 12.2726 41.023 11.9894 41.4155 11.7731C42.0283 11.4237 42.774 11.2491 43.6527 11.2491V13.7643C43.5371 13.7526 43.433 13.7468 43.3405 13.7468C43.248 13.7352 43.1498 13.7294 43.0457 13.7294C42.3058 13.7294 41.7046 13.9448 41.2421 14.3756C40.7912 14.7948 40.5657 15.4527 40.5657 16.3494V20.7859H37.8604V11.3888H40.4444V12.6227Z" fill="#323C5C"/>
</svg>
