<svg xmlns="http://www.w3.org/2000/svg" width="193" height="24" fill="none"><path fill="#C3C8D5" d="M14 10.126V9.093h5.06v1.033H17.1v5.771h-1.14v-5.77H14Zm7.973 5.771V9.093h4.125v1.033h-2.976v1.847h2.763v1.034h-2.763v1.857h3.001v1.033h-4.15Zm10.682-4.934a.922.922 0 0 0-.365-.677c-.213-.162-.49-.243-.83-.243-.24 0-.445.039-.617.117a.92.92 0 0 0-.393.315.805.805 0 0 0-.14.455c0 .142.03.265.09.369a.856.856 0 0 0 .251.266c.106.07.222.13.35.18.128.048.257.089.387.122l.595.16c.24.06.47.14.69.242.224.102.423.23.598.386.178.155.318.342.421.56.104.22.155.477.155.772 0 .398-.095.75-.285 1.053-.19.301-.464.537-.823.708-.357.168-.79.252-1.298.252-.493 0-.922-.082-1.285-.246a1.943 1.943 0 0 1-.848-.717c-.203-.315-.312-.698-.329-1.15h1.13c.017.237.085.434.205.591.12.158.276.275.468.353.194.077.41.116.65.116.25 0 .469-.04.656-.12a1.07 1.07 0 0 0 .446-.339.857.857 0 0 0 .164-.511.68.68 0 0 0-.145-.439 1.069 1.069 0 0 0-.4-.292c-.169-.08-.367-.15-.594-.213l-.722-.2c-.522-.143-.935-.361-1.238-.654-.302-.294-.453-.685-.453-1.172 0-.401.102-.752.304-1.054.204-.3.482-.534.833-.7A2.722 2.722 0 0 1 31.475 9c.45 0 .844.084 1.183.252.34.167.608.398.802.695.194.294.294.633.3 1.016h-1.105Zm3.876-.837V9.093h5.06v1.033h-1.96v5.771h-1.14v-5.77h-1.96Zm7.973 5.771V9.093h4.125v1.033h-2.976v1.847h2.762v1.034h-2.762v1.857h3v1.033h-4.149Zm9.384 0H51.74V9.093h2.193c.63 0 1.17.136 1.622.409.455.27.803.659 1.047 1.166.244.507.366 1.114.366 1.82 0 .71-.123 1.318-.369 1.828-.244.509-.596.9-1.056 1.172-.458.273-1.01.409-1.654.409Zm-1-1.066h.945c.441 0 .81-.087 1.105-.26a1.62 1.62 0 0 0 .666-.78c.149-.348.223-.782.223-1.303 0-.52-.074-.952-.223-1.295a1.594 1.594 0 0 0-.66-.774c-.289-.173-.648-.26-1.077-.26h-.979v4.672Zm16.876-2.336c0 .733-.128 1.361-.384 1.884-.254.52-.6.919-1.04 1.196a2.726 2.726 0 0 1-1.49.415 2.742 2.742 0 0 1-1.493-.415c-.437-.28-.784-.68-1.04-1.2-.254-.522-.381-1.15-.381-1.88 0-.733.127-1.36.38-1.88.257-.523.604-.923 1.041-1.2.44-.277.938-.415 1.493-.415.555 0 1.052.138 1.49.415.44.277.786.677 1.04 1.2.256.52.384 1.147.384 1.88Zm-1.155 0c0-.516-.075-.951-.226-1.306-.149-.356-.355-.625-.62-.807a1.56 1.56 0 0 0-.913-.276c-.345 0-.65.092-.914.276-.264.182-.471.45-.622.807-.149.355-.223.79-.223 1.306s.074.952.223 1.309c.15.354.358.623.622.807.265.182.57.273.914.273.345 0 .65-.091.913-.273.265-.184.471-.453.62-.807.15-.357.226-.793.226-1.309ZM78 9.093v6.804h-1.022l-2.988-4.635h-.053v4.635h-1.149V9.093h1.028l2.986 4.638h.055V9.093H78Z"/><path fill="#C3C8D5" fill-rule="evenodd" d="M95.415 15.911v.966c0 .235-.263.38-.472.256l-.457-.287-.11-.06-2.023-1.145-.11-.062a.729.729 0 0 1-.272-.268.708.708 0 0 1-.096-.36v-4.817c0-.135.038-.267.111-.38a.706.706 0 0 1 .283-.258l1.994-1.128.11-.063.11-.061 1.909-1.08.112-.065a.75.75 0 0 1 .768.02l1.987 1.124.11.06 2.021 1.145.111.061a.71.71 0 0 1 .368.629v2.191c0 .233-.257.378-.463.262l-.857-.486a.3.3 0 0 1-.154-.261V10.55l-1.725-.976a3.974 3.974 0 0 1-.145-.081l-1.653-.936-1.719.971-.027.018-.125.07-1.652.934v3.989l1.725.976c.013.006.035.019.15.083l.047.042.027.034a.3.3 0 0 1 .117.237Zm5.442-2.745c-.206-.116-.462.03-.462.262v.178l-4.372-2.473-.149-.085a.443.443 0 0 0-.47.021l-.115.063-.654.369-.264.148a.422.422 0 0 0-.154.59l.302.508c.122.207.39.271.602.15l.282-.16.003-.003.248-.14.498.282v4.696a.43.43 0 0 0 .434.425.44.44 0 0 0 .296-.113l.585-.463a.421.421 0 0 0 .16-.368l.002-3.341 3.127 1.774c.218.123.461.04.624-.163l.402-.4a.3.3 0 0 0 .087-.211v-.8a.301.301 0 0 0-.154-.262l-.858-.484Z" clip-rule="evenodd"/><path fill="#C3C8D5" d="M106.267 16.967V7.9h1.917v7.487h3.887v1.58h-5.804Zm8.978.129c-.434 0-.821-.076-1.16-.226a1.866 1.866 0 0 1-.806-.678c-.195-.3-.292-.675-.292-1.124 0-.378.069-.695.208-.952.139-.257.328-.463.567-.62.239-.156.51-.274.814-.354.307-.08.629-.136.965-.168.396-.042.715-.08.957-.115.242-.039.417-.095.527-.169a.37.37 0 0 0 .163-.327v-.027c0-.28-.088-.497-.265-.65-.174-.154-.422-.23-.744-.23-.339 0-.61.074-.81.225a1.039 1.039 0 0 0-.399.558l-1.744-.142c.088-.413.263-.77.522-1.071a2.51 2.51 0 0 1 1.005-.7c.414-.165.892-.248 1.435-.248.378 0 .739.045 1.085.133.348.089.656.226.925.412.271.186.485.425.642.717.156.29.234.636.234 1.04v4.587h-1.788v-.943h-.053c-.11.213-.256.4-.439.562-.183.16-.402.285-.659.377a2.73 2.73 0 0 1-.89.133Zm.54-1.302c.277 0 .522-.055.735-.164.212-.112.379-.263.5-.451.121-.19.182-.403.182-.642v-.722a.998.998 0 0 1-.244.106c-.1.03-.214.058-.341.084-.127.024-.254.046-.381.067l-.345.048a2.333 2.333 0 0 0-.58.155.93.93 0 0 0-.385.288.704.704 0 0 0-.137.443c0 .257.093.453.279.589.189.132.428.199.717.199Zm4.753 1.173v-6.8h1.797v1.2h.08c.142-.399.378-.713.708-.943.331-.23.726-.346 1.187-.346.466 0 .863.117 1.191.35.327.23.546.543.655.939h.071c.139-.39.389-.701.753-.935.366-.236.798-.354 1.297-.354.634 0 1.149.202 1.545.607.398.401.598.97.598 1.709v4.573h-1.882v-4.201c0-.378-.1-.662-.301-.85a1.057 1.057 0 0 0-.753-.284c-.342 0-.609.11-.801.328-.192.215-.288.5-.288.854v4.153h-1.828v-4.241c0-.334-.096-.6-.288-.797-.189-.198-.438-.297-.748-.297-.21 0-.399.053-.567.16-.165.103-.297.249-.394.438a1.398 1.398 0 0 0-.146.655v4.082h-1.886Zm11.407 0V7.9h1.886v3.41h.057c.083-.184.203-.37.359-.559.159-.192.366-.351.62-.478.257-.13.575-.195.956-.195.496 0 .954.13 1.373.39.419.257.754.645 1.005 1.164.251.517.376 1.165.376 1.944 0 .758-.122 1.399-.367 1.921-.243.52-.573.914-.992 1.182a2.546 2.546 0 0 1-1.399.399c-.366 0-.678-.06-.934-.182a1.94 1.94 0 0 1-.625-.456 2.34 2.34 0 0 1-.372-.562h-.084v1.09h-1.859Zm1.846-3.4c0 .404.056.757.168 1.058.112.301.275.536.487.704.213.165.471.248.775.248.307 0 .567-.084.779-.252.213-.171.374-.408.483-.709.112-.304.168-.653.168-1.049a3.01 3.01 0 0 0-.164-1.036 1.545 1.545 0 0 0-.482-.7 1.225 1.225 0 0 0-.784-.252c-.307 0-.567.081-.779.244-.21.162-.371.392-.483.69-.112.298-.168.65-.168 1.054Zm8.55 3.51c-.516 0-.984-.132-1.403-.398-.416-.268-.747-.662-.992-1.182-.242-.522-.363-1.163-.363-1.921 0-.78.126-1.427.376-1.944.251-.52.585-.907 1.001-1.164.419-.26.878-.39 1.377-.39.381 0 .698.065.952.195.257.127.463.286.62.478.159.19.28.375.363.558h.057V7.9h1.882v9.067h-1.86v-1.089h-.079a2.43 2.43 0 0 1-.377.562 1.863 1.863 0 0 1-.624.456c-.254.121-.564.182-.93.182Zm.598-1.5c.304 0 .561-.083.77-.248.213-.168.375-.403.487-.704.116-.3.173-.654.173-1.058s-.056-.756-.168-1.054a1.515 1.515 0 0 0-.487-.69 1.24 1.24 0 0 0-.775-.244c-.31 0-.571.084-.784.252a1.545 1.545 0 0 0-.482.7 3.01 3.01 0 0 0-.164 1.036c0 .396.055.745.164 1.05.112.3.273.536.482.708.213.168.474.252.784.252Zm6.762 1.519c-.434 0-.821-.076-1.16-.226a1.866 1.866 0 0 1-.806-.678c-.195-.3-.292-.675-.292-1.124 0-.378.069-.695.208-.952a1.68 1.68 0 0 1 .567-.62c.239-.156.51-.274.814-.354.307-.08.629-.136.965-.168.396-.042.715-.08.957-.115.242-.039.417-.095.527-.169a.37.37 0 0 0 .163-.327v-.027c0-.28-.088-.497-.265-.65-.174-.154-.422-.23-.744-.23-.34 0-.61.074-.81.225a1.039 1.039 0 0 0-.399.558l-1.744-.142c.088-.413.263-.77.522-1.071a2.51 2.51 0 0 1 1.005-.7c.414-.165.892-.248 1.435-.248.378 0 .739.045 1.084.133.349.089.657.226.926.412.271.186.485.425.642.717.156.29.234.636.234 1.04v4.587h-1.788v-.943h-.053c-.11.213-.256.4-.439.562-.183.16-.403.285-.659.377a2.73 2.73 0 0 1-.89.133Zm.54-1.302c.277 0 .522-.055.735-.164.212-.112.379-.263.5-.451.121-.19.182-.403.182-.642v-.722a1.016 1.016 0 0 1-.244.106c-.1.03-.214.058-.341.084-.127.024-.254.046-.38.067a85.74 85.74 0 0 0-.346.048 2.333 2.333 0 0 0-.58.155.924.924 0 0 0-.385.288.698.698 0 0 0-.137.443c0 .257.093.453.279.589.189.132.428.199.717.199Zm3.871-6.313V7.9h7.447v1.58h-2.777v7.487h-1.895V9.481h-2.775Zm10.75 7.619c-.699 0-1.302-.142-1.806-.425a2.912 2.912 0 0 1-1.16-1.213c-.271-.525-.408-1.147-.408-1.864 0-.7.137-1.314.408-1.842.272-.528.654-.94 1.147-1.235.495-.295 1.077-.443 1.744-.443.449 0 .866.072 1.253.217a2.78 2.78 0 0 1 1.018.642c.293.287.52.647.682 1.08.162.431.244.936.244 1.515v.518h-5.743v-1.17h3.967c0-.27-.059-.511-.177-.72a1.267 1.267 0 0 0-.492-.492 1.399 1.399 0 0 0-.721-.182c-.286 0-.54.067-.761.2-.219.13-.39.305-.514.526a1.489 1.489 0 0 0-.191.73v1.112c0 .336.063.627.186.872.127.245.306.434.536.567.23.133.504.2.819.2.21 0 .402-.03.576-.09a1.143 1.143 0 0 0 .73-.7l1.745.116c-.089.42-.27.785-.545 1.098-.271.31-.622.552-1.053.726-.428.171-.923.257-1.484.257Zm10.01-4.994-1.726.106a.9.9 0 0 0-.19-.398 1.013 1.013 0 0 0-.386-.288 1.307 1.307 0 0 0-.562-.11c-.292 0-.539.061-.739.185-.201.121-.301.284-.301.487 0 .163.064.3.195.412.129.112.352.202.668.27l1.231.248c.661.136 1.154.354 1.478.655.325.301.488.697.488 1.187 0 .446-.132.837-.395 1.173-.259.336-.616.6-1.071.788-.452.186-.972.279-1.563.279-.9 0-1.618-.187-2.151-.562a2.191 2.191 0 0 1-.935-1.54l1.855-.098a.952.952 0 0 0 .408.628c.215.142.491.213.827.213.331 0 .597-.064.797-.19.204-.13.307-.297.31-.5a.52.52 0 0 0-.217-.421c-.141-.113-.36-.198-.655-.257l-1.177-.235c-.664-.133-1.159-.363-1.484-.69-.321-.328-.482-.746-.482-1.254 0-.436.118-.813.354-1.129.239-.315.574-.559 1.005-.73.434-.171.942-.257 1.523-.257.859 0 1.535.182 2.027.545.497.363.786.857.868 1.483Zm4.96-1.94v1.418h-4.095v-1.417h4.095Zm-3.165-1.628h1.885v6.34c0 .174.028.31.08.407.054.094.127.16.222.2a.91.91 0 0 0 .336.057c.089 0 .178-.008.266-.022l.203-.04.297 1.403c-.094.03-.227.064-.398.102-.171.041-.38.066-.624.075-.455.018-.854-.043-1.196-.181a1.665 1.665 0 0 1-.792-.647c-.189-.292-.282-.66-.279-1.107V8.538Z"/><path fill="#C3C8D5" fill-rule="evenodd" d="M187 23H6a5 5 0 0 1-5-5V6a5 5 0 0 1 5-5h181a5 5 0 0 1 5 5v12a5 5 0 0 1-5 5ZM6 24a6 6 0 0 1-6-6V6a6 6 0 0 1 6-6h181a6 6 0 0 1 6 6v12a6 6 0 0 1-6 6H6Z" clip-rule="evenodd"/></svg>
