<svg xmlns="http://www.w3.org/2000/svg" width="179" height="46" fill="none"><path fill="#C3C8D5" d="m9.715 30.275-.027.015a3.66 3.66 0 0 1 .027-.015Z"/><path fill="#C3C8D5" d="m9.688 32.29.896-1.494c.78-1.301 2.216-2.736 4.265-4.3.242-.184.491-.37.748-.556v4.843l8.59 4.783 14.5-8.102v6.061c0 .34-.187.653-.492.823L24.68 41.873c-.305.17-.68.17-.985 0L10.18 34.348a.944.944 0 0 1-.492-.823v-1.236Z"/><path fill="#C3C8D5" d="M28.281 18.713C31.212 17.54 33.626 17.09 36 17.09h1.186l1.01.561c.304.17.492.483.492.823v4.584l-5.91 3.29v-5.132l-4.497-2.504Z"/><path fill="#fff" stroke="#DADEE8" d="M3.495 30.797a3.14 3.14 0 1 1 3.14 5.44 3.14 3.14 0 0 1-3.14-5.44Z"/><path fill="#FF6B8F" d="m27.795 8.147.128.148c-3.092.4-7.468 2.087-11.868 4.547l-.38.215c-3.604 2.05-6.526 4.231-8.301 6.244-1.407-4.329-1.561-7.912-.486-10.756a.528.528 0 1 0-.988-.373c-1.226 3.243-.987 7.282.69 12.111-.716 1.01-1.104 1.96-1.099 2.812-.723 1.548-1.003 3.794-.858 6.75a3.678 3.678 0 0 0-.562.11l-.205-.456C-2.416 15.209 1.428.685 11.263.393 17.59.205 23.039 2.72 27.639 7.967l.156.18Z"/><path fill="#fff" stroke="#DADEE8" d="m36.489 15.973.129.604H36c-3.903 0-7.872 1.183-13.823 4.59-2.986 1.709-5.579 3.35-7.64 4.921-2.066 1.578-3.563 3.06-4.394 4.444l-.445.742-.42-.757.437-.242-.438.242-.002-.004-.006-.012-.025-.045a54.66 54.66 0 0 1-.432-.799 73.78 73.78 0 0 1-1.04-2.026 39.426 39.426 0 0 1-1.09-2.386c-.309-.752-.56-1.478-.627-2.006l-.002-.016-.001-.017c-.043-.707.248-1.466.727-2.22.484-.764 1.196-1.578 2.083-2.412 1.775-1.669 4.304-3.464 7.283-5.144l.18-.102h.001c4.765-2.664 9.602-4.436 12.543-4.568l.053-.003.052.01.005-.001.048-.011.05-.001c.614-.013 1.171.051 1.633.221 1.537.565 2.797 1.414 3.768 2.585.97 1.17 1.633 2.637 2.011 4.413Z"/><path fill="#C3C8D5" fill-rule="evenodd" d="M167.856 16.5v15.062H171V16.5h-3.144Zm-29.324 4.141v10.921h3.144v-5.156c0-1.042.262-1.807.786-2.294.537-.5 1.236-.75 2.096-.75.121 0 .235.006.342.02.108 0 .229.006.363.02v-2.923c-1.021 0-1.888.203-2.6.609a3.41 3.41 0 0 0-1.128.987v-1.434h-3.003Zm-7.155 11.083c-1.156 0-2.184-.243-3.084-.73a5.662 5.662 0 0 1-2.116-1.99c-.511-.852-.766-1.82-.766-2.902 0-1.097.255-2.064.766-2.903a5.458 5.458 0 0 1 2.116-1.99c.9-.487 1.928-.73 3.084-.73 1.142 0 2.163.243 3.063.73a5.326 5.326 0 0 1 2.117 1.97c.51.838.765 1.813.765 2.923 0 1.082-.255 2.05-.765 2.902a5.472 5.472 0 0 1-2.117 1.99c-.9.487-1.921.73-3.063.73Zm0-2.598c.524 0 .994-.122 1.411-.365.416-.244.745-.589.987-1.036.242-.46.363-1.001.363-1.623 0-.637-.121-1.178-.363-1.624a2.613 2.613 0 0 0-.987-1.036 2.744 2.744 0 0 0-1.411-.365c-.524 0-.994.122-1.411.365a2.763 2.763 0 0 0-1.008 1.036c-.242.446-.362.987-.362 1.623 0 .623.12 1.164.362 1.624.256.447.592.792 1.008 1.036.417.243.887.365 1.411.365Zm-14.37 1.99c.685.405 1.484.608 2.398.608 1.021 0 1.935-.23 2.741-.69a4.975 4.975 0 0 0 1.935-1.948c.484-.84.726-1.834.726-2.984 0-1.137-.242-2.125-.726-2.964a4.975 4.975 0 0 0-1.935-1.949c-.806-.474-1.72-.71-2.741-.71-.954 0-1.773.203-2.459.609a3.59 3.59 0 0 0-.947.814v-1.261h-3.003V35.5h3.144v-5.094c.256.282.545.519.867.71Zm3.245-2.355a2.636 2.636 0 0 1-1.391.365c-.524 0-.994-.122-1.411-.365a2.606 2.606 0 0 1-.987-1.036c-.242-.46-.363-1.001-.363-1.623 0-.637.121-1.178.363-1.624.241-.447.571-.792.987-1.036a2.744 2.744 0 0 1 1.411-.365 2.636 2.636 0 0 1 2.378 1.4c.255.447.383.988.383 1.625 0 .622-.128 1.163-.383 1.623a2.613 2.613 0 0 1-.987 1.036Zm39.019 2.963c.913 0 1.713-.203 2.398-.609.321-.19.61-.427.867-.71v1.167h3.144V20.641h-3.003v1.261a3.59 3.59 0 0 0-.947-.814c-.686-.406-1.505-.61-2.459-.61-1.021 0-1.935.237-2.741.711a4.975 4.975 0 0 0-1.935 1.949c-.484.839-.726 1.827-.726 2.963 0 1.15.242 2.145.726 2.985a4.975 4.975 0 0 0 1.935 1.948c.806.46 1.72.69 2.741.69Zm.544-2.598a2.636 2.636 0 0 1-2.378-1.4c-.256-.46-.383-1.002-.383-1.624 0-.637.127-1.178.383-1.624a2.636 2.636 0 0 1 2.378-1.4c.524-.001.994.12 1.411.364.416.244.745.589.987 1.036.242.446.363.987.363 1.623 0 .623-.121 1.164-.363 1.624a2.613 2.613 0 0 1-.987 1.036 2.744 2.744 0 0 1-1.411.365Zm-84.71 1.99c.685.405 1.484.608 2.398.608 1.021 0 1.935-.23 2.741-.69a4.979 4.979 0 0 0 1.935-1.948c.484-.84.726-1.834.726-2.984 0-1.137-.242-2.125-.726-2.964a4.979 4.979 0 0 0-1.935-1.949c-.806-.474-1.72-.71-2.74-.71-.955 0-1.775.203-2.46.609a3.59 3.59 0 0 0-.947.814v-1.261h-3.003V35.5h3.144v-5.094c.257.282.545.519.867.71Zm3.245-2.355a2.635 2.635 0 0 1-1.391.365c-.524 0-.994-.122-1.41-.365a2.61 2.61 0 0 1-.988-1.036c-.242-.46-.363-1.001-.363-1.623 0-.637.12-1.178.363-1.624a2.61 2.61 0 0 1 .987-1.036 2.742 2.742 0 0 1 1.411-.365 2.635 2.635 0 0 1 2.378 1.4c.255.447.383.988.383 1.625 0 .622-.127 1.163-.383 1.623a2.61 2.61 0 0 1-.987 1.036Zm30.393 2.963c-1.277 0-2.271-.325-2.983-.974-.712-.663-1.068-1.644-1.068-2.943v-9.581h3.144v2.74h3.507v2.436h-3.507v4.364c0 .46.121.819.363 1.076.241.243.571.365.987.365h2.157v2.517h-2.6Zm38.898-.974c.713.65 1.707.974 2.983.974h2.6v-2.517h-2.156c-.417 0-.746-.122-.988-.365-.242-.257-.363-.616-.363-1.076v-4.364h3.507v-2.436h-3.507v-2.74h-3.144v9.581c0 1.299.356 2.28 1.068 2.943Zm-50.991.812V20.641h3.003v1.434a3.406 3.406 0 0 1 1.129-.987c.712-.406 1.578-.61 2.6-.61v2.924a3.687 3.687 0 0 0-.363-.02 2.763 2.763 0 0 0-.343-.02c-.86 0-1.558.25-2.096.75-.524.487-.786 1.252-.786 2.294v5.156H96.65Zm-10.256-.568c.9.487 1.928.73 3.084.73 1.142 0 2.163-.243 3.063-.73a5.471 5.471 0 0 0 2.117-1.99c.51-.852.765-1.82.765-2.902 0-1.11-.255-2.085-.766-2.924a5.326 5.326 0 0 0-2.116-1.969c-.9-.487-1.921-.73-3.063-.73-1.156 0-2.184.243-3.084.73a5.46 5.46 0 0 0-2.116 1.99c-.51.839-.766 1.806-.766 2.902 0 1.083.255 2.05.766 2.903a5.666 5.666 0 0 0 2.116 1.99Zm4.495-2.233a2.742 2.742 0 0 1-1.411.365c-.524 0-.994-.122-1.411-.365a2.754 2.754 0 0 1-1.008-1.036c-.242-.46-.362-1.001-.362-1.623 0-.637.12-1.178.362-1.624a2.754 2.754 0 0 1 1.008-1.036 2.742 2.742 0 0 1 1.41-.365c.525 0 .995.122 1.412.365.416.244.745.589.987 1.036.242.446.363.987.363 1.623 0 .623-.12 1.164-.363 1.624a2.61 2.61 0 0 1-.987 1.036ZM64.46 31.724c-1.236 0-2.325-.243-3.265-.73-.927-.488-1.646-1.15-2.157-1.99-.51-.852-.766-1.82-.766-2.902 0-1.097.249-2.064.746-2.903a5.352 5.352 0 0 1 2.076-1.99c.873-.487 1.86-.73 2.963-.73 1.061 0 2.015.23 2.861.69a4.966 4.966 0 0 1 2.036 1.948c.497.84.746 1.848.746 3.025 0 .122-.007.264-.02.426l-.04.427h-8.205c.064.29.165.561.304.812.268.446.638.791 1.108 1.035.484.23 1.048.345 1.693.345.578 0 1.082-.088 1.512-.264.443-.176.846-.44 1.21-.792l1.672 1.827a4.97 4.97 0 0 1-1.874 1.32c-.753.298-1.62.446-2.6.446Zm-2.761-7.49c-.148.27-.248.575-.3.913h5.34a2.792 2.792 0 0 0-.304-.933 2.441 2.441 0 0 0-.947-.975c-.404-.243-.874-.365-1.411-.365-.538 0-1.015.122-1.431.365a2.41 2.41 0 0 0-.947.995Zm-7.697-2.159a3.413 3.413 0 0 1 1.129-.987c.712-.406 1.579-.61 2.6-.61v2.924a3.664 3.664 0 0 0-.363-.02 2.751 2.751 0 0 0-.343-.02c-.86 0-1.558.25-2.096.75-.524.487-.786 1.252-.786 2.294v5.156H51V20.641h3.003v1.434Z" clip-rule="evenodd"/></svg>
