<svg width="1990" height="37" viewBox="0 0 1990 37" fill="none" xmlns="http://www.w3.org/2000/svg"><path d="M1990 12.11C1990 6.26272 1893.54 12.0606 1831.77 10.9335C1798.57 10.3278 1779.98 9.34304 1746.78 8.88893C1725.19 8.59372 1713.09 8.63507 1691.5 8.50572C1522.92 7.49561 1424.46 0.108408 1259.81 1.08952C1156.39 1.70581 1082.75 7.35257 995 9.08952C942.248 10.1337 844.617 11.6151 748.323 9.58786C699.183 8.55333 671.688 4.03374 622.566 5.45813C597.404 6.18777 583.41 8.80581 558.306 9.36193C477.121 11.1604 417.561 9.08952 350.323 9.08952C290.823 9.08952 257.464 10.9335 197.964 10.9335C120.654 10.9335 0 8.43752 0 8.43752V32.5195C0 32.5195 173.404 20.3597 283.99 26.5392C329.475 29.0809 371.914 36.1207 400.073 36.0003C495.529 35.5919 561.855 21.4147 645.713 21.4147C727.176 21.4147 775.781 22.2841 858.878 26.3943C874.537 27.1688 885.658 28.4603 898.955 28.5742C914.156 28.5742 924.215 27.5668 940.413 27.0843C1031.67 24.3661 1109.92 36.2581 1218.53 36.2627C1358.99 36.2687 1437.56 24.6247 1578.18 22.3367C1738.98 19.7204 1939 41.2627 1990 26.1944C1990 26.1944 1990 17.9573 1990 12.11Z" fill="url(#paint0_linear_13289_22110)"></path><path d="M0.0206299 7.43771L0 7.43728V8.43752L1 8.45794C12.7166 8.69604 124.767 10.9335 197.964 10.9335C227.714 10.9335 250.928 10.4725 274.143 10.0115C297.358 9.55049 320.573 9.08952 350.323 9.08952C373.463 9.08952 395.694 9.33477 418.209 9.58319C461.117 10.0566 505.06 10.5415 558.306 9.36193C571.222 9.0758 581.197 8.24379 591.266 7.40402C600.766 6.61164 610.35 5.81236 622.566 5.45813C652.152 4.60022 673.892 5.89853 697.242 7.29297C712.66 8.21373 728.78 9.17642 748.323 9.58786C844.617 11.6151 942.248 10.1337 995 9.08952C1031.67 8.36374 1065.87 6.9553 1100.81 5.51648C1149.49 3.51188 1199.61 1.4483 1259.81 1.08952C1350.46 0.54938 1421.04 2.54559 1494.31 4.61773C1554.13 6.30942 1615.73 8.05171 1691.5 8.50572C1698.12 8.5454 1703.85 8.56899 1709.24 8.59118C1721.41 8.64135 1731.81 8.68427 1746.78 8.88893C1764.8 9.13547 1778.52 9.53839 1792.61 9.95217C1804.47 10.3006 1816.59 10.6566 1831.77 10.9335C1855.97 11.3752 1885.51 10.7535 1912.47 10.1859C1954.33 9.30487 1990 8.55397 1990 12.11V10.5675C1989.77 10.4284 1989.52 10.3125 1989.26 10.2129C1988.43 9.89269 1987.28 9.64202 1985.88 9.43738C1983.06 9.02535 1979 8.76666 1973.99 8.61827C1963.96 8.32114 1949.95 8.46303 1934.03 8.75183C1927.14 8.87692 1919.89 9.02958 1912.44 9.18632C1885.47 9.75389 1855.97 10.3749 1831.79 9.93364C1816.65 9.65745 1804.52 9.30149 1792.66 8.95305C1778.55 8.53891 1764.81 8.13538 1746.79 7.889C1731.82 7.68427 1721.41 7.64134 1709.24 7.59117C1703.85 7.56898 1698.12 7.54537 1691.51 7.50571C1615.75 7.05178 1554.16 5.30981 1494.34 3.61811L1494.3 3.61689C1487.58 3.42709 1480.9 3.23792 1474.21 3.05128C1407.94 1.20076 1342.15 -0.401145 1259.81 0.0895151C1199.6 0.448263 1149.44 2.5135 1100.73 4.51878C1065.79 5.95732 1031.59 7.365 994.98 8.08969C942.232 9.13377 844.617 10.6149 748.344 8.58806C728.822 8.17707 712.725 7.2158 697.309 6.29518C693.341 6.05822 689.418 5.82396 685.494 5.60246C666.323 4.5205 647.138 3.74517 622.537 4.45853C610.294 4.81354 600.687 5.61478 591.188 6.40704L590.331 6.47853C580.552 7.29355 570.803 8.08481 558.283 8.36215C505.053 9.54135 461.141 9.05678 418.244 8.58342C395.724 8.33491 373.484 8.0895 350.323 8.0895C320.563 8.0895 297.34 8.55065 274.126 9.01164L274.123 9.01168C250.909 9.47267 227.703 9.93347 197.964 9.93347C159.317 9.93347 109.833 9.30958 70.0063 8.68561C50.094 8.37363 32.5974 8.06165 20.0789 7.82767C13.8196 7.71067 8.80493 7.61318 5.3551 7.54494C3.63025 7.51082 2.29651 7.48401 1.39417 7.46573L0.0220947 7.43774C0.0211182 7.43772 0.0206299 7.43773 0 8.43752L0.0206299 7.43771Z" fill="#F4F5FA"></path><defs><linearGradient id="paint0_linear_13289_22110" x1="994.999" y1="8.31875" x2="994.999" y2="36.6392" gradientUnits="userSpaceOnUse"><stop stop-color="#FDFDFE"></stop><stop offset="0.692506" stop-color="#DADEE8"></stop><stop offset="1" stop-color="#C3C8D5"></stop></linearGradient></defs></svg>
