<svg xmlns="http://www.w3.org/2000/svg" width="1991" height="837" fill="none"><path fill="url(#a)" d="M0 0h1990v837H0z" transform="translate(.5)"/><g clip-path="url(#b)"><g filter="url(#c)" opacity=".5"><path fill="#fff" d="M1438.74-134.628c-194.77-130.716-272.27 236.501-660.011 21.982-387.739-214.52-504.012 453.463 99.183 500.776C1481.11 435.444 1670.3 20.779 1438.74-134.628Z"/></g><g filter="url(#d)"><path fill="#fff" d="M-17.818 1269.31c-125.097-238.95 328.089-160.88 133.883-617.675-194.206-456.799 626.134-291.322 584.641 301.016-41.493 592.339-569.797 600.729-718.524 316.659Z"/></g><g filter="url(#e)"><path fill="#fff" d="M1082.68 1374.19c670.4-349.57 451.16 299.4 859.94 361.77 408.78 62.38 721.85-611.26-185.93-1119.956C848.898 107.309-62.99 1971.6 1082.68 1374.19Z"/></g></g><g fill="#fff" opacity=".7"><path d="M348.923 391.925a.926.926 0 0 0-1.851 0v53.659a.925.925 0 1 0 1.851 0v-53.659Z"/><path d="m370.774 404.541-46.473 26.825a.925.925 0 0 0 .925 1.603l46.473-26.826a.925.925 0 0 0-.925-1.602Z"/><path d="M325.226 404.539a.924.924 0 1 0-.925 1.602l46.47 26.83a.925.925 0 0 0 .926-1.603l-46.471-26.829Z"/><path fill-opacity=".7" d="m350.406 443.919-1.85-1.388a.926.926 0 0 0-1.11 0l-1.851 1.388a.928.928 0 0 1-1.295-.185.919.919 0 0 1-.175-.686.915.915 0 0 1 .36-.609l2.406-1.804a1.851 1.851 0 0 1 2.22 0l2.405 1.804a.924.924 0 1 1-1.11 1.48Z"/><path fill-opacity=".7" d="M348 403.027a.919.919 0 0 1-.463-.122l-5.673-3.238a.925.925 0 0 1-.34-1.266.928.928 0 0 1 1.262-.344l4.755 2.718a.934.934 0 0 0 .918 0l4.755-2.718a.93.93 0 0 1 1.262.344.923.923 0 0 1-.344 1.262l-5.673 3.238a.918.918 0 0 1-.459.126Z"/><path fill-opacity=".7" d="M348.002 408.578a.921.921 0 0 1-.513-.156l-4.778-3.187a.938.938 0 0 1-.396-.588.933.933 0 0 1 .136-.695.941.941 0 0 1 .255-.256.943.943 0 0 1 .695-.138c.119.023.232.07.334.138l3.754 2.503a.921.921 0 0 0 1.027 0l3.754-2.503a.914.914 0 0 1 1.028 0 .927.927 0 0 1-.001 1.539l-4.781 3.187a.922.922 0 0 1-.514.156Z"/><path fill-opacity=".7" d="M348.001 397.476a.926.926 0 0 1-.555-.185l-2.961-2.22a.926.926 0 0 1 1.11-1.481l1.851 1.388a.926.926 0 0 0 1.11 0l1.85-1.388a.925.925 0 0 1 1.11 1.481l-2.96 2.22a.926.926 0 0 1-.555.185Z"/><path fill-opacity=".7" d="m353.214 439.452-4.755-2.717a.925.925 0 0 0-.918 0l-4.755 2.717a.923.923 0 0 1-1.351-1.046.923.923 0 0 1 .433-.56l5.214-2.98a1.859 1.859 0 0 1 1.836 0l5.214 2.98a.923.923 0 0 1 .344 1.262.923.923 0 0 1-1.262.344Z"/><path fill-opacity=".7" d="m352.268 433.813-3.754-2.503a.922.922 0 0 0-1.027 0l-3.754 2.503a.943.943 0 0 1-.695.138.922.922 0 0 1-.588-.394.914.914 0 0 1 0-1.028.927.927 0 0 1 .256-.255l4.268-2.845a1.847 1.847 0 0 1 2.052 0l4.269 2.845a.927.927 0 0 1 .394.949.907.907 0 0 1-.393.589.922.922 0 0 1-1.028.001Z"/><path fill-opacity=".7" d="m332.681 433.619-.024-5.477a.922.922 0 0 0-.462-.795l-4.727-2.759a.92.92 0 0 1-.333-1.265.927.927 0 0 1 1.265-.333l5.187 3.025a1.848 1.848 0 0 1 .918 1.59l.027 6.005a.929.929 0 0 1-.271.655.928.928 0 0 1-1.58-.646Z"/><path fill-opacity=".7" d="M337.957 430.967a.927.927 0 0 1-.863-.983l.29-4.504a.922.922 0 0 0-.513-.888l-4.046-2.001a.93.93 0 0 1-.466-.532.933.933 0 0 1 .047-.707.923.923 0 0 1 1.237-.423l4.599 2.274a1.856 1.856 0 0 1 1.026 1.777l-.33 5.12a.933.933 0 0 1-.981.867Z"/><path fill-opacity=".7" d="M328.215 434.449a.921.921 0 0 1-.807-1.029l.277-2.297a.924.924 0 0 0-.555-.961l-2.128-.909a.921.921 0 0 1-.486-1.213.925.925 0 0 1 1.214-.488l2.765 1.181a1.852 1.852 0 0 1 1.11 1.923l-.36 2.985a.929.929 0 0 1-.347.618.93.93 0 0 1-.683.19Z"/><path fill-opacity=".7" d="m367.596 414.52-5.181-3.026a1.848 1.848 0 0 1-.917-1.59l-.027-6.005a.92.92 0 0 1 .271-.654.92.92 0 0 1 1.306-.002.922.922 0 0 1 .273.651l.025 5.477a.928.928 0 0 0 .463.795l4.73 2.759a.925.925 0 0 1-.6 1.717.934.934 0 0 1-.343-.122Z"/><path fill-opacity=".7" d="m370.268 409.957-2.767-1.182a1.845 1.845 0 0 1-1.11-1.922l.36-2.986a.921.921 0 0 1 1.029-.807.926.926 0 0 1 .807 1.029l-.277 2.297a.925.925 0 0 0 .555.961l2.128.909a.925.925 0 0 1-.725 1.701Z"/><path fill-opacity=".7" d="m362.356 416.581-4.598-2.274a1.852 1.852 0 0 1-1.027-1.779l.331-5.118a.924.924 0 1 1 1.845.119l-.285 4.504a.923.923 0 0 0 .514.888l4.046 2.001a.93.93 0 0 1 .466.532.933.933 0 0 1-.582 1.176.936.936 0 0 1-.71-.049Z"/><path fill-opacity=".7" d="M362.39 434.54a.927.927 0 0 1-.925-.925l.027-6.006a1.847 1.847 0 0 1 .918-1.59l5.187-3.025a.935.935 0 0 1 1.026.062.925.925 0 0 1-.094 1.536l-4.725 2.756a.918.918 0 0 0-.463.794l-.025 5.477a.924.924 0 0 1-.926.921Z"/><path fill-opacity=".7" d="m357.062 430.1-.331-5.119a1.852 1.852 0 0 1 1.027-1.778l4.598-2.274a.925.925 0 0 1 .82 1.658l-4.045 2.002a.927.927 0 0 0-.513.888l.29 4.504a.923.923 0 0 1-1.221.935.92.92 0 0 1-.625-.816Z"/><path fill-opacity=".7" d="m366.752 433.641-.361-2.985a1.848 1.848 0 0 1 1.11-1.923l2.766-1.181a.926.926 0 0 1 1.221 1.195.923.923 0 0 1-.495.506l-2.128.909a.924.924 0 0 0-.555.961l.277 2.297a.924.924 0 1 1-1.835.221Z"/><path fill-opacity=".7" d="M327.135 414.186a.935.935 0 0 1 .063-1.026.926.926 0 0 1 .27-.24l4.73-2.758a.928.928 0 0 0 .463-.795l.024-5.477a.923.923 0 1 1 1.85.005l-.027 6.005a1.846 1.846 0 0 1-.917 1.59l-5.188 3.025a.927.927 0 0 1-.702.099.923.923 0 0 1-.566-.428Z"/><path fill-opacity=".7" d="M324.516 409.469a.922.922 0 0 1 .486-1.213l2.128-.909a.929.929 0 0 0 .555-.961l-.277-2.297a.924.924 0 0 1 1.836-.222l.36 2.986a1.845 1.845 0 0 1-1.11 1.922l-2.764 1.182a.924.924 0 0 1-1.214-.488Z"/><path fill-opacity=".7" d="M332.406 416.164a.93.93 0 0 1-.047-.706.932.932 0 0 1 .466-.533l4.046-2.001a.921.921 0 0 0 .513-.888l-.29-4.504a.926.926 0 0 1 1.846-.119l.33 5.12a1.856 1.856 0 0 1-1.026 1.777l-4.601 2.27a.923.923 0 0 1-1.237-.416Z"/><path fill-opacity=".7" d="M342.452 428.931a.93.93 0 0 1-.691-.309.931.931 0 0 1-.229-.721l.672-5.843-4.803-2.482a.928.928 0 0 1-.365-1.302.928.928 0 0 1 .365-.341l4.803-2.482-.672-5.842a.923.923 0 0 1 .938-1.031.922.922 0 0 1 .495.155l5.037 3.359 5.038-3.359a.922.922 0 0 1 .996-.02.923.923 0 0 1 .437.896l-.671 5.842 4.802 2.482a.928.928 0 0 1 .365 1.302.928.928 0 0 1-.365.341l-4.802 2.482.671 5.843a.92.92 0 0 1-.437.895.93.93 0 0 1-.501.136.931.931 0 0 1-.495-.156l-5.038-3.36-5.037 3.358a.922.922 0 0 1-.513.157Zm5.55-5.551c.183 0 .362.054.514.156l3.891 2.59-.516-4.494a.925.925 0 0 1 .494-.925l3.779-1.952-3.779-1.954a.927.927 0 0 1-.494-.925l.516-4.495-3.891 2.591a.93.93 0 0 1-1.027 0l-3.886-2.591.517 4.495a.934.934 0 0 1-.495.925l-3.781 1.954 3.779 1.954a.925.925 0 0 1 .495.925l-.517 4.494 3.886-2.59a.93.93 0 0 1 .515-.158Z"/></g><path fill="#fff" d="M249.57 69.236a.766.766 0 0 0 0 1.533h44.467a.767.767 0 0 0 0-1.533H249.57Z"/><path fill="#fff" d="m260.025 51.127 22.23 38.511a.768.768 0 0 0 1.328-.766l-22.23-38.511a.766.766 0 1 0-1.328.766Z"/><path fill="#fff" d="M260.023 88.872a.766.766 0 1 0 1.328.767l22.233-38.51a.766.766 0 1 0-1.327-.766l-22.234 38.51Z"/><path fill="#fff" fill-opacity=".7" d="m292.657 68.006-1.15 1.533a.77.77 0 0 0 0 .92l1.15 1.533a.766.766 0 1 1-1.226.92l-1.495-1.993a1.534 1.534 0 0 1 0-1.84l1.495-1.993a.765.765 0 1 1 1.226.92Z"/><path fill="#fff" fill-opacity=".7" d="M258.77 70a.759.759 0 0 1-.101.384l-2.683 4.701a.772.772 0 0 1-1.049.282.763.763 0 0 1-.285-1.046l2.251-3.94a.758.758 0 0 0 0-.76l-2.251-3.941a.763.763 0 0 1 .285-1.046.767.767 0 0 1 1.046.285l2.683 4.701a.77.77 0 0 1 .104.38Z"/><path fill="#fff" fill-opacity=".7" d="M263.369 69.999c0 .151-.045.3-.129.425l-2.641 3.96a.765.765 0 1 1-1.276-.849l2.075-3.11a.767.767 0 0 0 0-.852l-2.075-3.111a.771.771 0 0 1 .001-.852.764.764 0 0 1 .787-.326.77.77 0 0 1 .488.327l2.641 3.962a.767.767 0 0 1 .129.426Z"/><path fill="#fff" fill-opacity=".7" d="M254.17 70a.77.77 0 0 1-.153.46l-1.84 2.453a.767.767 0 0 1-1.227-.92l1.15-1.534a.764.764 0 0 0 0-.92l-1.15-1.533a.765.765 0 0 1 .154-1.073.765.765 0 0 1 1.073.153l1.84 2.453a.77.77 0 0 1 .153.46Z"/><path fill="#fff" fill-opacity=".7" d="m288.955 65.679-2.251 3.94a.769.769 0 0 0 0 .761l2.251 3.94a.764.764 0 0 1-.285 1.046.767.767 0 0 1-1.046-.285l-2.469-4.32a1.536 1.536 0 0 1 0-1.522l2.469-4.32a.768.768 0 0 1 1.405.178.763.763 0 0 1-.074.582Z"/><path fill="#fff" fill-opacity=".7" d="m284.282 66.463-2.074 3.112a.76.76 0 0 0 0 .85l2.074 3.112a.754.754 0 0 1 .114.575.753.753 0 0 1-.326.488.77.77 0 0 1-1.064-.212l-2.357-3.538a1.531 1.531 0 0 1 0-1.7l2.357-3.538a.767.767 0 0 1 1.276.851Z"/><path fill="#fff" fill-opacity=".7" d="m284.121 82.695-4.538.02a.77.77 0 0 0-.659.383l-2.286 3.917a.771.771 0 0 1-.766.374.765.765 0 0 1-.559-1.146l2.507-4.299a1.538 1.538 0 0 1 1.318-.76l4.977-.022a.768.768 0 0 1 .006 1.533Z"/><path fill="#fff" fill-opacity=".7" d="M281.925 78.323a.769.769 0 0 1-.815.715l-3.732-.24a.766.766 0 0 0-.736.425l-1.658 3.353a.767.767 0 0 1-1.378-.678l1.885-3.811a1.531 1.531 0 0 1 1.472-.85l4.243.273a.768.768 0 0 1 .719.813Z"/><path fill="#fff" fill-opacity=".7" d="M284.81 86.395a.765.765 0 0 1-.852.67l-1.904-.23a.767.767 0 0 0-.797.46l-.752 1.763a.766.766 0 0 1-1.41-.603l.979-2.292a1.532 1.532 0 0 1 1.593-.92l2.474.299a.765.765 0 0 1 .669.853Z"/><path fill="#fff" fill-opacity=".7" d="m268.294 53.761-2.507 4.294a1.538 1.538 0 0 1-1.318.76l-4.977.023a.767.767 0 0 1-.004-1.534l4.539-.02a.763.763 0 0 0 .659-.384l2.286-3.92a.771.771 0 0 1 .766-.373.765.765 0 0 1 .64.569.766.766 0 0 1-.084.585Z"/><path fill="#fff" fill-opacity=".7" d="m264.514 51.547-.979 2.292a1.533 1.533 0 0 1-1.593.92l-2.474-.298a.764.764 0 0 1-.67-.853.769.769 0 0 1 .853-.669l1.904.23a.768.768 0 0 0 .796-.46l.753-1.763a.768.768 0 0 1 1.006-.404.767.767 0 0 1 .404 1.005Z"/><path fill="#fff" fill-opacity=".7" d="m270.001 58.103-1.884 3.81a1.534 1.534 0 0 1-1.474.852l-4.242-.274a.768.768 0 0 1 .099-1.53l3.732.237a.769.769 0 0 0 .736-.426l1.659-3.352a.767.767 0 1 1 1.374.683Z"/><path fill="#fff" fill-opacity=".7" d="M284.884 58.075a.765.765 0 0 1-.766.767l-4.977-.022a1.533 1.533 0 0 1-1.318-.761l-2.507-4.298a.788.788 0 0 1-.079-.582.773.773 0 0 1 .355-.467.772.772 0 0 1 .851.052c.08.06.148.137.198.224l2.283 3.916a.766.766 0 0 0 .659.383l4.539.02a.769.769 0 0 1 .762.768Z"/><path fill="#fff" fill-opacity=".7" d="m281.206 62.491-4.242.274a1.532 1.532 0 0 1-1.474-.851l-1.884-3.81a.767.767 0 0 1 1.373-.68l1.66 3.352a.765.765 0 0 0 .736.426l3.732-.241a.768.768 0 0 1 .388 1.453.773.773 0 0 1-.289.077Z"/><path fill="#fff" fill-opacity=".7" d="m284.14 54.461-2.474.299a1.534 1.534 0 0 1-1.593-.92l-.979-2.292a.77.77 0 0 1 .404-1.005.765.765 0 0 1 1.006.404l.752 1.763a.77.77 0 0 0 .797.46l1.904-.23a.764.764 0 0 1 .852.67.769.769 0 0 1-.669.851Z"/><path fill="#fff" fill-opacity=".7" d="M268.018 87.291a.767.767 0 0 1-1.049-.276l-2.286-3.92a.766.766 0 0 0-.659-.383l-4.539-.02a.766.766 0 0 1 .004-1.534l4.977.023a1.533 1.533 0 0 1 1.318.76l2.507 4.299a.77.77 0 0 1-.049.852.77.77 0 0 1-.224.199Z"/><path fill="#fff" fill-opacity=".7" d="M264.109 89.461a.765.765 0 0 1-1.006-.403l-.753-1.763a.768.768 0 0 0-.796-.46l-1.904.23a.767.767 0 1 1-.183-1.522l2.474-.298a1.535 1.535 0 0 1 1.593.92l.979 2.29a.765.765 0 0 1-.404 1.006Z"/><path fill="#fff" fill-opacity=".7" d="M269.657 82.923a.766.766 0 0 1-1.026-.347l-1.659-3.353a.765.765 0 0 0-.736-.426l-3.732.241a.766.766 0 0 1-.099-1.53l4.243-.273a1.533 1.533 0 0 1 1.473.85l1.881 3.813a.763.763 0 0 1-.345 1.025Z"/><path fill="#fff" fill-opacity=".7" d="M280.237 74.598a.77.77 0 0 1-.535.732.765.765 0 0 1-.319.03l-4.841-.556-2.057 3.98a.771.771 0 0 1-.681.414.768.768 0 0 1-.681-.414l-2.057-3.98-4.841.556a.766.766 0 0 1-.726-1.187l2.783-4.175-2.783-4.174a.77.77 0 0 1 .302-1.115.766.766 0 0 1 .424-.073l4.841.556 2.057-3.979a.769.769 0 0 1 1.079-.302c.12.073.218.177.283.302l2.057 3.98 4.841-.557a.768.768 0 0 1 .725 1.188l-2.784 4.174 2.783 4.175c.084.126.13.274.13.425Zm-4.6-4.6c0-.151.045-.3.129-.425l2.147-3.225-3.725.428a.767.767 0 0 1-.766-.41l-1.618-3.131-1.619 3.132a.77.77 0 0 1-.767.41l-3.724-.429 2.146 3.225a.767.767 0 0 1 0 .85l-2.146 3.22 3.724-.427a.766.766 0 0 1 .767.41l1.619 3.134 1.619-3.132a.766.766 0 0 1 .767-.41l3.724.427-2.146-3.22a.765.765 0 0 1-.131-.427Z"/><path fill="#fff" d="M435.952 170.453a.453.453 0 0 0-.906 0v26.282a.453.453 0 0 0 .906 0v-26.282Z"/><path fill="#fff" d="m446.654 176.632-22.762 13.139a.453.453 0 1 0 .454.785l22.762-13.139a.453.453 0 1 0-.454-.785Z"/><path fill="#fff" d="M424.346 176.631a.453.453 0 0 0-.454.785l22.761 13.141a.453.453 0 1 0 .453-.785l-22.76-13.141Z"/><path fill="#fff" fill-opacity=".7" d="m436.679 195.92-.906-.68a.454.454 0 0 0-.544 0l-.906.68a.453.453 0 0 1-.544-.725l1.178-.884a.905.905 0 0 1 1.088 0l1.178.884a.452.452 0 0 1-.041.752.46.46 0 0 1-.503-.027Z"/><path fill="#fff" fill-opacity=".7" d="M435.499 175.891a.45.45 0 0 1-.226-.06l-2.779-1.586a.462.462 0 0 1-.212-.275.48.48 0 0 1-.012-.177.458.458 0 0 1 .676-.336l2.329 1.33a.443.443 0 0 0 .449 0l2.329-1.33a.45.45 0 0 1 .618.168.45.45 0 0 1-.168.618l-2.779 1.586a.456.456 0 0 1-.225.062Z"/><path fill="#fff" fill-opacity=".7" d="M435.502 178.609a.45.45 0 0 1-.252-.076l-2.34-1.561a.465.465 0 0 1-.126-.124.464.464 0 0 1-.069-.341.46.46 0 0 1 .356-.356.44.44 0 0 1 .177 0 .44.44 0 0 1 .163.067l1.839 1.226a.45.45 0 0 0 .503 0l1.839-1.226a.44.44 0 0 1 .163-.067.44.44 0 0 1 .34.068.46.46 0 0 1 .193.465.46.46 0 0 1-.193.288l-2.342 1.561a.449.449 0 0 1-.251.076Z"/><path fill="#fff" fill-opacity=".7" d="M435.501 173.172a.452.452 0 0 1-.272-.091l-1.45-1.087a.455.455 0 0 1-.091-.635.454.454 0 0 1 .635-.09l.906.679a.452.452 0 0 0 .544 0l.906-.679a.453.453 0 0 1 .544.725l-1.45 1.087a.454.454 0 0 1-.272.091Z"/><path fill="#fff" fill-opacity=".7" d="m438.054 193.732-2.329-1.331a.457.457 0 0 0-.45 0l-2.329 1.331a.454.454 0 0 1-.449-.787l2.554-1.46a.906.906 0 0 1 .899 0l2.554 1.46a.456.456 0 0 1 .168.618.452.452 0 0 1-.618.169Z"/><path fill="#fff" fill-opacity=".7" d="m437.59 190.97-1.838-1.227a.46.46 0 0 0-.503 0l-1.839 1.227a.445.445 0 0 1-.34.067.464.464 0 0 1-.289-.193.44.44 0 0 1-.067-.163.464.464 0 0 1 .193-.465l2.091-1.394a.903.903 0 0 1 1.005 0l2.09 1.394a.445.445 0 0 1 .193.288.458.458 0 0 1-.067.34.45.45 0 0 1-.465.193.445.445 0 0 1-.164-.067Z"/><path fill="#fff" fill-opacity=".7" d="m427.997 190.875-.012-2.683a.447.447 0 0 0-.226-.389l-2.315-1.351a.442.442 0 0 1-.21-.277.453.453 0 0 1 .666-.506l2.541 1.481a.91.91 0 0 1 .449.779l.013 2.942a.452.452 0 0 1-.772.321.45.45 0 0 1-.134-.317Z"/><path fill="#fff" fill-opacity=".7" d="M430.581 189.576a.454.454 0 0 1-.423-.481l.143-2.206a.454.454 0 0 0-.252-.435l-1.981-.98a.457.457 0 0 1 .054-.836.456.456 0 0 1 .346.021l2.253 1.114a.908.908 0 0 1 .502.871l-.162 2.507a.438.438 0 0 1-.045.171.436.436 0 0 1-.107.141.45.45 0 0 1-.328.113Z"/><path fill="#fff" fill-opacity=".7" d="M425.809 191.281a.456.456 0 0 1-.395-.504l.136-1.125a.453.453 0 0 0-.272-.471l-1.042-.445a.451.451 0 0 1 .009-.837.454.454 0 0 1 .347.004l1.354.579a.902.902 0 0 1 .544.941l-.176 1.462a.454.454 0 0 1-.505.396Z"/><path fill="#fff" fill-opacity=".7" d="m445.098 181.52-2.538-1.482a.903.903 0 0 1-.449-.779l-.013-2.941a.454.454 0 0 1 .453-.453.453.453 0 0 1 .453.45l.012 2.683a.456.456 0 0 0 .227.389l2.317 1.352a.447.447 0 0 1 .21.276.453.453 0 0 1-.165.477.463.463 0 0 1-.339.088.458.458 0 0 1-.168-.06Z"/><path fill="#fff" fill-opacity=".7" d="m446.406 179.285-1.355-.578a.908.908 0 0 1-.544-.942l.177-1.462a.45.45 0 0 1 .806-.226.452.452 0 0 1 .093.334l-.136 1.125a.46.46 0 0 0 .272.471l1.042.445a.451.451 0 0 1 .239.594.453.453 0 0 1-.594.239Z"/><path fill="#fff" fill-opacity=".7" d="m442.531 182.529-2.252-1.114a.903.903 0 0 1-.503-.871l.162-2.507a.456.456 0 0 1 .481-.423c.12.008.232.063.311.154.08.09.12.208.112.328l-.139 2.206a.454.454 0 0 0 .251.435l1.982.98a.455.455 0 0 1 .097.748.454.454 0 0 1-.502.064Z"/><path fill="#fff" fill-opacity=".7" d="M442.548 191.325a.454.454 0 0 1-.453-.453l.013-2.941a.905.905 0 0 1 .45-.779l2.54-1.482a.454.454 0 0 1 .457.783l-2.315 1.35a.455.455 0 0 0-.226.389l-.013 2.682a.453.453 0 0 1-.453.451Z"/><path fill="#fff" fill-opacity=".7" d="m439.938 189.151-.162-2.507a.907.907 0 0 1 .503-.871l2.252-1.114a.457.457 0 0 1 .607.205.452.452 0 0 1-.205.607l-1.981.981a.454.454 0 0 0-.252.435l.143 2.206a.457.457 0 0 1-.423.481.457.457 0 0 1-.329-.112.458.458 0 0 1-.153-.311Z"/><path fill="#fff" fill-opacity=".7" d="m444.684 190.886-.177-1.463a.91.91 0 0 1 .544-.941l1.355-.579a.456.456 0 0 1 .594.239.453.453 0 0 1-.239.594l-1.042.445a.46.46 0 0 0-.272.471l.136 1.125a.45.45 0 0 1-.395.504.454.454 0 0 1-.504-.395Z"/><path fill="#fff" fill-opacity=".7" d="M425.281 181.357a.46.46 0 0 1-.047-.344.443.443 0 0 1 .21-.276l2.317-1.352a.455.455 0 0 0 .226-.389l.012-2.682a.452.452 0 1 1 .906.002l-.013 2.941a.905.905 0 0 1-.449.779l-2.541 1.482a.456.456 0 0 1-.621-.161Z"/><path fill="#fff" fill-opacity=".7" d="M423.997 179.046a.456.456 0 0 1 .239-.594l1.042-.445a.46.46 0 0 0 .272-.471l-.136-1.125a.454.454 0 0 1 .899-.109l.177 1.463a.91.91 0 0 1-.544.941l-1.354.579a.458.458 0 0 1-.347.004.458.458 0 0 1-.248-.243Z"/><path fill="#fff" fill-opacity=".7" d="M427.862 182.325a.457.457 0 0 1 .206-.607l1.981-.98a.454.454 0 0 0 .252-.435l-.143-2.206a.454.454 0 0 1 .904-.058l.162 2.508a.905.905 0 0 1-.502.87l-2.254 1.112a.454.454 0 0 1-.606-.204Z"/><path fill="#fff" fill-opacity=".7" d="M432.782 188.579a.453.453 0 0 1-.45-.505l.328-2.862-2.352-1.215a.457.457 0 0 1-.179-.638.456.456 0 0 1 .179-.167l2.352-1.216-.328-2.862a.45.45 0 0 1 .701-.428l2.468 1.645 2.467-1.645a.457.457 0 0 1 .488-.01.45.45 0 0 1 .214.438l-.329 2.862 2.352 1.216a.45.45 0 0 1 .245.402.457.457 0 0 1-.245.403l-2.352 1.215.329 2.862a.448.448 0 0 1-.214.438.456.456 0 0 1-.488-.009l-2.467-1.646-2.468 1.645a.455.455 0 0 1-.251.077Zm2.719-2.719c.089 0 .177.026.251.076l1.906 1.269-.253-2.202a.457.457 0 0 1 .242-.453l1.851-.956-1.851-.957a.452.452 0 0 1-.242-.453l.253-2.201-1.906 1.268a.45.45 0 0 1-.503 0l-1.903-1.268.253 2.201a.457.457 0 0 1-.242.453l-1.852.957 1.851.957a.452.452 0 0 1 .242.453l-.253 2.202 1.903-1.269a.456.456 0 0 1 .253-.077Z"/><g fill="#fff" opacity=".7"><path d="M831.62 704.426a.623.623 0 0 0-1.246 0v36.139a.623.623 0 0 0 1.246 0v-36.139Z"/><path d="m846.337 712.922-31.299 18.067a.623.623 0 1 0 .623 1.079l31.299-18.067a.623.623 0 1 0-.623-1.079Z"/><path d="M815.661 712.921a.623.623 0 1 0-.623 1.079l31.297 18.07a.623.623 0 1 0 .623-1.079l-31.297-18.07Z"/><path fill-opacity=".7" d="m832.62 739.444-1.246-.935a.631.631 0 0 0-.748 0l-1.246.935a.621.621 0 0 1-.873-.125.634.634 0 0 1-.118-.462.628.628 0 0 1 .243-.41l1.62-1.215a1.245 1.245 0 0 1 1.495 0l1.62 1.215a.62.62 0 0 1-.285 1.115.622.622 0 0 1-.462-.118Z"/><path fill-opacity=".7" d="M830.998 711.903a.632.632 0 0 1-.312-.082l-3.82-2.181a.627.627 0 0 1-.292-.379.621.621 0 0 1 .062-.473.62.62 0 0 1 .85-.232l3.203 1.83a.618.618 0 0 0 .618 0l3.202-1.83a.621.621 0 0 1 .85.232.62.62 0 0 1-.231.85l-3.821 2.18a.621.621 0 0 1-.309.085Z"/><path fill-opacity=".7" d="M831.001 715.641a.625.625 0 0 1-.346-.104l-3.218-2.147a.609.609 0 0 1-.266-.396.633.633 0 0 1 .091-.468.626.626 0 0 1 .864-.173l2.529 1.686a.618.618 0 0 0 .691 0l2.529-1.686a.628.628 0 0 1 .468-.092.613.613 0 0 1 .396.265.628.628 0 0 1 .093.468.615.615 0 0 1-.266.396l-3.22 2.147a.621.621 0 0 1-.345.104Z"/><path fill-opacity=".7" d="M831 708.164a.622.622 0 0 1-.374-.124l-1.994-1.496a.62.62 0 0 1-.125-.872.625.625 0 0 1 .873-.125l1.246.935a.623.623 0 0 0 .748 0l1.246-.935a.625.625 0 0 1 .99.587.617.617 0 0 1-.243.41l-1.993 1.496a.622.622 0 0 1-.374.124Z"/><path fill-opacity=".7" d="m834.511 736.435-3.203-1.83a.629.629 0 0 0-.618 0l-3.202 1.83a.621.621 0 0 1-.85-.232.62.62 0 0 1 .231-.849l3.512-2.007a1.24 1.24 0 0 1 1.236 0l3.512 2.007a.625.625 0 0 1 .232.849.62.62 0 0 1-.85.232Z"/><path fill-opacity=".7" d="m833.873 732.637-2.529-1.686a.623.623 0 0 0-.691 0l-2.529 1.686a.63.63 0 0 1-.468.093.615.615 0 0 1-.396-.266.63.63 0 0 1-.093-.468.615.615 0 0 1 .266-.396l2.874-1.916a1.252 1.252 0 0 1 1.382 0l2.875 1.916a.626.626 0 0 1 .173.864.626.626 0 0 1-.864.173Z"/><path fill-opacity=".7" d="m820.682 732.506-.017-3.688a.62.62 0 0 0-.311-.535l-3.183-1.858a.63.63 0 0 1-.289-.38.622.622 0 0 1 .916-.697l3.494 2.037a1.258 1.258 0 0 1 .618 1.071l.018 4.045a.622.622 0 0 1-1.246.005Z"/><path fill-opacity=".7" d="M824.234 730.721a.625.625 0 0 1-.581-.662l.196-3.033a.62.62 0 0 0-.346-.598l-2.725-1.348a.622.622 0 0 1 .076-1.149.622.622 0 0 1 .475.029l3.097 1.532a1.244 1.244 0 0 1 .691 1.197l-.222 3.448a.626.626 0 0 1-.661.584Z"/><path fill-opacity=".7" d="M817.674 733.066a.625.625 0 0 1-.544-.693l.187-1.547a.62.62 0 0 0-.08-.386.62.62 0 0 0-.294-.262l-1.433-.612a.619.619 0 0 1-.333-.341.619.619 0 0 1 .346-.809.619.619 0 0 1 .476.005l1.863.795a1.248 1.248 0 0 1 .747 1.295l-.242 2.011a.635.635 0 0 1-.234.415.61.61 0 0 1-.459.129Z"/><path fill-opacity=".7" d="m844.197 719.643-3.49-2.037a1.258 1.258 0 0 1-.618-1.071l-.018-4.045a.622.622 0 0 1 1.246-.003l.017 3.689a.624.624 0 0 0 .312.535l3.186 1.858a.628.628 0 0 1 .061 1.036.617.617 0 0 1-.696.038Z"/><path fill-opacity=".7" d="m845.996 716.57-1.863-.795a1.25 1.25 0 0 1-.748-1.295l.242-2.011a.623.623 0 0 1 1.237.149l-.187 1.547a.625.625 0 0 0 .374.648l1.433.611a.622.622 0 0 1-.488 1.146Z"/><path fill-opacity=".7" d="m840.667 721.031-3.097-1.532a1.25 1.25 0 0 1-.691-1.197l.222-3.448a.621.621 0 0 1 1.089-.371.622.622 0 0 1 .154.451l-.192 3.034a.62.62 0 0 0 .346.598l2.725 1.347a.626.626 0 0 1-.078 1.151.637.637 0 0 1-.478-.033Z"/><path fill-opacity=".7" d="M840.69 733.126a.622.622 0 0 1-.623-.623l.018-4.044a1.244 1.244 0 0 1 .619-1.071l3.493-2.038a.63.63 0 0 1 .691.042.636.636 0 0 1 .241.412.622.622 0 0 1-.304.623l-3.183 1.855a.628.628 0 0 0-.311.535l-.017 3.689a.623.623 0 0 1-.624.62Z"/><path fill-opacity=".7" d="m837.101 730.136-.222-3.447a1.248 1.248 0 0 1 .691-1.198l3.097-1.531a.622.622 0 1 1 .552 1.116l-2.724 1.349a.623.623 0 0 0-.346.598l.196 3.033a.625.625 0 0 1-.823.63.616.616 0 0 1-.358-.315.617.617 0 0 1-.063-.235Z"/><path fill-opacity=".7" d="m843.628 732.522-.243-2.011a1.245 1.245 0 0 1 .748-1.295l1.862-.795a.621.621 0 0 1 .822.805.62.62 0 0 1-.333.34l-1.433.612a.626.626 0 0 0-.374.648l.187 1.547a.621.621 0 1 1-1.236.149Z"/><path fill-opacity=".7" d="M816.946 719.419a.63.63 0 0 1 .042-.692.627.627 0 0 1 .183-.161l3.185-1.858a.615.615 0 0 0 .312-.535l.016-3.689a.623.623 0 0 1 1.246.004l-.018 4.044a1.243 1.243 0 0 1-.618 1.071l-3.493 2.037a.633.633 0 0 1-.474.067.636.636 0 0 1-.381-.288Z"/><path fill-opacity=".7" d="M815.182 716.242a.621.621 0 0 1 .328-.818l1.433-.611a.62.62 0 0 0 .294-.262.62.62 0 0 0 .08-.386l-.187-1.547a.621.621 0 1 1 1.236-.149l.243 2.011a1.25 1.25 0 0 1-.748 1.295l-1.862.795a.619.619 0 0 1-.476.005.619.619 0 0 1-.341-.333Z"/><path fill-opacity=".7" d="M820.496 720.75a.622.622 0 0 1 .282-.834l2.725-1.348a.618.618 0 0 0 .346-.598l-.196-3.033a.625.625 0 0 1 .581-.662.624.624 0 0 1 .662.582l.223 3.448a1.254 1.254 0 0 1-.691 1.197l-3.099 1.529a.621.621 0 0 1-.833-.281Z"/><path fill-opacity=".7" d="M827.261 729.349a.641.641 0 0 1-.255-.054.638.638 0 0 1-.339-.381.632.632 0 0 1-.025-.259l.452-3.935-3.234-1.672a.623.623 0 0 1 0-1.106l3.234-1.672-.452-3.934a.621.621 0 0 1 .632-.695.627.627 0 0 1 .333.105l3.393 2.262 3.392-2.262a.63.63 0 0 1 .671-.014.619.619 0 0 1 .294.604l-.451 3.934 3.233 1.672a.617.617 0 0 1 .337.553.62.62 0 0 1-.337.553l-3.233 1.672.451 3.935a.619.619 0 0 1-.631.694.622.622 0 0 1-.334-.105L831 726.981l-3.393 2.262a.616.616 0 0 1-.346.106ZM831 725.61c.123 0 .243.037.345.105l2.621 1.745-.348-3.027a.627.627 0 0 1 .333-.623l2.545-1.315-2.545-1.316a.625.625 0 0 1-.333-.623l.348-3.027-2.621 1.745a.622.622 0 0 1-.691 0l-2.617-1.745.348 3.027a.628.628 0 0 1-.334.623l-2.546 1.316 2.545 1.316a.618.618 0 0 1 .333.623l-.347 3.027 2.617-1.745a.627.627 0 0 1 .347-.106Z"/></g><path fill="#fff" d="M514.178 770.68a.68.68 0 0 0-1.36 0v39.423a.68.68 0 0 0 1.36 0V770.68Z"/><path fill="#fff" d="m530.232 779.948-34.143 19.708a.68.68 0 0 0 .679 1.178l34.143-19.709a.68.68 0 1 0-.679-1.177Z"/><path fill="#fff" d="M496.768 779.947a.678.678 0 1 0-.679 1.177l34.141 19.712a.68.68 0 0 0 .68-1.178l-34.142-19.711Z"/><path fill="#fff" fill-opacity=".7" d="m515.268 808.88-1.359-1.02a.683.683 0 0 0-.816 0l-1.359 1.02a.682.682 0 0 1-1.066-.375.685.685 0 0 1 .25-.713l1.768-1.325a1.354 1.354 0 0 1 1.631 0l1.767 1.325a.678.678 0 0 1 .136.952.695.695 0 0 1-.197.177.69.69 0 0 1-.755-.041Z"/><path fill="#fff" fill-opacity=".7" d="M513.5 778.837a.683.683 0 0 1-.34-.09l-4.168-2.379a.672.672 0 0 1-.318-.413.679.679 0 0 1 .479-.835.679.679 0 0 1 .516.065l3.494 1.996a.672.672 0 0 0 .674 0l3.493-1.996a.68.68 0 0 1 .675 1.18l-4.168 2.379a.68.68 0 0 1-.337.093Z"/><path fill="#fff" fill-opacity=".7" d="M513.502 782.914a.684.684 0 0 1-.377-.114l-3.51-2.342a.67.67 0 0 1-.291-.432.675.675 0 0 1 .532-.8.7.7 0 0 1 .511.101l2.758 1.839a.677.677 0 0 0 .755 0l2.758-1.839a.677.677 0 0 1 .755.001.683.683 0 0 1 .289.433.686.686 0 0 1-.29.697l-3.512 2.342a.685.685 0 0 1-.378.114Z"/><path fill="#fff" fill-opacity=".7" d="M513.501 774.758a.676.676 0 0 1-.408-.136l-2.175-1.631a.682.682 0 0 1 .312-1.217.678.678 0 0 1 .504.13l1.359 1.019a.683.683 0 0 0 .816 0l1.359-1.019a.68.68 0 1 1 .816 1.087l-2.175 1.631a.676.676 0 0 1-.408.136Z"/><path fill="#fff" fill-opacity=".7" d="m517.331 805.598-3.494-1.997a.687.687 0 0 0-.674 0l-3.494 1.997a.679.679 0 0 1-.674-1.18l3.83-2.19a1.366 1.366 0 0 1 1.349 0l3.831 2.19a.677.677 0 0 1 .253.927.682.682 0 0 1-.927.253Z"/><path fill="#fff" fill-opacity=".7" d="m516.636 801.454-2.759-1.839a.674.674 0 0 0-.754 0l-2.758 1.839a.674.674 0 0 1-.511.101.683.683 0 0 1-.244-1.232l3.136-2.09a1.36 1.36 0 0 1 1.508 0l3.136 2.09a.687.687 0 0 1 .29.698.686.686 0 0 1-.534.534.657.657 0 0 1-.265 0 .66.66 0 0 1-.245-.101Z"/><path fill="#fff" fill-opacity=".7" d="m502.246 801.312-.018-4.024a.684.684 0 0 0-.34-.584l-3.473-2.027a.68.68 0 0 1 .685-1.174l3.811 2.222a1.358 1.358 0 0 1 .674 1.169l.02 4.412a.68.68 0 0 1-1.359.006Z"/><path fill="#fff" fill-opacity=".7" d="M506.121 799.364a.677.677 0 0 1-.634-.722l.213-3.309a.675.675 0 0 0-.377-.652l-2.972-1.471a.678.678 0 0 1 .082-1.253.678.678 0 0 1 .519.032l3.379 1.671a1.36 1.36 0 0 1 .753 1.305l-.242 3.762a.677.677 0 0 1-.721.637Z"/><path fill="#fff" fill-opacity=".7" d="M498.964 801.922a.68.68 0 0 1-.593-.756l.204-1.688a.68.68 0 0 0-.408-.706l-1.563-.668a.677.677 0 0 1 .014-1.255.684.684 0 0 1 .52.005l2.031.868a1.36 1.36 0 0 1 .816 1.413l-.264 2.193a.681.681 0 0 1-.757.594Z"/><path fill="#fff" fill-opacity=".7" d="m527.897 787.28-3.807-2.223a1.358 1.358 0 0 1-.674-1.168l-.02-4.412a.677.677 0 0 1 .68-.68.68.68 0 0 1 .68.676l.018 4.024a.675.675 0 0 0 .093.337.665.665 0 0 0 .247.247l3.475 2.027a.672.672 0 0 1 .315.414.676.676 0 0 1-.247.716.684.684 0 0 1-.76.042Z"/><path fill="#fff" fill-opacity=".7" d="m529.86 783.928-2.033-.868a1.363 1.363 0 0 1-.815-1.413l.264-2.193a.679.679 0 0 1 1.349.162l-.204 1.688a.68.68 0 0 0 .408.706l1.564.668a.677.677 0 0 1 .358.891.68.68 0 0 1-.891.359Z"/><path fill="#fff" fill-opacity=".7" d="m524.048 788.793-3.379-1.67a1.371 1.371 0 0 1-.575-.539 1.366 1.366 0 0 1-.179-.768l.243-3.761a.678.678 0 1 1 1.356.088l-.21 3.309a.683.683 0 0 0 .377.653l2.973 1.47a.68.68 0 1 1-.606 1.218Z"/><path fill="#fff" fill-opacity=".7" d="M524.072 801.988a.68.68 0 0 1-.679-.68l.019-4.412a1.356 1.356 0 0 1 .675-1.168l3.811-2.223a.676.676 0 0 1 .754.046.684.684 0 0 1 .246.715.685.685 0 0 1-.315.414l-3.472 2.024a.675.675 0 0 0-.34.584l-.018 4.024a.679.679 0 0 1-.681.676Z"/><path fill="#fff" fill-opacity=".7" d="m520.158 798.727-.243-3.761a1.366 1.366 0 0 1 .179-.768c.135-.232.335-.42.575-.539l3.379-1.67a.68.68 0 1 1 .602 1.218l-2.972 1.471a.677.677 0 0 0-.377.652l.213 3.309a.676.676 0 0 1-.634.722.673.673 0 0 1-.493-.168.677.677 0 0 1-.229-.466Z"/><path fill="#fff" fill-opacity=".7" d="m527.277 801.328-.265-2.193a1.359 1.359 0 0 1 .815-1.413l2.032-.868a.684.684 0 0 1 .892.359.684.684 0 0 1-.358.891l-1.564.668a.68.68 0 0 0-.408.706l.204 1.688a.68.68 0 0 1-1.093.615.675.675 0 0 1-.255-.453Z"/><path fill="#fff" fill-opacity=".7" d="M498.171 787.035a.683.683 0 0 1-.07-.516.668.668 0 0 1 .314-.414l3.476-2.027a.673.673 0 0 0 .247-.247.675.675 0 0 0 .093-.337l.017-4.024a.679.679 0 0 1 1.36.004l-.02 4.412a1.361 1.361 0 0 1-.674 1.168l-3.811 2.223a.683.683 0 0 1-.932-.242Z"/><path fill="#fff" fill-opacity=".7" d="M496.246 783.569a.679.679 0 0 1 .358-.891l1.563-.668a.68.68 0 0 0 .408-.706l-.204-1.688a.68.68 0 1 1 1.349-.162l.264 2.193a1.363 1.363 0 0 1-.815 1.413l-2.031.868a.684.684 0 0 1-.892-.359Z"/><path fill="#fff" fill-opacity=".7" d="M502.043 788.488a.678.678 0 0 1 .308-.91l2.972-1.471a.675.675 0 0 0 .377-.652l-.213-3.309a.681.681 0 0 1 1.126-.554.68.68 0 0 1 .23.466l.243 3.762a1.356 1.356 0 0 1-.754 1.306l-3.38 1.668a.68.68 0 0 1-.909-.306Z"/><path fill="#fff" fill-opacity=".7" d="M509.423 797.868a.687.687 0 0 1-.507-.227.685.685 0 0 1-.168-.53l.493-4.293-3.528-1.823a.675.675 0 0 1-.367-.604.677.677 0 0 1 .367-.603l3.528-1.824-.493-4.292a.677.677 0 0 1 .321-.658.68.68 0 0 1 .732.015l3.701 2.467 3.701-2.467a.68.68 0 0 1 .732-.015.677.677 0 0 1 .32.658l-.492 4.292 3.527 1.824a.681.681 0 0 1 .368.603.684.684 0 0 1-.368.604l-3.527 1.823.492 4.293a.678.678 0 0 1-1.052.643l-3.701-2.469-3.701 2.467a.679.679 0 0 1-.378.116Zm4.079-4.078c.134 0 .265.039.377.114l2.859 1.903-.38-3.302a.68.68 0 0 1 .363-.68l2.777-1.434-2.777-1.435a.683.683 0 0 1-.363-.68l.38-3.302-2.859 1.903a.676.676 0 0 1-.755 0l-2.854-1.903.379 3.302a.68.68 0 0 1-.364.68l-2.778 1.435 2.777 1.436a.681.681 0 0 1 .364.679l-.38 3.302 2.855-1.903a.681.681 0 0 1 .379-.115Z"/><path fill="#fff" d="M995.952 378.453a.453.453 0 0 0-.906 0v26.282a.453.453 0 0 0 .906 0v-26.282Z"/><path fill="#fff" d="m1006.65 384.632-22.758 13.139a.453.453 0 1 0 .454.785l22.764-13.139a.453.453 0 0 0 .16-.619.452.452 0 0 0-.62-.166Z"/><path fill="#fff" d="M984.346 384.631a.453.453 0 0 0-.454.785l22.758 13.141c.22.125.5.051.62-.166a.453.453 0 0 0-.16-.619l-22.764-13.141Z"/><path fill="#fff" fill-opacity=".7" d="m996.679 403.92-.906-.68a.454.454 0 0 0-.544 0l-.906.68a.453.453 0 0 1-.544-.725l1.178-.884a.905.905 0 0 1 1.088 0l1.178.884a.452.452 0 0 1-.041.752.46.46 0 0 1-.503-.027Z"/><path fill="#fff" fill-opacity=".7" d="M995.499 383.891a.45.45 0 0 1-.226-.06l-2.779-1.586a.462.462 0 0 1-.212-.275.48.48 0 0 1-.012-.177.458.458 0 0 1 .676-.336l2.329 1.33a.443.443 0 0 0 .449 0l2.329-1.33a.45.45 0 0 1 .618.168.45.45 0 0 1-.168.618l-2.779 1.586a.456.456 0 0 1-.225.062Z"/><path fill="#fff" fill-opacity=".7" d="M995.502 386.609a.45.45 0 0 1-.252-.076l-2.34-1.561a.454.454 0 0 1-.002-.754.458.458 0 0 1 .503 0l1.839 1.226a.45.45 0 0 0 .503 0l1.839-1.226a.458.458 0 0 1 .696.289.46.46 0 0 1-.193.465l-2.342 1.561a.449.449 0 0 1-.251.076Z"/><path fill="#fff" fill-opacity=".7" d="M995.501 381.172a.452.452 0 0 1-.272-.091l-1.45-1.087a.455.455 0 0 1-.091-.635.454.454 0 0 1 .635-.09l.906.679a.452.452 0 0 0 .544 0l.906-.679a.453.453 0 0 1 .544.725l-1.45 1.087a.454.454 0 0 1-.272.091Z"/><path fill="#fff" fill-opacity=".7" d="m998.054 401.732-2.329-1.331a.457.457 0 0 0-.45 0l-2.329 1.331a.454.454 0 0 1-.449-.787l2.554-1.459a.896.896 0 0 1 .899 0l2.554 1.459a.456.456 0 0 1 .168.618.452.452 0 0 1-.618.169Z"/><path fill="#fff" fill-opacity=".7" d="m997.59 398.969-1.838-1.226a.46.46 0 0 0-.503 0l-1.839 1.226a.464.464 0 0 1-.34.068.464.464 0 0 1-.289-.193.445.445 0 0 1-.067-.34.464.464 0 0 1 .193-.289l2.091-1.393a.903.903 0 0 1 1.005 0l2.09 1.393a.445.445 0 0 1 .193.289.453.453 0 0 1-.532.533.464.464 0 0 1-.164-.068Z"/><path fill="#fff" fill-opacity=".7" d="m987.997 398.875-.012-2.683a.447.447 0 0 0-.226-.389l-2.315-1.351a.442.442 0 0 1-.21-.277.453.453 0 0 1 .666-.506l2.541 1.481a.91.91 0 0 1 .449.779l.013 2.942a.452.452 0 0 1-.772.321.45.45 0 0 1-.134-.317Z"/><path fill="#fff" fill-opacity=".7" d="M990.581 397.576a.454.454 0 0 1-.423-.481l.143-2.206a.454.454 0 0 0-.252-.435l-1.981-.98a.457.457 0 0 1 .054-.836.456.456 0 0 1 .346.021l2.253 1.114a.908.908 0 0 1 .502.871l-.162 2.507a.438.438 0 0 1-.045.171.436.436 0 0 1-.107.141.45.45 0 0 1-.328.113Z"/><path fill="#fff" fill-opacity=".7" d="M985.809 399.281a.456.456 0 0 1-.395-.504l.136-1.125a.453.453 0 0 0-.272-.471l-1.042-.445a.451.451 0 0 1 .009-.837.454.454 0 0 1 .347.004l1.354.578a.904.904 0 0 1 .544.942l-.176 1.462a.45.45 0 0 1-.17.303.46.46 0 0 1-.335.093Z"/><path fill="#fff" fill-opacity=".7" d="m1005.1 389.52-2.54-1.482a.893.893 0 0 1-.45-.779l-.01-2.941c0-.121.05-.236.13-.321a.46.46 0 0 1 .32-.132.446.446 0 0 1 .45.45l.02 2.683c0 .079.02.156.06.225.04.068.09.125.16.164l2.32 1.351c.05.03.1.07.13.118.04.047.06.101.08.159.01.057.02.117.01.176a.492.492 0 0 1-.06.167.427.427 0 0 1-.12.134.387.387 0 0 1-.16.078.398.398 0 0 1-.17.009.436.436 0 0 1-.17-.059Z"/><path fill="#fff" fill-opacity=".7" d="m1006.41 387.285-1.36-.578a.92.92 0 0 1-.43-.381.847.847 0 0 1-.11-.561l.17-1.462c.02-.12.08-.228.17-.302.1-.075.22-.108.34-.094a.446.446 0 0 1 .39.504l-.13 1.125c-.01.097.01.196.05.281.05.085.13.151.22.19l1.04.445c.11.047.2.136.24.248.05.111.05.236 0 .346a.471.471 0 0 1-.25.243.44.44 0 0 1-.34-.004Z"/><path fill="#fff" fill-opacity=".7" d="m1002.53 390.529-2.25-1.114a.905.905 0 0 1-.504-.871l.162-2.507a.455.455 0 0 1 .482-.423.45.45 0 0 1 .42.482l-.14 2.206c0 .089.02.178.06.255.05.078.11.14.19.18l1.99.98c.1.053.19.147.22.261a.446.446 0 0 1-.13.487.373.373 0 0 1-.15.088.485.485 0 0 1-.18.023.422.422 0 0 1-.17-.047Z"/><path fill="#fff" fill-opacity=".7" d="M1002.55 399.325a.443.443 0 0 1-.32-.132.442.442 0 0 1-.14-.321l.02-2.941c0-.158.04-.313.12-.449a.886.886 0 0 1 .33-.33l2.54-1.482a.45.45 0 0 1 .5.031.43.43 0 0 1 .12.132c.03.052.05.109.06.168 0 .059 0 .118-.02.176a.447.447 0 0 1-.07.159.434.434 0 0 1-.14.117l-2.31 1.35a.367.367 0 0 0-.16.164.454.454 0 0 0-.07.225l-.01 2.682c0 .12-.05.235-.13.32a.464.464 0 0 1-.32.131Z"/><path fill="#fff" fill-opacity=".7" d="m999.938 397.151-.162-2.507a.907.907 0 0 1 .504-.871l2.25-1.114a.466.466 0 0 1 .35-.023c.11.039.2.121.26.228.05.108.06.233.02.346a.452.452 0 0 1-.23.261l-1.98.981a.46.46 0 0 0-.25.435l.14 2.206a.454.454 0 0 1-.902.058Z"/><path fill="#fff" fill-opacity=".7" d="m1004.68 398.886-.17-1.463a.849.849 0 0 1 .11-.561c.1-.17.25-.303.43-.38l1.36-.579a.44.44 0 0 1 .34-.004c.11.045.2.132.25.243a.42.42 0 0 1 0 .347c-.04.111-.13.2-.24.247l-1.04.445a.48.48 0 0 0-.22.19.539.539 0 0 0-.05.281l.13 1.125c.02.12-.02.24-.09.334a.434.434 0 0 1-.3.17.476.476 0 0 1-.34-.093.5.5 0 0 1-.17-.302Z"/><path fill="#fff" fill-opacity=".7" d="M985.281 389.357a.46.46 0 0 1-.047-.344.443.443 0 0 1 .21-.276l2.317-1.352a.455.455 0 0 0 .226-.389l.012-2.682a.452.452 0 1 1 .906.002l-.013 2.941a.905.905 0 0 1-.449.779l-2.541 1.482a.456.456 0 0 1-.621-.161Z"/><path fill="#fff" fill-opacity=".7" d="M983.997 387.046a.456.456 0 0 1 .239-.594l1.042-.445a.46.46 0 0 0 .272-.471l-.136-1.125a.454.454 0 0 1 .899-.109l.177 1.463a.91.91 0 0 1-.544.941l-1.354.579a.458.458 0 0 1-.347.004.458.458 0 0 1-.248-.243Z"/><path fill="#fff" fill-opacity=".7" d="M987.862 390.325a.457.457 0 0 1 .206-.607l1.981-.98a.454.454 0 0 0 .252-.435l-.143-2.206a.454.454 0 0 1 .904-.058l.162 2.508a.905.905 0 0 1-.502.87l-2.254 1.112a.454.454 0 0 1-.606-.204Z"/><path fill="#fff" fill-opacity=".7" d="M992.782 396.579a.453.453 0 0 1-.45-.505l.328-2.862-2.352-1.215a.457.457 0 0 1-.179-.638.456.456 0 0 1 .179-.167l2.352-1.216-.328-2.862a.45.45 0 0 1 .701-.428l2.468 1.645 2.467-1.645a.457.457 0 0 1 .488-.01.45.45 0 0 1 .214.438l-.329 2.862 2.349 1.216a.4.4 0 0 1 .18.167.4.4 0 0 1 .07.235c0 .083-.02.165-.07.236a.406.406 0 0 1-.18.167l-2.349 1.215.329 2.862a.448.448 0 0 1-.214.438.456.456 0 0 1-.488-.009l-2.467-1.646-2.468 1.645a.455.455 0 0 1-.251.077Zm2.719-2.719c.089 0 .177.026.251.076l1.906 1.269-.253-2.202a.457.457 0 0 1 .242-.453l1.851-.956-1.851-.957a.452.452 0 0 1-.242-.453l.253-2.201-1.906 1.268a.45.45 0 0 1-.503 0l-1.903-1.268.253 2.201a.457.457 0 0 1-.242.453l-1.852.957 1.851.957a.452.452 0 0 1 .242.453l-.253 2.202 1.903-1.269a.456.456 0 0 1 .253-.077Z"/><path fill="#fff" d="M1295.29 546.283a.285.285 0 0 0-.57 0v16.434a.285.285 0 0 0 .57 0v-16.434Z"/><path fill="#fff" d="m1301.98 550.147-14.23 8.215a.28.28 0 0 0-.11.387c.08.136.25.182.39.104l14.23-8.215a.277.277 0 0 0 .1-.387.274.274 0 0 0-.38-.104Z"/><path fill="#fff" d="M1288.03 550.146a.286.286 0 0 0-.39.104.28.28 0 0 0 .11.387l14.23 8.217c.13.078.31.032.38-.104a.277.277 0 0 0-.1-.387l-14.23-8.217Z"/><path fill="#fff" fill-opacity=".7" d="m1295.74 562.207-.57-.425a.287.287 0 0 0-.17-.057c-.06 0-.12.02-.17.057l-.56.425a.287.287 0 0 1-.4-.057.342.342 0 0 1-.05-.099.21.21 0 0 1 0-.111c0-.037.01-.072.03-.104.02-.032.05-.06.08-.082l.73-.553a.58.58 0 0 1 .34-.113c.13 0 .25.04.34.113l.74.553c.06.045.1.112.11.186.01.075-.01.15-.05.21-.03.03-.05.055-.09.074a.231.231 0 0 1-.1.037.292.292 0 0 1-.21-.054Z"/><path fill="#fff" fill-opacity=".7" d="M1295 549.683a.258.258 0 0 1-.14-.037l-1.74-.992a.253.253 0 0 1-.08-.073.342.342 0 0 1-.05-.099c-.01-.036-.01-.073-.01-.11a.38.38 0 0 1 .04-.105c.04-.065.1-.113.17-.133a.3.3 0 0 1 .22.027l1.45.832c.05.025.09.038.14.038.05 0 .1-.013.14-.038l1.46-.832a.27.27 0 0 1 .21-.027c.08.02.14.068.18.133.03.065.04.142.02.215a.264.264 0 0 1-.13.171l-1.74.992a.267.267 0 0 1-.14.038Z"/><path fill="#fff" fill-opacity=".7" d="M1295 551.383a.259.259 0 0 1-.15-.047l-1.47-.976a.262.262 0 0 1-.07-.078.217.217 0 0 1-.05-.102c0-.037-.01-.074 0-.111a.361.361 0 0 1 .04-.102.3.3 0 0 1 .18-.121.29.29 0 0 1 .11 0c.04.007.08.022.11.042l1.15.767c.04.031.1.048.15.048.06 0 .11-.017.16-.048l1.15-.767c.03-.02.07-.035.1-.042a.29.29 0 0 1 .11 0c.04.007.08.022.11.042.03.021.05.048.07.079.02.031.04.065.05.102v.11a.378.378 0 0 1-.05.103.262.262 0 0 1-.07.078l-1.47.976a.29.29 0 0 1-.16.047Z"/><path fill="#fff" fill-opacity=".7" d="M1295 547.983a.286.286 0 0 1-.17-.056l-.9-.68a.28.28 0 0 1-.11-.187.31.31 0 0 1 .05-.21c.05-.06.11-.1.19-.11.07-.011.15.008.21.053l.56.425c.05.037.11.057.17.057.06 0 .12-.02.17-.057l.57-.425a.286.286 0 0 1 .21-.053c.07.01.14.05.19.11.04.06.06.136.05.21a.28.28 0 0 1-.11.187l-.91.68a.286.286 0 0 1-.17.056Z"/><path fill="#fff" fill-opacity=".7" d="m1296.6 560.839-1.46-.832a.266.266 0 0 0-.14-.037c-.05 0-.09.012-.14.037l-1.45.832a.3.3 0 0 1-.22.027.292.292 0 0 1-.17-.132.272.272 0 0 1-.03-.215.278.278 0 0 1 .14-.172l1.59-.913a.58.58 0 0 1 .28-.074c.1 0 .2.026.28.074l1.6.913c.07.037.11.099.13.172.02.072.01.149-.02.215a.285.285 0 0 1-.18.132c-.07.02-.14.01-.21-.027Z"/><path fill="#fff" fill-opacity=".7" d="m1296.31 559.112-1.15-.767a.292.292 0 0 0-.16-.048.26.26 0 0 0-.15.048l-1.15.767a.297.297 0 0 1-.11.042.29.29 0 0 1-.11 0 .31.31 0 0 1-.18-.121.361.361 0 0 1-.04-.102.21.21 0 0 1 0-.111.361.361 0 0 1 .04-.102.297.297 0 0 1 .08-.078l1.31-.871a.55.55 0 0 1 .31-.095c.12 0 .22.033.32.095l1.31.871c.03.021.05.047.07.078.02.031.04.066.05.102v.111a.387.387 0 0 1-.05.102.25.25 0 0 1-.07.078.359.359 0 0 1-.11.043.29.29 0 0 1-.11 0 .329.329 0 0 1-.1-.042Z"/><path fill="#fff" fill-opacity=".7" d="m1290.31 559.052-.01-1.677c0-.05-.01-.098-.03-.141a.287.287 0 0 0-.11-.103l-1.45-.845a.253.253 0 0 1-.08-.073.342.342 0 0 1-.05-.099.21.21 0 0 1 0-.111c0-.037.01-.072.03-.104.04-.065.1-.112.18-.131a.27.27 0 0 1 .21.029l1.59.926a.601.601 0 0 1 .28.487l.01 1.839c0 .076-.03.148-.08.201a.31.31 0 0 1-.21.083c-.07 0-.14-.03-.19-.082a.261.261 0 0 1-.09-.199Z"/><path fill="#fff" fill-opacity=".7" d="M1291.93 558.24a.285.285 0 0 1-.2-.096.303.303 0 0 1-.07-.205l.09-1.379a.231.231 0 0 0-.04-.16.211.211 0 0 0-.12-.112l-1.23-.613a.307.307 0 0 1-.15-.163.272.272 0 0 1 .02-.216.274.274 0 0 1 .16-.144.295.295 0 0 1 .22.014l1.4.696c.11.05.19.128.24.225a.52.52 0 0 1 .08.32l-.1 1.568c0 .037-.01.073-.03.107a.332.332 0 0 1-.07.088.363.363 0 0 1-.09.055.328.328 0 0 1-.11.015Z"/><path fill="#fff" fill-opacity=".7" d="M1288.94 559.306a.26.26 0 0 1-.18-.106.265.265 0 0 1-.06-.209l.08-.703a.268.268 0 0 0-.03-.176.328.328 0 0 0-.14-.119l-.65-.278a.282.282 0 0 1-.15-.155.273.273 0 0 1 0-.217.292.292 0 0 1 .16-.151.269.269 0 0 1 .21.002l.85.362c.11.048.21.131.27.238.06.106.08.229.07.351l-.11.914a.38.38 0 0 1-.04.105c-.01.033-.04.061-.07.084a.262.262 0 0 1-.1.05.26.26 0 0 1-.11.008Z"/><path fill="#fff" fill-opacity=".7" d="m1301 553.203-1.58-.927a.54.54 0 0 1-.28-.487l-.01-1.839c0-.075.03-.147.08-.2a.306.306 0 0 1 .2-.083c.08 0 .15.03.2.082.06.053.09.125.09.2v1.677c0 .05.02.098.04.141.03.042.06.078.1.103l1.45.845c.04.018.06.043.09.073.02.029.04.063.04.099.01.036.02.074.01.111 0 .036-.02.072-.03.104a.32.32 0 0 1-.18.132.256.256 0 0 1-.11.006.34.34 0 0 1-.11-.037Z"/><path fill="#fff" fill-opacity=".7" d="m1301.82 551.806-.85-.362a.555.555 0 0 1-.26-.238.615.615 0 0 1-.08-.351l.12-.914c0-.075.04-.143.1-.189a.29.29 0 0 1 .21-.059c.07.009.14.048.19.107.05.059.07.134.06.208l-.09.704c0 .061.01.122.04.176a.3.3 0 0 0 .13.118l.65.279a.3.3 0 0 1 .16.155c.02.069.02.147-.01.216a.276.276 0 0 1-.37.15Z"/><path fill="#fff" fill-opacity=".7" d="m1299.4 553.834-1.41-.697a.588.588 0 0 1-.24-.224.59.59 0 0 1-.07-.32l.1-1.568c0-.075.04-.145.09-.194a.283.283 0 0 1 .4.026c.05.056.08.13.07.205l-.08 1.379c-.01.056.01.111.03.16a.3.3 0 0 0 .12.112l1.24.613c.07.033.12.092.15.163.02.071.01.149-.02.216a.303.303 0 0 1-.07.088.233.233 0 0 1-.09.056.302.302 0 0 1-.22-.015Z"/><path fill="#fff" fill-opacity=".7" d="M1299.41 559.334c-.07 0-.15-.03-.2-.083a.294.294 0 0 1-.08-.2l.01-1.839a.54.54 0 0 1 .28-.487l1.58-.927a.338.338 0 0 1 .11-.036.273.273 0 0 1 .11.007.258.258 0 0 1 .17.131.38.38 0 0 1 .04.105c0 .037 0 .074-.01.11a.2.2 0 0 1-.05.099.27.27 0 0 1-.08.074l-1.45.844a.258.258 0 0 0-.1.102.347.347 0 0 0-.04.141l-.01 1.677c0 .075-.03.147-.08.2a.269.269 0 0 1-.2.082Z"/><path fill="#fff" fill-opacity=".7" d="m1297.78 557.975-.1-1.568a.59.59 0 0 1 .07-.32.597.597 0 0 1 .24-.225l1.41-.696a.292.292 0 0 1 .22-.014.27.27 0 0 1 .16.142c.03.068.04.145.01.217a.26.26 0 0 1-.14.163l-1.24.613a.3.3 0 0 0-.12.112.298.298 0 0 0-.04.16l.09 1.379a.26.26 0 0 1-.07.205.283.283 0 0 1-.4.026c-.02-.024-.05-.054-.06-.087a.209.209 0 0 1-.03-.107Z"/><path fill="#fff" fill-opacity=".7" d="m1300.75 559.059-.12-.914a.615.615 0 0 1 .08-.351.55.55 0 0 1 .26-.238l.85-.362c.07-.029.15-.03.22-.002.07.028.12.082.15.151.03.07.03.147.01.217a.3.3 0 0 1-.16.155l-.65.278a.303.303 0 0 0-.13.119.356.356 0 0 0-.04.176l.09.703c.01.075-.01.15-.06.209a.305.305 0 0 1-.19.106.295.295 0 0 1-.21-.058.243.243 0 0 1-.1-.189Z"/><path fill="#fff" fill-opacity=".7" d="M1288.61 553.101a.196.196 0 0 1-.03-.104.21.21 0 0 1 0-.111c.01-.036.03-.07.05-.099.02-.03.05-.055.08-.073l1.45-.845a.295.295 0 0 0 .11-.103.623.623 0 0 0 .04-.141v-1.677a.26.26 0 0 1 .09-.199.27.27 0 0 1 .2-.083c.07 0 .14.03.2.083.05.053.08.125.08.2l-.01 1.839a.67.67 0 0 1-.07.281.55.55 0 0 1-.21.207l-1.59.926a.261.261 0 0 1-.21.03.332.332 0 0 1-.18-.131Z"/><path fill="#fff" fill-opacity=".7" d="M1287.81 551.656a.27.27 0 0 1 0-.216c.03-.07.08-.126.15-.155l.65-.279c.06-.024.1-.065.14-.118.03-.054.04-.115.03-.176l-.08-.704a.264.264 0 0 1 .06-.208.262.262 0 0 1 .18-.107c.08-.009.15.012.21.059.06.046.1.114.11.189l.11.914a.608.608 0 0 1-.07.351.578.578 0 0 1-.27.238l-.85.362a.269.269 0 0 1-.21.002.294.294 0 0 1-.16-.152Z"/><path fill="#fff" fill-opacity=".7" d="M1290.23 553.706a.272.272 0 0 1-.02-.216c.03-.071.08-.13.15-.163l1.23-.613c.06-.025.1-.064.12-.112a.23.23 0 0 0 .04-.16l-.09-1.379c0-.075.02-.149.07-.205a.285.285 0 0 1 .4-.026c.06.05.09.119.1.194l.1 1.568a.52.52 0 0 1-.08.32.516.516 0 0 1-.23.225l-1.41.695a.295.295 0 0 1-.22.014.27.27 0 0 1-.16-.142Z"/><path fill="#fff" fill-opacity=".7" d="M1293.3 557.617a.241.241 0 0 1-.11-.025.292.292 0 0 1-.1-.07c-.02-.03-.04-.065-.06-.103-.01-.038-.01-.078-.01-.118l.21-1.789-1.47-.76a.298.298 0 0 1-.12-.105.365.365 0 0 1-.04-.147c0-.052.02-.103.04-.147a.296.296 0 0 1 .12-.104l1.47-.761-.21-1.789c0-.054 0-.108.03-.157a.248.248 0 0 1 .11-.117.275.275 0 0 1 .3.006l1.54 1.029 1.55-1.029c.04-.03.09-.047.15-.048a.294.294 0 0 1 .26.159c.02.049.03.103.02.157l-.2 1.789 1.47.761c.05.023.08.06.11.104s.04.095.04.147c0 .052-.01.103-.04.147a.271.271 0 0 1-.11.105l-1.47.76.2 1.789a.28.28 0 0 1-.02.157.31.31 0 0 1-.11.117.285.285 0 0 1-.15.042.251.251 0 0 1-.15-.048l-1.55-1.029-1.54 1.029a.292.292 0 0 1-.16.048Zm1.7-1.7c.06 0 .11.016.16.047l1.19.794-.16-1.377a.32.32 0 0 1 .04-.165c.02-.05.06-.092.12-.118l1.15-.598-1.15-.598a.22.22 0 0 1-.12-.118.324.324 0 0 1-.04-.166l.16-1.376-1.19.793a.292.292 0 0 1-.16.048.26.26 0 0 1-.15-.048l-1.19-.793.15 1.376c.01.057 0 .115-.03.166a.26.26 0 0 1-.12.118l-1.16.598 1.16.599c.05.026.09.067.12.118.03.05.04.108.03.165l-.15 1.376 1.19-.793a.26.26 0 0 1 .15-.048Z"/><path fill="#fff" d="M1284.67 170.7c0-.387-.31-.7-.7-.7-.39 0-.7.313-.7.7v40.6c0 .387.31.7.7.7.39 0 .7-.313.7-.7v-40.6Z"/><path fill="#fff" d="m1301.2 180.245-35.16 20.297a.7.7 0 1 0 .7 1.213l35.16-20.297a.7.7 0 0 0 .26-.957.706.706 0 0 0-.96-.256Z"/><path fill="#fff" d="M1266.74 180.243a.7.7 0 1 0-.7 1.213l35.16 20.3c.33.193.76.078.95-.257a.696.696 0 0 0-.25-.956l-35.16-20.3Z"/><path fill="#fff" fill-opacity=".7" d="m1285.79 210.041-1.4-1.05a.7.7 0 0 0-.84 0l-1.4 1.05a.711.711 0 0 1-.52.133.705.705 0 0 1-.46-.273.595.595 0 0 1-.12-.246.629.629 0 0 1-.01-.273.604.604 0 0 1 .09-.258.647.647 0 0 1 .18-.203l1.82-1.365a1.4 1.4 0 0 1 1.68 0l1.82 1.365c.15.111.25.277.27.461.03.184-.02.37-.13.519a.752.752 0 0 1-.2.182.721.721 0 0 1-.26.091.674.674 0 0 1-.27-.015.687.687 0 0 1-.25-.118Z"/><path fill="#fff" fill-opacity=".7" d="M1283.97 179.1a.658.658 0 0 1-.35-.092l-4.29-2.45a.767.767 0 0 1-.21-.18.59.59 0 0 1-.12-.246.63.63 0 0 1-.02-.273.613.613 0 0 1 .09-.259.695.695 0 0 1 .95-.26l3.6 2.056c.11.06.23.092.35.092.12 0 .24-.032.34-.092l3.6-2.056a.706.706 0 0 1 .96.26c.09.161.11.352.07.531a.712.712 0 0 1-.33.424l-4.3 2.45a.67.67 0 0 1-.34.095Z"/><path fill="#fff" fill-opacity=".7" d="M1283.97 183.3a.711.711 0 0 1-.39-.118l-3.61-2.412a.792.792 0 0 1-.2-.192.748.748 0 0 1-.1-.252.633.633 0 0 1 0-.274c.01-.09.05-.176.1-.252a.763.763 0 0 1 .19-.194.77.77 0 0 1 .26-.105.682.682 0 0 1 .52.105l2.84 1.894c.12.077.25.118.39.118s.27-.041.39-.118l2.84-1.894a.72.72 0 0 1 .25-.105.733.733 0 0 1 .28 0 .72.72 0 0 1 .25.105.763.763 0 0 1 .3.446c.01.09.01.183 0 .273a.768.768 0 0 1-.3.445l-3.62 2.412a.711.711 0 0 1-.39.118Z"/><path fill="#fff" fill-opacity=".7" d="M1283.97 174.9a.7.7 0 0 1-.42-.14l-2.24-1.68a.666.666 0 0 1-.27-.461.69.69 0 0 1 .13-.519.709.709 0 0 1 .46-.273c.18-.026.37.022.52.133l1.4 1.05a.7.7 0 0 0 .84 0l1.4-1.05a.7.7 0 0 1 .98.14.69.69 0 0 1 .13.519.666.666 0 0 1-.27.461l-2.24 1.68a.7.7 0 0 1-.42.14Z"/><path fill="#fff" fill-opacity=".7" d="m1287.91 206.661-3.59-2.056a.732.732 0 0 0-.35-.092c-.12 0-.24.032-.35.092l-3.6 2.056a.695.695 0 0 1-.95-.26.707.707 0 0 1-.07-.532.71.71 0 0 1 .33-.423l3.94-2.255c.22-.121.46-.184.7-.184.24 0 .48.063.69.184l3.95 2.255a.71.71 0 0 1 .33.423c.04.179.02.37-.07.532a.709.709 0 0 1-.42.327.726.726 0 0 1-.54-.067Z"/><path fill="#fff" fill-opacity=".7" d="m1287.2 202.394-2.84-1.895a.718.718 0 0 0-.39-.117c-.14 0-.27.041-.39.117l-2.84 1.895a.682.682 0 0 1-.52.104.77.77 0 0 1-.26-.105.775.775 0 0 1-.19-.193.596.596 0 0 1-.1-.253.629.629 0 0 1 0-.273c.01-.09.05-.176.1-.252a.758.758 0 0 1 .19-.193l3.23-2.153a1.405 1.405 0 0 1 1.56 0l3.23 2.153c.07.051.14.116.19.193.05.076.09.162.1.252.02.09.02.183 0 .273a.596.596 0 0 1-.1.253.775.775 0 0 1-.19.193.77.77 0 0 1-.26.105.682.682 0 0 1-.52-.104Z"/><path fill="#fff" fill-opacity=".7" d="m1272.38 202.246-.02-4.144a.62.62 0 0 0-.1-.347.65.65 0 0 0-.25-.254l-3.58-2.087a.623.623 0 0 1-.2-.181.595.595 0 0 1-.12-.246c-.02-.089-.03-.182-.02-.273a.696.696 0 0 1 .52-.582.7.7 0 0 1 .53.072l3.92 2.289a1.399 1.399 0 0 1 .7 1.203l.02 4.544a.71.71 0 0 1-.7.7.682.682 0 0 1-.49-.203.66.66 0 0 1-.21-.491Z"/><path fill="#fff" fill-opacity=".7" d="M1276.37 200.24a.685.685 0 0 1-.48-.236.719.719 0 0 1-.17-.507l.22-3.408a.687.687 0 0 0-.1-.394.66.66 0 0 0-.29-.278l-3.06-1.514a.7.7 0 0 1-.36-.403.758.758 0 0 1 .04-.534.707.707 0 0 1 .4-.354c.18-.06.37-.048.54.033l3.48 1.721c.24.122.45.316.59.555.14.239.2.514.18.79l-.25 3.873c0 .092-.03.182-.07.265a.669.669 0 0 1-.4.355.7.7 0 0 1-.27.036Z"/><path fill="#fff" fill-opacity=".7" d="M1269 202.874a.705.705 0 0 1-.47-.262.729.729 0 0 1-.14-.516l.21-1.738a.73.73 0 0 0-.09-.434.71.71 0 0 0-.33-.293l-1.61-.688a.713.713 0 0 1-.38-.383.708.708 0 0 1 .39-.91.711.711 0 0 1 .54.006l2.09.894c.28.119.51.325.66.587.15.262.22.567.18.867l-.27 2.259a.613.613 0 0 1-.09.26.63.63 0 0 1-.17.207.79.79 0 0 1-.25.124.67.67 0 0 1-.27.02Z"/><path fill="#fff" fill-opacity=".7" d="m1298.8 187.796-3.92-2.289a1.401 1.401 0 0 1-.7-1.204l-.02-4.543a.71.71 0 0 1 .7-.7c.19 0 .36.073.5.203.13.131.2.308.2.493l.02 4.144c0 .122.03.242.1.347.06.106.15.193.25.254l3.58 2.088c.08.046.15.108.2.181.06.073.1.156.12.245.03.089.03.182.02.273a.604.604 0 0 1-.09.258.675.675 0 0 1-.43.327.685.685 0 0 1-.53-.077Z"/><path fill="#fff" fill-opacity=".7" d="m1300.82 184.344-2.1-.894a1.379 1.379 0 0 1-.66-.588 1.454 1.454 0 0 1-.18-.867l.28-2.259a.67.67 0 0 1 .26-.466.683.683 0 0 1 .51-.145c.19.022.36.117.47.263.12.146.17.331.14.516l-.21 1.738c-.01.15.02.302.09.433.08.131.2.234.33.294l1.61.687c.18.073.31.211.38.383.07.172.07.365-.01.536a.693.693 0 0 1-.91.369Z"/><path fill="#fff" fill-opacity=".7" d="m1294.83 189.354-3.48-1.72a1.398 1.398 0 0 1-.59-.555c-.14-.24-.2-.515-.18-.791l.25-3.873a.68.68 0 0 1 .23-.48.699.699 0 0 1 1.16.571l-.21 3.407c-.01.138.02.275.09.395.07.12.17.216.29.277l3.07 1.514c.16.083.29.228.35.403a.71.71 0 0 1-.04.535.648.648 0 0 1-.16.217.7.7 0 0 1-.78.1Z"/><path fill="#fff" fill-opacity=".7" d="M1294.86 202.943a.703.703 0 0 1-.5-.205.703.703 0 0 1-.2-.495l.02-4.544c0-.244.06-.483.19-.694.12-.211.29-.387.5-.509l3.93-2.289a.643.643 0 0 1 .26-.089.685.685 0 0 1 .69.341c.05.079.08.167.09.258.02.091.01.184-.01.273a.997.997 0 0 1-.12.245.77.77 0 0 1-.21.181l-3.57 2.085a.669.669 0 0 0-.35.601l-.02 4.144a.705.705 0 0 1-.7.697Z"/><path fill="#fff" fill-opacity=".7" d="m1290.83 199.585-.25-3.873c-.02-.276.04-.551.18-.791.14-.239.34-.432.59-.555l3.48-1.72a.713.713 0 0 1 .54-.036c.17.06.32.186.4.353.08.166.09.358.03.534a.684.684 0 0 1-.35.403l-3.06 1.515a.653.653 0 0 0-.29.277.69.69 0 0 0-.1.395l.22 3.407a.716.716 0 0 1-.17.507.702.702 0 0 1-.99.064.654.654 0 0 1-.16-.216.618.618 0 0 1-.07-.264Z"/><path fill="#fff" fill-opacity=".7" d="m1298.16 202.264-.28-2.259c-.03-.301.03-.605.18-.868.15-.262.38-.468.66-.587l2.1-.894a.69.69 0 0 1 .91.369c.08.171.08.363.01.536-.07.172-.2.31-.38.383l-1.61.687a.758.758 0 0 0-.33.294.809.809 0 0 0-.09.433l.21 1.738c.03.185-.02.37-.14.516a.688.688 0 0 1-.47.263.683.683 0 0 1-.51-.145.673.673 0 0 1-.26-.466Z"/><path fill="#fff" fill-opacity=".7" d="M1268.18 187.544a.777.777 0 0 1-.09-.258.836.836 0 0 1 .02-.273.595.595 0 0 1 .12-.246.623.623 0 0 1 .2-.181l3.58-2.087a.675.675 0 0 0 .35-.601l.02-4.144a.705.705 0 0 1 1.2-.492.7.7 0 0 1 .2.495l-.02 4.544c0 .243-.07.483-.19.694-.12.211-.29.386-.5.509l-3.93 2.289a.701.701 0 0 1-.53.075.776.776 0 0 1-.25-.119.827.827 0 0 1-.18-.205Z"/><path fill="#fff" fill-opacity=".7" d="M1266.2 183.975a.71.71 0 0 1-.01-.536c.07-.172.21-.31.38-.383l1.61-.687c.14-.06.25-.163.33-.294a.728.728 0 0 0 .09-.434l-.21-1.738a.726.726 0 0 1 .14-.515.706.706 0 0 1 .47-.263c.18-.022.37.03.51.144.15.115.25.283.27.467l.27 2.259c.04.301-.03.605-.18.867-.15.263-.38.469-.66.588l-2.09.893a.711.711 0 0 1-.54.006.693.693 0 0 1-.38-.374Z"/><path fill="#fff" fill-opacity=".7" d="M1272.17 189.04a.758.758 0 0 1-.04-.534.7.7 0 0 1 .36-.403l3.06-1.514a.659.659 0 0 0 .29-.277.69.69 0 0 0 .1-.395l-.22-3.408a.719.719 0 0 1 .17-.507.702.702 0 0 1 .99-.064c.14.123.22.296.23.481l.25 3.874c.02.275-.04.55-.18.789-.14.24-.35.433-.59.555l-3.48 1.718a.702.702 0 0 1-.94-.315Z"/><path fill="#fff" fill-opacity=".7" d="M1279.77 198.7c-.1 0-.2-.021-.29-.061a.62.62 0 0 1-.23-.173.651.651 0 0 1-.15-.254.722.722 0 0 1-.03-.292l.51-4.42-3.63-1.878a.69.69 0 0 1-.38-.622.67.67 0 0 1 .1-.364.695.695 0 0 1 .28-.257l3.63-1.879-.51-4.42a.737.737 0 0 1 .07-.387c.06-.12.15-.221.26-.291a.729.729 0 0 1 .38-.102c.14.003.27.044.38.118l3.81 2.541 3.81-2.541a.696.696 0 0 1 .75-.016c.12.07.21.171.27.291.06.12.08.254.06.387l-.5 4.42 3.63 1.879c.11.059.21.148.28.257.06.11.1.236.1.364a.77.77 0 0 1-.1.364.76.76 0 0 1-.28.258l-3.63 1.878.5 4.42c.02.133 0 .267-.06.387a.682.682 0 0 1-.27.291.674.674 0 0 1-.38.102.686.686 0 0 1-.37-.117l-3.81-2.543-3.81 2.541a.712.712 0 0 1-.39.119Zm4.2-4.2c.14 0 .27.041.39.118l2.94 1.96-.39-3.401a.648.648 0 0 1 .08-.408.74.74 0 0 1 .29-.292l2.86-1.477-2.86-1.478a.74.74 0 0 1-.29-.292.648.648 0 0 1-.08-.408l.39-3.401-2.94 1.96a.711.711 0 0 1-.39.118.711.711 0 0 1-.39-.118l-2.94-1.96.39 3.401a.648.648 0 0 1-.08.408.681.681 0 0 1-.29.292L1277.8 191l2.85 1.479a.702.702 0 0 1 .38.7l-.39 3.4 2.94-1.96a.688.688 0 0 1 .39-.119Z"/><path fill="#fff" d="M775.779 50.813a.813.813 0 1 0-1.627 0v47.164a.813.813 0 0 0 1.627 0V50.813Z"/><path fill="#fff" d="M794.983 61.901 754.136 85.48a.814.814 0 0 0 .813 1.408l40.847-23.578a.812.812 0 1 0-.813-1.409Z"/><path fill="#fff" d="M754.949 61.899a.813.813 0 0 0-.813 1.408l40.845 23.582a.812.812 0 1 0 .813-1.408l-40.845-23.582Z"/><path fill="#fff" fill-opacity=".7" d="m777.08 96.514-1.626-1.22a.814.814 0 0 0-.976 0l-1.626 1.22a.815.815 0 0 1-1.188-1.065.83.83 0 0 1 .212-.236l2.114-1.586a1.627 1.627 0 0 1 1.952 0l2.114 1.586a.813.813 0 1 1-.976 1.301Z"/><path fill="#fff" fill-opacity=".7" d="M774.964 60.571a.813.813 0 0 1-.406-.107l-4.986-2.846a.81.81 0 0 1-.402-.812.824.824 0 0 1 .594-.681.813.813 0 0 1 .617.078l4.18 2.388a.813.813 0 0 0 .807 0l4.179-2.388a.816.816 0 0 1 1.11.302.811.811 0 0 1-.303 1.11l-4.986 2.846a.817.817 0 0 1-.404.11Z"/><path fill="#fff" fill-opacity=".7" d="M774.968 65.45a.81.81 0 0 1-.451-.137l-4.2-2.802a.817.817 0 0 1-.349-.834.824.824 0 0 1 .345-.518.813.813 0 0 1 .904 0l3.3 2.2a.81.81 0 0 0 .902 0l3.3-2.2a.813.813 0 0 1 .903 1.352l-4.203 2.802a.813.813 0 0 1-.451.136Z"/><path fill="#fff" fill-opacity=".7" d="M774.966 55.693a.814.814 0 0 1-.488-.163l-2.602-1.952a.813.813 0 1 1 .976-1.3l1.626 1.219a.814.814 0 0 0 .976 0l1.626-1.22a.815.815 0 0 1 1.293.766.81.81 0 0 1-.317.535l-2.602 1.952a.814.814 0 0 1-.488.163Z"/><path fill="#fff" fill-opacity=".7" d="m779.548 92.588-4.179-2.388a.814.814 0 0 0-.807 0l-4.18 2.388a.812.812 0 1 1-.806-1.412l4.583-2.62a1.622 1.622 0 0 1 1.613 0l4.583 2.62a.815.815 0 0 1 .302 1.11.813.813 0 0 1-1.109.302Z"/><path fill="#fff" fill-opacity=".7" d="m778.718 87.63-3.3-2.2a.81.81 0 0 0-.902 0l-3.3 2.2a.817.817 0 0 1-.904 0 .805.805 0 0 1-.345-.518.807.807 0 0 1 .346-.835l3.752-2.5a1.626 1.626 0 0 1 1.804 0l3.752 2.5a.816.816 0 0 1 .001 1.353.82.82 0 0 1-.611.121.817.817 0 0 1-.293-.12Z"/><path fill="#fff" fill-opacity=".7" d="m761.5 87.46-.021-4.815a.816.816 0 0 0-.406-.698l-4.155-2.425a.823.823 0 0 1-.377-.496.825.825 0 0 1 .085-.616.81.81 0 0 1 1.111-.293l4.56 2.659a1.625 1.625 0 0 1 .806 1.398l.024 5.278a.815.815 0 0 1-.813.813.813.813 0 0 1-.814-.806Z"/><path fill="#fff" fill-opacity=".7" d="M766.139 85.13a.812.812 0 0 1-.759-.864l.255-3.959a.809.809 0 0 0-.451-.78l-3.556-1.76a.812.812 0 0 1-.368-1.088.815.815 0 0 1 1.087-.373l4.042 1.999a1.629 1.629 0 0 1 .902 1.562l-.29 4.5a.82.82 0 0 1-.273.56.815.815 0 0 1-.589.202Z"/><path fill="#fff" fill-opacity=".7" d="M757.576 88.19a.813.813 0 0 1-.71-.905l.244-2.019a.813.813 0 0 0-.488-.845l-1.87-.798a.813.813 0 0 1 .639-1.496l2.431 1.039a1.628 1.628 0 0 1 .975 1.69l-.316 2.624a.807.807 0 0 1-.305.542.816.816 0 0 1-.6.167Z"/><path fill="#fff" fill-opacity=".7" d="m792.191 70.672-4.554-2.659a1.619 1.619 0 0 1-.807-1.397l-.023-5.279a.811.811 0 0 1 1.386-.576.81.81 0 0 1 .24.572l.022 4.814a.816.816 0 0 0 .407.699l4.157 2.425a.822.822 0 0 1 .377.495.806.806 0 0 1-.084.617.81.81 0 0 1-.82.397.811.811 0 0 1-.301-.108Z"/><path fill="#fff" fill-opacity=".7" d="m794.536 66.663-2.431-1.039a1.627 1.627 0 0 1-.976-1.69l.316-2.624a.816.816 0 0 1 .904-.71.812.812 0 0 1 .71.904l-.244 2.02a.813.813 0 0 0 .488.845l1.87.798a.814.814 0 0 1-.015 1.502.814.814 0 0 1-.622-.006Z"/><path fill="#fff" fill-opacity=".7" d="m787.584 72.483-4.041-1.999a1.623 1.623 0 0 1-.903-1.562l.29-4.5a.813.813 0 0 1 1.623.105l-.251 3.959a.81.81 0 0 0 .452.78l3.555 1.76a.81.81 0 0 1 .369 1.088.806.806 0 0 1-.47.412.814.814 0 0 1-.624-.043Z"/><path fill="#fff" fill-opacity=".7" d="M787.614 88.268a.812.812 0 0 1-.813-.813l.023-5.278a1.627 1.627 0 0 1 .808-1.398l4.558-2.659a.823.823 0 0 1 .617-.084.808.808 0 0 1 .599.677.805.805 0 0 1-.158.602.823.823 0 0 1-.238.21l-4.154 2.422a.816.816 0 0 0-.406.698l-.022 4.814a.811.811 0 0 1-.814.81Z"/><path fill="#fff" fill-opacity=".7" d="m782.93 84.367-.29-4.499a1.621 1.621 0 0 1 .903-1.563l4.041-1.999a.814.814 0 0 1 .721 1.458l-3.556 1.76a.815.815 0 0 0-.451.78l.255 3.959a.813.813 0 1 1-1.623.104Z"/><path fill="#fff" fill-opacity=".7" d="m791.446 87.48-.317-2.625a1.626 1.626 0 0 1 .976-1.69l2.43-1.038a.813.813 0 1 1 .638 1.496l-1.87.798a.813.813 0 0 0-.488.845l.244 2.02a.812.812 0 1 1-1.613.194Z"/><path fill="#fff" fill-opacity=".7" d="M756.626 70.38a.822.822 0 0 1-.085-.617.823.823 0 0 1 .377-.495l4.158-2.425a.809.809 0 0 0 .407-.699l.021-4.813a.814.814 0 0 1 1.626.004l-.024 5.278a1.628 1.628 0 0 1-.806 1.398l-4.56 2.659a.811.811 0 0 1-1.114-.29Z"/><path fill="#fff" fill-opacity=".7" d="M754.324 66.234a.813.813 0 0 1 .428-1.067l1.87-.799a.813.813 0 0 0 .488-.844l-.244-2.02a.813.813 0 0 1 1.614-.194l.317 2.624a1.626 1.626 0 0 1-.976 1.69l-2.43 1.038a.813.813 0 0 1-1.067-.428Z"/><path fill="#fff" fill-opacity=".7" d="M761.26 72.118a.811.811 0 0 1 .368-1.089l3.556-1.759a.81.81 0 0 0 .451-.78l-.255-3.959a.81.81 0 0 1 .759-.863.814.814 0 0 1 .863.758l.291 4.5a1.627 1.627 0 0 1-.902 1.563l-4.044 1.995a.813.813 0 0 1-1.087-.366Z"/><path fill="#fff" fill-opacity=".7" d="M770.086 83.34a.812.812 0 0 1-.808-.906l.59-5.135-4.221-2.182a.817.817 0 0 1-.321-1.145.819.819 0 0 1 .321-.299l4.221-2.182-.59-5.135a.811.811 0 0 1 .824-.906c.156.003.307.05.436.137l4.427 2.952 4.428-2.952a.813.813 0 0 1 1.26.77l-.59 5.134 4.22 2.182a.809.809 0 0 1 .321 1.145.807.807 0 0 1-.321.3l-4.22 2.18.59 5.136a.82.82 0 0 1-.384.787.816.816 0 0 1-.876-.018l-4.428-2.953-4.427 2.952a.817.817 0 0 1-.452.138Zm4.879-4.88c.161 0 .318.048.452.138l3.42 2.276-.454-3.95a.813.813 0 0 1 .434-.813l3.322-1.716-3.322-1.717a.81.81 0 0 1-.434-.813l.454-3.95-3.42 2.276a.815.815 0 0 1-.903 0l-3.415-2.277.453 3.95a.806.806 0 0 1-.435.813l-3.323 1.718 3.322 1.718a.817.817 0 0 1 .435.813l-.454 3.95 3.415-2.277a.814.814 0 0 1 .453-.138Z"/><g fill="#fff" opacity=".8"><path d="M1614.55 578.548a.551.551 0 0 0-1.1 0v31.757c0 .302.25.548.55.548.3 0 .55-.246.55-.548v-31.757Z"/><path d="m1627.48 586.014-27.51 15.876a.55.55 0 0 0-.2.748.55.55 0 0 0 .75.201l27.51-15.877a.55.55 0 0 0 .2-.748.55.55 0 0 0-.75-.2Z"/><path d="M1600.52 586.012a.55.55 0 0 0-.75.201.55.55 0 0 0 .2.748l27.51 15.878c.26.151.59.062.74-.2a.533.533 0 0 0-.2-.748l-27.5-15.879Z"/><path fill-opacity=".7" d="m1615.42 609.32-1.09-.821a.561.561 0 0 0-.33-.11c-.12 0-.23.039-.33.11l-1.09.821a.553.553 0 0 1-.77-.109.656.656 0 0 1-.09-.193.51.51 0 0 1-.01-.213c.01-.072.03-.14.07-.202a.433.433 0 0 1 .14-.159l1.42-1.068a1.1 1.1 0 0 1 1.32 0l1.42 1.068a.58.58 0 0 1 .22.361.543.543 0 0 1-.11.406.546.546 0 0 1-.57.201.586.586 0 0 1-.2-.092Z"/><path fill-opacity=".7" d="M1614 585.118a.505.505 0 0 1-.27-.072l-3.36-1.916a.529.529 0 0 1-.16-.141.492.492 0 0 1-.11-.406c.01-.071.03-.14.07-.203a.538.538 0 0 1 .74-.203l2.82 1.608a.551.551 0 0 0 .54 0l2.82-1.608a.538.538 0 0 1 .74.203.55.55 0 0 1 .05.416.53.53 0 0 1-.25.331l-3.36 1.917a.554.554 0 0 1-.27.074Z"/><path fill-opacity=".7" d="M1614 588.403a.531.531 0 0 1-.3-.092l-2.83-1.886a.54.54 0 0 1-.23-.348.39.39 0 0 1 0-.214.54.54 0 0 1 .64-.431c.07.014.14.042.2.081l2.22 1.482c.09.06.19.092.3.092.11 0 .22-.032.31-.092l2.22-1.482a.533.533 0 0 1 .41-.081.54.54 0 0 1 .35.233c.04.06.06.127.08.198a.76.76 0 0 1 0 .213.675.675 0 0 1-.08.198.553.553 0 0 1-.15.151l-2.83 1.886c-.09.06-.2.092-.31.092Z"/><path fill-opacity=".7" d="M1614 581.833a.56.56 0 0 1-.33-.109l-1.75-1.315a.525.525 0 0 1-.21-.36.535.535 0 0 1 .1-.406.565.565 0 0 1 .36-.214c.15-.02.29.017.41.104l1.09.822a.56.56 0 0 0 .66 0l1.09-.822a.57.57 0 0 1 .41-.104c.14.021.27.098.36.214a.54.54 0 0 1 .11.406.577.577 0 0 1-.22.36l-1.75 1.315a.56.56 0 0 1-.33.109Z"/><path fill-opacity=".7" d="m1617.09 606.676-2.82-1.608a.551.551 0 0 0-.54 0l-2.82 1.608a.538.538 0 0 1-.74-.203.553.553 0 0 1-.06-.416c.04-.14.13-.259.26-.331l3.09-1.764c.16-.094.35-.144.54-.144.19 0 .38.05.54.144l3.09 1.764c.12.072.22.191.26.331.03.14.01.289-.06.416a.538.538 0 0 1-.74.203Z"/><path fill-opacity=".7" d="m1616.53 603.338-2.23-1.482a.531.531 0 0 0-.6 0l-2.23 1.482a.518.518 0 0 1-.41.082.543.543 0 0 1-.34-.234.679.679 0 0 1-.09-.197.767.767 0 0 1 0-.214c.02-.07.05-.137.09-.197a.54.54 0 0 1 .15-.151l2.52-1.684a1.101 1.101 0 0 1 1.22 0l2.52 1.684c.06.04.12.091.16.151.04.06.06.127.08.197.01.071.01.143 0 .214a.658.658 0 0 1-.08.197.58.58 0 0 1-.16.152.518.518 0 0 1-.41.082.518.518 0 0 1-.19-.082Z"/><path fill-opacity=".7" d="m1604.93 603.223-.01-3.241a.529.529 0 0 0-.08-.272.485.485 0 0 0-.19-.199l-2.8-1.633a.529.529 0 0 1-.16-.141.492.492 0 0 1-.1-.192.766.766 0 0 1-.01-.214.498.498 0 0 1 .07-.202.534.534 0 0 1 .33-.253.563.563 0 0 1 .42.056l3.07 1.791c.16.096.3.233.4.398.09.165.14.352.14.543l.02 3.554c0 .145-.06.285-.16.387a.54.54 0 0 1-.77.002.522.522 0 0 1-.17-.384Z"/><path fill-opacity=".7" d="M1608.06 601.654a.554.554 0 0 1-.52-.581l.18-2.666a.563.563 0 0 0-.08-.309.502.502 0 0 0-.23-.216l-2.39-1.185a.564.564 0 0 1-.28-.315.603.603 0 0 1 .03-.418c.06-.13.18-.23.31-.277a.555.555 0 0 1 .42.026l2.72 1.346c.2.096.36.247.47.434.11.187.16.402.14.618l-.19 3.03a.736.736 0 0 1-.06.207.461.461 0 0 1-.13.17.481.481 0 0 1-.18.108.544.544 0 0 1-.21.028Z"/><path fill-opacity=".7" d="M1602.29 603.714a.523.523 0 0 1-.36-.205.538.538 0 0 1-.12-.403l.17-1.36a.55.55 0 0 0-.33-.569l-1.26-.538a.539.539 0 0 1-.29-.299.51.51 0 0 1 0-.419.576.576 0 0 1 .3-.293.55.55 0 0 1 .42.005l1.64.699c.21.093.4.254.51.459.12.205.17.443.14.679l-.21 1.766a.501.501 0 0 1-.07.204.458.458 0 0 1-.14.162.488.488 0 0 1-.19.096.517.517 0 0 1-.21.016Z"/><path fill-opacity=".7" d="m1625.6 591.92-3.07-1.791c-.16-.096-.3-.233-.39-.398-.1-.165-.15-.352-.15-.543l-.02-3.554c0-.145.06-.285.16-.387a.558.558 0 0 1 .39-.161c.14 0 .28.058.39.16.1.102.16.24.16.385l.01 3.242c0 .095.03.189.08.271.04.083.11.151.2.199l2.8 1.633c.06.036.11.084.16.141.04.058.07.123.09.192.02.07.02.143.01.214a.493.493 0 0 1-.07.202.545.545 0 0 1-.75.195Z"/><path fill-opacity=".7" d="m1627.18 589.22-1.64-.7a1.096 1.096 0 0 1-.66-1.137l.22-1.767a.527.527 0 0 1 .2-.365.547.547 0 0 1 .88.496l-.16 1.359c-.02.118.01.237.07.339a.55.55 0 0 0 .26.23l1.26.538a.539.539 0 0 1 .28.718.525.525 0 0 1-.29.293.555.555 0 0 1-.42-.004Z"/><path fill-opacity=".7" d="m1622.5 593.139-2.72-1.346a1.09 1.09 0 0 1-.47-.434 1.03 1.03 0 0 1-.14-.618l.19-3.03a.552.552 0 0 1 .96-.326c.1.109.14.252.14.397l-.17 2.665a.48.48 0 0 0 .07.309c.05.094.13.169.23.217l2.39 1.184a.57.57 0 0 1 .28.315.51.51 0 0 1-.03.418.456.456 0 0 1-.13.171.573.573 0 0 1-.18.107.57.57 0 0 1-.22.027.506.506 0 0 1-.2-.056Z"/><path fill-opacity=".7" d="M1622.52 603.768a.54.54 0 0 1-.39-.161.556.556 0 0 1-.16-.387l.01-3.554c.01-.19.06-.378.15-.543.1-.165.23-.302.4-.398l3.07-1.79a.525.525 0 0 1 .41-.057c.07.018.14.05.2.094.05.043.1.097.14.16.03.062.06.13.07.202.01.071 0 .143-.02.213a.465.465 0 0 1-.09.192.546.546 0 0 1-.16.142l-2.8 1.63a.586.586 0 0 0-.2.199.634.634 0 0 0-.07.272l-.02 3.241c0 .145-.05.284-.16.386a.537.537 0 0 1-.38.159Z"/><path fill-opacity=".7" d="m1619.36 601.141-.19-3.029c-.02-.216.03-.431.14-.619.11-.187.27-.338.47-.434l2.72-1.346a.529.529 0 0 1 .41-.027c.14.046.26.145.32.275.06.131.07.281.03.418a.569.569 0 0 1-.28.316l-2.39 1.184a.51.51 0 0 0-.23.217.563.563 0 0 0-.08.309l.18 2.665a.554.554 0 0 1-.73.554.467.467 0 0 1-.18-.107.45.45 0 0 1-.13-.169.736.736 0 0 1-.06-.207Z"/><path fill-opacity=".7" d="m1625.1 603.237-.22-1.767a1.096 1.096 0 0 1 .66-1.138l1.64-.699a.55.55 0 0 1 .42-.005c.13.054.24.16.29.293a.54.54 0 0 1-.28.719l-1.26.537a.554.554 0 0 0-.33.569l.16 1.36a.532.532 0 0 1-.11.403.55.55 0 0 1-.77.093.53.53 0 0 1-.2-.365Z"/><path fill-opacity=".7" d="M1601.65 591.723a.493.493 0 0 1-.07-.202.759.759 0 0 1 .01-.213c.02-.07.05-.135.1-.193.04-.057.1-.105.16-.141l2.8-1.633a.586.586 0 0 0 .2-.199.515.515 0 0 0 .07-.271l.02-3.242c0-.144.05-.283.16-.385a.538.538 0 0 1 .77.001c.1.103.16.242.16.387l-.02 3.554c0 .191-.05.378-.14.543-.1.165-.23.302-.4.398l-3.07 1.791a.543.543 0 0 1-.41.058.608.608 0 0 1-.2-.093.78.78 0 0 1-.14-.16Z"/><path fill-opacity=".7" d="M1600.1 588.931a.51.51 0 0 1 0-.419.543.543 0 0 1 .29-.3l1.26-.537a.55.55 0 0 0 .33-.569l-.17-1.36a.538.538 0 0 1 .12-.403.528.528 0 0 1 .36-.206c.14-.017.29.024.4.113.12.09.19.221.21.365l.21 1.767c.03.236-.02.474-.14.679-.12.205-.3.366-.51.459l-1.64.699a.55.55 0 0 1-.42.005.576.576 0 0 1-.3-.293Z"/><path fill-opacity=".7" d="M1604.77 592.893a.602.602 0 0 1-.03-.418.57.57 0 0 1 .28-.315l2.39-1.184c.1-.048.18-.123.23-.217a.563.563 0 0 0 .08-.309l-.18-2.665c0-.145.04-.288.14-.397a.545.545 0 0 1 .77-.05c.11.096.18.231.19.376l.19 3.03c.02.216-.03.431-.14.618-.11.187-.27.338-.46.434l-2.73 1.344a.533.533 0 0 1-.41.028.567.567 0 0 1-.32-.275Z"/><path fill-opacity=".7" d="M1610.71 600.45a.533.533 0 0 1-.4-.183.545.545 0 0 1-.12-.199c-.02-.074-.03-.152-.02-.228l.4-3.458-2.84-1.469a.537.537 0 0 1-.3-.486.543.543 0 0 1 .3-.487l2.84-1.469-.4-3.457a.626.626 0 0 1 .05-.303.575.575 0 0 1 .21-.227.546.546 0 0 1 .59.012l2.98 1.987 2.98-1.987a.546.546 0 0 1 .59-.012c.09.054.16.133.21.227.04.094.06.199.05.303l-.4 3.457 2.84 1.469a.543.543 0 0 1 0 .973l-2.84 1.469.4 3.458a.624.624 0 0 1-.05.302.553.553 0 0 1-.8.216l-2.98-1.989-2.98 1.987a.565.565 0 0 1-.31.094Zm3.29-3.286c.11 0 .21.032.3.092l2.31 1.533-.31-2.66a.585.585 0 0 1 .06-.319.58.58 0 0 1 .23-.228l2.24-1.155-2.24-1.157a.58.58 0 0 1-.23-.228.585.585 0 0 1-.06-.319l.31-2.66-2.31 1.533a.531.531 0 0 1-.6 0l-2.3-1.533.3 2.66c.01.11-.01.221-.06.319a.523.523 0 0 1-.23.228l-2.24 1.157 2.24 1.156c.1.051.18.13.23.228.05.098.07.209.06.32l-.3 2.659 2.29-1.533c.09-.06.2-.093.31-.093Z"/></g><path fill="#fff" d="M1680.55 113.548a.551.551 0 0 0-1.1 0v31.757c0 .302.25.548.55.548.3 0 .55-.246.55-.548v-31.757Z"/><path fill="#fff" d="m1693.48 121.013-27.51 15.876a.55.55 0 0 0-.2.748.55.55 0 0 0 .75.201l27.5-15.876a.545.545 0 0 0 .21-.748.553.553 0 0 0-.75-.201Z"/><path fill="#fff" d="M1666.52 121.013a.55.55 0 0 0-.55.948l27.51 15.879c.26.151.59.061.74-.201a.533.533 0 0 0-.2-.748l-27.5-15.878Z"/><path fill="#fff" fill-opacity=".7" d="m1681.42 144.32-1.09-.822a.56.56 0 0 0-.66 0l-1.09.822a.558.558 0 0 1-.41.104.565.565 0 0 1-.36-.214.65.65 0 0 1-.09-.192.515.515 0 0 1-.01-.214.488.488 0 0 1 .07-.201.433.433 0 0 1 .14-.159l1.42-1.068a1.1 1.1 0 0 1 1.32 0l1.42 1.068c.12.087.19.216.22.36a.54.54 0 0 1-.11.406.563.563 0 0 1-.36.214.533.533 0 0 1-.21-.012.606.606 0 0 1-.2-.092Z"/><path fill="#fff" fill-opacity=".7" d="M1680 120.119c-.1 0-.19-.025-.27-.073l-3.36-1.916a.529.529 0 0 1-.16-.141.51.51 0 0 1-.11-.405.492.492 0 0 1 .07-.203.543.543 0 0 1 .74-.204l2.82 1.608a.54.54 0 0 0 .54 0l2.82-1.608a.543.543 0 0 1 .79.619c-.03.14-.13.26-.25.332l-3.36 1.916a.555.555 0 0 1-.27.075Z"/><path fill="#fff" fill-opacity=".7" d="M1680 123.403a.531.531 0 0 1-.3-.092l-2.83-1.886a.54.54 0 0 1-.23-.348.39.39 0 0 1 0-.214.543.543 0 0 1 .84-.349l2.22 1.482c.09.06.19.092.3.092.11 0 .22-.032.31-.092l2.22-1.482a.518.518 0 0 1 .41-.082.543.543 0 0 1 .43.431c.01.071.01.143 0 .214a.68.68 0 0 1-.08.197.54.54 0 0 1-.15.151l-2.83 1.886c-.09.06-.2.092-.31.092Z"/><path fill="#fff" fill-opacity=".7" d="M1680 116.834a.561.561 0 0 1-.33-.11l-1.75-1.314a.527.527 0 0 1-.21-.36.535.535 0 0 1 .1-.406.561.561 0 0 1 .36-.214c.15-.02.29.017.41.104l1.09.821c.1.071.21.11.33.11.12 0 .23-.039.33-.11l1.09-.821a.57.57 0 0 1 .41-.104.561.561 0 0 1 .47.62.58.58 0 0 1-.22.36l-1.75 1.314c-.1.071-.21.11-.33.11Z"/><path fill="#fff" fill-opacity=".7" d="m1683.09 141.676-2.82-1.608a.551.551 0 0 0-.54 0l-2.82 1.608a.54.54 0 0 1-.74-.204.55.55 0 0 1-.06-.415.55.55 0 0 1 .26-.332l3.09-1.763c.16-.095.35-.144.54-.144.19 0 .38.049.54.144l3.09 1.763c.12.073.22.192.26.332a.6.6 0 0 1-.06.415.54.54 0 0 1-.74.204Z"/><path fill="#fff" fill-opacity=".7" d="m1682.53 138.338-2.23-1.482a.531.531 0 0 0-.6 0l-2.23 1.482a.516.516 0 0 1-.19.081.518.518 0 0 1-.41-.082.54.54 0 0 1-.15-.151.704.704 0 0 1-.09-.197.767.767 0 0 1 0-.214.679.679 0 0 1 .09-.197.54.54 0 0 1 .15-.151l2.52-1.684c.18-.12.39-.184.61-.184.22 0 .43.064.61.184l2.52 1.684c.06.04.12.091.16.151.04.059.06.126.08.197.01.07.01.143 0 .214a.68.68 0 0 1-.08.197c-.04.06-.1.111-.16.151a.518.518 0 0 1-.41.082.516.516 0 0 1-.19-.081Z"/><path fill="#fff" fill-opacity=".7" d="m1670.93 138.223-.01-3.241a.529.529 0 0 0-.08-.272.453.453 0 0 0-.2-.199l-2.79-1.633a.432.432 0 0 1-.16-.141.492.492 0 0 1-.11-.406.498.498 0 0 1 .07-.202.534.534 0 0 1 .33-.253.563.563 0 0 1 .42.056l3.07 1.791c.16.096.3.233.39.398.1.165.15.352.15.543l.02 3.554c0 .145-.06.285-.16.387a.558.558 0 0 1-.39.161.579.579 0 0 1-.39-.159.552.552 0 0 1-.16-.384Z"/><path fill="#fff" fill-opacity=".7" d="M1674.05 136.654a.531.531 0 0 1-.37-.185.53.53 0 0 1-.14-.396l.18-2.666a.563.563 0 0 0-.08-.309.502.502 0 0 0-.23-.216l-2.39-1.185a.564.564 0 0 1-.28-.315.603.603 0 0 1 .03-.418c.06-.13.18-.23.31-.277a.555.555 0 0 1 .42.026l2.72 1.346c.2.096.36.247.47.434.1.187.15.402.14.618l-.19 3.03a.736.736 0 0 1-.06.207.576.576 0 0 1-.31.278.57.57 0 0 1-.22.028Z"/><path fill="#fff" fill-opacity=".7" d="M1668.29 138.715a.523.523 0 0 1-.36-.205.542.542 0 0 1-.12-.404l.17-1.359a.547.547 0 0 0-.33-.569l-1.26-.538a.54.54 0 0 1-.29-.3.508.508 0 0 1 0-.418.55.55 0 0 1 .72-.289l1.64.699c.21.093.4.255.51.46.12.205.17.443.14.678l-.21 1.767a.502.502 0 0 1-.07.203.442.442 0 0 1-.14.162.535.535 0 0 1-.4.113Z"/><path fill="#fff" fill-opacity=".7" d="m1691.6 126.92-3.07-1.791c-.16-.096-.3-.233-.39-.398-.1-.165-.15-.352-.15-.543l-.02-3.554c0-.145.06-.285.16-.387a.558.558 0 0 1 .39-.161c.14 0 .28.058.39.16.1.102.16.24.16.385l.01 3.242c0 .095.03.189.08.271.04.083.11.151.2.199l2.8 1.633c.06.036.11.084.16.141.04.058.07.123.09.192.02.07.02.143.01.214a.493.493 0 0 1-.07.202.545.545 0 0 1-.75.195Z"/><path fill="#fff" fill-opacity=".7" d="m1693.18 124.219-1.64-.699a1.096 1.096 0 0 1-.66-1.138l.22-1.767a.53.53 0 0 1 .2-.365.55.55 0 0 1 .77.093c.09.114.13.259.11.403l-.16 1.36c-.02.117.01.236.07.339a.55.55 0 0 0 .26.23l1.26.537a.54.54 0 0 1 .28.719.523.523 0 0 1-.29.292.546.546 0 0 1-.42-.004Z"/><path fill="#fff" fill-opacity=".7" d="m1688.5 128.138-2.72-1.345c-.2-.096-.36-.247-.47-.435a1.03 1.03 0 0 1-.14-.618l.19-3.029c.01-.145.08-.28.19-.376a.537.537 0 0 1 .39-.135.554.554 0 0 1 .52.581l-.17 2.666a.48.48 0 0 0 .07.308c.05.094.13.169.23.217l2.39 1.185c.13.064.23.177.28.315a.51.51 0 0 1-.03.418.446.446 0 0 1-.13.17.554.554 0 0 1-.18.107.551.551 0 0 1-.42-.029Z"/><path fill="#fff" fill-opacity=".7" d="M1688.52 138.768a.54.54 0 0 1-.39-.16.56.56 0 0 1-.16-.387l.01-3.554c.01-.191.06-.378.15-.543.1-.165.23-.303.4-.399l3.07-1.79a.543.543 0 0 1 .61.037c.05.043.1.098.14.16.03.062.06.131.07.202.01.071 0 .144-.02.213a.465.465 0 0 1-.09.192.519.519 0 0 1-.16.142l-2.8 1.631a.583.583 0 0 0-.2.198.634.634 0 0 0-.07.272l-.02 3.241c0 .145-.05.284-.16.386a.537.537 0 0 1-.38.159Z"/><path fill="#fff" fill-opacity=".7" d="m1685.36 136.141-.19-3.03c-.02-.215.03-.43.14-.618.11-.187.27-.338.46-.434l2.73-1.346a.533.533 0 0 1 .41-.028c.14.047.25.146.32.276.06.13.07.281.03.418a.564.564 0 0 1-.28.315l-2.39 1.185a.51.51 0 0 0-.23.217.563.563 0 0 0-.08.309l.17 2.665a.524.524 0 0 1-.13.397.558.558 0 0 1-.59.157.48.48 0 0 1-.18-.107.446.446 0 0 1-.13-.17.72.72 0 0 1-.06-.206Z"/><path fill="#fff" fill-opacity=".7" d="m1691.1 138.236-.22-1.767a1.098 1.098 0 0 1 .66-1.138l1.64-.699a.521.521 0 0 1 .41-.004.51.51 0 0 1 .3.293c.06.133.06.284.01.419a.576.576 0 0 1-.29.299l-1.26.538a.547.547 0 0 0-.33.569l.16 1.359a.542.542 0 0 1-.48.609.543.543 0 0 1-.4-.113.53.53 0 0 1-.2-.365Z"/><path fill="#fff" fill-opacity=".7" d="M1667.65 126.723a.493.493 0 0 1-.07-.202.492.492 0 0 1 .11-.406.432.432 0 0 1 .16-.141l2.8-1.633a.586.586 0 0 0 .2-.199.63.63 0 0 0 .07-.272l.01-3.241a.563.563 0 0 1 .55-.545c.15 0 .29.058.39.161.1.102.16.242.16.387l-.02 3.554c0 .19-.05.378-.14.543-.1.165-.23.302-.4.398l-3.07 1.791a.543.543 0 0 1-.42.058.56.56 0 0 1-.19-.093.565.565 0 0 1-.14-.16Z"/><path fill="#fff" fill-opacity=".7" d="M1666.1 123.93a.553.553 0 0 1-.01-.419.56.56 0 0 1 .3-.299l1.26-.538a.55.55 0 0 0 .33-.569l-.17-1.359a.533.533 0 0 1 .11-.404.567.567 0 0 1 .37-.205c.14-.018.29.023.4.113a.54.54 0 0 1 .21.365l.21 1.767a1.096 1.096 0 0 1-.66 1.137l-1.63.7a.55.55 0 0 1-.72-.289Z"/><path fill="#fff" fill-opacity=".7" d="M1670.77 127.893a.603.603 0 0 1-.03-.418.564.564 0 0 1 .28-.315l2.39-1.185c.1-.048.18-.123.23-.216a.563.563 0 0 0 .08-.309l-.18-2.666a.53.53 0 0 1 .14-.396.546.546 0 0 1 .77-.05c.11.096.18.231.19.376l.19 3.03c.02.215-.03.43-.14.618a1.09 1.09 0 0 1-.47.434l-2.72 1.343a.546.546 0 0 1-.73-.246Z"/><path fill="#fff" fill-opacity=".7" d="M1676.71 135.45a.546.546 0 0 1-.22-.048.509.509 0 0 1-.18-.135.529.529 0 0 1-.12-.199.583.583 0 0 1-.02-.228l.4-3.458-2.84-1.469a.541.541 0 0 1-.22-.77.537.537 0 0 1 .22-.202l2.84-1.469-.4-3.458a.626.626 0 0 1 .05-.303.553.553 0 0 1 .8-.215l2.98 1.988 2.98-1.988a.553.553 0 0 1 .8.215c.04.094.06.199.05.303l-.4 3.458 2.84 1.469a.537.537 0 0 1 .3.486.541.541 0 0 1-.3.486l-2.84 1.469.4 3.458a.626.626 0 0 1-.05.303.575.575 0 0 1-.21.227.545.545 0 0 1-.59-.012l-2.98-1.989-2.98 1.988c-.09.06-.2.093-.31.093Zm3.29-3.285c.11 0 .21.032.3.092l2.31 1.533-.31-2.66a.585.585 0 0 1 .06-.319.582.582 0 0 1 .23-.229l2.24-1.155-2.24-1.156a.582.582 0 0 1-.23-.229.584.584 0 0 1-.06-.319l.31-2.66-2.31 1.533a.531.531 0 0 1-.6 0l-2.3-1.533.3 2.66c.01.11-.01.222-.06.32a.528.528 0 0 1-.23.228l-2.24 1.156 2.24 1.157c.1.05.18.13.23.228.05.098.07.209.06.319l-.3 2.66 2.29-1.533c.09-.061.2-.093.31-.093Z"/><defs><filter id="c" width="1477.77" height="955.422" x="256.692" y="-363.555" color-interpolation-filters="sRGB" filterUnits="userSpaceOnUse"><feFlood flood-opacity="0" result="BackgroundImageFix"/><feBlend in="SourceGraphic" in2="BackgroundImageFix" result="shape"/><feGaussianBlur result="effect1_foregroundBlur_13042_157494" stdDeviation="100"/></filter><filter id="d" width="1142.25" height="1461.65" x="-240.017" y="189.531" color-interpolation-filters="sRGB" filterUnits="userSpaceOnUse"><feFlood flood-opacity="0" result="BackgroundImageFix"/><feBlend in="SourceGraphic" in2="BackgroundImageFix" result="shape"/><feGaussianBlur result="effect1_foregroundBlur_13042_157494" stdDeviation="100"/></filter><filter id="e" width="2198" height="1613" x="346.5" y="327" color-interpolation-filters="sRGB" filterUnits="userSpaceOnUse"><feFlood flood-opacity="0" result="BackgroundImageFix"/><feBlend in="SourceGraphic" in2="BackgroundImageFix" result="shape"/><feGaussianBlur result="effect1_foregroundBlur_13042_157494" stdDeviation="100"/></filter><linearGradient id="a" x1="995" x2="995" y1="0" y2="837" gradientUnits="userSpaceOnUse"><stop stop-color="#FBFCFD"/><stop offset="1" stop-color="#C3C8D5"/></linearGradient><clipPath id="b"><path fill="#fff" d="M.5 0h1990v1585H.5z"/></clipPath></defs></svg>
