<svg xmlns="http://www.w3.org/2000/svg" width="28" height="28" fill="none"><path fill="currentColor" fill-rule="evenodd" d="M3.542 6.257C2.485 4.95 3.416 3 5.098 3h3.265a2 2 0 0 1 1.555.743l14.547 18C25.522 23.05 24.591 25 22.91 25h-3.265a2 2 0 0 1-1.556-.743l-14.547-18ZM8.362 5H5.099l7.183 8.888 1.793 2.22L19.644 23h3.266l-7.075-8.754-1.794-2.22L8.363 5Z" clip-rule="evenodd"/><path fill="currentColor" fill-rule="evenodd" d="M3.833 24.881a1.414 1.414 0 0 1-.056-1.999l8.504-8.994 1.793 2.22 1.76-1.862-1.793-2.22 8.412-8.897a1.414 1.414 0 0 1 2.055 1.943l-8.673 9.174-1.76 1.862-8.243 8.717a1.414 1.414 0 0 1-1.999.056Z" clip-rule="evenodd"/></svg>
