<svg xmlns="http://www.w3.org/2000/svg" width="28" height="28" fill="none"><path stroke="currentColor" d="M26.297 7.49a3.244 3.244 0 0 0-2.264-2.333C22.027 4.667 14 4.667 14 4.667s-8.027 0-10.033.536a3.243 3.243 0 0 0-2.264 2.334 33.833 33.833 0 0 0-.536 6.171 33.834 33.834 0 0 0 .536 6.219 3.243 3.243 0 0 0 2.264 2.24c2.006.536 10.033.536 10.033.536s8.027 0 10.033-.536a3.243 3.243 0 0 0 2.264-2.334c.364-2.02.544-4.071.536-6.125a33.832 33.832 0 0 0-.536-6.218Z"/><path stroke="currentColor" d="m11.375 17.523 6.708-3.815-6.708-3.815v7.63Z"/></svg>
