<svg xmlns="http://www.w3.org/2000/svg" width="28" height="28" fill="none"><path fill="currentColor" fill-rule="evenodd" d="M25 9.28v9.44c0 .97-.66 1.67-1.47 1.764-2.19.252-5.46.516-9.53.516-4.07 0-7.34-.264-9.53-.516C3.66 20.39 3 19.689 3 18.72V9.279c0-.968.66-1.67 1.47-1.763C6.66 7.264 9.93 7 14 7c4.07 0 7.34.264 9.53.516.81.093 1.47.795 1.47 1.763Zm-24 0c0-1.908 1.348-3.533 3.242-3.75C6.498 5.27 9.844 5 14 5c4.156 0 7.502.27 9.758.53C25.653 5.746 27 7.371 27 9.28v9.44c0 1.908-1.348 3.533-3.242 3.75-2.256.26-5.602.53-9.758.53-4.156 0-7.502-.27-9.758-.53C2.348 22.254 1 20.629 1 18.72V9.28Zm11.555-.112A1 1 0 0 0 11 10v8a1 1 0 0 0 1.555.832l6-4a1 1 0 0 0 0-1.664l-6-4ZM13 16.13v-4.263L16.197 14 13 16.131Z" clip-rule="evenodd"/></svg>
