<svg xmlns="http://www.w3.org/2000/svg" width="64" height="64" fill="none"><path stroke="url(#a)" stroke-linecap="round" stroke-linejoin="round" stroke-width="4" d="M6 22h52M4.427 23.526l25.97 33.683a2.02 2.02 0 0 0 3.207 0l25.968-33.683a2.065 2.065 0 0 0 .12-2.343l-8.81-14.22A2.027 2.027 0 0 0 49.16 6H14.84a2.028 2.028 0 0 0-1.724.964L4.31 21.182a2.065 2.065 0 0 0 .118 2.344Z"/><path stroke="url(#b)" stroke-linecap="round" stroke-linejoin="round" stroke-width="4" d="m50 8-6 14m0 0L32 6 20 22m24 0L32 56 20 22M14 8l6 14"/><defs><linearGradient id="a" x1="32" x2="32" y1="6" y2="58" gradientUnits="userSpaceOnUse"><stop stop-color="#8791AB"/><stop offset="1" stop-color="#6DD1F0"/></linearGradient><linearGradient id="b" x1="32" x2="32" y1="6" y2="56" gradientUnits="userSpaceOnUse"><stop stop-color="#8791AB"/><stop offset="1" stop-color="#6DD1F0"/></linearGradient></defs></svg>