<svg width="28" height="28" viewBox="0 0 28 28" fill="none" xmlns="http://www.w3.org/2000/svg">
    <path d="M14 2C11.6266 2 9.30655 2.70379 7.33316 4.02236C5.35977 5.34094 3.8217 7.21508 2.91345 9.4078C2.0052 11.6005 1.76756 14.0133 2.23058 16.3411C2.6936 18.6689 3.83649 20.807 5.51472 22.4853C7.19295 24.1635 9.33115 25.3064 11.6589 25.7694C13.9867 26.2324 16.3995 25.9948 18.5922 25.0865C20.7849 24.1783 22.6591 22.6402 23.9776 20.6668C25.2962 18.6934 26 16.3734 26 14C25.9966 10.8184 24.7313 7.76814 22.4816 5.51843C20.2319 3.26872 17.1816 2.00336 14 2ZM14 24.1538C11.9918 24.1538 10.0286 23.5583 8.35883 22.4426C6.68904 21.3269 5.38759 19.7411 4.61907 17.8857C3.85055 16.0303 3.64947 13.9887 4.04126 12.0191C4.43305 10.0494 5.40011 8.24019 6.82015 6.82015C8.24019 5.40011 10.0494 4.43305 12.0191 4.04126C13.9887 3.64947 16.0303 3.85055 17.8857 4.61907C19.7411 5.38759 21.3269 6.68903 22.4426 8.35882C23.5583 10.0286 24.1538 11.9918 24.1538 14C24.1508 16.692 23.08 19.2729 21.1765 21.1765C19.2729 23.08 16.692 24.1508 14 24.1538ZM15.8462 19.5385C15.8462 19.7833 15.7489 20.0181 15.5758 20.1912C15.4027 20.3643 15.1679 20.4615 14.9231 20.4615C14.4334 20.4615 13.9639 20.267 13.6177 19.9208C13.2714 19.5746 13.0769 19.105 13.0769 18.6154V14C12.8321 14 12.5973 13.9027 12.4242 13.7296C12.2511 13.5565 12.1538 13.3217 12.1538 13.0769C12.1538 12.8321 12.2511 12.5973 12.4242 12.4242C12.5973 12.2511 12.8321 12.1538 13.0769 12.1538C13.5666 12.1538 14.0361 12.3483 14.3824 12.6946C14.7286 13.0408 14.9231 13.5104 14.9231 14V18.6154C15.1679 18.6154 15.4027 18.7126 15.5758 18.8857C15.7489 19.0589 15.8462 19.2936 15.8462 19.5385ZM12.1538 8.92308C12.1538 8.64922 12.2351 8.38152 12.3872 8.15382C12.5393 7.92613 12.7556 7.74866 13.0086 7.64386C13.2616 7.53906 13.54 7.51164 13.8086 7.56507C14.0772 7.61849 14.3239 7.75036 14.5175 7.944C14.7112 8.13765 14.843 8.38436 14.8965 8.65295C14.9499 8.92154 14.9225 9.19994 14.8177 9.45294C14.7129 9.70595 14.5354 9.9222 14.3077 10.0743C14.08 10.2265 13.8123 10.3077 13.5385 10.3077C13.1712 10.3077 12.8191 10.1618 12.5594 9.90215C12.2997 9.64248 12.1538 9.2903 12.1538 8.92308Z" fill="#009DBB"/>
</svg>
