<svg width="193" height="24" viewBox="0 0 193 24" fill="none" xmlns="http://www.w3.org/2000/svg">
<path d="M14 10.1262V9.09293H19.0601V10.1262H17.0998V15.897H15.9602V10.1262H14ZM21.9734 15.897V9.09293H26.0983V10.1262H23.1223V11.9734H25.8847V13.0067H23.1223V14.8637H26.1231V15.897H21.9734ZM32.6551 10.9634C32.6261 10.6733 32.5043 10.4474 32.2896 10.2857C32.077 10.124 31.8004 10.0431 31.4597 10.0431C31.2202 10.0431 31.0148 10.0819 30.8434 10.1595C30.6721 10.2369 30.541 10.3421 30.4501 10.4751C30.3594 10.6079 30.3128 10.7597 30.3108 10.9301C30.3108 11.0719 30.3408 11.1949 30.4006 11.299C30.4626 11.403 30.5462 11.4917 30.6514 11.5648C30.7567 11.6357 30.8734 11.6954 31.0014 11.7442C31.1294 11.7928 31.2584 11.8339 31.3885 11.867L31.983 12.0265C32.2225 12.0864 32.4528 12.1672 32.6736 12.269C32.8966 12.371 33.0958 12.4994 33.2713 12.6545C33.4488 12.8095 33.5892 12.9967 33.6924 13.2159C33.7957 13.4351 33.8473 13.6921 33.8473 13.9867C33.8473 14.3853 33.7523 14.7364 33.5624 15.0398C33.3725 15.3411 33.0979 15.5769 32.7387 15.7475C32.3815 15.9158 31.949 16 31.4411 16C30.9477 16 30.5193 15.918 30.156 15.7542C29.7947 15.5902 29.5118 15.351 29.3075 15.0365C29.1052 14.722 28.9957 14.3389 28.9792 13.887H30.1095C30.126 14.124 30.1942 14.3211 30.3139 14.4784C30.4337 14.6357 30.5895 14.753 30.7815 14.8306C30.9756 14.9081 31.1924 14.9468 31.4318 14.9468C31.6817 14.9468 31.9005 14.907 32.0883 14.8272C32.2783 14.7452 32.4269 14.6323 32.5342 14.4884C32.6416 14.3422 32.6964 14.1716 32.6984 13.9767C32.6964 13.7995 32.6478 13.6533 32.5529 13.5381C32.4579 13.4208 32.3248 13.3233 32.1534 13.2458C31.9841 13.1661 31.7859 13.0952 31.5588 13.0332L30.8372 12.8339C30.3149 12.6899 29.902 12.4717 29.5985 12.1794C29.2971 11.8848 29.1464 11.4939 29.1464 11.0067C29.1464 10.6057 29.2476 10.2547 29.4499 9.95343C29.6543 9.65218 29.932 9.41861 30.2829 9.25249C30.6339 9.0841 31.0313 9 31.4752 9C31.9253 9 32.3195 9.0841 32.6582 9.25249C32.9988 9.41861 33.2662 9.65 33.4602 9.94678C33.6542 10.2414 33.7544 10.5802 33.7606 10.9634H32.6551ZM36.5308 10.1262V9.09293H41.5909V10.1262H39.6306V15.897H38.491V10.1262H36.5308ZM44.5042 15.897V9.09293H48.6291V10.1262H45.6532V11.9734H48.4154V13.0067H45.6532V14.8637H48.6539V15.897H44.5042ZM53.8883 15.897H51.7391V9.09293H53.9316C54.5613 9.09293 55.1022 9.22921 55.5543 9.50166C56.0086 9.77183 56.3575 10.1605 56.6011 10.6678C56.8447 11.1749 56.9665 11.7818 56.9665 12.4884C56.9665 13.1971 56.8436 13.8061 56.598 14.3156C56.3544 14.8249 56.0024 15.2159 55.5419 15.4884C55.0836 15.7608 54.5324 15.897 53.8883 15.897ZM52.8881 14.8306H53.8325C54.2743 14.8306 54.6428 14.7442 54.9381 14.5714C55.2333 14.3965 55.4553 14.1362 55.6039 13.7906C55.7526 13.4429 55.8269 13.0088 55.8269 12.4884C55.8269 11.9679 55.7526 11.536 55.6039 11.1926C55.4553 10.8471 55.2353 10.5891 54.9443 10.4186C54.6552 10.2458 54.2961 10.1595 53.8666 10.1595H52.8881V14.8306ZM69.7641 12.495C69.7641 13.2281 69.6361 13.856 69.3801 14.3787C69.1261 14.8992 68.7792 15.2979 68.3395 15.5747C67.9019 15.8516 67.4054 15.99 66.85 15.99C66.2946 15.99 65.7971 15.8516 65.3573 15.5747C64.9196 15.2956 64.5729 14.8958 64.3169 14.3754C64.0629 13.8527 63.9359 13.2259 63.9359 12.495C63.9359 11.7619 64.0629 11.135 64.3169 10.6146C64.5729 10.0919 64.9196 9.6921 65.3573 9.41528C65.7971 9.13836 66.2946 9 66.85 9C67.4054 9 67.9019 9.13836 68.3395 9.41528C68.7792 9.6921 69.1261 10.0919 69.3801 10.6146C69.6361 11.135 69.7641 11.7619 69.7641 12.495ZM68.6089 12.495C68.6089 11.9789 68.5336 11.5437 68.3828 11.1893C68.2342 10.8327 68.0278 10.5636 67.7635 10.382C67.4993 10.1982 67.1947 10.1062 66.85 10.1062C66.5052 10.1062 66.2007 10.1982 65.9364 10.382C65.6721 10.5636 65.4647 10.8327 65.314 11.1893C65.1654 11.5437 65.091 11.9789 65.091 12.495C65.091 13.011 65.1654 13.4474 65.314 13.804C65.4647 14.1583 65.6721 14.4274 65.9364 14.6112C66.2007 14.7929 66.5052 14.8837 66.85 14.8837C67.1947 14.8837 67.4993 14.7929 67.7635 14.6112C68.0278 14.4274 68.2342 14.1583 68.3828 13.804C68.5336 13.4474 68.6089 13.011 68.6089 12.495ZM78 9.09293V15.897H76.9781L73.9896 11.2624H73.937V15.897H72.7881V9.09293H73.8162L76.8015 13.7309H76.8572V9.09293H78Z" fill="#AFB9BE"/>
<path fill-rule="evenodd" clip-rule="evenodd" d="M95.4145 15.911V16.8771C95.4145 17.1122 95.1521 17.2571 94.9428 17.1334L94.4856 16.846L94.3756 16.7853L92.3534 15.6408L92.2437 15.5793C92.1295 15.5148 92.0358 15.4224 91.9711 15.3109C91.9071 15.2004 91.8737 15.0749 91.875 14.9504L91.8745 10.1344C91.8745 9.99911 91.9135 9.86703 91.986 9.75364C92.0579 9.63974 92.162 9.54614 92.2687 9.49571L94.263 8.36753L94.3723 8.30501L94.4821 8.24366L96.392 7.16422L96.5039 7.09935C96.6268 7.03009 96.7659 6.9971 96.9069 7.00355C97.0438 7.01008 97.1788 7.05398 97.2716 7.11877L99.2591 8.243L99.3693 8.30383L101.39 9.44763L101.501 9.50942C101.615 9.57407 101.708 9.66627 101.773 9.77776C101.837 9.88799 101.87 10.0135 101.869 10.1383L101.869 12.3293C101.869 12.5619 101.612 12.7071 101.406 12.5907L100.549 12.1054C100.453 12.0515 100.395 11.9518 100.395 11.844V10.5501L98.6704 9.57407C98.6542 9.56615 98.6207 9.54753 98.5247 9.493L96.8718 8.55663L95.1534 9.52803C95.1367 9.53881 95.1367 9.53881 95.1259 9.54555C95.1194 9.54944 95.0015 9.61636 95.0015 9.61636L93.3494 10.5502V14.5385L95.0744 15.515C95.0868 15.521 95.1093 15.5336 95.2232 15.5979L95.2712 15.6397L95.2978 15.6745C95.371 15.7313 95.4145 15.8183 95.4145 15.911ZM100.857 13.1661C100.651 13.0502 100.395 13.1954 100.395 13.4278V13.6057L96.0227 11.133L95.874 11.0481C95.7254 10.9642 95.542 10.973 95.4037 11.0693L95.2891 11.1324L94.635 11.5009L94.3712 11.6492C94.1601 11.7686 94.094 12.0302 94.2172 12.2384L94.5186 12.7474C94.6409 12.9539 94.9087 13.0184 95.1207 12.897C95.3789 12.7511 95.3911 12.7443 95.4026 12.7364L95.4059 12.7342L95.6544 12.5945L96.1517 12.8758L96.1512 17.5716C96.1512 17.8066 96.3458 17.9972 96.5859 17.9972C96.696 17.9972 96.8013 17.9566 96.8817 17.8836L97.4674 17.4207C97.5805 17.3315 97.6399 17.1935 97.6276 17.0527L97.6285 13.7116L100.756 15.486C100.974 15.6092 101.217 15.5266 101.38 15.3231L101.782 14.9229C101.838 14.8663 101.869 14.7907 101.869 14.7119V13.9113C101.869 13.8034 101.81 13.7035 101.715 13.6497L100.857 13.1661Z" fill="#AFB9BE"/>
<path d="M106.267 16.9672V7.89998H108.184V15.3866H112.071V16.9672H106.267ZM115.245 17.0956C114.811 17.0956 114.424 17.0203 114.085 16.8698C113.745 16.7163 113.477 16.4906 113.279 16.1924C113.084 15.8914 112.987 15.5165 112.987 15.0679C112.987 14.6901 113.056 14.3728 113.195 14.116C113.334 13.8592 113.523 13.6526 113.762 13.4962C114.001 13.3398 114.272 13.2217 114.576 13.142C114.883 13.0623 115.205 13.0062 115.541 12.9737C115.937 12.9324 116.256 12.894 116.498 12.8586C116.74 12.8202 116.915 12.7642 117.025 12.6904C117.134 12.6166 117.188 12.5074 117.188 12.3628V12.3362C117.188 12.0558 117.1 11.8389 116.923 11.6854C116.749 11.5319 116.501 11.4552 116.179 11.4552C115.84 11.4552 115.569 11.5304 115.369 11.6809C115.168 11.8285 115.035 12.0145 114.97 12.2388L113.226 12.0971C113.314 11.6839 113.489 11.3267 113.748 11.0257C114.008 10.7217 114.343 10.4885 114.753 10.3262C115.167 10.1609 115.645 10.0782 116.188 10.0782C116.566 10.0782 116.927 10.1225 117.273 10.2111C117.621 10.2996 117.929 10.4368 118.198 10.6228C118.469 10.8088 118.683 11.0478 118.84 11.34C118.996 11.6293 119.074 11.9761 119.074 12.3805V16.9672H117.286V16.0242H117.233C117.123 16.2367 116.977 16.4242 116.794 16.5864C116.611 16.7459 116.392 16.8713 116.135 16.9628C115.878 17.0514 115.581 17.0956 115.245 17.0956ZM115.785 15.7939C116.062 15.7939 116.307 15.7393 116.52 15.6301C116.732 15.518 116.899 15.3674 117.02 15.1786C117.141 14.9897 117.202 14.7756 117.202 14.5366V13.8149C117.143 13.8533 117.062 13.8888 116.958 13.9212C116.858 13.9507 116.744 13.9788 116.617 14.0053C116.49 14.0289 116.363 14.051 116.236 14.0717C116.11 14.0894 115.994 14.1056 115.891 14.1204C115.67 14.1529 115.476 14.2045 115.311 14.2754C115.146 14.3462 115.017 14.4421 114.926 14.5632C114.835 14.6812 114.789 14.8288 114.789 15.0059C114.789 15.2627 114.882 15.459 115.068 15.5947C115.257 15.7275 115.496 15.7939 115.785 15.7939ZM120.538 16.9672V10.1668H122.335V11.3666H122.415C122.557 10.9682 122.793 10.6538 123.123 10.4236C123.454 10.1934 123.849 10.0782 124.31 10.0782C124.776 10.0782 125.173 10.1948 125.501 10.428C125.828 10.6582 126.047 10.9711 126.156 11.3666H126.227C126.366 10.977 126.616 10.6656 126.98 10.4324C127.346 10.1963 127.778 10.0782 128.277 10.0782C128.911 10.0782 129.426 10.2804 129.822 10.6848C130.22 11.0862 130.42 11.6558 130.42 12.3937V16.9672H128.538V12.7656C128.538 12.3879 128.438 12.1045 128.237 11.9156C128.036 11.7267 127.785 11.6322 127.484 11.6322C127.142 11.6322 126.875 11.7415 126.683 11.9599C126.491 12.1754 126.395 12.4601 126.395 12.8144V16.9672H124.567V12.7258C124.567 12.3923 124.471 12.1266 124.279 11.9289C124.09 11.7311 123.841 11.6322 123.531 11.6322C123.321 11.6322 123.132 11.6854 122.964 11.7917C122.799 11.8949 122.667 12.041 122.57 12.2299C122.473 12.4159 122.424 12.6343 122.424 12.8852V16.9672H120.538ZM131.945 16.9672V7.89998H133.831V11.3091H133.888C133.971 11.1261 134.091 10.9401 134.247 10.7512C134.406 10.5593 134.613 10.4 134.867 10.273C135.124 10.1431 135.442 10.0782 135.823 10.0782C136.319 10.0782 136.777 10.2081 137.196 10.4679C137.615 10.7246 137.95 11.1128 138.201 11.6322C138.452 12.1488 138.577 12.7966 138.577 13.5758C138.577 14.3344 138.455 14.9749 138.21 15.4973C137.967 16.0168 137.637 16.4108 137.218 16.6794C136.802 16.9451 136.335 17.0779 135.819 17.0779C135.453 17.0779 135.141 17.0174 134.885 16.8964C134.631 16.7754 134.423 16.6234 134.26 16.4404C134.098 16.2544 133.974 16.067 133.888 15.8781H133.804V16.9672H131.945ZM133.791 13.567C133.791 13.9714 133.847 14.3241 133.959 14.6252C134.071 14.9262 134.234 15.1609 134.446 15.3291C134.659 15.4944 134.917 15.577 135.221 15.577C135.528 15.577 135.788 15.4929 136 15.3246C136.213 15.1535 136.374 14.9173 136.483 14.6163C136.595 14.3123 136.651 13.9625 136.651 13.567C136.651 13.1745 136.596 12.8291 136.487 12.531C136.378 12.2329 136.217 11.9998 136.005 11.8315C135.792 11.6632 135.531 11.5791 135.221 11.5791C134.914 11.5791 134.654 11.6603 134.442 11.8226C134.232 11.9849 134.071 12.2152 133.959 12.5133C133.847 12.8114 133.791 13.1626 133.791 13.567ZM142.341 17.0779C141.825 17.0779 141.357 16.9451 140.938 16.6794C140.522 16.4108 140.191 16.0168 139.946 15.4973C139.704 14.9749 139.583 14.3344 139.583 13.5758C139.583 12.7966 139.709 12.1488 139.959 11.6322C140.21 11.1128 140.544 10.7246 140.96 10.4679C141.379 10.2081 141.838 10.0782 142.337 10.0782C142.718 10.0782 143.035 10.1431 143.289 10.273C143.546 10.4 143.752 10.5593 143.909 10.7512C144.068 10.9401 144.189 11.1261 144.272 11.3091H144.329V7.89998H146.211V16.9672H144.351V15.8781H144.272C144.183 16.067 144.058 16.2544 143.895 16.4404C143.736 16.6234 143.528 16.7754 143.271 16.8964C143.017 17.0174 142.707 17.0779 142.341 17.0779ZM142.939 15.577C143.243 15.577 143.5 15.4944 143.709 15.3291C143.922 15.1609 144.084 14.9262 144.196 14.6252C144.312 14.3241 144.369 13.9714 144.369 13.567C144.369 13.1626 144.313 12.8114 144.201 12.5133C144.089 12.2152 143.926 11.9849 143.714 11.8226C143.501 11.6603 143.243 11.5791 142.939 11.5791C142.629 11.5791 142.368 11.6632 142.155 11.8315C141.943 11.9998 141.782 12.2329 141.673 12.531C141.564 12.8291 141.509 13.1745 141.509 13.567C141.509 13.9625 141.564 14.3123 141.673 14.6163C141.785 14.9173 141.946 15.1535 142.155 15.3246C142.368 15.4929 142.629 15.577 142.939 15.577ZM149.701 17.0956C149.267 17.0956 148.88 17.0203 148.541 16.8698C148.201 16.7163 147.933 16.4906 147.735 16.1924C147.54 15.8914 147.443 15.5165 147.443 15.0679C147.443 14.6901 147.512 14.3728 147.651 14.116C147.79 13.8592 147.978 13.6526 148.218 13.4962C148.457 13.3398 148.728 13.2217 149.032 13.142C149.339 13.0623 149.661 13.0062 149.997 12.9737C150.393 12.9324 150.712 12.894 150.954 12.8586C151.196 12.8202 151.371 12.7642 151.481 12.6904C151.59 12.6166 151.644 12.5074 151.644 12.3628V12.3362C151.644 12.0558 151.556 11.8389 151.379 11.6854C151.205 11.5319 150.957 11.4552 150.635 11.4552C150.295 11.4552 150.025 11.5304 149.825 11.6809C149.624 11.8285 149.491 12.0145 149.426 12.2388L147.682 12.0971C147.77 11.6839 147.945 11.3267 148.204 11.0257C148.464 10.7217 148.799 10.4885 149.209 10.3262C149.623 10.1609 150.101 10.0782 150.644 10.0782C151.022 10.0782 151.383 10.1225 151.728 10.2111C152.077 10.2996 152.385 10.4368 152.654 10.6228C152.925 10.8088 153.139 11.0478 153.296 11.34C153.452 11.6293 153.53 11.9761 153.53 12.3805V16.9672H151.742V16.0242H151.689C151.579 16.2367 151.433 16.4242 151.25 16.5864C151.067 16.7459 150.847 16.8713 150.591 16.9628C150.334 17.0514 150.037 17.0956 149.701 17.0956ZM150.241 15.7939C150.518 15.7939 150.763 15.7393 150.976 15.6301C151.188 15.518 151.355 15.3674 151.476 15.1786C151.597 14.9897 151.658 14.7756 151.658 14.5366V13.8149C151.599 13.8533 151.517 13.8888 151.414 13.9212C151.314 13.9507 151.2 13.9788 151.073 14.0053C150.946 14.0289 150.819 14.051 150.693 14.0717C150.566 14.0894 150.45 14.1056 150.347 14.1204C150.126 14.1529 149.932 14.2045 149.767 14.2754C149.602 14.3462 149.473 14.4421 149.382 14.5632C149.29 14.6812 149.245 14.8288 149.245 15.0059C149.245 15.2627 149.338 15.459 149.524 15.5947C149.713 15.7275 149.952 15.7939 150.241 15.7939ZM154.112 9.48055V7.89998H161.559V9.48055H158.782V16.9672H156.887V9.48055H154.112ZM164.862 17.1C164.163 17.1 163.56 16.9583 163.056 16.675C162.554 16.3887 162.168 15.9844 161.896 15.4619C161.625 14.9365 161.488 14.3152 161.488 13.598C161.488 12.8984 161.625 12.2845 161.896 11.7562C162.168 11.2279 162.55 10.8162 163.043 10.521C163.538 10.2258 164.12 10.0782 164.787 10.0782C165.236 10.0782 165.653 10.1505 166.04 10.2952C166.429 10.4368 166.769 10.6509 167.058 10.9372C167.351 11.2235 167.578 11.5836 167.74 12.0174C167.902 12.4483 167.984 12.953 167.984 13.5316V14.0496H162.241V12.8808H166.208C166.208 12.6092 166.149 12.3687 166.031 12.1591C165.913 11.9495 165.749 11.7857 165.539 11.6676C165.333 11.5466 165.092 11.4862 164.818 11.4862C164.532 11.4862 164.278 11.5526 164.057 11.6854C163.838 11.8153 163.667 11.9909 163.543 12.2122C163.419 12.4307 163.355 12.6742 163.352 12.9427V14.054C163.352 14.3905 163.415 14.6812 163.538 14.9262C163.665 15.1711 163.844 15.3601 164.074 15.4929C164.304 15.6257 164.578 15.6921 164.893 15.6921C165.103 15.6921 165.295 15.6626 165.469 15.6036C165.643 15.5445 165.792 15.456 165.916 15.338C166.04 15.2199 166.135 15.0753 166.199 14.9041L167.944 15.0192C167.855 15.4383 167.674 15.8043 167.399 16.1172C167.128 16.4271 166.777 16.6691 166.346 16.8433C165.918 17.0144 165.423 17.1 164.862 17.1ZM174.872 12.106L173.146 12.2122C173.116 12.0646 173.053 11.9318 172.956 11.8138C172.858 11.6928 172.73 11.5968 172.57 11.526C172.414 11.4522 172.226 11.4153 172.008 11.4153C171.716 11.4153 171.469 11.4773 171.269 11.6012C171.068 11.7222 170.968 11.8846 170.968 12.0883C170.968 12.2506 171.032 12.3879 171.163 12.5C171.292 12.6121 171.515 12.7022 171.831 12.7701L173.062 13.018C173.723 13.1538 174.216 13.3722 174.54 13.6733C174.865 13.9743 175.028 14.3698 175.028 14.8598C175.028 15.3055 174.896 15.6965 174.633 16.033C174.374 16.3695 174.017 16.6322 173.562 16.8211C173.11 17.0071 172.59 17.1 171.999 17.1C171.099 17.1 170.381 16.9126 169.848 16.5378C169.316 16.16 169.005 15.6464 168.913 14.9971L170.768 14.8997C170.824 15.1742 170.96 15.3837 171.176 15.5283C171.391 15.67 171.667 15.7408 172.003 15.7408C172.334 15.7408 172.6 15.6774 172.8 15.5505C173.004 15.4206 173.107 15.2538 173.11 15.0501C173.107 14.879 173.035 14.7388 172.893 14.6296C172.752 14.5174 172.533 14.4318 172.238 14.3728L171.061 14.1381C170.397 14.0053 169.902 13.7751 169.577 13.4474C169.256 13.1199 169.095 12.7022 169.095 12.1945C169.095 11.7577 169.213 11.3813 169.449 11.0655C169.688 10.7497 170.023 10.5062 170.454 10.335C170.888 10.1638 171.396 10.0782 171.977 10.0782C172.836 10.0782 173.512 10.2598 174.004 10.6228C174.501 10.9858 174.79 11.4802 174.872 12.106ZM179.832 10.1668V11.5836H175.737V10.1668H179.832ZM176.667 8.53751H178.552V14.8775C178.552 15.0517 178.58 15.1874 178.632 15.2848C178.686 15.3792 178.759 15.4456 178.854 15.4841C178.951 15.5224 179.063 15.5416 179.19 15.5416C179.279 15.5416 179.368 15.5343 179.456 15.5195C179.544 15.5018 179.612 15.4884 179.659 15.4797L179.956 16.8831C179.862 16.9126 179.729 16.9465 179.558 16.9849C179.387 17.0262 179.178 17.0514 178.934 17.0602C178.479 17.0779 178.08 17.0174 177.738 16.8787C177.399 16.7399 177.134 16.5245 176.946 16.2323C176.757 15.94 176.664 15.5711 176.667 15.1254V8.53751Z" fill="#AFB9BE"/>
<path fill-rule="evenodd" clip-rule="evenodd" d="M187 23H6C3.23858 23 1 20.7614 1 18V6C1 3.23857 3.23857 1 5.99999 1H187C189.761 1 192 3.23858 192 6V18C192 20.7614 189.761 23 187 23ZM6 24C2.68629 24 0 21.3137 0 18V6C0 2.68629 2.68629 0 5.99999 0H187C190.314 0 193 2.68629 193 6V18C193 21.3137 190.314 24 187 24H6Z" fill="#AFB9BE"/>
</svg>
